<?xml version="1.0" encoding="UTF-8"?>
<svg xmlns="http://www.w3.org/2000/svg" width="40.64mm" height="130.55mm" viewBox="0 0 115.2 370.07">
  <g id="faceplate">
    <g>
      <rect x=".12" y=".13" width="114.95" height="364" style="fill: #ededed; stroke-width: 0px;"/>
      <path d="M114.95.25v363.75H.25V.25h114.7M115.2,0H0v364.25h115.2V0h0Z" style="fill: #9d9d9e; stroke-width: 0px;"/>
    </g>
    <g>
      <path d="M100.35,316.77v-23.22h-21.54c-7.49,0-13.57,7.04-13.57,15.71v32.93h15.07s0,0,0,0h14.39c3.12,0,5.64-2.55,5.64-5.67v-19.84.08Z" style="fill: #000; stroke-width: 0px;"/>
      <g>
        <path d="M28.23,341.72h35.2s23.15,0,23.15,0c7.35,0,13.31-7.02,13.31-15.67v-107.66l-.06-6.64c-.29-8.35-6.12-15.02-13.28-15.02H28.2c-7.17,0-12.99,6.67-13.28,15.02l-.06,6.64v46.5l.07,61.17" style="fill: none; stroke: #000; stroke-miterlimit: 10;"/>
        <path d="M14.92,325.09v10.96c0,3.12,2.55,5.67,5.67,5.67h12.93" style="fill: none; stroke: #231f20; stroke-miterlimit: 10;"/>
      </g>
    </g>
    <g>
      <path d="M49.4,18.19c-.37,0-.71-.17-.97-.47-.51-.6-.52-1.54-.04-2.16l6.97-8.88c.38-.48,1.05-.65,1.57-.39.5.25.79.82.79,1.45v4.77l4.64-5.85c.38-.48,1.01-.64,1.53-.38.5.25.83.81.83,1.44v8.82c0,.86-.61,1.57-1.36,1.57s-1.36-.7-1.36-1.57v-4.79l-4.64,5.85c-.38.48-1.01.64-1.54.38-.5-.24-.83-.81-.83-1.44v-4.67l-4.61,5.8c-.26.32-.62.51-1,.51h0Z" style="fill: #2cabe1; stroke-width: 0px;"/>
      <path d="M49.4,18.19c-.75,0-1.35-.7-1.35-1.57v-4.93l-2.26,2.84c-.5.63-1.44.65-1.97.04-.51-.6-.52-1.53-.03-2.15l4.61-5.76c.26-.32.63-.5,1-.5.18,0,.37.04.54.12.5.25.82.81.82,1.44v8.89c0,.86-.61,1.57-1.36,1.57h0Z" style="fill: #ea2228; stroke-width: 0px;"/>
      <path d="M66,18.21h0c-.35,0-.68-.15-.94-.42-.76-.78-.14-1.84.29-2.3l1.95-2.36-1.26-.02c-.56-.01-1.04-.4-1.24-1-.19-.56-.07-1.21.29-1.64l3.16-3.83c.23-.28.55-.48,1.13-.47.33,0,.67.17.92.4.71.66.29,1.7-.07,2.2l-1.04,1.26,1.26.02c.56.01,1.04.4,1.24,1,.19.56.07,1.21-.29,1.64l-4.1,4.97c-.35.35-.65.55-1.3.54h0Z" style="fill: #00a650; stroke-width: 0px;"/>
    </g>
    <g id="pips">
      <path d="M102.87,56.98h2.26c-.15-3.28-1.01-6.37-2.44-9.12l-1.95,1.13c1.24,2.42,1.99,5.13,2.14,8Z" style="fill: #000; stroke-width: 0px;"/>
      <path d="M102.87,58.98c-.14,2.87-.89,5.57-2.14,8l1.95,1.13c1.43-2.75,2.3-5.84,2.44-9.12h-2.26Z" style="fill: #000; stroke-width: 0px;"/>
      <g>
        <path d="M40.61,40.4l1.13-1.95c-2.75-1.43-5.84-2.3-9.12-2.44v2.26c2.87.14,5.57.89,7.99,2.14Z" style="fill: #000; stroke-width: 0px;"/>
        <path d="M48.2,47.26l1.95-1.13c-1.72-2.68-4-4.96-6.68-6.68l-1.13,1.95c2.34,1.52,4.33,3.51,5.85,5.85Z" style="fill: #000; stroke-width: 0px;"/>
        <path d="M20.89,41.4l-1.13-1.95c-2.68,1.72-4.96,4-6.68,6.68l1.95,1.13c1.52-2.34,3.51-4.33,5.85-5.85Z" style="fill: #000; stroke-width: 0px;"/>
        <path d="M51.34,56.98h2.26c-.15-3.28-1.01-6.37-2.44-9.12l-1.95,1.13c1.24,2.42,1.99,5.13,2.14,8Z" style="fill: #000; stroke-width: 0px;"/>
        <path d="M30.62,38.27v-2.26c-3.28.15-6.37,1.01-9.12,2.44l1.13,1.95c2.42-1.24,5.13-1.99,8-2.14Z" style="fill: #000; stroke-width: 0px;"/>
        <path d="M15.04,68.71l-1.95,1.13c1.72,2.68,4,4.96,6.68,6.68l1.13-1.95c-2.34-1.52-4.33-3.51-5.85-5.85Z" style="fill: #000; stroke-width: 0px;"/>
        <path d="M42.35,74.56l1.13,1.95c2.68-1.72,4.96-4,6.68-6.68l-1.95-1.13c-1.52,2.34-3.51,4.33-5.85,5.85Z" style="fill: #000; stroke-width: 0px;"/>
        <path d="M51.34,58.98c-.14,2.87-.89,5.57-2.14,8l1.95,1.13c1.43-2.75,2.3-5.84,2.44-9.12h-2.26Z" style="fill: #000; stroke-width: 0px;"/>
        <path d="M11.9,58.98h-2.26c.15,3.28,1.01,6.37,2.44,9.12l1.95-1.13c-1.24-2.42-1.99-5.13-2.14-8Z" style="fill: #000; stroke-width: 0px;"/>
        <path d="M14.04,48.99l-1.95-1.13c-1.43,2.75-2.3,5.84-2.44,9.12h2.26c.14-2.87.89-5.57,2.14-8Z" style="fill: #000; stroke-width: 0px;"/>
      </g>
      <path d="M92.15,40.4l1.13-1.95c-2.75-1.43-5.84-2.3-9.12-2.44v2.26c2.87.14,5.57.89,7.99,2.14Z" style="fill: #000; stroke-width: 0px;"/>
      <path d="M99.73,47.26l1.95-1.13c-1.72-2.68-4-4.96-6.68-6.68l-1.13,1.95c2.34,1.52,4.33,3.51,5.85,5.85Z" style="fill: #000; stroke-width: 0px;"/>
      <path d="M72.42,41.4l-1.13-1.95c-2.68,1.72-4.96,4-6.68,6.68l1.95,1.13c1.52-2.34,3.51-4.33,5.85-5.85Z" style="fill: #000; stroke-width: 0px;"/>
      <path d="M82.15,38.27v-2.26c-3.28.15-6.37,1.01-9.12,2.44l1.13,1.95c2.42-1.24,5.13-1.99,8-2.14Z" style="fill: #000; stroke-width: 0px;"/>
      <path d="M66.57,68.71l-1.95,1.13c1.72,2.68,4,4.96,6.68,6.68l1.13-1.95c-2.34-1.52-4.33-3.51-5.85-5.85Z" style="fill: #000; stroke-width: 0px;"/>
      <path d="M93.88,74.56l1.13,1.95c2.68-1.72,4.96-4,6.68-6.68l-1.95-1.13c-1.52,2.34-3.51,4.33-5.85,5.85Z" style="fill: #000; stroke-width: 0px;"/>
      <path d="M63.44,58.98h-2.26c.15,3.28,1.01,6.37,2.44,9.12l1.95-1.13c-1.24-2.42-1.99-5.13-2.14-8Z" style="fill: #000; stroke-width: 0px;"/>
      <path d="M65.57,48.99l-1.95-1.13c-1.43,2.75-2.3,5.84-2.44,9.12h2.26c.14-2.87.89-5.57,2.14-8Z" style="fill: #000; stroke-width: 0px;"/>
      <path d="M40.61,101.8l1.13-1.95c-2.75-1.43-5.84-2.3-9.12-2.44v2.26c2.87.14,5.57.89,7.99,2.14Z" style="fill: #000; stroke-width: 0px;"/>
      <path d="M48.2,108.66l1.95-1.13c-1.72-2.68-4-4.96-6.68-6.68l-1.13,1.95c2.34,1.52,4.33,3.51,5.85,5.85Z" style="fill: #000; stroke-width: 0px;"/>
      <path d="M20.89,102.81l-1.13-1.95c-2.68,1.72-4.96,4-6.68,6.68l1.95,1.13c1.52-2.34,3.51-4.33,5.85-5.85Z" style="fill: #000; stroke-width: 0px;"/>
      <path d="M51.34,118.39h2.26c-.15-3.28-1.01-6.37-2.44-9.12l-1.95,1.13c1.24,2.42,1.99,5.13,2.14,8Z" style="fill: #000; stroke-width: 0px;"/>
      <path d="M30.62,99.67v-2.26c-3.28.15-6.37,1.01-9.12,2.44l1.13,1.95c2.42-1.24,5.13-1.99,8-2.14Z" style="fill: #000; stroke-width: 0px;"/>
      <path d="M15.04,130.11l-1.95,1.13c1.72,2.68,4,4.96,6.68,6.68l1.13-1.95c-2.34-1.52-4.33-3.51-5.85-5.85Z" style="fill: #000; stroke-width: 0px;"/>
      <path d="M42.35,135.97l1.13,1.95c2.68-1.72,4.96-4,6.68-6.68l-1.95-1.13c-1.52,2.34-3.51,4.33-5.85,5.85Z" style="fill: #000; stroke-width: 0px;"/>
      <path d="M51.34,120.39c-.14,2.87-.89,5.57-2.14,8l1.95,1.13c1.43-2.75,2.3-5.84,2.44-9.12h-2.26Z" style="fill: #000; stroke-width: 0px;"/>
      <path d="M11.9,120.39h-2.26c.15,3.28,1.01,6.37,2.44,9.12l1.95-1.13c-1.24-2.42-1.99-5.13-2.14-8Z" style="fill: #000; stroke-width: 0px;"/>
      <path d="M14.04,110.39l-1.95-1.13c-1.43,2.75-2.3,5.84-2.44,9.12h2.26c.14-2.87.89-5.57,2.14-8Z" style="fill: #000; stroke-width: 0px;"/>
      <path d="M92.15,101.8l1.13-1.95c-2.75-1.43-5.84-2.3-9.12-2.44v2.26c2.87.14,5.57.89,7.99,2.14Z" style="fill: #000; stroke-width: 0px;"/>
      <path d="M99.73,108.66l1.95-1.13c-1.72-2.68-4-4.96-6.68-6.68l-1.13,1.95c2.34,1.52,4.33,3.51,5.85,5.85Z" style="fill: #000; stroke-width: 0px;"/>
      <path d="M72.42,102.81l-1.13-1.95c-2.68,1.72-4.96,4-6.68,6.68l1.95,1.13c1.52-2.34,3.51-4.33,5.85-5.85Z" style="fill: #000; stroke-width: 0px;"/>
      <path d="M102.87,118.39h2.26c-.15-3.28-1.01-6.37-2.44-9.12l-1.95,1.13c1.24,2.42,1.99,5.13,2.14,8Z" style="fill: #000; stroke-width: 0px;"/>
      <path d="M82.15,99.67v-2.26c-3.28.15-6.37,1.01-9.12,2.44l1.13,1.95c2.42-1.24,5.13-1.99,8-2.14Z" style="fill: #000; stroke-width: 0px;"/>
      <path d="M66.57,130.11l-1.95,1.13c1.72,2.68,4,4.96,6.68,6.68l1.13-1.95c-2.34-1.52-4.33-3.51-5.85-5.85Z" style="fill: #000; stroke-width: 0px;"/>
      <path d="M93.88,135.97l1.13,1.95c2.68-1.72,4.96-4,6.68-6.68l-1.95-1.13c-1.52,2.34-3.51,4.33-5.85,5.85Z" style="fill: #000; stroke-width: 0px;"/>
      <path d="M102.87,120.39c-.14,2.87-.89,5.57-2.14,8l1.95,1.13c1.43-2.75,2.3-5.84,2.44-9.12h-2.26Z" style="fill: #000; stroke-width: 0px;"/>
      <path d="M63.44,120.39h-2.26c.15,3.28,1.01,6.37,2.44,9.12l1.95-1.13c-1.24-2.42-1.99-5.13-2.14-8Z" style="fill: #000; stroke-width: 0px;"/>
      <path d="M65.57,110.39l-1.95-1.13c-1.43,2.75-2.3,5.84-2.44,9.12h2.26c.14-2.87.89-5.57,2.14-8Z" style="fill: #000; stroke-width: 0px;"/>
    </g>
    <g id="text">
      <text transform="translate(38.57 357.35) scale(.82 1)" style="fill: #000; font-family: GillSans-Bold, &apos;Gill Sans&apos;; font-size: 11px; font-weight: 700;"><tspan x="0" y="0">DJEMBE</tspan></text>
      <text transform="translate(73.5 239.87) scale(.88 1)" style="fill: #000; font-family: GillSans-Bold, &apos;Gill Sans&apos;; font-size: 8px; font-weight: 700; letter-spacing: -.04em;"><tspan x="0" y="0">Sharp</tspan></text>
      <text transform="translate(73.01 289.77) scale(.88 1)" style="fill: #000; font-family: GillSans-Bold, &apos;Gill Sans&apos;; font-size: 8px; font-weight: 700; letter-spacing: -.04em;"><tspan x="0" y="0">Strike</tspan></text>
      <text transform="translate(76.66 337.03) scale(.88 1)" style="fill: #fff; font-family: GillSans-Bold, &apos;Gill Sans&apos;; font-size: 8px; font-weight: 700; letter-spacing: -.04em;"><tspan x="0" y="0">Out</tspan></text>
      <text transform="translate(23.48 239.87) scale(.88 1)" style="fill: #000; font-family: GillSans-Bold, &apos;Gill Sans&apos;; font-size: 8px; font-weight: 700; letter-spacing: -.04em;"><tspan x="0" y="0">Pitch</tspan></text>
      <text transform="translate(26.52 289.77) scale(.88 1)" style="fill: #000; font-family: GillSans-Bold, &apos;Gill Sans&apos;; font-size: 8px; font-weight: 700; letter-spacing: -.04em;"><tspan x="0" y="0">Hit</tspan></text>
      <text transform="translate(19.53 337.03) scale(.88 1)" style="fill: #000; font-family: GillSans-Bold, &apos;Gill Sans&apos;; font-size: 8px; font-weight: 700; letter-spacing: -.04em;"><tspan x="0" y="0">Trigger</tspan></text>
      <text transform="translate(20.67 85.76) scale(.88 1)" style="fill: #000; font-family: GillSans-Bold, &apos;Gill Sans&apos;; font-size: 10px; font-weight: 700; letter-spacing: -.04em;"><tspan x="0" y="0">Pitch</tspan></text>
      <text transform="translate(61.79 85.76) scale(.88 1)" style="fill: #000; font-family: GillSans-Bold, &apos;Gill Sans&apos;; font-size: 10px; font-weight: 700; letter-spacing: -.04em;"><tspan x="0" y="0">Sharpness</tspan></text>
      <text transform="translate(24.55 147.07) scale(.88 1)" style="fill: #000; font-family: GillSans-Bold, &apos;Gill Sans&apos;; font-size: 10px; font-weight: 700; letter-spacing: -.04em;"><tspan x="0" y="0">Hit</tspan></text>
      <text transform="translate(59.49 147.07) scale(.88 1)" style="fill: #000; font-family: GillSans-Bold, &apos;Gill Sans&apos;; font-size: 10px; font-weight: 700; letter-spacing: -.04em;"><tspan x="0" y="0">Strike Amt</tspan></text>
    </g>
  </g>
  <g id="components">
    <circle id="Out" cx="83.2" cy="311.98" r="11.34" style="fill: blue; stroke-width: 0px;"/>
    <circle id="Trigger" cx="32" cy="311.98" r="11.34" style="fill: lime; stroke-width: 0px;"/>
    <circle id="Strike_CV" data-name="Strike CV" cx="83.2" cy="263.25" r="11.34" style="fill: lime; stroke-width: 0px;"/>
    <circle id="Hit_CV" data-name="Hit CV" cx="32" cy="263.25" r="11.34" style="fill: lime; stroke-width: 0px;"/>
    <circle id="Sharp_CV" data-name="Sharp CV" cx="83.2" cy="214.53" r="11.34" style="fill: lime; stroke-width: 0px;"/>
    <circle id="Pitch_CV" data-name="Pitch CV" cx="32" cy="214.53" r="11.34" style="fill: lime; stroke-width: 0px;"/>
    <circle id="Strike_Amt" data-name="Strike Amt" cx="83.37" cy="119.09" r="17.01" style="fill: #ff0040; stroke-width: 0px;"/>
    <circle id="Hit" cx="31.83" cy="119.09" r="17.01" style="fill: #ff0040; stroke-width: 0px;"/>
    <circle id="Sharpness" cx="83.37" cy="57.85" r="17.01" style="fill: red; stroke-width: 0px;"/>
    <circle id="Pitch" cx="31.83" cy="57.85" r="17.01" style="fill: #ff0020; stroke-width: 0px;"/>
    <text id="slug" transform="translate(70.11 369.32)" style="fill: #000; font-family: MyriadPro-Regular, &apos;Myriad Pro&apos;; font-size: 3px;"><tspan x="0" y="0" style="letter-spacing: 0em;">D</tspan><tspan x="2.01" y="0" style="letter-spacing: 0em;">jembe</tspan></text>
    <text id="modulename" transform="translate(83.43 369.32)" style="fill: #000; font-family: MyriadPro-Regular, &apos;Myriad Pro&apos;; font-size: 3px;"><tspan x="0" y="0" style="letter-spacing: 0em;">D</tspan><tspan x="2.01" y="0" style="letter-spacing: 0em;">jembe Drum</tspan><tspan x="17.73" y="0" style="letter-spacing: -.04em;"> </tspan><tspan x="18.25" y="0" style="letter-spacing: -.03em;">V</tspan><tspan x="19.83" y="0" style="letter-spacing: 0em;">oi</tspan><tspan x="22.18" y="0" style="letter-spacing: 0em;">c</tspan><tspan x="23.5" y="0">e</tspan></text>
  </g>
</svg>