<?xml version="1.0" encoding="UTF-8" standalone="no"?>
<svg
   width="40.64mm"
   height="130.55mm"
   viewBox="0 0 115.2 370.07"
   version="1.1"
   id="svg115"
   sodipodi:docname="FM_info.svg"
   inkscape:version="1.3.2 (091e20e, 2023-11-25)"
   xmlns:inkscape="http://www.inkscape.org/namespaces/inkscape"
   xmlns:sodipodi="http://sodipodi.sourceforge.net/DTD/sodipodi-0.dtd"
   xmlns="http://www.w3.org/2000/svg"
   xmlns:svg="http://www.w3.org/2000/svg">
  <sodipodi:namedview
     id="namedview115"
     pagecolor="#ffffff"
     bordercolor="#666666"
     borderopacity="1.0"
     inkscape:showpageshadow="2"
     inkscape:pageopacity="0.0"
     inkscape:pagecheckerboard="0"
     inkscape:deskcolor="#d1d1d1"
     inkscape:document-units="mm"
     inkscape:zoom="0.47829694"
     inkscape:cx="76.312427"
     inkscape:cy="247.75404"
     inkscape:window-width="1312"
     inkscape:window-height="496"
     inkscape:window-x="52"
     inkscape:window-y="38"
     inkscape:window-maximized="0"
     inkscape:current-layer="components" />
  <defs
     id="defs16">
    <clipPath
       id="clippath">
      <rect
         x="17.72"
         y="112.8"
         width="27.8"
         height="25.62"
         style="fill: none; stroke-width: 0px;"
         id="rect1" />
    </clipPath>
    <clipPath
       id="clippath-1">
      <rect
         x="17.72"
         y="112.8"
         width="27.8"
         height="25.62"
         style="fill: none; stroke-width: 0px;"
         id="rect2" />
    </clipPath>
    <clipPath
       id="clippath-2">
      <rect
         x="69.26"
         y="112.8"
         width="27.8"
         height="25.62"
         style="fill: none; stroke-width: 0px;"
         id="rect3" />
    </clipPath>
    <clipPath
       id="clippath-3">
      <rect
         x="69.26"
         y="112.8"
         width="27.8"
         height="25.62"
         style="fill: none; stroke-width: 0px;"
         id="rect4" />
    </clipPath>
    <clipPath
       id="clippath-4">
      <rect
         x="17.72"
         y="155.94"
         width="27.8"
         height="25.62"
         style="fill: none; stroke-width: 0px;"
         id="rect5" />
    </clipPath>
    <clipPath
       id="clippath-5">
      <rect
         x="17.72"
         y="155.94"
         width="27.8"
         height="25.62"
         style="fill: none; stroke-width: 0px;"
         id="rect6" />
    </clipPath>
    <clipPath
       id="clippath-6">
      <rect
         x="69.26"
         y="155.94"
         width="27.8"
         height="25.62"
         style="fill: none; stroke-width: 0px;"
         id="rect7" />
    </clipPath>
    <clipPath
       id="clippath-7">
      <rect
         x="69.26"
         y="155.94"
         width="27.8"
         height="25.62"
         style="fill: none; stroke-width: 0px;"
         id="rect8" />
    </clipPath>
    <clipPath
       id="clippath-8">
      <rect
         x="17.72"
         y="26.52"
         width="27.8"
         height="25.62"
         style="fill: none; stroke-width: 0px;"
         id="rect9" />
    </clipPath>
    <clipPath
       id="clippath-9">
      <rect
         x="17.72"
         y="26.52"
         width="27.8"
         height="25.62"
         style="fill: none; stroke-width: 0px;"
         id="rect10" />
    </clipPath>
    <clipPath
       id="clippath-10">
      <rect
         x="69.26"
         y="26.52"
         width="27.8"
         height="25.62"
         style="fill: none; stroke-width: 0px;"
         id="rect11" />
    </clipPath>
    <clipPath
       id="clippath-11">
      <rect
         x="69.26"
         y="26.52"
         width="27.8"
         height="25.62"
         style="fill: none; stroke-width: 0px;"
         id="rect12" />
    </clipPath>
    <clipPath
       id="clippath-12">
      <rect
         x="17.72"
         y="69.66"
         width="27.8"
         height="25.62"
         style="fill: none; stroke-width: 0px;"
         id="rect13" />
    </clipPath>
    <clipPath
       id="clippath-13">
      <rect
         x="17.72"
         y="69.66"
         width="27.8"
         height="25.62"
         style="fill: none; stroke-width: 0px;"
         id="rect14" />
    </clipPath>
    <clipPath
       id="clippath-14">
      <rect
         x="69.26"
         y="69.66"
         width="27.8"
         height="25.62"
         style="fill: none; stroke-width: 0px;"
         id="rect15" />
    </clipPath>
    <clipPath
       id="clippath-15">
      <rect
         x="69.26"
         y="69.66"
         width="27.8"
         height="25.62"
         style="fill: none; stroke-width: 0px;"
         id="rect16" />
    </clipPath>
  </defs>
  <g
     id="faceplate">
    <g
       id="g17">
      <rect
         x=".12"
         y=".13"
         width="114.95"
         height="364"
         style="fill: #ededed; stroke-width: 0px;"
         id="rect17" />
      <path
         d="M114.95.25v363.75H.25V.25h114.7M115.2,0H0v364.25h115.2V0h0Z"
         style="fill: #9d9d9e; stroke-width: 0px;"
         id="path17" />
    </g>
    <g
       id="g20">
      <path
         d="M49.4,18.07c-.37,0-.71-.17-.97-.47-.51-.6-.52-1.54-.04-2.16l6.97-8.88c.38-.48,1.05-.65,1.57-.39.5.25.79.82.79,1.45v4.77l4.64-5.85c.38-.48,1.01-.64,1.53-.38.5.25.83.81.83,1.44v8.82c0,.86-.61,1.57-1.36,1.57s-1.36-.7-1.36-1.57v-4.79l-4.64,5.85c-.38.48-1.01.64-1.54.38-.5-.24-.83-.81-.83-1.44v-4.67l-4.61,5.8c-.26.32-.62.51-1,.51h0Z"
         style="fill: #2cabe1; stroke-width: 0px;"
         id="path18" />
      <path
         d="M49.4,18.07c-.75,0-1.35-.7-1.35-1.57v-4.93l-2.26,2.84c-.5.63-1.44.65-1.97.04-.51-.6-.52-1.53-.03-2.15l4.61-5.76c.26-.32.63-.5,1-.5.18,0,.37.04.54.12.5.25.82.81.82,1.44v8.89c0,.86-.61,1.57-1.36,1.57h0Z"
         style="fill: #ea2228; stroke-width: 0px;"
         id="path19" />
      <path
         d="M66,18.09h0c-.35,0-.68-.15-.94-.42-.76-.78-.14-1.84.29-2.3l1.95-2.36-1.26-.02c-.56-.01-1.04-.4-1.24-1-.19-.56-.07-1.21.29-1.64l3.16-3.83c.23-.28.55-.48,1.13-.47.33,0,.67.17.92.4.71.66.29,1.7-.07,2.2l-1.04,1.26,1.26.02c.56.01,1.04.4,1.24,1,.19.56.07,1.21-.29,1.64l-4.1,4.97c-.35.35-.65.55-1.3.54h0Z"
         style="fill: #00a650; stroke-width: 0px;"
         id="path20" />
    </g>
    <g
       id="Layer_3"
       data-name="Layer 3">
      <g
         id="g22">
        <path
           d="M100.35,316.21v-23.22h-21.54c-7.49,0-13.57,7.04-13.57,15.71v32.93h15.07s0,0,0,0h14.39c3.12,0,5.64-2.55,5.64-5.67v-19.84.08Z"
           style="fill: #000; stroke-width: 0px;"
           id="path21" />
        <path
           d="M28.23,341.15h35.2s23.15,0,23.15,0c7.35,0,13.31-7.02,13.31-15.67v-107.66l-.06-6.21c-.29-8.35-6.12-15.02-13.28-15.02H28.2c-7.17,0-12.99,6.67-13.28,15.02l-.06,6.21v46.5l.07,61.17"
           style="fill: none; stroke: #000; stroke-miterlimit: 10;"
           id="path22" />
      </g>
      <path
         d="M14.92,324.53v10.96c0,3.12,2.55,5.67,5.67,5.67h12.93"
         style="fill: none; stroke: #000; stroke-miterlimit: 10;"
         id="path23" />
    </g>
    <g
       id="Layer_4"
       data-name="Layer 4">
      <text
         transform="translate(50.47 357.3) scale(.82 1)"
         style="fill: #000; font-family: GillSans-Bold, 'Gill Sans'; font-size: 11px; font-weight: 700;"
         id="text23"><tspan
           x="0"
           y="0"
           id="tspan23">FM</tspan></text>
      <text
         transform="translate(70.08 239.7) scale(.88 1)"
         style="fill: #000; font-family: GillSans-Bold, 'Gill Sans'; font-size: 8px; font-weight: 700; letter-spacing: -.04em;"
         id="text24"><tspan
           x="0"
           y="0"
           id="tspan24">V/Oct S</tspan></text>
      <text
         transform="translate(73.77 287.83) scale(.88 1)"
         style="fill: #000; font-family: GillSans-Bold, 'Gill Sans'; font-size: 8px; font-weight: 700; letter-spacing: -.04em;"
         id="text25"><tspan
           x="0"
           y="0"
           id="tspan25">Index</tspan></text>
      <text
         transform="translate(76.73 335.09) scale(.88 1)"
         style="fill: #fff; font-family: GillSans-Bold, 'Gill Sans'; font-size: 8px; font-weight: 700; letter-spacing: -.04em;"
         id="text26"><tspan
           x="0"
           y="0"
           id="tspan26">Out</tspan></text>
      <text
         transform="translate(18.2 239.7) scale(.88 1)"
         style="fill: #000; font-family: GillSans-Bold, 'Gill Sans'; font-size: 8px; font-weight: 700; letter-spacing: -.04em;"
         id="text27"><tspan
           x="0"
           y="0"
           id="tspan27">V/Oct P</tspan></text>
      <text
         transform="translate(25.41 287.83) scale(.88 1)"
         style="fill: #000; font-family: GillSans-Bold, 'Gill Sans'; font-size: 8px; font-weight: 700; letter-spacing: -.04em;"
         id="text28"><tspan
           x="0"
           y="0"
           id="tspan28">Mix</tspan></text>
      <text
         transform="translate(21.65 335.09) scale(.88 1)"
         style="fill: #000; font-family: GillSans-Bold, 'Gill Sans'; font-size: 8px; font-weight: 700; letter-spacing: -.04em;"
         id="text29"><tspan
           x="0"
           y="0"
           id="tspan29">Shape</tspan></text>
      <g
         id="g110">
        <g
           id="pips_-_fewest"
           data-name="pips - fewest">
          <g
             style="clip-path: url(#clippath);"
             clip-path="url(#clippath)"
             id="g39">
            <g
               style="clip-path: url(#clippath-1);"
               clip-path="url(#clippath-1)"
               id="g38">
              <path
                 d="M37.31,115.58l.71-1.23c-1.74-.9-3.7-1.45-5.77-1.55v1.43c1.81.09,3.53.56,5.06,1.35"
                 style="fill: #000; stroke-width: 0px;"
                 id="path29" />
              <path
                 d="M42.11,119.92l1.23-.71c-1.09-1.69-2.53-3.14-4.22-4.22l-.71,1.23c1.48.96,2.74,2.22,3.7,3.7"
                 style="fill: #000; stroke-width: 0px;"
                 id="path30" />
              <path
                 d="M24.84,116.22l-.71-1.23c-1.69,1.09-3.14,2.53-4.22,4.22l1.23.71c.96-1.48,2.22-2.74,3.7-3.7"
                 style="fill: #000; stroke-width: 0px;"
                 id="path31" />
              <path
                 d="M44.1,126.07h1.43c-.09-2.07-.64-4.03-1.55-5.77l-1.23.71c.79,1.53,1.26,3.24,1.35,5.06"
                 style="fill: #000; stroke-width: 0px;"
                 id="path32" />
              <path
                 d="M30.99,114.23v-1.43c-2.07.09-4.03.64-5.77,1.55l.71,1.23c1.53-.79,3.24-1.26,5.06-1.35"
                 style="fill: #000; stroke-width: 0px;"
                 id="path33" />
              <path
                 d="M21.13,133.49l-1.23.71c1.09,1.69,2.53,3.14,4.22,4.22l.71-1.23c-1.48-.96-2.74-2.22-3.7-3.7"
                 style="fill: #000; stroke-width: 0px;"
                 id="path34" />
              <path
                 d="M38.41,137.19l.71,1.23c1.69-1.09,3.14-2.53,4.22-4.22l-1.23-.71c-.96,1.48-2.22,2.74-3.7,3.7"
                 style="fill: #000; stroke-width: 0px;"
                 id="path35" />
              <path
                 d="M44.1,127.34c-.09,1.81-.56,3.53-1.35,5.06l1.23.71c.9-1.74,1.45-3.7,1.55-5.77h-1.43Z"
                 style="fill: #000; stroke-width: 0px;"
                 id="path36" />
              <path
                 d="M19.15,127.34h-1.43c.09,2.07.64,4.03,1.55,5.77l1.23-.71c-.79-1.53-1.26-3.24-1.35-5.06"
                 style="fill: #000; stroke-width: 0px;"
                 id="path37" />
              <path
                 d="M20.5,121.01l-1.23-.71c-.9,1.74-1.45,3.7-1.55,5.77h1.43c.09-1.81.56-3.53,1.35-5.06"
                 style="fill: #000; stroke-width: 0px;"
                 id="path38" />
            </g>
          </g>
        </g>
        <text
           transform="translate(19.32 146.38) scale(.88 1)"
           style="fill: #000; font-family: GillSans-Bold, 'Gill Sans'; font-size: 8px; font-weight: 700; letter-spacing: -.04em;"
           id="text39"><tspan
             x="0"
             y="0"
             id="tspan39">Ratio C</tspan></text>
        <g
           id="pips_-_fewest-2"
           data-name="pips - fewest">
          <g
             style="clip-path: url(#clippath-2);"
             clip-path="url(#clippath-2)"
             id="g49">
            <g
               style="clip-path: url(#clippath-3);"
               clip-path="url(#clippath-3)"
               id="g48">
              <path
                 d="M88.85,115.58l.71-1.23c-1.74-.9-3.7-1.45-5.77-1.55v1.43c1.81.09,3.53.56,5.06,1.35"
                 style="fill: #000; stroke-width: 0px;"
                 id="path39" />
              <path
                 d="M93.65,119.92l1.23-.71c-1.09-1.69-2.53-3.14-4.22-4.22l-.71,1.23c1.48.96,2.74,2.22,3.7,3.7"
                 style="fill: #000; stroke-width: 0px;"
                 id="path40" />
              <path
                 d="M76.37,116.22l-.71-1.23c-1.69,1.09-3.14,2.53-4.22,4.22l1.23.71c.96-1.48,2.22-2.74,3.7-3.7"
                 style="fill: #000; stroke-width: 0px;"
                 id="path41" />
              <path
                 d="M95.63,126.07h1.43c-.09-2.07-.64-4.03-1.55-5.77l-1.23.71c.79,1.53,1.26,3.24,1.35,5.06"
                 style="fill: #000; stroke-width: 0px;"
                 id="path42" />
              <path
                 d="M82.53,114.23v-1.43c-2.07.09-4.03.64-5.77,1.55l.71,1.23c1.53-.79,3.24-1.26,5.06-1.35"
                 style="fill: #000; stroke-width: 0px;"
                 id="path43" />
              <path
                 d="M72.67,133.49l-1.23.71c1.09,1.69,2.53,3.14,4.22,4.22l.71-1.23c-1.48-.96-2.74-2.22-3.7-3.7"
                 style="fill: #000; stroke-width: 0px;"
                 id="path44" />
              <path
                 d="M89.94,137.19l.71,1.23c1.69-1.09,3.14-2.53,4.22-4.22l-1.23-.71c-.96,1.48-2.22,2.74-3.7,3.7"
                 style="fill: #000; stroke-width: 0px;"
                 id="path45" />
              <path
                 d="M95.63,127.34c-.09,1.81-.56,3.53-1.35,5.06l1.23.71c.9-1.74,1.45-3.7,1.55-5.77h-1.43Z"
                 style="fill: #000; stroke-width: 0px;"
                 id="path46" />
              <path
                 d="M70.68,127.34h-1.43c.09,2.07.64,4.03,1.55,5.77l1.23-.71c-.79-1.53-1.26-3.24-1.35-5.06"
                 style="fill: #000; stroke-width: 0px;"
                 id="path47" />
              <path
                 d="M72.04,121.01l-1.23-.71c-.9,1.74-1.45,3.7-1.55,5.77h1.43c.09-1.81.56-3.53,1.35-5.06"
                 style="fill: #000; stroke-width: 0px;"
                 id="path48" />
            </g>
          </g>
        </g>
        <text
           transform="translate(71.28 146.38) scale(.88 1)"
           style="fill: #000; font-family: GillSans-Bold, 'Gill Sans'; font-size: 8px; font-weight: 700; letter-spacing: -.04em;"
           id="text49"><tspan
             x="0"
             y="0"
             id="tspan49">Ratio F</tspan></text>
        <g
           id="pips_-_fewest-3"
           data-name="pips - fewest">
          <g
             style="clip-path: url(#clippath-4);"
             clip-path="url(#clippath-4)"
             id="g59">
            <g
               style="clip-path: url(#clippath-5);"
               clip-path="url(#clippath-5)"
               id="g58">
              <path
                 d="M37.31,158.72l.71-1.23c-1.74-.9-3.7-1.45-5.77-1.55v1.43c1.81.09,3.53.56,5.06,1.35"
                 style="fill: #000; stroke-width: 0px;"
                 id="path49" />
              <path
                 d="M42.11,163.06l1.23-.71c-1.09-1.69-2.53-3.14-4.22-4.22l-.71,1.23c1.48.96,2.74,2.22,3.7,3.7"
                 style="fill: #000; stroke-width: 0px;"
                 id="path50" />
              <path
                 d="M24.84,159.36l-.71-1.23c-1.69,1.09-3.14,2.53-4.22,4.22l1.23.71c.96-1.48,2.22-2.74,3.7-3.7"
                 style="fill: #000; stroke-width: 0px;"
                 id="path51" />
              <path
                 d="M44.1,169.21h1.43c-.09-2.07-.64-4.03-1.55-5.77l-1.23.71c.79,1.53,1.26,3.24,1.35,5.06"
                 style="fill: #000; stroke-width: 0px;"
                 id="path52" />
              <path
                 d="M30.99,157.37v-1.43c-2.07.09-4.03.64-5.77,1.55l.71,1.23c1.53-.79,3.24-1.26,5.06-1.35"
                 style="fill: #000; stroke-width: 0px;"
                 id="path53" />
              <path
                 d="M21.13,176.63l-1.23.71c1.09,1.69,2.53,3.14,4.22,4.22l.71-1.23c-1.48-.96-2.74-2.22-3.7-3.7"
                 style="fill: #000; stroke-width: 0px;"
                 id="path54" />
              <path
                 d="M38.41,180.34l.71,1.23c1.69-1.09,3.14-2.53,4.22-4.22l-1.23-.71c-.96,1.48-2.22,2.74-3.7,3.7"
                 style="fill: #000; stroke-width: 0px;"
                 id="path55" />
              <path
                 d="M44.1,170.48c-.09,1.81-.56,3.53-1.35,5.06l1.23.71c.9-1.74,1.45-3.7,1.55-5.77h-1.43Z"
                 style="fill: #000; stroke-width: 0px;"
                 id="path56" />
              <path
                 d="M19.15,170.48h-1.43c.09,2.07.64,4.03,1.55,5.77l1.23-.71c-.79-1.53-1.26-3.24-1.35-5.06"
                 style="fill: #000; stroke-width: 0px;"
                 id="path57" />
              <path
                 d="M20.5,164.16l-1.23-.71c-.9,1.74-1.45,3.7-1.55,5.77h1.43c.09-1.81.56-3.53,1.35-5.06"
                 style="fill: #000; stroke-width: 0px;"
                 id="path58" />
            </g>
          </g>
        </g>
        <text
           transform="translate(21.55 189.52) scale(.88 1)"
           style="fill: #000; font-family: GillSans-Bold, 'Gill Sans'; font-size: 8px; font-weight: 700; letter-spacing: -.04em;"
           id="text59"><tspan
             x="0"
             y="0"
             id="tspan59">Shape</tspan></text>
        <g
           id="pips_-_fewest-4"
           data-name="pips - fewest">
          <g
             style="clip-path: url(#clippath-6);"
             clip-path="url(#clippath-6)"
             id="g69">
            <g
               style="clip-path: url(#clippath-7);"
               clip-path="url(#clippath-7)"
               id="g68">
              <path
                 d="M88.85,158.72l.71-1.23c-1.74-.9-3.7-1.45-5.77-1.55v1.43c1.81.09,3.53.56,5.06,1.35"
                 style="fill: #000; stroke-width: 0px;"
                 id="path59" />
              <path
                 d="M93.65,163.06l1.23-.71c-1.09-1.69-2.53-3.14-4.22-4.22l-.71,1.23c1.48.96,2.74,2.22,3.7,3.7"
                 style="fill: #000; stroke-width: 0px;"
                 id="path60" />
              <path
                 d="M76.37,159.36l-.71-1.23c-1.69,1.09-3.14,2.53-4.22,4.22l1.23.71c.96-1.48,2.22-2.74,3.7-3.7"
                 style="fill: #000; stroke-width: 0px;"
                 id="path61" />
              <path
                 d="M95.63,169.21h1.43c-.09-2.07-.64-4.03-1.55-5.77l-1.23.71c.79,1.53,1.26,3.24,1.35,5.06"
                 style="fill: #000; stroke-width: 0px;"
                 id="path62" />
              <path
                 d="M82.53,157.37v-1.43c-2.07.09-4.03.64-5.77,1.55l.71,1.23c1.53-.79,3.24-1.26,5.06-1.35"
                 style="fill: #000; stroke-width: 0px;"
                 id="path63" />
              <path
                 d="M72.67,176.63l-1.23.71c1.09,1.69,2.53,3.14,4.22,4.22l.71-1.23c-1.48-.96-2.74-2.22-3.7-3.7"
                 style="fill: #000; stroke-width: 0px;"
                 id="path64" />
              <path
                 d="M89.94,180.34l.71,1.23c1.69-1.09,3.14-2.53,4.22-4.22l-1.23-.71c-.96,1.48-2.22,2.74-3.7,3.7"
                 style="fill: #000; stroke-width: 0px;"
                 id="path65" />
              <path
                 d="M95.63,170.48c-.09,1.81-.56,3.53-1.35,5.06l1.23.71c.9-1.74,1.45-3.7,1.55-5.77h-1.43Z"
                 style="fill: #000; stroke-width: 0px;"
                 id="path66" />
              <path
                 d="M70.68,170.48h-1.43c.09,2.07.64,4.03,1.55,5.77l1.23-.71c-.79-1.53-1.26-3.24-1.35-5.06"
                 style="fill: #000; stroke-width: 0px;"
                 id="path67" />
              <path
                 d="M72.04,164.16l-1.23-.71c-.9,1.74-1.45,3.7-1.55,5.77h1.43c.09-1.81.56-3.53,1.35-5.06"
                 style="fill: #000; stroke-width: 0px;"
                 id="path68" />
            </g>
          </g>
        </g>
        <text
           transform="translate(66.24 189.52) scale(.88 1)"
           style="fill: #000; font-family: GillSans-Bold, 'Gill Sans'; font-size: 8px; font-weight: 700; letter-spacing: -.04em;"
           id="text69"><tspan
             x="0"
             y="0"
             id="tspan69">Shape CV</tspan></text>
        <g
           id="pips_-_fewest-5"
           data-name="pips - fewest">
          <g
             style="clip-path: url(#clippath-8);"
             clip-path="url(#clippath-8)"
             id="g79">
            <g
               style="clip-path: url(#clippath-9);"
               clip-path="url(#clippath-9)"
               id="g78">
              <path
                 d="M37.31,29.3l.71-1.23c-1.74-.9-3.7-1.45-5.77-1.55v1.43c1.81.09,3.53.56,5.06,1.35"
                 style="fill: #000; stroke-width: 0px;"
                 id="path69" />
              <path
                 d="M42.11,33.64l1.23-.71c-1.09-1.69-2.53-3.14-4.22-4.22l-.71,1.23c1.48.96,2.74,2.22,3.7,3.7"
                 style="fill: #000; stroke-width: 0px;"
                 id="path70" />
              <path
                 d="M24.84,29.93l-.71-1.23c-1.69,1.09-3.14,2.53-4.22,4.22l1.23.71c.96-1.48,2.22-2.74,3.7-3.7"
                 style="fill: #000; stroke-width: 0px;"
                 id="path71" />
              <path
                 d="M44.1,39.79h1.43c-.09-2.07-.64-4.03-1.55-5.77l-1.23.71c.79,1.53,1.26,3.24,1.35,5.06"
                 style="fill: #000; stroke-width: 0px;"
                 id="path72" />
              <path
                 d="M30.99,27.95v-1.43c-2.07.09-4.03.64-5.77,1.55l.71,1.23c1.53-.79,3.24-1.26,5.06-1.35"
                 style="fill: #000; stroke-width: 0px;"
                 id="path73" />
              <path
                 d="M21.13,47.21l-1.23.71c1.09,1.69,2.53,3.14,4.22,4.22l.71-1.23c-1.48-.96-2.74-2.22-3.7-3.7"
                 style="fill: #000; stroke-width: 0px;"
                 id="path74" />
              <path
                 d="M38.41,50.91l.71,1.23c1.69-1.09,3.14-2.53,4.22-4.22l-1.23-.71c-.96,1.48-2.22,2.74-3.7,3.7"
                 style="fill: #000; stroke-width: 0px;"
                 id="path75" />
              <path
                 d="M44.1,41.06c-.09,1.81-.56,3.53-1.35,5.06l1.23.71c.9-1.74,1.45-3.7,1.55-5.77h-1.43Z"
                 style="fill: #000; stroke-width: 0px;"
                 id="path76" />
              <path
                 d="M19.15,41.06h-1.43c.09,2.07.64,4.03,1.55,5.77l1.23-.71c-.79-1.53-1.26-3.24-1.35-5.06"
                 style="fill: #000; stroke-width: 0px;"
                 id="path77" />
              <path
                 d="M20.5,34.73l-1.23-.71c-.9,1.74-1.45,3.7-1.55,5.77h1.43c.09-1.81.56-3.53,1.35-5.06"
                 style="fill: #000; stroke-width: 0px;"
                 id="path78" />
            </g>
          </g>
        </g>
        <text
           transform="translate(23.1 60.1) scale(.88 1)"
           style="fill: #000; font-family: GillSans-Bold, 'Gill Sans'; font-size: 8px; font-weight: 700; letter-spacing: -.04em;"
           id="text79"><tspan
             x="0"
             y="0"
             id="tspan79">Pitch</tspan></text>
        <g
           id="pips_-_fewest-6"
           data-name="pips - fewest">
          <g
             style="clip-path: url(#clippath-10);"
             clip-path="url(#clippath-10)"
             id="g89">
            <g
               style="clip-path: url(#clippath-11);"
               clip-path="url(#clippath-11)"
               id="g88">
              <path
                 d="M88.85,29.3l.71-1.23c-1.74-.9-3.7-1.45-5.77-1.55v1.43c1.81.09,3.53.56,5.06,1.35"
                 style="fill: #000; stroke-width: 0px;"
                 id="path79" />
              <path
                 d="M93.65,33.64l1.23-.71c-1.09-1.69-2.53-3.14-4.22-4.22l-.71,1.23c1.48.96,2.74,2.22,3.7,3.7"
                 style="fill: #000; stroke-width: 0px;"
                 id="path80" />
              <path
                 d="M76.37,29.93l-.71-1.23c-1.69,1.09-3.14,2.53-4.22,4.22l1.23.71c.96-1.48,2.22-2.74,3.7-3.7"
                 style="fill: #000; stroke-width: 0px;"
                 id="path81" />
              <path
                 d="M95.63,39.79h1.43c-.09-2.07-.64-4.03-1.55-5.77l-1.23.71c.79,1.53,1.26,3.24,1.35,5.06"
                 style="fill: #000; stroke-width: 0px;"
                 id="path82" />
              <path
                 d="M82.53,27.95v-1.43c-2.07.09-4.03.64-5.77,1.55l.71,1.23c1.53-.79,3.24-1.26,5.06-1.35"
                 style="fill: #000; stroke-width: 0px;"
                 id="path83" />
              <path
                 d="M72.67,47.21l-1.23.71c1.09,1.69,2.53,3.14,4.22,4.22l.71-1.23c-1.48-.96-2.74-2.22-3.7-3.7"
                 style="fill: #000; stroke-width: 0px;"
                 id="path84" />
              <path
                 d="M89.94,50.91l.71,1.23c1.69-1.09,3.14-2.53,4.22-4.22l-1.23-.71c-.96,1.48-2.22,2.74-3.7,3.7"
                 style="fill: #000; stroke-width: 0px;"
                 id="path85" />
              <path
                 d="M95.63,41.06c-.09,1.81-.56,3.53-1.35,5.06l1.23.71c.9-1.74,1.45-3.7,1.55-5.77h-1.43Z"
                 style="fill: #000; stroke-width: 0px;"
                 id="path86" />
              <path
                 d="M70.68,41.06h-1.43c.09,2.07.64,4.03,1.55,5.77l1.23-.71c-.79-1.53-1.26-3.24-1.35-5.06"
                 style="fill: #000; stroke-width: 0px;"
                 id="path87" />
              <path
                 d="M72.04,34.73l-1.23-.71c-.9,1.74-1.45,3.7-1.55,5.77h1.43c.09-1.81.56-3.53,1.35-5.06"
                 style="fill: #000; stroke-width: 0px;"
                 id="path88" />
            </g>
          </g>
        </g>
        <text
           transform="translate(76.84 60.1) scale(.88 1)"
           style="fill: #000; font-family: GillSans-Bold, 'Gill Sans'; font-size: 8px; font-weight: 700; letter-spacing: -.04em;"
           id="text89"><tspan
             x="0"
             y="0"
             id="tspan89">Mix</tspan></text>
        <g
           id="pips_-_fewest-7"
           data-name="pips - fewest">
          <g
             style="clip-path: url(#clippath-12);"
             clip-path="url(#clippath-12)"
             id="g99">
            <g
               style="clip-path: url(#clippath-13);"
               clip-path="url(#clippath-13)"
               id="g98">
              <path
                 d="M37.31,72.44l.71-1.23c-1.74-.9-3.7-1.45-5.77-1.55v1.43c1.81.09,3.53.56,5.06,1.35"
                 style="fill: #000; stroke-width: 0px;"
                 id="path89" />
              <path
                 d="M42.11,76.78l1.23-.71c-1.09-1.69-2.53-3.14-4.22-4.22l-.71,1.23c1.48.96,2.74,2.22,3.7,3.7"
                 style="fill: #000; stroke-width: 0px;"
                 id="path90" />
              <path
                 d="M24.84,73.08l-.71-1.23c-1.69,1.09-3.14,2.53-4.22,4.22l1.23.71c.96-1.48,2.22-2.74,3.7-3.7"
                 style="fill: #000; stroke-width: 0px;"
                 id="path91" />
              <path
                 d="M44.1,82.93h1.43c-.09-2.07-.64-4.03-1.55-5.77l-1.23.71c.79,1.53,1.26,3.24,1.35,5.06"
                 style="fill: #000; stroke-width: 0px;"
                 id="path92" />
              <path
                 d="M30.99,71.09v-1.43c-2.07.09-4.03.64-5.77,1.55l.71,1.23c1.53-.79,3.24-1.26,5.06-1.35"
                 style="fill: #000; stroke-width: 0px;"
                 id="path93" />
              <path
                 d="M21.13,90.35l-1.23.71c1.09,1.69,2.53,3.14,4.22,4.22l.71-1.23c-1.48-.96-2.74-2.22-3.7-3.7"
                 style="fill: #000; stroke-width: 0px;"
                 id="path94" />
              <path
                 d="M38.41,94.05l.71,1.23c1.69-1.09,3.14-2.53,4.22-4.22l-1.23-.71c-.96,1.48-2.22,2.74-3.7,3.7"
                 style="fill: #000; stroke-width: 0px;"
                 id="path95" />
              <path
                 d="M44.1,84.2c-.09,1.81-.56,3.53-1.35,5.06l1.23.71c.9-1.74,1.45-3.7,1.55-5.77h-1.43Z"
                 style="fill: #000; stroke-width: 0px;"
                 id="path96" />
              <path
                 d="M19.15,84.2h-1.43c.09,2.07.64,4.03,1.55,5.77l1.23-.71c-.79-1.53-1.26-3.24-1.35-5.06"
                 style="fill: #000; stroke-width: 0px;"
                 id="path97" />
              <path
                 d="M20.5,77.87l-1.23-.71c-.9,1.74-1.45,3.7-1.55,5.77h1.43c.09-1.81.56-3.53,1.35-5.06"
                 style="fill: #000; stroke-width: 0px;"
                 id="path98" />
            </g>
          </g>
        </g>
        <text
           transform="translate(22.14 103.24) scale(.88 1)"
           style="fill: #000; font-family: GillSans-Bold, 'Gill Sans'; font-size: 8px; font-weight: 700; letter-spacing: -.04em;"
           id="text99"><tspan
             x="0"
             y="0"
             id="tspan99">Index</tspan></text>
        <g
           id="pips_-_fewest-8"
           data-name="pips - fewest">
          <g
             style="clip-path: url(#clippath-14);"
             clip-path="url(#clippath-14)"
             id="g109">
            <g
               style="clip-path: url(#clippath-15);"
               clip-path="url(#clippath-15)"
               id="g108">
              <path
                 d="M88.85,72.44l.71-1.23c-1.74-.9-3.7-1.45-5.77-1.55v1.43c1.81.09,3.53.56,5.06,1.35"
                 style="fill: #000; stroke-width: 0px;"
                 id="path99" />
              <path
                 d="M93.65,76.78l1.23-.71c-1.09-1.69-2.53-3.14-4.22-4.22l-.71,1.23c1.48.96,2.74,2.22,3.7,3.7"
                 style="fill: #000; stroke-width: 0px;"
                 id="path100" />
              <path
                 d="M76.37,73.08l-.71-1.23c-1.69,1.09-3.14,2.53-4.22,4.22l1.23.71c.96-1.48,2.22-2.74,3.7-3.7"
                 style="fill: #000; stroke-width: 0px;"
                 id="path101" />
              <path
                 d="M95.63,82.93h1.43c-.09-2.07-.64-4.03-1.55-5.77l-1.23.71c.79,1.53,1.26,3.24,1.35,5.06"
                 style="fill: #000; stroke-width: 0px;"
                 id="path102" />
              <path
                 d="M82.53,71.09v-1.43c-2.07.09-4.03.64-5.77,1.55l.71,1.23c1.53-.79,3.24-1.26,5.06-1.35"
                 style="fill: #000; stroke-width: 0px;"
                 id="path103" />
              <path
                 d="M72.67,90.35l-1.23.71c1.09,1.69,2.53,3.14,4.22,4.22l.71-1.23c-1.48-.96-2.74-2.22-3.7-3.7"
                 style="fill: #000; stroke-width: 0px;"
                 id="path104" />
              <path
                 d="M89.94,94.05l.71,1.23c1.69-1.09,3.14-2.53,4.22-4.22l-1.23-.71c-.96,1.48-2.22,2.74-3.7,3.7"
                 style="fill: #000; stroke-width: 0px;"
                 id="path105" />
              <path
                 d="M95.63,84.2c-.09,1.81-.56,3.53-1.35,5.06l1.23.71c.9-1.74,1.45-3.7,1.55-5.77h-1.43Z"
                 style="fill: #000; stroke-width: 0px;"
                 id="path106" />
              <path
                 d="M70.68,84.2h-1.43c.09,2.07.64,4.03,1.55,5.77l1.23-.71c-.79-1.53-1.26-3.24-1.35-5.06"
                 style="fill: #000; stroke-width: 0px;"
                 id="path107" />
              <path
                 d="M72.04,77.87l-1.23-.71c-.9,1.74-1.45,3.7-1.55,5.77h1.43c.09-1.81.56-3.53,1.35-5.06"
                 style="fill: #000; stroke-width: 0px;"
                 id="path108" />
            </g>
          </g>
        </g>
        <text
           transform="translate(67.78 103.24) scale(.88 1)"
           style="fill: #000; font-family: GillSans-Bold, 'Gill Sans'; font-size: 8px; font-weight: 700; letter-spacing: -.04em;"
           id="text109"><tspan
             x="0"
             y="0"
             id="tspan109">Index CV</tspan></text>
      </g>
    </g>
  </g>
  <g
     id="components">
    <circle
       id="Out"
       cx="83.37"
       cy="311.88"
       r="11.34"
       style="fill: blue; stroke-width: 0px;" />
    <circle
       id="Shape_CV"
       data-name="Shape CV"
       cx="31.83"
       cy="311.88"
       r="11.34"
       style="fill: lime; stroke-width: 0px;" />
    <circle
       id="Index_CV_In"
       data-name="Index CV In"
       cx="83.37"
       cy="263.15"
       r="11.34"
       style="fill: lime; stroke-width: 0px;" />
    <circle
       id="Mix_CV"
       data-name="Mix CV"
       cx="31.83"
       cy="263.15"
       r="11.34"
       style="fill: lime; stroke-width: 0px;" />
    <circle
       id="V_Oct_S"
       data-name="V/Oct S"
       cx="83.37"
       cy="214.43"
       r="11.34"
       style="fill: lime; stroke-width: 0px;" />
    <circle
       id="V_Oct_P"
       data-name="V/Oct P"
       cx="31.83"
       cy="214.43"
       r="11.34"
       style="fill: lime; stroke-width: 0px;" />
    <circle
       id="Shape_CV-2"
       data-name="Shape CV"
       cx="83.37"
       cy="169.63"
       r="8.5"
       style="fill:#ff0040" />
    <circle
       id="Shape"
       cx="31.83"
       cy="169.63"
       r="8.5"
       style="fill: red; stroke-width: 0px;" />
    <circle
       id="Ratio_F"
       data-name="Ratio F"
       cx="83.37"
       cy="126.49"
       r="8.5"
       style="fill: red; stroke-width: 0px;" />
    <circle
       id="Ratio_C"
       data-name="Ratio C"
       cx="31.83"
       cy="126.49"
       r="8.5"
       style="fill:#ff0030" />
    <circle
       id="Index_CV"
       data-name="Index CV"
       cx="83.37"
       cy="83.35"
       r="8.5"
       style="fill:#ff0040" />
    <circle
       id="Index"
       cx="31.83"
       cy="83.35"
       r="8.5"
       style="fill:#ff0050" />
    <circle
       id="Mix"
       cx="83.37"
       cy="40.21"
       r="8.5"
       style="fill:#ff0040" />
    <circle
       id="Pitch"
       cx="31.83"
       cy="40.21"
       r="8.5"
       style="fill:#ff0040" />
    <text
       id="slug"
       transform="translate(83.96 369.32)"
       style="fill: #000; font-family: MyriadPro-Regular, 'Myriad Pro'; font-size: 3px;"><tspan
         x="0"
         y="0"
         style="letter-spacing: -.02em;"
         id="tspan110">F</tspan><tspan
         x="1.41"
         y="0"
         id="tspan111">M</tspan></text>
    <text
       id="modulename"
       transform="translate(97.28 369.32)"
       style="fill: #000; font-family: MyriadPro-Regular, 'Myriad Pro'; font-size: 3px;"><tspan
         x="0"
         y="0"
         style="letter-spacing: -.02em;"
         id="tspan112">F</tspan><tspan
         x="1.41"
         y="0"
         id="tspan113">M Oscill</tspan><tspan
         x="11.17"
         y="0"
         style="letter-spacing: 0em;"
         id="tspan114">at</tspan><tspan
         x="13.58"
         y="0"
         style="letter-spacing: 0em;"
         id="tspan115">or</tspan></text>
  </g>
</svg>
