<?xml version="1.0" encoding="UTF-8"?>
<svg xmlns="http://www.w3.org/2000/svg" width="40.73mm" height="128.59mm" viewBox="0 0 115.45 364.5">
  <g id="faceplate">
    <rect x=".12" y=".12" width="115.2" height="364.25" style="fill: #ededed; stroke: #9d9d9e; stroke-miterlimit: 10; stroke-width: .25px;"/>
    <g>
      <path d="M100.44,318.76v-21.52h-21.54c-7.49,0-13.57,6.52-13.57,14.57v30.53h15.07s0,0,0,0h14.39c3.12,0,5.64-2.36,5.64-5.25v-18.39.08Z" style="stroke-width: 0px;"/>
      <g>
        <path d="M28.32,341.84h35.2s23.15,0,23.15,0c7.35,0,13.31-7.02,13.31-15.67v-28.42l.27-63.47-.06-6.64c-.29-8.35-6.12-15.02-13.28-15.02H28.56c-7.17,0-12.99,6.67-13.28,15.02l-.06,6.64v-2.92l-.21,94.81" style="fill: none; stroke: #000; stroke-miterlimit: 10;"/>
        <path d="M15.01,325.21v10.96c0,3.12,2.55,5.67,5.67,5.67h12.93" style="fill: none; stroke: #231f20; stroke-miterlimit: 10;"/>
      </g>
    </g>
    <text transform="translate(48.11 357.47) scale(.82 1)" style="font-family: GillSans-Bold, &apos;Gill Sans&apos;; font-size: 11px; font-weight: 700;"><tspan x="0" y="0">LPG</tspan></text>
    <text transform="translate(74.05 293.82) scale(.88 1)" style="font-family: GillSans-Bold, &apos;Gill Sans&apos;; font-size: 8px; font-weight: 700; letter-spacing: -.04em;"><tspan x="0" y="0">Color</tspan></text>
    <text transform="translate(76.79 336.01) scale(.88 1)" style="fill: #fff; font-family: GillSans-Bold, &apos;Gill Sans&apos;; font-size: 8px; font-weight: 700; letter-spacing: -.04em;"><tspan x="0" y="0">Out</tspan></text>
    <text transform="translate(23.21 293.82) scale(.88 1)" style="font-family: GillSans-Bold, &apos;Gill Sans&apos;; font-size: 8px; font-weight: 700; letter-spacing: -.04em;"><tspan x="0" y="0">Level</tspan></text>
    <text transform="translate(23.07 252.21) scale(.88 1)" style="font-family: GillSans-Bold, &apos;Gill Sans&apos;; font-size: 8px; font-weight: 700; letter-spacing: -.04em;"><tspan x="0" y="0">Input</tspan></text>
    <text transform="translate(75.98 252.21) scale(.88 1)" style="font-family: GillSans-Bold, &apos;Gill Sans&apos;; font-size: 8px; font-weight: 700; letter-spacing: -.04em;"><tspan x="0" y="0">Ping</tspan></text>
    <text transform="translate(21.98 336.01) scale(.88 1)" style="font-family: GillSans-Bold, &apos;Gill Sans&apos;; font-size: 8px; font-weight: 700; letter-spacing: -.04em;"><tspan x="0" y="0">Decay</tspan></text>
    <text transform="translate(46.22 139.81) scale(.88 1)" style="font-family: GillSans-Bold, &apos;Gill Sans&apos;; font-size: 10px; font-weight: 700; letter-spacing: -.04em;"><tspan x="0" y="0">Color</tspan></text>
    <g>
      <path d="M66.94,94.54l1.13-1.95c-2.75-1.43-5.84-2.3-9.12-2.44v2.26c2.87.14,5.57.89,7.99,2.14Z" style="stroke-width: 0px;"/>
      <path d="M74.52,101.39l1.95-1.13c-1.72-2.68-4-4.96-6.68-6.68l-1.13,1.95c2.34,1.52,4.33,3.51,5.85,5.85Z" style="stroke-width: 0px;"/>
      <path d="M47.21,95.54l-1.13-1.95c-2.68,1.72-4.96,4-6.68,6.68l1.95,1.13c1.52-2.34,3.51-4.33,5.85-5.85Z" style="stroke-width: 0px;"/>
      <path d="M77.66,111.12h2.26c-.15-3.28-1.01-6.37-2.44-9.12l-1.95,1.13c1.24,2.42,1.99,5.13,2.14,8Z" style="stroke-width: 0px;"/>
      <path d="M56.94,92.4v-2.26c-3.28.15-6.37,1.01-9.12,2.44l1.13,1.95c2.42-1.24,5.13-1.99,8-2.14Z" style="stroke-width: 0px;"/>
      <path d="M41.36,122.85l-1.95,1.13c1.72,2.68,4,4.96,6.68,6.68l1.13-1.95c-2.34-1.52-4.33-3.51-5.85-5.85Z" style="stroke-width: 0px;"/>
      <path d="M68.67,128.7l1.13,1.95c2.68-1.72,4.96-4,6.68-6.68l-1.95-1.13c-1.52,2.34-3.51,4.33-5.85,5.85Z" style="stroke-width: 0px;"/>
      <path d="M77.66,113.12c-.14,2.87-.89,5.57-2.14,8l1.95,1.13c1.43-2.75,2.3-5.84,2.44-9.12h-2.26Z" style="stroke-width: 0px;"/>
      <path d="M38.22,113.12h-2.26c.15,3.28,1.01,6.37,2.44,9.12l1.95-1.13c-1.24-2.42-1.99-5.13-2.14-8Z" style="stroke-width: 0px;"/>
      <path d="M40.36,103.12l-1.95-1.13c-1.43,2.75-2.3,5.84-2.44,9.12h2.26c.14-2.87.89-5.57,2.14-8Z" style="stroke-width: 0px;"/>
    </g>
    <text transform="translate(45.05 201.16) scale(.88 1)" style="font-family: GillSans-Bold, &apos;Gill Sans&apos;; font-size: 10px; font-weight: 700; letter-spacing: -.04em;"><tspan x="0" y="0">Decay</tspan></text>
    <g>
      <path d="M66.94,155.89l1.13-1.95c-2.75-1.43-5.84-2.3-9.12-2.44v2.26c2.87.14,5.57.89,7.99,2.14Z" style="stroke-width: 0px;"/>
      <path d="M74.52,162.74l1.95-1.13c-1.72-2.68-4-4.96-6.68-6.68l-1.13,1.95c2.34,1.52,4.33,3.51,5.85,5.85Z" style="stroke-width: 0px;"/>
      <path d="M47.21,156.89l-1.13-1.95c-2.68,1.72-4.96,4-6.68,6.68l1.95,1.13c1.52-2.34,3.51-4.33,5.85-5.85Z" style="stroke-width: 0px;"/>
      <path d="M77.66,172.47h2.26c-.15-3.28-1.01-6.37-2.44-9.12l-1.95,1.13c1.24,2.42,1.99,5.13,2.14,8Z" style="stroke-width: 0px;"/>
      <path d="M56.94,153.75v-2.26c-3.28.15-6.37,1.01-9.12,2.44l1.13,1.95c2.42-1.24,5.13-1.99,8-2.14Z" style="stroke-width: 0px;"/>
      <path d="M41.36,184.2l-1.95,1.13c1.72,2.68,4,4.96,6.68,6.68l1.13-1.95c-2.34-1.52-4.33-3.51-5.85-5.85Z" style="stroke-width: 0px;"/>
      <path d="M68.67,190.05l1.13,1.95c2.68-1.72,4.96-4,6.68-6.68l-1.95-1.13c-1.52,2.34-3.51,4.33-5.85,5.85Z" style="stroke-width: 0px;"/>
      <path d="M77.66,174.47c-.14,2.87-.89,5.57-2.14,8l1.95,1.13c1.43-2.75,2.3-5.84,2.44-9.12h-2.26Z" style="stroke-width: 0px;"/>
      <path d="M38.22,174.47h-2.26c.15,3.28,1.01,6.37,2.44,9.12l1.95-1.13c-1.24-2.42-1.99-5.13-2.14-8Z" style="stroke-width: 0px;"/>
      <path d="M40.36,164.48l-1.95-1.13c-1.43,2.75-2.3,5.84-2.44,9.12h2.26c.14-2.87.89-5.57,2.14-8Z" style="stroke-width: 0px;"/>
    </g>
    <g>
      <path d="M63.34,8.16s-3.5,4.44-5.53,7.03v-6.03c0-.52-.25-.98-.64-1.18-.39-.19-.84-.08-1.13.29l-7.28,9.25c-.4.5-.38,1.3.03,1.79.41.48,1.06.47,1.46-.03,0,0,3.47-4.41,5.5-6.99v6.03c0,.52.26.98.65,1.17.39.19.84.08,1.13-.29,0,0,3.49-4.44,5.53-7.03v6.15c0,.7.46,1.27,1.03,1.27s1.03-.57,1.03-1.27v-9.29c0-.52-.26-.98-.65-1.17-.39-.19-.84-.08-1.13.3Z" style="stroke: #000; stroke-width: .6px;"/>
      <path d="M48.76,8.09l-4.82,6.13c-.4.5-.38,1.3.02,1.79.41.48,1.06.47,1.46-.03,0,0,1.62-2.07,3.05-3.87v6.31c0,.7.46,1.27,1.03,1.27s1.03-.57,1.03-1.27v-9.44c0-.52-.26-.98-.65-1.17-.39-.19-.84-.08-1.13.3Z" style="stroke: #000; stroke-width: .6px;"/>
      <path d="M71.71,12.61c-.16-.47-.53-.77-.95-.77h-2.11l1.54-1.95s.8-1.17.09-1.82c-.7-.64-1.58.06-1.58.06l-3.22,4.1c-.29.37-.37.91-.21,1.37.16.47.54.77.95.77h2.11l-2.5,3.17s-1.03,1.13-.27,1.89c.76.76,1.76-.14,1.76-.14l4.18-5.32c.29-.36.37-.91.21-1.37Z" style="stroke: #000; stroke-width: .6px;"/>
    </g>
    <text transform="translate(46.37 78.38) scale(.88 1)" style="font-family: GillSans-Bold, &apos;Gill Sans&apos;; font-size: 10px; font-weight: 700; letter-spacing: -.04em;"><tspan x="0" y="0">Level</tspan></text>
    <path d="M66.72,33.03l1.13-1.95c-2.75-1.43-5.84-2.3-9.12-2.44v2.26c2.87.14,5.57.89,7.99,2.14Z" style="stroke-width: 0px;"/>
    <path d="M74.3,39.88l1.95-1.13c-1.72-2.68-4-4.96-6.68-6.68l-1.13,1.95c2.34,1.52,4.33,3.51,5.85,5.85Z" style="stroke-width: 0px;"/>
    <path d="M47,34.03l-1.13-1.95c-2.68,1.72-4.96,4-6.68,6.68l1.95,1.13c1.52-2.34,3.51-4.33,5.85-5.85Z" style="stroke-width: 0px;"/>
    <path d="M77.44,49.61h2.26c-.15-3.28-1.01-6.37-2.44-9.12l-1.95,1.13c1.24,2.42,1.99,5.13,2.14,8Z" style="stroke-width: 0px;"/>
    <path d="M56.73,30.89v-2.26c-3.28.15-6.37,1.01-9.12,2.44l1.13,1.95c2.42-1.24,5.13-1.99,8-2.14Z" style="stroke-width: 0px;"/>
    <path d="M41.14,61.34l-1.95,1.13c1.72,2.68,4,4.96,6.68,6.68l1.13-1.95c-2.34-1.52-4.33-3.51-5.85-5.85Z" style="stroke-width: 0px;"/>
    <path d="M68.45,67.19l1.13,1.95c2.68-1.72,4.96-4,6.68-6.68l-1.95-1.13c-1.52,2.34-3.51,4.33-5.85,5.85Z" style="stroke-width: 0px;"/>
    <path d="M77.44,51.61c-.14,2.87-.89,5.57-2.14,8l1.95,1.13c1.43-2.75,2.3-5.84,2.44-9.12h-2.26Z" style="stroke-width: 0px;"/>
    <path d="M38.01,51.61h-2.26c.15,3.28,1.01,6.37,2.44,9.12l1.95-1.13c-1.24-2.42-1.99-5.13-2.14-8Z" style="stroke-width: 0px;"/>
    <path d="M40.14,41.61l-1.95-1.13c-1.43,2.75-2.3,5.84-2.44,9.12h2.26c.14-2.87.89-5.57,2.14-8Z" style="stroke-width: 0px;"/>
  </g>
  <g id="components">
    <circle id="Out" cx="83.32" cy="313.7" r="11.34" style="fill: blue; stroke-width: 0px;"/>
    <circle id="Decay_CV" data-name="Decay CV" cx="32.13" cy="313.7" r="11.34" style="fill: lime; stroke-width: 0px;"/>
    <circle id="Color_CV" data-name="Color CV" cx="83.32" cy="272.09" r="11.34" style="fill: lime; stroke-width: 0px;"/>
    <circle id="Level_CV" data-name="Level CV" cx="32.13" cy="272.09" r="11.34" style="fill: lime; stroke-width: 0px;"/>
    <circle id="Ping" cx="83.32" cy="230.48" r="11.34" style="fill: #80ff80; stroke-width: 0px;"/>
    <circle id="Input" cx="32.13" cy="230.48" r="11.34" style="fill: lime; stroke-width: 0px;"/>
    <circle id="Decay" cx="57.94" cy="173.18" r="17.01" style="fill: #ff0070; stroke-width: 0px;"/>
    <circle id="Color" cx="57.94" cy="111.82" r="17.01" style="fill: #ff0070; stroke-width: 0px;"/>
    <circle id="Level" cx="57.94" cy="50.47" r="17.01" style="fill: #ff0070; stroke-width: 0px;"/>
    <text id="slug" transform="translate(75.14 361.62)" style="font-family: MyriadPro-Regular, &apos;Myriad Pro&apos;; font-size: 3px;"><tspan x="0" y="0">LPG</tspan></text>
    <text id="modulename" transform="translate(88.46 361.62)" style="font-family: MyriadPro-Regular, &apos;Myriad Pro&apos;; font-size: 3px;"><tspan x="0" y="0" style="letter-spacing: -.01em;">L</tspan><tspan x="1.37" y="0" style="letter-spacing: 0em;">o</tspan><tspan x="3" y="0">w </tspan><tspan x="5.84" y="0" style="letter-spacing: -.03em;">P</tspan><tspan x="7.36" y="0" style="letter-spacing: 0em;">ass </tspan><tspan x="11.82" y="0" style="letter-spacing: 0em;">G</tspan><tspan x="13.78" y="0" style="letter-spacing: 0em;">a</tspan><tspan x="15.22" y="0" style="letter-spacing: 0em;">t</tspan><tspan x="16.19" y="0" style="letter-spacing: 0em;">e</tspan></text>
  </g>
</svg>