<?xml version="1.0" encoding="UTF-8"?>
<svg xmlns="http://www.w3.org/2000/svg" width="20.32mm" height="130.55mm" viewBox="0 0 57.6 370.07">
  <g id="faceplate">
    <g id="panel">
      <rect x=".13" y=".13" width="57.35" height="364" style="fill: #ededed; stroke-width: 0px;"/>
      <path d="M57.35.25v363.75H.25V.25h57.1M57.6,0H0v364.25h57.6V0h0Z" style="fill: #9d9d9e; stroke-width: 0px;"/>
    </g>
    <path d="M44.39,261.76c0-8.05-6.98-14.57-15.59-14.57s-15.59,6.53-15.59,14.57v54.4s0,0,0,0v19.77c0,3.11,2.55,5.65,5.67,5.65h19.84c3.12,0,5.67-2.54,5.67-5.65v-19.77s0,0,0,0v-54.39Z" style="fill: #000; stroke-width: 0px;"/>
    <path d="M28.8,56.34c8.04,0,14.59,6.08,14.59,13.54v253.69H14.21V69.88c0-7.47,6.55-13.54,14.59-13.54M28.8,55.34c-8.61,0-15.59,6.51-15.59,14.54v254.69s31.18,0,31.18,0V69.88c0-8.03-6.98-14.54-15.59-14.54h0Z" style="fill: #000; stroke-width: 0px;"/>
    <g id="text">
      <text transform="translate(19.33 192.87) scale(.88 1)" style="fill: #000; font-family: GillSans-Bold, &apos;Gill Sans&apos;; font-size: 8px; font-weight: 700; letter-spacing: -.04em;"><tspan x="0" y="0">Samp</tspan></text>
      <text transform="translate(22.52 144.68) scale(.88 1)" style="fill: #000; font-family: GillSans-Bold, &apos;Gill Sans&apos;; font-size: 8px; font-weight: 700; letter-spacing: -.04em;"><tspan x="0" y="0">In 1</tspan></text>
      <text transform="translate(21.43 96.49) scale(.88 1)" style="fill: #000; font-family: GillSans-Bold, &apos;Gill Sans&apos;; font-size: 8px; font-weight: 700; letter-spacing: -.04em;"><tspan x="0" y="0">Sam</tspan></text>
      <text transform="translate(22.52 241.06) scale(.88 1)" style="fill: #000; font-family: GillSans-Bold, &apos;Gill Sans&apos;; font-size: 8px; font-weight: 700; letter-spacing: -.04em;"><tspan x="0" y="0">In 2</tspan></text>
      <text transform="translate(19.34 289.25) scale(.88 1)" style="fill: #fff; font-family: GillSans-Bold, &apos;Gill Sans&apos;; font-size: 8px; font-weight: 700; letter-spacing: -.04em;"><tspan x="0" y="0">Out 1</tspan></text>
      <text transform="translate(19.34 337.44) scale(.88 1)" style="fill: #fff; font-family: GillSans-Bold, &apos;Gill Sans&apos;; font-size: 8px; font-weight: 700; letter-spacing: -.04em;"><tspan x="0" y="0">Out 2</tspan></text>
      <text transform="translate(18.34 357.2) scale(.82 1)" style="fill: #000; font-family: GillSans-Bold, &apos;Gill Sans&apos;; font-size: 11px; font-weight: 700;"><tspan x="0" y="0">S&amp;H</tspan></text>
    </g>
    <g>
      <path d="M20.6,18.19c-.37,0-.71-.17-.97-.47-.51-.6-.52-1.54-.04-2.16l6.97-8.88c.38-.48,1.05-.65,1.57-.39.5.25.79.82.79,1.45v4.77l4.64-5.85c.38-.48,1.01-.64,1.53-.38.5.25.83.81.83,1.44v8.82c0,.86-.61,1.57-1.36,1.57s-1.36-.7-1.36-1.57v-4.79l-4.64,5.85c-.38.48-1.01.64-1.54.38-.5-.24-.83-.81-.83-1.44v-4.67l-4.61,5.8c-.26.32-.62.51-1,.51h0Z" style="fill: #2cabe1; stroke-width: 0px;"/>
      <path d="M20.6,18.19c-.75,0-1.35-.7-1.35-1.57v-4.93l-2.26,2.84c-.5.63-1.44.65-1.97.04-.51-.6-.52-1.53-.03-2.15l4.61-5.76c.26-.32.63-.5,1-.5.18,0,.37.04.54.12.5.25.82.81.82,1.44v8.89c0,.86-.61,1.57-1.36,1.57h0Z" style="fill: #ea2228; stroke-width: 0px;"/>
      <path d="M37.2,18.21h0c-.35,0-.68-.15-.94-.42-.76-.78-.14-1.84.29-2.3l1.95-2.36-1.26-.02c-.56-.01-1.04-.4-1.24-1-.19-.56-.07-1.21.29-1.64l3.16-3.83c.23-.28.55-.48,1.13-.47.33,0,.67.17.92.4.71.66.29,1.7-.07,2.2l-1.04,1.26,1.26.02c.56.01,1.04.4,1.24,1,.19.56.07,1.21-.29,1.64l-4.1,4.97c-.35.35-.65.55-1.3.54h0Z" style="fill: #00a650; stroke-width: 0px;"/>
    </g>
  </g>
  <g id="components">
    <circle id="Out_2" data-name="Out 2" cx="28.8" cy="313.23" r="11.34" style="fill: blue; stroke-width: 0px;"/>
    <circle id="Out_1" data-name="Out 1" cx="28.8" cy="265.04" r="11.34" style="fill: blue; stroke-width: 0px;"/>
    <circle id="In_2" data-name="In 2" cx="28.8" cy="216.85" r="11.34" style="fill: lime; stroke-width: 0px;"/>
    <circle id="Samp_2" data-name="Samp 2" cx="28.8" cy="168.72" r="11.34" style="fill: lime; stroke-width: 0px;"/>
    <circle id="In_1" data-name="In 1" cx="28.8" cy="120.54" r="11.34" style="fill: lime; stroke-width: 0px;"/>
    <circle id="Samp_1" data-name="Samp 1" cx="28.8" cy="72.35" r="11.34" style="fill: lime; stroke-width: 0px;"/>
    <text id="slug" transform="translate(22 369.32)" style="fill: #000; font-family: MyriadPro-Regular, &apos;Myriad Pro&apos;; font-size: 3px;"><tspan x="0" y="0">SH</tspan></text>
    <text id="modulename" transform="translate(29.15 369.32)" style="fill: #000; font-family: MyriadPro-Regular, &apos;Myriad Pro&apos;; font-size: 3px;"><tspan x="0" y="0">2 Ch. </tspan><tspan x="6.84" y="0" style="letter-spacing: 0em;">S</tspan><tspan x="8.33" y="0" style="letter-spacing: 0em;">ample and Hold</tspan></text>
  </g>
</svg>