<?xml version="1.0" encoding="UTF-8" standalone="no"?>
<svg
   width="61.05mm"
   height="131.71mm"
   viewBox="0 0 173.05 373.34"
   version="1.1"
   id="svg227"
   sodipodi:docname="SISM_info.svg"
   inkscape:version="1.3.2 (091e20e, 2023-11-25)"
   xmlns:inkscape="http://www.inkscape.org/namespaces/inkscape"
   xmlns:sodipodi="http://sodipodi.sourceforge.net/DTD/sodipodi-0.dtd"
   xmlns="http://www.w3.org/2000/svg"
   xmlns:svg="http://www.w3.org/2000/svg">
  <defs
     id="defs227" />
  <sodipodi:namedview
     id="namedview227"
     pagecolor="#ffffff"
     bordercolor="#000000"
     borderopacity="0.25"
     inkscape:showpageshadow="2"
     inkscape:pageopacity="0.0"
     inkscape:pagecheckerboard="0"
     inkscape:deskcolor="#d1d1d1"
     inkscape:document-units="mm"
     inkscape:zoom="2.3287972"
     inkscape:cx="140.84524"
     inkscape:cy="192.15928"
     inkscape:window-width="1392"
     inkscape:window-height="1212"
     inkscape:window-x="50"
     inkscape:window-y="25"
     inkscape:window-maximized="0"
     inkscape:current-layer="components" />
  <g
     id="faceplate">
    <rect
       x=".12"
       y=".12"
       width="172.8"
       height="364.25"
       style="fill: #ededed; stroke: #9d9d9e; stroke-miterlimit: 10; stroke-width: .25px;"
       id="rect1" />
    <g
       id="g3">
      <path
         d="m22.59,95.39c.37-1.24.72-2.05,1.12-3.04h-3.78c.17.36.74,1.8,1.12,3.04.4,1.33.68,2.53.77,3.31.1-.78.37-1.98.77-3.31Z"
         style="fill: #fff;"
         id="path1" />
      <g
         id="g2">
        <line
           x1="21.82"
           y1="71.71"
           x2="21.82"
           y2="93.62"
           style="fill: none; stroke: #171717;"
           id="line1" />
        <path
           d="m22.59,95.39c.37-1.24.72-2.05,1.12-3.04h-3.78c.17.36.74,1.8,1.12,3.04.4,1.33.68,2.53.77,3.31.1-.78.37-1.98.77-3.31Z"
           style="fill: #171717;"
           id="path2" />
      </g>
    </g>
    <g
       id="g5">
      <path
         d="m22.59,225.44c.37-1.24.72-2.05,1.12-3.04h-3.78c.17.36.74,1.8,1.12,3.04.4,1.33.68,2.53.77,3.31.1-.78.37-1.98.77-3.31Z"
         style="fill: #fff;"
         id="path3" />
      <g
         id="g4">
        <line
           x1="21.82"
           y1="201.75"
           x2="21.82"
           y2="223.66"
           style="fill: none; stroke: #171717;"
           id="line3" />
        <path
           d="m22.59,225.44c.37-1.24.72-2.05,1.12-3.04h-3.78c.17.36.74,1.8,1.12,3.04.4,1.33.68,2.53.77,3.31.1-.78.37-1.98.77-3.31Z"
           style="fill: #171717;"
           id="path4" />
      </g>
    </g>
    <path
       d="m111.36,35.17h39c.28-.03.56-.06.85-.06,10.09,0,18.27,8.86,18.27,19.8,0,10.94-8.17,19.81-18.26,19.81h-39.85s-48.82.01-48.82.01H22.7c-10.09-.02-18.26-8.89-18.26-19.83,0-10.94,8.18-19.8,18.27-19.8.29,0,.57.03.85.05h39"
       style="fill: #ec1c24; stroke: #231f20;"
       id="path5" />
    <path
       d="m87.89,49.12c0-12.71-10.31-23.02-23.03-23.02-12.71,0-23.01,10.31-23.01,23.03,0,12.72,10.32,23.02,23.03,23.02,12.71,0,23.02-10.31,23.01-23.03Z"
       style="fill: #ededed;"
       id="path6" />
    <path
       d="m131.09,49.12c0-12.71-10.31-23.02-23.03-23.02-12.71,0-23.02,10.31-23.01,23.03,0,12.72,10.31,23.02,23.02,23.02,12.71,0,23.02-10.31,23.01-23.03Z"
       style="fill: #ededed;"
       id="path7" />
    <path
       d="m62.57,99.97H23.57c-.28-.03-.56-.06-.85-.06-10.09,0-18.27,8.86-18.27,19.8,0,10.94,8.17,19.81,18.26,19.81h39.85s48.82.01,48.82.01h39.85c10.09-.02,18.26-8.89,18.26-19.83,0-10.94-8.18-19.8-18.27-19.8-.29,0-.57.03-.85.05h-39"
       style="fill: #171717; stroke: #171717;"
       id="path8" />
    <path
       d="m87.89,113.92c0-12.71-10.31-23.02-23.03-23.02-12.71,0-23.01,10.31-23.01,23.03,0,12.72,10.32,23.02,23.03,23.02,12.71,0,23.02-10.31,23.01-23.03Z"
       style="fill: #ededed;"
       id="path9" />
    <path
       d="m131.09,113.92c0-12.71-10.31-23.02-23.03-23.02-12.71,0-23.02,10.31-23.01,23.03,0,12.72,10.31,23.02,23.02,23.02,12.71,0,23.02-10.31,23.01-23.03Z"
       style="fill: #ededed;"
       id="path10" />
    <path
       d="m62.57,164.77H23.57c-.28-.03-.56-.06-.85-.06-10.09,0-18.27,8.86-18.27,19.8,0,10.94,8.17,19.81,18.26,19.81h39.85s48.82.01,48.82.01h39.85c10.09-.02,18.26-8.89,18.26-19.83,0-10.94-8.18-19.8-18.27-19.8-.29,0-.57.03-.85.05h-39"
       style="fill: #5db0e2; stroke: #000;"
       id="path11" />
    <path
       d="m87.89,178.72c0-12.71-10.31-23.02-23.03-23.02-12.71,0-23.01,10.31-23.01,23.03,0,12.72,10.32,23.02,23.03,23.02,12.71,0,23.02-10.31,23.01-23.03Z"
       style="fill: #ededed;"
       id="path12" />
    <path
       d="m131.09,178.72c0-12.71-10.31-23.02-23.03-23.02-12.71,0-23.02,10.31-23.01,23.03,0,12.72,10.31,23.02,23.02,23.02,12.71,0,23.02-10.31,23.01-23.03Z"
       style="fill: #ededed;"
       id="path13" />
    <path
       d="m62.57,229.57H23.57c-.28-.03-.56-.06-.85-.06-10.09,0-18.27,8.86-18.27,19.8,0,10.94,8.17,19.81,18.26,19.81h39.85s48.82.01,48.82.01h39.85c10.09-.02,18.26-8.89,18.26-19.82,0-10.94-8.18-19.8-18.27-19.8-.29,0-.57.03-.85.05h-39"
       style="fill: #5ab947; stroke: #000;"
       id="path14" />
    <path
       d="m87.89,243.52c0-12.71-10.31-23.02-23.03-23.02-12.71,0-23.01,10.31-23.01,23.03,0,12.71,10.32,23.02,23.03,23.02,12.71,0,23.02-10.31,23.01-23.03Z"
       style="fill: #ededed;"
       id="path15" />
    <path
       d="m131.09,243.52c0-12.71-10.31-23.02-23.03-23.02-12.71,0-23.02,10.31-23.01,23.03,0,12.71,10.31,23.02,23.02,23.02,12.71,0,23.02-10.31,23.01-23.03Z"
       style="fill: #ededed;"
       id="path16" />
    <rect
       x="64.88"
       y="26.89"
       width="43.96"
       height="45.26"
       style="fill: #ededed;"
       id="rect16" />
    <rect
       x="64.88"
       y="91.69"
       width="43.96"
       height="45.26"
       style="fill: #ededed;"
       id="rect17" />
    <rect
       x="64.88"
       y="156.49"
       width="43.96"
       height="45.26"
       style="fill: #ededed;"
       id="rect18" />
    <rect
       x="64.88"
       y="221.29"
       width="43.96"
       height="45.26"
       style="fill: #ededed;"
       id="rect19" />
    <g
       id="g20">
      <path
         d="m19.61,71.65h-1.26v-4.74h1.26v4.74Z"
         style="fill: #171717;"
         id="path19" />
      <path
         d="m24.95,71.65h-1.12l-2.16-2.64v2.64h-1.25v-4.74h1.12l2.16,2.62v-2.62h1.25v4.74Z"
         style="fill: #171717;"
         id="path20" />
    </g>
    <g
       id="g23">
      <path
         d="m149,69.85c0,.44-.08.85-.23,1.22-.15.37-.38.67-.68.89s-.67.33-1.1.33-.81-.11-1.12-.34c-.3-.23-.53-.53-.68-.9-.15-.37-.22-.77-.22-1.19s.07-.82.22-1.19c.15-.37.37-.67.68-.9.3-.23.68-.34,1.12-.34.33,0,.62.06.88.19.26.13.47.31.63.53.17.22.29.48.38.78.09.3.13.61.13.93Zm-1.09,0c0-.18-.02-.34-.06-.49-.04-.15-.1-.27-.18-.38-.08-.11-.18-.19-.29-.25-.12-.06-.25-.09-.4-.09-.29,0-.51.11-.68.33s-.25.52-.25.88.08.66.25.88c.17.22.39.34.68.34.2,0,.36-.05.5-.16.14-.1.24-.25.32-.43.07-.18.11-.39.11-.63Z"
         style="fill: #171717;"
         id="path21" />
      <path
         d="m153.15,70.1c0,.41-.06.75-.17,1.04-.11.29-.26.51-.45.68-.19.17-.39.29-.61.36-.22.07-.43.11-.65.11-.3,0-.59-.07-.88-.21-.28-.14-.52-.37-.71-.7s-.29-.76-.29-1.28v-2.61h1.07v2.25c0,.31.03.57.1.77.07.2.16.35.28.45.12.09.26.14.43.14s.3-.05.42-.14.22-.24.28-.44.1-.46.1-.77v-2.25h1.07v2.61Z"
         style="fill: #171717;"
         id="path22" />
      <path
         d="m157.19,68.64h-1.3v3.59h-1.07v-3.59h-1.3v-1.15h3.67v1.15Z"
         style="fill: #171717;"
         id="path23" />
    </g>
    <g
       id="g53">
      <path
         d="m43.61,345.74c0,.38-.08.71-.25.99-.17.28-.4.5-.71.64-.3.15-.65.22-1.04.22-.11,0-.24,0-.4-.02-.16-.02-.37-.06-.63-.13-.26-.07-.54-.18-.82-.33v-1.5c.27.19.53.35.79.48.26.13.53.19.83.19.27,0,.45-.05.53-.16s.12-.2.12-.29c0-.17-.07-.3-.21-.42-.14-.11-.34-.23-.6-.35-.29-.14-.54-.3-.76-.46-.22-.17-.4-.38-.54-.63-.14-.25-.21-.55-.21-.89s.07-.63.21-.89.35-.48.64-.64c.29-.16.64-.24,1.05-.24.29,0,.57.03.82.1s.46.14.62.22c.16.08.27.15.33.19v1.44c-.22-.18-.46-.34-.72-.48-.27-.14-.55-.21-.85-.21-.2,0-.34.04-.43.13s-.13.2-.13.33c0,.12.04.23.13.31.09.09.25.2.48.32.41.22.73.42.97.6s.43.38.57.61.21.52.21.86Z"
         style="fill: #171717;"
         id="path24" />
      <path
         d="m50.26,347.52h-1.59v-2.39h-2.39v2.39h-1.59v-6.13h1.59v2.25h2.39v-2.25h1.59v6.13Z"
         style="fill: #171717;"
         id="path25" />
      <path
         d="m53.18,347.52h-1.59v-6.13h1.59v6.13Z"
         style="fill: #171717;"
         id="path26" />
      <path
         d="m58.3,345.04h-2.19v2.48h-1.59v-6.13h3.78v1.23h-2.19v1.18h2.19v1.23Z"
         style="fill: #171717;"
         id="path27" />
      <path
         d="m64.42,342.89h-1.93v4.64h-1.59v-4.64h-1.93v-1.49h5.45v1.49Z"
         style="fill: #171717;"
         id="path28" />
      <path
         d="m66.95,347.52h-1.59v-6.13h1.59v6.13Z"
         style="fill: #171717;"
         id="path29" />
      <path
         d="m74.01,347.52h-1.42l-2.74-3.41v3.41h-1.58v-6.13h1.41l2.73,3.4v-3.4h1.59v6.13Z"
         style="fill: #171717;"
         id="path30" />
      <path
         d="m80.31,347.09c-.11.05-.21.09-.29.12s-.16.06-.23.09c-.08.03-.18.06-.33.1-.24.06-.48.11-.72.15-.24.03-.49.05-.76.05-.54,0-1.03-.11-1.48-.34s-.82-.58-1.09-1.06c-.27-.48-.41-1.06-.41-1.76,0-.45.07-.89.21-1.32.14-.43.36-.78.65-1.04.24-.21.48-.38.73-.49.24-.11.48-.19.72-.23s.49-.06.77-.06c.46,0,.85.04,1.15.12.3.08.63.19.99.32v1.45c-.24-.16-.49-.3-.76-.41-.27-.11-.6-.16-1-.16-.46,0-.83.1-1.1.3-.28.2-.47.44-.57.72-.11.28-.16.55-.16.81,0,.31.06.59.19.86.12.26.31.47.56.63.25.16.55.24.91.24.2,0,.42-.03.65-.09v-.72h-.72v-1.23h2.1v2.94Z"
         style="fill: #171717;"
         id="path31" />
      <path
         d="m85.48,347.52h-1.59v-6.13h1.59v6.13Z"
         style="fill: #171717;"
         id="path32" />
      <path
         d="m92.54,347.52h-1.42l-2.74-3.41v3.41h-1.58v-6.13h1.41l2.73,3.4v-3.4h1.59v6.13Z"
         style="fill: #171717;"
         id="path33" />
      <path
         d="m99.02,341.4l-2.38,6.21h-1.05l-2.33-6.21h1.66l1.21,3.54,1.24-3.54h1.66Z"
         style="fill: #171717;"
         id="path34" />
      <path
         d="m103.72,347.52h-3.98v-6.13h3.91v1.23h-2.32v1.12h2.22v1.23h-2.22v1.31h2.39v1.23Z"
         style="fill: #171717;"
         id="path35" />
      <path
         d="m109.9,347.52h-1.71l-.42-1.09c-.15-.4-.29-.69-.41-.87-.12-.18-.24-.3-.36-.35-.12-.05-.26-.08-.45-.08h-.18v2.39h-1.59v-6.13h2.71c.44,0,.79.1,1.07.31.28.21.48.46.6.75.12.29.18.58.18.84,0,.31-.05.57-.15.78-.1.21-.21.37-.33.47-.11.1-.24.19-.38.28.17.11.31.25.42.41.11.16.26.48.45.96l.53,1.33Zm-2.16-4.19c0-.28-.08-.48-.24-.59-.16-.11-.42-.17-.78-.17h-.33v1.48h.34c.39,0,.65-.05.8-.15.14-.1.21-.29.21-.57Z"
         style="fill: #171717;"
         id="path36" />
      <path
         d="m115.68,342.89h-1.93v4.64h-1.59v-4.64h-1.93v-1.49h5.45v1.49Z"
         style="fill: #171717;"
         id="path37" />
      <path
         d="m118.2,347.52h-1.59v-6.13h1.59v6.13Z"
         style="fill: #171717;"
         id="path38" />
      <path
         d="m125.27,347.52h-1.42l-2.74-3.41v3.41h-1.58v-6.13h1.41l2.73,3.4v-3.4h1.59v6.13Z"
         style="fill: #171717;"
         id="path39" />
      <path
         d="m131.56,347.09c-.11.05-.21.09-.29.12s-.16.06-.23.09c-.07.03-.18.06-.33.1-.24.06-.48.11-.72.15-.24.03-.49.05-.76.05-.54,0-1.03-.11-1.48-.34s-.82-.58-1.09-1.06c-.27-.48-.41-1.06-.41-1.76,0-.45.07-.89.21-1.32.14-.43.36-.78.64-1.04.24-.21.48-.38.73-.49s.48-.19.72-.23.49-.06.77-.06c.46,0,.85.04,1.15.12.3.08.63.19.99.32v1.45c-.24-.16-.49-.3-.76-.41-.27-.11-.6-.16-1-.16-.46,0-.83.1-1.1.3-.28.2-.47.44-.58.72-.11.28-.16.55-.16.81,0,.31.06.59.19.86.12.26.31.47.56.63.25.16.55.24.91.24.2,0,.42-.03.65-.09v-.72h-.72v-1.23h2.1v2.94Z"
         style="fill: #171717;"
         id="path40" />
      <path
         d="m44.87,355.72c0,.51-.11.95-.32,1.32-.21.37-.5.66-.88.85-.38.2-.81.3-1.3.3-.14,0-.3-.01-.5-.03-.2-.02-.46-.08-.79-.18s-.67-.24-1.02-.43v-1.99c.33.25.66.46.98.63.32.17.67.25,1.03.25.34,0,.56-.07.66-.21s.15-.27.15-.39c0-.22-.09-.4-.26-.55s-.42-.31-.75-.47c-.36-.19-.68-.39-.95-.61s-.49-.5-.67-.83c-.17-.33-.26-.72-.26-1.18s.09-.83.26-1.19c.17-.35.44-.64.8-.85s.79-.32,1.31-.32c.37,0,.71.04,1.02.13s.57.19.77.3c.2.11.34.2.42.26v1.9c-.27-.24-.57-.45-.9-.64s-.68-.28-1.06-.28c-.25,0-.43.06-.54.18s-.17.26-.17.43c0,.16.06.3.17.42s.31.26.59.43c.51.29.91.56,1.21.79s.54.5.71.81.26.69.26,1.15Z"
         style="fill: #171717;"
         id="path41" />
      <path
         d="m48.21,358.09h-1.98v-8.12h1.98v8.12Z"
         style="fill: #171717;"
         id="path42" />
      <path
         d="m56.07,357.51c-.14.07-.26.12-.37.16-.1.04-.2.08-.29.12s-.23.08-.41.13c-.3.09-.6.15-.9.2s-.61.07-.95.07c-.67,0-1.28-.15-1.85-.45s-1.02-.77-1.36-1.4c-.34-.63-.51-1.41-.51-2.33,0-.59.09-1.18.26-1.75s.44-1.03.8-1.37c.3-.29.6-.5.9-.65s.6-.25.89-.3.61-.08.96-.08c.58,0,1.06.05,1.43.16s.79.25,1.24.42v1.92c-.3-.21-.61-.39-.94-.54-.33-.14-.75-.22-1.24-.22-.57,0-1.03.13-1.37.4s-.58.59-.72.96c-.13.37-.2.73-.2,1.08,0,.41.08.79.23,1.13.16.35.39.62.7.83.31.21.69.31,1.13.31.25,0,.52-.04.81-.12v-.96h-.89v-1.63h2.62v3.9Z"
         style="fill: #171717;"
         id="path43" />
      <path
         d="m64.78,358.09h-1.77l-3.41-4.52v4.52h-1.96v-8.12h1.76l3.4,4.5v-4.5h1.98v8.12Z"
         style="fill: #171717;"
         id="path44" />
      <path
         d="m73.65,358.09h-2.03l-.54-1.65h-2.86l-.55,1.65h-2.03l2.91-8.12h2.19l2.9,8.12Zm-3.02-3.06l-.96-2.96-.97,2.96h1.94Z"
         style="fill: #171717;"
         id="path45" />
      <path
         d="m79.52,358.09h-5v-8.12h1.98v6.18h3.01v1.95Z"
         style="fill: #171717;"
         id="path46" />
      <path
         d="m91.21,358.09h-1.98v-4.71l-1.79,2.72h-.16l-1.79-2.72v4.71h-1.93v-8.12h1.8l2.02,3.05,2.03-3.05h1.8v8.12Z"
         style="fill: #171717;"
         id="path47" />
      <path
         d="m94.87,358.09h-1.98v-8.12h1.98v8.12Z"
         style="fill: #171717;"
         id="path48" />
      <path
         d="m103.67,358.09h-1.77l-3.41-4.52v4.52h-1.96v-8.12h1.76l3.4,4.5v-4.5h1.98v8.12Z"
         style="fill: #171717;"
         id="path49" />
      <path
         d="m111.53,357.51c-.14.07-.26.12-.37.16-.1.04-.2.08-.29.12-.09.04-.23.08-.41.13-.3.09-.6.15-.9.2s-.61.07-.95.07c-.67,0-1.28-.15-1.85-.45s-1.02-.77-1.36-1.4c-.34-.63-.51-1.41-.51-2.33,0-.59.09-1.18.26-1.75s.44-1.03.8-1.37c.3-.29.6-.5.9-.65.3-.15.6-.25.89-.3s.61-.08.96-.08c.58,0,1.06.05,1.43.16s.79.25,1.24.42v1.92c-.3-.21-.61-.39-.94-.54-.33-.14-.75-.22-1.24-.22-.57,0-1.03.13-1.37.4s-.58.59-.72.96-.2.73-.2,1.08c0,.41.08.79.23,1.13.15.35.39.62.7.83s.69.31,1.13.31c.25,0,.52-.04.81-.12v-.96h-.89v-1.63h2.62v3.9Z"
         style="fill: #171717;"
         id="path50" />
      <path
         d="m118.08,358.09h-5v-8.12h1.98v6.18h3.01v1.95Z"
         style="fill: #171717;"
         id="path51" />
      <path
         d="m124.2,358.09h-4.96v-8.12h4.88v1.63h-2.9v1.49h2.76v1.63h-2.76v1.73h2.98v1.63Z"
         style="fill: #171717;"
         id="path52" />
      <path
         d="m131.9,358.09h-2.13l-.52-1.44c-.19-.53-.36-.91-.51-1.16s-.3-.4-.44-.47c-.14-.07-.33-.1-.56-.1h-.22v3.17h-1.98v-8.12h3.37c.54,0,.99.14,1.34.41.35.27.6.61.75,1s.23.76.23,1.11c0,.41-.06.76-.19,1.04s-.26.49-.41.62-.3.25-.48.37c.21.15.39.33.52.54.14.21.33.63.56,1.27l.67,1.76Zm-2.7-5.55c0-.38-.1-.64-.3-.79s-.52-.22-.97-.22h-.42v1.96h.43c.48,0,.82-.07.99-.2s.27-.38.27-.75Z"
         style="fill: #171717;"
         id="path53" />
    </g>
    <g
       id="g59">
      <path
         d="m13.25,331.83h-1.44v1.92h-.82v-1.92h-1.44v-1.09h1.44v-1.92h.82v1.92h1.44v1.09Z"
         style="fill: #171717;"
         id="path54" />
      <path
         d="m18.87,332.56c0,.38-.07.71-.22.99-.15.28-.35.49-.61.64-.26.15-.56.22-.9.22-.09,0-.21,0-.35-.02-.14-.02-.32-.06-.55-.13-.23-.07-.46-.18-.71-.33v-1.49c.23.19.46.35.68.47s.46.19.72.19c.24,0,.39-.05.46-.16.07-.1.1-.2.1-.29,0-.16-.06-.3-.18-.42-.12-.11-.29-.23-.52-.35-.25-.14-.47-.29-.66-.46-.19-.17-.34-.37-.46-.62-.12-.25-.18-.54-.18-.88s.06-.62.18-.89c.12-.27.31-.48.55-.64s.55-.24.91-.24c.25,0,.49.03.71.1.22.07.39.14.54.22s.24.15.29.19v1.43c-.19-.18-.39-.34-.62-.48-.23-.14-.48-.21-.74-.21-.17,0-.29.04-.37.13s-.12.2-.12.33c0,.12.04.22.12.31s.21.2.41.32c.35.22.63.42.84.59s.38.38.5.61c.12.23.18.52.18.86Z"
         style="fill: #171717;"
         id="path55" />
      <path
         d="m23.01,334.33h-3.47v-6.09h1.38v4.63h2.09v1.46Z"
         style="fill: #171717;"
         id="path56" />
      <path
         d="m24.93,334.33h-1.38v-6.09h1.38v6.09Z"
         style="fill: #171717;"
         id="path57" />
      <path
         d="m29.9,333.87c-.19.13-.38.24-.58.32-.2.08-.4.14-.6.17s-.41.05-.62.05c-.4,0-.75-.07-1.07-.22s-.59-.36-.82-.65c-.23-.29-.41-.62-.52-1-.12-.38-.17-.8-.17-1.26,0-.52.07-.98.2-1.38.14-.39.33-.72.57-.98s.52-.45.84-.58c.31-.12.64-.19.99-.19.52,0,1.11.15,1.76.46v1.62c-.23-.19-.45-.34-.67-.47-.22-.12-.48-.19-.78-.19-.27,0-.51.07-.74.21-.23.14-.42.34-.56.6s-.21.57-.21.91c0,.31.06.59.18.85.12.26.29.46.51.61.22.15.46.23.74.23.22,0,.43-.04.63-.11.2-.07.36-.15.5-.24.13-.09.27-.19.42-.31v1.54Z"
         style="fill: #171717;"
         id="path58" />
      <path
         d="m34,334.33h-3.44v-6.09h3.39v1.22h-2.01v1.12h1.92v1.23h-1.92v1.3h2.07v1.23Z"
         style="fill: #171717;"
         id="path59" />
    </g>
    <g
       id="g65">
      <path
         d="m54.95,332.8h-2.16v-1.47h2.16v1.47Z"
         style="fill: #171717;"
         id="path60" />
      <path
         d="m60.76,332.56c0,.38-.07.71-.22.99-.15.28-.35.49-.61.64-.26.15-.56.22-.9.22-.09,0-.21,0-.35-.02-.14-.02-.32-.06-.55-.13-.23-.07-.46-.18-.71-.33v-1.49c.23.19.46.35.68.47s.46.19.72.19c.24,0,.39-.05.46-.16.07-.1.1-.2.1-.29,0-.16-.06-.3-.18-.42-.12-.11-.29-.23-.52-.35-.25-.14-.47-.29-.66-.46-.19-.17-.34-.37-.46-.62-.12-.25-.18-.54-.18-.88s.06-.62.18-.89c.12-.27.31-.48.55-.64s.55-.24.91-.24c.25,0,.49.03.71.1.22.07.39.14.54.22s.24.15.29.19v1.43c-.19-.18-.39-.34-.62-.48-.23-.14-.48-.21-.74-.21-.17,0-.29.04-.37.13s-.12.2-.12.33c0,.12.04.22.12.31s.21.2.41.32c.35.22.63.42.84.59s.38.38.5.61c.12.23.18.52.18.86Z"
         style="fill: #171717;"
         id="path61" />
      <path
         d="m64.89,334.33h-3.47v-6.09h1.38v4.63h2.09v1.46Z"
         style="fill: #171717;"
         id="path62" />
      <path
         d="m66.81,334.33h-1.38v-6.09h1.38v6.09Z"
         style="fill: #171717;"
         id="path63" />
      <path
         d="m71.78,333.87c-.19.13-.38.24-.58.32-.2.08-.4.14-.6.17s-.41.05-.62.05c-.4,0-.75-.07-1.07-.22s-.59-.36-.82-.65c-.23-.29-.41-.62-.52-1-.12-.38-.17-.8-.17-1.26,0-.52.07-.98.2-1.38.14-.39.33-.72.57-.98s.52-.45.84-.58c.31-.12.64-.19.99-.19.52,0,1.11.15,1.76.46v1.62c-.23-.19-.45-.34-.67-.47-.22-.12-.48-.19-.78-.19-.27,0-.51.07-.74.21-.23.14-.42.34-.56.6s-.21.57-.21.91c0,.31.06.59.18.85.12.26.29.46.51.61.22.15.46.23.74.23.22,0,.43-.04.63-.11.2-.07.36-.15.5-.24.13-.09.27-.19.42-.31v1.54Z"
         style="fill: #171717;"
         id="path64" />
      <path
         d="m75.88,334.33h-3.44v-6.09h3.39v1.22h-2.01v1.12h1.92v1.23h-1.92v1.3h2.07v1.23Z"
         style="fill: #171717;"
         id="path65" />
    </g>
    <g
       id="g72">
      <path
         d="m97.19,334.33h-1.38v-3.53l-1.24,2.04h-.11l-1.25-2.04v3.53h-1.34v-6.09h1.25l1.4,2.29,1.41-2.29h1.25v6.09Z"
         style="fill: #171717;"
         id="path66" />
      <path
         d="m99.46,334.33h-1.38v-6.09h1.38v6.09Z"
         style="fill: #171717;"
         id="path67" />
      <path
         d="m105.5,334.33h-1.77l-.48-.76s-.11-.19-.29-.47c-.18-.28-.29-.48-.35-.58-.26.47-.48.85-.65,1.12l-.42.69h-1.74l1.94-3.17-1.85-2.92h1.76l.31.51c.18.3.4.67.65,1.11.24-.47.43-.82.57-1.04l.36-.58h1.73l-1.78,2.92,2.01,3.17Z"
         style="fill: #171717;"
         id="path68" />
      <path
         d="m109.83,336.44h-.87c-.17-.18-.34-.37-.51-.59-.17-.22-.35-.5-.54-.85-.19-.34-.34-.74-.47-1.2-.13-.45-.19-.95-.19-1.48,0-.69.1-1.31.3-1.87s.42-1,.65-1.33c.23-.33.48-.65.76-.96h.87c-.25.36-.46.7-.64,1.02s-.34.76-.48,1.29c-.14.54-.22,1.15-.22,1.83s.07,1.31.22,1.84c.14.53.3.96.48,1.27.17.31.39.66.64,1.03Z"
         style="fill: #171717;"
         id="path69" />
      <path
         d="m113.09,332.56c0,.38-.07.71-.22.99-.15.28-.35.49-.61.64-.26.15-.56.22-.9.22-.09,0-.21,0-.35-.02-.14-.02-.32-.06-.55-.13-.23-.07-.46-.18-.71-.33v-1.49c.23.19.46.35.68.47s.46.19.72.19c.24,0,.39-.05.46-.16.07-.1.1-.2.1-.29,0-.16-.06-.3-.18-.42-.12-.11-.29-.23-.52-.35-.25-.14-.47-.29-.66-.46-.19-.17-.34-.37-.46-.62-.12-.25-.18-.54-.18-.88s.06-.62.18-.89c.12-.27.31-.48.55-.64s.55-.24.91-.24c.25,0,.49.03.71.1.22.07.39.14.54.22s.24.15.29.19v1.43c-.19-.18-.39-.34-.62-.48-.23-.14-.48-.21-.74-.21-.17,0-.29.04-.37.13s-.12.2-.12.33c0,.12.04.22.12.31s.21.2.41.32c.35.22.63.42.84.59s.38.38.5.61c.12.23.18.52.18.86Z"
         style="fill: #171717;"
         id="path70" />
      <path
         d="m121.16,328.24l-1.98,6.17h-.8l-1.19-3.59-1.22,3.59h-.8l-1.94-6.17h1.43l.95,3.38,1.09-3.38h.99l1.07,3.38.99-3.38h1.41Z"
         style="fill: #171717;"
         id="path71" />
      <path
         d="m123.3,332.27c0,.53-.06,1.02-.19,1.48-.13.46-.28.86-.47,1.21-.19.35-.37.64-.54.87s-.35.43-.51.6h-.87c.25-.35.46-.69.64-1.02.18-.33.34-.76.48-1.3.14-.54.22-1.15.22-1.83s-.07-1.31-.21-1.84-.3-.95-.48-1.27-.39-.66-.65-1.03h.87c.23.24.47.53.72.88.25.35.48.81.68,1.37.21.56.31,1.19.31,1.87Z"
         style="fill: #171717;"
         id="path72" />
    </g>
    <g
       id="g75">
      <path
         d="m149.4,334.33h-1.38v-3.53l-1.24,2.04h-.11l-1.25-2.04v3.53h-1.34v-6.09h1.25l1.4,2.29,1.41-2.29h1.25v6.09Z"
         style="fill: #171717;"
         id="path73" />
      <path
         d="m151.67,334.33h-1.38v-6.09h1.38v6.09Z"
         style="fill: #171717;"
         id="path74" />
      <path
         d="m157.71,334.33h-1.77l-.48-.76s-.11-.19-.29-.47c-.18-.28-.29-.48-.35-.58-.26.47-.48.85-.65,1.12l-.42.69h-1.74l1.94-3.17-1.85-2.92h1.76l.31.51c.18.3.4.67.65,1.11.24-.47.43-.82.57-1.04l.36-.58h1.73l-1.78,2.92,2.01,3.17Z"
         style="fill: #171717;"
         id="path75" />
    </g>
    <g
       id="g78">
      <path
         d="m91.59,7.91s-3.89,4.95-6.16,7.83v-6.71c0-.58-.28-1.09-.72-1.31-.43-.22-.93-.08-1.26.33l-8.1,10.3c-.44.56-.43,1.45.03,1.99.46.54,1.18.52,1.62-.04,0,0,3.86-4.91,6.12-7.78v6.71c0,.57.29,1.09.72,1.31.44.21.94.08,1.26-.33,0,0,3.89-4.95,6.16-7.83v6.85c0,.78.51,1.41,1.15,1.41s1.15-.63,1.15-1.41v-10.34c0-.58-.29-1.09-.72-1.31-.44-.22-.93-.08-1.26.33Z"
         style="fill: #00adee; stroke: #00adee; stroke-width: .86px;"
         id="path76" />
      <path
         d="m75.36,7.83l-5.37,6.82c-.44.56-.43,1.45.03,1.99.46.54,1.19.52,1.63-.04,0,0,1.81-2.3,3.39-4.31v7.02c0,.78.51,1.41,1.14,1.41s1.15-.63,1.15-1.41v-10.51c0-.57-.29-1.09-.72-1.31-.44-.21-.93-.08-1.26.33Z"
         style="fill: #ec1c24; stroke: #ec1c24; stroke-width: .86px;"
         id="path77" />
      <path
         d="m100.91,12.86c-.18-.52-.59-.86-1.06-.86h-2.34l1.71-2.18s.89-1.31.1-2.02c-.79-.72-1.76.07-1.76.07l-3.59,4.56c-.32.41-.41,1.01-.23,1.53.18.52.6.86,1.06.86h2.35l-2.78,3.53s-1.15,1.26-.3,2.11c.85.85,1.96-.15,1.96-.15l4.65-5.92c.32-.41.41-1.01.23-1.53Z"
         style="fill: #00a551; stroke: #00a551; stroke-width: .86px;"
         id="path78" />
    </g>
    <g
       id="g80">
      <path
         d="m19.61,136.45h-1.26v-4.74h1.26v4.74Z"
         style="fill: #ededed;"
         id="path79" />
      <path
         d="m24.95,136.45h-1.12l-2.16-2.64v2.64h-1.25v-4.74h1.12l2.16,2.62v-2.62h1.25v4.74Z"
         style="fill: #ededed;"
         id="path80" />
    </g>
    <g
       id="g83">
      <path
         d="m149,134.65c0,.44-.08.85-.23,1.22-.15.37-.38.67-.68.89s-.67.33-1.1.33-.81-.11-1.12-.34c-.3-.23-.53-.53-.68-.9-.15-.37-.22-.77-.22-1.19s.07-.82.22-1.19c.15-.37.37-.67.68-.9.3-.23.68-.34,1.12-.34.33,0,.62.06.88.19.26.13.47.31.63.53.17.22.29.48.38.78.09.3.13.61.13.93Zm-1.09,0c0-.18-.02-.34-.06-.49-.04-.15-.1-.27-.18-.38-.08-.11-.18-.19-.29-.25-.12-.06-.25-.09-.4-.09-.29,0-.51.11-.68.33s-.25.52-.25.88.08.66.25.88c.17.22.39.34.68.34.2,0,.36-.05.5-.16.14-.1.24-.25.32-.43.07-.18.11-.39.11-.63Z"
         style="fill: #ededed;"
         id="path81" />
      <path
         d="m153.15,134.9c0,.41-.06.75-.17,1.04-.11.29-.26.51-.45.68-.19.17-.39.29-.61.36-.22.07-.43.11-.65.11-.3,0-.59-.07-.88-.21-.28-.14-.52-.37-.71-.7s-.29-.76-.29-1.28v-2.61h1.07v2.25c0,.31.03.57.1.77.07.2.16.35.28.45.12.09.26.14.43.14s.3-.05.42-.14.22-.24.28-.44.1-.46.1-.77v-2.25h1.07v2.61Z"
         style="fill: #ededed;"
         id="path82" />
      <path
         d="m157.19,133.44h-1.3v3.59h-1.07v-3.59h-1.3v-1.15h3.67v1.15Z"
         style="fill: #ededed;"
         id="path83" />
    </g>
    <g
       id="g85">
      <path
         d="m19.61,201.25h-1.26v-4.74h1.26v4.74Z"
         style="fill: #171717;"
         id="path84" />
      <path
         d="m24.95,201.25h-1.12l-2.16-2.64v2.64h-1.25v-4.74h1.12l2.16,2.62v-2.62h1.25v4.74Z"
         style="fill: #171717;"
         id="path85" />
    </g>
    <g
       id="g88">
      <path
         d="m149,199.45c0,.44-.08.85-.23,1.22-.15.37-.38.67-.68.89s-.67.33-1.1.33-.81-.11-1.12-.34c-.3-.23-.53-.53-.68-.9-.15-.37-.22-.77-.22-1.19s.07-.82.22-1.19c.15-.37.37-.67.68-.9.3-.23.68-.34,1.12-.34.33,0,.62.07.88.2.26.13.47.31.63.53.17.22.29.48.38.78.09.29.13.61.13.93Zm-1.09,0c0-.18-.02-.34-.06-.49-.04-.15-.1-.27-.18-.38-.08-.11-.18-.19-.29-.25-.12-.06-.25-.09-.4-.09-.29,0-.51.11-.68.33-.16.22-.25.52-.25.88s.08.66.25.88.39.34.68.34c.2,0,.36-.05.5-.16.14-.1.24-.25.32-.43.07-.18.11-.39.11-.63Z"
         style="fill: #171717;"
         id="path86" />
      <path
         d="m153.15,199.7c0,.41-.06.75-.17,1.04-.11.29-.26.51-.45.68-.19.17-.39.29-.61.36-.22.07-.43.11-.65.11-.3,0-.59-.07-.88-.21-.28-.14-.52-.37-.71-.7s-.29-.76-.29-1.28v-2.61h1.07v2.25c0,.31.03.57.1.77.07.2.16.35.28.45.12.09.26.14.43.14s.3-.05.42-.14c.12-.09.22-.24.28-.44.07-.2.1-.46.1-.77v-2.25h1.07v2.61Z"
         style="fill: #171717;"
         id="path87" />
      <path
         d="m157.19,198.24h-1.3v3.59h-1.07v-3.59h-1.3v-1.15h3.67v1.15Z"
         style="fill: #171717;"
         id="path88" />
    </g>
    <g
       id="g90">
      <path
         d="m19.61,266.05h-1.26v-4.74h1.26v4.74Z"
         style="fill: #171717;"
         id="path89" />
      <path
         d="m24.95,266.05h-1.12l-2.16-2.64v2.64h-1.25v-4.74h1.12l2.16,2.62v-2.62h1.25v4.74Z"
         style="fill: #171717;"
         id="path90" />
    </g>
    <g
       id="g93">
      <path
         d="m149,264.25c0,.44-.08.85-.23,1.22-.15.37-.38.67-.68.89s-.67.33-1.1.33-.81-.11-1.12-.34c-.3-.23-.53-.53-.68-.9-.15-.37-.22-.77-.22-1.19s.07-.82.22-1.19c.15-.37.37-.67.68-.9.3-.23.68-.34,1.12-.34.33,0,.62.07.88.2.26.13.47.31.63.53.17.22.29.48.38.78.09.29.13.61.13.93Zm-1.09,0c0-.18-.02-.34-.06-.49-.04-.15-.1-.27-.18-.38-.08-.11-.18-.19-.29-.25-.12-.06-.25-.09-.4-.09-.29,0-.51.11-.68.33-.16.22-.25.52-.25.88s.08.66.25.88.39.34.68.34c.2,0,.36-.05.5-.16.14-.1.24-.25.32-.43.07-.18.11-.39.11-.63Z"
         style="fill: #171717;"
         id="path91" />
      <path
         d="m153.15,264.5c0,.41-.06.75-.17,1.04-.11.29-.26.51-.45.68-.19.17-.39.29-.61.36-.22.07-.43.11-.65.11-.3,0-.59-.07-.88-.21-.28-.14-.52-.37-.71-.7s-.29-.76-.29-1.28v-2.61h1.07v2.25c0,.31.03.57.1.77.07.2.16.35.28.45.12.09.26.14.43.14s.3-.05.42-.14c.12-.09.22-.24.28-.44.07-.2.1-.46.1-.77v-2.25h1.07v2.61Z"
         style="fill: #171717;"
         id="path92" />
      <path
         d="m157.19,263.04h-1.3v3.59h-1.07v-3.59h-1.3v-1.15h3.67v1.15Z"
         style="fill: #171717;"
         id="path93" />
    </g>
    <g
       id="g114">
      <g
         id="g98">
        <path
           d="m58.2,66.86c0,.3-.07.55-.2.77-.13.22-.32.38-.56.5-.24.12-.51.17-.82.17-.09,0-.19,0-.32-.02-.12-.01-.29-.05-.5-.1-.21-.06-.42-.14-.65-.25v-1.16c.21.15.42.27.62.37.2.1.42.15.65.15.21,0,.35-.04.42-.12.06-.08.09-.16.09-.23,0-.13-.05-.24-.16-.32-.11-.09-.27-.18-.47-.27-.23-.11-.43-.23-.6-.36-.17-.13-.31-.29-.42-.48s-.16-.42-.16-.69.05-.49.17-.69c.11-.21.28-.37.5-.49s.5-.18.83-.18c.23,0,.45.03.65.08.2.05.36.11.49.17.13.06.22.11.26.15v1.11c-.17-.14-.36-.26-.57-.37s-.43-.16-.67-.16c-.16,0-.27.03-.34.1-.07.07-.11.15-.11.25,0,.09.04.17.11.24.07.07.2.15.38.25.32.17.58.32.77.46s.34.29.45.47c.11.18.16.4.16.67Z"
           style="fill: #171717;"
           id="path94" />
        <path
           d="m62.54,67.88c-.17.1-.35.18-.53.25s-.36.11-.55.13c-.18.03-.37.04-.57.04-.36,0-.69-.06-.98-.17s-.54-.28-.75-.5c-.21-.22-.37-.48-.48-.78-.1-.3-.16-.62-.16-.98,0-.41.06-.77.19-1.07.12-.31.3-.56.52-.76s.48-.35.76-.45c.29-.1.59-.15.9-.15.47,0,1.01.12,1.61.36v1.26c-.21-.15-.41-.27-.61-.36-.2-.1-.44-.15-.71-.15-.24,0-.47.05-.68.16-.21.11-.38.27-.51.47-.13.2-.19.44-.19.71,0,.24.06.46.17.66.11.2.27.36.47.47.2.12.42.18.68.18.2,0,.39-.03.57-.08.18-.06.33-.12.46-.19.12-.07.25-.15.38-.24v1.2Z"
           style="fill: #171717;"
           id="path95" />
        <path
           d="m67.71,68.23h-1.29l-.34-.96h-1.81l-.35.96h-1.29l1.84-4.74h1.39l1.84,4.74Zm-1.92-1.78l-.61-1.73-.62,1.73h1.23Z"
           style="fill: #171717;"
           id="path96" />
        <path
           d="m71.19,68.23h-3.17v-4.74h1.26v3.6h1.91v1.13Z"
           style="fill: #171717;"
           id="path97" />
        <path
           d="m74.82,68.23h-3.14v-4.74h3.09v.95h-1.83v.87h1.75v.95h-1.75v1.01h1.89v.95Z"
           style="fill: #171717;"
           id="path98" />
      </g>
      <g
         id="g103">
        <path
           d="m58.2,131.66c0,.3-.07.55-.2.77-.13.22-.32.38-.56.5-.24.12-.51.17-.82.17-.09,0-.19,0-.32-.02-.12-.01-.29-.05-.5-.1-.21-.06-.42-.14-.65-.25v-1.16c.21.15.42.27.62.37.2.1.42.15.65.15.21,0,.35-.04.42-.12.06-.08.09-.16.09-.23,0-.13-.05-.24-.16-.32-.11-.09-.27-.18-.47-.27-.23-.11-.43-.23-.6-.36-.17-.13-.31-.29-.42-.48s-.16-.42-.16-.69.05-.49.17-.69c.11-.21.28-.37.5-.49s.5-.18.83-.18c.23,0,.45.03.65.08.2.05.36.11.49.17.13.06.22.11.26.15v1.11c-.17-.14-.36-.26-.57-.37s-.43-.16-.67-.16c-.16,0-.27.03-.34.1-.07.07-.11.15-.11.25,0,.09.04.17.11.24.07.07.2.15.38.25.32.17.58.32.77.46s.34.29.45.47c.11.18.16.4.16.67Z"
           style="fill: #171717;"
           id="path99" />
        <path
           d="m62.54,132.68c-.17.1-.35.18-.53.25s-.36.11-.55.13c-.18.03-.37.04-.57.04-.36,0-.69-.06-.98-.17s-.54-.28-.75-.5c-.21-.22-.37-.48-.48-.78-.1-.3-.16-.62-.16-.98,0-.41.06-.77.19-1.07.12-.31.3-.56.52-.76s.48-.35.76-.45c.29-.1.59-.15.9-.15.47,0,1.01.12,1.61.36v1.26c-.21-.15-.41-.27-.61-.36-.2-.1-.44-.15-.71-.15-.24,0-.47.05-.68.16-.21.11-.38.27-.51.47-.13.2-.19.44-.19.71,0,.24.06.46.17.66.11.2.27.36.47.47.2.12.42.18.68.18.2,0,.39-.03.57-.08.18-.06.33-.12.46-.19.12-.07.25-.15.38-.24v1.2Z"
           style="fill: #171717;"
           id="path100" />
        <path
           d="m67.71,133.03h-1.29l-.34-.96h-1.81l-.35.96h-1.29l1.84-4.74h1.39l1.84,4.74Zm-1.92-1.78l-.61-1.73-.62,1.73h1.23Z"
           style="fill: #171717;"
           id="path101" />
        <path
           d="m71.19,133.03h-3.17v-4.74h1.26v3.6h1.91v1.13Z"
           style="fill: #171717;"
           id="path102" />
        <path
           d="m74.82,133.03h-3.14v-4.74h3.09v.95h-1.83v.87h1.75v.95h-1.75v1.01h1.89v.95Z"
           style="fill: #171717;"
           id="path103" />
      </g>
      <g
         id="g108">
        <path
           d="m58.2,196.46c0,.3-.07.55-.2.77-.13.22-.32.38-.56.5-.24.12-.51.17-.82.17-.09,0-.19,0-.32-.02-.12-.01-.29-.05-.5-.1-.21-.06-.42-.14-.65-.25v-1.16c.21.15.42.27.62.37.2.1.42.15.65.15.21,0,.35-.04.42-.12.06-.08.09-.16.09-.23,0-.13-.05-.24-.16-.32s-.27-.18-.47-.27c-.23-.11-.43-.23-.6-.36-.17-.13-.31-.29-.42-.48-.11-.19-.16-.42-.16-.69s.05-.49.17-.69c.11-.21.28-.37.5-.49s.5-.18.83-.18c.23,0,.45.03.65.08.2.05.36.11.49.17.13.06.22.11.26.15v1.11c-.17-.14-.36-.26-.57-.37s-.43-.16-.67-.16c-.16,0-.27.03-.34.1-.07.07-.11.15-.11.25,0,.09.04.17.11.24.07.07.2.15.38.25.32.17.58.33.77.46s.34.29.45.47c.11.18.16.4.16.67Z"
           style="fill: #171717;"
           id="path104" />
        <path
           d="m62.54,197.48c-.17.1-.35.18-.53.25s-.36.11-.55.13-.37.04-.57.04c-.36,0-.69-.06-.98-.17-.29-.11-.54-.28-.75-.5-.21-.22-.37-.48-.48-.78-.1-.3-.16-.62-.16-.98,0-.41.06-.76.19-1.07.12-.31.3-.56.52-.76.22-.2.48-.35.76-.45.29-.1.59-.14.9-.14.47,0,1.01.12,1.61.36v1.26c-.21-.15-.41-.27-.61-.36-.2-.1-.44-.14-.71-.14-.24,0-.47.05-.68.16-.21.11-.38.27-.51.47-.13.2-.19.44-.19.71,0,.24.06.46.17.66s.27.36.47.47c.2.12.42.18.68.18.2,0,.39-.03.57-.08s.33-.12.46-.19c.12-.07.25-.15.38-.24v1.2Z"
           style="fill: #171717;"
           id="path105" />
        <path
           d="m67.71,197.83h-1.29l-.34-.96h-1.81l-.35.96h-1.29l1.84-4.74h1.39l1.84,4.74Zm-1.92-1.78l-.61-1.73-.62,1.73h1.23Z"
           style="fill: #171717;"
           id="path106" />
        <path
           d="m71.19,197.83h-3.17v-4.74h1.26v3.6h1.91v1.13Z"
           style="fill: #171717;"
           id="path107" />
        <path
           d="m74.82,197.83h-3.14v-4.74h3.09v.95h-1.83v.87h1.75v.95h-1.75v1.01h1.89v.95Z"
           style="fill: #171717;"
           id="path108" />
      </g>
      <g
         id="g113">
        <path
           d="m58.2,261.26c0,.3-.07.55-.2.77-.13.22-.32.38-.56.5-.24.12-.51.17-.82.17-.09,0-.19,0-.32-.02-.12-.01-.29-.05-.5-.1-.21-.06-.42-.14-.65-.25v-1.16c.21.15.42.27.62.37.2.1.42.15.65.15.21,0,.35-.04.42-.12.06-.08.09-.16.09-.23,0-.13-.05-.24-.16-.32s-.27-.18-.47-.27c-.23-.11-.43-.23-.6-.36-.17-.13-.31-.29-.42-.48-.11-.19-.16-.42-.16-.69s.05-.49.17-.69c.11-.21.28-.37.5-.49s.5-.18.83-.18c.23,0,.45.03.65.08.2.05.36.11.49.17.13.06.22.11.26.15v1.11c-.17-.14-.36-.26-.57-.37s-.43-.16-.67-.16c-.16,0-.27.03-.34.1-.07.07-.11.15-.11.25,0,.09.04.17.11.24.07.07.2.15.38.25.32.17.58.33.77.46s.34.29.45.47c.11.18.16.4.16.67Z"
           style="fill: #171717;"
           id="path109" />
        <path
           d="m62.54,262.28c-.17.1-.35.18-.53.25s-.36.11-.55.13-.37.04-.57.04c-.36,0-.69-.06-.98-.17-.29-.11-.54-.28-.75-.5-.21-.22-.37-.48-.48-.78-.1-.3-.16-.62-.16-.98,0-.41.06-.76.19-1.07.12-.31.3-.56.52-.76.22-.2.48-.35.76-.45.29-.1.59-.14.9-.14.47,0,1.01.12,1.61.36v1.26c-.21-.15-.41-.27-.61-.36-.2-.1-.44-.14-.71-.14-.24,0-.47.05-.68.16-.21.11-.38.27-.51.47-.13.2-.19.44-.19.71,0,.24.06.46.17.66s.27.36.47.47c.2.12.42.18.68.18.2,0,.39-.03.57-.08s.33-.12.46-.19c.12-.07.25-.15.38-.24v1.2Z"
           style="fill: #171717;"
           id="path110" />
        <path
           d="m67.71,262.63h-1.29l-.34-.96h-1.81l-.35.96h-1.29l1.84-4.74h1.39l1.84,4.74Zm-1.92-1.78l-.61-1.73-.62,1.73h1.23Z"
           style="fill: #171717;"
           id="path111" />
        <path
           d="m71.19,262.63h-3.17v-4.74h1.26v3.6h1.91v1.13Z"
           style="fill: #171717;"
           id="path112" />
        <path
           d="m74.82,262.63h-3.14v-4.74h3.09v.95h-1.83v.87h1.75v.95h-1.75v1.01h1.89v.95Z"
           style="fill: #171717;"
           id="path113" />
      </g>
    </g>
    <g
       id="g134">
      <g
         id="g118">
        <path
           d="m101.69,66.86c0,.3-.07.55-.2.77-.13.22-.32.38-.56.5-.24.12-.51.17-.82.17-.09,0-.19,0-.32-.02-.12-.01-.29-.05-.5-.1-.21-.06-.42-.14-.65-.25v-1.16c.21.15.42.27.62.37.2.1.42.15.65.15.21,0,.35-.04.42-.12.06-.08.09-.16.09-.23,0-.13-.05-.24-.16-.32-.11-.09-.27-.18-.47-.27-.23-.11-.43-.23-.6-.36-.17-.13-.31-.29-.42-.48s-.16-.42-.16-.69.05-.49.17-.69c.11-.21.28-.37.5-.49s.5-.18.83-.18c.23,0,.45.03.65.08.2.05.36.11.49.17.13.06.22.11.26.15v1.11c-.17-.14-.36-.26-.57-.37s-.43-.16-.67-.16c-.16,0-.27.03-.34.1-.07.07-.11.15-.11.25,0,.09.04.17.11.24.07.07.2.15.38.25.32.17.58.32.77.46s.34.29.45.47c.11.18.16.4.16.67Z"
           style="fill: #171717;"
           id="path114" />
        <path
           d="m106.7,68.23h-1.25v-1.85h-1.89v1.85h-1.26v-4.74h1.26v1.74h1.89v-1.74h1.25v4.74Z"
           style="fill: #171717;"
           id="path115" />
        <path
           d="m108.76,68.23h-1.26v-4.74h1.26v4.74Z"
           style="fill: #171717;"
           id="path116" />
        <path
           d="m112.56,66.32h-1.73v1.92h-1.26v-4.74h2.99v.95h-1.73v.92h1.73v.95Z"
           style="fill: #171717;"
           id="path117" />
        <path
           d="m117.15,64.65h-1.53v3.59h-1.25v-3.59h-1.53v-1.15h4.31v1.15Z"
           style="fill: #171717;"
           id="path118" />
      </g>
      <g
         id="g123">
        <path
           d="m101.69,131.66c0,.3-.07.55-.2.77-.13.22-.32.38-.56.5-.24.12-.51.17-.82.17-.09,0-.19,0-.32-.02-.12-.01-.29-.05-.5-.1-.21-.06-.42-.14-.65-.25v-1.16c.21.15.42.27.62.37.2.1.42.15.65.15.21,0,.35-.04.42-.12.06-.08.09-.16.09-.23,0-.13-.05-.24-.16-.32-.11-.09-.27-.18-.47-.27-.23-.11-.43-.23-.6-.36-.17-.13-.31-.29-.42-.48s-.16-.42-.16-.69.05-.49.17-.69c.11-.21.28-.37.5-.49s.5-.18.83-.18c.23,0,.45.03.65.08.2.05.36.11.49.17.13.06.22.11.26.15v1.11c-.17-.14-.36-.26-.57-.37s-.43-.16-.67-.16c-.16,0-.27.03-.34.1-.07.07-.11.15-.11.25,0,.09.04.17.11.24.07.07.2.15.38.25.32.17.58.32.77.46s.34.29.45.47c.11.18.16.4.16.67Z"
           style="fill: #171717;"
           id="path119" />
        <path
           d="m106.7,133.03h-1.25v-1.85h-1.89v1.85h-1.26v-4.74h1.26v1.74h1.89v-1.74h1.25v4.74Z"
           style="fill: #171717;"
           id="path120" />
        <path
           d="m108.76,133.03h-1.26v-4.74h1.26v4.74Z"
           style="fill: #171717;"
           id="path121" />
        <path
           d="m112.56,131.12h-1.73v1.92h-1.26v-4.74h2.99v.95h-1.73v.92h1.73v.95Z"
           style="fill: #171717;"
           id="path122" />
        <path
           d="m117.15,129.45h-1.53v3.59h-1.25v-3.59h-1.53v-1.15h4.31v1.15Z"
           style="fill: #171717;"
           id="path123" />
      </g>
      <g
         id="g128">
        <path
           d="m101.69,196.46c0,.3-.07.55-.2.77-.13.22-.32.38-.56.5-.24.12-.51.17-.82.17-.09,0-.19,0-.32-.02-.12-.01-.29-.05-.5-.1-.21-.06-.42-.14-.65-.25v-1.16c.21.15.42.27.62.37.2.1.42.15.65.15.21,0,.35-.04.42-.12.06-.08.09-.16.09-.23,0-.13-.05-.24-.16-.32s-.27-.18-.47-.27c-.23-.11-.43-.23-.6-.36-.17-.13-.31-.29-.42-.48-.11-.19-.16-.42-.16-.69s.05-.49.17-.69c.11-.21.28-.37.5-.49s.5-.18.83-.18c.23,0,.45.03.65.08.2.05.36.11.49.17.13.06.22.11.26.15v1.11c-.17-.14-.36-.26-.57-.37s-.43-.16-.67-.16c-.16,0-.27.03-.34.1-.07.07-.11.15-.11.25,0,.09.04.17.11.24.07.07.2.15.38.25.32.17.58.33.77.46s.34.29.45.47c.11.18.16.4.16.67Z"
           style="fill: #171717;"
           id="path124" />
        <path
           d="m106.7,197.83h-1.25v-1.85h-1.89v1.85h-1.26v-4.74h1.26v1.74h1.89v-1.74h1.25v4.74Z"
           style="fill: #171717;"
           id="path125" />
        <path
           d="m108.76,197.83h-1.26v-4.74h1.26v4.74Z"
           style="fill: #171717;"
           id="path126" />
        <path
           d="m112.56,195.92h-1.73v1.92h-1.26v-4.74h2.99v.95h-1.73v.92h1.73v.95Z"
           style="fill: #171717;"
           id="path127" />
        <path
           d="m117.15,194.25h-1.53v3.58h-1.25v-3.58h-1.53v-1.15h4.31v1.15Z"
           style="fill: #171717;"
           id="path128" />
      </g>
      <g
         id="g133">
        <path
           d="m101.69,261.26c0,.3-.07.55-.2.77-.13.22-.32.38-.56.5-.24.12-.51.17-.82.17-.09,0-.19,0-.32-.02-.12-.01-.29-.05-.5-.1-.21-.06-.42-.14-.65-.25v-1.16c.21.15.42.27.62.37.2.1.42.15.65.15.21,0,.35-.04.42-.12.06-.08.09-.16.09-.23,0-.13-.05-.24-.16-.32s-.27-.18-.47-.27c-.23-.11-.43-.23-.6-.36-.17-.13-.31-.29-.42-.48-.11-.19-.16-.42-.16-.69s.05-.49.17-.69c.11-.21.28-.37.5-.49s.5-.18.83-.18c.23,0,.45.03.65.08.2.05.36.11.49.17.13.06.22.11.26.15v1.11c-.17-.14-.36-.26-.57-.37s-.43-.16-.67-.16c-.16,0-.27.03-.34.1-.07.07-.11.15-.11.25,0,.09.04.17.11.24.07.07.2.15.38.25.32.17.58.33.77.46s.34.29.45.47c.11.18.16.4.16.67Z"
           style="fill: #171717;"
           id="path129" />
        <path
           d="m106.7,262.63h-1.25v-1.85h-1.89v1.85h-1.26v-4.74h1.26v1.74h1.89v-1.74h1.25v4.74Z"
           style="fill: #171717;"
           id="path130" />
        <path
           d="m108.76,262.63h-1.26v-4.74h1.26v4.74Z"
           style="fill: #171717;"
           id="path131" />
        <path
           d="m112.56,260.72h-1.73v1.92h-1.26v-4.74h2.99v.95h-1.73v.92h1.73v.95Z"
           style="fill: #171717;"
           id="path132" />
        <path
           d="m117.15,259.05h-1.53v3.58h-1.25v-3.58h-1.53v-1.15h4.31v1.15Z"
           style="fill: #171717;"
           id="path133" />
      </g>
    </g>
    <path
       d="m109.55,27.13c0,.38-.05.72-.16,1.01-.11.29-.26.53-.45.71-.19.18-.41.32-.65.41s-.5.14-.78.14-.53-.05-.77-.14-.46-.23-.65-.42c-.19-.19-.34-.42-.45-.71-.11-.29-.16-.63-.16-1.01s.05-.73.16-1.02c.11-.29.26-.53.44-.71.19-.19.4-.33.65-.42s.5-.14.78-.14.53.04.78.13c.24.09.46.23.65.42s.34.43.45.72.16.63.16,1.01Zm-1.49,0c0-.39-.03-.72-.09-.97-.06-.25-.21-.38-.46-.38-.16,0-.29.07-.37.21-.08.14-.13.3-.15.49-.02.18-.03.4-.03.65,0,.42.03.75.09.98s.21.35.45.35.4-.12.46-.35c.06-.23.09-.56.09-.98Z"
       style="fill: #231f20;"
       id="path134" />
    <path
       d="m71.7,59.42c4.54-2.59,7.61-7.47,7.61-13.07,0-8.31-6.74-15.05-15.05-15.05s-15.05,6.74-15.05,15.05c0,5.6,3.07,10.48,7.61,13.07"
       style="fill: none; stroke: #171717; stroke-width: 1.61px;"
       id="path135" />
    <line
       x1="67.04"
       y1="30.37"
       x2="64.25"
       y2="46.16"
       style="fill: none; stroke: #ededed; stroke-width: 1.12px;"
       id="line135" />
    <line
       x1="61.47"
       y1="30.37"
       x2="64.25"
       y2="46.16"
       style="fill: none; stroke: #ededed; stroke-width: 1.12px;"
       id="line136" />
    <polyline
       points="56.24 32.28 64.25 46.16 72.27 60.05"
       style="fill: none; stroke: #ededed; stroke-width: 1.12px;"
       id="polyline136" />
    <polyline
       points="51.97 35.85 64.25 46.16 76.54 56.47"
       style="fill: none; stroke: #ededed; stroke-width: 1.12px;"
       id="polyline137" />
    <polyline
       points="49.19 40.68 64.25 46.16 79.32 51.65"
       style="fill: none; stroke: #ededed; stroke-width: 1.12px;"
       id="polyline138" />
    <polyline
       points="48.21 46.16 64.25 46.16 80.29 46.16"
       style="fill: none; stroke: #ededed; stroke-width: 1.12px;"
       id="polyline139" />
    <polyline
       points="49.18 51.65 64.25 46.16 79.32 40.68"
       style="fill: none; stroke: #ededed; stroke-width: 1.12px;"
       id="polyline140" />
    <polyline
       points="51.97 56.47 64.25 46.16 76.54 35.85"
       style="fill: none; stroke: #ededed; stroke-width: 1.12px;"
       id="polyline141" />
    <polyline
       points="56.23 60.05 64.25 46.16 72.27 32.28"
       style="fill: none; stroke: #ededed; stroke-width: 1.12px;"
       id="polyline142" />
    <path
       d="m66.35,27.13c0,.38-.05.72-.16,1.01-.11.29-.26.53-.45.71-.19.18-.41.32-.65.41s-.5.14-.78.14-.53-.05-.77-.14-.46-.23-.65-.42c-.19-.19-.34-.42-.45-.71-.11-.29-.16-.63-.16-1.01s.05-.73.16-1.02c.11-.29.26-.53.44-.71.19-.19.4-.33.65-.42s.5-.14.78-.14.53.04.78.13c.24.09.46.23.65.42s.34.43.45.72.16.63.16,1.01Zm-1.49,0c0-.39-.03-.72-.09-.97-.06-.25-.21-.38-.46-.38-.16,0-.29.07-.37.21-.08.14-.13.3-.15.49-.02.18-.03.4-.03.65,0,.42.03.75.09.98s.21.35.45.35.4-.12.46-.35c.06-.23.09-.56.09-.98Z"
       style="fill: #231f20;"
       id="path142" />
    <path
       d="m109.55,91.93c0,.38-.05.72-.16,1.01-.11.29-.26.53-.45.71-.19.18-.41.32-.65.41s-.5.14-.78.14-.53-.05-.77-.14-.46-.23-.65-.42c-.19-.19-.34-.42-.45-.71-.11-.29-.16-.63-.16-1.01s.05-.73.16-1.02c.11-.29.26-.53.44-.71.19-.19.4-.33.65-.42s.5-.14.78-.14.53.04.78.13c.24.09.46.23.65.42s.34.43.45.72.16.63.16,1.01Zm-1.49,0c0-.39-.03-.72-.09-.97-.06-.25-.21-.38-.46-.38-.16,0-.29.07-.37.21-.08.14-.13.3-.15.49-.02.18-.03.4-.03.65,0,.42.03.75.09.98s.21.35.45.35.4-.12.46-.35c.06-.23.09-.56.09-.98Z"
       style="fill: #231f20;"
       id="path143" />
    <path
       d="m66.35,91.93c0,.38-.05.72-.16,1.01-.11.29-.26.53-.45.71-.19.18-.41.32-.65.41s-.5.14-.78.14-.53-.05-.77-.14-.46-.23-.65-.42c-.19-.19-.34-.42-.45-.71-.11-.29-.16-.63-.16-1.01s.05-.73.16-1.02c.11-.29.26-.53.44-.71.19-.19.4-.33.65-.42s.5-.14.78-.14.53.04.78.13c.24.09.46.23.65.42s.34.43.45.72.16.63.16,1.01Zm-1.49,0c0-.39-.03-.72-.09-.97-.06-.25-.21-.38-.46-.38-.16,0-.29.07-.37.21-.08.14-.13.3-.15.49-.02.18-.03.4-.03.65,0,.42.03.75.09.98s.21.35.45.35.4-.12.46-.35c.06-.23.09-.56.09-.98Z"
       style="fill: #231f20;"
       id="path144" />
    <path
       d="m109.55,156.73c0,.38-.05.72-.16,1.01-.11.29-.26.53-.45.71-.19.18-.41.32-.65.41s-.5.14-.78.14-.53-.05-.77-.14-.46-.23-.65-.42c-.19-.19-.34-.42-.45-.71-.11-.29-.16-.63-.16-1.01s.05-.73.16-1.02c.11-.29.26-.53.44-.71.19-.19.4-.33.65-.42s.5-.14.78-.14.53.04.78.13c.24.09.46.23.65.42s.34.43.45.72.16.63.16,1.01Zm-1.49,0c0-.39-.03-.72-.09-.97-.06-.25-.21-.38-.46-.38-.16,0-.29.07-.37.21-.08.14-.13.3-.15.49-.02.18-.03.4-.03.65,0,.42.03.75.09.98s.21.35.45.35.4-.12.46-.35c.06-.23.09-.56.09-.98Z"
       style="fill: #171717;"
       id="path145" />
    <path
       d="m66.35,156.73c0,.38-.05.72-.16,1.01-.11.29-.26.53-.45.71-.19.18-.41.32-.65.41s-.5.14-.78.14-.53-.05-.77-.14-.46-.23-.65-.42c-.19-.19-.34-.42-.45-.71-.11-.29-.16-.63-.16-1.01s.05-.73.16-1.02c.11-.29.26-.53.44-.71.19-.19.4-.33.65-.42s.5-.14.78-.14.53.04.78.13c.24.09.46.23.65.42s.34.43.45.72.16.63.16,1.01Zm-1.49,0c0-.39-.03-.72-.09-.97-.06-.25-.21-.38-.46-.38-.16,0-.29.07-.37.21-.08.14-.13.3-.15.49-.02.18-.03.4-.03.65,0,.42.03.75.09.98s.21.35.45.35.4-.12.46-.35c.06-.23.09-.56.09-.98Z"
       style="fill: #171717;"
       id="path146" />
    <g
       id="g150">
      <path
         d="m95.95,60.74h-3.94v-1.07h3.94v1.07Z"
         style="fill: #171717;"
         id="path147" />
      <path
         d="m95.95,125.54h-3.94v-1.07h3.94v1.07Z"
         style="fill: #171717;"
         id="path148" />
      <path
         d="m95.95,190.34h-3.94v-1.07h3.94v1.07Z"
         style="fill: #171717;"
         id="path149" />
      <path
         d="m95.95,255.14h-3.94v-1.07h3.94v1.07Z"
         style="fill: #171717;"
         id="path150" />
    </g>
    <g
       id="g154">
      <path
         d="m123.76,59.96h-1.65v1.87h-.93v-1.87h-1.65v-1.06h1.65v-1.87h.93v1.87h1.65v1.06Z"
         style="fill: #171717;"
         id="path151" />
      <path
         d="m123.76,124.76h-1.65v1.87h-.93v-1.87h-1.65v-1.06h1.65v-1.87h.93v1.87h1.65v1.06Z"
         style="fill: #171717;"
         id="path152" />
      <path
         d="m123.76,189.56h-1.65v1.87h-.93v-1.87h-1.65v-1.06h1.65v-1.87h.93v1.87h1.65v1.06Z"
         style="fill: #171717;"
         id="path153" />
      <path
         d="m123.76,254.36h-1.65v1.87h-.93v-1.87h-1.65v-1.06h1.65v-1.87h.93v1.87h1.65v1.06Z"
         style="fill: #171717;"
         id="path154" />
    </g>
    <path
       d="m109.55,221.53c0,.38-.05.72-.16,1.01-.11.29-.26.53-.45.71-.19.19-.41.32-.65.41s-.5.14-.78.14-.53-.04-.77-.14-.46-.23-.65-.42c-.19-.19-.34-.42-.45-.71-.11-.29-.16-.63-.16-1.01s.05-.73.16-1.02c.11-.29.26-.53.44-.71.19-.19.4-.33.65-.42s.5-.14.78-.14.53.04.78.13c.24.09.46.23.65.42.19.19.34.43.45.72.11.29.16.63.16,1.01Zm-1.49,0c0-.39-.03-.71-.09-.97-.06-.25-.21-.38-.46-.38-.16,0-.29.07-.37.21-.08.14-.13.3-.15.49-.02.18-.03.4-.03.65,0,.42.03.75.09.98.06.23.21.35.45.35s.4-.12.46-.35c.06-.23.09-.56.09-.98Z"
       style="fill: #171717;"
       id="path155" />
    <g
       id="g159">
      <path
         d="m52.4,60.74h-3.94v-1.07h3.94v1.07Z"
         style="fill: #171717;"
         id="path156" />
      <path
         d="m52.4,125.54h-3.94v-1.07h3.94v1.07Z"
         style="fill: #171717;"
         id="path157" />
      <path
         d="m52.4,190.34h-3.94v-1.07h3.94v1.07Z"
         style="fill: #171717;"
         id="path158" />
      <path
         d="m52.4,255.14h-3.94v-1.07h3.94v1.07Z"
         style="fill: #171717;"
         id="path159" />
    </g>
    <g
       id="g163">
      <path
         d="m80.92,60.32h-1.65v1.87h-.93v-1.87h-1.65v-1.06h1.65v-1.87h.93v1.87h1.65v1.06Z"
         style="fill: #171717;"
         id="path160" />
      <path
         d="m80.92,125.12h-1.65v1.87h-.93v-1.87h-1.65v-1.06h1.65v-1.87h.93v1.87h1.65v1.06Z"
         style="fill: #171717;"
         id="path161" />
      <path
         d="m80.92,189.92h-1.65v1.87h-.93v-1.87h-1.65v-1.06h1.65v-1.87h.93v1.87h1.65v1.06Z"
         style="fill: #171717;"
         id="path162" />
      <path
         d="m80.92,254.72h-1.65v1.87h-.93v-1.87h-1.65v-1.06h1.65v-1.87h.93v1.87h1.65v1.06Z"
         style="fill: #171717;"
         id="path163" />
    </g>
    <path
       d="m66.35,221.53c0,.38-.05.72-.16,1.01-.11.29-.26.53-.45.71-.19.19-.41.32-.65.41s-.5.14-.78.14-.53-.04-.77-.14-.46-.23-.65-.42c-.19-.19-.34-.42-.45-.71-.11-.29-.16-.63-.16-1.01s.05-.73.16-1.02c.11-.29.26-.53.44-.71.19-.19.4-.33.65-.42s.5-.14.78-.14.53.04.78.13c.24.09.46.23.65.42.19.19.34.43.45.72.11.29.16.63.16,1.01Zm-1.49,0c0-.39-.03-.71-.09-.97-.06-.25-.21-.38-.46-.38-.16,0-.29.07-.37.21-.08.14-.13.3-.15.49-.02.18-.03.4-.03.65,0,.42.03.75.09.98.06.23.21.35.45.35s.4-.12.46-.35c.06-.23.09-.56.09-.98Z"
       style="fill: #171717;"
       id="path164" />
    <path
       d="m114.9,59.42c4.54-2.59,7.61-7.47,7.61-13.07,0-8.31-6.74-15.05-15.05-15.05s-15.05,6.74-15.05,15.05c0,5.6,3.07,10.48,7.61,13.07"
       style="fill: none; stroke: #171717; stroke-width: 1.61px;"
       id="path165" />
    <line
       x1="110.24"
       y1="30.37"
       x2="107.45"
       y2="46.16"
       style="fill: none; stroke: #ededed; stroke-width: 1.12px;"
       id="line165" />
    <line
       x1="104.67"
       y1="30.37"
       x2="107.45"
       y2="46.16"
       style="fill: none; stroke: #ededed; stroke-width: 1.12px;"
       id="line166" />
    <polyline
       points="99.44 32.28 107.45 46.16 115.47 60.05"
       style="fill: none; stroke: #ededed; stroke-width: 1.12px;"
       id="polyline166" />
    <polyline
       points="95.17 35.85 107.45 46.16 119.74 56.47"
       style="fill: none; stroke: #ededed; stroke-width: 1.12px;"
       id="polyline167" />
    <polyline
       points="92.39 40.68 107.45 46.16 122.52 51.65"
       style="fill: none; stroke: #ededed; stroke-width: 1.12px;"
       id="polyline168" />
    <polyline
       points="91.42 46.16 107.45 46.16 123.49 46.16"
       style="fill: none; stroke: #ededed; stroke-width: 1.12px;"
       id="polyline169" />
    <polyline
       points="92.38 51.65 107.45 46.16 122.52 40.68"
       style="fill: none; stroke: #ededed; stroke-width: 1.12px;"
       id="polyline170" />
    <polyline
       points="95.17 56.47 107.45 46.16 119.74 35.85"
       style="fill: none; stroke: #ededed; stroke-width: 1.12px;"
       id="polyline171" />
    <polyline
       points="99.43 60.05 107.45 46.16 115.47 32.28"
       style="fill: none; stroke: #ededed; stroke-width: 1.12px;"
       id="polyline172" />
    <path
       d="m71.7,124.22c4.54-2.59,7.61-7.47,7.61-13.07,0-8.31-6.74-15.05-15.05-15.05s-15.05,6.74-15.05,15.05c0,5.6,3.07,10.48,7.61,13.07"
       style="fill: none; stroke: #171717; stroke-width: 1.61px;"
       id="path172" />
    <line
       x1="67.04"
       y1="95.17"
       x2="64.25"
       y2="110.96"
       style="fill: none; stroke: #ededed; stroke-width: 1.12px;"
       id="line172" />
    <line
       x1="61.47"
       y1="95.17"
       x2="64.25"
       y2="110.96"
       style="fill: none; stroke: #ededed; stroke-width: 1.12px;"
       id="line173" />
    <polyline
       points="56.24 97.07 64.25 110.96 72.27 124.85"
       style="fill: none; stroke: #ededed; stroke-width: 1.12px;"
       id="polyline173" />
    <polyline
       points="51.97 100.65 64.25 110.96 76.54 121.27"
       style="fill: none; stroke: #ededed; stroke-width: 1.12px;"
       id="polyline174" />
    <polyline
       points="49.19 105.48 64.25 110.96 79.32 116.45"
       style="fill: none; stroke: #ededed; stroke-width: 1.12px;"
       id="polyline175" />
    <polyline
       points="48.21 110.96 64.25 110.96 80.29 110.96"
       style="fill: none; stroke: #ededed; stroke-width: 1.12px;"
       id="polyline176" />
    <polyline
       points="49.18 116.45 64.25 110.96 79.32 105.48"
       style="fill: none; stroke: #ededed; stroke-width: 1.12px;"
       id="polyline177" />
    <polyline
       points="51.97 121.27 64.25 110.96 76.54 100.65"
       style="fill: none; stroke: #ededed; stroke-width: 1.12px;"
       id="polyline178" />
    <polyline
       points="56.23 124.85 64.25 110.96 72.27 97.08"
       style="fill: none; stroke: #ededed; stroke-width: 1.12px;"
       id="polyline179" />
    <path
       d="m114.9,124.22c4.54-2.59,7.61-7.47,7.61-13.07,0-8.31-6.74-15.05-15.05-15.05s-15.05,6.74-15.05,15.05c0,5.6,3.07,10.48,7.61,13.07"
       style="fill: none; stroke: #171717; stroke-width: 1.61px;"
       id="path179" />
    <line
       x1="110.24"
       y1="95.17"
       x2="107.45"
       y2="110.96"
       style="fill: none; stroke: #ededed; stroke-width: 1.12px;"
       id="line179" />
    <line
       x1="104.67"
       y1="95.17"
       x2="107.45"
       y2="110.96"
       style="fill: none; stroke: #ededed; stroke-width: 1.12px;"
       id="line180" />
    <polyline
       points="99.44 97.07 107.45 110.96 115.47 124.85"
       style="fill: none; stroke: #ededed; stroke-width: 1.12px;"
       id="polyline180" />
    <polyline
       points="95.17 100.65 107.45 110.96 119.74 121.27"
       style="fill: none; stroke: #ededed; stroke-width: 1.12px;"
       id="polyline181" />
    <polyline
       points="92.39 105.48 107.45 110.96 122.52 116.45"
       style="fill: none; stroke: #ededed; stroke-width: 1.12px;"
       id="polyline182" />
    <polyline
       points="91.42 110.96 107.45 110.96 123.49 110.96"
       style="fill: none; stroke: #ededed; stroke-width: 1.12px;"
       id="polyline183" />
    <polyline
       points="92.38 116.45 107.45 110.96 122.52 105.48"
       style="fill: none; stroke: #ededed; stroke-width: 1.12px;"
       id="polyline184" />
    <polyline
       points="95.17 121.27 107.45 110.96 119.74 100.65"
       style="fill: none; stroke: #ededed; stroke-width: 1.12px;"
       id="polyline185" />
    <polyline
       points="99.43 124.85 107.45 110.96 115.47 97.08"
       style="fill: none; stroke: #ededed; stroke-width: 1.12px;"
       id="polyline186" />
    <path
       d="m71.7,189.02c4.54-2.59,7.61-7.47,7.61-13.07,0-8.31-6.74-15.05-15.05-15.05s-15.05,6.74-15.05,15.05c0,5.6,3.07,10.48,7.61,13.07"
       style="fill: none; stroke: #171717; stroke-width: 1.61px;"
       id="path186" />
    <line
       x1="67.04"
       y1="159.97"
       x2="64.25"
       y2="175.76"
       style="fill: none; stroke: #ededed; stroke-width: 1.12px;"
       id="line186" />
    <line
       x1="61.47"
       y1="159.97"
       x2="64.25"
       y2="175.76"
       style="fill: none; stroke: #ededed; stroke-width: 1.12px;"
       id="line187" />
    <polyline
       points="56.24 161.88 64.25 175.76 72.27 189.65"
       style="fill: none; stroke: #ededed; stroke-width: 1.12px;"
       id="polyline187" />
    <polyline
       points="51.97 165.45 64.25 175.76 76.54 186.07"
       style="fill: none; stroke: #ededed; stroke-width: 1.12px;"
       id="polyline188" />
    <polyline
       points="49.19 170.28 64.25 175.76 79.32 181.25"
       style="fill: none; stroke: #ededed; stroke-width: 1.12px;"
       id="polyline189" />
    <polyline
       points="48.21 175.76 64.25 175.76 80.29 175.76"
       style="fill: none; stroke: #ededed; stroke-width: 1.12px;"
       id="polyline190" />
    <polyline
       points="49.18 181.25 64.25 175.76 79.32 170.28"
       style="fill: none; stroke: #ededed; stroke-width: 1.12px;"
       id="polyline191" />
    <polyline
       points="51.97 186.07 64.25 175.76 76.54 165.45"
       style="fill: none; stroke: #ededed; stroke-width: 1.12px;"
       id="polyline192" />
    <polyline
       points="56.23 189.65 64.25 175.76 72.27 161.88"
       style="fill: none; stroke: #ededed; stroke-width: 1.12px;"
       id="polyline193" />
    <path
       d="m114.9,189.02c4.54-2.59,7.61-7.47,7.61-13.07,0-8.31-6.74-15.05-15.05-15.05s-15.05,6.74-15.05,15.05c0,5.6,3.07,10.48,7.61,13.07"
       style="fill: none; stroke: #171717; stroke-width: 1.61px;"
       id="path193" />
    <line
       x1="110.24"
       y1="159.97"
       x2="107.45"
       y2="175.76"
       style="fill: none; stroke: #ededed; stroke-width: 1.12px;"
       id="line193" />
    <line
       x1="104.67"
       y1="159.97"
       x2="107.45"
       y2="175.76"
       style="fill: none; stroke: #ededed; stroke-width: 1.12px;"
       id="line194" />
    <polyline
       points="99.44 161.88 107.45 175.76 115.47 189.65"
       style="fill: none; stroke: #ededed; stroke-width: 1.12px;"
       id="polyline194" />
    <polyline
       points="95.17 165.45 107.45 175.76 119.74 186.07"
       style="fill: none; stroke: #ededed; stroke-width: 1.12px;"
       id="polyline195" />
    <polyline
       points="92.39 170.28 107.45 175.76 122.52 181.25"
       style="fill: none; stroke: #ededed; stroke-width: 1.12px;"
       id="polyline196" />
    <polyline
       points="91.42 175.76 107.45 175.76 123.49 175.76"
       style="fill: none; stroke: #ededed; stroke-width: 1.12px;"
       id="polyline197" />
    <polyline
       points="92.38 181.25 107.45 175.76 122.52 170.28"
       style="fill: none; stroke: #ededed; stroke-width: 1.12px;"
       id="polyline198" />
    <polyline
       points="95.17 186.07 107.45 175.76 119.74 165.45"
       style="fill: none; stroke: #ededed; stroke-width: 1.12px;"
       id="polyline199" />
    <polyline
       points="99.43 189.65 107.45 175.76 115.47 161.88"
       style="fill: none; stroke: #ededed; stroke-width: 1.12px;"
       id="polyline200" />
    <path
       d="m71.7,253.82c4.54-2.59,7.61-7.47,7.61-13.07,0-8.31-6.74-15.05-15.05-15.05s-15.05,6.74-15.05,15.05c0,5.6,3.07,10.48,7.61,13.07"
       style="fill: none; stroke: #171717; stroke-width: 1.61px;"
       id="path200" />
    <line
       x1="67.04"
       y1="224.77"
       x2="64.25"
       y2="240.56"
       style="fill: none; stroke: #ededed; stroke-width: 1.12px;"
       id="line200" />
    <line
       x1="61.47"
       y1="224.77"
       x2="64.25"
       y2="240.56"
       style="fill: none; stroke: #ededed; stroke-width: 1.12px;"
       id="line201" />
    <polyline
       points="56.24 226.67 64.25 240.56 72.27 254.45"
       style="fill: none; stroke: #ededed; stroke-width: 1.12px;"
       id="polyline201" />
    <polyline
       points="51.97 230.25 64.25 240.56 76.54 250.87"
       style="fill: none; stroke: #ededed; stroke-width: 1.12px;"
       id="polyline202" />
    <polyline
       points="49.19 235.08 64.25 240.56 79.32 246.05"
       style="fill: none; stroke: #ededed; stroke-width: 1.12px;"
       id="polyline203" />
    <polyline
       points="48.21 240.56 64.25 240.56 80.29 240.56"
       style="fill: none; stroke: #ededed; stroke-width: 1.12px;"
       id="polyline204" />
    <polyline
       points="49.18 246.05 64.25 240.56 79.32 235.08"
       style="fill: none; stroke: #ededed; stroke-width: 1.12px;"
       id="polyline205" />
    <polyline
       points="51.97 250.87 64.25 240.56 76.54 230.25"
       style="fill: none; stroke: #ededed; stroke-width: 1.12px;"
       id="polyline206" />
    <polyline
       points="56.23 254.45 64.25 240.56 72.27 226.68"
       style="fill: none; stroke: #ededed; stroke-width: 1.12px;"
       id="polyline207" />
    <path
       d="m114.9,253.82c4.54-2.59,7.61-7.47,7.61-13.07,0-8.31-6.74-15.05-15.05-15.05s-15.05,6.74-15.05,15.05c0,5.6,3.07,10.48,7.61,13.07"
       style="fill: none; stroke: #171717; stroke-width: 1.61px;"
       id="path207" />
    <line
       x1="110.24"
       y1="224.77"
       x2="107.45"
       y2="240.56"
       style="fill: none; stroke: #ededed; stroke-width: 1.12px;"
       id="line207" />
    <line
       x1="104.67"
       y1="224.77"
       x2="107.45"
       y2="240.56"
       style="fill: none; stroke: #ededed; stroke-width: 1.12px;"
       id="line208" />
    <polyline
       points="99.44 226.67 107.45 240.56 115.47 254.45"
       style="fill: none; stroke: #ededed; stroke-width: 1.12px;"
       id="polyline208" />
    <polyline
       points="95.17 230.25 107.45 240.56 119.74 250.87"
       style="fill: none; stroke: #ededed; stroke-width: 1.12px;"
       id="polyline209" />
    <polyline
       points="92.39 235.08 107.45 240.56 122.52 246.05"
       style="fill: none; stroke: #ededed; stroke-width: 1.12px;"
       id="polyline210" />
    <polyline
       points="91.42 240.56 107.45 240.56 123.49 240.56"
       style="fill: none; stroke: #ededed; stroke-width: 1.12px;"
       id="polyline211" />
    <polyline
       points="92.38 246.05 107.45 240.56 122.52 235.08"
       style="fill: none; stroke: #ededed; stroke-width: 1.12px;"
       id="polyline212" />
    <polyline
       points="95.17 250.87 107.45 240.56 119.74 230.25"
       style="fill: none; stroke: #ededed; stroke-width: 1.12px;"
       id="polyline213" />
    <polyline
       points="99.43 254.45 107.45 240.56 115.47 226.68"
       style="fill: none; stroke: #ededed; stroke-width: 1.12px;"
       id="polyline214" />
  </g>
  <g
     id="components">
    <circle
       id="Mix"
       cx="150.7"
       cy="312.16"
       r="11.34"
       style="fill: blue;" />
    <circle
       id="Mix_SW_"
       data-name="Mix (SW)"
       cx="107.45"
       cy="312.16"
       r="11.34"
       style="fill: blue;" />
    <circle
       id="_-_Slice"
       data-name="- Slice"
       cx="64.25"
       cy="312.16"
       r="11.34"
       style="fill: blue;" />
    <circle
       id="_Slice"
       data-name="+ Slice"
       cx="21.1"
       cy="312.16"
       r="11.34"
       style="fill: blue;" />
    <circle
       id="LED_Mix"
       data-name="LED + Mix#BlueLight"
       cx="157"
       cy="289.03"
       r="4.25"
       style="fill: #f0f;" />
    <circle
       id="LED_-_Mix"
       data-name="LED - Mix#RedLight"
       cx="145.66"
       cy="289.03"
       r="4.25"
       style="fill: #f0f;" />
    <circle
       id="LED_Mix_SW_"
       data-name="LED + Mix (SW)#BlueLight"
       cx="113.66"
       cy="289.18"
       r="4.25"
       style="fill: #f0f;" />
    <circle
       id="LED_-_Mix_SW_"
       data-name="LED - Mix (SW)#RedLight"
       cx="102.32"
       cy="289.18"
       r="4.25"
       style="fill: #f0f;" />
    <circle
       id="LED_-_Slice"
       data-name="LED - Slice#RedLight"
       cx="64.26"
       cy="288.6"
       r="4.25"
       style="fill: #f0f;" />
    <circle
       id="LED_Slice"
       data-name="LED + Slice#BlueLight"
       cx="20.92"
       cy="289.03"
       r="4.25"
       style="fill: #f0f;" />
    <circle
       id="Out_4"
       data-name="Out 4"
       cx="150.52"
       cy="247.3"
       r="11.34"
       style="fill: blue;" />
    <circle
       id="LED_4"
       data-name="LED + 4#BlueLight"
       cx="156.63"
       cy="223.33"
       r="4.25"
       style="fill: #f0f;" />
    <circle
       id="LED_-_4"
       data-name="LED - 4#RedLight"
       cx="145.11"
       cy="223.33"
       r="4.25"
       style="fill: #f0f;" />
    <circle
       id="Shift_4"
       data-name="Shift 4"
       cx="107.45"
       cy="241.04"
       r="8.5"
       style="fill: #ff0040;" />
    <circle
       id="Scale_4"
       data-name="Scale 4"
       cx="64.25"
       cy="241.04"
       r="8.5"
       style="fill: #ff0080;" />
    <circle
       id="In_4"
       data-name="In 4"
       cx="21.77"
       cy="247.24"
       r="11.34"
       style="fill: lime;" />
    <circle
       id="Out_3"
       data-name="Out 3"
       cx="150.52"
       cy="182.5"
       r="11.34"
       style="fill: blue;" />
    <circle
       id="LED_3"
       data-name="LED + 3#BlueLight"
       cx="156.54"
       cy="158.45"
       r="4.25"
       style="fill: #f0f;" />
    <circle
       id="LED_-_3"
       data-name="LED - 3#RedLight"
       cx="145.02"
       cy="158.45"
       r="4.25"
       style="fill: #f0f;" />
    <circle
       id="Shift_3"
       data-name="Shift 3"
       cx="107.45"
       cy="176.24"
       r="8.5"
       style="fill: #ff0040;" />
    <circle
       id="Scale_3"
       data-name="Scale 3"
       cx="64.25"
       cy="176.24"
       r="8.5"
       style="fill: #ff0080;" />
    <circle
       id="In_3"
       data-name="In 3"
       cx="21.77"
       cy="182.44"
       r="11.34"
       style="fill: lime;" />
    <circle
       id="Out_2"
       data-name="Out 2"
       cx="150.52"
       cy="117.7"
       r="11.34"
       style="fill: blue;" />
    <circle
       id="LED_2"
       data-name="LED + 2#BlueLight"
       cx="156.5"
       cy="93.58"
       r="4.25"
       style="fill: #f0f;" />
    <circle
       id="LED_-_2"
       data-name="LED - 2#RedLight"
       cx="144.99"
       cy="93.58"
       r="4.25"
       style="fill: #f0f;" />
    <circle
       id="Shift_2"
       data-name="Shift 2"
       cx="107.45"
       cy="111.44"
       r="8.5"
       style="fill: #ff0040;" />
    <circle
       id="Scale_2"
       data-name="Scale 2"
       cx="64.25"
       cy="111.44"
       r="8.5"
       style="fill: #ff0080;" />
    <circle
       id="In_2"
       data-name="In 2"
       cx="21.77"
       cy="117.64"
       r="11.34"
       style="fill: lime;" />
    <circle
       id="Out_1"
       data-name="Out 1"
       cx="150.52"
       cy="52.9"
       r="11.34"
       style="fill: blue;" />
    <circle
       id="LED_1"
       data-name="LED + 1#BlueLight"
       cx="158.21"
       cy="29.5"
       r="4.25"
       style="fill: #f0f;" />
    <circle
       id="LED_-_1"
       data-name="LED - 1#RedLight"
       cx="146.69"
       cy="29.5"
       r="4.25"
       style="fill: #f0f;" />
    <circle
       id="Shift_1"
       data-name="Shift 1"
       cx="107.45"
       cy="46.64"
       r="8.5"
       style="fill: #ff0040;" />
    <circle
       id="Scale_1"
       data-name="Scale 1"
       cx="64.25"
       cy="46.64"
       r="8.5"
       style="fill: #ff0080;" />
    <circle
       id="In_1"
       data-name="In 1"
       cx="21.77"
       cy="52.84"
       r="11.34"
       style="fill: lime;" />
    <text
       id="slug"
       transform="translate(62.86 371.84)"
       style="font-family: MyriadPro-Regular, 'Myriad Pro'; font-size: 6px;"><tspan
         x="0"
         y="0"
         id="tspan214">SISM</tspan></text>
    <text
       id="modulename"
       transform="translate(87.89 371.84)"
       style="font-family: MyriadPro-Regular, 'Myriad Pro'; font-size: 6px;"><tspan
         x="0"
         y="0"
         id="tspan215">Shi</tspan><tspan
         x="7.69"
         y="0"
         style="letter-spacing: .01em;"
         id="tspan216">f</tspan><tspan
         x="9.51"
         y="0"
         id="tspan217">ting </tspan><tspan
         x="20.86"
         y="0"
         style="letter-spacing: .01em;"
         id="tspan218">I</tspan><tspan
         x="22.35"
         y="0"
         style="letter-spacing: -.01em;"
         id="tspan219">n</tspan><tspan
         x="25.6"
         y="0"
         style="letter-spacing: 0em;"
         id="tspan220">v</tspan><tspan
         x="28.43"
         y="0"
         id="tspan221">e</tspan><tspan
         x="31.43"
         y="0"
         style="letter-spacing: .02em;"
         id="tspan222">r</tspan><tspan
         x="33.54"
         y="0"
         id="tspan223">ting Si</tspan><tspan
         x="49.25"
         y="0"
         style="letter-spacing: 0em;"
         id="tspan224">g</tspan><tspan
         x="52.57"
         y="0"
         style="letter-spacing: 0em;"
         id="tspan225">nal </tspan><tspan
         x="61.47"
         y="0"
         style="letter-spacing: .01em;"
         id="tspan226">M</tspan><tspan
         x="66.37"
         y="0"
         style="letter-spacing: 0em;"
         id="tspan227">ingler</tspan></text>
  </g>
</svg>
