<?xml version="1.0" encoding="UTF-8"?>
<svg xmlns="http://www.w3.org/2000/svg" width="91.44mm" height="131.44mm" viewBox="0 0 259.2 372.58">
  <g id="faceplate">
    <g>
      <rect x=".12" y=".13" width="258.95" height="364" style="fill: #ededed; stroke-width: 0px;"/>
      <path d="M258.95.25v363.75H.25V.25h258.7M259.2,0H0v364.25h259.2V0h0Z" style="fill: #9d9d9e; stroke-width: 0px;"/>
    </g>
    <path d="M185.16,287.52h-64.63v48.62c0,3.12,2.55,5.67,5.67,5.67l53.25-.05h0s3.17,0,3.17,0l53.25.05c3.12,0,5.67-2.55,5.67-5.67v-48.62h-56.38Z" style="fill: #000; stroke-width: 0px;"/>
    <text transform="translate(20.36 86.5) scale(.88 1)" style="fill: #000; font-family: GillSans-Bold, &apos;Gill Sans&apos;; font-size: 10px; font-weight: 700; letter-spacing: -.04em;"><tspan x="0" y="0">Level 1</tspan></text>
    <g>
      <path d="M35.16,38.56c-.83,0-1.65.07-2.45.17l-.39-2.21c.93-.12,1.88-.19,2.84-.19s1.91.07,2.84.19l-.39,2.21c-.81-.1-1.62-.17-2.45-.17Z" style="fill: #000; stroke-width: 0px;"/>
      <path d="M20.67,44.93l-1.73-1.45c1.28-1.4,2.74-2.63,4.34-3.66l1.12,1.94c-1.38.9-2.62,1.96-3.73,3.16Z" style="fill: #000; stroke-width: 0px;"/>
      <path d="M26.14,40.76l-1.12-1.94c1.67-.87,3.46-1.53,5.34-1.95l.39,2.21c-1.62.37-3.16.94-4.61,1.69Z" style="fill: #000; stroke-width: 0px;"/>
      <path d="M16.93,50.69l-2.1-.76c.73-1.77,1.69-3.42,2.83-4.92l1.73,1.45c-.98,1.3-1.82,2.71-2.46,4.23Z" style="fill: #000; stroke-width: 0px;"/>
      <path d="M39.59,39.07l.39-2.21c1.88.42,3.67,1.08,5.34,1.95l-1.12,1.94c-1.44-.74-2.98-1.31-4.6-1.69Z" style="fill: #000; stroke-width: 0px;"/>
      <path d="M15.45,57.39h-2.26c.08-1.93.41-3.8.96-5.58l2.11.77c-.47,1.53-.73,3.15-.81,4.81Z" style="fill: #000; stroke-width: 0px;"/>
      <path d="M16.31,64.19l-2.1.76c-.57-1.79-.91-3.65-1.01-5.56h2.23c.09,1.65.39,3.25.88,4.8Z" style="fill: #000; stroke-width: 0px;"/>
      <path d="M19.45,70.27l-1.71,1.44c-1.15-1.5-2.11-3.14-2.84-4.88l2.1-.77c.64,1.5,1.46,2.91,2.45,4.2Z" style="fill: #000; stroke-width: 0px;"/>
      <path d="M50.94,46.46l1.73-1.45c1.14,1.5,2.1,3.15,2.83,4.92l-2.1.77c-.64-1.52-1.48-2.93-2.46-4.23Z" style="fill: #000; stroke-width: 0px;"/>
      <path d="M54.07,52.57l2.11-.77c.55,1.78.88,3.65.96,5.58h-2.26c-.08-1.66-.34-3.28-.81-4.81Z" style="fill: #000; stroke-width: 0px;"/>
      <path d="M54.89,59.39h2.23c-.09,1.91-.44,3.78-1.01,5.56l-2.1-.77c.48-1.54.79-3.15.88-4.8Z" style="fill: #000; stroke-width: 0px;"/>
      <path d="M53.33,66.07l2.11.77c-.73,1.74-1.69,3.38-2.84,4.88l-1.71-1.44c.99-1.3,1.81-2.71,2.45-4.2Z" style="fill: #000; stroke-width: 0px;"/>
      <path d="M24.47,74.91l-1.12,1.93c-1.61-1.03-3.05-2.24-4.32-3.62l1.71-1.44c1.1,1.18,2.34,2.23,3.72,3.12Z" style="fill: #000; stroke-width: 0px;"/>
      <path d="M49.58,71.79l1.71,1.44c-1.27,1.37-2.71,2.59-4.32,3.62l-1.12-1.93c1.38-.89,2.62-1.94,3.72-3.12Z" style="fill: #000; stroke-width: 0px;"/>
      <path d="M45.92,41.76l1.12-1.94c1.6,1.03,3.06,2.26,4.34,3.66l-1.73,1.45c-1.11-1.2-2.36-2.27-3.74-3.16Z" style="fill: #000; stroke-width: 0px;"/>
    </g>
    <text transform="translate(83.31 86.5) scale(.88 1)" style="fill: #000; font-family: GillSans-Bold, &apos;Gill Sans&apos;; font-size: 10px; font-weight: 700; letter-spacing: -.04em;"><tspan x="0" y="0">Level 2</tspan></text>
    <path d="M98.12,38.56c-.83,0-1.65.07-2.45.17l-.39-2.21c.93-.12,1.88-.19,2.84-.19s1.91.07,2.84.19l-.39,2.21c-.81-.1-1.62-.17-2.45-.17Z" style="fill: #000; stroke-width: 0px;"/>
    <path d="M83.63,44.93l-1.73-1.45c1.28-1.4,2.74-2.63,4.34-3.66l1.12,1.94c-1.38.9-2.62,1.96-3.73,3.16Z" style="fill: #000; stroke-width: 0px;"/>
    <path d="M89.09,40.76l-1.12-1.94c1.67-.87,3.46-1.53,5.34-1.95l.39,2.21c-1.62.37-3.16.94-4.61,1.69Z" style="fill: #000; stroke-width: 0px;"/>
    <path d="M79.89,50.69l-2.1-.76c.73-1.77,1.69-3.42,2.83-4.92l1.73,1.45c-.98,1.3-1.82,2.71-2.46,4.23Z" style="fill: #000; stroke-width: 0px;"/>
    <path d="M102.54,39.07l.39-2.21c1.88.42,3.67,1.08,5.34,1.95l-1.12,1.94c-1.44-.74-2.98-1.31-4.6-1.69Z" style="fill: #000; stroke-width: 0px;"/>
    <path d="M78.4,57.39h-2.26c.08-1.93.41-3.8.96-5.58l2.11.77c-.47,1.53-.73,3.15-.81,4.81Z" style="fill: #000; stroke-width: 0px;"/>
    <path d="M79.27,64.19l-2.1.76c-.57-1.79-.91-3.65-1.01-5.56h2.23c.09,1.65.39,3.25.88,4.8Z" style="fill: #000; stroke-width: 0px;"/>
    <path d="M82.41,70.27l-1.71,1.44c-1.15-1.5-2.11-3.14-2.84-4.88l2.1-.77c.64,1.5,1.46,2.91,2.45,4.2Z" style="fill: #000; stroke-width: 0px;"/>
    <path d="M113.89,46.46l1.73-1.45c1.14,1.5,2.1,3.15,2.83,4.92l-2.1.77c-.64-1.52-1.48-2.93-2.46-4.23Z" style="fill: #000; stroke-width: 0px;"/>
    <path d="M117.03,52.57l2.11-.77c.55,1.78.88,3.65.96,5.58h-2.26c-.08-1.66-.34-3.28-.81-4.81Z" style="fill: #000; stroke-width: 0px;"/>
    <path d="M117.85,59.39h2.23c-.09,1.91-.44,3.78-1.01,5.56l-2.1-.77c.48-1.54.79-3.15.88-4.8Z" style="fill: #000; stroke-width: 0px;"/>
    <path d="M116.29,66.07l2.11.77c-.73,1.74-1.69,3.38-2.84,4.88l-1.71-1.44c.99-1.3,1.81-2.71,2.45-4.2Z" style="fill: #000; stroke-width: 0px;"/>
    <path d="M87.43,74.91l-1.12,1.93c-1.61-1.03-3.05-2.24-4.32-3.62l1.71-1.44c1.1,1.18,2.34,2.23,3.72,3.12Z" style="fill: #000; stroke-width: 0px;"/>
    <path d="M112.54,71.79l1.71,1.44c-1.27,1.37-2.71,2.59-4.32,3.62l-1.12-1.93c1.38-.89,2.62-1.94,3.72-3.12Z" style="fill: #000; stroke-width: 0px;"/>
    <path d="M108.88,41.76l1.12-1.94c1.6,1.03,3.06,2.26,4.34,3.66l-1.73,1.45c-1.11-1.2-2.36-2.27-3.74-3.16Z" style="fill: #000; stroke-width: 0px;"/>
    <text transform="translate(209.23 86.5) scale(.88 1)" style="fill: #000; font-family: GillSans-Bold, &apos;Gill Sans&apos;; font-size: 10px; font-weight: 700; letter-spacing: -.04em;"><tspan x="0" y="0">Level 4</tspan></text>
    <path d="M224.04,38.56c-.83,0-1.65.07-2.45.17l-.39-2.21c.93-.12,1.88-.19,2.84-.19s1.91.07,2.84.19l-.39,2.21c-.81-.1-1.62-.17-2.45-.17Z" style="fill: #000; stroke-width: 0px;"/>
    <path d="M209.54,44.93l-1.73-1.45c1.28-1.4,2.74-2.63,4.34-3.66l1.12,1.94c-1.38.9-2.62,1.96-3.73,3.16Z" style="fill: #000; stroke-width: 0px;"/>
    <path d="M215.01,40.76l-1.12-1.94c1.67-.87,3.46-1.53,5.34-1.95l.39,2.21c-1.62.37-3.16.94-4.61,1.69Z" style="fill: #000; stroke-width: 0px;"/>
    <path d="M205.81,50.69l-2.1-.76c.73-1.77,1.69-3.42,2.83-4.92l1.73,1.45c-.98,1.3-1.82,2.71-2.46,4.23Z" style="fill: #000; stroke-width: 0px;"/>
    <path d="M228.46,39.07l.39-2.21c1.88.42,3.67,1.08,5.34,1.95l-1.12,1.94c-1.44-.74-2.98-1.31-4.6-1.69Z" style="fill: #000; stroke-width: 0px;"/>
    <path d="M204.32,57.39h-2.26c.08-1.93.41-3.8.96-5.58l2.11.77c-.47,1.53-.73,3.15-.81,4.81Z" style="fill: #000; stroke-width: 0px;"/>
    <path d="M205.18,64.19l-2.1.76c-.57-1.79-.91-3.65-1.01-5.56h2.23c.09,1.65.39,3.25.88,4.8Z" style="fill: #000; stroke-width: 0px;"/>
    <path d="M208.32,70.27l-1.71,1.44c-1.15-1.5-2.11-3.14-2.84-4.88l2.1-.77c.64,1.5,1.46,2.91,2.45,4.2Z" style="fill: #000; stroke-width: 0px;"/>
    <path d="M239.81,46.46l1.73-1.45c1.14,1.5,2.1,3.15,2.83,4.92l-2.1.77c-.64-1.52-1.48-2.93-2.46-4.23Z" style="fill: #000; stroke-width: 0px;"/>
    <path d="M242.94,52.57l2.11-.77c.55,1.78.88,3.65.96,5.58h-2.26c-.08-1.66-.34-3.28-.81-4.81Z" style="fill: #000; stroke-width: 0px;"/>
    <path d="M243.76,59.39h2.23c-.09,1.91-.44,3.78-1.01,5.56l-2.1-.77c.48-1.54.79-3.15.88-4.8Z" style="fill: #000; stroke-width: 0px;"/>
    <path d="M242.2,66.07l2.11.77c-.73,1.74-1.69,3.38-2.84,4.88l-1.71-1.44c.99-1.3,1.81-2.71,2.45-4.2Z" style="fill: #000; stroke-width: 0px;"/>
    <path d="M213.34,74.91l-1.12,1.93c-1.61-1.03-3.05-2.24-4.32-3.62l1.71-1.44c1.1,1.18,2.34,2.23,3.72,3.12Z" style="fill: #000; stroke-width: 0px;"/>
    <path d="M238.46,71.79l1.71,1.44c-1.27,1.37-2.71,2.59-4.32,3.62l-1.12-1.93c1.38-.89,2.62-1.94,3.72-3.12Z" style="fill: #000; stroke-width: 0px;"/>
    <path d="M234.79,41.76l1.12-1.94c1.6,1.03,3.06,2.26,4.34,3.66l-1.73,1.45c-1.11-1.2-2.36-2.27-3.74-3.16Z" style="fill: #000; stroke-width: 0px;"/>
    <text transform="translate(146.27 86.5) scale(.88 1)" style="fill: #000; font-family: GillSans-Bold, &apos;Gill Sans&apos;; font-size: 10px; font-weight: 700; letter-spacing: -.04em;"><tspan x="0" y="0">Level 3</tspan></text>
    <path d="M161.08,38.56c-.83,0-1.65.07-2.45.17l-.39-2.21c.93-.12,1.88-.19,2.84-.19s1.91.07,2.84.19l-.39,2.21c-.81-.1-1.62-.17-2.45-.17Z" style="fill: #000; stroke-width: 0px;"/>
    <path d="M146.59,44.93l-1.73-1.45c1.28-1.4,2.74-2.63,4.34-3.66l1.12,1.94c-1.38.9-2.62,1.96-3.73,3.16Z" style="fill: #000; stroke-width: 0px;"/>
    <path d="M152.05,40.76l-1.12-1.94c1.67-.87,3.46-1.53,5.34-1.95l.39,2.21c-1.62.37-3.16.94-4.61,1.69Z" style="fill: #000; stroke-width: 0px;"/>
    <path d="M142.85,50.69l-2.1-.76c.73-1.77,1.69-3.42,2.83-4.92l1.73,1.45c-.98,1.3-1.82,2.71-2.46,4.23Z" style="fill: #000; stroke-width: 0px;"/>
    <path d="M165.5,39.07l.39-2.21c1.88.42,3.67,1.08,5.34,1.95l-1.12,1.94c-1.44-.74-2.98-1.31-4.6-1.69Z" style="fill: #000; stroke-width: 0px;"/>
    <path d="M141.36,57.39h-2.26c.08-1.93.41-3.8.96-5.58l2.11.77c-.47,1.53-.73,3.15-.81,4.81Z" style="fill: #000; stroke-width: 0px;"/>
    <path d="M142.23,64.19l-2.1.76c-.57-1.79-.91-3.65-1.01-5.56h2.23c.09,1.65.39,3.25.88,4.8Z" style="fill: #000; stroke-width: 0px;"/>
    <path d="M145.37,70.27l-1.71,1.44c-1.15-1.5-2.11-3.14-2.84-4.88l2.1-.77c.64,1.5,1.46,2.91,2.45,4.2Z" style="fill: #000; stroke-width: 0px;"/>
    <path d="M176.85,46.46l1.73-1.45c1.14,1.5,2.1,3.15,2.83,4.92l-2.1.77c-.64-1.52-1.48-2.93-2.46-4.23Z" style="fill: #000; stroke-width: 0px;"/>
    <path d="M179.98,52.57l2.11-.77c.55,1.78.88,3.65.96,5.58h-2.26c-.08-1.66-.34-3.28-.81-4.81Z" style="fill: #000; stroke-width: 0px;"/>
    <path d="M180.81,59.39h2.23c-.09,1.91-.44,3.78-1.01,5.56l-2.1-.77c.48-1.54.79-3.15.88-4.8Z" style="fill: #000; stroke-width: 0px;"/>
    <path d="M179.24,66.07l2.11.77c-.73,1.74-1.69,3.38-2.84,4.88l-1.71-1.44c.99-1.3,1.81-2.71,2.45-4.2Z" style="fill: #000; stroke-width: 0px;"/>
    <path d="M150.39,74.91l-1.12,1.93c-1.61-1.03-3.05-2.24-4.32-3.62l1.71-1.44c1.1,1.18,2.34,2.23,3.72,3.12Z" style="fill: #000; stroke-width: 0px;"/>
    <path d="M175.5,71.79l1.71,1.44c-1.27,1.37-2.71,2.59-4.32,3.62l-1.12-1.93c1.38-.89,2.62-1.94,3.72-3.12Z" style="fill: #000; stroke-width: 0px;"/>
    <path d="M171.83,41.76l1.12-1.94c1.6,1.03,3.06,2.26,4.34,3.66l-1.73,1.45c-1.11-1.2-2.36-2.27-3.74-3.16Z" style="fill: #000; stroke-width: 0px;"/>
    <text transform="translate(23.56 178.65) scale(.88 1)" style="fill: #000; font-family: GillSans-Bold, &apos;Gill Sans&apos;; font-size: 10px; font-weight: 700; letter-spacing: -.04em;"><tspan x="0" y="0">Pan 1</tspan></text>
    <path d="M35.16,130.71c-.83,0-1.65.07-2.45.17l-.39-2.21c.93-.12,1.88-.19,2.84-.19s1.91.07,2.84.19l-.39,2.21c-.81-.1-1.62-.17-2.45-.17Z" style="fill: #000; stroke-width: 0px;"/>
    <path d="M20.67,137.08l-1.73-1.45c1.28-1.4,2.74-2.63,4.34-3.66l1.12,1.94c-1.38.9-2.62,1.96-3.73,3.16Z" style="fill: #000; stroke-width: 0px;"/>
    <path d="M26.14,132.91l-1.12-1.94c1.67-.87,3.46-1.53,5.34-1.95l.39,2.21c-1.62.37-3.16.94-4.61,1.69Z" style="fill: #000; stroke-width: 0px;"/>
    <path d="M16.93,142.85l-2.1-.76c.73-1.77,1.69-3.42,2.83-4.92l1.73,1.45c-.98,1.3-1.82,2.71-2.46,4.23Z" style="fill: #000; stroke-width: 0px;"/>
    <path d="M39.59,131.23l.39-2.21c1.88.42,3.67,1.08,5.34,1.95l-1.12,1.94c-1.44-.74-2.98-1.31-4.6-1.69Z" style="fill: #000; stroke-width: 0px;"/>
    <path d="M15.45,149.54h-2.26c.08-1.93.41-3.8.96-5.58l2.11.77c-.47,1.53-.73,3.15-.81,4.81Z" style="fill: #000; stroke-width: 0px;"/>
    <path d="M16.31,156.34l-2.1.76c-.57-1.79-.91-3.65-1.01-5.56h2.23c.09,1.65.39,3.25.88,4.8Z" style="fill: #000; stroke-width: 0px;"/>
    <path d="M19.45,162.42l-1.71,1.44c-1.15-1.5-2.11-3.14-2.84-4.88l2.1-.77c.64,1.5,1.46,2.91,2.45,4.2Z" style="fill: #000; stroke-width: 0px;"/>
    <path d="M50.94,138.62l1.73-1.45c1.14,1.5,2.1,3.15,2.83,4.92l-2.1.77c-.64-1.52-1.48-2.93-2.46-4.23Z" style="fill: #000; stroke-width: 0px;"/>
    <path d="M54.07,144.73l2.11-.77c.55,1.78.88,3.65.96,5.58h-2.26c-.08-1.66-.34-3.28-.81-4.81Z" style="fill: #000; stroke-width: 0px;"/>
    <path d="M54.89,151.54h2.23c-.09,1.91-.44,3.78-1.01,5.56l-2.1-.77c.48-1.54.79-3.15.88-4.8Z" style="fill: #000; stroke-width: 0px;"/>
    <path d="M53.33,158.22l2.11.77c-.73,1.74-1.69,3.38-2.84,4.88l-1.71-1.44c.99-1.3,1.81-2.71,2.45-4.2Z" style="fill: #000; stroke-width: 0px;"/>
    <path d="M24.47,167.07l-1.12,1.93c-1.61-1.03-3.05-2.24-4.32-3.62l1.71-1.44c1.1,1.18,2.34,2.23,3.72,3.12Z" style="fill: #000; stroke-width: 0px;"/>
    <path d="M49.58,163.95l1.71,1.44c-1.27,1.37-2.71,2.59-4.32,3.62l-1.12-1.93c1.38-.89,2.62-1.94,3.72-3.12Z" style="fill: #000; stroke-width: 0px;"/>
    <path d="M45.92,133.91l1.12-1.94c1.6,1.03,3.06,2.26,4.34,3.66l-1.73,1.45c-1.11-1.2-2.36-2.27-3.74-3.16Z" style="fill: #000; stroke-width: 0px;"/>
    <text transform="translate(86.52 178.65) scale(.88 1)" style="fill: #000; font-family: GillSans-Bold, &apos;Gill Sans&apos;; font-size: 10px; font-weight: 700; letter-spacing: -.04em;"><tspan x="0" y="0">Pan 2</tspan></text>
    <path d="M98.12,130.71c-.83,0-1.65.07-2.45.17l-.39-2.21c.93-.12,1.88-.19,2.84-.19s1.91.07,2.84.19l-.39,2.21c-.81-.1-1.62-.17-2.45-.17Z" style="fill: #000; stroke-width: 0px;"/>
    <path d="M83.63,137.08l-1.73-1.45c1.28-1.4,2.74-2.63,4.34-3.66l1.12,1.94c-1.38.9-2.62,1.96-3.73,3.16Z" style="fill: #000; stroke-width: 0px;"/>
    <path d="M89.09,132.91l-1.12-1.94c1.67-.87,3.46-1.53,5.34-1.95l.39,2.21c-1.62.37-3.16.94-4.61,1.69Z" style="fill: #000; stroke-width: 0px;"/>
    <path d="M79.89,142.85l-2.1-.76c.73-1.77,1.69-3.42,2.83-4.92l1.73,1.45c-.98,1.3-1.82,2.71-2.46,4.23Z" style="fill: #000; stroke-width: 0px;"/>
    <path d="M102.54,131.23l.39-2.21c1.88.42,3.67,1.08,5.34,1.95l-1.12,1.94c-1.44-.74-2.98-1.31-4.6-1.69Z" style="fill: #000; stroke-width: 0px;"/>
    <path d="M78.4,149.54h-2.26c.08-1.93.41-3.8.96-5.58l2.11.77c-.47,1.53-.73,3.15-.81,4.81Z" style="fill: #000; stroke-width: 0px;"/>
    <path d="M79.27,156.34l-2.1.76c-.57-1.79-.91-3.65-1.01-5.56h2.23c.09,1.65.39,3.25.88,4.8Z" style="fill: #000; stroke-width: 0px;"/>
    <path d="M82.41,162.42l-1.71,1.44c-1.15-1.5-2.11-3.14-2.84-4.88l2.1-.77c.64,1.5,1.46,2.91,2.45,4.2Z" style="fill: #000; stroke-width: 0px;"/>
    <path d="M113.89,138.62l1.73-1.45c1.14,1.5,2.1,3.15,2.83,4.92l-2.1.77c-.64-1.52-1.48-2.93-2.46-4.23Z" style="fill: #000; stroke-width: 0px;"/>
    <path d="M117.03,144.73l2.11-.77c.55,1.78.88,3.65.96,5.58h-2.26c-.08-1.66-.34-3.28-.81-4.81Z" style="fill: #000; stroke-width: 0px;"/>
    <path d="M117.85,151.54h2.23c-.09,1.91-.44,3.78-1.01,5.56l-2.1-.77c.48-1.54.79-3.15.88-4.8Z" style="fill: #000; stroke-width: 0px;"/>
    <path d="M116.29,158.22l2.11.77c-.73,1.74-1.69,3.38-2.84,4.88l-1.71-1.44c.99-1.3,1.81-2.71,2.45-4.2Z" style="fill: #000; stroke-width: 0px;"/>
    <path d="M87.43,167.07l-1.12,1.93c-1.61-1.03-3.05-2.24-4.32-3.62l1.71-1.44c1.1,1.18,2.34,2.23,3.72,3.12Z" style="fill: #000; stroke-width: 0px;"/>
    <path d="M112.54,163.95l1.71,1.44c-1.27,1.37-2.71,2.59-4.32,3.62l-1.12-1.93c1.38-.89,2.62-1.94,3.72-3.12Z" style="fill: #000; stroke-width: 0px;"/>
    <path d="M108.88,133.92l1.12-1.94c1.6,1.03,3.06,2.26,4.34,3.66l-1.73,1.45c-1.11-1.2-2.36-2.27-3.74-3.16Z" style="fill: #000; stroke-width: 0px;"/>
    <text transform="translate(212.43 178.65) scale(.88 1)" style="fill: #000; font-family: GillSans-Bold, &apos;Gill Sans&apos;; font-size: 10px; font-weight: 700; letter-spacing: -.04em;"><tspan x="0" y="0">Pan 4</tspan></text>
    <path d="M224.04,130.71c-.83,0-1.65.07-2.45.17l-.39-2.21c.93-.12,1.88-.19,2.84-.19s1.91.07,2.84.19l-.39,2.21c-.81-.1-1.62-.17-2.45-.17Z" style="fill: #000; stroke-width: 0px;"/>
    <path d="M209.54,137.08l-1.73-1.45c1.28-1.4,2.74-2.63,4.34-3.66l1.12,1.94c-1.38.9-2.62,1.96-3.73,3.16Z" style="fill: #000; stroke-width: 0px;"/>
    <path d="M215.01,132.91l-1.12-1.94c1.67-.87,3.46-1.53,5.34-1.95l.39,2.21c-1.62.37-3.16.94-4.61,1.69Z" style="fill: #000; stroke-width: 0px;"/>
    <path d="M205.81,142.85l-2.1-.76c.73-1.77,1.69-3.42,2.83-4.92l1.73,1.45c-.98,1.3-1.82,2.71-2.46,4.23Z" style="fill: #000; stroke-width: 0px;"/>
    <path d="M228.46,131.23l.39-2.21c1.88.42,3.67,1.08,5.34,1.95l-1.12,1.94c-1.44-.74-2.98-1.31-4.6-1.69Z" style="fill: #000; stroke-width: 0px;"/>
    <path d="M204.32,149.54h-2.26c.08-1.93.41-3.8.96-5.58l2.11.77c-.47,1.53-.73,3.15-.81,4.81Z" style="fill: #000; stroke-width: 0px;"/>
    <path d="M205.18,156.34l-2.1.76c-.57-1.79-.91-3.65-1.01-5.56h2.23c.09,1.65.39,3.25.88,4.8Z" style="fill: #000; stroke-width: 0px;"/>
    <path d="M208.32,162.42l-1.71,1.44c-1.15-1.5-2.11-3.14-2.84-4.88l2.1-.77c.64,1.5,1.46,2.91,2.45,4.2Z" style="fill: #000; stroke-width: 0px;"/>
    <path d="M239.81,138.62l1.73-1.45c1.14,1.5,2.1,3.15,2.83,4.92l-2.1.77c-.64-1.52-1.48-2.93-2.46-4.23Z" style="fill: #000; stroke-width: 0px;"/>
    <path d="M242.94,144.73l2.11-.77c.55,1.78.88,3.65.96,5.58h-2.26c-.08-1.66-.34-3.28-.81-4.81Z" style="fill: #000; stroke-width: 0px;"/>
    <path d="M243.76,151.54h2.23c-.09,1.91-.44,3.78-1.01,5.56l-2.1-.77c.48-1.54.79-3.15.88-4.8Z" style="fill: #000; stroke-width: 0px;"/>
    <path d="M242.2,158.22l2.11.77c-.73,1.74-1.69,3.38-2.84,4.88l-1.71-1.44c.99-1.3,1.81-2.71,2.45-4.2Z" style="fill: #000; stroke-width: 0px;"/>
    <path d="M213.34,167.07l-1.12,1.93c-1.61-1.03-3.05-2.24-4.32-3.62l1.71-1.44c1.1,1.18,2.34,2.23,3.72,3.12Z" style="fill: #000; stroke-width: 0px;"/>
    <path d="M238.46,163.95l1.71,1.44c-1.27,1.37-2.71,2.59-4.32,3.62l-1.12-1.93c1.38-.89,2.62-1.94,3.72-3.12Z" style="fill: #000; stroke-width: 0px;"/>
    <path d="M234.79,133.92l1.12-1.94c1.6,1.03,3.06,2.26,4.34,3.66l-1.73,1.45c-1.11-1.2-2.36-2.27-3.74-3.16Z" style="fill: #000; stroke-width: 0px;"/>
    <text transform="translate(149.47 178.65) scale(.88 1)" style="fill: #000; font-family: GillSans-Bold, &apos;Gill Sans&apos;; font-size: 10px; font-weight: 700; letter-spacing: -.04em;"><tspan x="0" y="0">Pan 3</tspan></text>
    <path d="M161.08,130.71c-.83,0-1.65.07-2.45.17l-.39-2.21c.93-.12,1.88-.19,2.84-.19s1.91.07,2.84.19l-.39,2.21c-.81-.1-1.62-.17-2.45-.17Z" style="fill: #000; stroke-width: 0px;"/>
    <path d="M146.59,137.08l-1.73-1.45c1.28-1.4,2.74-2.63,4.34-3.66l1.12,1.94c-1.38.9-2.62,1.96-3.73,3.16Z" style="fill: #000; stroke-width: 0px;"/>
    <path d="M152.05,132.91l-1.12-1.94c1.67-.87,3.46-1.53,5.34-1.95l.39,2.21c-1.62.37-3.16.94-4.61,1.69Z" style="fill: #000; stroke-width: 0px;"/>
    <path d="M142.85,142.85l-2.1-.76c.73-1.77,1.69-3.42,2.83-4.92l1.73,1.45c-.98,1.3-1.82,2.71-2.46,4.23Z" style="fill: #000; stroke-width: 0px;"/>
    <path d="M165.5,131.23l.39-2.21c1.88.42,3.67,1.08,5.34,1.95l-1.12,1.94c-1.44-.74-2.98-1.31-4.6-1.69Z" style="fill: #000; stroke-width: 0px;"/>
    <path d="M141.36,149.54h-2.26c.08-1.93.41-3.8.96-5.58l2.11.77c-.47,1.53-.73,3.15-.81,4.81Z" style="fill: #000; stroke-width: 0px;"/>
    <path d="M142.23,156.34l-2.1.76c-.57-1.79-.91-3.65-1.01-5.56h2.23c.09,1.65.39,3.25.88,4.8Z" style="fill: #000; stroke-width: 0px;"/>
    <path d="M145.37,162.42l-1.71,1.44c-1.15-1.5-2.11-3.14-2.84-4.88l2.1-.77c.64,1.5,1.46,2.91,2.45,4.2Z" style="fill: #000; stroke-width: 0px;"/>
    <path d="M176.85,138.62l1.73-1.45c1.14,1.5,2.1,3.15,2.83,4.92l-2.1.77c-.64-1.52-1.48-2.93-2.46-4.23Z" style="fill: #000; stroke-width: 0px;"/>
    <path d="M179.98,144.73l2.11-.77c.55,1.78.88,3.65.96,5.58h-2.26c-.08-1.66-.34-3.28-.81-4.81Z" style="fill: #000; stroke-width: 0px;"/>
    <path d="M180.81,151.54h2.23c-.09,1.91-.44,3.78-1.01,5.56l-2.1-.77c.48-1.54.79-3.15.88-4.8Z" style="fill: #000; stroke-width: 0px;"/>
    <path d="M179.24,158.22l2.11.77c-.73,1.74-1.69,3.38-2.84,4.88l-1.71-1.44c.99-1.3,1.81-2.71,2.45-4.2Z" style="fill: #000; stroke-width: 0px;"/>
    <path d="M150.39,167.07l-1.12,1.93c-1.61-1.03-3.05-2.24-4.32-3.62l1.71-1.44c1.1,1.18,2.34,2.23,3.72,3.12Z" style="fill: #000; stroke-width: 0px;"/>
    <path d="M175.5,163.95l1.71,1.44c-1.27,1.37-2.71,2.59-4.32,3.62l-1.12-1.93c1.38-.89,2.62-1.94,3.72-3.12Z" style="fill: #000; stroke-width: 0px;"/>
    <path d="M171.83,133.92l1.12-1.94c1.6,1.03,3.06,2.26,4.34,3.66l-1.73,1.45c-1.11-1.2-2.36-2.27-3.74-3.16Z" style="fill: #000; stroke-width: 0px;"/>
    <path d="M226.93,206.26H32.27c-7.8,0-14.17,6.38-14.17,14.17v76.54c0,3.12,2.55,5.67,5.67,5.67h211.67c3.12,0,5.67-2.55,5.67-5.67v-76.54c0-7.8-6.38-14.17-14.17-14.17Z" style="fill: #ededed; stroke: #000; stroke-miterlimit: 10;"/>
    <text transform="translate(25.63 247.71) scale(.88 1)" style="fill: #000; font-family: GillSans-Bold, &apos;Gill Sans&apos;; font-size: 8px; font-weight: 700; letter-spacing: -.04em;"><tspan x="0" y="0">In 1 L</tspan></text>
    <text transform="translate(88.67 247.71) scale(.88 1)" style="fill: #000; font-family: GillSans-Bold, &apos;Gill Sans&apos;; font-size: 8px; font-weight: 700; letter-spacing: -.04em;"><tspan x="0" y="0">In 2 L</tspan></text>
    <text transform="translate(151.7 247.71) scale(.88 1)" style="fill: #000; font-family: GillSans-Bold, &apos;Gill Sans&apos;; font-size: 8px; font-weight: 700; letter-spacing: -.04em;"><tspan x="0" y="0">In 3 L</tspan></text>
    <text transform="translate(214.73 247.71) scale(.88 1)" style="fill: #000; font-family: GillSans-Bold, &apos;Gill Sans&apos;; font-size: 8px; font-weight: 700; letter-spacing: -.04em;"><tspan x="0" y="0">In 4 L</tspan></text>
    <text transform="translate(25.13 296.75) scale(.88 1)" style="fill: #000; font-family: GillSans-Bold, &apos;Gill Sans&apos;; font-size: 8px; font-weight: 700; letter-spacing: -.04em;"><tspan x="0" y="0">In 1 R</tspan></text>
    <text transform="translate(88.17 296.75) scale(.88 1)" style="fill: #000; font-family: GillSans-Bold, &apos;Gill Sans&apos;; font-size: 8px; font-weight: 700; letter-spacing: -.04em;"><tspan x="0" y="0">In 2 R</tspan></text>
    <text transform="translate(151.2 296.75) scale(.88 1)" style="fill: #000; font-family: GillSans-Bold, &apos;Gill Sans&apos;; font-size: 8px; font-weight: 700; letter-spacing: -.04em;"><tspan x="0" y="0">In 3 R</tspan></text>
    <text transform="translate(214.24 296.75) scale(.88 1)" style="fill: #000; font-family: GillSans-Bold, &apos;Gill Sans&apos;; font-size: 8px; font-weight: 700; letter-spacing: -.04em;"><tspan x="0" y="0">In 4 R</tspan></text>
    <text transform="translate(159.85 326.05) scale(.88 1)" style="fill: #fff; font-family: GillSans-Bold, &apos;Gill Sans&apos;; font-size: 10px; font-weight: 700; letter-spacing: -.04em;"><tspan x="0" y="0">L</tspan></text>
    <text transform="translate(228.03 326.05) scale(.88 1)" style="fill: #fff; font-family: GillSans-Bold, &apos;Gill Sans&apos;; font-size: 10px; font-weight: 700; letter-spacing: -.04em;"><tspan x="0" y="0">R</tspan></text>
    <text transform="translate(95.34 357.25) scale(.82 1)" style="fill: #000; font-family: GillSans-Bold, &apos;Gill Sans&apos;; font-size: 11px; font-weight: 700;"><tspan x="0" y="0">STEREO MIXER</tspan></text>
    <line x1="35.16" y1="91" x2="35.16" y2="129.81" style="fill: none; stroke: #000; stroke-miterlimit: 10; stroke-width: 2px;"/>
    <line x1="98.12" y1="91" x2="98.12" y2="129.81" style="fill: none; stroke: #000; stroke-miterlimit: 10; stroke-width: 2px;"/>
    <line x1="161.08" y1="91" x2="161.08" y2="129.81" style="fill: none; stroke: #000; stroke-miterlimit: 10; stroke-width: 2px;"/>
    <line x1="224.04" y1="91" x2="224.04" y2="129.81" style="fill: none; stroke: #000; stroke-miterlimit: 10; stroke-width: 2px;"/>
    <g>
      <path d="M121.4,18.07c-.37,0-.71-.17-.97-.47-.51-.6-.52-1.54-.04-2.16l6.97-8.88c.38-.48,1.05-.65,1.57-.39.5.25.79.82.79,1.45v4.77l4.64-5.85c.38-.48,1.01-.64,1.53-.38.5.25.83.81.83,1.44v8.82c0,.86-.61,1.57-1.36,1.57s-1.36-.7-1.36-1.57v-4.79l-4.64,5.85c-.38.48-1.01.64-1.54.38-.5-.24-.83-.81-.83-1.44v-4.67l-4.61,5.8c-.26.32-.62.51-1,.51h0Z" style="fill: #2cabe1; stroke-width: 0px;"/>
      <path d="M121.4,18.07c-.75,0-1.35-.7-1.35-1.57v-4.93l-2.26,2.84c-.5.63-1.44.65-1.97.04-.51-.6-.52-1.53-.03-2.15l4.61-5.76c.26-.32.63-.5,1-.5.18,0,.37.04.54.12.5.25.82.81.82,1.44v8.89c0,.86-.61,1.57-1.36,1.57h0Z" style="fill: #ea2228; stroke-width: 0px;"/>
      <path d="M138,18.09h0c-.35,0-.68-.15-.94-.42-.76-.78-.14-1.84.29-2.3l1.95-2.36-1.26-.02c-.56-.01-1.04-.4-1.24-1-.19-.56-.07-1.21.29-1.64l3.16-3.83c.23-.28.55-.48,1.13-.47.33,0,.67.17.92.4.71.66.29,1.7-.07,2.2l-1.04,1.26,1.26.02c.56.01,1.04.4,1.24,1,.19.56.07,1.21-.29,1.64l-4.1,4.97c-.35.35-.65.55-1.3.54h0Z" style="fill: #00a650; stroke-width: 0px;"/>
    </g>
  </g>
  <g id="components">
    <circle id="R" cx="206.36" cy="322.18" r="11.34" style="fill: blue; stroke-width: 0px;"/>
    <circle id="L" cx="138.33" cy="322.18" r="11.34" style="fill: blue; stroke-width: 0px;"/>
    <circle id="In_4_R" data-name="In 4 R" cx="223.88" cy="271.8" r="11.34" style="fill: lime; stroke-width: 0px;"/>
    <circle id="In_4_L" data-name="In 4 L" cx="223.88" cy="222.7" r="11.34" style="fill: lime; stroke-width: 0px;"/>
    <circle id="In_3_R" data-name="In 3 R" cx="160.85" cy="271.8" r="11.34" style="fill: lime; stroke-width: 0px;"/>
    <circle id="In_3_L" data-name="In 3 L" cx="160.85" cy="222.7" r="11.34" style="fill: lime; stroke-width: 0px;"/>
    <circle id="In_2_R" data-name="In 2 R" cx="97.81" cy="271.8" r="11.34" style="fill: lime; stroke-width: 0px;"/>
    <circle id="In_2_L" data-name="In 2 L" cx="97.81" cy="222.7" r="11.34" style="fill: lime; stroke-width: 0px;"/>
    <circle id="In_1_R" data-name="In 1 R" cx="34.78" cy="271.8" r="11.34" style="fill: lime; stroke-width: 0px;"/>
    <circle id="In_1_L" data-name="In 1 L" cx="34.78" cy="222.7" r="11.34" style="fill: lime; stroke-width: 0px;"/>
    <circle id="Pan_4" data-name="Pan 4" cx="224.04" cy="150.17" r="17.01" style="fill: #ff0040; stroke-width: 0px;"/>
    <circle id="Pan_3" data-name="Pan 3" cx="160.97" cy="150.34" r="17.01" style="fill: #ff0040; stroke-width: 0px;"/>
    <circle id="Pan_2" data-name="Pan 2" cx="98.12" cy="150.17" r="17.01" style="fill: #ff0040; stroke-width: 0px;"/>
    <circle id="Pan_1" data-name="Pan 1" cx="35.16" cy="150.39" r="17.01" style="fill: #ff0040; stroke-width: 0px;"/>
    <circle id="Level_4" data-name="Level 4" cx="224.04" cy="58.02" r="17.01" style="fill: #ff0070; stroke-width: 0px;"/>
    <circle id="Level_3" data-name="Level 3" cx="161.08" cy="58.02" r="17.01" style="fill: #ff0070; stroke-width: 0px;"/>
    <circle id="Level_2" data-name="Level 2" cx="98.12" cy="58.02" r="17.01" style="fill: #ff0070; stroke-width: 0px;"/>
    <circle id="Level_1" data-name="Level 1" cx="35.16" cy="58.02" r="17.01" style="fill: #ff0070; stroke-width: 0px;"/>
    <text id="slug" transform="translate(226.27 371.83)" style="fill: #000; font-family: MyriadPro-Regular, &apos;Myriad Pro&apos;; font-size: 3px;"><tspan x="0" y="0" style="letter-spacing: 0em;">S</tspan><tspan x="1.47" y="0">t</tspan><tspan x="2.46" y="0" style="letter-spacing: .01em;">M</tspan><tspan x="4.91" y="0">ix</tspan></text>
    <text id="modulename" transform="translate(241.54 371.83)" style="fill: #000; font-family: MyriadPro-Regular, &apos;Myriad Pro&apos;; font-size: 3px;"><tspan x="0" y="0" style="letter-spacing: 0em;">S</tspan><tspan x="1.47" y="0" style="letter-spacing: 0em;">t</tspan><tspan x="2.45" y="0">e</tspan><tspan x="3.95" y="0" style="letter-spacing: -.01em;">r</tspan><tspan x="4.9" y="0">eo </tspan><tspan x="8.68" y="0" style="letter-spacing: .01em;">M</tspan><tspan x="11.13" y="0">i</tspan><tspan x="11.83" y="0" style="letter-spacing: -.01em;">x</tspan><tspan x="13.18" y="0">er</tspan></text>
  </g>
</svg>