<?xml version="1.0" encoding="UTF-8"?>
<svg xmlns="http://www.w3.org/2000/svg" width="40.64mm" height="130.55mm" viewBox="0 0 115.2 370.07">
  <g id="faceplate">
    <g>
      <rect x=".12" y=".13" width="114.95" height="364" style="fill: #ededed; stroke-width: 0px;"/>
      <path d="M114.95.25v363.75H.25V.25h114.7M115.2,0H0v364.25h115.2V0h0Z" style="fill: #9d9d9e; stroke-width: 0px;"/>
    </g>
    <path d="M100.09,226.25c-.29-8.38-6.12-9.49-13.28-9.49H28.46c-7.17,0-12.99,6.69-13.28,15.07l-.1,29.99v46.63l.03,7.18c-.02.18-.03.36-.03.54v19.84c0,3.12,2.55,5.67,5.67,5.67h73.7c3.12,0,5.67-2.55,5.67-5.67v-104.18l-.03-5.58Z" style="fill: #000; stroke-width: 0px;"/>
    <path d="M15.19,212.92l.03,7.16c-.02.18-.03.36-.03.54l.06,19.79c0,3.11,2.54,5.65,5.65,5.65h73.44c3.11,0,5.65-2.54,5.65-5.65v-74h-.03c-.29-8.35-6.1-15.03-13.25-15.03H28.54c-7.15,0-12.96,6.67-13.25,15.03l-.09,46.51Z" style="fill: #ededed; stroke-width: 0px;"/>
    <rect x="16.08" y="279.94" width="10.46" height="14.31" style="fill: #ededed; stroke-width: 0px;"/>
    <path d="M28.46,152.26h58.35c6.61,0,12.01,6.19,12.28,14.1l.03.43v73.73c0,2.57-2.09,4.67-4.67,4.67H20.81c-2.57,0-4.67-2.09-4.67-4.67l-.06-19.84c0-.15,0-.3.02-.45v-.05s0-.05,0-.05l-.03-7.17.09-46.6c.27-7.91,5.67-14.1,12.28-14.1M28.46,151.26c-7.17,0-12.99,6.69-13.28,15.07l-.1,46.63.03,7.18c-.02.18-.03.36-.03.54l.06,19.84c0,3.12,2.55,5.67,5.67,5.67h73.64c3.12,0,5.67-2.55,5.67-5.67v-74.19h-.03c-.29-8.38-6.12-15.07-13.28-15.07H28.46Z" style="fill: #000; stroke-width: 0px;"/>
    <rect x="16.08" y="209.22" width="54.38" height="85.04" rx="5.67" ry="5.67" style="fill: #ededed; stroke-width: 0px;"/>
    <path d="M99.67,308.55v-63.36h-23.49l-9.56-.1c-3.12,0-5.67,2.55-5.67,5.67v53.35l3.5,4.44h35.22Z" style="fill: #000; stroke-width: 0px;"/>
    <polygon points="77.53 269.64 48.73 300.51 77.53 300.51 77.53 269.64" style="fill: #000; stroke-width: 0px;"/>
    <path d="M42.2,209.22h13.09c3.12,0,5.67,2.55,5.67,5.67v73.7c0,3.12-2.55,5.67-5.67,5.67h-13.09v-85.04Z" style="fill: #ededed; stroke-width: 0px;"/>
    <path d="M40.61,87.53l1.13-1.95c-2.75-1.43-5.84-2.3-9.12-2.44v2.26c2.87.14,5.57.89,7.99,2.14Z" style="fill: #000; stroke-width: 0px;"/>
    <path d="M48.2,94.38l1.95-1.13c-1.72-2.68-4-4.96-6.68-6.68l-1.13,1.95c2.34,1.52,4.33,3.51,5.85,5.85Z" style="fill: #000; stroke-width: 0px;"/>
    <path d="M20.89,88.53l-1.13-1.95c-2.68,1.72-4.96,4-6.68,6.68l1.95,1.13c1.52-2.34,3.51-4.33,5.85-5.85Z" style="fill: #000; stroke-width: 0px;"/>
    <path d="M51.34,104.11h2.26c-.15-3.28-1.01-6.37-2.44-9.12l-1.95,1.13c1.24,2.42,1.99,5.13,2.14,8Z" style="fill: #000; stroke-width: 0px;"/>
    <path d="M30.62,85.39v-2.26c-3.28.15-6.37,1.01-9.12,2.44l1.13,1.95c2.42-1.24,5.13-1.99,8-2.14Z" style="fill: #000; stroke-width: 0px;"/>
    <path d="M15.04,115.83l-1.95,1.13c1.72,2.68,4,4.96,6.68,6.68l1.13-1.95c-2.34-1.52-4.33-3.51-5.85-5.85Z" style="fill: #000; stroke-width: 0px;"/>
    <path d="M42.35,121.69l1.13,1.95c2.68-1.72,4.96-4,6.68-6.68l-1.95-1.13c-1.52,2.34-3.51,4.33-5.85,5.85Z" style="fill: #000; stroke-width: 0px;"/>
    <path d="M51.34,106.11c-.14,2.87-.89,5.57-2.14,8l1.95,1.13c1.43-2.75,2.3-5.84,2.44-9.12h-2.26Z" style="fill: #000; stroke-width: 0px;"/>
    <path d="M11.9,106.11h-2.26c.15,3.28,1.01,6.37,2.44,9.12l1.95-1.13c-1.24-2.42-1.99-5.13-2.14-8Z" style="fill: #000; stroke-width: 0px;"/>
    <path d="M14.04,96.11l-1.95-1.13c-1.43,2.75-2.3,5.84-2.44,9.12h2.26c.14-2.87.89-5.57,2.14-8Z" style="fill: #000; stroke-width: 0px;"/>
    <path d="M92.15,87.53l1.13-1.95c-2.75-1.43-5.84-2.3-9.12-2.44v2.26c2.87.14,5.57.89,7.99,2.14Z" style="fill: #000; stroke-width: 0px;"/>
    <path d="M99.73,94.38l1.95-1.13c-1.72-2.68-4-4.96-6.68-6.68l-1.13,1.95c2.34,1.52,4.33,3.51,5.85,5.85Z" style="fill: #000; stroke-width: 0px;"/>
    <path d="M72.42,88.53l-1.13-1.95c-2.68,1.72-4.96,4-6.68,6.68l1.95,1.13c1.52-2.34,3.51-4.33,5.85-5.85Z" style="fill: #000; stroke-width: 0px;"/>
    <path d="M102.87,104.11h2.26c-.15-3.28-1.01-6.37-2.44-9.12l-1.95,1.13c1.24,2.42,1.99,5.13,2.14,8Z" style="fill: #000; stroke-width: 0px;"/>
    <path d="M82.15,85.39v-2.26c-3.28.15-6.37,1.01-9.12,2.44l1.13,1.95c2.42-1.24,5.13-1.99,8-2.14Z" style="fill: #000; stroke-width: 0px;"/>
    <path d="M66.57,115.83l-1.95,1.13c1.72,2.68,4,4.96,6.68,6.68l1.13-1.95c-2.34-1.52-4.33-3.51-5.85-5.85Z" style="fill: #000; stroke-width: 0px;"/>
    <path d="M93.88,121.69l1.13,1.95c2.68-1.72,4.96-4,6.68-6.68l-1.95-1.13c-1.52,2.34-3.51,4.33-5.85,5.85Z" style="fill: #000; stroke-width: 0px;"/>
    <path d="M102.87,106.11c-.14,2.87-.89,5.57-2.14,8l1.95,1.13c1.43-2.75,2.3-5.84,2.44-9.12h-2.26Z" style="fill: #000; stroke-width: 0px;"/>
    <path d="M63.44,106.11h-2.26c.15,3.28,1.01,6.37,2.44,9.12l1.95-1.13c-1.24-2.42-1.99-5.13-2.14-8Z" style="fill: #000; stroke-width: 0px;"/>
    <path d="M65.57,96.11l-1.95-1.13c-1.43,2.75-2.3,5.84-2.44,9.12h2.26c.14-2.87.89-5.57,2.14-8Z" style="fill: #000; stroke-width: 0px;"/>
    <path d="M102.87,46.97h2.26c-.15-3.28-1.01-6.37-2.44-9.12l-1.95,1.13c1.24,2.42,1.99,5.13,2.14,8Z" style="fill: #000; stroke-width: 0px;"/>
    <path d="M102.87,48.97c-.14,2.87-.89,5.57-2.14,8l1.95,1.13c1.43-2.75,2.3-5.84,2.44-9.12h-2.26Z" style="fill: #000; stroke-width: 0px;"/>
    <g>
      <path d="M40.72,30.39l1.13-1.95c-2.75-1.43-5.84-2.3-9.12-2.44v2.26c2.87.14,5.57.89,7.99,2.14Z" style="fill: #000; stroke-width: 0px;"/>
      <path d="M48.31,37.25l1.95-1.13c-1.72-2.68-4-4.96-6.68-6.68l-1.13,1.95c2.34,1.52,4.33,3.51,5.85,5.85Z" style="fill: #000; stroke-width: 0px;"/>
      <path d="M21,31.39l-1.13-1.95c-2.68,1.72-4.96,4-6.68,6.68l1.95,1.13c1.52-2.34,3.51-4.33,5.85-5.85Z" style="fill: #000; stroke-width: 0px;"/>
      <path d="M51.44,46.97h2.26c-.15-3.28-1.01-6.37-2.44-9.12l-1.95,1.13c1.24,2.42,1.99,5.13,2.14,8Z" style="fill: #000; stroke-width: 0px;"/>
      <path d="M30.73,28.26v-2.26c-3.28.15-6.37,1.01-9.12,2.44l1.13,1.95c2.42-1.24,5.13-1.99,8-2.14Z" style="fill: #000; stroke-width: 0px;"/>
      <path d="M15.15,58.7l-1.95,1.13c1.72,2.68,4,4.96,6.68,6.68l1.13-1.95c-2.34-1.52-4.33-3.51-5.85-5.85Z" style="fill: #000; stroke-width: 0px;"/>
      <path d="M42.45,64.55l1.13,1.95c2.68-1.72,4.96-4,6.68-6.68l-1.95-1.13c-1.52,2.34-3.51,4.33-5.85,5.85Z" style="fill: #000; stroke-width: 0px;"/>
      <path d="M51.44,48.97c-.14,2.87-.89,5.57-2.14,8l1.95,1.13c1.43-2.75,2.3-5.84,2.44-9.12h-2.26Z" style="fill: #000; stroke-width: 0px;"/>
      <path d="M12.01,48.97h-2.26c.15,3.28,1.01,6.37,2.44,9.12l1.95-1.13c-1.24-2.42-1.99-5.13-2.14-8Z" style="fill: #000; stroke-width: 0px;"/>
      <path d="M14.15,38.98l-1.95-1.13c-1.43,2.75-2.3,5.84-2.44,9.12h2.26c.14-2.87.89-5.57,2.14-8Z" style="fill: #000; stroke-width: 0px;"/>
    </g>
    <path d="M92.15,30.39l1.13-1.95c-2.75-1.43-5.84-2.3-9.12-2.44v2.26c2.87.14,5.57.89,7.99,2.14Z" style="fill: #000; stroke-width: 0px;"/>
    <path d="M99.73,37.25l1.95-1.13c-1.72-2.68-4-4.96-6.68-6.68l-1.13,1.95c2.34,1.52,4.33,3.51,5.85,5.85Z" style="fill: #000; stroke-width: 0px;"/>
    <path d="M72.42,31.39l-1.13-1.95c-2.68,1.72-4.96,4-6.68,6.68l1.95,1.13c1.52-2.34,3.51-4.33,5.85-5.85Z" style="fill: #000; stroke-width: 0px;"/>
    <path d="M82.15,28.26v-2.26c-3.28.15-6.37,1.01-9.12,2.44l1.13,1.95c2.42-1.24,5.13-1.99,8-2.14Z" style="fill: #000; stroke-width: 0px;"/>
    <path d="M66.57,58.7l-1.95,1.13c1.72,2.68,4,4.96,6.68,6.68l1.13-1.95c-2.34-1.52-4.33-3.51-5.85-5.85Z" style="fill: #000; stroke-width: 0px;"/>
    <path d="M93.88,64.55l1.13,1.95c2.68-1.72,4.96-4,6.68-6.68l-1.95-1.13c-1.52,2.34-3.51,4.33-5.85,5.85Z" style="fill: #000; stroke-width: 0px;"/>
    <path d="M63.44,48.97h-2.26c.15,3.28,1.01,6.37,2.44,9.12l1.95-1.13c-1.24-2.42-1.99-5.13-2.14-8Z" style="fill: #000; stroke-width: 0px;"/>
    <path d="M65.57,38.98l-1.95-1.13c-1.43,2.75-2.3,5.84-2.44,9.12h2.26c.14-2.87.89-5.57,2.14-8Z" style="fill: #000; stroke-width: 0px;"/>
    <g id="text">
      <text transform="translate(47.75 357.16) scale(.82 1)" style="fill: #000; font-family: GillSans-Bold, &apos;Gill Sans&apos;; font-size: 11px; font-weight: 700;"><tspan x="0" y="0">A/D</tspan></text>
      <text transform="translate(73.22 192.94) scale(.88 1)" style="fill: #000; font-family: GillSans-Bold, &apos;Gill Sans&apos;; font-size: 8px; font-weight: 700; letter-spacing: -.04em;"><tspan x="0" y="0">Decay</tspan></text>
      <text transform="translate(67.63 239.78) scale(.88 1)" style="fill: #000; font-family: GillSans-Bold, &apos;Gill Sans&apos;; font-size: 8px; font-weight: 700; letter-spacing: -.04em;"><tspan x="0" y="0">D Shape</tspan></text>
      <text transform="translate(20.46 239.78) scale(.88 1)" style="fill: #000; font-family: GillSans-Bold, &apos;Gill Sans&apos;; font-size: 8px; font-weight: 700; letter-spacing: -.04em;"><tspan x="0" y="0">Attack</tspan></text>
      <text transform="translate(23.83 192.94) scale(.88 1)" style="fill: #000; font-family: GillSans-Bold, &apos;Gill Sans&apos;; font-size: 8px; font-weight: 700; letter-spacing: -.04em;"><tspan x="0" y="0">Gate</tspan></text>
      <text transform="translate(20.46 288.58) scale(.88 1)" style="fill: #000; font-family: GillSans-Bold, &apos;Gill Sans&apos;; font-size: 8px; font-weight: 700; letter-spacing: -.04em;"><tspan x="0" y="0">A Shape</tspan></text>
      <text transform="translate(24.05 336.94) scale(.88 1)" style="fill: #fff; font-family: GillSans-Bold, &apos;Gill Sans&apos;; font-size: 8px; font-weight: 700; letter-spacing: -.04em;"><tspan x="0" y="0">EOA</tspan></text>
      <text transform="translate(75.62 289.68) scale(.88 1)" style="fill: #fff; font-family: GillSans-Bold, &apos;Gill Sans&apos;; font-size: 8px; font-weight: 700; letter-spacing: -.04em;"><tspan x="0" y="0">EOD</tspan></text>
      <text transform="translate(76.9 336.94) scale(.88 1)" style="fill: #fff; font-family: GillSans-Bold, &apos;Gill Sans&apos;; font-size: 8px; font-weight: 700; letter-spacing: -.04em;"><tspan x="0" y="0">Out</tspan></text>
      <text transform="translate(14.16 132.79) scale(.88 1)" style="fill: #000; font-family: GillSans-Bold, &apos;Gill Sans&apos;; font-size: 10px; font-weight: 700; letter-spacing: -.04em;"><tspan x="0" y="0">A Shape</tspan></text>
      <text transform="translate(65.74 132.79) scale(.88 1)" style="fill: #000; font-family: GillSans-Bold, &apos;Gill Sans&apos;; font-size: 10px; font-weight: 700; letter-spacing: -.04em;"><tspan x="0" y="0">D Shape</tspan></text>
      <text transform="translate(16.98 75.75) scale(.88 1)" style="fill: #000; font-family: GillSans-Bold, &apos;Gill Sans&apos;; font-size: 10px; font-weight: 700; letter-spacing: -.04em;"><tspan x="0" y="0">Attack</tspan></text>
      <text transform="translate(70.18 75.75) scale(.88 1)" style="fill: #000; font-family: GillSans-Bold, &apos;Gill Sans&apos;; font-size: 10px; font-weight: 700; letter-spacing: -.04em;"><tspan x="0" y="0">Decay</tspan></text>
    </g>
    <g>
      <path d="M49.4,18.07c-.37,0-.71-.17-.97-.47-.51-.6-.52-1.54-.04-2.16l6.97-8.88c.38-.48,1.05-.65,1.57-.39.5.25.79.82.79,1.45v4.77l4.64-5.85c.38-.48,1.01-.64,1.53-.38.5.25.83.81.83,1.44v8.82c0,.86-.61,1.57-1.36,1.57s-1.36-.7-1.36-1.57v-4.79l-4.64,5.85c-.38.48-1.01.64-1.54.38-.5-.24-.83-.81-.83-1.44v-4.67l-4.61,5.8c-.26.32-.62.51-1,.51h0Z" style="fill: #2cabe1; stroke-width: 0px;"/>
      <path d="M49.4,18.07c-.75,0-1.35-.7-1.35-1.57v-4.93l-2.26,2.84c-.5.63-1.44.65-1.97.04-.51-.6-.52-1.53-.03-2.15l4.61-5.76c.26-.32.63-.5,1-.5.18,0,.37.04.54.12.5.25.82.81.82,1.44v8.89c0,.86-.61,1.57-1.36,1.57h0Z" style="fill: #ea2228; stroke-width: 0px;"/>
      <path d="M66,18.09h0c-.35,0-.68-.15-.94-.42-.76-.78-.14-1.84.29-2.3l1.95-2.36-1.26-.02c-.56-.01-1.04-.4-1.24-1-.19-.56-.07-1.21.29-1.64l3.16-3.83c.23-.28.55-.48,1.13-.47.33,0,.67.17.92.4.71.66.29,1.7-.07,2.2l-1.04,1.26,1.26.02c.56.01,1.04.4,1.24,1,.19.56.07,1.21-.29,1.64l-4.1,4.97c-.35.35-.65.55-1.3.54h0Z" style="fill: #00a650; stroke-width: 0px;"/>
    </g>
  </g>
  <g id="components">
    <circle id="Out" cx="83.51" cy="311.13" r="11.34" style="fill: blue; stroke-width: 0px;"/>
    <circle id="EOA" cx="31.97" cy="311.1" r="11.34" style="fill: #8080ff; stroke-width: 0px;"/>
    <circle id="EOD" cx="83.51" cy="263.54" r="11.34" style="fill: #8080ff; stroke-width: 0px;"/>
    <circle id="A_Shape_CV" data-name="A Shape CV" cx="31.97" cy="263.51" r="11.34" style="fill: lime; stroke-width: 0px;"/>
    <circle id="D_Shape_CV" data-name="D Shape CV" cx="83.51" cy="214.44" r="11.34" style="fill: lime; stroke-width: 0px;"/>
    <circle id="Attack_CV" data-name="Attack CV" cx="31.97" cy="214.44" r="11.34" style="fill: lime; stroke-width: 0px;"/>
    <circle id="Decay_CV" data-name="Decay CV" cx="83.51" cy="167.24" r="11.34" style="fill: lime; stroke-width: 0px;"/>
    <circle id="Gate" cx="31.97" cy="167.24" r="11.34" style="fill: #80ff80; stroke-width: 0px;"/>
    <circle id="D_Shape" data-name="D Shape" cx="83.37" cy="104.81" r="17.01" style="fill: red; stroke-width: 0px;"/>
    <circle id="A_Shape" data-name="A Shape" cx="31.83" cy="104.81" r="17.01" style="fill: red; stroke-width: 0px;"/>
    <circle id="Decay" cx="83.37" cy="47.84" r="17.01" style="fill: #ff0040; stroke-width: 0px;"/>
    <circle id="Attack" cx="31.73" cy="47.84" r="17.01" style="fill: #ff0040; stroke-width: 0px;"/>
    <text id="slug" transform="translate(70.11 369.32)" style="fill: #000; font-family: MyriadPro-Regular, &apos;Myriad Pro&apos;; font-size: 3px;"><tspan x="0" y="0">ADE</tspan><tspan x="5.31" y="0" style="letter-spacing: -.01em;">n</tspan><tspan x="6.94" y="0">v</tspan></text>
    <text id="modulename" transform="translate(83.43 369.32)" style="fill: #000; font-family: MyriadPro-Regular, &apos;Myriad Pro&apos;; font-size: 3px;"><tspan x="0" y="0" style="letter-spacing: -.01em;">A</tspan><tspan x="1.81" y="0">ttack </tspan><tspan x="8.62" y="0" style="letter-spacing: 0em;">D</tspan><tspan x="10.63" y="0">ec</tspan><tspan x="13.48" y="0" style="letter-spacing: 0em;">a</tspan><tspan x="14.9" y="0" style="letter-spacing: 0em;">y E</tspan><tspan x="18.43" y="0" style="letter-spacing: -.01em;">n</tspan><tspan x="20.05" y="0" style="letter-spacing: -.01em;">v</tspan><tspan x="21.47" y="0">elope</tspan></text>
  </g>
</svg>