<?xml version="1.0" encoding="UTF-8"?>
<svg xmlns="http://www.w3.org/2000/svg" width="40.64mm" height="130.55mm" viewBox="0 0 115.2 370.06">
  <g id="faceplate">
    <g>
      <rect x=".12" y=".12" width="114.95" height="364" style="fill: #ededed; stroke-width: 0px;"/>
      <path d="M114.95.25v363.75H.25V.25h114.7M115.2,0H0v364.25h115.2V0h0Z" style="fill: #9d9d9e; stroke-width: 0px;"/>
    </g>
    <path d="M100.33,318.63v-21.52h-21.54c-7.49,0-13.57,6.52-13.57,14.57v30.53h15.07s0,0,0,0h14.39c3.12,0,5.64-2.36,5.64-5.25v-18.39.08Z" style="fill: #000; stroke-width: 0px;"/>
    <text transform="translate(36.6 357.34) scale(.82 1)" style="fill: #000; font-family: GillSans-Bold, &apos;Gill Sans&apos;; font-size: 11px; font-weight: 700;"><tspan x="0" y="0">DETUNE</tspan></text>
    <text transform="translate(70.77 293.69) scale(.88 1)" style="fill: #000; font-family: GillSans-Bold, &apos;Gill Sans&apos;; font-size: 8px; font-weight: 700; letter-spacing: -.04em;"><tspan x="0" y="0">Detune</tspan></text>
    <text transform="translate(76.65 335.88) scale(.88 1)" style="fill: #fff; font-family: GillSans-Bold, &apos;Gill Sans&apos;; font-size: 8px; font-weight: 700; letter-spacing: -.04em;"><tspan x="0" y="0">Out</tspan></text>
    <text transform="translate(22.93 293.69) scale(.88 1)" style="fill: #000; font-family: GillSans-Bold, &apos;Gill Sans&apos;; font-size: 8px; font-weight: 700; letter-spacing: -.04em;"><tspan x="0" y="0">Input</tspan></text>
    <text transform="translate(21.57 335.88) scale(.88 1)" style="fill: #000; font-family: GillSans-Bold, &apos;Gill Sans&apos;; font-size: 8px; font-weight: 700; letter-spacing: -.04em;"><tspan x="0" y="0">Depth</tspan></text>
    <path d="M102.85,56.98h2.26c-.15-3.28-1.01-6.37-2.44-9.12l-1.95,1.13c1.24,2.42,1.99,5.13,2.14,8Z" style="fill: #000; stroke-width: 0px;"/>
    <path d="M102.85,58.98c-.14,2.87-.89,5.57-2.14,8l1.95,1.13c1.43-2.75,2.3-5.84,2.44-9.12h-2.26Z" style="fill: #000; stroke-width: 0px;"/>
    <text transform="translate(12.46 85.75) scale(.88 1)" style="fill: #000; font-family: GillSans-Bold, &apos;Gill Sans&apos;; font-size: 10px; font-weight: 700; letter-spacing: -.04em;"><tspan x="0" y="0">W Speed</tspan></text>
    <g>
      <path d="M40.6,40.4l1.13-1.95c-2.75-1.43-5.84-2.3-9.12-2.44v2.26c2.87.14,5.57.89,7.99,2.14Z" style="fill: #000; stroke-width: 0px;"/>
      <path d="M48.18,47.25l1.95-1.13c-1.72-2.68-4-4.96-6.68-6.68l-1.13,1.95c2.34,1.52,4.33,3.51,5.85,5.85Z" style="fill: #000; stroke-width: 0px;"/>
      <path d="M20.88,41.4l-1.13-1.95c-2.68,1.72-4.96,4-6.68,6.68l1.95,1.13c1.52-2.34,3.51-4.33,5.85-5.85Z" style="fill: #000; stroke-width: 0px;"/>
      <path d="M51.32,56.98h2.26c-.15-3.28-1.01-6.37-2.44-9.12l-1.95,1.13c1.24,2.42,1.99,5.13,2.14,8Z" style="fill: #000; stroke-width: 0px;"/>
      <path d="M30.6,38.26v-2.26c-3.28.15-6.37,1.01-9.12,2.44l1.13,1.95c2.42-1.24,5.13-1.99,8-2.14Z" style="fill: #000; stroke-width: 0px;"/>
      <path d="M15.02,68.71l-1.95,1.13c1.72,2.68,4,4.96,6.68,6.68l1.13-1.95c-2.34-1.52-4.33-3.51-5.85-5.85Z" style="fill: #000; stroke-width: 0px;"/>
      <path d="M42.33,74.56l1.13,1.95c2.68-1.72,4.96-4,6.68-6.68l-1.95-1.13c-1.52,2.34-3.51,4.33-5.85,5.85Z" style="fill: #000; stroke-width: 0px;"/>
      <path d="M51.32,58.98c-.14,2.87-.89,5.57-2.14,8l1.95,1.13c1.43-2.75,2.3-5.84,2.44-9.12h-2.26Z" style="fill: #000; stroke-width: 0px;"/>
      <path d="M11.89,58.98h-2.26c.15,3.28,1.01,6.37,2.44,9.12l1.95-1.13c-1.24-2.42-1.99-5.13-2.14-8Z" style="fill: #000; stroke-width: 0px;"/>
      <path d="M14.02,48.98l-1.95-1.13c-1.43,2.75-2.3,5.84-2.44,9.12h2.26c.14-2.87.89-5.57,2.14-8Z" style="fill: #000; stroke-width: 0px;"/>
    </g>
    <text transform="translate(66.49 85.75) scale(.88 1)" style="fill: #000; font-family: GillSans-Bold, &apos;Gill Sans&apos;; font-size: 10px; font-weight: 700; letter-spacing: -.04em;"><tspan x="0" y="0">F Speed</tspan></text>
    <path d="M92.13,40.4l1.13-1.95c-2.75-1.43-5.84-2.3-9.12-2.44v2.26c2.87.14,5.57.89,7.99,2.14Z" style="fill: #000; stroke-width: 0px;"/>
    <path d="M99.72,47.25l1.95-1.13c-1.72-2.68-4-4.96-6.68-6.68l-1.13,1.95c2.34,1.52,4.33,3.51,5.85,5.85Z" style="fill: #000; stroke-width: 0px;"/>
    <path d="M72.41,41.4l-1.13-1.95c-2.68,1.72-4.96,4-6.68,6.68l1.95,1.13c1.52-2.34,3.51-4.33,5.85-5.85Z" style="fill: #000; stroke-width: 0px;"/>
    <path d="M82.14,38.26v-2.26c-3.28.15-6.37,1.01-9.12,2.44l1.13,1.95c2.42-1.24,5.13-1.99,8-2.14Z" style="fill: #000; stroke-width: 0px;"/>
    <path d="M66.56,68.7l-1.95,1.13c1.72,2.68,4,4.96,6.68,6.68l1.13-1.95c-2.34-1.52-4.33-3.51-5.85-5.85Z" style="fill: #000; stroke-width: 0px;"/>
    <path d="M93.86,74.56l1.13,1.95c2.68-1.72,4.96-4,6.68-6.68l-1.95-1.13c-1.52,2.34-3.51,4.33-5.85,5.85Z" style="fill: #000; stroke-width: 0px;"/>
    <path d="M63.42,58.98h-2.26c.15,3.28,1.01,6.37,2.44,9.12l1.95-1.13c-1.24-2.42-1.99-5.13-2.14-8Z" style="fill: #000; stroke-width: 0px;"/>
    <path d="M65.56,48.98l-1.95-1.13c-1.43,2.75-2.3,5.84-2.44,9.12h2.26c.14-2.87.89-5.57,2.14-8Z" style="fill: #000; stroke-width: 0px;"/>
    <text transform="translate(12.1 147.07) scale(.88 1)" style="fill: #000; font-family: GillSans-Bold, &apos;Gill Sans&apos;; font-size: 10px; font-weight: 700; letter-spacing: -.04em;"><tspan x="0" y="0">W Depth</tspan></text>
    <path d="M40.6,101.8l1.13-1.95c-2.75-1.43-5.84-2.3-9.12-2.44v2.26c2.87.14,5.57.89,7.99,2.14Z" style="fill: #000; stroke-width: 0px;"/>
    <path d="M48.18,108.65l1.95-1.13c-1.72-2.68-4-4.96-6.68-6.68l-1.13,1.95c2.34,1.52,4.33,3.51,5.85,5.85Z" style="fill: #000; stroke-width: 0px;"/>
    <path d="M20.88,102.8l-1.13-1.95c-2.68,1.72-4.96,4-6.68,6.68l1.95,1.13c1.52-2.34,3.51-4.33,5.85-5.85Z" style="fill: #000; stroke-width: 0px;"/>
    <path d="M51.32,118.38h2.26c-.15-3.28-1.01-6.37-2.44-9.12l-1.95,1.13c1.24,2.42,1.99,5.13,2.14,8Z" style="fill: #000; stroke-width: 0px;"/>
    <path d="M30.6,99.66v-2.26c-3.28.15-6.37,1.01-9.12,2.44l1.13,1.95c2.42-1.24,5.13-1.99,8-2.14Z" style="fill: #000; stroke-width: 0px;"/>
    <path d="M15.02,130.11l-1.95,1.13c1.72,2.68,4,4.96,6.68,6.68l1.13-1.95c-2.34-1.52-4.33-3.51-5.85-5.85Z" style="fill: #000; stroke-width: 0px;"/>
    <path d="M42.33,135.96l1.13,1.95c2.68-1.72,4.96-4,6.68-6.68l-1.95-1.13c-1.52,2.34-3.51,4.33-5.85,5.85Z" style="fill: #000; stroke-width: 0px;"/>
    <path d="M51.32,120.38c-.14,2.87-.89,5.57-2.14,8l1.95,1.13c1.43-2.75,2.3-5.84,2.44-9.12h-2.26Z" style="fill: #000; stroke-width: 0px;"/>
    <path d="M11.89,120.38h-2.26c.15,3.28,1.01,6.37,2.44,9.12l1.95-1.13c-1.24-2.42-1.99-5.13-2.14-8Z" style="fill: #000; stroke-width: 0px;"/>
    <path d="M14.02,110.38l-1.95-1.13c-1.43,2.75-2.3,5.84-2.44,9.12h2.26c.14-2.87.89-5.57,2.14-8Z" style="fill: #000; stroke-width: 0px;"/>
    <text transform="translate(66.13 147.07) scale(.88 1)" style="fill: #000; font-family: GillSans-Bold, &apos;Gill Sans&apos;; font-size: 10px; font-weight: 700; letter-spacing: -.04em;"><tspan x="0" y="0">F Depth</tspan></text>
    <path d="M92.13,101.8l1.13-1.95c-2.75-1.43-5.84-2.3-9.12-2.44v2.26c2.87.14,5.57.89,7.99,2.14Z" style="fill: #000; stroke-width: 0px;"/>
    <path d="M99.72,108.65l1.95-1.13c-1.72-2.68-4-4.96-6.68-6.68l-1.13,1.95c2.34,1.52,4.33,3.51,5.85,5.85Z" style="fill: #000; stroke-width: 0px;"/>
    <path d="M72.41,102.8l-1.13-1.95c-2.68,1.72-4.96,4-6.68,6.68l1.95,1.13c1.52-2.34,3.51-4.33,5.85-5.85Z" style="fill: #000; stroke-width: 0px;"/>
    <path d="M102.85,118.38h2.26c-.15-3.28-1.01-6.37-2.44-9.12l-1.95,1.13c1.24,2.42,1.99,5.13,2.14,8Z" style="fill: #000; stroke-width: 0px;"/>
    <path d="M82.14,99.66v-2.26c-3.28.15-6.37,1.01-9.12,2.44l1.13,1.95c2.42-1.24,5.13-1.99,8-2.14Z" style="fill: #000; stroke-width: 0px;"/>
    <path d="M66.56,130.11l-1.95,1.13c1.72,2.68,4,4.96,6.68,6.68l1.13-1.95c-2.34-1.52-4.33-3.51-5.85-5.85Z" style="fill: #000; stroke-width: 0px;"/>
    <path d="M93.86,135.96l1.13,1.95c2.68-1.72,4.96-4,6.68-6.68l-1.95-1.13c-1.52,2.34-3.51,4.33-5.85,5.85Z" style="fill: #000; stroke-width: 0px;"/>
    <path d="M102.85,120.38c-.14,2.87-.89,5.57-2.14,8l1.95,1.13c1.43-2.75,2.3-5.84,2.44-9.12h-2.26Z" style="fill: #000; stroke-width: 0px;"/>
    <path d="M63.42,120.38h-2.26c.15,3.28,1.01,6.37,2.44,9.12l1.95-1.13c-1.24-2.42-1.99-5.13-2.14-8Z" style="fill: #000; stroke-width: 0px;"/>
    <path d="M65.56,110.38l-1.95-1.13c-1.43,2.75-2.3,5.84-2.44,9.12h2.26c.14-2.87.89-5.57,2.14-8Z" style="fill: #000; stroke-width: 0px;"/>
    <g>
      <path d="M49.4,18.19c-.37,0-.71-.17-.97-.47-.51-.6-.52-1.54-.04-2.16l6.97-8.88c.38-.48,1.05-.65,1.57-.39.5.25.79.82.79,1.45v4.77l4.64-5.85c.38-.48,1.01-.64,1.53-.38.5.25.83.81.83,1.44v8.82c0,.86-.61,1.57-1.36,1.57s-1.36-.7-1.36-1.57v-4.79l-4.64,5.85c-.38.48-1.01.64-1.54.38-.5-.24-.83-.81-.83-1.44v-4.67l-4.61,5.8c-.26.32-.62.51-1,.51h0Z" style="fill: #2cabe1; stroke-width: 0px;"/>
      <path d="M49.4,18.19c-.75,0-1.35-.7-1.35-1.57v-4.93l-2.26,2.84c-.5.63-1.44.65-1.97.04-.51-.6-.52-1.53-.03-2.15l4.61-5.76c.26-.32.63-.5,1-.5.18,0,.37.04.54.12.5.25.82.81.82,1.44v8.89c0,.86-.61,1.57-1.36,1.57h0Z" style="fill: #ea2228; stroke-width: 0px;"/>
      <path d="M66,18.21h0c-.35,0-.68-.15-.94-.42-.76-.78-.14-1.84.29-2.3l1.95-2.36-1.26-.02c-.56-.01-1.04-.4-1.24-1-.19-.56-.07-1.21.29-1.64l3.16-3.83c.23-.28.55-.48,1.13-.47.33,0,.67.17.92.4.71.66.29,1.7-.07,2.2l-1.04,1.26,1.26.02c.56.01,1.04.4,1.24,1,.19.56.07,1.21-.29,1.64l-4.1,4.97c-.35.35-.65.55-1.3.54h0Z" style="fill: #00a650; stroke-width: 0px;"/>
    </g>
    <g>
      <path d="M100.43,318.75v-21.52h-21.54c-7.49,0-13.57,6.52-13.57,14.57v30.53h15.07s0,0,0,0h14.39c3.12,0,5.64-2.36,5.64-5.25v-18.39.08Z" style="fill: #000; stroke-width: 0px;"/>
      <g>
        <path d="M28.31,341.84h35.2s23.15,0,23.15,0c7.35,0,13.31-7.02,13.31-15.67v-28.42l.27-21.85-.06-6.64c-.29-8.35-6.12-15.02-13.28-15.02H28.55c-7.17,0-12.99,6.67-13.28,15.02l-.06,6.64v-2.92l-.21,53.19" style="fill: none; stroke: #000; stroke-miterlimit: 10;"/>
        <path d="M14.99,325.21v10.96c0,3.12,2.55,5.67,5.67,5.67h12.93" style="fill: none; stroke: #231f20; stroke-miterlimit: 10;"/>
      </g>
    </g>
  </g>
  <g id="components">
    <circle id="Out" cx="83.18" cy="313.57" r="11.34" style="fill: blue; stroke-width: 0px;"/>
    <circle id="Depth" cx="31.99" cy="313.57" r="11.34" style="fill: lime; stroke-width: 0px;"/>
    <circle id="Detune" cx="83.18" cy="271.96" r="11.34" style="fill: lime; stroke-width: 0px;"/>
    <circle id="Input" cx="31.99" cy="271.96" r="11.34" style="fill: lime; stroke-width: 0px;"/>
    <circle id="F_Depth" data-name="F Depth" cx="83.35" cy="119.08" r="17.01" style="fill: #ff0040; stroke-width: 0px;"/>
    <circle id="W_Depth" data-name="W Depth" cx="31.82" cy="119.08" r="17.01" style="fill: #ff0040; stroke-width: 0px;"/>
    <circle id="F_Speed" data-name="F Speed" cx="83.35" cy="57.84" r="17.01" style="fill: red; stroke-width: 0px;"/>
    <circle id="W_Speed" data-name="W Speed" cx="31.82" cy="57.84" r="17.01" style="fill: #ff0020; stroke-width: 0px;"/>
    <text id="slug" transform="translate(70.09 369.31)" style="fill: #000; font-family: MyriadPro-Regular, &apos;Myriad Pro&apos;; font-size: 3px;"><tspan x="0" y="0" style="letter-spacing: 0em;">D</tspan><tspan x="2.01" y="0">etune</tspan></text>
    <text id="modulename" transform="translate(83.41 369.31)" style="fill: #000; font-family: MyriadPro-Regular, &apos;Myriad Pro&apos;; font-size: 3px;"><tspan x="0" y="0" style="letter-spacing: 0em;">D</tspan><tspan x="2.01" y="0">etuner</tspan></text>
  </g>
</svg>