<?xml version="1.0" encoding="UTF-8"?>
<svg xmlns="http://www.w3.org/2000/svg" width="20.32mm" height="130.55mm" xmlns:xlink="http://www.w3.org/1999/xlink" viewBox="0 0 57.6 370.07">
  <defs>
    <clipPath id="clippath">
      <rect x="14.91" y="33.17" width="27.78" height="25.51" style="fill: none; stroke-width: 0px;"/>
    </clipPath>
    <clipPath id="clippath-1">
      <rect x="14.91" y="33.17" width="27.78" height="25.51" style="fill: none; stroke-width: 0px;"/>
    </clipPath>
    <clipPath id="clippath-2">
      <rect x="14.91" y="81.21" width="27.78" height="25.51" style="fill: none; stroke-width: 0px;"/>
    </clipPath>
    <clipPath id="clippath-3">
      <rect x="14.91" y="81.21" width="27.78" height="25.51" style="fill: none; stroke-width: 0px;"/>
    </clipPath>
    <clipPath id="clippath-4">
      <rect x="14.91" y="129.4" width="27.78" height="25.51" style="fill: none; stroke-width: 0px;"/>
    </clipPath>
    <clipPath id="clippath-5">
      <rect x="14.91" y="129.4" width="27.78" height="25.51" style="fill: none; stroke-width: 0px;"/>
    </clipPath>
  </defs>
  <g id="faceplate">
    <g>
      <rect x=".13" y=".13" width="57.35" height="364" style="fill: #ededed; stroke-width: 0px;"/>
      <path d="M57.35.25v363.75H.25V.25h57.1M57.6,0H0v364.25h57.6V0h0Z" style="fill: #9d9d9e; stroke-width: 0px;"/>
    </g>
    <g id="Layer_4" data-name="Layer 4">
      <path d="M28.8,200.84c8.05,0,14.59,6.08,14.59,13.54v63.83H14.21v-63.83c0-7.47,6.55-13.54,14.59-13.54M28.8,199.84c-8.61,0-15.59,6.51-15.59,14.54v64.83s31.18,0,31.18,0v-64.83c0-8.03-6.98-14.54-15.59-14.54h0Z" style="fill: #000; stroke-width: 0px;"/>
      <path d="M44.39,261.76c0-8.05-6.98-14.57-15.59-14.57s-15.59,6.53-15.59,14.57v54.4s0,0,0,0v19.77c0,3.11,2.55,5.65,5.67,5.65h19.84c3.12,0,5.67-2.54,5.67-5.65v-19.77s0,0,0,0v-54.39Z" style="fill: #000; stroke-width: 0px;"/>
      <g>
        <path d="M20.6,18.19c-.37,0-.71-.17-.97-.47-.51-.6-.52-1.54-.04-2.16l6.97-8.88c.38-.48,1.05-.65,1.57-.39.5.25.79.82.79,1.45v4.77l4.64-5.85c.38-.48,1.01-.64,1.53-.38.5.25.83.81.83,1.44v8.82c0,.86-.61,1.57-1.36,1.57s-1.36-.7-1.36-1.57v-4.79l-4.64,5.85c-.38.48-1.01.64-1.54.38-.5-.24-.83-.81-.83-1.44v-4.67l-4.61,5.8c-.26.32-.62.51-1,.51h0Z" style="fill: #2cabe1; stroke-width: 0px;"/>
        <path d="M20.6,18.19c-.75,0-1.35-.7-1.35-1.57v-4.93l-2.26,2.84c-.5.63-1.44.65-1.97.04-.51-.6-.52-1.53-.03-2.15l4.61-5.76c.26-.32.63-.5,1-.5.18,0,.37.04.54.12.5.25.82.81.82,1.44v8.89c0,.86-.61,1.57-1.36,1.57h0Z" style="fill: #ea2228; stroke-width: 0px;"/>
        <path d="M37.2,18.21h0c-.35,0-.68-.15-.94-.42-.76-.78-.14-1.84.29-2.3l1.95-2.36-1.26-.02c-.56-.01-1.04-.4-1.24-1-.19-.56-.07-1.21.29-1.64l3.16-3.83c.23-.28.55-.48,1.13-.47.33,0,.67.17.92.4.71.66.29,1.7-.07,2.2l-1.04,1.26,1.26.02c.56.01,1.04.4,1.24,1,.19.56.07,1.21-.29,1.64l-4.1,4.97c-.35.35-.65.55-1.3.54h0Z" style="fill: #00a650; stroke-width: 0px;"/>
      </g>
    </g>
    <g id="text">
      <text transform="translate(19.94 68.76) scale(.88 1)" style="fill: #000; font-family: GillSans-Bold, &apos;Gill Sans&apos;; font-size: 10px; font-weight: 700; letter-spacing: -.04em;"><tspan x="0" y="0">Rise</tspan></text>
      <text transform="translate(21.39 116.95) scale(.88 1)" style="fill: #000; font-family: GillSans-Bold, &apos;Gill Sans&apos;; font-size: 10px; font-weight: 700; letter-spacing: -.04em;"><tspan x="0" y="0">Fall</tspan></text>
      <text transform="translate(13.78 165.14) scale(.88 1)" style="fill: #000; font-family: GillSans-Bold, &apos;Gill Sans&apos;; font-size: 10px; font-weight: 700; letter-spacing: -.04em;"><tspan x="0" y="0">Thresh</tspan></text>
      <text transform="translate(17.77 357.05) scale(.82 1)" style="fill: #000; font-family: GillSans-Bold, &apos;Gill Sans&apos;; font-size: 11px; font-weight: 700;"><tspan x="0" y="0">FLW</tspan></text>
      <text transform="translate(19.67 241.06) scale(.88 1)" style="fill: #231f20; font-family: GillSans-Bold, &apos;Gill Sans&apos;; font-size: 8px; font-weight: 700; letter-spacing: -.04em;"><tspan x="0" y="0">Input</tspan></text>
      <text transform="translate(20.65 289.25) scale(.88 1)" style="fill: #fff; font-family: GillSans-Bold, &apos;Gill Sans&apos;; font-size: 8px; font-weight: 700; letter-spacing: -.04em;"><tspan x="0" y="0">Gate</tspan></text>
      <text transform="translate(22.51 337.44) scale(.88 1)" style="fill: #fff; font-family: GillSans-Bold, &apos;Gill Sans&apos;; font-size: 8px; font-weight: 700; letter-spacing: -.04em;"><tspan x="0" y="0">Env</tspan></text>
    </g>
    <g id="pips">
      <g id="pips_-_fewest" data-name="pips - fewest">
        <g style="clip-path: url(#clippath);">
          <g style="clip-path: url(#clippath-1);">
            <path d="M34.49,35.93l.71-1.23c-1.74-.9-3.69-1.45-5.77-1.54v1.42c1.81.09,3.52.56,5.05,1.35" style="fill: #000; stroke-width: 0px;"/>
            <path d="M39.28,40.25l1.23-.71c-1.09-1.69-2.53-3.12-4.22-4.21l-.71,1.23c1.48.96,2.74,2.21,3.7,3.69" style="fill: #000; stroke-width: 0px;"/>
            <path d="M22.02,36.56l-.71-1.23c-1.69,1.08-3.14,2.52-4.22,4.2l1.23.71c.96-1.47,2.22-2.73,3.7-3.69" style="fill: #000; stroke-width: 0px;"/>
            <path d="M41.26,46.38h1.43c-.09-2.07-.64-4.01-1.54-5.75l-1.23.71c.79,1.52,1.26,3.23,1.35,5.04" style="fill: #000; stroke-width: 0px;"/>
            <path d="M28.17,34.59v-1.42c-2.07.09-4.03.64-5.77,1.54l.71,1.23c1.53-.78,3.24-1.25,5.05-1.35" style="fill: #000; stroke-width: 0px;"/>
            <path d="M18.32,53.76l-1.23.71c1.09,1.69,2.53,3.12,4.22,4.21l.71-1.23c-1.48-.96-2.74-2.21-3.7-3.69" style="fill: #000; stroke-width: 0px;"/>
            <path d="M35.58,57.45l.71,1.23c1.69-1.08,3.14-2.52,4.22-4.2l-1.23-.71c-.96,1.47-2.22,2.73-3.7,3.69" style="fill: #000; stroke-width: 0px;"/>
            <path d="M41.26,47.64c-.09,1.81-.56,3.51-1.35,5.04l1.23.71c.9-1.73,1.45-3.68,1.54-5.75h-1.43Z" style="fill: #000; stroke-width: 0px;"/>
            <path d="M16.34,47.64h-1.43c.09,2.07.64,4.01,1.54,5.75l1.23-.71c-.79-1.52-1.26-3.23-1.35-5.04" style="fill: #000; stroke-width: 0px;"/>
            <path d="M17.69,41.34l-1.23-.71c-.9,1.73-1.45,3.68-1.54,5.75h1.43c.09-1.81.56-3.51,1.35-5.04" style="fill: #000; stroke-width: 0px;"/>
          </g>
        </g>
      </g>
      <g id="pips_-_fewest-2" data-name="pips - fewest">
        <g style="clip-path: url(#clippath-2);">
          <g style="clip-path: url(#clippath-3);">
            <path d="M34.49,83.98l.71-1.23c-1.74-.9-3.69-1.45-5.77-1.54v1.42c1.81.09,3.52.56,5.05,1.35" style="fill: #000; stroke-width: 0px;"/>
            <path d="M39.28,88.3l1.23-.71c-1.09-1.69-2.53-3.12-4.22-4.21l-.71,1.23c1.48.96,2.74,2.21,3.7,3.69" style="fill: #000; stroke-width: 0px;"/>
            <path d="M22.02,84.61l-.71-1.23c-1.69,1.08-3.14,2.52-4.22,4.2l1.23.71c.96-1.47,2.22-2.73,3.7-3.69" style="fill: #000; stroke-width: 0px;"/>
            <path d="M41.26,94.42h1.43c-.09-2.07-.64-4.01-1.54-5.75l-1.23.71c.79,1.52,1.26,3.23,1.35,5.04" style="fill: #000; stroke-width: 0px;"/>
            <path d="M28.17,82.63v-1.42c-2.07.09-4.03.64-5.77,1.54l.71,1.23c1.53-.78,3.24-1.25,5.05-1.35" style="fill: #000; stroke-width: 0px;"/>
            <path d="M18.32,101.81l-1.23.71c1.09,1.69,2.53,3.12,4.22,4.21l.71-1.23c-1.48-.96-2.74-2.21-3.7-3.69" style="fill: #000; stroke-width: 0px;"/>
            <path d="M35.58,105.5l.71,1.23c1.69-1.08,3.14-2.52,4.22-4.2l-1.23-.71c-.96,1.47-2.22,2.73-3.7,3.69" style="fill: #000; stroke-width: 0px;"/>
            <path d="M41.26,95.68c-.09,1.81-.56,3.51-1.35,5.04l1.23.71c.9-1.73,1.45-3.68,1.54-5.75h-1.43Z" style="fill: #000; stroke-width: 0px;"/>
            <path d="M16.34,95.68h-1.43c.09,2.07.64,4.01,1.54,5.75l1.23-.71c-.79-1.52-1.26-3.23-1.35-5.04" style="fill: #000; stroke-width: 0px;"/>
            <path d="M17.69,89.39l-1.23-.71c-.9,1.73-1.45,3.68-1.54,5.75h1.43c.09-1.81.56-3.51,1.35-5.04" style="fill: #000; stroke-width: 0px;"/>
          </g>
        </g>
      </g>
      <g id="pips_-_fewest-3" data-name="pips - fewest">
        <g style="clip-path: url(#clippath-4);">
          <g style="clip-path: url(#clippath-5);">
            <path d="M34.49,132.17l.71-1.23c-1.74-.9-3.69-1.45-5.77-1.54v1.42c1.81.09,3.52.56,5.05,1.35" style="fill: #000; stroke-width: 0px;"/>
            <path d="M39.28,136.49l1.23-.71c-1.09-1.69-2.53-3.12-4.22-4.21l-.71,1.23c1.48.96,2.74,2.21,3.7,3.69" style="fill: #000; stroke-width: 0px;"/>
            <path d="M22.02,132.8l-.71-1.23c-1.69,1.08-3.14,2.52-4.22,4.2l1.23.71c.96-1.47,2.22-2.73,3.7-3.69" style="fill: #000; stroke-width: 0px;"/>
            <path d="M41.26,142.61h1.43c-.09-2.07-.64-4.01-1.54-5.75l-1.23.71c.79,1.52,1.26,3.23,1.35,5.04" style="fill: #000; stroke-width: 0px;"/>
            <path d="M28.17,130.82v-1.42c-2.07.09-4.03.64-5.77,1.54l.71,1.23c1.53-.78,3.24-1.25,5.05-1.35" style="fill: #000; stroke-width: 0px;"/>
            <path d="M18.32,150l-1.23.71c1.09,1.69,2.53,3.12,4.22,4.21l.71-1.23c-1.48-.96-2.74-2.21-3.7-3.69" style="fill: #000; stroke-width: 0px;"/>
            <path d="M35.58,153.69l.71,1.23c1.69-1.08,3.14-2.52,4.22-4.2l-1.23-.71c-.96,1.47-2.22,2.73-3.7,3.69" style="fill: #000; stroke-width: 0px;"/>
            <path d="M41.26,143.87c-.09,1.81-.56,3.51-1.35,5.04l1.23.71c.9-1.73,1.45-3.68,1.54-5.75h-1.43Z" style="fill: #000; stroke-width: 0px;"/>
            <path d="M16.34,143.87h-1.43c.09,2.07.64,4.01,1.54,5.75l1.23-.71c-.79-1.52-1.26-3.23-1.35-5.04" style="fill: #000; stroke-width: 0px;"/>
            <path d="M17.69,137.58l-1.23-.71c-.9,1.73-1.45,3.68-1.54,5.75h1.43c.09-1.81.56-3.51,1.35-5.04" style="fill: #000; stroke-width: 0px;"/>
          </g>
        </g>
      </g>
    </g>
  </g>
  <g id="components">
    <circle id="Env" cx="28.8" cy="313.23" r="11.34" style="fill: blue; stroke-width: 0px;"/>
    <circle id="Gate" cx="28.8" cy="265.04" r="11.34" style="fill: blue; stroke-width: 0px;"/>
    <circle id="Input" cx="28.8" cy="216.85" r="11.34" style="fill: lime; stroke-width: 0px;"/>
    <circle id="Thresh" cx="28.8" cy="143.15" r="8.5" style="fill: red; stroke-width: 0px;"/>
    <circle id="Fall" cx="28.8" cy="94.96" r="8.5" style="fill: red; stroke-width: 0px;"/>
    <circle id="Rise" cx="28.8" cy="46.77" r="8.5" style="fill: red; stroke-width: 0px;"/>
    <text id="slug" transform="translate(33.1 369.32)" style="fill: #000; font-family: MyriadPro-Regular, &apos;Myriad Pro&apos;; font-size: 3px;"><tspan x="0" y="0" style="letter-spacing: -.03em;">F</tspan><tspan x="1.37" y="0" style="letter-spacing: 0em;">oll</tspan><tspan x="4.43" y="0" style="letter-spacing: 0em;">o</tspan><tspan x="6.06" y="0">w</tspan></text>
    <text id="modulename" transform="translate(46.43 369.32)" style="fill: #000; font-family: MyriadPro-Regular, &apos;Myriad Pro&apos;; font-size: 3px;"><tspan x="0" y="0" style="letter-spacing: -.03em;">F</tspan><tspan x="1.37" y="0" style="letter-spacing: 0em;">oll</tspan><tspan x="4.43" y="0" style="letter-spacing: 0em;">o</tspan><tspan x="6.06" y="0" style="letter-spacing: 0em;">w</tspan><tspan x="8.24" y="0">er</tspan></text>
  </g>
</svg>