<?xml version="1.0" encoding="UTF-8"?>
<svg xmlns="http://www.w3.org/2000/svg" width="50.89mm" height="130.55mm" viewBox="0 0 144.25 370.06">
  <g id="faceplate">
    <rect x=".12" y=".12" width="144" height="364.25" style="fill: #ededed; stroke: #9d9d9e; stroke-miterlimit: 10; stroke-width: .25px;"/>
    <path d="m47.43,191.46c3.22,0,5.84-2.61,5.84-5.84s-2.61-5.84-5.84-5.84h-8.96c-3.22,0-5.84,2.61-5.84,5.84s2.61,5.84,5.84,5.84h8.96Z" style="fill: #171717;"/>
    <path d="m122.92,342.88c-9.26,0-16.79-7.42-16.79-16.55v-.25s0-43.67,0-43.67c0-9.57,6.68-16.52,15.89-16.52s15.88,6.95,15.88,16.52v43.91c0,9.59-6.3,16.55-14.98,16.55Zm-.9-75.98c-8.62,0-14.89,6.53-14.89,15.52v43.92c0,8.57,7.08,15.54,15.79,15.54,8.1,0,13.99-6.54,13.99-15.55v-11.87s0-32.05,0-32.05c0-8.99-6.26-15.52-14.88-15.52Z" style="fill: #171717;"/>
    <path d="m78.35,8.84s-3.87,4.92-6.13,7.79v-6.67c0-.57-.28-1.09-.71-1.3-.43-.21-.93-.08-1.25.33l-8.06,10.24c-.44.56-.42,1.44.03,1.98.45.54,1.18.52,1.62-.04,0,0,3.84-4.88,6.08-7.74v6.68c0,.57.28,1.09.72,1.3.43.21.93.08,1.25-.33,0,0,3.87-4.92,6.12-7.79v6.81c0,.78.51,1.4,1.14,1.4s1.14-.62,1.14-1.4v-10.29c0-.57-.28-1.09-.72-1.3-.43-.21-.92-.08-1.25.33" style="fill: #171717;"/>
    <path d="m63.03,21.93c-.4,0-.77-.18-1.05-.51-.56-.66-.58-1.72-.04-2.41l8.06-10.24c.42-.54,1.09-.71,1.67-.42.55.27.9.9.9,1.6v5.7l5.53-7.02c.42-.53,1.09-.7,1.66-.42.55.27.91.9.91,1.6v10.29c0,.96-.66,1.74-1.48,1.74s-1.48-.76-1.48-1.74v-5.84c-2.28,2.9-5.52,7.02-5.52,7.02-.42.54-1.09.7-1.67.42-.55-.27-.9-.9-.9-1.6v-5.7c-2.27,2.88-5.48,6.97-5.48,6.97-.28.35-.66.55-1.06.56h-.02Zm8.06-13.04c-.2,0-.41.1-.56.3l-8.05,10.24c-.34.43-.33,1.14.02,1.56.15.18.35.25.55.27.2,0,.4-.11.55-.3,0,0,3.84-4.88,6.08-7.74l.6-.77v7.65c0,.44.21.84.53,1,.29.14.62.05.84-.23,0,0,3.87-4.92,6.12-7.79l.6-.76v7.78c0,.59.36,1.06.81,1.06s.81-.48.81-1.06v-10.29c0-.44-.21-.84-.53-1-.29-.14-.61-.05-.84.23l-6.73,8.55v-7.65c0-.44-.21-.84-.53-1-.09-.04-.18-.07-.28-.07Z" style="fill: #171717;"/>
    <path d="m62.2,8.76l-5.34,6.79c-.44.56-.42,1.44.03,1.98.46.54,1.18.52,1.62-.04,0,0,1.8-2.29,3.37-4.29v6.98c0,.77.51,1.4,1.14,1.4s1.15-.63,1.15-1.4v-10.45c0-.57-.28-1.09-.71-1.3-.43-.21-.93-.08-1.25.33" style="fill: #171717;"/>
    <path d="m63.02,21.93c-.81,0-1.47-.78-1.47-1.74v-6.01l-2.77,3.52c-.28.35-.66.55-1.07.56-.41,0-.79-.17-1.07-.51-.56-.67-.57-1.72-.04-2.41l5.34-6.79c.42-.53,1.09-.7,1.67-.42.55.27.9.9.9,1.6v10.46c0,.96-.67,1.74-1.48,1.74Zm-.8-9.69v7.95c0,.59.36,1.07.8,1.07s.81-.48.81-1.07v-10.46c0-.44-.21-.84-.53-1-.29-.14-.61-.05-.84.23l-5.33,6.78c-.34.43-.33,1.14.02,1.56.15.18.34.26.55.27.2,0,.4-.11.55-.3l3.97-5.05Z" style="fill: #171717;"/>
    <path d="m87.61,13.76c-.18-.52-.59-.85-1.05-.85h-2.33l1.7-2.16s.88-1.3.1-2.01c-.78-.71-1.75.07-1.75.07l-3.57,4.54c-.32.4-.41,1-.23,1.52.18.52.6.85,1.05.85h2.33l-2.76,3.51s-1.14,1.25-.3,2.1c.85.84,1.94-.15,1.94-.15l4.63-5.89c.32-.4.41-1,.23-1.52" style="fill: #171717;"/>
    <path d="m81.59,21.99c-.34,0-.7-.12-1.02-.44-.85-.85-.18-2.05.29-2.56l2.32-2.95h-1.64c-.6,0-1.14-.42-1.37-1.08-.22-.63-.1-1.35.28-1.84l3.57-4.54c.46-.39,1.45-.83,2.24-.11.99.9,0,2.39-.05,2.45l-1.29,1.64h1.64c.6,0,1.14.42,1.37,1.08h0c.22.62.11,1.35-.28,1.84l-4.63,5.88c-.31.29-.86.62-1.43.62Zm3.68-13.23c-.4,0-.75.28-.77.29l-3.52,4.49c-.25.31-.32.79-.18,1.2.13.37.43.63.74.63h3.03l-3.19,4.06s-.93,1.04-.32,1.65c.61.61,1.44-.13,1.48-.16l4.59-5.84c.25-.31.32-.79.18-1.2h0c-.13-.38-.42-.63-.73-.63h-3.02l2.13-2.71h0s.69-1.05.14-1.56c-.17-.16-.36-.21-.54-.21Z" style="fill: #171717;"/>
    <polygon points="58.49 332.35 56.87 332.35 56.87 328.82 55.42 330.87 55.29 330.87 53.83 328.82 53.83 332.35 52.26 332.35 52.26 326.26 53.72 326.26 55.37 328.55 57.02 326.26 58.49 326.26 58.49 332.35" style="fill: #171717;"/>
    <path d="m63.38,332.13c-.2.09-.39.17-.56.22-.17.06-.38.08-.62.08s-.39-.05-.48-.14c-.09-.09-.16-.2-.19-.34-.15.14-.32.25-.5.34s-.42.13-.72.13-.52-.06-.69-.17c-.18-.11-.3-.26-.37-.43-.07-.17-.11-.35-.11-.53,0-.28.06-.5.18-.68.12-.18.29-.33.49-.44.21-.11.48-.23.82-.36.19-.07.34-.12.44-.16.1-.04.17-.07.22-.09.05-.02.1-.05.15-.08,0-.22-.04-.39-.12-.51-.08-.12-.24-.19-.5-.19-.31,0-.59.08-.85.23-.26.15-.5.35-.72.59v-1.21c.17-.14.36-.25.56-.34.2-.09.41-.16.63-.2.22-.04.44-.07.67-.07.57,0,1,.12,1.29.38.29.25.43.59.43,1.03v1.73c0,.16.01.29.04.37.03.08.08.12.15.12.09,0,.21-.04.35-.13v.83Zm-1.94-.86v-1.06c-.33.15-.57.29-.72.41-.15.12-.23.29-.23.49,0,.15.04.26.11.34.08.08.16.12.26.12.1,0,.19-.03.28-.09.1-.06.19-.13.29-.22" style="fill: #171717;"/>
    <path d="m64.97,332.35h-1.4v-4.47h1.4v4.47Zm-.11-5.51c0,.19-.06.34-.17.47-.12.13-.25.19-.41.19-.11,0-.21-.03-.3-.09-.09-.06-.16-.14-.21-.24-.05-.1-.08-.21-.08-.34,0-.18.06-.34.17-.47.11-.13.25-.2.41-.2s.3.07.41.2.17.29.17.47" style="fill: #171717;"/>
    <path d="m69.81,332.35h-1.39v-2.41c0-.25-.03-.46-.11-.64-.07-.18-.23-.27-.47-.27-.11,0-.21.02-.3.07-.09.05-.16.11-.23.19-.07.08-.12.15-.17.22-.05.07-.09.15-.14.22v2.63h-1.39v-4.47h1.39v.64c.22-.27.44-.45.66-.56.22-.11.46-.16.74-.16.94,0,1.42.64,1.42,1.92v2.63Z" style="fill: #171717;"/>
    <polygon points="76.67 332.35 72.59 332.35 72.59 326.26 74.21 326.26 74.21 330.89 76.67 330.89 76.67 332.35" style="fill: #171717;"/>
    <path d="m81.1,330.5h-2.77c.06.27.19.49.4.67.21.17.45.26.72.26.47,0,.99-.15,1.55-.45v.98c-.2.12-.45.23-.74.33-.29.1-.66.15-1.11.15-.49,0-.9-.1-1.24-.31-.34-.2-.6-.48-.76-.83-.17-.35-.25-.75-.25-1.19s.08-.83.25-1.18.42-.62.76-.82c.34-.2.75-.3,1.24-.3.32,0,.63.08.93.23.3.16.54.41.74.77s.29.82.29,1.38v.32Zm-1.31-.78c0-.29-.06-.52-.19-.69-.12-.17-.31-.26-.54-.26s-.42.09-.56.26c-.14.17-.22.4-.22.68h1.51Z" style="fill: #171717;"/>
    <polygon points="85.62 327.88 83.82 332.35 82.8 332.35 81.04 327.88 82.54 327.88 83.36 330.22 84.26 327.88 85.62 327.88" style="fill: #171717;"/>
    <path d="m89.8,330.5h-2.77c.05.27.19.49.4.67.21.17.45.26.72.26.47,0,.99-.15,1.56-.45v.98c-.2.12-.45.23-.74.33-.29.1-.66.15-1.11.15-.48,0-.9-.1-1.24-.31-.34-.2-.6-.48-.76-.83-.17-.35-.25-.75-.25-1.19s.08-.83.25-1.18.42-.62.76-.82c.34-.2.75-.3,1.24-.3.32,0,.63.08.93.23.3.16.54.41.74.77.19.36.29.82.29,1.38v.32Zm-1.31-.78c0-.29-.06-.52-.19-.69-.12-.17-.31-.26-.54-.26s-.42.09-.56.26c-.14.17-.22.4-.22.68h1.5Z" style="fill: #171717;"/>
    <rect x="90.24" y="326.26" width="1.4" height="6.09" style="fill: #171717;"/>
    <polygon points="119.87 301.51 117.16 301.51 117.16 297.44 118.24 297.44 118.24 300.53 119.87 300.53 119.87 301.51" style="fill: #171717;"/>
    <path d="m122.83,300.27h-1.85c.04.18.12.33.27.45.14.11.3.17.48.17.31,0,.66-.1,1.04-.3v.65c-.14.08-.3.15-.49.22-.19.06-.44.1-.74.1-.32,0-.6-.07-.83-.21-.23-.14-.4-.32-.51-.56-.11-.24-.17-.5-.17-.8s.06-.56.17-.79c.11-.23.28-.41.51-.54.23-.13.5-.2.83-.2.21,0,.42.05.62.16.2.1.36.28.49.51.13.24.19.54.19.92v.21Zm-.87-.52c0-.19-.04-.34-.12-.46-.08-.11-.2-.17-.36-.17s-.28.06-.38.18c-.1.12-.14.27-.14.45h1Z" style="fill: #171717;"/>
    <path d="m124.83,298.2c-.14-.04-.26-.06-.34-.06-.1,0-.18.04-.23.11-.06.07-.08.18-.08.32v.11h.47v.71h-.47v2.11h-.93v-2.11h-.43v-.71h.43v-.05c0-.21.04-.41.11-.59.07-.19.19-.34.36-.46.17-.12.39-.18.66-.18.15,0,.31.02.47.06v.76Z" style="fill: #171717;"/>
    <path d="m126.88,301.33c-.1.05-.23.1-.4.15-.17.05-.33.07-.49.07-.67,0-1-.37-1-1.11v-1.19h-.42v-.18l1.25-1.44h.11v.89h.89v.73h-.89v.96c0,.11,0,.2.02.27.01.07.04.13.1.17s.14.07.25.07c.15,0,.34-.07.58-.21v.82Z" style="fill: #171717;"/>
    <path d="m118.99,309.77h-1.16l-.28-.72c-.1-.26-.2-.46-.28-.58-.08-.12-.16-.2-.24-.23s-.18-.05-.3-.05h-.12v1.58h-1.08v-4.06h1.83c.3,0,.54.07.73.2.19.14.33.3.41.5.08.19.12.38.12.56,0,.21-.04.38-.11.52-.07.14-.14.24-.22.31-.08.06-.16.13-.26.18.12.08.21.17.29.27.07.1.18.32.31.63l.36.88Zm-1.46-2.78c0-.19-.06-.32-.16-.39-.11-.07-.28-.11-.53-.11h-.23v.98h.23c.26,0,.44-.03.54-.1.1-.07.15-.19.15-.38" style="fill: #171717;"/>
    <path d="m120.1,309.77h-.93v-2.98h.93v2.98Zm-.07-3.67c0,.12-.04.23-.12.31-.08.09-.17.13-.28.13-.07,0-.14-.02-.2-.06-.06-.04-.11-.09-.14-.16-.04-.07-.05-.14-.05-.22,0-.12.04-.23.11-.31.08-.09.17-.13.28-.13s.2.04.28.13c.08.09.12.19.12.31" style="fill: #171717;"/>
    <path d="m123.16,307.42h-.46c.16.16.24.36.24.59,0,.12-.02.24-.07.35-.04.11-.11.21-.2.3-.09.09-.2.16-.33.22-.13.06-.28.09-.44.1-.22,0-.32.08-.32.2,0,.05.01.08.04.1.03.02.07.04.13.05.06.01.16.02.3.04.16.02.31.04.44.08.14.04.27.12.38.25.12.12.18.3.18.54,0,.18-.04.35-.13.49-.09.14-.23.25-.43.33-.2.08-.46.12-.78.12-.47,0-.81-.07-1.03-.21-.22-.14-.33-.33-.33-.57,0-.07.01-.14.04-.22.03-.08.09-.17.18-.24.09-.08.23-.13.4-.16-.06-.03-.12-.07-.16-.15-.04-.07-.07-.15-.07-.23,0-.1.03-.21.1-.31.06-.1.16-.17.31-.2-.2-.06-.37-.17-.51-.33-.14-.16-.21-.37-.21-.63,0-.19.03-.37.1-.51.07-.15.16-.27.27-.36.12-.09.25-.16.41-.2.15-.05.32-.07.51-.07h1.44v.64Zm-.84,2.9c0-.13-.06-.21-.18-.25-.12-.04-.25-.06-.38-.06-.21,0-.37.03-.46.08-.1.05-.14.13-.14.25,0,.22.2.33.59.33.18,0,.32-.03.42-.09.11-.06.16-.14.16-.26m-.19-2.4c0-.15-.05-.27-.14-.36-.09-.09-.19-.14-.3-.14-.14,0-.25.06-.34.16-.08.11-.12.23-.12.35,0,.08.02.16.05.23.03.07.08.13.15.17.06.04.14.06.23.06.13,0,.25-.05.33-.14.09-.1.13-.21.13-.34" style="fill: #171717;"/>
    <path d="m126.09,309.77h-.93v-1.55s0-.02,0-.03,0-.03,0-.07c0-.14-.03-.27-.08-.39-.05-.12-.15-.18-.31-.18-.12,0-.22.04-.31.13-.09.09-.17.2-.25.34v1.75h-.93v-4.06h.93v1.51c.15-.19.31-.31.45-.38.15-.07.31-.1.48-.1.63,0,.94.4.94,1.2v1.83Z" style="fill: #171717;"/>
    <path d="m128.51,309.59c-.1.05-.23.1-.4.15-.17.05-.33.07-.49.07-.67,0-1-.37-1-1.11v-1.19h-.42v-.18l1.25-1.44h.11v.89h.89v.73h-.89v.96c0,.11,0,.2.02.27.01.07.04.13.1.17.06.05.14.07.25.07.15,0,.34-.07.58-.21v.82Z" style="fill: #171717;"/>
    <polygon points="78.95 261.25 78.95 256.58 80.01 256.58 80.01 260.22 81.84 260.22 81.84 261.25 78.95 261.25" style="fill: #171717;"/>
    <path d="m82.3,256.44h1.08v.91h-1.08v-.91Zm.01,1.31h1.06v3.49h-1.06v-3.49Z" style="fill: #171717;"/>
    <path d="m84.22,261.25v-3.12c.49-.28,1-.42,1.53-.42.43,0,.78.13,1.03.39s.38.62.38,1.09v2.06h-1.06v-2.24c0-.07,0-.13-.03-.18-.02-.05-.06-.09-.14-.14-.08-.05-.19-.07-.35-.07-.11,0-.21.01-.31.04v2.59h-1.06Z" style="fill: #171717;"/>
    <path d="m87.81,259.53c0-.56.11-1,.34-1.33.23-.33.58-.5,1.07-.5.46,0,.81.16,1.04.49.24.33.36.73.36,1.21,0,.14,0,.26-.02.38h-1.73c0,.16.07.3.2.41.13.11.29.17.46.17.38,0,.7-.09.97-.27v.85c-.33.24-.74.36-1.21.36-.14,0-.27-.01-.39-.04-.12-.02-.25-.08-.39-.16-.14-.08-.26-.18-.35-.31s-.18-.29-.24-.51c-.07-.22-.1-.47-.1-.75m1.08-.48h.69c0-.13-.04-.27-.1-.4-.06-.13-.14-.2-.24-.2s-.18.06-.24.18c-.06.12-.1.26-.1.41" style="fill: #171717;"/>
    <polygon points="44.38 261.25 44.38 256.58 45.42 256.58 46.39 258.17 47.36 256.58 48.4 256.58 48.4 261.25 47.34 261.25 47.34 258.35 46.39 259.9 45.44 258.35 45.44 261.25 44.38 261.25" style="fill: #171717;"/>
    <path d="m49.36,260.83c-.26-.31-.39-.75-.39-1.33s.13-1.02.39-1.33c.26-.31.62-.46,1.09-.46s.84.15,1.09.46c.26.31.38.75.38,1.33s-.13,1.02-.38,1.33c-.26.31-.62.46-1.09.46s-.84-.15-1.09-.46m1.09-2.25c-.28,0-.42.31-.42.92s.14.92.42.92.42-.31.42-.92-.14-.92-.42-.92" style="fill: #171717;"/>
    <path d="m52.32,259.48c0-.57.12-1.01.37-1.31.24-.3.59-.46,1.03-.46.21,0,.34,0,.4.01v-1.3h1.06v3.63c0,.17-.02.32-.05.45-.03.13-.1.26-.19.39-.09.13-.23.23-.41.3-.19.07-.42.1-.69.1-1.01,0-1.52-.61-1.52-1.82m1.06-.04c0,.31.03.57.1.77.06.2.17.31.31.31.11,0,.19-.03.25-.08.05-.05.08-.11.08-.17v-1.78c-.1,0-.17-.01-.2-.01-.18,0-.31.08-.4.26-.09.17-.14.41-.14.71" style="fill: #171717;"/>
    <rect x="56.15" y="260.26" width=".89" height=".98" style="fill: #171717;"/>
    <path d="m7.47,266.23c0,8.88,7.2,16.09,16.08,16.09s16.09-7.2,16.09-16.09-7.2-16.09-16.09-16.09-16.08,7.2-16.08,16.09" style="fill: #171717;"/>
    <path d="m71.69,283.68c-.83,0-1.65.07-2.45.17l-.39-2.21c.93-.12,1.88-.19,2.84-.19s1.91.07,2.84.19l-.39,2.21c-.81-.1-1.62-.17-2.45-.17" style="fill: #171717;"/>
    <path d="m57.2,290.05l-1.73-1.45c1.28-1.4,2.74-2.63,4.34-3.66l1.12,1.94c-1.38.9-2.62,1.96-3.73,3.16" style="fill: #171717;"/>
    <path d="m62.66,285.88l-1.12-1.94c1.67-.87,3.46-1.53,5.34-1.95l.39,2.21c-1.62.37-3.16.94-4.6,1.69" style="fill: #171717;"/>
    <path d="m53.46,295.82l-2.1-.76c.73-1.77,1.69-3.42,2.83-4.92l1.73,1.45c-.98,1.3-1.82,2.71-2.46,4.23" style="fill: #171717;"/>
    <path d="m76.11,284.2l.39-2.21c1.88.42,3.67,1.08,5.34,1.95l-1.12,1.95c-1.44-.75-2.99-1.32-4.6-1.69" style="fill: #171717;"/>
    <path d="m51.97,302.52h-2.26c.08-1.93.41-3.8.96-5.58l2.11.77c-.47,1.53-.73,3.15-.81,4.81" style="fill: #171717;"/>
    <path d="m52.84,309.31l-2.1.77c-.57-1.79-.91-3.66-1.01-5.56h2.23c.09,1.65.39,3.25.88,4.8" style="fill: #171717;"/>
    <path d="m55.98,315.4l-1.72,1.44c-1.15-1.5-2.11-3.14-2.84-4.88l2.1-.77c.64,1.5,1.47,2.91,2.45,4.2" style="fill: #171717;"/>
    <path d="m87.46,291.59l1.73-1.45c1.14,1.5,2.1,3.15,2.83,4.92l-2.1.76c-.64-1.52-1.48-2.93-2.46-4.23" style="fill: #171717;"/>
    <path d="m90.6,297.7l2.11-.77c.55,1.78.88,3.65.96,5.58h-2.26c-.08-1.66-.34-3.28-.81-4.81" style="fill: #171717;"/>
    <path d="m91.42,304.51h2.23c-.09,1.91-.44,3.78-1.01,5.56l-2.1-.77c.48-1.54.78-3.15.88-4.8" style="fill: #171717;"/>
    <path d="m89.85,311.19l2.1.77c-.73,1.74-1.69,3.38-2.84,4.88l-1.72-1.44c.99-1.3,1.81-2.71,2.45-4.2" style="fill: #171717;"/>
    <path d="m61,320.04l-1.12,1.93c-1.61-1.03-3.05-2.24-4.32-3.62l1.71-1.44c1.1,1.18,2.34,2.23,3.73,3.12" style="fill: #171717;"/>
    <path d="m86.11,316.92l1.71,1.44c-1.27,1.37-2.71,2.59-4.32,3.62l-1.12-1.93c1.38-.89,2.62-1.94,3.73-3.12" style="fill: #171717;"/>
    <path d="m82.45,286.89l1.12-1.94c1.6,1.03,3.06,2.26,4.34,3.66l-1.73,1.45c-1.11-1.2-2.36-2.27-3.74-3.17" style="fill: #171717;"/>
    <path d="m38.9,323.33l-.24-46.7h-.13c-2.86,5.68-8.54,8.75-15.09,8.75s-12.26-3.1-15.11-8.8h-.11l.24,46.74c0,8.82,6.81,15.25,15.22,15.25s15.22-6.43,15.22-15.25" style="fill: #171717;"/>
    <path d="m18.05,299.76h-1v-3.15c.1-2.97,2.83-5.3,6.22-5.3s6.06,2.28,6.22,5.2c0,.08,0,.17,0,.26v2.79h-1v-2.79c0-.07,0-.14,0-.2-.12-2.38-2.42-4.25-5.22-4.25s-5.14,1.94-5.22,4.33v3.12Z" style="fill: #fff;"/>
    <path d="m17.77,302.31h1.62c.4,0,.72-.32.72-.72v-3.58c0-.4-.32-.72-.72-.72h-1.62c-.4,0-.72.32-.72.72v3.58c0,.4.32.72.72.72" style="fill: #fff;"/>
    <path d="m27.16,302.31h1.62c.4,0,.72-.32.72-.72v-3.58c0-.4-.32-.72-.72-.72h-1.62c-.4,0-.72.32-.72.72v3.58c0,.4.32.72.72.72" style="fill: #fff;"/>
    <path d="m30.05,298.6c-.07-.04-.13,0-.13.08v2.17c0,.08.06.11.13.08l.55-.28c.07-.04.13-.13.13-.21v-1.34c0-.08-.06-.17-.13-.21l-.55-.29Z" style="fill: #fff;"/>
    <path d="m16.46,298.6c.07-.04.13,0,.13.07v2.17c0,.08-.06.12-.13.08l-.52-.23c-.07-.03-.13-.12-.13-.2v-1.38c0-.08.06-.17.13-.21l.53-.3Z" style="fill: #fff;"/>
    <g>
      <path d="m44.16,354.72h-4.69v-7.44h1.86v5.66h2.83v1.78Z" style="fill: #171717;"/>
      <path d="m47.12,354.72h-1.86v-7.44h1.86v7.44Z" style="fill: #171717;"/>
      <path d="m53,352.56c0,.47-.1.87-.3,1.21-.2.34-.47.6-.83.78-.35.18-.76.27-1.22.27-.13,0-.28,0-.47-.03s-.43-.07-.74-.16-.63-.22-.96-.4v-1.83c.31.23.62.43.92.58.3.15.62.23.97.23.32,0,.52-.06.62-.19.09-.13.14-.25.14-.36,0-.2-.08-.37-.24-.51-.16-.14-.39-.28-.7-.43-.34-.17-.64-.36-.89-.56-.26-.2-.46-.46-.63-.76-.16-.3-.24-.66-.24-1.08s.08-.76.25-1.09c.16-.32.41-.58.75-.78.34-.19.75-.29,1.23-.29.34,0,.66.04.96.12.29.08.53.17.72.27.19.1.32.18.39.24v1.75c-.25-.22-.53-.41-.84-.58s-.64-.26-1-.26c-.23,0-.4.05-.5.16s-.16.24-.16.4c0,.15.05.27.16.38s.29.24.56.39c.48.27.86.51,1.14.72s.51.46.67.74.24.63.24,1.05Z" style="fill: #171717;"/>
      <path d="m60.19,349.09h-2.26v5.63h-1.86v-5.63h-2.26v-1.81h6.39v1.81Z" style="fill: #171717;"/>
      <path d="m65.93,354.72h-4.66v-7.44h4.58v1.49h-2.72v1.36h2.59v1.5h-2.59v1.59h2.79v1.5Z" style="fill: #171717;"/>
      <path d="m73.89,354.72h-1.66l-3.21-4.15v4.15h-1.85v-7.44h1.65l3.2,4.12v-4.12h1.86v7.44Z" style="fill: #171717;"/>
      <path d="m82.58,351.71h-2.56v3.01h-1.86v-7.44h4.43v1.49h-2.56v1.44h2.56v1.5Z" style="fill: #171717;"/>
      <path d="m90.44,350.99c0,.69-.13,1.33-.4,1.92-.27.58-.66,1.05-1.19,1.39s-1.17.52-1.92.52-1.41-.18-1.94-.54c-.53-.36-.92-.83-1.18-1.41-.26-.58-.39-1.21-.39-1.87s.13-1.29.38-1.88.65-1.05,1.18-1.41c.53-.36,1.18-.54,1.94-.54.57,0,1.08.1,1.53.31s.82.48,1.1.83c.29.35.51.75.66,1.22s.22.95.22,1.46Zm-1.9,0c0-.28-.04-.53-.1-.77-.07-.23-.17-.43-.31-.6-.14-.17-.31-.3-.51-.4s-.43-.14-.69-.14c-.5,0-.89.18-1.18.53-.29.35-.43.81-.43,1.38s.14,1.03.43,1.38c.29.35.68.53,1.17.53.34,0,.63-.08.87-.24.24-.16.42-.39.55-.68s.19-.62.19-.99Z" style="fill: #171717;"/>
      <path d="m98.04,351.39c0,.64-.1,1.18-.3,1.63-.2.45-.46.8-.79,1.07-.33.26-.68.45-1.05.56s-.75.17-1.13.17c-.52,0-1.03-.11-1.53-.32-.5-.21-.91-.58-1.24-1.1s-.5-1.19-.5-2.01v-4.11h1.86v3.53c0,.49.06.9.18,1.22s.28.56.49.7c.21.15.46.22.74.22s.52-.07.73-.22c.21-.15.38-.38.49-.7.12-.32.18-.72.18-1.21v-3.54h1.86v4.11Z" style="fill: #171717;"/>
      <path d="m105.49,354.72h-2l-.49-1.32c-.18-.48-.34-.84-.48-1.06s-.28-.37-.42-.43c-.13-.06-.31-.09-.52-.09h-.21v2.91h-1.86v-7.44h3.17c.51,0,.93.12,1.26.38.33.25.56.55.71.91.14.36.22.7.22,1.02,0,.38-.06.69-.18.95-.12.26-.25.45-.38.57s-.28.23-.45.34c.2.14.36.31.49.5.13.19.31.58.53,1.16l.62,1.62Zm-2.53-5.09c0-.34-.09-.58-.28-.72s-.49-.2-.91-.2h-.39v1.79h.4c.46,0,.77-.06.93-.18s.25-.35.25-.69Z" style="fill: #171717;"/>
    </g>
    <path d="m38.8,174.89h-2.99v-4.74h1.19v3.6h1.8v1.13Z" style="fill: #171717;"/>
    <path d="m51.4,174.89h-1.27l-.31-.84c-.11-.31-.22-.53-.31-.68-.09-.14-.18-.23-.27-.27-.09-.04-.2-.06-.33-.06h-.13v1.85h-1.19v-4.74h2.02c.33,0,.59.08.8.24s.36.35.45.58.14.44.14.65c0,.24-.04.44-.11.61-.08.17-.16.29-.24.36s-.18.15-.29.22c.13.09.23.19.31.32.08.12.19.37.34.74l.4,1.03Zm-1.61-3.24c0-.22-.06-.37-.18-.46s-.31-.13-.58-.13h-.25v1.14h.25c.29,0,.49-.04.59-.11.11-.08.16-.22.16-.44Z" style="fill: #171717;"/>
    <path d="m38.8,232.49h-2.99v-4.74h1.19v3.6h1.8v1.13Z" style="fill: #171717;"/>
    <path d="m51.4,232.49h-1.27l-.31-.84c-.11-.31-.22-.53-.31-.67-.09-.14-.18-.23-.27-.27s-.2-.06-.33-.06h-.13v1.85h-1.19v-4.74h2.02c.33,0,.59.08.8.24s.36.35.45.58.14.44.14.65c0,.24-.04.44-.11.61s-.16.29-.24.36-.18.15-.29.22c.13.09.23.19.31.32.08.12.19.37.34.74l.4,1.03Zm-1.61-3.24c0-.22-.06-.37-.18-.46s-.31-.13-.58-.13h-.25v1.14h.25c.29,0,.49-.04.59-.11.11-.08.16-.22.16-.44Z" style="fill: #171717;"/>
    <g>
      <path d="m103.3,83.97h-3.84v-6.09h1.52v4.63h2.32v1.46Z" style="fill: #171717;"/>
      <path d="m107.78,82.12h-2.62c.05.27.18.5.38.67.2.17.42.26.68.26.44,0,.93-.15,1.47-.45v.98c-.19.12-.42.23-.7.33-.27.1-.62.15-1.05.15-.46,0-.85-.1-1.17-.31-.32-.21-.56-.48-.72-.83-.16-.35-.24-.75-.24-1.2s.08-.83.24-1.18c.16-.35.4-.62.72-.82.32-.2.71-.3,1.17-.3.3,0,.59.08.87.23.28.16.51.41.69.77.18.36.27.82.27,1.38v.32Zm-1.23-.78c0-.29-.06-.52-.18-.69s-.29-.26-.51-.26-.4.09-.53.26c-.13.17-.2.4-.2.68h1.42Z" style="fill: #171717;"/>
      <path d="m112.34,79.5l-1.69,4.47h-.97l-1.65-4.47h1.41l.77,2.34.85-2.34h1.28Z" style="fill: #171717;"/>
      <path d="m116.48,82.12h-2.62c.05.27.18.5.38.67.2.17.42.26.68.26.44,0,.93-.15,1.47-.45v.98c-.19.12-.42.23-.7.33-.27.1-.62.15-1.05.15-.46,0-.85-.1-1.17-.31-.32-.21-.56-.48-.72-.83-.16-.35-.24-.75-.24-1.2s.08-.83.24-1.18c.16-.35.4-.62.72-.82.32-.2.71-.3,1.17-.3.3,0,.59.08.87.23.28.16.51.41.69.77.18.36.27.82.27,1.38v.32Zm-1.23-.78c0-.29-.06-.52-.18-.69s-.29-.26-.51-.26-.4.09-.53.26c-.13.17-.2.4-.2.68h1.42Z" style="fill: #171717;"/>
      <path d="m118.51,83.97h-1.32v-6.09h1.32v6.09Z" style="fill: #171717;"/>
      <path d="m124.12,83.97h-1.38v-6.09h1.38v6.09Z" style="fill: #171717;"/>
    </g>
    <g>
      <path d="m103.3,141.59h-3.84v-6.09h1.52v4.63h2.32v1.46Z" style="fill: #171717;"/>
      <path d="m107.78,139.73h-2.62c.05.27.18.5.38.67.2.17.42.26.68.26.44,0,.93-.15,1.47-.45v.98c-.19.12-.42.23-.7.33-.27.1-.62.15-1.05.15-.46,0-.85-.1-1.17-.31-.32-.21-.56-.48-.72-.83-.16-.35-.24-.75-.24-1.2s.08-.83.24-1.18c.16-.35.4-.62.72-.82.32-.2.71-.3,1.17-.3.3,0,.59.08.87.23.28.16.51.41.69.77.18.36.27.82.27,1.38v.32Zm-1.23-.78c0-.29-.06-.52-.18-.69s-.29-.26-.51-.26-.4.09-.53.26c-.13.17-.2.4-.2.68h1.42Z" style="fill: #171717;"/>
      <path d="m112.34,137.12l-1.69,4.47h-.97l-1.65-4.47h1.41l.77,2.34.85-2.34h1.28Z" style="fill: #171717;"/>
      <path d="m116.48,139.73h-2.62c.05.27.18.5.38.67.2.17.42.26.68.26.44,0,.93-.15,1.47-.45v.98c-.19.12-.42.23-.7.33-.27.1-.62.15-1.05.15-.46,0-.85-.1-1.17-.31-.32-.21-.56-.48-.72-.83-.16-.35-.24-.75-.24-1.2s.08-.83.24-1.18c.16-.35.4-.62.72-.82.32-.2.71-.3,1.17-.3.3,0,.59.08.87.23.28.16.51.41.69.77.18.36.27.82.27,1.38v.32Zm-1.23-.78c0-.29-.06-.52-.18-.69s-.29-.26-.51-.26-.4.09-.53.26c-.13.17-.2.4-.2.68h1.42Z" style="fill: #171717;"/>
      <path d="m118.51,141.59h-1.32v-6.09h1.32v6.09Z" style="fill: #171717;"/>
      <path d="m125.36,141.59h-3.84v-.12c.15-.17.31-.38.49-.62s.41-.56.69-.95c.13-.18.25-.35.36-.53s.21-.34.29-.5.15-.34.2-.54.08-.4.08-.6c0-.28-.07-.51-.2-.68-.13-.17-.31-.26-.52-.26-.41,0-.82.26-1.23.77v-1.44c.14-.11.26-.2.35-.27s.2-.13.32-.2.26-.12.43-.17c.17-.05.34-.07.54-.07.31,0,.59.08.84.23.25.15.45.37.6.65s.22.62.22,1c0,.27-.03.52-.1.76-.07.23-.13.42-.2.57-.07.14-.17.32-.28.53-.21.38-.43.73-.67,1.07h1.64v1.37Z" style="fill: #171717;"/>
    </g>
    <g>
      <path d="m103.3,199.4h-3.84v-6.09h1.52v4.63h2.32v1.46Z" style="fill: #171717;"/>
      <path d="m107.78,197.54h-2.62c.05.27.18.5.38.67.2.17.42.26.68.26.44,0,.93-.15,1.47-.45v.98c-.19.12-.42.23-.7.33-.27.1-.62.15-1.05.15-.46,0-.85-.1-1.17-.31-.32-.21-.56-.48-.72-.83-.16-.35-.24-.75-.24-1.2s.08-.83.24-1.18c.16-.35.4-.62.72-.82.32-.2.71-.3,1.17-.3.3,0,.59.08.87.24.28.16.51.41.69.77.18.36.27.82.27,1.38v.32Zm-1.23-.78c0-.29-.06-.52-.18-.69-.12-.17-.29-.26-.51-.26s-.4.09-.53.26c-.13.17-.2.4-.2.68h1.42Z" style="fill: #171717;"/>
      <path d="m112.34,194.92l-1.69,4.47h-.97l-1.65-4.47h1.41l.77,2.34.85-2.34h1.28Z" style="fill: #171717;"/>
      <path d="m116.48,197.54h-2.62c.05.27.18.5.38.67.2.17.42.26.68.26.44,0,.93-.15,1.47-.45v.98c-.19.12-.42.23-.7.33-.27.1-.62.15-1.05.15-.46,0-.85-.1-1.17-.31-.32-.21-.56-.48-.72-.83-.16-.35-.24-.75-.24-1.2s.08-.83.24-1.18c.16-.35.4-.62.72-.82.32-.2.71-.3,1.17-.3.3,0,.59.08.87.24.28.16.51.41.69.77.18.36.27.82.27,1.38v.32Zm-1.23-.78c0-.29-.06-.52-.18-.69-.12-.17-.29-.26-.51-.26s-.4.09-.53.26c-.13.17-.2.4-.2.68h1.42Z" style="fill: #171717;"/>
      <path d="m118.51,199.4h-1.32v-6.09h1.32v6.09Z" style="fill: #171717;"/>
      <path d="m125.05,197.7c0,.32-.05.59-.16.82-.1.23-.24.41-.41.55-.17.14-.35.25-.54.31-.19.06-.38.09-.56.09-.25,0-.54-.04-.85-.13-.31-.09-.57-.19-.78-.31v-1.37c.17.17.35.31.55.43.2.12.4.17.61.17.16,0,.29-.04.4-.11s.19-.16.24-.27c.05-.11.08-.22.08-.34,0-.16-.03-.29-.1-.41-.07-.12-.17-.22-.29-.29-.13-.07-.28-.11-.45-.11h-.17v-.98h.19c.17,0,.31-.04.42-.12.11-.08.19-.17.24-.28.05-.11.07-.21.07-.31,0-.18-.06-.35-.18-.49-.12-.14-.27-.21-.46-.21-.17,0-.34.04-.52.11-.18.08-.35.18-.51.31v-1.17c.24-.12.46-.21.67-.28.21-.07.45-.1.71-.1.38,0,.7.09.96.27.26.18.44.39.56.65.12.25.18.49.18.71,0,.18-.03.36-.1.54s-.15.34-.26.48c-.11.14-.22.25-.33.33.2.13.38.31.54.54.16.23.23.55.23.96Z" style="fill: #171717;"/>
    </g>
    <g>
      <path d="m57.17,69.19c0,.23-.03.45-.1.66s-.17.42-.31.6c-.14.19-.34.34-.58.45-.24.12-.53.17-.86.17h-1v2.29h-1.52v-6.09h2.52c.33,0,.62.06.86.18.24.12.44.27.58.46s.25.39.31.61.1.44.1.67Zm-1.55,0c0-.29-.07-.49-.21-.6-.14-.11-.4-.16-.76-.16h-.32v1.47h.33c.25,0,.45-.02.58-.06s.23-.11.3-.21c.06-.1.09-.25.09-.44Z" style="fill: #171717;"/>
      <path d="m61.44,73.14c-.19.09-.37.16-.53.22-.16.06-.36.08-.59.08-.22,0-.37-.05-.45-.14-.09-.09-.15-.2-.18-.34-.14.14-.3.25-.47.34-.17.09-.4.13-.68.13s-.49-.06-.65-.17c-.17-.11-.28-.25-.35-.43s-.1-.35-.1-.53c0-.28.06-.5.17-.68.12-.18.27-.33.46-.44s.45-.23.77-.36c.18-.07.32-.12.41-.16.09-.04.16-.06.21-.09s.09-.05.15-.08c0-.22-.04-.39-.11-.51-.07-.12-.23-.18-.47-.18-.29,0-.55.08-.8.23s-.47.35-.67.59v-1.21c.16-.14.34-.26.53-.35.19-.09.39-.16.59-.2.21-.04.42-.07.63-.07.54,0,.94.12,1.21.38s.41.6.41,1.04v1.73c0,.16.01.29.04.37.03.08.07.12.14.12.08,0,.19-.04.34-.13v.83Zm-1.83-.86v-1.06c-.31.15-.54.29-.68.41-.14.12-.22.29-.22.49,0,.15.04.26.11.34.07.08.15.12.25.12s.18-.03.27-.09c.09-.06.18-.13.27-.22Z" style="fill: #171717;"/>
      <path d="m65.92,73.36h-1.31v-2.41c0-.25-.03-.46-.1-.64-.07-.18-.21-.27-.44-.27-.11,0-.2.02-.28.07s-.15.11-.22.19-.12.15-.16.22c-.04.07-.09.15-.14.22v2.63h-1.31v-4.47h1.31v.64c.21-.27.41-.45.62-.56.21-.11.44-.16.69-.16.89,0,1.33.64,1.33,1.92v2.63Z" style="fill: #171717;"/>
      <path d="m71.41,73.36h-1.38v-6.09h1.38v6.09Z" style="fill: #171717;"/>
    </g>
    <path d="m44.76,186.65c0,.32-.05.59-.16.82-.1.23-.24.41-.41.55-.17.14-.35.25-.55.31-.19.06-.38.09-.56.09-.26,0-.54-.04-.85-.13-.31-.09-.57-.19-.78-.31v-1.37c.17.17.35.31.55.43.2.12.4.17.61.17.16,0,.29-.04.4-.11.11-.07.19-.16.24-.27.05-.11.08-.22.08-.34,0-.16-.03-.29-.1-.41-.07-.12-.17-.22-.3-.29-.13-.07-.28-.11-.45-.11h-.16v-.98h.19c.17,0,.31-.04.42-.12.11-.08.19-.17.24-.28.05-.11.07-.21.07-.31,0-.18-.06-.35-.18-.49-.12-.14-.27-.21-.46-.21-.17,0-.34.04-.52.11-.18.08-.35.18-.51.31v-1.17c.24-.12.46-.21.67-.28.21-.07.45-.1.71-.1.38,0,.7.09.96.27.26.18.44.4.56.65.12.25.18.49.18.71,0,.18-.03.36-.1.54-.07.18-.15.34-.26.48-.11.14-.22.25-.33.33.2.13.38.31.54.54s.23.55.23.96Z" style="fill: #fff;"/>
    <path d="m47.43,249.06c3.22,0,5.84-2.61,5.84-5.84s-2.61-5.84-5.84-5.84h-8.96c-3.22,0-5.84,2.61-5.84,5.84s2.61,5.84,5.84,5.84h8.96Z" style="fill: #171717;"/>
    <path d="m45.09,244.63h-.6v1.31h-1.35v-1.31h-2.05v-1.16l2.32-3.62h1.08v3.73h.6v1.05Zm-1.94-1.05v-1.95l-1.25,1.95h1.25Z" style="fill: #fff;"/>
    <path d="m27.63,76.26c3.22,0,5.84-2.61,5.84-5.84s-2.61-5.84-5.84-5.84h-8.96c-3.22,0-5.84,2.61-5.84,5.84s2.61,5.84,5.84,5.84h8.96Z" style="fill: #171717;"/>
    <path d="m24.03,73.14h-1.38v-6.09h1.38v6.09Z" style="fill: #fff;"/>
    <path d="m27.63,133.86c3.22,0,5.84-2.61,5.84-5.84s-2.61-5.84-5.84-5.84h-8.96c-3.22,0-5.84,2.61-5.84,5.84s2.61,5.84,5.84,5.84h8.96Z" style="fill: #171717;"/>
    <path d="m25.27,130.75h-3.84v-.12c.15-.17.31-.38.49-.62.18-.24.41-.56.69-.95.13-.18.25-.35.36-.53.11-.17.21-.34.29-.5s.15-.34.2-.54c.06-.2.08-.4.08-.6,0-.28-.07-.51-.2-.68-.13-.17-.31-.26-.52-.26-.41,0-.82.26-1.23.77v-1.44c.14-.11.26-.2.35-.27s.2-.13.32-.2c.12-.06.26-.12.43-.17.17-.05.34-.07.54-.07.31,0,.59.08.84.23.25.15.45.37.6.65.14.29.22.62.22,1,0,.27-.03.52-.1.76-.07.23-.13.42-.2.57s-.16.32-.28.53c-.21.38-.43.73-.67,1.07h1.64v1.37Z" style="fill: #fff;"/>
    <g>
      <path d="m103.3,256.95h-3.84v-6.09h1.52v4.63h2.32v1.46Z" style="fill: #171717;"/>
      <path d="m107.78,255.1h-2.62c.05.27.18.5.38.67.2.17.42.26.68.26.44,0,.93-.15,1.47-.45v.98c-.19.12-.42.23-.7.33-.27.1-.62.15-1.05.15-.46,0-.85-.1-1.17-.31-.32-.21-.56-.48-.72-.83-.16-.35-.24-.75-.24-1.2s.08-.83.24-1.18c.16-.35.4-.62.72-.82.32-.2.71-.3,1.17-.3.3,0,.59.08.87.24.28.16.51.41.69.77.18.36.27.82.27,1.38v.32Zm-1.23-.78c0-.29-.06-.52-.18-.69-.12-.17-.29-.26-.51-.26s-.4.09-.53.26c-.13.17-.2.4-.2.68h1.42Z" style="fill: #171717;"/>
      <path d="m112.34,252.48l-1.69,4.47h-.97l-1.65-4.47h1.41l.77,2.34.85-2.34h1.28Z" style="fill: #171717;"/>
      <path d="m116.49,255.1h-2.62c.05.27.18.5.38.67.2.17.42.26.68.26.44,0,.93-.15,1.47-.45v.98c-.19.12-.42.23-.7.33-.27.1-.62.15-1.05.15-.46,0-.85-.1-1.17-.31-.32-.21-.56-.48-.72-.83-.16-.35-.24-.75-.24-1.2s.08-.83.24-1.18c.16-.35.4-.62.72-.82.32-.2.71-.3,1.17-.3.3,0,.59.08.87.24.28.16.51.41.69.77.18.36.27.82.27,1.38v.32Zm-1.23-.78c0-.29-.06-.52-.18-.69-.12-.17-.29-.26-.51-.26s-.4.09-.53.26c-.13.17-.2.4-.2.68h1.42Z" style="fill: #171717;"/>
      <path d="m118.51,256.95h-1.32v-6.09h1.32v6.09Z" style="fill: #171717;"/>
      <path d="m125.39,255.64h-.6v1.31h-1.35v-1.31h-2.05v-1.16l2.32-3.62h1.08v3.73h.6v1.05Zm-1.94-1.05v-1.95l-1.25,1.95h1.25Z" style="fill: #171717;"/>
    </g>
    <g>
      <path d="m57.18,126.79c0,.23-.03.45-.1.66s-.17.42-.31.6c-.14.19-.34.34-.58.45-.24.12-.53.17-.86.17h-1v2.29h-1.52v-6.09h2.52c.33,0,.62.06.86.18.24.12.44.27.58.46s.25.39.31.61.1.44.1.67Zm-1.55,0c0-.29-.07-.49-.21-.6-.14-.11-.4-.16-.76-.16h-.32v1.47h.33c.25,0,.45-.02.58-.06s.23-.11.3-.21c.06-.1.09-.25.09-.44Z" style="fill: #171717;"/>
      <path d="m61.44,130.74c-.19.09-.37.16-.53.22-.16.06-.36.08-.59.08-.22,0-.37-.05-.45-.14-.09-.09-.15-.2-.18-.34-.14.14-.3.25-.47.34-.17.09-.4.13-.68.13s-.49-.06-.65-.17c-.17-.11-.28-.25-.35-.43s-.1-.35-.1-.53c0-.28.06-.5.17-.68.12-.18.27-.33.46-.44s.45-.23.77-.36c.18-.07.32-.12.41-.16.09-.04.16-.06.21-.09s.09-.05.15-.08c0-.22-.04-.39-.11-.51-.07-.12-.23-.18-.47-.18-.29,0-.55.08-.8.23s-.47.35-.67.59v-1.21c.16-.14.34-.26.53-.35.19-.09.39-.16.59-.2.21-.04.42-.07.63-.07.54,0,.94.12,1.21.38s.41.6.41,1.04v1.73c0,.16.01.29.04.37.03.08.07.12.14.12.08,0,.19-.04.34-.13v.83Zm-1.83-.86v-1.06c-.31.15-.54.29-.68.41-.14.12-.22.29-.22.49,0,.15.04.26.11.34.07.08.15.12.25.12s.18-.03.27-.09c.09-.06.18-.13.27-.22Z" style="fill: #171717;"/>
      <path d="m65.92,130.96h-1.31v-2.41c0-.25-.03-.46-.1-.64-.07-.18-.21-.27-.44-.27-.11,0-.2.02-.28.07s-.15.11-.22.19-.12.15-.16.22c-.04.07-.09.15-.14.22v2.63h-1.31v-4.47h1.31v.64c.21-.27.41-.45.62-.56.21-.11.44-.16.69-.16.89,0,1.33.64,1.33,1.92v2.63Z" style="fill: #171717;"/>
      <path d="m72.66,130.96h-3.84v-.12c.15-.17.31-.38.49-.62.18-.24.41-.56.69-.95.13-.18.25-.35.36-.53.11-.17.21-.34.29-.5s.15-.34.2-.54c.06-.2.08-.4.08-.6,0-.28-.07-.51-.2-.68-.13-.17-.31-.26-.52-.26-.41,0-.82.26-1.23.77v-1.44c.14-.11.26-.2.35-.27s.2-.13.32-.2c.12-.06.26-.12.43-.17.17-.05.34-.07.54-.07.31,0,.59.08.84.23.25.15.45.37.6.65s.22.62.22,1c0,.27-.03.52-.1.76-.07.23-.13.42-.2.57-.07.14-.17.32-.28.53-.21.38-.43.73-.67,1.07h1.64v1.37Z" style="fill: #171717;"/>
    </g>
    <path d="m111.98,75.44c-2.93,0-5.82-.79-8.36-2.28-11.65-6.86-25.01-10.48-38.62-10.48H23.14c-9.1,0-16.5-7.4-16.5-16.5s7.4-16.5,16.5-16.5h41.86c19.5,0,38.64,5.2,55.36,15.05,3.8,2.24,6.5,5.82,7.6,10.08,1.1,4.27.48,8.71-1.75,12.51-2.95,5.02-8.41,8.13-14.23,8.13ZM23.14,30.67c-8.55,0-15.5,6.95-15.5,15.5s6.95,15.5,15.5,15.5h41.86c13.79,0,27.32,3.67,39.13,10.62,2.39,1.4,5.1,2.15,7.85,2.15,5.47,0,10.6-2.93,13.37-7.64,2.1-3.57,2.68-7.74,1.65-11.75-1.04-4.01-3.57-7.37-7.14-9.47-16.57-9.75-35.54-14.91-54.86-14.91H23.14Z" style="fill: #171717;"/>
    <path d="m111.98,133.04c-2.93,0-5.82-.79-8.36-2.28-11.65-6.86-25.01-10.48-38.62-10.48H23.14c-9.1,0-16.5-7.4-16.5-16.5s7.4-16.5,16.5-16.5h41.86c19.5,0,38.64,5.2,55.36,15.05,3.8,2.24,6.5,5.82,7.6,10.08,1.1,4.27.48,8.71-1.75,12.51-2.95,5.02-8.41,8.13-14.23,8.13ZM23.14,88.27c-8.55,0-15.5,6.95-15.5,15.5s6.95,15.5,15.5,15.5h41.86c13.79,0,27.32,3.67,39.13,10.62,2.39,1.4,5.1,2.15,7.85,2.15,5.47,0,10.6-2.93,13.37-7.64,2.1-3.57,2.68-7.74,1.65-11.75-1.04-4.01-3.57-7.37-7.14-9.47-16.57-9.75-35.54-14.91-54.86-14.91H23.14Z" style="fill: #171717;"/>
    <path d="m111.98,190.64c-2.93,0-5.82-.79-8.36-2.28-11.65-6.86-25.01-10.48-38.62-10.48H23.14c-9.1,0-16.5-7.4-16.5-16.5s7.4-16.5,16.5-16.5h41.86c19.5,0,38.64,5.2,55.36,15.04,3.8,2.24,6.5,5.82,7.6,10.08,1.1,4.27.48,8.71-1.75,12.51-2.95,5.02-8.41,8.13-14.23,8.13Zm-88.84-44.77c-8.55,0-15.5,6.95-15.5,15.5s6.95,15.5,15.5,15.5h41.86c13.79,0,27.32,3.67,39.13,10.62,2.38,1.4,5.1,2.14,7.85,2.14,5.47,0,10.6-2.93,13.37-7.64,2.1-3.57,2.68-7.74,1.65-11.75s-3.57-7.37-7.14-9.47c-16.57-9.75-35.54-14.91-54.86-14.91H23.14Z" style="fill: #171717;"/>
    <path d="m111.98,248.24c-2.93,0-5.82-.79-8.36-2.28-11.65-6.86-25.01-10.48-38.62-10.48H23.14c-9.1,0-16.5-7.4-16.5-16.5s7.4-16.5,16.5-16.5h41.86c19.5,0,38.64,5.2,55.36,15.04,7.84,4.62,10.46,14.75,5.85,22.59-2.95,5.02-8.41,8.13-14.23,8.13Zm-88.84-44.77c-8.55,0-15.5,6.95-15.5,15.5s6.95,15.5,15.5,15.5h41.86c13.79,0,27.32,3.67,39.13,10.62,2.38,1.4,5.1,2.14,7.85,2.14,5.47,0,10.6-2.93,13.37-7.64,4.33-7.37,1.87-16.88-5.5-21.22-16.57-9.75-35.54-14.91-54.86-14.91H23.14Z" style="fill: #171717;"/>
    <path d="m64.71,30.26c0,1.19-.97,2.16-2.16,2.16s-2.16-.97-2.16-2.16.97-2.16,2.16-2.16,2.16.97,2.16,2.16" style="fill: #171717;"/>
    <path d="m62.55,33.04c-1.54,0-2.78-1.25-2.78-2.79s1.25-2.78,2.78-2.78,2.79,1.25,2.79,2.78-1.25,2.79-2.79,2.79Zm0-4.32c-.85,0-1.53.69-1.53,1.53s.69,1.54,1.53,1.54,1.54-.69,1.54-1.54-.69-1.53-1.54-1.53Z" style="fill: #ededed;"/>
    <path d="m64.71,87.86c0,1.19-.97,2.16-2.16,2.16s-2.16-.97-2.16-2.16.97-2.16,2.16-2.16,2.16.97,2.16,2.16" style="fill: #171717;"/>
    <path d="m62.55,90.64c-1.54,0-2.78-1.25-2.78-2.79s1.25-2.78,2.78-2.78,2.79,1.25,2.79,2.78-1.25,2.79-2.79,2.79Zm0-4.32c-.85,0-1.53.69-1.53,1.53s.69,1.54,1.53,1.54,1.54-.69,1.54-1.54-.69-1.53-1.54-1.53Z" style="fill: #ededed;"/>
    <rect x="37.81" y="161.02" width="7.45" height="1" style="fill: #171717;"/>
    <polygon points="44.53 164.01 48.85 161.52 44.53 159.02 44.53 164.01" style="fill: #171717;"/>
    <rect x="37.81" y="218.62" width="7.45" height="1" style="fill: #171717;"/>
    <polygon points="44.53 221.61 48.85 219.12 44.53 216.62 44.53 221.61" style="fill: #171717;"/>
  </g>
  <g id="components">
    <circle id="Out_Right" data-name="Out Right" cx="122.02" cy="326.07" r="11.34" style="fill: blue;"/>
    <circle id="Out_Left" data-name="Out Left" cx="122.02" cy="282.83" r="11.34" style="fill: blue;"/>
    <circle id="Out_R_LED" data-name="Out R LED" cx="98.07" cy="316.53" r="4.25" style="fill: #f0f;"/>
    <circle id="Out_L_LED" data-name="Out L LED" cx="98.07" cy="284.23" r="4.25" style="fill: #f0f;"/>
    <circle id="Main_Level" data-name="Main Level" cx="71.7" cy="302.94" r="17.01" style="fill: #ff0070;"/>
    <circle id="Headphone_Level" data-name="Headphone Level" cx="23.27" cy="318.85" r="8.5" style="fill: #ff0070;"/>
    <rect id="Mod._Line" data-name="Mod. | Line" x="60.18" y="253.94" width="14.17" height="8.5" style="fill: #ff8080;"/>
    <circle id="Headphone_Out" data-name="Headphone Out" cx="23.64" cy="266.4" r="11.34" style="fill: blue;"/>
    <circle id="Level_4" data-name="Level 4" cx="111.89" cy="232.15" r="17.01" style="fill: #ff0070;"/>
    <circle id="Level_4_LED" data-name="Level 4 LED" cx="87.38" cy="221.73" r="4.25" style="fill: #f0f;"/>
    <circle id="In_4_R" data-name="In 4 R" cx="62.91" cy="219.12" r="11.34" style="fill: lime;"/>
    <circle id="In_4_L" data-name="In 4 L" cx="23.31" cy="219.12" r="11.34" style="fill: lime;"/>
    <circle id="Level_3" data-name="Level 3" cx="111.89" cy="174.29" r="17.01" style="fill: #ff0070;"/>
    <circle id="Level_3_LED" data-name="Level 3 LED" cx="87.38" cy="163.03" r="4.25" style="fill: #f0f;"/>
    <circle id="In_3_R" data-name="In 3 R" cx="62.91" cy="161.52" r="11.34" style="fill: lime;"/>
    <circle id="In_3_L" data-name="In 3 L" cx="23.31" cy="161.52" r="11.34" style="fill: lime;"/>
    <circle id="Level_2" data-name="Level 2" cx="111.89" cy="116.69" r="17.01" style="fill: #ff0070;"/>
    <circle id="Level_2_LED" data-name="Level 2 LED" cx="87.38" cy="105.8" r="4.25" style="fill: #f0f;"/>
    <circle id="Pan_2" data-name="Pan 2" cx="62.33" cy="103.86" r="8.5" style="fill: #ff0040;"/>
    <circle id="In_2" data-name="In 2" cx="23.31" cy="103.92" r="11.34" style="fill: lime;"/>
    <circle id="Level_1" data-name="Level 1" cx="111.89" cy="59.09" r="17.01" style="fill: #ff0070;"/>
    <circle id="Level_1_LED" data-name="Level 1 LED" cx="87.38" cy="46.17" r="4.25" style="fill: #f0f;"/>
    <circle id="Pan_1" data-name="Pan 1" cx="62.33" cy="46.17" r="8.5" style="fill: #ff0040;"/>
    <circle id="In_1" data-name="In 1" cx="23.31" cy="46.17" r="11.34" style="fill: lime;"/>
    <text id="slug" transform="translate(115.29 369.31)" style="font-family: MyriadPro-Regular, &apos;Myriad Pro&apos;; font-size: 3px;"><tspan x="0" y="0">L4</tspan></text>
    <text id="modulename" transform="translate(129.47 369.31)" style="font-family: MyriadPro-Regular, &apos;Myriad Pro&apos;; font-size: 3px;"><tspan x="0" y="0">Lis</tspan><tspan x="3.31" y="0" style="letter-spacing: 0em;">t</tspan><tspan x="4.28" y="0">en </tspan><tspan x="8.08" y="0" style="letter-spacing: -.03em;">F</tspan><tspan x="9.45" y="0" style="letter-spacing: 0em;">our</tspan></text>
  </g>
</svg>