<?xml version="1.0" encoding="UTF-8"?>
<svg xmlns="http://www.w3.org/2000/svg" width="20.32mm" height="130.55mm" viewBox="0 0 57.6 370.07">
  <g id="faceplate">
    <g>
      <rect x=".12" y=".12" width="57.35" height="364" style="fill: #ededed; stroke-width: 0px;"/>
      <path d="M57.35.25v363.75H.25V.25h57.1M57.6,0H0v364.25h57.6V0h0Z" style="fill: #9d9d9e; stroke-width: 0px;"/>
    </g>
    <path d="M44.39,261.05c0-8.08-6.98-14.63-15.59-14.63s-15.59,6.55-15.59,14.63v55.1s0,0,0,0v19.84c0,3.12,2.55,5.67,5.67,5.67h19.84c3.12,0,5.67-2.55,5.67-5.67v-19.84s0,0,0,0v-55.1Z" style="fill: #000; stroke-width: 0px;"/>
    <path d="M28.8,152.09c8.02,0,14.54,6.04,14.54,13.46v149.65c0,7.42-6.52,13.46-14.54,13.46s-14.54-6.04-14.54-13.46v-149.65c0-7.42,6.52-13.46,14.54-13.46M28.8,151.04c-8.61,0-15.59,6.5-15.59,14.51v149.65c0,8.01,6.98,14.51,15.59,14.51s15.59-6.5,15.59-14.51v-149.65c0-8.02-6.98-14.51-15.59-14.51h0Z" style="fill: #000; stroke-width: 0px;"/>
    <g id="text">
      <text transform="translate(12.23 357.15) scale(.82 1)" style="fill: #000; font-family: GillSans-Bold, &apos;Gill Sans&apos;; font-size: 11px; font-weight: 700;"><tspan x="0" y="0">MNMX</tspan></text>
      <text transform="translate(21.7 192.87) scale(.88 1)" style="fill: #000; font-family: GillSans-Bold, &apos;Gill Sans&apos;; font-size: 8px; font-weight: 700; letter-spacing: -.04em;"><tspan x="0" y="0">In A</tspan></text>
      <text transform="translate(22.12 241.06) scale(.88 1)" style="fill: #000; font-family: GillSans-Bold, &apos;Gill Sans&apos;; font-size: 8px; font-weight: 700; letter-spacing: -.04em;"><tspan x="0" y="0">In B</tspan></text>
      <text transform="translate(22.53 289.25) scale(.88 1)" style="fill: #fff; font-family: GillSans-Bold, &apos;Gill Sans&apos;; font-size: 8px; font-weight: 700; letter-spacing: -.04em;"><tspan x="0" y="0">Min</tspan></text>
      <text transform="translate(21.55 337.43) scale(.88 1)" style="fill: #fff; font-family: GillSans-Bold, &apos;Gill Sans&apos;; font-size: 8px; font-weight: 700; letter-spacing: -.04em;"><tspan x="0" y="0">Max</tspan></text>
    </g>
    <g>
      <path d="M20.6,18.19c-.37,0-.71-.17-.97-.47-.51-.6-.52-1.54-.04-2.16l6.97-8.88c.38-.48,1.05-.65,1.57-.39.5.25.79.82.79,1.45v4.77l4.64-5.85c.38-.48,1.01-.64,1.53-.38.5.25.83.81.83,1.44v8.82c0,.86-.61,1.57-1.36,1.57s-1.36-.7-1.36-1.57v-4.79l-4.64,5.85c-.38.48-1.01.64-1.54.38-.5-.24-.83-.81-.83-1.44v-4.67l-4.61,5.8c-.26.32-.62.51-1,.51h0Z" style="fill: #2cabe1; stroke-width: 0px;"/>
      <path d="M20.6,18.19c-.75,0-1.35-.7-1.35-1.57v-4.93l-2.26,2.84c-.5.63-1.44.65-1.97.04-.51-.6-.52-1.53-.03-2.15l4.61-5.76c.26-.32.63-.5,1-.5.18,0,.37.04.54.12.5.25.82.81.82,1.44v8.89c0,.86-.61,1.57-1.36,1.57h0Z" style="fill: #ea2228; stroke-width: 0px;"/>
      <path d="M37.2,18.21h0c-.35,0-.68-.15-.94-.42-.76-.78-.14-1.84.29-2.3l1.95-2.36-1.26-.02c-.56-.01-1.04-.4-1.24-1-.19-.56-.07-1.21.29-1.64l3.16-3.83c.23-.28.55-.48,1.13-.47.33,0,.67.17.92.4.71.66.29,1.7-.07,2.2l-1.04,1.26,1.26.02c.56.01,1.04.4,1.24,1,.19.56.07,1.21-.29,1.64l-4.1,4.97c-.35.35-.65.55-1.3.54h0Z" style="fill: #00a650; stroke-width: 0px;"/>
    </g>
  </g>
  <g id="components">
    <circle id="Max" cx="28.84" cy="313.23" r="11.34" style="fill: blue; stroke-width: 0px;"/>
    <circle id="Min" cx="28.84" cy="265.06" r="11.34" style="fill: blue; stroke-width: 0px;"/>
    <circle id="In_B" data-name="In B" cx="28.84" cy="216.89" r="11.34" style="fill: lime; stroke-width: 0px;"/>
    <circle id="In_A" data-name="In A" cx="28.84" cy="168.72" r="11.34" style="fill: lime; stroke-width: 0px;"/>
    <text id="slug" transform="translate(17.36 369.32)" style="fill: #000; font-family: MyriadPro-Regular, &apos;Myriad Pro&apos;; font-size: 3px;"><tspan x="0" y="0">MNMX</tspan></text>
    <text id="modulename" transform="translate(39.52 369.32)" style="fill: #000; font-family: MyriadPro-Regular, &apos;Myriad Pro&apos;; font-size: 3px;"><tspan x="0" y="0" style="letter-spacing: .01em;">M</tspan><tspan x="2.45" y="0">in </tspan><tspan x="5.45" y="0" style="letter-spacing: 0em;">M</tspan><tspan x="7.88" y="0">ax </tspan><tspan x="11.35" y="0" style="letter-spacing: -.01em;">L</tspan><tspan x="12.73" y="0">o</tspan><tspan x="14.37" y="0" style="letter-spacing: 0em;">g</tspan><tspan x="16.03" y="0">ic</tspan></text>
  </g>
</svg>