<?xml version="1.0" encoding="UTF-8" standalone="no"?>
<svg
   width="40.73mm"
   height="130.6mm"
   viewBox="0 0 115.45 370.19"
   version="1.1"
   id="svg38"
   sodipodi:docname="MultiLFO_info.svg"
   inkscape:version="1.3.2 (091e20e, 2023-11-25)"
   xmlns:inkscape="http://www.inkscape.org/namespaces/inkscape"
   xmlns:sodipodi="http://sodipodi.sourceforge.net/DTD/sodipodi-0.dtd"
   xmlns="http://www.w3.org/2000/svg"
   xmlns:svg="http://www.w3.org/2000/svg">
  <defs
     id="defs38" />
  <sodipodi:namedview
     id="namedview38"
     pagecolor="#ffffff"
     bordercolor="#666666"
     borderopacity="1.0"
     inkscape:showpageshadow="2"
     inkscape:pageopacity="0.0"
     inkscape:pagecheckerboard="0"
     inkscape:deskcolor="#d1d1d1"
     inkscape:document-units="mm"
     inkscape:zoom="0.47811381"
     inkscape:cx="76.341656"
     inkscape:cy="246.80316"
     inkscape:window-width="1312"
     inkscape:window-height="449"
     inkscape:window-x="52"
     inkscape:window-y="38"
     inkscape:window-maximized="0"
     inkscape:current-layer="components" />
  <g
     id="faceplate">
    <rect
       x=".12"
       y=".12"
       width="115.2"
       height="364.25"
       style="fill: #ededed; stroke: #9d9d9e; stroke-miterlimit: 10; stroke-width: .25px;"
       id="rect1" />
    <path
       d="M100.22,224.06c-.29-8.38-6.12-9.49-13.28-9.49H28.58c-7.17,0-12.99,6.69-13.28,15.07l-.1,32.31v46.63l.03,7.18c-.02.18-.03.36-.03.54v19.84c0,3.12,2.55,5.67,5.67,5.67h73.7c3.12,0,5.67-2.55,5.67-5.67v-106.5l-.03-5.58Z"
       style="fill: #000; stroke-width: 0px;"
       id="path1" />
    <g
       id="g3">
      <path
         d="M20.94,245.81c-2.85,0-5.17-2.32-5.17-5.17l-.06-19.84c0-.17,0-.33.03-.49l-.03-7.23.1-46.63c.28-8.16,5.9-14.57,12.78-14.57h58.35c6.88,0,12.5,6.41,12.78,14.58l.02.48h.01v73.69c0,2.85-2.32,5.17-5.17,5.17H20.94Z"
         style="fill: #ededed; stroke-width: 0px;"
         id="path2" />
      <path
         d="M28.58,152.38h58.35c6.61,0,12.01,6.19,12.28,14.1l.03.43v73.73c0,2.57-2.09,4.67-4.67,4.67H20.94c-2.57,0-4.67-2.09-4.67-4.67l-.06-19.84c0-.15,0-.3.02-.45v-.05s0-.05,0-.05l-.03-7.17.09-46.6c.27-7.91,5.67-14.1,12.28-14.1M28.58,151.38c-7.17,0-12.99,6.69-13.28,15.07l-.1,46.63.03,7.18c-.02.18-.03.36-.03.54l.06,19.84c0,3.12,2.55,5.67,5.67,5.67h73.64c3.12,0,5.67-2.55,5.67-5.67v-74.19h-.03c-.29-8.38-6.12-15.07-13.28-15.07H28.58Z"
         style="fill: #000; stroke-width: 0px;"
         id="path3" />
    </g>
    <text
       transform="translate(45.88 99.13) scale(.88 1)"
       style="fill: #000; font-family: GillSans-Bold, 'Gill Sans'; font-size: 12px; font-weight: 700; letter-spacing: -.04em;"
       id="text3"><tspan
         x="0"
         y="0"
         id="tspan3">Rate</tspan></text>
    <text
       transform="translate(30.65 357.38) scale(.82 1)"
       style="fill: #000; font-family: GillSans-Bold, 'Gill Sans'; font-size: 11px; font-weight: 700;"
       id="text4"><tspan
         x="0"
         y="0"
         id="tspan4">MULTI LFO</tspan></text>
    <text
       transform="translate(77.12 193.06) scale(.88 1)"
       style="fill: #000; font-family: GillSans-Bold, 'Gill Sans'; font-size: 8px; font-weight: 700; letter-spacing: -.04em;"
       id="text5"><tspan
         x="0"
         y="0"
         id="tspan5">PW</tspan></text>
    <text
       transform="translate(74.62 289.81) scale(.88 1)"
       style="fill: #fff; font-family: GillSans-Bold, 'Gill Sans'; font-size: 8px; font-weight: 700; letter-spacing: -.04em;"
       id="text6"><tspan
         x="0"
         y="0"
         id="tspan6">Pulse</tspan></text>
    <text
       transform="translate(76.49 337.06) scale(.88 1)"
       style="fill: #fff; font-family: GillSans-Bold, 'Gill Sans'; font-size: 8px; font-weight: 700; letter-spacing: -.04em;"
       id="text7"><tspan
         x="0"
         y="0"
         id="tspan7">Sine</tspan></text>
    <text
       transform="translate(73.68 239.9) scale(.88 1)"
       style="fill: #000; font-family: GillSans-Bold, 'Gill Sans'; font-size: 8px; font-weight: 700; letter-spacing: -.04em;"
       id="text8"><tspan
         x="0"
         y="0"
         id="tspan8">Phase</tspan></text>
    <text
       transform="translate(24.13 239.9) scale(.88 1)"
       style="fill: #000; font-family: GillSans-Bold, 'Gill Sans'; font-size: 8px; font-weight: 700; letter-spacing: -.04em;"
       id="text9"><tspan
         x="0"
         y="0"
         id="tspan9">Rate</tspan></text>
    <text
       transform="translate(22.48 193.06) scale(.88 1)"
       style="fill: #000; font-family: GillSans-Bold, 'Gill Sans'; font-size: 8px; font-weight: 700; letter-spacing: -.04em;"
       id="text10"><tspan
         x="0"
         y="0"
         id="tspan10">Reset</tspan></text>
    <text
       transform="translate(19.11 289.81) scale(.88 1)"
       style="fill: #fff; font-family: GillSans-Bold, 'Gill Sans'; font-size: 8px; font-weight: 700; letter-spacing: -.04em;"
       id="text11"><tspan
         x="0"
         y="0"
         id="tspan11">Inv Saw</tspan></text>
    <text
       transform="translate(25.21 337.06) scale(.88 1)"
       style="fill: #fff; font-family: GillSans-Bold, 'Gill Sans'; font-size: 8px; font-weight: 700; letter-spacing: -.04em;"
       id="text12"><tspan
         x="0"
         y="0"
         id="tspan12">Saw</tspan></text>
    <g
       id="g32">
      <text
         transform="translate(19.41 147.11) scale(.88 1)"
         style="fill: #000; font-family: GillSans-Bold, 'Gill Sans'; font-size: 10px; font-weight: 700; letter-spacing: -.04em;"
         id="text13"><tspan
           x="0"
           y="0"
           id="tspan13">Phase</tspan></text>
      <path
         d="M40.95,102.18l1.13-1.95c-2.75-1.43-5.84-2.3-9.12-2.44v2.26c2.87.14,5.57.89,7.99,2.14Z"
         style="fill: #000; stroke-width: 0px;"
         id="path13" />
      <path
         d="M48.54,109.04l1.95-1.13c-1.72-2.68-4-4.96-6.68-6.68l-1.13,1.95c2.34,1.52,4.33,3.51,5.85,5.85Z"
         style="fill: #000; stroke-width: 0px;"
         id="path14" />
      <path
         d="M21.23,103.18l-1.13-1.95c-2.68,1.72-4.96,4-6.68,6.68l1.95,1.13c1.52-2.34,3.51-4.33,5.85-5.85Z"
         style="fill: #000; stroke-width: 0px;"
         id="path15" />
      <path
         d="M51.68,118.76h2.26c-.15-3.28-1.01-6.37-2.44-9.12l-1.95,1.13c1.24,2.42,1.99,5.13,2.14,8Z"
         style="fill: #000; stroke-width: 0px;"
         id="path16" />
      <path
         d="M30.96,100.05v-2.26c-3.28.15-6.37,1.01-9.12,2.44l1.13,1.95c2.42-1.24,5.13-1.99,8-2.14Z"
         style="fill: #000; stroke-width: 0px;"
         id="path17" />
      <path
         d="M15.38,130.49l-1.95,1.13c1.72,2.68,4,4.96,6.68,6.68l1.13-1.95c-2.34-1.52-4.33-3.51-5.85-5.85Z"
         style="fill: #000; stroke-width: 0px;"
         id="path18" />
      <path
         d="M42.69,136.34l1.13,1.95c2.68-1.72,4.96-4,6.68-6.68l-1.95-1.13c-1.52,2.34-3.51,4.33-5.85,5.85Z"
         style="fill: #000; stroke-width: 0px;"
         id="path19" />
      <path
         d="M51.68,120.76c-.14,2.87-.89,5.57-2.14,8l1.95,1.13c1.43-2.75,2.3-5.84,2.44-9.12h-2.26Z"
         style="fill: #000; stroke-width: 0px;"
         id="path20" />
      <path
         d="M12.24,120.76h-2.26c.15,3.28,1.01,6.37,2.44,9.12l1.95-1.13c-1.24-2.42-1.99-5.13-2.14-8Z"
         style="fill: #000; stroke-width: 0px;"
         id="path21" />
      <path
         d="M14.38,110.77l-1.95-1.13c-1.43,2.75-2.3,5.84-2.44,9.12h2.26c.14-2.87.89-5.57,2.14-8Z"
         style="fill: #000; stroke-width: 0px;"
         id="path22" />
      <text
         transform="translate(75.24 147.11) scale(.88 1)"
         style="fill: #000; font-family: GillSans-Bold, 'Gill Sans'; font-size: 10px; font-weight: 700; letter-spacing: -.04em;"
         id="text22"><tspan
           x="0"
           y="0"
           id="tspan22">PW</tspan></text>
      <path
         d="M92.49,102.18l1.13-1.95c-2.75-1.43-5.84-2.3-9.12-2.44v2.26c2.87.14,5.57.89,7.99,2.14Z"
         style="fill: #000; stroke-width: 0px;"
         id="path23" />
      <path
         d="M100.07,109.04l1.95-1.13c-1.72-2.68-4-4.96-6.68-6.68l-1.13,1.95c2.34,1.52,4.33,3.51,5.85,5.85Z"
         style="fill: #000; stroke-width: 0px;"
         id="path24" />
      <path
         d="M72.76,103.18l-1.13-1.95c-2.68,1.72-4.96,4-6.68,6.68l1.95,1.13c1.52-2.34,3.51-4.33,5.85-5.85Z"
         style="fill: #000; stroke-width: 0px;"
         id="path25" />
      <path
         d="M103.21,118.76h2.26c-.15-3.28-1.01-6.37-2.44-9.12l-1.95,1.13c1.24,2.42,1.99,5.13,2.14,8Z"
         style="fill: #000; stroke-width: 0px;"
         id="path26" />
      <path
         d="M82.49,100.05v-2.26c-3.28.15-6.37,1.01-9.12,2.44l1.13,1.95c2.42-1.24,5.13-1.99,8-2.14Z"
         style="fill: #000; stroke-width: 0px;"
         id="path27" />
      <path
         d="M66.91,130.49l-1.95,1.13c1.72,2.68,4,4.96,6.68,6.68l1.13-1.95c-2.34-1.52-4.33-3.51-5.85-5.85Z"
         style="fill: #000; stroke-width: 0px;"
         id="path28" />
      <path
         d="M94.22,136.34l1.13,1.95c2.68-1.72,4.96-4,6.68-6.68l-1.95-1.13c-1.52,2.34-3.51,4.33-5.85,5.85Z"
         style="fill: #000; stroke-width: 0px;"
         id="path29" />
      <path
         d="M103.21,120.76c-.14,2.87-.89,5.57-2.14,8l1.95,1.13c1.43-2.75,2.3-5.84,2.44-9.12h-2.26Z"
         style="fill: #000; stroke-width: 0px;"
         id="path30" />
      <path
         d="M63.77,120.76h-2.26c.15,3.28,1.01,6.37,2.44,9.12l1.95-1.13c-1.24-2.42-1.99-5.13-2.14-8Z"
         style="fill: #000; stroke-width: 0px;"
         id="path31" />
      <path
         d="M65.91,110.77l-1.95-1.13c-1.43,2.75-2.3,5.84-2.44,9.12h2.26c.14-2.87.89-5.57,2.14-8Z"
         style="fill: #000; stroke-width: 0px;"
         id="path32" />
    </g>
    <g
       id="g35">
      <path
         d="M49.47,18.19c-.37,0-.71-.17-.97-.47-.51-.6-.52-1.54-.04-2.16l6.97-8.88c.38-.48,1.05-.65,1.57-.39.5.25.79.82.79,1.45v4.77l4.64-5.85c.38-.48,1.01-.64,1.53-.38.5.25.83.81.83,1.44v8.82c0,.86-.61,1.57-1.36,1.57s-1.36-.7-1.36-1.57v-4.79l-4.64,5.85c-.38.48-1.01.64-1.54.38-.5-.24-.83-.81-.83-1.44v-4.67l-4.61,5.8c-.26.32-.62.51-1,.51h0Z"
         style="fill: #2cabe1; stroke-width: 0px;"
         id="path33" />
      <path
         d="M49.47,18.19c-.75,0-1.35-.7-1.35-1.57v-4.93l-2.26,2.84c-.5.63-1.44.65-1.97.04-.51-.6-.52-1.53-.03-2.15l4.61-5.76c.26-.32.63-.5,1-.5.18,0,.37.04.54.12.5.25.82.81.82,1.44v8.89c0,.86-.61,1.57-1.36,1.57h0Z"
         style="fill: #ea2228; stroke-width: 0px;"
         id="path34" />
      <path
         d="M66.07,18.21h0c-.35,0-.68-.15-.94-.42-.76-.78-.14-1.84.29-2.3l1.95-2.36-1.26-.02c-.56-.01-1.04-.4-1.24-1-.19-.56-.07-1.21.29-1.64l3.16-3.83c.23-.28.55-.48,1.13-.47.33,0,.67.17.92.4.71.66.29,1.7-.07,2.2l-1.04,1.26,1.26.02c.56.01,1.04.4,1.24,1,.19.56.07,1.21-.29,1.64l-4.1,4.97c-.35.35-.65.55-1.3.54h0Z"
         style="fill: #00a650; stroke-width: 0px;"
         id="path35" />
    </g>
  </g>
  <g
     id="components">
    <circle
       id="Sine"
       cx="83.63"
       cy="311.26"
       r="11.34"
       style="fill: blue; stroke-width: 0px;" />
    <circle
       id="Saw"
       cx="32.1"
       cy="311.23"
       r="11.34"
       style="fill: blue; stroke-width: 0px;" />
    <circle
       id="Pulse"
       cx="83.63"
       cy="263.67"
       r="11.34"
       style="fill: blue; stroke-width: 0px;" />
    <circle
       id="Inv_Saw"
       data-name="Inv Saw"
       cx="32.1"
       cy="263.64"
       r="11.34"
       style="fill: blue; stroke-width: 0px;" />
    <circle
       id="Phase_CV"
       data-name="Phase CV"
       cx="83.63"
       cy="214.57"
       r="11.34"
       style="fill: lime; stroke-width: 0px;" />
    <circle
       id="Rate_CV"
       data-name="Rate CV"
       cx="32.1"
       cy="214.57"
       r="11.34"
       style="fill: lime; stroke-width: 0px;" />
    <circle
       id="PW_CV"
       data-name="PW CV"
       cx="83.63"
       cy="167.36"
       r="11.34"
       style="fill: lime; stroke-width: 0px;" />
    <circle
       id="Reset"
       cx="32.1"
       cy="167.36"
       r="11.34"
       style="fill: lime; stroke-width: 0px;" />
    <circle
       id="PW"
       cx="83.49"
       cy="119.75"
       r="17.01"
       style="fill:#ff0040" />
    <circle
       id="Phase"
       cx="31.96"
       cy="119.41"
       r="17.01"
       style="fill: red; stroke-width: 0px;" />
    <circle
       id="Rate"
       cx="57.67"
       cy="55.73"
       r="31.18"
       style="fill: #ff0040; stroke-width: 0px;" />
    <text
       id="slug"
       transform="translate(70.23 369.44)"
       style="fill: #000; font-family: MyriadPro-Regular, 'Myriad Pro'; font-size: 3px;"><tspan
         x="0"
         y="0"
         style="letter-spacing: 0em;"
         id="tspan35">M</tspan><tspan
         x="2.42"
         y="0"
         id="tspan36">ultiLFO</tspan></text>
    <text
       id="modulename"
       transform="translate(83.55 369.44)"
       style="fill: #000; font-family: MyriadPro-Regular, 'Myriad Pro'; font-size: 3px;"><tspan
         x="0"
         y="0"
         style="letter-spacing: 0em;"
         id="tspan37">M</tspan><tspan
         x="2.42"
         y="0"
         id="tspan38">ulti LFO</tspan></text>
  </g>
</svg>
