<?xml version="1.0" encoding="UTF-8"?>
<svg xmlns="http://www.w3.org/2000/svg" width="35.56mm" height="130.55mm" xmlns:xlink="http://www.w3.org/1999/xlink" viewBox="0 0 100.8 370.07">
  <defs>
    <clipPath id="clippath">
      <rect x="36.5" y="81.06" width="27.8" height="25.62" style="fill: none; stroke-width: 0px;"/>
    </clipPath>
    <clipPath id="clippath-1">
      <rect x="36.5" y="81.06" width="27.8" height="25.62" style="fill: none; stroke-width: 0px;"/>
    </clipPath>
    <clipPath id="clippath-2">
      <rect x="36.5" y="125.81" width="27.8" height="25.62" style="fill: none; stroke-width: 0px;"/>
    </clipPath>
    <clipPath id="clippath-3">
      <rect x="36.5" y="125.81" width="27.8" height="25.62" style="fill: none; stroke-width: 0px;"/>
    </clipPath>
    <clipPath id="clippath-4">
      <rect x="36.5" y="170.56" width="27.8" height="25.62" style="fill: none; stroke-width: 0px;"/>
    </clipPath>
    <clipPath id="clippath-5">
      <rect x="36.5" y="170.56" width="27.8" height="25.62" style="fill: none; stroke-width: 0px;"/>
    </clipPath>
  </defs>
  <g id="faceplate">
    <g>
      <rect x=".12" y=".13" width="100.55" height="364" style="fill: #ededed; stroke-width: 0px;"/>
      <path d="M100.55.25v363.75H.25V.25h100.3M100.8,0H0v364.25h100.8V0h0Z" style="fill: #9d9d9e; stroke-width: 0px;"/>
    </g>
    <path d="M13.96,293.97v42.58c0,3.12,2.55,5.67,5.67,5.67h61.61c3.12,0,5.67-2.55,5.67-5.67v-19.84h0v-22.74H13.96Z" style="fill: #000; stroke-width: 0px;"/>
    <g>
      <path d="M19.63,310.19c-2.85,0-5.17-2.32-5.17-5.17v-75.24c0-7.54,6.13-13.67,13.67-13.67h44.6c7.54,0,13.67,6.13,13.67,13.67v75.24c0,2.85-2.32,5.17-5.17,5.17H19.63Z" style="fill: #ededed; stroke-width: 0px;"/>
      <path d="M72.74,216.61c7.26,0,13.17,5.91,13.17,13.17v75.24c0,2.57-2.09,4.67-4.67,4.67H19.63c-2.57,0-4.67-2.09-4.67-4.67v-75.24c0-7.26,5.91-13.17,13.17-13.17h44.6M72.74,215.61H28.13c-7.8,0-14.17,6.38-14.17,14.17v75.24c0,3.12,2.55,5.67,5.67,5.67h61.61c3.12,0,5.67-2.55,5.67-5.67v-75.24c0-7.8-6.38-14.17-14.17-14.17h0Z" style="fill: #000; stroke-width: 0px;"/>
    </g>
    <text transform="translate(18.69 356.91) scale(.82 1)" style="fill: #000; font-family: GillSans-Bold, &apos;Gill Sans&apos;; font-size: 11px; font-weight: 700;"><tspan x="0" y="0">PITCH SHIFT</tspan></text>
    <path d="M70.12,46.14h2.26c-.15-3.28-1.01-6.37-2.44-9.12l-1.95,1.13c1.24,2.42,1.99,5.13,2.14,8Z" style="fill: #000; stroke-width: 0px;"/>
    <path d="M70.12,48.14c-.14,2.87-.89,5.57-2.14,8l1.95,1.13c1.43-2.75,2.3-5.84,2.44-9.12h-2.26Z" style="fill: #000; stroke-width: 0px;"/>
    <text transform="translate(35.89 74.24) scale(.88 1)" style="fill: #000; font-family: GillSans-Bold, &apos;Gill Sans&apos;; font-size: 10px; font-weight: 700; letter-spacing: -.04em;"><tspan x="0" y="0">Coarse</tspan></text>
    <path d="M59.4,29.56l1.13-1.95c-2.75-1.43-5.84-2.3-9.12-2.44v2.26c2.87.14,5.57.89,7.99,2.14Z" style="fill: #000; stroke-width: 0px;"/>
    <path d="M66.98,36.41l1.95-1.13c-1.72-2.68-4-4.96-6.68-6.68l-1.13,1.95c2.34,1.52,4.33,3.51,5.85,5.85Z" style="fill: #000; stroke-width: 0px;"/>
    <path d="M39.67,30.56l-1.13-1.95c-2.68,1.72-4.96,4-6.68,6.68l1.95,1.13c1.52-2.34,3.51-4.33,5.85-5.85Z" style="fill: #000; stroke-width: 0px;"/>
    <path d="M49.4,27.42v-2.26c-3.28.15-6.37,1.01-9.12,2.44l1.13,1.95c2.42-1.24,5.13-1.99,8-2.14Z" style="fill: #000; stroke-width: 0px;"/>
    <path d="M33.82,57.86l-1.95,1.13c1.72,2.68,4,4.96,6.68,6.68l1.13-1.95c-2.34-1.52-4.33-3.51-5.85-5.85Z" style="fill: #000; stroke-width: 0px;"/>
    <path d="M61.13,63.72l1.13,1.95c2.68-1.72,4.96-4,6.68-6.68l-1.95-1.13c-1.52,2.34-3.51,4.33-5.85,5.85Z" style="fill: #000; stroke-width: 0px;"/>
    <path d="M30.68,48.14h-2.26c.15,3.28,1.01,6.37,2.44,9.12l1.95-1.13c-1.24-2.42-1.99-5.13-2.14-8Z" style="fill: #000; stroke-width: 0px;"/>
    <path d="M32.82,38.14l-1.95-1.13c-1.43,2.75-2.3,5.84-2.44,9.12h2.26c.14-2.87.89-5.57,2.14-8Z" style="fill: #000; stroke-width: 0px;"/>
    <g id="pips_-_fewest" data-name="pips - fewest">
      <g style="clip-path: url(#clippath);">
        <g style="clip-path: url(#clippath-1);">
          <path d="M56.09,83.84l.71-1.23c-1.74-.9-3.7-1.45-5.77-1.55v1.43c1.81.09,3.53.56,5.06,1.35" style="fill: #000; stroke-width: 0px;"/>
          <path d="M60.89,88.18l1.23-.71c-1.09-1.69-2.53-3.14-4.22-4.22l-.71,1.23c1.48.96,2.74,2.22,3.7,3.7" style="fill: #000; stroke-width: 0px;"/>
          <path d="M43.61,84.47l-.71-1.23c-1.69,1.09-3.14,2.53-4.22,4.22l1.23.71c.96-1.48,2.22-2.74,3.7-3.7" style="fill: #000; stroke-width: 0px;"/>
          <path d="M62.87,94.33h1.43c-.09-2.07-.64-4.03-1.55-5.77l-1.23.71c.79,1.53,1.26,3.24,1.35,5.06" style="fill: #000; stroke-width: 0px;"/>
          <path d="M49.77,82.49v-1.43c-2.07.09-4.03.64-5.77,1.55l.71,1.23c1.53-.79,3.24-1.26,5.06-1.35" style="fill: #000; stroke-width: 0px;"/>
          <path d="M39.91,101.75l-1.23.71c1.09,1.69,2.53,3.14,4.22,4.22l.71-1.23c-1.48-.96-2.74-2.22-3.7-3.7" style="fill: #000; stroke-width: 0px;"/>
          <path d="M57.19,105.45l.71,1.23c1.69-1.09,3.14-2.53,4.22-4.22l-1.23-.71c-.96,1.48-2.22,2.74-3.7,3.7" style="fill: #000; stroke-width: 0px;"/>
          <path d="M62.87,95.59c-.09,1.81-.56,3.53-1.35,5.06l1.23.71c.9-1.74,1.45-3.7,1.55-5.77h-1.43Z" style="fill: #000; stroke-width: 0px;"/>
          <path d="M37.93,95.59h-1.43c.09,2.07.64,4.03,1.55,5.77l1.23-.71c-.79-1.53-1.26-3.24-1.35-5.06" style="fill: #000; stroke-width: 0px;"/>
          <path d="M39.28,89.27l-1.23-.71c-.9,1.74-1.45,3.7-1.55,5.77h1.43c.09-1.81.56-3.53,1.35-5.06" style="fill: #000; stroke-width: 0px;"/>
        </g>
      </g>
    </g>
    <text transform="translate(41.55 117.66) scale(.88 1)" style="fill: #000; font-family: GillSans-Bold, &apos;Gill Sans&apos;; font-size: 10px; font-weight: 700; letter-spacing: -.04em;"><tspan x="0" y="0">Fine</tspan></text>
    <g id="pips_-_fewest-2" data-name="pips - fewest">
      <g style="clip-path: url(#clippath-2);">
        <g style="clip-path: url(#clippath-3);">
          <path d="M56.09,128.59l.71-1.23c-1.74-.9-3.7-1.45-5.77-1.55v1.43c1.81.09,3.53.56,5.06,1.35" style="fill: #000; stroke-width: 0px;"/>
          <path d="M60.89,132.93l1.23-.71c-1.09-1.69-2.53-3.14-4.22-4.22l-.71,1.23c1.48.96,2.74,2.22,3.7,3.7" style="fill: #000; stroke-width: 0px;"/>
          <path d="M43.61,129.22l-.71-1.23c-1.69,1.09-3.14,2.53-4.22,4.22l1.23.71c.96-1.48,2.22-2.74,3.7-3.7" style="fill: #000; stroke-width: 0px;"/>
          <path d="M62.87,139.08h1.43c-.09-2.07-.64-4.03-1.55-5.77l-1.23.71c.79,1.53,1.26,3.24,1.35,5.06" style="fill: #000; stroke-width: 0px;"/>
          <path d="M49.77,127.24v-1.43c-2.07.09-4.03.64-5.77,1.55l.71,1.23c1.53-.79,3.24-1.26,5.06-1.35" style="fill: #000; stroke-width: 0px;"/>
          <path d="M39.91,146.5l-1.23.71c1.09,1.69,2.53,3.14,4.22,4.22l.71-1.23c-1.48-.96-2.74-2.22-3.7-3.7" style="fill: #000; stroke-width: 0px;"/>
          <path d="M57.19,150.2l.71,1.23c1.69-1.09,3.14-2.53,4.22-4.22l-1.23-.71c-.96,1.48-2.22,2.74-3.7,3.7" style="fill: #000; stroke-width: 0px;"/>
          <path d="M62.87,140.35c-.09,1.81-.56,3.53-1.35,5.06l1.23.71c.9-1.74,1.45-3.7,1.55-5.77h-1.43Z" style="fill: #000; stroke-width: 0px;"/>
          <path d="M37.93,140.35h-1.43c.09,2.07.64,4.03,1.55,5.77l1.23-.71c-.79-1.53-1.26-3.24-1.35-5.06" style="fill: #000; stroke-width: 0px;"/>
          <path d="M39.28,134.02l-1.23-.71c-.9,1.74-1.45,3.7-1.55,5.77h1.43c.09-1.81.56-3.53,1.35-5.06" style="fill: #000; stroke-width: 0px;"/>
        </g>
      </g>
    </g>
    <text transform="translate(32.55 162.41) scale(.88 1)" style="fill: #000; font-family: GillSans-Bold, &apos;Gill Sans&apos;; font-size: 10px; font-weight: 700; letter-spacing: -.04em;"><tspan x="0" y="0">Window</tspan></text>
    <g id="pips_-_fewest-3" data-name="pips - fewest">
      <g style="clip-path: url(#clippath-4);">
        <g style="clip-path: url(#clippath-5);">
          <path d="M56.09,173.34l.71-1.23c-1.74-.9-3.7-1.45-5.77-1.55v1.43c1.81.09,3.53.56,5.06,1.35" style="fill: #000; stroke-width: 0px;"/>
          <path d="M60.89,177.68l1.23-.71c-1.09-1.69-2.53-3.14-4.22-4.22l-.71,1.23c1.48.96,2.74,2.22,3.7,3.7" style="fill: #000; stroke-width: 0px;"/>
          <path d="M43.61,173.98l-.71-1.23c-1.69,1.09-3.14,2.53-4.22,4.22l1.23.71c.96-1.48,2.22-2.74,3.7-3.7" style="fill: #000; stroke-width: 0px;"/>
          <path d="M62.87,183.83h1.43c-.09-2.07-.64-4.03-1.55-5.77l-1.23.71c.79,1.53,1.26,3.24,1.35,5.06" style="fill: #000; stroke-width: 0px;"/>
          <path d="M49.77,171.99v-1.43c-2.07.09-4.03.64-5.77,1.55l.71,1.23c1.53-.79,3.24-1.26,5.06-1.35" style="fill: #000; stroke-width: 0px;"/>
          <path d="M39.91,191.25l-1.23.71c1.09,1.69,2.53,3.14,4.22,4.22l.71-1.23c-1.48-.96-2.74-2.22-3.7-3.7" style="fill: #000; stroke-width: 0px;"/>
          <path d="M57.19,194.95l.71,1.23c1.69-1.09,3.14-2.53,4.22-4.22l-1.23-.71c-.96,1.48-2.22,2.74-3.7,3.7" style="fill: #000; stroke-width: 0px;"/>
          <path d="M62.87,185.1c-.09,1.81-.56,3.53-1.35,5.06l1.23.71c.9-1.74,1.45-3.7,1.55-5.77h-1.43Z" style="fill: #000; stroke-width: 0px;"/>
          <path d="M37.93,185.1h-1.43c.09,2.07.64,4.03,1.55,5.77l1.23-.71c-.79-1.53-1.26-3.24-1.35-5.06" style="fill: #000; stroke-width: 0px;"/>
          <path d="M39.28,178.77l-1.23-.71c-.9,1.74-1.45,3.7-1.55,5.77h1.43c.09-1.81.56-3.53,1.35-5.06" style="fill: #000; stroke-width: 0px;"/>
        </g>
      </g>
    </g>
    <text transform="translate(42.5 207.17) scale(.88 1)" style="fill: #000; font-family: GillSans-Bold, &apos;Gill Sans&apos;; font-size: 10px; font-weight: 700; letter-spacing: -.04em;"><tspan x="0" y="0">Mix</tspan></text>
    <text transform="translate(25.56 329.35) scale(.88 1)" style="fill: #fff; font-family: GillSans-Bold, &apos;Gill Sans&apos;; font-size: 8px; font-weight: 700; letter-spacing: -.04em;"><tspan x="0" y="0">Out</tspan></text>
    <text transform="translate(61.25 258.23) scale(.88 1)" style="fill: #000; font-family: GillSans-Bold, &apos;Gill Sans&apos;; font-size: 8px; font-weight: 700; letter-spacing: -.04em;"><tspan x="0" y="0">Pitch</tspan></text>
    <text transform="translate(21.8 258.23) scale(.88 1)" style="fill: #000; font-family: GillSans-Bold, &apos;Gill Sans&apos;; font-size: 8px; font-weight: 700; letter-spacing: -.04em;"><tspan x="0" y="0">Input</tspan></text>
    <text transform="translate(63.56 307.05) scale(.88 1)" style="fill: #000; font-family: GillSans-Bold, &apos;Gill Sans&apos;; font-size: 8px; font-weight: 700; letter-spacing: -.04em;"><tspan x="0" y="0">Mix</tspan></text>
    <text transform="translate(16.51 307.05) scale(.88 1)" style="fill: #000; font-family: GillSans-Bold, &apos;Gill Sans&apos;; font-size: 8px; font-weight: 700; letter-spacing: -.04em;"><tspan x="0" y="0">Window</tspan></text>
    <g>
      <path d="M42.2,18.07c-.37,0-.71-.17-.97-.47-.51-.6-.52-1.54-.04-2.16l6.97-8.88c.38-.48,1.05-.65,1.57-.39.5.25.79.82.79,1.45v4.77l4.64-5.85c.38-.48,1.01-.64,1.53-.38.5.25.83.81.83,1.44v8.82c0,.86-.61,1.57-1.36,1.57s-1.36-.7-1.36-1.57v-4.79l-4.64,5.85c-.38.48-1.01.64-1.54.38-.5-.24-.83-.81-.83-1.44v-4.67l-4.61,5.8c-.26.32-.62.51-1,.51h0Z" style="fill: #2cabe1; stroke-width: 0px;"/>
      <path d="M42.2,18.07c-.75,0-1.35-.7-1.35-1.57v-4.93l-2.26,2.84c-.5.63-1.44.65-1.97.04-.51-.6-.52-1.53-.03-2.15l4.61-5.76c.26-.32.63-.5,1-.5.18,0,.37.04.54.12.5.25.82.81.82,1.44v8.89c0,.86-.61,1.57-1.36,1.57h0Z" style="fill: #ea2228; stroke-width: 0px;"/>
      <path d="M58.8,18.09h0c-.35,0-.68-.15-.94-.42-.76-.78-.14-1.84.29-2.3l1.95-2.36-1.26-.02c-.56-.01-1.04-.4-1.24-1-.19-.56-.07-1.21.29-1.64l3.16-3.83c.23-.28.55-.48,1.13-.47.33,0,.67.17.92.4.71.66.29,1.7-.07,2.2l-1.04,1.26,1.26.02c.56.01,1.04.4,1.24,1,.19.56.07,1.21-.29,1.64l-4.1,4.97c-.35.35-.65.55-1.3.54h0Z" style="fill: #00a650; stroke-width: 0px;"/>
    </g>
  </g>
  <g id="components">
    <circle id="Out" cx="69.79" cy="325.98" r="11.34" style="fill: blue; stroke-width: 0px;"/>
    <circle id="Mix_CV" data-name="Mix CV" cx="69.79" cy="281.45" r="11.34" style="fill: lime; stroke-width: 0px;"/>
    <circle id="Window_CV" data-name="Window CV" cx="30.79" cy="281.45" r="11.34" style="fill: lime; stroke-width: 0px;"/>
    <circle id="Pitch_CV" data-name="Pitch CV" cx="69.79" cy="232.35" r="11.34" style="fill: lime; stroke-width: 0px;"/>
    <circle id="Input" cx="30.79" cy="232.35" r="11.34" style="fill: lime; stroke-width: 0px;"/>
    <circle id="Mix" cx="50.4" cy="184.25" r="8.5" style="fill: #ff0070; stroke-width: 0px;"/>
    <circle id="Window" cx="50.4" cy="139.5" r="8.5" style="fill: red; stroke-width: 0px;"/>
    <circle id="Fine" cx="50.4" cy="94.75" r="8.5" style="fill: #ff0040; stroke-width: 0px;"/>
    <circle id="Coarse" cx="50.4" cy="46.78" r="17.01" style="fill: #ff0020; stroke-width: 0px;"/>
    <text id="slug" transform="translate(59.96 369.32)" style="fill: #000; font-family: MyriadPro-Regular, &apos;Myriad Pro&apos;; font-size: 3px;"><tspan x="0" y="0" style="letter-spacing: -.02em;">P</tspan><tspan x="1.55" y="0">i</tspan><tspan x="2.25" y="0" style="letter-spacing: 0em;">t</tspan><tspan x="3.22" y="0" style="letter-spacing: 0em;">chShi</tspan><tspan x="10.08" y="0" style="letter-spacing: .01em;">f</tspan><tspan x="10.99" y="0" style="letter-spacing: 0em;">t</tspan></text>
    <text id="modulename" transform="translate(78.11 369.32)" style="fill: #000; font-family: MyriadPro-Regular, &apos;Myriad Pro&apos;; font-size: 3px;"><tspan x="0" y="0" style="letter-spacing: -.02em;">P</tspan><tspan x="1.55" y="0">i</tspan><tspan x="2.25" y="0" style="letter-spacing: 0em;">t</tspan><tspan x="3.22" y="0" style="letter-spacing: 0em;">ch Shi</tspan><tspan x="10.72" y="0" style="letter-spacing: .01em;">f</tspan><tspan x="11.62" y="0" style="letter-spacing: 0em;">t</tspan><tspan x="12.6" y="0">er</tspan></text>
  </g>
</svg>