<?xml version="1.0" encoding="UTF-8"?>
<svg xmlns="http://www.w3.org/2000/svg" width="50.8mm" height="130.42mm" viewBox="0 0 144 369.7">
  <g id="faceplate">
    <g>
      <rect x=".13" y=".13" width="143.75" height="364" style="fill: #ededed; stroke-width: 0px;"/>
      <path d="M143.75.25v363.75H.25V.25h143.5M144,0H0v364.25h144V0h0Z" style="fill: #9d9d9e; stroke-width: 0px;"/>
    </g>
    <g>
      <path d="M60.52,358.01l-1.29,1.43c-.51-.14-1.01-.32-1.51-.55-.5-.23-1-.52-1.5-.85-.39-.26-.68-.51-.88-.75-.34-.15-.66-.38-.97-.68-.31-.31-.56-.71-.75-1.19s-.29-1.04-.29-1.68c0-.67.13-1.3.38-1.88.25-.58.64-1.05,1.17-1.41.52-.36,1.16-.54,1.92-.54.58,0,1.09.11,1.53.31.44.21.8.49,1.09.85.28.36.5.76.63,1.22s.21.94.21,1.43c0,.6-.09,1.14-.26,1.61-.18.47-.41.86-.69,1.17-.28.31-.61.56-.96.74.33.18.66.33.99.45.33.12.71.18,1.14.18l.05.12ZM58.38,353.75c0-.28-.03-.53-.1-.77-.07-.23-.17-.43-.31-.6-.14-.17-.3-.3-.5-.4-.2-.09-.42-.14-.68-.14-.49,0-.88.18-1.16.53-.28.35-.42.81-.42,1.38s.14,1.03.42,1.38.67.53,1.16.53c.34,0,.62-.08.86-.24.24-.16.42-.39.54-.68.12-.29.19-.62.19-.99Z" style="fill: #000; stroke-width: 0px;"/>
      <path d="M67.76,354.14c0,.64-.1,1.18-.29,1.63-.2.45-.45.8-.77,1.07-.32.26-.67.45-1.04.56-.37.11-.74.17-1.11.17-.52,0-1.02-.11-1.51-.32-.49-.21-.9-.58-1.23-1.1-.33-.52-.49-1.19-.49-2.01v-4.11h1.84v3.53c0,.49.06.9.17,1.22.12.32.28.55.48.7.21.15.45.22.73.22s.51-.07.72-.22c.21-.15.37-.38.49-.7.12-.32.17-.72.17-1.21v-3.54h1.84v4.11Z" style="fill: #000; stroke-width: 0px;"/>
      <path d="M75.91,357.48h-1.88l-.5-1.51h-2.65l-.51,1.51h-1.88l2.7-7.44h2.03l2.69,7.44ZM73.1,354.67l-.89-2.72-.9,2.72h1.8Z" style="fill: #000; stroke-width: 0px;"/>
      <path d="M83.35,357.48h-1.64l-3.17-4.15v4.15h-1.82v-7.44h1.63l3.16,4.12v-4.12h1.84v7.44Z" style="fill: #000; stroke-width: 0px;"/>
      <path d="M90.73,351.84h-2.24v5.63h-1.84v-5.63h-2.24v-1.81h6.31v1.81Z" style="fill: #000; stroke-width: 0px;"/>
    </g>
    <path d="M12.25,336.07c0,3.12,2.55,5.67,5.67,5.67h108.16c3.12,0,5.67-2.55,5.67-5.67v-45.39H12.25v45.39Z" style="fill: #000; stroke-width: 0px;"/>
    <path d="M131.35,274.09v-5.67c0-7.8-6.38-14.17-14.17-14.17H26.86c-7.8,0-14.17,6.38-14.17,14.17v23.16c0,3.12,2.55,5.67,5.67,5.67h107.33c3.12,0,5.67-2.55,5.67-5.67v-17.49Z" style="fill: #ededed; stroke: #000; stroke-miterlimit: 10;"/>
    <g>
      <path d="M114.21,334.27c0,.51-.1.97-.31,1.39-.21.42-.51.76-.92,1.01-.41.25-.9.38-1.48.38s-1.09-.13-1.5-.39c-.41-.26-.71-.6-.91-1.03-.2-.42-.3-.88-.3-1.36s.1-.94.3-1.37c.2-.42.5-.76.91-1.02.41-.26.91-.39,1.5-.39.44,0,.83.07,1.18.22s.63.35.85.6c.22.25.39.55.51.89.11.34.17.69.17,1.06ZM112.74,334.27c0-.2-.03-.39-.08-.56s-.13-.31-.24-.44c-.11-.12-.24-.22-.39-.29-.15-.07-.33-.1-.53-.1-.39,0-.69.13-.91.38-.22.26-.33.59-.33,1s.11.75.33,1.01c.22.26.52.38.91.38.26,0,.49-.06.67-.18.19-.12.33-.28.42-.49.1-.21.14-.45.14-.72Z" style="fill: #fff; stroke-width: 0px;"/>
      <path d="M118.3,336.98h-1.24v-.57c-.17.21-.36.37-.55.48-.19.11-.42.16-.69.16-.53,0-.87-.17-1.03-.53-.16-.35-.23-.75-.23-1.19v-2.34h1.24v2.15c0,.22.03.41.1.57.06.16.2.24.41.24.18,0,.33-.06.43-.18.11-.12.21-.27.32-.45v-2.34h1.24v3.98Z" style="fill: #fff; stroke-width: 0px;"/>
      <path d="M121.57,336.75c-.13.07-.31.14-.53.2-.23.07-.44.1-.65.1-.89,0-1.34-.49-1.34-1.48v-1.59h-.56v-.25l1.66-1.92h.14v1.19h1.18v.98h-1.18v1.27c0,.15,0,.27.02.36.02.09.06.17.14.23.07.06.19.09.34.09.2,0,.46-.09.78-.28v1.1Z" style="fill: #fff; stroke-width: 0px;"/>
    </g>
    <g>
      <path d="M70.83,333.27c0,.2-.03.4-.09.59-.06.19-.16.37-.29.54-.13.17-.32.3-.55.4-.23.1-.5.15-.81.15h-.94v2.03h-1.44v-5.41h2.38c.31,0,.58.05.81.16.23.1.41.24.55.41.14.17.23.35.29.54.06.2.09.39.09.6ZM69.37,333.28c0-.26-.07-.43-.2-.53-.13-.09-.37-.14-.72-.14h-.3v1.3h.31c.24,0,.42-.02.55-.05.13-.03.22-.1.28-.19.06-.09.09-.22.09-.39Z" style="fill: #fff; stroke-width: 0px;"/>
      <path d="M74.22,333.22l-.46,1.41c-.19-.2-.38-.3-.57-.3-.17,0-.32.07-.45.2-.13.13-.25.38-.37.74v1.71h-1.24v-3.98h1.24v.96c.08-.24.22-.47.41-.69.2-.22.43-.34.69-.34.14,0,.26.02.37.07s.23.12.37.21Z" style="fill: #fff; stroke-width: 0px;"/>
      <path d="M77.92,335.33h-2.46c.05.24.17.44.35.59.19.15.4.23.64.23.42,0,.88-.13,1.38-.4v.87c-.18.11-.4.2-.66.29-.26.09-.59.13-.99.13-.43,0-.8-.09-1.1-.27-.3-.18-.53-.43-.68-.74-.15-.31-.23-.67-.23-1.06s.08-.74.23-1.05c.15-.31.38-.55.68-.73s.67-.26,1.1-.26c.28,0,.56.07.82.21.26.14.48.37.65.68s.26.72.26,1.22v.28ZM76.76,334.63c0-.25-.06-.46-.17-.61s-.27-.23-.48-.23-.37.08-.5.23c-.13.16-.19.36-.19.61h1.34Z" style="fill: #fff; stroke-width: 0px;"/>
    </g>
    <g>
      <path d="M26.63,332.88h-1.75v4.1h-1.43v-4.1h-1.75v-1.32h4.93v1.32Z" style="fill: #fff; stroke-width: 0px;"/>
      <path d="M30.72,336.98h-1.24v-2.06s0-.03,0-.04c0-.01,0-.04,0-.09,0-.19-.04-.36-.11-.52-.07-.16-.21-.24-.41-.24-.16,0-.29.06-.41.18-.12.12-.23.27-.34.45v2.34h-1.24v-5.41h1.24v2.01c.2-.25.41-.42.6-.51s.41-.13.64-.13c.84,0,1.26.54,1.26,1.61v2.44Z" style="fill: #fff; stroke-width: 0px;"/>
      <path d="M34.26,333.22l-.46,1.41c-.19-.2-.38-.3-.57-.3-.17,0-.32.07-.45.2-.13.13-.25.38-.37.74v1.71h-1.24v-3.98h1.24v.96c.08-.24.22-.47.41-.69.2-.22.43-.34.69-.34.14,0,.26.02.37.07.1.05.23.12.37.21Z" style="fill: #fff; stroke-width: 0px;"/>
      <path d="M38.05,336.98h-1.24v-.57c-.17.21-.36.37-.55.48s-.42.16-.69.16c-.53,0-.87-.17-1.03-.53-.16-.35-.23-.75-.23-1.19v-2.34h1.24v2.15c0,.22.03.41.1.57.06.16.2.24.41.24.18,0,.33-.06.43-.18.11-.12.21-.27.32-.45v-2.34h1.24v3.98Z" style="fill: #fff; stroke-width: 0px;"/>
    </g>
    <g>
      <path d="M22.8,293.92h-1.44v-5.41h1.44v5.41Z" style="fill: #000; stroke-width: 0px;"/>
      <path d="M27.25,293.92h-1.24v-2.14c0-.22-.03-.41-.09-.57-.06-.16-.2-.24-.41-.24-.1,0-.19.02-.27.06-.08.04-.15.1-.21.17-.06.07-.11.13-.15.2-.04.06-.08.13-.13.2v2.34h-1.24v-3.98h1.24v.57c.19-.24.39-.4.59-.5.2-.09.41-.14.65-.14.84,0,1.26.57,1.26,1.71v2.34Z" style="fill: #000; stroke-width: 0px;"/>
      <path d="M31.56,291.91c0,.27-.03.52-.1.77-.07.25-.17.47-.3.67s-.31.36-.53.47c-.21.12-.46.17-.75.17-.23,0-.41-.03-.54-.08s-.26-.13-.39-.22v2.04h-1.24v-5.79h1.24v.36c.12-.12.26-.22.41-.31.15-.08.35-.12.61-.12s.5.07.75.21c.25.14.45.37.6.67.16.3.24.69.24,1.15ZM30.26,291.94c0-.24-.03-.43-.1-.58-.07-.15-.15-.26-.26-.32s-.21-.1-.33-.1c-.15,0-.27.03-.36.08-.09.05-.18.12-.26.2v1.52s.09.06.14.09c.05.03.1.06.15.08s.1.04.16.06.12.02.18.02c.19,0,.36-.09.49-.28.13-.19.2-.44.2-.77Z" style="fill: #000; stroke-width: 0px;"/>
      <path d="M35.6,293.92h-1.24v-.57c-.17.21-.36.37-.55.48s-.42.16-.69.16c-.53,0-.87-.17-1.03-.53-.16-.35-.23-.75-.23-1.19v-2.34h1.24v2.15c0,.22.03.41.1.57.06.16.2.24.41.24.18,0,.33-.06.43-.18.11-.12.21-.27.32-.45v-2.34h1.24v3.98Z" style="fill: #000; stroke-width: 0px;"/>
      <path d="M38.88,293.69c-.13.07-.31.14-.53.2-.23.07-.44.1-.65.1-.89,0-1.34-.49-1.34-1.48v-1.59h-.56v-.25l1.66-1.92h.14v1.19h1.18v.98h-1.18v1.27c0,.15,0,.27.02.36.02.09.06.17.14.23.07.06.19.09.34.09.2,0,.46-.09.78-.28v1.1Z" style="fill: #000; stroke-width: 0px;"/>
    </g>
    <g>
      <path d="M67.46,292.35c0,.34-.08.63-.23.88-.15.25-.37.44-.64.57-.27.13-.59.2-.94.2-.1,0-.22,0-.36-.02-.14-.01-.33-.05-.57-.12-.24-.06-.48-.16-.74-.29v-1.33c.24.17.48.31.71.42.23.11.48.17.75.17.25,0,.4-.05.48-.14.07-.09.11-.18.11-.26,0-.15-.06-.27-.19-.37-.12-.1-.3-.2-.54-.31-.26-.12-.49-.26-.69-.41-.2-.15-.36-.33-.48-.55-.12-.22-.19-.48-.19-.79s.06-.55.19-.79c.13-.24.32-.42.58-.56.26-.14.58-.21.95-.21.27,0,.51.03.74.09.23.06.41.12.56.2.15.07.25.13.3.17v1.27c-.19-.16-.41-.3-.65-.43-.24-.12-.5-.19-.77-.19-.18,0-.31.04-.39.12-.08.08-.12.17-.12.29,0,.11.04.2.12.28.08.08.22.17.43.29.37.2.66.37.88.53.22.16.39.34.52.54.12.21.19.46.19.76Z" style="fill: #000; stroke-width: 0px;"/>
      <path d="M70.95,293.74c-.1.04-.21.09-.33.12-.11.04-.24.07-.39.09-.14.03-.3.04-.47.04-.38,0-.71-.07-.97-.22-.26-.15-.47-.33-.61-.55-.14-.22-.24-.45-.3-.68-.06-.23-.08-.44-.08-.61s.03-.38.08-.61c.06-.23.15-.46.29-.67.14-.22.34-.4.61-.54.26-.15.59-.22.98-.22.26,0,.47.02.63.06.16.04.33.1.5.17v1.11c-.4-.15-.72-.22-.95-.22s-.42.08-.59.23c-.17.15-.26.39-.26.7,0,.21.04.39.13.53.08.14.19.25.32.32.13.07.26.1.39.1.12,0,.26-.02.42-.06.16-.04.35-.1.58-.18v1.11Z" style="fill: #000; stroke-width: 0px;"/>
      <path d="M74.9,293.72c-.18.08-.35.15-.5.2-.15.05-.34.07-.55.07-.2,0-.35-.04-.43-.12-.08-.08-.14-.18-.17-.3-.13.12-.28.22-.44.3-.16.08-.38.12-.64.12s-.46-.05-.62-.15c-.16-.1-.27-.23-.33-.38-.06-.15-.09-.31-.09-.47,0-.24.05-.45.16-.61s.25-.29.44-.39c.18-.1.43-.21.73-.32.17-.06.3-.11.39-.14.09-.03.15-.06.2-.08.04-.02.09-.04.14-.07,0-.19-.03-.34-.1-.45s-.22-.16-.45-.16c-.27,0-.52.07-.75.2-.23.14-.44.31-.64.52v-1.08c.15-.12.32-.23.5-.31.18-.08.37-.14.56-.18.19-.04.39-.06.59-.06.51,0,.89.11,1.14.33s.38.53.38.92v1.54c0,.15.01.25.04.33.02.07.07.11.13.11.08,0,.18-.04.32-.11v.74ZM73.18,292.96v-.94c-.29.14-.51.26-.64.37-.14.11-.2.25-.2.44,0,.13.03.23.1.3.07.07.15.11.24.11.08,0,.17-.03.25-.08.08-.05.17-.12.26-.19Z" style="fill: #000; stroke-width: 0px;"/>
      <path d="M76.31,293.92h-1.24v-5.41h1.24v5.41Z" style="fill: #000; stroke-width: 0px;"/>
      <path d="M80.47,292.27h-2.46c.05.24.17.44.35.59.19.15.4.23.64.23.42,0,.88-.13,1.38-.4v.87c-.18.11-.4.2-.66.29-.26.09-.59.13-.99.13-.43,0-.8-.09-1.1-.27-.3-.18-.53-.43-.68-.74-.15-.31-.23-.67-.23-1.06s.08-.74.23-1.05c.15-.31.38-.55.68-.73s.67-.26,1.1-.26c.28,0,.56.07.82.21.26.14.48.37.65.68s.26.72.26,1.22v.28ZM79.31,291.58c0-.25-.06-.46-.17-.61s-.27-.23-.48-.23-.37.08-.5.23c-.13.16-.19.36-.19.61h1.34Z" style="fill: #000; stroke-width: 0px;"/>
    </g>
    <g>
      <path d="M111.96,293.92h-1.54l-.38-.96c-.14-.35-.26-.61-.37-.77-.11-.16-.22-.27-.32-.31-.1-.04-.24-.07-.4-.07h-.16v2.11h-1.44v-5.41h2.44c.39,0,.72.09.97.27.25.18.43.4.54.66.11.26.17.51.17.74,0,.27-.05.5-.14.69-.09.19-.19.33-.29.41-.1.09-.22.17-.35.25.15.1.28.22.38.36.1.14.24.42.41.85l.48,1.18ZM110.01,290.22c0-.25-.07-.42-.22-.52-.14-.1-.38-.15-.7-.15h-.3v1.3h.31c.35,0,.59-.04.72-.13.13-.09.19-.25.19-.5Z" style="fill: #000; stroke-width: 0px;"/>
      <path d="M115.99,291.93c0,.4-.08.75-.23,1.06-.15.31-.38.55-.68.73s-.67.27-1.1.27-.8-.09-1.1-.27c-.3-.18-.53-.42-.68-.73-.15-.31-.22-.66-.22-1.06,0-.3.04-.57.12-.82.08-.24.21-.46.38-.65.17-.19.38-.33.63-.44s.54-.15.87-.15.62.05.88.15c.25.1.46.25.63.43.17.19.29.4.38.65.08.25.13.52.13.82ZM114.69,291.93c0-.31-.06-.56-.18-.74-.12-.18-.3-.27-.52-.27s-.4.09-.52.27c-.12.18-.18.43-.18.74s.06.56.18.74c.12.18.29.27.52.27s.4-.09.52-.27c.12-.18.18-.43.18-.74Z" style="fill: #000; stroke-width: 0px;"/>
      <path d="M120.22,291.93c0,.4-.08.75-.23,1.06-.15.31-.38.55-.68.73-.3.18-.67.27-1.1.27s-.8-.09-1.1-.27c-.3-.18-.53-.42-.68-.73-.15-.31-.23-.66-.23-1.06,0-.3.04-.57.13-.82.08-.24.21-.46.38-.65.17-.19.38-.33.63-.44.25-.1.54-.15.87-.15s.62.05.88.15c.25.1.46.25.63.43.17.19.29.4.38.65.08.25.13.52.13.82ZM118.91,291.93c0-.31-.06-.56-.18-.74-.12-.18-.29-.27-.52-.27s-.4.09-.52.27c-.12.18-.18.43-.18.74s.06.56.18.74c.12.18.29.27.52.27s.4-.09.52-.27c.12-.18.18-.43.18-.74Z" style="fill: #000; stroke-width: 0px;"/>
      <path d="M123.34,293.69c-.13.07-.31.14-.53.2-.23.07-.44.1-.65.1-.89,0-1.34-.49-1.34-1.48v-1.59h-.56v-.25l1.66-1.92h.14v1.19h1.18v.98h-1.18v1.27c0,.15,0,.27.02.36.02.09.06.17.14.23.07.06.19.09.34.09.2,0,.46-.09.78-.28v1.1Z" style="fill: #000; stroke-width: 0px;"/>
    </g>
    <g>
      <path d="M90.66,141.86h-2.18v5.12h-1.79v-5.12h-2.18v-1.65h6.16v1.65Z" style="fill: #000; stroke-width: 0px;"/>
      <path d="M94.95,142.28l-.57,1.76c-.24-.25-.47-.38-.71-.38-.22,0-.41.08-.56.25-.16.17-.31.48-.46.93v2.14h-1.55v-4.97h1.55v1.2c.1-.3.27-.58.52-.87.25-.28.54-.42.87-.42.17,0,.33.03.46.09s.29.15.47.27Z" style="fill: #000; stroke-width: 0px;"/>
      <path d="M99.63,146.74c-.23.1-.44.18-.63.24-.19.06-.42.09-.69.09-.25,0-.43-.05-.53-.15s-.17-.23-.21-.37c-.17.15-.35.28-.55.38-.2.1-.47.15-.8.15s-.58-.06-.77-.19c-.2-.12-.33-.28-.41-.47-.08-.19-.12-.39-.12-.59,0-.31.07-.56.2-.76.14-.2.32-.36.55-.49.23-.13.53-.26.91-.4.21-.08.38-.14.49-.18.11-.04.19-.07.25-.09.05-.02.11-.05.17-.09,0-.24-.04-.43-.13-.57s-.27-.21-.56-.21c-.34,0-.65.08-.94.25-.29.17-.55.39-.79.65v-1.35c.19-.16.4-.28.62-.38.22-.1.46-.17.7-.22s.49-.07.74-.07c.63,0,1.11.14,1.43.42s.48.66.48,1.15v1.92c0,.18.02.32.04.41.03.09.09.13.17.13.1,0,.23-.05.4-.14v.92ZM97.48,145.78v-1.18c-.37.17-.63.32-.8.46-.17.14-.25.32-.25.55,0,.17.04.29.13.38s.18.13.29.13c.11,0,.21-.03.32-.1.1-.07.21-.15.32-.24Z" style="fill: #000; stroke-width: 0px;"/>
      <path d="M104.43,146.99h-1.55v-2.68c0-.27-.04-.51-.12-.72-.08-.2-.25-.3-.52-.3-.13,0-.24.03-.33.08-.1.05-.18.12-.26.21-.08.08-.14.17-.19.24-.05.08-.1.16-.16.25v2.92h-1.55v-4.97h1.55v.71c.24-.3.49-.5.73-.62.25-.12.52-.18.82-.18,1.05,0,1.57.71,1.57,2.14v2.92Z" style="fill: #000; stroke-width: 0px;"/>
      <path d="M108.43,145.53c0,.46-.15.83-.44,1.11-.29.29-.73.43-1.31.43-.32,0-.61-.03-.86-.1-.25-.07-.53-.16-.82-.29v-1.25c.26.17.49.3.68.39s.4.13.63.13c.39,0,.58-.12.58-.36,0-.08-.03-.15-.08-.22-.06-.06-.15-.13-.29-.21-.14-.08-.32-.17-.56-.29-.29-.14-.53-.34-.73-.58-.2-.24-.3-.54-.3-.88,0-.25.07-.49.2-.71.13-.23.33-.41.6-.56.27-.14.59-.22.98-.22.09,0,.21,0,.35.02.14.01.32.05.54.12.22.06.42.15.62.26v1.22c-.09-.06-.17-.11-.23-.16-.06-.04-.14-.09-.25-.14-.1-.05-.22-.1-.36-.14-.14-.04-.28-.06-.43-.06-.18,0-.3.04-.37.12s-.1.16-.1.23.03.16.1.23c.07.07.22.16.46.26.34.15.62.3.82.46.21.16.35.33.44.52.09.19.13.41.13.67Z" style="fill: #000; stroke-width: 0px;"/>
      <path d="M113.72,144.47c0,.33-.04.65-.12.96-.08.31-.21.59-.38.84-.17.25-.39.45-.66.59-.27.15-.58.22-.93.22-.29,0-.51-.03-.68-.1-.16-.07-.33-.16-.49-.27v2.55h-1.55v-7.23h1.55v.45c.16-.15.33-.28.51-.38s.44-.15.76-.15.63.09.94.27c.31.18.56.46.76.84.2.38.3.86.3,1.43ZM112.09,144.5c0-.3-.04-.54-.12-.73-.08-.19-.19-.32-.32-.41s-.27-.12-.41-.12c-.18,0-.33.03-.45.1-.12.07-.23.15-.33.25v1.9c.05.03.11.07.17.11.06.04.12.08.18.11s.13.05.2.07.15.03.23.03c.24,0,.45-.12.61-.35s.25-.55.25-.96Z" style="fill: #000; stroke-width: 0px;"/>
      <path d="M119,144.49c0,.49-.09.94-.28,1.32-.19.39-.47.69-.85.92s-.84.34-1.38.34-1-.11-1.38-.34c-.38-.22-.66-.53-.85-.92-.19-.39-.28-.83-.28-1.32,0-.38.05-.71.16-1.02.1-.31.26-.58.48-.81.21-.24.48-.42.79-.54s.67-.19,1.08-.19.78.06,1.09.19c.32.13.58.31.79.54.21.23.36.5.47.81.11.31.16.65.16,1.03ZM117.37,144.49c0-.39-.08-.7-.23-.93-.15-.22-.37-.33-.66-.33s-.5.11-.65.33c-.15.22-.23.53-.23.93s.08.7.23.93c.15.23.37.34.65.34s.5-.11.66-.34c.15-.23.23-.54.23-.93Z" style="fill: #000; stroke-width: 0px;"/>
      <path d="M122.87,145.53c0,.46-.15.83-.44,1.11-.29.29-.73.43-1.31.43-.32,0-.61-.03-.86-.1-.25-.07-.53-.16-.83-.29v-1.25c.26.17.49.3.68.39.19.09.4.13.63.13.39,0,.58-.12.58-.36,0-.08-.03-.15-.08-.22-.06-.06-.15-.13-.29-.21-.14-.08-.32-.17-.56-.29-.29-.14-.53-.34-.73-.58-.2-.24-.3-.54-.3-.88,0-.25.07-.49.2-.71.13-.23.33-.41.6-.56.27-.14.59-.22.98-.22.09,0,.21,0,.35.02.14.01.32.05.54.12.22.06.42.15.62.26v1.22c-.09-.06-.17-.11-.23-.16-.06-.04-.14-.09-.25-.14-.1-.05-.22-.1-.36-.14-.14-.04-.28-.06-.43-.06-.18,0-.3.04-.37.12-.07.08-.1.16-.1.23s.03.16.1.23c.07.07.22.16.46.26.34.15.62.3.83.46.21.16.35.33.44.52.09.19.13.41.13.67Z" style="fill: #000; stroke-width: 0px;"/>
      <path d="M127.85,144.92h-3.08c.06.3.21.55.44.74.23.19.5.29.8.29.52,0,1.1-.17,1.73-.5v1.09c-.23.13-.5.25-.82.36-.32.11-.73.16-1.23.16-.54,0-1-.11-1.38-.34-.38-.23-.66-.54-.85-.93s-.28-.83-.28-1.33.09-.93.28-1.31.47-.69.85-.91.84-.33,1.38-.33c.35,0,.7.09,1.03.26.33.17.6.46.82.85.21.4.32.91.32,1.53v.35ZM126.39,144.06c0-.32-.07-.57-.21-.76-.14-.19-.34-.29-.6-.29s-.47.1-.62.29c-.16.19-.24.45-.24.76h1.67Z" style="fill: #000; stroke-width: 0px;"/>
    </g>
    <g>
      <path d="M115.27,102.06l1.13-1.95c-2.75-1.43-5.84-2.3-9.12-2.44v2.26c2.87.14,5.57.89,7.99,2.14Z" style="fill: #000; stroke-width: 0px;"/>
      <path d="M122.85,108.91l1.95-1.13c-1.72-2.68-4-4.96-6.68-6.68l-1.13,1.95c2.34,1.52,4.33,3.51,5.85,5.85Z" style="fill: #000; stroke-width: 0px;"/>
      <path d="M95.54,103.06l-1.13-1.95c-2.68,1.72-4.96,4-6.68,6.68l1.95,1.13c1.52-2.34,3.51-4.33,5.85-5.85Z" style="fill: #000; stroke-width: 0px;"/>
      <path d="M125.99,118.64h2.26c-.15-3.28-1.01-6.37-2.44-9.12l-1.95,1.13c1.24,2.42,1.99,5.13,2.14,8Z" style="fill: #000; stroke-width: 0px;"/>
      <path d="M105.27,99.92v-2.26c-3.28.15-6.37,1.01-9.12,2.44l1.13,1.95c2.42-1.24,5.13-1.99,8-2.14Z" style="fill: #000; stroke-width: 0px;"/>
      <path d="M89.69,130.37l-1.95,1.13c1.72,2.68,4,4.96,6.68,6.68l1.13-1.95c-2.34-1.52-4.33-3.51-5.85-5.85Z" style="fill: #000; stroke-width: 0px;"/>
      <path d="M117,136.22l1.13,1.95c2.68-1.72,4.96-4,6.68-6.68l-1.95-1.13c-1.52,2.34-3.51,4.33-5.85,5.85Z" style="fill: #000; stroke-width: 0px;"/>
      <path d="M125.99,120.64c-.14,2.87-.89,5.57-2.14,8l1.95,1.13c1.43-2.75,2.3-5.84,2.44-9.12h-2.26Z" style="fill: #000; stroke-width: 0px;"/>
      <path d="M86.55,120.64h-2.26c.15,3.28,1.01,6.37,2.44,9.12l1.95-1.13c-1.24-2.42-1.99-5.13-2.14-8Z" style="fill: #000; stroke-width: 0px;"/>
      <path d="M88.69,110.65l-1.95-1.13c-1.43,2.75-2.3,5.84-2.44,9.12h2.26c.14-2.87.89-5.57,2.14-8Z" style="fill: #000; stroke-width: 0px;"/>
    </g>
    <g>
      <path d="M66.08,83.29c0,.42-.1.79-.29,1.1s-.46.55-.8.71-.73.25-1.17.25c-.12,0-.27,0-.45-.03s-.42-.07-.71-.15-.6-.2-.93-.36v-1.66c.3.21.6.39.89.53.29.14.6.21.93.21.31,0,.5-.06.6-.17s.14-.22.14-.32c0-.18-.08-.34-.23-.46s-.38-.25-.67-.39c-.33-.16-.61-.33-.86-.51-.25-.18-.45-.41-.6-.69-.16-.28-.23-.6-.23-.98s.08-.69.24-.99.4-.53.72-.71c.32-.18.72-.26,1.19-.26.33,0,.64.04.92.11s.51.16.7.25c.18.09.31.16.38.21v1.59c-.24-.2-.51-.38-.81-.53s-.62-.23-.96-.23c-.22,0-.39.05-.49.15-.1.1-.15.22-.15.36,0,.13.05.25.15.35.1.1.28.22.54.36.46.24.82.46,1.1.66.28.2.49.42.65.68.16.26.23.57.23.95Z" style="fill: #000; stroke-width: 0px;"/>
      <path d="M70.44,85.03c-.13.06-.27.11-.41.15-.14.05-.3.09-.48.12-.18.03-.38.05-.59.05-.48,0-.88-.09-1.21-.28-.33-.18-.59-.42-.76-.69s-.3-.56-.37-.85-.1-.55-.1-.77.03-.48.1-.77.19-.57.37-.84c.17-.27.43-.5.76-.68.33-.18.74-.27,1.22-.27.32,0,.59.03.79.08.2.05.41.12.62.21v1.38c-.5-.18-.9-.27-1.18-.27s-.52.09-.73.28-.32.48-.32.88c0,.26.05.49.16.67s.24.31.4.4c.16.08.33.13.49.13.15,0,.33-.03.53-.08s.44-.13.72-.22v1.38Z" style="fill: #000; stroke-width: 0px;"/>
      <path d="M75.38,85.01c-.23.1-.44.18-.63.24s-.42.09-.69.09c-.25,0-.43-.05-.53-.15s-.17-.23-.21-.37c-.17.15-.35.28-.55.38-.2.1-.47.15-.8.15s-.58-.06-.77-.19-.33-.28-.41-.47c-.08-.19-.12-.39-.12-.59,0-.31.07-.56.2-.76.14-.2.32-.36.55-.49.23-.13.53-.26.91-.4.21-.08.38-.14.49-.18s.19-.07.25-.1c.05-.02.11-.05.17-.09,0-.24-.04-.43-.13-.57s-.27-.21-.56-.21c-.34,0-.65.08-.94.25-.29.17-.55.39-.79.65v-1.35c.19-.16.4-.28.62-.38.22-.1.46-.17.7-.22s.49-.07.74-.07c.63,0,1.11.14,1.43.42s.48.66.48,1.15v1.92c0,.18.02.32.04.41.03.09.09.13.17.13.1,0,.23-.05.4-.14v.92ZM73.23,84.06v-1.18c-.37.17-.63.32-.8.46s-.25.32-.25.55c0,.17.04.29.13.38s.18.13.29.13c.11,0,.21-.03.32-.1s.21-.15.32-.24Z" style="fill: #000; stroke-width: 0px;"/>
      <path d="M77.14,85.26h-1.55v-6.77h1.55v6.77Z" style="fill: #000; stroke-width: 0px;"/>
      <path d="M82.34,83.2h-3.08c.06.3.21.55.44.74s.5.29.8.29c.52,0,1.1-.17,1.73-.5v1.09c-.23.13-.5.25-.82.36s-.73.16-1.23.16c-.54,0-1-.11-1.38-.34s-.66-.54-.85-.93-.28-.83-.28-1.33.09-.93.28-1.31.47-.69.85-.91.84-.33,1.38-.33c.35,0,.7.09,1.03.26.33.17.6.46.82.85.21.4.32.91.32,1.53v.35ZM80.89,82.33c0-.32-.07-.57-.21-.76-.14-.19-.34-.29-.6-.29s-.47.1-.62.29-.24.45-.24.76h1.67Z" style="fill: #000; stroke-width: 0px;"/>
    </g>
    <g>
      <path d="M81,40.34l1.13-1.95c-2.75-1.43-5.84-2.3-9.12-2.44v2.26c2.87.14,5.57.89,7.99,2.14Z" style="fill: #000; stroke-width: 0px;"/>
      <path d="M88.58,47.19l1.95-1.13c-1.72-2.68-4-4.96-6.68-6.68l-1.13,1.95c2.34,1.52,4.33,3.51,5.85,5.85Z" style="fill: #000; stroke-width: 0px;"/>
      <path d="M61.27,41.34l-1.13-1.95c-2.68,1.72-4.96,4-6.68,6.68l1.95,1.13c1.52-2.34,3.51-4.33,5.85-5.85Z" style="fill: #000; stroke-width: 0px;"/>
      <path d="M91.72,56.92h2.26c-.15-3.28-1.01-6.37-2.44-9.12l-1.95,1.13c1.24,2.42,1.99,5.13,2.14,8Z" style="fill: #000; stroke-width: 0px;"/>
      <path d="M71,38.2v-2.26c-3.28.15-6.37,1.01-9.12,2.44l1.13,1.95c2.42-1.24,5.13-1.99,8-2.14Z" style="fill: #000; stroke-width: 0px;"/>
      <path d="M55.42,68.64l-1.95,1.13c1.72,2.68,4,4.96,6.68,6.68l1.13-1.95c-2.34-1.52-4.33-3.51-5.85-5.85Z" style="fill: #000; stroke-width: 0px;"/>
      <path d="M82.73,74.5l1.13,1.95c2.68-1.72,4.96-4,6.68-6.68l-1.95-1.13c-1.52,2.34-3.51,4.33-5.85,5.85Z" style="fill: #000; stroke-width: 0px;"/>
      <path d="M91.72,58.92c-.14,2.87-.89,5.57-2.14,8l1.95,1.13c1.43-2.75,2.3-5.84,2.44-9.12h-2.26Z" style="fill: #000; stroke-width: 0px;"/>
      <path d="M52.28,58.92h-2.26c.15,3.28,1.01,6.37,2.44,9.12l1.95-1.13c-1.24-2.42-1.99-5.13-2.14-8Z" style="fill: #000; stroke-width: 0px;"/>
      <path d="M54.42,48.92l-1.95-1.13c-1.43,2.75-2.3,5.84-2.44,9.12h2.26c.14-2.87.89-5.57,2.14-8Z" style="fill: #000; stroke-width: 0px;"/>
    </g>
    <g>
      <path d="M33.67,146.98h-1.93l-.47-1.2c-.17-.44-.33-.76-.46-.96s-.27-.33-.4-.39c-.13-.06-.3-.09-.5-.09h-.2v2.64h-1.8v-6.77h3.05c.49,0,.9.11,1.21.34s.54.5.68.83c.14.33.21.63.21.93,0,.34-.06.63-.17.87-.12.24-.24.41-.37.52s-.27.21-.43.31c.19.13.35.28.47.45.12.17.29.53.51,1.06l.6,1.47ZM31.23,142.36c0-.31-.09-.53-.27-.65s-.47-.19-.88-.19h-.38v1.63h.39c.44,0,.74-.05.9-.16s.24-.32.24-.63Z" style="fill: #000; stroke-width: 0px;"/>
      <path d="M38.71,144.49c0,.49-.09.94-.28,1.32s-.47.69-.85.92-.84.34-1.38.34-1-.11-1.38-.34c-.38-.22-.66-.53-.85-.92s-.28-.83-.28-1.32c0-.37.05-.71.16-1.02s.26-.58.48-.81c.21-.24.48-.42.79-.54s.67-.19,1.08-.19.78.06,1.09.19c.32.13.58.31.79.54.21.23.36.5.47.81.11.31.16.65.16,1.03ZM37.08,144.49c0-.39-.08-.7-.23-.93s-.37-.33-.66-.33-.5.11-.65.33-.23.53-.23.93.08.7.23.93c.15.23.37.34.65.34s.5-.11.66-.34.23-.54.23-.93Z" style="fill: #000; stroke-width: 0px;"/>
      <path d="M43.99,144.49c0,.49-.09.94-.28,1.32s-.47.69-.85.92-.84.34-1.38.34-1-.11-1.38-.34c-.38-.22-.66-.53-.85-.92s-.28-.83-.28-1.32c0-.37.05-.71.16-1.02s.26-.58.48-.81c.21-.24.48-.42.79-.54s.67-.19,1.08-.19.78.06,1.09.19c.32.13.58.31.79.54.21.23.36.5.47.81.11.31.16.65.16,1.03ZM42.36,144.49c0-.39-.08-.7-.23-.93s-.37-.33-.66-.33-.5.11-.65.33-.23.53-.23.93.08.7.23.93c.15.23.37.34.65.34s.5-.11.66-.34.23-.54.23-.93Z" style="fill: #000; stroke-width: 0px;"/>
      <path d="M47.89,146.7c-.16.09-.38.17-.66.25s-.55.12-.81.12c-1.11,0-1.67-.62-1.67-1.86v-1.98h-.7v-.31l2.08-2.4h.18v1.49h1.48v1.22h-1.48v1.59c0,.19,0,.34.03.45.02.11.08.21.17.29s.23.11.42.11c.25,0,.57-.12.97-.35v1.37Z" style="fill: #000; stroke-width: 0px;"/>
    </g>
    <g>
      <path d="M46.72,102.06l1.13-1.95c-2.75-1.43-5.84-2.3-9.12-2.44v2.26c2.87.14,5.57.89,7.99,2.14Z" style="fill: #000; stroke-width: 0px;"/>
      <path d="M54.31,108.91l1.95-1.13c-1.72-2.68-4-4.96-6.68-6.68l-1.13,1.95c2.34,1.52,4.33,3.51,5.85,5.85Z" style="fill: #000; stroke-width: 0px;"/>
      <path d="M27,103.06l-1.13-1.95c-2.68,1.72-4.96,4-6.68,6.68l1.95,1.13c1.52-2.34,3.51-4.33,5.85-5.85Z" style="fill: #000; stroke-width: 0px;"/>
      <path d="M57.45,118.64h2.26c-.15-3.28-1.01-6.37-2.44-9.12l-1.95,1.13c1.24,2.42,1.99,5.13,2.14,8Z" style="fill: #000; stroke-width: 0px;"/>
      <path d="M36.73,99.92v-2.26c-3.28.15-6.37,1.01-9.12,2.44l1.13,1.95c2.42-1.24,5.13-1.99,8-2.14Z" style="fill: #000; stroke-width: 0px;"/>
      <path d="M21.15,130.37l-1.95,1.13c1.72,2.68,4,4.96,6.68,6.68l1.13-1.95c-2.34-1.52-4.33-3.51-5.85-5.85Z" style="fill: #000; stroke-width: 0px;"/>
      <path d="M48.46,136.22l1.13,1.95c2.68-1.72,4.96-4,6.68-6.68l-1.95-1.13c-1.52,2.34-3.51,4.33-5.85,5.85Z" style="fill: #000; stroke-width: 0px;"/>
      <path d="M57.45,120.64c-.14,2.87-.89,5.57-2.14,8l1.95,1.13c1.43-2.75,2.3-5.84,2.44-9.12h-2.26Z" style="fill: #000; stroke-width: 0px;"/>
      <path d="M18.01,120.64h-2.26c.15,3.28,1.01,6.37,2.44,9.12l1.95-1.13c-1.24-2.42-1.99-5.13-2.14-8Z" style="fill: #000; stroke-width: 0px;"/>
      <path d="M20.15,110.65l-1.95-1.13c-1.43,2.75-2.3,5.84-2.44,9.12h2.26c.14-2.87.89-5.57,2.14-8Z" style="fill: #000; stroke-width: 0px;"/>
    </g>
    <g>
      <path d="M63.8,18.07c-.37,0-.71-.17-.97-.47-.51-.6-.52-1.54-.04-2.16l6.97-8.88c.38-.48,1.05-.65,1.57-.39.5.25.79.82.79,1.45v4.77l4.64-5.85c.38-.48,1.01-.64,1.53-.38.5.25.83.81.83,1.44v8.82c0,.86-.61,1.57-1.36,1.57s-1.36-.7-1.36-1.57v-4.79l-4.64,5.85c-.38.48-1.01.64-1.54.38-.5-.24-.83-.81-.83-1.44v-4.67l-4.61,5.8c-.26.32-.62.51-1,.51h0Z" style="fill: #2cabe1; stroke-width: 0px;"/>
      <path d="M63.8,18.07c-.75,0-1.35-.7-1.35-1.57v-4.93l-2.26,2.84c-.5.63-1.44.65-1.97.04-.51-.6-.52-1.53-.03-2.15l4.61-5.76c.26-.32.63-.5,1-.5.18,0,.37.04.54.12.5.25.82.81.82,1.44v8.89c0,.86-.61,1.57-1.36,1.57h0Z" style="fill: #ea2228; stroke-width: 0px;"/>
      <path d="M80.4,18.09h0c-.35,0-.68-.15-.94-.42-.76-.78-.14-1.84.29-2.3l1.95-2.36-1.26-.02c-.56-.01-1.04-.4-1.24-1-.19-.56-.07-1.21.29-1.64l3.16-3.83c.23-.28.55-.48,1.13-.47.33,0,.67.17.92.4.71.66.29,1.7-.07,2.2l-1.04,1.26,1.26.02c.56.01,1.04.4,1.24,1,.19.56.07,1.21-.29,1.64l-4.1,4.97c-.35.35-.65.55-1.3.54h0Z" style="fill: #00a650; stroke-width: 0px;"/>
    </g>
  </g>
  <g id="components">
    <circle id="Out" cx="115.04" cy="313.71" r="11.34" style="fill: blue; stroke-width: 0px;"/>
    <circle id="Pre" cx="72" cy="313.71" r="11.34" style="fill: blue; stroke-width: 0px;"/>
    <circle id="Thru" cx="29.82" cy="313.71" r="11.34" style="fill: blue; stroke-width: 0px;"/>
    <circle id="Root_CV" data-name="Root CV" cx="115.04" cy="272.11" r="11.34" style="fill: lime; stroke-width: 0px;"/>
    <circle id="Scale_CV" data-name="Scale CV" cx="72" cy="272.11" r="11.34" style="fill: lime; stroke-width: 0px;"/>
    <circle id="Input" cx="29.82" cy="272.11" r="11.34" style="fill: lime; stroke-width: 0px;"/>
    <circle id="Transpose" cx="106.27" cy="119.29" r="17.01" style="fill: #ff0070; stroke-width: 0px;"/>
    <circle id="Root" cx="37.73" cy="119.29" r="17.01" style="fill: #ff0070; stroke-width: 0px;"/>
    <circle id="Scale" cx="72" cy="57.56" r="17.01" style="fill: red; stroke-width: 0px;"/>
    <text id="slug" transform="translate(114.91 368.95)" style="fill: #000; font-family: MyriadPro-Regular, &apos;Myriad Pro&apos;; font-size: 3px;"><tspan x="0" y="0" style="letter-spacing: 0em;">Q</tspan><tspan x="2.08" y="0" style="letter-spacing: 0em;">ua</tspan><tspan x="5.17" y="0" style="letter-spacing: 0em;">n</tspan><tspan x="6.83" y="0">t</tspan></text>
    <text id="modulename" transform="translate(130.71 368.95)" style="fill: #000; font-family: MyriadPro-Regular, &apos;Myriad Pro&apos;; font-size: 3px;"><tspan x="0" y="0" style="letter-spacing: 0em;">Q</tspan><tspan x="2.08" y="0" style="letter-spacing: 0em;">ua</tspan><tspan x="5.17" y="0" style="letter-spacing: 0em;">n</tspan><tspan x="6.83" y="0">ti</tspan><tspan x="8.52" y="0" style="letter-spacing: 0em;">z</tspan><tspan x="9.79" y="0">er</tspan></text>
  </g>
</svg>