<?xml version="1.0" encoding="UTF-8" standalone="no"?>
<svg
   width="50.89mm"
   height="131.58mm"
   viewBox="0 0 144.25 372.97"
   version="1.1"
   id="svg146"
   sodipodi:docname="RCD_info.svg"
   inkscape:version="1.3.2 (091e20e, 2023-11-25)"
   xmlns:inkscape="http://www.inkscape.org/namespaces/inkscape"
   xmlns:sodipodi="http://sodipodi.sourceforge.net/DTD/sodipodi-0.dtd"
   xmlns="http://www.w3.org/2000/svg"
   xmlns:svg="http://www.w3.org/2000/svg">
  <defs
     id="defs146" />
  <sodipodi:namedview
     id="namedview146"
     pagecolor="#ffffff"
     bordercolor="#000000"
     borderopacity="0.25"
     inkscape:showpageshadow="2"
     inkscape:pageopacity="0.0"
     inkscape:pagecheckerboard="0"
     inkscape:deskcolor="#d1d1d1"
     inkscape:document-units="mm"
     inkscape:zoom="1.5075077"
     inkscape:cx="62.686246"
     inkscape:cy="187.72706"
     inkscape:window-width="1584"
     inkscape:window-height="1051"
     inkscape:window-x="52"
     inkscape:window-y="38"
     inkscape:window-maximized="0"
     inkscape:current-layer="components" />
  <g
     id="faceplate">
    <rect
       x=".12"
       y=".12"
       width="144"
       height="364.25"
       style="fill: #ededed; stroke: #9d9d9e; stroke-miterlimit: 10; stroke-width: .25px;"
       id="rect1" />
    <g
       id="g3">
      <path
         d="m77.6,9.19s-3.41,4.33-5.39,6.85v-5.87c0-.5-.25-.96-.63-1.14-.38-.19-.82-.07-1.1.29l-7.09,9.01c-.38.49-.37,1.27.03,1.74.4.47,1.04.46,1.42-.03,0,0,3.38-4.29,5.35-6.81v5.87c0,.5.25.96.63,1.14.38.19.82.07,1.1-.29,0,0,3.41-4.33,5.39-6.85v5.99c0,.68.45,1.23,1.01,1.23s1-.55,1-1.23v-9.05c0-.5-.25-.95-.63-1.14-.38-.19-.82-.07-1.1.29Z"
         style="fill: #00adee; stroke: #00adee; stroke-width: .75px;"
         id="path1" />
      <path
         d="m63.39,9.12l-4.69,5.97c-.39.49-.37,1.27.02,1.74.4.47,1.04.46,1.42-.03,0,0,1.59-2.01,2.97-3.77v6.14c0,.68.45,1.23,1,1.23s1.01-.55,1.01-1.23v-9.2c0-.5-.25-.96-.63-1.14-.38-.19-.82-.07-1.1.29Z"
         style="fill: #ec1c24; stroke: #ec1c24; stroke-width: .75px;"
         id="path2" />
      <path
         d="m85.75,13.52c-.16-.46-.52-.75-.92-.75h-2.05l1.5-1.9s.78-1.14.09-1.77c-.69-.63-1.54.06-1.54.06l-3.14,3.99c-.28.36-.36.88-.2,1.34.16.46.52.75.93.75h2.05l-2.43,3.09s-1.01,1.1-.26,1.84c.74.74,1.71-.13,1.71-.13l4.07-5.18c.28-.36.36-.88.2-1.34Z"
         style="fill: #00a551; stroke: #00a551; stroke-width: .75px;"
         id="path3" />
    </g>
    <g
       id="g5">
      <path
         d="m22.96,100.24c-6.34,0-11.49-5.52-11.49-12.31s5.15-12.31,11.49-12.31h29.71c6.34,0,11.49,5.52,11.49,12.31s-5.15,12.31-11.49,12.31h-29.71Z"
         style="fill: #00adee;"
         id="path4" />
      <path
         d="m52.68,76.12c6.07,0,10.99,5.28,10.99,11.81s-4.92,11.81-10.99,11.81h-29.71c-6.07,0-10.99-5.28-10.99-11.81s4.92-11.81,10.99-11.81h29.71m0-1h-29.71c-6.61,0-11.99,5.74-11.99,12.81s5.38,12.81,11.99,12.81h29.71c6.61,0,11.99-5.74,11.99-12.81s-5.38-12.81-11.99-12.81h0Z"
         style="fill: #171717;"
         id="path5" />
    </g>
    <line
       x1="26.26"
       y1="88.29"
       x2="30.19"
       y2="88.29"
       style="stroke: #171717; stroke-width: .83px;"
       id="line5" />
    <ellipse
       cx="28.22"
       cy="86.11"
       rx=".64"
       ry=".94"
       style="fill: #171717;"
       id="ellipse5" />
    <path
       d="m28.68,91.13c-.25.37-.65.37-.9,0-.25-.37-.25-.96,0-1.33.25-.37.65-.37.9,0,.25.37.25.96,0,1.33Z"
       style="fill: #171717;"
       id="path6" />
    <path
       d="m32.18,86.79h-1.27v-.85h.12c.43,0,.77-.08,1.02-.24.25-.16.41-.42.47-.78h.95v6.37h-1.3v-4.5Z"
       style="fill: #171717;"
       id="path7" />
    <g
       id="g9">
      <path
         d="m22.96,131.85c-6.34,0-11.49-5.52-11.49-12.31s5.15-12.31,11.49-12.31h29.71c6.34,0,11.49,5.52,11.49,12.31s-5.15,12.31-11.49,12.31h-29.71Z"
         style="fill: #ec1c24;"
         id="path8" />
      <path
         d="m52.68,107.74c6.07,0,10.99,5.28,10.99,11.81s-4.92,11.81-10.99,11.81h-29.71c-6.07,0-10.99-5.28-10.99-11.81s4.92-11.81,10.99-11.81h29.71m0-1h-29.71c-6.61,0-11.99,5.74-11.99,12.81s5.38,12.81,11.99,12.81h29.71c6.61,0,11.99-5.74,11.99-12.81s-5.38-12.81-11.99-12.81h0Z"
         style="fill: #171717;"
         id="path9" />
    </g>
    <line
       x1="26.26"
       y1="119.91"
       x2="30.19"
       y2="119.91"
       style="stroke: #171717; stroke-width: .83px;"
       id="line9" />
    <ellipse
       cx="28.22"
       cy="117.73"
       rx=".64"
       ry=".94"
       style="fill: #171717;"
       id="ellipse9" />
    <path
       d="m28.68,122.75c-.25.37-.65.37-.9,0-.25-.37-.25-.96,0-1.33.25-.37.65-.37.9,0,.25.37.25.96,0,1.33Z"
       style="fill: #171717;"
       id="path10" />
    <path
       d="m30.7,122.91c0-.28.03-.55.09-.79s.14-.48.26-.7c.12-.22.26-.44.44-.65.18-.21.38-.43.62-.64l.52-.49c.14-.13.26-.24.35-.35s.15-.22.2-.32c.05-.11.08-.22.09-.35.02-.13.02-.27.02-.43,0-.53-.21-.79-.63-.79-.16,0-.29.03-.38.1-.09.07-.17.16-.22.27-.05.11-.08.25-.1.4-.01.15-.02.31-.02.48h-1.24v-.24c0-.59.16-1.05.48-1.37.32-.32.82-.48,1.5-.48.65,0,1.13.15,1.44.45.31.3.47.73.47,1.29,0,.2-.02.39-.05.57-.04.18-.09.35-.17.51-.08.16-.18.32-.31.47-.13.15-.28.31-.46.47l-.72.67c-.19.17-.34.34-.45.51-.11.17-.18.31-.21.43h2.4v1.01h-3.92Z"
       style="fill: #171717;"
       id="path11" />
    <g
       id="g13">
      <path
         d="m22.96,163.47c-6.34,0-11.49-5.52-11.49-12.31s5.15-12.31,11.49-12.31h29.71c6.34,0,11.49,5.52,11.49,12.31s-5.15,12.31-11.49,12.31h-29.71Z"
         style="fill: #00a551;"
         id="path12" />
      <path
         d="m52.68,139.35c6.07,0,10.99,5.29,10.99,11.81s-4.92,11.81-10.99,11.81h-29.71c-6.07,0-10.99-5.28-10.99-11.81s4.92-11.81,10.99-11.81h29.71m0-1h-29.71c-6.61,0-11.99,5.74-11.99,12.81s5.38,12.81,11.99,12.81h29.71c6.61,0,11.99-5.74,11.99-12.81s-5.38-12.81-11.99-12.81h0Z"
         style="fill: #171717;"
         id="path13" />
    </g>
    <line
       x1="26.26"
       y1="151.52"
       x2="30.19"
       y2="151.52"
       style="stroke: #171717; stroke-width: .83px;"
       id="line13" />
    <ellipse
       cx="28.22"
       cy="149.34"
       rx=".64"
       ry=".94"
       style="fill: #171717;"
       id="ellipse13" />
    <path
       d="m28.68,154.36c-.25.37-.65.37-.9,0-.25-.37-.25-.96,0-1.33s.65-.37.9,0,.25.96,0,1.33Z"
       style="fill: #171717;"
       id="path14" />
    <path
       d="m32.11,153.51c.09.2.28.29.56.29.16,0,.28-.03.37-.08.09-.05.16-.13.22-.22.05-.09.08-.2.1-.33.02-.13.02-.26.02-.4s-.01-.28-.03-.41c-.02-.13-.06-.24-.12-.35-.06-.1-.14-.18-.25-.24-.11-.06-.25-.09-.43-.09h-.43v-.85h.42c.14,0,.25-.03.35-.09.09-.06.17-.13.22-.23.06-.09.1-.2.13-.32.03-.12.04-.25.04-.38,0-.31-.05-.52-.15-.65-.1-.13-.26-.19-.47-.19-.14,0-.25.03-.34.08-.09.05-.15.12-.2.22-.05.09-.08.2-.09.33s-.02.26-.02.41h-1.19c0-.64.16-1.11.48-1.42.32-.31.78-.46,1.4-.46s1.03.13,1.35.4c.32.26.48.68.48,1.24,0,.38-.09.7-.26.94-.17.24-.41.4-.72.46v.02c.41.07.71.23.88.5.17.27.26.6.26,1,0,.22-.03.44-.08.67-.05.23-.16.44-.31.62-.16.19-.37.34-.64.45-.27.11-.63.17-1.08.17-.62,0-1.08-.17-1.39-.5-.31-.34-.46-.81-.46-1.43v-.03h1.24c0,.37.06.66.15.85Z"
       style="fill: #171717;"
       id="path15" />
    <g
       id="g17">
      <path
         d="m22.96,195.08c-6.34,0-11.49-5.52-11.49-12.31s5.15-12.31,11.49-12.31h29.71c6.34,0,11.49,5.52,11.49,12.31s-5.15,12.31-11.49,12.31h-29.71Z"
         style="fill: #ec1c24;"
         id="path16" />
      <path
         d="m52.68,170.97c6.07,0,10.99,5.29,10.99,11.81s-4.92,11.81-10.99,11.81h-29.71c-6.07,0-10.99-5.28-10.99-11.81s4.92-11.81,10.99-11.81h29.71m0-1h-29.71c-6.61,0-11.99,5.74-11.99,12.81s5.38,12.81,11.99,12.81h29.71c6.61,0,11.99-5.74,11.99-12.81s-5.38-12.81-11.99-12.81h0Z"
         style="fill: #171717;"
         id="path17" />
    </g>
    <line
       x1="26.26"
       y1="183.14"
       x2="30.19"
       y2="183.14"
       style="stroke: #171717; stroke-width: .83px;"
       id="line17" />
    <ellipse
       cx="28.22"
       cy="180.96"
       rx=".64"
       ry=".94"
       style="fill: #171717;"
       id="ellipse17" />
    <ellipse
       cx="28.22"
       cy="185.31"
       rx=".64"
       ry=".94"
       style="fill: #171717;"
       id="ellipse18" />
    <path
       d="m32.78,179.76h1.34v4.04h.61v1.01h-.61v1.32h-1.19v-1.32h-2.27v-1.06l2.12-3.99Zm.13,1.62l-1.24,2.42h1.26v-2.42h-.02Z"
       style="fill: #171717;"
       id="path18" />
    <g
       id="g20">
      <path
         d="m22.96,226.7c-6.34,0-11.49-5.52-11.49-12.31s5.15-12.31,11.49-12.31h29.71c6.34,0,11.49,5.52,11.49,12.31s-5.15,12.31-11.49,12.31h-29.71Z"
         style="fill: #00adee;"
         id="path19" />
      <path
         d="m52.68,202.58c6.07,0,10.99,5.29,10.99,11.81s-4.92,11.81-10.99,11.81h-29.71c-6.07,0-10.99-5.28-10.99-11.81s4.92-11.81,10.99-11.81h29.71m0-1h-29.71c-6.61,0-11.99,5.74-11.99,12.81s5.38,12.81,11.99,12.81h29.71c6.61,0,11.99-5.74,11.99-12.81s-5.38-12.81-11.99-12.81h0Z"
         style="fill: #171717;"
         id="path20" />
    </g>
    <line
       x1="26.26"
       y1="214.75"
       x2="30.19"
       y2="214.75"
       style="stroke: #171717; stroke-width: .83px;"
       id="line20" />
    <ellipse
       cx="28.22"
       cy="212.57"
       rx=".64"
       ry=".94"
       style="fill: #171717;"
       id="ellipse20" />
    <path
       d="m28.68,217.59c-.25.37-.65.37-.9,0s-.25-.96,0-1.33c.25-.37.65-.37.9,0,.25.37.25.96,0,1.33Z"
       style="fill: #171717;"
       id="path21" />
    <path
       d="m32.02,212.51l-.14,1.45h.02c.12-.17.28-.29.47-.36.19-.08.43-.11.7-.11.31,0,.56.06.76.18.2.12.36.27.48.46.12.19.2.41.25.65.05.24.07.49.07.74,0,.35-.03.67-.09.96-.06.29-.17.54-.32.74-.15.21-.36.36-.63.47-.26.1-.6.16-1.01.16s-.73-.05-.98-.16c-.25-.11-.44-.25-.57-.43-.13-.18-.22-.37-.27-.58-.04-.21-.07-.4-.07-.58v-.17h1.24c0,.11,0,.22.02.34s.04.23.09.34c.05.1.11.19.19.26.08.07.19.1.33.1.27,0,.46-.1.58-.31.12-.21.18-.52.18-.93,0-.26-.01-.48-.04-.66-.02-.17-.06-.31-.12-.41-.06-.1-.13-.17-.23-.22-.1-.04-.22-.06-.36-.06-.19,0-.33.05-.43.16-.1.1-.16.25-.18.43h-1.16l.23-3.47h3.32v1.01h-2.35Z"
       style="fill: #171717;"
       id="path22" />
    <g
       id="g24">
      <path
         d="m22.96,258.31c-6.34,0-11.49-5.52-11.49-12.31s5.15-12.31,11.49-12.31h29.71c6.34,0,11.49,5.52,11.49,12.31s-5.15,12.31-11.49,12.31h-29.71Z"
         style="fill: #00a551;"
         id="path23" />
      <path
         d="m52.68,234.2c6.07,0,10.99,5.29,10.99,11.81s-4.92,11.81-10.99,11.81h-29.71c-6.07,0-10.99-5.28-10.99-11.81s4.92-11.81,10.99-11.81h29.71m0-1h-29.71c-6.61,0-11.99,5.74-11.99,12.81s5.38,12.81,11.99,12.81h29.71c6.61,0,11.99-5.74,11.99-12.81s-5.38-12.81-11.99-12.81h0Z"
         style="fill: #171717;"
         id="path24" />
    </g>
    <line
       x1="26.26"
       y1="246.37"
       x2="30.19"
       y2="246.37"
       style="stroke: #171717; stroke-width: .83px;"
       id="line24" />
    <ellipse
       cx="28.22"
       cy="244.19"
       rx=".64"
       ry=".94"
       style="fill: #171717;"
       id="ellipse24" />
    <path
       d="m28.68,249.21c-.25.37-.65.37-.9,0-.25-.37-.25-.96,0-1.33.25-.37.65-.37.9,0,.25.37.25.96,0,1.33Z"
       style="fill: #171717;"
       id="path25" />
    <path
       d="m33.21,244.04c-.09-.13-.24-.2-.45-.2-.17,0-.3.04-.41.12-.11.08-.19.19-.24.34-.06.14-.09.31-.11.51-.02.2-.03.41-.03.65v.31h.02c.11-.17.26-.3.46-.4.2-.1.45-.15.73-.15s.52.05.72.15c.2.1.36.24.48.41.12.18.21.39.27.63.06.24.09.51.09.8,0,.74-.16,1.3-.49,1.68-.33.38-.85.57-1.57.57-.44,0-.8-.08-1.06-.23-.26-.16-.47-.37-.61-.64-.14-.27-.23-.59-.27-.95-.04-.36-.06-.73-.06-1.12,0-.45.01-.89.04-1.31.03-.42.11-.8.24-1.12.13-.33.35-.59.63-.79.29-.2.7-.3,1.22-.3.23,0,.45.03.66.08.21.05.4.14.56.27.16.13.29.29.39.5.1.21.15.46.16.77h-1.24c0-.25-.04-.44-.13-.58Zm-1.16,3.85c.02.16.05.29.1.4.05.11.12.2.22.26.09.06.21.09.36.09s.28-.03.37-.09c.09-.06.16-.15.21-.27.05-.11.08-.25.09-.4.02-.15.02-.32.02-.5,0-.43-.05-.74-.16-.93-.11-.19-.29-.28-.54-.28s-.44.09-.55.28c-.11.19-.16.5-.16.93,0,.18,0,.35.03.5Z"
       style="fill: #171717;"
       id="path26" />
    <g
       id="g28">
      <path
         d="m22.96,289.93c-6.34,0-11.49-5.52-11.49-12.3s5.15-12.31,11.49-12.31h29.71c6.34,0,11.49,5.52,11.49,12.31s-5.15,12.3-11.49,12.3h-29.71Z"
         style="fill: #00adee;"
         id="path27" />
      <path
         d="m52.68,265.81c6.07,0,10.99,5.29,10.99,11.81s-4.92,11.81-10.99,11.81h-29.71c-6.07,0-10.99-5.28-10.99-11.81s4.92-11.81,10.99-11.81h29.71m0-1h-29.71c-6.61,0-11.99,5.74-11.99,12.81s5.38,12.81,11.99,12.81h29.71c6.61,0,11.99-5.74,11.99-12.81s-5.38-12.81-11.99-12.81h0Z"
         style="fill: #171717;"
         id="path28" />
    </g>
    <line
       x1="26.26"
       y1="277.98"
       x2="30.19"
       y2="277.98"
       style="stroke: #171717; stroke-width: .83px;"
       id="line28" />
    <path
       d="m28.68,276.47c-.25.37-.65.37-.9,0s-.25-.96,0-1.33c.25-.37.65-.37.9,0,.25.37.25.96,0,1.33Z"
       style="fill: #171717;"
       id="path29" />
    <path
       d="m28.68,280.82c-.25.37-.65.37-.9,0-.25-.37-.25-.96,0-1.33.25-.37.65-.37.9,0,.25.37.25.96,0,1.33Z"
       style="fill: #171717;"
       id="path30" />
    <path
       d="m34.66,275.73c-.26.37-.5.77-.71,1.2-.21.43-.39.86-.54,1.31-.16.45-.29.91-.39,1.37-.1.47-.18.92-.23,1.37h-1.36c.05-.38.12-.79.22-1.21.1-.42.22-.85.38-1.29.16-.44.35-.88.58-1.32.23-.44.5-.88.81-1.3h-2.68v-1.12h3.92v.99Z"
       style="fill: #171717;"
       id="path31" />
    <g
       id="g33">
      <path
         d="m22.96,321.54c-6.34,0-11.49-5.52-11.49-12.3s5.15-12.31,11.49-12.31h29.71c6.34,0,11.49,5.52,11.49,12.31s-5.15,12.3-11.49,12.3h-29.71Z"
         style="fill: #ec1c24;"
         id="path32" />
      <path
         d="m52.68,297.43c6.07,0,10.99,5.29,10.99,11.81s-4.92,11.81-10.99,11.81h-29.71c-6.07,0-10.99-5.28-10.99-11.81s4.92-11.81,10.99-11.81h29.71m0-1h-29.71c-6.61,0-11.99,5.74-11.99,12.81s5.38,12.81,11.99,12.81h29.71c6.61,0,11.99-5.74,11.99-12.81s-5.38-12.81-11.99-12.81h0Z"
         style="fill: #171717;"
         id="path33" />
    </g>
    <line
       x1="26.26"
       y1="309.6"
       x2="30.19"
       y2="309.6"
       style="stroke: #171717; stroke-width: .83px;"
       id="line33" />
    <path
       d="m28.68,308.08c-.25.37-.65.37-.9,0s-.25-.96,0-1.33c.25-.37.65-.37.9,0,.25.37.25.96,0,1.33Z"
       style="fill: #171717;"
       id="path34" />
    <path
       d="m28.68,312.44c-.25.37-.65.37-.9,0-.25-.37-.25-.96,0-1.33s.65-.37.9,0,.25.96,0,1.33Z"
       style="fill: #171717;"
       id="path35" />
    <path
       d="m30.94,309.76c.18-.29.45-.47.81-.54v-.02c-.17-.04-.32-.11-.44-.2-.12-.09-.21-.19-.28-.31-.07-.11-.12-.23-.15-.36-.03-.13-.04-.25-.04-.36,0-.62.17-1.07.5-1.35.33-.27.79-.41,1.37-.41s1.04.14,1.37.41c.33.27.5.72.5,1.35,0,.11-.02.23-.05.36-.03.13-.09.25-.16.36-.07.11-.17.22-.28.31-.12.09-.26.16-.43.2v.02c.36.07.63.25.81.54.18.29.27.63.27,1.04,0,.19-.02.39-.07.61-.04.22-.14.43-.28.62-.14.19-.35.35-.62.48-.27.13-.62.19-1.07.19s-.8-.06-1.07-.19c-.27-.13-.47-.29-.62-.48-.14-.19-.24-.4-.28-.62-.04-.22-.07-.43-.07-.61,0-.4.09-.75.27-1.04Zm1.06,1.44c.02.14.06.25.12.35.06.1.13.18.23.23.1.06.22.09.36.09s.26-.03.36-.09c.1-.06.17-.13.23-.23.06-.1.1-.22.12-.35.02-.13.03-.28.03-.43s-.01-.3-.03-.43c-.02-.13-.06-.25-.12-.35-.06-.1-.13-.18-.23-.23-.1-.06-.22-.09-.36-.09s-.26.03-.36.09c-.1.06-.17.14-.23.23-.06.1-.1.21-.12.35-.02.13-.03.28-.03.43s.01.29.03.43Zm.25-2.59c.11.14.27.22.46.22s.34-.07.46-.22c.11-.14.17-.37.17-.67,0-.58-.21-.87-.63-.87s-.63.29-.63.87c0,.31.06.53.17.67Z"
       style="fill: #171717;"
       id="path36" />
    <path
       d="m52.68,44.48c6.07,0,10.99,5.3,10.99,11.83s-4.92,11.84-10.99,11.84h-29.71c-6.07,0-10.99-5.3-10.99-11.84s4.92-11.83,10.99-11.83h29.71m0-1h-29.71c-6.61,0-11.99,5.76-11.99,12.83s5.38,12.84,11.99,12.84h29.71c6.61,0,11.99-5.76,11.99-12.84s-5.38-12.83-11.99-12.83h0Z"
       id="path37" />
    <polyline
       points="24.62 63.56 29.11 63.56 29.11 56.04 33.6 56.04"
       style="fill: none; stroke: #171717;"
       id="polyline37" />
    <path
       d="m29.08,56.56l-2.65,2.11,2.65-2.11Z"
       style="fill: none; stroke: #171717;"
       id="path38" />
    <line
       x1="31.58"
       y1="58.66"
       x2="29.01"
       y2="56.61"
       style="fill: none; stroke: #171717;"
       id="line38" />
    <path
       d="m26.44,49.57c-.43,0-.7-.32-.7-.73s.29-.73.72-.73.7.32.71.73c0,.4-.28.73-.72.73h0Zm-.63,4.98v-4.4h1.27v4.4h-1.27Z"
       id="path39" />
    <path
       d="m28.11,51.55c0-.55-.02-1.01-.03-1.4h1.11l.06.61h.03c.17-.29.58-.71,1.26-.71.84,0,1.47.6,1.47,1.9v2.6h-1.27v-2.44c0-.57-.18-.95-.65-.95-.35,0-.56.26-.65.51-.03.09-.04.22-.04.34v2.54h-1.27v-3Z"
       style="fill: #171717;"
       id="path40" />
    <g
       id="g42">
      <path
         d="m95.47,278.92c-6.15,0-11.16-5.52-11.16-12.31s5.01-12.31,11.16-12.31h26.66c6.15,0,11.16,5.52,11.16,12.31s-5.01,12.31-11.16,12.31h-26.66Z"
         style="fill: #00adee;"
         id="path41" />
      <path
         d="m122.13,254.8c5.89,0,10.66,5.29,10.66,11.81s-4.77,11.81-10.66,11.81h-26.66c-5.89,0-10.66-5.28-10.66-11.81s4.77-11.81,10.66-11.81h26.66m0-1h-26.66c-6.43,0-11.66,5.74-11.66,12.81s5.23,12.81,11.66,12.81h26.66c6.43,0,11.66-5.74,11.66-12.81s-5.23-12.81-11.66-12.81h0Z"
         style="fill: #171717;"
         id="path42" />
    </g>
    <g
       id="g44">
      <path
         d="m95.47,318.64c-6.15,0-11.16-5.52-11.16-12.3s5.01-12.31,11.16-12.31h26.66c6.15,0,11.16,5.52,11.16,12.31s-5.01,12.3-11.16,12.3h-26.66Z"
         style="fill: #00adee;"
         id="path43" />
      <path
         d="m122.13,294.53c5.89,0,10.66,5.29,10.66,11.81s-4.77,11.8-10.66,11.8h-26.66c-5.89,0-10.66-5.29-10.66-11.8s4.77-11.81,10.66-11.81h26.66m0-1h-26.66c-6.43,0-11.66,5.75-11.66,12.81s5.23,12.8,11.66,12.8h26.66c6.43,0,11.66-5.74,11.66-12.8s-5.23-12.81-11.66-12.81h0Z"
         style="fill: #171717;"
         id="path44" />
    </g>
    <g
       id="g54">
      <path
         d="m95.45,327.56h-1.41l-.37-1.24h-1.98l-.38,1.24h-1.41l2.02-6.09h1.52l2.01,6.09Zm-2.1-2.29l-.67-2.22-.68,2.22h1.34Z"
         style="fill: #171717;"
         id="path45" />
      <path
         d="m99.13,327.56h-1.19v-.64c-.17.24-.34.42-.53.54-.18.12-.41.18-.66.18-.51,0-.83-.2-.98-.59-.15-.39-.22-.84-.22-1.33v-2.63h1.19v2.42c0,.24.03.46.09.64.06.18.19.27.39.27.17,0,.31-.07.41-.2s.21-.3.31-.5v-2.63h1.19v4.47Z"
         style="fill: #171717;"
         id="path46" />
      <path
         d="m102.27,327.3c-.12.08-.29.16-.51.23s-.42.11-.62.11c-.85,0-1.28-.56-1.28-1.67v-1.78h-.54v-.28l1.59-2.16h.13v1.34h1.13v1.1h-1.13v1.43c0,.17,0,.3.02.4s.06.19.13.26c.07.07.18.1.33.1.19,0,.44-.11.74-.32v1.23Z"
         style="fill: #171717;"
         id="path47" />
      <path
         d="m106.22,325.32c0,.45-.07.84-.22,1.19-.14.35-.36.62-.65.83-.29.2-.64.3-1.06.3s-.77-.1-1.06-.3-.5-.48-.65-.83c-.14-.35-.22-.75-.22-1.19,0-.34.04-.64.12-.92.08-.28.2-.52.37-.73.16-.21.37-.38.6-.49.24-.11.52-.17.83-.17s.6.06.84.17c.24.12.44.28.6.49.16.21.28.45.36.73s.12.59.12.92Zm-1.25,0c0-.35-.06-.63-.17-.83-.12-.2-.28-.3-.5-.3s-.38.1-.5.3c-.12.2-.17.48-.17.83s.06.63.17.83.28.31.5.31.39-.1.5-.31c.12-.2.17-.48.17-.84Z"
         style="fill: #171717;"
         id="path48" />
      <path
         d="m108.92,326.03h-2.16v-1.47h2.16v1.47Z"
         style="fill: #171717;"
         id="path49" />
      <path
         d="m114.23,327.56h-1.48l-.36-1.08c-.13-.4-.25-.68-.36-.87-.11-.18-.21-.3-.31-.35-.1-.05-.23-.08-.39-.08h-.16v2.38h-1.38v-6.09h2.34c.38,0,.69.1.93.31.24.21.42.45.52.75s.16.57.16.83c0,.31-.04.57-.13.78-.09.21-.18.37-.28.46s-.21.19-.33.28c.15.11.27.25.36.41.1.16.23.47.39.95l.46,1.32Zm-1.87-4.17c0-.28-.07-.48-.21-.59s-.36-.17-.68-.17h-.29v1.47h.3c.34,0,.57-.05.69-.15.12-.1.19-.29.19-.56Z"
         style="fill: #171717;"
         id="path50" />
      <path
         d="m117.83,325.71h-2.36c.05.27.16.5.34.67.18.17.38.26.61.26.4,0,.84-.15,1.33-.45v.98c-.17.12-.38.23-.63.33s-.56.15-.94.15c-.41,0-.76-.1-1.05-.31s-.51-.48-.65-.83c-.14-.35-.22-.75-.22-1.2s.07-.83.22-1.18c.14-.35.36-.62.65-.82.29-.2.64-.3,1.05-.3.27,0,.54.08.79.24.25.16.46.41.63.77.16.36.25.82.25,1.38v.32Zm-1.11-.78c0-.29-.05-.52-.16-.69-.11-.17-.26-.26-.46-.26s-.36.09-.48.26c-.12.17-.18.4-.18.68h1.28Z"
         style="fill: #171717;"
         id="path51" />
      <path
         d="m120.77,326.26c0,.41-.11.74-.34,1-.22.26-.56.38-1,.38-.25,0-.47-.03-.66-.09-.19-.06-.4-.15-.63-.26v-1.12c.2.15.37.27.52.35.15.08.31.12.48.12.3,0,.44-.11.44-.33,0-.07-.02-.14-.06-.2-.04-.06-.12-.12-.22-.19-.11-.07-.25-.16-.43-.26-.22-.13-.41-.3-.56-.52-.15-.22-.23-.48-.23-.8,0-.22.05-.44.15-.64s.26-.37.46-.5c.21-.13.46-.2.75-.2.07,0,.16,0,.27.02.11.01.25.05.41.1s.32.13.47.24v1.09c-.07-.06-.13-.1-.18-.14s-.11-.08-.19-.13-.17-.09-.28-.12c-.11-.04-.22-.06-.33-.06-.14,0-.23.04-.28.11-.05.07-.08.14-.08.21s.03.14.08.21c.05.06.17.14.35.23.26.13.47.27.63.42.16.14.27.3.34.47.07.17.1.37.1.6Z"
         style="fill: #171717;"
         id="path52" />
      <path
         d="m124.58,325.71h-2.36c.05.27.16.5.34.67.18.17.38.26.61.26.4,0,.84-.15,1.33-.45v.98c-.17.12-.38.23-.63.33s-.56.15-.94.15c-.41,0-.76-.1-1.05-.31s-.51-.48-.65-.83c-.14-.35-.22-.75-.22-1.2s.07-.83.22-1.18c.14-.35.36-.62.65-.82.29-.2.64-.3,1.05-.3.27,0,.54.08.79.24.25.16.46.41.63.77.16.36.25.82.25,1.38v.32Zm-1.11-.78c0-.29-.05-.52-.16-.69-.11-.17-.26-.26-.46-.26s-.36.09-.48.26c-.12.17-.18.4-.18.68h1.28Z"
         style="fill: #171717;"
         id="path53" />
      <path
         d="m127.54,327.3c-.12.08-.29.16-.51.23s-.42.11-.62.11c-.85,0-1.28-.56-1.28-1.67v-1.78h-.54v-.28l1.59-2.16h.13v1.34h1.13v1.1h-1.13v1.43c0,.17,0,.3.02.4s.06.19.13.26c.07.07.18.1.33.1.19,0,.44-.11.74-.32v1.23Z"
         style="fill: #171717;"
         id="path54" />
    </g>
    <g
       id="g60">
      <path
         d="m101.31,286.17c0,.38-.07.71-.22.99s-.35.49-.61.64-.56.22-.9.22c-.09,0-.21,0-.35-.02-.14-.02-.32-.06-.55-.13s-.46-.18-.71-.33v-1.49c.23.19.46.35.68.47.22.13.46.19.72.19.24,0,.39-.05.46-.16.07-.1.1-.2.1-.29,0-.16-.06-.3-.18-.42-.12-.11-.29-.23-.52-.35-.25-.14-.47-.29-.66-.46-.19-.17-.34-.37-.46-.62-.12-.25-.18-.54-.18-.88s.06-.62.18-.89c.12-.26.31-.48.55-.63s.55-.24.91-.24c.25,0,.49.03.71.1.22.07.4.14.54.22s.24.15.29.19v1.43c-.19-.18-.4-.34-.62-.48s-.47-.21-.74-.21c-.17,0-.3.04-.37.13-.08.09-.12.2-.12.33,0,.12.04.22.12.31.08.09.21.19.41.32.35.22.63.42.84.59s.38.38.5.61c.12.23.18.52.18.86Z"
         style="fill: #171717;"
         id="path55" />
      <path
         d="m105.47,285.67c0,.3-.03.59-.1.87-.06.28-.16.53-.29.75-.13.22-.3.4-.5.53-.21.13-.44.2-.72.2-.22,0-.39-.03-.52-.09s-.25-.14-.38-.25v2.29h-1.19v-6.51h1.19v.4c.12-.14.25-.25.39-.34.14-.09.34-.14.58-.14s.48.08.72.24c.23.16.43.41.58.75.15.34.23.77.23,1.29Zm-1.25.04c0-.27-.03-.49-.09-.66-.06-.17-.15-.29-.25-.36-.1-.08-.21-.11-.31-.11-.14,0-.26.03-.35.09-.09.06-.17.14-.25.23v1.71s.09.06.13.1c.05.04.09.07.14.09.05.03.1.05.15.07s.11.03.17.03c.19,0,.34-.11.47-.32s.19-.5.19-.86Z"
         style="fill: #171717;"
         id="path56" />
      <path
         d="m108.76,283.71l-.44,1.59c-.18-.23-.36-.34-.55-.34-.17,0-.31.08-.43.23-.12.15-.24.43-.35.84v1.92h-1.19v-4.47h1.19v1.08c.07-.27.21-.53.4-.78.19-.25.41-.38.67-.38.13,0,.25.03.35.08.1.05.22.13.36.24Z"
         style="fill: #171717;"
         id="path57" />
      <path
         d="m112.31,286.09h-2.36c.05.27.16.5.34.67.18.17.38.26.61.26.4,0,.84-.15,1.33-.45v.98c-.17.12-.38.23-.63.33-.25.1-.56.15-.94.15-.41,0-.76-.1-1.05-.31s-.51-.48-.65-.83c-.14-.35-.22-.75-.22-1.2s.07-.83.22-1.18c.14-.35.36-.62.65-.82.29-.2.64-.3,1.05-.3.27,0,.54.08.79.24.25.16.46.41.63.77.16.36.25.82.25,1.38v.32Zm-1.11-.78c0-.29-.05-.52-.16-.69-.11-.17-.26-.26-.46-.26s-.36.09-.48.26c-.12.17-.18.4-.18.68h1.28Z"
         style="fill: #171717;"
         id="path58" />
      <path
         d="m116.11,287.72c-.17.09-.33.16-.48.22s-.32.08-.53.08-.33-.05-.41-.14c-.08-.09-.13-.2-.16-.34-.13.14-.27.25-.43.34s-.36.13-.61.13-.44-.06-.59-.17c-.15-.11-.26-.25-.32-.43-.06-.17-.09-.35-.09-.53,0-.28.05-.5.16-.68.1-.18.24-.33.42-.44s.41-.23.7-.36c.17-.07.29-.12.37-.16.08-.04.15-.06.19-.08s.09-.05.13-.08c0-.22-.03-.39-.1-.51-.07-.12-.21-.18-.43-.18-.26,0-.5.08-.72.23s-.42.35-.61.59v-1.21c.15-.14.31-.26.48-.35.17-.09.35-.16.54-.2s.38-.07.57-.07c.49,0,.85.12,1.1.38.25.25.37.6.37,1.04v1.73c0,.16.01.29.03.37.02.08.07.12.13.12.08,0,.18-.04.3-.13v.83Zm-1.65-.86v-1.06c-.28.15-.49.29-.62.41-.13.12-.19.29-.19.5,0,.15.03.26.1.34.07.08.14.12.23.12.08,0,.16-.03.24-.09.08-.06.16-.13.25-.22Z"
         style="fill: #171717;"
         id="path59" />
      <path
         d="m119.76,287.94h-1.19v-.4c-.12.14-.26.26-.4.35s-.33.14-.58.14-.48-.08-.72-.24c-.24-.16-.43-.41-.58-.75-.15-.34-.23-.77-.23-1.29,0-.41.06-.79.17-1.14.11-.36.29-.65.54-.87.24-.22.54-.33.9-.33.22,0,.4.03.53.1.14.06.26.15.36.25v-1.88h1.19v6.09Zm-1.19-1.42v-1.71c-.14-.1-.25-.18-.32-.22s-.17-.07-.28-.07c-.19,0-.34.11-.47.32-.12.21-.19.5-.19.86,0,.4.07.68.2.86.13.18.28.27.46.27.14,0,.26-.03.35-.09.09-.06.17-.14.25-.23Z"
         style="fill: #171717;"
         id="path60" />
    </g>
    <g
       id="g62">
      <path
         d="m90.48,309.24h-1.25v-6.09h1.25v6.09Z"
         style="fill: #171717;"
         id="path61" />
      <path
         d="m95.39,307.13c0,.28-.04.55-.12.81-.08.26-.2.5-.36.71s-.34.37-.56.49c-.22.12-.46.18-.72.18-.38,0-.71-.11-.98-.34-.27-.22-.48-.52-.62-.89-.14-.37-.21-.76-.21-1.18,0-.34.04-.69.13-1.04.09-.35.21-.69.37-1.03.16-.34.35-.65.57-.95.22-.29.47-.57.75-.84l1.13.5c-.18.21-.34.39-.47.56-.13.17-.26.34-.38.53-.12.18-.22.37-.32.56.08-.03.18-.04.3-.04.27,0,.52.08.74.25.23.16.41.4.54.7s.2.65.2,1.04Zm-1.19-.03c0-.28-.06-.49-.18-.62-.12-.13-.25-.2-.41-.2-.21,0-.36.09-.46.27-.1.18-.15.36-.15.56,0,.23.06.43.17.6.11.16.25.25.42.25.14,0,.26-.05.35-.14s.16-.2.2-.33c.04-.13.06-.25.06-.38Z"
         style="fill: #171717;"
         id="path62" />
    </g>
    <g
       id="g64">
      <path
         d="m91.94,266.45c0,.45-.07.84-.22,1.19-.14.35-.36.62-.65.83-.29.2-.64.3-1.06.3s-.77-.1-1.06-.3-.5-.48-.65-.83c-.14-.35-.22-.75-.22-1.19,0-.34.04-.64.12-.92.08-.28.2-.52.37-.73.16-.21.37-.38.6-.49.24-.11.52-.17.83-.17s.6.06.84.17c.24.12.44.28.6.49.16.21.28.45.36.73s.12.59.12.92Zm-1.25,0c0-.35-.06-.63-.17-.83-.12-.2-.28-.3-.5-.3s-.38.1-.5.3c-.12.2-.17.48-.17.83s.06.63.17.83.28.31.5.31.39-.1.5-.31c.12-.2.17-.48.17-.84Z"
         style="fill: #171717;"
         id="path63" />
      <path
         d="m95.87,268.69h-1.19v-2.41c0-.25-.03-.46-.09-.64-.06-.18-.19-.27-.4-.27-.1,0-.18.02-.25.07-.07.05-.14.11-.2.19-.06.08-.11.15-.15.22-.04.07-.08.14-.12.22v2.63h-1.19v-4.47h1.19v.64c.19-.27.37-.45.56-.56.19-.11.4-.16.63-.16.8,0,1.21.64,1.21,1.92v2.63Z"
         style="fill: #171717;"
         id="path64" />
    </g>
    <g
       id="g67">
      <path
         d="m125.35,307c0,.45-.07.84-.22,1.19-.14.35-.36.62-.65.83-.29.2-.64.3-1.06.3s-.77-.1-1.06-.3-.5-.48-.65-.83c-.14-.35-.22-.75-.22-1.19,0-.34.04-.64.12-.92.08-.28.2-.52.37-.73.16-.21.37-.38.6-.49.24-.11.52-.17.83-.17s.6.06.84.17c.24.12.44.28.6.49.16.21.28.45.36.73s.12.59.12.92Zm-1.25,0c0-.35-.06-.63-.17-.83-.12-.2-.28-.3-.5-.3s-.38.1-.5.3c-.12.2-.17.48-.17.83s.06.63.17.83.28.31.5.31.39-.1.5-.31c.12-.2.17-.48.17-.84Z"
         style="fill: #171717;"
         id="path65" />
      <path
         d="m127.94,304.28c-.18-.06-.33-.08-.44-.08-.13,0-.23.06-.3.17s-.11.27-.11.47v.16h.6v1.07h-.6v3.17h-1.19v-3.17h-.55v-1.07h.55v-.08c0-.31.04-.61.14-.89.09-.28.24-.51.46-.69s.49-.27.84-.27c.2,0,.4.03.6.08v1.13Z"
         style="fill: #171717;"
         id="path66" />
      <path
         d="m130.16,304.28c-.18-.06-.33-.08-.44-.08-.13,0-.23.06-.3.17s-.11.27-.11.47v.16h.6v1.07h-.6v3.17h-1.19v-3.17h-.55v-1.07h.55v-.08c0-.31.04-.61.14-.89.09-.28.24-.51.46-.69s.49-.27.84-.27c.2,0,.4.03.6.08v1.13Z"
         style="fill: #171717;"
         id="path67" />
    </g>
    <g
       id="g70">
      <path
         d="m125.35,266.45c0,.45-.07.84-.22,1.19-.14.35-.36.62-.65.83-.29.2-.64.3-1.06.3s-.77-.1-1.06-.3-.5-.48-.65-.83c-.14-.35-.22-.75-.22-1.19,0-.34.04-.64.12-.92.08-.28.2-.52.37-.73.16-.21.37-.38.6-.49.24-.11.52-.17.83-.17s.6.06.84.17c.24.12.44.28.6.49.16.21.28.45.36.73s.12.59.12.92Zm-1.25,0c0-.35-.06-.63-.17-.83-.12-.2-.28-.3-.5-.3s-.38.1-.5.3c-.12.2-.17.48-.17.83s.06.63.17.83.28.31.5.31.39-.1.5-.31c.12-.2.17-.48.17-.84Z"
         style="fill: #171717;"
         id="path68" />
      <path
         d="m127.94,263.74c-.18-.06-.33-.08-.44-.08-.13,0-.23.06-.3.17s-.11.27-.11.47v.16h.6v1.07h-.6v3.17h-1.19v-3.17h-.55v-1.07h.55v-.08c0-.31.04-.61.14-.89.09-.28.24-.51.46-.69s.49-.27.84-.27c.2,0,.4.03.6.08v1.13Z"
         style="fill: #171717;"
         id="path69" />
      <path
         d="m130.16,263.74c-.18-.06-.33-.08-.44-.08-.13,0-.23.06-.3.17s-.11.27-.11.47v.16h.6v1.07h-.6v3.17h-1.19v-3.17h-.55v-1.07h.55v-.08c0-.31.04-.61.14-.89.09-.28.24-.51.46-.69s.49-.27.84-.27c.2,0,.4.03.6.08v1.13Z"
         style="fill: #171717;"
         id="path70" />
    </g>
    <g
       id="g72">
      <path
         d="m95.28,193.55c-6.15,0-11.16-5.52-11.16-12.3s5.01-12.31,11.16-12.31h26.66c6.15,0,11.16,5.52,11.16,12.31s-5.01,12.3-11.16,12.3h-26.66Z"
         style="fill: #171717;"
         id="path71" />
      <path
         d="m121.95,169.44c5.89,0,10.66,5.29,10.66,11.81s-4.77,11.81-10.66,11.81h-26.66c-5.89,0-10.66-5.28-10.66-11.81s4.77-11.81,10.66-11.81h26.66m0-1h-26.66c-6.43,0-11.66,5.74-11.66,12.81s5.23,12.81,11.66,12.81h26.66c6.43,0,11.66-5.74,11.66-12.81s-5.23-12.81-11.66-12.81h0Z"
         style="fill: #171717;"
         id="path72" />
    </g>
    <g
       id="g74">
      <path
         d="m95.28,233.27c-6.15,0-11.16-5.52-11.16-12.31s5.01-12.31,11.16-12.31h26.66c6.15,0,11.16,5.52,11.16,12.31s-5.01,12.31-11.16,12.31h-26.66Z"
         style="fill: #171717;"
         id="path73" />
      <path
         d="m121.95,209.16c5.89,0,10.66,5.29,10.66,11.81s-4.77,11.81-10.66,11.81h-26.66c-5.89,0-10.66-5.28-10.66-11.81s4.77-11.81,10.66-11.81h26.66m0-1h-26.66c-6.43,0-11.66,5.74-11.66,12.81s5.23,12.81,11.66,12.81h26.66c6.43,0,11.66-5.74,11.66-12.81s-5.23-12.81-11.66-12.81h0Z"
         style="fill: #171717;"
         id="path74" />
    </g>
    <g
       id="g80">
      <path
         d="m101.4,204.11h-1.38v-3.53l-1.24,2.04h-.11l-1.25-2.04v3.53h-1.34v-6.09h1.25l1.4,2.29,1.41-2.29h1.25v6.09Z"
         style="fill: #171717;"
         id="path75" />
      <path
         d="m105.56,203.88c-.17.09-.33.16-.48.22s-.32.08-.53.08-.33-.05-.41-.14c-.08-.09-.13-.2-.16-.34-.13.14-.27.25-.43.34s-.36.13-.61.13-.44-.06-.59-.17c-.15-.11-.26-.25-.32-.43-.06-.17-.09-.35-.09-.53,0-.28.05-.5.16-.68.1-.18.24-.33.42-.44s.41-.23.7-.36c.17-.07.29-.12.37-.16.08-.04.15-.06.19-.08s.09-.05.13-.08c0-.22-.03-.39-.1-.51-.07-.12-.21-.18-.43-.18-.26,0-.5.08-.72.23s-.42.35-.61.59v-1.21c.15-.14.31-.26.48-.35.17-.09.35-.16.54-.2s.38-.07.57-.07c.49,0,.85.12,1.1.38.25.25.37.6.37,1.04v1.73c0,.16.01.29.03.37.02.08.07.12.13.12.08,0,.18-.04.3-.13v.83Zm-1.65-.86v-1.06c-.28.15-.49.29-.62.41-.13.12-.19.29-.19.5,0,.15.03.26.1.34.07.08.14.12.23.12.08,0,.16-.03.24-.09.08-.06.16-.13.25-.22Z"
         style="fill: #171717;"
         id="path76" />
      <path
         d="m109.4,204.11h-1.46l-.65-1.27-.65,1.27h-1.3l1.3-2.2-1.32-2.28h1.46l.62,1.22.63-1.22h1.3l-1.27,2.12,1.35,2.35Z"
         style="fill: #171717;"
         id="path77" />
      <path
         d="m116.18,201.17c0,.62-.08,1.12-.26,1.5-.17.38-.37.68-.6.92-.33.34-.79.51-1.37.51h-2.47v-6.09h1.9c.29,0,.53.02.73.06.2.04.39.1.55.17.16.07.3.15.42.24.11.09.22.19.31.29.16.17.29.37.41.6.12.23.21.5.28.8.07.3.1.64.1.99Zm-1.4-.08c0-.5-.07-.88-.21-1.16-.14-.28-.31-.46-.51-.56-.2-.09-.4-.14-.61-.14h-.59v3.61h.59c.36,0,.67-.11.94-.34s.4-.7.4-1.41Z"
         style="fill: #171717;"
         id="path78" />
      <path
         d="m117.81,204.11h-1.19v-4.47h1.19v4.47Zm-.1-5.51c0,.18-.05.34-.15.47-.1.13-.22.19-.35.19-.09,0-.18-.03-.25-.09s-.14-.14-.18-.24c-.04-.1-.07-.21-.07-.34,0-.18.05-.34.14-.47.1-.13.21-.2.35-.2s.25.07.35.2c.1.13.15.29.15.47Z"
         style="fill: #171717;"
         id="path79" />
      <path
         d="m121.89,199.63l-1.53,4.47h-.88l-1.49-4.47h1.28l.7,2.34.77-2.34h1.15Z"
         style="fill: #171717;"
         id="path80" />
    </g>
    <g
       id="g82">
      <path
         d="m89.79,223.61h-1.25v-6.09h1.25v6.09Z"
         style="fill: #fff;"
         id="path81" />
      <path
         d="m94.7,221.5c0,.28-.04.55-.12.82-.08.26-.2.5-.36.71s-.34.37-.56.49c-.22.12-.46.18-.72.18-.38,0-.71-.11-.98-.34-.27-.22-.48-.52-.62-.89-.14-.37-.21-.76-.21-1.18,0-.34.04-.69.13-1.04.09-.35.21-.69.37-1.03.16-.34.35-.65.57-.95.22-.29.47-.58.75-.84l1.13.5c-.18.21-.34.39-.47.56-.13.17-.26.34-.38.52-.12.18-.22.37-.32.56.08-.03.18-.04.3-.04.27,0,.52.08.74.25.23.16.41.4.54.7s.2.65.2,1.04Zm-1.19-.03c0-.28-.06-.49-.18-.62-.12-.13-.25-.2-.41-.2-.21,0-.36.09-.46.27-.1.18-.15.36-.15.56,0,.23.06.43.17.6.11.16.25.25.42.25.14,0,.26-.04.35-.14s.16-.2.2-.33c.04-.13.06-.26.06-.38Z"
         style="fill: #fff;"
         id="path82" />
    </g>
    <g
       id="g84">
      <path
         d="m90.63,181.82c0,.32-.05.59-.14.82s-.22.41-.37.55c-.15.14-.32.25-.49.31-.17.06-.34.09-.5.09-.23,0-.49-.04-.76-.13-.28-.09-.51-.19-.7-.31v-1.37c.15.17.32.31.5.43.18.12.36.17.55.17.14,0,.26-.04.36-.11s.17-.16.22-.27c.05-.11.07-.22.07-.34,0-.16-.03-.29-.09-.41s-.15-.22-.27-.29c-.12-.07-.25-.11-.41-.11h-.15v-.98h.17c.15,0,.28-.04.38-.12s.17-.17.22-.28c.04-.11.07-.21.07-.31,0-.18-.05-.35-.16-.49s-.24-.21-.41-.21c-.15,0-.31.04-.47.11s-.32.18-.46.31v-1.17c.22-.12.42-.21.61-.28.19-.07.4-.1.64-.1.35,0,.63.09.87.27.23.18.4.4.51.65s.16.49.16.71c0,.18-.03.36-.09.54-.06.18-.14.34-.23.48s-.2.25-.3.33c.18.13.34.31.48.54s.21.55.21.96Z"
         style="fill: #fff;"
         id="path83" />
      <path
         d="m94.65,183.51h-3.47v-.12c.13-.17.28-.38.44-.62s.37-.56.62-.95c.12-.18.23-.35.33-.53.1-.17.19-.34.26-.5.07-.16.13-.34.18-.54.05-.2.08-.4.08-.6,0-.28-.06-.51-.18-.68s-.28-.26-.47-.26c-.37,0-.74.26-1.11.77v-1.44c.13-.11.24-.2.32-.27.08-.07.18-.13.29-.2.11-.06.24-.12.39-.17s.31-.07.48-.07c.28,0,.53.08.76.23.23.15.41.37.54.66.13.29.2.62.2,1,0,.27-.03.52-.09.76s-.12.42-.18.57-.15.32-.25.53c-.19.38-.39.73-.61,1.07h1.48v1.37Z"
         style="fill: #fff;"
         id="path84" />
    </g>
    <g
       id="g86">
      <path
         d="m88.15,201.85c0,.28-.04.55-.12.82-.08.26-.2.5-.36.71-.16.21-.34.37-.56.49-.22.12-.46.18-.72.18-.38,0-.71-.11-.98-.34-.27-.22-.48-.52-.62-.89-.14-.37-.21-.76-.21-1.18,0-.34.04-.69.13-1.04.09-.35.21-.69.37-1.03.16-.34.35-.65.57-.95.22-.29.47-.58.75-.84l1.13.5c-.18.21-.34.39-.47.56-.13.17-.26.34-.38.52-.12.18-.22.37-.32.56.08-.03.18-.04.3-.04.27,0,.52.08.74.25.23.16.41.4.54.7s.2.65.2,1.04Zm-1.19-.03c0-.28-.06-.49-.18-.62-.12-.13-.25-.2-.41-.2-.21,0-.36.09-.46.27-.1.18-.15.36-.15.56,0,.23.06.43.17.6.11.16.25.25.42.25.14,0,.26-.04.35-.14s.16-.2.2-.33c.04-.13.06-.26.06-.38Z"
         style="fill: #171717;"
         id="path85" />
      <path
         d="m91.87,202.64h-.54v1.31h-1.22v-1.31h-1.86v-1.16l2.09-3.62h.98v3.73h.54v1.05Zm-1.76-1.05v-1.95l-1.13,1.95h1.13Z"
         style="fill: #171717;"
         id="path86" />
    </g>
    <path
       d="m130.46,202.31c0,.14-.02.31-.07.49s-.13.37-.26.56c-.12.19-.31.35-.55.47-.24.13-.54.19-.91.19s-.68-.06-.92-.19-.42-.28-.55-.48c-.13-.19-.21-.38-.25-.55-.04-.18-.06-.34-.06-.5,0-.31.07-.6.2-.87s.31-.48.54-.63c-.18-.16-.33-.33-.43-.53-.1-.2-.15-.46-.15-.77,0-.18.03-.36.08-.56.06-.2.15-.38.27-.57.13-.18.29-.33.5-.44.21-.11.46-.17.76-.17s.57.06.78.17c.21.11.38.25.5.44.13.18.22.37.27.56s.08.38.08.57c0,.32-.05.58-.15.77-.1.19-.24.37-.43.53.15.11.28.23.39.38.11.15.19.32.25.52s.09.4.09.6Zm-1.17-.16c0-.19-.03-.35-.09-.49-.06-.14-.14-.24-.23-.31-.09-.07-.19-.1-.28-.1-.15,0-.29.08-.42.24-.13.16-.19.38-.19.66,0,.3.06.52.19.68.12.16.27.23.42.23s.3-.08.42-.25c.12-.17.18-.39.18-.66Zm-.14-2.53c0-.19-.04-.38-.11-.55-.07-.18-.19-.26-.35-.26s-.29.08-.37.25c-.08.17-.12.36-.12.56,0,.24.05.43.14.58.1.15.21.23.33.23s.24-.08.33-.23c.1-.15.14-.35.14-.58Z"
       style="fill: #171717;"
       id="path87" />
    <line
       x1="88.54"
       y1="196.41"
       x2="88.54"
       y2="190.93"
       style="fill: none; stroke: #000;"
       id="line87" />
    <line
       x1="88.54"
       y1="205.68"
       x2="88.54"
       y2="211.31"
       style="fill: none; stroke: #000;"
       id="line88" />
    <line
       x1="128.56"
       y1="196.41"
       x2="128.56"
       y2="190.93"
       style="fill: none; stroke: #000;"
       id="line89" />
    <line
       x1="128.56"
       y1="205.68"
       x2="128.56"
       y2="211.31"
       style="fill: none; stroke: #000;"
       id="line90" />
    <g
       id="g91">
      <path
         d="m95.47,145.74c-6.15,0-11.15-5.52-11.15-12.3s5-12.3,11.15-12.3h26.66c6.15,0,11.15,5.52,11.15,12.3s-5,12.3-11.15,12.3h-26.66Z"
         style="fill: #ec1c24;"
         id="path90" />
      <path
         d="m122.13,121.64c5.89,0,10.66,5.28,10.66,11.81s-4.77,11.81-10.66,11.81h-26.66c-5.89,0-10.66-5.28-10.66-11.81s4.77-11.81,10.66-11.81h26.66m0-.98h-26.66c-6.42,0-11.65,5.74-11.65,12.79s5.22,12.79,11.65,12.79h26.66c6.42,0,11.65-5.74,11.65-12.79s-5.22-12.79-11.65-12.79h0Z"
         style="fill: #171717;"
         id="path91" />
    </g>
    <g
       id="g93">
      <path
         d="m95.47,105.65c-6.15,0-11.16-5.52-11.16-12.31s5.01-12.31,11.16-12.31h26.66c6.15,0,11.16,5.52,11.16,12.31s-5.01,12.31-11.16,12.31h-26.66Z"
         style="fill: #ec1c24;"
         id="path92" />
      <path
         d="m122.13,81.54c5.89,0,10.66,5.28,10.66,11.81s-4.77,11.81-10.66,11.81h-26.66c-5.89,0-10.66-5.28-10.66-11.81s4.77-11.81,10.66-11.81h26.66m0-1h-26.66c-6.43,0-11.66,5.74-11.66,12.81s5.23,12.81,11.66,12.81h26.66c6.43,0,11.66-5.74,11.66-12.81s-5.23-12.81-11.66-12.81h0Z"
         style="fill: #171717;"
         id="path93" />
    </g>
    <g
       id="g102">
      <g
         id="g97">
        <path
           d="m94.4,154.83c-.1.05-.18.09-.25.12-.07.03-.14.06-.2.09s-.16.06-.28.1c-.21.06-.42.11-.62.15-.21.03-.43.05-.66.05-.46,0-.89-.11-1.29-.34s-.71-.58-.94-1.05-.35-1.06-.35-1.75c0-.45.06-.88.18-1.31.12-.43.31-.77.56-1.03.21-.21.42-.38.63-.49.21-.11.42-.19.62-.23s.42-.06.67-.06c.4,0,.73.04,1,.12.26.08.55.19.86.32v1.44c-.21-.16-.42-.3-.66-.4-.23-.11-.52-.16-.86-.16-.4,0-.72.1-.95.3s-.4.44-.5.72c-.09.28-.14.55-.14.81,0,.31.05.59.16.85.11.26.27.47.49.62.22.16.48.24.79.24.18,0,.36-.03.56-.09v-.72h-.62v-1.23h1.82v2.93Z"
           style="fill: #171717;"
           id="path94" />
        <path
           d="m98.5,155.03c-.17.09-.33.16-.48.22-.15.06-.32.08-.53.08-.2,0-.33-.05-.41-.14-.08-.09-.13-.2-.17-.34-.13.14-.27.25-.43.34-.16.09-.36.13-.61.13s-.44-.06-.59-.17c-.15-.11-.26-.25-.32-.43-.06-.17-.09-.35-.09-.53,0-.28.05-.5.16-.68.1-.18.25-.33.42-.44s.41-.23.7-.36c.17-.07.29-.12.37-.16.08-.04.15-.07.19-.09s.09-.05.13-.08c0-.22-.03-.39-.1-.51-.07-.12-.21-.18-.43-.18-.26,0-.5.08-.72.23s-.42.35-.61.59v-1.21c.15-.14.31-.26.48-.34.17-.09.35-.16.54-.2s.38-.07.57-.07c.49,0,.85.13,1.1.38.25.25.37.6.37,1.04v1.73c0,.16.01.29.04.37.02.08.07.12.13.12.07,0,.18-.04.3-.13v.83Zm-1.65-.86v-1.06c-.28.15-.49.29-.62.41s-.19.29-.19.49c0,.15.03.26.1.34.06.08.14.12.23.12.08,0,.16-.03.24-.09.08-.06.16-.13.25-.22Z"
           style="fill: #171717;"
           id="path95" />
        <path
           d="m101.25,155c-.12.08-.29.16-.51.23-.22.07-.42.11-.62.11-.86,0-1.28-.56-1.28-1.67v-1.78h-.54v-.28l1.59-2.16h.13v1.34h1.13v1.1h-1.13v1.43c0,.17,0,.3.02.4.01.1.06.19.13.26s.18.1.32.1c.19,0,.44-.11.75-.32v1.23Z"
           style="fill: #171717;"
           id="path96" />
        <path
           d="m104.94,153.4h-2.36c.05.27.16.5.34.67.18.17.38.26.61.26.4,0,.84-.15,1.33-.45v.98c-.17.12-.38.23-.63.33-.25.1-.56.15-.94.15-.41,0-.76-.1-1.05-.31s-.51-.48-.65-.83c-.14-.35-.22-.75-.22-1.2s.07-.83.22-1.18c.14-.35.36-.62.65-.82.29-.2.64-.3,1.05-.3.27,0,.54.08.79.23.25.16.46.41.63.77.16.36.25.81.25,1.38v.32Zm-1.11-.78c0-.29-.05-.52-.16-.69-.11-.17-.26-.26-.46-.26s-.36.09-.48.26-.18.4-.18.68h1.28Z"
           style="fill: #171717;"
           id="path97" />
      </g>
      <g
         id="g101">
        <path
           d="m119.31,150.65h-1.67v4.61h-1.37v-4.61h-1.67v-1.48h4.72v1.48Z"
           style="fill: #171717;"
           id="path98" />
        <path
           d="m122.6,151.02l-.44,1.59c-.18-.23-.36-.34-.55-.34-.17,0-.31.08-.43.23s-.24.43-.35.84v1.92h-1.19v-4.47h1.19v1.08c.07-.27.21-.53.4-.78.19-.25.41-.38.67-.38.13,0,.25.03.35.08s.22.13.36.24Z"
           style="fill: #171717;"
           id="path99" />
        <path
           d="m123.96,155.26h-1.19v-4.47h1.19v4.47Zm-.1-5.51c0,.18-.05.34-.15.47s-.22.19-.35.19c-.09,0-.18-.03-.25-.09-.08-.06-.14-.14-.18-.24-.04-.1-.07-.21-.07-.34,0-.18.05-.34.15-.47s.21-.2.35-.2.25.07.35.2.15.29.15.47Z"
           style="fill: #171717;"
           id="path100" />
        <path
           d="m127.88,151.74h-.59c.21.24.31.53.31.88,0,.18-.03.36-.09.53-.06.17-.14.32-.26.45s-.25.24-.42.32c-.17.08-.36.13-.57.15-.27.01-.41.11-.41.29,0,.07.02.12.05.15s.09.06.17.07c.08.02.2.03.38.06.2.02.39.06.57.12s.34.18.49.37.23.46.23.8c0,.28-.06.52-.17.74s-.3.38-.55.5-.59.18-1,.18c-.6,0-1.04-.11-1.32-.32s-.42-.5-.42-.86c0-.1.02-.21.05-.33s.11-.25.23-.36c.12-.12.29-.2.51-.24-.08-.04-.15-.11-.2-.22-.06-.11-.09-.23-.09-.35,0-.16.04-.31.12-.46s.21-.25.39-.29c-.25-.09-.47-.25-.65-.5-.18-.24-.27-.56-.27-.94,0-.29.04-.55.13-.77.08-.22.2-.4.35-.54s.32-.24.52-.31c.2-.07.41-.1.65-.1h1.84v.95Zm-1.07,4.35c0-.2-.08-.32-.24-.38-.16-.06-.32-.09-.49-.09-.27,0-.47.04-.59.12s-.18.2-.18.37c0,.33.25.5.76.5.23,0,.41-.04.54-.13.13-.09.2-.22.2-.39Zm-.24-3.6c0-.23-.06-.41-.17-.54-.12-.14-.24-.2-.39-.2-.18,0-.33.08-.43.25s-.16.34-.16.52c0,.13.02.24.07.35s.11.2.19.26c.08.07.18.1.29.1.17,0,.31-.07.42-.22s.17-.31.17-.51Z"
           style="fill: #171717;"
           id="path101" />
      </g>
    </g>
    <g
       id="g109">
      <path
         d="m96.71,113.76c-.23.13-.46.24-.7.32s-.48.14-.72.17c-.24.03-.49.05-.75.05-.48,0-.91-.07-1.28-.22-.38-.15-.71-.36-.99-.65-.28-.29-.49-.62-.62-1-.14-.38-.21-.8-.21-1.26,0-.52.08-.98.25-1.38.16-.39.39-.72.69-.98s.63-.45,1-.58c.38-.12.77-.19,1.19-.19.62,0,1.33.15,2.12.46v1.62c-.27-.19-.54-.34-.8-.47s-.58-.19-.94-.19c-.32,0-.62.07-.89.21-.28.14-.5.34-.67.6-.17.26-.25.57-.25.91,0,.31.07.59.22.85.15.26.35.46.62.61.26.15.56.23.89.23.27,0,.52-.04.76-.11.24-.07.44-.15.6-.24s.33-.19.5-.31v1.54Z"
         style="fill: #171717;"
         id="path102" />
      <path
         d="m101.71,111.98c0,.45-.09.84-.26,1.19-.17.35-.43.62-.78.83-.35.2-.77.3-1.27.3s-.92-.1-1.27-.3-.61-.48-.78-.83c-.17-.35-.26-.75-.26-1.19,0-.34.05-.64.14-.92.1-.28.24-.52.44-.73.2-.21.44-.38.73-.49s.62-.17,1-.17.72.06,1.01.17c.29.12.53.28.72.49.19.21.34.45.43.73s.15.59.15.92Zm-1.5,0c0-.35-.07-.63-.21-.83-.14-.2-.34-.3-.6-.3s-.46.1-.6.3c-.14.2-.21.48-.21.83s.07.63.21.83.34.31.6.31.46-.1.6-.31c.14-.2.21-.48.21-.84Z"
         style="fill: #171717;"
         id="path103" />
      <path
         d="m106.36,114.22h-1.42v-.64c-.2.24-.41.42-.63.54-.22.12-.49.18-.79.18-.61,0-1-.2-1.18-.59s-.27-.84-.27-1.33v-2.63h1.42v2.42c0,.24.04.46.11.64.07.18.23.27.47.27.21,0,.37-.07.5-.2.12-.13.25-.3.37-.51v-2.63h1.42v4.47Z"
         style="fill: #171717;"
         id="path104" />
      <path
         d="m111.25,114.22h-1.42v-2.41c0-.25-.04-.46-.11-.64-.07-.18-.23-.27-.48-.27-.12,0-.22.02-.31.07-.09.05-.17.11-.24.19-.07.08-.13.15-.18.22-.05.07-.1.15-.15.22v2.63h-1.42v-4.47h1.42v.64c.22-.27.45-.45.67-.56.23-.11.48-.16.75-.16.96,0,1.45.64,1.45,1.92v2.63Z"
         style="fill: #171717;"
         id="path105" />
      <path
         d="m114.96,113.96c-.15.08-.35.16-.61.23s-.51.11-.75.11c-1.03,0-1.54-.56-1.54-1.67v-1.78h-.65v-.28l1.91-2.16h.16v1.34h1.36v1.1h-1.36v1.43c0,.17,0,.3.03.4s.07.19.16.26c.09.07.22.1.39.1.23,0,.52-.11.89-.32v1.23Z"
         style="fill: #171717;"
         id="path106" />
      <path
         d="m116.76,114.22h-1.43v-4.47h1.43v4.47Zm-.12-5.51c0,.18-.06.34-.18.47-.12.13-.26.19-.42.19-.11,0-.21-.03-.3-.09s-.16-.14-.22-.24c-.05-.1-.08-.21-.08-.34,0-.18.06-.34.17-.47.12-.13.26-.2.42-.2s.3.07.42.2c.12.13.18.29.18.47Z"
         style="fill: #171717;"
         id="path107" />
      <path
         d="m121.71,114.22h-1.42v-2.41c0-.25-.04-.46-.11-.64-.07-.18-.23-.27-.48-.27-.12,0-.22.02-.31.07-.09.05-.17.11-.24.19-.07.08-.13.15-.18.22-.05.07-.1.15-.15.22v2.63h-1.42v-4.47h1.42v.64c.22-.27.45-.45.67-.56.22-.11.48-.16.75-.16.96,0,1.45.64,1.45,1.92v2.63Z"
         style="fill: #171717;"
         id="path108" />
      <path
         d="m126.29,110.7h-.7c.25.24.37.53.37.88,0,.18-.04.36-.1.53-.07.17-.17.32-.31.45s-.3.24-.5.32c-.2.08-.43.13-.68.15-.33.01-.49.11-.49.29,0,.07.02.12.06.15.04.03.11.06.2.07.09.02.24.03.46.06.25.02.47.06.68.12s.41.18.59.37c.18.19.27.46.27.8,0,.28-.07.52-.2.74s-.36.38-.66.5c-.3.12-.7.18-1.2.18-.72,0-1.24-.11-1.58-.32s-.5-.5-.5-.86c0-.1.02-.21.07-.33.04-.13.14-.25.28-.36.14-.12.35-.2.62-.24-.09-.04-.18-.11-.25-.22-.07-.11-.1-.23-.1-.35,0-.16.05-.31.14-.46.1-.15.25-.25.47-.29-.3-.09-.56-.25-.78-.5s-.33-.56-.33-.94c0-.29.05-.55.15-.77s.24-.4.42-.54c.18-.14.39-.24.62-.31.24-.07.5-.1.78-.1h2.21v.95Zm-1.29,4.35c0-.2-.09-.32-.28-.38-.19-.06-.38-.09-.58-.09-.33,0-.57.04-.71.12s-.22.2-.22.37c0,.33.3.5.91.5.27,0,.49-.04.65-.13.16-.09.24-.22.24-.39Zm-.29-3.6c0-.23-.07-.41-.21-.54-.14-.14-.29-.2-.46-.2-.22,0-.39.08-.52.25s-.19.34-.19.52c0,.13.03.24.08.35s.13.2.23.26c.1.07.22.1.35.1.21,0,.38-.07.51-.22.13-.14.2-.31.2-.51Z"
         style="fill: #171717;"
         id="path109" />
    </g>
    <g
       id="g114">
      <path
         d="m118.99,39.88h-1.78l-.43-1.08c-.16-.4-.3-.68-.43-.87-.13-.18-.25-.3-.37-.35-.12-.05-.27-.08-.46-.08h-.19v2.38h-1.65v-6.09h2.81c.45,0,.83.1,1.12.31s.5.45.63.75c.13.29.19.57.19.83,0,.31-.05.57-.16.78-.11.21-.22.37-.34.46-.12.1-.25.19-.4.28.18.11.32.25.44.41.12.16.27.47.47.95l.55,1.32Zm-2.25-4.17c0-.28-.08-.48-.25-.59-.17-.11-.44-.17-.81-.17h-.35v1.47h.36c.4,0,.68-.05.83-.15.15-.1.22-.29.22-.56Z"
         style="fill: #171717;"
         id="path110" />
      <path
         d="m123.31,38.02h-2.84c.06.27.19.5.41.67s.46.26.74.26c.48,0,1.01-.15,1.59-.45v.98c-.21.12-.46.23-.76.33s-.67.15-1.13.15c-.5,0-.92-.1-1.27-.31-.35-.21-.61-.48-.78-.83-.17-.35-.26-.75-.26-1.2s.09-.83.26-1.18c.17-.35.43-.62.78-.82.35-.2.77-.3,1.27-.3.33,0,.64.08.95.24.3.16.56.41.75.77.2.36.29.82.29,1.38v.32Zm-1.34-.78c0-.29-.06-.52-.19-.69-.13-.17-.31-.26-.55-.26s-.43.09-.58.26c-.15.17-.22.4-.22.68h1.54Z"
         style="fill: #171717;"
         id="path111" />
      <path
         d="m126.84,38.57c0,.41-.14.74-.41,1-.27.26-.67.38-1.21.38-.3,0-.56-.03-.79-.09-.23-.06-.48-.15-.76-.26v-1.12c.24.15.45.27.62.35s.37.12.58.12c.36,0,.53-.11.53-.33,0-.07-.03-.14-.08-.2-.05-.06-.14-.12-.27-.19-.13-.07-.3-.16-.51-.26-.26-.13-.49-.3-.67-.52s-.28-.48-.28-.8c0-.22.06-.44.18-.64.12-.21.31-.37.56-.5.25-.13.55-.2.9-.2.08,0,.19,0,.32.02.13.01.29.05.49.1s.39.13.57.24v1.09c-.08-.06-.15-.1-.21-.14-.06-.04-.13-.08-.23-.13-.1-.05-.21-.09-.33-.12-.13-.04-.26-.06-.39-.06-.16,0-.28.04-.34.11s-.09.14-.09.21.03.14.09.21c.06.06.2.14.42.23.32.13.57.27.76.42.19.14.33.3.41.47.08.17.12.37.12.6Z"
         style="fill: #171717;"
         id="path112" />
      <path
         d="m131.41,38.02h-2.84c.06.27.19.5.41.67s.46.26.74.26c.48,0,1.01-.15,1.59-.45v.98c-.21.12-.46.23-.76.33s-.67.15-1.13.15c-.5,0-.92-.1-1.27-.31-.35-.21-.61-.48-.78-.83-.17-.35-.26-.75-.26-1.2s.09-.83.26-1.18c.17-.35.43-.62.78-.82.35-.2.77-.3,1.27-.3.33,0,.64.08.95.24.3.16.56.41.75.77.2.36.29.82.29,1.38v.32Zm-1.34-.78c0-.29-.06-.52-.19-.69-.13-.17-.31-.26-.55-.26s-.43.09-.58.26c-.15.17-.22.4-.22.68h1.54Z"
         style="fill: #171717;"
         id="path113" />
      <path
         d="m134.96,39.62c-.15.08-.35.16-.61.23s-.51.11-.75.11c-1.03,0-1.54-.56-1.54-1.67v-1.78h-.65v-.28l1.91-2.16h.16v1.34h1.36v1.1h-1.36v1.43c0,.17,0,.3.03.4s.07.19.16.26c.09.07.22.1.39.1.23,0,.52-.11.89-.32v1.23Z"
         style="fill: #171717;"
         id="path114" />
    </g>
    <g
       id="g120">
      <path
         d="m85.39,39.88h-1.78l-.43-1.08c-.16-.4-.3-.68-.43-.87-.13-.18-.25-.3-.37-.35-.12-.05-.28-.08-.46-.08h-.19v2.38h-1.65v-6.09h2.81c.45,0,.83.1,1.12.31s.5.45.63.75.19.57.19.83c0,.31-.05.57-.16.78-.11.21-.22.37-.34.46-.12.1-.25.19-.4.28.18.11.32.25.44.41.11.16.27.47.47.95l.55,1.32Zm-2.25-4.17c0-.28-.08-.48-.25-.59s-.44-.17-.81-.17h-.35v1.47h.36c.4,0,.68-.05.83-.15.15-.1.22-.29.22-.56Z"
         style="fill: #171717;"
         id="path115" />
      <path
         d="m90.03,37.64c0,.45-.09.84-.26,1.19s-.43.62-.78.83-.77.3-1.27.3-.92-.1-1.27-.3-.61-.48-.78-.83-.26-.75-.26-1.19c0-.34.05-.64.14-.92.1-.28.24-.52.44-.73.2-.21.44-.38.73-.49.29-.11.62-.17,1-.17s.71.06,1.01.17c.29.12.53.28.72.49.19.21.33.45.43.73s.15.59.15.92Zm-1.5,0c0-.35-.07-.63-.21-.83-.14-.2-.34-.3-.6-.3s-.46.1-.6.3c-.14.2-.21.48-.21.83s.07.63.21.83c.14.21.34.31.6.31s.46-.1.6-.31c.14-.2.21-.48.21-.84Z"
         style="fill: #171717;"
         id="path116" />
      <path
         d="m93.62,39.62c-.15.08-.35.16-.61.23s-.51.11-.75.11c-1.03,0-1.54-.56-1.54-1.67v-1.78h-.65v-.28l1.91-2.16h.16v1.34h1.36v1.1h-1.36v1.43c0,.17,0,.3.03.4s.07.19.16.26c.09.07.22.1.39.1.23,0,.52-.11.89-.32v1.23Z"
         style="fill: #171717;"
         id="path117" />
      <path
         d="m98.1,39.65c-.21.09-.4.16-.58.22-.18.06-.39.08-.64.08-.23,0-.4-.05-.49-.14s-.16-.2-.2-.34c-.15.14-.32.25-.51.34-.19.09-.43.13-.74.13s-.53-.06-.71-.17c-.18-.11-.31-.25-.38-.43-.07-.17-.11-.35-.11-.53,0-.28.06-.5.19-.68.12-.18.29-.33.5-.44s.49-.23.84-.36c.2-.07.35-.12.45-.16.1-.04.18-.06.23-.09.05-.02.1-.05.16-.08,0-.22-.04-.39-.12-.51s-.25-.18-.51-.18c-.31,0-.6.08-.87.23-.27.15-.51.35-.73.59v-1.21c.18-.14.37-.26.57-.35.21-.09.42-.16.64-.2.22-.04.45-.07.68-.07.58,0,1.02.12,1.31.38.29.25.44.6.44,1.03v1.73c0,.16.01.29.04.37.03.08.08.12.15.12.09,0,.21-.04.36-.13v.83Zm-1.98-.86v-1.06c-.34.15-.58.29-.74.41-.16.12-.23.29-.23.49,0,.15.04.26.12.34s.17.12.27.12.19-.03.29-.09.19-.13.29-.22Z"
         style="fill: #171717;"
         id="path118" />
      <path
         d="m101.4,39.62c-.15.08-.35.16-.61.23s-.51.11-.75.11c-1.03,0-1.54-.56-1.54-1.67v-1.78h-.65v-.28l1.91-2.16h.16v1.34h1.36v1.1h-1.36v1.43c0,.17,0,.3.03.4s.07.19.16.26c.09.07.22.1.39.1.23,0,.52-.11.89-.32v1.23Z"
         style="fill: #171717;"
         id="path119" />
      <path
         d="m105.82,38.02h-2.84c.06.27.19.5.41.67.22.17.46.26.74.26.48,0,1.01-.15,1.59-.45v.98c-.21.12-.46.23-.76.33-.3.1-.67.15-1.13.15-.5,0-.92-.1-1.27-.31s-.61-.48-.78-.83-.26-.75-.26-1.2.09-.83.26-1.18c.17-.35.43-.62.78-.82.35-.2.77-.3,1.27-.3.33,0,.64.08.95.24s.55.41.75.77c.2.36.29.82.29,1.38v.32Zm-1.34-.78c0-.29-.06-.52-.19-.69-.13-.17-.31-.26-.55-.26s-.43.09-.58.26c-.15.17-.22.4-.22.68h1.54Z"
         style="fill: #171717;"
         id="path120" />
    </g>
    <g
       id="g121">
      <polygon
         points="89.22 94.04 94.49 94.04 91.86 96.67 89.22 94.04"
         style="fill: #171717;"
         id="polygon120" />
      <rect
         x="90.95"
         y="90.53"
         width="1.8"
         height="3.67"
         style="fill: #171717;"
         id="rect120" />
    </g>
    <g
       id="g122">
      <polygon
         points="128.96 93.02 123.68 93.02 126.32 90.38 128.96 93.02"
         style="fill: #171717;"
         id="polygon121" />
      <rect
         x="125.43"
         y="92.88"
         width="1.8"
         height="3.67"
         style="fill: #171717;"
         id="rect121" />
    </g>
    <g
       id="g141">
      <path
         d="m50.39,344.46h-2l-.49-1.32c-.18-.48-.34-.84-.48-1.06s-.28-.37-.42-.43c-.13-.06-.31-.09-.52-.09h-.21v2.91h-1.86v-7.44h3.17c.51,0,.93.12,1.26.38.33.25.56.55.71.91.14.36.22.7.22,1.02,0,.38-.06.69-.18.95-.12.26-.25.45-.38.57-.13.12-.28.23-.45.34.2.14.36.31.49.5.13.19.31.58.53,1.16l.62,1.62Zm-2.53-5.09c0-.34-.09-.58-.28-.72s-.49-.2-.91-.2h-.39v1.79h.4c.46,0,.77-.06.93-.18s.25-.35.25-.69Z"
         style="fill: #171717;"
         id="path122" />
      <path
         d="m57.85,340.73c0,.69-.13,1.33-.4,1.92-.27.58-.66,1.05-1.19,1.39s-1.17.52-1.92.52-1.41-.18-1.94-.54c-.53-.36-.92-.83-1.18-1.41-.26-.58-.39-1.21-.39-1.87s.13-1.29.38-1.88.65-1.05,1.18-1.41c.53-.36,1.18-.54,1.94-.54.57,0,1.08.1,1.53.31s.82.48,1.1.83c.29.35.51.75.66,1.22s.22.95.22,1.46Zm-1.9,0c0-.28-.04-.53-.1-.77-.07-.23-.17-.43-.31-.6-.14-.17-.31-.3-.51-.4s-.43-.14-.69-.14c-.5,0-.89.18-1.18.53-.29.35-.43.81-.43,1.38s.14,1.03.43,1.38c.29.35.68.53,1.17.53.34,0,.63-.08.87-.24.24-.16.42-.39.55-.68s.19-.62.19-.99Z"
         style="fill: #171717;"
         id="path123" />
      <path
         d="m64.41,338.82h-2.26v5.63h-1.86v-5.63h-2.26v-1.81h6.39v1.81Z"
         style="fill: #171717;"
         id="path124" />
      <path
         d="m71.5,344.46h-1.91l-.5-1.51h-2.68l-.51,1.51h-1.91l2.73-7.44h2.06l2.72,7.44Zm-2.84-2.8l-.9-2.72-.91,2.72h1.82Z"
         style="fill: #171717;"
         id="path125" />
      <path
         d="m77.33,338.82h-2.26v5.63h-1.86v-5.63h-2.26v-1.81h6.39v1.81Z"
         style="fill: #171717;"
         id="path126" />
      <path
         d="m80.29,344.46h-1.86v-7.44h1.86v7.44Z"
         style="fill: #171717;"
         id="path127" />
      <path
         d="m88.56,344.46h-1.66l-3.21-4.15v4.15h-1.85v-7.44h1.65l3.2,4.12v-4.12h1.86v7.44Z"
         style="fill: #171717;"
         id="path128" />
      <path
         d="m95.94,343.93c-.13.06-.25.11-.34.15-.09.04-.19.08-.27.11-.09.03-.21.07-.38.12-.28.08-.56.14-.84.18-.28.04-.58.06-.89.06-.63,0-1.21-.14-1.74-.41-.53-.28-.96-.7-1.28-1.28s-.48-1.29-.48-2.14c0-.54.08-1.08.25-1.6s.42-.94.76-1.26c.28-.26.56-.46.85-.6s.57-.23.84-.28.58-.07.9-.07c.54,0,.99.05,1.35.15s.74.23,1.16.39v1.76c-.28-.2-.58-.36-.89-.49-.31-.13-.7-.2-1.17-.2-.54,0-.97.12-1.29.37-.32.25-.55.54-.67.88s-.19.67-.19.99c0,.38.07.72.22,1.04.15.32.37.57.66.76.29.19.65.29,1.07.29.24,0,.49-.04.76-.11v-.88h-.84v-1.5h2.47v3.58Z"
         style="fill: #171717;"
         id="path129" />
      <path
         d="m37.38,352.9c-.25.16-.52.29-.78.39s-.54.17-.81.21c-.27.04-.55.06-.84.06-.54,0-1.02-.09-1.45-.27s-.8-.44-1.11-.79c-.31-.35-.55-.76-.7-1.22-.16-.47-.23-.98-.23-1.54,0-.64.09-1.2.28-1.68.18-.48.44-.88.77-1.2.33-.32.71-.55,1.13-.71s.87-.23,1.34-.23c.7,0,1.5.19,2.38.56v1.98c-.31-.23-.61-.42-.91-.57s-.65-.23-1.05-.23c-.36,0-.7.09-1.01.26-.31.17-.56.42-.75.74-.19.32-.29.69-.29,1.12,0,.38.08.72.25,1.03.17.31.4.56.69.75.29.18.63.28,1,.28.3,0,.58-.04.85-.13.27-.09.49-.19.68-.29s.37-.23.56-.38v1.88Z"
         style="fill: #171717;"
         id="path130" />
      <path
         d="m43.33,353.46h-4.69v-7.44h1.86v5.66h2.83v1.78Z"
         style="fill: #171717;"
         id="path131" />
      <path
         d="m50.5,349.73c0,.69-.13,1.33-.4,1.92-.27.58-.66,1.05-1.19,1.39s-1.17.52-1.92.52-1.41-.18-1.94-.54c-.53-.36-.92-.83-1.18-1.41-.26-.58-.39-1.21-.39-1.87s.13-1.29.38-1.88.65-1.05,1.18-1.41c.53-.36,1.18-.54,1.94-.54.57,0,1.08.1,1.53.31s.82.48,1.1.83c.29.35.51.75.66,1.22s.22.95.22,1.46Zm-1.9,0c0-.28-.04-.53-.1-.77-.07-.23-.17-.43-.31-.6-.14-.17-.31-.3-.51-.4s-.43-.14-.69-.14c-.5,0-.89.18-1.18.53-.29.35-.43.81-.43,1.38s.14,1.03.43,1.38c.29.35.68.53,1.17.53.34,0,.63-.08.87-.24.24-.16.42-.39.55-.68s.19-.62.19-.99Z"
         style="fill: #171717;"
         id="path132" />
      <path
         d="m57.19,352.9c-.25.16-.52.29-.78.39s-.54.17-.81.21c-.27.04-.55.06-.84.06-.54,0-1.02-.09-1.45-.27s-.8-.44-1.11-.79c-.31-.35-.55-.76-.7-1.22-.16-.47-.23-.98-.23-1.54,0-.64.09-1.2.28-1.68.18-.48.44-.88.77-1.2.33-.32.71-.55,1.13-.71s.87-.23,1.34-.23c.7,0,1.5.19,2.38.56v1.98c-.31-.23-.61-.42-.91-.57s-.65-.23-1.05-.23c-.36,0-.7.09-1.01.26-.31.17-.56.42-.75.74-.19.32-.29.69-.29,1.12,0,.38.08.72.25,1.03.17.31.4.56.69.75.29.18.63.28,1,.28.3,0,.58-.04.85-.13.27-.09.49-.19.68-.29s.37-.23.56-.38v1.88Z"
         style="fill: #171717;"
         id="path133" />
      <path
         d="m64.95,353.46h-2.27l-2.36-3.49v3.49h-1.86v-7.44h1.86v3.33l2.24-3.33h2.02l-2.3,3.49,2.67,3.96Z"
         style="fill: #171717;"
         id="path134" />
      <path
         d="m74.82,349.87c0,.76-.12,1.38-.34,1.84-.23.46-.5.84-.81,1.12-.44.42-1.06.63-1.86.63h-3.33v-7.44h2.57c.39,0,.72.02.99.07.28.05.52.12.74.2.22.09.41.19.56.3.15.11.29.23.41.35.21.21.4.45.56.74.16.28.29.61.38.98s.14.78.14,1.21Zm-1.89-.1c0-.61-.1-1.08-.29-1.42-.19-.34-.42-.57-.69-.68-.27-.11-.54-.17-.82-.17h-.79v4.41h.79c.49,0,.91-.14,1.27-.42.36-.28.53-.85.53-1.72Z"
         style="fill: #171717;"
         id="path135" />
      <path
         d="m77.84,353.46h-1.86v-7.44h1.86v7.44Z"
         style="fill: #171717;"
         id="path136" />
      <path
         d="m85.45,346.01l-2.79,7.54h-1.23l-2.73-7.54h1.94l1.41,4.3,1.45-4.3h1.94Z"
         style="fill: #171717;"
         id="path137" />
      <path
         d="m88.17,353.46h-1.86v-7.44h1.86v7.44Z"
         style="fill: #171717;"
         id="path138" />
      <path
         d="m96.08,349.87c0,.76-.12,1.38-.34,1.84-.23.46-.5.84-.81,1.12-.44.42-1.06.63-1.86.63h-3.33v-7.44h2.57c.39,0,.72.02.99.07.28.05.52.12.74.2.22.09.41.19.56.3.15.11.29.23.41.35.21.21.4.45.56.74.16.28.29.61.38.98s.14.78.14,1.21Zm-1.89-.1c0-.61-.1-1.08-.29-1.42-.19-.34-.42-.57-.69-.68-.27-.11-.54-.17-.82-.17h-.79v4.41h.79c.49,0,.91-.14,1.27-.42.36-.28.53-.85.53-1.72Z"
         style="fill: #171717;"
         id="path139" />
      <path
         d="m101.89,353.46h-4.66v-7.44h4.58v1.49h-2.72v1.36h2.59v1.5h-2.59v1.59h2.8v1.5Z"
         style="fill: #171717;"
         id="path140" />
      <path
         d="m109.12,353.46h-2l-.49-1.32c-.18-.48-.34-.84-.48-1.06s-.28-.37-.42-.43c-.13-.06-.31-.09-.52-.09h-.21v2.91h-1.86v-7.44h3.17c.51,0,.93.12,1.26.38.33.25.56.55.71.91.14.36.22.7.22,1.02,0,.38-.06.69-.18.95-.12.26-.25.45-.38.57-.13.12-.28.23-.45.34.2.14.36.31.49.5.13.19.31.58.53,1.16l.62,1.62Zm-2.53-5.09c0-.34-.09-.58-.28-.72s-.49-.2-.91-.2h-.39v1.79h.4c.46,0,.77-.06.93-.18s.25-.35.25-.69Z"
         style="fill: #171717;"
         id="path141" />
    </g>
  </g>
  <g
     id="components">
    <circle
       id="d8"
       cx="48.19"
       cy="309.24"
       r="11.34"
       style="fill: #8080ff;" />
    <circle
       id="LED_d8"
       data-name="LED d8#RedLight"
       cx="19.98"
       cy="309.24"
       r="4.25"
       style="fill: #f0f;" />
    <rect
       id="Auto-Reset@16@off"
       x="103.13"
       y="297.83"
       width="11.34"
       height="17.01"
       transform="translate(415.13 197.54) rotate(90)"
       style="fill:#ff8081" />
    <circle
       id="d7"
       cx="48.19"
       cy="277.62"
       r="11.34"
       style="fill: #8080ff;" />
    <circle
       id="LED_d7"
       data-name="LED d7#BlueLight"
       cx="19.98"
       cy="277.62"
       r="4.25"
       style="fill: #f0f;" />
    <rect
       id="Spread@on@off"
       x="103.13"
       y="258.11"
       width="11.34"
       height="17.01"
       transform="translate(375.41 157.81) rotate(90)"
       style="fill:#ff8081" />
    <circle
       id="d6"
       cx="48.19"
       cy="246.01"
       r="11.34"
       style="fill: #8080ff;" />
    <circle
       id="LED_d6"
       data-name="LED d6#GreenLight"
       cx="19.98"
       cy="246.01"
       r="4.25"
       style="fill: #f0f;" />
    <rect
       id="Max_Div_2"
       data-name="Max Div 2@16 or 64@8 or 32"
       x="102.94"
       y="212.46"
       width="11.34"
       height="17.01"
       transform="translate(329.58 112.35) rotate(90)"
       style="fill:#ff8081" />
    <circle
       id="d5"
       cx="48.19"
       cy="214.39"
       r="11.34"
       style="fill: #8080ff;" />
    <circle
       id="LED_d5"
       data-name="LED d5#BlueLight"
       cx="19.98"
       cy="214.39"
       r="4.25"
       style="fill: #f0f;" />
    <rect
       id="Max_Div_1"
       data-name="Max Div 1@32 or 64@8 or 16"
       x="102.94"
       y="172.74"
       width="11.34"
       height="17.01"
       transform="translate(289.86 72.63) rotate(90)"
       style="fill:#ff8081" />
    <circle
       id="d4"
       cx="48.19"
       cy="182.78"
       r="11.34"
       style="fill: #8080ff;" />
    <circle
       id="LED_d4"
       data-name="LED d4#RedLight"
       cx="19.98"
       cy="182.78"
       r="4.25"
       style="fill: #f0f;" />
    <circle
       id="d3"
       cx="48.19"
       cy="151.16"
       r="11.34"
       style="fill: #8080ff;" />
    <circle
       id="LED_d3"
       data-name="LED d3#GreenLight"
       cx="19.98"
       cy="151.16"
       r="4.25"
       style="fill: #f0f;" />
    <rect
       id="Gate_Trig"
       data-name="Gate Trig@Gate@Trig"
       x="103.13"
       y="124.94"
       width="11.34"
       height="17.01"
       transform="translate(242.24 24.65) rotate(90)"
       style="fill:#ff8081" />
    <circle
       id="d2"
       cx="48.19"
       cy="119.54"
       r="11.34"
       style="fill: #8080ff;" />
    <circle
       id="LED_d2"
       data-name="LED d2#RedLight"
       cx="19.98"
       cy="119.54"
       r="4.25"
       style="fill: #f0f;" />
    <rect
       id="Counting@Down@Up"
       x="103.13"
       y="84.84"
       width="11.34"
       height="17.01"
       transform="translate(202.14 -15.45) rotate(90)"
       style="fill:#ff8081" />
    <circle
       id="d1"
       cx="48.19"
       cy="87.93"
       r="11.34"
       style="fill: #8080ff;" />
    <circle
       id="LED_d1"
       data-name="LED d1#BlueLight"
       cx="19.98"
       cy="87.93"
       r="4.25"
       style="fill: #f0f;" />
    <circle
       id="Reset"
       cx="123.98"
       cy="56.31"
       r="11.34"
       style="fill: #80ff80;" />
    <circle
       id="Rotate"
       cx="92.61"
       cy="56.31"
       r="11.34"
       style="fill: lime;" />
    <circle
       id="Clk_In"
       data-name="Clk In"
       cx="48.19"
       cy="56.31"
       r="11.34"
       style="fill: #80ff80;" />
    <circle
       id="LED_in"
       data-name="LED in#WhiteLight"
       cx="19.98"
       cy="56.31"
       r="4.25"
       style="fill: #f0f;" />
    <text
       id="slug"
       style="font-size:6px;font-family:MyriadPro-Regular, 'Myriad Pro'"
       x="58.299828"
       y="362.04651"><tspan
         x="58.299828"
         y="362.04651"
         style="letter-spacing:0em"
         id="tspan141">R</tspan><tspan
         x="61.549828"
         y="362.04651"
         id="tspan142">CD</tspan></text>
    <text
       id="modulename"
       style="font-size:6px;font-family:MyriadPro-Regular, 'Myriad Pro'"
       x="77.057449"
       y="361.81665"><tspan
         x="77.057449"
         y="361.81665"
         style="letter-spacing:0em"
         id="tspan143">R</tspan><tspan
         x="80.307449"
         y="361.81665"
         id="tspan144">ot</tspan><tspan
         x="85.587448"
         y="361.81665"
         style="letter-spacing:0em"
         id="tspan145">a</tspan><tspan
         x="88.457451"
         y="361.81665"
         id="tspan146">ting Clock Divider</tspan></text>
  </g>
</svg>
