<?xml version="1.0" encoding="UTF-8"?>
<svg xmlns="http://www.w3.org/2000/svg" width="20.32mm" height="130.6mm" xmlns:xlink="http://www.w3.org/1999/xlink" viewBox="0 0 57.6 370.19">
  <defs>
    <clipPath id="clippath">
      <rect x="14.91" y="33.17" width="27.78" height="25.51" style="fill: none; stroke-width: 0px;"/>
    </clipPath>
    <clipPath id="clippath-1">
      <rect x="14.91" y="33.17" width="27.78" height="25.51" style="fill: none; stroke-width: 0px;"/>
    </clipPath>
    <clipPath id="clippath-2">
      <rect x="14.91" y="81.21" width="27.78" height="25.51" style="fill: none; stroke-width: 0px;"/>
    </clipPath>
    <clipPath id="clippath-3">
      <rect x="14.91" y="81.21" width="27.78" height="25.51" style="fill: none; stroke-width: 0px;"/>
    </clipPath>
  </defs>
  <g id="faceplate">
    <g id="panel">
      <rect x=".12" y=".13" width="57.35" height="364" style="fill: #ededed; stroke-width: 0px;"/>
      <path d="M57.35.25v363.75H.25V.25h57.1M57.6,0H0v364.25h57.6V0h0Z" style="fill: #9d9d9e; stroke-width: 0px;"/>
    </g>
    <path d="M44.39,261.76c0-8.05-6.98-14.57-15.59-14.57s-15.59,6.53-15.59,14.57v54.4s0,0,0,0v19.77c0,3.11,2.55,5.65,5.67,5.65h19.84c3.12,0,5.67-2.54,5.67-5.65v-19.77s0,0,0,0v-54.39Z" style="fill: #000; stroke-width: 0px;"/>
    <g id="Text">
      <g>
        <path d="M24.28,354.93c0,.42-.09.84-.29,1.21-.19.33-.48.6-.82.78-.37.19-.78.28-1.2.28h-.47c-.25-.04-.49-.09-.73-.17-.33-.1-.65-.23-.95-.4v-1.82c.29.22.59.41.91.58.31.16.65.24,1,.23.31,0,.52-.06.61-.19.21-.25.18-.63-.07-.85,0,0-.02-.02-.03-.02-.21-.17-.44-.31-.69-.42-.31-.16-.61-.34-.88-.56-.26-.21-.47-.47-.62-.76-.17-.34-.25-.71-.24-1.08,0-.38.08-.75.24-1.09.16-.33.42-.6.74-.78.37-.2.79-.3,1.22-.29.32,0,.63.04.94.12.25.06.49.15.72.27.13.07.26.15.38.24v1.72c-.25-.23-.53-.42-.83-.59-.3-.17-.65-.26-1-.26-.18-.01-.36.04-.5.16-.11.11-.16.25-.16.4,0,.14.05.28.16.38.16.16.35.29.55.4.39.21.76.45,1.12.72.27.2.5.45.67.74.16.33.24.69.22,1.05Z" style="fill: #000; stroke-width: 0px;"/>
        <path d="M31.44,357.14h-2l-.48-1.32c-.12-.37-.28-.72-.47-1.06-.09-.18-.24-.33-.42-.43-.16-.07-.33-.11-.51-.1h-.21v2.91h-1.82v-7.45h3.13c.44-.01.88.12,1.24.38.31.23.55.55.7.91.13.32.2.66.21,1,.01.34-.04.68-.17,1-.09.21-.22.4-.38.56-.14.13-.29.24-.45.34.19.14.36.31.49.5.21.37.38.76.52,1.16l.62,1.6ZM28.94,352.05c.03-.27-.07-.54-.28-.72-.27-.16-.59-.24-.9-.21h-.39v1.81h.4c.32.03.64-.03.92-.18.19-.18.28-.44.25-.7Z" style="fill: #000; stroke-width: 0px;"/>
        <path d="M37.74,356.58c-.24.16-.5.29-.77.39-.26.09-.53.16-.8.2-.28.05-.56.07-.84.07-.49,0-.98-.08-1.43-.27-.42-.18-.79-.45-1.09-.79-.32-.36-.56-.78-.7-1.23-.16-.5-.23-1.02-.23-1.54-.01-.57.08-1.14.27-1.68.16-.45.43-.86.77-1.2.32-.32.7-.56,1.12-.71.42-.15.87-.23,1.32-.23.82.03,1.62.22,2.36.57v2c-.28-.21-.59-.4-.9-.57-.31-.15-.65-.23-1-.23-.35,0-.7.09-1,.26-.31.18-.56.43-.74.74-.19.34-.29.72-.28,1.11,0,.35.08.69.24,1,.16.3.4.56.69.74.3.19.65.29,1,.28.29,0,.57-.04.84-.13.23-.08.45-.17.66-.29.2-.12.38-.25.56-.39l-.05,1.9Z" style="fill: #000; stroke-width: 0px;"/>
      </g>
      <path d="M29.62,69.64h-1.63v-6.77h1.63v6.77Z" style="fill: #000; stroke-width: 0px;"/>
      <path d="M31.07,118.46h-4.53v-.13c.17-.19.37-.42.58-.69l.8-1.06c.16-.2.3-.39.43-.59.13-.18.24-.37.34-.56.1-.19.18-.38.24-.59.07-.22.1-.44.1-.67.01-.27-.07-.54-.24-.76-.14-.19-.36-.3-.6-.29-.59.06-1.12.37-1.46.86v-1.6l.42-.3c.12-.08.25-.16.38-.22.16-.08.33-.14.5-.18.2-.06.42-.08.63-.08.35,0,.69.08,1,.25.3.17.54.43.7.73.17.34.26.72.25,1.11,0,.28-.04.57-.11.84-.06.22-.14.43-.24.63l-.33.59c-.25.42-.51.81-.79,1.19h1.93v1.52Z" style="fill: #000; stroke-width: 0px;"/>
      <text transform="translate(26.71 289.25) scale(.88 1)" style="fill: #fff; font-family: GillSans-Bold, &apos;Gill Sans&apos;; font-size: 8px; font-weight: 700; letter-spacing: -.04em;"><tspan x="0" y="0">1</tspan></text>
      <text transform="translate(26.71 337.44) scale(.88 1)" style="fill: #fff; font-family: GillSans-Bold, &apos;Gill Sans&apos;; font-size: 8px; font-weight: 700; letter-spacing: -.04em;"><tspan x="0" y="0">2</tspan></text>
    </g>
    <g id="pips">
      <g id="pips_-_fewest" data-name="pips - fewest">
        <g style="clip-path: url(#clippath);">
          <g style="clip-path: url(#clippath-1);">
            <path d="M34.49,35.93l.71-1.23c-1.74-.9-3.69-1.45-5.77-1.54v1.42c1.81.09,3.52.56,5.05,1.35" style="fill: #000; stroke-width: 0px;"/>
            <path d="M39.28,40.25l1.23-.71c-1.09-1.69-2.53-3.12-4.22-4.21l-.71,1.23c1.48.96,2.74,2.21,3.7,3.69" style="fill: #000; stroke-width: 0px;"/>
            <path d="M22.02,36.56l-.71-1.23c-1.69,1.08-3.14,2.52-4.22,4.2l1.23.71c.96-1.47,2.22-2.73,3.7-3.69" style="fill: #000; stroke-width: 0px;"/>
            <path d="M41.26,46.38h1.43c-.09-2.07-.64-4.01-1.54-5.75l-1.23.71c.79,1.52,1.26,3.23,1.35,5.04" style="fill: #000; stroke-width: 0px;"/>
            <path d="M28.17,34.59v-1.42c-2.07.09-4.03.64-5.77,1.54l.71,1.23c1.53-.78,3.24-1.25,5.05-1.35" style="fill: #000; stroke-width: 0px;"/>
            <path d="M18.32,53.76l-1.23.71c1.09,1.69,2.53,3.12,4.22,4.21l.71-1.23c-1.48-.96-2.74-2.21-3.7-3.69" style="fill: #000; stroke-width: 0px;"/>
            <path d="M35.58,57.45l.71,1.23c1.69-1.08,3.14-2.52,4.22-4.2l-1.23-.71c-.96,1.47-2.22,2.73-3.7,3.69" style="fill: #000; stroke-width: 0px;"/>
            <path d="M41.26,47.64c-.09,1.81-.56,3.51-1.35,5.04l1.23.71c.9-1.73,1.45-3.68,1.54-5.75h-1.43Z" style="fill: #000; stroke-width: 0px;"/>
            <path d="M16.34,47.64h-1.43c.09,2.07.64,4.01,1.54,5.75l1.23-.71c-.79-1.52-1.26-3.23-1.35-5.04" style="fill: #000; stroke-width: 0px;"/>
            <path d="M17.69,41.34l-1.23-.71c-.9,1.73-1.45,3.68-1.54,5.75h1.43c.09-1.81.56-3.51,1.35-5.04" style="fill: #000; stroke-width: 0px;"/>
          </g>
        </g>
      </g>
      <g id="pips_-_fewest-2" data-name="pips - fewest">
        <g style="clip-path: url(#clippath-2);">
          <g style="clip-path: url(#clippath-3);">
            <path d="M34.49,83.98l.71-1.23c-1.74-.9-3.69-1.45-5.77-1.54v1.42c1.81.09,3.52.56,5.05,1.35" style="fill: #000; stroke-width: 0px;"/>
            <path d="M39.28,88.3l1.23-.71c-1.09-1.69-2.53-3.12-4.22-4.21l-.71,1.23c1.48.96,2.74,2.21,3.7,3.69" style="fill: #000; stroke-width: 0px;"/>
            <path d="M22.02,84.61l-.71-1.23c-1.69,1.08-3.14,2.52-4.22,4.2l1.23.71c.96-1.47,2.22-2.73,3.7-3.69" style="fill: #000; stroke-width: 0px;"/>
            <path d="M41.26,94.42h1.43c-.09-2.07-.64-4.01-1.54-5.75l-1.23.71c.79,1.52,1.26,3.23,1.35,5.04" style="fill: #000; stroke-width: 0px;"/>
            <path d="M28.17,82.63v-1.42c-2.07.09-4.03.64-5.77,1.54l.71,1.23c1.53-.78,3.24-1.25,5.05-1.35" style="fill: #000; stroke-width: 0px;"/>
            <path d="M18.32,101.81l-1.23.71c1.09,1.69,2.53,3.12,4.22,4.21l.71-1.23c-1.48-.96-2.74-2.21-3.7-3.69" style="fill: #000; stroke-width: 0px;"/>
            <path d="M35.58,105.5l.71,1.23c1.69-1.08,3.14-2.52,4.22-4.2l-1.23-.71c-.96,1.47-2.22,2.73-3.7,3.69" style="fill: #000; stroke-width: 0px;"/>
            <path d="M41.26,95.68c-.09,1.81-.56,3.51-1.35,5.04l1.23.71c.9-1.73,1.45-3.68,1.54-5.75h-1.43Z" style="fill: #000; stroke-width: 0px;"/>
            <path d="M16.34,95.68h-1.43c.09,2.07.64,4.01,1.54,5.75l1.23-.71c-.79-1.52-1.26-3.23-1.35-5.04" style="fill: #000; stroke-width: 0px;"/>
            <path d="M17.69,89.39l-1.23-.71c-.9,1.73-1.45,3.68-1.54,5.75h1.43c.09-1.81.56-3.51,1.35-5.04" style="fill: #000; stroke-width: 0px;"/>
          </g>
        </g>
      </g>
    </g>
    <g>
      <path d="M20.6,18.19c-.37,0-.71-.17-.97-.47-.51-.6-.52-1.54-.04-2.16l6.97-8.88c.38-.48,1.05-.65,1.57-.39.5.25.79.82.79,1.45v4.77l4.64-5.85c.38-.48,1.01-.64,1.53-.38.5.25.83.81.83,1.44v8.82c0,.86-.61,1.57-1.36,1.57s-1.36-.7-1.36-1.57v-4.79l-4.64,5.85c-.38.48-1.01.64-1.54.38-.5-.24-.83-.81-.83-1.44v-4.67l-4.61,5.8c-.26.32-.62.51-1,.51h0Z" style="fill: #2cabe1; stroke-width: 0px;"/>
      <path d="M20.6,18.19c-.75,0-1.35-.7-1.35-1.57v-4.93l-2.26,2.84c-.5.63-1.44.65-1.97.04-.51-.6-.52-1.53-.03-2.15l4.61-5.76c.26-.32.63-.5,1-.5.18,0,.37.04.54.12.5.25.82.81.82,1.44v8.89c0,.86-.61,1.57-1.36,1.57h0Z" style="fill: #ea2228; stroke-width: 0px;"/>
      <path d="M37.2,18.21h0c-.35,0-.68-.15-.94-.42-.76-.78-.14-1.84.29-2.3l1.95-2.36-1.26-.02c-.56-.01-1.04-.4-1.24-1-.19-.56-.07-1.21.29-1.64l3.16-3.83c.23-.28.55-.48,1.13-.47.33,0,.67.17.92.4.71.66.29,1.7-.07,2.2l-1.04,1.26,1.26.02c.56.01,1.04.4,1.24,1,.19.56.07,1.21-.29,1.64l-4.1,4.97c-.35.35-.65.55-1.3.54h0Z" style="fill: #00a650; stroke-width: 0px;"/>
    </g>
  </g>
  <g id="components">
    <circle id="_2_Out" data-name=" 2 Out" cx="28.8" cy="313.21" r="11.34" style="fill: blue; stroke-width: 0px;"/>
    <circle id="_1_Out" data-name=" 1 Out" cx="28.8" cy="265.11" r="11.34" style="fill: blue; stroke-width: 0px;"/>
    <circle id="_2" data-name="2" cx="28.8" cy="94.96" r="8.5" style="fill: #ff0020; stroke-width: 0px;"/>
    <circle id="_1" data-name="1" cx="28.8" cy="46.72" r="8.5" style="fill: #ff0020; stroke-width: 0px;"/>
    <text id="slug" transform="translate(38.07 369.44)" style="fill: #000; font-family: MyriadPro-Regular, &apos;Myriad Pro&apos;; font-size: 3px;"><tspan x="0" y="0">Source</tspan></text>
    <text id="modulename" transform="translate(47.68 369.44)" style="fill: #000; font-family: MyriadPro-Regular, &apos;Myriad Pro&apos;; font-size: 3px;"><tspan x="0" y="0" style="letter-spacing: 0em;">S</tspan><tspan x="1.5" y="0" style="letter-spacing: 0em;">ou</tspan><tspan x="4.8" y="0" style="letter-spacing: -.01em;">r</tspan><tspan x="5.75" y="0" style="letter-spacing: 0em;">c</tspan><tspan x="7.07" y="0">e</tspan></text>
  </g>
</svg>
