<?xml version="1.0" encoding="UTF-8"?>
<svg xmlns="http://www.w3.org/2000/svg" width="40.64mm" height="130.55mm" viewBox="0 0 115.2 370.07">
  <g id="faceplate">
    <g>
      <rect x=".12" y=".13" width="114.95" height="364" style="fill: #ededed; stroke-width: 0px;"/>
      <path d="M114.95.25v363.75H.25V.25h114.7M115.2,0H0v364.25h115.2V0h0Z" style="fill: #9d9d9e; stroke-width: 0px;"/>
    </g>
    <text transform="translate(29.01 357.3) scale(.82 1)" style="fill: #000; font-family: GillSans-Bold, &apos;Gill Sans&apos;; font-size: 11px; font-weight: 700;"><tspan x="0" y="0">SWITCH 4:1</tspan></text>
    <path d="M100.35,316.21v-23.22h-21.54c-7.49,0-13.57,7.04-13.57,15.71v32.93h15.07s0,0,0,0h14.39c3.12,0,5.64-2.55,5.64-5.67v-19.84.08Z" style="fill: #000; stroke-width: 0px;"/>
    <path d="M28.23,341.15h35.2s23.15,0,23.15,0c7.35,0,13.31-7.02,13.31-15.67v-153.33l-.06-6.21c-.29-8.35-6.12-15.02-13.28-15.02H28.2c-7.17,0-12.99,6.67-13.28,15.02l-.06,6.21v92.16l.07,61.17" style="fill: none; stroke: #000; stroke-miterlimit: 10;"/>
    <path d="M14.92,324.53v10.96c0,3.12,2.55,5.67,5.67,5.67h12.93" style="fill: none; stroke: #231f20; stroke-miterlimit: 10;"/>
    <text transform="translate(77.12 239.7) scale(.88 1)" style="fill: #000; font-family: GillSans-Bold, &apos;Gill Sans&apos;; font-size: 8px; font-weight: 700; letter-spacing: -.04em;"><tspan x="0" y="0">In 4</tspan></text>
    <text transform="translate(78.15 287.83) scale(.88 1)" style="fill: #000; font-family: GillSans-Bold, &apos;Gill Sans&apos;; font-size: 8px; font-weight: 700; letter-spacing: -.04em;"><tspan x="0" y="0">CV</tspan></text>
    <text transform="translate(76.73 335.09) scale(.88 1)" style="fill: #fff; font-family: GillSans-Bold, &apos;Gill Sans&apos;; font-size: 8px; font-weight: 700; letter-spacing: -.04em;"><tspan x="0" y="0">Out</tspan></text>
    <text transform="translate(25.55 239.7) scale(.88 1)" style="fill: #000; font-family: GillSans-Bold, &apos;Gill Sans&apos;; font-size: 8px; font-weight: 700; letter-spacing: -.04em;"><tspan x="0" y="0">In 3</tspan></text>
    <text transform="translate(22.28 287.83) scale(.88 1)" style="fill: #000; font-family: GillSans-Bold, &apos;Gill Sans&apos;; font-size: 8px; font-weight: 700; letter-spacing: -.04em;"><tspan x="0" y="0">Clock</tspan></text>
    <text transform="translate(77 191.72) scale(.88 1)" style="fill: #000; font-family: GillSans-Bold, &apos;Gill Sans&apos;; font-size: 8px; font-weight: 700; letter-spacing: -.04em;"><tspan x="0" y="0">In 2</tspan></text>
    <text transform="translate(25.47 191.72) scale(.88 1)" style="fill: #000; font-family: GillSans-Bold, &apos;Gill Sans&apos;; font-size: 8px; font-weight: 700; letter-spacing: -.04em;"><tspan x="0" y="0">In 1</tspan></text>
    <text transform="translate(22.21 335.09) scale(.88 1)" style="fill: #000; font-family: GillSans-Bold, &apos;Gill Sans&apos;; font-size: 8px; font-weight: 700; letter-spacing: -.04em;"><tspan x="0" y="0">Reset</tspan></text>
    <g>
      <path d="M49.4,18.07c-.37,0-.71-.17-.97-.47-.51-.6-.52-1.54-.04-2.16l6.97-8.88c.38-.48,1.05-.65,1.57-.39.5.25.79.82.79,1.45v4.77l4.64-5.85c.38-.48,1.01-.64,1.53-.38.5.25.83.81.83,1.44v8.82c0,.86-.61,1.57-1.36,1.57s-1.36-.7-1.36-1.57v-4.79l-4.64,5.85c-.38.48-1.01.64-1.54.38-.5-.24-.83-.81-.83-1.44v-4.67l-4.61,5.8c-.26.32-.62.51-1,.51h0Z" style="fill: #2cabe1; stroke-width: 0px;"/>
      <path d="M49.4,18.07c-.75,0-1.35-.7-1.35-1.57v-4.93l-2.26,2.84c-.5.63-1.44.65-1.97.04-.51-.6-.52-1.53-.03-2.15l4.61-5.76c.26-.32.63-.5,1-.5.18,0,.37.04.54.12.5.25.82.81.82,1.44v8.89c0,.86-.61,1.57-1.36,1.57h0Z" style="fill: #ea2228; stroke-width: 0px;"/>
      <path d="M66,18.09h0c-.35,0-.68-.15-.94-.42-.76-.78-.14-1.84.29-2.3l1.95-2.36-1.26-.02c-.56-.01-1.04-.4-1.24-1-.19-.56-.07-1.21.29-1.64l3.16-3.83c.23-.28.55-.48,1.13-.47.33,0,.67.17.92.4.71.66.29,1.7-.07,2.2l-1.04,1.26,1.26.02c.56.01,1.04.4,1.24,1,.19.56.07,1.21-.29,1.64l-4.1,4.97c-.35.35-.65.55-1.3.54h0Z" style="fill: #00a650; stroke-width: 0px;"/>
    </g>
  </g>
  <g id="components">
    <circle id="Out" cx="83.3" cy="311.88" r="11.34" style="fill: blue; stroke-width: 0px;"/>
    <circle id="Reset" cx="31.76" cy="311.88" r="11.34" style="fill: lime; stroke-width: 0px;"/>
    <circle id="CV" cx="83.3" cy="263.15" r="11.34" style="fill: lime; stroke-width: 0px;"/>
    <circle id="Clock" cx="31.76" cy="263.15" r="11.34" style="fill: lime; stroke-width: 0px;"/>
    <circle id="In_4" data-name="In 4" cx="83.3" cy="214.43" r="11.34" style="fill: lime; stroke-width: 0px;"/>
    <circle id="In_3" data-name="In 3" cx="31.76" cy="214.43" r="11.34" style="fill: lime; stroke-width: 0px;"/>
    <circle id="In_2" data-name="In 2" cx="83.3" cy="167.04" r="11.34" style="fill: lime; stroke-width: 0px;"/>
    <circle id="In_1" data-name="In 1" cx="31.76" cy="167.04" r="11.34" style="fill: lime; stroke-width: 0px;"/>
    <text id="slug" transform="translate(77.32 369.32)" style="fill: #000; font-family: MyriadPro-Regular, &apos;Myriad Pro&apos;; font-size: 3px;"><tspan x="0" y="0" style="letter-spacing: 0em;">S</tspan><tspan x="1.46" y="0">wi</tspan><tspan x="4.37" y="0" style="letter-spacing: 0em;">t</tspan><tspan x="5.34" y="0">ch41</tspan></text>
    <text id="modulename" transform="translate(97.28 369.32)" style="fill: #000; font-family: MyriadPro-Regular, &apos;Myriad Pro&apos;; font-size: 3px;"><tspan x="0" y="0">4 </tspan><tspan x="2.17" y="0" style="letter-spacing: 0em;">t</tspan><tspan x="3.15" y="0" style="letter-spacing: 0em;">o 1 </tspan><tspan x="7.61" y="0" style="letter-spacing: 0em;">S</tspan><tspan x="9.06" y="0">wi</tspan><tspan x="11.97" y="0" style="letter-spacing: 0em;">t</tspan><tspan x="12.95" y="0">ch</tspan></text>
  </g>
</svg>