<?xml version="1.0" encoding="UTF-8"?>
<svg xmlns="http://www.w3.org/2000/svg" width="76.29mm" height="128.59mm" viewBox="0 0 216.25 364.5">
  <g id="faceplate">
    <rect x=".12" y=".12" width="216" height="364.25" style="fill: #ededed; stroke: #9d9d9e; stroke-miterlimit: 10; stroke-width: .25px;"/>
    <text transform="translate(23.88 192.3) scale(.88 1)" style="fill: #000; font-family: Verdana, Verdana; font-size: 12px;"><tspan x="0" y="0">Sustain</tspan></text>
    <path d="M43.62,143.6c-.83,0-1.65.07-2.45.17l-.39-2.21c.93-.12,1.88-.19,2.84-.19s1.91.07,2.84.19l-.39,2.21c-.81-.1-1.62-.17-2.45-.17Z" style="fill: #000; stroke-width: 0px;"/>
    <path d="M29.13,149.97l-1.73-1.45c1.28-1.4,2.74-2.63,4.34-3.66l1.12,1.94c-1.38.9-2.62,1.96-3.73,3.16Z" style="fill: #000; stroke-width: 0px;"/>
    <path d="M34.6,145.8l-1.12-1.94c1.67-.87,3.46-1.53,5.34-1.95l.39,2.21c-1.62.37-3.16.94-4.61,1.69Z" style="fill: #000; stroke-width: 0px;"/>
    <path d="M25.39,155.74l-2.1-.76c.73-1.77,1.69-3.42,2.83-4.92l1.73,1.45c-.98,1.3-1.82,2.71-2.46,4.23Z" style="fill: #000; stroke-width: 0px;"/>
    <path d="M48.05,144.12l.39-2.21c1.88.42,3.67,1.08,5.34,1.95l-1.12,1.94c-1.44-.74-2.98-1.31-4.6-1.69Z" style="fill: #000; stroke-width: 0px;"/>
    <path d="M23.91,162.43h-2.26c.08-1.93.41-3.8.96-5.58l2.11.77c-.47,1.53-.73,3.15-.81,4.81Z" style="fill: #000; stroke-width: 0px;"/>
    <path d="M24.77,169.23l-2.1.76c-.57-1.79-.91-3.65-1.01-5.56h2.23c.09,1.65.39,3.25.87,4.8Z" style="fill: #000; stroke-width: 0px;"/>
    <path d="M27.91,175.31l-1.71,1.44c-1.15-1.5-2.11-3.14-2.84-4.88l2.1-.77c.64,1.5,1.46,2.91,2.45,4.2Z" style="fill: #000; stroke-width: 0px;"/>
    <path d="M59.4,151.51l1.73-1.45c1.14,1.5,2.1,3.15,2.83,4.92l-2.1.77c-.64-1.52-1.48-2.93-2.46-4.23Z" style="fill: #000; stroke-width: 0px;"/>
    <path d="M62.53,157.62l2.11-.77c.55,1.78.88,3.65.96,5.58h-2.26c-.08-1.66-.34-3.28-.81-4.81Z" style="fill: #000; stroke-width: 0px;"/>
    <path d="M63.35,164.43h2.23c-.09,1.91-.44,3.78-1.01,5.56l-2.1-.77c.48-1.54.79-3.15.88-4.8Z" style="fill: #000; stroke-width: 0px;"/>
    <path d="M61.79,171.11l2.11.77c-.73,1.74-1.69,3.38-2.84,4.88l-1.71-1.44c.99-1.3,1.81-2.71,2.45-4.2Z" style="fill: #000; stroke-width: 0px;"/>
    <path d="M32.93,179.96l-1.12,1.93c-1.61-1.03-3.05-2.24-4.32-3.62l1.71-1.44c1.1,1.18,2.34,2.23,3.72,3.12Z" style="fill: #000; stroke-width: 0px;"/>
    <path d="M58.04,176.84l1.71,1.44c-1.27,1.37-2.71,2.59-4.32,3.62l-1.12-1.93c1.38-.89,2.62-1.94,3.72-3.12Z" style="fill: #000; stroke-width: 0px;"/>
    <path d="M54.38,146.81l1.12-1.94c1.6,1.03,3.06,2.26,4.34,3.66l-1.73,1.45c-1.11-1.2-2.36-2.27-3.74-3.16Z" style="fill: #000; stroke-width: 0px;"/>
    <text transform="translate(26.81 76.3) scale(.88 1)" style="fill: #000; font-family: Verdana, Verdana; font-size: 12px;"><tspan x="0" y="0">Attack</tspan></text>
    <g>
      <path d="M43.62,26.74c-.83,0-1.65.07-2.45.17l-.39-2.21c.93-.12,1.88-.19,2.84-.19s1.91.07,2.84.19l-.39,2.21c-.81-.1-1.62-.17-2.45-.17Z" style="fill: #000; stroke-width: 0px;"/>
      <path d="M29.13,33.11l-1.73-1.45c1.28-1.4,2.74-2.63,4.34-3.66l1.12,1.94c-1.38.9-2.62,1.96-3.73,3.16Z" style="fill: #000; stroke-width: 0px;"/>
      <path d="M34.6,28.94l-1.12-1.94c1.67-.87,3.46-1.53,5.34-1.95l.39,2.21c-1.62.37-3.16.94-4.61,1.69Z" style="fill: #000; stroke-width: 0px;"/>
      <path d="M25.39,38.87l-2.1-.76c.73-1.77,1.69-3.42,2.83-4.92l1.73,1.45c-.98,1.3-1.82,2.71-2.46,4.23Z" style="fill: #000; stroke-width: 0px;"/>
      <path d="M48.05,27.25l.39-2.21c1.88.42,3.67,1.08,5.34,1.95l-1.12,1.94c-1.44-.74-2.98-1.31-4.6-1.69Z" style="fill: #000; stroke-width: 0px;"/>
      <path d="M23.91,45.57h-2.26c.08-1.93.41-3.8.96-5.58l2.11.77c-.47,1.53-.73,3.15-.81,4.81Z" style="fill: #000; stroke-width: 0px;"/>
      <path d="M24.77,52.37l-2.1.76c-.57-1.79-.91-3.65-1.01-5.56h2.23c.09,1.65.39,3.25.87,4.8Z" style="fill: #000; stroke-width: 0px;"/>
      <path d="M27.91,58.45l-1.71,1.44c-1.15-1.5-2.11-3.14-2.84-4.88l2.1-.77c.64,1.5,1.46,2.91,2.45,4.2Z" style="fill: #000; stroke-width: 0px;"/>
      <path d="M59.4,34.64l1.73-1.45c1.14,1.5,2.1,3.15,2.83,4.92l-2.1.77c-.64-1.52-1.48-2.93-2.46-4.23Z" style="fill: #000; stroke-width: 0px;"/>
      <path d="M62.53,40.75l2.11-.77c.55,1.78.88,3.65.96,5.58h-2.26c-.08-1.66-.34-3.28-.81-4.81Z" style="fill: #000; stroke-width: 0px;"/>
      <path d="M63.35,47.57h2.23c-.09,1.91-.44,3.78-1.01,5.56l-2.1-.77c.48-1.54.79-3.15.88-4.8Z" style="fill: #000; stroke-width: 0px;"/>
      <path d="M61.79,54.25l2.11.77c-.73,1.74-1.69,3.38-2.84,4.88l-1.71-1.44c.99-1.3,1.81-2.71,2.45-4.2Z" style="fill: #000; stroke-width: 0px;"/>
      <path d="M32.93,63.09l-1.12,1.93c-1.61-1.03-3.05-2.24-4.32-3.62l1.71-1.44c1.1,1.18,2.34,2.23,3.72,3.12Z" style="fill: #000; stroke-width: 0px;"/>
      <path d="M58.04,59.97l1.71,1.44c-1.27,1.37-2.71,2.59-4.32,3.62l-1.12-1.93c1.38-.89,2.62-1.94,3.72-3.12Z" style="fill: #000; stroke-width: 0px;"/>
      <path d="M54.38,29.94l1.12-1.94c1.6,1.03,3.06,2.26,4.34,3.66l-1.73,1.45c-1.11-1.2-2.36-2.27-3.74-3.16Z" style="fill: #000; stroke-width: 0px;"/>
    </g>
    <text transform="translate(91.86 75.62) scale(.88 1)" style="fill: #000; font-family: Verdana, Verdana; font-size: 12px;"><tspan x="0" y="0">Decay</tspan></text>
    <path d="M108.12,26.06c-.83,0-1.65.07-2.45.17l-.39-2.21c.93-.12,1.88-.19,2.84-.19s1.91.07,2.84.19l-.39,2.21c-.81-.1-1.62-.17-2.45-.17Z" style="fill: #000; stroke-width: 0px;"/>
    <path d="M93.63,32.43l-1.73-1.45c1.28-1.4,2.74-2.63,4.34-3.66l1.12,1.94c-1.38.9-2.62,1.96-3.73,3.16Z" style="fill: #000; stroke-width: 0px;"/>
    <path d="M99.1,28.26l-1.12-1.94c1.67-.87,3.46-1.53,5.34-1.95l.39,2.21c-1.62.37-3.16.94-4.61,1.69Z" style="fill: #000; stroke-width: 0px;"/>
    <path d="M89.89,38.2l-2.1-.76c.73-1.77,1.69-3.42,2.83-4.92l1.73,1.45c-.98,1.3-1.82,2.71-2.46,4.23Z" style="fill: #000; stroke-width: 0px;"/>
    <path d="M112.55,26.58l.39-2.21c1.88.42,3.67,1.08,5.34,1.95l-1.12,1.94c-1.44-.74-2.98-1.31-4.6-1.69Z" style="fill: #000; stroke-width: 0px;"/>
    <path d="M88.41,44.9h-2.26c.08-1.93.41-3.8.96-5.58l2.11.77c-.47,1.53-.73,3.15-.81,4.81Z" style="fill: #000; stroke-width: 0px;"/>
    <path d="M89.27,51.69l-2.1.76c-.57-1.79-.91-3.65-1.01-5.56h2.23c.09,1.65.39,3.25.88,4.8Z" style="fill: #000; stroke-width: 0px;"/>
    <path d="M92.41,57.78l-1.71,1.44c-1.15-1.5-2.11-3.14-2.84-4.88l2.1-.77c.64,1.5,1.46,2.91,2.45,4.2Z" style="fill: #000; stroke-width: 0px;"/>
    <path d="M123.9,33.97l1.73-1.45c1.14,1.5,2.1,3.15,2.83,4.92l-2.1.77c-.64-1.52-1.48-2.93-2.46-4.23Z" style="fill: #000; stroke-width: 0px;"/>
    <path d="M127.03,40.08l2.11-.77c.55,1.78.88,3.65.96,5.58h-2.26c-.08-1.66-.34-3.28-.81-4.81Z" style="fill: #000; stroke-width: 0px;"/>
    <path d="M127.85,46.89h2.23c-.09,1.91-.44,3.78-1.01,5.56l-2.1-.77c.48-1.54.79-3.15.88-4.8Z" style="fill: #000; stroke-width: 0px;"/>
    <path d="M126.29,53.57l2.11.77c-.73,1.74-1.69,3.38-2.84,4.88l-1.71-1.44c.99-1.3,1.81-2.71,2.45-4.2Z" style="fill: #000; stroke-width: 0px;"/>
    <path d="M97.43,62.42l-1.12,1.93c-1.61-1.03-3.05-2.24-4.32-3.62l1.71-1.44c1.1,1.18,2.34,2.23,3.72,3.12Z" style="fill: #000; stroke-width: 0px;"/>
    <path d="M122.54,59.3l1.71,1.44c-1.27,1.37-2.71,2.59-4.32,3.62l-1.12-1.93c1.38-.89,2.62-1.94,3.72-3.12Z" style="fill: #000; stroke-width: 0px;"/>
    <path d="M118.88,29.27l1.12-1.94c1.6,1.03,3.06,2.26,4.34,3.66l-1.73,1.45c-1.11-1.2-2.36-2.27-3.74-3.16Z" style="fill: #000; stroke-width: 0px;"/>
    <text transform="translate(152.15 75.62) scale(.88 1)" style="fill: #000; font-family: Verdana, Verdana; font-size: 12px;"><tspan x="0" y="0">Release</tspan></text>
    <path d="M172.62,26.06c-.83,0-1.65.07-2.45.17l-.39-2.21c.93-.12,1.88-.19,2.84-.19s1.91.07,2.84.19l-.39,2.21c-.81-.1-1.62-.17-2.45-.17Z" style="fill: #000; stroke-width: 0px;"/>
    <path d="M158.13,32.43l-1.73-1.45c1.28-1.4,2.74-2.63,4.34-3.66l1.12,1.94c-1.38.9-2.62,1.96-3.73,3.16Z" style="fill: #000; stroke-width: 0px;"/>
    <path d="M163.6,28.26l-1.12-1.94c1.67-.87,3.46-1.53,5.34-1.95l.39,2.21c-1.62.37-3.16.94-4.61,1.69Z" style="fill: #000; stroke-width: 0px;"/>
    <path d="M154.39,38.2l-2.1-.76c.73-1.77,1.69-3.42,2.83-4.92l1.73,1.45c-.98,1.3-1.82,2.71-2.46,4.23Z" style="fill: #000; stroke-width: 0px;"/>
    <path d="M177.05,26.58l.39-2.21c1.88.42,3.67,1.08,5.34,1.95l-1.12,1.94c-1.44-.74-2.98-1.31-4.6-1.69Z" style="fill: #000; stroke-width: 0px;"/>
    <path d="M152.91,44.9h-2.26c.08-1.93.41-3.8.96-5.58l2.11.77c-.47,1.53-.73,3.15-.81,4.81Z" style="fill: #000; stroke-width: 0px;"/>
    <path d="M153.77,51.69l-2.1.76c-.57-1.79-.91-3.65-1.01-5.56h2.23c.09,1.65.39,3.25.88,4.8Z" style="fill: #000; stroke-width: 0px;"/>
    <path d="M156.91,57.78l-1.71,1.44c-1.15-1.5-2.11-3.14-2.84-4.88l2.1-.77c.64,1.5,1.46,2.91,2.45,4.2Z" style="fill: #000; stroke-width: 0px;"/>
    <path d="M188.4,33.97l1.73-1.45c1.14,1.5,2.1,3.15,2.83,4.92l-2.1.77c-.64-1.52-1.48-2.93-2.46-4.23Z" style="fill: #000; stroke-width: 0px;"/>
    <path d="M191.53,40.08l2.11-.77c.55,1.78.88,3.65.96,5.58h-2.26c-.08-1.66-.34-3.28-.81-4.81Z" style="fill: #000; stroke-width: 0px;"/>
    <path d="M192.35,46.89h2.23c-.09,1.91-.44,3.78-1.01,5.56l-2.1-.77c.48-1.54.79-3.15.88-4.8Z" style="fill: #000; stroke-width: 0px;"/>
    <path d="M190.79,53.57l2.11.77c-.73,1.74-1.69,3.38-2.84,4.88l-1.71-1.44c.99-1.3,1.81-2.71,2.45-4.2Z" style="fill: #000; stroke-width: 0px;"/>
    <path d="M161.93,62.42l-1.12,1.93c-1.61-1.03-3.05-2.24-4.32-3.62l1.71-1.44c1.1,1.18,2.34,2.23,3.72,3.12Z" style="fill: #000; stroke-width: 0px;"/>
    <path d="M187.04,59.3l1.71,1.44c-1.27,1.37-2.71,2.59-4.32,3.62l-1.12-1.93c1.38-.89,2.62-1.94,3.72-3.12Z" style="fill: #000; stroke-width: 0px;"/>
    <path d="M183.38,29.27l1.12-1.94c1.6,1.03,3.06,2.26,4.34,3.66l-1.73,1.45c-1.11-1.2-2.36-2.27-3.74-3.16Z" style="fill: #000; stroke-width: 0px;"/>
    <text transform="translate(22.61 133.74) scale(.88 1)" style="fill: #000; font-family: Verdana, Verdana; font-size: 12px;"><tspan x="0" y="0">A Curve</tspan></text>
    <path d="M43.62,85.05c-.83,0-1.65.07-2.45.17l-.39-2.21c.93-.12,1.88-.19,2.84-.19s1.91.07,2.84.19l-.39,2.21c-.81-.1-1.62-.17-2.45-.17Z" style="fill: #000; stroke-width: 0px;"/>
    <path d="M29.13,91.42l-1.73-1.45c1.28-1.4,2.74-2.63,4.34-3.66l1.12,1.94c-1.38.9-2.62,1.96-3.73,3.16Z" style="fill: #000; stroke-width: 0px;"/>
    <path d="M34.6,87.25l-1.12-1.94c1.67-.87,3.46-1.53,5.34-1.95l.39,2.21c-1.62.37-3.16.94-4.61,1.69Z" style="fill: #000; stroke-width: 0px;"/>
    <path d="M25.39,97.19l-2.1-.76c.73-1.77,1.69-3.42,2.83-4.92l1.73,1.45c-.98,1.3-1.82,2.71-2.46,4.23Z" style="fill: #000; stroke-width: 0px;"/>
    <path d="M48.05,85.56l.39-2.21c1.88.42,3.67,1.08,5.34,1.95l-1.12,1.94c-1.44-.74-2.98-1.31-4.6-1.69Z" style="fill: #000; stroke-width: 0px;"/>
    <path d="M23.91,103.88h-2.26c.08-1.93.41-3.8.96-5.58l2.11.77c-.47,1.53-.73,3.15-.81,4.81Z" style="fill: #000; stroke-width: 0px;"/>
    <path d="M24.77,110.68l-2.1.76c-.57-1.79-.91-3.65-1.01-5.56h2.23c.09,1.65.39,3.25.87,4.8Z" style="fill: #000; stroke-width: 0px;"/>
    <path d="M27.91,116.76l-1.71,1.44c-1.15-1.5-2.11-3.14-2.84-4.88l2.1-.77c.64,1.5,1.46,2.91,2.45,4.2Z" style="fill: #000; stroke-width: 0px;"/>
    <path d="M59.4,92.95l1.73-1.45c1.14,1.5,2.1,3.15,2.83,4.92l-2.1.77c-.64-1.52-1.48-2.93-2.46-4.23Z" style="fill: #000; stroke-width: 0px;"/>
    <path d="M62.53,99.07l2.11-.77c.55,1.78.88,3.65.96,5.58h-2.26c-.08-1.66-.34-3.28-.81-4.81Z" style="fill: #000; stroke-width: 0px;"/>
    <path d="M63.35,105.88h2.23c-.09,1.91-.44,3.78-1.01,5.56l-2.1-.77c.48-1.54.79-3.15.88-4.8Z" style="fill: #000; stroke-width: 0px;"/>
    <path d="M61.79,112.56l2.11.77c-.73,1.74-1.69,3.38-2.84,4.88l-1.71-1.44c.99-1.3,1.81-2.71,2.45-4.2Z" style="fill: #000; stroke-width: 0px;"/>
    <path d="M32.93,121.4l-1.12,1.93c-1.61-1.03-3.05-2.24-4.32-3.62l1.71-1.44c1.1,1.18,2.34,2.23,3.72,3.12Z" style="fill: #000; stroke-width: 0px;"/>
    <path d="M58.04,118.28l1.71,1.44c-1.27,1.37-2.71,2.59-4.32,3.62l-1.12-1.93c1.38-.89,2.62-1.94,3.72-3.12Z" style="fill: #000; stroke-width: 0px;"/>
    <path d="M54.38,88.25l1.12-1.94c1.6,1.03,3.06,2.26,4.34,3.66l-1.73,1.45c-1.11-1.2-2.36-2.27-3.74-3.16Z" style="fill: #000; stroke-width: 0px;"/>
    <text transform="translate(86.65 133.74) scale(.88 1)" style="fill: #000; font-family: Verdana, Verdana; font-size: 12px;"><tspan x="0" y="0">D Curve</tspan></text>
    <path d="M108.12,85.05c-.83,0-1.65.07-2.45.17l-.39-2.21c.93-.12,1.88-.19,2.84-.19s1.91.07,2.84.19l-.39,2.21c-.81-.1-1.62-.17-2.45-.17Z" style="fill: #000; stroke-width: 0px;"/>
    <path d="M93.63,91.42l-1.73-1.45c1.28-1.4,2.74-2.63,4.34-3.66l1.12,1.94c-1.38.9-2.62,1.96-3.73,3.16Z" style="fill: #000; stroke-width: 0px;"/>
    <path d="M99.1,87.25l-1.12-1.94c1.67-.87,3.46-1.53,5.34-1.95l.39,2.21c-1.62.37-3.16.94-4.61,1.69Z" style="fill: #000; stroke-width: 0px;"/>
    <path d="M89.89,97.19l-2.1-.76c.73-1.77,1.69-3.42,2.83-4.92l1.73,1.45c-.98,1.3-1.82,2.71-2.46,4.23Z" style="fill: #000; stroke-width: 0px;"/>
    <path d="M112.55,85.56l.39-2.21c1.88.42,3.67,1.08,5.34,1.95l-1.12,1.94c-1.44-.74-2.98-1.31-4.6-1.69Z" style="fill: #000; stroke-width: 0px;"/>
    <path d="M88.41,103.88h-2.26c.08-1.93.41-3.8.96-5.58l2.11.77c-.47,1.53-.73,3.15-.81,4.81Z" style="fill: #000; stroke-width: 0px;"/>
    <path d="M89.27,110.68l-2.1.76c-.57-1.79-.91-3.65-1.01-5.56h2.23c.09,1.65.39,3.25.88,4.8Z" style="fill: #000; stroke-width: 0px;"/>
    <path d="M92.41,116.76l-1.71,1.44c-1.15-1.5-2.11-3.14-2.84-4.88l2.1-.77c.64,1.5,1.46,2.91,2.45,4.2Z" style="fill: #000; stroke-width: 0px;"/>
    <path d="M123.9,92.95l1.73-1.45c1.14,1.5,2.1,3.15,2.83,4.92l-2.1.77c-.64-1.52-1.48-2.93-2.46-4.23Z" style="fill: #000; stroke-width: 0px;"/>
    <path d="M127.03,99.07l2.11-.77c.55,1.78.88,3.65.96,5.58h-2.26c-.08-1.66-.34-3.28-.81-4.81Z" style="fill: #000; stroke-width: 0px;"/>
    <path d="M127.85,105.88h2.23c-.09,1.91-.44,3.78-1.01,5.56l-2.1-.77c.48-1.54.79-3.15.88-4.8Z" style="fill: #000; stroke-width: 0px;"/>
    <path d="M126.29,112.56l2.11.77c-.73,1.74-1.69,3.38-2.84,4.88l-1.71-1.44c.99-1.3,1.81-2.71,2.45-4.2Z" style="fill: #000; stroke-width: 0px;"/>
    <path d="M97.43,121.4l-1.12,1.93c-1.61-1.03-3.05-2.24-4.32-3.62l1.71-1.44c1.1,1.18,2.34,2.23,3.72,3.12Z" style="fill: #000; stroke-width: 0px;"/>
    <path d="M122.54,118.28l1.71,1.44c-1.27,1.37-2.71,2.59-4.32,3.62l-1.12-1.93c1.38-.89,2.62-1.94,3.72-3.12Z" style="fill: #000; stroke-width: 0px;"/>
    <path d="M118.88,88.25l1.12-1.94c1.6,1.03,3.06,2.26,4.34,3.66l-1.73,1.45c-1.11-1.2-2.36-2.27-3.74-3.16Z" style="fill: #000; stroke-width: 0px;"/>
    <text transform="translate(151.55 133.74) scale(.88 1)" style="fill: #000; font-family: Verdana, Verdana; font-size: 12px;"><tspan x="0" y="0">R Curve</tspan></text>
    <path d="M172.62,85.05c-.83,0-1.65.07-2.45.17l-.39-2.21c.93-.12,1.88-.19,2.84-.19s1.91.07,2.84.19l-.39,2.21c-.81-.1-1.62-.17-2.45-.17Z" style="fill: #000; stroke-width: 0px;"/>
    <path d="M158.13,91.42l-1.73-1.45c1.28-1.4,2.74-2.63,4.34-3.66l1.12,1.94c-1.38.9-2.62,1.96-3.73,3.16Z" style="fill: #000; stroke-width: 0px;"/>
    <path d="M163.6,87.25l-1.12-1.94c1.67-.87,3.46-1.53,5.34-1.95l.39,2.21c-1.62.37-3.16.94-4.61,1.69Z" style="fill: #000; stroke-width: 0px;"/>
    <path d="M154.39,97.19l-2.1-.76c.73-1.77,1.69-3.42,2.83-4.92l1.73,1.45c-.98,1.3-1.82,2.71-2.46,4.23Z" style="fill: #000; stroke-width: 0px;"/>
    <path d="M177.05,85.56l.39-2.21c1.88.42,3.67,1.08,5.34,1.95l-1.12,1.94c-1.44-.74-2.98-1.31-4.6-1.69Z" style="fill: #000; stroke-width: 0px;"/>
    <path d="M152.91,103.88h-2.26c.08-1.93.41-3.8.96-5.58l2.11.77c-.47,1.53-.73,3.15-.81,4.81Z" style="fill: #000; stroke-width: 0px;"/>
    <path d="M153.77,110.68l-2.1.76c-.57-1.79-.91-3.65-1.01-5.56h2.23c.09,1.65.39,3.25.88,4.8Z" style="fill: #000; stroke-width: 0px;"/>
    <path d="M156.91,116.76l-1.71,1.44c-1.15-1.5-2.11-3.14-2.84-4.88l2.1-.77c.64,1.5,1.46,2.91,2.45,4.2Z" style="fill: #000; stroke-width: 0px;"/>
    <path d="M188.4,92.95l1.73-1.45c1.14,1.5,2.1,3.15,2.83,4.92l-2.1.77c-.64-1.52-1.48-2.93-2.46-4.23Z" style="fill: #000; stroke-width: 0px;"/>
    <path d="M191.53,99.07l2.11-.77c.55,1.78.88,3.65.96,5.58h-2.26c-.08-1.66-.34-3.28-.81-4.81Z" style="fill: #000; stroke-width: 0px;"/>
    <path d="M192.35,105.88h2.23c-.09,1.91-.44,3.78-1.01,5.56l-2.1-.77c.48-1.54.79-3.15.88-4.8Z" style="fill: #000; stroke-width: 0px;"/>
    <path d="M190.79,112.56l2.11.77c-.73,1.74-1.69,3.38-2.84,4.88l-1.71-1.44c.99-1.3,1.81-2.71,2.45-4.2Z" style="fill: #000; stroke-width: 0px;"/>
    <path d="M161.93,121.4l-1.12,1.93c-1.61-1.03-3.05-2.24-4.32-3.62l1.71-1.44c1.1,1.18,2.34,2.23,3.72,3.12Z" style="fill: #000; stroke-width: 0px;"/>
    <path d="M187.04,118.28l1.71,1.44c-1.27,1.37-2.71,2.59-4.32,3.62l-1.12-1.93c1.38-.89,2.62-1.94,3.72-3.12Z" style="fill: #000; stroke-width: 0px;"/>
    <path d="M183.38,88.25l1.12-1.94c1.6,1.03,3.06,2.26,4.34,3.66l-1.73,1.45c-1.11-1.2-2.36-2.27-3.74-3.16Z" style="fill: #000; stroke-width: 0px;"/>
    <text transform="translate(57.9 356.95)" style="fill: #000; font-family: Verdana-Bold, Verdana; font-size: 14px; font-weight: 700;"><tspan x="0" y="0">COMPLEX EG</tspan></text>
    <text transform="translate(160.71 192.3) scale(.88 1)" style="fill: #000; font-family: Verdana, Verdana; font-size: 12px;"><tspan x="0" y="0">Hold</tspan></text>
    <path d="M172.62,143.6c-.83,0-1.65.07-2.45.17l-.39-2.21c.93-.12,1.88-.19,2.84-.19s1.91.07,2.84.19l-.39,2.21c-.81-.1-1.62-.17-2.45-.17Z" style="fill: #000; stroke-width: 0px;"/>
    <path d="M158.13,149.97l-1.73-1.45c1.28-1.4,2.74-2.63,4.34-3.66l1.12,1.94c-1.38.9-2.62,1.96-3.73,3.16Z" style="fill: #000; stroke-width: 0px;"/>
    <path d="M163.6,145.8l-1.12-1.94c1.67-.87,3.46-1.53,5.34-1.95l.39,2.21c-1.62.37-3.16.94-4.61,1.69Z" style="fill: #000; stroke-width: 0px;"/>
    <path d="M154.39,155.74l-2.1-.76c.73-1.77,1.69-3.42,2.83-4.92l1.73,1.45c-.98,1.3-1.82,2.71-2.46,4.23Z" style="fill: #000; stroke-width: 0px;"/>
    <path d="M177.05,144.12l.39-2.21c1.88.42,3.67,1.08,5.34,1.95l-1.12,1.94c-1.44-.74-2.98-1.31-4.6-1.69Z" style="fill: #000; stroke-width: 0px;"/>
    <path d="M152.91,162.43h-2.26c.08-1.93.41-3.8.96-5.58l2.11.77c-.47,1.53-.73,3.15-.81,4.81Z" style="fill: #000; stroke-width: 0px;"/>
    <path d="M153.77,169.23l-2.1.76c-.57-1.79-.91-3.65-1.01-5.56h2.23c.09,1.65.39,3.25.88,4.8Z" style="fill: #000; stroke-width: 0px;"/>
    <path d="M156.91,175.31l-1.71,1.44c-1.15-1.5-2.11-3.14-2.84-4.88l2.1-.77c.64,1.5,1.46,2.91,2.45,4.2Z" style="fill: #000; stroke-width: 0px;"/>
    <path d="M188.4,151.51l1.73-1.45c1.14,1.5,2.1,3.15,2.83,4.92l-2.1.77c-.64-1.52-1.48-2.93-2.46-4.23Z" style="fill: #000; stroke-width: 0px;"/>
    <path d="M191.53,157.62l2.11-.77c.55,1.78.88,3.65.96,5.58h-2.26c-.08-1.66-.34-3.28-.81-4.81Z" style="fill: #000; stroke-width: 0px;"/>
    <path d="M192.35,164.43h2.23c-.09,1.91-.44,3.78-1.01,5.56l-2.1-.77c.48-1.54.79-3.15.88-4.8Z" style="fill: #000; stroke-width: 0px;"/>
    <path d="M190.79,171.11l2.11.77c-.73,1.74-1.69,3.38-2.84,4.88l-1.71-1.44c.99-1.3,1.81-2.71,2.45-4.2Z" style="fill: #000; stroke-width: 0px;"/>
    <path d="M161.93,179.96l-1.12,1.93c-1.61-1.03-3.05-2.24-4.32-3.62l1.71-1.44c1.1,1.18,2.34,2.23,3.72,3.12Z" style="fill: #000; stroke-width: 0px;"/>
    <path d="M187.04,176.84l1.71,1.44c-1.27,1.37-2.71,2.59-4.32,3.62l-1.12-1.93c1.38-.89,2.62-1.94,3.72-3.12Z" style="fill: #000; stroke-width: 0px;"/>
    <path d="M183.38,146.81l1.12-1.94c1.6,1.03,3.06,2.26,4.34,3.66l-1.73,1.45c-1.11-1.2-2.36-2.27-3.74-3.16Z" style="fill: #000; stroke-width: 0px;"/>
    <line x1="108.12" y1="83.1" x2="108.12" y2="77.3" style="fill: none; stroke: #000; stroke-miterlimit: 10; stroke-width: 1.73px;"/>
    <line x1="172.62" y1="83.1" x2="172.62" y2="77.3" style="fill: none; stroke: #000; stroke-miterlimit: 10; stroke-width: 1.73px;"/>
    <line x1="43.62" y1="83.1" x2="43.62" y2="77.3" style="fill: none; stroke: #000; stroke-miterlimit: 10; stroke-width: 1.73px;"/>
    <path d="M31.44,340.66h129.33s23.6,0,23.6,0c7.49,0,13.57-7.04,13.57-15.71v-107.97l-.06-6.23c-.3-8.38-6.24-15.07-13.54-15.07H31.41c-7.3,0-13.25,6.69-13.54,15.07l-.06,6.23v46.63l.07,61.34" style="fill: #ededed; stroke: #000; stroke-miterlimit: 10;"/>
    <path d="M198.41,314.09v-24.72H36.05c-7.49,0-13.57,7.49-13.57,16.73v34.53l140.82.53h15.07s0,0,0,0h14.39c3.12,0,5.64-2.72,5.64-6.03v-21.12.09Z" style="fill: #000; stroke-width: 0px;"/>
    <path d="M17.81,315.73v-23.22h1.14s20.4,0,20.4,0c7.49,0,13.57,7.04,13.57,15.71v32.44s0,.5,0,.5h-15.07s0,0,0,0h-14.39c-3.12,0-5.64-2.55-5.64-5.67v-10.04s0-9.8,0-9.8v.08Z" style="fill: #000; stroke-width: 0px;"/>
    <text transform="translate(23.66 238.44) scale(.9 1)" style="fill: #000; font-family: Verdana-Bold, Verdana; font-size: 11px; font-weight: 700;"><tspan x="0" y="0">Gate</tspan></text>
    <text transform="translate(66.07 238.44) scale(.9 1)" style="fill: #000; font-family: Verdana-Bold, Verdana; font-size: 11px; font-weight: 700;"><tspan x="0" y="0">Attack</tspan></text>
    <text transform="translate(115.11 238.44) scale(.9 1)" style="fill: #000; font-family: Verdana-Bold, Verdana; font-size: 11px; font-weight: 700;"><tspan x="0" y="0">Decay</tspan></text>
    <text transform="translate(169.43 238.44) scale(.9 1)" style="fill: #000; font-family: Verdana-Bold, Verdana; font-size: 11px; font-weight: 700;"><tspan x="0" y="0">Rel.</tspan></text>
    <text transform="translate(25.46 334.73) scale(.9 1)" style="fill: #ededed; font-family: Verdana-Bold, Verdana; font-size: 11px; font-weight: 700;"><tspan x="0" y="0">Rel.</tspan></text>
    <text transform="translate(63.35 334.73) scale(.9 1)" style="fill: #ededed; font-family: Verdana-Bold, Verdana; font-size: 11px; font-weight: 700;"><tspan x="0" y="0">Sustain</tspan></text>
    <text transform="translate(119.41 334.73) scale(.9 1)" style="fill: #ededed; font-family: Verdana-Bold, Verdana; font-size: 11px; font-weight: 700;"><tspan x="0" y="0">Hold</tspan></text>
    <text transform="translate(170.12 334.73) scale(.9 1)" style="fill: #ededed; font-family: Verdana-Bold, Verdana; font-size: 11px; font-weight: 700;"><tspan x="0" y="0">Out</tspan></text>
    <path d="M17.85,324.03v10.96c0,3.12,2.55,5.67,5.67,5.67h12.93" style="fill: none; stroke: #000; stroke-miterlimit: 10;"/>
    <path d="M198.38,272.76v-23.22h-1.14s-20.4,0-20.4,0c-7.49,0-13.57,7.04-13.57,15.71v32.44s0,.5,0,.5h15.07s0,0,0,0h14.39c3.12,0,5.64-2.55,5.64-5.67v-10.04s0-9.8,0-9.8v.08Z" style="fill: #000; stroke-width: 0px;"/>
    <path d="M17.81,272.76v-23.22h1.14s20.4,0,20.4,0c7.49,0,13.57,7.04,13.57,15.71v32.44s0,.5,0,.5h-15.07s0,0,0,0h-14.39c-3.12,0-5.64-2.55-5.64-5.67v-10.04s0-9.8,0-9.8v.08Z" style="fill: #000; stroke-width: 0px;"/>
    <text transform="translate(25.96 287.48) scale(.9 1)" style="fill: #fff; font-family: Verdana-Bold, Verdana; font-size: 11px; font-weight: 700;"><tspan x="0" y="0">Att.</tspan></text>
    <text transform="translate(168.01 287.48) scale(.9 1)" style="fill: #fff; font-family: Verdana-Bold, Verdana; font-size: 11px; font-weight: 700;"><tspan x="0" y="0">Dec.</tspan></text>
    <text transform="translate(95.61 185.6) scale(.88 1)" style="fill: #000; font-family: Verdana, Verdana; font-size: 12px;"><tspan x="0" y="0">Loop</tspan></text>
    <rect x="52.82" y="249.99" width="110.49" height="42.52" rx="4" ry="4" style="fill: #ededed; stroke-width: 0px;"/>
    <text transform="translate(119.41 287.48) scale(.9 1)" style="fill: #000; font-family: Verdana-Bold, Verdana; font-size: 11px; font-weight: 700;"><tspan x="0" y="0">Hold</tspan></text>
    <text transform="translate(63.35 287.48) scale(.9 1)" style="fill: #000; font-family: Verdana-Bold, Verdana; font-size: 11px; font-weight: 700;"><tspan x="0" y="0">Sustain</tspan></text>
    <g>
      <path d="M100.03,19.16c-.37,0-.71-.17-.97-.47-.51-.6-.52-1.54-.04-2.16l6.97-8.88c.38-.48,1.05-.65,1.57-.39.5.25.79.82.79,1.45v4.77l4.64-5.85c.38-.48,1.01-.64,1.53-.38.5.25.83.81.83,1.44v8.82c0,.86-.61,1.57-1.36,1.57s-1.36-.7-1.36-1.57v-4.79l-4.64,5.85c-.38.48-1.01.64-1.54.38-.5-.24-.83-.81-.83-1.44v-4.67l-4.61,5.8c-.26.32-.62.51-1,.51h0Z" style="fill: #2cabe1; stroke-width: 0px;"/>
      <path d="M100.03,19.16c-.75,0-1.35-.7-1.35-1.57v-4.93l-2.26,2.84c-.5.63-1.44.65-1.97.04-.51-.6-.52-1.53-.03-2.15l4.61-5.76c.26-.32.63-.5,1-.5.18,0,.37.04.54.12.5.25.82.81.82,1.44v8.89c0,.86-.61,1.57-1.36,1.57h0Z" style="fill: #ea2228; stroke-width: 0px;"/>
      <path d="M116.63,19.18h0c-.35,0-.68-.15-.94-.42-.76-.78-.14-1.84.29-2.3l1.95-2.36-1.26-.02c-.56-.01-1.04-.4-1.24-1-.19-.56-.07-1.21.29-1.64l3.16-3.83c.23-.28.55-.48,1.13-.47.33,0,.67.17.92.4.71.66.29,1.7-.07,2.2l-1.04,1.26,1.26.02c.56.01,1.04.4,1.24,1,.19.56.07,1.21-.29,1.64l-4.1,4.97c-.35.35-.65.55-1.3.54h0Z" style="fill: #00a650; stroke-width: 0px;"/>
    </g>
  </g>
  <g id="components">
    <circle id="Out" cx="179.96" cy="309.84" r="11.34" style="fill: blue; stroke-width: 0px;"/>
    <circle id="Hold_Out" data-name="Hold Out" cx="131.96" cy="309.84" r="11.34" style="fill: blue; stroke-width: 0px;"/>
    <circle id="Sustain_Out" data-name="Sustain Out" cx="83.96" cy="309.84" r="11.34" style="fill: blue; stroke-width: 0px;"/>
    <circle id="Release_Out" data-name="Release Out" cx="36.45" cy="309.84" r="11.34" style="fill: blue; stroke-width: 0px;"/>
    <circle id="Decay_Out" data-name="Decay Out" cx="179.96" cy="265.71" r="11.34" style="fill: blue; stroke-width: 0px;"/>
    <circle id="Hold_CV" data-name="Hold CV" cx="131.96" cy="265.71" r="11.34" style="fill: lime; stroke-width: 0px;"/>
    <circle id="Sustain_CV" data-name="Sustain CV" cx="83.96" cy="265.71" r="11.34" style="fill: lime; stroke-width: 0px;"/>
    <circle id="Attack_Out" data-name="Attack Out" cx="36.45" cy="265.71" r="11.34" style="fill: blue; stroke-width: 0px;"/>
    <circle id="Release_CV" data-name="Release CV" cx="179.96" cy="214.13" r="11.34" style="fill: lime; stroke-width: 0px;"/>
    <circle id="Decay_CV" data-name="Decay CV" cx="131.96" cy="214.13" r="11.34" style="fill: lime; stroke-width: 0px;"/>
    <circle id="Attack_CV" data-name="Attack CV" cx="83.96" cy="214.13" r="11.34" style="fill: lime; stroke-width: 0px;"/>
    <circle id="Input" cx="36.45" cy="214.13" r="11.34" style="fill: lime; stroke-width: 0px;"/>
    <circle id="Hold" cx="172.52" cy="163.23" r="17.01" style="fill: #ff0040; stroke-width: 0px;"/>
    <circle id="Loop" cx="108.12" cy="159.77" r="10.63" style="fill: #ff8000; stroke-width: 0px;"/>
    <circle id="Sustain" cx="43.62" cy="163.28" r="17.01" style="fill: #ff0060; stroke-width: 0px;"/>
    <circle id="R_Curve" data-name="R Curve" cx="172.62" cy="104.51" r="17.01" style="fill: #ff0040; stroke-width: 0px;"/>
    <circle id="D_Curve" data-name="D Curve" cx="108.12" cy="104.51" r="17.01" style="fill: #ff0040; stroke-width: 0px;"/>
    <circle id="A_Curve" data-name="A Curve" cx="43.62" cy="104.51" r="17.01" style="fill: #ff0040; stroke-width: 0px;"/>
    <circle id="Release" cx="172.62" cy="45.53" r="17.01" style="fill: #ff0030; stroke-width: 0px;"/>
    <circle id="Decay" cx="108.12" cy="45.53" r="17.01" style="fill: #ff0020; stroke-width: 0px;"/>
    <circle id="Attack" cx="43.62" cy="46.2" r="17.01" style="fill: #ff0020; stroke-width: 0px;"/>
    <text id="slug" transform="translate(154.76 359.59)" style="fill: #000; font-family: MyriadPro-Regular, &apos;Myriad Pro&apos;; font-size: 3px;"><tspan x="0" y="0" style="letter-spacing: -.01em;">C</tspan><tspan x="1.71" y="0" style="letter-spacing: 0em;">ompl</tspan><tspan x="8.27" y="0" style="letter-spacing: 0em;">e</tspan><tspan x="9.76" y="0" style="letter-spacing: 0em;">xEG</tspan></text>
    <text id="modulename" transform="translate(175.92 359.59)" style="fill: #000; font-family: MyriadPro-Regular, &apos;Myriad Pro&apos;; font-size: 3px;"><tspan x="0" y="0" style="letter-spacing: -.01em;">C</tspan><tspan x="1.71" y="0" style="letter-spacing: 0em;">ompl</tspan><tspan x="8.27" y="0" style="letter-spacing: 0em;">e</tspan><tspan x="9.76" y="0" style="letter-spacing: 0em;">x E</tspan><tspan x="13.27" y="0" style="letter-spacing: -.01em;">n</tspan><tspan x="14.89" y="0" style="letter-spacing: -.01em;">v</tspan><tspan x="16.3" y="0">elope </tspan><tspan x="24.01" y="0" style="letter-spacing: 0em;">G</tspan><tspan x="25.96" y="0">ene</tspan><tspan x="30.63" y="0" style="letter-spacing: 0em;">rat</tspan><tspan x="34.01" y="0" style="letter-spacing: 0em;">or</tspan></text>
  </g>
</svg>