<?xml version="1.0" encoding="UTF-8" standalone="no"?>
<svg
   width="40.73mm"
   height="128.59mm"
   viewBox="0 0 115.45 364.5"
   version="1.1"
   id="svg52"
   sodipodi:docname="LPG.svg"
   inkscape:version="1.3.2 (091e20e, 2023-11-25)"
   xmlns:inkscape="http://www.inkscape.org/namespaces/inkscape"
   xmlns:sodipodi="http://sodipodi.sourceforge.net/DTD/sodipodi-0.dtd"
   xmlns="http://www.w3.org/2000/svg"
   xmlns:svg="http://www.w3.org/2000/svg">
  <defs
     id="defs52" />
  <sodipodi:namedview
     id="namedview52"
     pagecolor="#ffffff"
     bordercolor="#666666"
     borderopacity="1.0"
     inkscape:showpageshadow="2"
     inkscape:pageopacity="0.0"
     inkscape:pagecheckerboard="0"
     inkscape:deskcolor="#d1d1d1"
     inkscape:document-units="mm"
     showgrid="false"
     inkscape:zoom="1.4712429"
     inkscape:cx="72.727624"
     inkscape:cy="212.06559"
     inkscape:window-width="2512"
     inkscape:window-height="1387"
     inkscape:window-x="50"
     inkscape:window-y="25"
     inkscape:window-maximized="1"
     inkscape:current-layer="faceplate" />
  <g
     id="faceplate">
    <rect
       x=".12"
       y=".12"
       width="115.2"
       height="364.25"
       style="fill: #ededed; stroke: #9d9d9e; stroke-miterlimit: 10; stroke-width: .25px;"
       id="rect1" />
    <g
       id="g4">
      <path
         d="M102.32,320.58v-22.47h-22.49c-7.82,0-14.17,6.81-14.17,15.21v31.87h15.74s0,0,0,0h15.03c3.26,0,5.89-2.47,5.89-5.49v-19.2.08Z"
         style="stroke-width: 0px;"
         id="path1" />
      <g
         id="g3">
        <path
           d="M27.03,344.68h36.75s24.17,0,24.17,0c7.67,0,13.9-7.33,13.9-16.36v-29.67l.29-66.27-.06-6.94c-.3-8.72-6.39-15.68-13.87-15.68H27.28c-7.48,0-13.57,6.97-13.87,15.68l-.06,6.94v-3.05l-.22,98.99"
           style="fill: none; stroke: #000; stroke-miterlimit: 10; stroke-width: 1.04px;"
           id="path2" />
        <path
           d="M13.13,327.32v11.44c0,3.26,2.66,5.92,5.92,5.92h13.5"
           style="fill: none; stroke: #231f20; stroke-miterlimit: 10; stroke-width: 1.04px;"
           id="path3" />
      </g>
    </g>
    <text
       style="font-style:normal;font-variant:normal;font-weight:normal;font-stretch:normal;font-size:13.4997px;font-family:Verdana, Verdana;-inkscape-font-specification:'Verdana, Verdana, Normal';font-variant-ligatures:normal;font-variant-caps:normal;font-variant-numeric:normal;font-variant-east-asian:normal"
       id="text4"
       x="44.485634"
       y="357.47"><tspan
         x="44.485634"
         y="357.47"
         id="tspan4"
         style="font-style:normal;font-variant:normal;font-weight:normal;font-stretch:normal;font-size:13.4997px;font-family:Verdana, Verdana;-inkscape-font-specification:'Verdana, Verdana, Normal';font-variant-ligatures:normal;font-variant-caps:normal;font-variant-numeric:normal;font-variant-east-asian:normal">LPG</tspan></text>
    <text
       style="font-style:normal;font-variant:normal;font-weight:normal;font-stretch:normal;font-size:11.99976717px;font-family:Verdana, Verdana;-inkscape-font-specification:'Verdana, Verdana, Normal';font-variant-ligatures:normal;font-variant-caps:normal;font-variant-numeric:normal;font-variant-east-asian:normal"
       id="text5"
       x="67.487732"
       y="295.01999"><tspan
         x="67.487732"
         y="295.01999"
         id="tspan5"
         style="font-style:normal;font-variant:normal;font-weight:normal;font-stretch:normal;font-size:11.99976717px;font-family:Verdana, Verdana;-inkscape-font-specification:'Verdana, Verdana, Normal';font-variant-ligatures:normal;font-variant-caps:normal;font-variant-numeric:normal;font-variant-east-asian:normal">Color</tspan></text>
    <text
       style="font-style:normal;font-variant:normal;font-weight:bold;font-stretch:normal;font-size:11.9998px;font-family:Verdana, Verdana;-inkscape-font-specification:'Verdana, Verdana, Bold';font-variant-ligatures:normal;font-variant-caps:normal;font-variant-numeric:normal;font-variant-east-asian:normal;fill:#ffffff"
       id="text6"
       x="72.563416"
       y="337.20999"><tspan
         x="72.563416"
         y="337.20999"
         id="tspan6"
         style="font-style:normal;font-variant:normal;font-weight:bold;font-stretch:normal;font-size:11.99976717px;font-family:Verdana, Verdana;-inkscape-font-specification:'Verdana, Verdana, Bold';font-variant-ligatures:normal;font-variant-caps:normal;font-variant-numeric:normal;font-variant-east-asian:normal">Out</tspan></text>
    <text
       style="font-style:normal;font-variant:normal;font-weight:normal;font-stretch:normal;font-size:11.99976717px;font-family:Verdana, Verdana;-inkscape-font-specification:'Verdana, Verdana, Normal';font-variant-ligatures:normal;font-variant-caps:normal;font-variant-numeric:normal;font-variant-east-asian:normal"
       id="text7"
       x="18.149824"
       y="295.01999"><tspan
         x="18.149824"
         y="295.01999"
         id="tspan7"
         style="font-style:normal;font-variant:normal;font-weight:normal;font-stretch:normal;font-size:11.99976717px;font-family:Verdana, Verdana;-inkscape-font-specification:'Verdana, Verdana, Normal';font-variant-ligatures:normal;font-variant-caps:normal;font-variant-numeric:normal;font-variant-east-asian:normal">Level</tspan></text>
    <text
       style="font-style:normal;font-variant:normal;font-weight:normal;font-stretch:normal;font-size:11.99976717px;font-family:Verdana, Verdana;-inkscape-font-specification:'Verdana, Verdana, Normal';font-variant-ligatures:normal;font-variant-caps:normal;font-variant-numeric:normal;font-variant-east-asian:normal"
       id="text8"
       x="17.067549"
       y="253.41"><tspan
         x="17.067549"
         y="253.41"
         id="tspan8"
         style="font-style:normal;font-variant:normal;font-weight:normal;font-stretch:normal;font-size:11.99976717px;font-family:Verdana, Verdana;-inkscape-font-specification:'Verdana, Verdana, Normal';font-variant-ligatures:normal;font-variant-caps:normal;font-variant-numeric:normal;font-variant-east-asian:normal">Input</tspan></text>
    <text
       style="font-style:normal;font-variant:normal;font-weight:normal;font-stretch:normal;font-size:11.99976717px;font-family:Verdana, Verdana;-inkscape-font-specification:'Verdana, Verdana, Normal';font-variant-ligatures:normal;font-variant-caps:normal;font-variant-numeric:normal;font-variant-east-asian:normal"
       id="text9"
       x="70.090027"
       y="253.41"><tspan
         x="70.090027"
         y="253.41"
         id="tspan9"
         style="font-style:normal;font-variant:normal;font-weight:normal;font-stretch:normal;font-size:11.99976717px;font-family:Verdana, Verdana;-inkscape-font-specification:'Verdana, Verdana, Normal';font-variant-ligatures:normal;font-variant-caps:normal;font-variant-numeric:normal;font-variant-east-asian:normal">Ping</tspan></text>
    <text
       transform="translate(15.33 337.21)"
       style="font-family:Verdana, Verdana;font-size:11.99976717px;-inkscape-font-specification:'Verdana, Verdana, Normal';font-weight:normal;font-style:normal;font-stretch:normal;font-variant:normal;font-variant-ligatures:normal;font-variant-caps:normal;font-variant-numeric:normal;font-variant-east-asian:normal"
       id="text10"><tspan
         x="0"
         y="0"
         id="tspan10"
         style="-inkscape-font-specification:'Verdana, Verdana, Normal';font-family:Verdana, Verdana;font-weight:normal;font-style:normal;font-stretch:normal;font-variant:normal;font-size:11.99976717px;font-variant-ligatures:normal;font-variant-caps:normal;font-variant-numeric:normal;font-variant-east-asian:normal">Decay</tspan></text>
    <text
       style="font-style:normal;font-variant:normal;font-weight:normal;font-stretch:normal;font-size:13.4997px;font-family:Verdana, Verdana;-inkscape-font-specification:'Verdana, Verdana, Normal';font-variant-ligatures:normal;font-variant-caps:normal;font-variant-numeric:normal;font-variant-east-asian:normal"
       id="text11"
       x="39.680305"
       y="142.31"><tspan
         x="39.680305"
         y="142.31"
         id="tspan11"
         style="font-style:normal;font-variant:normal;font-weight:normal;font-stretch:normal;font-size:13.4997px;font-family:Verdana, Verdana;-inkscape-font-specification:'Verdana, Verdana, Normal';font-variant-ligatures:normal;font-variant-caps:normal;font-variant-numeric:normal;font-variant-east-asian:normal">Color</tspan></text>
    <g
       id="g20">
      <path
         d="M66.94,94.54l1.13-1.95c-2.75-1.43-5.84-2.3-9.12-2.44v2.26c2.87.14,5.57.89,7.99,2.14Z"
         style="stroke-width: 0px;"
         id="path11" />
      <path
         d="M74.52,101.39l1.95-1.13c-1.72-2.68-4-4.96-6.68-6.68l-1.13,1.95c2.34,1.52,4.33,3.51,5.85,5.85Z"
         style="stroke-width: 0px;"
         id="path12" />
      <path
         d="M47.21,95.54l-1.13-1.95c-2.68,1.72-4.96,4-6.68,6.68l1.95,1.13c1.52-2.34,3.51-4.33,5.85-5.85Z"
         style="stroke-width: 0px;"
         id="path13" />
      <path
         d="M77.66,111.12h2.26c-.15-3.28-1.01-6.37-2.44-9.12l-1.95,1.13c1.24,2.42,1.99,5.13,2.14,8Z"
         style="stroke-width: 0px;"
         id="path14" />
      <path
         d="M56.94,92.4v-2.26c-3.28.15-6.37,1.01-9.12,2.44l1.13,1.95c2.42-1.24,5.13-1.99,8-2.14Z"
         style="stroke-width: 0px;"
         id="path15" />
      <path
         d="M41.36,122.85l-1.95,1.13c1.72,2.68,4,4.96,6.68,6.68l1.13-1.95c-2.34-1.52-4.33-3.51-5.85-5.85Z"
         style="stroke-width: 0px;"
         id="path16" />
      <path
         d="M68.67,128.7l1.13,1.95c2.68-1.72,4.96-4,6.68-6.68l-1.95-1.13c-1.52,2.34-3.51,4.33-5.85,5.85Z"
         style="stroke-width: 0px;"
         id="path17" />
      <path
         d="M77.66,113.12c-.14,2.87-.89,5.57-2.14,8l1.95,1.13c1.43-2.75,2.3-5.84,2.44-9.12h-2.26Z"
         style="stroke-width: 0px;"
         id="path18" />
      <path
         d="M38.22,113.12h-2.26c.15,3.28,1.01,6.37,2.44,9.12l1.95-1.13c-1.24-2.42-1.99-5.13-2.14-8Z"
         style="stroke-width: 0px;"
         id="path19" />
      <path
         d="M40.36,103.12l-1.95-1.13c-1.43,2.75-2.3,5.84-2.44,9.12h2.26c.14-2.87.89-5.57,2.14-8Z"
         style="stroke-width: 0px;"
         id="path20" />
    </g>
    <text
       style="font-style:normal;font-variant:normal;font-weight:normal;font-stretch:normal;font-size:13.4997px;font-family:Verdana, Verdana;-inkscape-font-specification:'Verdana, Verdana, Normal';font-variant-ligatures:normal;font-variant-caps:normal;font-variant-numeric:normal;font-variant-east-asian:normal"
       id="text20"
       x="36.532787"
       y="203.66"><tspan
         x="36.532787"
         y="203.66"
         id="tspan20"
         style="font-style:normal;font-variant:normal;font-weight:normal;font-stretch:normal;font-size:13.4997px;font-family:Verdana, Verdana;-inkscape-font-specification:'Verdana, Verdana, Normal';font-variant-ligatures:normal;font-variant-caps:normal;font-variant-numeric:normal;font-variant-east-asian:normal">Decay</tspan></text>
    <g
       id="g30">
      <path
         d="M66.94,155.89l1.13-1.95c-2.75-1.43-5.84-2.3-9.12-2.44v2.26c2.87.14,5.57.89,7.99,2.14Z"
         style="stroke-width: 0px;"
         id="path21" />
      <path
         d="M74.52,162.74l1.95-1.13c-1.72-2.68-4-4.96-6.68-6.68l-1.13,1.95c2.34,1.52,4.33,3.51,5.85,5.85Z"
         style="stroke-width: 0px;"
         id="path22" />
      <path
         d="M47.21,156.89l-1.13-1.95c-2.68,1.72-4.96,4-6.68,6.68l1.95,1.13c1.52-2.34,3.51-4.33,5.85-5.85Z"
         style="stroke-width: 0px;"
         id="path23" />
      <path
         d="M77.66,172.47h2.26c-.15-3.28-1.01-6.37-2.44-9.12l-1.95,1.13c1.24,2.42,1.99,5.13,2.14,8Z"
         style="stroke-width: 0px;"
         id="path24" />
      <path
         d="M56.94,153.75v-2.26c-3.28.15-6.37,1.01-9.12,2.44l1.13,1.95c2.42-1.24,5.13-1.99,8-2.14Z"
         style="stroke-width: 0px;"
         id="path25" />
      <path
         d="M41.36,184.2l-1.95,1.13c1.72,2.68,4,4.96,6.68,6.68l1.13-1.95c-2.34-1.52-4.33-3.51-5.85-5.85Z"
         style="stroke-width: 0px;"
         id="path26" />
      <path
         d="M68.67,190.05l1.13,1.95c2.68-1.72,4.96-4,6.68-6.68l-1.95-1.13c-1.52,2.34-3.51,4.33-5.85,5.85Z"
         style="stroke-width: 0px;"
         id="path27" />
      <path
         d="M77.66,174.47c-.14,2.87-.89,5.57-2.14,8l1.95,1.13c1.43-2.75,2.3-5.84,2.44-9.12h-2.26Z"
         style="stroke-width: 0px;"
         id="path28" />
      <path
         d="M38.22,174.47h-2.26c.15,3.28,1.01,6.37,2.44,9.12l1.95-1.13c-1.24-2.42-1.99-5.13-2.14-8Z"
         style="stroke-width: 0px;"
         id="path29" />
      <path
         d="M40.36,164.48l-1.95-1.13c-1.43,2.75-2.3,5.84-2.44,9.12h2.26c.14-2.87.89-5.57,2.14-8Z"
         style="stroke-width: 0px;"
         id="path30" />
    </g>
    <g
       id="g33">
      <path
         d="M63.34,8.16s-3.5,4.44-5.53,7.03v-6.03c0-.52-.25-.98-.64-1.18-.39-.19-.84-.08-1.13.29l-7.28,9.25c-.4.5-.38,1.3.03,1.79.41.48,1.06.47,1.46-.03,0,0,3.47-4.41,5.5-6.99v6.03c0,.52.26.98.65,1.17.39.19.84.08,1.13-.29,0,0,3.49-4.44,5.53-7.03v6.15c0,.7.46,1.27,1.03,1.27s1.03-.57,1.03-1.27v-9.29c0-.52-.26-.98-.65-1.17-.39-.19-.84-.08-1.13.3Z"
         style="stroke:#2cabe1;stroke-width:0.6px;fill:#2cabe1;fill-opacity:1;fill-rule:nonzero;stroke-opacity:1"
         id="path31" />
      <path
         d="M48.76,8.09l-4.82,6.13c-.4.5-.38,1.3.02,1.79.41.48,1.06.47,1.46-.03,0,0,1.62-2.07,3.05-3.87v6.31c0,.7.46,1.27,1.03,1.27s1.03-.57,1.03-1.27v-9.44c0-.52-.26-.98-.65-1.17-.39-.19-.84-.08-1.13.3Z"
         style="stroke:#ea2228;stroke-width:0.6px;fill:#ea2228;fill-opacity:1;stroke-opacity:1"
         id="path32" />
      <path
         d="M71.71,12.61c-.16-.47-.53-.77-.95-.77h-2.11l1.54-1.95s.8-1.17.09-1.82c-.7-.64-1.58.06-1.58.06l-3.22,4.1c-.29.37-.37.91-.21,1.37.16.47.54.77.95.77h2.11l-2.5,3.17s-1.03,1.13-.27,1.89c.76.76,1.76-.14,1.76-.14l4.18-5.32c.29-.36.37-.91.21-1.37Z"
         style="stroke:#00a650;stroke-width:0.6px;stroke-opacity:1;fill:#00a650;fill-opacity:1"
         id="path33" />
    </g>
    <text
       style="font-style:normal;font-variant:normal;font-weight:normal;font-stretch:normal;font-size:13.4997px;font-family:Verdana, Verdana;-inkscape-font-specification:'Verdana, Verdana, Normal';font-variant-ligatures:normal;font-variant-caps:normal;font-variant-numeric:normal;font-variant-east-asian:normal"
       id="text33"
       x="40.095581"
       y="80.879997"><tspan
         x="40.095581"
         y="80.879997"
         id="tspan33"
         style="font-style:normal;font-variant:normal;font-weight:normal;font-stretch:normal;font-size:13.4997px;font-family:Verdana, Verdana;-inkscape-font-specification:'Verdana, Verdana, Normal';font-variant-ligatures:normal;font-variant-caps:normal;font-variant-numeric:normal;font-variant-east-asian:normal">Level</tspan></text>
    <path
       d="M66.72,33.03l1.13-1.95c-2.75-1.43-5.84-2.3-9.12-2.44v2.26c2.87.14,5.57.89,7.99,2.14Z"
       style="stroke-width: 0px;"
       id="path34" />
    <path
       d="M74.3,39.88l1.95-1.13c-1.72-2.68-4-4.96-6.68-6.68l-1.13,1.95c2.34,1.52,4.33,3.51,5.85,5.85Z"
       style="stroke-width: 0px;"
       id="path35" />
    <path
       d="M47,34.03l-1.13-1.95c-2.68,1.72-4.96,4-6.68,6.68l1.95,1.13c1.52-2.34,3.51-4.33,5.85-5.85Z"
       style="stroke-width: 0px;"
       id="path36" />
    <path
       d="M77.44,49.61h2.26c-.15-3.28-1.01-6.37-2.44-9.12l-1.95,1.13c1.24,2.42,1.99,5.13,2.14,8Z"
       style="stroke-width: 0px;"
       id="path37" />
    <path
       d="M56.73,30.89v-2.26c-3.28.15-6.37,1.01-9.12,2.44l1.13,1.95c2.42-1.24,5.13-1.99,8-2.14Z"
       style="stroke-width: 0px;"
       id="path38" />
    <path
       d="M41.14,61.34l-1.95,1.13c1.72,2.68,4,4.96,6.68,6.68l1.13-1.95c-2.34-1.52-4.33-3.51-5.85-5.85Z"
       style="stroke-width: 0px;"
       id="path39" />
    <path
       d="M68.45,67.19l1.13,1.95c2.68-1.72,4.96-4,6.68-6.68l-1.95-1.13c-1.52,2.34-3.51,4.33-5.85,5.85Z"
       style="stroke-width: 0px;"
       id="path40" />
    <path
       d="M77.44,51.61c-.14,2.87-.89,5.57-2.14,8l1.95,1.13c1.43-2.75,2.3-5.84,2.44-9.12h-2.26Z"
       style="stroke-width: 0px;"
       id="path41" />
    <path
       d="M38.01,51.61h-2.26c.15,3.28,1.01,6.37,2.44,9.12l1.95-1.13c-1.24-2.42-1.99-5.13-2.14-8Z"
       style="stroke-width: 0px;"
       id="path42" />
    <path
       d="M40.14,41.61l-1.95-1.13c-1.43,2.75-2.3,5.84-2.44,9.12h2.26c.14-2.87.89-5.57,2.14-8Z"
       style="stroke-width: 0px;"
       id="path43" />
  </g>
  <g
     id="components"
     style="display:none">
    <circle
       id="Out"
       cx="83.32"
       cy="313.70001"
       r="11.34"
       style="fill:#0000ff;stroke-width:0px" />
    <circle
       id="Decay_CV"
       data-name="Decay CV"
       cx="32.130001"
       cy="313.70001"
       r="11.34"
       style="fill:#00ff00;stroke-width:0px" />
    <circle
       id="Color_CV"
       data-name="Color CV"
       cx="83.32"
       cy="272.09"
       r="11.34"
       style="fill:#00ff00;stroke-width:0px" />
    <circle
       id="Level_CV"
       data-name="Level CV"
       cx="32.130001"
       cy="272.09"
       r="11.34"
       style="fill:#00ff00;stroke-width:0px" />
    <circle
       id="Ping"
       cx="83.32"
       cy="230.48"
       r="11.34"
       style="fill:#80ff80;stroke-width:0px" />
    <circle
       id="Input"
       cx="32.130001"
       cy="230.48"
       r="11.34"
       style="fill:#00ff00;stroke-width:0px" />
    <circle
       id="Decay"
       cx="57.939999"
       cy="173.17999"
       r="17.01"
       style="fill:#ff0070;stroke-width:0px" />
    <circle
       id="Color"
       cx="57.939999"
       cy="111.82"
       r="17.01"
       style="fill:#ff0070;stroke-width:0px" />
    <circle
       id="Level"
       cx="57.939999"
       cy="50.470001"
       r="17.01"
       style="fill:#ff0070;stroke-width:0px" />
    <text
       id="slug"
       transform="translate(75.14,361.62)"
       style="font-size:3px;font-family:MyriadPro-Regular, 'Myriad Pro'"><tspan
         x="0"
         y="0"
         id="tspan43">LPG</tspan></text>
    <text
       id="modulename"
       transform="translate(88.46,361.62)"
       style="font-size:3px;font-family:MyriadPro-Regular, 'Myriad Pro'"><tspan
         x="0"
         y="0"
         style="letter-spacing:-0.01em"
         id="tspan44">L</tspan><tspan
         x="1.37"
         y="0"
         style="letter-spacing:0em"
         id="tspan45">o</tspan><tspan
         x="3"
         y="0"
         id="tspan46">w</tspan><tspan
         x="5.8400002"
         y="0"
         style="letter-spacing:-0.03em"
         id="tspan47">P</tspan><tspan
         x="7.3600001"
         y="0"
         style="letter-spacing:0em"
         id="tspan48">ass</tspan><tspan
         x="11.82"
         y="0"
         style="letter-spacing:0em"
         id="tspan49">G</tspan><tspan
         x="13.78"
         y="0"
         style="letter-spacing:0em"
         id="tspan50">a</tspan><tspan
         x="15.22"
         y="0"
         style="letter-spacing:0em"
         id="tspan51">t</tspan><tspan
         x="16.190001"
         y="0"
         style="letter-spacing:0em"
         id="tspan52">e</tspan></text>
  </g>
</svg>
