<svg id="Layer_1" data-name="Layer 1" xmlns="http://www.w3.org/2000/svg" width="6.39mm" height="6.39mm" viewBox="0 0 18.1 18.1">
  <polygon points="17.85 9.05 17.25 9.75 17.65 10.55 16.95 11.15 17.35 12.05 16.45 12.55 16.65 13.45 15.75 13.75 15.75 14.65 14.85 14.85 14.65 15.75 13.75 15.75 13.45 16.65 12.55 16.45 12.05 17.35 11.15 16.95 10.55 17.65 9.75 17.25 9.05 17.85 8.35 17.25 7.55 17.65 6.95 16.95 6.05 17.35 5.55 16.45 4.65 16.65 4.35 15.75 3.35 15.75 3.25 14.85 2.25 14.65 2.25 13.75 1.45 13.45 1.55 12.55 0.75 12.05 1.05 11.15 0.35 10.55 0.85 9.75 0.25 9.05 0.85 8.35 0.35 7.55 1.05 6.95 0.75 6.05 1.55 5.55 1.45 4.65 2.25 4.35 2.35 3.35 3.25 3.25 3.35 2.25 4.35 2.25 4.65 1.45 5.55 1.55 6.05 0.75 6.95 1.05 7.55 0.35 8.35 0.85 9.05 0.25 9.75 0.85 10.55 0.35 11.15 1.05 12.05 0.75 12.55 1.55 13.45 1.45 13.75 2.25 14.65 2.35 14.85 3.25 15.75 3.35 15.75 4.35 16.65 4.65 16.45 5.55 17.35 6.05 16.95 6.95 17.65 7.55 17.25 8.35 17.85 9.05" style="stroke: #ededed;stroke-linecap: round;stroke-linejoin: round;stroke-width: 0.5px"/>
  <line x1="9.05" y1="4.15" x2="9.05" y2="1.15" style="fill: none;stroke: #fff;stroke-linejoin: round"/>
</svg>
