<svg id="Layer_1" data-name="Layer 1" xmlns="http://www.w3.org/2000/svg" width="21.2mm" height="21.2mm" viewBox="0 0 60.1 60.1">
  <path id="path6445" d="M59.8,30A29.8,29.8,0,1,1,30,.2h0A29.81,29.81,0,0,1,59.8,30" transform="translate(0.05 0.05)" style="stroke: #ededed;stroke-miterlimit: 10;stroke-width: 0.5px"/>
  <path id="path6449" d="M56.8,27.5c-1.2-1.9-3.2-3.8-4.3-6.5s-1-5.4-1.5-7.6a26.49,26.49,0,0,0-4.1-4.1c-2.2-.5-4.9-.4-7.6-1.6s-4.6-3.1-6.5-4.3a27.15,27.15,0,0,0-5.7,0c-1.9,1.2-3.8,3.2-6.5,4.3s-5.4,1-7.6,1.6a26.49,26.49,0,0,0-4.1,4.1c-.5,2.2-.4,4.9-1.6,7.6S4.2,25.6,3,27.5a27.15,27.15,0,0,0,0,5.7c1.2,1.9,3.2,3.8,4.3,6.5s1,5.4,1.6,7.6A26.49,26.49,0,0,0,13,51.4c2.2.5,4.9.4,7.6,1.5s4.6,3.1,6.5,4.3a27.15,27.15,0,0,0,5.7,0c1.9-1.2,3.8-3.2,6.5-4.3s5.4-1,7.6-1.5A26.49,26.49,0,0,0,51,47.3c.5-2.2.4-4.9,1.5-7.6s3.1-4.6,4.3-6.5a27.13,27.13,0,0,0,0-5.7" transform="translate(0.05 0.05)" style="stroke: #fff;stroke-miterlimit: 10;stroke-width: 0.5px;fill-rule: evenodd"/>
  <path id="path6453" d="M31,4.3a5.44,5.44,0,0,0-1.8,0V31.5H31Z" transform="translate(0.05 0.05)" style="fill: #fff;fill-rule: evenodd"/>
  <circle cx="30.15" cy="1.75" r="1" style="fill: #fff"/>
</svg>
