<svg id="Layer_1" data-name="Layer 1" xmlns="http://www.w3.org/2000/svg" width="12.91mm" height="12.91mm" viewBox="0 0 36.6 36.6">
  <path id="path6449" d="M36.2,16.4c-.8-1.3-2.2-2.5-2.9-4.4a28.46,28.46,0,0,1-1-5.1,17.24,17.24,0,0,0-2.7-2.7,26.88,26.88,0,0,1-5.1-1c-1.8-.7-3.1-2.1-4.3-2.9A12.1,12.1,0,0,0,18.3.2a12.1,12.1,0,0,0-1.9.1c-1.3.8-2.5,2.1-4.3,2.9A17.59,17.59,0,0,1,7,4.2,37,37,0,0,0,4.2,7a26.88,26.88,0,0,1-1,5.1c-.7,1.8-2.1,3-2.9,4.3a12.1,12.1,0,0,0-.1,1.9,12.1,12.1,0,0,0,.1,1.9c.8,1.3,2.1,2.5,2.9,4.3s.7,3.6,1,5.1A14.38,14.38,0,0,0,7,32.3a26.88,26.88,0,0,1,5.1,1c1.8.7,3.1,2.1,4.3,2.9a12.1,12.1,0,0,0,1.9.1,12.1,12.1,0,0,0,1.9-.1c1.3-.8,2.5-2.1,4.3-2.9s3.6-.7,5.1-1a17.24,17.24,0,0,0,2.7-2.7,26.88,26.88,0,0,1,1-5.1c.7-1.8,2.1-3,2.9-4.3a12.1,12.1,0,0,0,.1-1.9c0-.7-.1-1.3-.1-1.9" transform="translate(0.05 0.05)" style="stroke: #ededed;stroke-miterlimit: 10;stroke-width: 0.5px;fill-rule: evenodd"/>
</svg>
