<?xml version="1.0" encoding="utf-8"?>
<!-- Generator: Adobe Illustrator 26.0.3, SVG Export Plug-In . SVG Version: 6.00 Build 0)  -->
<svg version="1.1" id="Layer_1" xmlns="http://www.w3.org/2000/svg" xmlns:xlink="http://www.w3.org/1999/xlink" x="0px" y="0px"
	 viewBox="0 0 53.83 63.18" style="enable-background:new 0 0 53.83 63.18;" xml:space="preserve">
<g>
	<path style="fill:none;stroke:#6D6E70;stroke-width:0.25;stroke-linecap:round;stroke-linejoin:round;stroke-miterlimit:10;" d="
		M41.4,5.79c0-0.01,0-0.03,0-0.04c0-0.01,0-0.03,0-0.04c0-0.05-0.01-0.09-0.02-0.13c-0.01-0.23-0.04-0.46-0.08-0.69
		c-0.49-2.8-3.39-4.76-7.3-4.76h-7.22h-6.92c-3.91,0-6.82,1.96-7.3,4.76c-0.04,0.23-0.07,0.46-0.08,0.69c0,0.05-0.02,0.09-0.02,0.13
		c0,0.01,0,0.03,0,0.04c0,0.01,0,0.03,0,0.04c0,0.05,0.01,0.09,0.02,0.13c0.01,0.23,0.04,0.46,0.08,0.69
		c0.49,2.8,3.39,4.76,7.3,4.76h6.92H34c3.91,0,6.82-1.96,7.3-4.76c0.04-0.23,0.07-0.46,0.08-0.69C41.39,5.88,41.4,5.84,41.4,5.79z"
		/>
	<linearGradient id="SVGID_1_" gradientUnits="userSpaceOnUse" x1="26.9164" y1="58.1403" x2="26.9164" y2="4.8076">
		<stop  offset="0.8431" style="stop-color:#231F20"/>
		<stop  offset="0.8611" style="stop-color:#262223"/>
		<stop  offset="0.8762" style="stop-color:#2F2C2E"/>
		<stop  offset="0.8903" style="stop-color:#3F3D3F"/>
		<stop  offset="0.9037" style="stop-color:#555558"/>
		<stop  offset="0.9167" style="stop-color:#727477"/>
		<stop  offset="0.9292" style="stop-color:#95999E"/>
		<stop  offset="0.933" style="stop-color:#A1A6AB"/>
		<stop  offset="0.9493" style="stop-color:#9EA6A9"/>
		<stop  offset="0.9599" style="stop-color:#96A5A4"/>
		<stop  offset="0.9689" style="stop-color:#87A39A"/>
		<stop  offset="0.9769" style="stop-color:#72A08D"/>
		<stop  offset="0.9844" style="stop-color:#569D7C"/>
		<stop  offset="0.9914" style="stop-color:#359966"/>
		<stop  offset="0.998" style="stop-color:#0E954E"/>
		<stop  offset="1" style="stop-color:#009345"/>
	</linearGradient>
	<path style="fill:url(#SVGID_1_);" d="M0.25,36.27c0,14.73,11.94,26.67,26.67,26.67c14.73,0,26.67-11.94,26.67-26.67
		c0-10.76-6.38-20.03-15.56-24.24V1.93H15.81v10.09C6.63,16.24,0.25,25.51,0.25,36.27z"/>
	
		<line style="fill:none;stroke:#E9C47C;stroke-width:0.5;stroke-linecap:round;stroke-linejoin:round;" x1="25.4" y1="16.85" x2="36.68" y2="16.85"/>
	
		<line style="fill:none;stroke:#E9C47C;stroke-width:0.5;stroke-linecap:round;stroke-linejoin:round;" x1="34.03" y1="18.34" x2="15.41" y2="18.34"/>
	
		<line style="fill:none;stroke:#E9C47C;stroke-width:0.5;stroke-linecap:round;stroke-linejoin:round;" x1="16.88" y1="19.83" x2="41.31" y2="19.83"/>
	
		<line style="fill:none;stroke:#E9C47C;stroke-width:0.5;stroke-linecap:round;stroke-linejoin:round;" x1="38.73" y1="21.32" x2="11.47" y2="21.32"/>
	
		<line style="fill:none;stroke:#E9C47C;stroke-width:0.5;stroke-linecap:round;stroke-linejoin:round;" x1="13.41" y1="22.81" x2="43.98" y2="22.81"/>
	
		<line style="fill:none;stroke:#E9C47C;stroke-width:0.5;stroke-linecap:round;stroke-linejoin:round;" x1="41.26" y1="24.3" x2="9.41" y2="24.3"/>
	
		<line style="fill:none;stroke:#E9C47C;stroke-width:0.5;stroke-linecap:round;stroke-linejoin:round;" x1="11.47" y1="25.79" x2="45.55" y2="25.79"/>
	
		<line style="fill:none;stroke:#E9C47C;stroke-width:0.5;stroke-linecap:round;stroke-linejoin:round;" x1="43.2" y1="27.28" x2="7.18" y2="27.28"/>
	
		<line style="fill:none;stroke:#E9C47C;stroke-width:0.5;stroke-linecap:round;stroke-linejoin:round;" x1="9.77" y1="28.77" x2="46.78" y2="28.77"/>
	
		<line style="fill:none;stroke:#E9C47C;stroke-width:0.5;stroke-linecap:round;stroke-linejoin:round;" x1="44.73" y1="30.26" x2="6.65" y2="30.26"/>
	
		<line style="fill:none;stroke:#E9C47C;stroke-width:0.5;stroke-linecap:round;stroke-linejoin:round;" x1="9.06" y1="31.75" x2="47.84" y2="31.75"/>
	
		<line style="fill:none;stroke:#E9C47C;stroke-width:0.5;stroke-linecap:round;stroke-linejoin:round;" x1="45.54" y1="33.24" x2="5.95" y2="33.24"/>
	
		<line style="fill:none;stroke:#E9C47C;stroke-width:0.5;stroke-linecap:round;stroke-linejoin:round;" x1="8.77" y1="34.73" x2="48.19" y2="34.73"/>
	
		<line style="fill:none;stroke:#E9C47C;stroke-width:0.5;stroke-linecap:round;stroke-linejoin:round;" x1="45.55" y1="36.22" x2="5.6" y2="36.22"/>
	
		<line style="fill:none;stroke:#E9C47C;stroke-width:0.5;stroke-linecap:round;stroke-linejoin:round;" x1="8.77" y1="37.71" x2="48.79" y2="37.71"/>
	
		<line style="fill:none;stroke:#E9C47C;stroke-width:0.5;stroke-linecap:round;stroke-linejoin:round;" x1="44.73" y1="39.2" x2="6.3" y2="39.2"/>
	
		<line style="fill:none;stroke:#E9C47C;stroke-width:0.5;stroke-linecap:round;stroke-linejoin:round;" x1="9.41" y1="40.69" x2="47.31" y2="40.69"/>
	
		<line style="fill:none;stroke:#E9C47C;stroke-width:0.5;stroke-linecap:round;stroke-linejoin:round;" x1="44.08" y1="42.18" x2="6.12" y2="42.18"/>
	
		<line style="fill:none;stroke:#E9C47C;stroke-width:0.5;stroke-linecap:round;stroke-linejoin:round;" x1="10.24" y1="43.67" x2="46.78" y2="43.67"/>
	
		<line style="fill:none;stroke:#E9C47C;stroke-width:0.5;stroke-linecap:round;stroke-linejoin:round;" x1="42.85" y1="45.17" x2="7.36" y2="45.17"/>
	
		<line style="fill:none;stroke:#E9C47C;stroke-width:0.5;stroke-linecap:round;stroke-linejoin:round;" x1="12.12" y1="46.66" x2="45.26" y2="46.66"/>
	
		<line style="fill:none;stroke:#E9C47C;stroke-width:0.5;stroke-linecap:round;stroke-linejoin:round;" x1="40.91" y1="48.15" x2="9.41" y2="48.15"/>
	
		<line style="fill:none;stroke:#E9C47C;stroke-width:0.5;stroke-linecap:round;stroke-linejoin:round;" x1="14.35" y1="49.64" x2="43.41" y2="49.64"/>
	
		<line style="fill:none;stroke:#E9C47C;stroke-width:0.5;stroke-linecap:round;stroke-linejoin:round;" x1="37.62" y1="51.13" x2="12.12" y2="51.13"/>
	
		<line style="fill:none;stroke:#E9C47C;stroke-width:0.5;stroke-linecap:round;stroke-linejoin:round;" x1="18.52" y1="52.62" x2="40.91" y2="52.62"/>
	
		<line style="fill:none;stroke:#E9C47C;stroke-width:0.5;stroke-linecap:round;stroke-linejoin:round;" x1="31.8" y1="54.11" x2="16.06" y2="54.11"/>
	<path style="fill:none;stroke:#E9C47C;stroke-width:2;stroke-linecap:round;stroke-linejoin:round;" d="M31.03,57.49
		c10.29-1.81,18.12-10.79,18.12-21.6c0-10.78-7.78-19.75-18.04-21.59l-2.09-0.43"/>
	<path style="fill:none;stroke:#E9C47C;stroke-width:2;stroke-linecap:round;stroke-linejoin:round;" d="M23.1,57.49
		C12.81,55.68,4.98,46.7,4.98,35.89c0-10.78,7.78-19.75,18.04-21.59l1.74-0.3"/>
	<path style="fill:#FFFFFF;stroke:#E9C47C;stroke-width:3;" d="M31.67,14.1"/>
	<path style="fill:#FFFFFF;stroke:#E9C47C;stroke-width:3;" d="M31.67,2.08"/>
	
		<linearGradient id="SVGID_00000052096169889785463400000005896841380731904170_" gradientUnits="userSpaceOnUse" x1="26.9164" y1="63.1849" x2="26.9164" y2="1.6837">
		<stop  offset="0" style="stop-color:#E9C47C"/>
		<stop  offset="1" style="stop-color:#808184"/>
	</linearGradient>
	
		<path style="fill:none;stroke:url(#SVGID_00000052096169889785463400000005896841380731904170_);stroke-width:0.5;stroke-linecap:round;stroke-linejoin:round;" d="
		M0.25,36.27c0,14.73,11.94,26.67,26.67,26.67c14.73,0,26.67-11.94,26.67-26.67c0-10.76-6.38-20.03-15.56-24.24V1.93H15.81v10.09
		C6.63,16.24,0.25,25.51,0.25,36.27z"/>
	<g>
		<path style="fill:#231F20;stroke:#231F20;stroke-width:0.25;stroke-miterlimit:10;" d="M26.76,0.53h0.31h7.14
			c4.12,0,6.82,2.34,6.82,5.23c0,1.74-0.99,3.27-2.66,4.22V1.63H27.1h-0.37"/>
	</g>
	<g>
		<path style="fill:#231F20;stroke:#231F20;stroke-width:0.25;stroke-miterlimit:10;" d="M26.73,1.63H15.47v8.35
			c-1.67-0.95-2.66-2.48-2.66-4.22c0-2.89,2.69-5.23,6.82-5.23h7.14"/>
	</g>
	<line style="fill:none;stroke:#E9C47C;stroke-width:5;" x1="23.26" y1="2.24" x2="23.26" y2="14.17"/>
	<line style="fill:none;stroke:#E9C47C;stroke-width:5;" x1="30.51" y1="2.18" x2="30.51" y2="13.83"/>
	
		<linearGradient id="SVGID_00000125603748952305556390000012582535899851224466_" gradientUnits="userSpaceOnUse" x1="26.9164" y1="1.6472" x2="26.9164" y2="3.9181">
		<stop  offset="0" style="stop-color:#231F20"/>
		<stop  offset="1" style="stop-color:#231F20;stop-opacity:0"/>
	</linearGradient>
	
		<rect x="15.47" y="1.65" style="fill:url(#SVGID_00000125603748952305556390000012582535899851224466_);" width="22.9" height="2.27"/>
</g>
</svg>
