<?xml version="1.0" encoding="utf-8"?>
<!-- Generator: Adobe Illustrator 26.0.3, SVG Export Plug-In . SVG Version: 6.00 Build 0)  -->
<svg version="1.1" id="Layer_1" xmlns="http://www.w3.org/2000/svg" xmlns:xlink="http://www.w3.org/1999/xlink" x="0px" y="0px"
	 viewBox="0 0 49.35 44.36" style="enable-background:new 0 0 49.35 44.36;" xml:space="preserve">
<path id="path9179" style="fill:#E6E6E6;stroke:#636663;stroke-width:0.7085;stroke-miterlimit:11.3366;" d="M13.57,43.99
	c-0.75-0.04-1.44-0.44-1.84-1.08L0.61,23.26c-0.34-0.68-0.34-1.48,0-2.16L11.73,1.43c0.4-0.64,1.09-1.04,1.84-1.08h22.21
	c0.76,0.04,1.45,0.44,1.85,1.08L48.74,21.1c0.34,0.68,0.34,1.48,0,2.16L37.62,42.92c-0.41,0.64-1.1,1.04-1.85,1.07H13.57z"/>
<path id="path9183" style="fill:#545454;" d="M7.59,22.18c-0.01-9.44,7.64-17.09,17.08-17.1c9.44-0.01,17.09,7.64,17.1,17.08
	s-7.64,17.09-17.08,17.1c0,0-0.01,0-0.01,0C15.24,39.25,7.59,31.61,7.59,22.18"/>
<path id="path9185" style="stroke:#9D9D9E;stroke-width:1.5;stroke-miterlimit:10;" d="M11.66,22.18c0-7.19,5.83-13.01,13.01-13.01
	s13.01,5.83,13.01,13.01c0,7.19-5.83,13.01-13.01,13.01h0c-7.18,0.01-13.01-5.81-13.01-12.99C11.66,22.19,11.66,22.18,11.66,22.18"
	/>
</svg>
