<svg id="Layer_1" data-name="Layer 1" xmlns="http://www.w3.org/2000/svg" width="17.41mm" height="15.65mm" viewBox="0 0 49.36 44.37">
  <path id="path9179" d="M13.57,44a2.31,2.31,0,0,1-1.84-1.08L.61,23.26a2.41,2.41,0,0,1,0-2.16L11.73,1.43A2.31,2.31,0,0,1,13.57.35H35.78a2.32,2.32,0,0,1,1.85,1.08L48.75,21.1a2.41,2.41,0,0,1,0,2.16L37.63,42.93A2.32,2.32,0,0,1,35.78,44Z" style="fill: #e6e6e6;stroke: #636663;stroke-miterlimit: 11.338582992553711;stroke-width: 0.7086614370346069px"/>
  <path id="path9183" d="M7.59,22.18A17.09,17.09,0,1,1,24.68,39.26,17.09,17.09,0,0,1,7.59,22.18" style="fill: #545454"/>
  <path id="path9185" d="M11.92,22.18A12.76,12.76,0,1,1,24.68,34.94,12.75,12.75,0,0,1,11.92,22.18"/>
</svg>
