<?xml version="1.0" encoding="UTF-8" standalone="no"?>
<svg
   width="0.30000001in"
   height="0.23in"
   viewBox="0 0 22.069566 16.675"
   version="1.1"
   id="svg1449"
   sodipodi:docname="SubMiniToggleH_2.svg"
   inkscape:version="1.1.1 (c3084ef, 2021-09-22)"
   xmlns:inkscape="http://www.inkscape.org/namespaces/inkscape"
   xmlns:sodipodi="http://sodipodi.sourceforge.net/DTD/sodipodi-0.dtd"
   xmlns="http://www.w3.org/2000/svg"
   xmlns:svg="http://www.w3.org/2000/svg">
  <defs
     id="defs1453" />
  <sodipodi:namedview
     id="namedview1451"
     pagecolor="#ffffff"
     bordercolor="#666666"
     borderopacity="1.0"
     inkscape:pageshadow="2"
     inkscape:pageopacity="0.0"
     inkscape:pagecheckerboard="0"
     inkscape:document-units="in"
     showgrid="false"
     inkscape:zoom="24.965277"
     inkscape:cx="14.600279"
     inkscape:cy="10.033936"
     inkscape:window-width="1742"
     inkscape:window-height="1067"
     inkscape:window-x="0"
     inkscape:window-y="25"
     inkscape:window-maximized="1"
     inkscape:current-layer="svg1449"
     height="0.23in" />
  <g
     id="g1490"
     transform="rotate(-90,8.395388,8.3953881)">
    <g
       id="Layer_1"
       data-name="Layer 1">
      <path
         id="path7255"
         d="M 8.46,19 A 8.11,8.11 0 1 1 16.57,10.89 8.12,8.12 0 0 1 8.46,19"
         style="fill:#e6e6e6;stroke:#666666;stroke-width:0.7px;stroke-miterlimit:11.3386" />
      <path
         id="path7261"
         d="M 8.46,16.71 A 5.84,5.84 0 1 1 14.3,10.87 5.84,5.84 0 0 1 8.46,16.71"
         style="fill:#e6e6e6;stroke:#666666;stroke-width:0.7px;stroke-miterlimit:11.3386" />
      <path
         id="path7265"
         d="M 13,10.87 A 4.5,4.5 0 1 1 8.5,6.37 4.51,4.51 0 0 1 13,10.87" />
    </g>
    <g
       id="top">
      <g
         id="g1446">
        <circle
           cx="8.46"
           cy="10.87"
           r="3"
           style="fill:#656565"
           id="circle1442" />
        <path
           d="m 8.46,0.35 v 0 a 4,4 0 0 1 4,4 l -0.3,4 c -0.24,2.31 -1.5,3.85 -3.7,3.85 v 0 c -2.2,0 -3.53,-1.62 -3.7,-3.85 l -0.3,-4 a 4,4 0 0 1 4,-4 z"
           style="fill:#ffffff;stroke:#666666;stroke-width:0.7px;stroke-miterlimit:10"
           id="path1444" />
      </g>
    </g>
  </g>
</svg>
