<svg xmlns="http://www.w3.org/2000/svg" width="40.73mm" height="130.6mm" viewBox="0 0 115.45 370.19">
  <g id="faceplate">
    <rect x="0.13" y="0.13" width="115.2" height="364.25" style="fill: #ededed;stroke: #9d9d9e;stroke-miterlimit: 10;stroke-width: 0.25px" />
    <path d="M100.22,236.37c-.29-8.38-6.12-9.49-13.29-9.49H28.58c-7.16,0-13,6.69-13.28,15.07l-.09,20v46.63l0,7.18c0,.18,0,.36,0,.54v19.84a5.68,5.68,0,0,0,5.66,5.67H94.58a5.68,5.68,0,0,0,5.66-5.67V242Z" />
    <g>
      <path d="M20.94,245.81a5.18,5.18,0,0,1-5.17-5.17l-.06-19.84a4.18,4.18,0,0,1,0-.5l0-7.22.09-46.63c.28-8.16,5.9-14.57,12.78-14.57H86.93c6.89,0,12.5,6.41,12.79,14.59V167h0v73.69a5.18,5.18,0,0,1-5.17,5.17Z" style="fill: #ededed" />
      <path d="M28.58,152.38H86.93c6.62,0,12,6.2,12.29,14.1l0,.43v73.73a4.67,4.67,0,0,1-4.66,4.67H20.94a4.67,4.67,0,0,1-4.67-4.67l-.06-19.84a3.39,3.39,0,0,1,0-.45v-.1l0-7.17.09-46.6c.27-7.9,5.67-14.1,12.28-14.1m0-1c-7.16,0-13,6.7-13.28,15.07l-.09,46.63,0,7.18c0,.18,0,.36,0,.54l.06,19.84a5.68,5.68,0,0,0,5.67,5.67H94.58a5.68,5.68,0,0,0,5.66-5.67V166.45h0c-.29-8.38-6.12-15.07-13.29-15.07Z" />
    </g>
    <rect x="16.36" y="208.57" width="42.52" height="85.04" rx="5.67" style="fill: #ededed" />
    <g>
      <path d="M55.35,357.38H53.46l-.5-1.51H50.31l-.5,1.51H47.92l2.7-7.44h2Zm-2.81-2.8-.89-2.72-.9,2.72Z" />
      <path d="M60,349.84l-3.32,7.64H55.53l3.31-7.64Z" />
      <path d="M67.2,353.79a4.14,4.14,0,0,1-.34,1.84,3.74,3.74,0,0,1-.8,1.12,2.55,2.55,0,0,1-1.84.63H60.93v-7.44h2.53a5.48,5.48,0,0,1,1,.07,4.39,4.39,0,0,1,.74.2,2.83,2.83,0,0,1,.55.3,3.58,3.58,0,0,1,.41.35,3.24,3.24,0,0,1,.55.74,3.77,3.77,0,0,1,.37,1A4.67,4.67,0,0,1,67.2,353.79Zm-1.87-.09a2.93,2.93,0,0,0-.28-1.42,1.53,1.53,0,0,0-.68-.68,2.15,2.15,0,0,0-.82-.17h-.78v4.41h.78a2,2,0,0,0,1.25-.42A2.11,2.11,0,0,0,65.33,353.7Z" />
    </g>
    <g>
      <path d="M78.84,190.46a2.8,2.8,0,0,1-.27,1.33,2.64,2.64,0,0,1-.62.82,2.11,2.11,0,0,1-1.44.45H73.94v-5.41h2a5.51,5.51,0,0,1,.77,0,3.92,3.92,0,0,1,.57.15,2.45,2.45,0,0,1,.43.22,2.34,2.34,0,0,1,.75.79,2.7,2.7,0,0,1,.29.71A3.56,3.56,0,0,1,78.84,190.46Zm-1.46-.08a1.93,1.93,0,0,0-.22-1,1.14,1.14,0,0,0-.53-.5,1.77,1.77,0,0,0-.64-.12h-.61v3.2H76a1.63,1.63,0,0,0,1-.3A1.51,1.51,0,0,0,77.38,190.38Z" />
      <path d="M82.83,191.42H80.37a.93.93,0,0,0,.35.59,1,1,0,0,0,.64.23,2.93,2.93,0,0,0,1.38-.4v.87a2.9,2.9,0,0,1-.66.29,3,3,0,0,1-1,.13,2.11,2.11,0,0,1-1.1-.27,1.73,1.73,0,0,1-.68-.74,2.42,2.42,0,0,1-.22-1.06,2.38,2.38,0,0,1,.22-1.05,1.71,1.71,0,0,1,.68-.73,2.21,2.21,0,0,1,1.1-.26,1.72,1.72,0,0,1,.82.21,1.55,1.55,0,0,1,.66.68,2.57,2.57,0,0,1,.25,1.22Zm-1.16-.7a1,1,0,0,0-.17-.61.56.56,0,0,0-.48-.23.64.64,0,0,0-.5.23,1,1,0,0,0-.19.61Z" />
      <path d="M86.16,192.88l-.33.12a2.74,2.74,0,0,1-.39.1,3.38,3.38,0,0,1-.47,0,2,2,0,0,1-1-.22,1.63,1.63,0,0,1-.61-.55,2.4,2.4,0,0,1-.3-.68,3,3,0,0,1-.08-.62,2.5,2.5,0,0,1,.09-.61,2.07,2.07,0,0,1,.29-.67,1.54,1.54,0,0,1,.61-.54,1.93,1.93,0,0,1,1-.22,2.84,2.84,0,0,1,.64.06,3.58,3.58,0,0,1,.49.17v1.1a3.19,3.19,0,0,0-.94-.22.88.88,0,0,0-.59.23.9.9,0,0,0-.26.7,1.11,1.11,0,0,0,.13.54.89.89,0,0,0,.32.32,1,1,0,0,0,.4.1,1.76,1.76,0,0,0,.42-.06l.58-.18Z" />
      <path d="M90.11,192.87a4.67,4.67,0,0,1-.51.19,1.75,1.75,0,0,1-.55.07.63.63,0,0,1-.43-.12.74.74,0,0,1-.17-.3A1.67,1.67,0,0,1,88,193a1.64,1.64,0,0,1-.64.11,1.16,1.16,0,0,1-.62-.15.9.9,0,0,1-.33-.37,1.32,1.32,0,0,1-.09-.48,1,1,0,0,1,.16-.6,1.42,1.42,0,0,1,.44-.4,5.5,5.5,0,0,1,.73-.31l.39-.14.2-.08.13-.07a.83.83,0,0,0-.1-.45.5.5,0,0,0-.45-.17,1.42,1.42,0,0,0-.75.21,2.36,2.36,0,0,0-.63.52v-1.08a2.53,2.53,0,0,1,.49-.31,2.78,2.78,0,0,1,.56-.17,3.05,3.05,0,0,1,.6-.06,1.72,1.72,0,0,1,1.14.33,1.17,1.17,0,0,1,.38.92v1.54a.89.89,0,0,0,0,.32.14.14,0,0,0,.13.11.8.8,0,0,0,.32-.11Zm-1.73-.77v-.94a3.64,3.64,0,0,0-.64.37.53.53,0,0,0-.2.44.4.4,0,0,0,.1.3.34.34,0,0,0,.24.11.52.52,0,0,0,.25-.08A2.19,2.19,0,0,0,88.38,192.1Z" />
      <path d="M94,189.09l-2.38,5.78H90.33l1-2.32-1.39-3.46h1.33l.71,2,.81-2Z" />
    </g>
    <g>
      <path d="M73.25,237.29a2.85,2.85,0,0,1-.27,1.34,3,3,0,0,1-.63.82,2.08,2.08,0,0,1-1.43.45H68.35v-5.41h2a5.36,5.36,0,0,1,.76,0,3.75,3.75,0,0,1,.58.15,1.91,1.91,0,0,1,.43.21,2.13,2.13,0,0,1,.32.26,2.32,2.32,0,0,1,.43.54,2.7,2.7,0,0,1,.29.71A3.48,3.48,0,0,1,73.25,237.29Zm-1.46-.07a2.1,2.1,0,0,0-.22-1,1.14,1.14,0,0,0-.54-.49,1.73,1.73,0,0,0-.63-.13h-.61v3.21h.61a1.6,1.6,0,0,0,1-.3A1.5,1.5,0,0,0,71.79,237.22Z" />
      <path d="M79,238.33a1.54,1.54,0,0,1-.86,1.45,2.19,2.19,0,0,1-.94.19l-.36,0a2.85,2.85,0,0,1-.58-.12,3.88,3.88,0,0,1-.74-.29v-1.33a6.11,6.11,0,0,0,.71.43,1.78,1.78,0,0,0,.75.16.63.63,0,0,0,.48-.13.41.41,0,0,0-.08-.63,2.14,2.14,0,0,0-.54-.31,5.47,5.47,0,0,1-.69-.41,2,2,0,0,1-.48-.55,1.68,1.68,0,0,1-.19-.79,1.71,1.71,0,0,1,.19-.79,1.37,1.37,0,0,1,.58-.56,1.86,1.86,0,0,1,1-.22,2.94,2.94,0,0,1,.74.09,3.09,3.09,0,0,1,.55.2,2.36,2.36,0,0,1,.31.17v1.27a4.41,4.41,0,0,0-.66-.43,1.64,1.64,0,0,0-.76-.18.59.59,0,0,0-.39.11.4.4,0,0,0-.12.29.38.38,0,0,0,.12.28,2.2,2.2,0,0,0,.43.29,9.37,9.37,0,0,1,.88.52,2,2,0,0,1,.52.54A1.51,1.51,0,0,1,79,238.33Z" />
      <path d="M83.22,239.9H82v-2.06s0,0,0,0v-.1a1.27,1.27,0,0,0-.11-.52.41.41,0,0,0-.41-.24.57.57,0,0,0-.41.18,2.4,2.4,0,0,0-.34.45v2.33H79.48v-5.41h1.24v2a1.81,1.81,0,0,1,.61-.51,1.51,1.51,0,0,1,.63-.13c.84,0,1.26.53,1.26,1.6Z" />
      <path d="M87.31,239.7l-.5.2a1.79,1.79,0,0,1-.55.07.6.6,0,0,1-.43-.12.64.64,0,0,1-.17-.3,1.77,1.77,0,0,1-.45.3,1.41,1.41,0,0,1-.63.12,1.14,1.14,0,0,1-.62-.15.76.76,0,0,1-.33-.38,1.28,1.28,0,0,1-.1-.47,1,1,0,0,1,.17-.6,1.22,1.22,0,0,1,.44-.4,5.3,5.3,0,0,1,.72-.31l.39-.15.2-.07.14-.07a1,1,0,0,0-.1-.46c-.07-.11-.22-.16-.45-.16a1.5,1.5,0,0,0-.75.2,2.66,2.66,0,0,0-.64.53V236.4a2,2,0,0,1,.5-.31,2.62,2.62,0,0,1,.56-.18,3.81,3.81,0,0,1,.59,0,1.69,1.69,0,0,1,1.14.33,1.14,1.14,0,0,1,.39.92v1.53a1.31,1.31,0,0,0,0,.33c0,.07.07.11.14.11a.68.68,0,0,0,.31-.12Zm-1.72-.76V238a2.85,2.85,0,0,0-.64.37.5.5,0,0,0-.21.43.42.42,0,0,0,.11.31.29.29,0,0,0,.23.1.41.41,0,0,0,.25-.08A1.43,1.43,0,0,0,85.59,238.94Z" />
      <path d="M91.26,237.89a2.86,2.86,0,0,1-.1.77,2.25,2.25,0,0,1-.3.67,1.5,1.5,0,0,1-.53.47,1.6,1.6,0,0,1-.75.17,1.34,1.34,0,0,1-.54-.08,1.92,1.92,0,0,1-.39-.22v2H87.41v-5.78h1.24v.36a1.53,1.53,0,0,1,.41-.31,1.29,1.29,0,0,1,.61-.12,1.52,1.52,0,0,1,.75.21,1.58,1.58,0,0,1,.6.67A2.45,2.45,0,0,1,91.26,237.89Zm-1.3,0a1.42,1.42,0,0,0-.1-.59.71.71,0,0,0-.26-.32.56.56,0,0,0-.33-.1.8.8,0,0,0-.36.08,1.21,1.21,0,0,0-.26.2v1.52l.14.09.15.08a.47.47,0,0,0,.15.06.55.55,0,0,0,.18,0,.57.57,0,0,0,.49-.28A1.29,1.29,0,0,0,90,237.92Z" />
      <path d="M95.21,238.25H92.75a1,1,0,0,0,.35.6,1,1,0,0,0,.64.23,2.93,2.93,0,0,0,1.38-.4v.87a3.42,3.42,0,0,1-.66.29,3,3,0,0,1-1,.13,2.11,2.11,0,0,1-1.1-.27,1.73,1.73,0,0,1-.68-.74,2.47,2.47,0,0,1-.22-1.07,2.31,2.31,0,0,1,.22-1,1.71,1.71,0,0,1,.68-.73,2.11,2.11,0,0,1,1.1-.26,1.71,1.71,0,0,1,.82.2,1.58,1.58,0,0,1,.66.69,2.54,2.54,0,0,1,.25,1.22Zm-1.16-.69a1,1,0,0,0-.17-.61.56.56,0,0,0-.48-.23.64.64,0,0,0-.5.23,1,1,0,0,0-.19.61Z" />
    </g>
    <g>
      <path d="M26.42,239.9H25l-.39-1.1H22.49l-.4,1.1H20.62l2.11-5.41h1.59Zm-2.19-2-.7-2-.7,2Z" />
      <path d="M29.33,239.67a3,3,0,0,1-.54.21,2.47,2.47,0,0,1-.64.09c-.89,0-1.34-.49-1.34-1.48V236.9h-.56v-.24l1.66-1.93h.14v1.2h1.18v1H28.05v1.28a3.53,3.53,0,0,0,0,.36.4.4,0,0,0,.14.22.55.55,0,0,0,.34.1,1.68,1.68,0,0,0,.78-.29Z" />
      <path d="M32.35,239.67a3.23,3.23,0,0,1-.53.21,2.6,2.6,0,0,1-.65.09c-.89,0-1.34-.49-1.34-1.48V236.9h-.56v-.24l1.66-1.93h.14v1.2h1.19v1H31.07v1.28a1.86,1.86,0,0,0,0,.36.34.34,0,0,0,.13.22.55.55,0,0,0,.34.1,1.68,1.68,0,0,0,.78-.29Z" />
      <path d="M36.24,239.7l-.5.2a1.86,1.86,0,0,1-.56.07.59.59,0,0,1-.42-.12.64.64,0,0,1-.17-.3,2,2,0,0,1-.45.3,1.43,1.43,0,0,1-.64.12,1.1,1.1,0,0,1-.61-.15.76.76,0,0,1-.33-.38,1.18,1.18,0,0,1,.06-1.07,1.31,1.31,0,0,1,.44-.4,6.15,6.15,0,0,1,.73-.31l.39-.15.2-.07.14-.07a.84.84,0,0,0-.11-.46c-.06-.11-.21-.16-.44-.16a1.57,1.57,0,0,0-.76.2,2.61,2.61,0,0,0-.63.53V236.4a2,2,0,0,1,.5-.31,2.62,2.62,0,0,1,.56-.18,3.81,3.81,0,0,1,.59,0,1.7,1.7,0,0,1,1.14.33,1.14,1.14,0,0,1,.38.92v1.53a1.22,1.22,0,0,0,0,.33.14.14,0,0,0,.13.11.67.67,0,0,0,.32-.12Zm-1.72-.76V238a3,3,0,0,0-.65.37.52.52,0,0,0-.2.43.46.46,0,0,0,.1.31.33.33,0,0,0,.24.1.41.41,0,0,0,.25-.08A1.88,1.88,0,0,0,34.52,238.94Z" />
      <path d="M39.34,239.72l-.32.12-.39.1a3.38,3.38,0,0,1-.47,0,1.93,1.93,0,0,1-1-.22,1.72,1.72,0,0,1-.61-.55,2.25,2.25,0,0,1-.3-.68,3.1,3.1,0,0,1-.08-.62,2.92,2.92,0,0,1,.08-.61,2.23,2.23,0,0,1,.3-.67,1.69,1.69,0,0,1,.6-.55,2.09,2.09,0,0,1,1-.21,2.68,2.68,0,0,1,.63.06,3.28,3.28,0,0,1,.5.17v1.1a3.18,3.18,0,0,0-.95-.22.85.85,0,0,0-.58.23.88.88,0,0,0-.26.7,1,1,0,0,0,.13.54.73.73,0,0,0,.32.31.82.82,0,0,0,.39.11,1.82,1.82,0,0,0,.43-.07c.15,0,.35-.1.57-.18Z" />
      <path d="M43.82,239.9H42.25L40.91,238v1.88H39.66v-5.41h1.25v3.17l1.22-1.73h1.49l-1.37,1.85Z" />
    </g>
    <g>
      <path d="M29,192.68l-.26.11-.22.08-.29.09a5,5,0,0,1-.65.13,5.12,5.12,0,0,1-.69,0,3,3,0,0,1-1.34-.3,2.25,2.25,0,0,1-1-.93,3,3,0,0,1-.37-1.55,3.59,3.59,0,0,1,.19-1.17,2.11,2.11,0,0,1,.58-.92,2.75,2.75,0,0,1,.66-.43,2.32,2.32,0,0,1,.65-.2,3.73,3.73,0,0,1,.69,0,4.3,4.3,0,0,1,1,.1c.27.07.57.17.9.29v1.28a3.24,3.24,0,0,0-.69-.36,2.35,2.35,0,0,0-.9-.15,1.66,1.66,0,0,0-1,.27,1.44,1.44,0,0,0-.52.64,1.94,1.94,0,0,0-.15.72,1.8,1.8,0,0,0,.17.76,1.28,1.28,0,0,0,.51.55,1.54,1.54,0,0,0,.82.21,2.53,2.53,0,0,0,.59-.08v-.64h-.65v-1.09H29Z" />
      <path d="M33.32,192.87c-.18.08-.35.14-.5.19a1.86,1.86,0,0,1-.56.07.59.59,0,0,1-.42-.12.75.75,0,0,1-.18-.3,1.67,1.67,0,0,1-.44.31,1.64,1.64,0,0,1-.64.11A1.16,1.16,0,0,1,30,193a.9.9,0,0,1-.33-.37,1.32,1.32,0,0,1-.09-.48,1,1,0,0,1,.16-.6,1.42,1.42,0,0,1,.44-.4,5.5,5.5,0,0,1,.73-.31l.39-.14.2-.08.14-.07a.83.83,0,0,0-.11-.45.5.5,0,0,0-.45-.17,1.42,1.42,0,0,0-.75.21,2.36,2.36,0,0,0-.63.52v-1.08a2.53,2.53,0,0,1,.49-.31,2.69,2.69,0,0,1,.57-.17,2.88,2.88,0,0,1,.59-.06,1.72,1.72,0,0,1,1.14.33,1.14,1.14,0,0,1,.38.92v1.54a.89.89,0,0,0,0,.32.14.14,0,0,0,.13.11.8.8,0,0,0,.32-.11Zm-1.72-.77v-.94a3.44,3.44,0,0,0-.65.37.53.53,0,0,0-.2.44.4.4,0,0,0,.1.3.34.34,0,0,0,.24.11.49.49,0,0,0,.25-.08C31.42,192.24,31.51,192.18,31.6,192.1Z" />
      <path d="M36.19,192.83a3,3,0,0,1-.54.21,2.47,2.47,0,0,1-.64.09c-.9,0-1.34-.49-1.34-1.48v-1.59h-.56v-.24l1.66-1.92h.14v1.19h1.18v1H34.91v1.28a3.21,3.21,0,0,0,0,.36.46.46,0,0,0,.14.23.53.53,0,0,0,.34.09,1.84,1.84,0,0,0,.78-.28Z" />
      <path d="M40,191.42H37.57a1,1,0,0,0,1,.82,3,3,0,0,0,1.39-.4v.87a3.36,3.36,0,0,1-.66.29,3.08,3.08,0,0,1-1,.13,2.11,2.11,0,0,1-1.1-.27,1.73,1.73,0,0,1-.68-.74,2.42,2.42,0,0,1-.22-1.06,2.38,2.38,0,0,1,.22-1.05,1.71,1.71,0,0,1,.68-.73,2.21,2.21,0,0,1,1.1-.26,1.76,1.76,0,0,1,.83.21,1.59,1.59,0,0,1,.65.68,2.57,2.57,0,0,1,.25,1.22Zm-1.16-.7a1,1,0,0,0-.16-.61.56.56,0,0,0-.48-.23.61.61,0,0,0-.5.23.93.93,0,0,0-.19.61Z" />
    </g>
    <g>
      <path d="M27.71,289.81H26.24l-.39-1.1H23.78l-.4,1.1H21.91L24,284.39h1.59Zm-2.19-2-.7-2-.71,2Z" />
      <path d="M33.2,288.23a1.67,1.67,0,0,1-.23.88,1.48,1.48,0,0,1-.64.57,2.13,2.13,0,0,1-.94.2l-.36,0a3.66,3.66,0,0,1-.57-.11,5.36,5.36,0,0,1-.74-.29v-1.33a4.88,4.88,0,0,0,.71.42,1.72,1.72,0,0,0,.75.17.6.6,0,0,0,.47-.14.41.41,0,0,0-.08-.63,2.65,2.65,0,0,0-.53-.31,3.7,3.7,0,0,1-.69-.41,1.85,1.85,0,0,1-.49-.55,1.78,1.78,0,0,1,0-1.58,1.34,1.34,0,0,1,.57-.56,2,2,0,0,1,.95-.21,2.89,2.89,0,0,1,.74.09,2.6,2.6,0,0,1,.56.19,2.08,2.08,0,0,1,.3.17V286a3.3,3.3,0,0,0-.65-.42,1.6,1.6,0,0,0-.77-.19.54.54,0,0,0-.39.12.38.38,0,0,0-.12.29.36.36,0,0,0,.12.27,2.07,2.07,0,0,0,.43.29,6.74,6.74,0,0,1,.88.53,1.78,1.78,0,0,1,.52.54A1.47,1.47,0,0,1,33.2,288.23Z" />
      <path d="M37.43,289.81H36.19v-2.2a1.17,1.17,0,0,0-.11-.53.39.39,0,0,0-.4-.24.55.55,0,0,0-.41.18,2,2,0,0,0-.34.45v2.34H33.69v-5.42h1.24v2a1.7,1.7,0,0,1,.6-.51,1.53,1.53,0,0,1,.64-.13c.84,0,1.26.53,1.26,1.6Z" />
      <path d="M41.52,289.61l-.51.19a1.73,1.73,0,0,1-.55.08.57.57,0,0,1-.43-.13.74.74,0,0,1-.17-.3,1.67,1.67,0,0,1-.44.31,1.46,1.46,0,0,1-.64.12,1.16,1.16,0,0,1-.62-.15.92.92,0,0,1-.33-.38,1.31,1.31,0,0,1-.09-.47,1,1,0,0,1,.16-.61,1.28,1.28,0,0,1,.44-.39,4.36,4.36,0,0,1,.73-.32l.39-.14.2-.08.13-.07a.83.83,0,0,0-.1-.45.5.5,0,0,0-.45-.17,1.42,1.42,0,0,0-.75.21,2.81,2.81,0,0,0-.64.52V286.3a2.14,2.14,0,0,1,.5-.3,2.81,2.81,0,0,1,.56-.18,3,3,0,0,1,.59-.06,1.73,1.73,0,0,1,1.15.33A1.18,1.18,0,0,1,41,287v1.54a.89.89,0,0,0,0,.32.13.13,0,0,0,.13.11.8.8,0,0,0,.32-.11Zm-1.73-.77v-.94a3.64,3.64,0,0,0-.64.37.54.54,0,0,0-.2.44.4.4,0,0,0,.1.3.34.34,0,0,0,.24.11.52.52,0,0,0,.25-.08A2.19,2.19,0,0,0,39.79,288.84Z" />
      <path d="M45.47,287.79a3.25,3.25,0,0,1-.1.77,2.16,2.16,0,0,1-.31.67,1.38,1.38,0,0,1-.52.47,1.54,1.54,0,0,1-.75.18,1.32,1.32,0,0,1-.54-.09,1.93,1.93,0,0,1-.4-.21v2H41.62v-5.78h1.23v.36a2,2,0,0,1,.41-.31,1.32,1.32,0,0,1,.61-.12,1.47,1.47,0,0,1,.75.21,1.66,1.66,0,0,1,.61.67A2.48,2.48,0,0,1,45.47,287.79Zm-1.31,0a1.37,1.37,0,0,0-.1-.58.72.72,0,0,0-.25-.33.7.7,0,0,0-.33-.1.74.74,0,0,0-.36.08,1.71,1.71,0,0,0-.27.2v1.52l.14.09.15.09.16,0a.48.48,0,0,0,.18,0,.6.6,0,0,0,.49-.28A1.35,1.35,0,0,0,44.16,287.82Z" />
      <path d="M49.42,288.16H47a1,1,0,0,0,.36.59,1,1,0,0,0,.63.23,3,3,0,0,0,1.39-.4v.87a2.92,2.92,0,0,1-1.65.43,2.14,2.14,0,0,1-1.1-.28,1.73,1.73,0,0,1-.68-.74,2.42,2.42,0,0,1-.22-1.06,2.38,2.38,0,0,1,.22-1.05,1.71,1.71,0,0,1,.68-.73,2.24,2.24,0,0,1,1.1-.26,1.76,1.76,0,0,1,.83.21,1.65,1.65,0,0,1,.65.68,2.61,2.61,0,0,1,.26,1.23Zm-1.17-.7a1,1,0,0,0-.16-.61.56.56,0,0,0-.48-.23.61.61,0,0,0-.5.23.93.93,0,0,0-.19.61Z" />
    </g>
    <g>
      <path d="M28.37,337.06h-3.6v-5.41h3.54v1.09h-2.1v1h2v1.09h-2V336h2.16Z" style="fill: #fff" />
      <path d="M34.14,334.35a3.26,3.26,0,0,1-.3,1.4,2.42,2.42,0,0,1-.92,1,2.78,2.78,0,0,1-1.48.37,2.75,2.75,0,0,1-1.5-.39,2.48,2.48,0,0,1-.91-1,3.33,3.33,0,0,1-.29-1.37A3.29,3.29,0,0,1,29,333a2.38,2.38,0,0,1,.91-1,2.74,2.74,0,0,1,1.5-.38,3,3,0,0,1,1.18.22,2.51,2.51,0,0,1,.85.6,2.6,2.6,0,0,1,.5.89A3.14,3.14,0,0,1,34.14,334.35Zm-1.46,0a1.87,1.87,0,0,0-.08-.55,1.11,1.11,0,0,0-.24-.44,1,1,0,0,0-.39-.29,1.25,1.25,0,0,0-.53-.1,1.12,1.12,0,0,0-.91.38,1.47,1.47,0,0,0-.33,1,1.5,1.5,0,0,0,.33,1,1.16,1.16,0,0,0,.91.38,1.28,1.28,0,0,0,.67-.17,1.17,1.17,0,0,0,.43-.5A1.81,1.81,0,0,0,32.68,334.35Z" style="fill: #fff" />
      <path d="M40,337.06H38.52L38.13,336H36.06l-.4,1.09H34.19l2.11-5.41h1.59Zm-2.19-2-.7-2-.7,2Z" style="fill: #fff" />
    </g>
    <g>
      <path d="M63.29,8.07l-5.53,7v-6a1.29,1.29,0,0,0-.64-1.17A.89.89,0,0,0,56,8.19l-7.28,9.25a1.49,1.49,0,0,0,0,1.79.91.91,0,0,0,1.46,0l5.49-7v6a1.29,1.29,0,0,0,.65,1.17.9.9,0,0,0,1.13-.3l5.53-7v6.16a1.06,1.06,0,1,0,2.07,0V9a1.31,1.31,0,0,0-.65-1.18A.91.91,0,0,0,63.29,8.07Z" style="stroke: #000;stroke-width: 0.6000000000000001px" />
      <path d="M48.71,8l-4.82,6.12a1.48,1.48,0,0,0,0,1.79.9.9,0,0,0,1.46,0l3-3.87v6.31a1.06,1.06,0,1,0,2.07,0V8.87a1.29,1.29,0,0,0-.65-1.17A.91.91,0,0,0,48.71,8Z" style="stroke: #000;stroke-width: 0.6000000000000001px" />
      <path d="M71.66,12.52a1.06,1.06,0,0,0-1-.78H68.6l1.54-2s.8-1.17.09-1.82S68.65,8,68.65,8l-3.22,4.1a1.5,1.5,0,0,0-.21,1.38,1.06,1.06,0,0,0,1,.77h2.11l-2.49,3.17s-1,1.13-.27,1.89,1.75-.14,1.75-.14l4.18-5.31A1.48,1.48,0,0,0,71.66,12.52Z" style="stroke: #000;stroke-width: 0.6000000000000001px" />
    </g>
    <rect x="53.72" y="239.9" width="14.93" height="22.66" style="fill: #ededed" />
    <path d="M92.91,330.39H67.39a8.52,8.52,0,0,1-8.5-8.5v-68a8.53,8.53,0,0,1,8.5-8.51H92.91c4.67,0,3.76,5.59,3.76,10.26v66.28C96.67,326.57,97.58,330.39,92.91,330.39Z" />
    <g>
      <path d="M79.94,289.81H76.35v-5.42h3.53v1.09h-2.1v1h2v1.09h-2v1.16h2.16Z" style="fill: #fff" />
      <path d="M85.72,287.09a3.23,3.23,0,0,1-.31,1.4,2.42,2.42,0,0,1-.92,1,2.76,2.76,0,0,1-1.48.38,2.69,2.69,0,0,1-1.49-.39,2.44,2.44,0,0,1-.91-1,3.19,3.19,0,0,1-.3-1.37,3.14,3.14,0,0,1,.3-1.36,2.39,2.39,0,0,1,.9-1,2.75,2.75,0,0,1,1.5-.39,3,3,0,0,1,1.18.22,2.42,2.42,0,0,1,.85.6,2.6,2.6,0,0,1,.5.89A3.15,3.15,0,0,1,85.72,287.09Zm-1.47,0a1.63,1.63,0,0,0-.08-.55,1.11,1.11,0,0,0-.24-.44,1.05,1.05,0,0,0-.39-.29,1.25,1.25,0,0,0-.53-.1,1.16,1.16,0,0,0-.91.38,1.49,1.49,0,0,0-.33,1,1.45,1.45,0,0,0,.34,1,1.12,1.12,0,0,0,.9.39,1.23,1.23,0,0,0,.68-.18,1.19,1.19,0,0,0,.42-.49A1.67,1.67,0,0,0,84.25,287.09Z" style="fill: #fff" />
      <path d="M91.23,287.2a2.8,2.8,0,0,1-.27,1.33,2.67,2.67,0,0,1-.63.82,2.08,2.08,0,0,1-1.43.46H86.33v-5.42h2a5.36,5.36,0,0,1,.76.05,3.75,3.75,0,0,1,.58.15,2.45,2.45,0,0,1,.43.22,2.09,2.09,0,0,1,.32.25,2.32,2.32,0,0,1,.43.54,2.7,2.7,0,0,1,.29.71A3.62,3.62,0,0,1,91.23,287.2Zm-1.46-.07a2.07,2.07,0,0,0-.22-1,1.17,1.17,0,0,0-.54-.5,1.72,1.72,0,0,0-.63-.12h-.61v3.2h.61a1.6,1.6,0,0,0,1-.3A1.47,1.47,0,0,0,89.77,287.13Z" style="fill: #fff" />
    </g>
    <g>
      <path d="M82.72,334.35a3.12,3.12,0,0,1-.31,1.4,2.33,2.33,0,0,1-.91,1,2.78,2.78,0,0,1-1.48.37,2.75,2.75,0,0,1-1.5-.39,2.42,2.42,0,0,1-.91-1,3.18,3.18,0,0,1-.29-1.37,3.14,3.14,0,0,1,.29-1.36,2.38,2.38,0,0,1,.91-1,2.74,2.74,0,0,1,1.5-.38,3,3,0,0,1,1.18.22,2.51,2.51,0,0,1,.85.6,2.6,2.6,0,0,1,.5.89A3.14,3.14,0,0,1,82.72,334.35Zm-1.46,0a1.87,1.87,0,0,0-.08-.55,1.15,1.15,0,0,0-.63-.73A1.25,1.25,0,0,0,80,333a1.12,1.12,0,0,0-.91.38,1.47,1.47,0,0,0-.33,1,1.5,1.5,0,0,0,.33,1,1.15,1.15,0,0,0,.91.38,1.28,1.28,0,0,0,.67-.17,1.08,1.08,0,0,0,.42-.5A1.66,1.66,0,0,0,81.26,334.35Z" style="fill: #fff" />
      <path d="M86.82,337.06H85.58v-.56A2,2,0,0,1,85,337a1.47,1.47,0,0,1-.69.15,1,1,0,0,1-1-.52,3,3,0,0,1-.23-1.19v-2.33h1.24v2.15a1.6,1.6,0,0,0,.09.56.4.4,0,0,0,.42.25.55.55,0,0,0,.43-.18,3.8,3.8,0,0,0,.32-.45v-2.33h1.24Z" style="fill: #fff" />
      <path d="M90.09,336.83a2.9,2.9,0,0,1-.53.21,2.54,2.54,0,0,1-.65.09c-.89,0-1.34-.49-1.34-1.48v-1.59H87v-.24l1.66-1.92h.15v1.19H90v1H88.82v1.28a1.89,1.89,0,0,0,0,.36.38.38,0,0,0,.13.22.49.49,0,0,0,.34.1,1.76,1.76,0,0,0,.78-.28Z" style="fill: #fff" />
    </g>
    <g>
      <path d="M21.57,132.92H19.73l-.48-1.37H16.66l-.49,1.37H14.33L17,126.15h2Zm-2.73-2.55L18,127.9l-.88,2.47Z" />
      <path d="M28.44,131a2,2,0,0,1-.29,1.1,1.84,1.84,0,0,1-.8.71,2.58,2.58,0,0,1-1.17.25l-.45,0a5.18,5.18,0,0,1-.72-.15,5.12,5.12,0,0,1-.92-.36v-1.66a6.42,6.42,0,0,0,.88.53,2.19,2.19,0,0,0,.94.21c.31,0,.5-.06.59-.18a.53.53,0,0,0,.14-.32.58.58,0,0,0-.23-.46,2.91,2.91,0,0,0-.68-.39,6.3,6.3,0,0,1-.86-.51,2.23,2.23,0,0,1-.6-.69,2,2,0,0,1-.23-1,2,2,0,0,1,.23-1,1.76,1.76,0,0,1,.72-.71,2.55,2.55,0,0,1,1.19-.26,3.8,3.8,0,0,1,.92.11,3,3,0,0,1,.7.25,3.32,3.32,0,0,1,.38.21v1.59a4.61,4.61,0,0,0-.82-.53,2,2,0,0,0-1-.24.66.66,0,0,0-.48.15.48.48,0,0,0-.15.36.49.49,0,0,0,.15.35,3,3,0,0,0,.54.35c.45.25.82.47,1.09.66a2.2,2.2,0,0,1,.65.68A1.74,1.74,0,0,1,28.44,131Z" />
      <path d="M33.72,132.92H32.17v-2.58a.07.07,0,0,1,0-.05v-.12a1.67,1.67,0,0,0-.13-.65.51.51,0,0,0-.51-.3.7.7,0,0,0-.52.22,2.56,2.56,0,0,0-.42.56v2.92H29.05v-6.77H30.6v2.51a2.1,2.1,0,0,1,.75-.63,2,2,0,0,1,.8-.17c1.05,0,1.57.67,1.57,2Z" />
      <path d="M38.83,132.67a5.56,5.56,0,0,1-.62.24,2,2,0,0,1-.69.1.71.71,0,0,1-.54-.16.8.8,0,0,1-.21-.37,2.4,2.4,0,0,1-.56.38,1.81,1.81,0,0,1-.8.15,1.49,1.49,0,0,1-.77-.19,1.08,1.08,0,0,1-.41-.47,1.52,1.52,0,0,1-.12-.59,1.29,1.29,0,0,1,.21-.76,1.42,1.42,0,0,1,.54-.49,6.92,6.92,0,0,1,.91-.4l.49-.18.25-.09.17-.09a1,1,0,0,0-.13-.57c-.08-.13-.27-.2-.56-.2a1.84,1.84,0,0,0-.94.25,3.27,3.27,0,0,0-.79.66v-1.35a2.65,2.65,0,0,1,.62-.38,3.38,3.38,0,0,1,.7-.23,4.63,4.63,0,0,1,.74-.07,2.12,2.12,0,0,1,1.43.42,1.44,1.44,0,0,1,.48,1.15v1.92a1.32,1.32,0,0,0,0,.4.18.18,0,0,0,.17.14.88.88,0,0,0,.39-.14Zm-2.15-.95v-1.18a3.78,3.78,0,0,0-.8.46.66.66,0,0,0-.26.55.56.56,0,0,0,.13.38.39.39,0,0,0,.3.13.54.54,0,0,0,.31-.1A3.33,3.33,0,0,0,36.68,131.72Z" />
      <path d="M43.77,130.4a3.83,3.83,0,0,1-.12,1,2.92,2.92,0,0,1-.38.84,1.79,1.79,0,0,1-.66.59,1.88,1.88,0,0,1-.93.22,1.75,1.75,0,0,1-.68-.11,1.83,1.83,0,0,1-.49-.27v2.55H39V128h1.55v.45A2.46,2.46,0,0,1,41,128a1.63,1.63,0,0,1,.76-.15,1.85,1.85,0,0,1,.94.27,2,2,0,0,1,.76.84A3.16,3.16,0,0,1,43.77,130.4Zm-1.63,0a1.89,1.89,0,0,0-.12-.73.91.91,0,0,0-.32-.41.81.81,0,0,0-.41-.12.83.83,0,0,0-.45.1,1.59,1.59,0,0,0-.33.25v1.9l.17.11a1.18,1.18,0,0,0,.19.11l.19.07a.85.85,0,0,0,.23,0,.73.73,0,0,0,.61-.35A1.71,1.71,0,0,0,42.14,130.44Z" />
      <path d="M48.71,130.86H45.63a1.27,1.27,0,0,0,1.24,1,3.8,3.8,0,0,0,1.73-.5v1.09a4.68,4.68,0,0,1-.83.36,3.83,3.83,0,0,1-1.23.17,2.7,2.7,0,0,1-1.37-.34,2.18,2.18,0,0,1-.85-.93,3,3,0,0,1-.28-1.33,2.9,2.9,0,0,1,.28-1.31,2.08,2.08,0,0,1,.85-.91,2.7,2.7,0,0,1,1.37-.33,2.22,2.22,0,0,1,1,.26,2,2,0,0,1,.82.86,3.22,3.22,0,0,1,.32,1.53ZM47.26,130a1.25,1.25,0,0,0-.21-.76.7.7,0,0,0-.6-.29.79.79,0,0,0-.63.29,1.15,1.15,0,0,0-.23.76Z" />
    </g>
    <path d="M40.74,87.65l1.12-2a21.73,21.73,0,0,0-9.12-2.44v2.25A19.77,19.77,0,0,1,40.74,87.65Z" />
    <path d="M48.32,94.5l2-1.12A22.13,22.13,0,0,0,43.6,86.7l-1.13,2A20,20,0,0,1,48.32,94.5Z" />
    <path d="M21,88.65l-1.13-2a22.17,22.17,0,0,0-6.68,6.68l1.95,1.12A20,20,0,0,1,21,88.65Z" />
    <path d="M51.46,104.23h2.26a21.89,21.89,0,0,0-2.45-9.12l-2,1.13A19.41,19.41,0,0,1,51.46,104.23Z" />
    <path d="M30.74,85.51V83.26a21.73,21.73,0,0,0-9.12,2.44l1.13,2A19.76,19.76,0,0,1,30.74,85.51Z" />
    <path d="M15.16,116l-1.95,1.12a22.17,22.17,0,0,0,6.68,6.68l1.13-2A19.93,19.93,0,0,1,15.16,116Z" />
    <path d="M42.47,121.81l1.13,2a22.13,22.13,0,0,0,6.67-6.68l-2-1.12A19.89,19.89,0,0,1,42.47,121.81Z" />
    <path d="M51.46,106.23a19.45,19.45,0,0,1-2.14,8l2,1.12a21.89,21.89,0,0,0,2.45-9.12Z" />
    <path d="M12,106.23H9.77a21.88,21.88,0,0,0,2.44,9.12l1.95-1.12A19.6,19.6,0,0,1,12,106.23Z" />
    <path d="M14.16,96.24l-1.95-1.13a21.88,21.88,0,0,0-2.44,9.12H12A19.55,19.55,0,0,1,14.16,96.24Z" />
    <g>
      <path d="M72.74,129.66a3.26,3.26,0,0,1-1.12,2.69,2.58,2.58,0,0,1-1.79.57H66.62v-6.77h2.47a5.39,5.39,0,0,1,1,.07,3.51,3.51,0,0,1,.71.18,2.47,2.47,0,0,1,.54.27,2.67,2.67,0,0,1,.4.32,2.74,2.74,0,0,1,.54.67,3.76,3.76,0,0,1,.36.89A4.32,4.32,0,0,1,72.74,129.66Zm-1.83-.09a2.58,2.58,0,0,0-.27-1.29,1.43,1.43,0,0,0-.67-.61,2,2,0,0,0-.79-.16h-.77v4h.77a2,2,0,0,0,1.22-.38A1.9,1.9,0,0,0,70.91,129.57Z" />
      <path d="M79.92,131a2,2,0,0,1-.29,1.1,1.81,1.81,0,0,1-.79.71,2.59,2.59,0,0,1-1.18.25l-.45,0a4.81,4.81,0,0,1-.71-.15,4.93,4.93,0,0,1-.93-.36v-1.66a6.5,6.5,0,0,0,.89.53,2.11,2.11,0,0,0,.93.21q.47,0,.6-.18a.51.51,0,0,0,.13-.32.55.55,0,0,0-.23-.46,2.82,2.82,0,0,0-.67-.39,5.28,5.28,0,0,1-.86-.51,2.14,2.14,0,0,1-.61-.69,2.06,2.06,0,0,1-.23-1,2,2,0,0,1,.24-1,1.65,1.65,0,0,1,.72-.71,2.51,2.51,0,0,1,1.18-.26,3.89,3.89,0,0,1,.93.11,2.87,2.87,0,0,1,.69.25,2.61,2.61,0,0,1,.38.21v1.59a4.19,4.19,0,0,0-.81-.53,2,2,0,0,0-1-.24.67.67,0,0,0-.49.15.48.48,0,0,0-.15.36.49.49,0,0,0,.15.35,3,3,0,0,0,.54.35c.46.25.82.47,1.1.66a2.46,2.46,0,0,1,.65.68A1.83,1.83,0,0,1,79.92,131Z" />
      <path d="M85.21,132.92H83.66v-2.75a1.51,1.51,0,0,0-.13-.65.51.51,0,0,0-.51-.3.7.7,0,0,0-.51.22,2.93,2.93,0,0,0-.43.56v2.92H80.53v-6.77h1.55v2.51a2.21,2.21,0,0,1,.76-.63,1.93,1.93,0,0,1,.79-.17c1.05,0,1.58.67,1.58,2Z" />
      <path d="M90.32,132.67a6.53,6.53,0,0,1-.63.24,2,2,0,0,1-.69.1.69.69,0,0,1-.53-.16.81.81,0,0,1-.22-.37,2.34,2.34,0,0,1-.55.38,1.84,1.84,0,0,1-.8.15,1.44,1.44,0,0,1-.77-.19,1,1,0,0,1-.42-.47,1.71,1.71,0,0,1-.11-.59,1.29,1.29,0,0,1,.2-.76,1.53,1.53,0,0,1,.55-.49,6.37,6.37,0,0,1,.91-.4l.49-.18.24-.09.18-.09a1.14,1.14,0,0,0-.13-.57.65.65,0,0,0-.56-.2,1.81,1.81,0,0,0-.94.25,3.31,3.31,0,0,0-.8.66v-1.35a2.52,2.52,0,0,1,.63-.38,3.19,3.19,0,0,1,.7-.23,4.51,4.51,0,0,1,.73-.07,2.11,2.11,0,0,1,1.43.42,1.44,1.44,0,0,1,.48,1.15v1.92a1.25,1.25,0,0,0,.05.4c0,.09.08.14.16.14a1,1,0,0,0,.4-.14Zm-2.15-.95v-1.18a3.9,3.9,0,0,0-.81.46.66.66,0,0,0-.25.55.52.52,0,0,0,.13.38.37.37,0,0,0,.29.13.57.57,0,0,0,.32-.1Z" />
      <path d="M95.26,130.4a3.83,3.83,0,0,1-.13,1,2.67,2.67,0,0,1-.38.84,1.79,1.79,0,0,1-.66.59,1.85,1.85,0,0,1-.93.22,1.78,1.78,0,0,1-.68-.11,2,2,0,0,1-.49-.27v2.55H90.44V128H92v.45a3.14,3.14,0,0,1,.51-.39,1.67,1.67,0,0,1,.77-.15,1.81,1.81,0,0,1,.93.27A2,2,0,0,1,95,129,3,3,0,0,1,95.26,130.4Zm-1.63,0a1.7,1.7,0,0,0-.13-.73.91.91,0,0,0-.32-.41.78.78,0,0,0-.41-.12.88.88,0,0,0-.45.1,1.59,1.59,0,0,0-.33.25v1.9l.17.11.19.11.2.07a.78.78,0,0,0,.22,0,.72.72,0,0,0,.61-.35A1.63,1.63,0,0,0,93.63,130.44Z" />
      <path d="M100.19,130.86H97.11a1.29,1.29,0,0,0,1.24,1,3.77,3.77,0,0,0,1.73-.5v1.09a4.56,4.56,0,0,1-.82.36A3.83,3.83,0,0,1,98,133a2.71,2.71,0,0,1-1.38-.34,2.24,2.24,0,0,1-.85-.93,3.16,3.16,0,0,1-.28-1.33,3,3,0,0,1,.28-1.31,2.13,2.13,0,0,1,.85-.91,2.71,2.71,0,0,1,1.38-.33,2.25,2.25,0,0,1,1,.26,2,2,0,0,1,.81.86,3.1,3.1,0,0,1,.32,1.53ZM98.74,130a1.25,1.25,0,0,0-.21-.76.7.7,0,0,0-.6-.29.78.78,0,0,0-.62.29,1.15,1.15,0,0,0-.24.76Z" />
    </g>
    <path d="M92.27,87.65l1.13-2a21.73,21.73,0,0,0-9.12-2.44v2.26A19.55,19.55,0,0,1,92.27,87.65Z" />
    <path d="M99.86,94.5l2-1.12a22.17,22.17,0,0,0-6.68-6.68l-1.13,2A20,20,0,0,1,99.86,94.5Z" />
    <path d="M72.55,88.65l-1.13-2a22.13,22.13,0,0,0-6.67,6.68l2,1.12A20,20,0,0,1,72.55,88.65Z" />
    <path d="M103,104.23h2.26a21.88,21.88,0,0,0-2.44-9.12l-2,1.13A19.55,19.55,0,0,1,103,104.23Z" />
    <path d="M82.28,85.52V83.26a21.73,21.73,0,0,0-9.12,2.44l1.12,2A19.6,19.6,0,0,1,82.28,85.52Z" />
    <path d="M66.7,116l-2,1.12a22.13,22.13,0,0,0,6.67,6.68l1.13-2A19.89,19.89,0,0,1,66.7,116Z" />
    <path d="M94,121.81l1.13,2a22.17,22.17,0,0,0,6.68-6.68l-2-1.12A19.93,19.93,0,0,1,94,121.81Z" />
    <path d="M103,106.23a19.6,19.6,0,0,1-2.13,8l2,1.12a21.88,21.88,0,0,0,2.44-9.12Z" />
    <path d="M63.56,106.23H61.3a21.89,21.89,0,0,0,2.45,9.12l2-1.12A19.45,19.45,0,0,1,63.56,106.23Z" />
    <path d="M65.7,96.24l-2-1.13a21.89,21.89,0,0,0-2.45,9.12h2.26A19.41,19.41,0,0,1,65.7,96.24Z" />
    <path d="M103,47.1h2.26A21.88,21.88,0,0,0,102.81,38l-2,1.12A19.6,19.6,0,0,1,103,47.1Z" />
    <path d="M103,49.1a19.55,19.55,0,0,1-2.13,8l2,1.13a21.88,21.88,0,0,0,2.44-9.12Z" />
    <g>
      <path d="M24.4,75.88H22.56l-.49-1.38H19.48L19,75.88H17.15l2.64-6.77h2Zm-2.74-2.55-.87-2.47-.88,2.47Z" />
      <path d="M28,75.59a3.17,3.17,0,0,1-.66.25,2.94,2.94,0,0,1-.81.12c-1.12,0-1.67-.61-1.67-1.85v-2h-.7v-.31l2.07-2.4h.18v1.49h1.48v1.22H26.44v1.59a2.81,2.81,0,0,0,0,.45.42.42,0,0,0,.17.28.62.62,0,0,0,.42.12,2.12,2.12,0,0,0,1-.35Z" />
      <path d="M31.81,75.59a3.17,3.17,0,0,1-.66.25,3.06,3.06,0,0,1-.81.12c-1.12,0-1.68-.61-1.68-1.85v-2H28v-.31L30,69.42h.18v1.49h1.47v1.22H30.22v1.59a2.81,2.81,0,0,0,0,.45.45.45,0,0,0,.16.28.67.67,0,0,0,.43.12,2.16,2.16,0,0,0,1-.35Z" />
      <path d="M36.67,75.63a5.56,5.56,0,0,1-.62.24,2.43,2.43,0,0,1-.7.09.75.75,0,0,1-.53-.15.85.85,0,0,1-.21-.37,2.4,2.4,0,0,1-.56.38,2,2,0,0,1-.8.14,1.49,1.49,0,0,1-.77-.18,1.11,1.11,0,0,1-.41-.48,1.48,1.48,0,0,1-.12-.59,1.31,1.31,0,0,1,.21-.76,1.51,1.51,0,0,1,.54-.49,8.8,8.8,0,0,1,.91-.39l.49-.18.25-.09.17-.09a1,1,0,0,0-.13-.57c-.08-.14-.27-.2-.56-.2a1.84,1.84,0,0,0-.94.25,3.46,3.46,0,0,0-.79.65V71.5a2.69,2.69,0,0,1,.62-.39,3.35,3.35,0,0,1,.7-.22,3.64,3.64,0,0,1,.74-.07,2.18,2.18,0,0,1,1.43.41,1.46,1.46,0,0,1,.48,1.15V74.3a1.39,1.39,0,0,0,0,.41.18.18,0,0,0,.17.14.8.8,0,0,0,.39-.15Zm-2.15-1V73.5a4.35,4.35,0,0,0-.8.45.68.68,0,0,0-.26.55.53.53,0,0,0,.13.38.41.41,0,0,0,.3.14.63.63,0,0,0,.31-.1A2.33,2.33,0,0,0,34.52,74.67Z" />
      <path d="M40.55,75.65l-.4.15a3.19,3.19,0,0,1-.49.12,3.52,3.52,0,0,1-.58,0,2.53,2.53,0,0,1-1.22-.27,2.15,2.15,0,0,1-.76-.7,2.45,2.45,0,0,1-.37-.85,2.72,2.72,0,0,1,0-1.53,2.6,2.6,0,0,1,.37-.84,2,2,0,0,1,.75-.68,2.54,2.54,0,0,1,1.23-.27,3,3,0,0,1,.79.08,4.12,4.12,0,0,1,.62.21v1.38a3.92,3.92,0,0,0-1.19-.28,1.07,1.07,0,0,0-.73.29,1.13,1.13,0,0,0-.32.88,1.24,1.24,0,0,0,.16.66,1,1,0,0,0,.4.4,1.16,1.16,0,0,0,.49.13,2.2,2.2,0,0,0,.53-.08c.2,0,.44-.13.72-.23Z" />
      <path d="M46.15,75.88h-2l-1.68-2.36v2.36H41V69.11h1.56v4L44,70.91H45.9l-1.71,2.31Z" />
    </g>
    <g>
      <path d="M40.85,30.52,42,28.57a21.73,21.73,0,0,0-9.12-2.44v2.25A19.77,19.77,0,0,1,40.85,30.52Z" />
      <path d="M48.43,37.37l2-1.12a22.17,22.17,0,0,0-6.68-6.68l-1.12,1.95A19.89,19.89,0,0,1,48.43,37.37Z" />
      <path d="M21.12,31.52,20,29.57a22.17,22.17,0,0,0-6.68,6.68l1.95,1.12A19.89,19.89,0,0,1,21.12,31.52Z" />
      <path d="M51.57,47.1h2.26A21.89,21.89,0,0,0,51.38,38l-2,1.12A19.81,19.81,0,0,1,51.57,47.1Z" />
      <path d="M30.85,28.38V26.13a21.73,21.73,0,0,0-9.12,2.44l1.13,1.95A19.72,19.72,0,0,1,30.85,28.38Z" />
      <path d="M15.27,58.83,13.32,60A22.17,22.17,0,0,0,20,66.63l1.12-1.95A19.89,19.89,0,0,1,15.27,58.83Z" />
      <path d="M42.58,64.68l1.12,1.95A22.17,22.17,0,0,0,50.38,60l-2-1.12A19.89,19.89,0,0,1,42.58,64.68Z" />
      <path d="M51.57,49.1a19.81,19.81,0,0,1-2.14,8l2,1.12a21.89,21.89,0,0,0,2.45-9.12Z" />
      <path d="M12.13,49.1H9.88a21.73,21.73,0,0,0,2.44,9.12l1.95-1.13A19.72,19.72,0,0,1,12.13,49.1Z" />
      <path d="M14.27,39.1,12.32,38A21.73,21.73,0,0,0,9.88,47.1h2.25A19.81,19.81,0,0,1,14.27,39.1Z" />
    </g>
    <g>
      <path d="M77.17,72.61a3.59,3.59,0,0,1-.33,1.67,3.44,3.44,0,0,1-.78,1,2.57,2.57,0,0,1-1.79.58H71.05V69.11h2.48a6.41,6.41,0,0,1,1,.06,4.17,4.17,0,0,1,.72.19,2.72,2.72,0,0,1,.54.27,2.55,2.55,0,0,1,.4.32,3,3,0,0,1,.53.67,3.13,3.13,0,0,1,.37.89A4.31,4.31,0,0,1,77.17,72.61Zm-1.82-.08a2.47,2.47,0,0,0-.28-1.29,1.44,1.44,0,0,0-.66-.62,2.22,2.22,0,0,0-.8-.15h-.76v4h.76a2,2,0,0,0,1.22-.38A1.83,1.83,0,0,0,75.35,72.53Z" />
      <path d="M82.16,73.82H79.08a1.27,1.27,0,0,0,1.24,1,3.8,3.8,0,0,0,1.73-.5v1.09a4.56,4.56,0,0,1-.82.36A3.86,3.86,0,0,1,80,76a2.62,2.62,0,0,1-1.38-.34,2.12,2.12,0,0,1-.85-.93,3.12,3.12,0,0,1-.28-1.32,3,3,0,0,1,.28-1.31,2.08,2.08,0,0,1,.85-.91A2.71,2.71,0,0,1,80,70.82a2.13,2.13,0,0,1,1,.26,2,2,0,0,1,.81.85,3.16,3.16,0,0,1,.32,1.53ZM80.71,73a1.28,1.28,0,0,0-.21-.77.7.7,0,0,0-.6-.28.74.74,0,0,0-.62.29A1.14,1.14,0,0,0,79,73Z" />
      <path d="M86.32,75.65l-.41.15a2.8,2.8,0,0,1-.48.12,3.65,3.65,0,0,1-.59,0,2.49,2.49,0,0,1-1.21-.27,2.18,2.18,0,0,1-.77-.7,2.65,2.65,0,0,1-.37-.85,3,3,0,0,1,0-1.53,2.6,2.6,0,0,1,.37-.84,2,2,0,0,1,.76-.68,2.53,2.53,0,0,1,1.22-.27,2.91,2.91,0,0,1,.79.08,4.12,4.12,0,0,1,.62.21v1.38a3.87,3.87,0,0,0-1.18-.28,1.1,1.1,0,0,0-.74.29,1.12,1.12,0,0,0-.31.88,1.34,1.34,0,0,0,.15.66,1,1,0,0,0,.41.4,1.09,1.09,0,0,0,.49.13,2.27,2.27,0,0,0,.53-.08c.19,0,.44-.13.72-.23Z" />
      <path d="M91.26,75.63a6.53,6.53,0,0,1-.63.24,2.31,2.31,0,0,1-.69.09.76.76,0,0,1-.54-.15.85.85,0,0,1-.21-.37,2.4,2.4,0,0,1-.56.38,2,2,0,0,1-.79.14,1.5,1.5,0,0,1-.78-.18,1.11,1.11,0,0,1-.41-.48,1.48,1.48,0,0,1-.12-.59,1.31,1.31,0,0,1,.21-.76,1.54,1.54,0,0,1,.55-.49,7.23,7.23,0,0,1,.91-.39l.48-.18.25-.09.17-.09a1,1,0,0,0-.13-.57c-.08-.14-.27-.2-.55-.2a1.85,1.85,0,0,0-1,.25,3.69,3.69,0,0,0-.79.65V71.5a2.69,2.69,0,0,1,.62-.39,3.55,3.55,0,0,1,.7-.22,3.71,3.71,0,0,1,.74-.07,2.18,2.18,0,0,1,1.43.41,1.46,1.46,0,0,1,.48,1.15V74.3a1.08,1.08,0,0,0,0,.41c0,.09.08.14.16.14a.87.87,0,0,0,.4-.15Zm-2.16-1V73.5a4.72,4.72,0,0,0-.8.45.67.67,0,0,0-.25.55.52.52,0,0,0,.12.38.42.42,0,0,0,.3.14.63.63,0,0,0,.31-.1A2.33,2.33,0,0,0,89.1,74.67Z" />
      <path d="M96.08,70.91l-3,7.23H91.54l1.2-2.91L91,70.91h1.66l.89,2.47,1-2.47Z" />
    </g>
    <path d="M92.27,30.52l1.13-1.95a21.73,21.73,0,0,0-9.12-2.44v2.25A19.72,19.72,0,0,1,92.27,30.52Z" />
    <path d="M99.86,37.37l2-1.12a22.17,22.17,0,0,0-6.68-6.68L94,31.52A19.93,19.93,0,0,1,99.86,37.37Z" />
    <path d="M72.55,31.52l-1.13-1.95a22.13,22.13,0,0,0-6.67,6.68l2,1.12A19.89,19.89,0,0,1,72.55,31.52Z" />
    <path d="M82.28,28.38V26.13a21.73,21.73,0,0,0-9.12,2.44l1.12,1.95A19.77,19.77,0,0,1,82.28,28.38Z" />
    <path d="M66.7,58.83l-2,1.12a22.13,22.13,0,0,0,6.67,6.68l1.13-1.95A19.89,19.89,0,0,1,66.7,58.83Z" />
    <path d="M94,64.68l1.13,1.95A22.17,22.17,0,0,0,101.81,60l-2-1.12A19.93,19.93,0,0,1,94,64.68Z" />
    <path d="M63.56,49.1H61.3a21.89,21.89,0,0,0,2.45,9.12l2-1.13A19.41,19.41,0,0,1,63.56,49.1Z" />
    <path d="M65.7,39.1l-2-1.12A21.89,21.89,0,0,0,61.3,47.1h2.26A19.45,19.45,0,0,1,65.7,39.1Z" />
  </g>
  <g /></svg>