<svg xmlns="http://www.w3.org/2000/svg" width="20.41mm" height="130.6mm" viewBox="0 0 57.85 370.19">
  <defs>
    <clipPath id="clip-path">
      <rect x="15.02" y="81.11" width="27.8" height="25.62" style="fill: none" />
    </clipPath>
    <clipPath id="clip-path-2">
      <rect x="15.02" y="81.11" width="27.8" height="25.62" style="fill: none" />
    </clipPath>
    <clipPath id="clip-path-3">
      <rect x="15.02" y="33.3" width="27.8" height="25.62" style="fill: none" />
    </clipPath>
  </defs>
  <g id="faceplate">
    <rect x="0.13" y="0.13" width="57.6" height="364.25" style="fill: #ededed;stroke: #9d9d9e;stroke-miterlimit: 10;stroke-width: 0.25px" />
    <g id="pips_-_fewest" data-name="pips - fewest">
      <g style="clip-path: url(#clip-path)">
        <g style="clip-path: url(#clip-path-2)">
          <path d="M34.62,83.89l.71-1.24a13.86,13.86,0,0,0-5.77-1.54v1.42a12.56,12.56,0,0,1,5.06,1.36" />
          <path d="M39.41,88.22l1.24-.71a14,14,0,0,0-4.23-4.22l-.71,1.23a12.55,12.55,0,0,1,3.7,3.7" />
          <path d="M22.14,84.52l-.71-1.23a14,14,0,0,0-4.23,4.22l1.24.71a12.55,12.55,0,0,1,3.7-3.7" />
          <path d="M41.4,94.38h1.43a13.83,13.83,0,0,0-1.55-5.77l-1.23.71a12.47,12.47,0,0,1,1.35,5.06" />
          <path d="M28.29,82.53V81.11a13.86,13.86,0,0,0-5.77,1.54l.71,1.24a12.56,12.56,0,0,1,5.06-1.36" />
          <path d="M18.44,101.8l-1.24.71a14.07,14.07,0,0,0,4.23,4.22l.71-1.23a12.67,12.67,0,0,1-3.7-3.7" />
          <path d="M35.71,105.5l.71,1.23a14.07,14.07,0,0,0,4.23-4.22l-1.24-.71a12.67,12.67,0,0,1-3.7,3.7" />
          <path d="M41.4,95.64a12.47,12.47,0,0,1-1.35,5.06l1.23.71a13.83,13.83,0,0,0,1.55-5.77Z" />
          <path d="M16.45,95.64H15a13.83,13.83,0,0,0,1.55,5.77l1.23-.71a12.47,12.47,0,0,1-1.35-5.06" />
          <path d="M17.8,89.32l-1.23-.71A13.83,13.83,0,0,0,15,94.38h1.43a12.47,12.47,0,0,1,1.35-5.06" />
        </g>
      </g>
    </g>
    <g>
      <path d="M16.23,357.56H14.34l-.5-1.51H11.19l-.5,1.51H8.8l2.7-7.44h2Zm-2.81-2.8L12.53,352l-.91,2.72Z" />
      <path d="M22.89,351.93H20.65v5.63H18.82v-5.63H16.58v-1.81h6.31Z" />
      <path d="M29.94,350.12l-2.75,7.54H26l-2.7-7.54h1.92l1.39,4.29L28,350.12Z" />
      <path d="M35.38,357.56h-4.6v-7.44H35.3v1.49H32.62V353h2.56v1.5H32.62v1.59h2.76Z" />
      <path d="M42.52,357.56h-2l-.48-1.32a5.61,5.61,0,0,0-.47-1.06,1.13,1.13,0,0,0-.41-.43,1.31,1.31,0,0,0-.52-.09h-.21v2.9H36.61v-7.44h3.13a2,2,0,0,1,1.24.37,2.09,2.09,0,0,1,.7.92,2.76,2.76,0,0,1,.22,1,2.27,2.27,0,0,1-.18.95,1.81,1.81,0,0,1-.38.57c-.13.11-.28.23-.44.34a1.86,1.86,0,0,1,.48.49,6.6,6.6,0,0,1,.52,1.16ZM40,352.47a.83.83,0,0,0-.28-.72,1.5,1.5,0,0,0-.9-.2h-.39v1.79h.4a1.67,1.67,0,0,0,.92-.18A.79.79,0,0,0,40,352.47Z" />
      <path d="M49.21,351.93H47v5.63H45.14v-5.63H42.9v-1.81h6.31Z" />
    </g>
    <g>
      <path d="M14.05,165.79a14.87,14.87,0,0,1,15.09-14.63,14.86,14.86,0,0,1,15.08,14.63V279.48a14.86,14.86,0,0,1-15.08,14.63,14.87,14.87,0,0,1-15.09-14.63Z" style="fill: none;stroke: #231f20;stroke-width: 1.05091px" />
      <path d="M44.73,261.73c0-8.08-7-14.63-15.59-14.63s-15.59,6.55-15.59,14.63v55.1h0v19.85a5.68,5.68,0,0,0,5.67,5.67H39.06a5.68,5.68,0,0,0,5.67-5.67V316.83h0Z" />
    </g>
    <g>
      <path d="M25,194H23.61v-5.41H25Z" />
      <path d="M29.5,194H28.26v-2.14a1.62,1.62,0,0,0-.09-.57.4.4,0,0,0-.42-.25.44.44,0,0,0-.26.07.83.83,0,0,0-.21.16l-.15.2-.13.2V194H25.76v-4H27v.57a1.75,1.75,0,0,1,.59-.5,1.38,1.38,0,0,1,.65-.14q1.26,0,1.26,1.71Z" />
      <path d="M34.11,194h-1.3v-5.41h1.3Z" />
    </g>
    <g>
      <path d="M25,240.18H23.61v-5.41H25Z" />
      <path d="M29.5,240.18H28.26V238a1.62,1.62,0,0,0-.09-.57.4.4,0,0,0-.42-.25.44.44,0,0,0-.26.07.83.83,0,0,0-.21.16l-.15.2-.13.2v2.33H25.76v-4H27v.57a1.87,1.87,0,0,1,.59-.5,1.38,1.38,0,0,1,.65-.14q1.26,0,1.26,1.71Z" />
      <path d="M35.28,240.18H31.66v-.1c.14-.16.3-.34.46-.55l.65-.85.34-.47a2.68,2.68,0,0,0,.27-.45,2.89,2.89,0,0,0,.2-.47,2,2,0,0,0,.08-.54,1,1,0,0,0-.19-.61.62.62,0,0,0-.49-.23,1.57,1.57,0,0,0-1.16.69v-1.28l.33-.24a2.14,2.14,0,0,1,.3-.17,1.77,1.77,0,0,1,.41-.15,2,2,0,0,1,.5-.06,1.5,1.5,0,0,1,.79.2,1.39,1.39,0,0,1,.57.58,1.92,1.92,0,0,1,.2.89,2.41,2.41,0,0,1-.09.67,3,3,0,0,1-.19.5l-.27.48c-.2.33-.41.65-.63.95h1.54Z" />
    </g>
    <g>
      <path d="M25.51,287.28a3.21,3.21,0,0,1-.3,1.39,2.42,2.42,0,0,1-.92,1,3.08,3.08,0,0,1-3,0,2.42,2.42,0,0,1-.9-1,3.18,3.18,0,0,1-.3-1.36,3.3,3.3,0,0,1,.29-1.37,2.42,2.42,0,0,1,.91-1,2.75,2.75,0,0,1,1.5-.39,3,3,0,0,1,1.18.22,2.42,2.42,0,0,1,.85.6,2.6,2.6,0,0,1,.5.89A3.16,3.16,0,0,1,25.51,287.28Zm-1.46,0a1.94,1.94,0,0,0-.08-.56,1.11,1.11,0,0,0-.24-.44,1.05,1.05,0,0,0-.39-.29,1.25,1.25,0,0,0-.53-.1,1.15,1.15,0,0,0-.91.38,1.7,1.7,0,0,0,0,2,1.15,1.15,0,0,0,.91.39,1.2,1.2,0,0,0,.67-.18,1.14,1.14,0,0,0,.43-.49A1.81,1.81,0,0,0,24.05,287.28Z" style="fill: #fff" />
      <path d="M29.61,290H28.37v-.57a2,2,0,0,1-.55.48,1.46,1.46,0,0,1-.69.16,1,1,0,0,1-1-.53,2.8,2.8,0,0,1-.24-1.18V286h1.24v2.15a1.48,1.48,0,0,0,.1.57.39.39,0,0,0,.41.24.58.58,0,0,0,.43-.17,3.8,3.8,0,0,0,.32-.45V286h1.24Z" style="fill: #fff" />
      <path d="M32.88,289.76a3,3,0,0,1-.53.2,2.5,2.5,0,0,1-.65.1c-.89,0-1.33-.5-1.33-1.49V287h-.56v-.25l1.66-1.92h.14V286h1.18v1H31.61v1.27a1.84,1.84,0,0,0,0,.36.37.37,0,0,0,.14.23.51.51,0,0,0,.34.09,1.65,1.65,0,0,0,.77-.28Z" style="fill: #fff" />
      <path d="M37.3,290H36v-5.42H37.3Z" style="fill: #fff" />
    </g>
    <g>
      <path d="M25.51,334.53a3.26,3.26,0,0,1-.3,1.4,2.42,2.42,0,0,1-.92,1,3.11,3.11,0,0,1-3,0,2.39,2.39,0,0,1-.9-1,3.19,3.19,0,0,1-.3-1.37,3.29,3.29,0,0,1,.29-1.36,2.38,2.38,0,0,1,.91-1,2.75,2.75,0,0,1,1.5-.39A3,3,0,0,1,24,332a2.42,2.42,0,0,1,.85.6,2.6,2.6,0,0,1,.5.89A3.14,3.14,0,0,1,25.51,334.53Zm-1.46,0A1.87,1.87,0,0,0,24,334a1.11,1.11,0,0,0-.24-.44,1.05,1.05,0,0,0-.39-.29,1.25,1.25,0,0,0-.53-.1,1.12,1.12,0,0,0-.91.38,1.47,1.47,0,0,0-.33,1,1.5,1.5,0,0,0,.33,1,1.14,1.14,0,0,0,.91.38,1.28,1.28,0,0,0,.67-.17,1.17,1.17,0,0,0,.43-.5A1.81,1.81,0,0,0,24.05,334.53Z" style="fill: #fff" />
      <path d="M29.61,337.24H28.37v-.56a2,2,0,0,1-.55.48,1.47,1.47,0,0,1-.69.15,1,1,0,0,1-1-.52,2.84,2.84,0,0,1-.24-1.19v-2.33h1.24v2.15a1.4,1.4,0,0,0,.1.56.39.39,0,0,0,.41.25.55.55,0,0,0,.43-.18,3.12,3.12,0,0,0,.32-.45v-2.33h1.24Z" style="fill: #fff" />
      <path d="M32.88,337a2.9,2.9,0,0,1-.53.21,2.48,2.48,0,0,1-.65.09c-.89,0-1.33-.49-1.33-1.48v-1.59h-.56V334l1.66-1.92h.14v1.19h1.18v1H31.61v1.28a1.84,1.84,0,0,0,0,.36.35.35,0,0,0,.14.22.46.46,0,0,0,.34.1,1.77,1.77,0,0,0,.77-.28Z" style="fill: #fff" />
      <path d="M38.47,337.24H34.85v-.1l.46-.55.64-.85c.12-.16.24-.32.34-.47a3.68,3.68,0,0,0,.28-.45,2.67,2.67,0,0,0,.19-.48,1.89,1.89,0,0,0,.08-.53.93.93,0,0,0-.19-.61.62.62,0,0,0-.49-.23,1.59,1.59,0,0,0-1.16.69v-1.28l.33-.24a2.14,2.14,0,0,1,.3-.17,2.23,2.23,0,0,1,.91-.22,1.57,1.57,0,0,1,.8.21,1.37,1.37,0,0,1,.56.58,1.8,1.8,0,0,1,.2.89,2.41,2.41,0,0,1-.09.67,2.29,2.29,0,0,1-.19.5l-.27.48a8.69,8.69,0,0,1-.63.95h1.55Z" style="fill: #fff" />
    </g>
    <path d="M31.2,118.58H26.67v-.14c.18-.19.37-.42.58-.68l.8-1.06c.16-.2.3-.4.43-.59a4.93,4.93,0,0,0,.34-.56,2.69,2.69,0,0,0,.24-.6,2.18,2.18,0,0,0,.1-.67,1.17,1.17,0,0,0-.24-.76.74.74,0,0,0-.6-.29,2,2,0,0,0-1.46.86V112.5l.42-.3a2.24,2.24,0,0,1,.38-.22,3.51,3.51,0,0,1,.5-.19,2.59,2.59,0,0,1,.63-.07,2,2,0,0,1,1,.25,1.8,1.8,0,0,1,.7.72,2.34,2.34,0,0,1,.25,1.12,3.34,3.34,0,0,1-.11.84,3.67,3.67,0,0,1-.24.62l-.33.6c-.25.41-.51.81-.79,1.19H31.2Z" />
    <g id="pips_-_fewest-2" data-name="pips - fewest">
      <g style="clip-path: url(#clip-path-3)">
        <g style="clip-path: url(#clip-path-3)">
          <path d="M34.62,36.08l.71-1.24a13.86,13.86,0,0,0-5.77-1.54v1.43a12.39,12.39,0,0,1,5.06,1.35" />
          <path d="M39.41,40.41l1.24-.71a14,14,0,0,0-4.23-4.22l-.71,1.23a12.55,12.55,0,0,1,3.7,3.7" />
          <path d="M22.14,36.71l-.71-1.23A14.07,14.07,0,0,0,17.2,39.7l1.24.71a12.67,12.67,0,0,1,3.7-3.7" />
          <path d="M41.4,46.57h1.43a13.83,13.83,0,0,0-1.55-5.77l-1.23.71a12.47,12.47,0,0,1,1.35,5.06" />
          <path d="M28.29,34.73V33.3a13.86,13.86,0,0,0-5.77,1.54l.71,1.24a12.39,12.39,0,0,1,5.06-1.35" />
          <path d="M18.44,54l-1.24.71a14,14,0,0,0,4.23,4.22l.71-1.23a12.55,12.55,0,0,1-3.7-3.7" />
          <path d="M35.71,57.69l.71,1.23a14,14,0,0,0,4.23-4.22L39.41,54a12.55,12.55,0,0,1-3.7,3.7" />
          <path d="M41.4,47.83a12.47,12.47,0,0,1-1.35,5.06l1.23.71a13.83,13.83,0,0,0,1.55-5.77Z" />
          <path d="M16.45,47.83H15a13.83,13.83,0,0,0,1.55,5.77l1.23-.71a12.47,12.47,0,0,1-1.35-5.06" />
          <path d="M17.8,41.51l-1.23-.71A13.83,13.83,0,0,0,15,46.57h1.43a12.47,12.47,0,0,1,1.35-5.06" />
        </g>
      </g>
    </g>
    <path d="M29.88,69.9H28.25V63.13h1.63Z" />
    <g>
      <path d="M34.54,6.76l-5.53,7v-6a1.27,1.27,0,0,0-.64-1.17.89.89,0,0,0-1.13.29L20,16.13a1.49,1.49,0,0,0,0,1.79.9.9,0,0,0,1.46,0l5.5-7v6a1.29,1.29,0,0,0,.64,1.18.92.92,0,0,0,1.14-.3l5.53-7v6.15a1.05,1.05,0,1,0,2.06,0V7.64a1.28,1.28,0,0,0-.65-1.18A.91.91,0,0,0,34.54,6.76Z" style="stroke: #000;stroke-width: 0.6000000000000001px" />
      <path d="M20,6.68l-4.81,6.13a1.47,1.47,0,0,0,0,1.79.9.9,0,0,0,1.46,0l3.05-3.87V17a1.17,1.17,0,0,0,1,1.26,1.17,1.17,0,0,0,1-1.26V7.56a1.29,1.29,0,0,0-.65-1.17A.91.91,0,0,0,20,6.68Z" style="stroke: #000;stroke-width: 0.6000000000000001px" />
      <path d="M42.91,11.2a1.05,1.05,0,0,0-.95-.77h-2.1l1.53-1.95s.8-1.17.1-1.82a1.27,1.27,0,0,0-1.58.06l-3.23,4.1a1.45,1.45,0,0,0-.2,1.37,1,1,0,0,0,1,.78h2.1L37,16.14s-1,1.13-.27,1.89,1.75-.14,1.75-.14l4.18-5.31A1.5,1.5,0,0,0,42.91,11.2Z" style="stroke: #000;stroke-width: 0.6000000000000001px" />
    </g>
  </g>
  <g /></svg>