<svg xmlns="http://www.w3.org/2000/svg" width="20.41mm" height="130.6mm" viewBox="0 0 57.85 370.19">
  <defs>
    <clipPath id="clip-path">
      <rect x="15.02" y="32.85" width="27.8" height="25.62" style="fill: none" />
    </clipPath>
    <clipPath id="clip-path-3">
      <rect x="15.02" y="80.65" width="27.8" height="25.62" style="fill: none" />
    </clipPath>
  </defs>
  <g id="faceplate">
    <rect x="0.13" y="0.13" width="57.6" height="364.25" style="fill: #ededed;stroke: #9d9d9e;stroke-miterlimit: 10;stroke-width: 0.25px" />
    <g id="pips_-_fewest" data-name="pips - fewest">
      <g style="clip-path: url(#clip-path)">
        <g style="clip-path: url(#clip-path)">
          <path d="M34.62,35.63l.71-1.24a13.86,13.86,0,0,0-5.77-1.54v1.43a12.39,12.39,0,0,1,5.06,1.35" />
          <path d="M39.41,40l1.24-.71A14,14,0,0,0,36.42,35l-.71,1.23a12.55,12.55,0,0,1,3.7,3.7" />
          <path d="M22.14,36.26,21.43,35a14,14,0,0,0-4.23,4.22l1.24.71a12.55,12.55,0,0,1,3.7-3.7" />
          <path d="M41.4,46.12h1.43a13.83,13.83,0,0,0-1.55-5.77l-1.23.71a12.47,12.47,0,0,1,1.35,5.06" />
          <path d="M28.29,34.28V32.85a13.86,13.86,0,0,0-5.77,1.54l.71,1.24a12.39,12.39,0,0,1,5.06-1.35" />
          <path d="M18.44,53.54l-1.24.71a14,14,0,0,0,4.23,4.22l.71-1.23a12.55,12.55,0,0,1-3.7-3.7" />
          <path d="M35.71,57.24l.71,1.23a14,14,0,0,0,4.23-4.22l-1.24-.71a12.55,12.55,0,0,1-3.7,3.7" />
          <path d="M41.4,47.38a12.47,12.47,0,0,1-1.35,5.06l1.23.71a13.83,13.83,0,0,0,1.55-5.77Z" />
          <path d="M16.45,47.38H15a13.83,13.83,0,0,0,1.55,5.77l1.23-.71a12.47,12.47,0,0,1-1.35-5.06" />
          <path d="M17.8,41.06l-1.23-.71A13.83,13.83,0,0,0,15,46.12h1.43a12.47,12.47,0,0,1,1.35-5.06" />
        </g>
      </g>
    </g>
    <g id="pips_-_fewest-2" data-name="pips - fewest">
      <g style="clip-path: url(#clip-path-3)">
        <g style="clip-path: url(#clip-path-3)">
          <path d="M34.62,83.43l.71-1.23a14,14,0,0,0-5.77-1.55v1.43a12.55,12.55,0,0,1,5.06,1.35" />
          <path d="M39.41,87.77l1.24-.71a14,14,0,0,0-4.23-4.23l-.71,1.24a12.55,12.55,0,0,1,3.7,3.7" />
          <path d="M22.14,84.07l-.71-1.24a14,14,0,0,0-4.23,4.23l1.24.71a12.55,12.55,0,0,1,3.7-3.7" />
          <path d="M41.4,93.92h1.43a13.87,13.87,0,0,0-1.55-5.77l-1.23.72a12.46,12.46,0,0,1,1.35,5" />
          <path d="M28.29,82.08V80.66a13.86,13.86,0,0,0-5.77,1.54l.71,1.23a12.55,12.55,0,0,1,5.06-1.35" />
          <path d="M18.44,101.34l-1.24.72a14.07,14.07,0,0,0,4.23,4.22l.71-1.23a12.58,12.58,0,0,1-3.7-3.71" />
          <path d="M35.71,105.05l.71,1.23a14.07,14.07,0,0,0,4.23-4.22l-1.24-.72a12.58,12.58,0,0,1-3.7,3.71" />
          <path d="M41.4,95.19a12.51,12.51,0,0,1-1.35,5.06l1.23.71a13.87,13.87,0,0,0,1.55-5.77Z" />
          <path d="M16.45,95.19H15A13.87,13.87,0,0,0,16.57,101l1.23-.71a12.51,12.51,0,0,1-1.35-5.06" />
          <path d="M17.8,88.87l-1.23-.72A13.87,13.87,0,0,0,15,93.92h1.43a12.46,12.46,0,0,1,1.35-5" />
        </g>
      </g>
    </g>
    <g>
      <path d="M26.14,355a2.18,2.18,0,0,1-.54,1.54,2,2,0,0,1-1.5.57H20.57v-7.44h2.95a3.37,3.37,0,0,1,1,.13,1.77,1.77,0,0,1,.68.37,1.63,1.63,0,0,1,.39.55,1.93,1.93,0,0,1,.13.69,2.06,2.06,0,0,1-.14.76,1.73,1.73,0,0,1-.32.57,1.21,1.21,0,0,1-.4.31,2.5,2.5,0,0,1,1,.76A2.06,2.06,0,0,1,26.14,355ZM24,351.77c0-.36-.09-.6-.29-.71a1.73,1.73,0,0,0-.9-.18h-.39v1.78h.4a1.81,1.81,0,0,0,.9-.17A.79.79,0,0,0,24,351.77Zm.3,3.1c0-.64-.38-1-1.13-1h-.75v1.91h.75C23.91,355.82,24.29,355.5,24.29,354.87Z" />
      <path d="M32.61,352a2.79,2.79,0,0,1-.12.81,2.29,2.29,0,0,1-.37.73,1.91,1.91,0,0,1-.71.56,2.38,2.38,0,0,1-1,.21H29.16v2.79H27.32v-7.44h3.05a2.38,2.38,0,0,1,1,.21,2,2,0,0,1,.71.56,2.39,2.39,0,0,1,.37.75A2.86,2.86,0,0,1,32.61,352Zm-1.88,0a.88.88,0,0,0-.25-.73,1.63,1.63,0,0,0-.93-.19h-.39v1.79h.4a2.63,2.63,0,0,0,.71-.07.56.56,0,0,0,.35-.26A1,1,0,0,0,30.73,352Z" />
      <path d="M38,354.06H35.47v3H33.63v-7.44H38v1.49H35.47v1.44H38Z" />
    </g>
    <path d="M28.63,198.27c8,0,14.54,6.09,14.54,13.58v109.8c0,7.48-6.52,13.57-14.54,13.57s-14.54-6.09-14.54-13.57V211.85c0-7.49,6.53-13.58,14.54-13.58m0-1.05C20,197.22,13,203.77,13,211.85v109.8c0,8.08,7,14.63,15.59,14.63s15.59-6.55,15.59-14.63V211.85c0-8.08-7-14.63-15.59-14.63Z" />
    <g>
      <path d="M28.5,238.71a3,3,0,0,1-.6.28,3.6,3.6,0,0,1-.63.15,4.54,4.54,0,0,1-.65,0,3,3,0,0,1-1.11-.19,2.3,2.3,0,0,1-.86-.58,2.45,2.45,0,0,1-.54-.89,3.33,3.33,0,0,1-.18-1.12,3.28,3.28,0,0,1,.21-1.22,2.44,2.44,0,0,1,1.47-1.39,3.22,3.22,0,0,1,1-.16,4.89,4.89,0,0,1,1.84.41v1.43a5.09,5.09,0,0,0-.7-.41,1.86,1.86,0,0,0-.81-.17,1.61,1.61,0,0,0-.78.19,1.48,1.48,0,0,0-.58.53,1.61,1.61,0,0,0,0,1.57,1.4,1.4,0,0,0,.54.54,1.43,1.43,0,0,0,.77.2,2.39,2.39,0,0,0,.66-.09,3.25,3.25,0,0,0,.52-.22,4.28,4.28,0,0,0,.43-.27Z" />
      <path d="M33.85,233.7l-2.15,5.48h-.95l-2.11-5.48h1.5l1.09,3.13,1.12-3.13Z" />
    </g>
    <g>
      <path d="M21.57,288H20.13v-5.41h1.44Z" />
      <path d="M26,288H24.79v-2.14a1.42,1.42,0,0,0-.1-.57.39.39,0,0,0-.41-.25.5.5,0,0,0-.27.07.62.62,0,0,0-.2.16.94.94,0,0,0-.16.2l-.12.2V288H22.29v-4h1.24v.57a1.73,1.73,0,0,1,.58-.5,1.45,1.45,0,0,1,.66-.14c.83,0,1.25.57,1.25,1.71Z" />
      <path d="M30.33,286a3.32,3.32,0,0,1-.1.77,2.28,2.28,0,0,1-.31.67,1.47,1.47,0,0,1-.52.47,1.54,1.54,0,0,1-.75.17,1.34,1.34,0,0,1-.54-.08,1.92,1.92,0,0,1-.39-.22v2H26.48V284h1.24v.36a1.53,1.53,0,0,1,.41-.31,1.29,1.29,0,0,1,.61-.12,1.52,1.52,0,0,1,.75.21,1.65,1.65,0,0,1,.6.67A2.45,2.45,0,0,1,30.33,286ZM29,286a1.61,1.61,0,0,0-.1-.59.78.78,0,0,0-.26-.32.6.6,0,0,0-.33-.1.74.74,0,0,0-.36.08,1.21,1.21,0,0,0-.26.2v1.52l.13.09L28,287a.44.44,0,0,0,.16.06.57.57,0,0,0,.18,0,.58.58,0,0,0,.49-.29A1.29,1.29,0,0,0,29,286Z" />
      <path d="M34.37,288H33.14v-.56a1.94,1.94,0,0,1-.55.47,1.38,1.38,0,0,1-.69.16,1,1,0,0,1-1-.52,3,3,0,0,1-.23-1.19V284h1.24v2.14a1.62,1.62,0,0,0,.09.57.39.39,0,0,0,.41.25.54.54,0,0,0,.43-.18,2.92,2.92,0,0,0,.33-.45V284h1.23Z" />
      <path d="M37.65,287.75a3.23,3.23,0,0,1-.53.21,2.6,2.6,0,0,1-.65.09c-.89,0-1.34-.49-1.34-1.48V285h-.56v-.24l1.66-1.93h.14V284h1.18v1H36.37v1.28a1.86,1.86,0,0,0,0,.36.34.34,0,0,0,.13.22.49.49,0,0,0,.34.1,1.68,1.68,0,0,0,.78-.29Z" />
    </g>
    <g>
      <path d="M21.83,68.94a3.46,3.46,0,0,1-.76.35,4.43,4.43,0,0,1-.78.19,5.32,5.32,0,0,1-.81.06,3.64,3.64,0,0,1-1.4-.25A2.89,2.89,0,0,1,17,68.57a3.08,3.08,0,0,1-.68-1.11,4.15,4.15,0,0,1-.22-1.4,4.23,4.23,0,0,1,.26-1.53,3,3,0,0,1,.75-1.09,3.08,3.08,0,0,1,1.09-.64,4,4,0,0,1,1.29-.21,6.29,6.29,0,0,1,2.3.51v1.8a5.71,5.71,0,0,0-.87-.52,2.32,2.32,0,0,0-1-.21,2,2,0,0,0-1,.24,1.93,1.93,0,0,0-.73.66,2,2,0,0,0,0,2,1.75,1.75,0,0,0,.67.68,1.81,1.81,0,0,0,1,.25,2.71,2.71,0,0,0,.82-.12,3.11,3.11,0,0,0,.65-.27,4.84,4.84,0,0,0,.55-.34Z" />
      <path d="M27,69.45H25.49v-.71a2.36,2.36,0,0,1-.69.6,1.79,1.79,0,0,1-.86.2,1.24,1.24,0,0,1-1.28-.66,3.53,3.53,0,0,1-.3-1.48V64.48h1.55v2.68a2,2,0,0,0,.12.72.5.5,0,0,0,.52.3.67.67,0,0,0,.53-.22,3.39,3.39,0,0,0,.41-.56V64.48H27Z" />
      <path d="M31.13,69.16a3.92,3.92,0,0,1-.67.26,2.94,2.94,0,0,1-.81.12c-1.11,0-1.67-.62-1.67-1.86v-2h-.7v-.31L29.36,63h.17v1.49H31V65.7H29.53v1.59a2.64,2.64,0,0,0,0,.45.51.51,0,0,0,.17.29.71.71,0,0,0,.43.11,2.16,2.16,0,0,0,1-.35Z" />
      <path d="M36.28,67A2.94,2.94,0,0,1,36,68.28a2.1,2.1,0,0,1-.85.92,2.59,2.59,0,0,1-1.38.34,2.56,2.56,0,0,1-1.37-.34,2.1,2.1,0,0,1-.85-.92A2.94,2.94,0,0,1,31.27,67a3,3,0,0,1,.16-1,2.19,2.19,0,0,1,1.26-1.36,2.78,2.78,0,0,1,1.08-.19,3.09,3.09,0,0,1,1.1.19,2.1,2.1,0,0,1,.78.54,2.27,2.27,0,0,1,.47.81A3.09,3.09,0,0,1,36.28,67Zm-1.63,0a1.69,1.69,0,0,0-.22-.93.82.82,0,0,0-1.31,0,2.08,2.08,0,0,0,0,1.86.8.8,0,0,0,1.31,0A1.69,1.69,0,0,0,34.65,67Z" />
      <path d="M39.66,63.94a2.35,2.35,0,0,0-.57-.09.48.48,0,0,0-.39.18.9.9,0,0,0-.13.53v.18h.78v1.19h-.78v3.52H37V65.93H36.3V64.74H37v-.09a2.72,2.72,0,0,1,.18-1,1.68,1.68,0,0,1,.6-.77,1.84,1.84,0,0,1,1.1-.3,3.37,3.37,0,0,1,.77.09Z" />
      <path d="M42.56,63.94a2.35,2.35,0,0,0-.57-.09.46.46,0,0,0-.39.18.9.9,0,0,0-.14.53v.18h.78v1.19h-.78v3.52H39.91V65.93H39.2V64.74h.71v-.09a2.72,2.72,0,0,1,.18-1,1.72,1.72,0,0,1,.59-.77,1.86,1.86,0,0,1,1.1-.3,3.46,3.46,0,0,1,.78.09Z" />
    </g>
    <path d="M32.55,118.61l-1.26,1.31a10.62,10.62,0,0,1-1.47-.5,11,11,0,0,1-1.46-.78,4.15,4.15,0,0,1-.86-.68,3,3,0,0,1-.94-.62,3.16,3.16,0,0,1-.73-1.08,3.82,3.82,0,0,1-.29-1.52,4,4,0,0,1,.37-1.71,2.93,2.93,0,0,1,1.14-1.28,3.45,3.45,0,0,1,1.87-.49,3.72,3.72,0,0,1,1.5.29,3,3,0,0,1,1.06.77,3.45,3.45,0,0,1,.62,1.11,4.42,4.42,0,0,1,.2,1.31A4,4,0,0,1,32,116.2a3.15,3.15,0,0,1-.67,1.06,3.24,3.24,0,0,1-.94.67,6.59,6.59,0,0,0,1,.41,3.5,3.5,0,0,0,1.11.16Zm-2.08-3.87a2.19,2.19,0,0,0-.1-.7,1.72,1.72,0,0,0-.3-.55,1.39,1.39,0,0,0-.49-.36,1.69,1.69,0,0,0-.66-.13,1.44,1.44,0,0,0-1.14.48,1.89,1.89,0,0,0-.41,1.26,1.84,1.84,0,0,0,.42,1.25,1.4,1.4,0,0,0,1.13.48,1.5,1.5,0,0,0,.84-.22,1.43,1.43,0,0,0,.53-.61A2.19,2.19,0,0,0,30.47,114.74Z" />
    <path d="M44.22,308.21c0-8.08-7-14.63-15.59-14.63S13,300.13,13,308.21v8.11h0v19.84a5.68,5.68,0,0,0,5.67,5.67H38.55a5.68,5.68,0,0,0,5.67-5.67V316.32h0Z" />
    <g>
      <path d="M27.86,334.14a3.26,3.26,0,0,1-.3,1.4,2.42,2.42,0,0,1-.92,1,3.11,3.11,0,0,1-3,0,2.36,2.36,0,0,1-.9-1,3.11,3.11,0,0,1-.3-1.36,3.25,3.25,0,0,1,.29-1.36,2.38,2.38,0,0,1,.91-1,2.75,2.75,0,0,1,1.5-.39,3,3,0,0,1,1.18.23,2.3,2.3,0,0,1,.85.6,2.51,2.51,0,0,1,.5.89A3.1,3.1,0,0,1,27.86,334.14Zm-1.46,0a2,2,0,0,0-.08-.56,1.14,1.14,0,0,0-.24-.43,1,1,0,0,0-.39-.29,1.25,1.25,0,0,0-.53-.11,1.12,1.12,0,0,0-.91.39,1.47,1.47,0,0,0-.33,1,1.52,1.52,0,0,0,.33,1,1.18,1.18,0,0,0,.91.38,1.2,1.2,0,0,0,.67-.18,1.14,1.14,0,0,0,.43-.49A1.81,1.81,0,0,0,26.4,334.14Z" style="fill: #fff" />
      <path d="M32,336.85H30.72v-.56a1.82,1.82,0,0,1-.55.47,1.35,1.35,0,0,1-.69.16,1,1,0,0,1-1-.52,2.84,2.84,0,0,1-.24-1.19v-2.33h1.24V335a1.42,1.42,0,0,0,.1.57.4.4,0,0,0,.41.25.55.55,0,0,0,.43-.18,3.8,3.8,0,0,0,.32-.45v-2.33H32Z" style="fill: #fff" />
      <path d="M35.23,336.62a2.37,2.37,0,0,1-.53.2,2.14,2.14,0,0,1-.65.1c-.89,0-1.33-.49-1.33-1.48v-1.59h-.56v-.24l1.66-1.93H34v1.2h1.18v1H34v1.28a1.78,1.78,0,0,0,0,.35.35.35,0,0,0,.14.23.5.5,0,0,0,.33.09,1.64,1.64,0,0,0,.78-.28Z" style="fill: #fff" />
    </g>
    <g>
      <path d="M25.35,189.25H23.92v-3.13l-1.3,1.81h-.11l-1.3-1.81v3.13h-1.4v-5.41h1.3l1.47,2,1.47-2h1.3Z" />
      <path d="M29.94,187.26a2.39,2.39,0,0,1-.23,1.06,1.71,1.71,0,0,1-.68.73,2.11,2.11,0,0,1-1.1.27,2.09,2.09,0,0,1-1.1-.27,1.65,1.65,0,0,1-.68-.73,2.6,2.6,0,0,1-.1-1.88,1.86,1.86,0,0,1,.38-.65,1.65,1.65,0,0,1,.63-.43,2.6,2.6,0,0,1,1.74,0,1.76,1.76,0,0,1,.63.43,1.92,1.92,0,0,1,.38.65A2.66,2.66,0,0,1,29.94,187.26Zm-1.31,0a1.33,1.33,0,0,0-.18-.74.64.64,0,0,0-1,0,1.61,1.61,0,0,0,0,1.48.59.59,0,0,0,.52.28.57.57,0,0,0,.52-.28A1.31,1.31,0,0,0,28.63,187.26Z" />
      <path d="M34,189.25H32.76v-.36a1.75,1.75,0,0,1-.42.31,1.22,1.22,0,0,1-.6.12,1.52,1.52,0,0,1-.75-.21,1.58,1.58,0,0,1-.6-.67,2.48,2.48,0,0,1-.24-1.15,2.88,2.88,0,0,1,.18-1,1.73,1.73,0,0,1,.56-.77,1.44,1.44,0,0,1,.93-.29,1.48,1.48,0,0,1,.56.08,1.57,1.57,0,0,1,.38.22v-1.67H34ZM32.76,188v-1.52l-.34-.2a.65.65,0,0,0-.29-.06.56.56,0,0,0-.48.29,1.29,1.29,0,0,0-.2.76,1.16,1.16,0,0,0,.21.77.59.59,0,0,0,.47.24.74.74,0,0,0,.36-.08A2.34,2.34,0,0,0,32.76,188Z" />
      <path d="M38.09,187.6H35.62a1,1,0,0,0,1,.83A3,3,0,0,0,38,188v.87a3.42,3.42,0,0,1-.66.29,3,3,0,0,1-1,.13,2.11,2.11,0,0,1-1.1-.27,1.67,1.67,0,0,1-.68-.74,2.43,2.43,0,0,1-.23-1.06,2.32,2.32,0,0,1,.23-1.05,1.65,1.65,0,0,1,.68-.73,2.11,2.11,0,0,1,1.1-.26,1.75,1.75,0,0,1,.82.21,1.53,1.53,0,0,1,.65.68,2.57,2.57,0,0,1,.26,1.22Zm-1.16-.69a1,1,0,0,0-.17-.61.56.56,0,0,0-.48-.23.63.63,0,0,0-.5.23.93.93,0,0,0-.19.61Z" />
    </g>
    <g>
      <path d="M34.54,6.76l-5.53,7v-6a1.27,1.27,0,0,0-.64-1.17.89.89,0,0,0-1.13.29L20,16.13a1.49,1.49,0,0,0,0,1.79.9.9,0,0,0,1.46,0l5.5-7v6a1.29,1.29,0,0,0,.64,1.18.92.92,0,0,0,1.14-.3l5.53-7v6.15a1.05,1.05,0,1,0,2.06,0V7.64a1.28,1.28,0,0,0-.65-1.18A.91.91,0,0,0,34.54,6.76Z" style="stroke: #000;stroke-width: 0.6000000000000001px" />
      <path d="M20,6.68l-4.81,6.13a1.47,1.47,0,0,0,0,1.79.9.9,0,0,0,1.46,0l3.05-3.87V17a1.17,1.17,0,0,0,1,1.26,1.17,1.17,0,0,0,1-1.26V7.56a1.29,1.29,0,0,0-.65-1.17A.91.91,0,0,0,20,6.68Z" style="stroke: #000;stroke-width: 0.6000000000000001px" />
      <path d="M42.91,11.2a1.05,1.05,0,0,0-.95-.77h-2.1l1.53-1.95s.8-1.17.1-1.82a1.27,1.27,0,0,0-1.58.06l-3.23,4.1a1.45,1.45,0,0,0-.2,1.37,1,1,0,0,0,1,.78h2.1L37,16.14s-1,1.13-.27,1.89,1.75-.14,1.75-.14l4.18-5.31A1.5,1.5,0,0,0,42.91,11.2Z" style="stroke: #000;stroke-width: 0.6000000000000001px" />
    </g>
  </g>
  <g /></svg>