<svg xmlns="http://www.w3.org/2000/svg" width="15.33mm" height="130.74mm" viewBox="0 0 43.45 370.59">
  <g id="faceplate">
    <rect x=".12" y=".12" width="43.2" height="364.25" style="fill: #ededed; stroke: #9d9d9e; stroke-width: .25px;" />
    <g>
      <g>
        <path d="m26.77,332.83s-3.3,4.19-5.22,6.64v-5.69c0-.49-.24-.92-.61-1.11-.37-.18-.79-.07-1.07.28l-6.87,8.73c-.38.47-.36,1.23.03,1.69.39.46,1,.44,1.38-.03,0,0,3.28-4.16,5.19-6.59v5.69c0,.49.24.93.61,1.11.37.18.79.07,1.07-.28,0,0,3.3-4.2,5.22-6.64v5.81c0,.66.43,1.2.97,1.2s.97-.53.97-1.2v-8.77c0-.49-.24-.92-.61-1.11-.37-.18-.79-.07-1.06.28Z" style="fill: #171717;" />
        <path d="m13.7,344.06c-.36,0-.7-.16-.95-.46-.5-.59-.52-1.54-.03-2.15l6.87-8.73c.38-.49.98-.64,1.51-.38.49.25.81.81.81,1.43v4.64l4.58-5.81c.38-.49.99-.64,1.51-.38.49.24.81.81.81,1.43v8.77c0,.86-.6,1.56-1.34,1.56s-1.34-.68-1.34-1.56v-4.76l-4.57,5.81c-.38.49-.99.64-1.51.38-.49-.24-.81-.8-.81-1.43v-4.64c-1.92,2.45-4.54,5.77-4.54,5.77-.25.31-.6.5-.97.5,0,0-.01,0-.02,0Zm6.87-11.12c-.15,0-.3.08-.41.23l-6.87,8.73c-.27.34-.26.9.02,1.23.11.13.25.2.41.2.15,0,.3-.08.41-.23,0,0,3.27-4.16,5.19-6.59l.65-.83v6.74c0,.35.16.66.41.78.22.11.45.04.62-.18l5.87-7.46v6.86c0,.46.27.83.61.83s.61-.37.61-.83v-8.77c0-.35-.16-.66-.41-.78-.21-.1-.45-.04-.62.18h0s-5.87,7.46-5.87,7.46v-6.74c0-.35-.16-.66-.41-.78-.07-.03-.14-.05-.2-.05Z" style="fill: #171717;" />
      </g>
      <g>
        <path d="m13,332.76l-4.55,5.79c-.37.47-.36,1.23.02,1.69.39.46,1.01.44,1.38-.03,0,0,1.54-1.95,2.88-3.65v5.95c0,.66.43,1.19.97,1.19s.98-.53.98-1.19v-8.91c0-.49-.24-.92-.61-1.11-.37-.18-.79-.07-1.07.28Z" style="fill: #171717;" />
        <path d="m13.7,344.06c-.74,0-1.33-.7-1.33-1.56v-4.9l-2.23,2.83c-.25.32-.59.5-.96.5-.35,0-.72-.16-.98-.46-.5-.6-.51-1.54-.03-2.15l4.55-5.79c.38-.49.99-.64,1.51-.38.5.25.81.81.81,1.43v8.91c0,.86-.6,1.56-1.34,1.56Zm-.61-8.56v7c0,.45.28.83.61.83s.62-.38.62-.83v-8.91c0-.35-.17-.66-.41-.78-.21-.1-.45-.04-.62.18l-4.55,5.79c-.27.34-.26.9.02,1.23.11.13.26.2.41.2.15,0,.29-.08.41-.23l3.53-4.47Z" style="fill: #171717;" />
      </g>
      <g>
        <path d="m34.66,337.02c-.15-.44-.5-.73-.89-.73h-1.99l1.45-1.84s.75-1.11.09-1.72c-.67-.61-1.49.06-1.49.06l-3.04,3.87c-.27.34-.35.86-.2,1.29.15.44.51.73.9.73h1.99l-2.36,2.99s-.98,1.06-.25,1.78c.72.72,1.66-.13,1.66-.13l3.94-5.02c.27-.35.35-.85.2-1.3Z" style="fill: #171717;" />
        <path d="m29.53,344.12c-.31,0-.63-.11-.92-.4-.77-.76-.18-1.83.24-2.29l1.88-2.38h-1.24c-.55,0-1.04-.38-1.24-.98-.19-.55-.09-1.2.25-1.64l3.04-3.87c.43-.36,1.31-.75,2.02-.1.71.65.32,1.68-.03,2.19l-1,1.28h1.24c.55,0,1.03.38,1.24.97.2.55.1,1.2-.25,1.64l-3.94,5.02c-.28.26-.77.56-1.29.56Zm3.13-11.28c-.31,0-.59.22-.61.23l-2.98,3.81c-.2.25-.25.63-.14.95.1.29.32.49.55.49h2.74l-2.82,3.58s-.75.84-.28,1.3c.47.47,1.13-.11,1.16-.14l3.9-4.97c.2-.25.25-.63.14-.95h0c-.1-.3-.32-.49-.55-.49h-2.73l1.91-2.43h0s.54-.84.13-1.22c-.13-.12-.28-.16-.41-.16Z" style="fill: #171717;" />
      </g>
    </g>
    <g>
      <path d="m16.52,311.66c-.02.53-.21.98-.56,1.36.36.38.54.82.56,1.34-.12,1.19-.77,1.83-1.95,1.93h-1.54c-.22-.02-.34-.14-.35-.36v-5.85c.01-.2.11-.33.31-.38h1.58c1.18.12,1.83.77,1.95,1.96Zm-1.99.76c.45-.04.7-.29.74-.76-.04-.46-.29-.71-.74-.75h-.5c-.11.02-.17.08-.18.19v1.12c0,.12.07.18.18.18h.49Zm0,2.7c.45-.04.7-.29.74-.76-.05-.45-.29-.7-.74-.75h-.49c-.12.01-.18.08-.18.19v1.12c0,.12.06.18.18.18h.5Z" style="fill: #171717;" />
      <path d="m20.89,309.71c.19.04.31.15.36.34v4.44c-.02.32-.11.62-.26.91-.39.63-.95.95-1.67.95s-1.28-.32-1.67-.95c-.16-.28-.25-.58-.25-.91v-4.44c.03-.2.15-.31.35-.34h.46c.22.04.34.16.36.38,0,1.47,0,2.94,0,4.4.02.45.26.69.72.7.48,0,.74-.23.76-.69,0-1.46,0-2.94,0-4.41.02-.22.14-.34.36-.38h.46Z" style="fill: #171717;" />
      <path d="m25.58,309.7c.22.04.34.16.38.38v.46c-.04.23-.16.36-.39.37h-2.09c-.12.01-.18.08-.19.19v1.13c.01.12.08.18.19.18h1.33c.22.03.34.15.36.36v.47c-.02.23-.15.35-.37.35h-1.32c-.12.02-.18.08-.19.2v2.12c-.02.22-.14.35-.36.37h-.45c-.21-.01-.33-.12-.35-.33v-5.9c0-.21.11-.33.31-.37h3.15Z" style="fill: #171717;" />
      <path d="m30.08,309.7c.22.04.34.16.38.38v.46c-.04.23-.16.36-.39.37h-2.09c-.12.01-.18.08-.19.19v1.13c.01.12.08.18.19.18h1.33c.22.03.34.15.36.36v.47c-.02.23-.15.35-.37.35h-1.32c-.12.02-.18.08-.19.2v2.12c-.02.22-.14.35-.36.37h-.45c-.21-.01-.33-.12-.35-.33v-5.9c0-.21.11-.33.31-.37h3.15Z" style="fill: #171717;" />
      <path d="m16.49,319.02s0,.02,0,.04v5.87c-.03.22-.15.34-.37.36h-.46c-.22-.02-.34-.15-.36-.37v-3.8c-.28.49-.57.97-.85,1.44-.04.06-.09.1-.16.13-.05.01-.09.01-.12,0-.05,0-.1,0-.14-.02-.06-.03-.11-.08-.15-.14-.29-.47-.57-.95-.85-1.43v3.81c-.03.22-.15.35-.37.37h-.45c-.21-.01-.33-.12-.36-.33v-5.94c0-.19.1-.3.31-.31h.28c.07,0,.15,0,.23,0,.14.04.25.12.33.24.39.62.78,1.23,1.18,1.84.39-.62.79-1.25,1.19-1.87.06-.11.16-.18.3-.21h.52c.2,0,.3.11.31.32Z" style="fill: #171717;" />
      <path d="m20.87,318.71c.19.04.31.15.36.34v4.44c-.02.32-.11.62-.26.91-.39.63-.95.95-1.67.95s-1.28-.32-1.67-.95c-.16-.28-.25-.58-.25-.91v-4.44c.03-.2.15-.31.35-.34h.46c.22.04.34.16.36.38,0,1.47,0,2.94,0,4.4.02.45.26.69.72.7.48,0,.74-.23.76-.69,0-1.46,0-2.94,0-4.41.02-.22.14-.34.36-.38h.46Z" style="fill: #171717;" />
      <path d="m25.59,325.29h-3.15c-.21-.03-.32-.15-.33-.36v-5.88c.03-.21.15-.32.36-.34h.46c.23.02.35.15.37.37v4.84c.01.11.07.17.18.18h2.1c.22.02.34.15.38.37v.46c-.04.22-.16.34-.37.36Z" style="fill: #171717;" />
      <path d="m30.69,318.71c.22.03.34.15.37.37v.46c-.03.22-.15.35-.37.37h-.96c-.12.02-.18.08-.18.18,0,.21,0,.41,0,.61v4.29c-.02.05-.04.1-.06.14-.04.05-.07.09-.11.11-.01,0-.01.01,0,.02h0c-.06.03-.12.04-.18.04h-.46c-.2-.02-.33-.13-.36-.33v-4.87c-.01-.11-.07-.17-.18-.18h-.97c-.22-.02-.34-.15-.36-.37v-.46c.02-.22.14-.34.36-.37h3.49Z" style="fill: #171717;" />
    </g>
    <g>
      <path d="m34.95,169.37s.01.02.02.03c0,0,.02.01.03.02-.02-.02-.04-.03-.05-.05Z" style="fill: #171717;" />
      <path d="m35.1,168.16c.34.29.73.64,1.07,1.05,1.44-1.63,2.16-3.78,1.98-5.95-.04-.41-.41-.71-.81-.68-.41.04-.72.4-.68.81.15,1.74-.42,3.46-1.56,4.78Z" style="fill: #171717;" />
    </g>
    <g>
      <path d="m36.94,191.22v4.78c.35.04.68.1,1,.21v-4.98c0-2.26-.98-4.42-2.69-5.9-.21-.18-.52-.16-.71.05-.18.21-.16.52.05.71,1.49,1.3,2.35,3.17,2.35,5.15Z" style="fill: #171717;" />
      <path d="m36.94,206.02v89.85c0,3.75-3.05,6.81-6.81,6.81H12.78c-3.75,0-6.81-3.05-6.81-6.81v-104.65c0-1.79.69-3.49,1.95-4.77.19-.2.19-.51,0-.71-.2-.19-.51-.19-.71,0-1.44,1.47-2.23,3.41-2.23,5.47v104.65c0,4.3,3.5,7.81,7.81,7.81h17.36c4.3,0,7.81-3.5,7.81-7.81v-90.05c-.32.1-.65.17-1,.21Z" style="fill: #171717;" />
    </g>
    <path d="m36.43,57.7c.14,0,.27.03.4.04.69-1.14,1.09-2.46,1.09-3.89v-18.06c0-1.83-.65-3.51-1.74-4.81l-1.12-1.09c-1.28-1.01-2.9-1.62-4.66-1.62H12.52c-4.16,0-7.53,3.37-7.53,7.52v18.06c0,4.16,3.37,7.52,7.53,7.52h17.87c.42,0,.82-.04,1.22-.11.64-2.06,2.54-3.57,4.82-3.57Zm-14.67-1.59c-6.27,0-11.37-5.09-11.37-11.37s5.09-11.37,11.37-11.37,11.37,5.09,11.37,11.37-5.1,11.37-11.37,11.37Z" style="fill: #171717;" />
    <path d="m36.43,195.94c.14,0,.27.03.41.04.68-1.13,1.08-2.45,1.08-3.87v-18.06c0-1.83-.65-3.51-1.74-4.81-.34.35-1.42,1.39-1.82,1.68.31.05.86-.02.94.31.1.42-.17.84-.59.94l-2.64.28c-.06.01-.12.02-.18.02-.23,0-.45-.1-.6-.28-.19-.23-.23-.55-.11-.82l.85-2.45c.18-.4.64-.57,1.03-.4.4.18.29.93.11,1.32.43-.28,1.54-1.32,1.89-1.68-1.28-1.01-2.9-1.62-4.66-1.62H12.52c-4.16,0-7.53,3.37-7.53,7.52v18.06c0,4.16,3.37,7.52,7.53,7.52h17.87c.41,0,.82-.04,1.21-.11.64-2.07,2.54-3.59,4.82-3.59Zm-14.67-1.57c-6.27,0-11.37-5.09-11.37-11.37s5.09-11.37,11.37-11.37,11.37,5.09,11.37,11.37-5.1,11.37-11.37,11.37Z" style="fill: #171717;" />
    <g>
      <path d="m36.94,49.36v8.39c.35.04.68.1,1,.21v-8.6c0-2.48-1.19-4.83-3.19-6.3-.22-.16-.53-.12-.7.11-.16.22-.12.54.11.7,1.74,1.28,2.78,3.33,2.78,5.49Z" style="fill: #171717;" />
      <path d="m36.94,67.78v89.01c0,3.75-3.05,6.81-6.81,6.81H12.78c-3.75,0-6.81-3.05-6.81-6.81V49.36c0-2.16.99-4.15,2.72-5.45.22-.17.27-.48.1-.7-.17-.22-.48-.27-.7-.1-1.98,1.49-3.12,3.77-3.12,6.25v107.43c0,4.31,3.5,7.81,7.81,7.81h17.36c4.3,0,7.81-3.5,7.81-7.81v-89.21c-.32.1-.65.17-1,.21Z" style="fill: #171717;" />
    </g>
  </g>
  <g /></svg>