<?xml version="1.0" encoding="UTF-8" standalone="no"?>
<svg
   width="30.48mm"
   height="128.5mm"
   viewBox="0 0 86.405117 364.25"
   version="1.1"
   id="svg192"
   sodipodi:docname="BWAVP_artwork.svg"
   inkscape:version="1.4.2 (ebf0e940, 2025-05-08)"
   xml:space="preserve"
   xmlns:inkscape="http://www.inkscape.org/namespaces/inkscape"
   xmlns:sodipodi="http://sodipodi.sourceforge.net/DTD/sodipodi-0.dtd"
   xmlns="http://www.w3.org/2000/svg"
   xmlns:svg="http://www.w3.org/2000/svg"><defs
     id="defs192" /><sodipodi:namedview
     id="namedview192"
     pagecolor="#ffffff"
     bordercolor="#666666"
     borderopacity="1.0"
     inkscape:showpageshadow="2"
     inkscape:pageopacity="0.0"
     inkscape:pagecheckerboard="0"
     inkscape:deskcolor="#d1d1d1"
     inkscape:document-units="mm"
     inkscape:zoom="2.3668083"
     inkscape:cx="62.531468"
     inkscape:cy="278.85655"
     inkscape:window-width="1600"
     inkscape:window-height="1027"
     inkscape:window-x="67"
     inkscape:window-y="251"
     inkscape:window-maximized="0"
     inkscape:current-layer="faceplate"
     showguides="false"
     showgrid="false"
     showborder="true" /><g
     id="faceplate"><g
       id="g1"
       transform="matrix(0.42832743,0,0,1,0.0743197,0)"><rect
         x="0"
         y="0"
         width="201.61807"
         height="363.98999"
         style="fill:#ededed;stroke-width:0px"
         id="rect1" /></g><rect
       x="7.4673429"
       y="230.56224"
       width="71.470428"
       height="95.500786"
       rx="7.4900393"
       ry="9.1380243"
       style="stroke:#000000;stroke-width:1.01709"
       id="rect2" /><path
       d="m 42.706335,297.05947 q 0,0.79975 -0.371019,1.47171 -0.366897,0.67196 -1.096568,1.06771 -0.729672,0.39575 -1.77677,0.39575 -1.059467,0 -1.79326,-0.41224 -0.733794,-0.41224 -1.092446,-1.0842 -0.35453,-0.67196 -0.35453,-1.43873 0,-0.7709 0.35453,-1.43873 0.35453,-0.67196 1.088323,-1.08008 0.737916,-0.41224 1.797383,-0.41224 0.791507,0 1.409873,0.23498 0.622488,0.23498 1.022364,0.63897 0.399876,0.39988 0.605998,0.9358 0.206122,0.53179 0.206122,1.1213 z m -1.756158,0 q 0,-0.32155 -0.09482,-0.58539 -0.09482,-0.26795 -0.28857,-0.46171 -0.189633,-0.19788 -0.465836,-0.30506 -0.276203,-0.11131 -0.638977,-0.11131 -0.69257,0 -1.088324,0.404 -0.395754,0.404 -0.395754,1.05947 0,0.65547 0.395754,1.06359 0.399877,0.404 1.088324,0.404 0.47408,0 0.807997,-0.18551 0.333917,-0.18963 0.50706,-0.51943 0.173142,-0.33392 0.173142,-0.76265 z m 8.44308,0.30094 q 0,0.73379 -0.276203,1.25322 -0.272081,0.5153 -0.725549,0.81624 -0.449346,0.30094 -0.972895,0.43286 -0.519427,0.13191 -1.038854,0.13191 -0.725549,0 -1.413996,-0.24734 -0.684324,-0.24735 -1.146037,-0.84098 -0.461713,-0.59363 -0.461713,-1.54591 v -3.15367 h 1.719056 v 2.70844 q 0,0.56478 0.160775,0.9358 0.164897,0.36689 0.453468,0.54004 0.292693,0.16902 0.688447,0.16902 0.379264,0 0.671957,-0.16902 0.292693,-0.16902 0.453468,-0.53592 0.164897,-0.3669 0.164897,-0.93167 v -2.71669 h 1.723179 z m 6.493167,-1.76441 h -2.094198 v 4.32444 H 52.07317 V 295.596 h -2.094197 v -1.38926 h 5.907451 z"
       id="text15"
       style="font-weight:700;font-size:8.44275px;font-family:GillSans-Bold, 'Gill Sans';letter-spacing:-0.04em;fill:#ffffff;stroke-width:0.938083"
       transform="scale(0.93808314,1.0660036)"
       aria-label="OUT" /><path
       d="m 67.965297,299.92044 h -1.850974 l -0.449346,-1.01412 q -0.247346,-0.55653 -0.445223,-0.81212 -0.197877,-0.25971 -0.387509,-0.32979 -0.18551,-0.0742 -0.482325,-0.0742 h -0.193755 v 2.23024 h -1.723178 v -5.7137 h 2.931052 q 0.709059,0 1.162527,0.28857 0.453468,0.28857 0.651345,0.70082 0.202,0.41224 0.202,0.78326 0,0.43286 -0.16902,0.7338 -0.164898,0.29681 -0.350407,0.43285 -0.18551,0.13604 -0.416366,0.25971 0.276203,0.16078 0.453468,0.38339 0.181387,0.21849 0.49057,0.89045 z m -2.341544,-3.90807 q 0,-0.39575 -0.259714,-0.55241 -0.259713,-0.15665 -0.845099,-0.15665 h -0.362775 v 1.3769 h 0.37102 q 0.630732,0 0.861589,-0.13604 0.234979,-0.14017 0.234979,-0.5318 z"
       id="text16"
       style="font-weight:700;font-size:8.44275px;font-family:GillSans-Bold, 'Gill Sans';letter-spacing:-0.04em;fill:#ededed;stroke-width:0.938083"
       transform="scale(0.93808314,1.0660036)"
       aria-label="R" /><path
       d="m 28.483797,299.92044 h -4.340925 v -5.7137 h 1.723178 v 4.34505 h 2.617747 z"
       id="text17"
       style="font-weight:700;font-size:8.44275px;font-family:GillSans-Bold, 'Gill Sans';letter-spacing:-0.04em;fill:#ededed;stroke-width:0.938083"
       transform="scale(0.93808314,1.0660036)"
       aria-label="L" /><path
       d="m 60.113104,168.4073 h -4.340926 v -5.71369 h 1.723179 v 4.34504 h 2.617747 z m 5.054437,-2.10244 q 0,0.62661 -0.272081,1.11718 -0.272081,0.49057 -0.816242,0.77502 -0.540039,0.28445 -1.31918,0.28445 -0.77914,0 -1.323302,-0.28445 -0.540039,-0.28445 -0.81212,-0.77502 -0.267958,-0.49057 -0.267958,-1.11718 0,-0.47408 0.148407,-0.86159 0.15253,-0.38751 0.457591,-0.68432 0.309182,-0.30094 0.758528,-0.46172 0.449346,-0.16077 1.038854,-0.16077 0.593631,0 1.047099,0.1649 0.45759,0.16077 0.754406,0.45346 0.300938,0.2927 0.453468,0.68433 0.15253,0.39163 0.15253,0.86571 z m -1.562403,0 q 0,-0.49881 -0.21849,-0.77914 -0.214366,-0.28445 -0.62661,-0.28445 -0.408121,0 -0.62661,0.28445 -0.214367,0.28033 -0.214367,0.77914 0,0.49469 0.218489,0.78326 0.218489,0.28857 0.622488,0.28857 0.412244,0 0.62661,-0.28444 0.21849,-0.28857 0.21849,-0.78739 z m 6.629207,0 q 0,0.62661 -0.272081,1.11718 -0.272081,0.49057 -0.816242,0.77502 -0.54004,0.28445 -1.31918,0.28445 -0.779141,0 -1.323302,-0.28445 -0.540039,-0.28445 -0.81212,-0.77502 -0.267959,-0.49057 -0.267959,-1.11718 0,-0.47408 0.148408,-0.86159 0.15253,-0.38751 0.457591,-0.68432 0.309182,-0.30094 0.758528,-0.46172 0.449346,-0.16077 1.038854,-0.16077 0.593631,0 1.047099,0.1649 0.45759,0.16077 0.754406,0.45346 0.300938,0.2927 0.453468,0.68433 0.15253,0.39163 0.15253,0.86571 z m -1.562404,0 q 0,-0.49881 -0.218489,-0.77914 -0.214366,-0.28445 -0.62661,-0.28445 -0.408121,0 -0.62661,0.28445 -0.214367,0.28033 -0.214367,0.77914 0,0.49469 0.218489,0.78326 0.218489,0.28857 0.622488,0.28857 0.412244,0 0.62661,-0.28444 0.218489,-0.28857 0.218489,-0.78739 z m 6.604474,-0.0247 q 0,0.42048 -0.119551,0.81212 -0.11955,0.39163 -0.366896,0.70905 -0.243224,0.31331 -0.630733,0.49882 -0.383387,0.18139 -0.894569,0.18139 -0.412244,0 -0.651345,-0.0866 -0.234979,-0.0866 -0.469958,-0.23086 v 2.15191 h -1.484077 v -6.10533 h 1.484077 v 0.37927 q 0.222612,-0.19376 0.49057,-0.32155 0.272081,-0.13192 0.733794,-0.13192 0.45759,0 0.898691,0.22673 0.441101,0.22674 0.725549,0.70906 0.284448,0.4782 0.284448,1.20788 z m -1.562403,0.033 q 0,-0.37927 -0.119551,-0.61425 -0.119551,-0.2391 -0.309183,-0.34216 -0.189632,-0.10718 -0.391631,-0.10718 -0.263836,0 -0.432856,0.0866 -0.16902,0.0824 -0.317428,0.21024 v 1.60363 q 0.07833,0.0412 0.164898,0.0948 0.09069,0.0495 0.177265,0.0866 0.09069,0.0371 0.189632,0.0618 0.103061,0.0247 0.218489,0.0247 0.350407,0 0.585386,-0.29682 0.234979,-0.29681 0.234979,-0.80799 z"
       id="text30-1"
       style="font-weight:700;font-size:8.44275px;font-family:GillSans-Bold, 'Gill Sans';letter-spacing:-0.04em;stroke-width:0.938083"
       transform="scale(0.93808314,1.0660036)"
       aria-label="Loop" /><path
       d="m 60.113104,210.32687 h -4.340926 v -5.71369 h 1.723179 v 4.34504 h 2.617747 z m 5.054437,-2.10244 q 0,0.62661 -0.272081,1.11718 -0.272081,0.49057 -0.816242,0.77502 -0.540039,0.28445 -1.31918,0.28445 -0.77914,0 -1.323302,-0.28445 -0.540039,-0.28445 -0.81212,-0.77502 -0.267958,-0.49057 -0.267958,-1.11718 0,-0.47408 0.148407,-0.86159 0.15253,-0.38751 0.457591,-0.68432 0.309182,-0.30094 0.758528,-0.46172 0.449346,-0.16077 1.038854,-0.16077 0.593631,0 1.047099,0.1649 0.45759,0.16077 0.754406,0.45347 0.300938,0.29269 0.453468,0.68432 0.15253,0.39163 0.15253,0.86571 z m -1.562403,0 q 0,-0.49881 -0.21849,-0.77914 -0.214366,-0.28445 -0.62661,-0.28445 -0.408121,0 -0.62661,0.28445 -0.214367,0.28033 -0.214367,0.77914 0,0.49469 0.218489,0.78326 0.218489,0.28857 0.622488,0.28857 0.412244,0 0.62661,-0.28444 0.21849,-0.28857 0.21849,-0.78739 z m 6.629207,0 q 0,0.62661 -0.272081,1.11718 -0.272081,0.49057 -0.816242,0.77502 -0.54004,0.28445 -1.31918,0.28445 -0.779141,0 -1.323302,-0.28445 -0.540039,-0.28445 -0.81212,-0.77502 -0.267959,-0.49057 -0.267959,-1.11718 0,-0.47408 0.148408,-0.86159 0.15253,-0.38751 0.457591,-0.68432 0.309182,-0.30094 0.758528,-0.46172 0.449346,-0.16077 1.038854,-0.16077 0.593631,0 1.047099,0.1649 0.45759,0.16077 0.754406,0.45347 0.300938,0.29269 0.453468,0.68432 0.15253,0.39163 0.15253,0.86571 z m -1.562404,0 q 0,-0.49881 -0.218489,-0.77914 -0.214366,-0.28445 -0.62661,-0.28445 -0.408121,0 -0.62661,0.28445 -0.214367,0.28033 -0.214367,0.77914 0,0.49469 0.218489,0.78326 0.218489,0.28857 0.622488,0.28857 0.412244,0 0.62661,-0.28444 0.218489,-0.28857 0.218489,-0.78739 z m 6.604474,-0.0247 q 0,0.42049 -0.119551,0.81212 -0.11955,0.39163 -0.366896,0.70906 -0.243224,0.3133 -0.630733,0.49881 -0.383387,0.18139 -0.894569,0.18139 -0.412244,0 -0.651345,-0.0866 -0.234979,-0.0866 -0.469958,-0.23086 v 2.15191 h -1.484077 v -6.10533 h 1.484077 v 0.37927 q 0.222612,-0.19376 0.49057,-0.32155 0.272081,-0.13192 0.733794,-0.13192 0.45759,0 0.898691,0.22673 0.441101,0.22674 0.725549,0.70906 0.284448,0.47821 0.284448,1.20788 z m -1.562403,0.033 q 0,-0.37927 -0.119551,-0.61425 -0.119551,-0.2391 -0.309183,-0.34216 -0.189632,-0.10718 -0.391631,-0.10718 -0.263836,0 -0.432856,0.0866 -0.16902,0.0824 -0.317428,0.21024 v 1.60363 q 0.07833,0.0412 0.164898,0.0948 0.09069,0.0495 0.177265,0.0866 0.09069,0.0371 0.189632,0.0618 0.103061,0.0247 0.218489,0.0247 0.350407,0 0.585386,-0.29682 0.234979,-0.29681 0.234979,-0.80799 z"
       id="text30-1-8"
       style="font-weight:700;font-size:8.44275px;font-family:GillSans-Bold, 'Gill Sans';letter-spacing:-0.04em;stroke-width:0.938083"
       transform="scale(0.93808314,1.0660036)"
       aria-label="Loop" /><path
       style="font-weight:600;font-size:9.00053px;font-family:'Gill Sans';-inkscape-font-specification:'Gill Sans, Semi-Bold';letter-spacing:-0.04em;fill:#ededed;stroke-width:0.938083"
       d="m 59.206979,270.67452 v 0.9885 h -2.609655 v 1.71934 h 2.498343 v 0.98851 h -2.498343 v 1.85989 h 2.667373 v 0.98851 h -3.780496 v -6.54475 z m 2.86147,2.08476 q 0.618401,0 0.985319,0.4638 0.371041,0.45911 0.371041,1.21337 v 2.78282 h -1.010055 v -2.66569 q 0,-0.42632 -0.181398,-0.67462 -0.177276,-0.2483 -0.486476,-0.2483 -0.234993,0 -0.441127,0.15928 -0.206134,0.15461 -0.453495,0.52002 v 2.90931 h -1.014179 v -4.37567 h 1.014179 v 0.61372 q 0.280342,-0.37479 0.573053,-0.53407 0.296832,-0.16397 0.643138,-0.16397 z m 4.601239,0.1827 v -2.26746 h 1.010055 v 6.54475 h -1.780996 q -0.92348,0 -1.480042,-0.60435 -0.552439,-0.60435 -0.552439,-1.64908 0,-0.6184 0.255606,-1.12436 0.259729,-0.50596 0.709101,-0.79175 0.453494,-0.29045 0.977075,-0.29045 0.404022,0 0.86164,0.1827 z m -0.531826,3.39653 h 0.531826 v -2.5345 q -0.313324,-0.18272 -0.651384,-0.18272 -0.507089,0 -0.812168,0.36074 -0.300954,0.36073 -0.300954,0.94634 0,1.41014 1.23268,1.41014 z"
       id="text31-4"
       aria-label="End" /><path
       style="font-weight:600;font-size:9.00053px;font-family:'Gill Sans';-inkscape-font-specification:'Gill Sans, Semi-Bold';letter-spacing:-0.04em;fill:#ededed;stroke-width:0.938083"
       d="m 14.146508,270.75892 q 0.808045,0 1.311013,0.53407 0.507089,0.52938 0.507089,1.36798 0,0.84796 -0.511212,1.37266 -0.511212,0.52471 -1.348117,0.52471 h -1.071896 v 2.74533 h -1.113122 v -6.54475 z m -0.276219,2.81091 q 0.44525,0 0.69261,-0.22956 0.251483,-0.23424 0.251483,-0.68867 0,-0.90418 -1.022424,-0.90418 h -0.758573 v 1.82241 z m 3.562325,-2.81091 v 6.54475 h -1.01418 v -6.54475 z m 2.09465,2.08476 q 0.742082,0 1.133736,0.36074 0.391655,0.35604 0.391655,0.99787 v 2.14098 q 0,0.2483 0.177275,0.2483 0.07421,0 0.206134,-0.0702 0.136049,-0.0749 0.226747,-0.16867 v 0.66525 q -0.531825,0.37011 -0.972951,0.37011 -0.272098,0 -0.420514,-0.10308 -0.144294,-0.10308 -0.202012,-0.36543 -0.581297,0.46849 -1.166717,0.46849 -0.416391,0 -0.717347,-0.31857 -0.296832,-0.31857 -0.296832,-0.76363 0,-0.56687 0.296832,-0.89481 0.296833,-0.32794 1.038915,-0.57155 l 0.820413,-0.27172 v -0.20146 q 0,-0.64182 -0.684364,-0.64182 -0.350428,0 -0.696732,0.18271 -0.346306,0.18271 -0.63077,0.53876 v -1.03535 q 0.63077,-0.56687 1.496532,-0.56687 z m -0.618402,3.28877 q 0,0.23892 0.131925,0.38416 0.13605,0.14523 0.333937,0.14523 0.333937,0 0.667874,-0.34668 v -1.15247 q -0.424635,0.16397 -0.667874,0.30919 -0.239114,0.14523 -0.35455,0.29515 -0.111312,0.14992 -0.111312,0.36542 z m 3.570569,-3.20445 0.911112,2.35181 0.92348,-2.35181 h 1.088387 l -2.659128,6.58223 h -1.088386 l 1.224435,-3.01236 -1.496533,-3.56987 z m 8.258385,-2.25341 q 1.063652,0 2.110812,0.53875 v 1.15716 q -1.04716,-0.60434 -2.061339,-0.60434 -0.63077,0 -1.121369,0.28578 -0.490598,0.28577 -0.762695,0.82453 -0.267975,0.53408 -0.267975,1.19464 0,1.00256 0.585421,1.61627 0.589543,0.60904 1.550127,0.60904 0.263851,0 0.502967,-0.0516 0.243238,-0.0515 0.577175,-0.19676 v -1.08689 h -0.952339 v -0.98851 h 2.065462 v 2.69849 q -0.424636,0.33731 -1.022424,0.52938 -0.593666,0.1874 -1.236804,0.1874 -0.911112,0 -1.653194,-0.42632 -0.737959,-0.42633 -1.15435,-1.19464 -0.412268,-0.76832 -0.412268,-1.71467 0,-0.96039 0.416391,-1.73807 0.420513,-0.77769 1.166718,-1.2087 0.750327,-0.43101 1.669684,-0.43101 z m 4.333265,2.16909 q 0.742082,0 1.133738,0.36074 0.391654,0.35604 0.391654,0.99787 v 2.14098 q 0,0.2483 0.177275,0.2483 0.07421,0 0.206134,-0.0702 0.136048,-0.0749 0.226747,-0.16867 v 0.66525 q -0.531825,0.37011 -0.972952,0.37011 -0.272097,0 -0.420514,-0.10308 -0.144293,-0.10308 -0.20201,-0.36543 -0.581299,0.46849 -1.166719,0.46849 -0.416391,0 -0.717345,-0.31857 -0.296833,-0.31857 -0.296833,-0.76363 0,-0.56687 0.296833,-0.89481 0.296833,-0.32794 1.038914,-0.57155 l 0.820413,-0.27172 v -0.20146 q 0,-0.64182 -0.684364,-0.64182 -0.350428,0 -0.696733,0.18271 -0.346305,0.18271 -0.63077,0.53876 v -1.03535 q 0.63077,-0.56687 1.496532,-0.56687 z m -0.618401,3.28877 q 0,0.23892 0.131925,0.38416 0.136049,0.14523 0.333937,0.14523 0.333937,0 0.667874,-0.34668 v -1.15247 q -0.424635,0.16397 -0.667874,0.30919 -0.239115,0.14523 -0.35455,0.29515 -0.111312,0.14992 -0.111312,0.36542 z m 4.028185,-4.36629 h 0.08246 v 1.16184 h 1.319257 v 0.87138 h -1.319257 v 2.01919 q 0,0.29514 0.156662,0.47785 0.156661,0.18271 0.428758,0.18271 0.35455,0 0.816291,-0.29046 v 0.92292 q -0.548316,0.2764 -1.03067,0.2764 -0.651383,0 -1.018302,-0.4029 -0.362795,-0.40289 -0.362795,-1.09156 v -2.09415 h -0.601914 v -0.18739 z m 3.44689,1.07752 q 0.849272,0 1.343994,0.6184 0.49472,0.6184 0.49472,1.70998 v 0.17333 h -2.72509 q 0.06184,0.58561 0.38341,0.90418 0.325691,0.31389 0.890498,0.31389 0.362796,0 0.696733,-0.14055 0.33806,-0.14523 0.696732,-0.43569 v 0.85733 q -0.676119,0.54344 -1.640826,0.54344 -0.911112,0 -1.488286,-0.62308 -0.577176,-0.62309 -0.577176,-1.65845 0,-0.99787 0.531826,-1.63033 0.535948,-0.63245 1.393465,-0.63245 z m 0.886376,1.80367 q -0.04123,-0.47786 -0.255606,-0.74489 -0.214379,-0.27173 -0.589543,-0.27173 -0.38341,0 -0.618402,0.25768 -0.23087,0.25766 -0.29271,0.75894 z"
       id="text5-8-6-6"
       aria-label="Play Gate" /><path
       d="m 20.616283,164.49099 q 0,0.31743 -0.111306,0.62249 -0.107183,0.30093 -0.350407,0.56477 -0.243224,0.25971 -0.65959,0.42461 -0.412244,0.16078 -0.972895,0.16078 h -1.129548 v 2.14366 h -1.723178 v -5.71369 h 2.852726 q 0.560651,0 0.972895,0.16489 0.416366,0.1649 0.65959,0.42874 0.243224,0.26383 0.350407,0.57302 0.111306,0.30918 0.111306,0.63073 z m -1.756158,0.008 q 0,-0.40812 -0.243224,-0.55653 -0.239101,-0.15253 -0.861589,-0.15253 h -0.362775 v 1.3769 h 0.37102 q 0.428733,0 0.65959,-0.0536 0.230856,-0.0536 0.333917,-0.19788 0.103061,-0.14429 0.103061,-0.41637 z m 6.715779,3.90807 h -4.340926 v -5.71369 h 1.723178 v 4.34504 h 2.617748 z m 6.818839,0 H 30.63034 l -0.465835,-1.1584 h -2.481707 l -0.47408,1.1584 h -1.764403 l 2.527053,-5.71369 h 1.904566 z m -2.625992,-2.15191 -0.836855,-2.08595 -0.845099,2.08595 z m 7.775244,-3.56178 -2.238483,3.09595 v 2.61774 h -1.723179 v -2.58476 l -2.279707,-3.12893 h 1.789137 l 1.310935,1.79738 1.315057,-1.79738 z"
       id="text33"
       style="font-weight:700;font-size:8.44275px;font-family:GillSans-Bold, 'Gill Sans';letter-spacing:-0.04em;stroke-width:0.938083"
       transform="scale(0.93808314,1.0660036)"
       aria-label="PLAY" /><path
       style="font-size:6.61956px;font-family:'Gill Sans';-inkscape-font-specification:'Gill Sans, Normal';letter-spacing:-0.04em;stroke-width:0.735507"
       d="m 54.192678,128.02956 v -4.50893 h 1.522369 q 0.921179,0 1.457726,0.27797 0.536546,0.27474 0.853302,0.81129 0.316757,0.53654 0.316757,1.17006 0,0.4525 -0.17454,0.86623 -0.174539,0.41372 -0.497759,0.72724 -0.329686,0.32322 -0.766033,0.48807 -0.255345,0.1002 -0.46867,0.13575 -0.213326,0.0323 -0.814517,0.0323 z m 1.454493,-3.93359 h -0.808052 v 3.35826 h 0.827445 q 0.484831,0 0.753105,-0.0647 0.268273,-0.0679 0.446044,-0.16807 0.181004,-0.10343 0.329685,-0.25211 0.478367,-0.48483 0.478367,-1.22501 0,-0.72725 -0.491296,-1.18622 -0.181003,-0.17131 -0.416954,-0.2812 -0.232719,-0.1099 -0.442813,-0.14545 -0.210093,-0.0356 -0.675531,-0.0356 z m 3.461952,-0.28444 q 0.145449,0 0.24888,0.1002 0.103431,0.1002 0.103431,0.24565 0,0.14221 -0.103431,0.24565 -0.103431,0.10343 -0.24888,0.10343 -0.135753,0 -0.239183,-0.10343 -0.103431,-0.10667 -0.103431,-0.24565 0,-0.13575 0.103431,-0.23919 0.10343,-0.10666 0.239183,-0.10666 z m -0.290899,1.25087 h 0.588262 v 2.97363 h -0.588262 z m 1.028101,2.7603 v -0.63351 q 0.24888,0.17454 0.507456,0.28443 0.261809,0.10666 0.439581,0.10666 0.184235,0 0.316756,-0.0905 0.13252,-0.0905 0.13252,-0.21655 0,-0.12929 -0.08727,-0.21333 -0.08404,-0.0873 -0.368472,-0.24888 -0.568868,-0.31676 -0.74664,-0.53978 -0.174539,-0.22625 -0.174539,-0.49129 0,-0.34262 0.265041,-0.55918 0.268273,-0.21655 0.68846,-0.21655 0.436348,0 0.895322,0.24564 v 0.5818 q -0.523618,-0.31676 -0.856535,-0.31676 -0.171307,0 -0.27797,0.0744 -0.103431,0.0711 -0.103431,0.1907 0,0.10343 0.09373,0.19716 0.09697,0.0937 0.33615,0.22625 l 0.210093,0.1196 q 0.743408,0.42018 0.743408,0.93087 0,0.36524 -0.287667,0.60119 -0.284434,0.23272 -0.733711,0.23272 -0.26504,0 -0.471902,-0.0549 -0.206861,-0.0582 -0.520385,-0.21009 z m 4.360505,-2.7603 h 0.701389 l -1.270257,1.45772 1.528833,1.51591 h -0.788658 l -1.490047,-1.51591 z m -1.93286,-1.54177 h 0.588262 v 4.5154 H 62.27397 Z"
       id="text33-0"
       transform="scale(0.93808314,1.0660036)"
       aria-label="Disk" /><path
       d="m 20.616283,206.41056 q 0,0.31743 -0.111306,0.62249 -0.107183,0.30093 -0.350407,0.56477 -0.243224,0.25971 -0.65959,0.42461 -0.412244,0.16078 -0.972895,0.16078 h -1.129548 v 2.14366 h -1.723178 v -5.71369 h 2.852726 q 0.560651,0 0.972895,0.16489 0.416366,0.1649 0.65959,0.42874 0.243224,0.26383 0.350407,0.57302 0.111306,0.30918 0.111306,0.63073 z m -1.756158,0.008 q 0,-0.40812 -0.243224,-0.55652 -0.239101,-0.15254 -0.861589,-0.15254 h -0.362775 v 1.3769 h 0.37102 q 0.428733,0 0.65959,-0.0536 0.230856,-0.0536 0.333917,-0.19788 0.103061,-0.14429 0.103061,-0.41637 z m 6.715779,3.90807 h -4.340926 v -5.71369 h 1.723178 v 4.34504 h 2.617748 z m 6.818839,0 H 30.63034 l -0.465835,-1.1584 h -2.481707 l -0.47408,1.1584 h -1.764403 l 2.527053,-5.71369 h 1.904566 z m -2.625992,-2.15191 -0.836855,-2.08595 -0.845099,2.08595 z m 7.775244,-3.56178 -2.238483,3.09595 v 2.61774 h -1.723179 v -2.58476 l -2.279707,-3.12893 h 1.789137 l 1.310935,1.79738 1.315057,-1.79738 z"
       id="text33-8"
       style="font-weight:700;font-size:8.44275px;font-family:GillSans-Bold, 'Gill Sans';letter-spacing:-0.04em;stroke-width:0.938083"
       transform="scale(0.93808314,1.0660036)"
       aria-label="PLAY" /><path
       d="m 22.213744,336.31731 q 0,0.91699 -0.516691,1.46513 -0.51249,0.54815 -1.436654,0.54815 h -3.364795 v -7.10029 h 2.814497 q 0.546097,0 0.949369,0.12808 0.407471,0.12807 0.655315,0.35347 0.247844,0.22029 0.369666,0.52254 0.121822,0.30224 0.121822,0.66085 0,0.38933 -0.126023,0.72232 -0.126022,0.32786 -0.315056,0.54302 -0.184832,0.21004 -0.373866,0.29713 0.596505,0.28688 0.90736,0.72745 0.315056,0.43544 0.315056,1.13215 z m -2.049962,-3.04298 q 0,-0.51229 -0.277249,-0.68134 -0.27725,-0.16905 -0.865353,-0.16905 h -0.369666 v 1.70079 h 0.378067 q 0.600706,0 0.865354,-0.16906 0.268847,-0.16905 0.268847,-0.68134 z m 0.28565,2.95588 q 0,-0.91186 -1.083792,-0.91186 h -0.714126 v 1.81862 h 0.714126 q 1.083792,0 1.083792,-0.90676 z m 9.035799,2.10038 h -1.797918 l -0.474684,-1.43952 h -2.528847 l -0.483086,1.43952 h -1.797918 l 2.575055,-7.10029 h 1.940744 z m -2.675874,-2.67413 -0.852751,-2.59216 -0.861152,2.59216 z m 7.519332,0.60962 q 0,0.66597 -0.28145,1.15264 -0.277249,0.48667 -0.777138,0.74794 -0.499888,0.25614 -1.146803,0.25614 -0.180631,0 -0.445278,-0.0307 -0.260446,-0.0256 -0.697324,-0.15369 -0.432676,-0.12807 -0.90316,-0.37909 v -1.74177 q 0.441078,0.33299 0.865354,0.55326 0.428475,0.22029 0.915762,0.22029 0.449479,0 0.579702,-0.17929 0.134424,-0.18444 0.134424,-0.34324 0,-0.28688 -0.22684,-0.48154 -0.226841,-0.1998 -0.659517,-0.40984 -0.478885,-0.2459 -0.840148,-0.53278 -0.361264,-0.292 -0.592305,-0.72744 -0.22684,-0.43544 -0.22684,-1.0297 0,-0.57376 0.231041,-1.03482 0.231041,-0.46617 0.705724,-0.7428 0.474684,-0.27665 1.159405,-0.27665 0.487287,0 0.89896,0.11783 0.415873,0.11271 0.684721,0.25615 0.268847,0.14344 0.369665,0.2254 v 1.66493 q -0.357063,-0.3125 -0.798141,-0.55839 -0.436877,-0.2459 -0.936766,-0.2459 -0.327658,0 -0.474684,0.15369 -0.147026,0.15368 -0.147026,0.37909 0,0.21004 0.147026,0.36372 0.147026,0.15369 0.525093,0.37397 0.672119,0.38421 1.075391,0.69159 0.403271,0.30737 0.630111,0.71207 0.231041,0.39959 0.231041,0.99896 z m 2.957322,2.06451 h -1.75591 v -7.10029 h 1.75591 z m 6.683384,-0.53278 q -0.361264,0.23053 -0.73933,0.36885 -0.378067,0.13832 -0.764536,0.19467 -0.382267,0.0615 -0.79394,0.0615 -0.760335,0 -1.365242,-0.25613 -0.600706,-0.25615 -1.045986,-0.75307 -0.441077,-0.50204 -0.663717,-1.16801 -0.218438,-0.67109 -0.218438,-1.47026 0,-0.91699 0.260445,-1.60346 0.260447,-0.69158 0.726729,-1.14751 0.470484,-0.45594 1.066989,-0.6711 0.600706,-0.22029 1.264424,-0.22029 0.991376,0 2.247397,0.5379 v 1.88523 q -0.432676,-0.32788 -0.856951,-0.54303 -0.420074,-0.22029 -0.991376,-0.22029 -0.508289,0 -0.949367,0.2459 -0.441078,0.2459 -0.709926,0.70184 -0.268847,0.45592 -0.268847,1.06555 0,0.5379 0.235241,0.9887 0.235241,0.4457 0.651115,0.71209 0.420075,0.26126 0.945168,0.26126 0.424274,0 0.802341,-0.12295 0.378067,-0.12806 0.634313,-0.28175 0.260446,-0.15369 0.533494,-0.36373 z m 13.165128,-6.56751 -2.520446,7.1925 h -1.01658 l -1.512267,-4.18538 -1.550075,4.18538 h -1.024982 l -2.470036,-7.1925 h 1.818922 l 1.209813,3.93436 1.386246,-3.93436 h 1.256022 l 1.361041,3.93436 1.264423,-3.93436 z m 6.70859,7.10029 h -1.797918 l -0.474684,-1.43952 h -2.528848 l -0.483086,1.43952 H 56.76066 l 2.575055,-7.10029 h 1.940744 z m -2.675874,-2.67413 -0.852751,-2.59216 -0.861152,2.59216 z m 8.52751,-4.42616 -2.625464,7.1925 h -1.159406 l -2.575055,-7.1925 h 1.827323 l 1.331636,4.09829 1.369442,-4.09829 z"
       id="text79"
       style="font-weight:bold;font-size:9.50056px;font-family:GillSans-Bold, 'Gill Sans';-inkscape-font-specification:'GillSans-Bold, Gill Sans, Bold';stroke-width:0.905538"
       aria-label="BASIC WAV" /><path
       d="m 30.682444,344.61564 q 0,0.39446 -0.113419,0.77355 -0.10922,0.37397 -0.357064,0.70183 -0.247844,0.32274 -0.672119,0.52766 -0.420075,0.19978 -0.991375,0.19978 h -1.151004 v 2.6639 h -1.755911 v -7.10028 h 2.906915 q 0.5713,0 0.991375,0.20491 0.424275,0.20491 0.672119,0.53278 0.247844,0.32786 0.357064,0.71207 0.113419,0.38422 0.113419,0.7838 z m -1.789517,0.01 q 0,-0.50717 -0.247843,-0.69159 -0.243643,-0.18954 -0.877956,-0.18954 h -0.369665 v 1.71103 h 0.378067 q 0.436877,0 0.672119,-0.0666 0.235241,-0.0666 0.34026,-0.24589 0.105018,-0.1793 0.105018,-0.51741 z m 7.187473,4.85647 h -4.423383 v -7.10028 h 1.75591 v 5.39943 H 36.0804 Z m 7.292491,0 h -1.797919 l -0.474683,-1.43953 h -2.528848 l -0.483085,1.43953 h -1.797919 l 2.575056,-7.10028 h 1.940743 z m -2.675874,-2.67413 -0.852751,-2.59217 -0.861152,2.59217 z m 8.267063,-4.42615 -2.281003,3.84726 v 3.25302 h -1.755912 v -3.21203 l -2.32301,-3.88794 h 1.823122 l 1.335837,2.23356 1.340037,-2.23356 z m 5.171115,7.10028 h -4.389777 v -7.10028 h 4.318364 v 1.42414 h -2.562454 v 1.30122 h 2.444833 v 1.42927 h -2.444833 v 1.51637 h 2.633867 z m 6.813606,0 h -1.886134 l -0.457881,-1.26022 q -0.252045,-0.69159 -0.453681,-1.00921 -0.201635,-0.32274 -0.394869,-0.40983 -0.189034,-0.0922 -0.491487,-0.0922 h -0.197435 v 2.77147 h -1.755912 v -7.10028 h 2.98673 q 0.722527,0 1.184609,0.35859 0.462082,0.3586 0.663717,0.87088 0.205837,0.5123 0.205837,0.97335 0,0.5379 -0.172231,0.91188 -0.168029,0.36884 -0.357062,0.5379 -0.189034,0.16904 -0.424276,0.32273 0.28145,0.19979 0.462082,0.47643 0.184833,0.27151 0.499889,1.10653 z m -2.386023,-4.85647 q 0,-0.4918 -0.264646,-0.68646 -0.264647,-0.19467 -0.861153,-0.19467 h -0.369665 v 1.71103 h 0.378067 q 0.642713,0 0.877955,-0.16906 0.239442,-0.17417 0.239442,-0.66084 z"
       id="text79-1"
       style="font-weight:bold;font-size:9.50056px;font-family:GillSans-Bold, 'Gill Sans';-inkscape-font-specification:'GillSans-Bold, Gill Sans, Bold';stroke-width:0.905538"
       aria-label="PLAYER" /><g
       id="g81"
       transform="matrix(0.78542749,0,0,0.78542749,-69.942854,6.0558038)"><path
         d="m 150.73,8.93 c 0,0 -4.37,5.55 -6.92,8.79 v -7.53 c 0,-0.65 -0.32,-1.23 -0.8,-1.47 -0.49,-0.24 -1.05,-0.09 -1.41,0.37 l -9.09,11.56 c -0.49,0.63 -0.48,1.63 0.04,2.24 0.51,0.6 1.33,0.59 1.82,-0.04 0,0 4.34,-5.51 6.87,-8.73 v 7.53 c 0,0.65 0.32,1.23 0.81,1.47 0.49,0.24 1.05,0.1 1.41,-0.37 0,0 4.37,-5.56 6.91,-8.79 v 7.69 c 0,0.88 0.57,1.58 1.29,1.58 0.72,0 1.29,-0.71 1.29,-1.58 V 10.04 c 0,-0.65 -0.32,-1.23 -0.81,-1.47 -0.49,-0.24 -1.04,-0.1 -1.41,0.37 z"
         style="stroke:#000000;stroke-width:0.96px"
         id="path79" /><path
         d="m 132.5,8.84 -6.02,7.66 c -0.5,0.63 -0.48,1.63 0.03,2.24 0.52,0.61 1.33,0.59 1.83,-0.04 0,0 2.03,-2.58 3.81,-4.84 v 7.88 c 0,0.87 0.57,1.58 1.29,1.58 0.72,0 1.29,-0.71 1.29,-1.58 V 9.94 c 0,-0.65 -0.32,-1.23 -0.81,-1.47 -0.49,-0.24 -1.05,-0.09 -1.41,0.37 z"
         style="stroke:#000000;stroke-width:0.96px"
         id="path80" /><path
         d="m 161.18,14.49 c -0.2,-0.58 -0.67,-0.96 -1.19,-0.96 h -2.63 l 1.92,-2.44 c 0,0 1,-1.47 0.11,-2.27 -0.88,-0.81 -1.97,0.08 -1.97,0.08 l -4.03,5.12 c -0.36,0.46 -0.46,1.13 -0.26,1.72 0.2,0.58 0.67,0.96 1.19,0.96 h 2.63 l -3.12,3.96 c 0,0 -1.29,1.41 -0.34,2.36 0.96,0.96 2.2,-0.17 2.2,-0.17 l 5.22,-6.64 c 0.36,-0.46 0.46,-1.13 0.26,-1.72 z"
         style="stroke:#000000;stroke-width:0.96px"
         id="path81" /></g><rect
       id="Screen"
       x="6.2722497"
       y="31.447901"
       width="73.860619"
       height="95.816208"
       style="stroke-width:0px" /></g></svg>
