<svg xmlns="http://www.w3.org/2000/svg" width="20.41mm" height="130.6mm" viewBox="0 0 57.85 370.19">
  <defs>
    <clipPath id="clip-path">
      <rect x="15.02" y="32.85" width="27.8" height="25.62" style="fill: none" />
    </clipPath>
  </defs>
  <g id="faceplate">
    <rect x="0.13" y="0.13" width="57.6" height="364.25" style="fill: #ededed;stroke: #9d9d9e;stroke-miterlimit: 10;stroke-width: 0.25px" />
    <g id="pips_-_fewest" data-name="pips - fewest">
      <g style="clip-path: url(#clip-path)">
        <g style="clip-path: url(#clip-path)">
          <path d="M34.62,35.63l.71-1.24a13.86,13.86,0,0,0-5.77-1.54v1.43a12.39,12.39,0,0,1,5.06,1.35" />
          <path d="M39.41,40l1.24-.71A14,14,0,0,0,36.42,35l-.71,1.23a12.55,12.55,0,0,1,3.7,3.7" />
          <path d="M22.14,36.26,21.43,35a14,14,0,0,0-4.23,4.22l1.24.71a12.55,12.55,0,0,1,3.7-3.7" />
          <path d="M41.4,46.12h1.43a13.83,13.83,0,0,0-1.55-5.77l-1.23.71a12.47,12.47,0,0,1,1.35,5.06" />
          <path d="M28.29,34.28V32.85a13.86,13.86,0,0,0-5.77,1.54l.71,1.24a12.39,12.39,0,0,1,5.06-1.35" />
          <path d="M18.44,53.54l-1.24.71a14,14,0,0,0,4.23,4.22l.71-1.23a12.55,12.55,0,0,1-3.7-3.7" />
          <path d="M35.71,57.24l.71,1.23a14,14,0,0,0,4.23-4.22l-1.24-.71a12.55,12.55,0,0,1-3.7,3.7" />
          <path d="M41.4,47.38a12.47,12.47,0,0,1-1.35,5.06l1.23.71a13.83,13.83,0,0,0,1.55-5.77Z" />
          <path d="M16.45,47.38H15a13.83,13.83,0,0,0,1.55,5.77l1.23-.71a12.47,12.47,0,0,1-1.35-5.06" />
          <path d="M17.8,41.06l-1.23-.71A13.83,13.83,0,0,0,15,46.12h1.43a12.47,12.47,0,0,1,1.35-5.06" />
        </g>
      </g>
    </g>
    <g>
      <path d="M21.85,356.51a4.37,4.37,0,0,1-.78.39,3.78,3.78,0,0,1-.8.21,5.59,5.59,0,0,1-.83.06A3.61,3.61,0,0,1,18,356.9a3.06,3.06,0,0,1-1.1-.79,3.38,3.38,0,0,1-.69-1.23,4.7,4.7,0,0,1-.23-1.54,4.77,4.77,0,0,1,.27-1.68,3.33,3.33,0,0,1,.76-1.2,3.23,3.23,0,0,1,1.12-.71,3.89,3.89,0,0,1,1.32-.22,6,6,0,0,1,2.36.56v2a6.5,6.5,0,0,0-.9-.58,2.25,2.25,0,0,0-1-.22,2,2,0,0,0-1,.25,2,2,0,0,0-.75.74,2.31,2.31,0,0,0,0,2.15,2,2,0,0,0,.68.75,1.84,1.84,0,0,0,1,.27,2.55,2.55,0,0,0,.84-.13,3.27,3.27,0,0,0,.67-.29,5.55,5.55,0,0,0,.56-.38Z" />
      <path d="M27.72,357.07H23.08v-7.44h1.85v5.66h2.79Z" />
      <path d="M35.21,357.07H33l-2.34-3.48v3.48H28.79v-7.44h1.84V353l2.21-3.33h2l-2.27,3.48Z" />
      <path d="M42.29,353.48a4.14,4.14,0,0,1-.34,1.84,3.93,3.93,0,0,1-.8,1.12,2.55,2.55,0,0,1-1.84.63H36v-7.44h2.53a5.55,5.55,0,0,1,1,.07,4.66,4.66,0,0,1,.74.2,2.83,2.83,0,0,1,.55.3,3.58,3.58,0,0,1,.41.35,3.24,3.24,0,0,1,.55.74,3.77,3.77,0,0,1,.37,1A5.15,5.15,0,0,1,42.29,353.48Zm-1.87-.09a3.05,3.05,0,0,0-.28-1.42,1.5,1.5,0,0,0-.69-.68,2.06,2.06,0,0,0-.81-.17h-.78v4.41h.78a2,2,0,0,0,1.25-.42A2.15,2.15,0,0,0,40.42,353.39Z" />
    </g>
    <path d="M28.63,198.27c8,0,14.54,6.09,14.54,13.58v109.8c0,7.48-6.52,13.57-14.54,13.57s-14.54-6.09-14.54-13.57V211.85c0-7.49,6.53-13.58,14.54-13.58m0-1.05C20,197.22,13,203.77,13,211.85v109.8c0,8.08,7,14.63,15.59,14.63s15.59-6.55,15.59-14.63V211.85c0-8.08-7-14.63-15.59-14.63Z" />
    <g>
      <path d="M28.5,238.71a3,3,0,0,1-.6.28,3.6,3.6,0,0,1-.63.15,4.54,4.54,0,0,1-.65,0,3,3,0,0,1-1.11-.19,2.3,2.3,0,0,1-.86-.58,2.45,2.45,0,0,1-.54-.89,3.33,3.33,0,0,1-.18-1.12,3.28,3.28,0,0,1,.21-1.22,2.44,2.44,0,0,1,1.47-1.39,3.22,3.22,0,0,1,1-.16,4.89,4.89,0,0,1,1.84.41v1.43a5.09,5.09,0,0,0-.7-.41,1.86,1.86,0,0,0-.81-.17,1.61,1.61,0,0,0-.78.19,1.48,1.48,0,0,0-.58.53,1.61,1.61,0,0,0,0,1.57,1.4,1.4,0,0,0,.54.54,1.43,1.43,0,0,0,.77.2,2.39,2.39,0,0,0,.66-.09,3.25,3.25,0,0,0,.52-.22,4.28,4.28,0,0,0,.43-.27Z" />
      <path d="M33.85,233.7l-2.15,5.48h-.95l-2.11-5.48h1.5l1.09,3.13,1.12-3.13Z" />
    </g>
    <g>
      <path d="M23.65,287.58a4,4,0,0,1-.6.28,3.6,3.6,0,0,1-.63.15,4.63,4.63,0,0,1-.65,0,3,3,0,0,1-1.12-.19,2.34,2.34,0,0,1-.85-.58,2.45,2.45,0,0,1-.54-.89,3.33,3.33,0,0,1-.19-1.12,3.28,3.28,0,0,1,.22-1.22,2.48,2.48,0,0,1,.59-.88,2.51,2.51,0,0,1,.88-.51,3.18,3.18,0,0,1,1-.17,5.14,5.14,0,0,1,1.84.41v1.44a5.76,5.76,0,0,0-.7-.41,1.86,1.86,0,0,0-.81-.17,1.61,1.61,0,0,0-.78.19,1.46,1.46,0,0,0-.8,1.35,1.49,1.49,0,0,0,.19.75,1.4,1.4,0,0,0,.54.54,1.5,1.5,0,0,0,.77.2,2.27,2.27,0,0,0,.65-.09,3.4,3.4,0,0,0,.53-.22l.43-.27Z" />
      <path d="M25.43,288H24.19v-5.41h1.24Z" />
      <path d="M30.16,288H28.59l-1.34-1.88V288H26v-5.41h1.25v3.17L28.48,284H30l-1.37,1.85Z" />
      <path d="M33.73,288H32.3v-5.41h1.43Z" />
      <path d="M38.19,288H37v-2.14a1.62,1.62,0,0,0-.09-.57.4.4,0,0,0-.42-.25.44.44,0,0,0-.26.07.65.65,0,0,0-.21.16,1.3,1.3,0,0,0-.15.2l-.13.2V288H34.45v-4h1.24v.57a1.66,1.66,0,0,1,.59-.5,1.38,1.38,0,0,1,.65-.14q1.26,0,1.26,1.71Z" />
    </g>
    <g>
      <path d="M22.51,66.19a3.62,3.62,0,0,1-.33,1.67,3.44,3.44,0,0,1-.78,1,2.62,2.62,0,0,1-1.79.57H16.39V62.68h2.48a5.19,5.19,0,0,1,.95.07,3.44,3.44,0,0,1,.72.18,2.72,2.72,0,0,1,.54.27,3.3,3.3,0,0,1,.4.32,3,3,0,0,1,.53.67,3.4,3.4,0,0,1,.37.89A4.33,4.33,0,0,1,22.51,66.19Zm-1.82-.09a2.47,2.47,0,0,0-.28-1.29,1.41,1.41,0,0,0-.66-.61A2,2,0,0,0,19,64h-.76v4H19a2,2,0,0,0,1.22-.38A1.87,1.87,0,0,0,20.69,66.1Z" />
      <path d="M24.65,69.45H23.09v-5h1.56Zm-.13-6.12a.73.73,0,0,1-.19.52.58.58,0,0,1-.46.22.56.56,0,0,1-.33-.1.58.58,0,0,1-.23-.26.82.82,0,0,1-.09-.38.76.76,0,0,1,.19-.52.57.57,0,0,1,.46-.22.58.58,0,0,1,.46.22A.76.76,0,0,1,24.52,63.33Z" />
      <path d="M30,64.48l-2,5H26.84l-1.95-5h1.66l.91,2.6,1-2.6Z" />
      <path d="M31.77,69.45H30.21v-5h1.56Zm-.13-6.12a.73.73,0,0,1-.19.52.58.58,0,0,1-.46.22.56.56,0,0,1-.33-.1.58.58,0,0,1-.23-.26.82.82,0,0,1-.09-.38.76.76,0,0,1,.19-.52.59.59,0,0,1,.92,0A.76.76,0,0,1,31.64,63.33Z" />
      <path d="M37.11,69.45H35.56V69a2.62,2.62,0,0,1-.52.39,1.57,1.57,0,0,1-.76.15,1.81,1.81,0,0,1-.93-.27,2,2,0,0,1-.76-.84A3.06,3.06,0,0,1,32.3,67a3.53,3.53,0,0,1,.22-1.27,2.16,2.16,0,0,1,.7-1,1.84,1.84,0,0,1,1.17-.37,1.77,1.77,0,0,1,1.17.38V62.68h1.55Zm-1.55-1.58V66a3.19,3.19,0,0,0-.43-.25,1,1,0,0,0-.36-.07.72.72,0,0,0-.6.35,1.63,1.63,0,0,0-.25,1,1.47,1.47,0,0,0,.26,1,.76.76,0,0,0,.59.3.9.9,0,0,0,.46-.1A2.39,2.39,0,0,0,35.56,67.87Z" />
      <path d="M42.22,67.39H39.14a1.27,1.27,0,0,0,1.24,1,3.8,3.8,0,0,0,1.73-.5V69a4.2,4.2,0,0,1-.82.36,3.92,3.92,0,0,1-1.23.17,2.71,2.71,0,0,1-1.38-.34,2.18,2.18,0,0,1-.85-.93,3.16,3.16,0,0,1-.28-1.33,3,3,0,0,1,.28-1.31,2.08,2.08,0,0,1,.85-.91,2.71,2.71,0,0,1,1.38-.33,2.28,2.28,0,0,1,1,.26,2,2,0,0,1,.81.86A3.22,3.22,0,0,1,42.22,67Zm-1.45-.87a1.25,1.25,0,0,0-.21-.76.7.7,0,0,0-.6-.29.77.77,0,0,0-.62.29,1.15,1.15,0,0,0-.24.76Z" />
    </g>
    <path d="M44.22,308.21c0-8.08-7-14.63-15.59-14.63S13,300.13,13,308.21v8.11h0v19.84a5.68,5.68,0,0,0,5.67,5.67H38.55a5.68,5.68,0,0,0,5.67-5.67V316.32h0Z" />
    <g>
      <path d="M24,336.45a3.71,3.71,0,0,1-.61.28,3.3,3.3,0,0,1-.62.15,4.63,4.63,0,0,1-.65,0,3,3,0,0,1-1.12-.19,2.38,2.38,0,0,1-.85-.58,2.34,2.34,0,0,1-.55-.89,3.33,3.33,0,0,1-.18-1.12,3.06,3.06,0,0,1,.22-1.22,2.39,2.39,0,0,1,.59-.88,2.56,2.56,0,0,1,.87-.51,3.29,3.29,0,0,1,1-.17,5.14,5.14,0,0,1,1.84.41v1.44a4.7,4.7,0,0,0-.7-.41,1.74,1.74,0,0,0-.82-.17,1.6,1.6,0,0,0-.77.19,1.41,1.41,0,0,0-.58.53,1.45,1.45,0,0,0-.22.81,1.51,1.51,0,0,0,.19.76,1.61,1.61,0,0,0,.53.54,1.56,1.56,0,0,0,.78.2,2,2,0,0,0,.65-.1,2.34,2.34,0,0,0,.52-.21,4.54,4.54,0,0,0,.44-.28Z" style="fill: #fff" />
      <path d="M25.82,336.85H24.58v-5.41h1.24Z" style="fill: #fff" />
      <path d="M30.26,334.86a2.43,2.43,0,0,1-.23,1.06,1.71,1.71,0,0,1-.68.73,2.38,2.38,0,0,1-2.2,0,1.71,1.71,0,0,1-.68-.73,2.43,2.43,0,0,1-.23-1.06,2.66,2.66,0,0,1,.13-.82,1.86,1.86,0,0,1,.38-.65,1.65,1.65,0,0,1,.63-.43,2.45,2.45,0,0,1,1.74,0,1.6,1.6,0,0,1,.63.43,1.92,1.92,0,0,1,.38.65A2.66,2.66,0,0,1,30.26,334.86Zm-1.31,0a1.31,1.31,0,0,0-.18-.74.64.64,0,0,0-1,0,1.31,1.31,0,0,0-.18.74,1.33,1.33,0,0,0,.18.74.62.62,0,0,0,1,0A1.33,1.33,0,0,0,29,334.86Z" style="fill: #fff" />
      <path d="M33.61,336.67l-.32.12a2.23,2.23,0,0,1-.39.09,2.29,2.29,0,0,1-.47,0,2,2,0,0,1-1-.22,1.72,1.72,0,0,1-.61-.55,2.45,2.45,0,0,1-.3-.69,2.37,2.37,0,0,1,0-1.22,2.23,2.23,0,0,1,.3-.67,1.69,1.69,0,0,1,.6-.55,2.12,2.12,0,0,1,1-.22,2.77,2.77,0,0,1,.64.07,2.6,2.6,0,0,1,.49.17v1.1a2.89,2.89,0,0,0-1-.22.85.85,0,0,0-.58.23.88.88,0,0,0-.26.7,1.06,1.06,0,0,0,.13.53.76.76,0,0,0,.32.32.81.81,0,0,0,.39.1,1.77,1.77,0,0,0,.43-.06,5.89,5.89,0,0,0,.57-.18Z" style="fill: #fff" />
      <path d="M38.09,336.85H36.52L35.18,335v1.89H33.93v-5.41h1.25v3.17l1.23-1.73h1.48l-1.37,1.85Z" style="fill: #fff" />
    </g>
    <g>
      <path d="M34.54,6.76l-5.53,7v-6a1.27,1.27,0,0,0-.64-1.17.89.89,0,0,0-1.13.29L20,16.13a1.49,1.49,0,0,0,0,1.79.9.9,0,0,0,1.46,0l5.5-7v6a1.29,1.29,0,0,0,.64,1.18.92.92,0,0,0,1.14-.3l5.53-7v6.15a1.05,1.05,0,1,0,2.06,0V7.64a1.28,1.28,0,0,0-.65-1.18A.91.91,0,0,0,34.54,6.76Z" style="stroke: #000;stroke-width: 0.6000000000000001px" />
      <path d="M20,6.68l-4.81,6.13a1.47,1.47,0,0,0,0,1.79.9.9,0,0,0,1.46,0l3.05-3.87V17a1.17,1.17,0,0,0,1,1.26,1.17,1.17,0,0,0,1-1.26V7.56a1.29,1.29,0,0,0-.65-1.17A.91.91,0,0,0,20,6.68Z" style="stroke: #000;stroke-width: 0.6000000000000001px" />
      <path d="M42.91,11.2a1.05,1.05,0,0,0-.95-.77h-2.1l1.53-1.95s.8-1.17.1-1.82a1.27,1.27,0,0,0-1.58.06l-3.23,4.1a1.45,1.45,0,0,0-.2,1.37,1,1,0,0,0,1,.78h2.1L37,16.14s-1,1.13-.27,1.89,1.75-.14,1.75-.14l4.18-5.31A1.5,1.5,0,0,0,42.91,11.2Z" style="stroke: #000;stroke-width: 0.6000000000000001px" />
    </g>
  </g>
  <g /></svg>