<?xml version="1.0" encoding="UTF-8" standalone="no"?>
<svg
   width="20.32mm"
   height="130.55mm"
   viewBox="0 0 57.6 370.07"
   version="1.1"
   id="svg22"
   sodipodi:docname="CLKD_artwork.svg"
   inkscape:version="1.4.2 (ebf0e940, 2025-05-08)"
   xmlns:inkscape="http://www.inkscape.org/namespaces/inkscape"
   xmlns:sodipodi="http://sodipodi.sourceforge.net/DTD/sodipodi-0.dtd"
   xmlns="http://www.w3.org/2000/svg"
   xmlns:svg="http://www.w3.org/2000/svg">
  <sodipodi:namedview
     id="namedview22"
     pagecolor="#ffffff"
     bordercolor="#666666"
     borderopacity="1.0"
     inkscape:showpageshadow="2"
     inkscape:pageopacity="0.0"
     inkscape:pagecheckerboard="0"
     inkscape:deskcolor="#d1d1d1"
     inkscape:document-units="mm"
     inkscape:zoom="0.80666406"
     inkscape:cx="37.190203"
     inkscape:cy="410.3319"
     inkscape:window-width="1312"
     inkscape:window-height="979"
     inkscape:window-x="49"
     inkscape:window-y="38"
     inkscape:window-maximized="0"
     inkscape:current-layer="text" />
  <defs
     id="defs2">
    <clipPath
       id="clippath">
      <rect
         x="14.91"
         y="33.17"
         width="27.78"
         height="25.51"
         style="fill: none; stroke-width: 0px;"
         id="rect1" />
    </clipPath>
    <clipPath
       id="clippath-1">
      <rect
         x="14.91"
         y="33.17"
         width="27.78"
         height="25.51"
         style="fill: none; stroke-width: 0px;"
         id="rect2" />
    </clipPath>
  </defs>
  <g
     id="faceplate">
    <g
       id="g3">
      <path
         id="rect3"
         style="fill:#ededed;stroke-width:0px"
         d="m 0.13,0.13 h 57.349998 v 364 H 0.13 Z" />
      <path
         d="M57.35.25v363.75H.25V.25h57.1M57.6,0H0v364.25h57.6V0h0Z"
         style="fill: #9d9d9e; stroke-width: 0px;"
         id="path3" />
    </g>
    <path
       d="M28.8,200.84c8.05,0,14.59,6.08,14.59,13.54v109.18H14.21v-109.18c0-7.47,6.55-13.54,14.59-13.54M28.8,199.84c-8.61,0-15.59,6.51-15.59,14.54v110.18s31.18,0,31.18,0v-110.18c0-8.03-6.98-14.54-15.59-14.54h0Z"
       style="fill: #000; stroke-width: 0px;"
       id="path4" />
    <path
       d="M44.39,310.8c0-8.05-6.98-14.57-15.59-14.57s-15.59,6.53-15.59,14.57v5.36s0,0,0,0v19.77c0,3.11,2.55,5.65,5.67,5.65h19.84c3.12,0,5.67-2.54,5.67-5.65v-19.77s0,0,0,0v-5.35Z"
       style="fill: #000; stroke-width: 0px;"
       id="path5" />
    <g
       id="text">
      <path
         d="m 21.512077,349.98637 q -0.378768,0.2417 -0.775155,0.38672 -0.396387,0.14502 -0.801582,0.2041 -0.400791,0.0645 -0.832412,0.0645 -0.797177,0 -1.431396,-0.26856 -0.629814,-0.26855 -1.09667,-0.78955 -0.46245,-0.52636 -0.695878,-1.22461 -0.229023,-0.70361 -0.229023,-1.5415 0,-0.96143 0.273066,-1.68115 0.273067,-0.7251 0.761943,-1.20312 0.493282,-0.47803 1.118691,-0.70362 0.629815,-0.23095 1.325693,-0.23095 1.039414,0 2.356298,0.56396 v 1.97656 q -0.453642,-0.34375 -0.898476,-0.56933 -0.44043,-0.23096 -1.039414,-0.23096 -0.53292,0 -0.995371,0.25782 -0.46245,0.25781 -0.744326,0.73583 -0.281875,0.47803 -0.281875,1.11719 0,0.56397 0.246641,1.03662 0.246641,0.46729 0.682666,0.74658 0.440429,0.27392 0.990967,0.27392 0.444834,0 0.841219,-0.1289 0.396387,-0.13428 0.66505,-0.29541 0.273066,-0.16113 0.559344,-0.38135 z m 5.875331,0.5586 h -4.637723 v -7.44434 h 1.840995 v 5.66113 h 2.796728 z m 7.491706,0 h -2.246191 l -2.334276,-3.48584 v 3.48584 h -1.840996 v -7.44434 h 1.840996 v 3.33008 l 2.210956,-3.33008 h 1.99955 l -2.272617,3.48584 z m 7.077702,-3.58789 q 0,1.14404 -0.343535,1.83691 -0.339131,0.69288 -0.801582,1.12256 -0.65624,0.62842 -1.836591,0.62842 h -3.294413 v -7.44434 h 2.536874 q 0.572559,0 0.977754,0.0752 0.409599,0.0698 0.735517,0.2041 0.325918,0.1289 0.554941,0.29541 0.229023,0.16113 0.4096,0.34912 0.312705,0.31153 0.546133,0.73584 0.237831,0.42432 0.374365,0.98292 0.140937,0.55858 0.140937,1.21386 z m -1.871825,-0.0967 q 0,-0.90771 -0.28628,-1.41259 -0.281875,-0.51025 -0.682666,-0.68213 -0.396386,-0.17187 -0.81039,-0.17187 h -0.783964 v 4.40966 h 0.783964 q 0.722304,0 1.25082,-0.41894 0.528516,-0.41895 0.528516,-1.72413 z"
         id="text5"
         style="font-weight:700;font-size:9.96092px;font-family:GillSans-Bold, 'Gill Sans';stroke-width:0.905538"
         aria-label="CLKD" />
      <path
         d="M 5.5273437,-0.40625 Q 5.1914062,-0.23046875 4.8398437,-0.125 4.4882812,-0.01953125 4.1289062,0.0234375 3.7734375,0.0703125 3.390625,0.0703125 2.6835938,0.0703125 2.1210938,-0.125 1.5625,-0.3203125 1.1484375,-0.69921875 0.73828125,-1.0820312 0.53125,-1.5898437 0.328125,-2.1015625 0.328125,-2.7109375 q 0,-0.6992188 0.2421875,-1.2226563 0.2421875,-0.5273437 0.6757812,-0.8749999 0.4375,-0.3476563 0.9921876,-0.5117188 0.5585937,-0.1679687 1.1757812,-0.1679687 0.921875,0 2.0898437,0.4101562 v 1.4375 q -0.4023437,-0.25 -0.796875,-0.4140625 -0.390625,-0.1679687 -0.9218749,-0.1679687 -0.4726563,0 -0.8828125,0.1875 Q 2.4921875,-3.8476563 2.2421875,-3.5 q -0.25,0.3476562 -0.25,0.8125 0,0.4101562 0.21875,0.7539063 0.21875,0.3398437 0.6054688,0.5429687 0.390625,0.1992188 0.8789062,0.1992188 0.3945312,0 0.7460937,-0.09375 Q 4.7929687,-1.3828125 5.03125,-1.5 5.2734375,-1.6171875 5.5273437,-1.7773437 Z m 6.0745313,-5.0078125 -2.4414064,5.484375 h -1.078125 l -2.3945313,-5.484375 h 1.6992188 l 1.2382812,3.125 1.2734375,-3.125 z"
         id="text6"
         style="font-weight:700;font-size:8px;font-family:GillSans-Bold, 'Gill Sans';letter-spacing:-0.04em"
         transform="translate(23.7 241.06) scale(.88 1)"
         aria-label="CV" />
      <path
         d="M 5.5273437,-0.40625 Q 5.1914062,-0.23046875 4.8398437,-0.125 4.4882812,-0.01953125 4.1289062,0.0234375 3.7734375,0.0703125 3.390625,0.0703125 2.6835938,0.0703125 2.1210938,-0.125 1.5625,-0.3203125 1.1484375,-0.69921875 0.73828125,-1.0820312 0.53125,-1.5898437 0.328125,-2.1015625 0.328125,-2.7109375 q 0,-0.6992188 0.2421875,-1.2226563 0.2421875,-0.5273437 0.6757812,-0.8749999 0.4375,-0.3476563 0.9921876,-0.5117188 0.5585937,-0.1679687 1.1757812,-0.1679687 0.921875,0 2.0898437,0.4101562 v 1.4375 q -0.4023437,-0.25 -0.796875,-0.4140625 -0.390625,-0.1679687 -0.9218749,-0.1679687 -0.4726563,0 -0.8828125,0.1875 Q 2.4921875,-3.8476563 2.2421875,-3.5 q -0.25,0.3476562 -0.25,0.8125 0,0.4101562 0.21875,0.7539063 0.21875,0.3398437 0.6054688,0.5429687 0.390625,0.1992188 0.8789062,0.1992188 0.3945312,0 0.7460937,-0.09375 Q 4.7929687,-1.3828125 5.03125,-1.5 5.2734375,-1.6171875 5.5273437,-1.7773437 Z M 7.5549998,0 H 6.1448436 V -5.4140625 H 7.5549998 Z M 12.930313,0 H 11.145156 L 9.6178126,-1.8867187 V 0 h -1.421875 v -5.4140625 h 1.421875 v 3.1757812 l 1.3945314,-1.7382812 h 1.6875 l -1.554688,1.8554687 z m 4.055312,0 h -1.632812 v -5.4140625 h 1.632812 z m 5.062812,0 h -1.40625 v -2.1445313 q 0,-0.328125 -0.109375,-0.5703125 -0.105469,-0.2460937 -0.46875,-0.2460937 -0.171875,0 -0.304687,0.066406 -0.128907,0.0625 -0.234375,0.1640625 -0.101563,0.1015625 -0.171875,0.1953125 -0.07031,0.09375 -0.144532,0.1992188 V 0 h -1.40625 v -3.9765625 h 1.40625 V -3.40625 q 0.332032,-0.3554688 0.664063,-0.4960938 0.335937,-0.1445312 0.746094,-0.1445312 1.429687,0 1.429687,1.7109375 z"
         id="text7"
         style="font-weight:700;font-size:8px;font-family:GillSans-Bold, 'Gill Sans';letter-spacing:-0.04em"
         transform="translate(19.07 289.25) scale(.88 1)"
         aria-label="Clk In" />
      <path
         d="m 7.8076172,-3.2617188 q 0,1.0400391 -0.3808594,1.6699219 Q 7.0507812,-0.96191406 6.5380859,-0.57128906 5.8105469,0 4.5019531,0 H 0.84960938 V -6.7675781 H 3.6621094 q 0.6347656,0 1.0839843,0.068359 0.4541016,0.063477 0.8154297,0.1855468 0.3613282,0.1171875 0.6152344,0.2685547 0.2539063,0.1464844 0.4541016,0.3173828 0.3466797,0.2832032 0.6054687,0.6689453 0.2636719,0.3857422 0.4150391,0.8935547 0.15625,0.5078125 0.15625,1.1035156 z m -2.0751953,-0.087891 q 0,-0.8251953 -0.3173828,-1.2841797 -0.3125,-0.4638671 -0.756836,-0.6201171 -0.4394531,-0.15625 -0.8984375,-0.15625 H 2.890625 v 4.008789 h 0.8691406 q 0.8007813,0 1.3867188,-0.3808594 0.5859375,-0.3808593 0.5859375,-1.5673828 z m 4.3558591,-2.7685547 q 0,0.3076172 -0.2197264,0.522461 -0.2197266,0.2148437 -0.5224609,0.2148437 -0.2050782,0 -0.3759766,-0.097656 -0.1660156,-0.097656 -0.2636719,-0.2636719 -0.097656,-0.1708984 -0.097656,-0.3759766 0,-0.3027343 0.2148437,-0.5224609 0.2148438,-0.2197266 0.522461,-0.2197266 0.3027343,0 0.5224609,0.2197266 0.2197264,0.2197266 0.2197264,0.5224609 z M 10.229883,0 H 8.4671874 V -4.9707031 H 10.229883 Z M 16.280078,-4.9707031 14.019336,0 h -1.298828 l -2.211914,-4.9707031 h 1.889648 l 1.030273,2.602539 1.142579,-2.602539 z m 1.899805,-1.147461 q 0,0.3076172 -0.219727,0.522461 -0.219726,0.2148437 -0.52246,0.2148437 -0.205079,0 -0.375977,-0.097656 -0.166016,-0.097656 -0.263672,-0.2636719 -0.09766,-0.1708984 -0.09766,-0.3759766 0,-0.3027343 0.214844,-0.5224609 0.214843,-0.2197266 0.522461,-0.2197266 0.302734,0 0.52246,0.2197266 0.219727,0.2197266 0.219727,0.5224609 z M 18.321485,0 h -1.762696 v -4.9707031 h 1.762696 z m 6.069726,0 h -1.762696 v -0.44921875 q -0.27832,0.234375 -0.59082,0.38574219 -0.307617,0.15136718 -0.854492,0.15136718 -0.541992,0 -1.064453,-0.26855468 -0.522461,-0.26855469 -0.859375,-0.83496094 -0.336914,-0.5712891 -0.336914,-1.4355469 0,-0.6787109 0.253906,-1.2695312 0.253906,-0.5957031 0.795898,-0.9667969 0.541992,-0.3710937 1.328125,-0.3710937 0.488281,0 0.791016,0.1074218 0.302734,0.1074219 0.537109,0.2734375 v -2.0898437 h 1.762696 z m -1.762696,-1.5820312 v -1.8994141 q -0.307617,-0.1708985 -0.483398,-0.2441406 -0.170899,-0.073242 -0.405274,-0.073242 -0.415039,0 -0.693359,0.3515625 -0.273438,0.3515625 -0.273438,0.9570312 0,0.6591797 0.288086,0.9619141 0.292969,0.2978516 0.678711,0.2978516 0.317383,0 0.512696,-0.097656 0.195312,-0.1025391 0.375976,-0.2539062 z m 7.573633,-0.4785157 h -3.500976 q 0.102539,0.4541016 0.50293,0.7421875 0.40039,0.288086 0.908203,0.288086 0.888672,0 1.96289,-0.4980469 v 1.08886717 q -0.385742,0.20019532 -0.9375,0.36621094 -0.546875,0.16113281 -1.396484,0.16113281 -0.917969,0 -1.5625,-0.34179687 -0.644531,-0.34179687 -0.966797,-0.92773435 -0.317383,-0.5859375 -0.317383,-1.328125 0,-0.7324219 0.317383,-1.3085938 0.322266,-0.5810547 0.966797,-0.9082031 0.644531,-0.3320312 1.5625,-0.3320312 0.605469,0 1.166992,0.2636718 0.566406,0.2587891 0.927734,0.8544922 0.366211,0.5908203 0.366211,1.5283203 z m -1.65039,-0.8691406 q 0,-0.4785156 -0.239258,-0.7617188 -0.234375,-0.2880859 -0.678711,-0.2880859 -0.439453,0 -0.712891,0.2929688 -0.268554,0.2880859 -0.268554,0.7568359 z"
         id="text8"
         style="font-weight:700;font-size:10px;font-family:GillSans-Bold, 'Gill Sans';letter-spacing:-0.04em"
         transform="translate(15.51 68.76) scale(.88 1)"
         aria-label="Divide" />
      <path
         d="M 5.5273437,-0.40625 Q 5.1914062,-0.23046875 4.8398437,-0.125 4.4882812,-0.01953125 4.1289062,0.0234375 3.7734375,0.0703125 3.390625,0.0703125 2.6835938,0.0703125 2.1210938,-0.125 1.5625,-0.3203125 1.1484375,-0.69921875 0.73828125,-1.0820312 0.53125,-1.5898437 0.328125,-2.1015625 0.328125,-2.7109375 q 0,-0.6992188 0.2421875,-1.2226563 0.2421875,-0.5273437 0.6757812,-0.8749999 0.4375,-0.3476563 0.9921876,-0.5117188 0.5585937,-0.1679687 1.1757812,-0.1679687 0.921875,0 2.0898437,0.4101562 v 1.4375 q -0.4023437,-0.25 -0.796875,-0.4140625 -0.390625,-0.1679687 -0.9218749,-0.1679687 -0.4726563,0 -0.8828125,0.1875 Q 2.4921875,-3.8476563 2.2421875,-3.5 q -0.25,0.3476562 -0.25,0.8125 0,0.4101562 0.21875,0.7539063 0.21875,0.3398437 0.6054688,0.5429687 0.390625,0.1992188 0.8789062,0.1992188 0.3945312,0 0.7460937,-0.09375 Q 4.7929687,-1.3828125 5.03125,-1.5 5.2734375,-1.6171875 5.5273437,-1.7773437 Z M 7.5549998,0 H 6.1448436 v -5.4140625 h 1.4101562 z m 4.9260942,-1.9921875 q 0,0.59375 -0.257813,1.05859375 -0.257812,0.46484375 -0.773437,0.734375 -0.511719,0.26953125 -1.25,0.26953125 -0.7382814,0 -1.2539064,-0.26953125 Q 8.4342189,-0.46875 8.1764064,-0.93359375 7.9225001,-1.3984375 7.9225001,-1.9921875 q 0,-0.4492188 0.140625,-0.8164063 0.1445313,-0.3671875 0.4335938,-0.6484375 0.2929687,-0.2851562 0.71875,-0.4375 0.4257812,-0.1523437 0.9843751,-0.1523437 0.5625,0 0.992187,0.15625 0.433594,0.1523437 0.714844,0.4296875 0.285156,0.2773437 0.429688,0.6484375 0.144531,0.3710937 0.144531,0.8203125 z m -1.480469,0 q 0,-0.4726563 -0.207031,-0.7382813 Q 10.590469,-3 10.199844,-3 q -0.3867189,0 -0.5937501,0.2695312 -0.203125,0.265625 -0.203125,0.7382813 0,0.46875 0.2070312,0.7421875 0.2070313,0.2734375 0.5898439,0.2734375 0.390625,0 0.59375,-0.2695312 0.207031,-0.2734375 0.207031,-0.7460938 z m 5.297187,1.80859375 q -0.175781,0.0664063 -0.371093,0.125 -0.195313,0.0546875 -0.441407,0.08984375 -0.242187,0.0390625 -0.53125,0.0390625 -0.652343,0 -1.105468,-0.21875 Q 13.399375,-0.37109375 13.153281,-0.703125 12.911094,-1.0390625 12.817344,-1.3867187 12.723594,-1.734375 12.723594,-2 q 0,-0.265625 0.09375,-0.6132813 0.09766,-0.3476562 0.335937,-0.671875 0.238281,-0.3242187 0.6875,-0.5429687 0.453125,-0.21875 1.113281,-0.21875 0.441407,0 0.71875,0.0625 0.277344,0.0625 0.5625,0.1679687 v 1.1054688 q -0.6875,-0.21875 -1.074218,-0.21875 -0.375,0 -0.667969,0.2265625 Q 14.204062,-2.4765625 14.204062,-2 q 0,0.3164063 0.144532,0.5351563 0.144531,0.2148437 0.367187,0.3164062 0.222656,0.1015625 0.445313,0.1015625 0.210937,0 0.480468,-0.0625 0.269532,-0.0625 0.65625,-0.1796875 z M 21.387968,0 H 19.602812 L 18.075468,-1.8867187 V 0 h -1.421875 v -5.4140625 h 1.421875 v 3.1757812 l 1.394531,-1.7382812 h 1.6875 l -1.554687,1.8554687 z"
         id="text9"
         style="font-weight:700;font-size:8px;font-family:GillSans-Bold, 'Gill Sans';letter-spacing:-0.04em;fill:#ffffff"
         transform="translate(19.34 337.44) scale(.88 1)"
         aria-label="Clock" />
    </g>
    <g
       id="pips_-_fewest"
       data-name="pips - fewest">
      <g
         style="clip-path: url(#clippath);"
         clip-path="url(#clippath)"
         id="g19">
        <g
           style="clip-path: url(#clippath-1);"
           clip-path="url(#clippath-1)"
           id="g18">
          <path
             d="M34.49,35.93l.71-1.23c-1.74-.9-3.69-1.45-5.77-1.54v1.42c1.81.09,3.52.56,5.05,1.35"
             style="fill: #000; stroke-width: 0px;"
             id="path9" />
          <path
             d="M39.28,40.25l1.23-.71c-1.09-1.69-2.53-3.12-4.22-4.21l-.71,1.23c1.48.96,2.74,2.21,3.7,3.69"
             style="fill: #000; stroke-width: 0px;"
             id="path10" />
          <path
             d="M22.02,36.56l-.71-1.23c-1.69,1.08-3.14,2.52-4.22,4.2l1.23.71c.96-1.47,2.22-2.73,3.7-3.69"
             style="fill: #000; stroke-width: 0px;"
             id="path11" />
          <path
             d="M41.26,46.38h1.43c-.09-2.07-.64-4.01-1.54-5.75l-1.23.71c.79,1.52,1.26,3.23,1.35,5.04"
             style="fill: #000; stroke-width: 0px;"
             id="path12" />
          <path
             d="M28.17,34.59v-1.42c-2.07.09-4.03.64-5.77,1.54l.71,1.23c1.53-.78,3.24-1.25,5.05-1.35"
             style="fill: #000; stroke-width: 0px;"
             id="path13" />
          <path
             d="M18.32,53.76l-1.23.71c1.09,1.69,2.53,3.12,4.22,4.21l.71-1.23c-1.48-.96-2.74-2.21-3.7-3.69"
             style="fill: #000; stroke-width: 0px;"
             id="path14" />
          <path
             d="M35.58,57.45l.71,1.23c1.69-1.08,3.14-2.52,4.22-4.2l-1.23-.71c-.96,1.47-2.22,2.73-3.7,3.69"
             style="fill: #000; stroke-width: 0px;"
             id="path15" />
          <path
             d="M41.26,47.64c-.09,1.81-.56,3.51-1.35,5.04l1.23.71c.9-1.73,1.45-3.68,1.54-5.75h-1.43Z"
             style="fill: #000; stroke-width: 0px;"
             id="path16" />
          <path
             d="M16.34,47.64h-1.43c.09,2.07.64,4.01,1.54,5.75l1.23-.71c-.79-1.52-1.26-3.23-1.35-5.04"
             style="fill: #000; stroke-width: 0px;"
             id="path17" />
          <path
             d="M17.69,41.34l-1.23-.71c-.9,1.73-1.45,3.68-1.54,5.75h1.43c.09-1.81.56-3.51,1.35-5.04"
             style="fill: #000; stroke-width: 0px;"
             id="path18" />
        </g>
      </g>
    </g>
    <g
       id="g21"
       transform="translate(0,8.6069709)">
      <path
         d="m 20.6,18.19 c -0.37,0 -0.71,-0.17 -0.97,-0.47 -0.51,-0.6 -0.52,-1.54 -0.04,-2.16 l 6.97,-8.88 c 0.38,-0.48 1.05,-0.65 1.57,-0.39 0.5,0.25 0.79,0.82 0.79,1.45 v 4.77 l 4.64,-5.85 c 0.38,-0.48 1.01,-0.64 1.53,-0.38 0.5,0.25 0.83,0.81 0.83,1.44 v 8.82 c 0,0.86 -0.61,1.57 -1.36,1.57 -0.75,0 -1.36,-0.7 -1.36,-1.57 v -4.79 l -4.64,5.85 c -0.38,0.48 -1.01,0.64 -1.54,0.38 -0.5,-0.24 -0.83,-0.81 -0.83,-1.44 v -4.67 l -4.61,5.8 c -0.26,0.32 -0.62,0.51 -1,0.51 v 0 z"
         style="fill:#2cabe1;stroke-width:0px"
         id="path19" />
      <path
         d="m 20.6,18.19 c -0.75,0 -1.35,-0.7 -1.35,-1.57 v -4.93 l -2.26,2.84 c -0.5,0.63 -1.44,0.65 -1.97,0.04 -0.51,-0.6 -0.52,-1.53 -0.03,-2.15 L 19.6,6.66 c 0.26,-0.32 0.63,-0.5 1,-0.5 0.18,0 0.37,0.04 0.54,0.12 0.5,0.25 0.82,0.81 0.82,1.44 v 8.89 c 0,0.86 -0.61,1.57 -1.36,1.57 v 0 z"
         style="fill:#ea2228;stroke-width:0px"
         id="path20" />
      <path
         d="m 37.2,18.21 v 0 c -0.35,0 -0.68,-0.15 -0.94,-0.42 -0.76,-0.78 -0.14,-1.84 0.29,-2.3 L 38.5,13.13 37.24,13.11 C 36.68,13.1 36.2,12.71 36,12.11 35.81,11.55 35.93,10.9 36.29,10.47 L 39.45,6.64 C 39.68,6.36 40,6.16 40.58,6.17 c 0.33,0 0.67,0.17 0.92,0.4 0.71,0.66 0.29,1.7 -0.07,2.2 l -1.04,1.26 1.26,0.02 c 0.56,0.01 1.04,0.4 1.24,1 0.19,0.56 0.07,1.21 -0.29,1.64 l -4.1,4.97 c -0.35,0.35 -0.65,0.55 -1.3,0.54 v 0 z"
         style="fill:#00a650;stroke-width:0px"
         id="path21" />
    </g>
  </g>
  <g
     id="g1" />
</svg>
