<svg xmlns="http://www.w3.org/2000/svg" width="20.41mm" height="130.6mm" viewBox="0 0 57.85 370.19">
  <defs>
    <clipPath id="clip-path">
      <rect x="15.02" y="32.85" width="27.8" height="25.62" style="fill: none" />
    </clipPath>
    <clipPath id="clip-path-3">
      <rect x="15.02" y="80.65" width="27.8" height="25.62" style="fill: none" />
    </clipPath>
  </defs>
  <g id="faceplate">
    <rect x="0.13" y="0.13" width="57.6" height="364.25" style="fill: #ededed;stroke: #9d9d9e;stroke-miterlimit: 10;stroke-width: 0.25px" />
    <g id="pips_-_fewest" data-name="pips - fewest">
      <g style="clip-path: url(#clip-path)">
        <g style="clip-path: url(#clip-path)">
          <path d="M34.62,35.63l.71-1.24a13.86,13.86,0,0,0-5.77-1.54v1.43a12.39,12.39,0,0,1,5.06,1.35" />
          <path d="M39.41,40l1.24-.71A14,14,0,0,0,36.42,35l-.71,1.23a12.55,12.55,0,0,1,3.7,3.7" />
          <path d="M22.14,36.26,21.43,35a14,14,0,0,0-4.23,4.22l1.24.71a12.55,12.55,0,0,1,3.7-3.7" />
          <path d="M41.4,46.12h1.43a13.83,13.83,0,0,0-1.55-5.77l-1.23.71a12.47,12.47,0,0,1,1.35,5.06" />
          <path d="M28.29,34.28V32.85a13.86,13.86,0,0,0-5.77,1.54l.71,1.24a12.39,12.39,0,0,1,5.06-1.35" />
          <path d="M18.44,53.54l-1.24.71a14,14,0,0,0,4.23,4.22l.71-1.23a12.55,12.55,0,0,1-3.7-3.7" />
          <path d="M35.71,57.24l.71,1.23a14,14,0,0,0,4.23-4.22l-1.24-.71a12.55,12.55,0,0,1-3.7,3.7" />
          <path d="M41.4,47.38a12.47,12.47,0,0,1-1.35,5.06l1.23.71a13.83,13.83,0,0,0,1.55-5.77Z" />
          <path d="M16.45,47.38H15a13.83,13.83,0,0,0,1.55,5.77l1.23-.71a12.47,12.47,0,0,1-1.35-5.06" />
          <path d="M17.8,41.06l-1.23-.71A13.83,13.83,0,0,0,15,46.12h1.43a12.47,12.47,0,0,1,1.35-5.06" />
        </g>
      </g>
    </g>
    <g id="pips_-_fewest-2" data-name="pips - fewest">
      <g style="clip-path: url(#clip-path-3)">
        <g style="clip-path: url(#clip-path-3)">
          <path d="M34.62,83.43l.71-1.23a14,14,0,0,0-5.77-1.55v1.43a12.55,12.55,0,0,1,5.06,1.35" />
          <path d="M39.41,87.77l1.24-.71a14,14,0,0,0-4.23-4.23l-.71,1.24a12.55,12.55,0,0,1,3.7,3.7" />
          <path d="M22.14,84.07l-.71-1.24a14,14,0,0,0-4.23,4.23l1.24.71a12.55,12.55,0,0,1,3.7-3.7" />
          <path d="M41.4,93.92h1.43a13.87,13.87,0,0,0-1.55-5.77l-1.23.72a12.46,12.46,0,0,1,1.35,5" />
          <path d="M28.29,82.08V80.66a13.86,13.86,0,0,0-5.77,1.54l.71,1.23a12.55,12.55,0,0,1,5.06-1.35" />
          <path d="M18.44,101.34l-1.24.72a14.07,14.07,0,0,0,4.23,4.22l.71-1.23a12.58,12.58,0,0,1-3.7-3.71" />
          <path d="M35.71,105.05l.71,1.23a14.07,14.07,0,0,0,4.23-4.22l-1.24-.72a12.58,12.58,0,0,1-3.7,3.71" />
          <path d="M41.4,95.19a12.51,12.51,0,0,1-1.35,5.06l1.23.71a13.87,13.87,0,0,0,1.55-5.77Z" />
          <path d="M16.45,95.19H15A13.87,13.87,0,0,0,16.57,101l1.23-.71a12.51,12.51,0,0,1-1.35-5.06" />
          <path d="M17.8,88.87l-1.23-.72A13.87,13.87,0,0,0,15,93.92h1.43a12.46,12.46,0,0,1,1.35-5" />
        </g>
      </g>
    </g>
    <g>
      <path d="M20.71,356.51a4.37,4.37,0,0,1-.78.39,3.78,3.78,0,0,1-.8.21,5.69,5.69,0,0,1-.83.06,3.61,3.61,0,0,1-1.43-.27,3.06,3.06,0,0,1-1.1-.79,3.38,3.38,0,0,1-.69-1.23,4.69,4.69,0,0,1-.24-1.54,4.77,4.77,0,0,1,.28-1.68A3.14,3.14,0,0,1,17,349.75a3.89,3.89,0,0,1,1.32-.22,6,6,0,0,1,2.36.56v2a6.5,6.5,0,0,0-.9-.58,2.25,2.25,0,0,0-1-.22,2,2,0,0,0-1,.25,2,2,0,0,0-.75.74,2.31,2.31,0,0,0,0,2.15,2,2,0,0,0,.68.75,1.84,1.84,0,0,0,1,.27,2.55,2.55,0,0,0,.84-.13,3.27,3.27,0,0,0,.67-.29,5.55,5.55,0,0,0,.56-.38Z" />
      <path d="M28.48,353.34a4.64,4.64,0,0,1-.4,1.92,3.12,3.12,0,0,1-1.17,1.39,3.71,3.71,0,0,1-3.82,0,3.26,3.26,0,0,1-1.16-1.41,4.55,4.55,0,0,1-.38-1.88,4.5,4.5,0,0,1,.38-1.87A3.16,3.16,0,0,1,25,349.53a3.63,3.63,0,0,1,1.51.3,3.13,3.13,0,0,1,1.09.83,3.86,3.86,0,0,1,.65,1.22A5,5,0,0,1,28.48,353.34Zm-1.88,0a2.64,2.64,0,0,0-.1-.76,1.71,1.71,0,0,0-.31-.6,1.31,1.31,0,0,0-.5-.4,1.62,1.62,0,0,0-.68-.14,1.4,1.4,0,0,0-1.16.52,2.13,2.13,0,0,0-.43,1.38,2.18,2.18,0,0,0,.43,1.39,1.41,1.41,0,0,0,1.16.53,1.46,1.46,0,0,0,1.4-.92A2.41,2.41,0,0,0,26.6,353.34Z" />
      <path d="M36.72,357.07H34.88v-4.31l-1.66,2.5h-.15l-1.66-2.5v4.31H29.62v-7.44h1.67l1.88,2.79,1.88-2.79h1.67Z" />
      <path d="M43.55,352a2.79,2.79,0,0,1-.12.81,2.13,2.13,0,0,1-.38.73,1.79,1.79,0,0,1-.7.56,2.38,2.38,0,0,1-1,.21H40.1v2.79H38.26v-7.44h3.05a2.38,2.38,0,0,1,1,.21,1.89,1.89,0,0,1,.7.56,2.22,2.22,0,0,1,.38.75A2.86,2.86,0,0,1,43.55,352Zm-1.88,0a.85.85,0,0,0-.26-.73,1.6,1.6,0,0,0-.92-.19H40.1v1.79h.4a2.55,2.55,0,0,0,.7-.07.55.55,0,0,0,.36-.26A1.09,1.09,0,0,0,41.67,352Z" />
    </g>
    <path d="M28.63,198.27c8,0,14.54,6.09,14.54,13.58v109.8c0,7.48-6.52,13.57-14.54,13.57s-14.54-6.09-14.54-13.57V211.85c0-7.49,6.53-13.58,14.54-13.58m0-1.05C20,197.22,13,203.77,13,211.85v109.8c0,8.08,7,14.63,15.59,14.63s15.59-6.55,15.59-14.63V211.85c0-8.08-7-14.63-15.59-14.63Z" />
    <g>
      <path d="M28.5,238.71a3,3,0,0,1-.6.28,3.6,3.6,0,0,1-.63.15,4.54,4.54,0,0,1-.65,0,3,3,0,0,1-1.11-.19,2.3,2.3,0,0,1-.86-.58,2.45,2.45,0,0,1-.54-.89,3.33,3.33,0,0,1-.18-1.12,3.28,3.28,0,0,1,.21-1.22,2.44,2.44,0,0,1,1.47-1.39,3.22,3.22,0,0,1,1-.16,4.89,4.89,0,0,1,1.84.41v1.43a5.09,5.09,0,0,0-.7-.41,1.86,1.86,0,0,0-.81-.17,1.61,1.61,0,0,0-.78.19,1.48,1.48,0,0,0-.58.53,1.61,1.61,0,0,0,0,1.57,1.4,1.4,0,0,0,.54.54,1.43,1.43,0,0,0,.77.2,2.39,2.39,0,0,0,.66-.09,3.25,3.25,0,0,0,.52-.22,4.28,4.28,0,0,0,.43-.27Z" />
      <path d="M33.85,233.7l-2.15,5.48h-.95l-2.11-5.48h1.5l1.09,3.13,1.12-3.13Z" />
    </g>
    <g>
      <path d="M21.57,288H20.13v-5.41h1.44Z" />
      <path d="M26,288H24.79v-2.14a1.42,1.42,0,0,0-.1-.57.39.39,0,0,0-.41-.25.5.5,0,0,0-.27.07.62.62,0,0,0-.2.16,1.27,1.27,0,0,0-.16.2l-.12.2V288H22.29v-4h1.24v.57a1.73,1.73,0,0,1,.58-.5,1.45,1.45,0,0,1,.66-.14c.83,0,1.25.57,1.25,1.71Z" />
      <path d="M30.33,286a2.86,2.86,0,0,1-.1.77,2.28,2.28,0,0,1-.31.67,1.47,1.47,0,0,1-.52.47,1.51,1.51,0,0,1-.75.17,1.34,1.34,0,0,1-.54-.08,1.92,1.92,0,0,1-.39-.22v2H26.48V284h1.24v.36a1.53,1.53,0,0,1,.41-.31,1.29,1.29,0,0,1,.61-.12,1.52,1.52,0,0,1,.75.21,1.65,1.65,0,0,1,.6.67A2.45,2.45,0,0,1,30.33,286ZM29,286a1.51,1.51,0,0,0-.1-.58.75.75,0,0,0-.26-.33.6.6,0,0,0-.33-.1.77.77,0,0,0-.36.08,1.21,1.21,0,0,0-.26.2v1.52l.14.09L28,287a.52.52,0,0,0,.16.06.57.57,0,0,0,.18,0,.58.58,0,0,0,.49-.29A1.29,1.29,0,0,0,29,286Z" />
      <path d="M34.37,288H33.14v-.56a2.18,2.18,0,0,1-.55.48,1.49,1.49,0,0,1-.69.15,1,1,0,0,1-1-.52,3,3,0,0,1-.23-1.19V284h1.24v2.15a1.6,1.6,0,0,0,.09.56.39.39,0,0,0,.41.25.54.54,0,0,0,.43-.18,2.92,2.92,0,0,0,.33-.45V284h1.23Z" />
      <path d="M37.65,287.75a3.23,3.23,0,0,1-.53.21,2.6,2.6,0,0,1-.65.09c-.89,0-1.34-.49-1.34-1.48V285h-.56v-.24l1.66-1.92h.14V284h1.18v1H36.37v1.28a1.79,1.79,0,0,0,0,.36.34.34,0,0,0,.13.22.49.49,0,0,0,.34.1,1.76,1.76,0,0,0,.78-.28Z" />
    </g>
    <g>
      <path d="M23.26,66.06a3.9,3.9,0,0,1-.39,1.74,3,3,0,0,1-1.14,1.27,3.52,3.52,0,0,1-1.86.47A3.33,3.33,0,0,1,18,69.05a3.05,3.05,0,0,1-1.14-1.28,4.14,4.14,0,0,1,0-3.42A2.94,2.94,0,0,1,18,63.08a3.38,3.38,0,0,1,1.87-.49,3.69,3.69,0,0,1,1.48.28,2.83,2.83,0,0,1,1.06.75A3.21,3.21,0,0,1,23,64.73,4.21,4.21,0,0,1,23.26,66.06Zm-1.83,0a2.5,2.5,0,0,0-.1-.69,1.62,1.62,0,0,0-.3-.55,1.33,1.33,0,0,0-.49-.36,1.54,1.54,0,0,0-.67-.13,1.4,1.4,0,0,0-1.13.48,1.86,1.86,0,0,0-.41,1.25,1.89,1.89,0,0,0,.41,1.26,1.43,1.43,0,0,0,1.13.48,1.56,1.56,0,0,0,.85-.22,1.44,1.44,0,0,0,.52-.62A2,2,0,0,0,21.43,66.06Z" />
      <path d="M26.7,63.94a2.5,2.5,0,0,0-.57-.09.46.46,0,0,0-.39.18.84.84,0,0,0-.14.53v.18h.78v1.19H25.6v3.52H24.05V65.93h-.72V64.74h.72v-.09a2.94,2.94,0,0,1,.17-1,1.68,1.68,0,0,1,.6-.77,1.84,1.84,0,0,1,1.1-.3,3.46,3.46,0,0,1,.78.09Z" />
      <path d="M29.59,63.94a2.35,2.35,0,0,0-.57-.09.48.48,0,0,0-.39.18.9.9,0,0,0-.14.53v.18h.79v1.19h-.79v3.52H26.94V65.93h-.71V64.74h.71v-.09a2.72,2.72,0,0,1,.18-1,1.68,1.68,0,0,1,.6-.77,1.82,1.82,0,0,1,1.1-.3,3.44,3.44,0,0,1,.77.09Z" />
      <path d="M33,68a1.48,1.48,0,0,1-.44,1.11,1.78,1.78,0,0,1-1.31.43,3.69,3.69,0,0,1-.86-.1,6.4,6.4,0,0,1-.83-.29V67.9a5.88,5.88,0,0,0,.68.39,1.45,1.45,0,0,0,.63.13c.39,0,.58-.12.58-.36a.3.3,0,0,0-.08-.22,1.36,1.36,0,0,0-.29-.21l-.56-.29a2.18,2.18,0,0,1-.73-.58,1.32,1.32,0,0,1-.3-.88,1.45,1.45,0,0,1,.8-1.27,2,2,0,0,1,1-.22l.35,0a4.64,4.64,0,0,1,.54.12,2.73,2.73,0,0,1,.61.26V66l-.23-.16-.24-.14a2.61,2.61,0,0,0-.37-.14,1.52,1.52,0,0,0-.42-.06.47.47,0,0,0-.37.12.32.32,0,0,0-.1.23.37.37,0,0,0,.1.23,1.7,1.7,0,0,0,.46.26,3.9,3.9,0,0,1,.83.46,1.51,1.51,0,0,1,.44.52A1.54,1.54,0,0,1,33,68Z" />
      <path d="M38,67.39H34.87a1.27,1.27,0,0,0,1.24,1,3.8,3.8,0,0,0,1.73-.5V69a4.2,4.2,0,0,1-.82.36,3.88,3.88,0,0,1-1.23.17,2.71,2.71,0,0,1-1.38-.34,2.18,2.18,0,0,1-.85-.93,3.16,3.16,0,0,1-.28-1.33,3,3,0,0,1,.28-1.31,2.08,2.08,0,0,1,.85-.91,2.71,2.71,0,0,1,1.38-.33,2.25,2.25,0,0,1,1,.26,2,2,0,0,1,.81.86A3.1,3.1,0,0,1,38,67Zm-1.45-.87a1.25,1.25,0,0,0-.21-.76.7.7,0,0,0-.6-.29.77.77,0,0,0-.62.29,1.15,1.15,0,0,0-.24.76Z" />
      <path d="M41.81,69.16a3.77,3.77,0,0,1-.66.26,3,3,0,0,1-.81.12c-1.12,0-1.67-.62-1.67-1.86v-2H38v-.31L40,63h.18v1.49H41.7V65.7H40.22v1.59a2.64,2.64,0,0,0,0,.45.46.46,0,0,0,.17.29.68.68,0,0,0,.42.11,2.12,2.12,0,0,0,1-.35Z" />
    </g>
    <g>
      <path d="M28.59,117.62a4.71,4.71,0,0,1-.76.35,4.43,4.43,0,0,1-.78.19,7,7,0,0,1-.81,0,3.88,3.88,0,0,1-1.4-.24,3,3,0,0,1-1.07-.72,3.27,3.27,0,0,1-.68-1.12,4.14,4.14,0,0,1-.22-1.39,4,4,0,0,1,.27-1.54,2.89,2.89,0,0,1,.74-1.09,3.08,3.08,0,0,1,1.09-.64,4,4,0,0,1,1.29-.21,6.12,6.12,0,0,1,2.3.52v1.79a5.71,5.71,0,0,0-.87-.52,2.47,2.47,0,0,0-1-.2,2,2,0,0,0-1,.23,2,2,0,0,0-.73.67,1.88,1.88,0,0,0-.27,1,1.85,1.85,0,0,0,.24.94,1.69,1.69,0,0,0,.67.68,1.83,1.83,0,0,0,1,.25,3.07,3.07,0,0,0,.82-.11,3.47,3.47,0,0,0,.66-.27,6.08,6.08,0,0,0,.54-.35Z" />
      <path d="M35.27,111.36l-2.68,6.85H31.4l-2.63-6.85h1.86l1.37,3.9,1.4-3.9Z" />
    </g>
    <path d="M44.22,308.21c0-8.08-7-14.63-15.59-14.63S13,300.13,13,308.21v8.11h0v19.84a5.68,5.68,0,0,0,5.67,5.67H38.55a5.68,5.68,0,0,0,5.67-5.67V316.32h0Z" />
    <g>
      <path d="M27.86,334.14a3.26,3.26,0,0,1-.3,1.4,2.42,2.42,0,0,1-.92,1,3.11,3.11,0,0,1-3,0,2.36,2.36,0,0,1-.9-1,3.11,3.11,0,0,1-.3-1.36,3.25,3.25,0,0,1,.29-1.36,2.38,2.38,0,0,1,.91-1,2.75,2.75,0,0,1,1.5-.39,3,3,0,0,1,1.18.23,2.3,2.3,0,0,1,.85.6,2.51,2.51,0,0,1,.5.89A3.1,3.1,0,0,1,27.86,334.14Zm-1.46,0a2,2,0,0,0-.08-.56,1.14,1.14,0,0,0-.24-.43,1,1,0,0,0-.39-.29,1.25,1.25,0,0,0-.53-.11,1.12,1.12,0,0,0-.91.39,1.47,1.47,0,0,0-.33,1,1.52,1.52,0,0,0,.33,1,1.18,1.18,0,0,0,.91.38,1.2,1.2,0,0,0,.67-.18,1.14,1.14,0,0,0,.43-.49A1.81,1.81,0,0,0,26.4,334.14Z" style="fill: #fff" />
      <path d="M32,336.85H30.72v-.56a1.82,1.82,0,0,1-.55.47,1.35,1.35,0,0,1-.69.16,1,1,0,0,1-1-.52,2.84,2.84,0,0,1-.24-1.19v-2.33h1.24V335a1.42,1.42,0,0,0,.1.57.4.4,0,0,0,.41.25.55.55,0,0,0,.43-.18,3.8,3.8,0,0,0,.32-.45v-2.33H32Z" style="fill: #fff" />
      <path d="M35.23,336.62a2.37,2.37,0,0,1-.53.2,2.14,2.14,0,0,1-.65.1c-.89,0-1.33-.49-1.33-1.48v-1.59h-.56v-.24l1.66-1.93H34v1.2h1.18v1H34v1.28a1.78,1.78,0,0,0,0,.35.35.35,0,0,0,.14.23.51.51,0,0,0,.34.09,1.65,1.65,0,0,0,.77-.28Z" style="fill: #fff" />
    </g>
    <g>
      <path d="M34.54,6.76l-5.53,7v-6a1.27,1.27,0,0,0-.64-1.17.89.89,0,0,0-1.13.29L20,16.13a1.49,1.49,0,0,0,0,1.79.9.9,0,0,0,1.46,0l5.5-7v6a1.29,1.29,0,0,0,.64,1.18.92.92,0,0,0,1.14-.3l5.53-7v6.15a1.05,1.05,0,1,0,2.06,0V7.64a1.28,1.28,0,0,0-.65-1.18A.91.91,0,0,0,34.54,6.76Z" style="stroke: #000;stroke-width: 0.6000000000000001px" />
      <path d="M20,6.68l-4.81,6.13a1.47,1.47,0,0,0,0,1.79.9.9,0,0,0,1.46,0l3.05-3.87V17a1.17,1.17,0,0,0,1,1.26,1.17,1.17,0,0,0,1-1.26V7.56a1.29,1.29,0,0,0-.65-1.17A.91.91,0,0,0,20,6.68Z" style="stroke: #000;stroke-width: 0.6000000000000001px" />
      <path d="M42.91,11.2a1.05,1.05,0,0,0-.95-.77h-2.1l1.53-1.95s.8-1.17.1-1.82a1.27,1.27,0,0,0-1.58.06l-3.23,4.1a1.45,1.45,0,0,0-.2,1.37,1,1,0,0,0,1,.78h2.1L37,16.14s-1,1.13-.27,1.89,1.75-.14,1.75-.14l4.18-5.31A1.5,1.5,0,0,0,42.91,11.2Z" style="stroke: #000;stroke-width: 0.6000000000000001px" />
    </g>
  </g>
  <g /></svg>