<?xml version="1.0" encoding="UTF-8" standalone="no"?>
<svg
   width="40.64mm"
   height="130.55mm"
   viewBox="0 0 115.2 370.06"
   version="1.1"
   id="svg55"
   sodipodi:docname="Detune_artwork.svg"
   inkscape:version="1.4.2 (ebf0e940, 2025-05-08)"
   xmlns:inkscape="http://www.inkscape.org/namespaces/inkscape"
   xmlns:sodipodi="http://sodipodi.sourceforge.net/DTD/sodipodi-0.dtd"
   xmlns="http://www.w3.org/2000/svg"
   xmlns:svg="http://www.w3.org/2000/svg">
  <defs
     id="defs55" />
  <sodipodi:namedview
     id="namedview55"
     pagecolor="#ffffff"
     bordercolor="#000000"
     borderopacity="0.25"
     inkscape:showpageshadow="2"
     inkscape:pageopacity="0.0"
     inkscape:pagecheckerboard="0"
     inkscape:deskcolor="#d1d1d1"
     inkscape:document-units="mm"
     inkscape:zoom="0.83501723"
     inkscape:cx="210.1753"
     inkscape:cy="388.01595"
     inkscape:window-width="1200"
     inkscape:window-height="979"
     inkscape:window-x="528"
     inkscape:window-y="38"
     inkscape:window-maximized="0"
     inkscape:current-layer="svg55" />
  <g
     id="faceplate">
    <g
       id="g1">
      <path
         id="rect1"
         style="fill:#ededed;stroke-width:0px"
         d="m 0.12,0.12 h 114.95 v 364 H 0.12 Z" />
      <path
         d="M114.95.25v363.75H.25V.25h114.7M115.2,0H0v364.25h115.2V0h0Z"
         style="fill: #9d9d9e; stroke-width: 0px;"
         id="path1" />
    </g>
    <path
       d="M100.33,318.63v-21.52h-21.54c-7.49,0-13.57,6.52-13.57,14.57v30.53h15.07s0,0,0,0h14.39c3.12,0,5.64-2.36,5.64-5.25v-18.39.08Z"
       style="fill: #000; stroke-width: 0px;"
       id="path2" />
    <path
       d="m 8.5883789,-3.5878906 q 0,1.1440429 -0.4189453,1.836914 Q 7.7558594,-1.0581055 7.1918945,-0.62841797 6.3916016,0 4.9521484,0 H 0.93457031 V -7.4443359 H 4.0283203 q 0.6982422,0 1.1923828,0.075195 0.4995117,0.069824 0.8969727,0.2041015 0.3974609,0.1289063 0.6767578,0.2954102 0.2792969,0.1611328 0.4995117,0.3491211 0.3813477,0.3115234 0.6660156,0.7358398 0.2900391,0.4243164 0.456543,0.9829102 0.171875,0.5585937 0.171875,1.2138672 z m -2.2827148,-0.09668 q 0,-0.9077149 -0.3491211,-1.4125977 Q 5.612793,-5.6074219 5.1240234,-5.7792969 4.640625,-5.9511719 4.1357422,-5.9511719 H 3.1796875 v 4.409668 h 0.9560547 q 0.8808594,0 1.5253906,-0.4189453 0.6445313,-0.4189453 0.6445313,-1.7241211 z M 15.586914,0 H 9.9741211 v -7.4443359 h 5.5214839 v 1.493164 h -3.276367 v 1.3642578 h 3.125977 v 1.4985352 h -3.125977 v 1.5898437 h 3.367676 z m 8.64209,-5.6342773 H 21.500488 V 0 h -2.239746 v -5.6342773 h -2.728515 v -1.8100586 h 7.696777 z m 9.066406,2.2988281 q 0,0.9560547 -0.359863,1.6328125 -0.354492,0.6713867 -0.945313,1.06347654 -0.585449,0.39208985 -1.267578,0.56396485 -0.676758,0.171875 -1.353515,0.171875 -0.945313,0 -1.842286,-0.32226563 -0.891601,-0.32226562 -1.493164,-1.09570316 -0.601562,-0.7734375 -0.601562,-2.0141601 v -4.1088867 h 2.239746 v 3.5288086 q 0,0.7358398 0.209473,1.2192382 0.214843,0.4780274 0.59082,0.7036133 0.381348,0.2202149 0.896973,0.2202149 0.49414,0 0.875488,-0.2202149 0.381348,-0.2202148 0.59082,-0.6982422 0.214844,-0.4780273 0.214844,-1.2138672 V -7.4443359 H 33.29541 Z M 43.140625,0 H 41.142578 L 37.280762,-4.1464844 V 0 h -2.223633 v -7.4443359 h 1.992676 l 3.851074,4.125 v -4.125 h 2.239746 z m 7.481934,0 h -5.612793 v -7.4443359 h 5.521484 v 1.493164 h -3.276367 v 1.3642578 h 3.125976 v 1.4985352 h -3.125976 v 1.5898437 h 3.367676 z"
       id="text2"
       style="font-weight:700;font-size:11px;font-family:GillSans-Bold, 'Gill Sans'"
       transform="translate(36.6 357.34) scale(.82 1)"
       aria-label="DETUNE" />
    <path
       d="m 6.2460937,-2.609375 q 0,0.8320313 -0.3046875,1.3359375 Q 5.640625,-0.76953125 5.2304687,-0.45703125 4.6484375,0 3.6015625,0 h -2.921875 v -5.4140625 h 2.25 q 0.5078125,0 0.8671875,0.054687 0.3632812,0.050781 0.6523437,0.1484375 0.2890625,0.09375 0.4921875,0.2148438 0.203125,0.1171875 0.3632813,0.2539062 0.2773437,0.2265625 0.484375,0.5351563 Q 6,-3.8984375 6.1210937,-3.4921875 q 0.125,0.40625 0.125,0.8828125 z m -1.6601562,-0.070312 q 0,-0.6601563 -0.2539063,-1.0273438 -0.25,-0.3710937 -0.6054687,-0.4960937 -0.3515625,-0.125 -0.71875,-0.125 H 2.3125 v 3.2070313 h 0.6953125 q 0.640625,0 1.109375,-0.3046875 0.46875,-0.3046875 0.46875,-1.2539063 z m 6.1956245,1.03125 H 7.9807811 q 0.082031,0.3632813 0.4023437,0.59375 0.3203125,0.23046875 0.7265625,0.23046875 0.7109375,0 1.5703127,-0.39843745 v 0.8710937 q -0.308594,0.16015625 -0.7500002,0.29296875 -0.4375,0.12890625 -1.1171875,0.12890625 -0.734375,0 -1.25,-0.2734375 -0.515625,-0.2734375 -0.7734375,-0.7421875 -0.2539062,-0.46875 -0.2539062,-1.0625 0,-0.5859375 0.2539062,-1.046875 0.2578125,-0.4648438 0.7734375,-0.7265625 0.515625,-0.265625 1.25,-0.265625 0.484375,0 0.9335938,0.2109375 0.4531249,0.2070312 0.7421879,0.6835937 0.292968,0.4726563 0.292968,1.2226563 z M 9.4612498,-2.34375 q 0,-0.3828125 -0.1914062,-0.609375 -0.1875,-0.2304688 -0.5429688,-0.2304688 -0.3515625,0 -0.5703125,0.234375 Q 7.9417186,-2.71875 7.9417186,-2.34375 Z m 4.8284372,2.11328125 q -0.21875,0.10546875 -0.605469,0.203125 -0.382812,0.09765625 -0.734375,0.09765625 -1.519531,0 -1.519531,-1.484375 V -3 h -0.636719 v -0.2460938 l 1.886719,-1.9218749 h 0.160156 v 1.1914062 h 1.34375 V -3 h -1.34375 v 1.2734375 q 0,0.2226563 0.02734,0.359375 0.02734,0.1367188 0.152344,0.2304688 0.128906,0.089844 0.386719,0.089844 0.335937,0 0.882812,-0.28125 z M 18.778281,0 h -1.410156 v -0.56640625 q -0.296875,0.3203125 -0.625,0.48046875 -0.324219,0.15625 -0.78125,0.15625 -0.902344,0 -1.167969,-0.5234375 -0.265625,-0.52734375 -0.265625,-1.1875 v -2.3359375 h 1.410156 v 2.1484375 q 0,0.3242188 0.105469,0.5703125 0.109375,0.2421875 0.46875,0.2421875 0.308594,0 0.488281,-0.1757812 0.179688,-0.1757813 0.367188,-0.4492188 v -2.3359375 h 1.410156 z m 4.824531,0 h -1.40625 v -2.1445313 q 0,-0.328125 -0.109375,-0.5703125 -0.105469,-0.2460937 -0.46875,-0.2460937 -0.171875,0 -0.304688,0.066406 -0.128906,0.0625 -0.234375,0.1640625 -0.101562,0.1015625 -0.171875,0.1953125 -0.07031,0.09375 -0.144531,0.1992188 V 0 h -1.40625 v -3.9765625 h 1.40625 V -3.40625 q 0.332031,-0.3554688 0.664063,-0.4960938 0.335937,-0.1445312 0.746093,-0.1445312 1.429688,0 1.429688,1.7109375 z m 4.601875,-1.6484375 h -2.800781 q 0.08203,0.3632813 0.402344,0.59375 0.320312,0.23046875 0.726562,0.23046875 0.710938,0 1.570313,-0.39843745 v 0.8710937 q -0.308594,0.16015625 -0.75,0.29296875 -0.4375,0.12890625 -1.117188,0.12890625 -0.734375,0 -1.25,-0.2734375 -0.515625,-0.2734375 -0.773437,-0.7421875 -0.253907,-0.46875 -0.253907,-1.0625 0,-0.5859375 0.253907,-1.046875 0.257812,-0.4648438 0.773437,-0.7265625 0.515625,-0.265625 1.25,-0.265625 0.484375,0 0.933594,0.2109375 0.453125,0.2070312 0.742187,0.6835937 0.292969,0.4726563 0.292969,1.2226563 z M 26.884375,-2.34375 q 0,-0.3828125 -0.191407,-0.609375 -0.1875,-0.2304688 -0.542968,-0.2304688 -0.351563,0 -0.570313,0.234375 -0.214844,0.2304688 -0.214844,0.6054688 z"
       id="text3"
       style="font-weight:700;font-size:8px;font-family:GillSans-Bold, 'Gill Sans';letter-spacing:-0.04em"
       transform="translate(70.77 293.69) scale(.88 1)"
       aria-label="Detune" />
    <path
       d="m 6.4726562,-2.7109375 q 0,0.7578125 -0.3515625,1.3945313 -0.3476562,0.6367187 -1.0390625,1.0117187 -0.6914062,0.375 -1.6835937,0.375 -1.0039062,0 -1.6992188,-0.390625 Q 1.0039062,-0.7109375 0.6640625,-1.3476562 0.328125,-1.984375 0.328125,-2.7109375 q 0,-0.7304688 0.3359375,-1.3632812 Q 1,-4.7109375 1.6953125,-5.0976562 q 0.6992188,-0.390625 1.703125,-0.390625 0.75,0 1.3359375,0.2226562 0.5898437,0.2226563 0.96875,0.6054688 0.3789062,0.3789062 0.5742187,0.8867187 0.1953125,0.5039062 0.1953125,1.0625 z m -1.6640625,0 q 0,-0.3046875 -0.089844,-0.5546875 -0.089844,-0.2539063 -0.2734375,-0.4375 -0.1796875,-0.1875 -0.4414063,-0.2890625 -0.2617187,-0.1054687 -0.6054687,-0.1054687 -0.65625,0 -1.03125,0.3828124 -0.375,0.3828125 -0.375,1.0039063 0,0.6210937 0.375,1.0078125 0.3789063,0.3828125 1.03125,0.3828125 0.4492188,0 0.765625,-0.1757812 0.3164062,-0.1796875 0.4804687,-0.4921875 0.1640625,-0.3164063 0.1640625,-0.7226563 z M 11.129219,0 H 9.7190623 v -0.56640625 q -0.296875,0.3203125 -0.625,0.48046875 -0.3242187,0.15625 -0.78125,0.15625 -0.9023437,0 -1.1679687,-0.5234375 -0.265625,-0.52734375 -0.265625,-1.1875 v -2.3359375 h 1.4101562 v 2.1484375 q 0,0.3242188 0.1054688,0.5703125 0.109375,0.2421875 0.46875,0.2421875 0.3085937,0 0.4882812,-0.1757812 0.1796875,-0.1757813 0.3671875,-0.4492188 v -2.3359375 h 1.4101567 z m 3.715156,-0.23046875 q -0.21875,0.10546875 -0.605469,0.203125 -0.382813,0.09765625 -0.734375,0.09765625 -1.519531,0 -1.519531,-1.484375 V -3 H 11.348281 V -3.2460938 L 13.235,-5.1679687 h 0.160156 v 1.1914062 h 1.34375 V -3 h -1.34375 v 1.2734375 q 0,0.2226563 0.02734,0.359375 0.02734,0.1367188 0.152343,0.2304688 0.128907,0.089844 0.386719,0.089844 0.335938,0 0.882813,-0.28125 z"
       id="text4"
       style="font-weight:700;font-size:8px;font-family:GillSans-Bold, 'Gill Sans';letter-spacing:-0.04em;fill:#ffffff"
       transform="translate(76.65 335.88) scale(.88 1)"
       aria-label="Out" />
    <path
       d="M 2.3203125,0 H 0.6875 v -5.4140625 h 1.6328125 z m 5.0628126,0 h -1.40625 v -2.1445313 q 0,-0.328125 -0.109375,-0.5703125 -0.1054688,-0.2460937 -0.46875,-0.2460937 -0.171875,0 -0.3046875,0.066406 -0.1289063,0.0625 -0.234375,0.1640625 -0.1015625,0.1015625 -0.171875,0.1953125 -0.070312,0.09375 -0.1445313,0.1992188 V 0 h -1.40625 v -3.9765625 h 1.40625 V -3.40625 q 0.3320313,-0.3554688 0.6640625,-0.4960938 0.3359375,-0.1445312 0.7460938,-0.1445312 1.4296875,0 1.4296875,1.7109375 z m 4.8909379,-2.015625 q 0,0.3984375 -0.113282,0.7695313 -0.113281,0.3710937 -0.347656,0.67187495 -0.230469,0.296875 -0.597656,0.47265625 -0.363281,0.171875 -0.847656,0.171875 -0.3906254,0 -0.6171879,-0.08203125 Q 9.5279689,-0.09375 9.3053126,-0.23046875 V 1.8085937 h -1.40625 v -5.7851562 h 1.40625 v 0.359375 q 0.2109375,-0.1835938 0.4648438,-0.3046875 0.2578126,-0.125 0.6953126,-0.125 0.433594,0 0.851562,0.2148437 0.417969,0.2148438 0.6875,0.671875 0.269532,0.453125 0.269532,1.1445313 z m -1.480469,0.03125 q 0,-0.359375 -0.113281,-0.5820313 -0.113282,-0.2265625 -0.292969,-0.3242187 -0.179688,-0.1015625 -0.371094,-0.1015625 -0.2499999,0 -0.4101561,0.082031 -0.1601563,0.078125 -0.3007813,0.1992188 v 1.5195313 q 0.074219,0.039063 0.15625,0.089844 0.085937,0.046875 0.1679688,0.082031 0.085937,0.0351562 0.1796875,0.0585937 0.097656,0.0234375 0.2070311,0.0234375 0.332031,0 0.554688,-0.28125 Q 10.793594,-1.5 10.793594,-1.984375 Z M 16.875937,0 h -1.410156 v -0.56640625 q -0.296875,0.3203125 -0.625,0.48046875 -0.324219,0.15625 -0.78125,0.15625 -0.902344,0 -1.167969,-0.5234375 -0.265625,-0.52734375 -0.265625,-1.1875 v -2.3359375 h 1.410157 v 2.1484375 q 0,0.3242188 0.105468,0.5703125 0.109375,0.2421875 0.46875,0.2421875 0.308594,0 0.488282,-0.1757812 0.179687,-0.1757813 0.367187,-0.4492188 v -2.3359375 h 1.410156 z m 3.715156,-0.23046875 q -0.21875,0.10546875 -0.605469,0.203125 -0.382812,0.09765625 -0.734375,0.09765625 -1.519531,0 -1.519531,-1.484375 V -3 h -0.636719 v -0.2460938 l 1.886719,-1.9218749 h 0.160156 v 1.1914062 h 1.34375 V -3 h -1.34375 v 1.2734375 q 0,0.2226563 0.02734,0.359375 0.02734,0.1367188 0.152344,0.2304688 0.128906,0.089844 0.386719,0.089844 0.335937,0 0.882812,-0.28125 z"
       id="text5"
       style="font-weight:700;font-size:8px;font-family:GillSans-Bold, 'Gill Sans';letter-spacing:-0.04em"
       transform="translate(22.93 293.69) scale(.88 1)"
       aria-label="Input" />
    <path
       d="m 28.853057,312.96247 q 0,0.78051 -0.285822,1.25322 -0.282158,0.4727 -0.666919,0.76585 -0.545994,0.42874 -1.528051,0.42874 h -2.740963 v -5.07885 h 2.110688 q 0.476371,0 0.813495,0.0513 0.340788,0.0476 0.611953,0.13924 0.271165,0.088 0.461713,0.20154 0.190548,0.10994 0.340788,0.23819 0.260172,0.21253 0.454385,0.50202 0.197877,0.28949 0.311473,0.67058 0.11726,0.3811 0.11726,0.82816 z m -1.557365,-0.066 q 0,-0.61928 -0.238186,-0.96374 -0.234521,-0.34811 -0.56798,-0.46538 -0.329795,-0.11726 -0.674248,-0.11726 h -0.652261 v 3.00847 h 0.652261 q 0.60096,0 1.040687,-0.28582 0.439727,-0.28583 0.439727,-1.17627 z m 5.812015,0.9674 h -2.627368 q 0.07695,0.34078 0.377433,0.55698 0.30048,0.2162 0.681576,0.2162 0.666919,0 1.473085,-0.37377 v 0.81716 q -0.289487,0.15024 -0.703563,0.27483 -0.410412,0.12093 -1.048016,0.12093 -0.688905,0 -1.172604,-0.25651 -0.4837,-0.25651 -0.725549,-0.69623 -0.238186,-0.43973 -0.238186,-0.99672 0,-0.54966 0.238186,-0.98205 0.241849,-0.43607 0.725549,-0.68158 0.483699,-0.24918 1.172604,-0.24918 0.454385,0 0.87579,0.19788 0.425069,0.19421 0.696234,0.64127 0.274829,0.44339 0.274829,1.14695 z m -1.238564,-0.65227 q 0,-0.35911 -0.179555,-0.57164 -0.175891,-0.2162 -0.50935,-0.2162 -0.329795,0 -0.535001,0.21986 -0.201541,0.2162 -0.201541,0.56798 z m 5.790029,0.30781 q 0,0.37377 -0.106267,0.72189 -0.106267,0.34812 -0.326131,0.63027 -0.216199,0.2785 -0.560651,0.44339 -0.340789,0.16124 -0.795173,0.16124 -0.366439,0 -0.578973,-0.077 -0.208871,-0.077 -0.417741,-0.20521 v 1.91281 h -1.31918 v -5.42696 h 1.31918 v 0.33712 q 0.197877,-0.17222 0.436062,-0.28582 0.24185,-0.11726 0.652262,-0.11726 0.406747,0 0.798837,0.20154 0.39209,0.20154 0.644932,0.63028 0.252843,0.42507 0.252843,1.07366 z m -1.388803,0.0293 q 0,-0.33713 -0.106268,-0.546 -0.106267,-0.21253 -0.274829,-0.30414 -0.168562,-0.0953 -0.348117,-0.0953 -0.234521,0 -0.384761,0.077 -0.15024,0.0733 -0.282158,0.18688 v 1.42545 q 0.06962,0.0366 0.146576,0.0843 0.08062,0.044 0.157568,0.077 0.08062,0.033 0.168562,0.055 0.09161,0.022 0.194213,0.022 0.311473,0 0.520343,-0.26383 0.208871,-0.26384 0.208871,-0.71822 z m 4.716362,1.64531 q -0.205206,0.0989 -0.567981,0.19055 -0.35911,0.0916 -0.688905,0.0916 -1.425448,0 -1.425448,-1.39247 v -1.48774 h -0.597295 v -0.23086 l 1.7699,-1.80288 h 0.15024 v 1.11764 h 1.26055 v 0.9161 h -1.26055 v 1.19459 q 0,0.20887 0.02565,0.33712 0.02565,0.12826 0.142911,0.2162 0.120925,0.0843 0.362775,0.0843 0.315137,0 0.828152,-0.26383 z m 4.261978,0.2162 h -1.31918 v -1.9348 q 0,-0.022 0,-0.0403 0.0037,-0.022 0.0037,-0.0879 0,-0.2675 -0.113596,-0.49103 -0.113596,-0.22353 -0.432398,-0.22353 -0.249179,0 -0.439727,0.16856 -0.190548,0.1649 -0.362774,0.41774 v 2.19131 h -1.319181 v -5.07885 h 1.319181 v 1.8835 q 0.32613,-0.34812 0.644932,-0.47271 0.318802,-0.12825 0.677912,-0.12825 1.341167,0 1.341167,1.50606 z"
       id="text6"
       style="font-weight:700;font-size:7.50467px;font-family:GillSans-Bold, 'Gill Sans';letter-spacing:-0.04em;stroke-width:0.938083"
       transform="scale(0.93808314,1.0660036)"
       aria-label="Depth" />
    <path
       d="m 75.577995,312.19705 q 0,0.78052 -0.285823,1.25323 -0.282158,0.4727 -0.666919,0.76585 -0.545994,0.42874 -1.52805,0.42874 h -2.740964 v -5.07885 h 2.110689 q 0.476371,0 0.813494,0.0513 0.340789,0.0476 0.611953,0.13925 0.271165,0.0879 0.461714,0.20154 0.190548,0.10993 0.340788,0.23819 0.260171,0.21253 0.454384,0.50202 0.197877,0.28949 0.311473,0.67058 0.117261,0.3811 0.117261,0.82815 z m -1.557366,-0.0659 q 0,-0.61929 -0.238185,-0.96374 -0.234521,-0.34812 -0.567981,-0.46538 -0.329795,-0.11726 -0.674247,-0.11726 h -0.652262 v 3.00847 h 0.652262 q 0.60096,0 1.040686,-0.28583 0.439727,-0.28582 0.439727,-1.17626 z m 5.812015,0.96739 h -2.627367 q 0.07695,0.34079 0.377432,0.55699 0.30048,0.2162 0.681576,0.2162 0.666919,0 1.473085,-0.37377 v 0.81716 q -0.289487,0.15024 -0.703563,0.27483 -0.410411,0.12093 -1.048015,0.12093 -0.688905,0 -1.172605,-0.25651 -0.483699,-0.25651 -0.725549,-0.69624 -0.238185,-0.43972 -0.238185,-0.99671 0,-0.54966 0.238185,-0.98206 0.24185,-0.43606 0.725549,-0.68157 0.4837,-0.24918 1.172605,-0.24918 0.454384,0 0.875789,0.19788 0.425069,0.19421 0.696234,0.64126 0.274829,0.4434 0.274829,1.14696 z m -1.238563,-0.65226 q 0,-0.35911 -0.179556,-0.57164 -0.17589,-0.2162 -0.50935,-0.2162 -0.329795,0 -0.535001,0.21986 -0.201541,0.2162 -0.201541,0.56798 z m 5.790029,0.30781 q 0,0.37377 -0.106268,0.72189 -0.106267,0.34811 -0.32613,0.63027 -0.216199,0.2785 -0.560652,0.44339 -0.340788,0.16124 -0.795172,0.16124 -0.366439,0 -0.578974,-0.077 -0.20887,-0.077 -0.41774,-0.2052 v 1.91281 h -1.319181 v -5.42696 h 1.319181 v 0.33712 q 0.197877,-0.17222 0.436062,-0.28582 0.24185,-0.11726 0.652261,-0.11726 0.406748,0 0.798837,0.20154 0.39209,0.20154 0.644933,0.63028 0.252843,0.42506 0.252843,1.07366 z m -1.388804,0.0293 q 0,-0.33713 -0.106267,-0.546 -0.106268,-0.21253 -0.27483,-0.30414 -0.168561,-0.0953 -0.348117,-0.0953 -0.23452,0 -0.38476,0.077 -0.15024,0.0733 -0.282158,0.18688 v 1.42545 q 0.06962,0.0366 0.146575,0.0843 0.08062,0.044 0.157569,0.077 0.08062,0.033 0.168562,0.055 0.09161,0.022 0.194212,0.022 0.311474,0 0.520344,-0.26383 0.20887,-0.26384 0.20887,-0.71822 z m 4.716362,1.64531 q -0.205206,0.0989 -0.56798,0.19055 -0.359111,0.0916 -0.688906,0.0916 -1.425447,0 -1.425447,-1.39247 v -1.48774 h -0.597296 v -0.23086 l 1.7699,-1.80288 h 0.15024 v 1.11764 h 1.260551 v 0.9161 h -1.260551 v 1.19459 q 0,0.20887 0.02565,0.33712 0.02565,0.12825 0.142911,0.2162 0.120925,0.0843 0.362775,0.0843 0.315137,0 0.828152,-0.26384 z m 4.261978,0.2162 h -1.31918 v -1.9348 q 0,-0.022 0,-0.0403 0.0037,-0.022 0.0037,-0.0879 0,-0.2675 -0.113596,-0.49103 -0.113596,-0.22353 -0.432398,-0.22353 -0.249178,0 -0.439726,0.16856 -0.190549,0.1649 -0.362775,0.41774 v 2.19131 h -1.31918 v -5.07885 h 1.31918 v 1.8835 q 0.326131,-0.34812 0.644933,-0.47271 0.318801,-0.12825 0.677912,-0.12825 1.341166,0 1.341166,1.50606 z"
       id="text6-4"
       style="font-weight:700;font-size:7.50467px;font-family:GillSans-Bold, 'Gill Sans';letter-spacing:-0.04em;stroke-width:0.938083"
       transform="scale(0.93808315,1.0660036)"
       aria-label="Depth" />
    <path
       d="M102.85,56.98h2.26c-.15-3.28-1.01-6.37-2.44-9.12l-1.95,1.13c1.24,2.42,1.99,5.13,2.14,8Z"
       style="fill: #000; stroke-width: 0px;"
       id="path6" />
    <path
       d="M102.85,58.98c-.14,2.87-.89,5.57-2.14,8l1.95,1.13c1.43-2.75,2.3-5.84,2.44-9.12h-2.26Z"
       style="fill: #000; stroke-width: 0px;"
       id="path7" />
    <path
       d="M 11.811523,-6.7675781 8.8818359,0.08789062 H 7.7001953 L 5.9423828,-3.9013672 4.140625,0.08789062 H 2.9492188 L 0.078125,-6.7675781 h 2.1142578 l 1.40625,3.75 1.6113281,-3.75 h 1.459961 l 1.5820312,3.75 1.4697266,-3.75 z m 7.837696,4.7998047 q 0,0.6347656 -0.327149,1.09863277 -0.322266,0.46386719 -0.90332,0.71289063 -0.581055,0.24414062 -1.333008,0.24414062 -0.209961,0 -0.517578,-0.02929687 -0.302735,-0.02441406 -0.810547,-0.14648437 -0.50293,-0.12207032 -1.049805,-0.36132813 V -2.109375 q 0.512696,0.3173828 1.00586,0.5273438 0.498047,0.2099609 1.064453,0.2099609 0.522461,0 0.673828,-0.1708984 0.15625,-0.1757813 0.15625,-0.3271485 0,-0.2734375 -0.263672,-0.4589844 -0.263672,-0.1904297 -0.766602,-0.390625 -0.55664,-0.234375 -0.976562,-0.5078125 -0.419922,-0.2783203 -0.688477,-0.6933593 -0.263671,-0.4150391 -0.263671,-0.9814453 0,-0.546875 0.268554,-0.9863282 0.268555,-0.4443359 0.820313,-0.7080078 0.551758,-0.2636719 1.347656,-0.2636719 0.566406,0 1.044922,0.1123047 0.483398,0.1074219 0.795898,0.2441407 0.3125,0.1367187 0.429688,0.2148437 v 1.5869141 Q 18.941211,-5 18.428515,-5.234375 17.920703,-5.46875 17.339648,-5.46875 q -0.380859,0 -0.551758,0.1464844 -0.170898,0.1464844 -0.170898,0.3613281 0,0.2001953 0.170898,0.3466797 0.170899,0.1464844 0.610352,0.3564453 0.78125,0.3662109 1.25,0.6591797 0.46875,0.2929687 0.732422,0.6787109 0.268555,0.3808594 0.268555,0.9521485 z m 6.157616,-0.5517579 q 0,0.4980469 -0.141601,0.9619141 -0.141602,0.4638672 -0.434571,0.83984376 -0.288086,0.37109375 -0.74707,0.59082032 -0.454102,0.21484374 -1.05957,0.21484374 -0.488282,0 -0.771485,-0.10253906 -0.27832,-0.10253906 -0.55664,-0.2734375 V 2.2607422 h -1.757813 v -7.2314453 h 1.757813 v 0.4492187 q 0.263672,-0.2294922 0.581054,-0.3808593 0.322266,-0.15625 0.869141,-0.15625 0.541992,0 1.064453,0.2685546 0.522461,0.2685547 0.859375,0.8398438 0.336914,0.5664062 0.336914,1.430664 z m -1.850586,0.039063 q 0,-0.4492187 -0.141601,-0.727539 -0.141602,-0.2832031 -0.366211,-0.4052735 -0.22461,-0.1269531 -0.463867,-0.1269531 -0.3125,0 -0.512696,0.1025391 -0.200195,0.097656 -0.375976,0.2490234 v 1.8994141 q 0.09277,0.048828 0.195312,0.1123047 0.107422,0.058594 0.209961,0.102539 0.107422,0.043945 0.224609,0.073242 0.122071,0.029297 0.25879,0.029297 0.415039,0 0.693359,-0.3515625 0.27832,-0.3515625 0.27832,-0.9570313 z m 7.461329,0.4199219 h -3.500977 q 0.102539,0.4541016 0.50293,0.7421875 0.40039,0.288086 0.908203,0.288086 0.888672,0 1.962891,-0.4980469 v 1.08886717 q -0.385743,0.20019532 -0.9375,0.36621094 -0.546875,0.16113281 -1.396485,0.16113281 -0.917969,0 -1.5625,-0.34179687 -0.644531,-0.34179687 -0.966797,-0.92773435 -0.317382,-0.5859375 -0.317382,-1.328125 0,-0.7324219 0.317382,-1.3085938 0.322266,-0.5810547 0.966797,-0.9082031 0.644531,-0.3320312 1.5625,-0.3320312 0.605469,0 1.166992,0.2636718 0.566407,0.2587891 0.927735,0.8544922 0.366211,0.5908203 0.366211,1.5283203 z m -1.650391,-0.8691406 q 0,-0.4785156 -0.239258,-0.7617188 -0.234375,-0.2880859 -0.678711,-0.2880859 -0.439453,0 -0.71289,0.2929688 -0.268555,0.2880859 -0.268555,0.7568359 z m 7.212305,0.8691406 h -3.500976 q 0.102539,0.4541016 0.502929,0.7421875 0.400391,0.288086 0.908203,0.288086 0.888672,0 1.962891,-0.4980469 v 1.08886717 q -0.385742,0.20019532 -0.9375,0.36621094 -0.546875,0.16113281 -1.396484,0.16113281 -0.917969,0 -1.5625,-0.34179687 -0.644532,-0.34179687 -0.966797,-0.92773435 -0.317383,-0.5859375 -0.317383,-1.328125 0,-0.7324219 0.317383,-1.3085938 0.322265,-0.5810547 0.966797,-0.9082031 0.644531,-0.3320312 1.5625,-0.3320312 0.605468,0 1.166992,0.2636718 0.566406,0.2587891 0.927734,0.8544922 0.366211,0.5908203 0.366211,1.5283203 z m -1.65039,-0.8691406 q 0,-0.4785156 -0.239258,-0.7617188 -0.234375,-0.2880859 -0.678711,-0.2880859 -0.439453,0 -0.712891,0.2929688 -0.268555,0.2880859 -0.268555,0.7568359 z M 42.702538,0 h -1.762696 v -0.44921875 q -0.27832,0.234375 -0.59082,0.38574219 -0.307617,0.15136718 -0.854492,0.15136718 -0.541992,0 -1.064453,-0.26855468 -0.522461,-0.26855469 -0.859375,-0.83496094 -0.336914,-0.5712891 -0.336914,-1.4355469 0,-0.6787109 0.253906,-1.2695312 0.253906,-0.5957031 0.795898,-0.9667969 0.541992,-0.3710937 1.328125,-0.3710937 0.488281,0 0.791016,0.1074218 0.302734,0.1074219 0.537109,0.2734375 v -2.0898437 h 1.762696 z m -1.762696,-1.5820312 v -1.8994141 q -0.307617,-0.1708985 -0.483398,-0.2441406 -0.170899,-0.073242 -0.405274,-0.073242 -0.415039,0 -0.693359,0.3515625 -0.273438,0.3515625 -0.273438,0.9570312 0,0.6591797 0.288086,0.9619141 0.292969,0.2978516 0.678711,0.2978516 0.317383,0 0.512696,-0.097656 0.195312,-0.1025391 0.375976,-0.2539062 z"
       id="text7"
       style="font-weight:700;font-size:10px;font-family:GillSans-Bold, 'Gill Sans';letter-spacing:-0.04em"
       transform="translate(12.46 85.75) scale(.88 1)"
       aria-label="W Speed" />
    <g
       id="g17">
      <path
         d="M40.6,40.4l1.13-1.95c-2.75-1.43-5.84-2.3-9.12-2.44v2.26c2.87.14,5.57.89,7.99,2.14Z"
         style="fill: #000; stroke-width: 0px;"
         id="path8" />
      <path
         d="M48.18,47.25l1.95-1.13c-1.72-2.68-4-4.96-6.68-6.68l-1.13,1.95c2.34,1.52,4.33,3.51,5.85,5.85Z"
         style="fill: #000; stroke-width: 0px;"
         id="path9" />
      <path
         d="M20.88,41.4l-1.13-1.95c-2.68,1.72-4.96,4-6.68,6.68l1.95,1.13c1.52-2.34,3.51-4.33,5.85-5.85Z"
         style="fill: #000; stroke-width: 0px;"
         id="path10" />
      <path
         d="M51.32,56.98h2.26c-.15-3.28-1.01-6.37-2.44-9.12l-1.95,1.13c1.24,2.42,1.99,5.13,2.14,8Z"
         style="fill: #000; stroke-width: 0px;"
         id="path11" />
      <path
         d="M30.6,38.26v-2.26c-3.28.15-6.37,1.01-9.12,2.44l1.13,1.95c2.42-1.24,5.13-1.99,8-2.14Z"
         style="fill: #000; stroke-width: 0px;"
         id="path12" />
      <path
         d="M15.02,68.71l-1.95,1.13c1.72,2.68,4,4.96,6.68,6.68l1.13-1.95c-2.34-1.52-4.33-3.51-5.85-5.85Z"
         style="fill: #000; stroke-width: 0px;"
         id="path13" />
      <path
         d="M42.33,74.56l1.13,1.95c2.68-1.72,4.96-4,6.68-6.68l-1.95-1.13c-1.52,2.34-3.51,4.33-5.85,5.85Z"
         style="fill: #000; stroke-width: 0px;"
         id="path14" />
      <path
         d="M51.32,58.98c-.14,2.87-.89,5.57-2.14,8l1.95,1.13c1.43-2.75,2.3-5.84,2.44-9.12h-2.26Z"
         style="fill: #000; stroke-width: 0px;"
         id="path15" />
      <path
         d="M11.89,58.98h-2.26c.15,3.28,1.01,6.37,2.44,9.12l1.95-1.13c-1.24-2.42-1.99-5.13-2.14-8Z"
         style="fill: #000; stroke-width: 0px;"
         id="path16" />
      <path
         d="M14.02,48.98l-1.95-1.13c-1.43,2.75-2.3,5.84-2.44,9.12h2.26c.14-2.87.89-5.57,2.14-8Z"
         style="fill: #000; stroke-width: 0px;"
         id="path17" />
    </g>
    <path
       d="M 5.6982422,-2.7392578 H 2.890625 V 0 H 0.84960938 V -6.7675781 H 5.6982422 v 1.3574219 H 2.890625 v 1.3085937 h 2.8076172 z m 8.2722658,0.7714844 q 0,0.6347656 -0.327149,1.09863277 -0.322265,0.46386719 -0.90332,0.71289063 -0.581055,0.24414062 -1.333008,0.24414062 -0.209961,0 -0.517578,-0.02929687 Q 10.586719,0.03417969 10.078906,-0.08789062 9.5759764,-0.20996094 9.0291014,-0.44921875 V -2.109375 q 0.5126953,0.3173828 1.0058596,0.5273438 0.498047,0.2099609 1.064453,0.2099609 0.522461,0 0.673828,-0.1708984 0.15625,-0.1757813 0.15625,-0.3271485 0,-0.2734375 -0.263672,-0.4589844 -0.263672,-0.1904297 -0.766601,-0.390625 -0.556641,-0.234375 -0.9765629,-0.5078125 -0.4199219,-0.2783203 -0.6884766,-0.6933593 -0.2636719,-0.4150391 -0.2636719,-0.9814453 0,-0.546875 0.2685547,-0.9863282 0.2685547,-0.4443359 0.8203127,-0.7080078 0.551758,-0.2636719 1.347656,-0.2636719 0.566406,0 1.044922,0.1123047 0.483398,0.1074219 0.795898,0.2441407 0.3125,0.1367187 0.429688,0.2148437 v 1.5869141 Q 13.2625,-5 12.749804,-5.234375 12.241992,-5.46875 11.660937,-5.46875 q -0.380859,0 -0.551758,0.1464844 -0.170898,0.1464844 -0.170898,0.3613281 0,0.2001953 0.170898,0.3466797 0.170899,0.1464844 0.610352,0.3564453 0.78125,0.3662109 1.25,0.6591797 0.46875,0.2929687 0.732422,0.6787109 0.268555,0.3808594 0.268555,0.9521485 z m 6.157617,-0.5517579 q 0,0.4980469 -0.141601,0.9619141 -0.141602,0.4638672 -0.434571,0.83984376 -0.288086,0.37109375 -0.74707,0.59082032 -0.454102,0.21484374 -1.05957,0.21484374 -0.488282,0 -0.771485,-0.10253906 -0.27832,-0.10253906 -0.55664,-0.2734375 V 2.2607422 h -1.757813 v -7.2314453 h 1.757813 v 0.4492187 q 0.263672,-0.2294922 0.581054,-0.3808593 0.322266,-0.15625 0.869141,-0.15625 0.541992,0 1.064453,0.2685546 0.522461,0.2685547 0.859375,0.8398438 0.336914,0.5664062 0.336914,1.430664 z m -1.850586,0.039063 q 0,-0.4492187 -0.141601,-0.727539 -0.141602,-0.2832031 -0.366211,-0.4052735 -0.22461,-0.1269531 -0.463867,-0.1269531 -0.3125,0 -0.512696,0.1025391 -0.200195,0.097656 -0.375976,0.2490234 v 1.8994141 q 0.09277,0.048828 0.195312,0.1123047 0.107422,0.058594 0.209961,0.102539 0.107422,0.043945 0.22461,0.073242 0.12207,0.029297 0.258789,0.029297 0.415039,0 0.693359,-0.3515625 0.27832,-0.3515625 0.27832,-0.9570313 z m 7.461328,0.4199219 H 22.23789 q 0.102539,0.4541016 0.50293,0.7421875 0.400391,0.288086 0.908203,0.288086 0.888672,0 1.962891,-0.4980469 v 1.08886717 q -0.385743,0.20019532 -0.9375,0.36621094 -0.546875,0.16113281 -1.396485,0.16113281 -0.917968,0 -1.5625,-0.34179687 -0.644531,-0.34179687 -0.966797,-0.92773435 -0.317382,-0.5859375 -0.317382,-1.328125 0,-0.7324219 0.317382,-1.3085938 0.322266,-0.5810547 0.966797,-0.9082031 0.644532,-0.3320312 1.5625,-0.3320312 0.605469,0 1.166992,0.2636718 0.566407,0.2587891 0.927735,0.8544922 0.366211,0.5908203 0.366211,1.5283203 z m -1.650391,-0.8691406 q 0,-0.4785156 -0.239258,-0.7617188 -0.234375,-0.2880859 -0.678711,-0.2880859 -0.439453,0 -0.71289,0.2929688 -0.268555,0.2880859 -0.268555,0.7568359 z m 7.212305,0.8691406 h -3.500976 q 0.102539,0.4541016 0.502929,0.7421875 0.400391,0.288086 0.908203,0.288086 0.888672,0 1.962891,-0.4980469 v 1.08886717 q -0.385742,0.20019532 -0.9375,0.36621094 -0.546875,0.16113281 -1.396484,0.16113281 -0.917969,0 -1.5625,-0.34179687 -0.644532,-0.34179687 -0.966797,-0.92773435 -0.317383,-0.5859375 -0.317383,-1.328125 0,-0.7324219 0.317383,-1.3085938 0.322265,-0.5810547 0.966797,-0.9082031 0.644531,-0.3320312 1.5625,-0.3320312 0.605468,0 1.166992,0.2636718 0.566406,0.2587891 0.927734,0.8544922 0.366211,0.5908203 0.366211,1.5283203 z m -1.65039,-0.8691406 q 0,-0.4785156 -0.239258,-0.7617188 -0.234375,-0.2880859 -0.678711,-0.2880859 -0.439453,0 -0.712891,0.2929688 -0.268554,0.2880859 -0.268554,0.7568359 z M 37.023829,0 h -1.762696 v -0.44921875 q -0.27832,0.234375 -0.59082,0.38574219 -0.307617,0.15136718 -0.854492,0.15136718 -0.541992,0 -1.064453,-0.26855468 -0.522461,-0.26855469 -0.859375,-0.83496094 -0.336914,-0.5712891 -0.336914,-1.4355469 0,-0.6787109 0.253906,-1.2695312 0.253906,-0.5957031 0.795898,-0.9667969 0.541992,-0.3710937 1.328125,-0.3710937 0.488281,0 0.791016,0.1074218 0.302734,0.1074219 0.537109,0.2734375 v -2.0898437 h 1.762696 z m -1.762696,-1.5820312 v -1.8994141 q -0.307617,-0.1708985 -0.483398,-0.2441406 -0.170899,-0.073242 -0.405274,-0.073242 -0.415039,0 -0.693359,0.3515625 -0.273438,0.3515625 -0.273438,0.9570312 0,0.6591797 0.288086,0.9619141 0.292969,0.2978516 0.678711,0.2978516 0.317383,0 0.512696,-0.097656 0.195312,-0.1025391 0.375976,-0.2539062 z"
       id="text17"
       style="font-weight:700;font-size:10px;font-family:GillSans-Bold, 'Gill Sans';letter-spacing:-0.04em"
       transform="translate(66.49 85.75) scale(.88 1)"
       aria-label="F Speed" />
    <path
       d="M92.13,40.4l1.13-1.95c-2.75-1.43-5.84-2.3-9.12-2.44v2.26c2.87.14,5.57.89,7.99,2.14Z"
       style="fill: #000; stroke-width: 0px;"
       id="path18" />
    <path
       d="M99.72,47.25l1.95-1.13c-1.72-2.68-4-4.96-6.68-6.68l-1.13,1.95c2.34,1.52,4.33,3.51,5.85,5.85Z"
       style="fill: #000; stroke-width: 0px;"
       id="path19" />
    <path
       d="M72.41,41.4l-1.13-1.95c-2.68,1.72-4.96,4-6.68,6.68l1.95,1.13c1.52-2.34,3.51-4.33,5.85-5.85Z"
       style="fill: #000; stroke-width: 0px;"
       id="path20" />
    <path
       d="M82.14,38.26v-2.26c-3.28.15-6.37,1.01-9.12,2.44l1.13,1.95c2.42-1.24,5.13-1.99,8-2.14Z"
       style="fill: #000; stroke-width: 0px;"
       id="path21" />
    <path
       d="M66.56,68.7l-1.95,1.13c1.72,2.68,4,4.96,6.68,6.68l1.13-1.95c-2.34-1.52-4.33-3.51-5.85-5.85Z"
       style="fill: #000; stroke-width: 0px;"
       id="path22" />
    <path
       d="M93.86,74.56l1.13,1.95c2.68-1.72,4.96-4,6.68-6.68l-1.95-1.13c-1.52,2.34-3.51,4.33-5.85,5.85Z"
       style="fill: #000; stroke-width: 0px;"
       id="path23" />
    <path
       d="M63.42,58.98h-2.26c.15,3.28,1.01,6.37,2.44,9.12l1.95-1.13c-1.24-2.42-1.99-5.13-2.14-8Z"
       style="fill: #000; stroke-width: 0px;"
       id="path24" />
    <path
       d="M65.56,48.98l-1.95-1.13c-1.43,2.75-2.3,5.84-2.44,9.12h2.26c.14-2.87.89-5.57,2.14-8Z"
       style="fill: #000; stroke-width: 0px;"
       id="path25" />
    <path
       d="M 11.811523,-6.7675781 8.8818359,0.08789062 H 7.7001953 L 5.9423828,-3.9013672 4.140625,0.08789062 H 2.9492188 L 0.078125,-6.7675781 h 2.1142578 l 1.40625,3.75 1.6113281,-3.75 h 1.459961 l 1.5820312,3.75 1.4697266,-3.75 z m 10.064258,3.5058593 q 0,1.0400391 -0.380859,1.6699219 -0.375977,0.62988284 -0.888672,1.02050784 Q 19.878711,0 18.570117,0 h -3.652344 v -6.7675781 h 2.8125 q 0.634766,0 1.083985,0.068359 0.454101,0.063477 0.815429,0.1855468 0.361328,0.1171875 0.615235,0.2685547 0.253906,0.1464844 0.454101,0.3173828 0.34668,0.2832032 0.605469,0.6689453 0.263672,0.3857422 0.415039,0.8935547 0.15625,0.5078125 0.15625,1.1035156 z m -2.075195,-0.087891 q 0,-0.8251953 -0.317383,-1.2841797 -0.3125,-0.4638671 -0.756836,-0.6201171 -0.439453,-0.15625 -0.898438,-0.15625 h -0.86914 v 4.008789 h 0.86914 q 0.800782,0 1.386719,-0.3808594 0.585938,-0.3808593 0.585938,-1.5673828 z m 7.74453,1.2890625 H 24.04414 q 0.102539,0.4541016 0.50293,0.7421875 0.40039,0.288086 0.908203,0.288086 0.888672,0 1.96289,-0.4980469 v 1.08886717 q -0.385742,0.20019532 -0.9375,0.36621094 -0.546875,0.16113281 -1.396484,0.16113281 -0.917969,0 -1.5625,-0.34179687 -0.644531,-0.34179687 -0.966797,-0.92773435 -0.317383,-0.5859375 -0.317383,-1.328125 0,-0.7324219 0.317383,-1.3085938 0.322266,-0.5810547 0.966797,-0.9082031 0.644531,-0.3320312 1.5625,-0.3320312 0.605469,0 1.166992,0.2636718 0.566406,0.2587891 0.927734,0.8544922 0.366211,0.5908203 0.366211,1.5283203 z m -1.65039,-0.8691406 q 0,-0.4785156 -0.239258,-0.7617188 -0.234375,-0.2880859 -0.678711,-0.2880859 -0.439453,0 -0.712891,0.2929688 -0.268554,0.2880859 -0.268554,0.7568359 z m 7.715235,0.4101562 q 0,0.4980469 -0.141602,0.9619141 -0.141602,0.4638672 -0.43457,0.83984376 -0.288086,0.37109375 -0.747071,0.59082032 -0.454101,0.21484374 -1.05957,0.21484374 -0.488281,0 -0.771484,-0.10253906 -0.278321,-0.10253906 -0.556641,-0.2734375 V 2.2607422 h -1.757812 v -7.2314453 h 1.757812 v 0.4492187 q 0.263672,-0.2294922 0.581055,-0.3808593 0.322265,-0.15625 0.86914,-0.15625 0.541993,0 1.064453,0.2685546 0.522461,0.2685547 0.859375,0.8398438 0.336915,0.5664062 0.336915,1.430664 z m -1.850586,0.039063 q 0,-0.4492187 -0.141602,-0.727539 -0.141602,-0.2832031 -0.366211,-0.4052735 -0.224609,-0.1269531 -0.463867,-0.1269531 -0.3125,0 -0.512695,0.1025391 -0.200196,0.097656 -0.375977,0.2490234 v 1.8994141 q 0.09277,0.048828 0.195313,0.1123047 0.107421,0.058594 0.20996,0.102539 0.107422,0.043945 0.22461,0.073242 0.12207,0.029297 0.258789,0.029297 0.415039,0 0.693359,-0.3515625 0.278321,-0.3515625 0.278321,-0.9570313 z m 6.28457,2.19238286 q -0.273437,0.13183594 -0.756836,0.25390625 -0.478515,0.12207031 -0.917968,0.12207031 -1.899414,0 -1.899414,-1.85546872 V -3.75 h -0.795899 v -0.3076172 l 2.358399,-2.4023437 h 0.200195 v 1.4892578 h 1.679687 V -3.75 h -1.679687 v 1.5917969 q 0,0.2783203 0.03418,0.4492187 0.03418,0.1708985 0.190429,0.288086 0.161133,0.1123047 0.483399,0.1123047 0.419922,0 1.103515,-0.3515625 z M 43.723045,0 h -1.757812 v -2.578125 q 0,-0.029297 0,-0.053711 0.0049,-0.029297 0.0049,-0.1171875 0,-0.3564454 -0.151368,-0.6542969 -0.151367,-0.2978516 -0.576171,-0.2978516 -0.332032,0 -0.585938,0.2246094 -0.253906,0.2197266 -0.483398,0.5566406 V 0 h -1.757813 v -6.7675781 h 1.757813 v 2.5097656 q 0.43457,-0.4638672 0.859375,-0.6298828 0.424804,-0.1708984 0.90332,-0.1708984 1.787109,0 1.787109,2.0068359 z"
       id="text25"
       style="font-weight:700;font-size:10px;font-family:GillSans-Bold, 'Gill Sans';letter-spacing:-0.04em"
       transform="translate(12.1 147.07) scale(.88 1)"
       aria-label="W Depth" />
    <path
       d="M40.6,101.8l1.13-1.95c-2.75-1.43-5.84-2.3-9.12-2.44v2.26c2.87.14,5.57.89,7.99,2.14Z"
       style="fill: #000; stroke-width: 0px;"
       id="path26" />
    <path
       d="M48.18,108.65l1.95-1.13c-1.72-2.68-4-4.96-6.68-6.68l-1.13,1.95c2.34,1.52,4.33,3.51,5.85,5.85Z"
       style="fill: #000; stroke-width: 0px;"
       id="path27" />
    <path
       d="M20.88,102.8l-1.13-1.95c-2.68,1.72-4.96,4-6.68,6.68l1.95,1.13c1.52-2.34,3.51-4.33,5.85-5.85Z"
       style="fill: #000; stroke-width: 0px;"
       id="path28" />
    <path
       d="M51.32,118.38h2.26c-.15-3.28-1.01-6.37-2.44-9.12l-1.95,1.13c1.24,2.42,1.99,5.13,2.14,8Z"
       style="fill: #000; stroke-width: 0px;"
       id="path29" />
    <path
       d="M30.6,99.66v-2.26c-3.28.15-6.37,1.01-9.12,2.44l1.13,1.95c2.42-1.24,5.13-1.99,8-2.14Z"
       style="fill: #000; stroke-width: 0px;"
       id="path30" />
    <path
       d="M15.02,130.11l-1.95,1.13c1.72,2.68,4,4.96,6.68,6.68l1.13-1.95c-2.34-1.52-4.33-3.51-5.85-5.85Z"
       style="fill: #000; stroke-width: 0px;"
       id="path31" />
    <path
       d="M42.33,135.96l1.13,1.95c2.68-1.72,4.96-4,6.68-6.68l-1.95-1.13c-1.52,2.34-3.51,4.33-5.85,5.85Z"
       style="fill: #000; stroke-width: 0px;"
       id="path32" />
    <path
       d="M51.32,120.38c-.14,2.87-.89,5.57-2.14,8l1.95,1.13c1.43-2.75,2.3-5.84,2.44-9.12h-2.26Z"
       style="fill: #000; stroke-width: 0px;"
       id="path33" />
    <path
       d="M11.89,120.38h-2.26c.15,3.28,1.01,6.37,2.44,9.12l1.95-1.13c-1.24-2.42-1.99-5.13-2.14-8Z"
       style="fill: #000; stroke-width: 0px;"
       id="path34" />
    <path
       d="M14.02,110.38l-1.95-1.13c-1.43,2.75-2.3,5.84-2.44,9.12h2.26c.14-2.87.89-5.57,2.14-8Z"
       style="fill: #000; stroke-width: 0px;"
       id="path35" />
    <path
       d="M 5.6982422,-2.7392578 H 2.890625 V 0 H 0.84960938 V -6.7675781 H 5.6982422 v 1.3574219 H 2.890625 v 1.3085937 H 5.6982422 Z M 16.19707,-3.2617188 q 0,1.0400391 -0.380859,1.6699219 -0.375977,0.62988284 -0.888672,1.02050784 Q 14.2,0 12.891406,0 H 9.2390623 v -6.7675781 h 2.8124997 q 0.634766,0 1.083985,0.068359 0.454101,0.063477 0.815429,0.1855468 0.361328,0.1171875 0.615235,0.2685547 0.253906,0.1464844 0.454101,0.3173828 0.34668,0.2832032 0.605469,0.6689453 0.263672,0.3857422 0.415039,0.8935547 0.15625,0.5078125 0.15625,1.1035156 z m -2.075195,-0.087891 q 0,-0.8251953 -0.317383,-1.2841797 -0.3125,-0.4638671 -0.756836,-0.6201171 -0.439453,-0.15625 -0.898437,-0.15625 h -0.869141 v 4.008789 h 0.869141 q 0.800781,0 1.386718,-0.3808594 0.585938,-0.3808593 0.585938,-1.5673828 z m 7.74453,1.2890625 h -3.500976 q 0.102539,0.4541016 0.50293,0.7421875 0.40039,0.288086 0.908203,0.288086 0.888672,0 1.96289,-0.4980469 v 1.08886717 q -0.385742,0.20019532 -0.9375,0.36621094 -0.546875,0.16113281 -1.396484,0.16113281 -0.917969,0 -1.5625,-0.34179687 -0.644531,-0.34179687 -0.966797,-0.92773435 -0.317383,-0.5859375 -0.317383,-1.328125 0,-0.7324219 0.317383,-1.3085938 0.322266,-0.5810547 0.966797,-0.9082031 0.644531,-0.3320312 1.5625,-0.3320312 0.605469,0 1.166992,0.2636718 0.566406,0.2587891 0.927735,0.8544922 0.36621,0.5908203 0.36621,1.5283203 z m -1.65039,-0.8691406 q 0,-0.4785156 -0.239258,-0.7617188 -0.234375,-0.2880859 -0.678711,-0.2880859 -0.439453,0 -0.712891,0.2929688 -0.268554,0.2880859 -0.268554,0.7568359 z m 7.715235,0.4101562 q 0,0.4980469 -0.141602,0.9619141 -0.141602,0.4638672 -0.43457,0.83984376 -0.288086,0.37109375 -0.747071,0.59082032 -0.454101,0.21484374 -1.05957,0.21484374 -0.488281,0 -0.771484,-0.10253906 -0.278321,-0.10253906 -0.556641,-0.2734375 V 2.2607422 H 22.4625 v -7.2314453 h 1.757812 v 0.4492187 q 0.263672,-0.2294922 0.581055,-0.3808593 0.322265,-0.15625 0.86914,-0.15625 0.541993,0 1.064454,0.2685546 0.52246,0.2685547 0.859375,0.8398438 0.336914,0.5664062 0.336914,1.430664 z m -1.850586,0.039063 q 0,-0.4492187 -0.141602,-0.727539 -0.141601,-0.2832031 -0.366211,-0.4052735 -0.224609,-0.1269531 -0.463867,-0.1269531 -0.3125,0 -0.512695,0.1025391 -0.200196,0.097656 -0.375977,0.2490234 v 1.8994141 q 0.09277,0.048828 0.195313,0.1123047 0.107421,0.058594 0.209961,0.102539 0.107421,0.043945 0.224609,0.073242 0.12207,0.029297 0.258789,0.029297 0.415039,0 0.693359,-0.3515625 0.278321,-0.3515625 0.278321,-0.9570313 z m 6.28457,2.19238286 q -0.273437,0.13183594 -0.756836,0.25390625 -0.478515,0.12207031 -0.917968,0.12207031 -1.899414,0 -1.899414,-1.85546872 V -3.75 h -0.795899 v -0.3076172 l 2.358399,-2.4023437 h 0.200195 v 1.4892578 h 1.679687 V -3.75 h -1.679687 v 1.5917969 q 0,0.2783203 0.03418,0.4492187 0.03418,0.1708985 0.190429,0.288086 0.161133,0.1123047 0.483399,0.1123047 0.419922,0 1.103515,-0.3515625 z M 38.044334,0 h -1.757812 v -2.578125 q 0,-0.029297 0,-0.053711 0.0049,-0.029297 0.0049,-0.1171875 0,-0.3564454 -0.151367,-0.6542969 -0.151368,-0.2978516 -0.576172,-0.2978516 -0.332032,0 -0.585938,0.2246094 -0.253906,0.2197266 -0.483398,0.5566406 V 0 h -1.757813 v -6.7675781 h 1.757813 v 2.5097656 q 0.43457,-0.4638672 0.859375,-0.6298828 0.424804,-0.1708984 0.90332,-0.1708984 1.787109,0 1.787109,2.0068359 z"
       id="text35"
       style="font-weight:700;font-size:10px;font-family:GillSans-Bold, 'Gill Sans';letter-spacing:-0.04em"
       transform="translate(66.13 147.07) scale(.88 1)"
       aria-label="F Depth" />
    <path
       d="M92.13,101.8l1.13-1.95c-2.75-1.43-5.84-2.3-9.12-2.44v2.26c2.87.14,5.57.89,7.99,2.14Z"
       style="fill: #000; stroke-width: 0px;"
       id="path36" />
    <path
       d="M99.72,108.65l1.95-1.13c-1.72-2.68-4-4.96-6.68-6.68l-1.13,1.95c2.34,1.52,4.33,3.51,5.85,5.85Z"
       style="fill: #000; stroke-width: 0px;"
       id="path37" />
    <path
       d="M72.41,102.8l-1.13-1.95c-2.68,1.72-4.96,4-6.68,6.68l1.95,1.13c1.52-2.34,3.51-4.33,5.85-5.85Z"
       style="fill: #000; stroke-width: 0px;"
       id="path38" />
    <path
       d="M102.85,118.38h2.26c-.15-3.28-1.01-6.37-2.44-9.12l-1.95,1.13c1.24,2.42,1.99,5.13,2.14,8Z"
       style="fill: #000; stroke-width: 0px;"
       id="path39" />
    <path
       d="M82.14,99.66v-2.26c-3.28.15-6.37,1.01-9.12,2.44l1.13,1.95c2.42-1.24,5.13-1.99,8-2.14Z"
       style="fill: #000; stroke-width: 0px;"
       id="path40" />
    <path
       d="M66.56,130.11l-1.95,1.13c1.72,2.68,4,4.96,6.68,6.68l1.13-1.95c-2.34-1.52-4.33-3.51-5.85-5.85Z"
       style="fill: #000; stroke-width: 0px;"
       id="path41" />
    <path
       d="M93.86,135.96l1.13,1.95c2.68-1.72,4.96-4,6.68-6.68l-1.95-1.13c-1.52,2.34-3.51,4.33-5.85,5.85Z"
       style="fill: #000; stroke-width: 0px;"
       id="path42" />
    <path
       d="M102.85,120.38c-.14,2.87-.89,5.57-2.14,8l1.95,1.13c1.43-2.75,2.3-5.84,2.44-9.12h-2.26Z"
       style="fill: #000; stroke-width: 0px;"
       id="path43" />
    <path
       d="M63.42,120.38h-2.26c.15,3.28,1.01,6.37,2.44,9.12l1.95-1.13c-1.24-2.42-1.99-5.13-2.14-8Z"
       style="fill: #000; stroke-width: 0px;"
       id="path44" />
    <path
       d="M65.56,110.38l-1.95-1.13c-1.43,2.75-2.3,5.84-2.44,9.12h2.26c.14-2.87.89-5.57,2.14-8Z"
       style="fill: #000; stroke-width: 0px;"
       id="path45" />
    <g
       id="g48">
      <path
         d="M49.4,18.19c-.37,0-.71-.17-.97-.47-.51-.6-.52-1.54-.04-2.16l6.97-8.88c.38-.48,1.05-.65,1.57-.39.5.25.79.82.79,1.45v4.77l4.64-5.85c.38-.48,1.01-.64,1.53-.38.5.25.83.81.83,1.44v8.82c0,.86-.61,1.57-1.36,1.57s-1.36-.7-1.36-1.57v-4.79l-4.64,5.85c-.38.48-1.01.64-1.54.38-.5-.24-.83-.81-.83-1.44v-4.67l-4.61,5.8c-.26.32-.62.51-1,.51h0Z"
         style="fill: #2cabe1; stroke-width: 0px;"
         id="path46" />
      <path
         d="M49.4,18.19c-.75,0-1.35-.7-1.35-1.57v-4.93l-2.26,2.84c-.5.63-1.44.65-1.97.04-.51-.6-.52-1.53-.03-2.15l4.61-5.76c.26-.32.63-.5,1-.5.18,0,.37.04.54.12.5.25.82.81.82,1.44v8.89c0,.86-.61,1.57-1.36,1.57h0Z"
         style="fill: #ea2228; stroke-width: 0px;"
         id="path47" />
      <path
         d="M66,18.21h0c-.35,0-.68-.15-.94-.42-.76-.78-.14-1.84.29-2.3l1.95-2.36-1.26-.02c-.56-.01-1.04-.4-1.24-1-.19-.56-.07-1.21.29-1.64l3.16-3.83c.23-.28.55-.48,1.13-.47.33,0,.67.17.92.4.71.66.29,1.7-.07,2.2l-1.04,1.26,1.26.02c.56.01,1.04.4,1.24,1,.19.56.07,1.21-.29,1.64l-4.1,4.97c-.35.35-.65.55-1.3.54h0Z"
         style="fill: #00a650; stroke-width: 0px;"
         id="path48" />
    </g>
    <g
       id="g52">
      <path
         d="M100.43,318.75v-21.52h-21.54c-7.49,0-13.57,6.52-13.57,14.57v30.53h15.07s0,0,0,0h14.39c3.12,0,5.64-2.36,5.64-5.25v-18.39.08Z"
         style="fill: #000; stroke-width: 0px;"
         id="path49" />
      <g
         id="g51">
        <path
           d="M28.31,341.84h35.2s23.15,0,23.15,0c7.35,0,13.31-7.02,13.31-15.67v-28.42l.27-21.85-.06-6.64c-.29-8.35-6.12-15.02-13.28-15.02H28.55c-7.17,0-12.99,6.67-13.28,15.02l-.06,6.64v-2.92l-.21,53.19"
           style="fill: none; stroke: #000; stroke-miterlimit: 10;"
           id="path50" />
        <path
           d="M14.99,325.21v10.96c0,3.12,2.55,5.67,5.67,5.67h12.93"
           style="fill: none; stroke: #231f20; stroke-miterlimit: 10;"
           id="path51" />
      </g>
    </g>
    <path
       d="m 80.582964,312.86719 q 0,0.71089 -0.329795,1.30819 -0.326131,0.59729 -0.974728,0.94908 -0.648597,0.35178 -1.579352,0.35178 -0.941748,0 -1.594009,-0.36644 -0.652262,-0.36644 -0.971063,-0.96374 -0.315138,-0.59729 -0.315138,-1.27887 0,-0.68524 0.315138,-1.27887 0.315137,-0.5973 0.967398,-0.96007 0.655926,-0.36644 1.597674,-0.36644 0.703563,0 1.253222,0.20887 0.553322,0.20887 0.908768,0.56798 0.355446,0.35545 0.538666,0.83182 0.183219,0.4727 0.183219,0.99671 z m -1.56103,0 q 0,-0.28582 -0.08428,-0.52034 -0.08428,-0.23819 -0.256507,-0.41041 -0.168562,-0.17589 -0.414076,-0.27117 -0.245514,-0.0989 -0.567981,-0.0989 -0.615617,0 -0.967399,0.35911 -0.351781,0.35911 -0.351781,0.94175 0,0.58264 0.351781,0.94541 0.355446,0.35911 0.967399,0.35911 0.421405,0 0.718221,-0.16489 0.296815,-0.16856 0.45072,-0.46172 0.153904,-0.29681 0.153904,-0.67791 z m 5.929276,2.54309 h -1.322845 v -0.53134 q -0.278494,0.30048 -0.586302,0.45072 -0.304145,0.14658 -0.732878,0.14658 -0.846474,0 -1.095653,-0.49103 -0.249178,-0.49469 -0.249178,-1.11398 v -2.1913 h 1.322844 v 2.01541 q 0,0.30415 0.09894,0.535 0.102603,0.2272 0.439727,0.2272 0.289486,0 0.458048,-0.1649 0.168562,-0.1649 0.344453,-0.42141 v -2.1913 h 1.322845 z m 3.485128,-0.2162 q -0.205206,0.0989 -0.567981,0.19055 -0.35911,0.0916 -0.688905,0.0916 -1.425448,0 -1.425448,-1.39247 v -1.48774 h -0.597295 v -0.23086 l 1.7699,-1.80288 h 0.15024 v 1.11764 h 1.26055 v 0.9161 h -1.26055 v 1.19459 q 0,0.20887 0.02565,0.33712 0.02565,0.12826 0.142911,0.2162 0.120925,0.0843 0.362774,0.0843 0.315138,0 0.828153,-0.26383 z m 4.375574,-1.67463 q 0,0.37377 -0.106267,0.72189 -0.106268,0.34812 -0.326131,0.63027 -0.216199,0.2785 -0.560652,0.44339 -0.340788,0.16124 -0.795172,0.16124 -0.366439,0 -0.578974,-0.077 -0.20887,-0.077 -0.41774,-0.20521 v 1.91281 h -1.319181 v -5.42696 h 1.319181 v 0.33712 q 0.197877,-0.17222 0.436062,-0.28582 0.24185,-0.11726 0.652261,-0.11726 0.406748,0 0.798837,0.20154 0.39209,0.20154 0.644933,0.63028 0.252843,0.42507 0.252843,1.07366 z m -1.388804,0.0293 q 0,-0.33713 -0.106267,-0.546 -0.106267,-0.21253 -0.274829,-0.30414 -0.168562,-0.0953 -0.348117,-0.0953 -0.234521,0 -0.384761,0.077 -0.15024,0.0733 -0.282158,0.18688 v 1.42545 q 0.06962,0.0366 0.146575,0.0843 0.08062,0.044 0.157569,0.077 0.08062,0.033 0.168562,0.055 0.09161,0.022 0.194213,0.022 0.311473,0 0.520343,-0.26383 0.20887,-0.26384 0.20887,-0.71822 z m 5.705747,1.86151 h -1.322844 v -0.53134 q -0.278494,0.30048 -0.586303,0.45072 -0.304144,0.14658 -0.732878,0.14658 -0.846474,0 -1.095652,-0.49103 -0.249179,-0.49469 -0.249179,-1.11398 v -2.1913 h 1.322845 v 2.01541 q 0,0.30415 0.09894,0.535 0.102602,0.2272 0.439726,0.2272 0.289487,0 0.458049,-0.1649 0.168562,-0.1649 0.344453,-0.42141 v -2.1913 h 1.322844 z m 3.485125,-0.2162 q -0.2052,0.0989 -0.56798,0.19055 -0.359106,0.0916 -0.688902,0.0916 -1.425447,0 -1.425447,-1.39247 v -1.48774 h -0.597296 v -0.23086 l 1.769901,-1.80288 h 0.15024 v 1.11764 h 1.260554 v 0.9161 h -1.260554 v 1.19459 q 0,0.20887 0.02565,0.33712 0.02565,0.12826 0.142911,0.2162 0.120925,0.0843 0.362775,0.0843 0.315138,0 0.828148,-0.26383 z"
       id="text6-0"
       style="font-weight:700;font-size:7.50467px;font-family:GillSans-Bold, 'Gill Sans';letter-spacing:-0.04em;fill:#ffffff;stroke-width:0.938083"
       transform="scale(0.93808313,1.0660036)"
       aria-label="Output" />
  </g>
  <g
     id="g2" />
</svg>
