<svg xmlns="http://www.w3.org/2000/svg" width="40.73mm" height="130.6mm" viewBox="0 0 115.45 370.19">
  <g id="faceplate">
    <rect x="0.13" y="0.13" width="115.2" height="364.25" style="fill: #ededed;stroke: #9d9d9e;stroke-miterlimit: 10;stroke-width: 0.25px" />
    <path d="M100.47,318.76V297.24H78.94c-7.5,0-13.57,6.52-13.57,14.56v30.53H94.83a5.47,5.47,0,0,0,5.64-5.26V318.76Z" transform="translate(0)" />
    <path d="M28.36,341.84H86.71c7.35,0,13.31-7,13.31-15.67V297.75l.27-21.85-.06-6.65c-.29-8.35-6.12-15-13.28-15H28.6c-7.17,0-13,6.67-13.29,15l-.06,6.65V273L15,326.17" transform="translate(0)" style="fill: none;stroke: #000;stroke-miterlimit: 10" />
    <path d="M15,325.21v11a5.68,5.68,0,0,0,5.67,5.67H33.64" transform="translate(0)" style="fill: none;stroke: #000;stroke-miterlimit: 10" />
    <g>
      <path d="M43.78,353.88a4.28,4.28,0,0,1-.34,1.84,3.76,3.76,0,0,1-.81,1.12,2.53,2.53,0,0,1-1.83.63H37.5V350H40a5.55,5.55,0,0,1,1,.07,4.26,4.26,0,0,1,.73.2,2.65,2.65,0,0,1,.56.3,3.58,3.58,0,0,1,.41.35,3.24,3.24,0,0,1,.55.74,4.17,4.17,0,0,1,.37,1A5.15,5.15,0,0,1,43.78,353.88Zm-1.87-.09a2.92,2.92,0,0,0-.29-1.42,1.48,1.48,0,0,0-.68-.68,2.14,2.14,0,0,0-.81-.17h-.79v4.41h.79a2,2,0,0,0,1.25-.42A2.15,2.15,0,0,0,41.91,353.79Z" transform="translate(0)" />
      <path d="M49.52,357.47H44.91V350h4.53v1.49H46.76v1.36h2.56v1.5H46.76V356h2.76Z" transform="translate(0)" />
      <path d="M56.6,351.84H54.37v5.63H52.53v-5.63H50.29V350H56.6Z" transform="translate(0)" />
      <path d="M64,354.14a4.2,4.2,0,0,1-.29,1.63,2.87,2.87,0,0,1-.78,1.06,3.22,3.22,0,0,1-1,.57,3.89,3.89,0,0,1-1.11.17,3.79,3.79,0,0,1-1.51-.32,2.81,2.81,0,0,1-1.23-1.1,3.7,3.7,0,0,1-.49-2V350h1.84v3.53a3.75,3.75,0,0,0,.17,1.21,1.54,1.54,0,0,0,.48.71,1.32,1.32,0,0,0,.74.22,1.2,1.2,0,0,0,.72-.22,1.37,1.37,0,0,0,.48-.7,3.47,3.47,0,0,0,.18-1.21V350H64Z" transform="translate(0)" />
      <path d="M72.11,357.47H70.47l-3.16-4.15v4.15H65.48V350h1.64l3.16,4.12V350h1.83Z" transform="translate(0)" />
      <path d="M78.25,357.47H73.64V350h4.53v1.49H75.49v1.36h2.56v1.5H75.49V356h2.76Z" transform="translate(0)" />
    </g>
    <g>
      <path d="M76.41,291.21a2.87,2.87,0,0,1-.27,1.34,2.92,2.92,0,0,1-.63.81,2,2,0,0,1-1.43.46H71.51v-5.41h2a4.2,4.2,0,0,1,.76,0,2.34,2.34,0,0,1,.58.15,1.91,1.91,0,0,1,.43.21,2.13,2.13,0,0,1,.32.26,2.84,2.84,0,0,1,.43.53,2.93,2.93,0,0,1,.29.72A3.48,3.48,0,0,1,76.41,291.21ZM75,291.14a2,2,0,0,0-.23-1,1,1,0,0,0-.53-.49,1.58,1.58,0,0,0-.63-.13H73v3.21h.61a1.54,1.54,0,0,0,1-.31A1.47,1.47,0,0,0,75,291.14Z" transform="translate(0)" />
      <path d="M80.4,292.17H77.93a1,1,0,0,0,.36.59,1,1,0,0,0,.64.24,3.12,3.12,0,0,0,1.38-.4v.87a3.42,3.42,0,0,1-.66.29,3.06,3.06,0,0,1-1,.13,2.11,2.11,0,0,1-1.1-.27,1.7,1.7,0,0,1-.68-.75,2.53,2.53,0,0,1,0-2.11,1.58,1.58,0,0,1,.68-.72,2.11,2.11,0,0,1,1.1-.27,1.75,1.75,0,0,1,.82.21,1.62,1.62,0,0,1,.65.69,2.54,2.54,0,0,1,.26,1.22Zm-1.16-.69a1.06,1.06,0,0,0-.17-.62.55.55,0,0,0-.48-.22.6.6,0,0,0-.5.23.91.91,0,0,0-.19.61Z" transform="translate(0)" />
      <path d="M83.49,293.59a2.58,2.58,0,0,1-.53.2,2.24,2.24,0,0,1-.65.1c-.9,0-1.34-.49-1.34-1.48v-1.59h-.56v-.25l1.66-1.92h.14v1.19h1.18v1H82.21v1.27a3.21,3.21,0,0,0,0,.36.43.43,0,0,0,.14.23.55.55,0,0,0,.34.09,1.68,1.68,0,0,0,.78-.28Z" transform="translate(0)" />
      <path d="M87.43,293.82H86.19v-.57a1.63,1.63,0,0,1-.55.48,1.35,1.35,0,0,1-.69.16,1,1,0,0,1-1-.53,2.79,2.79,0,0,1-.23-1.18v-2.34h1.23V292a1.42,1.42,0,0,0,.1.57.39.39,0,0,0,.41.24.54.54,0,0,0,.43-.17,2.92,2.92,0,0,0,.32-.45v-2.34h1.24Z" transform="translate(0)" />
      <path d="M91.68,293.82H90.44v-2.15a1.7,1.7,0,0,0-.09-.57.4.4,0,0,0-.42-.24.55.55,0,0,0-.26.06.87.87,0,0,0-.21.17l-.15.19-.13.2v2.34H87.94v-4h1.24v.57a1.83,1.83,0,0,1,.59-.49,1.38,1.38,0,0,1,.65-.15q1.26,0,1.26,1.71Z" transform="translate(0)" />
      <path d="M95.73,292.17H93.27a.93.93,0,0,0,.35.59,1,1,0,0,0,.64.24,3.05,3.05,0,0,0,1.38-.4v.87a3.42,3.42,0,0,1-.66.29,3,3,0,0,1-1,.13,2.11,2.11,0,0,1-1.1-.27,1.76,1.76,0,0,1-.68-.75,2.53,2.53,0,0,1,0-2.11,1.63,1.63,0,0,1,.68-.72,2.11,2.11,0,0,1,1.1-.27,1.72,1.72,0,0,1,.82.21,1.56,1.56,0,0,1,.65.69,2.54,2.54,0,0,1,.26,1.22Zm-1.16-.69a1.06,1.06,0,0,0-.17-.62.55.55,0,0,0-.48-.22.61.61,0,0,0-.5.23.91.91,0,0,0-.19.61Z" transform="translate(0)" />
    </g>
    <g>
      <path d="M82.48,333.3a3.21,3.21,0,0,1-.3,1.39,2.42,2.42,0,0,1-.92,1,3.08,3.08,0,0,1-3,0,2.51,2.51,0,0,1-.91-1,3.36,3.36,0,0,1,0-2.73,2.42,2.42,0,0,1,.91-1,2.75,2.75,0,0,1,1.5-.39,3,3,0,0,1,1.18.22,2.51,2.51,0,0,1,.85.6,2.6,2.6,0,0,1,.5.89A3.16,3.16,0,0,1,82.48,333.3Zm-1.46,0a1.94,1.94,0,0,0-.08-.56,1.11,1.11,0,0,0-.24-.44,1.05,1.05,0,0,0-.39-.29,1.25,1.25,0,0,0-.53-.1,1.15,1.15,0,0,0-.91.38,1.5,1.5,0,0,0-.33,1,1.47,1.47,0,0,0,.33,1,1.14,1.14,0,0,0,.91.39,1.2,1.2,0,0,0,.67-.18,1.14,1.14,0,0,0,.43-.49A1.81,1.81,0,0,0,81,333.3Z" transform="translate(0)" style="fill: #fff" />
      <path d="M86.58,336H85.34v-.57a2,2,0,0,1-.55.48,1.46,1.46,0,0,1-.69.16,1,1,0,0,1-1-.53,2.8,2.8,0,0,1-.24-1.18V332h1.24v2.15a1.7,1.7,0,0,0,.09.57.4.4,0,0,0,.42.24.58.58,0,0,0,.43-.17,3.8,3.8,0,0,0,.32-.45V332h1.24Z" transform="translate(0)" style="fill: #fff" />
      <path d="M89.85,335.78a3,3,0,0,1-.53.2,2.5,2.5,0,0,1-.65.1c-.89,0-1.33-.5-1.33-1.49V333h-.56v-.25l1.66-1.92h.14V332h1.18v1H88.58v1.27a1.84,1.84,0,0,0,0,.36.37.37,0,0,0,.14.23.51.51,0,0,0,.34.09,1.65,1.65,0,0,0,.77-.28Z" transform="translate(0)" style="fill: #fff" />
    </g>
    <g>
      <path d="M25.11,293.82H23.68v-5.41h1.43Z" transform="translate(0)" />
      <path d="M29.57,293.82H28.33v-2.15a1.7,1.7,0,0,0-.09-.57.41.41,0,0,0-.42-.24.6.6,0,0,0-.27.06,1.06,1.06,0,0,0-.2.17l-.15.19-.13.2v2.34H25.83v-4h1.24v.57a1.8,1.8,0,0,1,.58-.49,1.45,1.45,0,0,1,.66-.15q1.26,0,1.26,1.71Z" transform="translate(0)" />
      <path d="M33.87,291.8a2.76,2.76,0,0,1-.1.77,2.15,2.15,0,0,1-.3.67,1.53,1.53,0,0,1-.53.48,1.6,1.6,0,0,1-.75.17,1.54,1.54,0,0,1-.54-.08,2.56,2.56,0,0,1-.39-.22v2H30v-5.79h1.24v.36a1.73,1.73,0,0,1,.41-.3,1.18,1.18,0,0,1,.61-.13A1.44,1.44,0,0,1,33,290a1.52,1.52,0,0,1,.6.67A2.41,2.41,0,0,1,33.87,291.8Zm-1.3,0a1.42,1.42,0,0,0-.1-.59.66.66,0,0,0-.26-.32.56.56,0,0,0-.33-.1.68.68,0,0,0-.36.08,1.21,1.21,0,0,0-.26.2v1.52l.14.09.15.08.15.06.18,0a.57.57,0,0,0,.49-.28A1.32,1.32,0,0,0,32.57,291.84Z" transform="translate(0)" />
      <path d="M37.92,293.82H36.68v-.57a1.73,1.73,0,0,1-.55.48,1.35,1.35,0,0,1-.69.16,1,1,0,0,1-1-.53,3,3,0,0,1-.23-1.18v-2.34h1.24V292a1.62,1.62,0,0,0,.09.57.4.4,0,0,0,.42.24.54.54,0,0,0,.43-.17,3.8,3.8,0,0,0,.32-.45v-2.34h1.24Z" transform="translate(0)" />
      <path d="M41.19,293.59a2.58,2.58,0,0,1-.53.2,2.19,2.19,0,0,1-.65.1c-.89,0-1.34-.49-1.34-1.48v-1.59h-.56v-.25l1.66-1.92h.14v1.19H41.1v1H39.91v1.27a1.73,1.73,0,0,0,0,.36.41.41,0,0,0,.13.23.55.55,0,0,0,.34.09,1.64,1.64,0,0,0,.78-.28Z" transform="translate(0)" />
    </g>
    <g>
      <path d="M27.21,333.4a2.65,2.65,0,0,1-.9,2.15,2.1,2.1,0,0,1-1.43.46H22.31v-5.42h2a4.18,4.18,0,0,1,.76.06,3,3,0,0,1,.57.14,2.57,2.57,0,0,1,.44.22,2.72,2.72,0,0,1,.32.25,2.52,2.52,0,0,1,.42.54,2.71,2.71,0,0,1,.3.71A3.62,3.62,0,0,1,27.21,333.4Zm-1.47-.07a2,2,0,0,0-.22-1,1.15,1.15,0,0,0-.53-.5,1.76,1.76,0,0,0-.63-.12h-.62v3.21h.62a1.6,1.6,0,0,0,1-.31A1.47,1.47,0,0,0,25.74,333.33Z" transform="translate(0)" />
      <path d="M31.2,334.36H28.73a1,1,0,0,0,.36.59.93.93,0,0,0,.63.23,3,3,0,0,0,1.39-.4v.88a4.18,4.18,0,0,1-.66.29,3.39,3.39,0,0,1-1,.13,2,2,0,0,1-1.1-.28,1.73,1.73,0,0,1-.68-.74,2.42,2.42,0,0,1-.22-1.06,2.38,2.38,0,0,1,.22-1.05,1.71,1.71,0,0,1,.68-.73,2.24,2.24,0,0,1,1.1-.26,1.76,1.76,0,0,1,.83.21,1.65,1.65,0,0,1,.65.68,2.61,2.61,0,0,1,.26,1.23Zm-1.17-.7a1,1,0,0,0-.16-.61.56.56,0,0,0-.48-.23.59.59,0,0,0-.5.24.88.88,0,0,0-.19.6Z" transform="translate(0)" />
      <path d="M35.37,334a3.25,3.25,0,0,1-.1.77,2.16,2.16,0,0,1-.31.67,1.38,1.38,0,0,1-.52.47,1.73,1.73,0,0,1-1.29.1,2.65,2.65,0,0,1-.4-.22v2H31.52V332h1.23v.36a2.45,2.45,0,0,1,.41-.31,1.32,1.32,0,0,1,.61-.12,1.47,1.47,0,0,1,.75.21,1.66,1.66,0,0,1,.61.67A2.48,2.48,0,0,1,35.37,334Zm-1.31,0a1.37,1.37,0,0,0-.1-.58.72.72,0,0,0-.25-.33.7.7,0,0,0-.33-.1.74.74,0,0,0-.36.08,1.31,1.31,0,0,0-.27.21v1.52l.14.08L33,335l.16.06.18,0a.58.58,0,0,0,.49-.28A1.35,1.35,0,0,0,34.06,334Z" transform="translate(0)" />
      <path d="M38.49,335.78a3.33,3.33,0,0,1-.53.2,2.64,2.64,0,0,1-.65.1c-.89,0-1.34-.5-1.34-1.49V333h-.56v-.25l1.66-1.92h.14V332h1.18v1H37.21v1.27a1.73,1.73,0,0,0,0,.36.36.36,0,0,0,.13.23.55.55,0,0,0,.34.09,1.64,1.64,0,0,0,.78-.28Z" transform="translate(0)" />
      <path d="M42.49,336H41.25v-2.2a1.17,1.17,0,0,0-.11-.53.4.4,0,0,0-.4-.23.54.54,0,0,0-.41.17,2,2,0,0,0-.34.45V336H38.75v-5.42H40v2a1.7,1.7,0,0,1,.6-.51,1.53,1.53,0,0,1,.64-.13c.84,0,1.26.54,1.26,1.61Z" transform="translate(0)" />
    </g>
    <path d="M103,57.11h2.26A21.88,21.88,0,0,0,102.81,48l-2,1.12A19.6,19.6,0,0,1,103,57.11Z" transform="translate(0)" />
    <path d="M103,59.11a19.55,19.55,0,0,1-2.13,8l2,1.13a21.88,21.88,0,0,0,2.44-9.12Z" transform="translate(0)" />
    <g>
      <path d="M23,79.12,20.41,86h-1l-1.55-4-1.59,4h-1l-2.52-6.85h1.86l1.24,3.75,1.41-3.75h1.29l1.39,3.75,1.29-3.75Z" transform="translate(0)" />
      <path d="M29.89,83.92A2.07,2.07,0,0,1,29.6,85a2,2,0,0,1-.79.71,2.73,2.73,0,0,1-1.18.24l-.45,0a4.81,4.81,0,0,1-.71-.15,6.81,6.81,0,0,1-.93-.36V83.77a5.63,5.63,0,0,0,.89.53,2.11,2.11,0,0,0,.93.21.78.78,0,0,0,.6-.17.53.53,0,0,0,.13-.33.56.56,0,0,0-.23-.46,3.72,3.72,0,0,0-.67-.39,4.16,4.16,0,0,1-.86-.51,2.14,2.14,0,0,1-.61-.69,2,2,0,0,1-.23-1,2.07,2.07,0,0,1,.24-1,1.63,1.63,0,0,1,.72-.7A2.39,2.39,0,0,1,27.63,79a3.89,3.89,0,0,1,.93.11,4.1,4.1,0,0,1,.69.25,1.81,1.81,0,0,1,.38.22v1.58a4.72,4.72,0,0,0-.81-.53,2,2,0,0,0-1-.23.67.67,0,0,0-.49.14.49.49,0,0,0-.15.36.47.47,0,0,0,.15.35,2.46,2.46,0,0,0,.54.36,9.32,9.32,0,0,1,1.1.66,2.43,2.43,0,0,1,.65.67A1.89,1.89,0,0,1,29.89,83.92Z" transform="translate(0)" />
      <path d="M35.31,83.36a3.44,3.44,0,0,1-.13,1,2.52,2.52,0,0,1-.38.83,1.84,1.84,0,0,1-.65.59,1.89,1.89,0,0,1-.94.22,1.75,1.75,0,0,1-.67-.1,3.06,3.06,0,0,1-.5-.27v2.55H30.5V80.91H32v.45a2.39,2.39,0,0,1,.52-.38,1.6,1.6,0,0,1,.76-.15,1.93,1.93,0,0,1,.94.26,2.07,2.07,0,0,1,.75.84A3.06,3.06,0,0,1,35.31,83.36Zm-1.63,0a1.89,1.89,0,0,0-.12-.73.89.89,0,0,0-.33-.4.76.76,0,0,0-.4-.13,1,1,0,0,0-.46.1,1.87,1.87,0,0,0-.33.26v1.9l.18.1a.87.87,0,0,0,.18.11l.2.07a.85.85,0,0,0,.23,0,.72.72,0,0,0,.61-.35A1.66,1.66,0,0,0,33.68,83.4Z" transform="translate(0)" />
      <path d="M40.25,83.82H37.17a1.23,1.23,0,0,0,.44.75,1.22,1.22,0,0,0,.8.28,3.74,3.74,0,0,0,1.72-.49v1.08a3.94,3.94,0,0,1-.82.37,3.86,3.86,0,0,1-1.23.16,2.56,2.56,0,0,1-1.37-.34,2.12,2.12,0,0,1-.85-.93,3.25,3.25,0,0,1,0-2.64,2,2,0,0,1,.85-.9,2.65,2.65,0,0,1,1.37-.33,2.1,2.1,0,0,1,1,.26,2,2,0,0,1,.82.85,3.28,3.28,0,0,1,.32,1.53ZM38.79,83a1.34,1.34,0,0,0-.2-.76.7.7,0,0,0-.6-.29.77.77,0,0,0-.63.3,1.13,1.13,0,0,0-.24.75Z" transform="translate(0)" />
      <path d="M45.14,83.82H42.06a1.28,1.28,0,0,0,.44.75,1.24,1.24,0,0,0,.8.28A3.78,3.78,0,0,0,45,84.36v1.08a4.19,4.19,0,0,1-.82.37A4,4,0,0,1,43,86a2.62,2.62,0,0,1-1.38-.34,2.18,2.18,0,0,1-.85-.93,3.25,3.25,0,0,1,0-2.64,2.11,2.11,0,0,1,.85-.9A2.71,2.71,0,0,1,43,80.83a2.09,2.09,0,0,1,1,.26,1.93,1.93,0,0,1,.82.85,3.28,3.28,0,0,1,.32,1.53ZM43.69,83a1.27,1.27,0,0,0-.21-.76.7.7,0,0,0-.6-.29.74.74,0,0,0-.62.3A1.13,1.13,0,0,0,42,83Z" transform="translate(0)" />
      <path d="M50.18,85.88H48.63v-.44a3,3,0,0,1-.52.38,1.57,1.57,0,0,1-.76.15,1.81,1.81,0,0,1-.93-.27,2,2,0,0,1-.76-.83,3.08,3.08,0,0,1-.29-1.44,3.57,3.57,0,0,1,.22-1.27,2.13,2.13,0,0,1,.7-1,1.84,1.84,0,0,1,1.17-.37,1.64,1.64,0,0,1,1.17.38V79.12h1.55ZM48.63,84.3V82.4l-.43-.24a.8.8,0,0,0-.36-.07.69.69,0,0,0-.6.35,1.58,1.58,0,0,0-.25,1,1.47,1.47,0,0,0,.26,1,.76.76,0,0,0,.59.3.9.9,0,0,0,.46-.1A1.79,1.79,0,0,0,48.63,84.3Z" transform="translate(0)" />
    </g>
    <g>
      <path d="M40.74,40.53l1.12-2a21.89,21.89,0,0,0-9.12-2.45v2.26A19.61,19.61,0,0,1,40.74,40.53Z" transform="translate(0)" />
      <path d="M48.32,47.38l2-1.12a22.13,22.13,0,0,0-6.67-6.68l-1.13,2A19.89,19.89,0,0,1,48.32,47.38Z" transform="translate(0)" />
      <path d="M21,41.53l-1.13-2a22.17,22.17,0,0,0-6.68,6.68l1.95,1.12A19.93,19.93,0,0,1,21,41.53Z" transform="translate(0)" />
      <path d="M51.46,57.11h2.26A21.89,21.89,0,0,0,51.27,48l-2,1.12A19.45,19.45,0,0,1,51.46,57.11Z" transform="translate(0)" />
      <path d="M30.74,38.39V36.13a21.89,21.89,0,0,0-9.12,2.45l1.13,2A19.6,19.6,0,0,1,30.74,38.39Z" transform="translate(0)" />
      <path d="M15.16,68.84,13.21,70a22.17,22.17,0,0,0,6.68,6.68l1.13-2A20,20,0,0,1,15.16,68.84Z" transform="translate(0)" />
      <path d="M42.47,74.69l1.13,2A22.13,22.13,0,0,0,50.27,70l-2-1.12A20,20,0,0,1,42.47,74.69Z" transform="translate(0)" />
      <path d="M51.46,59.11a19.41,19.41,0,0,1-2.14,8l2,1.13a21.89,21.89,0,0,0,2.45-9.12Z" transform="translate(0)" />
      <path d="M12,59.11H9.77a21.88,21.88,0,0,0,2.44,9.12l1.95-1.13A19.55,19.55,0,0,1,12,59.11Z" transform="translate(0)" />
      <path d="M14.16,49.11,12.21,48a21.88,21.88,0,0,0-2.44,9.12H12A19.6,19.6,0,0,1,14.16,49.11Z" transform="translate(0)" />
    </g>
    <g>
      <path d="M71.65,83.15H69.18v2.73h-1.8V79.12h4.27v1.35H69.18v1.31h2.47Z" transform="translate(0)" />
      <path d="M78.93,83.92a2.07,2.07,0,0,1-.29,1.1,2,2,0,0,1-.8.71,2.72,2.72,0,0,1-1.17.24l-.45,0a5.18,5.18,0,0,1-.72-.15,7.24,7.24,0,0,1-.92-.36V83.77a5.56,5.56,0,0,0,.88.53,2.15,2.15,0,0,0,.94.21.75.75,0,0,0,.59-.17.55.55,0,0,0,.14-.33.59.59,0,0,0-.23-.46,3.86,3.86,0,0,0-.68-.39,4.76,4.76,0,0,1-.86-.51,2.23,2.23,0,0,1-.6-.69,1.9,1.9,0,0,1-.23-1,2.06,2.06,0,0,1,.23-1,1.74,1.74,0,0,1,.72-.7A2.43,2.43,0,0,1,76.67,79a3.8,3.8,0,0,1,.92.11,4.25,4.25,0,0,1,.7.25,2.13,2.13,0,0,1,.38.22v1.58a5.24,5.24,0,0,0-.82-.53,2,2,0,0,0-1-.23.66.66,0,0,0-.48.14.49.49,0,0,0-.15.36.47.47,0,0,0,.15.35,2.46,2.46,0,0,0,.54.36,9.09,9.09,0,0,1,1.09.66,2.17,2.17,0,0,1,.65.67A1.8,1.8,0,0,1,78.93,83.92Z" transform="translate(0)" />
      <path d="M84.34,83.36a3.85,3.85,0,0,1-.12,1,2.52,2.52,0,0,1-.38.83,1.79,1.79,0,0,1-.66.59,1.88,1.88,0,0,1-.93.22,1.81,1.81,0,0,1-.68-.1,3,3,0,0,1-.49-.27v2.55H79.53V80.91h1.55v.45a2.12,2.12,0,0,1,.51-.38,1.63,1.63,0,0,1,.76-.15,1.91,1.91,0,0,1,.94.26,2,2,0,0,1,.76.84A3.06,3.06,0,0,1,84.34,83.36Zm-1.62,0a1.87,1.87,0,0,0-.13-.73.88.88,0,0,0-.32-.4.79.79,0,0,0-.41-.13,1,1,0,0,0-.45.1,1.35,1.35,0,0,0-.33.26v1.9l.17.1a.93.93,0,0,0,.19.11l.19.07a.91.91,0,0,0,.23,0,.71.71,0,0,0,.61-.35A1.66,1.66,0,0,0,82.72,83.4Z" transform="translate(0)" />
      <path d="M89.28,83.82H86.2a1.28,1.28,0,0,0,.44.75,1.24,1.24,0,0,0,.8.28,3.78,3.78,0,0,0,1.73-.49v1.08a4.19,4.19,0,0,1-.82.37,4,4,0,0,1-1.23.16,2.62,2.62,0,0,1-1.38-.34,2.18,2.18,0,0,1-.85-.93,3.25,3.25,0,0,1,0-2.64,2.11,2.11,0,0,1,.85-.9,2.71,2.71,0,0,1,1.38-.33,2.16,2.16,0,0,1,1,.26,2,2,0,0,1,.81.85,3.28,3.28,0,0,1,.32,1.53ZM87.83,83a1.27,1.27,0,0,0-.21-.76.7.7,0,0,0-.6-.29.75.75,0,0,0-.62.3,1.13,1.13,0,0,0-.24.75Z" transform="translate(0)" />
      <path d="M94.18,83.82H91.1a1.23,1.23,0,0,0,.44.75,1.22,1.22,0,0,0,.8.28,3.74,3.74,0,0,0,1.72-.49v1.08a3.94,3.94,0,0,1-.82.37A3.86,3.86,0,0,1,92,86a2.56,2.56,0,0,1-1.37-.34,2.12,2.12,0,0,1-.85-.93,3.25,3.25,0,0,1,0-2.64,2,2,0,0,1,.85-.9A2.65,2.65,0,0,1,92,80.83a2.1,2.1,0,0,1,1,.26,2,2,0,0,1,.82.85,3.28,3.28,0,0,1,.32,1.53ZM92.72,83a1.34,1.34,0,0,0-.2-.76.7.7,0,0,0-.6-.29.77.77,0,0,0-.63.3,1.13,1.13,0,0,0-.24.75Z" transform="translate(0)" />
      <path d="M99.21,85.88H97.66v-.44a2.39,2.39,0,0,1-.52.38,1.56,1.56,0,0,1-.75.15,1.85,1.85,0,0,1-.94-.27,2,2,0,0,1-.75-.83,3.07,3.07,0,0,1-.3-1.44,3.57,3.57,0,0,1,.22-1.27,2.2,2.2,0,0,1,.7-1,1.84,1.84,0,0,1,1.17-.37,2,2,0,0,1,.7.1,1.83,1.83,0,0,1,.47.28V79.12h1.55ZM97.66,84.3V82.4l-.42-.24a.8.8,0,0,0-.36-.07.71.71,0,0,0-.61.35,1.65,1.65,0,0,0-.24,1,1.47,1.47,0,0,0,.25,1,.77.77,0,0,0,.6.3.83.83,0,0,0,.45-.1A1.31,1.31,0,0,0,97.66,84.3Z" transform="translate(0)" />
    </g>
    <path d="M92.27,40.53l1.13-2a21.89,21.89,0,0,0-9.12-2.45v2.26A19.56,19.56,0,0,1,92.27,40.53Z" transform="translate(0)" />
    <path d="M99.86,47.38l2-1.12a22.17,22.17,0,0,0-6.68-6.68l-1.13,2A19.93,19.93,0,0,1,99.86,47.38Z" transform="translate(0)" />
    <path d="M72.55,41.53l-1.13-2a22.13,22.13,0,0,0-6.67,6.68l2,1.12A19.89,19.89,0,0,1,72.55,41.53Z" transform="translate(0)" />
    <path d="M82.28,38.39V36.13a21.89,21.89,0,0,0-9.12,2.45l1.12,2A19.61,19.61,0,0,1,82.28,38.39Z" transform="translate(0)" />
    <path d="M66.7,68.84l-2,1.12a22.13,22.13,0,0,0,6.67,6.68l1.13-2A20,20,0,0,1,66.7,68.84Z" transform="translate(0)" />
    <path d="M94,74.69l1.13,2A22.17,22.17,0,0,0,101.81,70l-2-1.12A20,20,0,0,1,94,74.69Z" transform="translate(0)" />
    <path d="M63.56,59.11H61.3a21.89,21.89,0,0,0,2.45,9.12l2-1.13A19.41,19.41,0,0,1,63.56,59.11Z" transform="translate(0)" />
    <path d="M65.7,49.11l-2-1.12a21.89,21.89,0,0,0-2.45,9.12h2.26A19.45,19.45,0,0,1,65.7,49.11Z" transform="translate(0)" />
    <g>
      <path d="M22.63,140.43l-2.58,6.86H19l-1.54-4-1.59,4H14.83l-2.52-6.86h1.86l1.24,3.75,1.41-3.75h1.29l1.39,3.75,1.29-3.75Z" transform="translate(0)" />
      <path d="M31.49,143.94a3.26,3.26,0,0,1-1.12,2.69,2.6,2.6,0,0,1-1.79.57H25.37v-6.77h2.47a5.39,5.39,0,0,1,1,.07,3.51,3.51,0,0,1,.71.18,2.72,2.72,0,0,1,.54.27,2.67,2.67,0,0,1,.4.32,3,3,0,0,1,.54.67,3.6,3.6,0,0,1,.36.89A4.32,4.32,0,0,1,31.49,143.94Zm-1.83-.09a2.58,2.58,0,0,0-.27-1.29,1.46,1.46,0,0,0-.67-.62,2.17,2.17,0,0,0-.79-.15h-.77v4h.77a2,2,0,0,0,1.22-.38A1.9,1.9,0,0,0,29.66,143.85Z" transform="translate(0)" />
      <path d="M36.48,145.14H33.4a1.21,1.21,0,0,0,.44.74,1.23,1.23,0,0,0,.8.29,3.8,3.8,0,0,0,1.73-.5v1.09a4.68,4.68,0,0,1-.83.36,3.83,3.83,0,0,1-1.23.17,2.58,2.58,0,0,1-1.37-.35,2.1,2.1,0,0,1-.85-.92,3,3,0,0,1-.28-1.33,2.9,2.9,0,0,1,.28-1.31,2.08,2.08,0,0,1,.85-.91,2.67,2.67,0,0,1,1.37-.33,2.22,2.22,0,0,1,1,.26,2,2,0,0,1,.82.85,3.29,3.29,0,0,1,.32,1.54ZM35,144.27a1.28,1.28,0,0,0-.21-.77.7.7,0,0,0-.6-.28.79.79,0,0,0-.63.29,1.15,1.15,0,0,0-.24.76Z" transform="translate(0)" />
      <path d="M41.69,144.68a3.83,3.83,0,0,1-.12,1,2.92,2.92,0,0,1-.38.84,1.88,1.88,0,0,1-.66.59,2,2,0,0,1-.94.22,1.73,1.73,0,0,1-.67-.11,3.06,3.06,0,0,1-.5-.27v2.55H36.88v-7.23h1.54v.45a2.44,2.44,0,0,1,.52-.39,1.63,1.63,0,0,1,.76-.15,1.85,1.85,0,0,1,.94.27,2,2,0,0,1,.75.84A3,3,0,0,1,41.69,144.68Zm-1.63,0a1.85,1.85,0,0,0-.12-.73,1,1,0,0,0-.32-.41.81.81,0,0,0-.41-.12.83.83,0,0,0-.45.1,1.56,1.56,0,0,0-.34.25v1.9l.18.11.18.1.2.08a.85.85,0,0,0,.23,0,.73.73,0,0,0,.61-.36A1.65,1.65,0,0,0,40.06,144.72Z" transform="translate(0)" />
      <path d="M45.59,146.91a3.17,3.17,0,0,1-.66.25,2.63,2.63,0,0,1-.81.13c-1.12,0-1.67-.62-1.67-1.86v-2h-.7v-.31l2.07-2.4H44v1.49h1.48v1.22H44V145a2.64,2.64,0,0,0,0,.45.42.42,0,0,0,.17.28.62.62,0,0,0,.42.12,2.12,2.12,0,0,0,1-.35Z" transform="translate(0)" />
      <path d="M50.59,147.2H49v-2.58a.13.13,0,0,1,0-.06v-.11a1.59,1.59,0,0,0-.14-.66.49.49,0,0,0-.5-.29.7.7,0,0,0-.52.22,2.56,2.56,0,0,0-.42.56v2.92H45.92v-6.77h1.55v2.51a2.1,2.1,0,0,1,.75-.63,2,2,0,0,1,.8-.17c1,0,1.57.67,1.57,2Z" transform="translate(0)" />
    </g>
    <path d="M40.74,101.93l1.12-2a21.73,21.73,0,0,0-9.12-2.44v2.25A19.77,19.77,0,0,1,40.74,101.93Z" transform="translate(0)" />
    <path d="M48.32,108.78l2-1.12A22.13,22.13,0,0,0,43.6,101l-1.13,2A19.89,19.89,0,0,1,48.32,108.78Z" transform="translate(0)" />
    <path d="M21,102.93l-1.13-2a22.17,22.17,0,0,0-6.68,6.68l1.95,1.12A19.93,19.93,0,0,1,21,102.93Z" transform="translate(0)" />
    <path d="M51.46,118.51h2.26a21.89,21.89,0,0,0-2.45-9.12l-2,1.12A19.49,19.49,0,0,1,51.46,118.51Z" transform="translate(0)" />
    <path d="M30.74,99.79V97.54A21.73,21.73,0,0,0,21.62,100l1.13,2A19.76,19.76,0,0,1,30.74,99.79Z" transform="translate(0)" />
    <path d="M15.16,130.24l-1.95,1.12A22.17,22.17,0,0,0,19.89,138L21,136.09A19.93,19.93,0,0,1,15.16,130.24Z" transform="translate(0)" />
    <path d="M42.47,136.09,43.6,138a22.13,22.13,0,0,0,6.67-6.68l-2-1.12A19.89,19.89,0,0,1,42.47,136.09Z" transform="translate(0)" />
    <path d="M51.46,120.51a19.49,19.49,0,0,1-2.14,8l2,1.12a21.89,21.89,0,0,0,2.45-9.12Z" transform="translate(0)" />
    <path d="M12,120.51H9.77a21.88,21.88,0,0,0,2.44,9.12l1.95-1.12A19.64,19.64,0,0,1,12,120.51Z" transform="translate(0)" />
    <path d="M14.16,110.51l-1.95-1.12a21.88,21.88,0,0,0-2.44,9.12H12A19.64,19.64,0,0,1,14.16,110.51Z" transform="translate(0)" />
    <g>
      <path d="M71.29,144.46H68.81v2.74H67v-6.77h4.27v1.36H68.81v1.31h2.48Z" transform="translate(0)" />
      <path d="M80.52,143.94a3.62,3.62,0,0,1-.33,1.67,3.44,3.44,0,0,1-.78,1,2.62,2.62,0,0,1-1.79.57H74.4v-6.77h2.48a5.19,5.19,0,0,1,1,.07,3.61,3.61,0,0,1,.72.18,2.72,2.72,0,0,1,.54.27,3.3,3.3,0,0,1,.4.32,3,3,0,0,1,.53.67,3.26,3.26,0,0,1,.37.89A4.33,4.33,0,0,1,80.52,143.94Zm-1.82-.09a2.47,2.47,0,0,0-.28-1.29,1.41,1.41,0,0,0-.67-.62,2.13,2.13,0,0,0-.79-.15H76.2v4H77a2,2,0,0,0,1.22-.38A1.87,1.87,0,0,0,78.7,143.85Z" transform="translate(0)" />
      <path d="M85.51,145.14H82.43a1.27,1.27,0,0,0,1.24,1,3.8,3.8,0,0,0,1.73-.5v1.09a4.9,4.9,0,0,1-.82.36,3.83,3.83,0,0,1-1.23.17,2.62,2.62,0,0,1-1.38-.35,2.1,2.1,0,0,1-.85-.92,3.16,3.16,0,0,1-.28-1.33,3,3,0,0,1,.28-1.31,2.08,2.08,0,0,1,.85-.91,2.71,2.71,0,0,1,1.38-.33,2.28,2.28,0,0,1,1,.26,2,2,0,0,1,.81.85,3.17,3.17,0,0,1,.32,1.54Zm-1.45-.87a1.28,1.28,0,0,0-.21-.77.7.7,0,0,0-.6-.28.77.77,0,0,0-.62.29,1.15,1.15,0,0,0-.24.76Z" transform="translate(0)" />
      <path d="M90.72,144.68a3.83,3.83,0,0,1-.12,1,2.67,2.67,0,0,1-.38.84,1.88,1.88,0,0,1-.66.59,2,2,0,0,1-.93.22,1.78,1.78,0,0,1-.68-.11,3,3,0,0,1-.49-.27v2.55H85.91v-7.23h1.55v.45a2.38,2.38,0,0,1,.51-.39,1.65,1.65,0,0,1,.77-.15,1.81,1.81,0,0,1,.93.27,2,2,0,0,1,.76.84A3,3,0,0,1,90.72,144.68Zm-1.62,0A1.84,1.84,0,0,0,89,144a.91.91,0,0,0-.32-.41.78.78,0,0,0-.41-.12.88.88,0,0,0-.45.1,1.31,1.31,0,0,0-.33.25v1.9l.17.11.19.1.2.08a.78.78,0,0,0,.22,0,.71.71,0,0,0,.61-.36A1.65,1.65,0,0,0,89.1,144.72Z" transform="translate(0)" />
      <path d="M94.63,146.91a3.07,3.07,0,0,1-.67.25,2.63,2.63,0,0,1-.81.13c-1.11,0-1.67-.62-1.67-1.86v-2h-.7v-.31l2.08-2.4H93v1.49h1.48v1.22H93V145a2.64,2.64,0,0,0,0,.45.46.46,0,0,0,.17.28.67.67,0,0,0,.43.12,2.16,2.16,0,0,0,1-.35Z" transform="translate(0)" />
      <path d="M99.62,147.2H98.08v-2.75a1.59,1.59,0,0,0-.13-.66.51.51,0,0,0-.51-.29.7.7,0,0,0-.51.22,2.93,2.93,0,0,0-.43.56v2.92H95v-6.77H96.5v2.51a2.21,2.21,0,0,1,.76-.63,1.93,1.93,0,0,1,.79-.17c1,0,1.57.67,1.57,2Z" transform="translate(0)" />
    </g>
    <path d="M92.27,101.93l1.13-2a21.73,21.73,0,0,0-9.12-2.44v2.25A19.72,19.72,0,0,1,92.27,101.93Z" transform="translate(0)" />
    <path d="M99.86,108.78l2-1.12A22.17,22.17,0,0,0,95.13,101l-1.13,2A19.93,19.93,0,0,1,99.86,108.78Z" transform="translate(0)" />
    <path d="M72.55,102.93l-1.13-2a22.13,22.13,0,0,0-6.67,6.68l2,1.12A19.89,19.89,0,0,1,72.55,102.93Z" transform="translate(0)" />
    <path d="M103,118.51h2.26a21.88,21.88,0,0,0-2.44-9.12l-2,1.12A19.64,19.64,0,0,1,103,118.51Z" transform="translate(0)" />
    <path d="M82.28,99.79V97.54A21.73,21.73,0,0,0,73.16,100l1.12,2A19.77,19.77,0,0,1,82.28,99.79Z" transform="translate(0)" />
    <path d="M66.7,130.24l-2,1.12A22.13,22.13,0,0,0,71.42,138l1.13-1.95A19.89,19.89,0,0,1,66.7,130.24Z" transform="translate(0)" />
    <path d="M94,136.09,95.13,138a22.17,22.17,0,0,0,6.68-6.68l-2-1.12A19.93,19.93,0,0,1,94,136.09Z" transform="translate(0)" />
    <path d="M103,120.51a19.64,19.64,0,0,1-2.13,8l2,1.12a21.88,21.88,0,0,0,2.44-9.12Z" transform="translate(0)" />
    <path d="M63.56,120.51H61.3a21.89,21.89,0,0,0,2.45,9.12l2-1.12A19.49,19.49,0,0,1,63.56,120.51Z" transform="translate(0)" />
    <path d="M65.7,110.51l-2-1.12a21.89,21.89,0,0,0-2.45,9.12h2.26A19.49,19.49,0,0,1,65.7,110.51Z" transform="translate(0)" />
    <g>
      <path d="M63.34,8.16l-5.53,7v-6A1.29,1.29,0,0,0,57.17,8,.89.89,0,0,0,56,8.28l-7.28,9.25a1.49,1.49,0,0,0,0,1.79.91.91,0,0,0,1.46,0l5.5-7v6a1.29,1.29,0,0,0,.64,1.17.91.91,0,0,0,1.14-.3l5.53-7v6.16a1.05,1.05,0,1,0,2.06,0V9a1.29,1.29,0,0,0-.65-1.18A.91.91,0,0,0,63.34,8.16Z" transform="translate(0)" style="stroke: #000;stroke-width: 0.6000000000000001px" />
      <path d="M48.76,8.09,44,14.21A1.47,1.47,0,0,0,44,16a.9.9,0,0,0,1.46,0l3-3.87v6.31a1.05,1.05,0,1,0,2.06,0V9a1.29,1.29,0,0,0-.65-1.17A.91.91,0,0,0,48.76,8.09Z" transform="translate(0)" style="stroke: #000;stroke-width: 0.6000000000000001px" />
      <path d="M71.71,12.61a1,1,0,0,0-.95-.78h-2.1l1.53-1.95s.8-1.17.1-1.82a1.27,1.27,0,0,0-1.58.06l-3.23,4.1a1.47,1.47,0,0,0-.2,1.38,1.05,1.05,0,0,0,1,.77h2.1l-2.49,3.17s-1,1.13-.27,1.89,1.75-.14,1.75-.14L71.5,14A1.48,1.48,0,0,0,71.71,12.61Z" transform="translate(0)" style="stroke: #000;stroke-width: 0.6000000000000001px" />
    </g>
  </g>
  <g /></svg>