<?xml version="1.0" encoding="UTF-8" standalone="no"?>
<svg
   width="40.64mm"
   height="130.55mm"
   viewBox="0 0 115.2 370.07"
   version="1.1"
   id="svg66"
   sodipodi:docname="Djembe_artwork.svg"
   inkscape:version="1.4.2 (ebf0e940, 2025-05-08)"
   xmlns:inkscape="http://www.inkscape.org/namespaces/inkscape"
   xmlns:sodipodi="http://sodipodi.sourceforge.net/DTD/sodipodi-0.dtd"
   xmlns="http://www.w3.org/2000/svg"
   xmlns:svg="http://www.w3.org/2000/svg">
  <defs
     id="defs66" />
  <sodipodi:namedview
     id="namedview66"
     pagecolor="#ffffff"
     bordercolor="#000000"
     borderopacity="0.25"
     inkscape:showpageshadow="2"
     inkscape:pageopacity="0.0"
     inkscape:pagecheckerboard="0"
     inkscape:deskcolor="#d1d1d1"
     inkscape:document-units="mm"
     inkscape:zoom="0.95154618"
     inkscape:cx="250.64469"
     inkscape:cy="312.12358"
     inkscape:window-width="1200"
     inkscape:window-height="979"
     inkscape:window-x="528"
     inkscape:window-y="38"
     inkscape:window-maximized="0"
     inkscape:current-layer="svg66" />
  <g
     id="faceplate">
    <g
       id="g1">
      <path
         id="rect1"
         style="fill:#ededed;stroke-width:0px"
         d="m 0.12,0.13 h 114.95 v 364 H 0.12 Z" />
      <path
         d="M114.95.25v363.75H.25V.25h114.7M115.2,0H0v364.25h115.2V0h0Z"
         style="fill: #9d9d9e; stroke-width: 0px;"
         id="path1" />
    </g>
    <g
       id="g5">
      <path
         d="M100.35,316.77v-23.22h-21.54c-7.49,0-13.57,7.04-13.57,15.71v32.93h15.07s0,0,0,0h14.39c3.12,0,5.64-2.55,5.64-5.67v-19.84.08Z"
         style="fill: #000; stroke-width: 0px;"
         id="path2" />
      <g
         id="g4">
        <path
           d="M28.23,341.72h35.2s23.15,0,23.15,0c7.35,0,13.31-7.02,13.31-15.67v-107.66l-.06-6.64c-.29-8.35-6.12-15.02-13.28-15.02H28.2c-7.17,0-12.99,6.67-13.28,15.02l-.06,6.64v46.5l.07,61.17"
           style="fill: none; stroke: #000; stroke-miterlimit: 10;"
           id="path3" />
        <path
           d="M14.92,325.09v10.96c0,3.12,2.55,5.67,5.67,5.67h12.93"
           style="fill: none; stroke: #231f20; stroke-miterlimit: 10;"
           id="path4" />
      </g>
    </g>
    <g
       id="g7">
      <path
         d="M49.4,18.19c-.37,0-.71-.17-.97-.47-.51-.6-.52-1.54-.04-2.16l6.97-8.88c.38-.48,1.05-.65,1.57-.39.5.25.79.82.79,1.45v4.77l4.64-5.85c.38-.48,1.01-.64,1.53-.38.5.25.83.81.83,1.44v8.82c0,.86-.61,1.57-1.36,1.57s-1.36-.7-1.36-1.57v-4.79l-4.64,5.85c-.38.48-1.01.64-1.54.38-.5-.24-.83-.81-.83-1.44v-4.67l-4.61,5.8c-.26.32-.62.51-1,.51h0Z"
         style="fill: #2cabe1; stroke-width: 0px;"
         id="path5" />
      <path
         d="M49.4,18.19c-.75,0-1.35-.7-1.35-1.57v-4.93l-2.26,2.84c-.5.63-1.44.65-1.97.04-.51-.6-.52-1.53-.03-2.15l4.61-5.76c.26-.32.63-.5,1-.5.18,0,.37.04.54.12.5.25.82.81.82,1.44v8.89c0,.86-.61,1.57-1.36,1.57h0Z"
         style="fill: #ea2228; stroke-width: 0px;"
         id="path6" />
      <path
         d="M66,18.21h0c-.35,0-.68-.15-.94-.42-.76-.78-.14-1.84.29-2.3l1.95-2.36-1.26-.02c-.56-.01-1.04-.4-1.24-1-.19-.56-.07-1.21.29-1.64l3.16-3.83c.23-.28.55-.48,1.13-.47.33,0,.67.17.92.4.71.66.29,1.7-.07,2.2l-1.04,1.26,1.26.02c.56.01,1.04.4,1.24,1,.19.56.07,1.21-.29,1.64l-4.1,4.97c-.35.35-.65.55-1.3.54h0Z"
         style="fill: #00a650; stroke-width: 0px;"
         id="path7" />
    </g>
    <g
       id="pips">
      <path
         d="M102.87,56.98h2.26c-.15-3.28-1.01-6.37-2.44-9.12l-1.95,1.13c1.24,2.42,1.99,5.13,2.14,8Z"
         style="fill: #000; stroke-width: 0px;"
         id="path8" />
      <path
         d="M102.87,58.98c-.14,2.87-.89,5.57-2.14,8l1.95,1.13c1.43-2.75,2.3-5.84,2.44-9.12h-2.26Z"
         style="fill: #000; stroke-width: 0px;"
         id="path9" />
      <g
         id="g19">
        <path
           d="M40.61,40.4l1.13-1.95c-2.75-1.43-5.84-2.3-9.12-2.44v2.26c2.87.14,5.57.89,7.99,2.14Z"
           style="fill: #000; stroke-width: 0px;"
           id="path10" />
        <path
           d="M48.2,47.26l1.95-1.13c-1.72-2.68-4-4.96-6.68-6.68l-1.13,1.95c2.34,1.52,4.33,3.51,5.85,5.85Z"
           style="fill: #000; stroke-width: 0px;"
           id="path11" />
        <path
           d="M20.89,41.4l-1.13-1.95c-2.68,1.72-4.96,4-6.68,6.68l1.95,1.13c1.52-2.34,3.51-4.33,5.85-5.85Z"
           style="fill: #000; stroke-width: 0px;"
           id="path12" />
        <path
           d="M51.34,56.98h2.26c-.15-3.28-1.01-6.37-2.44-9.12l-1.95,1.13c1.24,2.42,1.99,5.13,2.14,8Z"
           style="fill: #000; stroke-width: 0px;"
           id="path13" />
        <path
           d="M30.62,38.27v-2.26c-3.28.15-6.37,1.01-9.12,2.44l1.13,1.95c2.42-1.24,5.13-1.99,8-2.14Z"
           style="fill: #000; stroke-width: 0px;"
           id="path14" />
        <path
           d="M15.04,68.71l-1.95,1.13c1.72,2.68,4,4.96,6.68,6.68l1.13-1.95c-2.34-1.52-4.33-3.51-5.85-5.85Z"
           style="fill: #000; stroke-width: 0px;"
           id="path15" />
        <path
           d="M42.35,74.56l1.13,1.95c2.68-1.72,4.96-4,6.68-6.68l-1.95-1.13c-1.52,2.34-3.51,4.33-5.85,5.85Z"
           style="fill: #000; stroke-width: 0px;"
           id="path16" />
        <path
           d="M51.34,58.98c-.14,2.87-.89,5.57-2.14,8l1.95,1.13c1.43-2.75,2.3-5.84,2.44-9.12h-2.26Z"
           style="fill: #000; stroke-width: 0px;"
           id="path17" />
        <path
           d="M11.9,58.98h-2.26c.15,3.28,1.01,6.37,2.44,9.12l1.95-1.13c-1.24-2.42-1.99-5.13-2.14-8Z"
           style="fill: #000; stroke-width: 0px;"
           id="path18" />
        <path
           d="M14.04,48.99l-1.95-1.13c-1.43,2.75-2.3,5.84-2.44,9.12h2.26c.14-2.87.89-5.57,2.14-8Z"
           style="fill: #000; stroke-width: 0px;"
           id="path19" />
      </g>
      <path
         d="M92.15,40.4l1.13-1.95c-2.75-1.43-5.84-2.3-9.12-2.44v2.26c2.87.14,5.57.89,7.99,2.14Z"
         style="fill: #000; stroke-width: 0px;"
         id="path20" />
      <path
         d="M99.73,47.26l1.95-1.13c-1.72-2.68-4-4.96-6.68-6.68l-1.13,1.95c2.34,1.52,4.33,3.51,5.85,5.85Z"
         style="fill: #000; stroke-width: 0px;"
         id="path21" />
      <path
         d="M72.42,41.4l-1.13-1.95c-2.68,1.72-4.96,4-6.68,6.68l1.95,1.13c1.52-2.34,3.51-4.33,5.85-5.85Z"
         style="fill: #000; stroke-width: 0px;"
         id="path22" />
      <path
         d="M82.15,38.27v-2.26c-3.28.15-6.37,1.01-9.12,2.44l1.13,1.95c2.42-1.24,5.13-1.99,8-2.14Z"
         style="fill: #000; stroke-width: 0px;"
         id="path23" />
      <path
         d="M66.57,68.71l-1.95,1.13c1.72,2.68,4,4.96,6.68,6.68l1.13-1.95c-2.34-1.52-4.33-3.51-5.85-5.85Z"
         style="fill: #000; stroke-width: 0px;"
         id="path24" />
      <path
         d="M93.88,74.56l1.13,1.95c2.68-1.72,4.96-4,6.68-6.68l-1.95-1.13c-1.52,2.34-3.51,4.33-5.85,5.85Z"
         style="fill: #000; stroke-width: 0px;"
         id="path25" />
      <path
         d="M63.44,58.98h-2.26c.15,3.28,1.01,6.37,2.44,9.12l1.95-1.13c-1.24-2.42-1.99-5.13-2.14-8Z"
         style="fill: #000; stroke-width: 0px;"
         id="path26" />
      <path
         d="M65.57,48.99l-1.95-1.13c-1.43,2.75-2.3,5.84-2.44,9.12h2.26c.14-2.87.89-5.57,2.14-8Z"
         style="fill: #000; stroke-width: 0px;"
         id="path27" />
      <path
         d="M40.61,101.8l1.13-1.95c-2.75-1.43-5.84-2.3-9.12-2.44v2.26c2.87.14,5.57.89,7.99,2.14Z"
         style="fill: #000; stroke-width: 0px;"
         id="path28" />
      <path
         d="M48.2,108.66l1.95-1.13c-1.72-2.68-4-4.96-6.68-6.68l-1.13,1.95c2.34,1.52,4.33,3.51,5.85,5.85Z"
         style="fill: #000; stroke-width: 0px;"
         id="path29" />
      <path
         d="M20.89,102.81l-1.13-1.95c-2.68,1.72-4.96,4-6.68,6.68l1.95,1.13c1.52-2.34,3.51-4.33,5.85-5.85Z"
         style="fill: #000; stroke-width: 0px;"
         id="path30" />
      <path
         d="M51.34,118.39h2.26c-.15-3.28-1.01-6.37-2.44-9.12l-1.95,1.13c1.24,2.42,1.99,5.13,2.14,8Z"
         style="fill: #000; stroke-width: 0px;"
         id="path31" />
      <path
         d="M30.62,99.67v-2.26c-3.28.15-6.37,1.01-9.12,2.44l1.13,1.95c2.42-1.24,5.13-1.99,8-2.14Z"
         style="fill: #000; stroke-width: 0px;"
         id="path32" />
      <path
         d="M15.04,130.11l-1.95,1.13c1.72,2.68,4,4.96,6.68,6.68l1.13-1.95c-2.34-1.52-4.33-3.51-5.85-5.85Z"
         style="fill: #000; stroke-width: 0px;"
         id="path33" />
      <path
         d="M42.35,135.97l1.13,1.95c2.68-1.72,4.96-4,6.68-6.68l-1.95-1.13c-1.52,2.34-3.51,4.33-5.85,5.85Z"
         style="fill: #000; stroke-width: 0px;"
         id="path34" />
      <path
         d="M51.34,120.39c-.14,2.87-.89,5.57-2.14,8l1.95,1.13c1.43-2.75,2.3-5.84,2.44-9.12h-2.26Z"
         style="fill: #000; stroke-width: 0px;"
         id="path35" />
      <path
         d="M11.9,120.39h-2.26c.15,3.28,1.01,6.37,2.44,9.12l1.95-1.13c-1.24-2.42-1.99-5.13-2.14-8Z"
         style="fill: #000; stroke-width: 0px;"
         id="path36" />
      <path
         d="M14.04,110.39l-1.95-1.13c-1.43,2.75-2.3,5.84-2.44,9.12h2.26c.14-2.87.89-5.57,2.14-8Z"
         style="fill: #000; stroke-width: 0px;"
         id="path37" />
      <path
         d="M92.15,101.8l1.13-1.95c-2.75-1.43-5.84-2.3-9.12-2.44v2.26c2.87.14,5.57.89,7.99,2.14Z"
         style="fill: #000; stroke-width: 0px;"
         id="path38" />
      <path
         d="M99.73,108.66l1.95-1.13c-1.72-2.68-4-4.96-6.68-6.68l-1.13,1.95c2.34,1.52,4.33,3.51,5.85,5.85Z"
         style="fill: #000; stroke-width: 0px;"
         id="path39" />
      <path
         d="M72.42,102.81l-1.13-1.95c-2.68,1.72-4.96,4-6.68,6.68l1.95,1.13c1.52-2.34,3.51-4.33,5.85-5.85Z"
         style="fill: #000; stroke-width: 0px;"
         id="path40" />
      <path
         d="M102.87,118.39h2.26c-.15-3.28-1.01-6.37-2.44-9.12l-1.95,1.13c1.24,2.42,1.99,5.13,2.14,8Z"
         style="fill: #000; stroke-width: 0px;"
         id="path41" />
      <path
         d="M82.15,99.67v-2.26c-3.28.15-6.37,1.01-9.12,2.44l1.13,1.95c2.42-1.24,5.13-1.99,8-2.14Z"
         style="fill: #000; stroke-width: 0px;"
         id="path42" />
      <path
         d="M66.57,130.11l-1.95,1.13c1.72,2.68,4,4.96,6.68,6.68l1.13-1.95c-2.34-1.52-4.33-3.51-5.85-5.85Z"
         style="fill: #000; stroke-width: 0px;"
         id="path43" />
      <path
         d="M93.88,135.97l1.13,1.95c2.68-1.72,4.96-4,6.68-6.68l-1.95-1.13c-1.52,2.34-3.51,4.33-5.85,5.85Z"
         style="fill: #000; stroke-width: 0px;"
         id="path44" />
      <path
         d="M102.87,120.39c-.14,2.87-.89,5.57-2.14,8l1.95,1.13c1.43-2.75,2.3-5.84,2.44-9.12h-2.26Z"
         style="fill: #000; stroke-width: 0px;"
         id="path45" />
      <path
         d="M63.44,120.39h-2.26c.15,3.28,1.01,6.37,2.44,9.12l1.95-1.13c-1.24-2.42-1.99-5.13-2.14-8Z"
         style="fill: #000; stroke-width: 0px;"
         id="path46" />
      <path
         d="M65.57,110.39l-1.95-1.13c-1.43,2.75-2.3,5.84-2.44,9.12h2.26c.14-2.87.89-5.57,2.14-8Z"
         style="fill: #000; stroke-width: 0px;"
         id="path47" />
    </g>
    <g
       id="text">
      <path
         d="m 8.5883789,-3.5878906 q 0,1.1440429 -0.4189453,1.836914 Q 7.7558594,-1.0581055 7.1918945,-0.62841797 6.3916016,0 4.9521484,0 H 0.93457031 V -7.4443359 H 4.0283203 q 0.6982422,0 1.1923828,0.075195 0.4995117,0.069824 0.8969727,0.2041015 0.3974609,0.1289063 0.6767578,0.2954102 0.2792969,0.1611328 0.4995117,0.3491211 0.3813477,0.3115234 0.6660156,0.7358398 0.2900391,0.4243164 0.456543,0.9829102 0.171875,0.5585937 0.171875,1.2138672 z m -2.2827148,-0.09668 q 0,-0.9077149 -0.3491211,-1.4125977 Q 5.612793,-5.6074219 5.1240234,-5.7792969 4.640625,-5.9511719 4.1357422,-5.9511719 H 3.1796875 v 4.409668 h 0.9560547 q 0.8808594,0 1.5253906,-0.4189453 0.6445313,-0.4189453 0.6445313,-1.7241211 z m 6.1445309,2.76074217 q 0,0.99365235 -0.161132,1.68652344 -0.155762,0.69287109 -0.708985,1.15478519 -0.553223,0.4672851 -1.6489257,0.4672851 -0.402832,0 -0.805664,-0.075195 L 8.7871094,0.515625 q 0.4243164,-0.0107422 0.6928711,-0.0483398 0.2685547,-0.0375977 0.4350586,-0.171875 0.1665039,-0.12890625 0.2363279,-0.40283203 0.05371,-0.21484376 0.05371,-1.22998043 v -6.1069336 h 2.245117 z M 19.942871,0 h -5.612793 v -7.4443359 h 5.521484 v 1.493164 h -3.276367 v 1.3642578 h 3.125977 v 1.4985352 h -3.125977 v 1.5898437 h 3.367676 z M 30.10498,0 h -2.245117 v -4.3129883 l -2.024902,2.4975586 H 25.657715 L 23.627441,-4.3129883 V 0 h -2.180664 v -7.4443359 h 2.035645 l 2.288086,2.7929687 2.298828,-2.7929687 h 2.035644 z m 8.679688,-2.1108398 q 0,0.9614257 -0.660645,1.53613277 Q 37.46875,0 36.287109,0 h -4.302246 v -7.4443359 h 3.598633 q 0.698242,0 1.213867,0.1342773 0.520996,0.1342774 0.837891,0.3706055 0.316894,0.230957 0.472656,0.5478515 0.155762,0.3168946 0.155762,0.6928711 0,0.4082032 -0.161133,0.7573243 -0.161133,0.34375 -0.402832,0.5693359 -0.236328,0.2202148 -0.478027,0.3115234 0.762695,0.3007813 1.160156,0.7626953 0.402832,0.456543 0.402832,1.1870118 z m -2.621094,-3.1904297 q 0,-0.5371094 -0.354492,-0.7143555 -0.354492,-0.1772461 -1.106445,-0.1772461 H 34.22998 v 1.7832031 h 0.483399 q 0.768066,0 1.106445,-0.1772461 0.34375,-0.1772461 0.34375,-0.7143554 z m 0.365235,3.0991211 q 0,-0.9560547 -1.385743,-0.9560547 H 34.22998 v 1.9067383 h 0.913086 q 1.385743,0 1.385743,-0.9506836 z M 45.836914,0 h -5.612793 v -7.4443359 h 5.521484 v 1.493164 h -3.276367 v 1.3642578 h 3.125977 v 1.4985352 h -3.125977 v 1.5898437 h 3.367676 z"
         id="text47"
         style="font-weight:700;font-size:11px;font-family:GillSans-Bold, 'Gill Sans'"
         transform="translate(38.57 357.35) scale(.82 1)"
         aria-label="DJEMBE" />
      <path
         d="m 4.4648437,-1.5742187 q 0,0.5078125 -0.2617187,0.8789062 Q 3.9453125,-0.32421875 3.4804688,-0.125 3.015625,0.0703125 2.4140625,0.0703125 2.2460938,0.0703125 2,0.046875 1.7578125,0.02734375 1.3515625,-0.0703125 0.94921875,-0.16796875 0.51171875,-0.359375 V -1.6875 q 0.41015625,0.2539063 0.80468745,0.421875 0.3984375,0.1679688 0.8515626,0.1679688 0.4179687,0 0.5390625,-0.1367188 0.125,-0.140625 0.125,-0.2617187 0,-0.21875 -0.2109375,-0.3671875 Q 2.4101563,-2.015625 2.0078125,-2.1757813 1.5625,-2.3632813 1.2265625,-2.5820313 0.890625,-2.8046875 0.67578125,-3.1367188 0.46484375,-3.46875 0.46484375,-3.921875 q 0,-0.4375 0.21484375,-0.7890625 0.21484375,-0.3554687 0.65625,-0.5664062 0.4414062,-0.2109375 1.078125,-0.2109375 0.453125,0 0.8359375,0.089844 0.3867188,0.085937 0.6367188,0.1953125 0.2499999,0.109375 0.3437499,0.171875 v 1.2695312 Q 3.8984375,-4 3.4882813,-4.1875 3.0820313,-4.375 2.6171875,-4.375 2.3125,-4.375 2.1757813,-4.2578125 2.0390625,-4.140625 2.0390625,-3.96875 q 0,0.1601562 0.1367188,0.2773437 0.1367187,0.1171875 0.4882812,0.2851563 0.625,0.2929687 1,0.5273437 0.375,0.234375 0.5859375,0.5429688 0.2148437,0.3046875 0.2148437,0.7617188 z M 9.2698436,0 h -1.40625 v -2.0625 q 0,-0.023437 0,-0.042969 0.00391,-0.023437 0.00391,-0.09375 0,-0.2851562 -0.1210937,-0.5234375 -0.1210938,-0.2382812 -0.4609375,-0.2382812 -0.265625,0 -0.46875,0.1796875 -0.203125,0.1757812 -0.3867188,0.4453125 V 0 h -1.40625 v -5.4140625 h 1.40625 V -3.40625 q 0.3476563,-0.3710938 0.6875,-0.5039063 0.3398438,-0.1367187 0.7226563,-0.1367187 1.4296875,0 1.4296875,1.6054687 z M 13.918593,-0.19921875 Q 13.61,-0.078125 13.348281,-0.00390625 13.086562,0.0703125 12.719375,0.0703125 q -0.347657,0 -0.484375,-0.12109375 -0.136719,-0.125 -0.195313,-0.30078125 -0.226562,0.18359375 -0.503906,0.3046875 -0.277344,0.1171875 -0.726563,0.1171875 -0.433593,0 -0.703125,-0.1484375 Q 9.8404684,-0.23046875 9.7310934,-0.45703125 9.6256247,-0.6875 9.6256247,-0.9296875 q 0,-0.3671875 0.1835937,-0.6054687 0.1875,-0.2421875 0.4999996,-0.3945313 0.3125,-0.1523438 0.828125,-0.3164063 0.292969,-0.09375 0.441407,-0.140625 0.152343,-0.050781 0.226562,-0.078125 0.07422,-0.027344 0.15625,-0.070312 0,-0.2890625 -0.117187,-0.453125 -0.117188,-0.1640625 -0.507813,-0.1640625 -0.460937,0 -0.855469,0.203125 -0.394531,0.203125 -0.7226558,0.5234375 v -1.078125 q 0.2617188,-0.1875 0.5664058,-0.3046875 0.304688,-0.1210937 0.636719,-0.1796875 0.332031,-0.058594 0.671875,-0.058594 0.863281,0 1.296875,0.3359375 0.4375,0.3320312 0.4375,0.9179687 v 1.5351563 q 0,0.21875 0.03906,0.328125 0.04297,0.10546875 0.152343,0.10546875 0.132813,0 0.359375,-0.11328125 z M 11.961562,-0.9609375 v -0.9414062 q -0.5,0.203125 -0.730469,0.3671875 -0.230468,0.1601562 -0.230468,0.4375 0,0.1992187 0.113281,0.30468745 0.117187,0.10546875 0.269531,0.10546875 0.144531,0 0.285156,-0.078125 0.144532,-0.0820313 0.292969,-0.1953125 z m 5.687813,-2.8007813 -0.519531,1.4101563 Q 16.809531,-2.65625 16.481406,-2.65625 q -0.296875,0 -0.515625,0.203125 -0.214844,0.1992187 -0.414062,0.7421875 V 0 h -1.40625 v -3.9765625 h 1.40625 v 0.9609375 q 0.132812,-0.3554688 0.46875,-0.6914063 0.335937,-0.3398437 0.789062,-0.3398437 0.238281,0 0.414063,0.070312 0.179687,0.070312 0.425781,0.2148437 z m 4.383124,1.7460938 q 0,0.3984375 -0.113281,0.7695313 -0.113281,0.3710937 -0.347656,0.67187495 -0.230469,0.296875 -0.597656,0.47265625 -0.363282,0.171875 -0.847657,0.171875 -0.390625,0 -0.617187,-0.08203125 -0.222656,-0.08203125 -0.445313,-0.21875 V 1.8085937 h -1.40625 v -5.7851562 h 1.40625 v 0.359375 q 0.210938,-0.1835938 0.464844,-0.3046875 0.257813,-0.125 0.695313,-0.125 0.433593,0 0.851562,0.2148437 0.417969,0.2148438 0.6875,0.671875 0.269531,0.453125 0.269531,1.1445313 z m -1.480468,0.03125 q 0,-0.359375 -0.113282,-0.5820313 -0.113281,-0.2265625 -0.292968,-0.3242187 -0.179688,-0.1015625 -0.371094,-0.1015625 -0.25,0 -0.410156,0.082031 -0.160157,0.078125 -0.300782,0.1992188 v 1.5195313 q 0.07422,0.039063 0.15625,0.089844 0.08594,0.046875 0.167969,0.082031 0.08594,0.0351562 0.179688,0.0585937 0.09766,0.0234375 0.207031,0.0234375 0.332031,0 0.554687,-0.28125 0.222657,-0.28125 0.222657,-0.765625 z"
         id="text48"
         style="font-weight:700;font-size:8px;font-family:GillSans-Bold, 'Gill Sans';letter-spacing:-0.04em"
         transform="translate(73.5 239.87) scale(.88 1)"
         aria-label="Sharp" />
      <path
         d="m 4.4648437,-1.5742187 q 0,0.5078125 -0.2617187,0.8789062 Q 3.9453125,-0.32421875 3.4804688,-0.125 3.015625,0.0703125 2.4140625,0.0703125 2.2460938,0.0703125 2,0.046875 1.7578125,0.02734375 1.3515625,-0.0703125 0.94921875,-0.16796875 0.51171875,-0.359375 V -1.6875 q 0.41015625,0.2539063 0.80468745,0.421875 0.3984375,0.1679688 0.8515626,0.1679688 0.4179687,0 0.5390625,-0.1367188 0.125,-0.140625 0.125,-0.2617187 0,-0.21875 -0.2109375,-0.3671875 Q 2.4101563,-2.015625 2.0078125,-2.1757813 1.5625,-2.3632813 1.2265625,-2.5820313 0.890625,-2.8046875 0.67578125,-3.1367188 0.46484375,-3.46875 0.46484375,-3.921875 q 0,-0.4375 0.21484375,-0.7890625 0.21484375,-0.3554687 0.65625,-0.5664062 0.4414062,-0.2109375 1.078125,-0.2109375 0.453125,0 0.8359375,0.089844 0.3867188,0.085937 0.6367188,0.1953125 0.2499999,0.109375 0.3437499,0.171875 v 1.2695312 Q 3.8984375,-4 3.4882813,-4.1875 3.0820313,-4.375 2.6171875,-4.375 2.3125,-4.375 2.1757813,-4.2578125 2.0390625,-4.140625 2.0390625,-3.96875 q 0,0.1601562 0.1367188,0.2773437 0.1367187,0.1171875 0.4882812,0.2851563 0.625,0.2929687 1,0.5273437 0.375,0.234375 0.5859375,0.5429688 0.2148437,0.3046875 0.2148437,0.7617188 z m 3.6956249,1.34374995 Q 7.9417186,-0.125 7.5549998,-0.02734375 7.1721873,0.0703125 6.8206248,0.0703125 q -1.5195312,0 -1.5195312,-1.484375 V -3 H 4.6643748 v -0.2460938 l 1.8867188,-1.9218749 h 0.1601562 v 1.1914062 h 1.34375 V -3 h -1.34375 v 1.2734375 q 0,0.2226563 0.027344,0.359375 0.027344,0.1367188 0.1523437,0.2304688 0.1289063,0.089844 0.3867188,0.089844 0.3359375,0 0.8828125,-0.28125 z M 11.95375,-3.7617188 11.434218,-2.3515625 Q 11.113906,-2.65625 10.785781,-2.65625 q -0.296875,0 -0.515625,0.203125 -0.214844,0.1992187 -0.4140626,0.7421875 V 0 h -1.40625 v -3.9765625 h 1.40625 v 0.9609375 q 0.1328125,-0.3554688 0.4687496,-0.6914063 0.335938,-0.3398437 0.789063,-0.3398437 0.238281,0 0.414062,0.070312 0.179688,0.070312 0.425782,0.2148437 z m 1.152656,-1.1328124 q 0,0.2460937 -0.175781,0.4179687 -0.175781,0.171875 -0.417969,0.171875 -0.164062,0 -0.300781,-0.078125 -0.132813,-0.078125 -0.210938,-0.2109375 -0.07813,-0.1367187 -0.07813,-0.3007812 0,-0.2421875 0.171875,-0.4179688 0.171875,-0.1757812 0.417969,-0.1757812 0.242188,0 0.417969,0.1757812 0.175781,0.1757813 0.175781,0.4179688 z M 13.219687,0 h -1.410156 v -3.9765625 h 1.410156 z M 18.595,0 H 16.809844 L 15.2825,-1.8867187 V 0 H 13.860625 V -5.4140625 H 15.2825 v 3.1757812 l 1.394532,-1.7382812 h 1.6875 l -1.554688,1.8554687 z m 3.863593,-1.6484375 h -2.800781 q 0.08203,0.3632813 0.402344,0.59375 0.320312,0.23046875 0.726562,0.23046875 0.710938,0 1.570313,-0.39843745 v 0.8710937 q -0.308594,0.16015625 -0.75,0.29296875 -0.4375,0.12890625 -1.117188,0.12890625 -0.734375,0 -1.25,-0.2734375 -0.515625,-0.2734375 -0.773437,-0.7421875 -0.253906,-0.46875 -0.253906,-1.0625 0,-0.5859375 0.253906,-1.046875 0.257812,-0.4648438 0.773437,-0.7265625 0.515625,-0.265625 1.25,-0.265625 0.484375,0 0.933594,0.2109375 0.453125,0.2070312 0.742188,0.6835937 0.292968,0.4726563 0.292968,1.2226563 z M 21.138281,-2.34375 q 0,-0.3828125 -0.191406,-0.609375 -0.1875,-0.2304688 -0.542969,-0.2304688 -0.351563,0 -0.570313,0.234375 Q 19.61875,-2.71875 19.61875,-2.34375 Z"
         id="text49"
         style="font-weight:700;font-size:8px;font-family:GillSans-Bold, 'Gill Sans';letter-spacing:-0.04em"
         transform="translate(73.01 289.77) scale(.88 1)"
         aria-label="Strike" />
      <path
         d="m 6.4726562,-2.7109375 q 0,0.7578125 -0.3515625,1.3945313 -0.3476562,0.6367187 -1.0390625,1.0117187 -0.6914062,0.375 -1.6835937,0.375 -1.0039062,0 -1.6992188,-0.390625 Q 1.0039062,-0.7109375 0.6640625,-1.3476562 0.328125,-1.984375 0.328125,-2.7109375 q 0,-0.7304688 0.3359375,-1.3632812 Q 1,-4.7109375 1.6953125,-5.0976562 q 0.6992188,-0.390625 1.703125,-0.390625 0.75,0 1.3359375,0.2226562 0.5898437,0.2226563 0.96875,0.6054688 0.3789062,0.3789062 0.5742187,0.8867187 0.1953125,0.5039062 0.1953125,1.0625 z m -1.6640625,0 q 0,-0.3046875 -0.089844,-0.5546875 -0.089844,-0.2539063 -0.2734375,-0.4375 -0.1796875,-0.1875 -0.4414063,-0.2890625 -0.2617187,-0.1054687 -0.6054687,-0.1054687 -0.65625,0 -1.03125,0.3828124 -0.375,0.3828125 -0.375,1.0039063 0,0.6210937 0.375,1.0078125 0.3789063,0.3828125 1.03125,0.3828125 0.4492188,0 0.765625,-0.1757812 0.3164062,-0.1796875 0.4804687,-0.4921875 0.1640625,-0.3164063 0.1640625,-0.7226563 z M 11.129219,0 H 9.7190623 v -0.56640625 q -0.296875,0.3203125 -0.625,0.48046875 -0.3242187,0.15625 -0.78125,0.15625 -0.9023437,0 -1.1679687,-0.5234375 -0.265625,-0.52734375 -0.265625,-1.1875 v -2.3359375 h 1.4101562 v 2.1484375 q 0,0.3242188 0.1054688,0.5703125 0.109375,0.2421875 0.46875,0.2421875 0.3085937,0 0.4882812,-0.1757812 0.1796875,-0.1757813 0.3671875,-0.4492188 v -2.3359375 h 1.4101567 z m 3.715156,-0.23046875 q -0.21875,0.10546875 -0.605469,0.203125 -0.382813,0.09765625 -0.734375,0.09765625 -1.519531,0 -1.519531,-1.484375 V -3 H 11.348281 V -3.2460938 L 13.235,-5.1679687 h 0.160156 v 1.1914062 h 1.34375 V -3 h -1.34375 v 1.2734375 q 0,0.2226563 0.02734,0.359375 0.02734,0.1367188 0.152343,0.2304688 0.128907,0.089844 0.386719,0.089844 0.335938,0 0.882813,-0.28125 z"
         id="text50"
         style="font-weight:700;font-size:8px;font-family:GillSans-Bold, 'Gill Sans';letter-spacing:-0.04em;fill:#ffffff"
         transform="translate(76.66 337.03) scale(.88 1)"
         aria-label="Out" />
      <path
         d="m 5.3671875,-3.7109375 q 0,0.3007812 -0.1054688,0.5898437 -0.1015625,0.2851563 -0.3320312,0.5351563 -0.2304688,0.2460937 -0.625,0.4023437 Q 3.9140625,-2.03125 3.3828125,-2.03125 H 2.3125 V 0 H 0.6796875 v -5.4140625 h 2.703125 q 0.53125,0 0.921875,0.15625 0.3945312,0.15625 0.625,0.40625 0.2304687,0.25 0.3320312,0.5429688 0.1054688,0.2929687 0.1054688,0.5976562 z m -1.6640625,0.00781 q 0,-0.3867187 -0.2304687,-0.5273437 Q 3.2460938,-4.375 2.65625,-4.375 H 2.3125 v 1.3046875 h 0.3515625 q 0.40625,0 0.625,-0.050781 0.21875,-0.050781 0.3164063,-0.1875 0.097656,-0.1367187 0.097656,-0.3945312 z m 3.3870311,-1.1914062 q 0,0.2460937 -0.1757813,0.4179687 -0.1757812,0.171875 -0.4179687,0.171875 -0.1640625,0 -0.3007813,-0.078125 -0.1328125,-0.078125 -0.2109375,-0.2109375 -0.078125,-0.1367187 -0.078125,-0.3007812 0,-0.2421875 0.171875,-0.4179688 0.171875,-0.1757812 0.4179688,-0.1757812 0.2421875,0 0.4179687,0.1757812 0.1757813,0.1757813 0.1757813,0.4179688 z M 7.2034373,0 H 5.7932811 V -3.9765625 H 7.2034373 Z M 10.988906,-0.23046875 Q 10.770156,-0.125 10.383438,-0.02734375 10.000625,0.0703125 9.6490626,0.0703125 q -1.5195312,0 -1.5195312,-1.484375 V -3 H 7.4928126 v -0.2460938 l 1.8867188,-1.9218749 h 0.1601562 v 1.1914062 H 10.883438 V -3 H 9.5396876 v 1.2734375 q 0,0.2226563 0.027344,0.359375 0.027344,0.1367188 0.1523437,0.2304688 0.1289063,0.089844 0.3867189,0.089844 0.335937,0 0.882812,-0.28125 z m 3.703438,0.046875 q -0.175782,0.0664063 -0.371094,0.125 -0.195313,0.0546875 -0.441406,0.08984375 -0.242188,0.0390625 -0.53125,0.0390625 -0.652344,0 -1.105469,-0.21875 Q 11.793906,-0.37109375 11.547812,-0.703125 11.305625,-1.0390625 11.211875,-1.3867187 11.118125,-1.734375 11.118125,-2 q 0,-0.265625 0.09375,-0.6132813 0.09766,-0.3476562 0.335937,-0.671875 0.238282,-0.3242187 0.6875,-0.5429687 0.453125,-0.21875 1.113282,-0.21875 0.441406,0 0.71875,0.0625 0.277343,0.0625 0.5625,0.1679687 v 1.1054688 q -0.6875,-0.21875 -1.074219,-0.21875 -0.375,0 -0.667969,0.2265625 Q 12.598594,-2.4765625 12.598594,-2 q 0,0.3164063 0.144531,0.5351563 0.144531,0.2148437 0.367187,0.3164062 0.222657,0.1015625 0.445313,0.1015625 0.210937,0 0.480469,-0.0625 0.269531,-0.0625 0.65625,-0.1796875 z M 19.302032,0 h -1.40625 v -2.0625 q 0,-0.023437 0,-0.042969 0.0039,-0.023437 0.0039,-0.09375 0,-0.2851562 -0.121094,-0.5234375 -0.121094,-0.2382812 -0.460937,-0.2382812 -0.265625,0 -0.46875,0.1796875 -0.203125,0.1757812 -0.386719,0.4453125 V 0 h -1.40625 v -5.4140625 h 1.40625 V -3.40625 q 0.347656,-0.3710938 0.6875,-0.5039063 0.339844,-0.1367187 0.722656,-0.1367187 1.429688,0 1.429688,1.6054687 z"
         id="text51"
         style="font-weight:700;font-size:8px;font-family:GillSans-Bold, 'Gill Sans';letter-spacing:-0.04em"
         transform="translate(23.48 239.87) scale(.88 1)"
         aria-label="Pitch" />
      <path
         d="M 6.3984375,0 H 4.7695312 V -2.1132813 H 2.3125 V 0 H 0.6796875 V -5.4140625 H 2.3125 v 1.9882812 h 2.4570312 v -1.9882812 h 1.6289063 z m 2.1760936,-4.8945312 q 0,0.2460937 -0.1757813,0.4179687 -0.1757812,0.171875 -0.4179687,0.171875 -0.1640625,0 -0.3007813,-0.078125 -0.1328125,-0.078125 -0.2109375,-0.2109375 -0.078125,-0.1367187 -0.078125,-0.3007812 0,-0.2421875 0.171875,-0.4179688 0.171875,-0.1757812 0.4179688,-0.1757812 0.2421875,0 0.4179687,0.1757812 0.1757813,0.1757813 0.1757813,0.4179688 z M 8.6878123,0 H 7.2776561 V -3.9765625 H 8.6878123 Z M 12.473281,-0.23046875 Q 12.254531,-0.125 11.867812,-0.02734375 11.485,0.0703125 11.133437,0.0703125 q -1.5195311,0 -1.5195311,-1.484375 V -3 H 8.9771872 v -0.2460938 l 1.8867188,-1.9218749 h 0.160156 v 1.1914062 h 1.34375 V -3 h -1.34375 v 1.2734375 q 0,0.2226563 0.02734,0.359375 0.02734,0.1367188 0.152344,0.2304688 0.128906,0.089844 0.386718,0.089844 0.335938,0 0.882813,-0.28125 z"
         id="text52"
         style="font-weight:700;font-size:8px;font-family:GillSans-Bold, 'Gill Sans';letter-spacing:-0.04em"
         transform="translate(26.52 289.77) scale(.88 1)"
         aria-label="Hit" />
      <path
         d="M 5.8710937,-4.0976562 H 3.8867188 V 0 H 2.2578125 v -4.0976562 h -1.984375 v -1.3164063 h 5.5976562 z m 3.6682811,0.3359374 -0.5195312,1.4101563 Q 8.6995311,-2.65625 8.3714061,-2.65625 q -0.296875,0 -0.515625,0.203125 -0.2148438,0.1992187 -0.4140625,0.7421875 V 0 h -1.40625 v -3.9765625 h 1.40625 v 0.9609375 q 0.1328125,-0.3554688 0.46875,-0.6914063 0.3359375,-0.3398437 0.7890625,-0.3398437 0.2382812,0 0.4140625,0.070312 0.1796875,0.070312 0.4257812,0.2148437 z m 1.1526562,-1.1328124 q 0,0.2460937 -0.175781,0.4179687 -0.175782,0.171875 -0.417969,0.171875 -0.1640626,0 -0.3007813,-0.078125 -0.1328125,-0.078125 -0.2109375,-0.2109375 -0.078125,-0.1367187 -0.078125,-0.3007812 0,-0.2421875 0.171875,-0.4179688 0.171875,-0.1757812 0.4179688,-0.1757812 0.242187,0 0.417969,0.1757812 0.175781,0.1757813 0.175781,0.4179688 z M 10.805312,0 H 9.3951559 v -3.9765625 h 1.4101561 z m 4.64875,-3.1289063 H 14.75875 q 0.367187,0.3203125 0.367187,0.7851563 0,0.2460937 -0.105468,0.4726563 -0.101563,0.2265625 -0.304688,0.4023437 -0.199219,0.1757813 -0.496094,0.2890625 -0.292968,0.109375 -0.671875,0.1328125 -0.488281,0.019531 -0.488281,0.26171875 0,0.09375 0.0625,0.13671875 0.0625,0.0429687 0.195313,0.0664063 0.136718,0.0195313 0.457031,0.046875 0.363281,0.03125 0.675781,0.109375 0.3125,0.078125 0.582031,0.328125 0.269532,0.25 0.269532,0.71484375 0,0.37109375 -0.203125,0.65625 -0.199219,0.2851562 -0.648438,0.4453125 -0.449219,0.1601562 -1.1875,0.1601562 -1.0625,0 -1.5625,-0.2851562 -0.496094,-0.2851563 -0.496094,-0.76171875 0,-0.12890625 0.0625,-0.296875 Q 11.332969,0.3671875 11.54,0.2109375 11.750937,0.0546875 12.149375,0 12.00875,-0.05078125 11.907187,-0.1953125 11.805625,-0.34375 11.805625,-0.50390625 q 0,-0.20703125 0.140625,-0.41015625 0.144531,-0.203125 0.464844,-0.2617187 -0.445313,-0.1171875 -0.769532,-0.4414063 -0.324218,-0.3242187 -0.324218,-0.8398438 0,-0.390625 0.148437,-0.6835937 0.152344,-0.2929688 0.417969,-0.4765625 0.265625,-0.1835938 0.617187,-0.2695313 0.351563,-0.089844 0.769532,-0.089844 h 2.183593 z m -1.554687,0.671875 q 0,-0.3007812 -0.207031,-0.4804687 -0.203125,-0.1835938 -0.457032,-0.1835938 -0.324218,0 -0.511718,0.21875 -0.183594,0.21875 -0.183594,0.4609375 0,0.1679688 0.07813,0.3125 0.08203,0.1445313 0.226562,0.2343751 0.148438,0.085937 0.351563,0.085937 0.304687,0 0.503906,-0.1914063 0.199219,-0.1914063 0.199219,-0.4570313 z m 0.28125,3.1992188 q 0,-0.26171875 -0.28125,-0.33984375 -0.277344,-0.0742188 -0.574219,-0.0742188 -0.488281,0 -0.707031,0.1015625 -0.214844,0.10546875 -0.214844,0.33203125 0,0.44531245 0.898438,0.44531245 0.402343,0 0.640625,-0.1171875 0.238281,-0.1132812 0.238281,-0.3476562 z m 5.457344,-3.8710938 h -0.695312 q 0.367187,0.3203125 0.367187,0.7851563 0,0.2460937 -0.105469,0.4726563 -0.101562,0.2265625 -0.304687,0.4023437 -0.199219,0.1757813 -0.496094,0.2890625 -0.292969,0.109375 -0.671875,0.1328125 -0.488281,0.019531 -0.488281,0.26171875 0,0.09375 0.0625,0.13671875 0.0625,0.0429687 0.195312,0.0664063 0.136719,0.0195313 0.457032,0.046875 0.363281,0.03125 0.675781,0.109375 0.3125,0.078125 0.582031,0.328125 0.269531,0.25 0.269531,0.71484375 0,0.37109375 -0.203125,0.65625 -0.199218,0.2851562 -0.648437,0.4453125 -0.449219,0.1601562 -1.1875,0.1601562 -1.0625,0 -1.5625,-0.2851562 -0.496094,-0.2851563 -0.496094,-0.76171875 0,-0.12890625 0.0625,-0.296875 Q 15.516875,0.3671875 15.723907,0.2109375 15.934844,0.0546875 16.333282,0 16.192657,-0.05078125 16.091094,-0.1953125 15.989532,-0.34375 15.989532,-0.50390625 q 0,-0.20703125 0.140625,-0.41015625 0.144531,-0.203125 0.464843,-0.2617187 -0.445312,-0.1171875 -0.769531,-0.4414063 -0.324219,-0.3242187 -0.324219,-0.8398438 0,-0.390625 0.148438,-0.6835937 0.152344,-0.2929688 0.417969,-0.4765625 0.265625,-0.1835938 0.617187,-0.2695313 0.351563,-0.089844 0.769531,-0.089844 h 2.183594 z m -1.554687,0.671875 q 0,-0.3007812 -0.207032,-0.4804687 -0.203125,-0.1835938 -0.457031,-0.1835938 -0.324219,0 -0.511719,0.21875 -0.183593,0.21875 -0.183593,0.4609375 0,0.1679688 0.07813,0.3125 0.08203,0.1445313 0.226562,0.2343751 0.148438,0.085937 0.351563,0.085937 0.304687,0 0.503906,-0.1914063 0.199219,-0.1914063 0.199219,-0.4570313 z m 0.28125,3.1992188 q 0,-0.26171875 -0.28125,-0.33984375 -0.277344,-0.0742188 -0.574219,-0.0742188 -0.488281,0 -0.707031,0.1015625 -0.214844,0.10546875 -0.214844,0.33203125 0,0.44531245 0.898437,0.44531245 0.402344,0 0.640625,-0.1171875 0.238282,-0.1132812 0.238282,-0.3476562 z M 23.9,-1.6484375 h -2.800782 q 0.08203,0.3632813 0.402344,0.59375 0.320313,0.23046875 0.726563,0.23046875 0.710937,0 1.570312,-0.39843745 v 0.8710937 q -0.308594,0.16015625 -0.75,0.29296875 -0.4375,0.12890625 -1.117187,0.12890625 -0.734375,0 -1.25,-0.2734375 -0.515625,-0.2734375 -0.773438,-0.7421875 -0.253906,-0.46875 -0.253906,-1.0625 0,-0.5859375 0.253906,-1.046875 0.257813,-0.4648438 0.773438,-0.7265625 0.515625,-0.265625 1.25,-0.265625 0.484375,0 0.933593,0.2109375 0.453125,0.2070312 0.742188,0.6835937 Q 23.9,-2.6796875 23.9,-1.9296875 Z M 22.579687,-2.34375 q 0,-0.3828125 -0.191406,-0.609375 -0.1875,-0.2304688 -0.542969,-0.2304688 -0.351562,0 -0.570312,0.234375 Q 21.060156,-2.71875 21.060156,-2.34375 Z M 27.7675,-3.7617188 27.247969,-2.3515625 Q 26.927656,-2.65625 26.599531,-2.65625 q -0.296875,0 -0.515625,0.203125 -0.214844,0.1992187 -0.414062,0.7421875 V 0 h -1.40625 v -3.9765625 h 1.40625 v 0.9609375 q 0.132812,-0.3554688 0.46875,-0.6914063 0.335937,-0.3398437 0.789062,-0.3398437 0.238281,0 0.414063,0.070312 0.179687,0.070312 0.425781,0.2148437 z"
         id="text53"
         style="font-weight:700;font-size:8px;font-family:GillSans-Bold, 'Gill Sans';letter-spacing:-0.04em"
         transform="translate(19.53 337.03) scale(.88 1)"
         aria-label="Trigger" />
      <path
         d="m 6.7089844,-4.6386719 q 0,0.3759766 -0.131836,0.7373047 -0.1269531,0.3564453 -0.415039,0.6689453 -0.288086,0.3076172 -0.78125,0.5029297 -0.4882813,0.1904297 -1.1523438,0.1904297 H 2.890625 V 0 H 0.84960938 V -6.7675781 H 4.2285156 q 0.6640625,0 1.1523438,0.1953125 0.493164,0.1953125 0.78125,0.5078125 0.2880859,0.3125 0.415039,0.6787109 0.131836,0.366211 0.131836,0.7470703 z m -2.0800782,0.00977 q 0,-0.4833985 -0.2880859,-0.6591797 Q 4.0576172,-5.46875 3.3203125,-5.46875 H 2.890625 v 1.6308594 h 0.4394531 q 0.5078125,0 0.78125,-0.063477 0.2734375,-0.063477 0.3955078,-0.234375 0.1220703,-0.1708984 0.1220703,-0.493164 z m 4.233789,-1.4892579 q 0,0.3076172 -0.2197265,0.522461 -0.2197266,0.2148437 -0.522461,0.2148437 -0.2050781,0 -0.3759765,-0.097656 -0.1660157,-0.097656 -0.2636719,-0.2636719 -0.097656,-0.1708984 -0.097656,-0.3759766 0,-0.3027343 0.2148438,-0.5224609 0.2148437,-0.2197266 0.5224609,-0.2197266 0.3027344,0 0.522461,0.2197266 0.2197265,0.2197266 0.2197265,0.5224609 z M 9.0042968,0 H 7.2416015 v -4.9707031 h 1.7626953 z m 4.7318362,-0.28808594 q -0.273438,0.13183594 -0.756836,0.25390625 -0.478516,0.12207031 -0.917969,0.12207031 -1.899414,0 -1.899414,-1.85546872 V -3.75 H 9.3660154 v -0.3076172 l 2.3583986,-2.4023437 h 0.200195 v 1.4892578 h 1.679688 V -3.75 h -1.679688 v 1.5917969 q 0,0.2783203 0.03418,0.4492187 0.03418,0.1708985 0.19043,0.288086 0.161132,0.1123047 0.483398,0.1123047 0.419922,0 1.103516,-0.3515625 z m 4.629297,0.0585937 q -0.219727,0.0830078 -0.463867,0.15625 -0.244141,0.06835938 -0.551758,0.11230469 -0.302734,0.04882812 -0.664063,0.04882812 -0.815429,0 -1.381836,-0.27343749 -0.561523,-0.27832032 -0.86914,-0.69335938 Q 14.132031,-1.2988281 14.014844,-1.7333984 13.897656,-2.1679688 13.897656,-2.5 q 0,-0.3320313 0.117188,-0.7666016 0.12207,-0.4345703 0.419922,-0.8398437 0.297851,-0.4052734 0.859375,-0.6787109 0.566406,-0.2734375 1.391601,-0.2734375 0.551758,0 0.898438,0.078125 0.34668,0.078125 0.703125,0.2099609 v 1.3818359 q -0.859375,-0.2734375 -1.342774,-0.2734375 -0.46875,0 -0.83496,0.2832031 -0.361329,0.2832032 -0.361329,0.8789063 0,0.3955078 0.180664,0.6689453 0.180665,0.2685547 0.458985,0.3955078 0.27832,0.1269532 0.55664,0.1269532 0.263672,0 0.600586,-0.078125 0.336914,-0.078125 0.820313,-0.2246094 z M 24.127539,0 h -1.757813 v -2.578125 q 0,-0.029297 0,-0.053711 0.0049,-0.029297 0.0049,-0.1171875 0,-0.3564454 -0.151367,-0.6542969 -0.151367,-0.2978516 -0.576172,-0.2978516 -0.332031,0 -0.585938,0.2246094 -0.253906,0.2197266 -0.483398,0.5566406 V 0 h -1.757813 v -6.7675781 h 1.757813 v 2.5097656 q 0.43457,-0.4638672 0.859375,-0.6298828 0.424805,-0.1708984 0.90332,-0.1708984 1.78711,0 1.78711,2.0068359 z"
         id="text54"
         style="font-weight:700;font-size:10px;font-family:GillSans-Bold, 'Gill Sans';letter-spacing:-0.04em"
         transform="translate(20.67 85.76) scale(.88 1)"
         aria-label="Pitch" />
      <path
         d="m 5.5810547,-1.9677734 q 0,0.6347656 -0.3271485,1.09863277 Q 4.9316406,-0.40527344 4.3505859,-0.15625 3.7695313,0.08789062 3.0175781,0.08789062 2.8076172,0.08789062 2.5,0.05859375 2.1972656,0.03417969 1.6894531,-0.08789062 1.1865234,-0.20996094 0.63964844,-0.44921875 V -2.109375 q 0.51269526,0.3173828 1.00585936,0.5273438 0.4980469,0.2099609 1.0644531,0.2099609 0.522461,0 0.6738282,-0.1708984 0.15625,-0.1757813 0.15625,-0.3271485 0,-0.2734375 -0.2636719,-0.4589844 Q 3.0126953,-2.5195313 2.5097656,-2.7197266 1.953125,-2.9541016 1.5332031,-3.2275391 1.1132812,-3.5058594 0.84472656,-3.9208984 0.58105469,-4.3359375 0.58105469,-4.9023437 q 0,-0.546875 0.26855469,-0.9863282 0.26855472,-0.4443359 0.82031252,-0.7080078 0.5517578,-0.2636719 1.3476562,-0.2636719 0.5664063,0 1.0449219,0.1123047 0.4833984,0.1074219 0.7958984,0.2441407 0.3125,0.1367187 0.4296875,0.2148437 v 1.5869141 Q 4.8730469,-5 4.3603516,-5.234375 3.8525391,-5.46875 3.2714844,-5.46875 q -0.3808594,0 -0.5517578,0.1464844 -0.1708985,0.1464844 -0.1708985,0.3613281 0,0.2001953 0.1708985,0.3466797 0.1708984,0.1464844 0.6103515,0.3564453 0.78125,0.3662109 1.25,0.6591797 0.46875,0.2929687 0.7324219,0.6787109 0.2685547,0.3808594 0.2685547,0.9521485 z M 11.587305,0 H 9.8294921 v -2.578125 q 0,-0.029297 0,-0.053711 0.00488,-0.029297 0.00488,-0.1171875 0,-0.3564454 -0.1513672,-0.6542969 -0.1513672,-0.2978516 -0.5761719,-0.2978516 -0.3320312,0 -0.5859375,0.2246094 -0.2539062,0.2197266 -0.4833984,0.5566406 V 0 H 6.2796874 v -6.7675781 h 1.7578125 v 2.5097656 q 0.4345703,-0.4638672 0.859375,-0.6298828 0.4248047,-0.1708984 0.9033203,-0.1708984 1.7871098,0 1.7871098,2.0068359 z m 5.810937,-0.24902344 q -0.385742,0.15136719 -0.712891,0.24414063 -0.327148,0.09277343 -0.786132,0.09277343 -0.434571,0 -0.605469,-0.15136718 -0.170899,-0.15625 -0.244141,-0.37597657 -0.283203,0.22949219 -0.629883,0.38085938 -0.346679,0.14648437 -0.908203,0.14648437 -0.541992,0 -0.878906,-0.18554687 -0.332031,-0.19042969 -0.46875,-0.47363281 -0.131836,-0.28808594 -0.131836,-0.59082034 0,-0.4589843 0.229492,-0.7568359 0.234375,-0.3027344 0.625,-0.4931641 0.390625,-0.1904297 1.035156,-0.3955078 0.366211,-0.1171875 0.551758,-0.1757812 0.19043,-0.063477 0.283203,-0.097656 0.09277,-0.03418 0.195313,-0.087891 0,-0.3613281 -0.146484,-0.5664063 -0.146485,-0.2050781 -0.634766,-0.2050781 -0.576172,0 -1.069336,0.2539063 -0.493164,0.2539062 -0.90332,0.6542968 v -1.3476562 q 0.327148,-0.234375 0.708007,-0.3808594 0.38086,-0.1513672 0.795899,-0.2246094 0.415039,-0.073242 0.839844,-0.073242 1.079101,0 1.621093,0.4199218 0.546875,0.4150391 0.546875,1.147461 v 1.9189453 q 0,0.2734375 0.04883,0.4101562 0.05371,0.131836 0.190429,0.131836 0.166016,0 0.449219,-0.1416016 z M 14.951953,-1.2011719 v -1.1767578 q -0.625,0.2539063 -0.913086,0.4589844 -0.288086,0.2001953 -0.288086,0.546875 0,0.2490234 0.141602,0.38085936 0.146484,0.13183594 0.336914,0.13183594 0.180664,0 0.356445,-0.0976563 0.180664,-0.10253905 0.366211,-0.24414065 z m 7.109765,-3.5009765 -0.649414,1.7626953 q -0.400391,-0.3808594 -0.810547,-0.3808594 -0.371094,0 -0.644531,0.2539062 -0.268555,0.2490235 -0.517578,0.9277344 V 0 h -1.757813 v -4.9707031 h 1.757813 v 1.2011718 q 0.166015,-0.4443359 0.585937,-0.8642578 0.419922,-0.4248046 0.986328,-0.4248046 0.297852,0 0.517578,0.087891 0.22461,0.087891 0.532227,0.2685547 z m 5.478907,2.1826171 q 0,0.4980469 -0.141602,0.9619141 -0.141602,0.4638672 -0.43457,0.83984376 -0.288086,0.37109375 -0.747071,0.59082032 -0.454101,0.21484374 -1.05957,0.21484374 -0.488281,0 -0.771484,-0.10253906 -0.278321,-0.10253906 -0.556641,-0.2734375 V 2.2607422 h -1.757812 v -7.2314453 h 1.757812 v 0.4492187 q 0.263672,-0.2294922 0.581055,-0.3808593 0.322265,-0.15625 0.86914,-0.15625 0.541993,0 1.064454,0.2685546 0.52246,0.2685547 0.859375,0.8398438 0.336914,0.5664062 0.336914,1.430664 z m -1.850586,0.039063 q 0,-0.4492187 -0.141602,-0.727539 -0.141601,-0.2832031 -0.366211,-0.4052735 -0.224609,-0.1269531 -0.463867,-0.1269531 -0.3125,0 -0.512695,0.1025391 -0.200196,0.097656 -0.375977,0.2490234 v 1.8994141 q 0.09277,0.048828 0.195313,0.1123047 0.107421,0.058594 0.209961,0.102539 0.107421,0.043945 0.224609,0.073242 0.12207,0.029297 0.258789,0.029297 0.415039,0 0.693359,-0.3515625 Q 25.690039,-1.875 25.690039,-2.4804688 Z M 33.361328,0 h -1.757812 v -2.6806641 q 0,-0.4101562 -0.136719,-0.7128906 -0.131836,-0.3076172 -0.585938,-0.3076172 -0.214843,0 -0.380859,0.083008 -0.161133,0.078125 -0.292969,0.2050782 -0.126953,0.1269531 -0.214844,0.2441406 -0.08789,0.1171875 -0.180664,0.2490234 V 0 h -1.757812 v -4.9707031 h 1.757812 v 0.7128906 q 0.415039,-0.4443359 0.830079,-0.6201172 0.419921,-0.180664 0.932617,-0.180664 1.787109,0 1.787109,2.1386718 z m 5.752342,-2.0605469 h -3.500976 q 0.102539,0.4541016 0.502929,0.7421875 0.400391,0.288086 0.908204,0.288086 0.888671,0 1.96289,-0.4980469 v 1.08886717 q -0.385742,0.20019532 -0.9375,0.36621094 -0.546875,0.16113281 -1.396484,0.16113281 -0.917969,0 -1.5625,-0.34179687 -0.644531,-0.34179687 -0.966797,-0.92773435 -0.317383,-0.5859375 -0.317383,-1.328125 0,-0.7324219 0.317383,-1.3085938 0.322266,-0.5810547 0.966797,-0.9082031 0.644531,-0.3320312 1.5625,-0.3320312 0.605469,0 1.166992,0.2636718 0.566406,0.2587891 0.927734,0.8544922 0.366211,0.5908203 0.366211,1.5283203 z m -1.65039,-0.8691406 q 0,-0.4785156 -0.239258,-0.7617188 -0.234375,-0.2880859 -0.678711,-0.2880859 -0.439453,0 -0.712891,0.2929688 -0.268554,0.2880859 -0.268554,0.7568359 z m 6.001369,1.4794922 q 0,0.68359374 -0.502929,1.11328124 -0.498047,0.42480468 -1.484375,0.42480468 -0.551758,0 -0.981446,-0.09765625 -0.429687,-0.10253906 -0.9375,-0.28808593 V -1.5478516 q 0.444336,0.2539063 0.771485,0.3857422 0.327148,0.131836 0.717773,0.131836 0.65918,0 0.65918,-0.3613282 0,-0.1220703 -0.09766,-0.2148437 -0.09277,-0.097656 -0.332031,-0.2148438 -0.234375,-0.1220703 -0.629883,-0.2880859 -0.488281,-0.2148438 -0.830078,-0.5761719 -0.341797,-0.3613281 -0.341797,-0.883789 0,-0.3710938 0.22461,-0.7128907 0.229492,-0.3417968 0.688476,-0.5566406 0.458985,-0.2197265 1.108399,-0.2197265 0.15625,0 0.395508,0.024414 0.24414,0.019531 0.610351,0.1123047 0.371094,0.092773 0.703125,0.2636719 v 1.2158203 q -0.15625,-0.092774 -0.263672,-0.15625 -0.102539,-0.063477 -0.27832,-0.1416016 -0.175781,-0.078125 -0.415039,-0.1367187 -0.234375,-0.063477 -0.483399,-0.063477 -0.302734,0 -0.415039,0.1171875 -0.112304,0.1171875 -0.112304,0.234375 0,0.1220703 0.117187,0.2294922 0.117188,0.1025391 0.522461,0.2587891 0.585938,0.2246093 0.9375,0.4638671 0.351563,0.234375 0.498047,0.5175782 0.151367,0.2832031 0.151367,0.6689453 z m 4.438866,0 q 0,0.68359374 -0.50293,1.11328124 -0.498047,0.42480468 -1.484375,0.42480468 -0.551758,0 -0.981445,-0.09765625 -0.429688,-0.10253906 -0.9375,-0.28808593 V -1.5478516 q 0.444336,0.2539063 0.771484,0.3857422 0.327149,0.131836 0.717774,0.131836 0.659179,0 0.659179,-0.3613282 0,-0.1220703 -0.09766,-0.2148437 -0.09277,-0.097656 -0.332031,-0.2148438 -0.234375,-0.1220703 -0.629883,-0.2880859 -0.488281,-0.2148438 -0.830078,-0.5761719 -0.341797,-0.3613281 -0.341797,-0.883789 0,-0.3710938 0.224609,-0.7128907 0.229493,-0.3417968 0.688477,-0.5566406 0.458984,-0.2197265 1.108398,-0.2197265 0.15625,0 0.395508,0.024414 0.244141,0.019531 0.610352,0.1123047 0.371094,0.092773 0.703125,0.2636719 v 1.2158203 q -0.15625,-0.092774 -0.263672,-0.15625 -0.102539,-0.063477 -0.27832,-0.1416016 -0.175782,-0.078125 -0.415039,-0.1367187 -0.234375,-0.063477 -0.483399,-0.063477 -0.302734,0 -0.415039,0.1171875 -0.112305,0.1171875 -0.112305,0.234375 0,0.1220703 0.117188,0.2294922 0.117187,0.1025391 0.522461,0.2587891 0.585937,0.2246093 0.9375,0.4638671 0.351562,0.234375 0.498047,0.5175782 0.151367,0.2832031 0.151367,0.6689453 z"
         id="text55"
         style="font-weight:700;font-size:10px;font-family:GillSans-Bold, 'Gill Sans';letter-spacing:-0.04em"
         transform="translate(61.79 85.76) scale(.88 1)"
         aria-label="Sharpness" />
      <path
         d="M 7.9980469,0 H 5.9619141 V -2.6416016 H 2.890625 V 0 H 0.84960938 V -6.7675781 H 2.890625 v 2.4853515 h 3.0712891 v -2.4853515 h 2.0361328 z m 2.7201171,-6.1181641 q 0,0.3076172 -0.219726,0.522461 -0.219727,0.2148437 -0.5224611,0.2148437 -0.2050781,0 -0.3759765,-0.097656 -0.1660156,-0.097656 -0.2636719,-0.2636719 -0.097656,-0.1708984 -0.097656,-0.3759766 0,-0.3027343 0.2148437,-0.5224609 0.2148438,-0.2197266 0.5224609,-0.2197266 0.3027341,0 0.5224611,0.2197266 0.219726,0.2197266 0.219726,0.5224609 z M 10.859766,0 H 9.0970707 v -4.9707031 h 1.7626953 z m 4.731835,-0.28808594 q -0.273437,0.13183594 -0.756836,0.25390625 -0.478515,0.12207031 -0.917968,0.12207031 -1.899414,0 -1.899414,-1.85546872 V -3.75 h -0.795899 v -0.3076172 l 2.358399,-2.4023437 h 0.200195 v 1.4892578 h 1.679687 V -3.75 h -1.679687 v 1.5917969 q 0,0.2783203 0.03418,0.4492187 0.03418,0.1708985 0.190429,0.288086 0.161133,0.1123047 0.483399,0.1123047 0.419922,0 1.103515,-0.3515625 z"
         id="text56"
         style="font-weight:700;font-size:10px;font-family:GillSans-Bold, 'Gill Sans';letter-spacing:-0.04em"
         transform="translate(24.55 147.07) scale(.88 1)"
         aria-label="Hit" />
      <path
         d="m 5.5810547,-1.9677734 q 0,0.6347656 -0.3271485,1.09863277 Q 4.9316406,-0.40527344 4.3505859,-0.15625 3.7695313,0.08789062 3.0175781,0.08789062 2.8076172,0.08789062 2.5,0.05859375 2.1972656,0.03417969 1.6894531,-0.08789062 1.1865234,-0.20996094 0.63964844,-0.44921875 V -2.109375 q 0.51269526,0.3173828 1.00585936,0.5273438 0.4980469,0.2099609 1.0644531,0.2099609 0.522461,0 0.6738282,-0.1708984 0.15625,-0.1757813 0.15625,-0.3271485 0,-0.2734375 -0.2636719,-0.4589844 Q 3.0126953,-2.5195313 2.5097656,-2.7197266 1.953125,-2.9541016 1.5332031,-3.2275391 1.1132812,-3.5058594 0.84472656,-3.9208984 0.58105469,-4.3359375 0.58105469,-4.9023437 q 0,-0.546875 0.26855469,-0.9863282 0.26855472,-0.4443359 0.82031252,-0.7080078 0.5517578,-0.2636719 1.3476562,-0.2636719 0.5664063,0 1.0449219,0.1123047 0.4833984,0.1074219 0.7958984,0.2441407 0.3125,0.1367187 0.4296875,0.2148437 v 1.5869141 Q 4.8730469,-5 4.3603516,-5.234375 3.8525391,-5.46875 3.2714844,-5.46875 q -0.3808594,0 -0.5517578,0.1464844 -0.1708985,0.1464844 -0.1708985,0.3613281 0,0.2001953 0.1708985,0.3466797 0.1708984,0.1464844 0.6103515,0.3564453 0.78125,0.3662109 1.25,0.6591797 0.46875,0.2929687 0.7324219,0.6787109 0.2685547,0.3808594 0.2685547,0.9521485 z m 4.6195313,1.67968746 Q 9.9271483,-0.15625 9.4437499,-0.03417969 8.9652343,0.08789062 8.5257812,0.08789062 q -1.8994141,0 -1.8994141,-1.85546872 V -3.75 H 5.8304687 v -0.3076172 l 2.3583984,-2.4023437 h 0.2001953 v 1.4892578 H 10.06875 V -3.75 H 8.3890624 v 1.5917969 q 0,0.2783203 0.03418,0.4492187 0.03418,0.1708985 0.1904297,0.288086 0.1611328,0.1123047 0.4833984,0.1123047 0.4199219,0 1.1035158,-0.3515625 z m 4.741601,-4.41406246 -0.649414,1.7626953 q -0.40039,-0.3808594 -0.810547,-0.3808594 -0.371093,0 -0.644531,0.2539062 -0.268555,0.2490235 -0.517578,0.9277344 V 0 h -1.757813 v -4.9707031 h 1.757813 v 1.2011718 q 0.166016,-0.4443359 0.585937,-0.8642578 0.419922,-0.4248046 0.986329,-0.4248046 0.297851,0 0.517578,0.087891 0.224609,0.087891 0.532226,0.2685547 z m 1.440821,-1.4160157 q 0,0.3076172 -0.219727,0.522461 -0.219726,0.2148437 -0.52246,0.2148437 -0.205079,0 -0.375977,-0.097656 -0.166016,-0.097656 -0.263672,-0.2636719 -0.09766,-0.1708984 -0.09766,-0.3759766 0,-0.3027343 0.214844,-0.5224609 0.214843,-0.2197266 0.522461,-0.2197266 0.302734,0 0.52246,0.2197266 0.219727,0.2197266 0.219727,0.5224609 z M 16.52461,0 h -1.762696 v -4.9707031 h 1.762696 z m 6.71914,0 H 21.012304 L 19.103125,-2.3583984 V 0 h -1.777344 v -6.7675781 h 1.777344 v 3.9697265 l 1.743164,-2.1728515 h 2.109375 l -1.94336,2.3193359 z m 4.829492,-2.0605469 h -3.500976 q 0.102539,0.4541016 0.502929,0.7421875 0.400391,0.288086 0.908203,0.288086 0.888672,0 1.962891,-0.4980469 v 1.08886717 q -0.385742,0.20019532 -0.9375,0.36621094 -0.546875,0.16113281 -1.396484,0.16113281 -0.917969,0 -1.5625,-0.34179687 -0.644532,-0.34179687 -0.966797,-0.92773435 -0.317383,-0.5859375 -0.317383,-1.328125 0,-0.7324219 0.317383,-1.3085938 0.322265,-0.5810547 0.966797,-0.9082031 0.644531,-0.3320312 1.5625,-0.3320312 0.605468,0 1.166992,0.2636718 0.566406,0.2587891 0.927734,0.8544922 0.366211,0.5908203 0.366211,1.5283203 z m -1.65039,-0.8691406 q 0,-0.4785156 -0.239258,-0.7617188 -0.234375,-0.2880859 -0.678711,-0.2880859 -0.439453,0 -0.712891,0.2929688 -0.268555,0.2880859 -0.268555,0.7568359 z M 38.825977,0 H 36.736134 L 36.184376,-1.3720703 H 33.244923 L 32.683399,0 h -2.089844 l 2.993165,-6.7675781 h 2.255859 z m -3.110351,-2.5488281 -0.991211,-2.4707031 -1.000977,2.4707031 z M 47.893749,0 h -1.757812 v -2.6513672 q 0,-0.5273437 -0.175782,-0.7861328 -0.170898,-0.2636719 -0.546875,-0.2636719 -0.36621,0 -0.600585,0.2246094 -0.234375,0.2197266 -0.46875,0.5566406 V 0 h -1.757813 v -2.6513672 q 0,-0.5029297 -0.161133,-0.7763672 -0.161133,-0.2734375 -0.571289,-0.2734375 -0.195312,0 -0.361328,0.078125 -0.161133,0.078125 -0.263672,0.1757813 -0.102539,0.097656 -0.249023,0.2880859 -0.146485,0.1904297 -0.185547,0.2392578 V 0 h -1.757813 v -4.9707031 h 1.757813 v 0.7128906 q 0.395508,-0.4199219 0.805664,-0.6103516 0.410156,-0.1904296 0.947266,-0.1904296 0.253906,0 0.483398,0.048828 0.229492,0.043945 0.449219,0.15625 0.224609,0.1123047 0.405273,0.3076172 0.180664,0.1953125 0.288086,0.4541015 0.424805,-0.4785156 0.878906,-0.7226562 0.458985,-0.2441406 1.054688,-0.2441406 0.595703,0 0.996094,0.2392578 0.405273,0.2392578 0.595703,0.6933593 0.195312,0.4492188 0.195312,1.09375 z m 4.565823,-0.28808594 q -0.273438,0.13183594 -0.756836,0.25390625 -0.478516,0.12207031 -0.917969,0.12207031 -1.899414,0 -1.899414,-1.85546872 V -3.75 h -0.795898 v -0.3076172 l 2.358398,-2.4023437 h 0.200195 v 1.4892578 h 1.679688 V -3.75 h -1.679688 v 1.5917969 q 0,0.2783203 0.03418,0.4492187 0.03418,0.1708985 0.19043,0.288086 0.161133,0.1123047 0.483398,0.1123047 0.419922,0 1.103516,-0.3515625 z"
         id="text57"
         style="font-weight:700;font-size:10px;font-family:GillSans-Bold, 'Gill Sans';letter-spacing:-0.04em"
         transform="translate(59.49 147.07) scale(.88 1)"
         aria-label="Strike Amt" />
    </g>
  </g>
  <g
     id="g2" />
</svg>
