<svg xmlns="http://www.w3.org/2000/svg" width="40.73mm" height="130.6mm" viewBox="0 0 115.45 370.19">
  <g id="faceplate">
    <rect x="0.13" y="0.13" width="115.2" height="364.25" style="fill: #ededed;stroke: #9d9d9e;stroke-miterlimit: 10;stroke-width: 0.25px" />
    <g>
      <path d="M100.47,316.9V293.68H78.94c-7.5,0-13.57,7-13.57,15.72v32.93H94.83a5.66,5.66,0,0,0,5.64-5.67V316.9Z" />
      <g>
        <path d="M28.36,341.84H86.71c7.35,0,13.31-7,13.31-15.67V218.51l-.07-6.65c-.29-8.35-6.11-15-13.28-15H28.32c-7.16,0-13,6.67-13.28,15L15,218.51V265L15,326.17" style="fill: none;stroke: #000;stroke-miterlimit: 10" />
        <path d="M15,325.21v11a5.68,5.68,0,0,0,5.67,5.67H33.64" style="fill: none;stroke: #231f20;stroke-miterlimit: 10" />
      </g>
    </g>
    <g>
      <path d="M45.74,353.88a4.14,4.14,0,0,1-.34,1.84,3.93,3.93,0,0,1-.8,1.12,2.55,2.55,0,0,1-1.84.63h-3.3V350H42a5.55,5.55,0,0,1,1,.07,4.26,4.26,0,0,1,.73.2,2.65,2.65,0,0,1,.56.3,3.58,3.58,0,0,1,.41.35,3.24,3.24,0,0,1,.55.74,4.17,4.17,0,0,1,.37,1A5.15,5.15,0,0,1,45.74,353.88Zm-1.87-.09a2.92,2.92,0,0,0-.29-1.42,1.44,1.44,0,0,0-.68-.68,2.06,2.06,0,0,0-.81-.17h-.78v4.41h.78a2,2,0,0,0,1.25-.42A2.15,2.15,0,0,0,43.87,353.79Z" />
      <path d="M48.91,356.55a9.89,9.89,0,0,1-.13,1.68,2.15,2.15,0,0,1-.59,1.16,1.8,1.8,0,0,1-1.35.47,3,3,0,0,1-.66-.08L45.9,358c.24,0,.42,0,.57-.05a.67.67,0,0,0,.36-.17.79.79,0,0,0,.19-.41,8.7,8.7,0,0,0,0-1.23V350h1.84Z" />
      <path d="M55.05,357.47h-4.6V350H55v1.49H52.29v1.36h2.56v1.5H52.29V356h2.76Z" />
      <path d="M63.38,357.47H61.54v-4.31l-1.66,2.5h-.14l-1.67-2.5v4.31H56.29V350H58l1.88,2.79L61.72,350h1.66Z" />
      <path d="M70.5,355.36A2.18,2.18,0,0,1,70,356.9a2,2,0,0,1-1.51.57H64.93V350h2.95a3.26,3.26,0,0,1,1,.13,1.74,1.74,0,0,1,.69.37,1.53,1.53,0,0,1,.39.55,1.93,1.93,0,0,1,.13.69,2.1,2.1,0,0,1-.14.76,1.93,1.93,0,0,1-.32.57,1.31,1.31,0,0,1-.4.31,2.31,2.31,0,0,1,1,.76A2,2,0,0,1,70.5,355.36Zm-2.15-3.19c0-.36-.09-.6-.29-.71a1.73,1.73,0,0,0-.9-.18h-.39v1.78h.39a1.73,1.73,0,0,0,.91-.18C68.26,352.77,68.35,352.53,68.35,352.17Zm.3,3.1c0-.64-.38-1-1.13-1h-.75v1.91h.75C68.27,356.22,68.65,355.9,68.65,355.27Z" />
      <path d="M76.29,357.47H71.68V350h4.53v1.49H73.52v1.36h2.57v1.5H73.52V356h2.77Z" />
    </g>
    <g>
      <path d="M77.56,238.42a1.53,1.53,0,0,1-.87,1.45,2.16,2.16,0,0,1-.94.19l-.36,0a2.78,2.78,0,0,1-.57-.12,3.43,3.43,0,0,1-.74-.29V238.3a5.38,5.38,0,0,0,.71.43,1.7,1.7,0,0,0,.74.16c.25,0,.41,0,.48-.13a.47.47,0,0,0,.11-.26.44.44,0,0,0-.19-.37,2.14,2.14,0,0,0-.54-.31,4.7,4.7,0,0,1-.68-.41,1.85,1.85,0,0,1-.49-.55,1.67,1.67,0,0,1-.18-.79,1.7,1.7,0,0,1,.18-.79,1.45,1.45,0,0,1,.58-.57,2,2,0,0,1,1-.21,2.89,2.89,0,0,1,.74.09,3.56,3.56,0,0,1,.56.2l.3.17v1.27a4.31,4.31,0,0,0-.65-.43,1.71,1.71,0,0,0-.77-.18.59.59,0,0,0-.39.11.4.4,0,0,0-.12.29.38.38,0,0,0,.12.28,2.2,2.2,0,0,0,.43.29,8.23,8.23,0,0,1,.88.52,2,2,0,0,1,.52.54A1.51,1.51,0,0,1,77.56,238.42Z" />
      <path d="M81.78,240H80.55v-2.2a1.27,1.27,0,0,0-.11-.52A.39.39,0,0,0,80,237a.58.58,0,0,0-.42.18,2.93,2.93,0,0,0-.34.45V240H78.05v-5.41h1.23v2a1.81,1.81,0,0,1,.61-.51,1.53,1.53,0,0,1,.64-.13c.83,0,1.25.53,1.25,1.6Z" />
      <path d="M85.87,239.79a4.73,4.73,0,0,1-.5.2,1.75,1.75,0,0,1-.55.07.61.61,0,0,1-.43-.12.74.74,0,0,1-.17-.3,1.9,1.9,0,0,1-.44.3,1.46,1.46,0,0,1-.64.12,1.14,1.14,0,0,1-.62-.15.76.76,0,0,1-.33-.38,1.27,1.27,0,0,1-.09-.47,1,1,0,0,1,.16-.6,1.22,1.22,0,0,1,.44-.4,5,5,0,0,1,.73-.31l.39-.15.19-.07.14-.07a.85.85,0,0,0-.1-.46c-.07-.11-.22-.16-.45-.16a1.5,1.5,0,0,0-.75.2,2.86,2.86,0,0,0-.64.53v-1.08a2.18,2.18,0,0,1,.5-.31,2.81,2.81,0,0,1,.56-.18,2.94,2.94,0,0,1,.59-.05,1.73,1.73,0,0,1,1.15.33,1.17,1.17,0,0,1,.38.92v1.53a.92.92,0,0,0,0,.33.13.13,0,0,0,.13.11.64.64,0,0,0,.31-.12ZM84.15,239v-.94a2.85,2.85,0,0,0-.64.37.5.5,0,0,0-.2.43.41.41,0,0,0,.1.31.3.3,0,0,0,.23.1.44.44,0,0,0,.26-.08A1.38,1.38,0,0,0,84.15,239Z" />
      <path d="M89.06,236.23l-.46,1.41a.81.81,0,0,0-.57-.3.59.59,0,0,0-.45.2,2,2,0,0,0-.37.74V240H86v-4h1.24v1a2.21,2.21,0,0,1,.41-.7.91.91,0,0,1,.7-.33.87.87,0,0,1,.37.07A2.16,2.16,0,0,1,89.06,236.23Z" />
      <path d="M93,238a2.86,2.86,0,0,1-.1.77,2,2,0,0,1-.3.67,1.5,1.5,0,0,1-.53.47,1.58,1.58,0,0,1-.74.17,1.34,1.34,0,0,1-.54-.08,1.75,1.75,0,0,1-.4-.22v2H89.16V236H90.4v.36a1.7,1.7,0,0,1,.41-.31,1.32,1.32,0,0,1,.61-.12,1.47,1.47,0,0,1,.75.21,1.6,1.6,0,0,1,.61.67A2.46,2.46,0,0,1,93,238Zm-1.3,0a1.42,1.42,0,0,0-.1-.59.65.65,0,0,0-.26-.32A.55.55,0,0,0,91,237a.74.74,0,0,0-.36.08,1.05,1.05,0,0,0-.27.2v1.52l.14.09.15.08a.44.44,0,0,0,.16.06.5.5,0,0,0,.18,0,.59.59,0,0,0,.49-.28A1.3,1.3,0,0,0,91.71,238Z" />
    </g>
    <g>
      <path d="M77.07,288.32a1.67,1.67,0,0,1-.23.88,1.53,1.53,0,0,1-.64.57,2.16,2.16,0,0,1-.94.2l-.36,0-.57-.12a4.91,4.91,0,0,1-.74-.29v-1.33a4.4,4.4,0,0,0,.71.42,1.71,1.71,0,0,0,.74.17.61.61,0,0,0,.48-.14.41.41,0,0,0-.08-.63,2.5,2.5,0,0,0-.54-.31,3.4,3.4,0,0,1-.68-.41,1.73,1.73,0,0,1-.49-.55,1.78,1.78,0,0,1,0-1.58,1.34,1.34,0,0,1,.57-.56,2,2,0,0,1,1-.21,2.89,2.89,0,0,1,.74.09,2.81,2.81,0,0,1,.56.19,2.56,2.56,0,0,1,.3.18v1.26a4.26,4.26,0,0,0-.65-.42,1.6,1.6,0,0,0-.77-.19.54.54,0,0,0-.39.12.38.38,0,0,0-.12.29.39.39,0,0,0,.12.28,2.66,2.66,0,0,0,.43.28,8.07,8.07,0,0,1,.88.53,1.78,1.78,0,0,1,.52.54A1.47,1.47,0,0,1,77.07,288.32Z" />
      <path d="M80.32,289.67a3.33,3.33,0,0,1-.53.2,2.64,2.64,0,0,1-.65.1c-.89,0-1.34-.5-1.34-1.49V286.9h-.56v-.25l1.66-1.92H79v1.19h1.19v1H79v1.27a1.73,1.73,0,0,0,0,.36.36.36,0,0,0,.13.23.55.55,0,0,0,.34.09,1.64,1.64,0,0,0,.78-.28Z" />
      <path d="M83.66,286.13l-.46,1.42a.79.79,0,0,0-.57-.31.59.59,0,0,0-.45.2,2.06,2.06,0,0,0-.37.75v1.71H80.57v-4h1.24v1a2.07,2.07,0,0,1,.41-.69.89.89,0,0,1,.7-.34.8.8,0,0,1,.36.07A4,4,0,0,1,83.66,286.13Z" />
      <path d="M85.07,289.9H83.83v-4h1.24ZM85,285a.62.62,0,0,1-.15.42.51.51,0,0,1-.37.17.4.4,0,0,1-.26-.08.55.55,0,0,1-.19-.21.6.6,0,0,1-.07-.3.64.64,0,0,1,.15-.42.5.5,0,0,1,.37-.17.51.51,0,0,1,.37.17A.64.64,0,0,1,85,285Z" />
      <path d="M89.8,289.9H88.23L86.89,288v1.89H85.64v-5.42h1.25v3.18l1.22-1.74H89.6l-1.37,1.86Z" />
      <path d="M93.5,288.25H91a1,1,0,0,0,.35.59,1,1,0,0,0,.64.23,2.93,2.93,0,0,0,1.38-.4v.88a4.47,4.47,0,0,1-.65.29,3.39,3.39,0,0,1-1,.13,2,2,0,0,1-1.1-.28A1.73,1.73,0,0,1,90,289a2.42,2.42,0,0,1-.22-1.06,2.38,2.38,0,0,1,.22-1.05,1.71,1.71,0,0,1,.68-.73,2.21,2.21,0,0,1,1.1-.26,1.76,1.76,0,0,1,.83.21,1.65,1.65,0,0,1,.65.68A2.61,2.61,0,0,1,93.5,288Zm-1.16-.7a1,1,0,0,0-.16-.61.56.56,0,0,0-.48-.23.59.59,0,0,0-.5.24.88.88,0,0,0-.19.6Z" />
    </g>
    <g>
      <path d="M82.48,334.44a3.26,3.26,0,0,1-.3,1.4,2.42,2.42,0,0,1-.92,1,3.11,3.11,0,0,1-3,0,2.48,2.48,0,0,1-.91-1,3.33,3.33,0,0,1-.29-1.37,3.29,3.29,0,0,1,.29-1.36,2.38,2.38,0,0,1,.91-1,2.83,2.83,0,0,1,1.5-.38,3,3,0,0,1,1.18.22,2.51,2.51,0,0,1,.85.6,2.6,2.6,0,0,1,.5.89A3.14,3.14,0,0,1,82.48,334.44Zm-1.46,0a1.87,1.87,0,0,0-.08-.55,1.11,1.11,0,0,0-.24-.44,1.05,1.05,0,0,0-.39-.29,1.25,1.25,0,0,0-.53-.1,1.12,1.12,0,0,0-.91.38,1.47,1.47,0,0,0-.33,1,1.5,1.5,0,0,0,.33,1,1.13,1.13,0,0,0,.91.38,1.28,1.28,0,0,0,.67-.17,1.17,1.17,0,0,0,.43-.5A1.81,1.81,0,0,0,81,334.44Z" style="fill: #fff" />
      <path d="M86.58,337.15H85.34v-.56a2,2,0,0,1-.55.48,1.47,1.47,0,0,1-.69.15,1,1,0,0,1-1-.52,2.84,2.84,0,0,1-.24-1.19v-2.33h1.24v2.15a1.6,1.6,0,0,0,.09.56.4.4,0,0,0,.42.25A.55.55,0,0,0,85,336a2.64,2.64,0,0,0,.32-.45v-2.33h1.24Z" style="fill: #fff" />
      <path d="M89.85,336.92a2.9,2.9,0,0,1-.53.21,2.48,2.48,0,0,1-.65.09c-.89,0-1.33-.49-1.33-1.48v-1.59h-.56v-.24L88.44,332h.14v1.19h1.18v1H88.58v1.28a1.84,1.84,0,0,0,0,.36.4.4,0,0,0,.14.23.51.51,0,0,0,.34.09,1.77,1.77,0,0,0,.77-.28Z" style="fill: #fff" />
    </g>
    <g>
      <path d="M28.33,236.28a2,2,0,0,1-.09.59,1.57,1.57,0,0,1-.85.94,2,2,0,0,1-.81.15h-.94v2H24.2v-5.41h2.38a2,2,0,0,1,.81.15,1.47,1.47,0,0,1,.55.41,1.61,1.61,0,0,1,.3.54A2.08,2.08,0,0,1,28.33,236.28Zm-1.47,0a.59.59,0,0,0-.2-.53,1.26,1.26,0,0,0-.72-.14h-.3v1.3H26a2.51,2.51,0,0,0,.55,0,.44.44,0,0,0,.28-.19A.81.81,0,0,0,26.86,236.29Z" />
      <path d="M29.94,240H28.7v-4h1.24Zm-.1-4.89a.64.64,0,0,1-.15.42.5.5,0,0,1-.37.17.47.47,0,0,1-.26-.08.55.55,0,0,1-.19-.21.6.6,0,0,1-.07-.3.64.64,0,0,1,.15-.42.47.47,0,0,1,.74,0A.64.64,0,0,1,29.84,235.1Z" />
      <path d="M33.27,239.76a2.19,2.19,0,0,1-.53.2,2.13,2.13,0,0,1-.64.1c-.9,0-1.34-.49-1.34-1.48V237H30.2v-.24l1.66-1.93H32V236h1.18v1H32v1.28a3.53,3.53,0,0,0,0,.36.35.35,0,0,0,.14.22.53.53,0,0,0,.34.1,1.69,1.69,0,0,0,.77-.29Z" />
      <path d="M36.53,239.81l-.32.12-.39.1a3.38,3.38,0,0,1-.47,0,1.93,1.93,0,0,1-1-.22,1.72,1.72,0,0,1-.61-.55,2.25,2.25,0,0,1-.3-.68,3.1,3.1,0,0,1-.08-.62,2.92,2.92,0,0,1,.08-.61,2.23,2.23,0,0,1,.3-.67,1.69,1.69,0,0,1,.6-.55,2.09,2.09,0,0,1,1-.21A2.68,2.68,0,0,1,36,236a3.28,3.28,0,0,1,.5.17v1.1a2.89,2.89,0,0,0-.95-.22.85.85,0,0,0-.58.23.88.88,0,0,0-.26.7,1,1,0,0,0,.13.54.73.73,0,0,0,.32.31.82.82,0,0,0,.39.11,1.82,1.82,0,0,0,.43-.07c.15,0,.35-.1.57-.18Z" />
      <path d="M40.59,240H39.35v-2.11s0,0,0-.09a1.27,1.27,0,0,0-.11-.52.41.41,0,0,0-.41-.24.57.57,0,0,0-.41.18,2.4,2.4,0,0,0-.34.45V240H36.85v-5.41h1.24v2a1.72,1.72,0,0,1,.61-.51,1.48,1.48,0,0,1,.63-.13c.84,0,1.26.53,1.26,1.6Z" />
    </g>
    <g>
      <path d="M32.27,289.9H30.84v-2.12H28.68v2.12H27.24v-5.42h1.44v2h2.16v-2h1.43Z" />
      <path d="M34.29,289.9H33.05v-4h1.24Zm-.1-4.9a.58.58,0,0,1-.16.42.48.48,0,0,1-.37.17.42.42,0,0,1-.26-.08.55.55,0,0,1-.19-.21.73.73,0,0,1-.06-.3.64.64,0,0,1,.15-.42.48.48,0,0,1,.36-.17.48.48,0,0,1,.37.17A.6.6,0,0,1,34.19,285Z" />
      <path d="M37.62,289.67a3.33,3.33,0,0,1-.53.2,2.57,2.57,0,0,1-.65.1c-.89,0-1.34-.5-1.34-1.49V286.9h-.56v-.25l1.66-1.92h.14v1.19h1.19v1H36.34v1.27a1.73,1.73,0,0,0,0,.36.36.36,0,0,0,.13.23.55.55,0,0,0,.34.09,1.64,1.64,0,0,0,.78-.28Z" />
    </g>
    <g>
      <path d="M24.83,333.06H23.08v4.09H21.65v-4.09H19.9v-1.32h4.93Z" />
      <path d="M28.26,333.39l-.46,1.41a.81.81,0,0,0-.57-.3.56.56,0,0,0-.45.2,2,2,0,0,0-.37.74v1.71H25.17v-4h1.24v1a2.07,2.07,0,0,1,.41-.69.89.89,0,0,1,.7-.34.8.8,0,0,1,.36.07A2.55,2.55,0,0,1,28.26,333.39Z" />
      <path d="M29.67,337.15H28.43v-4h1.24Zm-.1-4.89a.64.64,0,0,1-.15.42.5.5,0,0,1-.37.17.47.47,0,0,1-.26-.08.55.55,0,0,1-.19-.21.6.6,0,0,1-.07-.3.64.64,0,0,1,.15-.42.49.49,0,0,1,.74,0A.64.64,0,0,1,29.57,332.26Z" />
      <path d="M33.76,334h-.61a1,1,0,0,1,.33.78,1.28,1.28,0,0,1-.1.47,1.36,1.36,0,0,1-.26.41,1.51,1.51,0,0,1-.44.28,1.76,1.76,0,0,1-.59.14c-.29,0-.43.1-.43.26a.2.2,0,0,0,.05.14.54.54,0,0,0,.18.06l.4.05a3.43,3.43,0,0,1,.59.11,1.12,1.12,0,0,1,.51.33,1,1,0,0,1,.24.71,1.21,1.21,0,0,1-.18.66,1.13,1.13,0,0,1-.57.44,2.74,2.74,0,0,1-1,.16,2.59,2.59,0,0,1-1.38-.28.85.85,0,0,1-.38-1.06.77.77,0,0,1,.24-.32,1,1,0,0,1,.54-.22.44.44,0,0,1-.22-.19.59.59,0,0,1-.09-.31.82.82,0,0,1,.13-.41.57.57,0,0,1,.41-.26,1.46,1.46,0,0,1-.68-.44,1.24,1.24,0,0,1-.29-.84,1.67,1.67,0,0,1,.14-.69,1.21,1.21,0,0,1,.36-.47,1.38,1.38,0,0,1,.54-.27,2.48,2.48,0,0,1,.68-.09h1.92Zm-1.12,3.87a.32.32,0,0,0-.24-.34,1.81,1.81,0,0,0-.51-.08,1.34,1.34,0,0,0-.62.11.33.33,0,0,0-.19.33c0,.29.26.44.79.44a1.24,1.24,0,0,0,.56-.11A.38.38,0,0,0,32.64,337.9Zm-.24-3.2a.69.69,0,0,0-.18-.49.57.57,0,0,0-.41-.18.55.55,0,0,0-.45.22.76.76,0,0,0-.16.46.71.71,0,0,0,.07.32.63.63,0,0,0,.2.23.54.54,0,0,0,.31.09.57.57,0,0,0,.44-.2A.63.63,0,0,0,32.4,334.7Z" />
      <path d="M37.45,334h-.62a1,1,0,0,1,.33.78,1.27,1.27,0,0,1-.09.47,1.39,1.39,0,0,1-.27.41,1.51,1.51,0,0,1-.44.28,1.76,1.76,0,0,1-.59.14c-.29,0-.43.1-.43.26a.2.2,0,0,0,0,.14.54.54,0,0,0,.18.06l.4.05a3.43,3.43,0,0,1,.59.11,1,1,0,0,1,.51.33,1,1,0,0,1,.24.71,1.21,1.21,0,0,1-.18.66,1,1,0,0,1-.57.44,2.74,2.74,0,0,1-1,.16,2.61,2.61,0,0,1-1.38-.28.87.87,0,0,1-.43-.76.86.86,0,0,1,0-.3.77.77,0,0,1,.24-.32,1.08,1.08,0,0,1,.54-.22.49.49,0,0,1-.22-.19.59.59,0,0,1-.09-.31.82.82,0,0,1,.13-.41.57.57,0,0,1,.41-.26,1.51,1.51,0,0,1-.68-.44,1.24,1.24,0,0,1-.28-.84,1.67,1.67,0,0,1,.13-.69,1.31,1.31,0,0,1,.36-.47,1.35,1.35,0,0,1,.55-.27,2.36,2.36,0,0,1,.67-.09h1.93Zm-1.12,3.87a.33.33,0,0,0-.25-.34,1.7,1.7,0,0,0-.51-.08,1.37,1.37,0,0,0-.62.11.33.33,0,0,0-.19.33c0,.29.26.44.79.44a1.28,1.28,0,0,0,.57-.11A.4.4,0,0,0,36.33,337.9Zm-.25-3.2a.69.69,0,0,0-.18-.49.57.57,0,0,0-.41-.18.55.55,0,0,0-.45.22.83.83,0,0,0-.16.46A.71.71,0,0,0,35,335a.63.63,0,0,0,.2.23.54.54,0,0,0,.31.09.56.56,0,0,0,.44-.2A.63.63,0,0,0,36.08,334.7Z" />
      <path d="M41.2,335.51H38.73a1,1,0,0,0,.36.59,1,1,0,0,0,.63.23,3,3,0,0,0,1.39-.4v.87a2.9,2.9,0,0,1-.66.29,3.08,3.08,0,0,1-1,.13,2.14,2.14,0,0,1-1.1-.27,1.73,1.73,0,0,1-.68-.74,2.42,2.42,0,0,1-.22-1.06,2.38,2.38,0,0,1,.22-1,1.71,1.71,0,0,1,.68-.73,2.24,2.24,0,0,1,1.1-.26,1.76,1.76,0,0,1,.83.21,1.59,1.59,0,0,1,.65.68,2.57,2.57,0,0,1,.26,1.22Zm-1.17-.7a1,1,0,0,0-.16-.61.56.56,0,0,0-.48-.23.61.61,0,0,0-.5.23.93.93,0,0,0-.19.61Z" />
      <path d="M44.6,333.39l-.46,1.41a.81.81,0,0,0-.57-.3.59.59,0,0,0-.45.2,2,2,0,0,0-.37.74v1.71H41.52v-4h1.23v1a1.94,1.94,0,0,1,.42-.69.86.86,0,0,1,.69-.34.87.87,0,0,1,.37.07A2.52,2.52,0,0,1,44.6,333.39Z" />
    </g>
    <g>
      <path d="M103,57.11h2.26A21.88,21.88,0,0,0,102.81,48l-2,1.12A19.6,19.6,0,0,1,103,57.11Z" />
      <path d="M103,59.11a19.55,19.55,0,0,1-2.13,8l2,1.13a21.88,21.88,0,0,0,2.44-9.12Z" />
      <g>
        <path d="M26.7,81.25a2.58,2.58,0,0,1-.11.73,2.11,2.11,0,0,1-.37.67,1.85,1.85,0,0,1-.68.5,2.47,2.47,0,0,1-1,.2H23.34v2.53H21.55V79.12h3a2.48,2.48,0,0,1,1,.19,1.87,1.87,0,0,1,.68.51,2.05,2.05,0,0,1,.37.68A2.67,2.67,0,0,1,26.7,81.25Zm-1.83,0a.76.76,0,0,0-.25-.67,1.75,1.75,0,0,0-.9-.17h-.38v1.63h.39a2.47,2.47,0,0,0,.69-.07.54.54,0,0,0,.34-.23A.87.87,0,0,0,24.87,81.26Z" />
        <path d="M28.72,85.88H27.17v-5h1.55Zm-.12-6.11a.75.75,0,0,1-.2.52.6.6,0,0,1-.46.21.57.57,0,0,1-.32-.09.78.78,0,0,1-.24-.27.77.77,0,0,1-.08-.37.81.81,0,0,1,.18-.53.59.59,0,0,1,.92,0A.78.78,0,0,1,28.6,79.77Z" />
        <path d="M32.89,85.6a4,4,0,0,1-.67.25,2.94,2.94,0,0,1-.81.12c-1.11,0-1.67-.62-1.67-1.85v-2H29v-.3l2.08-2.41h.17v1.49h1.48v1.22H31.29v1.6a2.81,2.81,0,0,0,0,.45.49.49,0,0,0,.17.28.64.64,0,0,0,.42.12,2.11,2.11,0,0,0,1-.36Z" />
        <path d="M37,85.65l-.41.16a2.8,2.8,0,0,1-.48.12,3.65,3.65,0,0,1-.59,0,2.49,2.49,0,0,1-1.21-.27,2.18,2.18,0,0,1-.77-.7,2.75,2.75,0,0,1-.37-.85,3,3,0,0,1,0-1.53,2.84,2.84,0,0,1,.37-.84,2.1,2.1,0,0,1,.76-.68,2.53,2.53,0,0,1,1.22-.27,3.39,3.39,0,0,1,.79.07c.21.06.41.13.62.21V82.5a3.59,3.59,0,0,0-1.18-.28,1.05,1.05,0,0,0-.73.29,1.07,1.07,0,0,0-.32.87,1.26,1.26,0,0,0,.16.67,1,1,0,0,0,.4.4,1.12,1.12,0,0,0,.49.13,2.27,2.27,0,0,0,.53-.08c.2,0,.44-.13.72-.23Z" />
        <path d="M42,85.88H40.48V83.31a.13.13,0,0,1,0-.06v-.11a1.59,1.59,0,0,0-.14-.66.49.49,0,0,0-.5-.3.71.71,0,0,0-.52.23,2.48,2.48,0,0,0-.42.55v2.92H37.36V79.12h1.55v2.51a2.25,2.25,0,0,1,.75-.64,2,2,0,0,1,.8-.16c1,0,1.57.66,1.57,2Z" />
      </g>
      <g>
        <path d="M40.74,40.53l1.12-2a21.89,21.89,0,0,0-9.12-2.45v2.26A19.61,19.61,0,0,1,40.74,40.53Z" />
        <path d="M48.32,47.38l2-1.12a22.13,22.13,0,0,0-6.67-6.68l-1.13,2A19.89,19.89,0,0,1,48.32,47.38Z" />
        <path d="M21,41.53l-1.13-2a22.17,22.17,0,0,0-6.68,6.68l1.95,1.12A19.93,19.93,0,0,1,21,41.53Z" />
        <path d="M51.46,57.11h2.26A21.89,21.89,0,0,0,51.27,48l-2,1.12A19.45,19.45,0,0,1,51.46,57.11Z" />
        <path d="M30.74,38.39V36.13a21.89,21.89,0,0,0-9.12,2.45l1.13,2A19.6,19.6,0,0,1,30.74,38.39Z" />
        <path d="M15.16,68.84,13.21,70a22.17,22.17,0,0,0,6.68,6.68l1.13-2A20,20,0,0,1,15.16,68.84Z" />
        <path d="M42.47,74.69l1.13,2A22.13,22.13,0,0,0,50.27,70l-2-1.12A20,20,0,0,1,42.47,74.69Z" />
        <path d="M51.46,59.11a19.41,19.41,0,0,1-2.14,8l2,1.13a21.89,21.89,0,0,0,2.45-9.12Z" />
        <path d="M12,59.11H9.77a21.88,21.88,0,0,0,2.44,9.12l1.95-1.13A19.55,19.55,0,0,1,12,59.11Z" />
        <path d="M14.16,49.11,12.21,48a21.88,21.88,0,0,0-2.44,9.12H12A19.6,19.6,0,0,1,14.16,49.11Z" />
      </g>
      <g>
        <path d="M66.83,83.92a2.07,2.07,0,0,1-.29,1.1,2,2,0,0,1-.8.71,2.72,2.72,0,0,1-1.17.24l-.45,0a5.18,5.18,0,0,1-.72-.15,7.24,7.24,0,0,1-.92-.36V83.77a5.21,5.21,0,0,0,.89.53,2.11,2.11,0,0,0,.93.21.79.79,0,0,0,.6-.17A.53.53,0,0,0,65,84a.59.59,0,0,0-.23-.46,3.86,3.86,0,0,0-.68-.39,4.76,4.76,0,0,1-.86-.51,2.23,2.23,0,0,1-.6-.69,1.9,1.9,0,0,1-.23-1,2.06,2.06,0,0,1,.23-1,1.74,1.74,0,0,1,.72-.7A2.43,2.43,0,0,1,64.57,79a3.8,3.8,0,0,1,.92.11,4.25,4.25,0,0,1,.7.25,2.13,2.13,0,0,1,.38.22v1.58a4.81,4.81,0,0,0-.82-.53,2,2,0,0,0-1-.23.66.66,0,0,0-.48.14.49.49,0,0,0-.15.36.47.47,0,0,0,.15.35,2.46,2.46,0,0,0,.54.36,10.23,10.23,0,0,1,1.1.66,2.25,2.25,0,0,1,.64.67A1.8,1.8,0,0,1,66.83,83.92Z" />
        <path d="M72.11,85.88H70.57V83.14a1.76,1.76,0,0,0-.13-.66.51.51,0,0,0-.51-.3.71.71,0,0,0-.52.23A2.48,2.48,0,0,0,69,83v2.92H67.44V79.12H69v2.51a2.35,2.35,0,0,1,.75-.64,2,2,0,0,1,.8-.16c1,0,1.57.66,1.57,2Z" />
        <path d="M77.23,85.64a6.53,6.53,0,0,1-.63.24,2.31,2.31,0,0,1-.69.09.76.76,0,0,1-.54-.15.83.83,0,0,1-.21-.38,2.13,2.13,0,0,1-.56.38,1.81,1.81,0,0,1-.8.15,1.4,1.4,0,0,1-.77-.19,1,1,0,0,1-.41-.47,1.52,1.52,0,0,1-.12-.59,1.31,1.31,0,0,1,.21-.76,1.6,1.6,0,0,1,.54-.49,6.68,6.68,0,0,1,.92-.39l.48-.18.25-.1.17-.08a1,1,0,0,0-.13-.57c-.08-.14-.27-.21-.56-.21a1.85,1.85,0,0,0-.94.26,3.46,3.46,0,0,0-.79.65V81.5a3,3,0,0,1,.62-.38,3.55,3.55,0,0,1,.7-.22,3.71,3.71,0,0,1,.74-.07,2.12,2.12,0,0,1,1.43.41,1.44,1.44,0,0,1,.48,1.15v1.92a1.44,1.44,0,0,0,0,.41.17.17,0,0,0,.17.13.83.83,0,0,0,.4-.14Zm-2.16-1V83.51a4.72,4.72,0,0,0-.8.45.67.67,0,0,0-.25.55.52.52,0,0,0,.12.38.41.41,0,0,0,.3.13.54.54,0,0,0,.31-.1A1.67,1.67,0,0,0,75.07,84.68Z" />
        <path d="M81.2,81.18l-.57,1.76a1,1,0,0,0-.71-.38.76.76,0,0,0-.57.26,2.48,2.48,0,0,0-.45.93v2.13H77.35v-5H78.9v1.2a2.5,2.5,0,0,1,.51-.86,1.14,1.14,0,0,1,.87-.42,1.26,1.26,0,0,1,.46.08A3.55,3.55,0,0,1,81.2,81.18Z" />
        <path d="M86.15,83.36a3.85,3.85,0,0,1-.12,1,2.74,2.74,0,0,1-.38.83,1.87,1.87,0,0,1-.66.59,1.89,1.89,0,0,1-.94.22,1.75,1.75,0,0,1-.67-.1,3.06,3.06,0,0,1-.5-.27v2.55H81.34V80.91h1.54v.45A2.39,2.39,0,0,1,83.4,81a1.63,1.63,0,0,1,.76-.15,1.93,1.93,0,0,1,.94.26,2,2,0,0,1,.75.84A3.06,3.06,0,0,1,86.15,83.36Zm-1.63,0a1.89,1.89,0,0,0-.12-.73,1,1,0,0,0-.32-.4.82.82,0,0,0-.41-.13.94.94,0,0,0-.45.1,1.62,1.62,0,0,0-.34.26v1.9l.18.1a.87.87,0,0,0,.18.11l.2.07a.85.85,0,0,0,.23,0,.72.72,0,0,0,.61-.35A1.66,1.66,0,0,0,84.52,83.4Z" />
        <path d="M91.27,85.88H89.73V83.2a1.92,1.92,0,0,0-.12-.71.49.49,0,0,0-.52-.31.67.67,0,0,0-.33.08,1.33,1.33,0,0,0-.26.21,1.84,1.84,0,0,0-.19.25l-.16.24v2.92H86.6v-5h1.55v.72a2.28,2.28,0,0,1,.73-.63,2,2,0,0,1,.82-.17c1,0,1.57.71,1.57,2.13Z" />
        <path d="M96.33,83.82H93.25a1.25,1.25,0,0,0,.45.75,1.22,1.22,0,0,0,.8.28,3.74,3.74,0,0,0,1.72-.49v1.08a3.94,3.94,0,0,1-.82.37,3.86,3.86,0,0,1-1.23.16,2.62,2.62,0,0,1-1.38-.34A2.16,2.16,0,0,1,92,84.7a3.15,3.15,0,0,1,0-2.64,2.08,2.08,0,0,1,.84-.9,2.71,2.71,0,0,1,1.38-.33,2.13,2.13,0,0,1,1,.26,2,2,0,0,1,.81.85,3.16,3.16,0,0,1,.32,1.53ZM94.88,83a1.27,1.27,0,0,0-.21-.76.69.69,0,0,0-.6-.29.76.76,0,0,0-.62.3,1.13,1.13,0,0,0-.24.75Z" />
        <path d="M100.16,84.43a1.48,1.48,0,0,1-.44,1.12,1.82,1.82,0,0,1-1.31.42,3.22,3.22,0,0,1-.86-.1,5.7,5.7,0,0,1-.82-.28V84.34a5,5,0,0,0,.68.38,1.45,1.45,0,0,0,.63.13c.38,0,.58-.12.58-.36a.29.29,0,0,0-.09-.21.94.94,0,0,0-.29-.22l-.56-.29A2.26,2.26,0,0,1,97,83.2a1.34,1.34,0,0,1-.3-.88,1.45,1.45,0,0,1,.2-.72,1.58,1.58,0,0,1,.61-.56,2.07,2.07,0,0,1,1-.21,2.37,2.37,0,0,1,.35,0,3,3,0,0,1,.54.11,2.43,2.43,0,0,1,.62.27v1.21l-.23-.15-.25-.15c-.1,0-.23-.09-.36-.14a1.59,1.59,0,0,0-.43-.06.47.47,0,0,0-.37.12.42.42,0,0,0-.1.24.31.31,0,0,0,.11.22,1.54,1.54,0,0,0,.46.26,3.79,3.79,0,0,1,.82.47,1.26,1.26,0,0,1,.44.52A1.5,1.5,0,0,1,100.16,84.43Z" />
        <path d="M104.07,84.43a1.51,1.51,0,0,1-.44,1.12,1.82,1.82,0,0,1-1.31.42,3.22,3.22,0,0,1-.86-.1,6.25,6.25,0,0,1-.83-.28V84.34a5.62,5.62,0,0,0,.68.38,1.45,1.45,0,0,0,.63.13c.39,0,.58-.12.58-.36a.28.28,0,0,0-.08-.21,1.08,1.08,0,0,0-.29-.22l-.56-.29a2.16,2.16,0,0,1-.73-.57,1.34,1.34,0,0,1-.3-.88,1.45,1.45,0,0,1,.2-.72,1.48,1.48,0,0,1,.6-.56,2.12,2.12,0,0,1,1-.21,2.37,2.37,0,0,1,.35,0,3,3,0,0,1,.54.11,2.37,2.37,0,0,1,.61.27v1.21l-.23-.15a2.08,2.08,0,0,0-.24-.15L103,82a1.54,1.54,0,0,0-.43-.06.46.46,0,0,0-.36.12.36.36,0,0,0-.1.24.3.3,0,0,0,.1.22,1.7,1.7,0,0,0,.46.26,3.89,3.89,0,0,1,.83.47,1.34,1.34,0,0,1,.44.52A1.5,1.5,0,0,1,104.07,84.43Z" />
      </g>
      <path d="M92.27,40.53l1.13-2a21.89,21.89,0,0,0-9.12-2.45v2.26A19.56,19.56,0,0,1,92.27,40.53Z" />
      <path d="M99.86,47.38l2-1.12a22.17,22.17,0,0,0-6.68-6.68l-1.13,2A19.93,19.93,0,0,1,99.86,47.38Z" />
      <path d="M72.55,41.53l-1.13-2a22.13,22.13,0,0,0-6.67,6.68l2,1.12A19.89,19.89,0,0,1,72.55,41.53Z" />
      <path d="M82.28,38.39V36.13a21.89,21.89,0,0,0-9.12,2.45l1.12,2A19.61,19.61,0,0,1,82.28,38.39Z" />
      <path d="M66.7,68.84l-2,1.12a22.13,22.13,0,0,0,6.67,6.68l1.13-2A20,20,0,0,1,66.7,68.84Z" />
      <path d="M94,74.69l1.13,2A22.17,22.17,0,0,0,101.81,70l-2-1.12A20,20,0,0,1,94,74.69Z" />
      <path d="M63.56,59.11H61.3a21.89,21.89,0,0,0,2.45,9.12l2-1.13A19.41,19.41,0,0,1,63.56,59.11Z" />
      <path d="M65.7,49.11l-2-1.12a21.89,21.89,0,0,0-2.45,9.12h2.26A19.45,19.45,0,0,1,65.7,49.11Z" />
      <g>
        <path d="M31.72,147.2h-1.8v-2.64h-2.7v2.64H25.43v-6.77h1.79v2.49h2.7v-2.49h1.8Z" />
        <path d="M34.23,147.2H32.68v-5h1.55Zm-.12-6.12a.74.74,0,0,1-.19.52.6.6,0,0,1-.46.22.64.64,0,0,1-.33-.1.7.7,0,0,1-.24-.27.87.87,0,0,1-.08-.37.74.74,0,0,1,.19-.52.57.57,0,0,1,.46-.22.6.6,0,0,1,.46.22A.74.74,0,0,1,34.11,141.08Z" />
        <path d="M38.4,146.91a3.17,3.17,0,0,1-.66.25,2.73,2.73,0,0,1-.81.13q-1.68,0-1.68-1.86v-2h-.7v-.31l2.08-2.4h.18v1.49h1.47v1.22H36.81V145a2.83,2.83,0,0,0,0,.45.46.46,0,0,0,.17.28.67.67,0,0,0,.43.12,2.16,2.16,0,0,0,1-.35Z" />
      </g>
      <path d="M40.74,101.93l1.12-2a21.73,21.73,0,0,0-9.12-2.44v2.25A19.77,19.77,0,0,1,40.74,101.93Z" />
      <path d="M48.32,108.78l2-1.12A22.13,22.13,0,0,0,43.6,101l-1.13,2A19.89,19.89,0,0,1,48.32,108.78Z" />
      <path d="M21,102.93l-1.13-2a22.17,22.17,0,0,0-6.68,6.68l1.95,1.12A19.93,19.93,0,0,1,21,102.93Z" />
      <path d="M51.46,118.51h2.26a21.89,21.89,0,0,0-2.45-9.12l-2,1.12A19.49,19.49,0,0,1,51.46,118.51Z" />
      <path d="M30.74,99.79V97.54A21.73,21.73,0,0,0,21.62,100l1.13,2A19.76,19.76,0,0,1,30.74,99.79Z" />
      <path d="M15.16,130.24l-1.95,1.12A22.17,22.17,0,0,0,19.89,138L21,136.09A19.93,19.93,0,0,1,15.16,130.24Z" />
      <path d="M42.47,136.09,43.6,138a22.13,22.13,0,0,0,6.67-6.68l-2-1.12A19.89,19.89,0,0,1,42.47,136.09Z" />
      <path d="M51.46,120.51a19.49,19.49,0,0,1-2.14,8l2,1.12a21.89,21.89,0,0,0,2.45-9.12Z" />
      <path d="M12,120.51H9.77a21.88,21.88,0,0,0,2.44,9.12l1.95-1.12A19.64,19.64,0,0,1,12,120.51Z" />
      <path d="M14.16,110.51l-1.95-1.12a21.88,21.88,0,0,0-2.44,9.12H12A19.64,19.64,0,0,1,14.16,110.51Z" />
      <g>
        <path d="M64.52,145.23a2.07,2.07,0,0,1-.28,1.1,1.9,1.9,0,0,1-.8.71,2.72,2.72,0,0,1-1.17.25l-.46,0a5.09,5.09,0,0,1-.71-.15,5.2,5.2,0,0,1-.93-.36v-1.66a7.17,7.17,0,0,0,.89.53,2.12,2.12,0,0,0,.94.21.73.73,0,0,0,.59-.18.53.53,0,0,0,.14-.32.58.58,0,0,0-.23-.46,2.91,2.91,0,0,0-.68-.39A5.74,5.74,0,0,1,61,144a2.2,2.2,0,0,1-.6-.69,2,2,0,0,1-.24-1,2,2,0,0,1,.24-1,1.76,1.76,0,0,1,.72-.71,2.55,2.55,0,0,1,1.19-.26,3.36,3.36,0,0,1,.92.11,3.78,3.78,0,0,1,.7.24l.38.22v1.59a5.29,5.29,0,0,0-.82-.54,2.12,2.12,0,0,0-1-.23.66.66,0,0,0-.48.15.46.46,0,0,0-.15.36.45.45,0,0,0,.15.34,2.6,2.6,0,0,0,.53.36,8.56,8.56,0,0,1,1.1.66,2.21,2.21,0,0,1,.65.68A1.74,1.74,0,0,1,64.52,145.23Z" />
        <path d="M68.59,146.91a3.07,3.07,0,0,1-.67.25,2.63,2.63,0,0,1-.81.13c-1.11,0-1.67-.62-1.67-1.86v-2h-.7v-.31l2.08-2.4H67v1.49h1.48v1.22H67V145a2.64,2.64,0,0,0,0,.45.46.46,0,0,0,.17.28.67.67,0,0,0,.43.12,2.16,2.16,0,0,0,1-.35Z" />
        <path d="M72.76,142.5l-.57,1.76a1,1,0,0,0-.71-.38.75.75,0,0,0-.57.25,2.64,2.64,0,0,0-.46.93v2.14H68.91v-5h1.54v1.2a2.48,2.48,0,0,1,.52-.87,1.12,1.12,0,0,1,.87-.42,1.06,1.06,0,0,1,.45.09A3.58,3.58,0,0,1,72.76,142.5Z" />
        <path d="M74.53,147.2H73v-5h1.55Zm-.12-6.12a.75.75,0,0,1-.2.52.58.58,0,0,1-.46.22.64.64,0,0,1-.33-.1.77.77,0,0,1-.23-.27.75.75,0,0,1-.08-.37.78.78,0,0,1,.18-.52.59.59,0,0,1,.92,0A.75.75,0,0,1,74.41,141.08Z" />
        <path d="M80.44,147.2h-2l-1.68-2.36v2.36H75.24v-6.77H76.8v4l1.53-2.17h1.86l-1.71,2.32Z" />
        <path d="M85.07,145.14H82a1.27,1.27,0,0,0,1.24,1,3.8,3.8,0,0,0,1.73-.5v1.09a4.56,4.56,0,0,1-.82.36,3.83,3.83,0,0,1-1.23.17,2.62,2.62,0,0,1-1.38-.35,2.1,2.1,0,0,1-.85-.92,3.16,3.16,0,0,1-.28-1.33,3,3,0,0,1,.28-1.31,2.08,2.08,0,0,1,.85-.91,2.71,2.71,0,0,1,1.38-.33,2.25,2.25,0,0,1,1,.26,2,2,0,0,1,.81.85,3.17,3.17,0,0,1,.32,1.54Zm-1.45-.87a1.28,1.28,0,0,0-.21-.77.7.7,0,0,0-.6-.28.77.77,0,0,0-.62.29,1.15,1.15,0,0,0-.24.76Z" />
        <path d="M94.54,147.2H92.7l-.49-1.37H89.62l-.49,1.37H87.29l2.63-6.77h2Zm-2.74-2.55-.87-2.47L90,144.65Z" />
        <path d="M102.51,147.2H101v-2.65a1.6,1.6,0,0,0-.15-.79.53.53,0,0,0-.49-.26.69.69,0,0,0-.53.22,4.08,4.08,0,0,0-.41.56v2.92H97.84v-2.65a1.65,1.65,0,0,0-.14-.78.51.51,0,0,0-.5-.27.68.68,0,0,0-.32.07,1.54,1.54,0,0,0-.23.18,3.51,3.51,0,0,0-.22.29l-.16.24v2.92H94.72v-5h1.55v.71a2.44,2.44,0,0,1,.71-.61,1.72,1.72,0,0,1,.83-.19,1.54,1.54,0,0,1,.43.05,1.56,1.56,0,0,1,.39.15,1.49,1.49,0,0,1,.36.31,1.56,1.56,0,0,1,.25.46,3.1,3.1,0,0,1,.78-.73,1.73,1.73,0,0,1,.92-.24,1.54,1.54,0,0,1,.88.24,1.43,1.43,0,0,1,.53.69,3.23,3.23,0,0,1,.16,1.1Z" />
        <path d="M106.53,146.91a3.17,3.17,0,0,1-.66.25,2.63,2.63,0,0,1-.81.13c-1.12,0-1.67-.62-1.67-1.86v-2h-.7v-.31l2.07-2.4h.18v1.49h1.48v1.22h-1.48V145a2.64,2.64,0,0,0,0,.45.42.42,0,0,0,.17.28.62.62,0,0,0,.42.12,2.12,2.12,0,0,0,1-.35Z" />
      </g>
      <path d="M92.27,101.93l1.13-2a21.73,21.73,0,0,0-9.12-2.44v2.25A19.72,19.72,0,0,1,92.27,101.93Z" />
      <path d="M99.86,108.78l2-1.12A22.17,22.17,0,0,0,95.13,101l-1.13,2A19.93,19.93,0,0,1,99.86,108.78Z" />
      <path d="M72.55,102.93l-1.13-2a22.13,22.13,0,0,0-6.67,6.68l2,1.12A19.89,19.89,0,0,1,72.55,102.93Z" />
      <path d="M103,118.51h2.26a21.88,21.88,0,0,0-2.44-9.12l-2,1.12A19.64,19.64,0,0,1,103,118.51Z" />
      <path d="M82.28,99.79V97.54A21.73,21.73,0,0,0,73.16,100l1.12,2A19.77,19.77,0,0,1,82.28,99.79Z" />
      <path d="M66.7,130.24l-2,1.12A22.13,22.13,0,0,0,71.42,138l1.13-1.95A19.89,19.89,0,0,1,66.7,130.24Z" />
      <path d="M94,136.09,95.13,138a22.17,22.17,0,0,0,6.68-6.68l-2-1.12A19.93,19.93,0,0,1,94,136.09Z" />
      <path d="M103,120.51a19.64,19.64,0,0,1-2.13,8l2,1.12a21.88,21.88,0,0,0,2.44-9.12Z" />
      <path d="M63.56,120.51H61.3a21.89,21.89,0,0,0,2.45,9.12l2-1.12A19.49,19.49,0,0,1,63.56,120.51Z" />
      <path d="M65.7,110.51l-2-1.12a21.89,21.89,0,0,0-2.45,9.12h2.26A19.49,19.49,0,0,1,65.7,110.51Z" />
    </g>
    <g>
      <path d="M63.34,8.16l-5.53,7v-6A1.29,1.29,0,0,0,57.17,8,.89.89,0,0,0,56,8.28l-7.28,9.25a1.49,1.49,0,0,0,0,1.79.91.91,0,0,0,1.46,0l5.5-7v6a1.29,1.29,0,0,0,.64,1.17.91.91,0,0,0,1.14-.3l5.53-7v6.16a1.05,1.05,0,1,0,2.06,0V9a1.29,1.29,0,0,0-.65-1.18A.91.91,0,0,0,63.34,8.16Z" style="stroke: #000;stroke-width: 0.6000000000000001px" />
      <path d="M48.76,8.09,44,14.21A1.47,1.47,0,0,0,44,16a.9.9,0,0,0,1.46,0l3-3.87v6.31a1.05,1.05,0,1,0,2.06,0V9a1.29,1.29,0,0,0-.65-1.17A.91.91,0,0,0,48.76,8.09Z" style="stroke: #000;stroke-width: 0.6000000000000001px" />
      <path d="M71.71,12.61a1,1,0,0,0-.95-.78h-2.1l1.53-1.95s.8-1.17.1-1.82a1.27,1.27,0,0,0-1.58.06l-3.23,4.1a1.47,1.47,0,0,0-.2,1.38,1.05,1.05,0,0,0,1,.77h2.1l-2.49,3.17s-1,1.13-.27,1.89,1.75-.14,1.75-.14L71.5,14A1.48,1.48,0,0,0,71.71,12.61Z" style="stroke: #000;stroke-width: 0.6000000000000001px" />
    </g>
  </g>
  <g /></svg>