<?xml version="1.0" encoding="UTF-8" standalone="no"?>
<svg
   width="76.2mm"
   height="132.13mm"
   viewBox="0 0 216 374.53"
   version="1.1"
   id="svg161"
   sodipodi:docname="Drum_artwork.svg"
   inkscape:version="1.4.2 (ebf0e940, 2025-05-08)"
   xmlns:inkscape="http://www.inkscape.org/namespaces/inkscape"
   xmlns:sodipodi="http://sodipodi.sourceforge.net/DTD/sodipodi-0.dtd"
   xmlns="http://www.w3.org/2000/svg"
   xmlns:svg="http://www.w3.org/2000/svg">
  <defs
     id="defs161" />
  <sodipodi:namedview
     id="namedview161"
     pagecolor="#ffffff"
     bordercolor="#000000"
     borderopacity="0.25"
     inkscape:showpageshadow="2"
     inkscape:pageopacity="0.0"
     inkscape:pagecheckerboard="0"
     inkscape:deskcolor="#d1d1d1"
     inkscape:document-units="mm"
     inkscape:zoom="0.46515047"
     inkscape:cx="446.0922"
     inkscape:cy="541.76017"
     inkscape:window-width="1200"
     inkscape:window-height="979"
     inkscape:window-x="528"
     inkscape:window-y="38"
     inkscape:window-maximized="0"
     inkscape:current-layer="Layer_4" />
  <g
     id="faceplate">
    <g
       id="g1">
      <path
         id="rect1"
         style="fill:#ededed;stroke-width:0px"
         d="m 0.13,0.13 h 215.75 v 364 H 0.13 Z" />
      <path
         d="M215.75.25v363.75H.25V.25h215.5M216,0H0v364.25h216V0h0Z"
         style="fill: #9d9d9e; stroke-width: 0px;"
         id="path1" />
    </g>
    <g
       id="g4">
      <path
         d="M99.8,18.19c-.37,0-.71-.17-.97-.47-.51-.6-.52-1.54-.04-2.16l6.97-8.88c.38-.48,1.05-.65,1.57-.39.5.25.79.82.79,1.45v4.77l4.64-5.85c.38-.48,1.01-.64,1.53-.38.5.25.83.81.83,1.44v8.82c0,.86-.61,1.57-1.36,1.57s-1.36-.7-1.36-1.57v-4.79l-4.64,5.85c-.38.48-1.01.64-1.54.38-.5-.24-.83-.81-.83-1.44v-4.67l-4.61,5.8c-.26.32-.62.51-1,.51h0Z"
         style="fill: #2cabe1; stroke-width: 0px;"
         id="path2" />
      <path
         d="M99.8,18.19c-.75,0-1.35-.7-1.35-1.57v-4.93l-2.26,2.84c-.5.63-1.44.65-1.97.04-.51-.6-.52-1.53-.03-2.15l4.61-5.76c.26-.32.63-.5,1-.5.18,0,.37.04.54.12.5.25.82.81.82,1.44v8.89c0,.86-.61,1.57-1.36,1.57h0Z"
         style="fill: #ea2228; stroke-width: 0px;"
         id="path3" />
      <path
         d="M116.4,18.21h0c-.35,0-.68-.15-.94-.42-.76-.78-.14-1.84.29-2.3l1.95-2.36-1.26-.02c-.56-.01-1.04-.4-1.24-1-.19-.56-.07-1.21.29-1.64l3.16-3.83c.23-.28.55-.48,1.13-.47.33,0,.67.17.92.4.71.66.29,1.7-.07,2.2l-1.04,1.26,1.26.02c.56.01,1.04.4,1.24,1,.19.56.07,1.21-.29,1.64l-4.1,4.97c-.35.35-.65.55-1.3.54h0Z"
         style="fill: #00a650; stroke-width: 0px;"
         id="path4" />
    </g>
    <g
       id="Layer_3"
       data-name="Layer 3">
      <g
         id="g8">
        <g
           id="g7">
          <path
             d="M31.57,341.95h129.33s23.6,0,23.6,0c7.49,0,13.57-7.04,13.57-15.71v-107.97l-.06-6.23c-.3-8.38-6.24-15.07-13.54-15.07H31.54c-7.3,0-13.25,6.69-13.54,15.07l-.06,6.23v46.63l.07,61.34"
             style="fill: #ededed; stroke: #000; stroke-miterlimit: 10;"
             id="path5" />
          <path
             d="M198.51,317.02v-23.22h-1.14s-20.4,0-20.4,0c-7.49,0-13.57,7.04-13.57,15.71v32.44s0,.5,0,.5h15.07s0,0,0,0h14.39c3.12,0,5.64-2.55,5.64-5.67v-10.04s0-9.8,0-9.8v.08Z"
             style="fill: #000; stroke-width: 0px;"
             id="path6" />
          <path
             d="M17.49,317.02v-23.22h1.14s20.4,0,20.4,0c7.49,0,13.57,7.04,13.57,15.71v32.44s0,.5,0,.5h-15.07s0,0,0,0h-14.39c-3.12,0-5.64-2.55-5.64-5.67v-10.04s0-9.8,0-9.8v.08Z"
             style="fill: #000; stroke-width: 0px;"
             id="path7" />
        </g>
        <path
           d="M18,325.32v10.96c0,3.12,2.55,5.67,5.67,5.67h12.93"
           style="fill: none; stroke: #000; stroke-miterlimit: 10;"
           id="path8" />
      </g>
    </g>
    <g
       id="Layer_4"
       data-name="Layer 4">
      <path
         d="M 7.3388672,-5.1220703 H 4.8583984 V 0 H 2.8222656 V -5.1220703 H 0.34179688 V -6.7675781 H 7.3388672 Z m 4.9906248,2.6318359 q 0,0.7421875 -0.322266,1.3232422 -0.322265,0.5810547 -0.966796,0.91796876 -0.639649,0.33691406 -1.5625004,0.33691406 -0.9228516,0 -1.5673828,-0.33691406 Q 7.2708983,-0.5859375 6.9486327,-1.1669922 6.6312499,-1.7480469 6.6312499,-2.4902344 q 0,-0.5615234 0.1757813,-1.0205078 0.180664,-0.4589844 0.5419921,-0.8105469 0.366211,-0.3564453 0.8984375,-0.546875 0.5322266,-0.1904296 1.2304688,-0.1904296 0.7031254,0 1.2402344,0.1953125 0.541992,0.1904296 0.893555,0.5371093 0.356445,0.3466797 0.537109,0.8105469 0.180664,0.4638672 0.180664,1.0253906 z m -1.850586,0 q 0,-0.5908203 -0.258789,-0.9228515 Q 9.9662108,-3.75 9.4779296,-3.75 q -0.4833984,0 -0.7421875,0.3369141 -0.2539063,0.3320312 -0.2539063,0.9228515 0,0.5859375 0.2587891,0.9277344 0.2587891,0.3417969 0.7373047,0.3417969 0.4882812,0 0.7421874,-0.3369141 0.258789,-0.3417969 0.258789,-0.9326172 z M 18.150195,0 h -1.757812 v -2.6806641 q 0,-0.4101562 -0.136719,-0.7128906 -0.131836,-0.3076172 -0.585938,-0.3076172 -0.214843,0 -0.380859,0.083008 -0.161133,0.078125 -0.292969,0.2050782 -0.126953,0.1269531 -0.214844,0.2441406 -0.08789,0.1171875 -0.180664,0.2490234 V 0 h -1.757812 v -4.9707031 h 1.757812 v 0.7128906 q 0.415039,-0.4443359 0.830079,-0.6201172 0.419921,-0.180664 0.932617,-0.180664 1.787109,0 1.787109,2.1386718 z m 5.752343,-2.0605469 h -3.500976 q 0.102539,0.4541016 0.502929,0.7421875 0.400391,0.288086 0.908204,0.288086 0.888671,0 1.96289,-0.4980469 v 1.08886717 q -0.385742,0.20019532 -0.9375,0.36621094 -0.546875,0.16113281 -1.396484,0.16113281 -0.917969,0 -1.5625,-0.34179687 -0.644531,-0.34179687 -0.966797,-0.92773435 -0.317383,-0.5859375 -0.317383,-1.328125 0,-0.7324219 0.317383,-1.3085938 0.322266,-0.5810547 0.966797,-0.9082031 0.644531,-0.3320312 1.5625,-0.3320312 0.605469,0 1.166992,0.2636718 0.566406,0.2587891 0.927734,0.8544922 0.366211,0.5908203 0.366211,1.5283203 z m -1.65039,-0.8691406 q 0,-0.4785156 -0.239258,-0.7617188 -0.234375,-0.2880859 -0.678711,-0.2880859 -0.439453,0 -0.712891,0.2929688 -0.268554,0.2880859 -0.268554,0.7568359 z M 32.326172,0 h -5.102539 v -6.7675781 h 5.019531 v 1.3574219 h -2.978516 v 1.2402343 h 2.841797 v 1.3623047 h -2.841797 v 1.4453125 h 3.061524 z m 5.986717,0 h -1.757812 v -2.6806641 q 0,-0.4101562 -0.136719,-0.7128906 -0.131836,-0.3076172 -0.585938,-0.3076172 -0.214843,0 -0.380859,0.083008 -0.161133,0.078125 -0.292969,0.2050782 -0.126953,0.1269531 -0.214844,0.2441406 -0.08789,0.1171875 -0.180664,0.2490234 V 0 h -1.757812 v -4.9707031 h 1.757812 v 0.7128906 q 0.415039,-0.4443359 0.830079,-0.6201172 0.419921,-0.180664 0.932617,-0.180664 1.787109,0 1.787109,2.1386718 z M 44.206837,-4.9707031 41.946095,0 h -1.298829 l -2.211914,-4.9707031 h 1.889649 l 1.030273,2.602539 1.142578,-2.602539 z"
         id="text8"
         style="font-weight:700;font-size:10px;font-family:GillSans-Bold, 'Gill Sans';letter-spacing:-0.04em"
         transform="translate(23.6 189.47) scale(.88 1)"
         aria-label="Tone Env" />
      <path
         d="M43.5,143.48c-.83,0-1.65.07-2.45.17l-.39-2.21c.93-.12,1.88-.19,2.84-.19s1.91.07,2.84.19l-.39,2.21c-.81-.1-1.62-.17-2.45-.17Z"
         style="fill: #000; stroke-width: 0px;"
         id="path9" />
      <path
         d="M29.01,149.85l-1.73-1.45c1.28-1.4,2.74-2.63,4.34-3.66l1.12,1.94c-1.38.9-2.62,1.96-3.73,3.16Z"
         style="fill: #000; stroke-width: 0px;"
         id="path10" />
      <path
         d="M34.47,145.68l-1.12-1.94c1.67-.87,3.46-1.53,5.34-1.95l.39,2.21c-1.62.37-3.16.94-4.61,1.69Z"
         style="fill: #000; stroke-width: 0px;"
         id="path11" />
      <path
         d="M25.27,155.61l-2.1-.76c.73-1.77,1.69-3.42,2.83-4.92l1.73,1.45c-.98,1.3-1.82,2.71-2.46,4.23Z"
         style="fill: #000; stroke-width: 0px;"
         id="path12" />
      <path
         d="M47.92,143.99l.39-2.21c1.88.42,3.67,1.08,5.34,1.95l-1.12,1.94c-1.44-.74-2.98-1.31-4.6-1.69Z"
         style="fill: #000; stroke-width: 0px;"
         id="path13" />
      <path
         d="M23.78,162.31h-2.26c.08-1.93.41-3.8.96-5.58l2.11.77c-.47,1.53-.73,3.15-.81,4.81Z"
         style="fill: #000; stroke-width: 0px;"
         id="path14" />
      <path
         d="M24.65,169.11l-2.1.76c-.57-1.79-.91-3.65-1.01-5.56h2.23c.09,1.65.39,3.25.88,4.8Z"
         style="fill: #000; stroke-width: 0px;"
         id="path15" />
      <path
         d="M27.79,175.19l-1.71,1.44c-1.15-1.5-2.11-3.14-2.84-4.88l2.1-.77c.64,1.5,1.46,2.91,2.45,4.2Z"
         style="fill: #000; stroke-width: 0px;"
         id="path16" />
      <path
         d="M59.27,151.38l1.73-1.45c1.14,1.5,2.1,3.15,2.83,4.92l-2.1.77c-.64-1.52-1.48-2.93-2.46-4.23Z"
         style="fill: #000; stroke-width: 0px;"
         id="path17" />
      <path
         d="M62.41,157.49l2.11-.77c.55,1.78.88,3.65.96,5.58h-2.26c-.08-1.66-.34-3.28-.81-4.81Z"
         style="fill: #000; stroke-width: 0px;"
         id="path18" />
      <path
         d="M63.23,164.31h2.23c-.09,1.91-.44,3.78-1.01,5.56l-2.1-.77c.48-1.54.79-3.15.88-4.8Z"
         style="fill: #000; stroke-width: 0px;"
         id="path19" />
      <path
         d="M61.66,170.99l2.11.77c-.73,1.74-1.69,3.38-2.84,4.88l-1.71-1.44c.99-1.3,1.81-2.71,2.45-4.2Z"
         style="fill: #000; stroke-width: 0px;"
         id="path20" />
      <path
         d="M32.81,179.83l-1.12,1.93c-1.61-1.03-3.05-2.24-4.32-3.62l1.71-1.44c1.1,1.18,2.34,2.23,3.72,3.12Z"
         style="fill: #000; stroke-width: 0px;"
         id="path21" />
      <path
         d="M57.92,176.71l1.71,1.44c-1.27,1.37-2.71,2.59-4.32,3.62l-1.12-1.93c1.38-.89,2.62-1.94,3.72-3.12Z"
         style="fill: #000; stroke-width: 0px;"
         id="path22" />
      <path
         d="M54.26,146.68l1.12-1.94c1.6,1.03,3.06,2.26,4.34,3.66l-1.73,1.45c-1.11-1.2-2.36-2.27-3.74-3.16Z"
         style="fill: #000; stroke-width: 0px;"
         id="path23" />
      <path
         d="m 6.7089844,-4.6386719 q 0,0.3759766 -0.131836,0.7373047 -0.1269531,0.3564453 -0.415039,0.6689453 -0.288086,0.3076172 -0.78125,0.5029297 -0.4882813,0.1904297 -1.1523438,0.1904297 H 2.890625 V 0 H 0.84960938 V -6.7675781 H 4.2285156 q 0.6640625,0 1.1523438,0.1953125 0.493164,0.1953125 0.78125,0.5078125 0.2880859,0.3125 0.415039,0.6787109 0.131836,0.366211 0.131836,0.7470703 z m -2.0800782,0.00977 q 0,-0.4833985 -0.2880859,-0.6591797 Q 4.0576172,-5.46875 3.3203125,-5.46875 H 2.890625 v 1.6308594 h 0.4394531 q 0.5078125,0 0.78125,-0.063477 0.2734375,-0.063477 0.3955078,-0.234375 0.1220703,-0.1708984 0.1220703,-0.493164 z m 4.233789,-1.4892579 q 0,0.3076172 -0.2197265,0.522461 -0.2197266,0.2148437 -0.522461,0.2148437 -0.2050781,0 -0.3759765,-0.097656 -0.1660157,-0.097656 -0.2636719,-0.2636719 -0.097656,-0.1708984 -0.097656,-0.3759766 0,-0.3027343 0.2148438,-0.5224609 0.2148437,-0.2197266 0.5224609,-0.2197266 0.3027344,0 0.522461,0.2197266 0.2197265,0.2197266 0.2197265,0.5224609 z M 9.0042968,0 H 7.2416015 v -4.9707031 h 1.7626953 z m 4.7318362,-0.28808594 q -0.273438,0.13183594 -0.756836,0.25390625 -0.478516,0.12207031 -0.917969,0.12207031 -1.899414,0 -1.899414,-1.85546872 V -3.75 H 9.3660154 v -0.3076172 l 2.3583986,-2.4023437 h 0.200195 v 1.4892578 h 1.679688 V -3.75 h -1.679688 v 1.5917969 q 0,0.2783203 0.03418,0.4492187 0.03418,0.1708985 0.19043,0.288086 0.161132,0.1123047 0.483398,0.1123047 0.419922,0 1.103516,-0.3515625 z m 4.629297,0.0585937 q -0.219727,0.0830078 -0.463867,0.15625 -0.244141,0.06835938 -0.551758,0.11230469 -0.302734,0.04882812 -0.664063,0.04882812 -0.815429,0 -1.381836,-0.27343749 -0.561523,-0.27832032 -0.86914,-0.69335938 Q 14.132031,-1.2988281 14.014844,-1.7333984 13.897656,-2.1679688 13.897656,-2.5 q 0,-0.3320313 0.117188,-0.7666016 0.12207,-0.4345703 0.419922,-0.8398437 0.297851,-0.4052734 0.859375,-0.6787109 0.566406,-0.2734375 1.391601,-0.2734375 0.551758,0 0.898438,0.078125 0.34668,0.078125 0.703125,0.2099609 v 1.3818359 q -0.859375,-0.2734375 -1.342774,-0.2734375 -0.46875,0 -0.83496,0.2832031 -0.361329,0.2832032 -0.361329,0.8789063 0,0.3955078 0.180664,0.6689453 0.180665,0.2685547 0.458985,0.3955078 0.27832,0.1269532 0.55664,0.1269532 0.263672,0 0.600586,-0.078125 0.336914,-0.078125 0.820313,-0.2246094 z M 24.127539,0 h -1.757813 v -2.578125 q 0,-0.029297 0,-0.053711 0.0049,-0.029297 0.0049,-0.1171875 0,-0.3564454 -0.151367,-0.6542969 -0.151367,-0.2978516 -0.576172,-0.2978516 -0.332031,0 -0.585938,0.2246094 -0.253906,0.2197266 -0.483398,0.5566406 V 0 h -1.757813 v -6.7675781 h 1.757813 v 2.5097656 q 0.43457,-0.4638672 0.859375,-0.6298828 0.424805,-0.1708984 0.90332,-0.1708984 1.78711,0 1.78711,2.0068359 z"
         id="text23"
         style="font-weight:700;font-size:10px;font-family:GillSans-Bold, 'Gill Sans';letter-spacing:-0.04em"
         transform="translate(32.67 72.8) scale(.88 1)"
         aria-label="Pitch" />
      <g
         id="g38">
        <path
           d="M43.5,26.37c-.83,0-1.65.07-2.45.17l-.39-2.21c.93-.12,1.88-.19,2.84-.19s1.91.07,2.84.19l-.39,2.21c-.81-.1-1.62-.17-2.45-.17Z"
           style="fill: #000; stroke-width: 0px;"
           id="path24" />
        <path
           d="M29.01,32.74l-1.73-1.45c1.28-1.4,2.74-2.63,4.34-3.66l1.12,1.94c-1.38.9-2.62,1.96-3.73,3.16Z"
           style="fill: #000; stroke-width: 0px;"
           id="path25" />
        <path
           d="M34.47,28.57l-1.12-1.94c1.67-.87,3.46-1.53,5.34-1.95l.39,2.21c-1.62.37-3.16.94-4.61,1.69Z"
           style="fill: #000; stroke-width: 0px;"
           id="path26" />
        <path
           d="M25.27,38.51l-2.1-.76c.73-1.77,1.69-3.42,2.83-4.92l1.73,1.45c-.98,1.3-1.82,2.71-2.46,4.23Z"
           style="fill: #000; stroke-width: 0px;"
           id="path27" />
        <path
           d="M47.92,26.88l.39-2.21c1.88.42,3.67,1.08,5.34,1.95l-1.12,1.94c-1.44-.74-2.98-1.31-4.6-1.69Z"
           style="fill: #000; stroke-width: 0px;"
           id="path28" />
        <path
           d="M23.78,45.2h-2.26c.08-1.93.41-3.8.96-5.58l2.11.77c-.47,1.53-.73,3.15-.81,4.81Z"
           style="fill: #000; stroke-width: 0px;"
           id="path29" />
        <path
           d="M24.65,52l-2.1.76c-.57-1.79-.91-3.65-1.01-5.56h2.23c.09,1.65.39,3.25.88,4.8Z"
           style="fill: #000; stroke-width: 0px;"
           id="path30" />
        <path
           d="M27.79,58.08l-1.71,1.44c-1.15-1.5-2.11-3.14-2.84-4.88l2.1-.77c.64,1.5,1.46,2.91,2.45,4.2Z"
           style="fill: #000; stroke-width: 0px;"
           id="path31" />
        <path
           d="M59.27,34.27l1.73-1.45c1.14,1.5,2.1,3.15,2.83,4.92l-2.1.77c-.64-1.52-1.48-2.93-2.46-4.23Z"
           style="fill: #000; stroke-width: 0px;"
           id="path32" />
        <path
           d="M62.41,40.39l2.11-.77c.55,1.78.88,3.65.96,5.58h-2.26c-.08-1.66-.34-3.28-.81-4.81Z"
           style="fill: #000; stroke-width: 0px;"
           id="path33" />
        <path
           d="M63.23,47.2h2.23c-.09,1.91-.44,3.78-1.01,5.56l-2.1-.77c.48-1.54.79-3.15.88-4.8Z"
           style="fill: #000; stroke-width: 0px;"
           id="path34" />
        <path
           d="M61.66,53.88l2.11.77c-.73,1.74-1.69,3.38-2.84,4.88l-1.71-1.44c.99-1.3,1.81-2.71,2.45-4.2Z"
           style="fill: #000; stroke-width: 0px;"
           id="path35" />
        <path
           d="M32.81,62.73l-1.12,1.93c-1.61-1.03-3.05-2.24-4.32-3.62l1.71-1.44c1.1,1.18,2.34,2.23,3.72,3.12Z"
           style="fill: #000; stroke-width: 0px;"
           id="path36" />
        <path
           d="M57.92,59.6l1.71,1.44c-1.27,1.37-2.71,2.59-4.32,3.62l-1.12-1.93c1.38-.89,2.62-1.94,3.72-3.12Z"
           style="fill: #000; stroke-width: 0px;"
           id="path37" />
        <path
           d="M54.26,29.57l1.12-1.94c1.6,1.03,3.06,2.26,4.34,3.66l-1.73,1.45c-1.11-1.2-2.36-2.27-3.74-3.16Z"
           style="fill: #000; stroke-width: 0px;"
           id="path38" />
      </g>
      <path
         d="M108,26.37c-.83,0-1.65.07-2.45.17l-.39-2.21c.93-.12,1.88-.19,2.84-.19s1.91.07,2.84.19l-.39,2.21c-.81-.1-1.62-.17-2.45-.17Z"
         style="fill: #000; stroke-width: 0px;"
         id="path39" />
      <path
         d="m 6.7089844,-4.6386719 q 0,0.3759766 -0.131836,0.7373047 -0.1269531,0.3564453 -0.415039,0.6689453 -0.288086,0.3076172 -0.78125,0.5029297 -0.4882813,0.1904297 -1.1523438,0.1904297 H 2.890625 V 0 H 0.84960938 V -6.7675781 H 4.2285156 q 0.6640625,0 1.1523438,0.1953125 0.493164,0.1953125 0.78125,0.5078125 0.2880859,0.3125 0.415039,0.6787109 0.131836,0.366211 0.131836,0.7470703 z m -2.0800782,0.00977 q 0,-0.4833985 -0.2880859,-0.6591797 Q 4.0576172,-5.46875 3.3203125,-5.46875 H 2.890625 v 1.6308594 h 0.4394531 q 0.5078125,0 0.78125,-0.063477 0.2734375,-0.063477 0.3955078,-0.234375 0.1220703,-0.1708984 0.1220703,-0.493164 z m 4.233789,-1.4892579 q 0,0.3076172 -0.2197265,0.522461 -0.2197266,0.2148437 -0.522461,0.2148437 -0.2050781,0 -0.3759765,-0.097656 -0.1660157,-0.097656 -0.2636719,-0.2636719 -0.097656,-0.1708984 -0.097656,-0.3759766 0,-0.3027343 0.2148438,-0.5224609 0.2148437,-0.2197266 0.5224609,-0.2197266 0.3027344,0 0.522461,0.2197266 0.2197265,0.2197266 0.2197265,0.5224609 z M 9.0042968,0 H 7.2416015 v -4.9707031 h 1.7626953 z m 4.7318362,-0.28808594 q -0.273438,0.13183594 -0.756836,0.25390625 -0.478516,0.12207031 -0.917969,0.12207031 -1.899414,0 -1.899414,-1.85546872 V -3.75 H 9.3660154 v -0.3076172 l 2.3583986,-2.4023437 h 0.200195 v 1.4892578 h 1.679688 V -3.75 h -1.679688 v 1.5917969 q 0,0.2783203 0.03418,0.4492187 0.03418,0.1708985 0.19043,0.288086 0.161132,0.1123047 0.483398,0.1123047 0.419922,0 1.103516,-0.3515625 z m 4.629297,0.0585937 q -0.219727,0.0830078 -0.463867,0.15625 -0.244141,0.06835938 -0.551758,0.11230469 -0.302734,0.04882812 -0.664063,0.04882812 -0.815429,0 -1.381836,-0.27343749 -0.561523,-0.27832032 -0.86914,-0.69335938 Q 14.132031,-1.2988281 14.014844,-1.7333984 13.897656,-2.1679688 13.897656,-2.5 q 0,-0.3320313 0.117188,-0.7666016 0.12207,-0.4345703 0.419922,-0.8398437 0.297851,-0.4052734 0.859375,-0.6787109 0.566406,-0.2734375 1.391601,-0.2734375 0.551758,0 0.898438,0.078125 0.34668,0.078125 0.703125,0.2099609 v 1.3818359 q -0.859375,-0.2734375 -1.342774,-0.2734375 -0.46875,0 -0.83496,0.2832031 -0.361329,0.2832032 -0.361329,0.8789063 0,0.3955078 0.180664,0.6689453 0.180665,0.2685547 0.458985,0.3955078 0.27832,0.1269532 0.55664,0.1269532 0.263672,0 0.600586,-0.078125 0.336914,-0.078125 0.820313,-0.2246094 z M 24.127539,0 h -1.757813 v -2.578125 q 0,-0.029297 0,-0.053711 0.0049,-0.029297 0.0049,-0.1171875 0,-0.3564454 -0.151367,-0.6542969 -0.151367,-0.2978516 -0.576172,-0.2978516 -0.332031,0 -0.585938,0.2246094 -0.253906,0.2197266 -0.483398,0.5566406 V 0 h -1.757813 v -6.7675781 h 1.757813 v 2.5097656 q 0.43457,-0.4638672 0.859375,-0.6298828 0.424805,-0.1708984 0.90332,-0.1708984 1.78711,0 1.78711,2.0068359 z m 8.614063,0 h -5.102539 v -6.7675781 h 5.019531 v 1.3574219 h -2.978515 v 1.2402343 h 2.841796 v 1.3623047 h -2.841796 v 1.4453125 h 3.061523 z m 5.986719,0 h -1.757812 v -2.6806641 q 0,-0.4101562 -0.136719,-0.7128906 -0.131836,-0.3076172 -0.585938,-0.3076172 -0.214843,0 -0.380859,0.083008 -0.161133,0.078125 -0.292969,0.2050782 -0.126953,0.1269531 -0.214844,0.2441406 -0.08789,0.1171875 -0.180664,0.2490234 V 0 h -1.757812 v -4.9707031 h 1.757812 v 0.7128906 q 0.415039,-0.4443359 0.830079,-0.6201172 0.419921,-0.180664 0.932617,-0.180664 1.787109,0 1.787109,2.1386718 z M 44.622265,-4.9707031 42.361523,0 H 41.062695 L 38.85078,-4.9707031 h 1.889649 l 1.030273,2.602539 1.142578,-2.602539 z"
         id="text39"
         style="font-weight:700;font-size:10px;font-family:GillSans-Bold, 'Gill Sans';letter-spacing:-0.04em"
         transform="translate(88.35 72.8) scale(.88 1)"
         aria-label="Pitch Env" />
      <path
         d="M93.51,32.74l-1.73-1.45c1.28-1.4,2.74-2.63,4.34-3.66l1.12,1.94c-1.38.9-2.62,1.96-3.73,3.16Z"
         style="fill: #000; stroke-width: 0px;"
         id="path40" />
      <path
         d="M98.97,28.57l-1.12-1.94c1.67-.87,3.46-1.53,5.34-1.95l.39,2.21c-1.62.37-3.16.94-4.61,1.69Z"
         style="fill: #000; stroke-width: 0px;"
         id="path41" />
      <path
         d="M89.77,38.51l-2.1-.76c.73-1.77,1.69-3.42,2.83-4.92l1.73,1.45c-.98,1.3-1.82,2.71-2.46,4.23Z"
         style="fill: #000; stroke-width: 0px;"
         id="path42" />
      <path
         d="M112.42,26.88l.39-2.21c1.88.42,3.67,1.08,5.34,1.95l-1.12,1.94c-1.44-.74-2.98-1.31-4.6-1.69Z"
         style="fill: #000; stroke-width: 0px;"
         id="path43" />
      <path
         d="M88.28,45.2h-2.26c.08-1.93.41-3.8.96-5.58l2.11.77c-.47,1.53-.73,3.15-.81,4.81Z"
         style="fill: #000; stroke-width: 0px;"
         id="path44" />
      <path
         d="M89.15,52l-2.1.76c-.57-1.79-.91-3.65-1.01-5.56h2.23c.09,1.65.39,3.25.88,4.8Z"
         style="fill: #000; stroke-width: 0px;"
         id="path45" />
      <path
         d="M92.29,58.08l-1.71,1.44c-1.15-1.5-2.11-3.14-2.84-4.88l2.1-.77c.64,1.5,1.46,2.91,2.45,4.2Z"
         style="fill: #000; stroke-width: 0px;"
         id="path46" />
      <path
         d="M123.77,34.27l1.73-1.45c1.14,1.5,2.1,3.15,2.83,4.92l-2.1.77c-.64-1.52-1.48-2.93-2.46-4.23Z"
         style="fill: #000; stroke-width: 0px;"
         id="path47" />
      <path
         d="M126.91,40.39l2.11-.77c.55,1.78.88,3.65.96,5.58h-2.26c-.08-1.66-.34-3.28-.81-4.81Z"
         style="fill: #000; stroke-width: 0px;"
         id="path48" />
      <path
         d="M127.73,47.2h2.23c-.09,1.91-.44,3.78-1.01,5.56l-2.1-.77c.48-1.54.79-3.15.88-4.8Z"
         style="fill: #000; stroke-width: 0px;"
         id="path49" />
      <path
         d="M126.16,53.88l2.11.77c-.73,1.74-1.69,3.38-2.84,4.88l-1.71-1.44c.99-1.3,1.81-2.71,2.45-4.2Z"
         style="fill: #000; stroke-width: 0px;"
         id="path50" />
      <path
         d="M97.31,62.73l-1.12,1.93c-1.61-1.03-3.05-2.24-4.32-3.62l1.71-1.44c1.1,1.18,2.34,2.23,3.72,3.12Z"
         style="fill: #000; stroke-width: 0px;"
         id="path51" />
      <path
         d="M122.42,59.61l1.71,1.44c-1.27,1.37-2.71,2.59-4.32,3.62l-1.12-1.93c1.38-.89,2.62-1.94,3.72-3.12Z"
         style="fill: #000; stroke-width: 0px;"
         id="path52" />
      <path
         d="M118.76,29.57l1.12-1.94c1.6,1.03,3.06,2.26,4.34,3.66l-1.73,1.45c-1.11-1.2-2.36-2.27-3.74-3.16Z"
         style="fill: #000; stroke-width: 0px;"
         id="path53" />
      <path
         d="m 6.7089844,-4.6386719 q 0,0.3759766 -0.131836,0.7373047 -0.1269531,0.3564453 -0.415039,0.6689453 -0.288086,0.3076172 -0.78125,0.5029297 -0.4882813,0.1904297 -1.1523438,0.1904297 H 2.890625 V 0 H 0.84960938 V -6.7675781 H 4.2285156 q 0.6640625,0 1.1523438,0.1953125 0.493164,0.1953125 0.78125,0.5078125 0.2880859,0.3125 0.415039,0.6787109 0.131836,0.366211 0.131836,0.7470703 z m -2.0800782,0.00977 q 0,-0.4833985 -0.2880859,-0.6591797 Q 4.0576172,-5.46875 3.3203125,-5.46875 H 2.890625 v 1.6308594 h 0.4394531 q 0.5078125,0 0.78125,-0.063477 0.2734375,-0.063477 0.3955078,-0.234375 0.1220703,-0.1708984 0.1220703,-0.493164 z m 4.233789,-1.4892579 q 0,0.3076172 -0.2197265,0.522461 -0.2197266,0.2148437 -0.522461,0.2148437 -0.2050781,0 -0.3759765,-0.097656 -0.1660157,-0.097656 -0.2636719,-0.2636719 -0.097656,-0.1708984 -0.097656,-0.3759766 0,-0.3027343 0.2148438,-0.5224609 0.2148437,-0.2197266 0.5224609,-0.2197266 0.3027344,0 0.522461,0.2197266 0.2197265,0.2197266 0.2197265,0.5224609 z M 9.0042968,0 H 7.2416015 v -4.9707031 h 1.7626953 z m 4.7318362,-0.28808594 q -0.273438,0.13183594 -0.756836,0.25390625 -0.478516,0.12207031 -0.917969,0.12207031 -1.899414,0 -1.899414,-1.85546872 V -3.75 H 9.3660154 v -0.3076172 l 2.3583986,-2.4023437 h 0.200195 v 1.4892578 h 1.679688 V -3.75 h -1.679688 v 1.5917969 q 0,0.2783203 0.03418,0.4492187 0.03418,0.1708985 0.19043,0.288086 0.161132,0.1123047 0.483398,0.1123047 0.419922,0 1.103516,-0.3515625 z m 4.629297,0.0585937 q -0.219727,0.0830078 -0.463867,0.15625 -0.244141,0.06835938 -0.551758,0.11230469 -0.302734,0.04882812 -0.664063,0.04882812 -0.815429,0 -1.381836,-0.27343749 -0.561523,-0.27832032 -0.86914,-0.69335938 Q 14.132031,-1.2988281 14.014844,-1.7333984 13.897656,-2.1679688 13.897656,-2.5 q 0,-0.3320313 0.117188,-0.7666016 0.12207,-0.4345703 0.419922,-0.8398437 0.297851,-0.4052734 0.859375,-0.6787109 0.566406,-0.2734375 1.391601,-0.2734375 0.551758,0 0.898438,0.078125 0.34668,0.078125 0.703125,0.2099609 v 1.3818359 q -0.859375,-0.2734375 -1.342774,-0.2734375 -0.46875,0 -0.83496,0.2832031 -0.361329,0.2832032 -0.361329,0.8789063 0,0.3955078 0.180664,0.6689453 0.180665,0.2685547 0.458985,0.3955078 0.27832,0.1269532 0.55664,0.1269532 0.263672,0 0.600586,-0.078125 0.336914,-0.078125 0.820313,-0.2246094 z M 24.127539,0 h -1.757813 v -2.578125 q 0,-0.029297 0,-0.053711 0.0049,-0.029297 0.0049,-0.1171875 0,-0.3564454 -0.151367,-0.6542969 -0.151367,-0.2978516 -0.576172,-0.2978516 -0.332031,0 -0.585938,0.2246094 -0.253906,0.2197266 -0.483398,0.5566406 V 0 h -1.757813 v -6.7675781 h 1.757813 v 2.5097656 q 0.43457,-0.4638672 0.859375,-0.6298828 0.424805,-0.1708984 0.90332,-0.1708984 1.78711,0 1.78711,2.0068359 z M 35.070704,0 H 32.98086 L 32.429102,-1.3720703 H 29.489649 L 28.928125,0 h -2.089843 l 2.993164,-6.7675781 h 2.255859 z m -3.110352,-2.5488281 -0.991211,-2.4707031 -1.000977,2.4707031 z M 44.138477,0 h -1.757812 v -2.6513672 q 0,-0.5273437 -0.175781,-0.7861328 -0.170899,-0.2636719 -0.546875,-0.2636719 -0.366211,0 -0.600586,0.2246094 -0.234375,0.2197266 -0.46875,0.5566406 V 0 H 38.83086 v -2.6513672 q 0,-0.5029297 -0.161133,-0.7763672 -0.161132,-0.2734375 -0.571289,-0.2734375 -0.195312,0 -0.361328,0.078125 -0.161133,0.078125 -0.263672,0.1757813 -0.102539,0.097656 -0.249023,0.2880859 -0.146485,0.1904297 -0.185547,0.2392578 V 0 h -1.757813 v -4.9707031 h 1.757813 v 0.7128906 q 0.395508,-0.4199219 0.805664,-0.6103516 0.410156,-0.1904296 0.947266,-0.1904296 0.253906,0 0.483398,0.048828 0.229492,0.043945 0.449219,0.15625 0.224609,0.1123047 0.405273,0.3076172 0.180664,0.1953125 0.288086,0.4541015 0.424805,-0.4785156 0.878906,-0.7226562 0.458985,-0.2441406 1.054688,-0.2441406 0.595703,0 0.996094,0.2392578 0.405273,0.2392578 0.595703,0.6933593 0.195312,0.4492188 0.195312,1.09375 z m 4.565819,-0.28808594 q -0.273437,0.13183594 -0.756836,0.25390625 -0.478515,0.12207031 -0.917969,0.12207031 -1.899414,0 -1.899414,-1.85546872 V -3.75 h -0.795898 v -0.3076172 l 2.358398,-2.4023437 h 0.200196 v 1.4892578 H 48.57246 V -3.75 h -1.679687 v 1.5917969 q 0,0.2783203 0.03418,0.4492187 0.03418,0.1708985 0.19043,0.288086 0.161133,0.1123047 0.483398,0.1123047 0.419922,0 1.103516,-0.3515625 z"
         id="text53"
         style="font-weight:700;font-size:10px;font-family:GillSans-Bold, 'Gill Sans';letter-spacing:-0.04em"
         transform="translate(150.98 72.8) scale(.88 1)"
         aria-label="Pitch Amt" />
      <path
         d="M172.5,26.37c-.83,0-1.65.07-2.45.17l-.39-2.21c.93-.12,1.88-.19,2.84-.19s1.91.07,2.84.19l-.39,2.21c-.81-.1-1.62-.17-2.45-.17Z"
         style="fill: #000; stroke-width: 0px;"
         id="path54" />
      <path
         d="M158.01,32.74l-1.73-1.45c1.28-1.4,2.74-2.63,4.34-3.66l1.12,1.94c-1.38.9-2.62,1.96-3.73,3.16Z"
         style="fill: #000; stroke-width: 0px;"
         id="path55" />
      <path
         d="M163.47,28.57l-1.12-1.94c1.67-.87,3.46-1.53,5.34-1.95l.39,2.21c-1.62.37-3.16.94-4.61,1.69Z"
         style="fill: #000; stroke-width: 0px;"
         id="path56" />
      <path
         d="M154.27,38.51l-2.1-.76c.73-1.77,1.69-3.42,2.83-4.92l1.73,1.45c-.98,1.3-1.82,2.71-2.46,4.23Z"
         style="fill: #000; stroke-width: 0px;"
         id="path57" />
      <path
         d="M176.92,26.88l.39-2.21c1.88.42,3.67,1.08,5.34,1.95l-1.12,1.94c-1.44-.74-2.98-1.31-4.6-1.69Z"
         style="fill: #000; stroke-width: 0px;"
         id="path58" />
      <path
         d="M152.78,45.2h-2.26c.08-1.93.41-3.8.96-5.58l2.11.77c-.47,1.53-.73,3.15-.81,4.81Z"
         style="fill: #000; stroke-width: 0px;"
         id="path59" />
      <path
         d="M153.65,52l-2.1.76c-.57-1.79-.91-3.65-1.01-5.56h2.23c.09,1.65.39,3.25.88,4.8Z"
         style="fill: #000; stroke-width: 0px;"
         id="path60" />
      <path
         d="M156.79,58.08l-1.71,1.44c-1.15-1.5-2.11-3.14-2.84-4.88l2.1-.77c.64,1.5,1.46,2.91,2.45,4.2Z"
         style="fill: #000; stroke-width: 0px;"
         id="path61" />
      <path
         d="M188.27,34.27l1.73-1.45c1.14,1.5,2.1,3.15,2.83,4.92l-2.1.77c-.64-1.52-1.48-2.93-2.46-4.23Z"
         style="fill: #000; stroke-width: 0px;"
         id="path62" />
      <path
         d="M191.41,40.39l2.11-.77c.55,1.78.88,3.65.96,5.58h-2.26c-.08-1.66-.34-3.28-.81-4.81Z"
         style="fill: #000; stroke-width: 0px;"
         id="path63" />
      <path
         d="M192.23,47.2h2.23c-.09,1.91-.44,3.78-1.01,5.56l-2.1-.77c.48-1.54.79-3.15.88-4.8Z"
         style="fill: #000; stroke-width: 0px;"
         id="path64" />
      <path
         d="M190.66,53.88l2.11.77c-.73,1.74-1.69,3.38-2.84,4.88l-1.71-1.44c.99-1.3,1.81-2.71,2.45-4.2Z"
         style="fill: #000; stroke-width: 0px;"
         id="path65" />
      <path
         d="M161.81,62.73l-1.12,1.93c-1.61-1.03-3.05-2.24-4.32-3.62l1.71-1.44c1.1,1.18,2.34,2.23,3.72,3.12Z"
         style="fill: #000; stroke-width: 0px;"
         id="path66" />
      <path
         d="M186.92,59.61l1.71,1.44c-1.27,1.37-2.71,2.59-4.32,3.62l-1.12-1.93c1.38-.89,2.62-1.94,3.72-3.12Z"
         style="fill: #000; stroke-width: 0px;"
         id="path67" />
      <path
         d="M183.26,29.57l1.12-1.94c1.6,1.03,3.06,2.26,4.34,3.66l-1.73,1.45c-1.11-1.2-2.36-2.27-3.74-3.16Z"
         style="fill: #000; stroke-width: 0px;"
         id="path68" />
      <path
         d="M 7.4023437,0 H 5.2099609 L 4.6777344,-1.2011719 Q 4.3847656,-1.8603516 4.1503906,-2.1630859 3.9160156,-2.4707031 3.6914063,-2.5537109 3.4716797,-2.6416016 3.1201172,-2.6416016 H 2.890625 V 0 H 0.84960938 V -6.7675781 H 4.3212891 q 0.8398437,0 1.3769531,0.3417969 0.5371094,0.3417968 0.7714844,0.8300781 0.2392578,0.4882812 0.2392578,0.9277344 0,0.5126953 -0.2001953,0.8691406 Q 6.3134766,-3.4472656 6.09375,-3.2861328 5.8740234,-3.125 5.6005859,-2.9785156 5.9277344,-2.7880859 6.1376953,-2.5244141 6.3525391,-2.265625 6.71875,-1.4697266 Z M 4.6289062,-4.6289062 q 0,-0.46875 -0.3076171,-0.6542969 Q 4.0136719,-5.46875 3.3203125,-5.46875 H 2.890625 v 1.6308594 h 0.4394531 q 0.7470703,0 1.0205078,-0.1611328 0.2783203,-0.1660157 0.2783203,-0.6298828 z m 8.4574218,4.37988276 q -0.385742,0.15136719 -0.712891,0.24414063 -0.327148,0.09277343 -0.786132,0.09277343 -0.434571,0 -0.605469,-0.15136718 -0.170899,-0.15625 -0.244141,-0.37597657 -0.283203,0.22949219 -0.629883,0.38085938 -0.3466793,0.14648437 -0.9082027,0.14648437 -0.5419922,0 -0.8789063,-0.18554687 Q 7.9886718,-0.28808594 7.851953,-0.57128906 7.7201171,-0.859375 7.7201171,-1.1621094 q 0,-0.4589843 0.2294922,-0.7568359 0.234375,-0.3027344 0.625,-0.4931641 0.390625,-0.1904297 1.0351562,-0.3955078 0.366211,-0.1171875 0.5517575,-0.1757812 0.19043,-0.063477 0.283203,-0.097656 0.09277,-0.03418 0.195313,-0.087891 0,-0.3613281 -0.146484,-0.5664063 -0.146485,-0.2050781 -0.634766,-0.2050781 -0.5761719,0 -1.069336,0.2539063 -0.493164,0.2539062 -0.9033203,0.6542968 v -1.3476562 q 0.3271485,-0.234375 0.7080078,-0.3808594 0.3808594,-0.1513672 0.7958985,-0.2246094 0.415039,-0.073242 0.839844,-0.073242 1.079101,0 1.621093,0.4199218 0.546875,0.4150391 0.546875,1.147461 v 1.9189453 q 0,0.2734375 0.04883,0.4101562 0.05371,0.131836 0.190429,0.131836 0.166016,0 0.449219,-0.1416016 z M 10.640039,-1.2011719 v -1.1767578 q -0.625,0.2539063 -0.913086,0.4589844 -0.2880859,0.2001953 -0.2880859,0.546875 0,0.2490234 0.1416016,0.38085936 0.1464843,0.13183594 0.336914,0.13183594 0.1806643,0 0.3564453,-0.0976563 0.180664,-0.10253905 0.366211,-0.24414065 z m 6.518945,0.91308596 q -0.273437,0.13183594 -0.756836,0.25390625 -0.478515,0.12207031 -0.917969,0.12207031 -1.899414,0 -1.899414,-1.85546872 V -3.75 h -0.795898 v -0.3076172 l 2.358398,-2.4023437 h 0.200196 v 1.4892578 h 1.679687 V -3.75 h -1.679687 v 1.5917969 q 0,0.2783203 0.03418,0.4492187 0.03418,0.1708985 0.19043,0.288086 0.161133,0.1123047 0.483399,0.1123047 0.419921,0 1.103515,-0.3515625 z m 2.080468,-5.83007816 q 0,0.3076172 -0.219726,0.522461 -0.219727,0.2148437 -0.522461,0.2148437 -0.205078,0 -0.375977,-0.097656 -0.166015,-0.097656 -0.263672,-0.2636719 -0.09766,-0.1708984 -0.09766,-0.3759766 0,-0.3027343 0.214844,-0.5224609 0.214844,-0.2197266 0.522461,-0.2197266 0.302734,0 0.522461,0.2197266 0.219726,0.2197266 0.219726,0.5224609 z M 19.381054,0 h -1.762695 v -4.9707031 h 1.762695 z m 6.299219,-2.4902344 q 0,0.7421875 -0.322266,1.3232422 -0.322265,0.5810547 -0.966796,0.91796876 -0.639649,0.33691406 -1.5625,0.33691406 -0.922852,0 -1.567383,-0.33691406 -0.639649,-0.33691406 -0.961914,-0.91796876 -0.317383,-0.5810547 -0.317383,-1.3232422 0,-0.5615234 0.175781,-1.0205078 0.180664,-0.4589844 0.541992,-0.8105469 0.366211,-0.3564453 0.898438,-0.546875 0.532226,-0.1904296 1.230469,-0.1904296 0.703125,0 1.240234,0.1953125 0.541992,0.1904296 0.893555,0.5371093 0.356445,0.3466797 0.537109,0.8105469 0.180664,0.4638672 0.180664,1.0253906 z m -1.850586,0 q 0,-0.5908203 -0.258789,-0.9228515 Q 23.316992,-3.75 22.828711,-3.75 q -0.483399,0 -0.742188,0.3369141 -0.253906,0.3320312 -0.253906,0.9228515 0,0.5859375 0.258789,0.9277344 0.258789,0.3417969 0.737305,0.3417969 0.488281,0 0.742187,-0.3369141 0.258789,-0.3417969 0.258789,-0.9326172 z"
         id="text68"
         style="font-weight:700;font-size:10px;font-family:GillSans-Bold, 'Gill Sans';letter-spacing:-0.04em"
         transform="translate(32.17 130.92) scale(.88 1)"
         aria-label="Ratio" />
      <path
         d="M43.5,84.92c-.83,0-1.65.07-2.45.17l-.39-2.21c.93-.12,1.88-.19,2.84-.19s1.91.07,2.84.19l-.39,2.21c-.81-.1-1.62-.17-2.45-.17Z"
         style="fill: #000; stroke-width: 0px;"
         id="path69" />
      <path
         d="M29.01,91.29l-1.73-1.45c1.28-1.4,2.74-2.63,4.34-3.66l1.12,1.94c-1.38.9-2.62,1.96-3.73,3.16Z"
         style="fill: #000; stroke-width: 0px;"
         id="path70" />
      <path
         d="M34.47,87.12l-1.12-1.94c1.67-.87,3.46-1.53,5.34-1.95l.39,2.21c-1.62.37-3.16.94-4.61,1.69Z"
         style="fill: #000; stroke-width: 0px;"
         id="path71" />
      <path
         d="M25.27,97.06l-2.1-.76c.73-1.77,1.69-3.42,2.83-4.92l1.73,1.45c-.98,1.3-1.82,2.71-2.46,4.23Z"
         style="fill: #000; stroke-width: 0px;"
         id="path72" />
      <path
         d="M47.92,85.44l.39-2.21c1.88.42,3.67,1.08,5.34,1.95l-1.12,1.94c-1.44-.74-2.98-1.31-4.6-1.69Z"
         style="fill: #000; stroke-width: 0px;"
         id="path73" />
      <path
         d="M23.78,103.76h-2.26c.08-1.93.41-3.8.96-5.58l2.11.77c-.47,1.53-.73,3.15-.81,4.81Z"
         style="fill: #000; stroke-width: 0px;"
         id="path74" />
      <path
         d="M24.65,110.55l-2.1.76c-.57-1.79-.91-3.65-1.01-5.56h2.23c.09,1.65.39,3.25.88,4.8Z"
         style="fill: #000; stroke-width: 0px;"
         id="path75" />
      <path
         d="M27.79,116.64l-1.71,1.44c-1.15-1.5-2.11-3.14-2.84-4.88l2.1-.77c.64,1.5,1.46,2.91,2.45,4.2Z"
         style="fill: #000; stroke-width: 0px;"
         id="path76" />
      <path
         d="M59.27,92.83l1.73-1.45c1.14,1.5,2.1,3.15,2.83,4.92l-2.1.77c-.64-1.52-1.48-2.93-2.46-4.23Z"
         style="fill: #000; stroke-width: 0px;"
         id="path77" />
      <path
         d="M62.41,98.94l2.11-.77c.55,1.78.88,3.65.96,5.58h-2.26c-.08-1.66-.34-3.28-.81-4.81Z"
         style="fill: #000; stroke-width: 0px;"
         id="path78" />
      <path
         d="M63.23,105.75h2.23c-.09,1.91-.44,3.78-1.01,5.56l-2.1-.77c.48-1.54.79-3.15.88-4.8Z"
         style="fill: #000; stroke-width: 0px;"
         id="path79" />
      <path
         d="M61.66,112.43l2.11.77c-.73,1.74-1.69,3.38-2.84,4.88l-1.71-1.44c.99-1.3,1.81-2.71,2.45-4.2Z"
         style="fill: #000; stroke-width: 0px;"
         id="path80" />
      <path
         d="M32.81,121.28l-1.12,1.93c-1.61-1.03-3.05-2.24-4.32-3.62l1.71-1.44c1.1,1.18,2.34,2.23,3.72,3.12Z"
         style="fill: #000; stroke-width: 0px;"
         id="path81" />
      <path
         d="M57.92,118.16l1.71,1.44c-1.27,1.37-2.71,2.59-4.32,3.62l-1.12-1.93c1.38-.89,2.62-1.94,3.72-3.12Z"
         style="fill: #000; stroke-width: 0px;"
         id="path82" />
      <path
         d="M54.26,88.13l1.12-1.94c1.6,1.03,3.06,2.26,4.34,3.66l-1.73,1.45c-1.11-1.2-2.36-2.27-3.74-3.16Z"
         style="fill: #000; stroke-width: 0px;"
         id="path83" />
      <path
         d="M 5.6982422,-2.7392578 H 2.890625 V 0 H 0.84960938 V -6.7675781 H 5.6982422 v 1.3574219 H 2.890625 v 1.3085937 H 5.6982422 Z M 14.541406,0 H 12.500391 V -3.9208984 L 10.65957,-1.6503906 H 10.498437 L 8.6527343,-3.9208984 V 0 H 6.6703124 v -6.7675781 h 1.8505859 l 2.0800777,2.5390625 2.089844,-2.5390625 h 1.850586 z m 8.980273,0 H 18.41914 v -6.7675781 h 5.019531 v 1.3574219 h -2.978516 v 1.2402343 h 2.841797 v 1.3623047 h -2.841797 v 1.4453125 h 3.061524 z m 5.986719,0 h -1.757812 v -2.6806641 q 0,-0.4101562 -0.136719,-0.7128906 -0.131836,-0.3076172 -0.585938,-0.3076172 -0.214843,0 -0.380859,0.083008 -0.161133,0.078125 -0.292969,0.2050782 -0.126953,0.1269531 -0.214844,0.2441406 -0.08789,0.1171875 -0.180664,0.2490234 V 0 h -1.757812 v -4.9707031 h 1.757812 v 0.7128906 q 0.415039,-0.4443359 0.830078,-0.6201172 0.419922,-0.180664 0.932618,-0.180664 1.787109,0 1.787109,2.1386718 z M 35.402344,-4.9707031 33.141602,0 h -1.298829 l -2.211914,-4.9707031 h 1.889649 l 1.030273,2.602539 1.142578,-2.602539 z"
         id="text83"
         style="font-weight:700;font-size:10px;font-family:GillSans-Bold, 'Gill Sans';letter-spacing:-0.04em"
         transform="translate(92.41 130.92) scale(.88 1)"
         aria-label="FM Env" />
      <path
         d="M108,84.92c-.83,0-1.65.07-2.45.17l-.39-2.21c.93-.12,1.88-.19,2.84-.19s1.91.07,2.84.19l-.39,2.21c-.81-.1-1.62-.17-2.45-.17Z"
         style="fill: #000; stroke-width: 0px;"
         id="path84" />
      <path
         d="M93.51,91.29l-1.73-1.45c1.28-1.4,2.74-2.63,4.34-3.66l1.12,1.94c-1.38.9-2.62,1.96-3.73,3.16Z"
         style="fill: #000; stroke-width: 0px;"
         id="path85" />
      <path
         d="M98.97,87.13l-1.12-1.94c1.67-.87,3.46-1.53,5.34-1.95l.39,2.21c-1.62.37-3.16.94-4.61,1.69Z"
         style="fill: #000; stroke-width: 0px;"
         id="path86" />
      <path
         d="M89.77,97.06l-2.1-.76c.73-1.77,1.69-3.42,2.83-4.92l1.73,1.45c-.98,1.3-1.82,2.71-2.46,4.23Z"
         style="fill: #000; stroke-width: 0px;"
         id="path87" />
      <path
         d="M112.42,85.44l.39-2.21c1.88.42,3.67,1.08,5.34,1.95l-1.12,1.94c-1.44-.74-2.98-1.31-4.6-1.69Z"
         style="fill: #000; stroke-width: 0px;"
         id="path88" />
      <path
         d="M88.28,103.76h-2.26c.08-1.93.41-3.8.96-5.58l2.11.77c-.47,1.53-.73,3.15-.81,4.81Z"
         style="fill: #000; stroke-width: 0px;"
         id="path89" />
      <path
         d="M89.15,110.56l-2.1.76c-.57-1.79-.91-3.65-1.01-5.56h2.23c.09,1.65.39,3.25.88,4.8Z"
         style="fill: #000; stroke-width: 0px;"
         id="path90" />
      <path
         d="M92.29,116.64l-1.71,1.44c-1.15-1.5-2.11-3.14-2.84-4.88l2.1-.77c.64,1.5,1.46,2.91,2.45,4.2Z"
         style="fill: #000; stroke-width: 0px;"
         id="path91" />
      <path
         d="M123.77,92.83l1.73-1.45c1.14,1.5,2.1,3.15,2.83,4.92l-2.1.77c-.64-1.52-1.48-2.93-2.46-4.23Z"
         style="fill: #000; stroke-width: 0px;"
         id="path92" />
      <path
         d="M126.91,98.94l2.11-.77c.55,1.78.88,3.65.96,5.58h-2.26c-.08-1.66-.34-3.28-.81-4.81Z"
         style="fill: #000; stroke-width: 0px;"
         id="path93" />
      <path
         d="M127.73,105.75h2.23c-.09,1.91-.44,3.78-1.01,5.56l-2.1-.77c.48-1.54.79-3.15.88-4.8Z"
         style="fill: #000; stroke-width: 0px;"
         id="path94" />
      <path
         d="M126.16,112.43l2.11.77c-.73,1.74-1.69,3.38-2.84,4.88l-1.71-1.44c.99-1.3,1.81-2.71,2.45-4.2Z"
         style="fill: #000; stroke-width: 0px;"
         id="path95" />
      <path
         d="M97.31,121.28l-1.12,1.93c-1.61-1.03-3.05-2.24-4.32-3.62l1.71-1.44c1.1,1.18,2.34,2.23,3.72,3.12Z"
         style="fill: #000; stroke-width: 0px;"
         id="path96" />
      <path
         d="M122.42,118.16l1.71,1.44c-1.27,1.37-2.71,2.59-4.32,3.62l-1.12-1.93c1.38-.89,2.62-1.94,3.72-3.12Z"
         style="fill: #000; stroke-width: 0px;"
         id="path97" />
      <path
         d="M118.76,88.13l1.12-1.94c1.6,1.03,3.06,2.26,4.34,3.66l-1.73,1.45c-1.11-1.2-2.36-2.27-3.74-3.16Z"
         style="fill: #000; stroke-width: 0px;"
         id="path98" />
      <path
         d="M 5.6982422,-2.7392578 H 2.890625 V 0 H 0.84960938 V -6.7675781 H 5.6982422 v 1.3574219 H 2.890625 v 1.3085937 H 5.6982422 Z M 14.541406,0 H 12.500391 V -3.9208984 L 10.65957,-1.6503906 H 10.498437 L 8.6527343,-3.9208984 V 0 H 6.6703124 v -6.7675781 h 1.8505859 l 2.0800777,2.5390625 2.089844,-2.5390625 h 1.850586 z M 25.85078,0 H 23.760937 L 23.209179,-1.3720703 H 20.269726 L 19.708202,0 h -2.089843 l 2.993164,-6.7675781 h 2.255859 z m -3.110351,-2.5488281 -0.991211,-2.4707031 -1.000977,2.4707031 z M 34.918554,0 h -1.757812 v -2.6513672 q 0,-0.5273437 -0.175781,-0.7861328 -0.170899,-0.2636719 -0.546875,-0.2636719 -0.366211,0 -0.600586,0.2246094 -0.234375,0.2197266 -0.46875,0.5566406 V 0 h -1.757813 v -2.6513672 q 0,-0.5029297 -0.161133,-0.7763672 -0.161133,-0.2734375 -0.571289,-0.2734375 -0.195312,0 -0.361328,0.078125 -0.161133,0.078125 -0.263672,0.1757813 -0.102539,0.097656 -0.249023,0.2880859 -0.146485,0.1904297 -0.185547,0.2392578 V 0 h -1.757813 v -4.9707031 h 1.757813 v 0.7128906 q 0.395508,-0.4199219 0.805664,-0.6103516 0.410156,-0.1904296 0.947266,-0.1904296 0.253906,0 0.483398,0.048828 0.229492,0.043945 0.449219,0.15625 0.224609,0.1123047 0.405273,0.3076172 0.180664,0.1953125 0.288086,0.4541015 0.424805,-0.4785156 0.878906,-0.7226562 0.458985,-0.2441406 1.054688,-0.2441406 0.595703,0 0.996094,0.2392578 0.405273,0.2392578 0.595703,0.6933593 0.195312,0.4492188 0.195312,1.09375 z m 4.565821,-0.28808594 q -0.273438,0.13183594 -0.756836,0.25390625 -0.478516,0.12207031 -0.917969,0.12207031 -1.899414,0 -1.899414,-1.85546872 V -3.75 h -0.795898 v -0.3076172 l 2.358398,-2.4023437 h 0.200196 v 1.4892578 h 1.679687 V -3.75 h -1.679687 v 1.5917969 q 0,0.2783203 0.03418,0.4492187 0.03418,0.1708985 0.19043,0.288086 0.161133,0.1123047 0.483398,0.1123047 0.419922,0 1.103516,-0.3515625 z"
         id="text98"
         style="font-weight:700;font-size:10px;font-family:GillSans-Bold, 'Gill Sans';letter-spacing:-0.04em"
         transform="translate(155.04 130.92) scale(.88 1)"
         aria-label="FM Amt" />
      <path
         d="M172.5,84.92c-.83,0-1.65.07-2.45.17l-.39-2.21c.93-.12,1.88-.19,2.84-.19s1.91.07,2.84.19l-.39,2.21c-.81-.1-1.62-.17-2.45-.17Z"
         style="fill: #000; stroke-width: 0px;"
         id="path99" />
      <path
         d="M158.01,91.29l-1.73-1.45c1.28-1.4,2.74-2.63,4.34-3.66l1.12,1.94c-1.38.9-2.62,1.96-3.73,3.16Z"
         style="fill: #000; stroke-width: 0px;"
         id="path100" />
      <path
         d="M163.47,87.12l-1.12-1.94c1.67-.87,3.46-1.53,5.34-1.95l.39,2.21c-1.62.37-3.16.94-4.61,1.69Z"
         style="fill: #000; stroke-width: 0px;"
         id="path101" />
      <path
         d="M154.27,97.06l-2.1-.76c.73-1.77,1.69-3.42,2.83-4.92l1.73,1.45c-.98,1.3-1.82,2.71-2.46,4.23Z"
         style="fill: #000; stroke-width: 0px;"
         id="path102" />
      <path
         d="M176.92,85.44l.39-2.21c1.88.42,3.67,1.08,5.34,1.95l-1.12,1.94c-1.44-.74-2.98-1.31-4.6-1.69Z"
         style="fill: #000; stroke-width: 0px;"
         id="path103" />
      <path
         d="M152.78,103.76h-2.26c.08-1.93.41-3.8.96-5.58l2.11.77c-.47,1.53-.73,3.15-.81,4.81Z"
         style="fill: #000; stroke-width: 0px;"
         id="path104" />
      <path
         d="M153.65,110.55l-2.1.76c-.57-1.79-.91-3.65-1.01-5.56h2.23c.09,1.65.39,3.25.88,4.8Z"
         style="fill: #000; stroke-width: 0px;"
         id="path105" />
      <path
         d="M156.79,116.64l-1.71,1.44c-1.15-1.5-2.11-3.14-2.84-4.88l2.1-.77c.64,1.5,1.46,2.91,2.45,4.2Z"
         style="fill: #000; stroke-width: 0px;"
         id="path106" />
      <path
         d="M188.27,92.83l1.73-1.45c1.14,1.5,2.1,3.15,2.83,4.92l-2.1.77c-.64-1.52-1.48-2.93-2.46-4.23Z"
         style="fill: #000; stroke-width: 0px;"
         id="path107" />
      <path
         d="M191.41,98.94l2.11-.77c.55,1.78.88,3.65.96,5.58h-2.26c-.08-1.66-.34-3.28-.81-4.81Z"
         style="fill: #000; stroke-width: 0px;"
         id="path108" />
      <path
         d="M192.23,105.75h2.23c-.09,1.91-.44,3.78-1.01,5.56l-2.1-.77c.48-1.54.79-3.15.88-4.8Z"
         style="fill: #000; stroke-width: 0px;"
         id="path109" />
      <path
         d="M190.66,112.43l2.11.77c-.73,1.74-1.69,3.38-2.84,4.88l-1.71-1.44c.99-1.3,1.81-2.71,2.45-4.2Z"
         style="fill: #000; stroke-width: 0px;"
         id="path110" />
      <path
         d="M161.81,121.28l-1.12,1.93c-1.61-1.03-3.05-2.24-4.32-3.62l1.71-1.44c1.1,1.18,2.34,2.23,3.72,3.12Z"
         style="fill: #000; stroke-width: 0px;"
         id="path111" />
      <path
         d="M186.92,118.16l1.71,1.44c-1.27,1.37-2.71,2.59-4.32,3.62l-1.12-1.93c1.38-.89,2.62-1.94,3.72-3.12Z"
         style="fill: #000; stroke-width: 0px;"
         id="path112" />
      <path
         d="M183.26,88.13l1.12-1.94c1.6,1.03,3.06,2.26,4.34,3.66l-1.73,1.45c-1.11-1.2-2.36-2.27-3.74-3.16Z"
         style="fill: #000; stroke-width: 0px;"
         id="path113" />
      <path
         d="m 8.5883789,-3.5878906 q 0,1.1440429 -0.4189453,1.836914 Q 7.7558594,-1.0581055 7.1918945,-0.62841797 6.3916016,0 4.9521484,0 H 0.93457031 V -7.4443359 H 4.0283203 q 0.6982422,0 1.1923828,0.075195 0.4995117,0.069824 0.8969727,0.2041015 0.3974609,0.1289063 0.6767578,0.2954102 0.2792969,0.1611328 0.4995117,0.3491211 0.3813477,0.3115234 0.6660156,0.7358398 0.2900391,0.4243164 0.456543,0.9829102 0.171875,0.5585937 0.171875,1.2138672 z m -2.2827148,-0.09668 q 0,-0.9077149 -0.3491211,-1.4125977 Q 5.612793,-5.6074219 5.1240234,-5.7792969 4.640625,-5.9511719 4.1357422,-5.9511719 H 3.1796875 v 4.409668 h 0.9560547 q 0.8808594,0 1.5253906,-0.4189453 0.6445313,-0.4189453 0.6445313,-1.7241211 z M 17.182129,0 h -2.411621 l -0.585449,-1.3212891 q -0.322266,-0.7250976 -0.580079,-1.0581054 -0.257812,-0.3383789 -0.504882,-0.4296875 -0.2417,-0.09668 -0.628418,-0.09668 H 12.219238 V 0 H 9.9741211 v -7.4443359 h 3.8188479 q 0.923828,0 1.514648,0.3759765 0.590821,0.3759766 0.848633,0.913086 0.263184,0.5371093 0.263184,1.0205078 0,0.5639648 -0.220215,0.9560547 -0.214844,0.3867187 -0.456543,0.5639648 -0.241699,0.1772461 -0.542481,0.3383789 0.359864,0.2094727 0.590821,0.4995117 0.236328,0.284668 0.63916,1.1601563 z m -3.050781,-5.0917969 q 0,-0.515625 -0.338379,-0.7197265 Q 13.45459,-6.015625 12.691895,-6.015625 h -0.472657 v 1.7939453 h 0.483399 q 0.821777,0 1.122558,-0.1772461 0.306153,-0.1826172 0.306153,-0.6928711 z m 11.671386,1.7563477 q 0,0.9560547 -0.359863,1.6328125 -0.354492,0.6713867 -0.945312,1.06347654 -0.58545,0.39208985 -1.267579,0.56396485 -0.676757,0.171875 -1.353515,0.171875 -0.945313,0 -1.842285,-0.32226563 -0.891602,-0.32226562 -1.493164,-1.09570316 -0.601563,-0.7734375 -0.601563,-2.0141601 v -4.1088867 h 2.239746 v 3.5288086 q 0,0.7358398 0.209473,1.2192382 0.214844,0.4780274 0.59082,0.7036133 0.381348,0.2202149 0.896973,0.2202149 0.49414,0 0.875488,-0.2202149 0.381348,-0.2202148 0.59082,-0.6982422 0.214844,-0.4780273 0.214844,-1.2138672 v -3.5395507 h 2.245117 z M 36.222656,0 h -2.245117 v -4.3129883 l -2.024902,2.4975586 H 31.775391 L 29.745117,-4.3129883 V 0 h -2.180664 v -7.4443359 h 2.035645 l 2.288086,2.7929687 2.298828,-2.7929687 h 2.035644 z"
         id="text113"
         style="font-weight:700;font-size:11px;font-family:GillSans-Bold, 'Gill Sans'"
         transform="translate(92.7 357.47) scale(.82 1)"
         aria-label="DRUM" />
      <path
         d="M 8.1982422,0 H 6.3818359 L 2.8710938,-3.7695313 V 0 H 0.84960938 V -6.7675781 H 2.6611328 l 3.5009766,3.75 v -3.75 h 2.0361328 z m 6.4994148,-2.4902344 q 0,0.7421875 -0.322266,1.3232422 -0.322266,0.5810547 -0.966797,0.91796876 -0.639648,0.33691406 -1.5625,0.33691406 -0.922851,0 -1.567383,-0.33691406 Q 9.6390629,-0.5859375 9.3167973,-1.1669922 8.9994144,-1.7480469 8.9994144,-2.4902344 q 0,-0.5615234 0.1757813,-1.0205078 0.1806641,-0.4589844 0.5419922,-0.8105469 0.3662111,-0.3564453 0.8984371,-0.546875 0.532227,-0.1904296 1.230469,-0.1904296 0.703125,0 1.240235,0.1953125 0.541992,0.1904296 0.893554,0.5371093 0.356446,0.3466797 0.53711,0.8105469 0.180664,0.4638672 0.180664,1.0253906 z m -1.850586,0 q 0,-0.5908203 -0.258789,-0.9228515 Q 12.334375,-3.75 11.846094,-3.75 q -0.483398,0 -0.742187,0.3369141 Q 10.85,-3.0810547 10.85,-2.4902344 q 0,0.5859375 0.258789,0.9277344 0.25879,0.3417969 0.737305,0.3417969 0.488281,0 0.742188,-0.3369141 0.258789,-0.3417969 0.258789,-0.9326172 z m 4.072655,-3.6279297 q 0,0.3076172 -0.219726,0.522461 -0.219727,0.2148437 -0.522461,0.2148437 -0.205078,0 -0.375977,-0.097656 -0.166015,-0.097656 -0.263672,-0.2636719 -0.09766,-0.1708984 -0.09766,-0.3759766 0,-0.3027343 0.214844,-0.5224609 0.214844,-0.2197266 0.522461,-0.2197266 0.302734,0 0.522461,0.2197266 0.219726,0.2197266 0.219726,0.5224609 z M 17.061328,0 h -1.762695 v -4.9707031 h 1.762695 z m 4.697656,-1.4501953 q 0,0.68359374 -0.50293,1.11328124 -0.498047,0.42480468 -1.484375,0.42480468 -0.551758,0 -0.981445,-0.09765625 -0.429688,-0.10253906 -0.9375,-0.28808593 V -1.5478516 q 0.444336,0.2539063 0.771484,0.3857422 0.327148,0.131836 0.717773,0.131836 0.65918,0 0.65918,-0.3613282 0,-0.1220703 -0.09766,-0.2148437 -0.09277,-0.097656 -0.332031,-0.2148438 -0.234375,-0.1220703 -0.629883,-0.2880859 -0.488281,-0.2148438 -0.830078,-0.5761719 -0.341797,-0.3613281 -0.341797,-0.883789 0,-0.3710938 0.224609,-0.7128907 0.229492,-0.3417968 0.688477,-0.5566406 0.458984,-0.2197265 1.108398,-0.2197265 0.15625,0 0.395508,0.024414 0.244141,0.019531 0.610352,0.1123047 0.371093,0.092773 0.703125,0.2636719 v 1.2158203 q -0.15625,-0.092774 -0.263672,-0.15625 -0.102539,-0.063477 -0.278321,-0.1416016 -0.175781,-0.078125 -0.415039,-0.1367187 -0.234375,-0.063477 -0.483398,-0.063477 -0.302735,0 -0.415039,0.1171875 -0.112305,0.1171875 -0.112305,0.234375 0,0.1220703 0.117188,0.2294922 0.117187,0.1025391 0.522461,0.2587891 0.585937,0.2246093 0.9375,0.4638671 0.351562,0.234375 0.498046,0.5175782 0.151368,0.2832031 0.151368,0.6689453 z m 5.649805,-0.6103516 h -3.500977 q 0.102539,0.4541016 0.50293,0.7421875 0.40039,0.288086 0.908203,0.288086 0.888672,0 1.962891,-0.4980469 v 1.08886717 q -0.385743,0.20019532 -0.9375,0.36621094 -0.546875,0.16113281 -1.396485,0.16113281 -0.917969,0 -1.5625,-0.34179687 -0.644531,-0.34179687 -0.966797,-0.92773435 -0.317383,-0.5859375 -0.317383,-1.328125 0,-0.7324219 0.317383,-1.3085938 0.322266,-0.5810547 0.966797,-0.9082031 0.644531,-0.3320312 1.5625,-0.3320312 0.605469,0 1.166992,0.2636718 0.566407,0.2587891 0.927735,0.8544922 0.366211,0.5908203 0.366211,1.5283203 z m -1.650391,-0.8691406 q 0,-0.4785156 -0.239258,-0.7617188 -0.234375,-0.2880859 -0.678711,-0.2880859 -0.439453,0 -0.71289,0.2929688 -0.268555,0.2880859 -0.268555,0.7568359 z M 35.832422,0 h -5.102539 v -6.7675781 h 5.019531 v 1.3574219 h -2.978515 v 1.2402343 h 2.841797 v 1.3623047 h -2.841797 v 1.4453125 h 3.061523 z m 5.986719,0 h -1.757812 v -2.6806641 q 0,-0.4101562 -0.136719,-0.7128906 -0.131836,-0.3076172 -0.585937,-0.3076172 -0.214844,0 -0.38086,0.083008 -0.161133,0.078125 -0.292968,0.2050782 -0.126954,0.1269531 -0.214844,0.2441406 -0.08789,0.1171875 -0.180664,0.2490234 V 0 h -1.757813 v -4.9707031 h 1.757813 v 0.7128906 q 0.415039,-0.4443359 0.830078,-0.6201172 0.419922,-0.180664 0.932617,-0.180664 1.787109,0 1.787109,2.1386718 z M 47.713085,-4.9707031 45.452343,0 h -1.298828 l -2.211914,-4.9707031 h 1.889648 l 1.030274,2.602539 1.142578,-2.602539 z"
         id="text114"
         style="font-weight:700;font-size:10px;font-family:GillSans-Bold, 'Gill Sans';letter-spacing:-0.04em"
         transform="translate(86.99 189.47) scale(.88 1)"
         aria-label="Noise Env" />
      <path
         d="M108,143.48c-.83,0-1.65.07-2.45.17l-.39-2.21c.93-.12,1.88-.19,2.84-.19s1.91.07,2.84.19l-.39,2.21c-.81-.1-1.62-.17-2.45-.17Z"
         style="fill: #000; stroke-width: 0px;"
         id="path114" />
      <path
         d="M93.51,149.85l-1.73-1.45c1.28-1.4,2.74-2.63,4.34-3.66l1.12,1.94c-1.38.9-2.62,1.96-3.73,3.16Z"
         style="fill: #000; stroke-width: 0px;"
         id="path115" />
      <path
         d="M98.97,145.68l-1.12-1.94c1.67-.87,3.46-1.53,5.34-1.95l.39,2.21c-1.62.37-3.16.94-4.61,1.69Z"
         style="fill: #000; stroke-width: 0px;"
         id="path116" />
      <path
         d="M89.77,155.61l-2.1-.76c.73-1.77,1.69-3.42,2.83-4.92l1.73,1.45c-.98,1.3-1.82,2.71-2.46,4.23Z"
         style="fill: #000; stroke-width: 0px;"
         id="path117" />
      <path
         d="M112.42,143.99l.39-2.21c1.88.42,3.67,1.08,5.34,1.95l-1.12,1.94c-1.44-.74-2.98-1.31-4.6-1.69Z"
         style="fill: #000; stroke-width: 0px;"
         id="path118" />
      <path
         d="M88.28,162.31h-2.26c.08-1.93.41-3.8.96-5.58l2.11.77c-.47,1.53-.73,3.15-.81,4.81Z"
         style="fill: #000; stroke-width: 0px;"
         id="path119" />
      <path
         d="M89.15,169.11l-2.1.76c-.57-1.79-.91-3.65-1.01-5.56h2.23c.09,1.65.39,3.25.88,4.8Z"
         style="fill: #000; stroke-width: 0px;"
         id="path120" />
      <path
         d="M92.29,175.19l-1.71,1.44c-1.15-1.5-2.11-3.14-2.84-4.88l2.1-.77c.64,1.5,1.46,2.91,2.45,4.2Z"
         style="fill: #000; stroke-width: 0px;"
         id="path121" />
      <path
         d="M123.77,151.38l1.73-1.45c1.14,1.5,2.1,3.15,2.83,4.92l-2.1.77c-.64-1.52-1.48-2.93-2.46-4.23Z"
         style="fill: #000; stroke-width: 0px;"
         id="path122" />
      <path
         d="M126.91,157.49l2.11-.77c.55,1.78.88,3.65.96,5.58h-2.26c-.08-1.66-.34-3.28-.81-4.81Z"
         style="fill: #000; stroke-width: 0px;"
         id="path123" />
      <path
         d="M127.73,164.31h2.23c-.09,1.91-.44,3.78-1.01,5.56l-2.1-.77c.48-1.54.79-3.15.88-4.8Z"
         style="fill: #000; stroke-width: 0px;"
         id="path124" />
      <path
         d="M126.16,170.99l2.11.77c-.73,1.74-1.69,3.38-2.84,4.88l-1.71-1.44c.99-1.3,1.81-2.71,2.45-4.2Z"
         style="fill: #000; stroke-width: 0px;"
         id="path125" />
      <path
         d="M97.31,179.83l-1.12,1.93c-1.61-1.03-3.05-2.24-4.32-3.62l1.71-1.44c1.1,1.18,2.34,2.23,3.72,3.12Z"
         style="fill: #000; stroke-width: 0px;"
         id="path126" />
      <path
         d="M122.42,176.71l1.71,1.44c-1.27,1.37-2.71,2.59-4.32,3.62l-1.12-1.93c1.38-.89,2.62-1.94,3.72-3.12Z"
         style="fill: #000; stroke-width: 0px;"
         id="path127" />
      <path
         d="M118.76,146.68l1.12-1.94c1.6,1.03,3.06,2.26,4.34,3.66l-1.73,1.45c-1.11-1.2-2.36-2.27-3.74-3.16Z"
         style="fill: #000; stroke-width: 0px;"
         id="path128" />
      <path
         d="M 8.1982422,0 H 6.3818359 L 2.8710938,-3.7695313 V 0 H 0.84960938 V -6.7675781 H 2.6611328 l 3.5009766,3.75 v -3.75 h 2.0361328 z m 6.4994148,-2.4902344 q 0,0.7421875 -0.322266,1.3232422 -0.322266,0.5810547 -0.966797,0.91796876 -0.639648,0.33691406 -1.5625,0.33691406 -0.922851,0 -1.567383,-0.33691406 Q 9.6390629,-0.5859375 9.3167973,-1.1669922 8.9994144,-1.7480469 8.9994144,-2.4902344 q 0,-0.5615234 0.1757813,-1.0205078 0.1806641,-0.4589844 0.5419922,-0.8105469 0.3662111,-0.3564453 0.8984371,-0.546875 0.532227,-0.1904296 1.230469,-0.1904296 0.703125,0 1.240235,0.1953125 0.541992,0.1904296 0.893554,0.5371093 0.356446,0.3466797 0.53711,0.8105469 0.180664,0.4638672 0.180664,1.0253906 z m -1.850586,0 q 0,-0.5908203 -0.258789,-0.9228515 Q 12.334375,-3.75 11.846094,-3.75 q -0.483398,0 -0.742187,0.3369141 Q 10.85,-3.0810547 10.85,-2.4902344 q 0,0.5859375 0.258789,0.9277344 0.25879,0.3417969 0.737305,0.3417969 0.488281,0 0.742188,-0.3369141 0.258789,-0.3417969 0.258789,-0.9326172 z m 4.072655,-3.6279297 q 0,0.3076172 -0.219726,0.522461 -0.219727,0.2148437 -0.522461,0.2148437 -0.205078,0 -0.375977,-0.097656 -0.166015,-0.097656 -0.263672,-0.2636719 -0.09766,-0.1708984 -0.09766,-0.3759766 0,-0.3027343 0.214844,-0.5224609 0.214844,-0.2197266 0.522461,-0.2197266 0.302734,0 0.522461,0.2197266 0.219726,0.2197266 0.219726,0.5224609 z M 17.061328,0 h -1.762695 v -4.9707031 h 1.762695 z m 4.697656,-1.4501953 q 0,0.68359374 -0.50293,1.11328124 -0.498047,0.42480468 -1.484375,0.42480468 -0.551758,0 -0.981445,-0.09765625 -0.429688,-0.10253906 -0.9375,-0.28808593 V -1.5478516 q 0.444336,0.2539063 0.771484,0.3857422 0.327148,0.131836 0.717773,0.131836 0.65918,0 0.65918,-0.3613282 0,-0.1220703 -0.09766,-0.2148437 -0.09277,-0.097656 -0.332031,-0.2148438 -0.234375,-0.1220703 -0.629883,-0.2880859 -0.488281,-0.2148438 -0.830078,-0.5761719 -0.341797,-0.3613281 -0.341797,-0.883789 0,-0.3710938 0.224609,-0.7128907 0.229492,-0.3417968 0.688477,-0.5566406 0.458984,-0.2197265 1.108398,-0.2197265 0.15625,0 0.395508,0.024414 0.244141,0.019531 0.610352,0.1123047 0.371093,0.092773 0.703125,0.2636719 v 1.2158203 q -0.15625,-0.092774 -0.263672,-0.15625 -0.102539,-0.063477 -0.278321,-0.1416016 -0.175781,-0.078125 -0.415039,-0.1367187 -0.234375,-0.063477 -0.483398,-0.063477 -0.302735,0 -0.415039,0.1171875 -0.112305,0.1171875 -0.112305,0.234375 0,0.1220703 0.117188,0.2294922 0.117187,0.1025391 0.522461,0.2587891 0.585937,0.2246093 0.9375,0.4638671 0.351562,0.234375 0.498046,0.5175782 0.151368,0.2832031 0.151368,0.6689453 z m 5.649805,-0.6103516 h -3.500977 q 0.102539,0.4541016 0.50293,0.7421875 0.40039,0.288086 0.908203,0.288086 0.888672,0 1.962891,-0.4980469 v 1.08886717 q -0.385743,0.20019532 -0.9375,0.36621094 -0.546875,0.16113281 -1.396485,0.16113281 -0.917969,0 -1.5625,-0.34179687 -0.644531,-0.34179687 -0.966797,-0.92773435 -0.317383,-0.5859375 -0.317383,-1.328125 0,-0.7324219 0.317383,-1.3085938 0.322266,-0.5810547 0.966797,-0.9082031 0.644531,-0.3320312 1.5625,-0.3320312 0.605469,0 1.166992,0.2636718 0.566407,0.2587891 0.927735,0.8544922 0.366211,0.5908203 0.366211,1.5283203 z m -1.650391,-0.8691406 q 0,-0.4785156 -0.239258,-0.7617188 -0.234375,-0.2880859 -0.678711,-0.2880859 -0.439453,0 -0.71289,0.2929688 -0.268555,0.2880859 -0.268555,0.7568359 z m 11.153126,1.0107422 q 0,0.8740234 -0.600586,1.39648436 Q 35.715235,0 34.641016,0 h -3.911133 v -6.7675781 h 3.271485 q 0.634765,0 1.103515,0.1220703 0.473633,0.1220703 0.761719,0.3369141 0.288086,0.2099609 0.429687,0.4980468 0.141602,0.288086 0.141602,0.6298828 0,0.3710938 -0.146484,0.6884766 -0.146485,0.3125 -0.366211,0.5175781 -0.214844,0.2001953 -0.434571,0.2832031 0.69336,0.2734375 1.054688,0.6933594 0.366211,0.4150391 0.366211,1.0791016 z m -2.382813,-2.9003906 q 0,-0.4882813 -0.322265,-0.6494141 -0.322266,-0.1611328 -1.00586,-0.1611328 h -0.429687 v 1.6210937 h 0.439453 q 0.698242,0 1.005859,-0.1611328 0.3125,-0.1611328 0.3125,-0.649414 z m 0.332032,2.8173828 q 0,-0.8691407 -1.259766,-0.8691407 h -0.830078 v 1.7333985 h 0.830078 q 1.259766,0 1.259766,-0.8642578 z M 39.382618,0 h -1.762695 v -6.7675781 h 1.762695 z m 5.908592,-2.0605469 h -3.500976 q 0.102539,0.4541016 0.502929,0.7421875 0.400391,0.288086 0.908203,0.288086 0.888672,0 1.962891,-0.4980469 v 1.08886717 q -0.385742,0.20019532 -0.9375,0.36621094 -0.546875,0.16113281 -1.396484,0.16113281 -0.917969,0 -1.5625,-0.34179687 -0.644532,-0.34179687 -0.966797,-0.92773435 -0.317383,-0.5859375 -0.317383,-1.328125 0,-0.7324219 0.317383,-1.3085938 0.322265,-0.5810547 0.966797,-0.9082031 0.644531,-0.3320312 1.5625,-0.3320312 0.605468,0 1.166992,0.2636718 0.566406,0.2587891 0.927734,0.8544922 0.366211,0.5908203 0.366211,1.5283203 z m -1.65039,-0.8691406 q 0,-0.4785156 -0.239258,-0.7617188 -0.234375,-0.2880859 -0.678711,-0.2880859 -0.439453,0 -0.712891,0.2929688 -0.268555,0.2880859 -0.268555,0.7568359 z M 51.063087,0 h -1.757812 v -2.6806641 q 0,-0.4101562 -0.136719,-0.7128906 -0.131836,-0.3076172 -0.585937,-0.3076172 -0.214844,0 -0.38086,0.083008 -0.161132,0.078125 -0.292968,0.2050782 -0.126954,0.1269531 -0.214844,0.2441406 -0.08789,0.1171875 -0.180664,0.2490234 V 0 H 45.75547 v -4.9707031 h 1.757813 v 0.7128906 q 0.415039,-0.4443359 0.830078,-0.6201172 0.419922,-0.180664 0.932617,-0.180664 1.787109,0 1.787109,2.1386718 z m 5.913475,0 h -1.762695 v -0.44921875 q -0.27832,0.234375 -0.59082,0.38574219 -0.307617,0.15136718 -0.854492,0.15136718 -0.541993,0 -1.064453,-0.26855468 -0.522461,-0.26855469 -0.859375,-0.83496094 -0.336915,-0.5712891 -0.336915,-1.4355469 0,-0.6787109 0.253907,-1.2695312 0.253906,-0.5957031 0.795898,-0.9667969 0.541992,-0.3710937 1.328125,-0.3710937 0.488281,0 0.791016,0.1074218 0.302734,0.1074219 0.537109,0.2734375 v -2.0898437 h 1.762695 z m -1.762695,-1.5820312 v -1.8994141 q -0.307617,-0.1708985 -0.483398,-0.2441406 -0.170899,-0.073242 -0.405274,-0.073242 -0.415039,0 -0.693359,0.3515625 -0.273438,0.3515625 -0.273438,0.9570312 0,0.6591797 0.288086,0.9619141 0.292969,0.2978516 0.678711,0.2978516 0.317383,0 0.512696,-0.097656 0.195312,-0.1025391 0.375976,-0.2539062 z"
         id="text128"
         style="font-weight:700;font-size:10px;font-family:GillSans-Bold, 'Gill Sans';letter-spacing:-0.04em"
         transform="translate(147.19 189.47) scale(.88 1)"
         aria-label="Noise Blend" />
      <path
         d="M172.5,143.48c-.83,0-1.65.07-2.45.17l-.39-2.21c.93-.12,1.88-.19,2.84-.19s1.91.07,2.84.19l-.39,2.21c-.81-.1-1.62-.17-2.45-.17Z"
         style="fill: #000; stroke-width: 0px;"
         id="path129" />
      <path
         d="M158.01,149.85l-1.73-1.45c1.28-1.4,2.74-2.63,4.34-3.66l1.12,1.94c-1.38.9-2.62,1.96-3.73,3.16Z"
         style="fill: #000; stroke-width: 0px;"
         id="path130" />
      <path
         d="M163.47,145.68l-1.12-1.94c1.67-.87,3.46-1.53,5.34-1.95l.39,2.21c-1.62.37-3.16.94-4.61,1.69Z"
         style="fill: #000; stroke-width: 0px;"
         id="path131" />
      <path
         d="M154.27,155.61l-2.1-.76c.73-1.77,1.69-3.42,2.83-4.92l1.73,1.45c-.98,1.3-1.82,2.71-2.46,4.23Z"
         style="fill: #000; stroke-width: 0px;"
         id="path132" />
      <path
         d="M176.92,143.99l.39-2.21c1.88.42,3.67,1.08,5.34,1.95l-1.12,1.94c-1.44-.74-2.98-1.31-4.6-1.69Z"
         style="fill: #000; stroke-width: 0px;"
         id="path133" />
      <path
         d="M152.78,162.31h-2.26c.08-1.93.41-3.8.96-5.58l2.11.77c-.47,1.53-.73,3.15-.81,4.81Z"
         style="fill: #000; stroke-width: 0px;"
         id="path134" />
      <path
         d="M153.65,169.11l-2.1.76c-.57-1.79-.91-3.65-1.01-5.56h2.23c.09,1.65.39,3.25.88,4.8Z"
         style="fill: #000; stroke-width: 0px;"
         id="path135" />
      <path
         d="M156.79,175.19l-1.71,1.44c-1.15-1.5-2.11-3.14-2.84-4.88l2.1-.77c.64,1.5,1.46,2.91,2.45,4.2Z"
         style="fill: #000; stroke-width: 0px;"
         id="path136" />
      <path
         d="M188.27,151.38l1.73-1.45c1.14,1.5,2.1,3.15,2.83,4.92l-2.1.77c-.64-1.52-1.48-2.93-2.46-4.23Z"
         style="fill: #000; stroke-width: 0px;"
         id="path137" />
      <path
         d="M191.41,157.49l2.11-.77c.55,1.78.88,3.65.96,5.58h-2.26c-.08-1.66-.34-3.28-.81-4.81Z"
         style="fill: #000; stroke-width: 0px;"
         id="path138" />
      <path
         d="M192.23,164.31h2.23c-.09,1.91-.44,3.78-1.01,5.56l-2.1-.77c.48-1.54.79-3.15.88-4.8Z"
         style="fill: #000; stroke-width: 0px;"
         id="path139" />
      <path
         d="M190.66,170.99l2.11.77c-.73,1.74-1.69,3.38-2.84,4.88l-1.71-1.44c.99-1.3,1.81-2.71,2.45-4.2Z"
         style="fill: #000; stroke-width: 0px;"
         id="path140" />
      <path
         d="M161.81,179.83l-1.12,1.93c-1.61-1.03-3.05-2.24-4.32-3.62l1.71-1.44c1.1,1.18,2.34,2.23,3.72,3.12Z"
         style="fill: #000; stroke-width: 0px;"
         id="path141" />
      <path
         d="M186.92,176.71l1.71,1.44c-1.27,1.37-2.71,2.59-4.32,3.62l-1.12-1.93c1.38-.89,2.62-1.94,3.72-3.12Z"
         style="fill: #000; stroke-width: 0px;"
         id="path142" />
      <path
         d="M183.26,146.68l1.12-1.94c1.6,1.03,3.06,2.26,4.34,3.66l-1.73,1.45c-1.11-1.2-2.36-2.27-3.74-3.16Z"
         style="fill: #000; stroke-width: 0px;"
         id="path143" />
      <path
         d="M 5.8710937,-4.0976562 H 3.8867188 V 0 H 2.2578125 v -4.0976562 h -1.984375 v -1.3164063 h 5.5976562 z m 3.6682811,0.3359374 -0.5195312,1.4101563 Q 8.6995311,-2.65625 8.3714061,-2.65625 q -0.296875,0 -0.515625,0.203125 -0.2148438,0.1992187 -0.4140625,0.7421875 V 0 h -1.40625 v -3.9765625 h 1.40625 v 0.9609375 q 0.1328125,-0.3554688 0.46875,-0.6914063 0.3359375,-0.3398437 0.7890625,-0.3398437 0.2382812,0 0.4140625,0.070312 0.1796875,0.070312 0.4257812,0.2148437 z m 1.1526562,-1.1328124 q 0,0.2460937 -0.175781,0.4179687 -0.175782,0.171875 -0.417969,0.171875 -0.1640626,0 -0.3007813,-0.078125 -0.1328125,-0.078125 -0.2109375,-0.2109375 -0.078125,-0.1367187 -0.078125,-0.3007812 0,-0.2421875 0.171875,-0.4179688 0.171875,-0.1757812 0.4179688,-0.1757812 0.242187,0 0.417969,0.1757812 0.175781,0.1757813 0.175781,0.4179688 z M 10.805312,0 H 9.3951559 v -3.9765625 h 1.4101561 z m 4.64875,-3.1289063 H 14.75875 q 0.367187,0.3203125 0.367187,0.7851563 0,0.2460937 -0.105468,0.4726563 -0.101563,0.2265625 -0.304688,0.4023437 -0.199219,0.1757813 -0.496094,0.2890625 -0.292968,0.109375 -0.671875,0.1328125 -0.488281,0.019531 -0.488281,0.26171875 0,0.09375 0.0625,0.13671875 0.0625,0.0429687 0.195313,0.0664063 0.136718,0.0195313 0.457031,0.046875 0.363281,0.03125 0.675781,0.109375 0.3125,0.078125 0.582031,0.328125 0.269532,0.25 0.269532,0.71484375 0,0.37109375 -0.203125,0.65625 -0.199219,0.2851562 -0.648438,0.4453125 -0.449219,0.1601562 -1.1875,0.1601562 -1.0625,0 -1.5625,-0.2851562 -0.496094,-0.2851563 -0.496094,-0.76171875 0,-0.12890625 0.0625,-0.296875 Q 11.332969,0.3671875 11.54,0.2109375 11.750937,0.0546875 12.149375,0 12.00875,-0.05078125 11.907187,-0.1953125 11.805625,-0.34375 11.805625,-0.50390625 q 0,-0.20703125 0.140625,-0.41015625 0.144531,-0.203125 0.464844,-0.2617187 -0.445313,-0.1171875 -0.769532,-0.4414063 -0.324218,-0.3242187 -0.324218,-0.8398438 0,-0.390625 0.148437,-0.6835937 0.152344,-0.2929688 0.417969,-0.4765625 0.265625,-0.1835938 0.617187,-0.2695313 0.351563,-0.089844 0.769532,-0.089844 h 2.183593 z m -1.554687,0.671875 q 0,-0.3007812 -0.207031,-0.4804687 -0.203125,-0.1835938 -0.457032,-0.1835938 -0.324218,0 -0.511718,0.21875 -0.183594,0.21875 -0.183594,0.4609375 0,0.1679688 0.07813,0.3125 0.08203,0.1445313 0.226562,0.2343751 0.148438,0.085937 0.351563,0.085937 0.304687,0 0.503906,-0.1914063 0.199219,-0.1914063 0.199219,-0.4570313 z m 0.28125,3.1992188 q 0,-0.26171875 -0.28125,-0.33984375 -0.277344,-0.0742188 -0.574219,-0.0742188 -0.488281,0 -0.707031,0.1015625 -0.214844,0.10546875 -0.214844,0.33203125 0,0.44531245 0.898438,0.44531245 0.402343,0 0.640625,-0.1171875 0.238281,-0.1132812 0.238281,-0.3476562 z m 5.457344,-3.8710938 h -0.695312 q 0.367187,0.3203125 0.367187,0.7851563 0,0.2460937 -0.105469,0.4726563 -0.101562,0.2265625 -0.304687,0.4023437 -0.199219,0.1757813 -0.496094,0.2890625 -0.292969,0.109375 -0.671875,0.1328125 -0.488281,0.019531 -0.488281,0.26171875 0,0.09375 0.0625,0.13671875 0.0625,0.0429687 0.195312,0.0664063 0.136719,0.0195313 0.457032,0.046875 0.363281,0.03125 0.675781,0.109375 0.3125,0.078125 0.582031,0.328125 0.269531,0.25 0.269531,0.71484375 0,0.37109375 -0.203125,0.65625 -0.199218,0.2851562 -0.648437,0.4453125 -0.449219,0.1601562 -1.1875,0.1601562 -1.0625,0 -1.5625,-0.2851562 -0.496094,-0.2851563 -0.496094,-0.76171875 0,-0.12890625 0.0625,-0.296875 Q 15.516875,0.3671875 15.723907,0.2109375 15.934844,0.0546875 16.333282,0 16.192657,-0.05078125 16.091094,-0.1953125 15.989532,-0.34375 15.989532,-0.50390625 q 0,-0.20703125 0.140625,-0.41015625 0.144531,-0.203125 0.464843,-0.2617187 -0.445312,-0.1171875 -0.769531,-0.4414063 -0.324219,-0.3242187 -0.324219,-0.8398438 0,-0.390625 0.148438,-0.6835937 0.152344,-0.2929688 0.417969,-0.4765625 0.265625,-0.1835938 0.617187,-0.2695313 0.351563,-0.089844 0.769531,-0.089844 h 2.183594 z m -1.554687,0.671875 q 0,-0.3007812 -0.207032,-0.4804687 -0.203125,-0.1835938 -0.457031,-0.1835938 -0.324219,0 -0.511719,0.21875 -0.183593,0.21875 -0.183593,0.4609375 0,0.1679688 0.07813,0.3125 0.08203,0.1445313 0.226562,0.2343751 0.148438,0.085937 0.351563,0.085937 0.304687,0 0.503906,-0.1914063 0.199219,-0.1914063 0.199219,-0.4570313 z m 0.28125,3.1992188 q 0,-0.26171875 -0.28125,-0.33984375 -0.277344,-0.0742188 -0.574219,-0.0742188 -0.488281,0 -0.707031,0.1015625 -0.214844,0.10546875 -0.214844,0.33203125 0,0.44531245 0.898437,0.44531245 0.402344,0 0.640625,-0.1171875 0.238282,-0.1132812 0.238282,-0.3476562 z M 23.9,-1.6484375 h -2.800782 q 0.08203,0.3632813 0.402344,0.59375 0.320313,0.23046875 0.726563,0.23046875 0.710937,0 1.570312,-0.39843745 v 0.8710937 q -0.308594,0.16015625 -0.75,0.29296875 -0.4375,0.12890625 -1.117187,0.12890625 -0.734375,0 -1.25,-0.2734375 -0.515625,-0.2734375 -0.773438,-0.7421875 -0.253906,-0.46875 -0.253906,-1.0625 0,-0.5859375 0.253906,-1.046875 0.257813,-0.4648438 0.773438,-0.7265625 0.515625,-0.265625 1.25,-0.265625 0.484375,0 0.933593,0.2109375 0.453125,0.2070312 0.742188,0.6835937 Q 23.9,-2.6796875 23.9,-1.9296875 Z M 22.579687,-2.34375 q 0,-0.3828125 -0.191406,-0.609375 -0.1875,-0.2304688 -0.542969,-0.2304688 -0.351562,0 -0.570312,0.234375 Q 21.060156,-2.71875 21.060156,-2.34375 Z M 27.7675,-3.7617188 27.247969,-2.3515625 Q 26.927656,-2.65625 26.599531,-2.65625 q -0.296875,0 -0.515625,0.203125 -0.214844,0.1992187 -0.414062,0.7421875 V 0 h -1.40625 v -3.9765625 h 1.40625 v 0.9609375 q 0.132812,-0.3554688 0.46875,-0.6914063 0.335937,-0.3398437 0.789062,-0.3398437 0.238281,0 0.414063,0.070312 0.179687,0.070312 0.425781,0.2148437 z"
         id="text143"
         style="font-weight:700;font-size:8px;font-family:GillSans-Bold, 'Gill Sans';letter-spacing:-0.04em"
         transform="translate(23.87 238.32) scale(.88 1)"
         aria-label="Trigger" />
      <path
         d="M 5.9765625,-5.4140625 3.5351563,0.0703125 H 2.4570313 L 0.0625,-5.4140625 H 1.7617187 L 3,-2.2890625 l 1.2734375,-3.125 z m 3.8557811,-0.074219 -2.9453125,5.5585937 h -1.046875 l 2.9414062,-5.5585937 z m 6.2698434,2.7773437 q 0,0.7578125 -0.351562,1.3945313 -0.347657,0.6367187 -1.039063,1.0117187 -0.691406,0.375 -1.683594,0.375 -1.003906,0 -1.699218,-0.390625 -0.695313,-0.390625 -1.035157,-1.0273437 -0.3359371,-0.6367188 -0.3359371,-1.3632813 0,-0.7304688 0.3359371,-1.3632812 0.335938,-0.6367188 1.03125,-1.0234375 0.699219,-0.390625 1.703125,-0.390625 0.75,0 1.335938,0.2226562 0.589844,0.2226563 0.96875,0.6054688 0.378906,0.3789062 0.574219,0.8867187 0.195312,0.5039062 0.195312,1.0625 z m -1.664062,0 q 0,-0.3046875 -0.08984,-0.5546875 -0.08984,-0.2539063 -0.273438,-0.4375 -0.179687,-0.1875 -0.441406,-0.2890625 -0.261719,-0.1054687 -0.605469,-0.1054687 -0.65625,0 -1.03125,0.3828124 -0.375,0.3828125 -0.375,1.0039063 0,0.6210937 0.375,1.0078125 0.378907,0.3828125 1.03125,0.3828125 0.449219,0 0.765625,-0.1757812 0.316407,-0.1796875 0.480469,-0.4921875 0.164063,-0.3164063 0.164063,-0.7226563 z m 5.53547,2.52734375 q -0.175782,0.0664063 -0.371094,0.125 -0.195313,0.0546875 -0.441406,0.08984375 -0.242188,0.0390625 -0.53125,0.0390625 -0.652344,0 -1.105469,-0.21875 Q 17.075157,-0.37109375 16.829063,-0.703125 16.586876,-1.0390625 16.493126,-1.3867187 16.399376,-1.734375 16.399376,-2 q 0,-0.265625 0.09375,-0.6132813 0.09766,-0.3476562 0.335937,-0.671875 0.238282,-0.3242187 0.6875,-0.5429687 0.453125,-0.21875 1.113282,-0.21875 0.441406,0 0.71875,0.0625 0.277343,0.0625 0.5625,0.1679687 v 1.1054688 q -0.6875,-0.21875 -1.074219,-0.21875 -0.375,0 -0.667969,0.2265625 Q 17.879845,-2.4765625 17.879845,-2 q 0,0.3164063 0.144531,0.5351563 0.144531,0.2148437 0.367187,0.3164062 0.222657,0.1015625 0.445313,0.1015625 0.210937,0 0.480469,-0.0625 0.269531,-0.0625 0.65625,-0.1796875 z m 3.500311,-0.046875 q -0.21875,0.10546875 -0.605469,0.203125 -0.382813,0.09765625 -0.734375,0.09765625 -1.519531,0 -1.519531,-1.484375 V -3 h -0.636719 v -0.2460938 l 1.886719,-1.9218749 h 0.160156 v 1.1914062 h 1.34375 V -3 h -1.34375 v 1.2734375 q 0,0.2226563 0.02734,0.359375 0.02734,0.1367188 0.152343,0.2304688 0.128907,0.089844 0.386719,0.089844 0.335938,0 0.882813,-0.28125 z"
         id="text144"
         style="font-weight:700;font-size:8px;font-family:GillSans-Bold, 'Gill Sans';letter-spacing:-0.04em"
         transform="translate(74.3 238.32) scale(.88 1)"
         aria-label="V/Oct" />
      <path
         d="m 5.3671875,-3.7109375 q 0,0.3007812 -0.1054688,0.5898437 -0.1015625,0.2851563 -0.3320312,0.5351563 -0.2304688,0.2460937 -0.625,0.4023437 Q 3.9140625,-2.03125 3.3828125,-2.03125 H 2.3125 V 0 H 0.6796875 v -5.4140625 h 2.703125 q 0.53125,0 0.921875,0.15625 0.3945312,0.15625 0.625,0.40625 0.2304687,0.25 0.3320312,0.5429688 0.1054688,0.2929687 0.1054688,0.5976562 z m -1.6640625,0.00781 q 0,-0.3867187 -0.2304687,-0.5273437 Q 3.2460938,-4.375 2.65625,-4.375 H 2.3125 v 1.3046875 h 0.3515625 q 0.40625,0 0.625,-0.050781 0.21875,-0.050781 0.3164063,-0.1875 0.097656,-0.1367187 0.097656,-0.3945312 z m 3.3870311,-1.1914062 q 0,0.2460937 -0.1757813,0.4179687 -0.1757812,0.171875 -0.4179687,0.171875 -0.1640625,0 -0.3007813,-0.078125 -0.1328125,-0.078125 -0.2109375,-0.2109375 -0.078125,-0.1367187 -0.078125,-0.3007812 0,-0.2421875 0.171875,-0.4179688 0.171875,-0.1757812 0.4179688,-0.1757812 0.2421875,0 0.4179687,0.1757812 0.1757813,0.1757813 0.1757813,0.4179688 z M 7.2034373,0 H 5.7932811 V -3.9765625 H 7.2034373 Z M 10.988906,-0.23046875 Q 10.770156,-0.125 10.383438,-0.02734375 10.000625,0.0703125 9.6490626,0.0703125 q -1.5195312,0 -1.5195312,-1.484375 V -3 H 7.4928126 v -0.2460938 l 1.8867188,-1.9218749 h 0.1601562 v 1.1914062 H 10.883438 V -3 H 9.5396876 v 1.2734375 q 0,0.2226563 0.027344,0.359375 0.027344,0.1367188 0.1523437,0.2304688 0.1289063,0.089844 0.3867189,0.089844 0.335937,0 0.882812,-0.28125 z m 3.703438,0.046875 q -0.175782,0.0664063 -0.371094,0.125 -0.195313,0.0546875 -0.441406,0.08984375 -0.242188,0.0390625 -0.53125,0.0390625 -0.652344,0 -1.105469,-0.21875 Q 11.793906,-0.37109375 11.547812,-0.703125 11.305625,-1.0390625 11.211875,-1.3867187 11.118125,-1.734375 11.118125,-2 q 0,-0.265625 0.09375,-0.6132813 0.09766,-0.3476562 0.335937,-0.671875 0.238282,-0.3242187 0.6875,-0.5429687 0.453125,-0.21875 1.113282,-0.21875 0.441406,0 0.71875,0.0625 0.277343,0.0625 0.5625,0.1679687 v 1.1054688 q -0.6875,-0.21875 -1.074219,-0.21875 -0.375,0 -0.667969,0.2265625 Q 12.598594,-2.4765625 12.598594,-2 q 0,0.3164063 0.144531,0.5351563 0.144531,0.2148437 0.367187,0.3164062 0.222657,0.1015625 0.445313,0.1015625 0.210937,0 0.480469,-0.0625 0.269531,-0.0625 0.65625,-0.1796875 z M 19.302032,0 h -1.40625 v -2.0625 q 0,-0.023437 0,-0.042969 0.0039,-0.023437 0.0039,-0.09375 0,-0.2851562 -0.121094,-0.5234375 -0.121094,-0.2382812 -0.460937,-0.2382812 -0.265625,0 -0.46875,0.1796875 -0.203125,0.1757812 -0.386719,0.4453125 V 0 h -1.40625 v -5.4140625 h 1.40625 V -3.40625 q 0.347656,-0.3710938 0.6875,-0.5039063 0.339844,-0.1367187 0.722656,-0.1367187 1.429688,0 1.429688,1.6054687 z"
         id="text145"
         style="font-weight:700;font-size:8px;font-family:GillSans-Bold, 'Gill Sans';letter-spacing:-0.04em"
         transform="translate(124.25 238.32) scale(.88 1)"
         aria-label="Pitch" />
      <path
         d="m 5.3671875,-3.7109375 q 0,0.3007812 -0.1054688,0.5898437 -0.1015625,0.2851563 -0.3320312,0.5351563 -0.2304688,0.2460937 -0.625,0.4023437 Q 3.9140625,-2.03125 3.3828125,-2.03125 H 2.3125 V 0 H 0.6796875 v -5.4140625 h 2.703125 q 0.53125,0 0.921875,0.15625 0.3945312,0.15625 0.625,0.40625 0.2304687,0.25 0.3320312,0.5429688 0.1054688,0.2929687 0.1054688,0.5976562 z m -1.6640625,0.00781 q 0,-0.3867187 -0.2304687,-0.5273437 Q 3.2460938,-4.375 2.65625,-4.375 H 2.3125 v 1.3046875 h 0.3515625 q 0.40625,0 0.625,-0.050781 0.21875,-0.050781 0.3164063,-0.1875 0.097656,-0.1367187 0.097656,-0.3945312 z M 13.95375,0 H 12.281875 L 11.840469,-1.0976562 H 9.4889064 L 9.0396876,0 H 7.3678126 L 9.7623439,-5.4140625 H 11.567031 Z M 11.465469,-2.0390625 10.6725,-4.015625 9.8717189,-2.0390625 Z M 21.207969,0 h -1.40625 v -2.1210938 q 0,-0.421875 -0.140625,-0.6289062 -0.136719,-0.2109375 -0.4375,-0.2109375 -0.292969,0 -0.480469,0.1796875 -0.1875,0.1757812 -0.375,0.4453125 V 0 h -1.40625 v -2.1210938 q 0,-0.4023437 -0.128906,-0.6210937 -0.128907,-0.21875 -0.457032,-0.21875 -0.15625,0 -0.289062,0.0625 -0.128906,0.0625 -0.210938,0.140625 -0.08203,0.078125 -0.199218,0.2304687 Q 15.559531,-2.375 15.528281,-2.3359375 V 0 h -1.40625 v -3.9765625 h 1.40625 V -3.40625 q 0.316406,-0.3359375 0.644531,-0.4882813 0.328125,-0.1523437 0.757813,-0.1523437 0.203125,0 0.386719,0.039063 0.183593,0.035156 0.359375,0.125 0.179687,0.089844 0.324218,0.2460937 0.144532,0.15625 0.230469,0.3632813 0.339844,-0.3828125 0.703125,-0.578125 0.367188,-0.1953125 0.84375,-0.1953125 0.476563,0 0.796875,0.1914062 0.324219,0.1914063 0.476563,0.5546875 0.15625,0.359375 0.15625,0.875 z m 3.652655,-0.23046875 q -0.21875,0.10546875 -0.605468,0.203125 -0.382813,0.09765625 -0.734375,0.09765625 -1.519532,0 -1.519532,-1.484375 V -3 h -0.636718 v -0.2460938 l 1.886718,-1.9218749 h 0.160157 v 1.1914062 h 1.34375 V -3 h -1.34375 v 1.2734375 q 0,0.2226563 0.02734,0.359375 0.02734,0.1367188 0.152344,0.2304688 0.128906,0.089844 0.386719,0.089844 0.335937,0 0.882812,-0.28125 z"
         id="text146"
         style="font-weight:700;font-size:8px;font-family:GillSans-Bold, 'Gill Sans';letter-spacing:-0.04em"
         transform="translate(170.25 238.32) scale(.88 1)"
         aria-label="P Amt" />
      <path
         d="M 5.921875,0 H 4.1679687 L 3.7421875,-0.9609375 Q 3.5078125,-1.4882812 3.3203125,-1.7304687 3.1328125,-1.9765625 2.953125,-2.0429688 2.7773438,-2.1132813 2.4960938,-2.1132813 H 2.3125 V 0 H 0.6796875 v -5.4140625 h 2.7773438 q 0.6718749,0 1.1015624,0.2734375 0.4296875,0.2734375 0.6171875,0.6640625 0.1914063,0.390625 0.1914063,0.7421875 0,0.4101562 -0.1601563,0.6953125 Q 5.0507812,-2.7578125 4.875,-2.6289063 4.6992187,-2.5 4.4804687,-2.3828125 4.7421875,-2.2304688 4.9101562,-2.0195313 5.0820312,-1.8125 5.375,-1.1757812 Z m -2.21875,-3.703125 q 0,-0.375 -0.2460937,-0.5234375 Q 3.2109375,-4.375 2.65625,-4.375 H 2.3125 v 1.3046875 h 0.3515625 q 0.5976563,0 0.8164063,-0.1289063 Q 3.703125,-3.3320313 3.703125,-3.703125 Z m 6.765937,3.50390625 Q 10.160469,-0.078125 9.8987498,-0.00390625 9.6370311,0.0703125 9.2698436,0.0703125 q -0.3476563,0 -0.484375,-0.12109375 -0.1367188,-0.125 -0.1953125,-0.30078125 -0.2265625,0.18359375 -0.5039063,0.3046875 -0.2773437,0.1171875 -0.7265625,0.1171875 -0.4335937,0 -0.703125,-0.1484375 -0.265625,-0.15234375 -0.375,-0.37890625 Q 6.1760936,-0.6875 6.1760936,-0.9296875 q 0,-0.3671875 0.1835937,-0.6054687 0.1875,-0.2421875 0.5,-0.3945313 0.3125,-0.1523438 0.828125,-0.3164063 0.2929688,-0.09375 0.4414063,-0.140625 0.1523437,-0.050781 0.2265625,-0.078125 0.074219,-0.027344 0.15625,-0.070312 0,-0.2890625 -0.1171875,-0.453125 -0.1171875,-0.1640625 -0.5078125,-0.1640625 -0.4609375,0 -0.8554688,0.203125 -0.3945312,0.203125 -0.7226562,0.5234375 v -1.078125 q 0.2617187,-0.1875 0.5664062,-0.3046875 0.3046875,-0.1210937 0.6367188,-0.1796875 0.3320312,-0.058594 0.671875,-0.058594 0.8632812,0 1.296875,0.3359375 0.4375,0.3320312 0.4375,0.9179687 v 1.5351563 q 0,0.21875 0.039063,0.328125 0.042968,0.10546875 0.1523434,0.10546875 0.132813,0 0.359375,-0.11328125 z M 8.5120311,-0.9609375 v -0.9414062 q -0.5,0.203125 -0.7304688,0.3671875 -0.2304687,0.1601562 -0.2304687,0.4375 0,0.1992187 0.1132812,0.30468745 Q 7.7815623,-0.6875 7.9339061,-0.6875 q 0.1445312,0 0.2851562,-0.078125 0.1445313,-0.0820313 0.2929688,-0.1953125 z m 5.2151559,0.73046875 q -0.21875,0.10546875 -0.605469,0.203125 -0.382812,0.09765625 -0.734375,0.09765625 -1.519531,0 -1.519531,-1.484375 V -3 h -0.636719 v -0.2460938 l 1.886719,-1.9218749 h 0.160156 v 1.1914062 h 1.34375 V -3 h -1.34375 v 1.2734375 q 0,0.2226563 0.02734,0.359375 0.02734,0.1367188 0.152344,0.2304688 0.128906,0.089844 0.386719,0.089844 0.335937,0 0.882812,-0.28125 z m 1.664375,-4.66406245 q 0,0.2460937 -0.175781,0.4179687 -0.175781,0.171875 -0.417969,0.171875 -0.164062,0 -0.300781,-0.078125 -0.132812,-0.078125 -0.210937,-0.2109375 -0.07813,-0.1367187 -0.07813,-0.3007812 0,-0.2421875 0.171875,-0.4179688 0.171875,-0.1757812 0.417968,-0.1757812 0.242188,0 0.417969,0.1757812 0.175781,0.1757813 0.175781,0.4179688 z M 15.504844,0 h -1.410157 v -3.9765625 h 1.410157 z m 5.039375,-1.9921875 q 0,0.59375 -0.257812,1.05859375 -0.257813,0.46484375 -0.773438,0.734375 -0.511719,0.26953125 -1.25,0.26953125 -0.738281,0 -1.253906,-0.26953125 -0.511719,-0.26953125 -0.769531,-0.734375 -0.253907,-0.46484375 -0.253907,-1.05859375 0,-0.4492188 0.140625,-0.8164063 0.144532,-0.3671875 0.433594,-0.6484375 0.292969,-0.2851562 0.71875,-0.4375 0.425781,-0.1523437 0.984375,-0.1523437 0.5625,0 0.992188,0.15625 0.433593,0.1523437 0.714843,0.4296875 0.285157,0.2773437 0.429688,0.6484375 0.144531,0.3710937 0.144531,0.8203125 z m -1.480469,0 q 0,-0.4726563 -0.207031,-0.7382813 Q 18.653594,-3 18.262969,-3 q -0.386719,0 -0.59375,0.2695312 -0.203125,0.265625 -0.203125,0.7382813 0,0.46875 0.207031,0.7421875 0.207032,0.2734375 0.589844,0.2734375 0.390625,0 0.59375,-0.2695312 0.207031,-0.2734375 0.207031,-0.7460938 z"
         id="text147"
         style="font-weight:700;font-size:8px;font-family:GillSans-Bold, 'Gill Sans';letter-spacing:-0.04em"
         transform="translate(26.9 287.35) scale(.88 1)"
         aria-label="Ratio" />
      <path
         d="M 6.5585937,0 H 5.1054687 L 2.296875,-3.015625 V 0 H 0.6796875 v -5.4140625 h 1.4492188 l 2.8007812,3 v -3 H 6.5585937 Z M 13.735,0 H 9.6529684 v -5.4140625 h 4.0156246 v 1.0859375 h -2.382812 v 0.9921875 h 2.273437 v 1.0898437 h -2.273437 v 1.1562501 H 13.735 Z m 4.789375,0 h -1.40625 v -2.1445313 q 0,-0.328125 -0.109375,-0.5703125 -0.105469,-0.2460937 -0.46875,-0.2460937 -0.171875,0 -0.304688,0.066406 -0.128906,0.0625 -0.234375,0.1640625 -0.101562,0.1015625 -0.171875,0.1953125 -0.07031,0.09375 -0.144531,0.1992188 V 0 h -1.40625 v -3.9765625 h 1.40625 V -3.40625 q 0.332031,-0.3554688 0.664063,-0.4960938 0.335937,-0.1445312 0.746093,-0.1445312 1.429688,0 1.429688,1.7109375 z M 23.239531,-3.9765625 21.430937,0 h -1.039063 l -1.769531,-3.9765625 h 1.511719 l 0.824219,2.0820313 0.914062,-2.0820313 z"
         id="text148"
         style="font-weight:700;font-size:8px;font-family:GillSans-Bold, 'Gill Sans';letter-spacing:-0.04em"
         transform="translate(74.4 334.61) scale(.88 1)"
         aria-label="N Env" />
      <path
         d="M 6.5585937,0 H 5.1054687 L 2.296875,-3.015625 V 0 H 0.6796875 v -5.4140625 h 1.4492188 l 2.8007812,3 v -3 h 1.6289062 z m 8.0396873,-1.5351562 q 0,0.6992187 -0.480469,1.11718745 Q 13.64125,0 12.781875,0 H 9.6529684 v -5.4140625 h 2.6171876 q 0.507812,0 0.882812,0.097656 0.378907,0.097656 0.609375,0.2695312 0.230469,0.1679688 0.34375,0.3984375 0.113282,0.2304688 0.113282,0.5039063 0,0.2968749 -0.117188,0.5507812 -0.117187,0.25 -0.292969,0.4140625 -0.171875,0.1601562 -0.347656,0.2265625 0.554688,0.21875 0.84375,0.5546875 0.292969,0.3320312 0.292969,0.8632813 z m -1.90625,-2.3203126 q 0,-0.3906249 -0.257813,-0.5195312 -0.257812,-0.1289062 -0.804687,-0.1289062 h -0.34375 v 1.2968749 h 0.351562 q 0.558594,0 0.804688,-0.1289062 0.25,-0.1289063 0.25,-0.5195313 z m 0.265625,2.2539063 q 0,-0.6953125 -1.007813,-0.6953125 h -0.664062 v 1.38671875 h 0.664062 q 1.007813,0 1.007813,-0.69140625 z M 16.575156,0 H 15.165 v -5.4140625 h 1.410156 z m 4.726875,-1.6484375 h -2.800782 q 0.08203,0.3632813 0.402344,0.59375 0.320313,0.23046875 0.726563,0.23046875 0.710937,0 1.570312,-0.39843745 v 0.8710937 q -0.308594,0.16015625 -0.75,0.29296875 -0.4375,0.12890625 -1.117187,0.12890625 -0.734375,0 -1.25,-0.2734375 -0.515625,-0.2734375 -0.773438,-0.7421875 -0.253906,-0.46875 -0.253906,-1.0625 0,-0.5859375 0.253906,-1.046875 0.257813,-0.4648438 0.773438,-0.7265625 0.515625,-0.265625 1.25,-0.265625 0.484375,0 0.933593,0.2109375 0.453125,0.2070312 0.742188,0.6835937 0.292969,0.4726563 0.292969,1.2226563 z M 19.981718,-2.34375 q 0,-0.3828125 -0.191406,-0.609375 -0.1875,-0.2304688 -0.542969,-0.2304688 -0.351562,0 -0.570312,0.234375 Q 18.462187,-2.71875 18.462187,-2.34375 Z M 25.919531,0 h -1.40625 v -2.1445313 q 0,-0.328125 -0.109375,-0.5703125 -0.105469,-0.2460937 -0.46875,-0.2460937 -0.171875,0 -0.304688,0.066406 -0.128906,0.0625 -0.234375,0.1640625 -0.101562,0.1015625 -0.171875,0.1953125 -0.07031,0.09375 -0.144531,0.1992188 V 0 h -1.40625 v -3.9765625 h 1.40625 V -3.40625 q 0.332031,-0.3554688 0.664063,-0.4960938 0.335937,-0.1445312 0.746093,-0.1445312 1.429688,0 1.429688,1.7109375 z m 4.730781,0 h -1.410156 v -0.359375 q -0.222656,0.1875 -0.472656,0.30859375 -0.246094,0.12109375 -0.683594,0.12109375 -0.433594,0 -0.851562,-0.21484375 -0.417969,-0.21484375 -0.6875,-0.66796875 -0.269532,-0.4570312 -0.269532,-1.1484375 0,-0.5429688 0.203125,-1.015625 0.203125,-0.4765625 0.636719,-0.7734375 0.433594,-0.296875 1.0625,-0.296875 0.390625,0 0.632813,0.085937 0.242187,0.085937 0.429687,0.21875 v -1.671875 h 1.410156 z m -1.410156,-1.265625 v -1.5195313 q -0.246094,-0.1367187 -0.386719,-0.1953125 -0.136718,-0.058594 -0.324218,-0.058594 -0.332032,0 -0.554688,0.28125 -0.21875,0.28125 -0.21875,0.765625 0,0.5273438 0.230469,0.7695313 0.234375,0.2382812 0.542969,0.2382812 0.253906,0 0.410156,-0.078125 0.15625,-0.082031 0.300781,-0.203125 z"
         id="text149"
         style="font-weight:700;font-size:8px;font-family:GillSans-Bold, 'Gill Sans';letter-spacing:-0.04em"
         transform="translate(119.37 334.61) scale(.88 1)"
         aria-label="N Blend" />
      <path
         d="M 4.5585937,-2.1914063 H 2.3125 V 0 H 0.6796875 V -5.4140625 H 4.5585937 V -4.328125 H 2.3125 V -3.28125 H 4.5585937 Z M 11.633125,0 H 10.000312 V -3.1367188 L 8.5276561,-1.3203125 H 8.3987498 L 6.9221873,-3.1367188 V 0 H 5.3362498 v -5.4140625 h 1.4804688 l 1.6640625,2.03125 1.6718749,-2.03125 h 1.480469 z m 7.184219,0 h -4.082032 v -5.4140625 h 4.015625 v 1.0859375 h -2.382812 v 0.9921875 h 2.273437 v 1.0898437 h -2.273437 v 1.1562501 h 2.449219 z m 4.789374,0 h -1.40625 v -2.1445313 q 0,-0.328125 -0.109375,-0.5703125 -0.105469,-0.2460937 -0.46875,-0.2460937 -0.171875,0 -0.304687,0.066406 -0.128907,0.0625 -0.234375,0.1640625 -0.101563,0.1015625 -0.171875,0.1953125 -0.07031,0.09375 -0.144532,0.1992188 V 0 h -1.40625 v -3.9765625 h 1.40625 V -3.40625 q 0.332032,-0.3554688 0.664063,-0.4960938 0.335937,-0.1445312 0.746094,-0.1445312 1.429687,0 1.429687,1.7109375 z M 28.321875,-3.9765625 26.513281,0 h -1.039063 l -1.769531,-3.9765625 h 1.511719 l 0.824219,2.0820313 0.914062,-2.0820313 z"
         id="text150"
         style="font-weight:700;font-size:8px;font-family:GillSans-Bold, 'Gill Sans';letter-spacing:-0.04em"
         transform="translate(72.16 287.35) scale(.88 1)"
         aria-label="FM Env" />
      <path
         d="M 4.5585937,-2.1914063 H 2.3125 V 0 H 0.6796875 V -5.4140625 H 4.5585937 V -4.328125 H 2.3125 V -3.28125 H 4.5585937 Z M 11.633125,0 H 10.000312 V -3.1367188 L 8.5276561,-1.3203125 H 8.3987498 L 6.9221873,-3.1367188 V 0 H 5.3362498 v -5.4140625 h 1.4804688 l 1.6640625,2.03125 1.6718749,-2.03125 h 1.480469 z m 9.0475,0 H 19.00875 L 18.567344,-1.0976562 H 16.215781 L 15.766562,0 h -1.671875 l 2.394532,-5.4140625 h 1.804687 z M 18.192344,-2.0390625 17.399375,-4.015625 16.598594,-2.0390625 Z M 27.934843,0 h -1.40625 v -2.1210938 q 0,-0.421875 -0.140625,-0.6289062 -0.136719,-0.2109375 -0.4375,-0.2109375 -0.292969,0 -0.480469,0.1796875 -0.1875,0.1757812 -0.375,0.4453125 V 0 h -1.40625 v -2.1210938 q 0,-0.4023437 -0.128906,-0.6210937 -0.128906,-0.21875 -0.457031,-0.21875 -0.15625,0 -0.289063,0.0625 -0.128906,0.0625 -0.210937,0.140625 -0.08203,0.078125 -0.199219,0.2304687 Q 22.286406,-2.375 22.255156,-2.3359375 V 0 h -1.40625 v -3.9765625 h 1.40625 V -3.40625 q 0.316406,-0.3359375 0.644531,-0.4882813 0.328125,-0.1523437 0.757812,-0.1523437 0.203125,0 0.386719,0.039063 0.183594,0.035156 0.359375,0.125 0.179688,0.089844 0.324219,0.2460937 0.144531,0.15625 0.230469,0.3632813 0.339843,-0.3828125 0.703125,-0.578125 0.367187,-0.1953125 0.84375,-0.1953125 0.476562,0 0.796875,0.1914062 0.324218,0.1914063 0.476562,0.5546875 0.15625,0.359375 0.15625,0.875 z M 31.5875,-0.23046875 Q 31.36875,-0.125 30.982031,-0.02734375 30.599218,0.0703125 30.247656,0.0703125 q -1.519531,0 -1.519531,-1.484375 V -3 h -0.636719 v -0.2460938 l 1.886719,-1.9218749 h 0.160156 v 1.1914062 h 1.34375 V -3 h -1.34375 v 1.2734375 q 0,0.2226563 0.02734,0.359375 0.02734,0.1367188 0.152343,0.2304688 0.128907,0.089844 0.386719,0.089844 0.335938,0 0.882813,-0.28125 z"
         id="text151"
         style="font-weight:700;font-size:8px;font-family:GillSans-Bold, 'Gill Sans';letter-spacing:-0.04em"
         transform="translate(119.01 287.35) scale(.88 1)"
         aria-label="FM Amt" />
      <path
         d="M 5.8710937,-4.0976562 H 3.8867188 V 0 H 2.2578125 v -4.0976562 h -1.984375 v -1.3164063 h 5.5976562 z m 3.9924999,2.1054687 q 0,0.59375 -0.2578125,1.05859375 -0.2578125,0.46484375 -0.7734375,0.734375 -0.5117188,0.26953125 -1.25,0.26953125 -0.7382813,0 -1.2539063,-0.26953125 Q 5.8167186,-0.46875 5.5589061,-0.93359375 5.3049998,-1.3984375 5.3049998,-1.9921875 q 0,-0.4492188 0.140625,-0.8164063 0.1445313,-0.3671875 0.4335938,-0.6484375 0.2929687,-0.2851562 0.71875,-0.4375 0.4257812,-0.1523437 0.984375,-0.1523437 0.5625,0 0.9921875,0.15625 0.4335937,0.1523437 0.7148437,0.4296875 0.2851563,0.2773437 0.4296875,0.6484375 0.1445313,0.3710937 0.1445313,0.8203125 z m -1.4804688,0 q 0,-0.4726563 -0.2070312,-0.7382813 Q 7.9729686,-3 7.5823436,-3 q -0.3867188,0 -0.59375,0.2695312 -0.203125,0.265625 -0.203125,0.7382813 0,0.46875 0.2070312,0.7421875 0.2070313,0.2734375 0.5898438,0.2734375 0.390625,0 0.59375,-0.2695312 0.2070312,-0.2734375 0.2070312,-0.7460938 z M 14.520156,0 h -1.40625 v -2.1445313 q 0,-0.328125 -0.109375,-0.5703125 -0.105469,-0.2460937 -0.46875,-0.2460937 -0.171875,0 -0.304688,0.066406 -0.128906,0.0625 -0.234375,0.1640625 -0.101562,0.1015625 -0.171875,0.1953125 -0.07031,0.09375 -0.144531,0.1992188 V 0 h -1.40625 v -3.9765625 h 1.40625 V -3.40625 q 0.332031,-0.3554688 0.664063,-0.4960938 0.335937,-0.1445312 0.746093,-0.1445312 1.429688,0 1.429688,1.7109375 z m 4.601875,-1.6484375 H 16.32125 q 0.08203,0.3632813 0.402344,0.59375 0.320312,0.23046875 0.726562,0.23046875 0.710938,0 1.570313,-0.39843745 v 0.8710937 q -0.308594,0.16015625 -0.75,0.29296875 -0.4375,0.12890625 -1.117188,0.12890625 -0.734375,0 -1.25,-0.2734375 -0.515625,-0.2734375 -0.773437,-0.7421875 -0.253907,-0.46875 -0.253907,-1.0625 0,-0.5859375 0.253907,-1.046875 0.257812,-0.4648438 0.773437,-0.7265625 0.515625,-0.265625 1.25,-0.265625 0.484375,0 0.933594,0.2109375 0.453125,0.2070312 0.742187,0.6835937 0.292969,0.4726563 0.292969,1.2226563 z M 17.801719,-2.34375 q 0,-0.3828125 -0.191407,-0.609375 -0.1875,-0.2304688 -0.542968,-0.2304688 -0.351563,0 -0.570313,0.234375 -0.214844,0.2304688 -0.214844,0.6054688 z"
         id="text152"
         style="font-weight:700;font-size:8px;font-family:GillSans-Bold, 'Gill Sans';letter-spacing:-0.04em"
         transform="translate(172.33 287.35) scale(.88 1)"
         aria-label="Tone" />
      <path
         d="m 6.4726562,-2.7109375 q 0,0.7578125 -0.3515625,1.3945313 -0.3476562,0.6367187 -1.0390625,1.0117187 -0.6914062,0.375 -1.6835937,0.375 -1.0039062,0 -1.6992188,-0.390625 Q 1.0039062,-0.7109375 0.6640625,-1.3476562 0.328125,-1.984375 0.328125,-2.7109375 q 0,-0.7304688 0.3359375,-1.3632812 Q 1,-4.7109375 1.6953125,-5.0976562 q 0.6992188,-0.390625 1.703125,-0.390625 0.75,0 1.3359375,0.2226562 0.5898437,0.2226563 0.96875,0.6054688 0.3789062,0.3789062 0.5742187,0.8867187 0.1953125,0.5039062 0.1953125,1.0625 z m -1.6640625,0 q 0,-0.3046875 -0.089844,-0.5546875 -0.089844,-0.2539063 -0.2734375,-0.4375 -0.1796875,-0.1875 -0.4414063,-0.2890625 -0.2617187,-0.1054687 -0.6054687,-0.1054687 -0.65625,0 -1.03125,0.3828124 -0.375,0.3828125 -0.375,1.0039063 0,0.6210937 0.375,1.0078125 0.3789063,0.3828125 1.03125,0.3828125 0.4492188,0 0.765625,-0.1757812 0.3164062,-0.1796875 0.4804687,-0.4921875 0.1640625,-0.3164063 0.1640625,-0.7226563 z M 11.129219,0 H 9.7190623 v -0.56640625 q -0.296875,0.3203125 -0.625,0.48046875 -0.3242187,0.15625 -0.78125,0.15625 -0.9023437,0 -1.1679687,-0.5234375 -0.265625,-0.52734375 -0.265625,-1.1875 v -2.3359375 h 1.4101562 v 2.1484375 q 0,0.3242188 0.1054688,0.5703125 0.109375,0.2421875 0.46875,0.2421875 0.3085937,0 0.4882812,-0.1757812 0.1796875,-0.1757813 0.3671875,-0.4492188 v -2.3359375 h 1.4101567 z m 3.715156,-0.23046875 q -0.21875,0.10546875 -0.605469,0.203125 -0.382813,0.09765625 -0.734375,0.09765625 -1.519531,0 -1.519531,-1.484375 V -3 H 11.348281 V -3.2460938 L 13.235,-5.1679687 h 0.160156 v 1.1914062 h 1.34375 V -3 h -1.34375 v 1.2734375 q 0,0.2226563 0.02734,0.359375 0.02734,0.1367188 0.152343,0.2304688 0.128907,0.089844 0.386719,0.089844 0.335938,0 0.882813,-0.28125 z"
         id="text153"
         style="font-weight:700;font-size:8px;font-family:GillSans-Bold, 'Gill Sans';letter-spacing:-0.04em;fill:#ededed"
         transform="translate(174.66 334.61) scale(.88 1)"
         aria-label="Out" />
      <path
         d="M 4.7617187,0 H 0.6796875 v -5.4140625 h 4.015625 V -4.328125 H 2.3125 v 0.9921875 h 2.2734375 v 1.0898437 H 2.3125 v 1.1562501 h 2.4492187 z m 4.7893749,0 h -1.40625 v -2.1445313 q 0,-0.328125 -0.109375,-0.5703125 -0.1054688,-0.2460937 -0.46875,-0.2460937 -0.171875,0 -0.3046875,0.066406 -0.1289063,0.0625 -0.234375,0.1640625 -0.1015625,0.1015625 -0.171875,0.1953125 -0.070312,0.09375 -0.1445313,0.1992188 V 0 h -1.40625 v -3.9765625 h 1.40625 V -3.40625 q 0.3320313,-0.3554688 0.6640625,-0.4960938 0.3359375,-0.1445312 0.7460938,-0.1445312 1.4296875,0 1.4296875,1.7109375 z M 14.26625,-3.9765625 12.457656,0 H 11.418593 L 9.6490622,-3.9765625 h 1.5117188 l 0.824219,2.0820313 0.914062,-2.0820313 z m 8.231093,1.265625 q 0,0.7578125 -0.351562,1.3945313 -0.347657,0.6367187 -1.039063,1.0117187 -0.691406,0.375 -1.683594,0.375 -1.003906,0 -1.699218,-0.390625 -0.695313,-0.390625 -1.035157,-1.0273437 -0.335937,-0.6367188 -0.335937,-1.3632813 0,-0.7304688 0.335937,-1.3632812 0.335938,-0.6367188 1.03125,-1.0234375 0.699219,-0.390625 1.703125,-0.390625 0.75,0 1.335938,0.2226562 0.589844,0.2226563 0.96875,0.6054688 0.378906,0.3789062 0.574219,0.8867187 0.195312,0.5039062 0.195312,1.0625 z m -1.664062,0 q 0,-0.3046875 -0.08984,-0.5546875 -0.08984,-0.2539063 -0.273438,-0.4375 -0.179687,-0.1875 -0.441406,-0.2890625 -0.261719,-0.1054687 -0.605469,-0.1054687 -0.65625,0 -1.03125,0.3828124 -0.375,0.3828125 -0.375,1.0039063 0,0.6210937 0.375,1.0078125 0.378907,0.3828125 1.03125,0.3828125 0.449219,0 0.765625,-0.1757812 0.316407,-0.1796875 0.480469,-0.4921875 0.164063,-0.3164063 0.164063,-0.7226563 z M 27.153906,0 H 25.74375 v -0.56640625 q -0.296875,0.3203125 -0.625,0.48046875 -0.324219,0.15625 -0.78125,0.15625 -0.902344,0 -1.167969,-0.5234375 -0.265625,-0.52734375 -0.265625,-1.1875 v -2.3359375 h 1.410156 v 2.1484375 q 0,0.3242188 0.105469,0.5703125 0.109375,0.2421875 0.46875,0.2421875 0.308594,0 0.488281,-0.1757812 0.179688,-0.1757813 0.367188,-0.4492188 v -2.3359375 h 1.410156 z m 3.715156,-0.23046875 q -0.21875,0.10546875 -0.605468,0.203125 -0.382813,0.09765625 -0.734375,0.09765625 -1.519532,0 -1.519532,-1.484375 V -3 h -0.636718 v -0.2460938 l 1.886718,-1.9218749 h 0.160157 v 1.1914062 h 1.34375 V -3 h -1.34375 v 1.2734375 q 0,0.2226563 0.02734,0.359375 0.02734,0.1367188 0.152344,0.2304688 0.128906,0.089844 0.386719,0.089844 0.335937,0 0.882812,-0.28125 z"
         id="text154"
         style="font-weight:700;font-size:8px;font-family:GillSans-Bold, 'Gill Sans';letter-spacing:-0.04em;fill:#ededed"
         transform="matrix(0.88,0,0,1,22.11,334.68)"
         aria-label="Env Out" />
    </g>
  </g>
  <g
     id="g2" />
</svg>
