<svg xmlns="http://www.w3.org/2000/svg" width="76.29mm" height="132.17mm" viewBox="0 0 216.25 374.65">
  <g id="faceplate">
    <rect x="0.13" y="0.13" width="216" height="364.25" style="fill: #ededed;stroke: #9d9d9e;stroke-miterlimit: 10;stroke-width: 0.25px" />
    <g>
      <path d="M30.18,184.47H28v5.13H26.21v-5.13H24v-1.64h6.16Z" />
      <path d="M35.45,187.11a3,3,0,0,1-.28,1.32,2.15,2.15,0,0,1-.85.92,2.71,2.71,0,0,1-1.38.33,2.65,2.65,0,0,1-1.37-.33,2.15,2.15,0,0,1-.85-.92,3,3,0,0,1-.28-1.32,3.22,3.22,0,0,1,.15-1,2.5,2.5,0,0,1,.48-.82,2.31,2.31,0,0,1,.79-.54,2.78,2.78,0,0,1,1.08-.19,2.88,2.88,0,0,1,1.1.19,2.1,2.1,0,0,1,.78.54,2.19,2.19,0,0,1,.47.81A3.05,3.05,0,0,1,35.45,187.11Zm-1.63,0a1.64,1.64,0,0,0-.22-.93.82.82,0,0,0-1.31,0,2.05,2.05,0,0,0,0,1.85.79.79,0,0,0,1.31,0A1.69,1.69,0,0,0,33.82,187.11Z" />
      <path d="M40.57,189.6H39v-2.68a1.94,1.94,0,0,0-.12-.72.5.5,0,0,0-.52-.3.6.6,0,0,0-.33.08,1,1,0,0,0-.26.2c-.07.09-.14.17-.19.25s-.11.16-.16.25v2.92H35.9v-5h1.55v.71a2.24,2.24,0,0,1,.73-.62,1.86,1.86,0,0,1,.82-.18c1,0,1.57.71,1.57,2.14Z" />
      <path d="M45.64,187.54H42.56a1.21,1.21,0,0,0,.44.74,1.23,1.23,0,0,0,.8.29,3.77,3.77,0,0,0,1.72-.5v1.09a4.56,4.56,0,0,1-.82.36,3.86,3.86,0,0,1-1.23.16,2.56,2.56,0,0,1-1.37-.34,2,2,0,0,1-.85-.92,3,3,0,0,1-.28-1.33,2.9,2.9,0,0,1,.28-1.31,2,2,0,0,1,.85-.91,2.65,2.65,0,0,1,1.37-.33,2.22,2.22,0,0,1,1,.26,2,2,0,0,1,.82.85,3.28,3.28,0,0,1,.32,1.53Zm-1.46-.87a1.35,1.35,0,0,0-.2-.77.7.7,0,0,0-.6-.28.76.76,0,0,0-.63.29,1.14,1.14,0,0,0-.24.76Z" />
      <path d="M53.05,189.6H48.56v-6.77H53v1.36H50.36v1.24h2.5v1.36h-2.5v1.44h2.69Z" />
      <path d="M58.32,189.6H56.77v-2.68a1.94,1.94,0,0,0-.12-.72.5.5,0,0,0-.52-.3.62.62,0,0,0-.33.08,1.21,1.21,0,0,0-.26.2c-.07.09-.14.17-.19.25l-.16.25v2.92H53.65v-5h1.54v.71a2.26,2.26,0,0,1,.74-.62,1.8,1.8,0,0,1,.82-.18c1,0,1.57.71,1.57,2.14Z" />
      <path d="M63.5,184.63l-2,5H60.37l-1.94-5h1.66l.9,2.6,1-2.6Z" />
    </g>
    <path d="M43.62,143.6a19.9,19.9,0,0,0-2.45.17l-.39-2.21a21.4,21.4,0,0,1,5.69,0l-.39,2.21A19.92,19.92,0,0,0,43.62,143.6Z" />
    <path d="M29.13,150l-1.72-1.45a22,22,0,0,1,4.34-3.65l1.12,1.94A19.52,19.52,0,0,0,29.13,150Z" />
    <path d="M34.6,145.8l-1.13-1.94a22.31,22.31,0,0,1,5.34-2l.39,2.22A19.61,19.61,0,0,0,34.6,145.8Z" />
    <path d="M25.39,155.74l-2.1-.77a22.56,22.56,0,0,1,2.83-4.91l1.73,1.45A19.81,19.81,0,0,0,25.39,155.74Z" />
    <path d="M48.05,144.12l.39-2.22a21.67,21.67,0,0,1,5.33,2l-1.12,1.94A19.61,19.61,0,0,0,48.05,144.12Z" />
    <path d="M23.91,162.43H21.65a22,22,0,0,1,1-5.58l2.11.77A19.68,19.68,0,0,0,23.91,162.43Z" />
    <path d="M24.77,169.23l-2.1.77a22.17,22.17,0,0,1-1-5.57H23.9A19.74,19.74,0,0,0,24.77,169.23Z" />
    <path d="M27.91,175.31l-1.71,1.44a21.77,21.77,0,0,1-2.84-4.87l2.1-.77A19.8,19.8,0,0,0,27.91,175.31Z" />
    <path d="M59.4,151.51l1.73-1.45A22.56,22.56,0,0,1,64,155l-2.1.77A19.81,19.81,0,0,0,59.4,151.51Z" />
    <path d="M62.53,157.62l2.11-.77a22,22,0,0,1,1,5.58H63.34A19.6,19.6,0,0,0,62.53,157.62Z" />
    <path d="M63.35,164.43h2.24a22.17,22.17,0,0,1-1,5.57l-2.1-.77A19.74,19.74,0,0,0,63.35,164.43Z" />
    <path d="M61.79,171.11l2.1.77a21.83,21.83,0,0,1-2.84,4.87l-1.71-1.44A19.63,19.63,0,0,0,61.79,171.11Z" />
    <path d="M32.93,180l-1.12,1.93a22.09,22.09,0,0,1-4.31-3.61l1.71-1.44A20,20,0,0,0,32.93,180Z" />
    <path d="M58,176.84l1.72,1.43a22.14,22.14,0,0,1-4.32,3.62L54.32,180A19.67,19.67,0,0,0,58,176.84Z" />
    <path d="M54.38,146.81l1.12-1.95a22.41,22.41,0,0,1,4.35,3.66L58.12,150A19.52,19.52,0,0,0,54.38,146.81Z" />
    <g>
      <path d="M38.7,68.28a2.34,2.34,0,0,1-.12.74,2.08,2.08,0,0,1-.36.67,1.92,1.92,0,0,1-.69.5,2.48,2.48,0,0,1-1,.19H35.34v2.54h-1.8V66.15h3a2.47,2.47,0,0,1,1,.2,1.83,1.83,0,0,1,.69.51,2,2,0,0,1,.36.68A2.34,2.34,0,0,1,38.7,68.28Zm-1.83,0a.78.78,0,0,0-.25-.66,1.66,1.66,0,0,0-.91-.18h-.37v1.63h.38a3,3,0,0,0,.69-.06.56.56,0,0,0,.35-.23A1,1,0,0,0,36.87,68.29Z" />
      <path d="M40.72,72.92H39.17V68h1.55Zm-.13-6.12a.77.77,0,0,1-.19.53.6.6,0,0,1-.46.21.56.56,0,0,1-.33-.1.58.58,0,0,1-.23-.26.82.82,0,0,1-.09-.38.76.76,0,0,1,.19-.52.59.59,0,0,1,.92,0A.76.76,0,0,1,40.59,66.8Z" />
      <path d="M44.88,72.63a3.12,3.12,0,0,1-.66.26,2.94,2.94,0,0,1-.81.12c-1.12,0-1.67-.62-1.67-1.86v-2H41v-.31l2.07-2.4h.18V68h1.48v1.22H43.29v1.59a2.64,2.64,0,0,0,0,.45.44.44,0,0,0,.17.29.68.68,0,0,0,.42.11,2,2,0,0,0,1-.35Z" />
      <path d="M49,72.69l-.41.16c-.15,0-.31.08-.49.11a3.48,3.48,0,0,1-.58.05,2.42,2.42,0,0,1-1.22-.28A2,2,0,0,1,45.5,72a2.75,2.75,0,0,1-.37-.85,2.75,2.75,0,0,1,0-1.54,2.65,2.65,0,0,1,.37-.83,2,2,0,0,1,.75-.68,2.46,2.46,0,0,1,1.23-.28,3.43,3.43,0,0,1,.79.08,4.12,4.12,0,0,1,.62.21v1.38a3.84,3.84,0,0,0-1.19-.27,1.08,1.08,0,0,0-.73.28,1.13,1.13,0,0,0-.32.88,1.26,1.26,0,0,0,.16.67,1.09,1.09,0,0,0,.4.4,1.14,1.14,0,0,0,.49.12,1.75,1.75,0,0,0,.53-.08c.2,0,.44-.12.73-.22Z" />
      <path d="M54,72.92H52.48V70.17a1.54,1.54,0,0,0-.13-.65.51.51,0,0,0-.51-.3.7.7,0,0,0-.51.22,3.29,3.29,0,0,0-.43.56v2.92H49.36V66.15H50.9v2.51a2.21,2.21,0,0,1,.76-.63,1.93,1.93,0,0,1,.79-.17c1,0,1.58.67,1.58,2Z" />
    </g>
    <g>
      <path d="M43.62,26.49a19.9,19.9,0,0,0-2.45.17l-.39-2.21a21.4,21.4,0,0,1,5.69,0l-.39,2.21A19.92,19.92,0,0,0,43.62,26.49Z" />
      <path d="M29.13,32.86l-1.72-1.45a22.35,22.35,0,0,1,4.34-3.65l1.12,1.94A19.88,19.88,0,0,0,29.13,32.86Z" />
      <path d="M34.6,28.7l-1.13-1.95a21.87,21.87,0,0,1,5.34-1.95L39.2,27A19.19,19.19,0,0,0,34.6,28.7Z" />
      <path d="M25.39,38.63l-2.1-.76A22.4,22.4,0,0,1,26.12,33l1.73,1.45A19.81,19.81,0,0,0,25.39,38.63Z" />
      <path d="M48.05,27l.39-2.21a21.64,21.64,0,0,1,5.33,1.95L52.65,28.7A19.19,19.19,0,0,0,48.05,27Z" />
      <path d="M23.91,45.33H21.65a21.81,21.81,0,0,1,1-5.58l2.11.76A19.68,19.68,0,0,0,23.91,45.33Z" />
      <path d="M24.77,52.13l-2.1.76a22.09,22.09,0,0,1-1-5.56H23.9A19.92,19.92,0,0,0,24.77,52.13Z" />
      <path d="M27.91,58.21,26.2,59.65a22.06,22.06,0,0,1-2.84-4.88l2.1-.77A20.12,20.12,0,0,0,27.91,58.21Z" />
      <path d="M59.4,34.4,61.13,33A22.4,22.4,0,0,1,64,37.87l-2.1.76A19.81,19.81,0,0,0,59.4,34.4Z" />
      <path d="M62.53,40.51l2.11-.77a22,22,0,0,1,1,5.59H63.34A19.68,19.68,0,0,0,62.53,40.51Z" />
      <path d="M63.35,47.33h2.24a22.09,22.09,0,0,1-1,5.56l-2.1-.77A19.75,19.75,0,0,0,63.35,47.33Z" />
      <path d="M61.79,54l2.1.77a21.39,21.39,0,0,1-2.84,4.87l-1.71-1.43A19.7,19.7,0,0,0,61.79,54Z" />
      <path d="M32.93,62.85l-1.12,1.93a21.74,21.74,0,0,1-4.31-3.61l1.71-1.44A19.62,19.62,0,0,0,32.93,62.85Z" />
      <path d="M58,59.73l1.72,1.44a22.09,22.09,0,0,1-4.32,3.61l-1.12-1.93A19.31,19.31,0,0,0,58,59.73Z" />
      <path d="M54.38,29.7l1.12-1.94a22.72,22.72,0,0,1,4.35,3.65l-1.73,1.45A19.88,19.88,0,0,0,54.38,29.7Z" />
    </g>
    <path d="M108.12,26.49a19.9,19.9,0,0,0-2.45.17l-.39-2.21a21.4,21.4,0,0,1,5.69,0l-.39,2.21A19.92,19.92,0,0,0,108.12,26.49Z" />
    <g>
      <path d="M94.38,68.28a2.33,2.33,0,0,1-.11.74,2.11,2.11,0,0,1-.37.67,2,2,0,0,1-.68.5,2.48,2.48,0,0,1-1,.19H91v2.54H89.23V66.15h3a2.47,2.47,0,0,1,1,.2,1.87,1.87,0,0,1,.68.51,2.05,2.05,0,0,1,.37.68A2.33,2.33,0,0,1,94.38,68.28Zm-1.83,0a.75.75,0,0,0-.25-.66,1.64,1.64,0,0,0-.9-.18H91v1.63h.39A3,3,0,0,0,92.1,69a.59.59,0,0,0,.35-.23A1,1,0,0,0,92.55,68.29Z" />
      <path d="M96.4,72.92H94.85V68H96.4Zm-.12-6.12a.82.82,0,0,1-.19.53.62.62,0,0,1-.46.21.56.56,0,0,1-.33-.1.67.67,0,0,1-.24-.26A1,1,0,0,1,95,66.8a.76.76,0,0,1,.19-.52.57.57,0,0,1,.46-.22.6.6,0,0,1,.46.22A.81.81,0,0,1,96.28,66.8Z" />
      <path d="M100.57,72.63a3,3,0,0,1-.67.26,2.94,2.94,0,0,1-.81.12c-1.11,0-1.67-.62-1.67-1.86v-2h-.7v-.31l2.08-2.4H99V68h1.48v1.22H99v1.59a2.64,2.64,0,0,0,0,.45.48.48,0,0,0,.17.29.74.74,0,0,0,.43.11,2,2,0,0,0,1-.35Z" />
      <path d="M104.64,72.69l-.41.16a4.32,4.32,0,0,1-.48.11,3.51,3.51,0,0,1-.59.05,2.41,2.41,0,0,1-1.21-.28,2.07,2.07,0,0,1-.77-.69,3,3,0,0,1-.37-.85,3,3,0,0,1,0-1.54,3.21,3.21,0,0,1,.37-.83,2.1,2.1,0,0,1,.76-.68,2.42,2.42,0,0,1,1.22-.28,3.31,3.31,0,0,1,.79.08,3.78,3.78,0,0,1,.62.21v1.38a3.79,3.79,0,0,0-1.18-.27,1.06,1.06,0,0,0-.73.28,1.09,1.09,0,0,0-.32.88,1.26,1.26,0,0,0,.16.67,1,1,0,0,0,.4.4,1.11,1.11,0,0,0,.49.12,1.8,1.8,0,0,0,.53-.08c.2,0,.44-.12.72-.22Z" />
      <path d="M109.71,72.92h-1.54V70.17a1.54,1.54,0,0,0-.13-.65.51.51,0,0,0-.51-.3.7.7,0,0,0-.52.22,2.82,2.82,0,0,0-.42.56v2.92H105V66.15h1.55v2.51a2.18,2.18,0,0,1,.75-.63,2,2,0,0,1,.8-.17c1,0,1.57.67,1.57,2Z" />
      <path d="M117.29,72.92H112.8V66.15h4.42v1.36H114.6v1.24h2.5v1.36h-2.5v1.45h2.69Z" />
      <path d="M122.56,72.92H121V70.24a1.93,1.93,0,0,0-.11-.71.49.49,0,0,0-.52-.31.67.67,0,0,0-.33.08.75.75,0,0,0-.26.21,1.33,1.33,0,0,0-.19.24,2.13,2.13,0,0,0-.16.25v2.92h-1.55V68h1.55v.71a2.26,2.26,0,0,1,.73-.62,1.83,1.83,0,0,1,.82-.18c1.05,0,1.57.72,1.57,2.14Z" />
      <path d="M127.75,68l-2,5h-1.15l-1.94-5h1.66l.91,2.6,1-2.6Z" />
    </g>
    <path d="M93.63,32.86l-1.72-1.45a22.35,22.35,0,0,1,4.34-3.65l1.12,1.94A19.88,19.88,0,0,0,93.63,32.86Z" />
    <path d="M99.1,28.7,98,26.75a21.87,21.87,0,0,1,5.34-1.95L103.7,27A19.19,19.19,0,0,0,99.1,28.7Z" />
    <path d="M89.89,38.63l-2.1-.76A22.4,22.4,0,0,1,90.62,33l1.73,1.45A19.81,19.81,0,0,0,89.89,38.63Z" />
    <path d="M112.55,27l.39-2.21a21.64,21.64,0,0,1,5.33,1.95l-1.12,1.95A19.19,19.19,0,0,0,112.55,27Z" />
    <path d="M88.41,45.33H86.15a21.81,21.81,0,0,1,1-5.58l2.11.76A19.68,19.68,0,0,0,88.41,45.33Z" />
    <path d="M89.27,52.13l-2.1.76a22.09,22.09,0,0,1-1-5.56H88.4A19.92,19.92,0,0,0,89.27,52.13Z" />
    <path d="M92.41,58.21,90.7,59.65a22.06,22.06,0,0,1-2.84-4.88L90,54A20.12,20.12,0,0,0,92.41,58.21Z" />
    <path d="M123.9,34.4,125.63,33a22.4,22.4,0,0,1,2.83,4.92l-2.1.76A19.81,19.81,0,0,0,123.9,34.4Z" />
    <path d="M127,40.51l2.11-.77a22,22,0,0,1,1,5.59h-2.26A19.68,19.68,0,0,0,127,40.51Z" />
    <path d="M127.85,47.33h2.24a22.09,22.09,0,0,1-1,5.56l-2.1-.77A19.75,19.75,0,0,0,127.85,47.33Z" />
    <path d="M126.29,54l2.1.77a21.39,21.39,0,0,1-2.84,4.87l-1.71-1.43A19.7,19.7,0,0,0,126.29,54Z" />
    <path d="M97.43,62.85l-1.12,1.93A21.74,21.74,0,0,1,92,61.17l1.71-1.44A19.62,19.62,0,0,0,97.43,62.85Z" />
    <path d="M122.54,59.73l1.72,1.44a22.09,22.09,0,0,1-4.32,3.61l-1.12-1.93A19.31,19.31,0,0,0,122.54,59.73Z" />
    <path d="M118.88,29.7,120,27.76a22.72,22.72,0,0,1,4.35,3.65l-1.73,1.45A19.88,19.88,0,0,0,118.88,29.7Z" />
    <g>
      <path d="M157,68.28a2.34,2.34,0,0,1-.12.74,2.08,2.08,0,0,1-.36.67,1.92,1.92,0,0,1-.69.5,2.48,2.48,0,0,1-1,.19h-1.17v2.54h-1.8V66.15h3a2.47,2.47,0,0,1,1,.2,1.83,1.83,0,0,1,.69.51,2,2,0,0,1,.36.68A2.34,2.34,0,0,1,157,68.28Zm-1.83,0a.78.78,0,0,0-.25-.66,1.66,1.66,0,0,0-.91-.18h-.37v1.63H154a3,3,0,0,0,.69-.06.56.56,0,0,0,.35-.23A1,1,0,0,0,155.18,68.29Z" />
      <path d="M159,72.92h-1.55V68H159Zm-.13-6.12a.77.77,0,0,1-.19.53.6.6,0,0,1-.46.21.56.56,0,0,1-.33-.1.58.58,0,0,1-.23-.26.82.82,0,0,1-.09-.38.76.76,0,0,1,.19-.52.59.59,0,0,1,.92,0A.76.76,0,0,1,158.9,66.8Z" />
      <path d="M163.19,72.63a3.12,3.12,0,0,1-.66.26,2.94,2.94,0,0,1-.81.12c-1.12,0-1.67-.62-1.67-1.86v-2h-.7v-.31l2.07-2.4h.18V68h1.48v1.22H161.6v1.59a2.64,2.64,0,0,0,0,.45.44.44,0,0,0,.17.29.68.68,0,0,0,.42.11,2,2,0,0,0,1-.35Z" />
      <path d="M167.27,72.69l-.41.16c-.15,0-.31.08-.49.11a3.48,3.48,0,0,1-.58.05,2.42,2.42,0,0,1-1.22-.28,2,2,0,0,1-.76-.69,2.75,2.75,0,0,1-.37-.85,2.75,2.75,0,0,1,0-1.54,2.65,2.65,0,0,1,.37-.83,2,2,0,0,1,.75-.68,2.46,2.46,0,0,1,1.23-.28,3.43,3.43,0,0,1,.79.08,4.12,4.12,0,0,1,.62.21v1.38a3.85,3.85,0,0,0-1.18-.27,1.09,1.09,0,0,0-.74.28,1.13,1.13,0,0,0-.32.88,1.35,1.35,0,0,0,.16.67,1.09,1.09,0,0,0,.4.4,1.15,1.15,0,0,0,.5.12,1.74,1.74,0,0,0,.52-.08c.2,0,.44-.12.73-.22Z" />
      <path d="M172.34,72.92h-1.55V70.17a1.54,1.54,0,0,0-.13-.65.51.51,0,0,0-.51-.3.7.7,0,0,0-.51.22,3.29,3.29,0,0,0-.43.56v2.92h-1.54V66.15h1.54v2.51A2.21,2.21,0,0,1,170,68a1.93,1.93,0,0,1,.79-.17c1.05,0,1.58.67,1.58,2Z" />
      <path d="M182,72.92h-1.84l-.49-1.37h-2.59l-.49,1.37h-1.84l2.64-6.77h2Zm-2.74-2.55-.87-2.47-.88,2.47Z" />
      <path d="M190,72.92H188.4V70.27a1.65,1.65,0,0,0-.15-.79.55.55,0,0,0-.49-.26.69.69,0,0,0-.53.22,4.81,4.81,0,0,0-.41.56v2.92h-1.55V70.27a1.67,1.67,0,0,0-.14-.78.51.51,0,0,0-.5-.27.72.72,0,0,0-.32.08,1.06,1.06,0,0,0-.23.17l-.22.29-.16.24v2.92h-1.55V68h1.55v.71a2.44,2.44,0,0,1,.71-.61,1.85,1.85,0,0,1,.83-.19,2,2,0,0,1,.43,0,1.4,1.4,0,0,1,.75.47,1.63,1.63,0,0,1,.25.45,2.88,2.88,0,0,1,.78-.72,1.65,1.65,0,0,1,.92-.25,1.52,1.52,0,0,1,.88.24,1.43,1.43,0,0,1,.53.69,3.22,3.22,0,0,1,.17,1.1Z" />
      <path d="M194,72.63a3.12,3.12,0,0,1-.66.26,2.94,2.94,0,0,1-.81.12c-1.11,0-1.67-.62-1.67-1.86v-2h-.7v-.31l2.07-2.4h.18V68h1.48v1.22h-1.48v1.59a2.64,2.64,0,0,0,0,.45.48.48,0,0,0,.17.29.68.68,0,0,0,.42.11,2,2,0,0,0,1-.35Z" />
    </g>
    <path d="M172.62,26.49a19.9,19.9,0,0,0-2.45.17l-.39-2.21a21.4,21.4,0,0,1,5.69,0l-.39,2.21A19.92,19.92,0,0,0,172.62,26.49Z" />
    <path d="M158.13,32.86l-1.72-1.45a22.35,22.35,0,0,1,4.34-3.65l1.12,1.94A19.88,19.88,0,0,0,158.13,32.86Z" />
    <path d="M163.6,28.7l-1.13-1.95a21.87,21.87,0,0,1,5.34-1.95L168.2,27A19.19,19.19,0,0,0,163.6,28.7Z" />
    <path d="M154.39,38.63l-2.1-.76A22.4,22.4,0,0,1,155.12,33l1.73,1.45A19.81,19.81,0,0,0,154.39,38.63Z" />
    <path d="M177.05,27l.39-2.21a21.64,21.64,0,0,1,5.33,1.95l-1.12,1.95A19.19,19.19,0,0,0,177.05,27Z" />
    <path d="M152.91,45.33h-2.26a21.81,21.81,0,0,1,1-5.58l2.11.76A19.68,19.68,0,0,0,152.91,45.33Z" />
    <path d="M153.77,52.13l-2.1.76a22.09,22.09,0,0,1-1-5.56h2.24A19.92,19.92,0,0,0,153.77,52.13Z" />
    <path d="M156.91,58.21l-1.71,1.44a22.06,22.06,0,0,1-2.84-4.88l2.1-.77A20.12,20.12,0,0,0,156.91,58.21Z" />
    <path d="M188.4,34.4,190.13,33A22.4,22.4,0,0,1,193,37.87l-2.1.76A19.81,19.81,0,0,0,188.4,34.4Z" />
    <path d="M191.53,40.51l2.11-.77a22,22,0,0,1,1,5.59h-2.26A19.68,19.68,0,0,0,191.53,40.51Z" />
    <path d="M192.35,47.33h2.24a22.09,22.09,0,0,1-1,5.56l-2.1-.77A19.75,19.75,0,0,0,192.35,47.33Z" />
    <path d="M190.79,54l2.1.77a21.39,21.39,0,0,1-2.84,4.87l-1.71-1.43A19.7,19.7,0,0,0,190.79,54Z" />
    <path d="M161.93,62.85l-1.12,1.93a21.74,21.74,0,0,1-4.31-3.61l1.71-1.44A19.62,19.62,0,0,0,161.93,62.85Z" />
    <path d="M187,59.73l1.72,1.44a22.09,22.09,0,0,1-4.32,3.61l-1.12-1.93A19.31,19.31,0,0,0,187,59.73Z" />
    <path d="M183.38,29.7l1.12-1.94a22.72,22.72,0,0,1,4.35,3.65l-1.73,1.45A19.88,19.88,0,0,0,183.38,29.7Z" />
    <g>
      <path d="M38.81,131H36.88l-.46-1.2a5.34,5.34,0,0,0-.47-1,1,1,0,0,0-.4-.39,1.23,1.23,0,0,0-.51-.09h-.2V131H33.05v-6.76H36.1a2,2,0,0,1,1.21.34,1.86,1.86,0,0,1,.68.83,2.31,2.31,0,0,1,.21.93,2,2,0,0,1-.17.86,1.62,1.62,0,0,1-.37.52,3.61,3.61,0,0,1-.43.3,1.72,1.72,0,0,1,.47.46,5.06,5.06,0,0,1,.51,1Zm-2.44-4.63a.73.73,0,0,0-.27-.65,1.62,1.62,0,0,0-.88-.19h-.38v1.64h.39a1.7,1.7,0,0,0,.9-.17A.72.72,0,0,0,36.37,126.41Z" />
      <path d="M43.56,130.79a3.92,3.92,0,0,1-.63.25,2.31,2.31,0,0,1-.69.09.75.75,0,0,1-.53-.15,1,1,0,0,1-.22-.38,2.08,2.08,0,0,1-.55.38,1.81,1.81,0,0,1-.8.15,1.37,1.37,0,0,1-.77-.19,1,1,0,0,1-.41-.47,1.52,1.52,0,0,1-.12-.59,1.36,1.36,0,0,1,.2-.76,1.63,1.63,0,0,1,.55-.49,5.48,5.48,0,0,1,.91-.39l.49-.18.25-.1.17-.09a1,1,0,0,0-.13-.56c-.09-.14-.27-.21-.56-.21a1.82,1.82,0,0,0-.94.26A3.22,3.22,0,0,0,39,128v-1.35a2.79,2.79,0,0,1,.62-.38,3.18,3.18,0,0,1,.7-.22,3.65,3.65,0,0,1,.74-.08,2.12,2.12,0,0,1,1.43.42,1.44,1.44,0,0,1,.48,1.15v1.92a1.44,1.44,0,0,0,0,.41.17.17,0,0,0,.17.13.8.8,0,0,0,.39-.14Zm-2.15-.95v-1.17a3.58,3.58,0,0,0-.8.45.68.68,0,0,0-.26.55.5.5,0,0,0,.13.38.37.37,0,0,0,.29.13.57.57,0,0,0,.32-.1A2,2,0,0,0,41.41,129.84Z" />
      <path d="M47.15,130.75a3.48,3.48,0,0,1-.67.26,2.94,2.94,0,0,1-.81.12c-1.11,0-1.67-.62-1.67-1.85v-2h-.7V127l2.08-2.41h.17v1.49H47v1.22H45.55v1.59a2.64,2.64,0,0,0,0,.45.48.48,0,0,0,.17.29.62.62,0,0,0,.42.11,2.07,2.07,0,0,0,1-.35Z" />
      <path d="M49.1,131H47.55v-5H49.1ZM49,124.92a.78.78,0,0,1-.2.53.6.6,0,0,1-.46.21.56.56,0,0,1-.33-.1.73.73,0,0,1-.23-.26.79.79,0,0,1-.09-.38.81.81,0,0,1,.19-.52.59.59,0,0,1,.92,0A.77.77,0,0,1,49,124.92Z" />
      <path d="M54.64,128.55a3,3,0,0,1-.28,1.33,2.13,2.13,0,0,1-.85.91,3,3,0,0,1-2.75,0,2.13,2.13,0,0,1-.85-.91,3,3,0,0,1-.28-1.33,3,3,0,0,1,.16-1,2.36,2.36,0,0,1,.47-.81,2.21,2.21,0,0,1,.79-.55,3,3,0,0,1,1.08-.19,2.88,2.88,0,0,1,1.1.2,2.1,2.1,0,0,1,.78.54,2.35,2.35,0,0,1,.48.81A3.31,3.31,0,0,1,54.64,128.55Zm-1.62,0a1.62,1.62,0,0,0-.23-.92.8.8,0,0,0-1.31,0,1.63,1.63,0,0,0-.22.92,1.6,1.6,0,0,0,.23.93.71.71,0,0,0,.64.34.73.73,0,0,0,.66-.34A1.64,1.64,0,0,0,53,128.55Z" />
    </g>
    <path d="M43.62,85.05a18.11,18.11,0,0,0-2.45.17L40.78,83a21.4,21.4,0,0,1,5.69,0l-.39,2.21A19.93,19.93,0,0,0,43.62,85.05Z" />
    <path d="M29.13,91.42,27.41,90a22.06,22.06,0,0,1,4.34-3.66l1.12,1.94A19.94,19.94,0,0,0,29.13,91.42Z" />
    <path d="M34.6,87.25l-1.13-2a21.87,21.87,0,0,1,5.34-2l.39,2.21A19.63,19.63,0,0,0,34.6,87.25Z" />
    <path d="M25.39,97.19l-2.1-.77a22.4,22.4,0,0,1,2.83-4.92L27.85,93A19.64,19.64,0,0,0,25.39,97.19Z" />
    <path d="M48.05,85.56l.39-2.21a21.64,21.64,0,0,1,5.33,2l-1.12,2A19.19,19.19,0,0,0,48.05,85.56Z" />
    <path d="M23.91,103.88H21.65a22,22,0,0,1,1-5.58l2.11.77A19.6,19.6,0,0,0,23.91,103.88Z" />
    <path d="M24.77,110.68l-2.1.76a22,22,0,0,1-1-5.56H23.9A19.83,19.83,0,0,0,24.77,110.68Z" />
    <path d="M27.91,116.76,26.2,118.2a22.06,22.06,0,0,1-2.84-4.88l2.1-.76A20.31,20.31,0,0,0,27.91,116.76Z" />
    <path d="M59.4,93l1.73-1.45A22.4,22.4,0,0,1,64,96.42l-2.1.76A19.81,19.81,0,0,0,59.4,93Z" />
    <path d="M62.53,99.07l2.11-.77a21.88,21.88,0,0,1,1,5.58H63.34A19.6,19.6,0,0,0,62.53,99.07Z" />
    <path d="M63.35,105.88h2.24a22,22,0,0,1-1,5.56l-2.1-.76A19.83,19.83,0,0,0,63.35,105.88Z" />
    <path d="M61.79,112.56l2.1.76a21.68,21.68,0,0,1-2.84,4.88l-1.71-1.44A19.87,19.87,0,0,0,61.79,112.56Z" />
    <path d="M32.93,121.4l-1.12,1.94a22.13,22.13,0,0,1-4.31-3.62l1.71-1.43A19.94,19.94,0,0,0,32.93,121.4Z" />
    <path d="M58,118.28l1.72,1.44a22.5,22.5,0,0,1-4.32,3.62l-1.12-1.94A19.31,19.31,0,0,0,58,118.28Z" />
    <path d="M54.38,88.25l1.12-1.94A22.41,22.41,0,0,1,59.85,90l-1.73,1.45A19.94,19.94,0,0,0,54.38,88.25Z" />
    <g>
      <path d="M97.55,128.3H95.08V131h-1.8v-6.76h4.27v1.35H95.08v1.31h2.47Z" />
      <path d="M105.33,131h-1.79v-3.92l-1.62,2.27h-.15l-1.62-2.27V131H98.41v-6.76H100l1.83,2.53,1.84-2.53h1.63Z" />
      <path d="M113.23,131h-4.49v-6.76h4.42v1.35h-2.62v1.24H113v1.37h-2.5v1.44h2.69Z" />
      <path d="M118.5,131H117v-2.68a1.92,1.92,0,0,0-.12-.71.49.49,0,0,0-.52-.31.67.67,0,0,0-.33.08,1.33,1.33,0,0,0-.26.21,1.8,1.8,0,0,0-.19.24l-.16.25V131h-1.55v-5h1.55v.72a2.28,2.28,0,0,1,.73-.63,1.86,1.86,0,0,1,.82-.18c1,0,1.57.72,1.57,2.14Z" />
      <path d="M123.69,126.07l-2,5h-1.14l-2-5h1.66l.91,2.6,1-2.6Z" />
    </g>
    <path d="M108.12,85.05a19.9,19.9,0,0,0-2.45.17L105.28,83A21.4,21.4,0,0,1,111,83l-.39,2.22A19.92,19.92,0,0,0,108.12,85.05Z" />
    <path d="M93.63,91.42,91.91,90a22.06,22.06,0,0,1,4.34-3.66l1.12,1.94A19.94,19.94,0,0,0,93.63,91.42Z" />
    <path d="M99.1,87.25,98,85.31a21.49,21.49,0,0,1,5.34-2l.39,2.21A20.09,20.09,0,0,0,99.1,87.25Z" />
    <path d="M89.89,97.19l-2.1-.77a22.4,22.4,0,0,1,2.83-4.92L92.35,93A19.64,19.64,0,0,0,89.89,97.19Z" />
    <path d="M112.55,85.56l.39-2.21a21.64,21.64,0,0,1,5.33,2l-1.12,2A19.63,19.63,0,0,0,112.55,85.56Z" />
    <path d="M88.41,103.88H86.15a22,22,0,0,1,1-5.58l2.11.77A19.6,19.6,0,0,0,88.41,103.88Z" />
    <path d="M89.27,110.68l-2.1.76a22,22,0,0,1-1-5.56H88.4A19.74,19.74,0,0,0,89.27,110.68Z" />
    <path d="M92.41,116.76,90.7,118.2a22.06,22.06,0,0,1-2.84-4.88l2.1-.76A20.05,20.05,0,0,0,92.41,116.76Z" />
    <path d="M123.9,93l1.73-1.45a22.4,22.4,0,0,1,2.83,4.92l-2.1.76A19.81,19.81,0,0,0,123.9,93Z" />
    <path d="M127,99.07l2.11-.77a21.88,21.88,0,0,1,1,5.58h-2.26A19.6,19.6,0,0,0,127,99.07Z" />
    <path d="M127.85,105.88h2.24a22,22,0,0,1-1,5.56l-2.1-.76A19.74,19.74,0,0,0,127.85,105.88Z" />
    <path d="M126.29,112.56l2.1.76a21.68,21.68,0,0,1-2.84,4.88l-1.71-1.44A19.87,19.87,0,0,0,126.29,112.56Z" />
    <path d="M97.43,121.4l-1.12,1.94A22.13,22.13,0,0,1,92,119.72l1.71-1.43A19.94,19.94,0,0,0,97.43,121.4Z" />
    <path d="M122.54,118.28l1.72,1.44a22.5,22.5,0,0,1-4.32,3.62l-1.12-1.94A19.31,19.31,0,0,0,122.54,118.28Z" />
    <path d="M118.88,88.25,120,86.31A22.41,22.41,0,0,1,124.35,90l-1.73,1.45A19.94,19.94,0,0,0,118.88,88.25Z" />
    <g>
      <path d="M160.18,128.3H157.7V131h-1.79v-6.76h4.27v1.35H157.7v1.31h2.48Z" />
      <path d="M168,131h-1.8v-3.92l-1.62,2.27h-.14l-1.63-2.27V131H161v-6.76h1.63l1.83,2.53,1.84-2.53H168Z" />
      <path d="M177.91,131h-1.84l-.49-1.37H173l-.5,1.37h-1.84l2.64-6.76h2Zm-2.74-2.55L174.3,126l-.88,2.47Z" />
      <path d="M185.89,131h-1.55v-2.65a1.65,1.65,0,0,0-.15-.79.52.52,0,0,0-.48-.26.7.7,0,0,0-.53.22,3.25,3.25,0,0,0-.41.56V131h-1.55v-2.65a1.76,1.76,0,0,0-.14-.77.53.53,0,0,0-.51-.28.65.65,0,0,0-.31.08.76.76,0,0,0-.24.18,3.08,3.08,0,0,0-.22.28l-.16.24V131h-1.55v-5h1.55v.72a2.49,2.49,0,0,1,.71-.62,1.85,1.85,0,0,1,.83-.19,2,2,0,0,1,.43,0,1.34,1.34,0,0,1,.4.16,1.26,1.26,0,0,1,.35.31,1.41,1.41,0,0,1,.25.45,2.88,2.88,0,0,1,.78-.72,1.8,1.8,0,0,1,.93-.25,1.49,1.49,0,0,1,.87.24,1.37,1.37,0,0,1,.53.69,3.26,3.26,0,0,1,.17,1.1Z" />
      <path d="M189.91,130.75a3.23,3.23,0,0,1-.67.26,2.94,2.94,0,0,1-.81.12c-1.11,0-1.67-.62-1.67-1.85v-2h-.7V127l2.08-2.41h.17v1.49h1.48v1.22h-1.48v1.59a2.64,2.64,0,0,0,0,.45.48.48,0,0,0,.17.29.67.67,0,0,0,.43.11,2,2,0,0,0,1-.35Z" />
    </g>
    <path d="M172.62,85.05a18.11,18.11,0,0,0-2.45.17L169.78,83a21.4,21.4,0,0,1,5.69,0l-.39,2.21A19.93,19.93,0,0,0,172.62,85.05Z" />
    <path d="M158.13,91.42,156.41,90a22.06,22.06,0,0,1,4.34-3.66l1.12,1.94A19.94,19.94,0,0,0,158.13,91.42Z" />
    <path d="M163.6,87.25l-1.13-2a21.87,21.87,0,0,1,5.34-2l.39,2.21A19.63,19.63,0,0,0,163.6,87.25Z" />
    <path d="M154.39,97.19l-2.1-.77a22.4,22.4,0,0,1,2.83-4.92L156.85,93A19.64,19.64,0,0,0,154.39,97.19Z" />
    <path d="M177.05,85.56l.39-2.21a21.64,21.64,0,0,1,5.33,2l-1.12,2A19.19,19.19,0,0,0,177.05,85.56Z" />
    <path d="M152.91,103.88h-2.26a22,22,0,0,1,1-5.58l2.11.77A19.6,19.6,0,0,0,152.91,103.88Z" />
    <path d="M153.77,110.68l-2.1.76a22,22,0,0,1-1-5.56h2.24A19.83,19.83,0,0,0,153.77,110.68Z" />
    <path d="M156.91,116.76l-1.71,1.44a22.06,22.06,0,0,1-2.84-4.88l2.1-.76A20.31,20.31,0,0,0,156.91,116.76Z" />
    <path d="M188.4,93l1.73-1.45A22.4,22.4,0,0,1,193,96.42l-2.1.76A19.81,19.81,0,0,0,188.4,93Z" />
    <path d="M191.53,99.07l2.11-.77a21.88,21.88,0,0,1,1,5.58h-2.26A19.6,19.6,0,0,0,191.53,99.07Z" />
    <path d="M192.35,105.88h2.24a22,22,0,0,1-1,5.56l-2.1-.76A19.83,19.83,0,0,0,192.35,105.88Z" />
    <path d="M190.79,112.56l2.1.76a21.68,21.68,0,0,1-2.84,4.88l-1.71-1.44A19.87,19.87,0,0,0,190.79,112.56Z" />
    <path d="M161.93,121.4l-1.12,1.94a22.13,22.13,0,0,1-4.31-3.62l1.71-1.43A19.94,19.94,0,0,0,161.93,121.4Z" />
    <path d="M187,118.28l1.72,1.44a22.5,22.5,0,0,1-4.32,3.62l-1.12-1.94A19.31,19.31,0,0,0,187,118.28Z" />
    <path d="M183.38,88.25l1.12-1.94A22.41,22.41,0,0,1,188.85,90l-1.73,1.45A19.94,19.94,0,0,0,183.38,88.25Z" />
    <g>
      <path d="M99.86,354a4.12,4.12,0,0,1-.34,1.83,3.57,3.57,0,0,1-.8,1.12,2.55,2.55,0,0,1-1.84.63H93.59v-7.44h2.54a5.63,5.63,0,0,1,1,.07,3.68,3.68,0,0,1,.73.21,2.18,2.18,0,0,1,.55.29,2.89,2.89,0,0,1,.41.35,3.47,3.47,0,0,1,.55.74,4.17,4.17,0,0,1,.38,1A5.19,5.19,0,0,1,99.86,354Zm-1.87-.1a2.93,2.93,0,0,0-.28-1.42,1.59,1.59,0,0,0-.68-.68,2.15,2.15,0,0,0-.82-.17h-.78v4.41h.78a2,2,0,0,0,1.26-.42A2.15,2.15,0,0,0,98,353.91Z" />
      <path d="M106.91,357.59h-2l-.48-1.32a5.93,5.93,0,0,0-.47-1.06,1.13,1.13,0,0,0-.41-.43,1.31,1.31,0,0,0-.52-.09h-.21v2.9H101v-7.44h3.13a1.89,1.89,0,0,1,1.24.38,2.06,2.06,0,0,1,.7.91,2.65,2.65,0,0,1,.22,1,2.24,2.24,0,0,1-.18,1,1.81,1.81,0,0,1-.38.57,3.93,3.93,0,0,1-.44.34,1.86,1.86,0,0,1,.48.49,7.47,7.47,0,0,1,.53,1.17Zm-2.5-5.09a.83.83,0,0,0-.28-.72,1.57,1.57,0,0,0-.9-.2h-.39v1.79h.4a1.65,1.65,0,0,0,.92-.18A.79.79,0,0,0,104.41,352.5Z" />
      <path d="M114.11,354.26a4,4,0,0,1-.3,1.63A2.67,2.67,0,0,1,113,357a3,3,0,0,1-1,.57,3.89,3.89,0,0,1-1.11.17,3.79,3.79,0,0,1-1.51-.32,2.81,2.81,0,0,1-1.23-1.1,3.65,3.65,0,0,1-.49-2v-4.11h1.84v3.53a3.75,3.75,0,0,0,.17,1.21,1.54,1.54,0,0,0,.48.71,1.24,1.24,0,0,0,.74.22,1.2,1.2,0,0,0,.72-.22,1.43,1.43,0,0,0,.48-.7,3.47,3.47,0,0,0,.18-1.21v-3.54h1.84Z" />
      <path d="M122.65,357.59h-1.84v-4.31l-1.66,2.5H119l-1.67-2.5v4.31h-1.79v-7.44h1.67l1.88,2.79,1.88-2.79h1.67Z" />
    </g>
    <g>
      <path d="M94.33,189.6H92.74l-3.09-3.77v3.77H87.87v-6.77h1.59l3.08,3.75v-3.75h1.79Z" />
      <path d="M100.05,187.11a3,3,0,0,1-.28,1.32,2.15,2.15,0,0,1-.85.92,2.69,2.69,0,0,1-1.38.33,2.65,2.65,0,0,1-1.37-.33,2.15,2.15,0,0,1-.85-.92,3.29,3.29,0,0,1-.12-2.34,2.13,2.13,0,0,1,1.26-1.36,2.78,2.78,0,0,1,1.08-.19,2.88,2.88,0,0,1,1.1.19,2.1,2.1,0,0,1,.78.54,2.19,2.19,0,0,1,.47.81A3.05,3.05,0,0,1,100.05,187.11Zm-1.63,0a1.64,1.64,0,0,0-.22-.93.82.82,0,0,0-1.31,0,2.05,2.05,0,0,0,0,1.85.79.79,0,0,0,1.31,0A1.69,1.69,0,0,0,98.42,187.11Z" />
      <path d="M102.13,189.6h-1.55v-5h1.55Zm-.12-6.12a.75.75,0,0,1-.2.52.59.59,0,0,1-.45.22.61.61,0,0,1-.33-.1.78.78,0,0,1-.24-.27.84.84,0,0,1,.11-.89.55.55,0,0,1,.46-.22.56.56,0,0,1,.45.22A.75.75,0,0,1,102,183.48Z" />
      <path d="M106.27,188.15a1.51,1.51,0,0,1-.44,1.11,1.84,1.84,0,0,1-1.31.42,3.3,3.3,0,0,1-.87-.1,6.15,6.15,0,0,1-.82-.28v-1.25a4.52,4.52,0,0,0,.68.38,1.46,1.46,0,0,0,.63.14c.39,0,.58-.12.58-.36a.33.33,0,0,0-.08-.22,1.16,1.16,0,0,0-.3-.22c-.13-.08-.32-.17-.55-.28a2.31,2.31,0,0,1-.73-.58,1.32,1.32,0,0,1-.3-.88,1.35,1.35,0,0,1,.2-.72,1.55,1.55,0,0,1,.6-.56,2.09,2.09,0,0,1,1-.21l.35,0a2.79,2.79,0,0,1,.53.11,2.84,2.84,0,0,1,.62.27v1.21l-.23-.15a1.72,1.72,0,0,0-.25-.14,1.5,1.5,0,0,0-.36-.14,1.54,1.54,0,0,0-.43-.06.47.47,0,0,0-.36.11.36.36,0,0,0-.1.24.28.28,0,0,0,.1.22,1.75,1.75,0,0,0,.46.27,4.17,4.17,0,0,1,.83.46,1.51,1.51,0,0,1,.44.52A1.7,1.7,0,0,1,106.27,188.15Z" />
      <path d="M111.24,187.54h-3.08a1.27,1.27,0,0,0,1.24,1,3.8,3.8,0,0,0,1.73-.5v1.09a4.68,4.68,0,0,1-.83.36,3.86,3.86,0,0,1-1.23.16,2.58,2.58,0,0,1-1.37-.34,2.15,2.15,0,0,1-.85-.92,3,3,0,0,1-.28-1.33,2.9,2.9,0,0,1,.28-1.31,2.08,2.08,0,0,1,.85-.91,2.67,2.67,0,0,1,1.37-.33,2.22,2.22,0,0,1,1,.26,2,2,0,0,1,.82.85,3.28,3.28,0,0,1,.32,1.53Zm-1.45-.87a1.28,1.28,0,0,0-.21-.77.7.7,0,0,0-.6-.28.76.76,0,0,0-.63.29,1.13,1.13,0,0,0-.23.76Z" />
      <path d="M118.65,189.6h-4.49v-6.77h4.42v1.36H116v1.24h2.5v1.36H116v1.44h2.69Z" />
      <path d="M123.92,189.6h-1.55v-2.68a2.18,2.18,0,0,0-.11-.72.5.5,0,0,0-.52-.3.63.63,0,0,0-.34.08,1,1,0,0,0-.25.2,1.84,1.84,0,0,0-.19.25,2.13,2.13,0,0,0-.16.25v2.92h-1.55v-5h1.55v.71a2.14,2.14,0,0,1,.73-.62,1.83,1.83,0,0,1,.82-.18c1.05,0,1.57.71,1.57,2.14Z" />
      <path d="M129.11,184.63l-2,5H126l-1.94-5h1.66l.91,2.6,1-2.6Z" />
    </g>
    <path d="M108.12,143.6a19.9,19.9,0,0,0-2.45.17l-.39-2.21a21.4,21.4,0,0,1,5.69,0l-.39,2.21A19.92,19.92,0,0,0,108.12,143.6Z" />
    <path d="M93.63,150l-1.72-1.45a22,22,0,0,1,4.34-3.65l1.12,1.94A19.52,19.52,0,0,0,93.63,150Z" />
    <path d="M99.1,145.8,98,143.86a22.31,22.31,0,0,1,5.34-2l.39,2.22A19.61,19.61,0,0,0,99.1,145.8Z" />
    <path d="M89.89,155.74l-2.1-.77a22.56,22.56,0,0,1,2.83-4.91l1.73,1.45A19.81,19.81,0,0,0,89.89,155.74Z" />
    <path d="M112.55,144.12l.39-2.22a21.67,21.67,0,0,1,5.33,2l-1.12,1.94A19.61,19.61,0,0,0,112.55,144.12Z" />
    <path d="M88.41,162.43H86.15a22,22,0,0,1,1-5.58l2.11.77A19.68,19.68,0,0,0,88.41,162.43Z" />
    <path d="M89.27,169.23l-2.1.77a22.17,22.17,0,0,1-1-5.57H88.4A19.74,19.74,0,0,0,89.27,169.23Z" />
    <path d="M92.41,175.31l-1.71,1.44a21.77,21.77,0,0,1-2.84-4.87l2.1-.77A19.8,19.8,0,0,0,92.41,175.31Z" />
    <path d="M123.9,151.51l1.73-1.45a22.56,22.56,0,0,1,2.83,4.91l-2.1.77A19.81,19.81,0,0,0,123.9,151.51Z" />
    <path d="M127,157.62l2.11-.77a22,22,0,0,1,1,5.58h-2.26A19.6,19.6,0,0,0,127,157.62Z" />
    <path d="M127.85,164.43h2.24a22.17,22.17,0,0,1-1,5.57l-2.1-.77A19.74,19.74,0,0,0,127.85,164.43Z" />
    <path d="M126.29,171.11l2.1.77a21.83,21.83,0,0,1-2.84,4.87l-1.71-1.44A19.63,19.63,0,0,0,126.29,171.11Z" />
    <path d="M97.43,180l-1.12,1.93A22.09,22.09,0,0,1,92,178.28l1.71-1.44A20,20,0,0,0,97.43,180Z" />
    <path d="M122.54,176.84l1.72,1.43a22.14,22.14,0,0,1-4.32,3.62L118.82,180A19.67,19.67,0,0,0,122.54,176.84Z" />
    <path d="M118.88,146.81l1.12-1.95a22.41,22.41,0,0,1,4.35,3.66L122.62,150A19.52,19.52,0,0,0,118.88,146.81Z" />
    <g>
      <path d="M154.53,189.6h-1.6l-3.09-3.77v3.77h-1.78v-6.77h1.59l3.09,3.75v-3.75h1.79Z" />
      <path d="M160.25,187.11a3,3,0,0,1-.29,1.32,2.15,2.15,0,0,1-.85.92,2.65,2.65,0,0,1-1.37.33,2.71,2.71,0,0,1-1.38-.33,2.15,2.15,0,0,1-.85-.92,3.12,3.12,0,0,1-.28-1.32,3,3,0,0,1,.16-1,2.2,2.2,0,0,1,1.26-1.36,3.22,3.22,0,0,1,2.18,0,2.14,2.14,0,0,1,.79.54,2.5,2.5,0,0,1,.47.81A3.32,3.32,0,0,1,160.25,187.11Zm-1.63,0a1.64,1.64,0,0,0-.23-.93.74.74,0,0,0-.65-.33.73.73,0,0,0-.65.33,2,2,0,0,0,0,1.85.74.74,0,0,0,.65.35.75.75,0,0,0,.65-.34A1.68,1.68,0,0,0,158.62,187.11Z" />
      <path d="M162.33,189.6h-1.55v-5h1.55Zm-.13-6.12a.74.74,0,0,1-.19.52.61.61,0,0,1-.46.22.64.64,0,0,1-.33-.1.67.67,0,0,1-.23-.27.75.75,0,0,1-.09-.37.74.74,0,0,1,.19-.52.59.59,0,0,1,.92,0A.74.74,0,0,1,162.2,183.48Z" />
      <path d="M166.46,188.15a1.51,1.51,0,0,1-.44,1.11,1.82,1.82,0,0,1-1.31.42,3.72,3.72,0,0,1-.86-.09,8.37,8.37,0,0,1-.83-.29v-1.25a4.52,4.52,0,0,0,.68.38,1.49,1.49,0,0,0,.63.14c.39,0,.58-.12.58-.36a.29.29,0,0,0-.08-.22,1.08,1.08,0,0,0-.29-.22c-.14-.08-.33-.17-.56-.28a2.31,2.31,0,0,1-.73-.58,1.32,1.32,0,0,1-.3-.88,1.45,1.45,0,0,1,.2-.72,1.46,1.46,0,0,1,.6-.55,2,2,0,0,1,1-.22l.35,0a4.3,4.3,0,0,1,.54.11,3.33,3.33,0,0,1,.61.27v1.21L166,186l-.24-.14a1.78,1.78,0,0,0-.37-.14,1.52,1.52,0,0,0-.42-.06.51.51,0,0,0-.37.11.36.36,0,0,0-.1.24.33.33,0,0,0,.11.23,2,2,0,0,0,.45.26,3.9,3.9,0,0,1,.83.46,1.41,1.41,0,0,1,.44.52A1.54,1.54,0,0,1,166.46,188.15Z" />
      <path d="M171.43,187.54h-3.08a1.27,1.27,0,0,0,1.24,1,3.8,3.8,0,0,0,1.73-.5v1.09a4.56,4.56,0,0,1-.82.36,3.86,3.86,0,0,1-1.23.16,2.62,2.62,0,0,1-1.38-.34,2.1,2.1,0,0,1-.85-.92,3.2,3.2,0,0,1-.28-1.33,3,3,0,0,1,.28-1.31,2.08,2.08,0,0,1,.85-.91,2.71,2.71,0,0,1,1.38-.33,2.25,2.25,0,0,1,1,.26,2,2,0,0,1,.81.85,3.16,3.16,0,0,1,.32,1.53Zm-1.45-.87a1.28,1.28,0,0,0-.21-.77.7.7,0,0,0-.6-.28.74.74,0,0,0-.62.29,1.14,1.14,0,0,0-.24.76Z" />
      <path d="M179.8,187.68a1.86,1.86,0,0,1-.53,1.39,2,2,0,0,1-1.47.53h-3.44v-6.77h2.87a3.55,3.55,0,0,1,1,.12,1.76,1.76,0,0,1,.67.34,1.21,1.21,0,0,1,.37.5,1.45,1.45,0,0,1,.13.63,1.72,1.72,0,0,1-.13.68,1.77,1.77,0,0,1-.32.52,1.54,1.54,0,0,1-.38.29,2.41,2.41,0,0,1,.93.69A1.75,1.75,0,0,1,179.8,187.68Zm-2.1-2.9a.7.7,0,0,0-.28-.65,1.86,1.86,0,0,0-.89-.16h-.38v1.62h.39a2,2,0,0,0,.89-.16A.71.71,0,0,0,177.7,184.78Zm.29,2.81c0-.57-.37-.86-1.11-.86h-.73v1.73h.73Q178,188.46,178,187.59Z" />
      <path d="M182,189.6h-1.55v-6.77H182Z" />
      <path d="M187.17,187.54h-3.08a1.27,1.27,0,0,0,1.24,1,3.8,3.8,0,0,0,1.73-.5v1.09a4.68,4.68,0,0,1-.83.36,3.86,3.86,0,0,1-1.23.16,2.6,2.6,0,0,1-1.37-.34,2.1,2.1,0,0,1-.85-.92,3,3,0,0,1-.28-1.33,2.9,2.9,0,0,1,.28-1.31,2.08,2.08,0,0,1,.85-.91,2.7,2.7,0,0,1,1.37-.33,2.22,2.22,0,0,1,1,.26,2,2,0,0,1,.82.85,3.28,3.28,0,0,1,.32,1.53Zm-1.45-.87a1.28,1.28,0,0,0-.21-.77.7.7,0,0,0-.6-.28.76.76,0,0,0-.63.29,1.19,1.19,0,0,0-.23.76Z" />
      <path d="M192.25,189.6H190.7v-2.68a1.94,1.94,0,0,0-.12-.72.48.48,0,0,0-.51-.3.63.63,0,0,0-.34.08,1,1,0,0,0-.25.2l-.2.25-.15.25v2.92h-1.55v-5h1.55v.71a2.14,2.14,0,0,1,.73-.62,1.83,1.83,0,0,1,.82-.18c1,0,1.57.71,1.57,2.14Z" />
      <path d="M197.45,189.6H195.9v-.45a2.39,2.39,0,0,1-.52.38,1.56,1.56,0,0,1-.75.15,1.83,1.83,0,0,1-.94-.26,2,2,0,0,1-.75-.84,3.06,3.06,0,0,1-.3-1.43,3.59,3.59,0,0,1,.22-1.28,2.26,2.26,0,0,1,.7-1,1.84,1.84,0,0,1,1.17-.37,1.74,1.74,0,0,1,.7.11,1.8,1.8,0,0,1,.47.27v-2.09h1.55ZM195.9,188v-1.89a4,4,0,0,0-.42-.25.8.8,0,0,0-.36-.07.73.73,0,0,0-.61.35,1.66,1.66,0,0,0-.24,1,1.47,1.47,0,0,0,.25,1,.77.77,0,0,0,.6.3.94.94,0,0,0,.45-.1A1.35,1.35,0,0,0,195.9,188Z" />
    </g>
    <path d="M172.62,143.6a19.9,19.9,0,0,0-2.45.17l-.39-2.21a21.4,21.4,0,0,1,5.69,0l-.39,2.21A19.92,19.92,0,0,0,172.62,143.6Z" />
    <path d="M158.13,150l-1.72-1.45a22,22,0,0,1,4.34-3.65l1.12,1.94A19.52,19.52,0,0,0,158.13,150Z" />
    <path d="M163.6,145.8l-1.13-1.94a22.31,22.31,0,0,1,5.34-2l.39,2.22A19.61,19.61,0,0,0,163.6,145.8Z" />
    <path d="M154.39,155.74l-2.1-.77a22.56,22.56,0,0,1,2.83-4.91l1.73,1.45A19.81,19.81,0,0,0,154.39,155.74Z" />
    <path d="M177.05,144.12l.39-2.22a21.67,21.67,0,0,1,5.33,2l-1.12,1.94A19.61,19.61,0,0,0,177.05,144.12Z" />
    <path d="M152.91,162.43h-2.26a22,22,0,0,1,1-5.58l2.11.77A19.68,19.68,0,0,0,152.91,162.43Z" />
    <path d="M153.77,169.23l-2.1.77a22.17,22.17,0,0,1-1-5.57h2.24A19.74,19.74,0,0,0,153.77,169.23Z" />
    <path d="M156.91,175.31l-1.71,1.44a21.77,21.77,0,0,1-2.84-4.87l2.1-.77A19.8,19.8,0,0,0,156.91,175.31Z" />
    <path d="M188.4,151.51l1.73-1.45A22.56,22.56,0,0,1,193,155l-2.1.77A19.81,19.81,0,0,0,188.4,151.51Z" />
    <path d="M191.53,157.62l2.11-.77a22,22,0,0,1,1,5.58h-2.26A19.6,19.6,0,0,0,191.53,157.62Z" />
    <path d="M192.35,164.43h2.24a22.17,22.17,0,0,1-1,5.57l-2.1-.77A19.74,19.74,0,0,0,192.35,164.43Z" />
    <path d="M190.79,171.11l2.1.77a21.83,21.83,0,0,1-2.84,4.87l-1.71-1.44A19.63,19.63,0,0,0,190.79,171.11Z" />
    <path d="M161.93,180l-1.12,1.93a22.09,22.09,0,0,1-4.31-3.61l1.71-1.44A20,20,0,0,0,161.93,180Z" />
    <path d="M187,176.84l1.72,1.43a22.14,22.14,0,0,1-4.32,3.62L183.32,180A19.67,19.67,0,0,0,187,176.84Z" />
    <g>
      <g>
        <path d="M31.7,342.08H184.63c7.49,0,13.57-7,13.57-15.72v-108l-.06-6.23c-.3-8.38-6.24-15.06-13.54-15.06H31.66c-7.3,0-13.24,6.69-13.54,15.06l-.06,6.23V265l.07,61.34" style="fill: #ededed;stroke: #000;stroke-miterlimit: 10" />
        <path d="M198.63,317.14V293.93H177.09c-7.49,0-13.57,7-13.57,15.71v32.93H193a5.67,5.67,0,0,0,5.64-5.67V317.14Z" />
        <path d="M17.62,317.14V293.93H39.16c7.49,0,13.57,7,13.57,15.71v32.93H23.26a5.67,5.67,0,0,1-5.64-5.67V317.14Z" />
      </g>
      <path d="M18.13,325.45v11a5.68,5.68,0,0,0,5.67,5.67H36.73" style="fill: none;stroke: #000;stroke-miterlimit: 10" />
    </g>
    <path d="M183.38,146.81l1.12-1.95a22.41,22.41,0,0,1,4.35,3.66L187.12,150A19.52,19.52,0,0,0,183.38,146.81Z" />
    <g>
      <path d="M113.74,7.63l-5.53,7v-6a1.3,1.3,0,0,0-.64-1.18.91.91,0,0,0-1.13.3L99.16,17a1.49,1.49,0,0,0,0,1.79.9.9,0,0,0,1.46,0l5.5-7v6a1.3,1.3,0,0,0,.64,1.18.92.92,0,0,0,1.14-.3l5.53-7V17.8a1.05,1.05,0,1,0,2.06,0V8.51a1.27,1.27,0,0,0-.65-1.17A.9.9,0,0,0,113.74,7.63Z" style="stroke: #000;stroke-width: 0.6000000000000001px" />
      <path d="M99.16,7.56l-4.81,6.13a1.47,1.47,0,0,0,0,1.79.91.91,0,0,0,1.46,0l3-3.87v6.3a1.05,1.05,0,1,0,2.06,0V8.44a1.28,1.28,0,0,0-.65-1.17A.9.9,0,0,0,99.16,7.56Z" style="stroke: #000;stroke-width: 0.6000000000000001px" />
      <path d="M122.11,12.08a1,1,0,0,0-1-.77h-2.1l1.53-2s.8-1.18.1-1.82-1.58.06-1.58.06l-3.23,4.1a1.44,1.44,0,0,0-.2,1.37,1,1,0,0,0,.95.77h2.1L116.24,17s-1,1.13-.27,1.9,1.75-.14,1.75-.14l4.18-5.32A1.47,1.47,0,0,0,122.11,12.08Z" style="stroke: #000;stroke-width: 0.6000000000000001px" />
    </g>
    <g>
      <path d="M29.16,234.34H27.42v4.1H26v-4.1H24.24V233h4.92Z" />
      <path d="M32.59,234.68l-.45,1.41a.81.81,0,0,0-.57-.3.59.59,0,0,0-.46.2,2,2,0,0,0-.36.74v1.71H29.51v-4h1.24v1a2,2,0,0,1,.41-.7.92.92,0,0,1,.69-.34,1,1,0,0,1,.37.07A2.72,2.72,0,0,1,32.59,234.68Z" />
      <path d="M34,238.44H32.77v-4H34Zm-.1-4.89a.59.59,0,0,1-.15.41.49.49,0,0,1-.37.18.45.45,0,0,1-.26-.08.48.48,0,0,1-.19-.21.6.6,0,0,1-.07-.3.62.62,0,0,1,.15-.42.46.46,0,0,1,.37-.18.49.49,0,0,1,.37.18A.62.62,0,0,1,33.91,233.55Z" />
      <path d="M38.1,235.31h-.61a1.1,1.1,0,0,1,.32.79,1.27,1.27,0,0,1-.09.47,1.09,1.09,0,0,1-.27.4,1.21,1.21,0,0,1-.43.29,1.82,1.82,0,0,1-.6.13c-.28,0-.43.1-.43.27a.15.15,0,0,0,.06.13.46.46,0,0,0,.17.07l.4,0a2.78,2.78,0,0,1,.6.11,1.18,1.18,0,0,1,.51.32,1,1,0,0,1,.24.72,1.18,1.18,0,0,1-.18.65,1.2,1.2,0,0,1-.57.45,2.79,2.79,0,0,1-1,.16A2.67,2.67,0,0,1,34.8,240a.9.9,0,0,1-.44-.77.88.88,0,0,1,.06-.29.8.8,0,0,1,.24-.33,1.13,1.13,0,0,1,.53-.21.44.44,0,0,1-.21-.2.55.55,0,0,1-.09-.3.71.71,0,0,1,.13-.41.54.54,0,0,1,.4-.26,1.43,1.43,0,0,1-.67-.45,1.21,1.21,0,0,1-.29-.84,1.62,1.62,0,0,1,.13-.68,1.35,1.35,0,0,1,.37-.48,1.61,1.61,0,0,1,.54-.27,2.43,2.43,0,0,1,.68-.09H38.1ZM37,239.18a.31.31,0,0,0-.25-.33,1.69,1.69,0,0,0-.5-.08,1.34,1.34,0,0,0-.62.1.35.35,0,0,0-.19.33c0,.3.26.45.79.45a1.13,1.13,0,0,0,.56-.12A.36.36,0,0,0,37,239.18Zm-.25-3.2a.65.65,0,0,0-.18-.48.55.55,0,0,0-.4-.18.52.52,0,0,0-.45.22.74.74,0,0,0-.16.46.64.64,0,0,0,.07.31.52.52,0,0,0,.2.24.56.56,0,0,0,.3.08.58.58,0,0,0,.45-.19A.69.69,0,0,0,36.73,236Z" />
      <path d="M41.78,235.31h-.61a1.06,1.06,0,0,1,.32.79,1.27,1.27,0,0,1-.09.47,1.09,1.09,0,0,1-.27.4,1.21,1.21,0,0,1-.43.29,1.82,1.82,0,0,1-.59.13c-.29,0-.43.1-.43.27a.14.14,0,0,0,0,.13.46.46,0,0,0,.17.07l.4,0a2.67,2.67,0,0,1,.6.11,1.18,1.18,0,0,1,.51.32,1,1,0,0,1,.24.72,1.18,1.18,0,0,1-.18.65,1.2,1.2,0,0,1-.57.45,2.76,2.76,0,0,1-1,.16,2.67,2.67,0,0,1-1.37-.28.9.9,0,0,1-.44-.77.88.88,0,0,1,.06-.29.8.8,0,0,1,.24-.33,1.13,1.13,0,0,1,.53-.21.44.44,0,0,1-.21-.2.55.55,0,0,1-.09-.3.71.71,0,0,1,.13-.41.54.54,0,0,1,.4-.26,1.43,1.43,0,0,1-.67-.45,1.21,1.21,0,0,1-.29-.84,1.79,1.79,0,0,1,.13-.68,1.35,1.35,0,0,1,.37-.48,1.71,1.71,0,0,1,.54-.27,2.48,2.48,0,0,1,.68-.09h1.92Zm-1.12,3.87a.32.32,0,0,0-.24-.33,1.81,1.81,0,0,0-.51-.08,1.37,1.37,0,0,0-.62.1.35.35,0,0,0-.19.33c0,.3.26.45.79.45a1.13,1.13,0,0,0,.56-.12A.36.36,0,0,0,40.66,239.18Zm-.25-3.2a.65.65,0,0,0-.18-.48.55.55,0,0,0-.4-.18.52.52,0,0,0-.45.22.74.74,0,0,0-.16.46.64.64,0,0,0,.07.31.52.52,0,0,0,.51.32.58.58,0,0,0,.44-.19A.64.64,0,0,0,40.41,236Z" />
      <path d="M45.53,236.79H43.07a1,1,0,0,0,1,.83,3.05,3.05,0,0,0,1.38-.4v.87a3.61,3.61,0,0,1-.65.29,3.08,3.08,0,0,1-1,.13,2.11,2.11,0,0,1-1.1-.27,1.73,1.73,0,0,1-.68-.74,2.47,2.47,0,0,1-.22-1.07,2.38,2.38,0,0,1,.22-1.05,1.69,1.69,0,0,1,.68-.72,2.11,2.11,0,0,1,1.1-.27,1.72,1.72,0,0,1,.82.21,1.58,1.58,0,0,1,.66.69,2.54,2.54,0,0,1,.25,1.22Zm-1.16-.69a.94.94,0,0,0-.17-.61.54.54,0,0,0-.48-.23.64.64,0,0,0-.5.23,1,1,0,0,0-.19.61Z" />
      <path d="M48.94,234.68l-.46,1.41a.81.81,0,0,0-.57-.3.56.56,0,0,0-.45.2,2,2,0,0,0-.37.74v1.71H45.85v-4h1.24v1a2.21,2.21,0,0,1,.41-.7.93.93,0,0,1,.7-.34,1,1,0,0,1,.36.07A2.74,2.74,0,0,1,48.94,234.68Z" />
    </g>
    <g>
      <path d="M79.68,233l-2.15,5.48h-1L74.48,233H76l1.09,3.12L78.18,233Z" />
      <path d="M83.07,233l-2.59,5.56h-.92L82.15,233Z" />
      <path d="M88.59,235.73a3.12,3.12,0,0,1-.31,1.4,2.4,2.4,0,0,1-.91,1,2.78,2.78,0,0,1-1.48.37,2.75,2.75,0,0,1-1.5-.39,2.38,2.38,0,0,1-.91-1,3.14,3.14,0,0,1-.3-1.36,3.11,3.11,0,0,1,.3-1.36,2.38,2.38,0,0,1,.91-1,2.75,2.75,0,0,1,1.5-.39,2.87,2.87,0,0,1,1.17.23,2.22,2.22,0,0,1,.85.6,2.53,2.53,0,0,1,.51.89A3.36,3.36,0,0,1,88.59,235.73Zm-1.46,0a2,2,0,0,0-.08-.56,1.29,1.29,0,0,0-.24-.43,1.11,1.11,0,0,0-.39-.29,1.25,1.25,0,0,0-.53-.11,1.12,1.12,0,0,0-.91.39,1.47,1.47,0,0,0-.33,1,1.52,1.52,0,0,0,.33,1,1.15,1.15,0,0,0,.91.38,1.22,1.22,0,0,0,.67-.18,1.06,1.06,0,0,0,.42-.49A1.66,1.66,0,0,0,87.13,235.73Z" />
      <path d="M92,238.26l-.33.12a1.87,1.87,0,0,1-.39.09,2.25,2.25,0,0,1-.46,0,2,2,0,0,1-1-.22,1.81,1.81,0,0,1-.61-.55,2.17,2.17,0,0,1-.29-.69,2.11,2.11,0,0,1,0-1.22,2,2,0,0,1,.29-.67,1.64,1.64,0,0,1,.61-.55,2.06,2.06,0,0,1,1-.22,2.68,2.68,0,0,1,.63.07,2.38,2.38,0,0,1,.49.17v1.1a2.9,2.9,0,0,0-.94-.22.83.83,0,0,0-.84.93,1.07,1.07,0,0,0,.12.53.84.84,0,0,0,.33.32.81.81,0,0,0,.39.1,1.76,1.76,0,0,0,.42-.06l.58-.18Z" />
      <path d="M95.08,238.21a2.58,2.58,0,0,1-.53.2,2.19,2.19,0,0,1-.65.1c-.89,0-1.34-.49-1.34-1.48v-1.59H92v-.24l1.66-1.93h.14v1.19H95v1H93.8v1.27a1.73,1.73,0,0,0,0,.36.34.34,0,0,0,.13.23.55.55,0,0,0,.34.09,1.64,1.64,0,0,0,.78-.28Z" />
    </g>
    <g>
      <path d="M128.25,234.73a2,2,0,0,1-.09.59,1.62,1.62,0,0,1-.29.53,1.56,1.56,0,0,1-.55.41,2,2,0,0,1-.81.15h-1v2h-1.43V233h2.38a2,2,0,0,1,.81.15,1.56,1.56,0,0,1,.55.41,1.77,1.77,0,0,1,.29.54A2.08,2.08,0,0,1,128.25,234.73Zm-1.46,0a.61.61,0,0,0-.2-.53,1.3,1.3,0,0,0-.72-.14h-.31v1.3h.31a2.44,2.44,0,0,0,.55-.05.42.42,0,0,0,.28-.19A.7.7,0,0,0,126.79,234.74Z" />
      <path d="M134.17,238.44h-3.59V233h3.53v1.08H132v1h2v1.09h-2v1.15h2.16Z" />
      <path d="M138.38,238.44h-1.23V236.3a1.72,1.72,0,0,0-.1-.58.39.39,0,0,0-.41-.24.5.5,0,0,0-.27.07.62.62,0,0,0-.2.16.94.94,0,0,0-.16.2l-.12.2v2.33h-1.24v-4h1.24V235a1.64,1.64,0,0,1,.58-.5,1.45,1.45,0,0,1,.66-.15c.83,0,1.25.57,1.25,1.72Z" />
      <path d="M142.53,234.46l-1.59,4H140l-1.56-4h1.33l.73,2.09.8-2.09Z" />
    </g>
    <g>
      <path d="M175.1,234.73a2,2,0,0,1-.09.59,1.48,1.48,0,0,1-.3.53,1.43,1.43,0,0,1-.54.41,2.07,2.07,0,0,1-.82.15h-.94v2H171V233h2.38a2.07,2.07,0,0,1,.82.15,1.43,1.43,0,0,1,.54.41,1.61,1.61,0,0,1,.3.54A2.08,2.08,0,0,1,175.1,234.73Zm-1.47,0a.59.59,0,0,0-.2-.53,1.26,1.26,0,0,0-.72-.14h-.3v1.3h.31a2.51,2.51,0,0,0,.55-.05.44.44,0,0,0,.28-.19A.71.71,0,0,0,173.63,234.74Z" />
      <path d="M182.65,238.44h-1.47l-.38-1.1h-2.07l-.4,1.1h-1.47L179,233h1.58Zm-2.18-2-.7-2-.71,2Z" />
      <path d="M189,238.44H187.8v-2.12a1.3,1.3,0,0,0-.12-.63.41.41,0,0,0-.39-.21.54.54,0,0,0-.42.18,2.92,2.92,0,0,0-.33.45v2.33H185.3v-2.12a1.43,1.43,0,0,0-.11-.62.41.41,0,0,0-.4-.22.55.55,0,0,0-.26.06.66.66,0,0,0-.18.14c0,.06-.11.13-.18.23l-.13.2v2.33H182.8v-4H184V235a1.8,1.8,0,0,1,.57-.49,1.4,1.4,0,0,1,.66-.16,1.76,1.76,0,0,1,.34,0,1.27,1.27,0,0,1,.32.13,1.09,1.09,0,0,1,.29.24,1.46,1.46,0,0,1,.2.37,2.37,2.37,0,0,1,.62-.58,1.39,1.39,0,0,1,.74-.2,1.2,1.2,0,0,1,.7.2,1.08,1.08,0,0,1,.42.55,2.5,2.5,0,0,1,.14.88Z" />
      <path d="M192.25,238.21a2.37,2.37,0,0,1-.53.2,2.14,2.14,0,0,1-.65.1c-.89,0-1.33-.49-1.33-1.48v-1.59h-.56v-.24l1.66-1.93H191v1.19h1.18v1H191v1.27a1.84,1.84,0,0,0,0,.36.35.35,0,0,0,.14.23.51.51,0,0,0,.34.09,1.65,1.65,0,0,0,.77-.28Z" />
    </g>
    <g>
      <path d="M32.74,287.48H31.2l-.38-1a4.47,4.47,0,0,0-.37-.78.91.91,0,0,0-.32-.31,1.16,1.16,0,0,0-.41-.07h-.16v2.12H28.13v-5.42h2.44a1.57,1.57,0,0,1,1,.28,1.55,1.55,0,0,1,.54.66,1.76,1.76,0,0,1,.17.74,1.62,1.62,0,0,1-.14.7,1.4,1.4,0,0,1-.29.41,3.07,3.07,0,0,1-.35.24,1.67,1.67,0,0,1,.38.37,4.3,4.3,0,0,1,.41.84Zm-2-3.71a.6.6,0,0,0-.22-.52,1.25,1.25,0,0,0-.7-.15h-.31v1.31h.31a1.47,1.47,0,0,0,.72-.13A.58.58,0,0,0,30.79,283.77Z" />
      <path d="M36.54,287.28c-.18.08-.35.14-.5.19a1.84,1.84,0,0,1-.56.08.54.54,0,0,1-.42-.13.79.79,0,0,1-.18-.29,1.9,1.9,0,0,1-.44.3,1.46,1.46,0,0,1-.64.12,1.16,1.16,0,0,1-.62-.15.92.92,0,0,1-.33-.38,1.27,1.27,0,0,1-.09-.47,1,1,0,0,1,.16-.61,1.28,1.28,0,0,1,.44-.39,5.37,5.37,0,0,1,.73-.32l.39-.14.2-.08.14-.07a.83.83,0,0,0-.11-.45.49.49,0,0,0-.44-.17,1.45,1.45,0,0,0-.76.21,2.57,2.57,0,0,0-.63.52V284a2.29,2.29,0,0,1,.5-.3,2.45,2.45,0,0,1,.56-.18,2.88,2.88,0,0,1,.59-.06,1.72,1.72,0,0,1,1.14.33,1.15,1.15,0,0,1,.38.92v1.54a1,1,0,0,0,0,.33.13.13,0,0,0,.13.1.8.8,0,0,0,.32-.11Zm-1.72-.76v-.95a3.44,3.44,0,0,0-.65.37.54.54,0,0,0-.2.44.4.4,0,0,0,.1.3.34.34,0,0,0,.24.11.49.49,0,0,0,.25-.08Z" />
      <path d="M39.41,287.25a3.14,3.14,0,0,1-.54.2,2.5,2.5,0,0,1-.64.1c-.9,0-1.34-.5-1.34-1.49v-1.58h-.56v-.25L38,282.31h.14v1.19h1.18v1H38.13v1.27a3.21,3.21,0,0,0,0,.36.43.43,0,0,0,.14.23.53.53,0,0,0,.34.09,1.68,1.68,0,0,0,.78-.28Z" />
      <path d="M41,287.48H39.73v-4H41Zm-.1-4.9a.58.58,0,0,1-.16.42.48.48,0,0,1-.36.17.43.43,0,0,1-.27-.08.46.46,0,0,1-.18-.21.6.6,0,0,1-.07-.3.64.64,0,0,1,.15-.42.48.48,0,0,1,.37-.17.48.48,0,0,1,.36.17A.6.6,0,0,1,40.87,282.58Z" />
      <path d="M45.4,285.48a2.39,2.39,0,0,1-.22,1.06,1.73,1.73,0,0,1-.68.74,2.11,2.11,0,0,1-1.1.27,2.15,2.15,0,0,1-1.11-.27,1.71,1.71,0,0,1-.67-.74,2.39,2.39,0,0,1-.23-1.06,2.3,2.3,0,0,1,.13-.81,1.77,1.77,0,0,1,.38-.65,1.67,1.67,0,0,1,.63-.44,2.6,2.6,0,0,1,1.74,0,1.79,1.79,0,0,1,.63.44,1.88,1.88,0,0,1,.38.64A2.66,2.66,0,0,1,45.4,285.48Zm-1.3,0a1.33,1.33,0,0,0-.18-.74.65.65,0,0,0-1,0,1.25,1.25,0,0,0-.19.74,1.36,1.36,0,0,0,.19.75.64.64,0,0,0,1,0A1.34,1.34,0,0,0,44.1,285.48Z" />
    </g>
    <g>
      <path d="M80.3,334.73H79l-2.47-3v3H75.12v-5.41H76.4l2.46,3v-3H80.3Z" />
      <path d="M86.61,334.73H83v-5.41h3.53v1.09H84.46v1h2v1.09h-2v1.15h2.15Z" />
      <path d="M90.83,334.73H89.59v-2.14a1.42,1.42,0,0,0-.1-.57.4.4,0,0,0-.41-.25.6.6,0,0,0-.27.07,1,1,0,0,0-.2.16l-.16.2-.12.2v2.33H87.09v-4h1.24v.57a1.85,1.85,0,0,1,.58-.5,1.59,1.59,0,0,1,.66-.14q1.26,0,1.26,1.71Z" />
      <path d="M95,330.76l-1.59,4h-.91l-1.56-4h1.33l.73,2.08.8-2.08Z" />
    </g>
    <g>
      <path d="M125.26,334.73H124l-2.47-3v3h-1.42v-5.41h1.28l2.46,3v-3h1.43Z" />
      <path d="M132.34,333.2a1.51,1.51,0,0,1-.42,1.12,1.6,1.6,0,0,1-1.18.41H128v-5.41h2.3a2.59,2.59,0,0,1,.78.1,1.26,1.26,0,0,1,.53.27,1,1,0,0,1,.31.4,1.35,1.35,0,0,1,.1.5,1.42,1.42,0,0,1-.11.55,1.24,1.24,0,0,1-.25.41,1,1,0,0,1-.31.23,2,2,0,0,1,.74.55A1.43,1.43,0,0,1,132.34,333.2Zm-1.68-2.32a.54.54,0,0,0-.23-.52,1.4,1.4,0,0,0-.7-.13h-.31v1.3h.31a1.51,1.51,0,0,0,.71-.13A.55.55,0,0,0,130.66,330.88Zm.24,2.25c0-.46-.3-.69-.89-.69h-.59v1.38H130C130.6,333.82,130.9,333.59,130.9,333.13Z" />
      <path d="M134.08,334.73h-1.24v-5.41h1.24Z" />
      <path d="M138.24,333.09h-2.47a1,1,0,0,0,1,.82,3,3,0,0,0,1.38-.4v.87a2.9,2.9,0,0,1-.66.29,3.08,3.08,0,0,1-1,.13,2.14,2.14,0,0,1-1.1-.27,1.71,1.71,0,0,1-.67-.74,2.43,2.43,0,0,1-.23-1.06,2.38,2.38,0,0,1,.23-1.05,1.69,1.69,0,0,1,.67-.73,2.24,2.24,0,0,1,1.1-.26,1.76,1.76,0,0,1,.83.21,1.59,1.59,0,0,1,.65.68,2.57,2.57,0,0,1,.26,1.22Zm-1.16-.7a1,1,0,0,0-.17-.61.56.56,0,0,0-.48-.23.63.63,0,0,0-.5.23.93.93,0,0,0-.19.61Z" />
      <path d="M142.3,334.73h-1.24v-2.14A1.62,1.62,0,0,0,141,332a.4.4,0,0,0-.42-.25.53.53,0,0,0-.26.07.83.83,0,0,0-.21.16l-.15.2-.13.2v2.33h-1.24v-4h1.24v.57a1.87,1.87,0,0,1,.59-.5,1.51,1.51,0,0,1,.65-.14q1.26,0,1.26,1.71Z" />
      <path d="M146.46,334.73h-1.24v-.35a2.26,2.26,0,0,1-.41.3,1.28,1.28,0,0,1-.6.12,1.47,1.47,0,0,1-.75-.21,1.6,1.6,0,0,1-.61-.67,2.45,2.45,0,0,1-.24-1.15,2.79,2.79,0,0,1,.18-1,1.78,1.78,0,0,1,.56-.78,1.55,1.55,0,0,1,.94-.29,1.75,1.75,0,0,1,.56.08,1.51,1.51,0,0,1,.37.22v-1.67h1.24Zm-1.24-1.26V332a2.88,2.88,0,0,0-.34-.2.61.61,0,0,0-.28-.05.57.57,0,0,0-.49.28,1.3,1.3,0,0,0-.19.76,1.16,1.16,0,0,0,.2.77.63.63,0,0,0,.48.24.74.74,0,0,0,.36-.08A1.21,1.21,0,0,0,145.22,333.47Z" />
    </g>
    <g>
      <path d="M76.3,285.29h-2v2.19H72.89v-5.42H76.3v1.09h-2v1.05h2Z" />
      <path d="M82.52,287.48H81.09v-3.14l-1.3,1.82h-.11l-1.3-1.82v3.14H77v-5.42h1.31l1.46,2,1.47-2h1.3Z" />
      <path d="M88.85,287.48h-3.6v-5.42h3.54v1.09h-2.1v1h2v1.09h-2v1.16h2.16Z" />
      <path d="M93.06,287.48H91.82v-2.15a1.62,1.62,0,0,0-.09-.57.4.4,0,0,0-.42-.24.55.55,0,0,0-.26.06.68.68,0,0,0-.21.17,1.25,1.25,0,0,0-.15.19l-.13.2v2.34H89.32v-4h1.24v.57a1.87,1.87,0,0,1,.59-.5,1.51,1.51,0,0,1,.65-.14q1.26,0,1.26,1.71Z" />
      <path d="M97.21,283.5l-1.59,4H94.7l-1.55-4h1.33l.72,2.08L96,283.5Z" />
    </g>
    <g>
      <path d="M123,285.29h-2v2.19h-1.44v-5.42H123v1.09h-2v1.05h2Z" />
      <path d="M129.75,287.48h-1.24v-2.12a1.32,1.32,0,0,0-.12-.64.43.43,0,0,0-.39-.2.57.57,0,0,0-.42.17,2.92,2.92,0,0,0-.33.45v2.34H126v-2.12a1.52,1.52,0,0,0-.11-.63.42.42,0,0,0-.4-.21.55.55,0,0,0-.26.06.66.66,0,0,0-.18.14,1.86,1.86,0,0,0-.18.23l-.13.19v2.34h-1.24v-4h1.24v.57a1.94,1.94,0,0,1,.57-.49,1.4,1.4,0,0,1,.66-.15,1.22,1.22,0,0,1,.34,0,1,1,0,0,1,.32.12,1.13,1.13,0,0,1,.29.25,1.39,1.39,0,0,1,.2.36,2.49,2.49,0,0,1,.62-.57,1.39,1.39,0,0,1,.74-.2,1.2,1.2,0,0,1,.7.19,1.12,1.12,0,0,1,.42.55,2.58,2.58,0,0,1,.14.88Z" />
      <path d="M137.45,287.48H136l-.38-1.1h-2.07l-.4,1.1h-1.47l2.11-5.42h1.59Zm-2.19-2-.7-2-.71,2Z" />
      <path d="M143.83,287.48h-1.24v-2.12a1.32,1.32,0,0,0-.12-.64.43.43,0,0,0-.39-.2.57.57,0,0,0-.42.17,2.92,2.92,0,0,0-.33.45v2.34h-1.24v-2.12a1.52,1.52,0,0,0-.11-.63.42.42,0,0,0-.4-.21.55.55,0,0,0-.26.06.86.86,0,0,0-.18.14,1.86,1.86,0,0,0-.18.23l-.13.19v2.34h-1.24v-4h1.24v.57a2.07,2.07,0,0,1,.57-.49,1.4,1.4,0,0,1,.66-.15,1.22,1.22,0,0,1,.34,0,1,1,0,0,1,.32.12,1.13,1.13,0,0,1,.29.25,1.39,1.39,0,0,1,.2.36,2.49,2.49,0,0,1,.62-.57,1.39,1.39,0,0,1,.74-.2,1.2,1.2,0,0,1,.7.19,1.12,1.12,0,0,1,.42.55,2.58,2.58,0,0,1,.14.88Z" />
      <path d="M147,287.25a3,3,0,0,1-.53.2,2.5,2.5,0,0,1-.65.1c-.89,0-1.33-.5-1.33-1.49v-1.58H144v-.25l1.66-1.92h.14v1.19H147v1h-1.18v1.27a3.21,3.21,0,0,0,0,.36.37.37,0,0,0,.14.23.51.51,0,0,0,.34.09,1.65,1.65,0,0,0,.77-.28Z" />
    </g>
    <g>
      <path d="M176.74,283.38H175v4.1h-1.43v-4.1h-1.75v-1.32h4.93Z" />
      <path d="M182.69,287.48H179.1v-5.42h3.54v1.09h-2.1v1h2v1.09h-2v1.16h2.15Z" />
      <path d="M186.91,287.48h-1.24v-2.15a1.62,1.62,0,0,0-.09-.57.4.4,0,0,0-.42-.24.53.53,0,0,0-.26.06.68.68,0,0,0-.21.17,1.25,1.25,0,0,0-.15.19l-.13.2v2.34h-1.24v-4h1.24v.57a1.87,1.87,0,0,1,.59-.5,1.51,1.51,0,0,1,.65-.14q1.26,0,1.26,1.71Z" />
      <path d="M191.06,283.5l-1.59,4h-.92l-1.56-4h1.34l.72,2.08.81-2.08Z" />
    </g>
    <g>
      <path d="M180.48,332a3.12,3.12,0,0,1-.31,1.4,2.36,2.36,0,0,1-.92,1,3.09,3.09,0,0,1-3,0,2.42,2.42,0,0,1-.91-1,3.19,3.19,0,0,1-.3-1.37,3.14,3.14,0,0,1,.3-1.36,2.32,2.32,0,0,1,.91-1,2.79,2.79,0,0,1,1.49-.38,2.92,2.92,0,0,1,1.18.22,2.33,2.33,0,0,1,.85.6,2.79,2.79,0,0,1,.51.89A3.41,3.41,0,0,1,180.48,332ZM179,332a1.88,1.88,0,0,0-.07-.55,1.43,1.43,0,0,0-.24-.44,1.24,1.24,0,0,0-.39-.29,1.3,1.3,0,0,0-.54-.1,1.11,1.11,0,0,0-.9.38,1.47,1.47,0,0,0-.33,1,1.5,1.5,0,0,0,.33,1,1.11,1.11,0,0,0,.9.38,1.32,1.32,0,0,0,.68-.17,1.21,1.21,0,0,0,.42-.5A1.65,1.65,0,0,0,179,332Z" style="fill: #ededed" />
      <path d="M184.57,334.73h-1.23v-.56a2.18,2.18,0,0,1-.55.48,1.54,1.54,0,0,1-.7.15,1,1,0,0,1-1-.52,2.84,2.84,0,0,1-.23-1.19v-2.33h1.23v2.15a1.6,1.6,0,0,0,.1.56.39.39,0,0,0,.41.25.54.54,0,0,0,.43-.18,2.19,2.19,0,0,0,.33-.45v-2.33h1.23Z" style="fill: #ededed" />
      <path d="M187.85,334.5a3,3,0,0,1-.54.21,2.47,2.47,0,0,1-.64.09c-.89,0-1.34-.49-1.34-1.48v-1.59h-.56v-.24l1.66-1.92h.14v1.19h1.18v1h-1.18V333a3.21,3.21,0,0,0,0,.36.46.46,0,0,0,.14.23.55.55,0,0,0,.34.09,1.76,1.76,0,0,0,.78-.28Z" style="fill: #ededed" />
    </g>
    <g>
      <path d="M25.88,334.81H24.44v-5.42h1.44Z" style="fill: #ededed" />
      <path d="M30.34,334.81H29.1v-2.15a1.42,1.42,0,0,0-.1-.57.4.4,0,0,0-.41-.25.6.6,0,0,0-.27.07.79.79,0,0,0-.2.17c-.06.06-.11.13-.16.19l-.12.2v2.34H26.6v-4h1.24v.57a1.85,1.85,0,0,1,.58-.5,1.59,1.59,0,0,1,.66-.14q1.26,0,1.26,1.71Z" style="fill: #ededed" />
      <path d="M34.49,330.83l-1.6,4H32l-1.56-4h1.33l.73,2.08.8-2.08Z" style="fill: #ededed" />
      <path d="M41.73,332.09a3.12,3.12,0,0,1-.31,1.4,2.36,2.36,0,0,1-.92,1,3.06,3.06,0,0,1-3,0,2.5,2.5,0,0,1-.91-1,3.19,3.19,0,0,1-.3-1.37,3.14,3.14,0,0,1,.3-1.36,2.3,2.3,0,0,1,.91-1,2.71,2.71,0,0,1,1.49-.39,2.92,2.92,0,0,1,1.18.22,2.33,2.33,0,0,1,.85.6,2.79,2.79,0,0,1,.51.89A3.41,3.41,0,0,1,41.73,332.09Zm-1.47,0a1.93,1.93,0,0,0-.07-.55,1.43,1.43,0,0,0-.24-.44,1.24,1.24,0,0,0-.39-.29,1.3,1.3,0,0,0-.54-.1,1.14,1.14,0,0,0-.9.38,1.7,1.7,0,0,0,0,2,1.12,1.12,0,0,0,.9.39,1.23,1.23,0,0,0,.68-.18,1.25,1.25,0,0,0,.42-.49A1.67,1.67,0,0,0,40.26,332.09Z" style="fill: #ededed" />
      <path d="M45.82,334.81H44.59v-.57a2.18,2.18,0,0,1-.55.48,1.54,1.54,0,0,1-.7.16,1,1,0,0,1-1-.53,2.83,2.83,0,0,1-.23-1.18v-2.34h1.23V333a1.7,1.7,0,0,0,.1.57.39.39,0,0,0,.41.24.54.54,0,0,0,.43-.18,2.39,2.39,0,0,0,.33-.44v-2.34h1.23Z" style="fill: #ededed" />
      <path d="M49.1,334.58a3.14,3.14,0,0,1-.54.2,2.5,2.5,0,0,1-.64.1c-.89,0-1.34-.5-1.34-1.49v-1.58H46v-.25l1.66-1.92h.14v1.19H49v1H47.82v1.27a3.21,3.21,0,0,0,0,.36.43.43,0,0,0,.14.23.55.55,0,0,0,.34.09,1.64,1.64,0,0,0,.78-.28Z" style="fill: #ededed" />
    </g>
  </g>
  <g /></svg>