<svg xmlns="http://www.w3.org/2000/svg" width="1.6in" height="5.2in" viewBox="0 0 115.4 374.57">
  <g id="faceplate">
    <g id="panel">
      <rect width="114.41" height="364.26" />
      <path d="M25.46,12.74a4.54,4.54,0,0,0,0-9.07H17a4.54,4.54,0,0,0,0,9.07Z" transform="translate(0)" style="fill: #fff" />
      <path d="M25.46,360a4.54,4.54,0,0,0,0-9.07H17A4.54,4.54,0,0,0,17,360Z" transform="translate(0)" style="fill: #fff" />
    </g>
    <g id="art">
      <g>
        <path d="M77.12,9,71,16.82V10.14a1.44,1.44,0,0,0-.71-1.3A1,1,0,0,0,69,9.17L61,19.41a1.64,1.64,0,0,0,0,2,1,1,0,0,0,1.61,0l6.09-7.74v6.68a1.43,1.43,0,0,0,.71,1.3,1,1,0,0,0,1.26-.33l6.12-7.78v6.81a1.17,1.17,0,1,0,2.29,0V10a1.45,1.45,0,0,0-.72-1.3A1,1,0,0,0,77.12,9Z" transform="translate(0)" style="fill: #fff;stroke: #fff;stroke-width: 0.672772526741028px" />
        <path d="M61,9l-5.33,6.79a1.64,1.64,0,0,0,0,2,1,1,0,0,0,1.62,0l3.37-4.29v7a1.16,1.16,0,1,0,2.28,0V9.92a1.44,1.44,0,0,0-.71-1.3A1,1,0,0,0,61,9Z" transform="translate(0)" style="fill: #fff;stroke: #fff;stroke-width: 0.672772526741028px" />
        <path d="M86.38,14a1.17,1.17,0,0,0-1-.85H83l1.71-2.16s.88-1.3.1-2S83.06,9,83.06,9l-3.57,4.54a1.63,1.63,0,0,0-.23,1.52,1.16,1.16,0,0,0,1,.85h2.33l-2.76,3.52s-1.14,1.25-.3,2.09,2-.15,2-.15l4.62-5.89A1.58,1.58,0,0,0,86.38,14Z" transform="translate(0)" style="fill: #fff;stroke: #fff;stroke-width: 0.672772526741028px" />
      </g>
      <path d="M103.17,211.19" transform="translate(0)" style="fill: none;stroke: #231f20" />
      <path d="M103.17,211.19" transform="translate(0)" style="fill: none;stroke: #231f20" />
      <polyline points="46.16 55.85 52.7 55.85 56.82 53.64" style="fill: none;stroke: #fff;stroke-width: 0.838525px" />
      <polyline points="46.16 31.29 52.7 31.29 56.82 33.5" style="fill: none;stroke: #fff;stroke-width: 0.838525px" />
      <polyline points="34.31 55.85 27.76 55.85 23.64 53.64" style="fill: none;stroke: #fff;stroke-width: 0.838525px" />
      <polyline points="34.31 31.29 27.76 31.29 23.64 33.5" style="fill: none;stroke: #fff;stroke-width: 0.838525px" />
      <path d="M80.33,307.13l-34.6.24v.13c5.68,2.86,8.75,8.54,8.75,15.09s-3.09,12.26-8.79,15.11v.11l34.64-.24a15.22,15.22,0,1,0,0-30.44Z" transform="translate(0)" style="fill: #fff" />
      <path d="M35.87,338.56a16.09,16.09,0,1,0-16.08-16.09A16.09,16.09,0,0,0,35.87,338.56Z" transform="translate(0)" style="fill: none;stroke: #fff;stroke-miterlimit: 10" />
      <path d="M108.12,226.71a16.09,16.09,0,0,0-32.18,0v8.53a16.09,16.09,0,1,0,32.18,0Z" transform="translate(0)" style="fill: #fff" />
      <path d="M83.55,264.87" transform="translate(0)" style="fill: #231f20" />
      <path d="M108,289.25" transform="translate(0)" style="fill: #231f20" />
      <path d="M83.55,264.87a16.07,16.07,0,0,0-7.61,13.67v8.53a16.09,16.09,0,0,0,32,2.18l4-31.91a4.6,4.6,0,0,0,0-.74,5.64,5.64,0,0,0-5.64-5.65,5.58,5.58,0,0,0-3.08.92Z" transform="translate(0)" style="fill: #fff" />
      <g>
        <line x1="80.77" y1="134.32" x2="88.72" y2="134.32" style="fill: none;stroke: #fff;stroke-width: 0.795484944480528px" />
        <line x1="83.95" y1="129.22" x2="88.72" y2="129.22" style="fill: none;stroke: #fff;stroke-width: 0.795484944480528px" />
        <line x1="83.95" y1="124.11" x2="88.72" y2="124.11" style="fill: none;stroke: #fff;stroke-width: 0.795484944480528px" />
        <line x1="83.95" y1="119.01" x2="88.72" y2="119.01" style="fill: none;stroke: #fff;stroke-width: 0.795484944480528px" />
        <line x1="83.95" y1="113.91" x2="88.72" y2="113.91" style="fill: none;stroke: #fff;stroke-width: 0.795484944480528px" />
        <line x1="80.77" y1="108.81" x2="88.72" y2="108.81" style="fill: none;stroke: #fff;stroke-width: 0.795484944480528px" />
        <line x1="83.95" y1="103.7" x2="88.72" y2="103.7" style="fill: none;stroke: #fff;stroke-width: 0.795484944480528px" />
        <line x1="83.95" y1="98.6" x2="88.72" y2="98.6" style="fill: none;stroke: #fff;stroke-width: 0.795484944480528px" />
        <line x1="83.95" y1="93.5" x2="88.72" y2="93.5" style="fill: none;stroke: #fff;stroke-width: 0.795484944480528px" />
        <line x1="83.95" y1="88.4" x2="88.72" y2="88.4" style="fill: none;stroke: #fff;stroke-width: 0.795484944480528px" />
        <line x1="80.77" y1="83.29" x2="88.72" y2="83.29" style="fill: none;stroke: #fff;stroke-width: 0.795484944480528px" />
        <line x1="102.23" y1="134.32" x2="94.28" y2="134.32" style="fill: none;stroke: #fff;stroke-width: 0.795484944480528px" />
        <line x1="99.05" y1="129.22" x2="94.28" y2="129.22" style="fill: none;stroke: #fff;stroke-width: 0.795484944480528px" />
        <line x1="99.05" y1="124.11" x2="94.28" y2="124.11" style="fill: none;stroke: #fff;stroke-width: 0.795484944480528px" />
        <line x1="99.05" y1="119.01" x2="94.28" y2="119.01" style="fill: none;stroke: #fff;stroke-width: 0.795484944480528px" />
        <line x1="99.05" y1="113.91" x2="94.28" y2="113.91" style="fill: none;stroke: #fff;stroke-width: 0.795484944480528px" />
        <line x1="102.23" y1="108.81" x2="94.28" y2="108.81" style="fill: none;stroke: #fff;stroke-width: 0.795484944480528px" />
        <line x1="99.05" y1="103.7" x2="94.28" y2="103.7" style="fill: none;stroke: #fff;stroke-width: 0.795484944480528px" />
        <line x1="99.05" y1="98.6" x2="94.28" y2="98.6" style="fill: none;stroke: #fff;stroke-width: 0.795484944480528px" />
        <line x1="99.05" y1="93.5" x2="94.28" y2="93.5" style="fill: none;stroke: #fff;stroke-width: 0.795484944480528px" />
        <line x1="99.05" y1="88.4" x2="94.28" y2="88.4" style="fill: none;stroke: #fff;stroke-width: 0.795484944480528px" />
        <line x1="102.23" y1="83.29" x2="94.28" y2="83.29" style="fill: none;stroke: #fff;stroke-width: 0.795484944480528px" />
      </g>
      <g>
        <line x1="46.59" y1="134.53" x2="54.54" y2="134.53" style="fill: none;stroke: #fff;stroke-width: 0.795484944480528px" />
        <line x1="49.78" y1="129.43" x2="54.54" y2="129.43" style="fill: none;stroke: #fff;stroke-width: 0.795484944480528px" />
        <line x1="49.78" y1="124.32" x2="54.54" y2="124.32" style="fill: none;stroke: #fff;stroke-width: 0.795484944480528px" />
        <line x1="49.78" y1="119.22" x2="54.54" y2="119.22" style="fill: none;stroke: #fff;stroke-width: 0.795484944480528px" />
        <line x1="49.78" y1="114.12" x2="54.54" y2="114.12" style="fill: none;stroke: #fff;stroke-width: 0.795484944480528px" />
        <line x1="46.59" y1="109.02" x2="54.54" y2="109.02" style="fill: none;stroke: #fff;stroke-width: 0.795484944480528px" />
        <line x1="49.78" y1="103.91" x2="54.54" y2="103.91" style="fill: none;stroke: #fff;stroke-width: 0.795484944480528px" />
        <line x1="49.78" y1="98.81" x2="54.54" y2="98.81" style="fill: none;stroke: #fff;stroke-width: 0.795484944480528px" />
        <line x1="49.78" y1="93.71" x2="54.54" y2="93.71" style="fill: none;stroke: #fff;stroke-width: 0.795484944480528px" />
        <line x1="49.78" y1="88.61" x2="54.54" y2="88.61" style="fill: none;stroke: #fff;stroke-width: 0.795484944480528px" />
        <line x1="46.59" y1="83.5" x2="54.54" y2="83.5" style="fill: none;stroke: #fff;stroke-width: 0.795484944480528px" />
        <line x1="68.06" y1="134.53" x2="60.11" y2="134.53" style="fill: none;stroke: #fff;stroke-width: 0.795484944480528px" />
        <line x1="64.87" y1="129.43" x2="60.11" y2="129.43" style="fill: none;stroke: #fff;stroke-width: 0.795484944480528px" />
        <line x1="64.87" y1="124.32" x2="60.11" y2="124.32" style="fill: none;stroke: #fff;stroke-width: 0.795484944480528px" />
        <line x1="64.87" y1="119.22" x2="60.11" y2="119.22" style="fill: none;stroke: #fff;stroke-width: 0.795484944480528px" />
        <line x1="64.87" y1="114.12" x2="60.11" y2="114.12" style="fill: none;stroke: #fff;stroke-width: 0.795484944480528px" />
        <line x1="68.06" y1="109.02" x2="60.11" y2="109.02" style="fill: none;stroke: #fff;stroke-width: 0.795484944480528px" />
        <line x1="64.87" y1="103.91" x2="60.11" y2="103.91" style="fill: none;stroke: #fff;stroke-width: 0.795484944480528px" />
        <line x1="64.87" y1="98.81" x2="60.11" y2="98.81" style="fill: none;stroke: #fff;stroke-width: 0.795484944480528px" />
        <line x1="64.87" y1="93.71" x2="60.11" y2="93.71" style="fill: none;stroke: #fff;stroke-width: 0.795484944480528px" />
        <line x1="64.87" y1="88.61" x2="60.11" y2="88.61" style="fill: none;stroke: #fff;stroke-width: 0.795484944480528px" />
        <line x1="68.06" y1="83.5" x2="60.11" y2="83.5" style="fill: none;stroke: #fff;stroke-width: 0.795484944480528px" />
      </g>
      <g>
        <line x1="12.46" y1="134.32" x2="20.41" y2="134.32" style="fill: none;stroke: #fff;stroke-width: 0.795484944480528px" />
        <line x1="15.64" y1="129.22" x2="20.41" y2="129.22" style="fill: none;stroke: #fff;stroke-width: 0.795484944480528px" />
        <line x1="15.64" y1="124.11" x2="20.41" y2="124.11" style="fill: none;stroke: #fff;stroke-width: 0.795484944480528px" />
        <line x1="15.64" y1="119.01" x2="20.41" y2="119.01" style="fill: none;stroke: #fff;stroke-width: 0.795484944480528px" />
        <line x1="15.64" y1="113.91" x2="20.41" y2="113.91" style="fill: none;stroke: #fff;stroke-width: 0.795484944480528px" />
        <line x1="12.46" y1="108.81" x2="20.41" y2="108.81" style="fill: none;stroke: #fff;stroke-width: 0.795484944480528px" />
        <line x1="15.64" y1="103.7" x2="20.41" y2="103.7" style="fill: none;stroke: #fff;stroke-width: 0.795484944480528px" />
        <line x1="15.64" y1="98.6" x2="20.41" y2="98.6" style="fill: none;stroke: #fff;stroke-width: 0.795484944480528px" />
        <line x1="15.64" y1="93.5" x2="20.41" y2="93.5" style="fill: none;stroke: #fff;stroke-width: 0.795484944480528px" />
        <line x1="15.64" y1="88.4" x2="20.41" y2="88.4" style="fill: none;stroke: #fff;stroke-width: 0.795484944480528px" />
        <line x1="12.46" y1="83.29" x2="20.41" y2="83.29" style="fill: none;stroke: #fff;stroke-width: 0.795484944480528px" />
        <line x1="33.92" y1="134.32" x2="25.97" y2="134.32" style="fill: none;stroke: #fff;stroke-width: 0.795484944480528px" />
        <line x1="30.74" y1="129.22" x2="25.97" y2="129.22" style="fill: none;stroke: #fff;stroke-width: 0.795484944480528px" />
        <line x1="30.74" y1="124.11" x2="25.97" y2="124.11" style="fill: none;stroke: #fff;stroke-width: 0.795484944480528px" />
        <line x1="30.74" y1="119.01" x2="25.97" y2="119.01" style="fill: none;stroke: #fff;stroke-width: 0.795484944480528px" />
        <line x1="30.74" y1="113.91" x2="25.97" y2="113.91" style="fill: none;stroke: #fff;stroke-width: 0.795484944480528px" />
        <line x1="33.92" y1="108.81" x2="25.97" y2="108.81" style="fill: none;stroke: #fff;stroke-width: 0.795484944480528px" />
        <line x1="30.74" y1="103.7" x2="25.97" y2="103.7" style="fill: none;stroke: #fff;stroke-width: 0.795484944480528px" />
        <line x1="30.74" y1="98.6" x2="25.97" y2="98.6" style="fill: none;stroke: #fff;stroke-width: 0.795484944480528px" />
        <line x1="30.74" y1="93.5" x2="25.97" y2="93.5" style="fill: none;stroke: #fff;stroke-width: 0.795484944480528px" />
        <line x1="30.74" y1="88.4" x2="25.97" y2="88.4" style="fill: none;stroke: #fff;stroke-width: 0.795484944480528px" />
        <line x1="33.92" y1="83.29" x2="25.97" y2="83.29" style="fill: none;stroke: #fff;stroke-width: 0.795484944480528px" />
      </g>
      <path d="M112,257.34" transform="translate(0)" style="fill: #231f20" />
      <polyline points="44.22 204.76 31.97 204.76 24.99 200.05" style="fill: none;stroke: #fff;stroke-miterlimit: 10" />
      <polyline points="70.01 204.76 82.26 204.76 89.24 200.05" style="fill: none;stroke: #fff;stroke-miterlimit: 10" />
      <g>
        <g>
          <path d="M83.7,169.85l-1.1-.92a13.93,13.93,0,0,1,2.76-2.32l.71,1.23A12.31,12.31,0,0,0,83.7,169.85Z" transform="translate(0)" style="fill: #fff" />
          <path d="M87.16,167.2,86.45,166a14,14,0,0,1,3.39-1.24l.24,1.4A12.92,12.92,0,0,0,87.16,167.2Z" transform="translate(0)" style="fill: #fff" />
          <path d="M81.33,173.5,80,173a14,14,0,0,1,1.79-3.12l1.1.92A12.35,12.35,0,0,0,81.33,173.5Z" transform="translate(0)" style="fill: #fff" />
          <path d="M95.69,166.13l.25-1.4A14.1,14.1,0,0,1,99.32,166l-.71,1.23A12.75,12.75,0,0,0,95.69,166.13Z" transform="translate(0)" style="fill: #fff" />
          <path d="M80.39,177.75H79a14.18,14.18,0,0,1,.6-3.54l1.34.48A12.4,12.4,0,0,0,80.39,177.75Z" transform="translate(0)" style="fill: #fff" />
          <path d="M80.94,182.06l-1.34.48A13.92,13.92,0,0,1,79,179h1.42A12.45,12.45,0,0,0,80.94,182.06Z" transform="translate(0)" style="fill: #fff" />
          <path d="M82.93,185.91l-1.09.91a13.86,13.86,0,0,1-1.8-3.09l1.33-.48A12.45,12.45,0,0,0,82.93,185.91Z" transform="translate(0)" style="fill: #fff" />
          <path d="M102.89,170.82l1.09-.92a14,14,0,0,1,1.8,3.12l-1.34.48A12.31,12.31,0,0,0,102.89,170.82Z" transform="translate(0)" style="fill: #fff" />
          <path d="M104.87,174.69l1.34-.48a13.74,13.74,0,0,1,.61,3.54h-1.43A12.41,12.41,0,0,0,104.87,174.69Z" transform="translate(0)" style="fill: #fff" />
          <path d="M105.39,179h1.42a13.92,13.92,0,0,1-.64,3.53l-1.33-.48A12,12,0,0,0,105.39,179Z" transform="translate(0)" style="fill: #fff" />
          <path d="M104.4,183.25l1.34.48a14.26,14.26,0,0,1-1.8,3.09l-1.09-.91A12.66,12.66,0,0,0,104.4,183.25Z" transform="translate(0)" style="fill: #fff" />
          <path d="M99.71,167.84l.71-1.23a13.87,13.87,0,0,1,2.75,2.32l-1.1.91A12.56,12.56,0,0,0,99.71,167.84Z" transform="translate(0)" style="fill: #fff" />
        </g>
        <path d="M94.89,162.93a3.31,3.31,0,0,1-.16,1.1,2.08,2.08,0,0,1-.43.78,1.74,1.74,0,0,1-.63.45,2,2,0,0,1-1.51,0,1.79,1.79,0,0,1-.62-.45,2.18,2.18,0,0,1-.44-.78,3.61,3.61,0,0,1-.15-1.1,3.73,3.73,0,0,1,.15-1.11,2.43,2.43,0,0,1,.43-.78,1.92,1.92,0,0,1,2.14-.45,1.79,1.79,0,0,1,.63.45,2.21,2.21,0,0,1,.43.79A3.31,3.31,0,0,1,94.89,162.93Zm-1.44,0a5,5,0,0,0-.09-1.05c-.06-.28-.21-.42-.44-.42a.39.39,0,0,0-.36.23,1.49,1.49,0,0,0-.15.53c0,.2,0,.44,0,.71a4.94,4.94,0,0,0,.09,1.07.42.42,0,0,0,.44.38.43.43,0,0,0,.44-.38A4.94,4.94,0,0,0,93.45,162.93Z" transform="translate(0)" style="fill: #fff" />
        <path d="M103.44,189.31h-1.6v1.61h-.9v-1.61h-1.6v-.91h1.6v-1.61h.9v1.61h1.6Z" transform="translate(0)" style="fill: #fff" />
        <path d="M85.35,189.64H82v-1.27h3.31Z" transform="translate(0)" style="fill: #fff" />
        <circle cx="92.88" cy="178.31" r="13.93" style="fill: none" />
        <path d="M92.85,196.18" transform="translate(0)" style="fill: #231f20" />
      </g>
      <g>
        <g>
          <path d="M12.5,169.83l-1.09-.92a13.92,13.92,0,0,1,2.75-2.32l.71,1.23A13,13,0,0,0,12.5,169.83Z" transform="translate(0)" style="fill: #fff" />
          <path d="M16,167.19,15.25,166a14,14,0,0,1,3.39-1.24l.25,1.41A11.73,11.73,0,0,0,16,167.19Z" transform="translate(0)" style="fill: #fff" />
          <path d="M10.13,173.49,8.8,173a14,14,0,0,1,1.79-3.12l1.1.92A12.84,12.84,0,0,0,10.13,173.49Z" transform="translate(0)" style="fill: #fff" />
          <path d="M24.49,166.12l.25-1.41A14,14,0,0,1,28.12,166l-.71,1.24A11.73,11.73,0,0,0,24.49,166.12Z" transform="translate(0)" style="fill: #fff" />
          <path d="M9.19,177.73H7.76a13.82,13.82,0,0,1,.61-3.54l1.33.49A12.8,12.8,0,0,0,9.19,177.73Z" transform="translate(0)" style="fill: #fff" />
          <path d="M9.74,182l-1.34.49A14,14,0,0,1,7.77,179H9.18A12.45,12.45,0,0,0,9.74,182Z" transform="translate(0)" style="fill: #fff" />
          <path d="M11.73,185.9l-1.09.91a14.26,14.26,0,0,1-1.8-3.09l1.33-.49A12.77,12.77,0,0,0,11.73,185.9Z" transform="translate(0)" style="fill: #fff" />
          <path d="M31.69,170.8l1.09-.92a14,14,0,0,1,1.8,3.12l-1.33.48A13,13,0,0,0,31.69,170.8Z" transform="translate(0)" style="fill: #fff" />
          <path d="M33.67,174.68l1.34-.49a13.82,13.82,0,0,1,.61,3.54H34.19A12.25,12.25,0,0,0,33.67,174.68Z" transform="translate(0)" style="fill: #fff" />
          <path d="M34.2,179h1.41a13.84,13.84,0,0,1-.64,3.52L33.64,182A12.45,12.45,0,0,0,34.2,179Z" transform="translate(0)" style="fill: #fff" />
          <path d="M33.2,183.23l1.34.49a14.26,14.26,0,0,1-1.8,3.09l-1.09-.91A12.31,12.31,0,0,0,33.2,183.23Z" transform="translate(0)" style="fill: #fff" />
          <path d="M28.51,167.82l.71-1.23A13.87,13.87,0,0,1,32,168.91l-1.09.92A13,13,0,0,0,28.51,167.82Z" transform="translate(0)" style="fill: #fff" />
        </g>
        <path d="M23.69,162.91a3.42,3.42,0,0,1-.16,1.11,2.12,2.12,0,0,1-.43.77,1.74,1.74,0,0,1-.63.45,1.9,1.9,0,0,1-.75.15,1.86,1.86,0,0,1-.75-.15,1.74,1.74,0,0,1-.63-.45,2.12,2.12,0,0,1-.43-.77,3.42,3.42,0,0,1-.16-1.11,3.31,3.31,0,0,1,.16-1.1,2.08,2.08,0,0,1,.43-.78,1.7,1.7,0,0,1,.62-.46,1.94,1.94,0,0,1,.76-.14,1.89,1.89,0,0,1,.75.14,1.82,1.82,0,0,1,.63.46,2.08,2.08,0,0,1,.43.78A3.35,3.35,0,0,1,23.69,162.91Zm-1.44,0a5,5,0,0,0-.09-1c-.06-.28-.21-.41-.44-.41a.38.38,0,0,0-.36.23,1.26,1.26,0,0,0-.14.53c0,.2,0,.43,0,.7a4.88,4.88,0,0,0,.09,1.07.42.42,0,0,0,.44.38.42.42,0,0,0,.44-.38A4.88,4.88,0,0,0,22.25,162.91Z" transform="translate(0)" style="fill: #fff" />
        <path d="M32.24,189.29h-1.6v1.61h-.9v-1.61h-1.6v-.91h1.6v-1.6h.9v1.6h1.6Z" transform="translate(0)" style="fill: #fff" />
        <path d="M14.16,189.62H10.85v-1.26h3.31Z" transform="translate(0)" style="fill: #fff" />
        <circle cx="21.68" cy="178.29" r="13.93" style="fill: none" />
        <path d="M21.65,196.16" transform="translate(0)" style="fill: #231f20" />
      </g>
    </g>
    <g id="text">
      <g>
        <path d="M21,154.05H19.56l-.35-1a4.71,4.71,0,0,0-.35-.78,1,1,0,0,0-.3-.31,1,1,0,0,0-.39-.07H18v2.12H16.67v-5.42H19a1.44,1.44,0,0,1,.92.28,1.64,1.64,0,0,1,.51.66,2.1,2.1,0,0,1,.16.74,1.78,1.78,0,0,1-.13.7,1.39,1.39,0,0,1-.28.41,2.8,2.8,0,0,1-.33.24,1.4,1.4,0,0,1,.36.37,4.8,4.8,0,0,1,.38.84Zm-1.84-3.71a.59.59,0,0,0-.21-.52,1.13,1.13,0,0,0-.66-.15H18V151h.29a1.32,1.32,0,0,0,.68-.13A.61.61,0,0,0,19.18,150.34Z" transform="translate(0)" style="fill: #fff" />
        <path d="M22.67,154.05H21.5v-4h1.17Zm-.09-4.9a.6.6,0,0,1-.15.42.46.46,0,0,1-.35.17.35.35,0,0,1-.24-.08.46.46,0,0,1-.18-.21.73.73,0,0,1-.07-.3.64.64,0,0,1,.15-.42.44.44,0,0,1,.34-.17.46.46,0,0,1,.35.17A.64.64,0,0,1,22.58,149.15Z" transform="translate(0)" style="fill: #fff" />
        <path d="M26.06,152.89a1.25,1.25,0,0,1-.34.89,1.34,1.34,0,0,1-1,.34,2.59,2.59,0,0,1-.66-.08,6.16,6.16,0,0,1-.62-.23v-1a5.85,5.85,0,0,0,.51.31,1.12,1.12,0,0,0,.48.1c.29,0,.44-.09.44-.29a.27.27,0,0,0-.06-.17,1,1,0,0,0-.23-.17,3.61,3.61,0,0,0-.42-.23,1.73,1.73,0,0,1-.55-.46,1.11,1.11,0,0,1-.22-.71,1.16,1.16,0,0,1,.15-.57,1.21,1.21,0,0,1,.45-.45,1.56,1.56,0,0,1,.74-.17l.26,0a2.06,2.06,0,0,1,.41.09,1.92,1.92,0,0,1,.46.21v1l-.17-.12-.19-.12a2.49,2.49,0,0,0-.27-.11,1.19,1.19,0,0,0-.32-.05.35.35,0,0,0-.28.1.28.28,0,0,0-.07.19.27.27,0,0,0,.07.18,1.93,1.93,0,0,0,.35.21,2.66,2.66,0,0,1,.62.37,1.08,1.08,0,0,1,.34.41A1.44,1.44,0,0,1,26.06,152.89Z" transform="translate(0)" style="fill: #fff" />
        <path d="M30.07,152.4H27.75a1,1,0,0,0,.33.59.87.87,0,0,0,.6.23,2.69,2.69,0,0,0,1.31-.4v.88a4,4,0,0,1-.62.29,3.06,3.06,0,0,1-.93.13,1.84,1.84,0,0,1-1-.28,1.71,1.71,0,0,1-.64-.74,2.57,2.57,0,0,1-.21-1.06,2.52,2.52,0,0,1,.21-1,1.68,1.68,0,0,1,.64-.73,2,2,0,0,1,1-.26,1.58,1.58,0,0,1,.78.21,1.63,1.63,0,0,1,.61.68,2.75,2.75,0,0,1,.24,1.23ZM29,151.7a1.1,1.1,0,0,0-.16-.61.53.53,0,0,0-.45-.23.58.58,0,0,0-.48.24,1,1,0,0,0-.17.6Z" transform="translate(0)" style="fill: #fff" />
      </g>
      <g>
        <path d="M54.49,151.86H52.63v2.19H51.27v-5.42h3.22v1.09H52.63v1.05h1.86Z" transform="translate(0)" style="fill: #fff" />
        <path d="M58.73,153.85a4.32,4.32,0,0,1-.48.19,1.58,1.58,0,0,1-.52.08.55.55,0,0,1-.4-.12.73.73,0,0,1-.16-.3,2,2,0,0,1-.42.3,1.31,1.31,0,0,1-.6.12,1.05,1.05,0,0,1-.59-.15.87.87,0,0,1-.31-.38,1.27,1.27,0,0,1-.09-.47,1.13,1.13,0,0,1,.16-.61,1.18,1.18,0,0,1,.41-.39,4.61,4.61,0,0,1,.69-.32l.37-.14.18-.08.13-.07a1,1,0,0,0-.09-.45c-.07-.11-.21-.16-.43-.16a1.3,1.3,0,0,0-.71.2,2.87,2.87,0,0,0-.6.52v-1.08a2.66,2.66,0,0,1,.47-.3,2.55,2.55,0,0,1,.53-.18,2.67,2.67,0,0,1,.56-.06,1.55,1.55,0,0,1,1.08.33,1.21,1.21,0,0,1,.36.92v1.54a1.42,1.42,0,0,0,0,.33.13.13,0,0,0,.13.1.74.74,0,0,0,.3-.11Zm-1.63-.76v-.94a2.67,2.67,0,0,0-.6.36.53.53,0,0,0-.19.44.45.45,0,0,0,.09.3.28.28,0,0,0,.22.11.46.46,0,0,0,.24-.08A2,2,0,0,0,57.1,153.09Z" transform="translate(0)" style="fill: #fff" />
        <path d="M60.32,154.05H59.15v-5.42h1.17Z" transform="translate(0)" style="fill: #fff" />
        <path d="M62.36,154.05H61.19v-5.42h1.17Z" transform="translate(0)" style="fill: #fff" />
      </g>
      <g>
        <path d="M78.56,154.05H75.18v-5.42h3.33v1.09h-2v1h1.89v1.09H76.53V153h2Z" transform="translate(0)" style="fill: #fff" />
        <path d="M82.8,154.05H81.64V151.9a1.62,1.62,0,0,0-.09-.57.37.37,0,0,0-.39-.24.49.49,0,0,0-.25.06.65.65,0,0,0-.2.17,1.15,1.15,0,0,0-.14.19l-.12.2v2.34H79.28v-4h1.17v.57a1.68,1.68,0,0,1,.55-.5,1.38,1.38,0,0,1,.62-.14c.79,0,1.18.57,1.18,1.71Z" transform="translate(0)" style="fill: #fff" />
        <path d="M87,150.07l-1.5,4h-.86l-1.47-4h1.26l.68,2.08.76-2.08Z" transform="translate(0)" style="fill: #fff" />
        <path d="M88.26,153.28a.92.92,0,0,1-.2.59.6.6,0,0,1-.49.25.62.62,0,0,1-.5-.25.95.95,0,0,1,0-1.19.63.63,0,0,1,.5-.24.62.62,0,0,1,.34.11.79.79,0,0,1,.26.31A.93.93,0,0,1,88.26,153.28Z" transform="translate(0)" style="fill: #fff" />
        <path d="M94.44,154.05H91v-5.42h1.36v4.12h2.06Z" transform="translate(0)" style="fill: #fff" />
        <path d="M98.42,152.4H96.09a1,1,0,0,0,.34.59.87.87,0,0,0,.6.23,2.78,2.78,0,0,0,1.31-.39v.87a4.17,4.17,0,0,1-.63.29,3,3,0,0,1-.92.13,1.82,1.82,0,0,1-1-.28,1.64,1.64,0,0,1-.64-.74,2.57,2.57,0,0,1-.22-1.06,2.53,2.53,0,0,1,.22-1,1.62,1.62,0,0,1,.64-.73,2,2,0,0,1,1-.26,1.57,1.57,0,0,1,.77.21,1.59,1.59,0,0,1,.62.68,2.75,2.75,0,0,1,.24,1.23Zm-1.1-.7a1.13,1.13,0,0,0-.15-.61.54.54,0,0,0-.46-.23.57.57,0,0,0-.47.24.93.93,0,0,0-.18.6Z" transform="translate(0)" style="fill: #fff" />
        <path d="M102.47,150.07l-1.5,4h-.86l-1.47-4h1.25l.69,2.08.76-2.08Z" transform="translate(0)" style="fill: #fff" />
        <path d="M106.15,152.4h-2.32a1.05,1.05,0,0,0,.33.59.88.88,0,0,0,.61.23,2.74,2.74,0,0,0,1.3-.39v.87a4,4,0,0,1-.62.29,3,3,0,0,1-.93.13,1.84,1.84,0,0,1-1-.28,1.71,1.71,0,0,1-.64-.74,2.57,2.57,0,0,1-.21-1.06,2.52,2.52,0,0,1,.21-1,1.68,1.68,0,0,1,.64-.73,2,2,0,0,1,1-.26,1.51,1.51,0,0,1,1.39.89,2.75,2.75,0,0,1,.24,1.23Zm-1.09-.7a1,1,0,0,0-.16-.61.51.51,0,0,0-.45-.23.55.55,0,0,0-.47.24.93.93,0,0,0-.18.6Z" transform="translate(0)" style="fill: #fff" />
        <path d="M108,154.05h-1.17v-5.42H108Z" transform="translate(0)" style="fill: #fff" />
      </g>
      <g>
        <path d="M14.13,198.48H12.68l-.36-1a3.86,3.86,0,0,0-.35-.77.74.74,0,0,0-.3-.31.83.83,0,0,0-.38-.07h-.15v2.11H9.78v-5.41h2.31a1.47,1.47,0,0,1,.91.27,1.67,1.67,0,0,1,.52.67,2,2,0,0,1,.15.74,1.6,1.6,0,0,1-.13.69,1.16,1.16,0,0,1-.28.41,2.09,2.09,0,0,1-.32.25,1.54,1.54,0,0,1,.36.36,5,5,0,0,1,.38.85Zm-1.84-3.7a.62.62,0,0,0-.2-.52,1.16,1.16,0,0,0-.67-.15h-.28v1.3h.29a1.22,1.22,0,0,0,.68-.13A.57.57,0,0,0,12.29,194.78Z" transform="translate(0)" style="fill: #fff" />
        <path d="M15.79,198.48H14.62v-4h1.17Zm-.1-4.89a.68.68,0,0,1-.14.42.47.47,0,0,1-.35.17.46.46,0,0,1-.25-.08.63.63,0,0,1-.18-.21.73.73,0,0,1-.06-.3.68.68,0,0,1,.14-.42.43.43,0,0,1,.35-.17.44.44,0,0,1,.35.17A.68.68,0,0,1,15.69,193.59Z" transform="translate(0)" style="fill: #fff" />
        <path d="M19.17,197.32a1.22,1.22,0,0,1-.33.89,1.31,1.31,0,0,1-1,.34,2.18,2.18,0,0,1-.65-.08,5.21,5.21,0,0,1-.62-.22v-1a4.39,4.39,0,0,0,.51.3,1.06,1.06,0,0,0,.48.11c.29,0,.43-.1.43-.29a.25.25,0,0,0-.06-.17.91.91,0,0,0-.22-.18,3.8,3.8,0,0,0-.42-.22,1.77,1.77,0,0,1-.55-.47,1.09,1.09,0,0,1-.23-.7,1.16,1.16,0,0,1,.15-.57,1.17,1.17,0,0,1,.46-.45,1.42,1.42,0,0,1,.74-.17h.26l.4.1a2,2,0,0,1,.47.21v1l-.17-.13-.19-.11a1.69,1.69,0,0,0-.27-.11,1.26,1.26,0,0,0-.33,0,.3.3,0,0,0-.35.28.25.25,0,0,0,.08.18,1.07,1.07,0,0,0,.35.21,3.06,3.06,0,0,1,.62.37,1.06,1.06,0,0,1,.33.42A1.25,1.25,0,0,1,19.17,197.32Z" transform="translate(0)" style="fill: #fff" />
        <path d="M23.19,196.83H20.86a1,1,0,0,0,.34.6.92.92,0,0,0,.6.23,2.65,2.65,0,0,0,1.3-.4v.87a2.56,2.56,0,0,1-.62.29,2.68,2.68,0,0,1-.92.13,1.89,1.89,0,0,1-1-.27,1.64,1.64,0,0,1-.64-.74,2.57,2.57,0,0,1-.22-1.06,2.49,2.49,0,0,1,.22-1,1.62,1.62,0,0,1,.64-.73,1.89,1.89,0,0,1,1-.26,1.57,1.57,0,0,1,.77.21,1.53,1.53,0,0,1,.62.68,2.7,2.7,0,0,1,.24,1.22Zm-1.1-.69a1.08,1.08,0,0,0-.15-.61.54.54,0,0,0-.46-.23.58.58,0,0,0-.47.23,1,1,0,0,0-.18.61Z" transform="translate(0)" style="fill: #fff" />
        <path d="M30,198.08a3.75,3.75,0,0,1-.57.28,3.19,3.19,0,0,1-.59.15,4.08,4.08,0,0,1-.61,0,2.71,2.71,0,0,1-1.06-.19,2.09,2.09,0,0,1-.8-.58,2.55,2.55,0,0,1-.52-.89,3.6,3.6,0,0,1-.17-1.12,3.28,3.28,0,0,1,.21-1.22,2.42,2.42,0,0,1,.56-.88,2.26,2.26,0,0,1,.82-.51,2.88,2.88,0,0,1,1-.16,4.4,4.4,0,0,1,1.73.41v1.43a4.74,4.74,0,0,0-.66-.41,1.68,1.68,0,0,0-.77-.17,1.45,1.45,0,0,0-.73.19,1.4,1.4,0,0,0-.55.53,1.56,1.56,0,0,0-.2.82,1.6,1.6,0,0,0,.18.75,1.37,1.37,0,0,0,.5.54,1.4,1.4,0,0,0,.73.2,2.11,2.11,0,0,0,.62-.09,2.85,2.85,0,0,0,.49-.22,4.11,4.11,0,0,0,.41-.27Z" transform="translate(0)" style="fill: #fff" />
        <path d="M35.26,193.07l-2,5.48h-.89l-2-5.48h1.41l1,3.12,1.05-3.12Z" transform="translate(0)" style="fill: #fff" />
      </g>
      <g>
        <path d="M38.24,52.84v.61H36.83v1.06h1.41v.63H36.83v1.79h-.66V52.84Z" transform="translate(0)" style="fill: #fff" />
        <path d="M39.58,54.14a.92.92,0,0,1,.67.22.85.85,0,0,1,.23.63v1.34c0,.1,0,.15.11.15a.27.27,0,0,0,.12,0,.47.47,0,0,0,.13-.11v.42a1,1,0,0,1-.57.23.44.44,0,0,1-.25-.06.36.36,0,0,1-.12-.23,1.09,1.09,0,0,1-.69.29.56.56,0,0,1-.42-.2.68.68,0,0,1-.18-.48.79.79,0,0,1,.18-.55,1.38,1.38,0,0,1,.61-.36l.49-.17v-.13a.36.36,0,0,0-.41-.4.9.9,0,0,0-.41.11,1.18,1.18,0,0,0-.37.34v-.65A1.26,1.26,0,0,1,39.58,54.14Zm-.36,2.06a.32.32,0,0,0,.08.24.23.23,0,0,0,.19.09.6.6,0,0,0,.4-.22v-.72a3.08,3.08,0,0,0-.4.19,1,1,0,0,0-.21.19A.41.41,0,0,0,39.22,56.2Z" transform="translate(0)" style="fill: #fff" />
        <path d="M41.91,54.14a1.34,1.34,0,0,1,.35,0,2.14,2.14,0,0,1,.35.16v.58a1.36,1.36,0,0,0-.37-.21.79.79,0,0,0-.34-.08.33.33,0,0,0-.21.06.22.22,0,0,0-.07.16.19.19,0,0,0,.06.13,2.19,2.19,0,0,0,.34.22,2.23,2.23,0,0,1,.54.44.71.71,0,0,1,.16.48.83.83,0,0,1-.23.62.81.81,0,0,1-.62.23,1.42,1.42,0,0,1-.8-.22v-.6a1.37,1.37,0,0,0,.74.29.49.49,0,0,0,.25-.06.21.21,0,0,0,.09-.18.2.2,0,0,0,0-.11A.57.57,0,0,0,42,56a3.08,3.08,0,0,0-.42-.27,1.2,1.2,0,0,1-.41-.34.74.74,0,0,1-.13-.44.73.73,0,0,1,.24-.58A.84.84,0,0,1,41.91,54.14Z" transform="translate(0)" style="fill: #fff" />
        <path d="M43.8,53.47h.05v.72h.78v.55h-.78V56a.49.49,0,0,0,.09.3.35.35,0,0,0,.26.11.9.9,0,0,0,.48-.18v.58a1.38,1.38,0,0,1-.61.17.73.73,0,0,1-.6-.25,1,1,0,0,1-.21-.68V54.74H42.9v-.12Z" transform="translate(0)" style="fill: #fff" />
      </g>
      <g>
        <path d="M36.49,41l1.12,1.61L38.73,41h.58v4.09h-.65V42.2h0l-1,1.45h-.09l-1-1.45h0v2.88H35.9V41Z" transform="translate(0)" style="fill: #fff" />
        <path d="M41,42.29a1,1,0,0,1,.8.39,1.75,1.75,0,0,1,.29,1.07v.1H40.48a.88.88,0,0,0,.23.57.69.69,0,0,0,.52.2,1,1,0,0,0,.41-.09,1.58,1.58,0,0,0,.41-.28v.54a1.41,1.41,0,0,1-1,.34,1.1,1.1,0,0,1-.88-.39,1.5,1.5,0,0,1-.34-1,1.61,1.61,0,0,1,.31-1A1,1,0,0,1,41,42.29Zm.52,1.13a.8.8,0,0,0-.15-.47.41.41,0,0,0-.34-.17.46.46,0,0,0-.37.16.88.88,0,0,0-.17.48Z" transform="translate(0)" style="fill: #fff" />
        <path d="M44.09,42.4V41h.6v4.09h-1a1.11,1.11,0,0,1-.88-.38,1.57,1.57,0,0,1-.32-1,1.6,1.6,0,0,1,.15-.7,1.15,1.15,0,0,1,.42-.5,1,1,0,0,1,.57-.18A1.42,1.42,0,0,1,44.09,42.4Zm-.31,2.13h.31V42.94a.76.76,0,0,0-.38-.11.58.58,0,0,0-.48.22.93.93,0,0,0-.18.6C43.05,44.23,43.29,44.53,43.78,44.53Z" transform="translate(0)" style="fill: #fff" />
      </g>
      <g>
        <path d="M36.36,28.43a1.75,1.75,0,0,1,1,.3v.7a1.71,1.71,0,0,0-.94-.38.67.67,0,0,0-.39.11.41.41,0,0,0-.14.31.55.55,0,0,0,.26.43s.24.15.57.33a1.76,1.76,0,0,1,.6.53,1.27,1.27,0,0,1,.18.69,1.18,1.18,0,0,1-.31.86,1.11,1.11,0,0,1-.82.32,1.6,1.6,0,0,1-.56-.09,2,2,0,0,1-.52-.29v-.78a1.51,1.51,0,0,0,1,.54.61.61,0,0,0,.39-.12.43.43,0,0,0,.15-.34.54.54,0,0,0-.26-.46L36,30.75a1.62,1.62,0,0,1-.6-.51,1.21,1.21,0,0,1-.2-.68,1.09,1.09,0,0,1,.32-.82A1.13,1.13,0,0,1,36.36,28.43Z" transform="translate(0)" style="fill: #fff" />
        <path d="M38.58,28.48v4.1H38v-4.1Z" transform="translate(0)" style="fill: #fff" />
        <path d="M40.32,29.79A1.22,1.22,0,0,1,41,30a1.13,1.13,0,0,1,.44.5,1.57,1.57,0,0,1,.16.73,1.72,1.72,0,0,1-.15.74,1.23,1.23,0,0,1-.45.51,1.2,1.2,0,0,1-.65.18,1.22,1.22,0,0,1-.65-.18,1.28,1.28,0,0,1-.44-.51,1.72,1.72,0,0,1-.15-.74,1.61,1.61,0,0,1,.16-.74,1.13,1.13,0,0,1,.45-.49A1.16,1.16,0,0,1,40.32,29.79Zm-.61,1.41a1.14,1.14,0,0,0,.16.65.51.51,0,0,0,.45.25.54.54,0,0,0,.46-.24,1.14,1.14,0,0,0,.17-.67,1.06,1.06,0,0,0-.17-.64.56.56,0,0,0-.46-.23.51.51,0,0,0-.44.24A1,1,0,0,0,39.71,31.2Z" transform="translate(0)" style="fill: #fff" />
        <path d="M42.37,29.84l.53,1.58.54-1.58h.39l.53,1.58.53-1.58h.62l-1,2.79h-.25L43.63,31,43,32.63h-.25l-1-2.79Z" transform="translate(0)" style="fill: #fff" />
      </g>
      <g>
        <path d="M36.36,80.67a1.75,1.75,0,0,1,1,.3v.71a1.66,1.66,0,0,0-.94-.39.61.61,0,0,0-.39.12.4.4,0,0,0-.14.31.58.58,0,0,0,.26.43l.57.32a1.87,1.87,0,0,1,.6.53,1.3,1.3,0,0,1,.18.7,1.17,1.17,0,0,1-.31.85,1.07,1.07,0,0,1-.82.32,1.89,1.89,0,0,1-.56-.08,2.42,2.42,0,0,1-.52-.3v-.78a1.51,1.51,0,0,0,1,.54.61.61,0,0,0,.39-.12.43.43,0,0,0,.15-.34.56.56,0,0,0-.26-.46L36,83a1.64,1.64,0,0,1-.6-.52,1.19,1.19,0,0,1-.2-.68,1.11,1.11,0,0,1,.32-.82A1.17,1.17,0,0,1,36.36,80.67Z" transform="translate(0)" style="fill: #fff" />
        <path d="M38.58,80.73v4.09H38V80.73Z" transform="translate(0)" style="fill: #fff" />
        <path d="M40.32,82a1.22,1.22,0,0,1,.65.18,1.19,1.19,0,0,1,.44.5,1.6,1.6,0,0,1,.16.73,1.72,1.72,0,0,1-.15.74,1.12,1.12,0,0,1-.45.51,1.2,1.2,0,0,1-.65.18,1.22,1.22,0,0,1-.65-.18,1.16,1.16,0,0,1-.44-.51,1.72,1.72,0,0,1-.15-.74,1.54,1.54,0,0,1,.16-.73A1.2,1.2,0,0,1,40.32,82Zm-.61,1.41a1.2,1.2,0,0,0,.16.66.52.52,0,0,0,.45.24.55.55,0,0,0,.46-.23,1.18,1.18,0,0,0,.17-.68,1.08,1.08,0,0,0-.17-.64.56.56,0,0,0-.46-.23.51.51,0,0,0-.44.24A1.05,1.05,0,0,0,39.71,83.44Z" transform="translate(0)" style="fill: #fff" />
        <path d="M42.37,82.08l.53,1.58.54-1.58h.39l.53,1.58.53-1.58h.62l-1,2.79h-.25l-.62-1.67L43,84.87h-.25l-1-2.79Z" transform="translate(0)" style="fill: #fff" />
      </g>
      <g>
        <path d="M38.24,132v.61H36.83v1.06h1.41v.63H36.83v1.79h-.66V132Z" transform="translate(0)" style="fill: #fff" />
        <path d="M39.58,133.29a.92.92,0,0,1,.67.22.85.85,0,0,1,.23.63v1.34c0,.1,0,.15.11.15a.27.27,0,0,0,.12,0,.47.47,0,0,0,.13-.11v.42a1,1,0,0,1-.57.23.44.44,0,0,1-.25-.06.36.36,0,0,1-.12-.23,1.09,1.09,0,0,1-.69.29.53.53,0,0,1-.42-.2.68.68,0,0,1-.18-.48.79.79,0,0,1,.18-.55,1.38,1.38,0,0,1,.61-.36l.49-.17v-.13a.36.36,0,0,0-.41-.4.9.9,0,0,0-.41.11,1.18,1.18,0,0,0-.37.34v-.65A1.26,1.26,0,0,1,39.58,133.29Zm-.36,2.06a.32.32,0,0,0,.08.24.23.23,0,0,0,.19.09.6.6,0,0,0,.4-.22v-.72a3.08,3.08,0,0,0-.4.19,1,1,0,0,0-.21.19A.41.41,0,0,0,39.22,135.35Z" transform="translate(0)" style="fill: #fff" />
        <path d="M41.91,133.29a1.34,1.34,0,0,1,.35.05,2.14,2.14,0,0,1,.35.16v.58a1.36,1.36,0,0,0-.37-.21,1,1,0,0,0-.34-.08.33.33,0,0,0-.21.06.22.22,0,0,0-.07.16.22.22,0,0,0,.06.13,2.19,2.19,0,0,0,.34.22,2.23,2.23,0,0,1,.54.44.71.71,0,0,1,.16.48.87.87,0,0,1-.23.63.84.84,0,0,1-.62.22,1.42,1.42,0,0,1-.8-.22v-.6a1.37,1.37,0,0,0,.74.29.49.49,0,0,0,.25-.06.22.22,0,0,0,.06-.29.38.38,0,0,0-.11-.11,3.08,3.08,0,0,0-.42-.27,1.2,1.2,0,0,1-.41-.34.74.74,0,0,1-.13-.44.73.73,0,0,1,.24-.58A.84.84,0,0,1,41.91,133.29Z" transform="translate(0)" style="fill: #fff" />
        <path d="M43.8,132.62h.05v.72h.78v.55h-.78v1.26a.49.49,0,0,0,.09.3.35.35,0,0,0,.26.11.9.9,0,0,0,.48-.18V136a1.38,1.38,0,0,1-.61.17.73.73,0,0,1-.6-.25,1,1,0,0,1-.21-.68v-1.31H42.9v-.12Z" transform="translate(0)" style="fill: #fff" />
      </g>
      <g>
        <path d="M84.7,196.29H82.84v2.19H81.48v-5.41H84.7v1.09H82.84v1H84.7Z" transform="translate(0)" style="fill: #fff" />
        <path d="M88.94,198.28a3.46,3.46,0,0,1-.47.2,1.66,1.66,0,0,1-.53.07.55.55,0,0,1-.4-.12.72.72,0,0,1-.16-.3,1.71,1.71,0,0,1-.42.3,1.28,1.28,0,0,1-.6.12,1,1,0,0,1-.58-.15.79.79,0,0,1-.32-.38,1.26,1.26,0,0,1-.08-.47,1.11,1.11,0,0,1,.15-.6,1.31,1.31,0,0,1,.41-.4,5.94,5.94,0,0,1,.69-.31l.37-.15.18-.07.13-.07a.92.92,0,0,0-.09-.45.46.46,0,0,0-.42-.17,1.33,1.33,0,0,0-.71.2,2.49,2.49,0,0,0-.6.53V195a1.82,1.82,0,0,1,.47-.31,1.87,1.87,0,0,1,.52-.17,2.67,2.67,0,0,1,.56-.06,1.55,1.55,0,0,1,1.08.33,1.19,1.19,0,0,1,.36.92v1.54a.89.89,0,0,0,0,.32c0,.07.06.11.12.11a.74.74,0,0,0,.3-.11Zm-1.63-.76v-.94a3.39,3.39,0,0,0-.6.37.52.52,0,0,0-.19.44.45.45,0,0,0,.09.3.31.31,0,0,0,.22.11.46.46,0,0,0,.24-.08A2.12,2.12,0,0,0,87.31,197.52Z" transform="translate(0)" style="fill: #fff" />
        <path d="M90.53,198.48H89.36v-5.41h1.17Z" transform="translate(0)" style="fill: #fff" />
        <path d="M92.57,198.48H91.4v-5.41h1.17Z" transform="translate(0)" style="fill: #fff" />
        <path d="M99.56,198.08a3.75,3.75,0,0,1-.57.28,3.19,3.19,0,0,1-.59.15,4.12,4.12,0,0,1-.62,0,2.69,2.69,0,0,1-1-.19,2.09,2.09,0,0,1-.8-.58,2.55,2.55,0,0,1-.52-.89,3.6,3.6,0,0,1-.17-1.12,3.51,3.51,0,0,1,.2-1.22,2.57,2.57,0,0,1,.57-.88,2.26,2.26,0,0,1,.82-.51,2.86,2.86,0,0,1,1-.16,4.44,4.44,0,0,1,1.74.41v1.43a4.74,4.74,0,0,0-.66-.41,1.68,1.68,0,0,0-.77-.17,1.45,1.45,0,0,0-.73.19,1.4,1.4,0,0,0-.55.53,1.56,1.56,0,0,0-.21.82,1.49,1.49,0,0,0,.19.75,1.3,1.3,0,0,0,.5.54,1.38,1.38,0,0,0,.73.2,2.11,2.11,0,0,0,.62-.09,2.85,2.85,0,0,0,.49-.22,4.11,4.11,0,0,0,.41-.27Z" transform="translate(0)" style="fill: #fff" />
        <path d="M104.87,193.07l-2,5.48h-.9l-2-5.48h1.41l1,3.12,1.06-3.12Z" transform="translate(0)" style="fill: #fff" />
      </g>
      <g>
        <path d="M52.54,305H51.15l-.37-1.1h-2l-.37,1.1H47.07l2-5.41h1.49Zm-2.07-2-.66-2-.66,2Z" transform="translate(0)" style="fill: #fff" />
        <path d="M56.51,305H55.34v-.57a1.55,1.55,0,0,1-.52.48,1.21,1.21,0,0,1-.65.16.91.91,0,0,1-1-.52,3,3,0,0,1-.22-1.19V301h1.16v2.15a1.62,1.62,0,0,0,.09.57.37.37,0,0,0,.39.24.5.5,0,0,0,.41-.17,2.92,2.92,0,0,0,.3-.45V301h1.17Z" transform="translate(0)" style="fill: #fff" />
        <path d="M60.75,305H59.58v-.36a1.61,1.61,0,0,1-.39.31,1.15,1.15,0,0,1-.57.12,1.36,1.36,0,0,1-.71-.21,1.66,1.66,0,0,1-.57-.67,2.62,2.62,0,0,1-.22-1.15,3.12,3.12,0,0,1,.17-1,1.75,1.75,0,0,1,.53-.77,1.32,1.32,0,0,1,.88-.3,1.27,1.27,0,0,1,.88.31v-1.67h1.17Zm-1.17-1.27v-1.51a2.42,2.42,0,0,0-.32-.2A.6.6,0,0,0,59,302a.56.56,0,0,0-.46.28,1.42,1.42,0,0,0-.18.77,1.23,1.23,0,0,0,.19.77A.57.57,0,0,0,59,304a.68.68,0,0,0,.34-.08A1.21,1.21,0,0,0,59.58,303.75Z" transform="translate(0)" style="fill: #fff" />
        <path d="M62.72,305H61.55v-4h1.17Zm-.09-4.89a.59.59,0,0,1-.15.41.44.44,0,0,1-.35.18.46.46,0,0,1-.25-.08.54.54,0,0,1-.17-.22.57.57,0,0,1-.07-.29.62.62,0,0,1,.15-.42.42.42,0,0,1,.34-.18.44.44,0,0,1,.35.18A.62.62,0,0,1,62.63,300.13Z" transform="translate(0)" style="fill: #fff" />
        <path d="M67.17,303a2.42,2.42,0,0,1-.22,1.06,1.62,1.62,0,0,1-.64.73,2.12,2.12,0,0,1-2.07,0,1.62,1.62,0,0,1-.64-.73,2.57,2.57,0,0,1-.22-1.06,2.66,2.66,0,0,1,.12-.82,2,2,0,0,1,.36-.65,1.54,1.54,0,0,1,.6-.43,1.89,1.89,0,0,1,.81-.16,2.12,2.12,0,0,1,.83.16,1.44,1.44,0,0,1,.59.43,1.79,1.79,0,0,1,.36.65A2.62,2.62,0,0,1,67.17,303Zm-1.23,0a1.4,1.4,0,0,0-.17-.74.55.55,0,0,0-.5-.27.56.56,0,0,0-.49.27,1.4,1.4,0,0,0-.17.74,1.42,1.42,0,0,0,.17.74.56.56,0,0,0,.49.27.55.55,0,0,0,.5-.27A1.42,1.42,0,0,0,65.94,303Z" transform="translate(0)" style="fill: #fff" />
      </g>
      <g>
        <path d="M87.66,61.29a3.83,3.83,0,0,1-.57.29,3.19,3.19,0,0,1-.59.15,4.12,4.12,0,0,1-.62,0,2.89,2.89,0,0,1-1-.19A2.32,2.32,0,0,1,84,61a2.69,2.69,0,0,1-.51-.89A3.6,3.6,0,0,1,83.34,59a3.56,3.56,0,0,1,.2-1.23,2.31,2.31,0,0,1,.57-.87,2.26,2.26,0,0,1,.82-.51,2.87,2.87,0,0,1,1-.17,4.63,4.63,0,0,1,1.74.41v1.44a4,4,0,0,0-.66-.42,1.68,1.68,0,0,0-.77-.16,1.55,1.55,0,0,0-.73.18,1.5,1.5,0,0,0-.55.54,1.66,1.66,0,0,0,0,1.56,1.5,1.5,0,0,0,.51.55,1.38,1.38,0,0,0,.73.2,1.87,1.87,0,0,0,.62-.1,2.49,2.49,0,0,0,.49-.21,4.29,4.29,0,0,0,.41-.28Z" transform="translate(0)" style="fill: #fff" />
        <path d="M91.91,57.72l-2.24,5.79H88.49l.91-2.33-1.31-3.46h1.26l.67,2,.76-2Z" transform="translate(0)" style="fill: #fff" />
        <path d="M95.08,61.52l-.31.12a1.82,1.82,0,0,1-.37.09,2,2,0,0,1-.44,0,1.77,1.77,0,0,1-.92-.22,1.59,1.59,0,0,1-.57-.55,2.23,2.23,0,0,1-.28-.69,2.37,2.37,0,0,1,0-1.22,2.09,2.09,0,0,1,.28-.68,1.65,1.65,0,0,1,.57-.54,1.87,1.87,0,0,1,.92-.22,2.06,2.06,0,0,1,.6.07,2.8,2.8,0,0,1,.46.16V59a2.57,2.57,0,0,0-.89-.22.78.78,0,0,0-.55.23.91.91,0,0,0-.24.7,1.07,1.07,0,0,0,.12.53.78.78,0,0,0,.3.32.76.76,0,0,0,.37.1,1.55,1.55,0,0,0,.4-.06l.55-.18Z" transform="translate(0)" style="fill: #fff" />
        <path d="M96.87,61.7H95.7V56.29h1.17Z" transform="translate(0)" style="fill: #fff" />
        <path d="M101.06,60.05H98.74a1,1,0,0,0,.33.6.92.92,0,0,0,.6.23,2.8,2.8,0,0,0,1.31-.4v.87a4,4,0,0,1-.62.29,2.78,2.78,0,0,1-.93.13,1.89,1.89,0,0,1-1-.27,1.67,1.67,0,0,1-.64-.75,2.76,2.76,0,0,1,0-2.11,1.55,1.55,0,0,1,.64-.72,1.89,1.89,0,0,1,1-.27,1.53,1.53,0,0,1,1.39.9,2.67,2.67,0,0,1,.24,1.22ZM100,59.36a1.08,1.08,0,0,0-.16-.61.51.51,0,0,0-.45-.23.56.56,0,0,0-.48.23,1,1,0,0,0-.18.61Z" transform="translate(0)" style="fill: #fff" />
      </g>
      <g>
        <path d="M53.25,273.71a2.13,2.13,0,0,1-.5.25,2.51,2.51,0,0,1-.52.14,4.91,4.91,0,0,1-.55,0,2.34,2.34,0,0,1-.93-.18,1.87,1.87,0,0,1-.71-.51,2,2,0,0,1-.46-.79,3.12,3.12,0,0,1-.15-1,3,3,0,0,1,.18-1.08,2,2,0,0,1,.5-.77,1.93,1.93,0,0,1,.73-.46,2.47,2.47,0,0,1,.86-.15,3.94,3.94,0,0,1,1.54.37v1.27a3.82,3.82,0,0,0-.59-.37,1.45,1.45,0,0,0-.68-.15,1.37,1.37,0,0,0-.65.17,1.27,1.27,0,0,0-.48.47,1.43,1.43,0,0,0-.18.72,1.35,1.35,0,0,0,.16.67,1.2,1.2,0,0,0,1.09.66,1.71,1.71,0,0,0,.55-.09,1.92,1.92,0,0,0,.43-.18,3.9,3.9,0,0,0,.36-.25Z" transform="translate(0)" style="fill: #fff" />
        <path d="M57,270.55l-2,5.13H54l.81-2.07-1.16-3.06h1.11l.6,1.75.67-1.75Z" transform="translate(0)" style="fill: #fff" />
        <path d="M59.83,273.91l-.28.11-.32.08a1.61,1.61,0,0,1-.39,0,1.57,1.57,0,0,1-.81-.2,1.34,1.34,0,0,1-.51-.49,1.71,1.71,0,0,1-.25-.6,2.16,2.16,0,0,1,0-1.09,2,2,0,0,1,.24-.6,1.48,1.48,0,0,1,.51-.48,1.58,1.58,0,0,1,.82-.19,2,2,0,0,1,.53.06,2.49,2.49,0,0,1,.41.14v1a2.36,2.36,0,0,0-.79-.19.71.71,0,0,0-.49.2.82.82,0,0,0-.21.62,1,1,0,0,0,.1.48.73.73,0,0,0,.27.28.68.68,0,0,0,.33.09,1.22,1.22,0,0,0,.35-.06,4.52,4.52,0,0,0,.49-.16Z" transform="translate(0)" style="fill: #fff" />
        <path d="M61.42,274.08h-1v-4.8h1Z" transform="translate(0)" style="fill: #fff" />
        <path d="M65.13,272.61H63.07a.93.93,0,0,0,.29.53.79.79,0,0,0,.54.2,2.33,2.33,0,0,0,1.15-.35v.77a2.57,2.57,0,0,1-.55.26,2.37,2.37,0,0,1-.82.12,1.6,1.6,0,0,1-.92-.25,1.56,1.56,0,0,1-.57-.65,2.35,2.35,0,0,1-.18-.94,2.27,2.27,0,0,1,.18-.93,1.5,1.5,0,0,1,.57-.65,1.77,1.77,0,0,1,.92-.23,1.31,1.31,0,0,1,1.23.79,2.3,2.3,0,0,1,.22,1.09Zm-1-.61a.94.94,0,0,0-.14-.54.46.46,0,0,0-.4-.21.5.5,0,0,0-.42.21A.85.85,0,0,0,63,272Z" transform="translate(0)" style="fill: #fff" />
      </g>
      <g>
        <path d="M15,297.55H13.18v2.2H11.82v-5.42H15v1.09H13.18v1H15Z" transform="translate(0)" style="fill: #fff" />
        <path d="M19.31,297.75a2.54,2.54,0,0,1-.21,1.06,1.71,1.71,0,0,1-.64.74,1.92,1.92,0,0,1-1,.27,1.89,1.89,0,0,1-1-.27,1.71,1.71,0,0,1-.64-.74,2.79,2.79,0,0,1-.09-1.87,1.88,1.88,0,0,1,.36-.65,1.61,1.61,0,0,1,.59-.44,2.1,2.1,0,0,1,.82-.15,2.07,2.07,0,0,1,.82.15,1.77,1.77,0,0,1,.6.43,2.14,2.14,0,0,1,.35.65A2.66,2.66,0,0,1,19.31,297.75Zm-1.23,0a1.33,1.33,0,0,0-.17-.74.59.59,0,0,0-1,0,1.33,1.33,0,0,0-.17.74,1.37,1.37,0,0,0,.17.75.55.55,0,0,0,.49.27.53.53,0,0,0,.49-.27A1.35,1.35,0,0,0,18.08,297.75Z" transform="translate(0)" style="fill: #fff" />
        <path d="M21.15,299.75H20v-5.42h1.17Z" transform="translate(0)" style="fill: #fff" />
        <path d="M23.18,299.75H22v-5.42h1.17Z" transform="translate(0)" style="fill: #fff" />
        <path d="M27.53,297.75a2.54,2.54,0,0,1-.21,1.06,1.71,1.71,0,0,1-.64.74,1.89,1.89,0,0,1-1,.27,1.92,1.92,0,0,1-1-.27,1.71,1.71,0,0,1-.64-.74,2.79,2.79,0,0,1-.09-1.87,1.88,1.88,0,0,1,.36-.65,1.61,1.61,0,0,1,.59-.44,2.1,2.1,0,0,1,.82-.15,2.16,2.16,0,0,1,.83.15,1.83,1.83,0,0,1,.59.43,2,2,0,0,1,.35.65A2.66,2.66,0,0,1,27.53,297.75Zm-1.22,0a1.42,1.42,0,0,0-.17-.74.55.55,0,0,0-.5-.26.54.54,0,0,0-.49.26,1.42,1.42,0,0,0-.17.74,1.46,1.46,0,0,0,.17.75.59.59,0,0,0,1,0A1.44,1.44,0,0,0,26.31,297.75Z" transform="translate(0)" style="fill: #fff" />
        <path d="M33.3,295.77l-1.3,4h-.74l-.74-2.17-.73,2.17h-.73l-1.34-4H28.9l.61,2,.64-2h.74l.65,2,.59-2Z" transform="translate(0)" style="fill: #fff" />
      </g>
      <g>
        <path d="M14.85,243.75H13.21v4.09H11.85v-4.09H10.21v-1.32h4.64Z" transform="translate(0)" style="fill: #fff" />
        <path d="M18.16,244.08l-.43,1.41a.72.72,0,0,0-.54-.3.53.53,0,0,0-.42.2,2,2,0,0,0-.35.74v1.71H15.26v-4h1.16v1a2.33,2.33,0,0,1,.39-.7.85.85,0,0,1,.66-.33.74.74,0,0,1,.34.07A2,2,0,0,1,18.16,244.08Z" transform="translate(0)" style="fill: #fff" />
        <path d="M19.48,247.84H18.31v-4h1.17ZM19.39,243a.64.64,0,0,1-.15.42.46.46,0,0,1-.35.17.41.41,0,0,1-.24-.08.46.46,0,0,1-.18-.21.73.73,0,0,1-.07-.3.64.64,0,0,1,.15-.42.41.41,0,0,1,.34-.17.43.43,0,0,1,.35.17A.64.64,0,0,1,19.39,243Z" transform="translate(0)" style="fill: #fff" />
        <path d="M23.6,244.71H23a1.13,1.13,0,0,1,.3.79,1.5,1.5,0,0,1-.08.47,1.2,1.2,0,0,1-.26.4,1.22,1.22,0,0,1-.41.29,1.59,1.59,0,0,1-.56.14c-.27,0-.4.1-.4.26a.16.16,0,0,0,.05.14.41.41,0,0,0,.16.06l.38.05a3.09,3.09,0,0,1,.56.11,1,1,0,0,1,.48.33,1,1,0,0,1,.23.71,1.3,1.3,0,0,1-.17.66,1,1,0,0,1-.54.44,2.48,2.48,0,0,1-1,.16,2.35,2.35,0,0,1-1.3-.28.9.9,0,0,1-.41-.76,1.17,1.17,0,0,1,.05-.3.83.83,0,0,1,.23-.33,1,1,0,0,1,.5-.21.45.45,0,0,1-.2-.19.58.58,0,0,1-.08-.31.9.9,0,0,1,.11-.41.55.55,0,0,1,.39-.26,1.4,1.4,0,0,1-.64-.44,1.28,1.28,0,0,1-.27-.84,1.67,1.67,0,0,1,.13-.69,1.17,1.17,0,0,1,.34-.47,1.41,1.41,0,0,1,.51-.28,2.61,2.61,0,0,1,.64-.08H23.6Zm-1.05,3.88a.32.32,0,0,0-.23-.34,1.61,1.61,0,0,0-.48-.08,1.23,1.23,0,0,0-.59.11.34.34,0,0,0-.18.33c0,.29.25.44.75.44a1.13,1.13,0,0,0,.53-.11A.39.39,0,0,0,22.55,248.59Zm-.24-3.2a.68.68,0,0,0-.17-.49.51.51,0,0,0-.38-.18.5.5,0,0,0-.42.22.81.81,0,0,0-.15.46.78.78,0,0,0,.06.31.65.65,0,0,0,.19.24.48.48,0,0,0,.29.09.53.53,0,0,0,.42-.2A.65.65,0,0,0,22.31,245.39Z" transform="translate(0)" style="fill: #fff" />
        <path d="M27.34,244.71h-.57a1.13,1.13,0,0,1,.3.79A1.27,1.27,0,0,1,27,246a1,1,0,0,1-.25.4,1.22,1.22,0,0,1-.41.29,1.59,1.59,0,0,1-.56.14c-.27,0-.4.1-.4.26a.16.16,0,0,0,.05.14.41.41,0,0,0,.16.06l.38.05a3.09,3.09,0,0,1,.56.11,1,1,0,0,1,.48.33,1,1,0,0,1,.23.71,1.3,1.3,0,0,1-.17.66,1,1,0,0,1-.54.44,2.5,2.5,0,0,1-1,.16,2.31,2.31,0,0,1-1.29-.28.88.88,0,0,1-.41-.76.86.86,0,0,1,.05-.3.74.74,0,0,1,.23-.33,1,1,0,0,1,.5-.21.45.45,0,0,1-.2-.19.59.59,0,0,1-.09-.31.81.81,0,0,1,.12-.41.55.55,0,0,1,.39-.26,1.4,1.4,0,0,1-.64-.44,1.28,1.28,0,0,1-.27-.84,1.85,1.85,0,0,1,.12-.69,1.29,1.29,0,0,1,.35-.47,1.41,1.41,0,0,1,.51-.28,2.61,2.61,0,0,1,.64-.08h1.81Zm-1.05,3.88a.32.32,0,0,0-.24-.34,1.5,1.5,0,0,0-.47-.08,1.23,1.23,0,0,0-.59.11.34.34,0,0,0-.18.33c0,.29.25.44.75.44a1.13,1.13,0,0,0,.53-.11A.39.39,0,0,0,26.29,248.59Zm-.24-3.2a.68.68,0,0,0-.17-.49.51.51,0,0,0-.38-.18.5.5,0,0,0-.42.22.83.83,0,0,0-.16.46.78.78,0,0,0,.07.31.57.57,0,0,0,.19.24.48.48,0,0,0,.29.09.53.53,0,0,0,.42-.2A.65.65,0,0,0,26.05,245.39Z" transform="translate(0)" style="fill: #fff" />
        <path d="M31.15,246.2H28.82a1,1,0,0,0,.34.59.88.88,0,0,0,.6.23,2.65,2.65,0,0,0,1.3-.4v.87a2.75,2.75,0,0,1-.62.29,2.7,2.7,0,0,1-.93.13,1.94,1.94,0,0,1-1-.27,1.77,1.77,0,0,1-.64-.74,2.57,2.57,0,0,1-.21-1.06,2.52,2.52,0,0,1,.21-1.05,1.75,1.75,0,0,1,.64-.73,1.94,1.94,0,0,1,1-.26,1.58,1.58,0,0,1,.78.21,1.52,1.52,0,0,1,.61.68,2.57,2.57,0,0,1,.25,1.22Zm-1.1-.7a1,1,0,0,0-.16-.61.51.51,0,0,0-.45-.23.58.58,0,0,0-.47.23,1,1,0,0,0-.18.61Z" transform="translate(0)" style="fill: #fff" />
        <path d="M34.62,244.08l-.43,1.41a.75.75,0,0,0-.54-.3.53.53,0,0,0-.42.2,2,2,0,0,0-.35.74v1.71H31.71v-4h1.17v1a2,2,0,0,1,.39-.7.83.83,0,0,1,.65-.33.75.75,0,0,1,.35.07A2,2,0,0,1,34.62,244.08Z" transform="translate(0)" style="fill: #fff" />
      </g>
      <g>
        <path d="M47.38,219.73H45.73v4.1H44.38v-4.1H42.73v-1.32h4.65Z" transform="translate(0)" style="fill: #fff" />
        <path d="M49.11,223.83H47.94v-4h1.17Zm-.09-4.9a.6.6,0,0,1-.15.42.46.46,0,0,1-.35.17.35.35,0,0,1-.24-.08.46.46,0,0,1-.18-.21.73.73,0,0,1-.07-.3.64.64,0,0,1,.15-.42.44.44,0,0,1,.34-.17.46.46,0,0,1,.35.17A.64.64,0,0,1,49,218.93Z" transform="translate(0)" style="fill: #fff" />
        <path d="M55.8,223.83H54.63v-2.12a1.25,1.25,0,0,0-.12-.63.38.38,0,0,0-.36-.21.5.5,0,0,0-.4.17,2.92,2.92,0,0,0-.31.45v2.34H52.27v-2.12a1.37,1.37,0,0,0-.11-.63.38.38,0,0,0-.37-.21.48.48,0,0,0-.24.06.66.66,0,0,0-.18.14,2,2,0,0,0-.17.23l-.12.19v2.34H49.91v-4h1.17v.57a1.86,1.86,0,0,1,.54-.49,1.28,1.28,0,0,1,.63-.15,1.12,1.12,0,0,1,.32,0,.94.94,0,0,1,.3.12,1,1,0,0,1,.26.25,1.25,1.25,0,0,1,.2.36,2.22,2.22,0,0,1,.58-.57,1.2,1.2,0,0,1,.7-.2,1.09,1.09,0,0,1,.66.19,1.15,1.15,0,0,1,.4.55,2.82,2.82,0,0,1,.13.88Z" transform="translate(0)" style="fill: #fff" />
        <path d="M59.87,222.18H57.55a1.05,1.05,0,0,0,.33.59.88.88,0,0,0,.61.23,2.68,2.68,0,0,0,1.3-.4v.88a4,4,0,0,1-.62.29,3,3,0,0,1-.93.13,1.84,1.84,0,0,1-1-.28,1.71,1.71,0,0,1-.64-.74,2.57,2.57,0,0,1-.21-1.06,2.52,2.52,0,0,1,.21-1,1.68,1.68,0,0,1,.64-.73,2,2,0,0,1,1-.26,1.51,1.51,0,0,1,1.39.89,2.75,2.75,0,0,1,.24,1.23Zm-1.09-.7a1,1,0,0,0-.16-.61.51.51,0,0,0-.45-.23.55.55,0,0,0-.47.24.93.93,0,0,0-.18.6Z" transform="translate(0)" style="fill: #fff" />
        <path d="M66.63,223.42a2.51,2.51,0,0,1-.57.28,3,3,0,0,1-.59.15,4,4,0,0,1-.61.05,2.69,2.69,0,0,1-1-.2,2.3,2.3,0,0,1-.81-.57,2.46,2.46,0,0,1-.51-.89,3.65,3.65,0,0,1-.17-1.12,3.52,3.52,0,0,1,.2-1.23,2.29,2.29,0,0,1,.56-.87,2.48,2.48,0,0,1,.83-.52,2.82,2.82,0,0,1,1-.16,4.54,4.54,0,0,1,1.73.41v1.44a4.44,4.44,0,0,0-.65-.42,1.71,1.71,0,0,0-.77-.17,1.53,1.53,0,0,0-.73.19,1.43,1.43,0,0,0-.55.54,1.53,1.53,0,0,0-.21.81,1.6,1.6,0,0,0,.18.75,1.33,1.33,0,0,0,.51.54,1.27,1.27,0,0,0,.72.21,2.38,2.38,0,0,0,1.11-.31,3.32,3.32,0,0,0,.41-.28Z" transform="translate(0)" style="fill: #fff" />
        <path d="M71.94,218.41l-2,5.49H69l-2-5.49h1.41l1,3.13,1.06-3.13Z" transform="translate(0)" style="fill: #fff" />
      </g>
      <g>
        <path d="M51,357.15H46.35V349.7h4.58v1.5H48.21v1.36H50.8v1.5H48.21v1.59H51Z" transform="translate(0)" style="fill: #fff" />
        <path d="M56.84,357.15H55.23V354.2a2.39,2.39,0,0,0-.12-.79.51.51,0,0,0-.54-.33.74.74,0,0,0-.34.08,1.18,1.18,0,0,0-.27.23,3.07,3.07,0,0,0-.2.27c0,.09-.11.18-.16.28v3.21H52v-5.47H53.6v.78a2.43,2.43,0,0,1,.75-.68,1.87,1.87,0,0,1,.85-.2c1.09,0,1.64.79,1.64,2.36Z" transform="translate(0)" style="fill: #fff" />
        <path d="M62.58,351.68l-2.06,5.47H59.33l-2-5.47H59l.94,2.86,1-2.86Z" transform="translate(0)" style="fill: #fff" />
        <path d="M69.43,349.7l-2.79,7.55H65.41l-2.73-7.55h1.94L66,354l1.46-4.3Z" transform="translate(0)" style="fill: #fff" />
        <path d="M75.55,356.59a4.45,4.45,0,0,1-.79.39,4.79,4.79,0,0,1-.81.2,5.71,5.71,0,0,1-.84.07,3.71,3.71,0,0,1-1.45-.27,3,3,0,0,1-1.11-.8,3.36,3.36,0,0,1-.7-1.22,4.74,4.74,0,0,1-.24-1.54,4.55,4.55,0,0,1,.28-1.68,3.07,3.07,0,0,1,.77-1.2,3.13,3.13,0,0,1,1.13-.71,4,4,0,0,1,1.34-.23,6.31,6.31,0,0,1,2.39.56v2a6.15,6.15,0,0,0-.91-.57,2.32,2.32,0,0,0-1-.23,2.08,2.08,0,0,0-1,.26,2,2,0,0,0-.75.73,2.3,2.3,0,0,0,0,2.16,2,2,0,0,0,.69.74,1.82,1.82,0,0,0,1,.28,2.67,2.67,0,0,0,.86-.13,3.52,3.52,0,0,0,.67-.3,5.12,5.12,0,0,0,.57-.38Z" transform="translate(0)" style="fill: #fff" />
        <path d="M83.58,357.15h-1.9l-.51-1.51H78.49L78,357.15h-1.9l2.73-7.45h2.06Zm-2.84-2.81-.9-2.71-.91,2.71Z" transform="translate(0)" style="fill: #fff" />
      </g>
      <g>
        <path d="M89.79,247.14H86.4v-5.42h3.33v1.09h-2v1h1.89v1.09H87.75v1.16h2Z" transform="translate(0)" style="fill: #231f20" />
        <path d="M94,247.14H92.86V245a1.62,1.62,0,0,0-.09-.57.37.37,0,0,0-.39-.24.51.51,0,0,0-.25.06.79.79,0,0,0-.2.17l-.14.19-.12.2v2.34H90.5v-4h1.17v.57a1.78,1.78,0,0,1,.55-.5,1.41,1.41,0,0,1,.62-.14c.79,0,1.19.57,1.19,1.71Z" transform="translate(0)" style="fill: #231f20" />
        <path d="M98.21,243.16l-1.5,4h-.87l-1.47-4h1.26l.68,2.08.76-2.08Z" transform="translate(0)" style="fill: #231f20" />
      </g>
      <g>
        <path d="M88.52,299.27H85.14v-5.41h3.33v1.08h-2v1h1.89V297H86.49v1.16h2Z" transform="translate(0)" style="fill: #231f20" />
        <path d="M94.24,296.56A3.36,3.36,0,0,1,94,298a2.32,2.32,0,0,1-.86,1,2.52,2.52,0,0,1-1.4.37,2.44,2.44,0,0,1-1.41-.39,2.34,2.34,0,0,1-.86-1,3.28,3.28,0,0,1-.28-1.36,3.33,3.33,0,0,1,.28-1.37,2.37,2.37,0,0,1,.86-1,2.44,2.44,0,0,1,1.41-.39,2.82,2.82,0,0,1,1.11.22,2.13,2.13,0,0,1,.8.61,2.63,2.63,0,0,1,.48.89A3.36,3.36,0,0,1,94.24,296.56Zm-1.38,0a2.45,2.45,0,0,0-.07-.56,1.18,1.18,0,0,0-.23-.43,1,1,0,0,0-.37-.29,1.12,1.12,0,0,0-.5-.11,1.05,1.05,0,0,0-.86.39,1.76,1.76,0,0,0,0,2,1,1,0,0,0,.85.38,1.07,1.07,0,0,0,.63-.18,1.08,1.08,0,0,0,.4-.49A1.81,1.81,0,0,0,92.86,296.56Z" transform="translate(0)" style="fill: #231f20" />
        <path d="M99.43,299.27H98l-.35-1a4.53,4.53,0,0,0-.35-.77.75.75,0,0,0-.31-.31.83.83,0,0,0-.38-.07h-.15v2.11H95.08v-5.41h2.31a1.45,1.45,0,0,1,.91.27,1.58,1.58,0,0,1,.52.66,2.09,2.09,0,0,1,.15.75,1.6,1.6,0,0,1-.13.69,1.16,1.16,0,0,1-.27.41,2.85,2.85,0,0,1-.33.25,1.54,1.54,0,0,1,.36.36,5.21,5.21,0,0,1,.38.84Zm-1.84-3.7a.61.61,0,0,0-.2-.53,1.26,1.26,0,0,0-.67-.14h-.28v1.3h.29a1.22,1.22,0,0,0,.68-.13A.6.6,0,0,0,97.59,295.57Z" transform="translate(0)" style="fill: #231f20" />
      </g>
      <g>
        <path d="M34.6,345H33.4v-4.79h1.2Z" transform="translate(0)" style="fill: #fff" />
        <path d="M38.56,345h-1v-1.9a1.37,1.37,0,0,0-.08-.51.32.32,0,0,0-.34-.21.4.4,0,0,0-.22.06.59.59,0,0,0-.18.14,1.36,1.36,0,0,0-.12.17l-.11.18V345h-1v-3.52h1v.5a1.62,1.62,0,0,1,.49-.44,1.23,1.23,0,0,1,.55-.12c.7,0,1.05.5,1.05,1.51Z" transform="translate(0)" style="fill: #fff" />
      </g>
      <g>
        <path d="M77.57,342.64a2.77,2.77,0,0,1-.26,1.23,2,2,0,0,1-.76.9,2.23,2.23,0,0,1-1.24.33,2.07,2.07,0,0,1-2-1.25,3.08,3.08,0,0,1-.25-1.21,3,3,0,0,1,.25-1.21,2.07,2.07,0,0,1,2-1.25,2.4,2.4,0,0,1,1,.2,2.1,2.1,0,0,1,.71.53,2.6,2.6,0,0,1,.42.79A3.24,3.24,0,0,1,77.57,342.64Zm-1.22,0a1.49,1.49,0,0,0-.07-.49,1,1,0,0,0-.2-.39.9.9,0,0,0-.32-.26,1.06,1.06,0,0,0-.45-.09.93.93,0,0,0-.76.34,1.39,1.39,0,0,0-.27.89,1.34,1.34,0,0,0,.28.89.9.9,0,0,0,.75.34.93.93,0,0,0,.56-.16,1,1,0,0,0,.36-.43A1.62,1.62,0,0,0,76.35,342.64Z" transform="translate(0)" style="fill: #fff" />
        <path d="M81.23,345h-1v-.5a1.49,1.49,0,0,1-.46.42,1,1,0,0,1-.57.14.83.83,0,0,1-.86-.46,2.69,2.69,0,0,1-.19-1.05v-2.07h1v1.9a1.5,1.5,0,0,0,.08.5.32.32,0,0,0,.34.22.43.43,0,0,0,.36-.15,2.77,2.77,0,0,0,.27-.4v-2.07h1Z" transform="translate(0)" style="fill: #fff" />
        <path d="M84.2,344.84a2.61,2.61,0,0,1-.45.18,2.14,2.14,0,0,1-.54.08c-.74,0-1.11-.44-1.11-1.31v-1.41h-.47v-.21L83,340.46h.12v1.06h1v.86h-1v1.13a2.58,2.58,0,0,0,0,.32.32.32,0,0,0,.12.2.38.38,0,0,0,.28.08,1.34,1.34,0,0,0,.65-.25Z" transform="translate(0)" style="fill: #fff" />
      </g>
    </g>
  </g>
  <g /></svg>