<?xml version="1.0" encoding="UTF-8" standalone="no"?>
<!-- Created with Inkscape (http://www.inkscape.org/) -->

<svg
   width="30.48mm"
   height="128.5mm"
   viewBox="0 0 30.48 128.5"
   version="1.1"
   id="svg1"
   inkscape:version="1.4 (e7c3feb1, 2024-10-09)"
   sodipodi:docname="GUI.svg"
   xmlns:inkscape="http://www.inkscape.org/namespaces/inkscape"
   xmlns:sodipodi="http://sodipodi.sourceforge.net/DTD/sodipodi-0.dtd"
   xmlns="http://www.w3.org/2000/svg"
   xmlns:svg="http://www.w3.org/2000/svg">
  <sodipodi:namedview
     id="namedview1"
     pagecolor="#ffffff"
     bordercolor="#000000"
     borderopacity="0.25"
     inkscape:showpageshadow="2"
     inkscape:pageopacity="0.0"
     inkscape:pagecheckerboard="0"
     inkscape:deskcolor="#d1d1d1"
     inkscape:document-units="mm"
     inkscape:zoom="1.2711951"
     inkscape:cx="184.86541"
     inkscape:cy="288.7047"
     inkscape:window-width="1200"
     inkscape:window-height="1027"
     inkscape:window-x="3088"
     inkscape:window-y="25"
     inkscape:window-maximized="0"
     inkscape:current-layer="layer1" />
  <defs
     id="defs1" />
  <g
     inkscape:label="Artwork"
     inkscape:groupmode="layer"
     id="layer1">
    <path
       style="font-weight:bold;font-size:2.11667px;line-height:2.11667px;font-family:'gil sans';-inkscape-font-specification:'gil sans Bold';text-align:center;letter-spacing:0px;word-spacing:0px;text-anchor:middle;stroke-width:0.5;stroke-linecap:round;stroke-linejoin:round;paint-order:markers fill stroke"
       d="m 21.714149,69.671357 h -1.110011 v -1.538926 h 0.396876 V 69.3737 h 0.713135 z m 1.404568,-0.57981 q 0,0.286287 -0.167432,0.451652 -0.166398,0.164332 -0.468189,0.164332 -0.301791,0 -0.469223,-0.164332 -0.166398,-0.165365 -0.166398,-0.451652 0,-0.288355 0.167432,-0.452687 0.168465,-0.164331 0.468189,-0.164331 0.303858,0 0.469223,0.165365 0.166398,0.165365 0.166398,0.451653 z M 22.660863,69.3737 q 0.03617,-0.04444 0.05374,-0.106453 0.0186,-0.06305 0.0186,-0.173633 0,-0.10232 -0.0186,-0.171566 -0.0186,-0.06925 -0.05168,-0.110588 -0.03307,-0.04238 -0.07958,-0.05994 -0.04651,-0.01757 -0.100252,-0.01757 -0.05374,0 -0.09612,0.01447 -0.04134,0.01447 -0.07958,0.05788 -0.03411,0.04031 -0.05478,0.110588 -0.01964,0.07028 -0.01964,0.176734 0,0.09508 0.01757,0.165365 0.01757,0.06925 0.05168,0.111621 0.03307,0.04031 0.07855,0.05891 0.04651,0.0186 0.105421,0.0186 0.05064,0 0.09612,-0.01654 0.04651,-0.01757 0.07855,-0.05788 z m 1.85312,0.164332 q 0,0.163297 -0.04651,0.274919 -0.04651,0.111621 -0.130225,0.174666 -0.08372,0.06408 -0.202572,0.09198 -0.117822,0.02894 -0.266651,0.02894 -0.120923,0 -0.238745,-0.01447 -0.116789,-0.01447 -0.202572,-0.03514 v -0.290422 h 0.04547 q 0.06821,0.02687 0.166399,0.04858 0.09819,0.02274 0.1757,0.02274 0.103353,0 0.167432,-0.01964 0.06511,-0.0186 0.09922,-0.05374 0.03204,-0.03307 0.04651,-0.08475 0.01447,-0.05168 0.01447,-0.124023 v -0.0217 q -0.06718,0.05478 -0.148828,0.08682 -0.08165,0.03204 -0.181902,0.03204 -0.243913,0 -0.376205,-0.146762 -0.132292,-0.146761 -0.132292,-0.446485 0,-0.14366 0.04031,-0.248047 0.04031,-0.104387 0.113688,-0.181901 0.06821,-0.07235 0.167432,-0.112655 0.100253,-0.04031 0.204639,-0.04031 0.09405,0 0.170533,0.02274 0.07751,0.0217 0.14056,0.06098 l 0.01344,-0.05168 h 0.360702 z M 24.141912,69.305487 V 68.77942 q -0.03204,-0.01344 -0.07855,-0.02067 -0.04651,-0.0083 -0.08372,-0.0083 -0.146762,0 -0.220142,0.08475 -0.07338,0.08372 -0.07338,0.234611 0,0.167432 0.06201,0.233578 0.06304,0.06615 0.186035,0.06615 0.05581,0 0.109555,-0.01757 0.05374,-0.01757 0.09819,-0.04651 z"
       id="text2-3-8-6-9"
       aria-label="Log" />
    <g
       id="panel"
       transform="matrix(0.35277724,0,0,0.35277724,2.273397e-5,4.451641e-4)">
      <g
         id="g2-1">
        <path
           id="rect1"
           style="fill:#ededee"
           d="M 0,0 H 86.400002 V 364.25 H 0 Z" />
        <path
           d="M 86.15,0.25 V 364 H 0.25 V 0.25 h 85.9 M 86.4,0 H 0 v 364.25 h 86.4 z"
           style="fill:#9c9c9e"
           id="path1-16" />
      </g>
    </g>
    <path
       id="rect2"
       style="opacity:1;stroke-width:0.4;stroke-linecap:round;stroke-linejoin:round;paint-order:markers fill stroke"
       d="M 3.9810803,99.078809 H 26.498919 c 1.386098,0 2.501982,1.384901 2.501982,3.105141 v 16.23836 c 0,1.72024 -1.115884,3.10513 -2.501982,3.10513 H 3.9810803 c -1.386098,0 -2.501982,-1.38489 -2.501982,-3.10513 v -16.23836 c 0,-1.72024 1.115884,-3.105141 2.501982,-3.105141 z" />
    <path
       style="font-weight:bold;font-size:3.52778px;line-height:3.52777px;font-family:'gil sans';-inkscape-font-specification:'gil sans Bold';text-align:center;letter-spacing:0px;word-spacing:0px;text-anchor:middle;stroke-width:0.5;stroke-linecap:round;stroke-linejoin:round;paint-order:markers fill stroke"
       d="M 8.094442,81.689172 H 6.2444245 v -2.564875 h 0.6614587 v 2.068781 H 8.094442 Z m 2.780194,-0.89228 H 9.5603311 v -0.496094 h 1.3143049 z m 3.109201,0.89228 H 12.481774 V 81.23442 h 0.420302 v -1.65537 h -0.420302 v -0.454753 h 1.502063 v 0.454753 h -0.420302 v 1.65537 h 0.420302 z m 2.447742,0 h -0.623563 v -0.959459 q 0,-0.117134 -0.01206,-0.232544 -0.01206,-0.117134 -0.04134,-0.172255 -0.03445,-0.06373 -0.10163,-0.09302 -0.06546,-0.02928 -0.184313,-0.02928 -0.08441,0 -0.172255,0.02756 -0.08613,0.02756 -0.187758,0.08785 v 1.371148 H 14.488544 V 79.75475 h 0.620117 v 0.213596 q 0.165365,-0.129191 0.316949,-0.198093 0.153307,-0.0689 0.339343,-0.0689 0.313503,0 0.489203,0.18259 0.177423,0.18259 0.177423,0.546048 z m 2.986899,-0.89228 h -1.314304 v -0.496094 h 1.314304 z m 3.160878,-0.887113 q 0,-0.09646 -0.03962,-0.165364 -0.03962,-0.0689 -0.136081,-0.108521 -0.06718,-0.02756 -0.156752,-0.03273 -0.08957,-0.0069 -0.208429,-0.0069 H 21.79904 v 0.690742 h 0.203261 q 0.158474,0 0.265272,-0.0155 0.106798,-0.0155 0.179145,-0.07063 0.0689,-0.0534 0.09991,-0.117133 0.03273,-0.06546 0.03273,-0.173978 z m 1.031806,1.779393 h -0.807875 l -0.699355,-0.940511 h -0.304891 v 0.940511 h -0.658014 v -2.564875 h 1.109322 q 0.227376,0 0.391018,0.02584 0.163643,0.02584 0.306614,0.111966 0.144694,0.08613 0.229099,0.223931 0.08613,0.136082 0.08613,0.342788 0,0.28422 -0.132637,0.463365 -0.130913,0.179145 -0.375515,0.298001 z"
       id="text1-7"
       aria-label="L - In - R" />
    <path
       style="font-weight:bold;font-size:3.52778px;line-height:3.52777px;font-family:'gil sans';-inkscape-font-specification:'gil sans Bold';text-align:center;letter-spacing:0px;word-spacing:0px;text-anchor:middle;fill:#ffffff;stroke-width:0.5;stroke-linecap:round;stroke-linejoin:round;paint-order:markers fill stroke"
       d="M 7.0665051,103.37111 H 5.2164877 v -2.56487 h 0.6614587 v 2.06878 h 1.1885587 z m 2.780194,-0.89228 H 8.5323943 v -0.49609 h 1.3143048 z m 4.2167999,-0.38929 q 0,0.61322 -0.3514,0.97496 -0.3514,0.36001 -0.971518,0.36001 -0.618395,0 -0.969795,-0.36001 -0.3514,-0.36174 -0.3514,-0.97496 0,-0.6184 0.3514,-0.97669 0.3514,-0.36001 0.969795,-0.36001 0.616673,0 0.969795,0.36001 0.353123,0.35829 0.353123,0.97669 z m -0.876778,0.6494 q 0.09646,-0.11714 0.142972,-0.27561 0.04651,-0.1602 0.04651,-0.37552 0,-0.23082 -0.0534,-0.39274 -0.0534,-0.16192 -0.139527,-0.26182 -0.08785,-0.10336 -0.20326,-0.14987 -0.113689,-0.0465 -0.237712,-0.0465 -0.125746,0 -0.237712,0.0448 -0.110243,0.0448 -0.203261,0.14814 -0.08613,0.0965 -0.141249,0.267 -0.0534,0.16881 -0.0534,0.39274 0,0.2291 0.05168,0.39102 0.0534,0.16019 0.139526,0.26182 0.08613,0.10163 0.201538,0.14986 0.115411,0.0482 0.24288,0.0482 0.127468,0 0.242879,-0.0482 0.115411,-0.05 0.201538,-0.1533 z m 3.274566,0.63217 h -0.620118 v -0.21359 q -0.172255,0.13091 -0.315226,0.19981 -0.142972,0.0672 -0.341065,0.0672 -0.320394,0 -0.494371,-0.18431 -0.172255,-0.18431 -0.172255,-0.54433 v -1.25918 h 0.623562 v 0.95946 q 0,0.14642 0.0086,0.2446 0.01033,0.0965 0.04479,0.1602 0.03273,0.0637 0.09819,0.093 0.06718,0.0293 0.186035,0.0293 0.07924,0 0.1757,-0.0293 0.09646,-0.0293 0.186035,-0.0861 v -1.37115 h 0.620118 z m 1.822457,-0.0172 q -0.09991,0.0258 -0.211874,0.0396 -0.111966,0.0155 -0.273885,0.0155 -0.361735,0 -0.539158,-0.14642 -0.1757,-0.14641 -0.1757,-0.50126 v -0.90434 H 16.82819 v -0.4203 h 0.254937 v -0.55294 h 0.620118 v 0.55294 h 0.580499 v 0.4203 h -0.580499 v 0.68558 q 0,0.10163 0.0017,0.17742 0.0017,0.0758 0.02756,0.13608 0.02412,0.0603 0.08441,0.0965 0.06201,0.0345 0.179145,0.0345 0.04823,0 0.125746,-0.0207 0.07924,-0.0207 0.110243,-0.0379 h 0.05168 z m 2.787084,-0.87506 h -1.314305 v -0.49609 h 1.314305 z m 3.160877,-0.88711 q 0,-0.0965 -0.03962,-0.16536 -0.03962,-0.0689 -0.136081,-0.10853 -0.06718,-0.0276 -0.156752,-0.0327 -0.08957,-0.007 -0.208428,-0.007 H 23.45139 v 0.69074 h 0.203261 q 0.158475,0 0.265273,-0.0155 0.106798,-0.0155 0.179145,-0.0706 0.0689,-0.0534 0.09991,-0.11713 0.03273,-0.0655 0.03273,-0.17398 z m 1.031807,1.77939 h -0.807876 l -0.699354,-0.94051 H 23.45139 v 0.94051 h -0.658013 v -2.56487 h 1.109321 q 0.227377,0 0.391019,0.0258 0.163642,0.0258 0.306613,0.11196 0.144695,0.0861 0.229099,0.22393 0.08613,0.13608 0.08613,0.34279 0,0.28422 -0.132636,0.46337 -0.130914,0.17914 -0.375516,0.298 z"
       id="text1-7-3"
       aria-label="L - Out - R" />
    <g
       id="g18"
       style="stroke-width:3.38126"
       transform="matrix(0.29574749,0,0,0.29574749,6.7210945,-3.2280923)">
      <path
         id="path31"
         d="m 20.6,26.79 c -0.37,0 -0.71,-0.17 -0.97,-0.47 -0.51,-0.6 -0.52,-1.54 -0.04,-2.16 l 6.97,-8.88 c 0.38,-0.48 1.05,-0.65 1.57,-0.39 0.52,0.26 0.79,0.82 0.79,1.45 v 4.77 l 4.64,-5.85 c 0.38,-0.48 1.01,-0.64 1.53,-0.38 0.5,0.25 0.83,0.81 0.83,1.44 v 8.82 c 0,0.86 -0.61,1.57 -1.36,1.57 -0.75,0 -1.36,-0.7 -1.36,-1.57 v -4.79 l -4.64,5.85 c -0.38,0.48 -1.01,0.64 -1.54,0.38 -0.5,-0.24 -0.83,-0.81 -0.83,-1.44 v -4.67 l -4.61,5.8 c -0.26,0.32 -0.62,0.51 -1,0.51 h 0.02 z"
         style="fill:#2cabe1;stroke-width:3.38126" />
      <path
         id="path32"
         d="m 20.6,26.79 c -0.75,0 -1.35,-0.7 -1.35,-1.57 v -4.93 l -2.26,2.84 c -0.5,0.63 -1.44,0.65 -1.97,0.04 -0.51,-0.6 -0.52,-1.53 -0.03,-2.15 l 4.61,-5.76 c 0.26,-0.32 0.63,-0.5 1,-0.5 0.18,0 0.37,0.04 0.54,0.12 0.5,0.25 0.82,0.81 0.82,1.44 v 8.89 c 0,0.86 -0.61,1.57 -1.36,1.57 v 0 z"
         style="fill:#ea2228;stroke-width:3.38126" />
      <path
         id="path33"
         d="m 37.2,26.81 v 0 c -0.35,0 -0.68,-0.15 -0.94,-0.42 -0.76,-0.78 -0.14,-1.84 0.29,-2.3 L 38.5,21.73 37.24,21.71 C 36.68,21.7 36.2,21.31 36,20.71 35.81,20.15 35.93,19.5 36.29,19.07 l 3.16,-3.83 c 0.23,-0.28 0.55,-0.48 1.13,-0.47 0.33,0 0.67,0.17 0.92,0.4 0.71,0.66 0.29,1.7 -0.07,2.2 l -1.04,1.26 1.26,0.02 c 0.56,0.01 1.04,0.4 1.24,1 0.19,0.56 0.07,1.21 -0.29,1.64 l -4.1,4.97 c -0.35,0.35 -0.65,0.55 -1.3,0.54 v 0 z"
         style="fill:#00a650;stroke-width:3.38126" />
    </g>
    <path
       style="font-weight:bold;font-size:3.52777px;line-height:3.52777px;font-family:'gil sans';-inkscape-font-specification:'gil sans Bold';text-align:center;letter-spacing:0px;word-spacing:0px;text-anchor:middle;stroke-width:0.5;stroke-linecap:round;stroke-linejoin:round;paint-order:markers fill stroke"
       d="M 7.1380138,45.628106 H 5.9580712 v 0.477145 h 1.0938154 v 0.496092 H 5.9580712 v 1.095538 H 5.3000594 v -2.564868 h 1.8379544 z m 1.5933532,1.56407 v -0.403075 q -0.1257457,0.01033 -0.2721619,0.02928 -0.1464163,0.01723 -0.2222082,0.04134 -0.093017,0.02928 -0.1429712,0.08613 -0.048231,0.05512 -0.048231,0.146416 0,0.06029 0.010335,0.09819 0.010335,0.0379 0.051676,0.07235 0.039619,0.03445 0.09474,0.05168 0.055121,0.0155 0.1722544,0.0155 0.093017,0 0.1877573,-0.0379 0.096463,-0.0379 0.1688093,-0.09991 z m 0,0.299722 q -0.049954,0.0379 -0.1240232,0.0913 -0.074069,0.0534 -0.139526,0.08441 -0.091295,0.04134 -0.1894799,0.06029 -0.098185,0.02067 -0.215318,0.02067 -0.275607,0 -0.4616417,-0.170532 -0.1860348,-0.170532 -0.1860348,-0.435804 0,-0.211873 0.09474,-0.346231 0.09474,-0.134359 0.2687169,-0.211873 0.1722544,-0.07752 0.4271909,-0.110243 0.2549365,-0.03273 0.528821,-0.04823 v -0.01033 q 0,-0.160197 -0.1309133,-0.220486 -0.1309134,-0.06201 -0.3858499,-0.06201 -0.1533064,0 -0.3272833,0.05512 -0.173977,0.0534 -0.2497689,0.08268 h -0.056844 v -0.46681 q 0.098185,-0.02584 0.3186707,-0.06029 0.2222081,-0.03617 0.4444163,-0.03617 0.528821,0 0.763087,0.163642 0.2359885,0.161919 0.2359885,0.509873 v 1.316023 H 8.731367 Z m 3.066128,0.204983 h -0.620116 v -0.201537 q -0.160196,0.130913 -0.299723,0.192924 -0.139526,0.06201 -0.322115,0.06201 -0.353122,0 -0.5649947,-0.272162 -0.2118729,-0.272162 -0.2118729,-0.733804 0,-0.246323 0.070624,-0.435803 0.072347,-0.191203 0.1963706,-0.327284 0.117133,-0.12919 0.284219,-0.199815 0.167087,-0.07235 0.334174,-0.07235 0.173977,0 0.28422,0.0379 0.111965,0.03617 0.229098,0.09302 v -0.823376 h 0.620116 z m -0.620116,-0.533988 v -0.949122 q -0.06546,-0.02756 -0.137803,-0.03962 -0.07235,-0.01206 -0.132636,-0.01206 -0.244602,0 -0.366902,0.153306 -0.122301,0.151584 -0.122301,0.422023 0,0.28422 0.09818,0.413411 0.09819,0.127468 0.315226,0.127468 0.0844,0 0.179144,-0.03101 0.09474,-0.03273 0.167087,-0.0844 z m 3.110915,-0.318671 h -1.419376 q 0.01378,0.227376 0.172254,0.347954 0.160197,0.120578 0.470255,0.120578 0.19637,0 0.380682,-0.07062 0.184312,-0.07062 0.29111,-0.151584 h 0.0689 v 0.497815 q -0.210151,0.08441 -0.396186,0.122301 -0.186034,0.0379 -0.411688,0.0379 -0.582219,0 -0.892277,-0.261827 -0.310058,-0.261827 -0.310058,-0.745862 0,-0.478867 0.292832,-0.757919 0.294555,-0.280775 0.806151,-0.280775 0.471977,0 0.709688,0.239434 0.237711,0.237711 0.237711,0.685572 z m -0.616671,-0.363457 q -0.0052,-0.194647 -0.09646,-0.292832 -0.09129,-0.09819 -0.28422,-0.09819 -0.179145,0 -0.294555,0.09302 -0.11541,0.09302 -0.129191,0.298 z m 4.301192,-0.852659 h -0.800983 v 2.068775 h -0.661457 v -2.068775 h -0.800983 v -0.496093 h 2.263423 z m 0.983573,2.068775 h -0.620116 v -1.934417 h 0.620116 z m 0.01722,-2.210024 h -0.654566 v -0.470254 h 0.654566 z m 2.459793,0.838879 v 1.371145 H 20.80984 v -0.966347 q 0,-0.141249 -0.0069,-0.239434 -0.0069,-0.09991 -0.0379,-0.161919 -0.03101,-0.06201 -0.09474,-0.08957 -0.06201,-0.02928 -0.175699,-0.02928 -0.0913,0 -0.177422,0.0379 -0.08613,0.03617 -0.155029,0.07751 v 1.371145 h -0.620116 v -1.934417 h 0.620116 v 0.213596 q 0.160196,-0.125746 0.306613,-0.19637 0.146416,-0.07062 0.323838,-0.07062 0.191202,0 0.337618,0.08613 0.146417,0.0844 0.229099,0.249769 0.186035,-0.156752 0.361734,-0.246324 0.1757,-0.08957 0.344509,-0.08957 0.313503,0 0.475422,0.187758 0.163642,0.187757 0.163642,0.540879 v 1.259179 h -0.623561 v -0.966347 q 0,-0.142971 -0.0069,-0.241156 -0.0052,-0.09819 -0.03617,-0.160197 -0.02928,-0.06201 -0.09302,-0.08957 -0.06373,-0.02928 -0.179145,-0.02928 -0.07751,0 -0.151584,0.02756 -0.07407,0.02584 -0.180867,0.08785 z m 3.746533,0.518486 h -1.419376 q 0.01378,0.227376 0.172255,0.347954 0.160196,0.120578 0.470254,0.120578 0.19637,0 0.380682,-0.07062 0.184312,-0.07062 0.29111,-0.151584 h 0.0689 v 0.497815 q -0.21015,0.08441 -0.396185,0.122301 -0.186035,0.0379 -0.411688,0.0379 -0.58222,0 -0.892278,-0.261827 -0.310058,-0.261827 -0.310058,-0.745862 0,-0.478867 0.292833,-0.757919 0.294555,-0.280775 0.80615,-0.280775 0.471977,0 0.709688,0.239434 0.237711,0.237711 0.237711,0.685572 z m -0.616665,-0.363457 q -0.0052,-0.194647 -0.09646,-0.292832 -0.09129,-0.09819 -0.28422,-0.09819 -0.179144,0 -0.294555,0.09302 -0.11541,0.09302 -0.12919,0.298 z"
       id="text2-3"
       aria-label="Fade Time" />
    <path
       style="font-weight:bold;font-size:3.52777px;line-height:3.52777px;font-family:'gil sans';-inkscape-font-specification:'gil sans Bold';text-align:center;letter-spacing:0px;word-spacing:0px;text-anchor:middle;stroke-width:0.5;stroke-linecap:round;stroke-linejoin:round;paint-order:markers fill stroke"
       d="m 11.511553,72.884722 q 0,0.37896 -0.322115,0.616671 -0.320393,0.235989 -0.871608,0.235989 -0.3186702,0 -0.5563812,-0.05512 -0.2359886,-0.05684 -0.4426938,-0.142971 v -0.614948 h 0.072347 q 0.2049827,0.163642 0.4581967,0.251491 0.2549363,0.08785 0.4892023,0.08785 0.06029,0 0.158474,-0.01033 0.09818,-0.01033 0.160197,-0.03445 0.07579,-0.03101 0.124023,-0.07751 0.04995,-0.04651 0.04995,-0.137804 0,-0.0844 -0.07235,-0.144694 -0.07062,-0.06201 -0.208428,-0.09474 -0.144694,-0.03445 -0.306613,-0.06373 -0.160197,-0.03101 -0.3014449,-0.07751 -0.3238383,-0.105075 -0.4668094,-0.28422 -0.1412486,-0.180867 -0.1412486,-0.447861 0,-0.35829 0.3203931,-0.583943 0.3221158,-0.227376 0.8268208,-0.227376 0.253214,0 0.499538,0.04995 0.248046,0.04823 0.428913,0.122301 v 0.590832 h -0.07062 q -0.155029,-0.124023 -0.380682,-0.206705 -0.223931,-0.0844 -0.458197,-0.0844 -0.08268,0 -0.165364,0.01206 -0.08096,0.01034 -0.156752,0.04134 -0.06718,0.02584 -0.11541,0.07924 -0.04823,0.05168 -0.04823,0.118856 0,0.10163 0.07751,0.156751 0.07752,0.0534 0.292833,0.09819 0.141248,0.02928 0.270439,0.05684 0.130913,0.02756 0.280775,0.07579 0.294555,0.09646 0.434081,0.26355 0.141248,0.165364 0.141248,0.430635 z m 2.361608,0.806151 H 13.2496 v -0.959457 q 0,-0.117133 -0.01206,-0.232543 -0.01206,-0.117133 -0.04134,-0.172255 -0.03445,-0.06373 -0.10163,-0.09302 -0.06546,-0.02928 -0.184312,-0.02928 -0.08441,0 -0.172254,0.02756 -0.08613,0.02756 -0.187758,0.08785 v 1.371145 h -0.620114 v -2.680278 h 0.620115 v 0.959457 q 0.165365,-0.129191 0.316948,-0.198093 0.153307,-0.0689 0.339342,-0.0689 0.313503,0 0.489202,0.18259 0.177422,0.18259 0.177422,0.546046 z m 1.741492,-0.504705 v -0.403076 q -0.125746,0.01034 -0.272162,0.02928 -0.146416,0.01722 -0.222208,0.04134 -0.09302,0.02928 -0.142971,0.08613 -0.04823,0.05512 -0.04823,0.146416 0,0.06029 0.01033,0.09819 0.01033,0.0379 0.05168,0.07235 0.03962,0.03445 0.09474,0.05168 0.05512,0.0155 0.172255,0.0155 0.09302,0 0.187757,-0.0379 0.09646,-0.0379 0.168809,-0.09991 z m 0,0.299722 q -0.04995,0.0379 -0.124023,0.0913 -0.07407,0.0534 -0.139526,0.0844 -0.09129,0.04134 -0.18948,0.06029 -0.09818,0.02067 -0.215318,0.02067 -0.275607,0 -0.461642,-0.170531 -0.186034,-0.170532 -0.186034,-0.435804 0,-0.211873 0.09474,-0.346231 0.09474,-0.134359 0.268717,-0.211873 0.172255,-0.07752 0.427191,-0.110243 0.254937,-0.03273 0.528821,-0.04823 v -0.01034 q 0,-0.160196 -0.130913,-0.220485 -0.130913,-0.06201 -0.38585,-0.06201 -0.153306,0 -0.327283,0.05512 -0.173977,0.0534 -0.249769,0.08268 h -0.05684 v -0.46681 q 0.09818,-0.02584 0.31867,-0.06029 0.222209,-0.03617 0.444417,-0.03617 0.528821,0 0.763087,0.163641 0.235988,0.16192 0.235988,0.509873 v 1.316024 h -0.614953 z m 3.203932,-0.788925 q 0,0.239434 -0.07407,0.435804 -0.07235,0.19637 -0.191202,0.323838 -0.124023,0.134359 -0.280775,0.20326 -0.156751,0.0689 -0.335896,0.0689 -0.165364,0 -0.280774,-0.03617 -0.115411,-0.03445 -0.235989,-0.09819 v 0.80615 h -0.620116 v -2.644105 h 0.620116 v 0.201538 q 0.142971,-0.113688 0.29111,-0.184312 0.149861,-0.07062 0.344509,-0.07062 0.361734,0 0.561549,0.265272 0.201538,0.265272 0.201538,0.728635 z m -0.639064,0.01206 q 0,-0.282497 -0.09646,-0.409965 -0.09646,-0.127469 -0.304891,-0.127469 -0.08785,0 -0.180867,0.02756 -0.09302,0.02584 -0.177422,0.07579 v 0.973237 q 0.06201,0.02412 0.132636,0.03101 0.07062,0.0069 0.139526,0.0069 0.246324,0 0.366902,-0.142971 0.120578,-0.144694 0.120578,-0.434081 z m 2.992059,0.129191 h -1.419376 q 0.01378,0.227376 0.172254,0.347954 0.160197,0.120578 0.470255,0.120578 0.19637,0 0.380682,-0.07062 0.184312,-0.07062 0.29111,-0.151583 h 0.0689 v 0.497815 q -0.21015,0.0844 -0.396185,0.1223 -0.186034,0.0379 -0.411688,0.0379 -0.58222,0 -0.892277,-0.261826 -0.310058,-0.261827 -0.310058,-0.745862 0,-0.478867 0.292832,-0.757919 0.294555,-0.280775 0.806151,-0.280775 0.471977,0 0.709688,0.239434 0.237711,0.237711 0.237711,0.685572 z m -0.616671,-0.363457 q -0.0052,-0.194647 -0.09646,-0.292832 -0.09129,-0.09819 -0.28422,-0.09819 -0.179145,0 -0.294555,0.09302 -0.115411,0.09302 -0.129191,0.298 z"
       id="text2-3-8"
       aria-label="Shape" />
    <path
       style="font-weight:bold;font-size:2.11667px;line-height:2.11667px;font-family:'gil sans';-inkscape-font-specification:'gil sans Bold';text-align:center;letter-spacing:0px;word-spacing:0px;text-anchor:middle;stroke-width:0.5;stroke-linecap:round;stroke-linejoin:round;paint-order:markers fill stroke"
       d="M 7.3121782,69.596894 H 6.2021667 v -1.538926 h 0.3968756 v 1.241269 h 0.7131359 z m 0.5901457,0 H 7.530253 V 68.43624 h 0.3720709 z m 0.010335,-1.326019 H 7.5199177 v -0.282154 h 0.3927415 z m 1.5068869,1.326019 H 9.0454082 v -0.575676 q 0,-0.07028 -0.00723,-0.139527 -0.00723,-0.07028 -0.024805,-0.103353 -0.020671,-0.03824 -0.060978,-0.05581 -0.039274,-0.01757 -0.1105878,-0.01757 -0.050643,0 -0.103353,0.01654 -0.051677,0.01654 -0.1126548,0.05271 v 0.82269 H 8.2537241 v -1.160654 h 0.3720708 v 0.128157 q 0.099219,-0.07751 0.1901696,-0.118855 0.091984,-0.04134 0.2036054,-0.04134 0.1881025,0 0.2935226,0.109555 0.1064536,0.109554 0.1064536,0.327629 z"
       id="text2-3-8-6"
       aria-label="Lin" />
    <g
       id="g2"
       transform="matrix(0.35277724,0,0,0.35277724,2.2168442e-5,0.27535706)">
      <path
         d="m 52.2,154.78 1.13,-1.95 c -2.75,-1.43 -5.84,-2.3 -9.12,-2.44 v 2.26 c 2.87,0.14 5.57,0.89 7.99,2.14 z"
         id="path38-4" />
      <path
         d="m 59.78,161.63 1.95,-1.13 c -1.72,-2.68 -4,-4.96 -6.68,-6.68 l -1.13,1.95 c 2.34,1.52 4.33,3.51 5.85,5.85 z"
         id="path39-7" />
      <path
         d="m 32.47,155.78 -1.13,-1.95 c -2.68,1.72 -4.96,4 -6.68,6.68 l 1.95,1.13 c 1.52,-2.34 3.51,-4.33 5.85,-5.85 z"
         id="path40-8" />
      <path
         d="m 62.92,171.36 h 2.26 c -0.15,-3.28 -1.01,-6.37 -2.44,-9.12 l -1.95,1.13 c 1.24,2.42 1.99,5.13 2.14,8 z"
         id="path41-4" />
      <path
         d="m 42.2,152.64 v -2.26 c -3.28,0.15 -6.37,1.01 -9.12,2.44 l 1.13,1.95 c 2.42,-1.24 5.13,-1.99 8,-2.14 z"
         id="path42-0" />
      <path
         d="m 26.62,183.08 -1.95,1.13 c 1.72,2.68 4,4.96 6.68,6.68 l 1.13,-1.95 c -2.34,-1.52 -4.33,-3.51 -5.85,-5.85 z"
         id="path43-0" />
      <path
         d="m 53.93,188.94 1.13,1.95 c 2.68,-1.72 4.96,-4 6.68,-6.68 l -1.95,-1.13 c -1.52,2.34 -3.51,4.33 -5.85,5.85 z"
         id="path44-6" />
      <path
         d="m 62.92,173.36 c -0.14,2.87 -0.89,5.57 -2.14,8 l 1.95,1.13 c 1.43,-2.75 2.3,-5.84 2.44,-9.12 h -2.26 z"
         id="path45-2" />
      <path
         d="m 23.48,173.36 h -2.26 c 0.15,3.28 1.01,6.37 2.44,9.12 l 1.95,-1.13 c -1.24,-2.42 -1.99,-5.13 -2.14,-8 z"
         id="path46-4" />
      <path
         d="m 25.62,163.36 -1.95,-1.13 c -1.43,2.75 -2.3,5.84 -2.44,9.12 h 2.26 c 0.14,-2.87 0.89,-5.57 2.14,-8 z"
         id="path47-7" />
    </g>
    <g
       id="g47"
       transform="matrix(0.35277724,0,0,0.35277724,2.2168442e-5,-25.784089)">
      <path
         d="m 52.2,154.78 1.13,-1.95 c -2.75,-1.43 -5.84,-2.3 -9.12,-2.44 v 2.26 c 2.87,0.14 5.57,0.89 7.99,2.14 z"
         id="path38" />
      <path
         d="m 59.78,161.63 1.95,-1.13 c -1.72,-2.68 -4,-4.96 -6.68,-6.68 l -1.13,1.95 c 2.34,1.52 4.33,3.51 5.85,5.85 z"
         id="path39" />
      <path
         d="m 32.47,155.78 -1.13,-1.95 c -2.68,1.72 -4.96,4 -6.68,6.68 l 1.95,1.13 c 1.52,-2.34 3.51,-4.33 5.85,-5.85 z"
         id="path40" />
      <path
         d="m 62.92,171.36 h 2.26 c -0.15,-3.28 -1.01,-6.37 -2.44,-9.12 l -1.95,1.13 c 1.24,2.42 1.99,5.13 2.14,8 z"
         id="path41" />
      <path
         d="m 42.2,152.64 v -2.26 c -3.28,0.15 -6.37,1.01 -9.12,2.44 l 1.13,1.95 c 2.42,-1.24 5.13,-1.99 8,-2.14 z"
         id="path42" />
      <path
         d="m 26.62,183.08 -1.95,1.13 c 1.72,2.68 4,4.96 6.68,6.68 l 1.13,-1.95 c -2.34,-1.52 -4.33,-3.51 -5.85,-5.85 z"
         id="path43" />
      <path
         d="m 53.93,188.94 1.13,1.95 c 2.68,-1.72 4.96,-4 6.68,-6.68 l -1.95,-1.13 c -1.52,2.34 -3.51,4.33 -5.85,5.85 z"
         id="path44" />
      <path
         d="m 62.92,173.36 c -0.14,2.87 -0.89,5.57 -2.14,8 l 1.95,1.13 c 1.43,-2.75 2.3,-5.84 2.44,-9.12 h -2.26 z"
         id="path45" />
      <path
         d="m 23.48,173.36 h -2.26 c 0.15,3.28 1.01,6.37 2.44,9.12 l 1.95,-1.13 c -1.24,-2.42 -1.99,-5.13 -2.14,-8 z"
         id="path46" />
      <path
         d="m 25.62,163.36 -1.95,-1.13 c -1.43,2.75 -2.3,5.84 -2.44,9.12 h 2.26 c 0.14,-2.87 0.89,-5.57 2.14,-8 z"
         id="path47" />
    </g>
    <path
       d="m 22.268682,69.343683 h -1.110011 v -1.538927 h 0.396876 v 1.24127 h 0.713135 z m 1.404568,-0.579811 q 0,0.286288 -0.167432,0.451653 -0.166398,0.164331 -0.468189,0.164331 -0.301791,0 -0.469223,-0.164331 -0.166398,-0.165365 -0.166398,-0.451653 0,-0.288355 0.167432,-0.452686 0.168465,-0.164331 0.468189,-0.164331 0.303858,0 0.469223,0.165364 0.166398,0.165365 0.166398,0.451653 z m -0.457854,0.282154 q 0.03617,-0.04444 0.05374,-0.106454 0.0186,-0.06305 0.0186,-0.173633 0,-0.102319 -0.0186,-0.171566 -0.0186,-0.06925 -0.05168,-0.110588 -0.03307,-0.04237 -0.07958,-0.05994 -0.04651,-0.01757 -0.100252,-0.01757 -0.05374,0 -0.09612,0.01447 -0.04134,0.01447 -0.07958,0.05788 -0.03411,0.04031 -0.05478,0.110588 -0.01964,0.07028 -0.01964,0.176733 0,0.09508 0.01757,0.165365 0.01757,0.06925 0.05168,0.111621 0.03307,0.04031 0.07855,0.05891 0.04651,0.0186 0.105421,0.0186 0.05064,0 0.09612,-0.01654 0.04651,-0.01757 0.07855,-0.05788 z m 1.85312,0.164331 q 0,0.163298 -0.04651,0.274919 -0.04651,0.111622 -0.130225,0.174667 -0.08372,0.06408 -0.202572,0.09198 -0.117822,0.02894 -0.266651,0.02894 -0.120923,0 -0.238745,-0.01447 -0.116789,-0.01447 -0.202572,-0.03514 v -0.290422 h 0.04547 q 0.06821,0.02687 0.166399,0.04858 0.09819,0.02274 0.1757,0.02274 0.103353,0 0.167432,-0.01964 0.06511,-0.0186 0.09922,-0.05374 0.03204,-0.03307 0.04651,-0.08475 0.01447,-0.05168 0.01447,-0.124024 v -0.0217 q -0.06718,0.05478 -0.148828,0.08682 -0.08165,0.03204 -0.181902,0.03204 -0.243913,0 -0.376205,-0.146761 -0.132292,-0.146761 -0.132292,-0.446485 0,-0.143661 0.04031,-0.248047 0.04031,-0.104387 0.113688,-0.181902 0.06821,-0.07235 0.167432,-0.112655 0.100253,-0.04031 0.204639,-0.04031 0.09405,0 0.170533,0.02274 0.07752,0.0217 0.14056,0.06098 l 0.01344,-0.05168 h 0.360702 z m -0.372071,-0.232544 v -0.526067 q -0.03204,-0.01344 -0.07855,-0.02067 -0.04651,-0.0083 -0.08372,-0.0083 -0.146762,0 -0.220142,0.08475 -0.07338,0.08372 -0.07338,0.234611 0,0.167432 0.06201,0.233578 0.06305,0.06615 0.186035,0.06615 0.05581,0 0.109555,-0.01757 0.05374,-0.01757 0.09819,-0.04651 z"
       id="text3"
       style="font-weight:bold;font-size:2.11667px;line-height:2.11665px;font-family:'gil sans';-inkscape-font-specification:'gil sans Bold';text-align:center;letter-spacing:0px;word-spacing:0px;text-anchor:middle;stroke-width:0.4;stroke-linecap:round;stroke-linejoin:round;paint-order:markers fill stroke"
       aria-label="Log" />
    <path
       d="m 13.869022,125.41039 h -0.707968 v 0.28629 h 0.656291 v 0.29765 h -0.656291 v 0.65733 h -0.394809 v -1.53893 h 1.102777 z m 0.979787,0.7059 h -0.788584 v -0.29766 h 0.788584 z m 1.14205,0.53537 h -0.901238 v -0.27285 h 0.252182 v -0.99323 h -0.252182 v -0.27285 h 0.901238 v 0.27285 h -0.252181 v 0.99323 h 0.252181 z m 1.722895,0 h -0.382406 l -0.653191,-1.05627 v 1.05627 h -0.363803 v -1.53893 h 0.474391 l 0.561207,0.8816 v -0.8816 h 0.363802 z"
       id="text4"
       style="font-weight:bold;font-size:2.11667px;line-height:2.11665px;font-family:'gil sans';-inkscape-font-specification:'gil sans Bold';text-align:center;letter-spacing:0px;word-spacing:0px;text-anchor:middle;stroke-width:0.4;stroke-linecap:round;stroke-linejoin:round;paint-order:markers fill stroke"
       aria-label="F-IN" />
    <path
       d="m 17.960477,18.212841 q 0,-0.09646 -0.03962,-0.165364 -0.03962,-0.0689 -0.136081,-0.10852 -0.06718,-0.02756 -0.156752,-0.03273 -0.08957,-0.0069 -0.208427,-0.0069 h -0.239434 v 0.690741 h 0.20326 q 0.158474,0 0.265272,-0.0155 0.106798,-0.0155 0.179145,-0.07062 0.0689,-0.0534 0.09991,-0.117133 0.03273,-0.06546 0.03273,-0.173977 z m 1.031804,1.779388 H 18.184408 L 17.485055,19.05172 h -0.30489 v 0.940509 h -0.658012 v -2.564868 h 1.109318 q 0.227376,0 0.391018,0.02584 0.163641,0.02584 0.306612,0.111966 0.144694,0.08613 0.229099,0.223931 0.08613,0.136081 0.08613,0.342786 0,0.28422 -0.132636,0.463364 -0.130913,0.179145 -0.375515,0.298 z m 2.16007,-0.852659 h -1.419376 q 0.01378,0.227376 0.172254,0.347954 0.160197,0.120578 0.470255,0.120578 0.19637,0 0.380682,-0.07062 0.184312,-0.07062 0.29111,-0.151584 h 0.0689 v 0.497815 q -0.210151,0.08441 -0.396185,0.122301 -0.186035,0.0379 -0.411688,0.0379 -0.58222,0 -0.892278,-0.261827 -0.310058,-0.261827 -0.310058,-0.745862 0,-0.478867 0.292832,-0.757919 0.294556,-0.280775 0.806151,-0.280775 0.471977,0 0.709688,0.239434 0.237711,0.237711 0.237711,0.685573 z M 20.53568,18.776113 q -0.0052,-0.194647 -0.09646,-0.292832 -0.09129,-0.09819 -0.284219,-0.09819 -0.179145,0 -0.294555,0.09302 -0.115411,0.09302 -0.129191,0.298 z m 2.7354,0.602891 q 0,0.299722 -0.268717,0.484035 -0.268717,0.182589 -0.735526,0.182589 -0.258382,0 -0.468532,-0.04823 -0.21015,-0.04823 -0.337619,-0.106798 v -0.509874 h 0.05684 q 0.04651,0.03273 0.106798,0.07235 0.06201,0.0379 0.173977,0.08268 0.09646,0.03962 0.218763,0.0689 0.122301,0.02756 0.261827,0.02756 0.182589,0 0.270439,-0.03962 0.08785,-0.04134 0.08785,-0.120578 0,-0.07062 -0.05168,-0.10163 -0.05168,-0.03273 -0.19637,-0.06201 -0.0689,-0.0155 -0.187757,-0.03273 -0.117133,-0.01895 -0.213596,-0.04479 -0.263549,-0.0689 -0.391017,-0.213596 -0.12746,-0.146416 -0.12746,-0.363456 0,-0.279052 0.263549,-0.463365 0.265272,-0.186034 0.723468,-0.186034 0.217041,0 0.415134,0.04479 0.199815,0.04306 0.31178,0.09302 v 0.489203 h -0.0534 q -0.137804,-0.09474 -0.315226,-0.153307 -0.175699,-0.06029 -0.356566,-0.06029 -0.149862,0 -0.253214,0.04134 -0.10163,0.04134 -0.10163,0.117133 0,0.0689 0.04651,0.105075 0.04651,0.03617 0.218763,0.07235 0.09474,0.01895 0.20326,0.0379 0.110243,0.01723 0.220486,0.04479 0.244601,0.06373 0.361734,0.201538 0.117133,0.136081 0.117133,0.341064 z m 2.316822,-0.239434 h -1.419376 q 0.01378,0.227376 0.172254,0.347954 0.160197,0.120578 0.470255,0.120578 0.19637,0 0.380682,-0.07062 0.184312,-0.07062 0.29111,-0.151584 h 0.0689 v 0.497815 q -0.210151,0.08441 -0.396186,0.122301 -0.186034,0.0379 -0.411688,0.0379 -0.582219,0 -0.892277,-0.261827 -0.310058,-0.261827 -0.310058,-0.745862 0,-0.478867 0.292832,-0.757919 0.294555,-0.280775 0.806151,-0.280775 0.471977,0 0.709688,0.239434 0.237711,0.237711 0.237711,0.685573 z m -0.616671,-0.363457 q -0.0052,-0.194647 -0.09646,-0.292832 -0.0913,-0.09819 -0.284219,-0.09819 -0.179145,0 -0.294556,0.09302 -0.11541,0.09302 -0.12919,0.298 z m 2.290983,1.198891 q -0.09991,0.02584 -0.211873,0.03962 -0.111965,0.0155 -0.273885,0.0155 -0.361734,0 -0.539156,-0.146416 -0.175699,-0.146416 -0.175699,-0.50126 v -0.904336 h -0.254937 v -0.420301 h 0.254937 v -0.552935 h 0.620116 v 0.552936 h 0.580497 v 0.420301 h -0.580497 v 0.685573 q 0,0.10163 0.0017,0.177422 0.0017,0.07579 0.02756,0.136081 0.02412,0.06029 0.08441,0.09646 0.06201,0.03445 0.179144,0.03445 0.04823,0 0.125746,-0.02067 0.07924,-0.02067 0.110243,-0.03789 h 0.05168 z"
       id="text1"
       style="font-weight:bold;font-size:3.52777px;line-height:3.52774px;font-family:'gil sans';-inkscape-font-specification:'gil sans Bold';text-align:center;letter-spacing:0px;word-spacing:0px;text-anchor:middle;display:inline;stroke-width:0.4;stroke-linecap:round;stroke-linejoin:round;paint-order:markers fill stroke"
       aria-label="Reset" />
    <g
       id="text5"
       style="font-weight:bold;font-size:3.52777px;line-height:3.52774px;font-family:'gil sans';-inkscape-font-specification:'gil sans Bold';text-align:center;letter-spacing:0px;word-spacing:0px;text-anchor:middle;stroke-width:0.4;stroke-linecap:round;stroke-linejoin:round;paint-order:markers fill stroke"
       aria-label="Fade&#10;In"
       transform="translate(0,-3.1750001)">
      <path
         d="M 5.8798246,21.156164 H 4.699882 v 0.477145 h 1.0938154 v 0.496092 H 4.699882 v 1.095538 H 4.0418702 v -2.564868 h 1.8379544 z m 1.5933532,1.56407 v -0.403075 q -0.1257457,0.01034 -0.2721619,0.02928 -0.1464162,0.01722 -0.2222082,0.04134 -0.093017,0.02928 -0.1429711,0.08613 -0.048231,0.05512 -0.048231,0.146416 0,0.06029 0.010335,0.09819 0.010335,0.0379 0.051676,0.07235 0.039618,0.03445 0.09474,0.05168 0.055121,0.0155 0.1722544,0.0155 0.093017,0 0.1877573,-0.03789 0.096463,-0.0379 0.1688093,-0.09991 z m 0,0.299723 q -0.049954,0.0379 -0.1240231,0.09129 -0.074069,0.0534 -0.1395261,0.08441 -0.091295,0.04134 -0.1894798,0.06029 -0.098185,0.02067 -0.215318,0.02067 -0.2756071,0 -0.4616418,-0.170532 -0.1860348,-0.170532 -0.1860348,-0.435804 0,-0.211873 0.09474,-0.346231 0.09474,-0.134359 0.2687168,-0.211873 0.1722544,-0.07752 0.4271909,-0.110243 0.2549365,-0.03273 0.528821,-0.04823 v -0.01034 q 0,-0.160197 -0.1309133,-0.220486 -0.1309134,-0.06201 -0.3858499,-0.06201 -0.1533064,0 -0.3272833,0.05512 -0.173977,0.0534 -0.2497689,0.08268 h -0.056844 v -0.466809 q 0.098185,-0.02584 0.3186706,-0.06029 0.2222082,-0.03617 0.4444163,-0.03617 0.528821,0 0.763087,0.163642 0.2359885,0.161919 0.2359885,0.509873 v 1.316023 H 7.4731778 Z m 3.0661282,0.204982 H 9.91919 v -0.201537 q -0.1601966,0.130913 -0.2997227,0.192925 -0.1395261,0.06201 -0.3221157,0.06201 -0.3531215,0 -0.5649944,-0.272162 -0.2118729,-0.272162 -0.2118729,-0.733803 0,-0.246324 0.070624,-0.435804 0.072347,-0.191202 0.19637,-0.327283 0.117133,-0.129191 0.2842197,-0.199816 0.1670868,-0.07235 0.3341736,-0.07235 0.1739769,0 0.2842197,0.0379 0.1119654,0.03617 0.2290984,0.09302 V 20.544663 H 10.539306 Z M 9.91919,22.690951 v -0.949122 q -0.065457,-0.02756 -0.1378036,-0.03962 -0.072347,-0.01206 -0.1326358,-0.01206 -0.2446013,0 -0.3669019,0.153306 -0.1223006,0.151584 -0.1223006,0.422023 0,0.28422 0.098185,0.413411 0.098185,0.127468 0.3152255,0.127468 0.084405,0 0.1791446,-0.03101 0.09474,-0.03273 0.1670868,-0.0844 z m 3.110915,-0.318671 h -1.419376 q 0.01378,0.227376 0.172254,0.347954 0.160197,0.120578 0.470254,0.120578 0.19637,0 0.380683,-0.07062 0.184312,-0.07062 0.29111,-0.151584 h 0.0689 v 0.497815 q -0.21015,0.08441 -0.396185,0.122301 -0.186034,0.0379 -0.411688,0.0379 -0.58222,0 -0.892278,-0.261827 -0.310057,-0.261827 -0.310057,-0.745862 0,-0.478867 0.292832,-0.757919 0.294555,-0.280775 0.806151,-0.280775 0.471977,0 0.709688,0.239434 0.237711,0.237711 0.237711,0.685573 z m -0.616671,-0.363457 q -0.0052,-0.194647 -0.09646,-0.292832 -0.0913,-0.09818 -0.28422,-0.09818 -0.179145,0 -0.294555,0.09302 -0.115411,0.09302 -0.129191,0.298 z"
         id="path5" />
      <path
         d="M 7.939126,26.752679 H 6.4370676 V 26.297928 H 6.8573683 V 24.642563 H 6.4370676 V 24.187811 H 7.939126 v 0.454752 H 7.5188252 v 1.655365 H 7.939126 Z m 2.447735,0 H 9.7633 v -0.959457 q 0,-0.117133 -0.012058,-0.232543 -0.012058,-0.117133 -0.041341,-0.172255 -0.034451,-0.06373 -0.1016301,-0.09302 -0.065457,-0.02928 -0.1843122,-0.02928 -0.084405,0 -0.1722544,0.02756 -0.086127,0.02756 -0.1877572,0.08785 v 1.371145 H 8.4438313 v -1.934417 h 0.6201159 v 0.213596 q 0.1653642,-0.129191 0.316948,-0.198093 0.1533065,-0.0689 0.3393412,-0.0689 0.3135026,0 0.4892026,0.182589 0.177422,0.18259 0.177422,0.546047 z"
         id="path6" />
    </g>
  </g>
  <g
     inkscape:groupmode="layer"
     id="layer2"
     inkscape:label="components"
     style="display:none">
    <circle
       style="opacity:1;fill:#00ff00;fill-opacity:1;stroke:none;stroke-width:0.5;stroke-linecap:round;stroke-linejoin:round;paint-order:markers fill stroke"
       id="path1"
       cx="8.5359879"
       cy="93.526665"
       r="2.5"
       inkscape:label="AudioInL" />
    <circle
       style="display:inline;fill:#ff00ff;fill-opacity:1;stroke:none;stroke-width:0.499999;stroke-linecap:round;stroke-linejoin:round;paint-order:markers fill stroke"
       id="path1-80"
       cx="8.5359879"
       cy="85.953514"
       r="1.5"
       inkscape:label="LightInL" />
    <circle
       style="display:inline;fill:#ff00ff;fill-opacity:1;stroke:none;stroke-width:0.499999;stroke-linecap:round;stroke-linejoin:round;paint-order:markers fill stroke"
       id="path1-80-5"
       cx="21.892183"
       cy="85.931847"
       r="1.5"
       inkscape:label="LightInR" />
    <circle
       style="display:inline;fill:#ff00ff;fill-opacity:1;stroke:none;stroke-width:0.499999;stroke-linecap:round;stroke-linejoin:round;paint-order:markers fill stroke"
       id="path1-80-7"
       cx="8.6929674"
       cy="107.34968"
       r="1.5"
       inkscape:label="LightOutL" />
    <circle
       style="display:inline;fill:#ff00ff;fill-opacity:1;stroke:none;stroke-width:0.499999;stroke-linecap:round;stroke-linejoin:round;paint-order:markers fill stroke"
       id="path1-80-5-0"
       cx="22.049162"
       cy="107.32801"
       r="1.5"
       inkscape:label="LightOutR" />
    <circle
       style="fill:#00ff00;fill-opacity:1;stroke:none;stroke-width:0.5;stroke-linecap:round;stroke-linejoin:round;paint-order:markers fill stroke"
       id="path1-8"
       cx="21.892183"
       cy="93.526665"
       r="2.5"
       inkscape:label="AudioInR" />
    <circle
       style="fill:#ff0000;fill-opacity:1;stroke:none;stroke-width:0.5;stroke-linecap:round;stroke-linejoin:round;paint-order:markers fill stroke"
       id="path1-8-9"
       cx="15.24"
       cy="34.941219"
       r="2.5"
       inkscape:label="FadeTime" />
    <circle
       style="fill:#ff0000;fill-opacity:1;stroke:none;stroke-width:0.5;stroke-linecap:round;stroke-linejoin:round;paint-order:markers fill stroke"
       id="path1-8-9-2"
       cx="15.24"
       cy="61.000664"
       r="2.5"
       inkscape:label="Shape" />
    <circle
       style="fill:#ff0000;fill-opacity:1;stroke:none;stroke-width:0.5;stroke-linecap:round;stroke-linejoin:round;paint-order:markers fill stroke"
       id="path1-8-1"
       cx="8.5359879"
       cy="11.527617"
       r="2.5"
       inkscape:label="Button" />
    <circle
       style="display:inline;fill:#ff0000;fill-opacity:1;stroke:none;stroke-width:0.5;stroke-linecap:round;stroke-linejoin:round;paint-order:markers fill stroke"
       id="path1-8-1-9"
       cx="21.892183"
       cy="11.527617"
       r="2.5"
       inkscape:label="Reset" />
    <circle
       style="fill:#0000ff;fill-opacity:1;stroke:none;stroke-width:0.5;stroke-linecap:round;stroke-linejoin:round;paint-order:markers fill stroke"
       id="path1-1"
       cx="8.5359879"
       cy="115.05017"
       r="2.5"
       inkscape:label="AudioOutL" />
    <circle
       style="fill:#0000ff;fill-opacity:1;stroke:none;stroke-width:0.5;stroke-linecap:round;stroke-linejoin:round;paint-order:markers fill stroke"
       id="path1-4"
       cx="21.892183"
       cy="115.05017"
       r="2.5"
       inkscape:label="AudioOutR" />
  </g>
</svg>
