<svg xmlns="http://www.w3.org/2000/svg" width="20.41mm" height="130.69mm" viewBox="0 0 57.85 370.47">
  <defs>
    <clipPath id="clip-path" transform="translate(0)">
      <rect x="15.02" y="33.3" width="27.8" height="25.62" style="fill: none" />
    </clipPath>
  </defs>
  <g id="faceplate">
    <rect x="0.13" y="0.13" width="57.6" height="364.25" style="fill: #ededed;stroke: #9d9d9e;stroke-miterlimit: 10;stroke-width: 0.25px" />
    <g>
      <path d="M20.88,354.55H18.35v3H16.51v-7.44h4.37v1.49H18.35v1.44h2.53Z" transform="translate(0)" />
      <path d="M28.82,357.56H26.93l-.49-1.51H23.79l-.51,1.51H21.39l2.7-7.44h2ZM26,354.76,25.12,352l-.9,2.72Z" transform="translate(0)" />
      <path d="M35.91,354a4.13,4.13,0,0,1-.35,1.84,3.57,3.57,0,0,1-.8,1.12,2.55,2.55,0,0,1-1.84.63H29.63v-7.44h2.54a5.63,5.63,0,0,1,1,.07,4.53,4.53,0,0,1,.73.2,2.93,2.93,0,0,1,.56.3,4.71,4.71,0,0,1,.41.35,3.21,3.21,0,0,1,.54.74,3.78,3.78,0,0,1,.38,1A5.15,5.15,0,0,1,35.91,354ZM34,353.88a2.93,2.93,0,0,0-.28-1.42,1.53,1.53,0,0,0-.68-.68,2.14,2.14,0,0,0-.81-.17h-.79V356h.79a2,2,0,0,0,1.25-.42A2.15,2.15,0,0,0,34,353.88Z" transform="translate(0)" />
      <path d="M41.64,357.56H37v-7.44h4.53v1.49H38.88V353h2.57v1.5H38.88v1.59h2.76Z" transform="translate(0)" />
    </g>
    <path d="M13.84,165.79a14.86,14.86,0,0,1,15.09-14.63A14.86,14.86,0,0,1,44,165.79V324.44a14.86,14.86,0,0,1-15.09,14.63,14.86,14.86,0,0,1-15.08-14.63Z" transform="translate(0)" style="fill: none;stroke: #000;stroke-width: 1.05091px" />
    <path d="M44.52,308.59c0-8.08-7-14.63-15.59-14.63s-15.6,6.55-15.6,14.63v8.11h0v19.84A5.69,5.69,0,0,0,19,342.21H38.85a5.69,5.69,0,0,0,5.67-5.67V316.7h0Z" transform="translate(0)" />
    <g>
      <path d="M28.8,193.59a3,3,0,0,1-.61.28,3.3,3.3,0,0,1-.62.15,4.63,4.63,0,0,1-.65,0,3,3,0,0,1-1.12-.19,2.26,2.26,0,0,1-.85-.58,2.34,2.34,0,0,1-.55-.89,3.33,3.33,0,0,1-.18-1.12,3.09,3.09,0,0,1,.22-1.22,2.35,2.35,0,0,1,.59-.87,2.39,2.39,0,0,1,.88-.52,3.17,3.17,0,0,1,1-.16,4.93,4.93,0,0,1,1.84.41v1.43a5.76,5.76,0,0,0-.7-.41,1.87,1.87,0,0,0-.82-.17,1.6,1.6,0,0,0-.77.19,1.41,1.41,0,0,0-.58.53,1.61,1.61,0,0,0,0,1.57,1.45,1.45,0,0,0,.53.54,1.46,1.46,0,0,0,.78.2,2.27,2.27,0,0,0,.65-.09,2.9,2.9,0,0,0,.52-.22,4.37,4.37,0,0,0,.44-.27Z" transform="translate(0)" />
      <path d="M34.14,188.58,32,194.06h-.94l-2.11-5.48h1.49l1.09,3.13,1.13-3.13Z" transform="translate(0)" />
    </g>
    <g>
      <path d="M24.72,240.18H23.28v-5.41h1.44Z" transform="translate(0)" />
      <path d="M29.17,240.18H27.93V238a1.62,1.62,0,0,0-.09-.57.39.39,0,0,0-.41-.25.57.57,0,0,0-.27.07.83.83,0,0,0-.21.16l-.15.2-.13.2v2.33H25.44v-4h1.23v.57a1.87,1.87,0,0,1,.59-.5,1.41,1.41,0,0,1,.65-.14q1.26,0,1.26,1.71Z" transform="translate(0)" />
      <path d="M33.79,240.18H32.48v-5.41h1.31Z" transform="translate(0)" />
    </g>
    <g>
      <path d="M24.76,290H23.33v-5.42h1.43Z" transform="translate(0)" />
      <path d="M29.22,290H28v-2.15a1.62,1.62,0,0,0-.09-.57.4.4,0,0,0-.42-.24.53.53,0,0,0-.26.06.68.68,0,0,0-.21.17,1.25,1.25,0,0,0-.15.19l-.13.2V290H25.48v-4h1.24v.57a1.77,1.77,0,0,1,.59-.5,1.51,1.51,0,0,1,.65-.14q1.26,0,1.26,1.71Z" transform="translate(0)" />
      <path d="M35,290H31.38v-.11c.14-.15.3-.34.46-.55s.39-.5.65-.85l.34-.47a3.08,3.08,0,0,0,.27-.44,3.45,3.45,0,0,0,.2-.48,2,2,0,0,0,.08-.54.94.94,0,0,0-.19-.6.6.6,0,0,0-.49-.24,1.57,1.57,0,0,0-1.16.69v-1.28l.33-.24.3-.17a1.86,1.86,0,0,1,.4-.15,2.1,2.1,0,0,1,.51-.06,1.5,1.5,0,0,1,.79.2,1.45,1.45,0,0,1,.57.58,2,2,0,0,1,.2.89,2.41,2.41,0,0,1-.09.67,3.5,3.5,0,0,1-.19.51l-.27.47c-.2.33-.41.65-.63.95H35Z" transform="translate(0)" />
    </g>
    <g>
      <path d="M28.09,334.53a3.12,3.12,0,0,1-.31,1.4,2.4,2.4,0,0,1-.91,1,2.78,2.78,0,0,1-1.48.37,2.75,2.75,0,0,1-1.5-.39,2.42,2.42,0,0,1-.91-1,3.19,3.19,0,0,1-.3-1.37,3.14,3.14,0,0,1,.3-1.36,2.38,2.38,0,0,1,.91-1,2.74,2.74,0,0,1,1.5-.38,2.91,2.91,0,0,1,1.17.22,2.33,2.33,0,0,1,.85.6,2.62,2.62,0,0,1,.51.89A3.41,3.41,0,0,1,28.09,334.53Zm-1.46,0a1.87,1.87,0,0,0-.08-.55,1.43,1.43,0,0,0-.24-.44,1.24,1.24,0,0,0-.39-.29,1.29,1.29,0,0,0-.53-.1,1.12,1.12,0,0,0-.91.38,1.47,1.47,0,0,0-.33,1,1.5,1.5,0,0,0,.33,1,1.12,1.12,0,0,0,.91.38,1.31,1.31,0,0,0,.67-.17,1.14,1.14,0,0,0,.42-.5A1.66,1.66,0,0,0,26.63,334.53Z" transform="translate(0)" style="fill: #fff" />
      <path d="M32.18,337.24H31v-.56a2.18,2.18,0,0,1-.55.48,1.52,1.52,0,0,1-.69.15,1,1,0,0,1-1-.52,3,3,0,0,1-.23-1.19v-2.33h1.24v2.15a1.6,1.6,0,0,0,.09.56.39.39,0,0,0,.41.25.54.54,0,0,0,.43-.18,2.19,2.19,0,0,0,.33-.45v-2.33h1.23Z" transform="translate(0)" style="fill: #fff" />
      <path d="M35.46,337a3.23,3.23,0,0,1-.53.21,2.6,2.6,0,0,1-.65.09c-.89,0-1.34-.49-1.34-1.48v-1.59h-.56V334L34,332.08h.14v1.19h1.18v1H34.18v1.28a1.73,1.73,0,0,0,0,.36.39.39,0,0,0,.13.23.55.55,0,0,0,.34.09,1.76,1.76,0,0,0,.78-.28Z" transform="translate(0)" style="fill: #fff" />
    </g>
    <g id="pips_-_fewest" data-name="pips - fewest">
      <g style="clip-path: url(#clip-path)">
        <g style="clip-path: url(#clip-path)">
          <path d="M34.62,36.08l.71-1.24a13.86,13.86,0,0,0-5.77-1.54v1.43a12.39,12.39,0,0,1,5.06,1.35" transform="translate(0)" />
          <path d="M39.41,40.41l1.24-.71a14,14,0,0,0-4.23-4.22l-.71,1.23a12.55,12.55,0,0,1,3.7,3.7" transform="translate(0)" />
          <path d="M22.14,36.71l-.71-1.23A14.07,14.07,0,0,0,17.2,39.7l1.24.71a12.67,12.67,0,0,1,3.7-3.7" transform="translate(0)" />
          <path d="M41.4,46.57h1.43a13.83,13.83,0,0,0-1.55-5.77l-1.23.71a12.47,12.47,0,0,1,1.35,5.06" transform="translate(0)" />
          <path d="M28.29,34.73V33.3a13.86,13.86,0,0,0-5.77,1.54l.71,1.24a12.39,12.39,0,0,1,5.06-1.35" transform="translate(0)" />
          <path d="M18.44,54l-1.24.71a14,14,0,0,0,4.23,4.22l.71-1.23a12.55,12.55,0,0,1-3.7-3.7" transform="translate(0)" />
          <path d="M35.71,57.69l.71,1.23a14,14,0,0,0,4.23-4.22L39.41,54a12.55,12.55,0,0,1-3.7,3.7" transform="translate(0)" />
          <path d="M41.4,47.83a12.47,12.47,0,0,1-1.35,5.06l1.23.71a13.83,13.83,0,0,0,1.55-5.77Z" transform="translate(0)" />
          <path d="M16.45,47.83H15a13.83,13.83,0,0,0,1.55,5.77l1.23-.71a12.47,12.47,0,0,1-1.35-5.06" transform="translate(0)" />
          <path d="M17.8,41.51l-1.23-.71A13.83,13.83,0,0,0,15,46.57h1.43a12.47,12.47,0,0,1,1.35-5.06" transform="translate(0)" />
        </g>
      </g>
    </g>
    <g>
      <path d="M23.83,67.16H21.36V69.9h-1.8V63.13h4.27v1.36H21.36V65.8h2.47Z" transform="translate(0)" />
      <path d="M29,69.65l-.63.25a2.31,2.31,0,0,1-.69.09.76.76,0,0,1-.54-.15.89.89,0,0,1-.21-.38,2.4,2.4,0,0,1-.56.38,1.81,1.81,0,0,1-.8.15,1.4,1.4,0,0,1-.77-.19,1,1,0,0,1-.41-.47,1.52,1.52,0,0,1-.12-.59,1.29,1.29,0,0,1,.21-.76,1.6,1.6,0,0,1,.54-.49,6.56,6.56,0,0,1,.92-.4l.48-.17.25-.1.17-.09a1,1,0,0,0-.13-.56c-.08-.14-.27-.21-.56-.21a1.94,1.94,0,0,0-.94.25,3.27,3.27,0,0,0-.79.66V65.52a3,3,0,0,1,.62-.38,3,3,0,0,1,.7-.22,3.72,3.72,0,0,1,.74-.08,2.12,2.12,0,0,1,1.43.42,1.44,1.44,0,0,1,.48,1.15v1.92a1.44,1.44,0,0,0,0,.41.17.17,0,0,0,.17.13,1,1,0,0,0,.4-.14Zm-2.16-1V67.52A4.06,4.06,0,0,0,26,68a.67.67,0,0,0-.25.55.54.54,0,0,0,.12.38.39.39,0,0,0,.3.13.54.54,0,0,0,.31-.1A2.22,2.22,0,0,0,26.81,68.7Z" transform="translate(0)" />
      <path d="M33.73,69.9H32.18v-.45a2.62,2.62,0,0,1-.52.39,1.6,1.6,0,0,1-.76.15,1.81,1.81,0,0,1-.93-.27,2,2,0,0,1-.76-.84,3,3,0,0,1-.3-1.43,3.54,3.54,0,0,1,.23-1.27,2.16,2.16,0,0,1,.7-1A1.9,1.9,0,0,1,31,64.84a1.77,1.77,0,0,1,1.17.38V63.13h1.55Zm-1.55-1.58v-1.9a4.55,4.55,0,0,0-.43-.24.8.8,0,0,0-.36-.08.72.72,0,0,0-.6.35,1.63,1.63,0,0,0-.25,1,1.47,1.47,0,0,0,.26,1,.76.76,0,0,0,.59.3.83.83,0,0,0,.45-.1A2,2,0,0,0,32.18,68.32Z" transform="translate(0)" />
      <path d="M38.84,67.84H35.76a1.27,1.27,0,0,0,1.24,1,3.68,3.68,0,0,0,1.73-.5v1.09a4.19,4.19,0,0,1-.82.37,4.29,4.29,0,0,1-1.24.16,2.6,2.6,0,0,1-1.37-.34,2.18,2.18,0,0,1-.85-.93,3,3,0,0,1-.28-1.33,2.93,2.93,0,0,1,.28-1.31,2.08,2.08,0,0,1,.85-.91,2.7,2.7,0,0,1,1.37-.33,2.22,2.22,0,0,1,1,.26,2,2,0,0,1,.82.86,3.22,3.22,0,0,1,.32,1.53ZM37.39,67a1.25,1.25,0,0,0-.21-.76.7.7,0,0,0-.6-.29.79.79,0,0,0-.63.29,1.23,1.23,0,0,0-.23.76Z" transform="translate(0)" />
    </g>
    <g>
      <path d="M34.54,6.76l-5.53,7v-6a1.27,1.27,0,0,0-.64-1.17.89.89,0,0,0-1.13.29L20,16.13a1.49,1.49,0,0,0,0,1.79.9.9,0,0,0,1.46,0l5.5-7v6a1.29,1.29,0,0,0,.64,1.18.92.92,0,0,0,1.14-.3l5.53-7v6.15a1.05,1.05,0,1,0,2.06,0V7.64a1.28,1.28,0,0,0-.65-1.18A.91.91,0,0,0,34.54,6.76Z" transform="translate(0)" style="stroke: #000;stroke-width: 0.6000000000000001px" />
      <path d="M20,6.68l-4.81,6.13a1.47,1.47,0,0,0,0,1.79.9.9,0,0,0,1.46,0l3.05-3.87V17a1.17,1.17,0,0,0,1,1.26,1.17,1.17,0,0,0,1-1.26V7.56a1.29,1.29,0,0,0-.65-1.17A.91.91,0,0,0,20,6.68Z" transform="translate(0)" style="stroke: #000;stroke-width: 0.6000000000000001px" />
      <path d="M42.91,11.2a1.05,1.05,0,0,0-.95-.77h-2.1l1.53-1.95s.8-1.17.1-1.82a1.27,1.27,0,0,0-1.58.06l-3.23,4.1a1.45,1.45,0,0,0-.2,1.37,1,1,0,0,0,1,.78h2.1L37,16.14s-1,1.13-.27,1.89,1.75-.14,1.75-.14l4.18-5.31A1.5,1.5,0,0,0,42.91,11.2Z" transform="translate(0)" style="stroke: #000;stroke-width: 0.6000000000000001px" />
    </g>
  </g>
  <g /></svg>