<svg xmlns="http://www.w3.org/2000/svg" width="40.73mm" height="130.6mm" viewBox="0 0 115.45 370.19">
  <defs>
    <clipPath id="clip-path">
      <rect x="17.85" y="112.93" width="27.8" height="25.62" style="fill: none" />
    </clipPath>
    <clipPath id="clip-path-3">
      <rect x="69.38" y="112.93" width="27.8" height="25.62" style="fill: none" />
    </clipPath>
    <clipPath id="clip-path-5">
      <rect x="17.85" y="156.07" width="27.8" height="25.62" style="fill: none" />
    </clipPath>
    <clipPath id="clip-path-7">
      <rect x="69.38" y="156.07" width="27.8" height="25.62" style="fill: none" />
    </clipPath>
    <clipPath id="clip-path-9">
      <rect x="17.85" y="26.65" width="27.8" height="25.62" style="fill: none" />
    </clipPath>
    <clipPath id="clip-path-11">
      <rect x="69.38" y="26.65" width="27.8" height="25.62" style="fill: none" />
    </clipPath>
    <clipPath id="clip-path-13">
      <rect x="17.85" y="69.79" width="27.8" height="25.62" style="fill: none" />
    </clipPath>
    <clipPath id="clip-path-15">
      <rect x="69.38" y="69.79" width="27.8" height="25.62" style="fill: none" />
    </clipPath>
  </defs>
  <g id="faceplate">
    <rect x="0.13" y="0.13" width="115.2" height="364.25" style="fill: #ededed;stroke: #9d9d9e;stroke-miterlimit: 10;stroke-width: 0.25px" />
    <g>
      <path d="M55.74,354.41H53.21v3H51.37V350h4.37v1.5H53.21v1.44h2.53Z" />
      <path d="M64.08,357.43H62.24v-4.32l-1.67,2.5h-.14l-1.67-2.5v4.32H57V350h1.67l1.87,2.8,1.89-2.8h1.67Z" />
    </g>
    <path d="M100.47,316.34V293.12H78.94c-7.5,0-13.57,7-13.57,15.71v32.94H94.83a5.66,5.66,0,0,0,5.64-5.67V316.34Z" />
    <path d="M28.36,341.28H86.71c7.35,0,13.31-7,13.31-15.67V218l-.07-6.21c-.29-8.36-6.11-15-13.28-15H28.32c-7.16,0-13,6.67-13.28,15L15,218v46.49L15,325.61" style="fill: none;stroke: #000;stroke-miterlimit: 10" />
    <path d="M15,324.65v11a5.68,5.68,0,0,0,5.67,5.67H33.64" style="fill: none;stroke: #000;stroke-miterlimit: 10" />
    <g>
      <path d="M75.46,234.42l-2.14,5.48h-.95l-2.11-5.48h1.5l1.09,3.12L74,234.42Z" />
      <path d="M78.86,234.34l-2.59,5.56h-.93l2.59-5.56Z" />
      <path d="M84.37,237.12a3.21,3.21,0,0,1-.3,1.39,2.39,2.39,0,0,1-.92,1,3.11,3.11,0,0,1-3,0,2.36,2.36,0,0,1-.9-1,3.14,3.14,0,0,1-.3-1.36,3.33,3.33,0,0,1,.29-1.37,2.42,2.42,0,0,1,.91-1,2.75,2.75,0,0,1,1.5-.39,3.14,3.14,0,0,1,1.18.22,2.32,2.32,0,0,1,.85.61,2.55,2.55,0,0,1,.5.88A3.2,3.2,0,0,1,84.37,237.12Zm-1.46,0a2,2,0,0,0-.08-.56,1.07,1.07,0,0,0-.24-.43.87.87,0,0,0-.39-.29,1.25,1.25,0,0,0-.53-.11,1.14,1.14,0,0,0-.91.39,1.47,1.47,0,0,0-.33,1,1.52,1.52,0,0,0,.33,1,1.18,1.18,0,0,0,.91.38,1.2,1.2,0,0,0,.67-.18,1.14,1.14,0,0,0,.43-.49A1.81,1.81,0,0,0,82.91,237.12Z" />
      <path d="M87.78,239.65l-.32.12a2.23,2.23,0,0,1-.39.09,2.29,2.29,0,0,1-.47,0,1.93,1.93,0,0,1-1-.22,1.64,1.64,0,0,1-.61-.55,2.07,2.07,0,0,1-.3-.69,2.37,2.37,0,0,1,0-1.22,2.1,2.1,0,0,1,.29-.67,1.81,1.81,0,0,1,.61-.55,2.09,2.09,0,0,1,1-.22,2.19,2.19,0,0,1,.63.07,3.6,3.6,0,0,1,.5.16v1.11a3,3,0,0,0-1-.22.85.85,0,0,0-.58.23.88.88,0,0,0-.26.7,1,1,0,0,0,.13.53.76.76,0,0,0,.32.32.81.81,0,0,0,.39.1,1.77,1.77,0,0,0,.43-.06c.15,0,.35-.1.57-.18Z" />
      <path d="M90.86,239.6a2.37,2.37,0,0,1-.53.2,2.14,2.14,0,0,1-.65.1c-.89,0-1.33-.49-1.33-1.48v-1.59h-.56v-.25l1.66-1.92h.14v1.19h1.18v1H89.59v1.27a1.84,1.84,0,0,0,0,.36.37.37,0,0,0,.14.23.51.51,0,0,0,.34.09,1.65,1.65,0,0,0,.77-.28Z" />
      <path d="M96.47,238.26a1.64,1.64,0,0,1-.23.87,1.53,1.53,0,0,1-.64.57,2.16,2.16,0,0,1-.94.2l-.36,0a5.41,5.41,0,0,1-.57-.12,4,4,0,0,1-.74-.29v-1.33a4.4,4.4,0,0,0,.71.42,1.58,1.58,0,0,0,.74.17c.25,0,.41,0,.48-.14a.45.45,0,0,0,.11-.26.46.46,0,0,0-.19-.37,2.5,2.5,0,0,0-.54-.31,3.94,3.94,0,0,1-.68-.4,1.89,1.89,0,0,1-.49-.56,1.61,1.61,0,0,1-.18-.78,1.7,1.7,0,0,1,.18-.79,1.39,1.39,0,0,1,.58-.57,2,2,0,0,1,1-.21,2.89,2.89,0,0,1,.74.09,2.77,2.77,0,0,1,.56.2,2.08,2.08,0,0,1,.3.17v1.27a4.31,4.31,0,0,0-.65-.43,1.71,1.71,0,0,0-.77-.18.54.54,0,0,0-.39.11.4.4,0,0,0-.12.29.38.38,0,0,0,.12.28,1.86,1.86,0,0,0,.43.28,10.06,10.06,0,0,1,.88.53,2,2,0,0,1,.52.54A1.51,1.51,0,0,1,96.47,238.26Z" />
    </g>
    <g>
      <path d="M75.94,288H74.5v-5.42h1.44Z" />
      <path d="M80.39,288H79.16v-2.15a1.61,1.61,0,0,0-.1-.57.39.39,0,0,0-.41-.24.6.6,0,0,0-.27.06.68.68,0,0,0-.21.17,1.25,1.25,0,0,0-.15.19l-.13.2V288H76.66v-4h1.23v.57a1.87,1.87,0,0,1,.59-.5,1.55,1.55,0,0,1,.65-.14q1.26,0,1.26,1.71Z" />
      <path d="M84.56,288H83.31v-.36a2,2,0,0,1-.41.31,1.28,1.28,0,0,1-.6.12,1.39,1.39,0,0,1-.75-.22,1.54,1.54,0,0,1-.61-.67,2.54,2.54,0,0,1-.23-1.14,3.07,3.07,0,0,1,.17-1,1.7,1.7,0,0,1,.56-.77,1.68,1.68,0,0,1,1.5-.21,1.32,1.32,0,0,1,.37.21v-1.67h1.25Zm-1.25-1.27v-1.52L83,285a.68.68,0,0,0-.29-.06.57.57,0,0,0-.49.28A1.32,1.32,0,0,0,82,286a1.2,1.2,0,0,0,.2.77.63.63,0,0,0,.48.24.64.64,0,0,0,.36-.08A1.21,1.21,0,0,0,83.31,286.69Z" />
      <path d="M88.65,286.31H86.18a1,1,0,0,0,.36.59.93.93,0,0,0,.64.23,3,3,0,0,0,1.38-.4v.88a4.18,4.18,0,0,1-.66.29,3.39,3.39,0,0,1-1,.13,2,2,0,0,1-1.1-.28,1.71,1.71,0,0,1-.67-.74,2.43,2.43,0,0,1-.23-1.06,2.38,2.38,0,0,1,.23-1.05,1.69,1.69,0,0,1,.67-.73,2.24,2.24,0,0,1,1.1-.26,1.76,1.76,0,0,1,.83.21,1.65,1.65,0,0,1,.65.68,2.61,2.61,0,0,1,.26,1.23Zm-1.16-.7a1,1,0,0,0-.17-.61.56.56,0,0,0-.48-.23.61.61,0,0,0-.5.24.88.88,0,0,0-.19.6Z" />
      <path d="M92.87,288H91.35l-.68-1.13L90,288H88.64L90,286l-1.38-2h1.53l.64,1.08.65-1.08h1.36l-1.32,1.89Z" />
    </g>
    <g>
      <path d="M82.55,332.5a3.12,3.12,0,0,1-.31,1.4,2.4,2.4,0,0,1-.91,1,2.79,2.79,0,0,1-1.49.37,2.71,2.71,0,0,1-1.49-.39,2.42,2.42,0,0,1-.91-1,3.19,3.19,0,0,1-.3-1.37,3.14,3.14,0,0,1,.3-1.36,2.32,2.32,0,0,1,.91-1,2.71,2.71,0,0,1,1.49-.38A2.92,2.92,0,0,1,81,330a2.33,2.33,0,0,1,.85.6,2.79,2.79,0,0,1,.51.89A3.41,3.41,0,0,1,82.55,332.5Zm-1.47,0A1.59,1.59,0,0,0,81,332a1.23,1.23,0,0,0-.23-.44,1.11,1.11,0,0,0-.39-.29,1.33,1.33,0,0,0-.54-.1,1.11,1.11,0,0,0-.9.38,1.47,1.47,0,0,0-.33,1,1.5,1.5,0,0,0,.33,1,1.14,1.14,0,0,0,.9.38,1.32,1.32,0,0,0,.68-.17,1.21,1.21,0,0,0,.42-.5A1.65,1.65,0,0,0,81.08,332.5Z" style="fill: #fff" />
      <path d="M86.64,335.21H85.41v-.56a2.18,2.18,0,0,1-.55.48,1.54,1.54,0,0,1-.7.15,1,1,0,0,1-1-.52,2.84,2.84,0,0,1-.23-1.19v-2.33h1.23v2.15a1.6,1.6,0,0,0,.1.56.39.39,0,0,0,.41.25.54.54,0,0,0,.43-.18,3.1,3.1,0,0,0,.33-.45v-2.33h1.23Z" style="fill: #fff" />
      <path d="M89.92,335a3,3,0,0,1-.54.21,2.47,2.47,0,0,1-.64.09c-.89,0-1.34-.49-1.34-1.48v-1.59h-.56V332l1.66-1.92h.14v1.19h1.18v1H88.64v1.28a3.36,3.36,0,0,0,0,.36.46.46,0,0,0,.14.23.53.53,0,0,0,.34.09,1.76,1.76,0,0,0,.78-.28Z" style="fill: #fff" />
    </g>
    <g>
      <path d="M23.58,234.42l-2.15,5.48h-.95l-2.1-5.48h1.49L21,237.54l1.12-3.12Z" />
      <path d="M27,234.34l-2.6,5.56h-.92l2.59-5.56Z" />
      <path d="M32.49,237.12a3.21,3.21,0,0,1-.3,1.39,2.45,2.45,0,0,1-.92,1,2.78,2.78,0,0,1-1.48.37,2.75,2.75,0,0,1-1.5-.39,2.38,2.38,0,0,1-.91-1,3.14,3.14,0,0,1-.29-1.36,3.18,3.18,0,0,1,.29-1.37,2.42,2.42,0,0,1,.91-1,2.75,2.75,0,0,1,1.5-.39,3.05,3.05,0,0,1,1.17.22,2.36,2.36,0,0,1,.86.61,2.55,2.55,0,0,1,.5.88A3.2,3.2,0,0,1,32.49,237.12Zm-1.46,0a2,2,0,0,0-.08-.56,1.07,1.07,0,0,0-.24-.43,1,1,0,0,0-.39-.29,1.25,1.25,0,0,0-.53-.11,1.12,1.12,0,0,0-.91.39,1.47,1.47,0,0,0-.33,1,1.52,1.52,0,0,0,.33,1,1.15,1.15,0,0,0,.91.38,1.2,1.2,0,0,0,.67-.18,1.06,1.06,0,0,0,.42-.49A1.66,1.66,0,0,0,31,237.12Z" />
      <path d="M35.9,239.65l-.33.12a1.93,1.93,0,0,1-.38.09,2.35,2.35,0,0,1-.47,0,1.91,1.91,0,0,1-1-.22,1.76,1.76,0,0,1-.62-.55,2.26,2.26,0,0,1-.29-.69,2.11,2.11,0,0,1,0-1.22,1.9,1.9,0,0,1,.29-.67,1.64,1.64,0,0,1,.61-.55,2.06,2.06,0,0,1,1-.22,2.19,2.19,0,0,1,.63.07,3.11,3.11,0,0,1,.49.16v1.11a2.85,2.85,0,0,0-.94-.22.83.83,0,0,0-.84.93,1.07,1.07,0,0,0,.12.53.84.84,0,0,0,.33.32.81.81,0,0,0,.39.1,1.76,1.76,0,0,0,.42-.06l.58-.18Z" />
      <path d="M39,239.6a2.58,2.58,0,0,1-.53.2,2.19,2.19,0,0,1-.65.1c-.89,0-1.34-.49-1.34-1.48v-1.59H35.9v-.25l1.66-1.92h.14v1.19h1.19v1H37.7v1.27a1.73,1.73,0,0,0,0,.36.36.36,0,0,0,.13.23.55.55,0,0,0,.34.09,1.64,1.64,0,0,0,.78-.28Z" />
      <path d="M45.38,236.12a2,2,0,0,1-.09.59,1.48,1.48,0,0,1-.3.53,1.35,1.35,0,0,1-.55.4,1.86,1.86,0,0,1-.81.16h-.94v2H41.25v-5.41h2.38a2,2,0,0,1,.81.15A1.47,1.47,0,0,1,45,235a1.52,1.52,0,0,1,.3.54A2.08,2.08,0,0,1,45.38,236.12Zm-1.47,0a.59.59,0,0,0-.2-.53,1.26,1.26,0,0,0-.72-.14h-.3v1.3H43a2.51,2.51,0,0,0,.55,0,.49.49,0,0,0,.28-.19A.81.81,0,0,0,43.91,236.13Z" />
    </g>
    <g>
      <path d="M31.67,288H30.24v-3.14l-1.3,1.82h-.11l-1.3-1.82V288h-1.4v-5.42h1.31l1.46,2,1.47-2h1.3Z" />
      <path d="M33.7,288H32.46v-4H33.7Zm-.1-4.9a.61.61,0,0,1-.16.42.48.48,0,0,1-.37.17.42.42,0,0,1-.26-.08.55.55,0,0,1-.19-.21.73.73,0,0,1-.07-.3.65.65,0,0,1,.16-.42.48.48,0,0,1,.36-.17.48.48,0,0,1,.37.17A.65.65,0,0,1,33.6,283.06Z" />
      <path d="M38.16,288H36.64L36,286.83,35.29,288H33.93l1.36-2-1.38-2h1.52l.65,1.08.65-1.08h1.35l-1.32,1.89Z" />
    </g>
    <g>
      <path d="M25.71,333.64a1.67,1.67,0,0,1-.23.88,1.53,1.53,0,0,1-.64.57,2.16,2.16,0,0,1-.94.19,2.43,2.43,0,0,1-.36,0,2.65,2.65,0,0,1-.57-.12,3.43,3.43,0,0,1-.74-.29v-1.32a4.4,4.4,0,0,0,.71.42,1.71,1.71,0,0,0,.74.17.61.61,0,0,0,.48-.14.47.47,0,0,0,.11-.26.44.44,0,0,0-.19-.37,2.14,2.14,0,0,0-.54-.31,4,4,0,0,1-.68-.41,1.85,1.85,0,0,1-.49-.55,1.65,1.65,0,0,1-.18-.79,1.73,1.73,0,0,1,.18-.79,1.37,1.37,0,0,1,.58-.56,2,2,0,0,1,.95-.21,2.9,2.9,0,0,1,.74.08,3.56,3.56,0,0,1,.56.2l.3.17v1.27a3.62,3.62,0,0,0-.65-.42,1.6,1.6,0,0,0-.77-.19.54.54,0,0,0-.39.12.39.39,0,0,0,0,.56,1.82,1.82,0,0,0,.43.29,6.74,6.74,0,0,1,.88.53,1.78,1.78,0,0,1,.52.54A1.47,1.47,0,0,1,25.71,333.64Z" />
      <path d="M29.93,335.21H28.7V333a1.27,1.27,0,0,0-.11-.52.39.39,0,0,0-.4-.24.58.58,0,0,0-.42.18,2.93,2.93,0,0,0-.34.45v2.33H26.2V329.8h1.23v2a1.81,1.81,0,0,1,.61-.51,1.51,1.51,0,0,1,.63-.13c.84,0,1.26.53,1.26,1.6Z" />
      <path d="M34,335a4.73,4.73,0,0,1-.5.2,1.79,1.79,0,0,1-.55.07.61.61,0,0,1-.43-.12.74.74,0,0,1-.17-.3,1.94,1.94,0,0,1-.44.31,1.67,1.67,0,0,1-.64.11,1.14,1.14,0,0,1-.62-.15.76.76,0,0,1-.33-.38,1.23,1.23,0,0,1-.09-.47,1,1,0,0,1,.16-.6,1.31,1.31,0,0,1,.44-.4,5,5,0,0,1,.73-.31l.39-.14.19-.08.14-.07a.83.83,0,0,0-.1-.45.5.5,0,0,0-.45-.17,1.5,1.5,0,0,0-.75.2,2.86,2.86,0,0,0-.64.53v-1.08a2.6,2.6,0,0,1,.5-.31,2.26,2.26,0,0,1,.56-.17,3,3,0,0,1,.59-.06,1.73,1.73,0,0,1,1.15.33,1.17,1.17,0,0,1,.38.92V334a.89.89,0,0,0,0,.32.13.13,0,0,0,.13.11.72.72,0,0,0,.31-.11Zm-1.72-.76v-.94a3.3,3.3,0,0,0-.64.37.5.5,0,0,0-.2.44.4.4,0,0,0,.1.3.31.31,0,0,0,.23.11.52.52,0,0,0,.26-.08Z" />
      <path d="M38,333.2a2.86,2.86,0,0,1-.1.77,2,2,0,0,1-.3.67,1.5,1.5,0,0,1-.53.47,1.47,1.47,0,0,1-.74.17,1.34,1.34,0,0,1-.54-.08,1.75,1.75,0,0,1-.4-.22v2H34.12v-5.78h1.24v.36a1.7,1.7,0,0,1,.41-.31,1.32,1.32,0,0,1,.61-.12,1.47,1.47,0,0,1,.75.21,1.6,1.6,0,0,1,.61.67A2.59,2.59,0,0,1,38,333.2Zm-1.3,0a1.37,1.37,0,0,0-.1-.58.68.68,0,0,0-.26-.33.55.55,0,0,0-.32-.1.74.74,0,0,0-.36.08,1.05,1.05,0,0,0-.27.2V334l.14.09.15.08a.44.44,0,0,0,.16.06.48.48,0,0,0,.18,0,.62.62,0,0,0,.49-.28A1.35,1.35,0,0,0,36.67,333.23Z" />
      <path d="M41.92,333.57H39.46a1.06,1.06,0,0,0,.35.59,1,1,0,0,0,.64.23,2.93,2.93,0,0,0,1.38-.4v.87a3,3,0,0,1-.65.29,3.08,3.08,0,0,1-1,.13,2.11,2.11,0,0,1-1.1-.27,1.73,1.73,0,0,1-.68-.74,2.42,2.42,0,0,1-.22-1.06,2.38,2.38,0,0,1,.22-1,1.71,1.71,0,0,1,.68-.73,2.11,2.11,0,0,1,1.1-.26,1.7,1.7,0,0,1,.82.21,1.5,1.5,0,0,1,.66.68,2.57,2.57,0,0,1,.25,1.22Zm-1.16-.7a1,1,0,0,0-.16-.61.59.59,0,0,0-.48-.23.61.61,0,0,0-.5.23.93.93,0,0,0-.2.61Z" />
    </g>
    <g>
      <g id="pips_-_fewest" data-name="pips - fewest">
        <g style="clip-path: url(#clip-path)">
          <g style="clip-path: url(#clip-path)">
            <path d="M37.44,115.71l.71-1.24a13.82,13.82,0,0,0-5.77-1.54v1.43a12.31,12.31,0,0,1,5.06,1.35" />
            <path d="M42.24,120l1.23-.71a13.92,13.92,0,0,0-4.22-4.22l-.71,1.23a12.55,12.55,0,0,1,3.7,3.7" />
            <path d="M25,116.34l-.71-1.23A13.92,13.92,0,0,0,20,119.33l1.23.71a12.55,12.55,0,0,1,3.7-3.7" />
            <path d="M44.22,126.2h1.43a13.82,13.82,0,0,0-1.54-5.77l-1.24.71a12.31,12.31,0,0,1,1.35,5.06" />
            <path d="M31.12,114.36v-1.43a13.82,13.82,0,0,0-5.77,1.54l.71,1.24a12.31,12.31,0,0,1,5.06-1.35" />
            <path d="M21.26,133.62l-1.23.71a13.92,13.92,0,0,0,4.22,4.22l.71-1.23a12.55,12.55,0,0,1-3.7-3.7" />
            <path d="M38.54,137.32l.71,1.23a13.92,13.92,0,0,0,4.22-4.22l-1.23-.71a12.55,12.55,0,0,1-3.7,3.7" />
            <path d="M44.22,127.46a12.31,12.31,0,0,1-1.35,5.06l1.24.71a13.82,13.82,0,0,0,1.54-5.77Z" />
            <path d="M19.28,127.46H17.85a13.82,13.82,0,0,0,1.54,5.77l1.24-.71a12.31,12.31,0,0,1-1.35-5.06" />
            <path d="M20.63,121.14l-1.24-.71a13.82,13.82,0,0,0-1.54,5.77h1.43a12.31,12.31,0,0,1,1.35-5.06" />
          </g>
        </g>
      </g>
      <g>
        <path d="M24.66,146.51H23.12l-.38-1a4.47,4.47,0,0,0-.37-.78.91.91,0,0,0-.32-.31,1.15,1.15,0,0,0-.4-.07h-.17v2.12H20.05v-5.42h2.44a1.55,1.55,0,0,1,1,.28A1.66,1.66,0,0,1,24,142a1.9,1.9,0,0,1,.16.74,1.48,1.48,0,0,1-.14.7,1.4,1.4,0,0,1-.29.41,2.38,2.38,0,0,1-.35.24,1.87,1.87,0,0,1,.38.36,4.82,4.82,0,0,1,.41.85Zm-1.95-3.71a.57.57,0,0,0-.22-.52,1.25,1.25,0,0,0-.7-.15h-.31v1.31h.31a1.47,1.47,0,0,0,.72-.13A.58.58,0,0,0,22.71,142.8Z" />
        <path d="M28.46,146.31c-.18.08-.35.14-.5.19a1.84,1.84,0,0,1-.56.08.54.54,0,0,1-.42-.13.64.64,0,0,1-.17-.3,1.9,1.9,0,0,1-.45.31,1.43,1.43,0,0,1-.64.12,1.1,1.1,0,0,1-.61-.15.8.8,0,0,1-.33-.38,1.1,1.1,0,0,1-.1-.47,1.13,1.13,0,0,1,.16-.61,1.28,1.28,0,0,1,.44-.39,6,6,0,0,1,.73-.32l.39-.14.2-.08.14-.07a.83.83,0,0,0-.11-.45.48.48,0,0,0-.44-.17,1.48,1.48,0,0,0-.76.21,2.57,2.57,0,0,0-.63.52V143a2.29,2.29,0,0,1,.5-.3,2.62,2.62,0,0,1,.56-.18,2.88,2.88,0,0,1,.59-.06,1.7,1.7,0,0,1,1.14.33,1.15,1.15,0,0,1,.38.92v1.54a1.19,1.19,0,0,0,0,.32.13.13,0,0,0,.13.11.76.76,0,0,0,.32-.11Zm-1.72-.76v-1a3.44,3.44,0,0,0-.65.37.54.54,0,0,0-.2.44.4.4,0,0,0,.1.3.34.34,0,0,0,.24.11.49.49,0,0,0,.25-.08Z" />
        <path d="M31.33,146.28a3.14,3.14,0,0,1-.54.2,2.5,2.5,0,0,1-.64.1c-.89,0-1.34-.5-1.34-1.49v-1.58h-.56v-.25l1.66-1.92h.14v1.19h1.18v1H30.05v1.27a3.21,3.21,0,0,0,0,.36.43.43,0,0,0,.14.23.55.55,0,0,0,.34.09,1.64,1.64,0,0,0,.78-.28Z" />
        <path d="M32.89,146.51H31.65v-4h1.24Zm-.1-4.9a.6.6,0,0,1-.15.42.51.51,0,0,1-.37.17.43.43,0,0,1-.27-.08.53.53,0,0,1-.18-.21.6.6,0,0,1-.07-.3.64.64,0,0,1,.15-.42.48.48,0,0,1,.37-.17.51.51,0,0,1,.37.17A.64.64,0,0,1,32.79,141.61Z" />
        <path d="M37.33,144.51a2.39,2.39,0,0,1-.23,1.06,1.73,1.73,0,0,1-.68.74,2.11,2.11,0,0,1-1.1.27,2.09,2.09,0,0,1-1.1-.27,1.67,1.67,0,0,1-.68-.74,2.39,2.39,0,0,1-.23-1.06,2.3,2.3,0,0,1,.13-.81,1.77,1.77,0,0,1,.38-.65,1.67,1.67,0,0,1,.63-.44,2.6,2.6,0,0,1,1.74,0,1.62,1.62,0,0,1,.63.44,1.88,1.88,0,0,1,.38.64A2.66,2.66,0,0,1,37.33,144.51Zm-1.31,0a1.33,1.33,0,0,0-.18-.74.65.65,0,0,0-1,0,1.33,1.33,0,0,0-.18.74,1.36,1.36,0,0,0,.18.75.64.64,0,0,0,1,0A1.34,1.34,0,0,0,36,144.51Z" />
        <path d="M44,146.1a3,3,0,0,1-.6.28,3.6,3.6,0,0,1-.63.15,4.51,4.51,0,0,1-.65.05,3,3,0,0,1-1.11-.2,2.4,2.4,0,0,1-.86-.57,2.58,2.58,0,0,1-.54-.9,3.61,3.61,0,0,1,0-2.34,2.26,2.26,0,0,1,.6-.87,2.55,2.55,0,0,1,.87-.52,3.22,3.22,0,0,1,1-.16,4.89,4.89,0,0,1,1.84.41v1.44a4.32,4.32,0,0,0-.7-.42,1.86,1.86,0,0,0-.81-.17,1.73,1.73,0,0,0-.78.19,1.5,1.5,0,0,0-.58.54,1.53,1.53,0,0,0-.22.81,1.61,1.61,0,0,0,.19.75,1.4,1.4,0,0,0,.54.54,1.44,1.44,0,0,0,.77.21,2.39,2.39,0,0,0,.66-.1,3.29,3.29,0,0,0,.52-.21,4.46,4.46,0,0,0,.43-.28Z" />
      </g>
      <g id="pips_-_fewest-2" data-name="pips - fewest">
        <g style="clip-path: url(#clip-path-3)">
          <g style="clip-path: url(#clip-path-3)">
            <path d="M89,115.71l.72-1.24a13.9,13.9,0,0,0-5.77-1.54v1.43a12.31,12.31,0,0,1,5,1.35" />
            <path d="M93.77,120l1.24-.71a14,14,0,0,0-4.23-4.22l-.71,1.23a12.55,12.55,0,0,1,3.7,3.7" />
            <path d="M76.5,116.34l-.72-1.23a14,14,0,0,0-4.22,4.22l1.23.71a12.58,12.58,0,0,1,3.71-3.7" />
            <path d="M95.76,126.2h1.42a13.82,13.82,0,0,0-1.54-5.77l-1.23.71a12.63,12.63,0,0,1,1.35,5.06" />
            <path d="M82.65,114.36v-1.43a13.86,13.86,0,0,0-5.77,1.54l.71,1.24a12.35,12.35,0,0,1,5.06-1.35" />
            <path d="M72.79,133.62l-1.23.71a14,14,0,0,0,4.22,4.22l.72-1.23a12.58,12.58,0,0,1-3.71-3.7" />
            <path d="M90.07,137.32l.71,1.23A14,14,0,0,0,95,134.33l-1.24-.71a12.55,12.55,0,0,1-3.7,3.7" />
            <path d="M95.76,127.46a12.63,12.63,0,0,1-1.35,5.06l1.23.71a13.82,13.82,0,0,0,1.54-5.77Z" />
            <path d="M70.81,127.46H69.38a13.68,13.68,0,0,0,1.55,5.77l1.23-.71a12.31,12.31,0,0,1-1.35-5.06" />
            <path d="M72.16,121.14l-1.23-.71a13.68,13.68,0,0,0-1.55,5.77h1.43a12.31,12.31,0,0,1,1.35-5.06" />
          </g>
        </g>
      </g>
      <g>
        <path d="M76.62,146.51H75.08l-.38-1a4.47,4.47,0,0,0-.37-.78.91.91,0,0,0-.32-.31,1.1,1.1,0,0,0-.4-.07h-.17v2.12H72v-5.42h2.44a1.55,1.55,0,0,1,1,.28A1.66,1.66,0,0,1,76,142a1.9,1.9,0,0,1,.16.74,1.48,1.48,0,0,1-.14.7,1.4,1.4,0,0,1-.29.41,2.38,2.38,0,0,1-.35.24,1.87,1.87,0,0,1,.38.36,4.82,4.82,0,0,1,.41.85Zm-2-3.71a.57.57,0,0,0-.22-.52,1.25,1.25,0,0,0-.7-.15h-.31v1.31h.31a1.47,1.47,0,0,0,.72-.13A.58.58,0,0,0,74.67,142.8Z" />
        <path d="M80.42,146.31c-.18.08-.35.14-.5.19a1.84,1.84,0,0,1-.56.08.54.54,0,0,1-.42-.13.64.64,0,0,1-.17-.3,1.72,1.72,0,0,1-.45.31,1.43,1.43,0,0,1-.64.12,1.1,1.1,0,0,1-.61-.15.8.8,0,0,1-.33-.38,1.1,1.1,0,0,1-.1-.47,1.13,1.13,0,0,1,.16-.61,1.28,1.28,0,0,1,.44-.39,6,6,0,0,1,.73-.32l.39-.14.2-.08.14-.07a.83.83,0,0,0-.11-.45c-.06-.11-.21-.17-.44-.17a1.48,1.48,0,0,0-.76.21,2.57,2.57,0,0,0-.63.52V143a2.29,2.29,0,0,1,.5-.3,2.62,2.62,0,0,1,.56-.18,2.88,2.88,0,0,1,.59-.06,1.7,1.7,0,0,1,1.14.33,1.15,1.15,0,0,1,.38.92v1.54a1.19,1.19,0,0,0,0,.32.13.13,0,0,0,.13.11.76.76,0,0,0,.32-.11Zm-1.72-.76v-1a3.44,3.44,0,0,0-.65.37.54.54,0,0,0-.2.44.4.4,0,0,0,.1.3.34.34,0,0,0,.24.11.49.49,0,0,0,.25-.08Z" />
        <path d="M83.29,146.28a3.14,3.14,0,0,1-.54.2,2.5,2.5,0,0,1-.64.1c-.89,0-1.34-.5-1.34-1.49v-1.58h-.56v-.25l1.66-1.92H82v1.19h1.18v1H82v1.27a1.73,1.73,0,0,0,0,.36.36.36,0,0,0,.13.23.55.55,0,0,0,.34.09,1.64,1.64,0,0,0,.78-.28Z" />
        <path d="M84.85,146.51H83.61v-4h1.24Zm-.1-4.9a.6.6,0,0,1-.15.42.51.51,0,0,1-.37.17.43.43,0,0,1-.27-.08.53.53,0,0,1-.18-.21.6.6,0,0,1-.07-.3.64.64,0,0,1,.15-.42.48.48,0,0,1,.37-.17.51.51,0,0,1,.37.17A.64.64,0,0,1,84.75,141.61Z" />
        <path d="M89.29,144.51a2.39,2.39,0,0,1-.23,1.06,1.73,1.73,0,0,1-.68.74,2.11,2.11,0,0,1-1.1.27,2.09,2.09,0,0,1-1.1-.27,1.67,1.67,0,0,1-.68-.74,2.39,2.39,0,0,1-.23-1.06,2.55,2.55,0,0,1,.13-.81,1.77,1.77,0,0,1,.38-.65,1.67,1.67,0,0,1,.63-.44,2.6,2.6,0,0,1,1.74,0,1.62,1.62,0,0,1,.63.44,1.88,1.88,0,0,1,.38.64A2.66,2.66,0,0,1,89.29,144.51Zm-1.31,0a1.33,1.33,0,0,0-.18-.74.65.65,0,0,0-1,0,1.33,1.33,0,0,0-.18.74,1.36,1.36,0,0,0,.18.75.64.64,0,0,0,1,0A1.34,1.34,0,0,0,88,144.51Z" />
        <path d="M95.07,144.32h-2v2.19H91.66v-5.42h3.41v1.09h-2v1h2Z" />
      </g>
      <g id="pips_-_fewest-3" data-name="pips - fewest">
        <g style="clip-path: url(#clip-path-5)">
          <g style="clip-path: url(#clip-path-5)">
            <path d="M37.44,158.85l.71-1.24a13.82,13.82,0,0,0-5.77-1.54v1.43a12.31,12.31,0,0,1,5.06,1.35" />
            <path d="M42.24,163.18l1.23-.71a14,14,0,0,0-4.22-4.22l-.71,1.23a12.67,12.67,0,0,1,3.7,3.7" />
            <path d="M25,159.48l-.71-1.23A14,14,0,0,0,20,162.47l1.23.72a12.58,12.58,0,0,1,3.7-3.71" />
            <path d="M44.22,169.34h1.43a13.82,13.82,0,0,0-1.54-5.77l-1.24.71a12.31,12.31,0,0,1,1.35,5.06" />
            <path d="M31.12,157.5v-1.43a13.68,13.68,0,0,0-5.77,1.55l.71,1.23a12.31,12.31,0,0,1,5.06-1.35" />
            <path d="M21.26,176.76l-1.23.71a13.92,13.92,0,0,0,4.22,4.22l.71-1.23a12.55,12.55,0,0,1-3.7-3.7" />
            <path d="M38.54,180.46l.71,1.23a13.81,13.81,0,0,0,4.22-4.22l-1.23-.71a12.55,12.55,0,0,1-3.7,3.7" />
            <path d="M44.22,170.6a12.31,12.31,0,0,1-1.35,5.06l1.24.71a13.82,13.82,0,0,0,1.54-5.77Z" />
            <path d="M19.28,170.6H17.85a13.82,13.82,0,0,0,1.54,5.77l1.24-.71a12.31,12.31,0,0,1-1.35-5.06" />
            <path d="M20.63,164.28l-1.24-.71a13.82,13.82,0,0,0-1.54,5.77h1.43a12.31,12.31,0,0,1,1.35-5.06" />
          </g>
        </g>
      </g>
      <g>
        <path d="M25.6,188.07a1.64,1.64,0,0,1-.22.88,1.53,1.53,0,0,1-.64.57,2.2,2.2,0,0,1-.94.2l-.36,0a4.93,4.93,0,0,1-.57-.12,4.42,4.42,0,0,1-.75-.29V188a5.47,5.47,0,0,0,.71.42,1.79,1.79,0,0,0,.75.17.61.61,0,0,0,.48-.14.45.45,0,0,0,.11-.26.48.48,0,0,0-.19-.37,2.5,2.5,0,0,0-.54-.31,3.81,3.81,0,0,1-.69-.41,1.83,1.83,0,0,1-.48-.55,1.61,1.61,0,0,1-.19-.78,1.75,1.75,0,0,1,.19-.8,1.43,1.43,0,0,1,.58-.56,2,2,0,0,1,.95-.21,2.94,2.94,0,0,1,.74.09,3.63,3.63,0,0,1,.56.19l.3.18v1.27a4.31,4.31,0,0,0-.65-.43,1.72,1.72,0,0,0-.77-.19.54.54,0,0,0-.39.12.38.38,0,0,0-.12.29.38.38,0,0,0,.12.28,2.27,2.27,0,0,0,.43.28,8.07,8.07,0,0,1,.88.53,1.9,1.9,0,0,1,.52.54A1.47,1.47,0,0,1,25.6,188.07Z" />
        <path d="M29.83,189.65H28.59v-2.06a.43.43,0,0,1,0-.05v-.09a1.32,1.32,0,0,0-.11-.53.4.4,0,0,0-.4-.23.61.61,0,0,0-.42.17,2.4,2.4,0,0,0-.34.45v2.34H26.1v-5.42h1.23v2a1.77,1.77,0,0,1,.61-.5,1.52,1.52,0,0,1,.63-.14c.84,0,1.26.54,1.26,1.61Z" />
        <path d="M33.92,189.45c-.18.08-.35.14-.5.19a1.77,1.77,0,0,1-.55.08.55.55,0,0,1-.43-.13.66.66,0,0,1-.17-.29,1.9,1.9,0,0,1-.44.3,1.49,1.49,0,0,1-.64.12,1.14,1.14,0,0,1-.62-.15.8.8,0,0,1-.33-.38,1.27,1.27,0,0,1-.09-.47,1,1,0,0,1,.16-.61,1.19,1.19,0,0,1,.44-.39,4.86,4.86,0,0,1,.73-.32l.39-.14.19-.08a.46.46,0,0,0,.14-.07.83.83,0,0,0-.1-.45c-.07-.11-.22-.16-.45-.16a1.41,1.41,0,0,0-.75.2,2.61,2.61,0,0,0-.64.52v-1.08a2.55,2.55,0,0,1,.5-.3,2.81,2.81,0,0,1,.56-.18,3,3,0,0,1,.59-.06,1.73,1.73,0,0,1,1.15.33,1.18,1.18,0,0,1,.38.92v1.54a1.37,1.37,0,0,0,0,.33.14.14,0,0,0,.14.1.61.61,0,0,0,.31-.11Zm-1.72-.76v-.94a2.89,2.89,0,0,0-.64.36.53.53,0,0,0-.2.44.4.4,0,0,0,.1.3.3.3,0,0,0,.23.11.46.46,0,0,0,.25-.08A2.14,2.14,0,0,0,32.2,188.69Z" />
        <path d="M37.87,187.63a2.8,2.8,0,0,1-.1.77,1.94,1.94,0,0,1-.3.67,1.41,1.41,0,0,1-.53.47,1.47,1.47,0,0,1-.74.18,1.64,1.64,0,0,1-.55-.08,2.56,2.56,0,0,1-.39-.22v2H34v-5.79h1.24V186a2.1,2.1,0,0,1,.41-.31,1.29,1.29,0,0,1,.61-.12,1.39,1.39,0,0,1,.75.22,1.54,1.54,0,0,1,.61.67A2.54,2.54,0,0,1,37.87,187.63Zm-1.3,0a1.37,1.37,0,0,0-.1-.58.74.74,0,0,0-.26-.33.62.62,0,0,0-.32-.09.64.64,0,0,0-.36.08,1.05,1.05,0,0,0-.27.2v1.52l.14.08a1.19,1.19,0,0,0,.15.09l.16.06.18,0a.56.56,0,0,0,.48-.28A1.33,1.33,0,0,0,36.57,187.66Z" />
        <path d="M41.82,188H39.36a1,1,0,0,0,.35.59,1,1,0,0,0,.64.23,2.93,2.93,0,0,0,1.38-.4v.88a4.47,4.47,0,0,1-.65.29,3.39,3.39,0,0,1-1,.13,2,2,0,0,1-1.1-.28,1.73,1.73,0,0,1-.68-.74,2.64,2.64,0,0,1,0-2.11,1.71,1.71,0,0,1,.68-.73,2.21,2.21,0,0,1,1.1-.26,1.72,1.72,0,0,1,.82.21,1.61,1.61,0,0,1,.66.68,2.61,2.61,0,0,1,.25,1.23Zm-1.16-.7a1,1,0,0,0-.17-.61.56.56,0,0,0-.48-.23.62.62,0,0,0-.5.24.94.94,0,0,0-.19.6Z" />
      </g>
      <g id="pips_-_fewest-4" data-name="pips - fewest">
        <g style="clip-path: url(#clip-path-7)">
          <g style="clip-path: url(#clip-path-7)">
            <path d="M89,158.85l.72-1.24a13.9,13.9,0,0,0-5.77-1.54v1.43a12.31,12.31,0,0,1,5,1.35" />
            <path d="M93.77,163.18l1.24-.71a14.07,14.07,0,0,0-4.23-4.22l-.71,1.23a12.67,12.67,0,0,1,3.7,3.7" />
            <path d="M76.5,159.48l-.72-1.23a14.15,14.15,0,0,0-4.22,4.22l1.23.72a12.62,12.62,0,0,1,3.71-3.71" />
            <path d="M95.76,169.34h1.42a13.82,13.82,0,0,0-1.54-5.77l-1.23.71a12.63,12.63,0,0,1,1.35,5.06" />
            <path d="M82.65,157.5v-1.43a13.72,13.72,0,0,0-5.77,1.55l.71,1.23a12.35,12.35,0,0,1,5.06-1.35" />
            <path d="M72.79,176.76l-1.23.71a14,14,0,0,0,4.22,4.22l.72-1.23a12.58,12.58,0,0,1-3.71-3.7" />
            <path d="M90.07,180.46l.71,1.23A13.85,13.85,0,0,0,95,177.47l-1.24-.71a12.55,12.55,0,0,1-3.7,3.7" />
            <path d="M95.76,170.6a12.63,12.63,0,0,1-1.35,5.06l1.23.71a13.82,13.82,0,0,0,1.54-5.77Z" />
            <path d="M70.81,170.6H69.38a13.68,13.68,0,0,0,1.55,5.77l1.23-.71a12.31,12.31,0,0,1-1.35-5.06" />
            <path d="M72.16,164.28l-1.23-.71a13.68,13.68,0,0,0-1.55,5.77h1.43a12.31,12.31,0,0,1,1.35-5.06" />
          </g>
        </g>
      </g>
      <g>
        <path d="M70.3,188.07a1.65,1.65,0,0,1-.23.88,1.42,1.42,0,0,1-.64.57,2.13,2.13,0,0,1-.94.2l-.36,0-.57-.12a4.34,4.34,0,0,1-.74-.29V188a4.88,4.88,0,0,0,.71.42,1.72,1.72,0,0,0,.75.17.6.6,0,0,0,.47-.14.39.39,0,0,0,.11-.26.47.47,0,0,0-.18-.37,3.11,3.11,0,0,0-.54-.31,3.81,3.81,0,0,1-.69-.41,1.59,1.59,0,0,1-.48-.55,1.5,1.5,0,0,1-.19-.78,1.63,1.63,0,0,1,.19-.8,1.37,1.37,0,0,1,.58-.56,1.92,1.92,0,0,1,.94-.21,2.83,2.83,0,0,1,.74.09,3.29,3.29,0,0,1,.56.19l.3.18v1.27a3.86,3.86,0,0,0-.65-.43,1.69,1.69,0,0,0-.77-.19.55.55,0,0,0-.39.12.38.38,0,0,0-.12.29.38.38,0,0,0,.12.28,3.22,3.22,0,0,0,.43.28,8.07,8.07,0,0,1,.88.53,1.77,1.77,0,0,1,.52.54A1.38,1.38,0,0,1,70.3,188.07Z" />
        <path d="M74.53,189.65H73.29v-2.2a1.32,1.32,0,0,0-.1-.53.41.41,0,0,0-.41-.23.58.58,0,0,0-.41.17,2.4,2.4,0,0,0-.34.45v2.34H70.79v-5.42H72v2a1.66,1.66,0,0,1,.6-.5,1.53,1.53,0,0,1,.64-.14c.84,0,1.26.54,1.26,1.61Z" />
        <path d="M78.62,189.45c-.18.08-.35.14-.5.19a1.84,1.84,0,0,1-.56.08.54.54,0,0,1-.42-.13.79.79,0,0,1-.18-.29,1.9,1.9,0,0,1-.44.3,1.43,1.43,0,0,1-.64.12,1.16,1.16,0,0,1-.62-.15.92.92,0,0,1-.33-.38,1.27,1.27,0,0,1-.09-.47,1,1,0,0,1,.16-.61,1.28,1.28,0,0,1,.44-.39,5.37,5.37,0,0,1,.73-.32l.39-.14.2-.08.14-.07a.83.83,0,0,0-.11-.45c-.07-.11-.21-.16-.44-.16a1.47,1.47,0,0,0-.76.2,2.57,2.57,0,0,0-.63.52v-1.08a2.29,2.29,0,0,1,.5-.3,2.45,2.45,0,0,1,.56-.18,2.88,2.88,0,0,1,.59-.06,1.7,1.7,0,0,1,1.14.33,1.15,1.15,0,0,1,.38.92v1.54a1.28,1.28,0,0,0,0,.33.13.13,0,0,0,.13.1.64.64,0,0,0,.32-.11Zm-1.72-.76v-.94a3,3,0,0,0-.65.36.56.56,0,0,0-.2.44.4.4,0,0,0,.1.3.34.34,0,0,0,.24.11.49.49,0,0,0,.25-.08Z" />
        <path d="M82.57,187.63a2.8,2.8,0,0,1-.1.77,2.16,2.16,0,0,1-.31.67,1.38,1.38,0,0,1-.52.47,1.73,1.73,0,0,1-1.29.1,2.56,2.56,0,0,1-.39-.22v2H78.72v-5.79H80V186a2.1,2.1,0,0,1,.41-.31,1.29,1.29,0,0,1,.61-.12,1.44,1.44,0,0,1,.75.22,1.59,1.59,0,0,1,.6.67A2.41,2.41,0,0,1,82.57,187.63Zm-1.3,0a1.55,1.55,0,0,0-.1-.58.81.81,0,0,0-.26-.33.68.68,0,0,0-.33-.09.64.64,0,0,0-.36.08,1.21,1.21,0,0,0-.26.2v1.52l.13.08a1.19,1.19,0,0,0,.15.09l.16.06.18,0a.57.57,0,0,0,.49-.28A1.33,1.33,0,0,0,81.27,187.66Z" />
        <path d="M86.52,188H84.05a1,1,0,0,0,.36.59,1,1,0,0,0,.64.23,3,3,0,0,0,1.38-.4v.88a4.18,4.18,0,0,1-.66.29,3.37,3.37,0,0,1-1,.13,2,2,0,0,1-1.1-.28,1.67,1.67,0,0,1-.68-.74,2.53,2.53,0,0,1,0-2.11,1.65,1.65,0,0,1,.68-.73,2.18,2.18,0,0,1,1.1-.26,1.75,1.75,0,0,1,.82.21,1.65,1.65,0,0,1,.65.68,2.61,2.61,0,0,1,.26,1.23Zm-1.16-.7a1,1,0,0,0-.17-.61.56.56,0,0,0-.48-.23.61.61,0,0,0-.5.24.88.88,0,0,0-.19.6Z" />
        <path d="M93.12,189.24a3.23,3.23,0,0,1-.6.28,3.6,3.6,0,0,1-.63.15,4.51,4.51,0,0,1-.65.05,3,3,0,0,1-1.11-.2,2.4,2.4,0,0,1-.86-.57,2.53,2.53,0,0,1-.54-.89,3.37,3.37,0,0,1-.18-1.12,3.3,3.3,0,0,1,.21-1.23,2.26,2.26,0,0,1,.6-.87,2.38,2.38,0,0,1,.87-.51,3,3,0,0,1,1-.17,5.1,5.1,0,0,1,1.84.41V186a4.32,4.32,0,0,0-.7-.42,1.86,1.86,0,0,0-.81-.17,1.73,1.73,0,0,0-.78.19,1.58,1.58,0,0,0-.58.54A1.45,1.45,0,0,0,90,187a1.61,1.61,0,0,0,.19.75,1.4,1.4,0,0,0,.54.54,1.44,1.44,0,0,0,.77.21,2.39,2.39,0,0,0,.66-.1,2.55,2.55,0,0,0,.52-.21,4.46,4.46,0,0,0,.43-.28Z" />
        <path d="M98.47,184.23l-2.15,5.49h-.95l-2.11-5.49h1.5l1.09,3.13L97,184.23Z" />
      </g>
      <g id="pips_-_fewest-5" data-name="pips - fewest">
        <g style="clip-path: url(#clip-path-9)">
          <g style="clip-path: url(#clip-path-9)">
            <path d="M37.44,29.43l.71-1.24a13.82,13.82,0,0,0-5.77-1.54v1.42a12.48,12.48,0,0,1,5.06,1.36" />
            <path d="M42.24,33.76l1.23-.71a13.81,13.81,0,0,0-4.22-4.22l-.71,1.23a12.55,12.55,0,0,1,3.7,3.7" />
            <path d="M25,30.06l-.71-1.23A13.81,13.81,0,0,0,20,33.05l1.23.71a12.55,12.55,0,0,1,3.7-3.7" />
            <path d="M44.22,39.92h1.43a13.91,13.91,0,0,0-1.54-5.78l-1.24.72a12.31,12.31,0,0,1,1.35,5.06" />
            <path d="M31.12,28.07V26.65a13.82,13.82,0,0,0-5.77,1.54l.71,1.24a12.48,12.48,0,0,1,5.06-1.36" />
            <path d="M21.26,47.33,20,48.05a14,14,0,0,0,4.22,4.22L25,51a12.58,12.58,0,0,1-3.7-3.71" />
            <path d="M38.54,51l.71,1.23a14,14,0,0,0,4.22-4.22l-1.23-.72A12.58,12.58,0,0,1,38.54,51" />
            <path d="M44.22,41.18a12.35,12.35,0,0,1-1.35,5.06l1.24.71a13.82,13.82,0,0,0,1.54-5.77Z" />
            <path d="M19.28,41.18H17.85A13.82,13.82,0,0,0,19.39,47l1.24-.71a12.35,12.35,0,0,1-1.35-5.06" />
            <path d="M20.63,34.86l-1.24-.72a13.91,13.91,0,0,0-1.54,5.78h1.43a12.31,12.31,0,0,1,1.35-5.06" />
          </g>
        </g>
      </g>
      <g>
        <path d="M28,56.51a1.7,1.7,0,0,1-.1.59,1.58,1.58,0,0,1-.29.54A1.45,1.45,0,0,1,27,58a2,2,0,0,1-.81.15h-.94v2H23.82V54.81H26.2A1.86,1.86,0,0,1,27,55a1.45,1.45,0,0,1,.55.4,1.54,1.54,0,0,1,.29.55A1.7,1.7,0,0,1,28,56.51Zm-1.47,0a.62.62,0,0,0-.2-.53,1.35,1.35,0,0,0-.72-.14h-.3v1.3h.31a2,2,0,0,0,.55,0,.43.43,0,0,0,.28-.18A.89.89,0,0,0,26.48,56.52Z" />
        <path d="M29.56,60.22H28.32v-4h1.24Zm-.1-4.89a.64.64,0,0,1-.15.42.5.5,0,0,1-.37.17.47.47,0,0,1-.26-.08.55.55,0,0,1-.19-.21.6.6,0,0,1-.07-.3.64.64,0,0,1,.15-.42.49.49,0,0,1,.74,0A.64.64,0,0,1,29.46,55.33Z" />
        <path d="M32.89,60a2.63,2.63,0,0,1-.53.21,2.48,2.48,0,0,1-.65.09c-.89,0-1.33-.49-1.33-1.48V57.22h-.56V57l1.66-1.92h.14v1.19H32.8v1H31.62V58.5a3.21,3.21,0,0,0,0,.36.4.4,0,0,0,.14.23.53.53,0,0,0,.34.09,1.77,1.77,0,0,0,.77-.28Z" />
        <path d="M36.15,60a1.75,1.75,0,0,1-.32.12l-.39.1a3.38,3.38,0,0,1-.47,0,1.93,1.93,0,0,1-1-.22,1.56,1.56,0,0,1-.61-.55,1.94,1.94,0,0,1-.3-.68,2.45,2.45,0,0,1-.08-.62,3,3,0,0,1,.08-.61,2.34,2.34,0,0,1,.3-.67,1.58,1.58,0,0,1,.6-.54,2,2,0,0,1,1-.22,2.68,2.68,0,0,1,.63.06,3.28,3.28,0,0,1,.5.17v1.1a3.24,3.24,0,0,0-1-.22.85.85,0,0,0-.58.23.9.9,0,0,0-.26.7,1,1,0,0,0,.13.54.82.82,0,0,0,.32.32.94.94,0,0,0,.39.1,1.42,1.42,0,0,0,.43-.07l.57-.17Z" />
        <path d="M40.21,60.22H39v-2.1s0,0,0-.1a1.31,1.31,0,0,0-.11-.52.41.41,0,0,0-.41-.24.57.57,0,0,0-.41.18,2.4,2.4,0,0,0-.34.45v2.33H36.47V54.81h1.24v2a1.79,1.79,0,0,1,.6-.51,1.56,1.56,0,0,1,.64-.13c.84,0,1.26.53,1.26,1.6Z" />
      </g>
      <g id="pips_-_fewest-6" data-name="pips - fewest">
        <g style="clip-path: url(#clip-path-11)">
          <g style="clip-path: url(#clip-path-11)">
            <path d="M89,29.43l.72-1.24a13.9,13.9,0,0,0-5.77-1.54v1.42a12.47,12.47,0,0,1,5,1.36" />
            <path d="M93.77,33.76,95,33.05a13.85,13.85,0,0,0-4.23-4.22l-.71,1.23a12.55,12.55,0,0,1,3.7,3.7" />
            <path d="M76.5,30.06l-.72-1.23a13.92,13.92,0,0,0-4.22,4.22l1.23.71a12.58,12.58,0,0,1,3.71-3.7" />
            <path d="M95.76,39.92h1.42a13.91,13.91,0,0,0-1.54-5.78l-1.23.72a12.63,12.63,0,0,1,1.35,5.06" />
            <path d="M82.65,28.07V26.65a13.86,13.86,0,0,0-5.77,1.54l.71,1.24a12.52,12.52,0,0,1,5.06-1.36" />
            <path d="M72.79,47.33l-1.23.72a14.15,14.15,0,0,0,4.22,4.22L76.5,51a12.62,12.62,0,0,1-3.71-3.71" />
            <path d="M90.07,51l.71,1.23A14.07,14.07,0,0,0,95,48.05l-1.24-.72A12.58,12.58,0,0,1,90.07,51" />
            <path d="M95.76,41.18a12.67,12.67,0,0,1-1.35,5.06l1.23.71a13.86,13.86,0,0,0,1.54-5.77Z" />
            <path d="M70.81,41.18H69.38A13.72,13.72,0,0,0,70.93,47l1.23-.71a12.35,12.35,0,0,1-1.35-5.06" />
            <path d="M72.16,34.86l-1.23-.72a13.77,13.77,0,0,0-1.55,5.78h1.43a12.31,12.31,0,0,1,1.35-5.06" />
          </g>
        </g>
      </g>
      <g>
        <path d="M83.11,60.22H81.67V57.09l-1.3,1.81h-.11L79,57.09v3.13H77.57V54.81h1.3l1.46,2,1.47-2h1.31Z" />
        <path d="M85.13,60.22H83.89v-4h1.24ZM85,55.33a.6.6,0,0,1-.16.42.48.48,0,0,1-.36.17.5.5,0,0,1-.27-.08.46.46,0,0,1-.18-.21.6.6,0,0,1-.07-.3.64.64,0,0,1,.15-.42.45.45,0,0,1,.37-.17.44.44,0,0,1,.36.17A.6.6,0,0,1,85,55.33Z" />
        <path d="M89.6,60.22H88.07l-.68-1.12-.67,1.12H85.37l1.35-1.95-1.38-2h1.52l.65,1.08.65-1.08h1.36l-1.33,1.88Z" />
      </g>
      <g id="pips_-_fewest-7" data-name="pips - fewest">
        <g style="clip-path: url(#clip-path-13)">
          <g style="clip-path: url(#clip-path-13)">
            <path d="M37.44,72.57l.71-1.24a13.82,13.82,0,0,0-5.77-1.54v1.43a12.31,12.31,0,0,1,5.06,1.35" />
            <path d="M42.24,76.9l1.23-.71A13.92,13.92,0,0,0,39.25,72l-.71,1.23a12.55,12.55,0,0,1,3.7,3.7" />
            <path d="M25,73.2,24.25,72A13.92,13.92,0,0,0,20,76.19l1.23.71A12.55,12.55,0,0,1,25,73.2" />
            <path d="M44.22,83.06h1.43a13.82,13.82,0,0,0-1.54-5.77L42.87,78a12.31,12.31,0,0,1,1.35,5.06" />
            <path d="M31.12,71.22V69.79a13.82,13.82,0,0,0-5.77,1.54l.71,1.24a12.31,12.31,0,0,1,5.06-1.35" />
            <path d="M21.26,90.48,20,91.19a13.92,13.92,0,0,0,4.22,4.22L25,94.18a12.55,12.55,0,0,1-3.7-3.7" />
            <path d="M38.54,94.18l.71,1.23a13.92,13.92,0,0,0,4.22-4.22l-1.23-.71a12.55,12.55,0,0,1-3.7,3.7" />
            <path d="M44.22,84.32a12.31,12.31,0,0,1-1.35,5.06l1.24.71a13.82,13.82,0,0,0,1.54-5.77Z" />
            <path d="M19.28,84.32H17.85a13.82,13.82,0,0,0,1.54,5.77l1.24-.71a12.31,12.31,0,0,1-1.35-5.06" />
            <path d="M20.63,78l-1.24-.71a13.82,13.82,0,0,0-1.54,5.77h1.43A12.31,12.31,0,0,1,20.63,78" />
          </g>
        </g>
      </g>
      <g>
        <path d="M24.3,103.37H22.87V98H24.3Z" />
        <path d="M28.76,103.37H27.52v-2.15a1.62,1.62,0,0,0-.09-.57.42.42,0,0,0-.42-.25.53.53,0,0,0-.26.07.68.68,0,0,0-.21.17,1.25,1.25,0,0,0-.15.19,1.37,1.37,0,0,0-.13.2v2.34H25v-4h1.24V100a1.85,1.85,0,0,1,.58-.5,1.59,1.59,0,0,1,.66-.14q1.26,0,1.26,1.71Z" />
        <path d="M32.92,103.37H31.68V103a2.94,2.94,0,0,1-.41.31,1.29,1.29,0,0,1-.61.12,1.54,1.54,0,0,1-.75-.22,1.65,1.65,0,0,1-.6-.67,2.42,2.42,0,0,1-.24-1.15,2.79,2.79,0,0,1,.18-1,1.7,1.7,0,0,1,.56-.77,1.46,1.46,0,0,1,.93-.3,1.71,1.71,0,0,1,.56.08,2,2,0,0,1,.38.22V98h1.24Zm-1.24-1.27v-1.52a2.14,2.14,0,0,0-.34-.19.65.65,0,0,0-.29-.06.56.56,0,0,0-.48.28,1.32,1.32,0,0,0-.2.76,1.14,1.14,0,0,0,.21.77.59.59,0,0,0,.47.24.74.74,0,0,0,.36-.08A1.05,1.05,0,0,0,31.68,102.1Z" />
        <path d="M37,101.72H34.55a1,1,0,0,0,.35.59,1,1,0,0,0,.64.23,2.93,2.93,0,0,0,1.38-.4V103a3.41,3.41,0,0,1-.66.3,3.27,3.27,0,0,1-1,.13,2.11,2.11,0,0,1-1.1-.28,1.73,1.73,0,0,1-.68-.74,2.42,2.42,0,0,1-.22-1.06,2.38,2.38,0,0,1,.22-1,1.71,1.71,0,0,1,.68-.73,2.21,2.21,0,0,1,1.1-.26,1.72,1.72,0,0,1,.82.21,1.67,1.67,0,0,1,.66.68,2.61,2.61,0,0,1,.25,1.23Zm-1.16-.7a1,1,0,0,0-.17-.61.56.56,0,0,0-.48-.23.64.64,0,0,0-.5.23,1,1,0,0,0-.19.61Z" />
        <path d="M41.24,103.37H39.71L39,102.24l-.67,1.13H37l1.35-2-1.38-2H38.5l.65,1.08.65-1.08h1.35l-1.32,1.89Z" />
      </g>
      <g id="pips_-_fewest-8" data-name="pips - fewest">
        <g style="clip-path: url(#clip-path-15)">
          <g style="clip-path: url(#clip-path-15)">
            <path d="M89,72.57l.72-1.24a13.9,13.9,0,0,0-5.77-1.54v1.43a12.31,12.31,0,0,1,5,1.35" />
            <path d="M93.77,76.9,95,76.19A14,14,0,0,0,90.78,72l-.71,1.23a12.55,12.55,0,0,1,3.7,3.7" />
            <path d="M76.5,73.2,75.78,72a14,14,0,0,0-4.22,4.22l1.23.71a12.58,12.58,0,0,1,3.71-3.7" />
            <path d="M95.76,83.06h1.42a13.82,13.82,0,0,0-1.54-5.77L94.41,78a12.63,12.63,0,0,1,1.35,5.06" />
            <path d="M82.65,71.22V69.79a13.86,13.86,0,0,0-5.77,1.54l.71,1.24a12.35,12.35,0,0,1,5.06-1.35" />
            <path d="M72.79,90.48l-1.23.71a14,14,0,0,0,4.22,4.22l.72-1.23a12.58,12.58,0,0,1-3.71-3.7" />
            <path d="M90.07,94.18l.71,1.23A14,14,0,0,0,95,91.19l-1.24-.71a12.55,12.55,0,0,1-3.7,3.7" />
            <path d="M95.76,84.32a12.63,12.63,0,0,1-1.35,5.06l1.23.71a13.82,13.82,0,0,0,1.54-5.77Z" />
            <path d="M70.81,84.32H69.38a13.68,13.68,0,0,0,1.55,5.77l1.23-.71a12.31,12.31,0,0,1-1.35-5.06" />
            <path d="M72.16,78l-1.23-.71a13.68,13.68,0,0,0-1.55,5.77h1.43A12.31,12.31,0,0,1,72.16,78" />
          </g>
        </g>
      </g>
      <g>
        <path d="M70,103.37H68.51V98H70Z" />
        <path d="M74.41,103.37H73.17v-2.15a1.42,1.42,0,0,0-.1-.57.4.4,0,0,0-.41-.25.6.6,0,0,0-.27.07.79.79,0,0,0-.2.17c-.06.06-.11.13-.16.19l-.12.2v2.34H70.67v-4h1.24V100a1.85,1.85,0,0,1,.58-.5,1.59,1.59,0,0,1,.66-.14q1.26,0,1.26,1.71Z" />
        <path d="M78.57,103.37H77.33V103a2.53,2.53,0,0,1-.42.31,1.22,1.22,0,0,1-.6.12,1.54,1.54,0,0,1-.75-.22,1.58,1.58,0,0,1-.6-.67,2.42,2.42,0,0,1-.24-1.15,2.79,2.79,0,0,1,.18-1,1.63,1.63,0,0,1,.56-.77,1.44,1.44,0,0,1,.93-.3,1.71,1.71,0,0,1,.56.08,2,2,0,0,1,.38.22V98h1.24Zm-1.24-1.27v-1.52a2.69,2.69,0,0,0-.34-.19.65.65,0,0,0-.29-.06.55.55,0,0,0-.48.28,1.32,1.32,0,0,0-.2.76,1.14,1.14,0,0,0,.21.77.59.59,0,0,0,.47.24.74.74,0,0,0,.36-.08A1.56,1.56,0,0,0,77.33,102.1Z" />
        <path d="M82.66,101.72H80.2a.93.93,0,0,0,.35.59,1,1,0,0,0,.64.23,2.93,2.93,0,0,0,1.38-.4V103a3.41,3.41,0,0,1-.66.3,3.32,3.32,0,0,1-1,.13,2.11,2.11,0,0,1-1.1-.28,1.67,1.67,0,0,1-.68-.74,2.43,2.43,0,0,1-.23-1.06,2.38,2.38,0,0,1,.23-1,1.65,1.65,0,0,1,.68-.73,2.21,2.21,0,0,1,1.1-.26,1.72,1.72,0,0,1,.82.21,1.65,1.65,0,0,1,.65.68,2.61,2.61,0,0,1,.26,1.23ZM81.5,101a1,1,0,0,0-.17-.61.56.56,0,0,0-.48-.23.64.64,0,0,0-.5.23.93.93,0,0,0-.19.61Z" />
        <path d="M86.88,103.37H85.36l-.68-1.13L84,103.37H82.65l1.36-2-1.39-2h1.53l.64,1.08.66-1.08H86.8l-1.32,1.89Z" />
        <path d="M93.31,103a3,3,0,0,1-.6.28,3.6,3.6,0,0,1-.63.15,4.51,4.51,0,0,1-.65,0,3,3,0,0,1-1.11-.2,2.3,2.3,0,0,1-.86-.58,2.45,2.45,0,0,1-.54-.89,3.33,3.33,0,0,1-.18-1.12A3.28,3.28,0,0,1,89,99.43a2.26,2.26,0,0,1,.6-.87,2.4,2.4,0,0,1,.87-.52,3.22,3.22,0,0,1,1-.16,4.89,4.89,0,0,1,1.84.41v1.44a4.32,4.32,0,0,0-.7-.42,1.86,1.86,0,0,0-.81-.17,1.73,1.73,0,0,0-.78.19,1.5,1.5,0,0,0-.58.54,1.53,1.53,0,0,0-.22.81,1.61,1.61,0,0,0,.19.75,1.4,1.4,0,0,0,.54.54,1.43,1.43,0,0,0,.77.2,2.39,2.39,0,0,0,.66-.09,4.64,4.64,0,0,0,.52-.21,4.46,4.46,0,0,0,.43-.28Z" />
        <path d="M98.66,98l-2.15,5.49h-1L93.45,98H95L96,101.08,97.16,98Z" />
      </g>
    </g>
    <g>
      <path d="M63.34,8.11l-5.53,7v-6a1.3,1.3,0,0,0-.64-1.18.91.91,0,0,0-1.13.3l-7.28,9.24a1.48,1.48,0,0,0,0,1.79.9.9,0,0,0,1.46,0l5.5-7v6a1.3,1.3,0,0,0,.64,1.18.92.92,0,0,0,1.14-.3l5.53-7v6.15a1.05,1.05,0,1,0,2.06,0V9a1.26,1.26,0,0,0-.65-1.17A.9.9,0,0,0,63.34,8.11Z" style="stroke: #000;stroke-width: 0.6000000000000001px" />
      <path d="M48.76,8,44,14.17A1.47,1.47,0,0,0,44,16a.91.91,0,0,0,1.46,0l3-3.87v6.3a1.05,1.05,0,1,0,2.06,0V8.92a1.28,1.28,0,0,0-.65-1.17A.9.9,0,0,0,48.76,8Z" style="stroke: #000;stroke-width: 0.6000000000000001px" />
      <path d="M71.71,12.56a1,1,0,0,0-.95-.77h-2.1l1.53-1.95s.8-1.18.1-1.82-1.58.06-1.58.06l-3.23,4.1a1.44,1.44,0,0,0-.2,1.37,1,1,0,0,0,1,.77h2.1l-2.49,3.17s-1,1.13-.27,1.89,1.75-.13,1.75-.13l4.18-5.32A1.47,1.47,0,0,0,71.71,12.56Z" style="stroke: #000;stroke-width: 0.6000000000000001px" />
    </g>
  </g>
  <g /></svg>