<?xml version="1.0" encoding="UTF-8" standalone="no"?>
<svg
   width="40.64mm"
   height="130.55mm"
   viewBox="0 0 115.2 370.07"
   version="1.1"
   id="svg115"
   sodipodi:docname="FM_artwork.svg"
   inkscape:version="1.4.2 (ebf0e940, 2025-05-08)"
   xmlns:inkscape="http://www.inkscape.org/namespaces/inkscape"
   xmlns:sodipodi="http://sodipodi.sourceforge.net/DTD/sodipodi-0.dtd"
   xmlns="http://www.w3.org/2000/svg"
   xmlns:svg="http://www.w3.org/2000/svg">
  <sodipodi:namedview
     id="namedview115"
     pagecolor="#ffffff"
     bordercolor="#666666"
     borderopacity="1.0"
     inkscape:showpageshadow="2"
     inkscape:pageopacity="0.0"
     inkscape:pagecheckerboard="0"
     inkscape:deskcolor="#d1d1d1"
     inkscape:document-units="mm"
     inkscape:zoom="0.60998214"
     inkscape:cx="318.86179"
     inkscape:cy="354.92842"
     inkscape:window-width="1312"
     inkscape:window-height="730"
     inkscape:window-x="416"
     inkscape:window-y="283"
     inkscape:window-maximized="0"
     inkscape:current-layer="Layer_4" />
  <defs
     id="defs16">
    <clipPath
       id="clippath">
      <rect
         x="17.72"
         y="112.8"
         width="27.8"
         height="25.62"
         style="fill: none; stroke-width: 0px;"
         id="rect1" />
    </clipPath>
    <clipPath
       id="clippath-1">
      <rect
         x="17.72"
         y="112.8"
         width="27.8"
         height="25.62"
         style="fill: none; stroke-width: 0px;"
         id="rect2" />
    </clipPath>
    <clipPath
       id="clippath-2">
      <rect
         x="69.26"
         y="112.8"
         width="27.8"
         height="25.62"
         style="fill: none; stroke-width: 0px;"
         id="rect3" />
    </clipPath>
    <clipPath
       id="clippath-3">
      <rect
         x="69.26"
         y="112.8"
         width="27.8"
         height="25.62"
         style="fill: none; stroke-width: 0px;"
         id="rect4" />
    </clipPath>
    <clipPath
       id="clippath-4">
      <rect
         x="17.72"
         y="155.94"
         width="27.8"
         height="25.62"
         style="fill: none; stroke-width: 0px;"
         id="rect5" />
    </clipPath>
    <clipPath
       id="clippath-5">
      <rect
         x="17.72"
         y="155.94"
         width="27.8"
         height="25.62"
         style="fill: none; stroke-width: 0px;"
         id="rect6" />
    </clipPath>
    <clipPath
       id="clippath-6">
      <rect
         x="69.26"
         y="155.94"
         width="27.8"
         height="25.62"
         style="fill: none; stroke-width: 0px;"
         id="rect7" />
    </clipPath>
    <clipPath
       id="clippath-7">
      <rect
         x="69.26"
         y="155.94"
         width="27.8"
         height="25.62"
         style="fill: none; stroke-width: 0px;"
         id="rect8" />
    </clipPath>
    <clipPath
       id="clippath-8">
      <rect
         x="17.72"
         y="26.52"
         width="27.8"
         height="25.62"
         style="fill: none; stroke-width: 0px;"
         id="rect9" />
    </clipPath>
    <clipPath
       id="clippath-9">
      <rect
         x="17.72"
         y="26.52"
         width="27.8"
         height="25.62"
         style="fill: none; stroke-width: 0px;"
         id="rect10" />
    </clipPath>
    <clipPath
       id="clippath-10">
      <rect
         x="69.26"
         y="26.52"
         width="27.8"
         height="25.62"
         style="fill: none; stroke-width: 0px;"
         id="rect11" />
    </clipPath>
    <clipPath
       id="clippath-11">
      <rect
         x="69.26"
         y="26.52"
         width="27.8"
         height="25.62"
         style="fill: none; stroke-width: 0px;"
         id="rect12" />
    </clipPath>
    <clipPath
       id="clippath-12">
      <rect
         x="17.72"
         y="69.66"
         width="27.8"
         height="25.62"
         style="fill: none; stroke-width: 0px;"
         id="rect13" />
    </clipPath>
    <clipPath
       id="clippath-13">
      <rect
         x="17.72"
         y="69.66"
         width="27.8"
         height="25.62"
         style="fill: none; stroke-width: 0px;"
         id="rect14" />
    </clipPath>
    <clipPath
       id="clippath-14">
      <rect
         x="69.26"
         y="69.66"
         width="27.8"
         height="25.62"
         style="fill: none; stroke-width: 0px;"
         id="rect15" />
    </clipPath>
    <clipPath
       id="clippath-15">
      <rect
         x="69.26"
         y="69.66"
         width="27.8"
         height="25.62"
         style="fill: none; stroke-width: 0px;"
         id="rect16" />
    </clipPath>
  </defs>
  <g
     id="faceplate">
    <g
       id="g17">
      <path
         id="rect17"
         style="fill:#ededed;stroke-width:0px"
         d="m 0.12,0.13 h 114.95 v 364 H 0.12 Z" />
      <path
         d="M114.95.25v363.75H.25V.25h114.7M115.2,0H0v364.25h115.2V0h0Z"
         style="fill: #9d9d9e; stroke-width: 0px;"
         id="path17" />
    </g>
    <g
       id="g20">
      <path
         d="M49.4,18.07c-.37,0-.71-.17-.97-.47-.51-.6-.52-1.54-.04-2.16l6.97-8.88c.38-.48,1.05-.65,1.57-.39.5.25.79.82.79,1.45v4.77l4.64-5.85c.38-.48,1.01-.64,1.53-.38.5.25.83.81.83,1.44v8.82c0,.86-.61,1.57-1.36,1.57s-1.36-.7-1.36-1.57v-4.79l-4.64,5.85c-.38.48-1.01.64-1.54.38-.5-.24-.83-.81-.83-1.44v-4.67l-4.61,5.8c-.26.32-.62.51-1,.51h0Z"
         style="fill: #2cabe1; stroke-width: 0px;"
         id="path18" />
      <path
         d="M49.4,18.07c-.75,0-1.35-.7-1.35-1.57v-4.93l-2.26,2.84c-.5.63-1.44.65-1.97.04-.51-.6-.52-1.53-.03-2.15l4.61-5.76c.26-.32.63-.5,1-.5.18,0,.37.04.54.12.5.25.82.81.82,1.44v8.89c0,.86-.61,1.57-1.36,1.57h0Z"
         style="fill: #ea2228; stroke-width: 0px;"
         id="path19" />
      <path
         d="M66,18.09h0c-.35,0-.68-.15-.94-.42-.76-.78-.14-1.84.29-2.3l1.95-2.36-1.26-.02c-.56-.01-1.04-.4-1.24-1-.19-.56-.07-1.21.29-1.64l3.16-3.83c.23-.28.55-.48,1.13-.47.33,0,.67.17.92.4.71.66.29,1.7-.07,2.2l-1.04,1.26,1.26.02c.56.01,1.04.4,1.24,1,.19.56.07,1.21-.29,1.64l-4.1,4.97c-.35.35-.65.55-1.3.54h0Z"
         style="fill: #00a650; stroke-width: 0px;"
         id="path20" />
    </g>
    <g
       id="Layer_3"
       data-name="Layer 3">
      <g
         id="g22">
        <path
           d="M100.35,316.21v-23.22h-21.54c-7.49,0-13.57,7.04-13.57,15.71v32.93h15.07s0,0,0,0h14.39c3.12,0,5.64-2.55,5.64-5.67v-19.84.08Z"
           style="fill: #000; stroke-width: 0px;"
           id="path21" />
        <path
           d="M28.23,341.15h35.2s23.15,0,23.15,0c7.35,0,13.31-7.02,13.31-15.67v-107.66l-.06-6.21c-.29-8.35-6.12-15.02-13.28-15.02H28.2c-7.17,0-12.99,6.67-13.28,15.02l-.06,6.21v46.5l.07,61.17"
           style="fill: none; stroke: #000; stroke-miterlimit: 10;"
           id="path22" />
      </g>
      <path
         d="M14.92,324.53v10.96c0,3.12,2.55,5.67,5.67,5.67h12.93"
         style="fill: none; stroke: #000; stroke-miterlimit: 10;"
         id="path23" />
    </g>
    <g
       id="Layer_4"
       data-name="Layer 4">
      <path
         d="M 6.2680664,-3.0131836 H 3.1796875 V 0 H 0.93457031 V -7.4443359 H 6.2680664 v 1.493164 H 3.1796875 v 1.4394532 H 6.2680664 Z M 16.435547,0 H 14.19043 v -4.3129883 l -2.024903,2.4975586 H 11.988281 L 9.9580078,-4.3129883 V 0 H 7.7773437 v -7.4443359 h 2.0356446 l 2.2880857,2.7929687 2.298828,-2.7929687 h 2.035645 z"
         id="text23"
         style="font-weight:700;font-size:11px;font-family:GillSans-Bold, 'Gill Sans'"
         transform="translate(50.47 357.3) scale(.82 1)"
         aria-label="FM" />
      <path
         d="m 77.113978,219.77969 -2.290244,5.1448 h -1.011371 l -2.246271,-5.1448 h 1.594009 l 1.161612,2.93151 1.194591,-2.93151 z m 3.617046,-0.0696 -2.76295,5.21442 h -0.982057 l 2.759286,-5.21442 z m 5.881638,2.60538 q 0,0.71089 -0.329795,1.30819 -0.32613,0.59729 -0.974727,0.94907 -0.648597,0.35178 -1.579352,0.35178 -0.941748,0 -1.59401,-0.36643 -0.652261,-0.36644 -0.971063,-0.96374 -0.315138,-0.59729 -0.315138,-1.27887 0,-0.68524 0.315138,-1.27887 0.315137,-0.5973 0.967399,-0.96007 0.655926,-0.36644 1.597674,-0.36644 0.703563,0 1.253221,0.20887 0.553323,0.20887 0.908769,0.56798 0.355445,0.35544 0.538665,0.83182 0.183219,0.4727 0.183219,0.99671 z m -1.56103,0 q 0,-0.28582 -0.08428,-0.52034 -0.08428,-0.23819 -0.256507,-0.41042 -0.168562,-0.17589 -0.414076,-0.27116 -0.245514,-0.0989 -0.56798,-0.0989 -0.615618,0 -0.967399,0.35911 -0.351782,0.35911 -0.351782,0.94175 0,0.58264 0.351782,0.94541 0.355446,0.35911 0.967399,0.35911 0.421404,0 0.71822,-0.1649 0.296816,-0.16856 0.45072,-0.46171 0.153904,-0.29681 0.153904,-0.67791 z m 5.192733,2.37086 q -0.164898,0.0623 -0.348117,0.11726 -0.18322,0.0513 -0.414076,0.0843 -0.227192,0.0366 -0.498357,0.0366 -0.611953,0 -1.037023,-0.2052 -0.421404,-0.20887 -0.652261,-0.52034 -0.227192,-0.31514 -0.315137,-0.64127 -0.08795,-0.32613 -0.08795,-0.57531 0,-0.24918 0.08795,-0.57531 0.09161,-0.32613 0.315137,-0.63028 0.223528,-0.30414 0.644933,-0.50935 0.425069,-0.2052 1.044351,-0.2052 0.414076,0 0.674247,0.0586 0.260172,0.0586 0.527673,0.15757 v 1.03702 q -0.644933,-0.20521 -1.007708,-0.20521 -0.351781,0 -0.62661,0.21254 -0.271165,0.21253 -0.271165,0.65959 0,0.29681 0.135582,0.50202 0.135583,0.20154 0.344453,0.29682 0.20887,0.0953 0.41774,0.0953 0.197877,0 0.45072,-0.0586 0.252843,-0.0586 0.615618,-0.16856 z m 3.283586,-0.044 q -0.205206,0.0989 -0.56798,0.19055 -0.35911,0.0916 -0.688905,0.0916 -1.425448,0 -1.425448,-1.39246 v -1.48775 h -0.597296 v -0.23085 l 1.769901,-1.80288 h 0.15024 v 1.11764 h 1.26055 v 0.91609 h -1.26055 v 1.1946 q 0,0.20887 0.02565,0.33712 0.02565,0.12825 0.142912,0.2162 0.120924,0.0843 0.362774,0.0843 0.315138,0 0.828152,-0.26384 z m 8.329749,0.2162 h -1.53172 v -2.94251 l -1.381475,1.70394 H 98.82358 l -1.385139,-1.70394 v 2.94251 h -1.487742 v -5.07885 h 1.388804 l 1.56103,1.90548 1.568357,-1.90548 h 1.38881 z"
         id="text24"
         style="font-weight:700;font-size:7.50467px;font-family:GillSans-Bold, 'Gill Sans';letter-spacing:-0.04em;stroke-width:0.938083"
         transform="scale(0.93808314,1.0660036)"
         aria-label="V/Oct M" />
      <path
         d="M 2.3203125,0 H 0.6875 v -5.4140625 h 1.6328125 z m 5.0628126,0 h -1.40625 v -2.1445313 q 0,-0.328125 -0.109375,-0.5703125 -0.1054688,-0.2460937 -0.46875,-0.2460937 -0.171875,0 -0.3046875,0.066406 -0.1289063,0.0625 -0.234375,0.1640625 -0.1015625,0.1015625 -0.171875,0.1953125 -0.070312,0.09375 -0.1445313,0.1992188 V 0 h -1.40625 v -3.9765625 h 1.40625 V -3.40625 q 0.3320313,-0.3554688 0.6640625,-0.4960938 0.3359375,-0.1445312 0.7460938,-0.1445312 1.4296875,0 1.4296875,1.7109375 z M 12.113906,0 H 10.70375 v -0.359375 q -0.222656,0.1875 -0.472656,0.30859375 -0.2460939,0.12109375 -0.6835939,0.12109375 -0.4335937,0 -0.8515625,-0.21484375 Q 8.2779689,-0.359375 8.0084376,-0.8125 7.7389064,-1.2695312 7.7389064,-1.9609375 q 0,-0.5429688 0.203125,-1.015625 Q 8.1451564,-3.453125 8.5787501,-3.75 q 0.4335938,-0.296875 1.0625,-0.296875 0.3906249,0 0.6328129,0.085937 0.242187,0.085937 0.429687,0.21875 v -1.671875 h 1.410156 z M 10.70375,-1.265625 v -1.5195313 q -0.246094,-0.1367187 -0.386719,-0.1953125 -0.136718,-0.058594 -0.3242184,-0.058594 -0.3320312,0 -0.5546875,0.28125 -0.21875,0.28125 -0.21875,0.765625 0,0.5273438 0.2304688,0.7695313 0.234375,0.2382812 0.5429687,0.2382812 0.2539064,0 0.4101564,-0.078125 0.15625,-0.082031 0.300781,-0.203125 z m 6.058906,-0.3828125 h -2.800781 q 0.08203,0.3632813 0.402344,0.59375 0.320312,0.23046875 0.726562,0.23046875 0.710938,0 1.570313,-0.39843745 v 0.8710937 q -0.308594,0.16015625 -0.75,0.29296875 -0.4375,0.12890625 -1.117188,0.12890625 -0.734375,0 -1.25,-0.2734375 -0.515625,-0.2734375 -0.773437,-0.7421875 -0.253907,-0.46875 -0.253907,-1.0625 0,-0.5859375 0.253907,-1.046875 0.257812,-0.4648438 0.773437,-0.7265625 0.515625,-0.265625 1.25,-0.265625 0.484375,0 0.933594,0.2109375 0.453125,0.2070312 0.742187,0.6835937 0.292969,0.4726563 0.292969,1.2226563 z M 15.442344,-2.34375 q 0,-0.3828125 -0.191407,-0.609375 -0.1875,-0.2304688 -0.542968,-0.2304688 -0.351563,0 -0.570313,0.234375 Q 13.922812,-2.71875 13.922812,-2.34375 Z M 21.563749,0 H 19.829374 L 19.059843,-1.1289062 18.294218,0 h -1.539062 l 1.539062,-1.953125 -1.570312,-2.0234375 h 1.730468 l 0.734375,1.0820312 0.742188,-1.0820312 h 1.539062 l -1.503906,1.8867187 z"
         id="text25"
         style="font-weight:700;font-size:8px;font-family:GillSans-Bold, 'Gill Sans';letter-spacing:-0.04em"
         transform="translate(73.77 287.83) scale(.88 1)"
         aria-label="Index" />
      <path
         d="m 6.4726562,-2.7109375 q 0,0.7578125 -0.3515625,1.3945313 -0.3476562,0.6367187 -1.0390625,1.0117187 -0.6914062,0.375 -1.6835937,0.375 -1.0039062,0 -1.6992188,-0.390625 Q 1.0039062,-0.7109375 0.6640625,-1.3476562 0.328125,-1.984375 0.328125,-2.7109375 q 0,-0.7304688 0.3359375,-1.3632812 Q 1,-4.7109375 1.6953125,-5.0976562 q 0.6992188,-0.390625 1.703125,-0.390625 0.75,0 1.3359375,0.2226562 0.5898437,0.2226563 0.96875,0.6054688 0.3789062,0.3789062 0.5742187,0.8867187 0.1953125,0.5039062 0.1953125,1.0625 z m -1.6640625,0 q 0,-0.3046875 -0.089844,-0.5546875 -0.089844,-0.2539063 -0.2734375,-0.4375 -0.1796875,-0.1875 -0.4414063,-0.2890625 -0.2617187,-0.1054687 -0.6054687,-0.1054687 -0.65625,0 -1.03125,0.3828124 -0.375,0.3828125 -0.375,1.0039063 0,0.6210937 0.375,1.0078125 0.3789063,0.3828125 1.03125,0.3828125 0.4492188,0 0.765625,-0.1757812 0.3164062,-0.1796875 0.4804687,-0.4921875 0.1640625,-0.3164063 0.1640625,-0.7226563 z M 11.129219,0 H 9.7190623 v -0.56640625 q -0.296875,0.3203125 -0.625,0.48046875 -0.3242187,0.15625 -0.78125,0.15625 -0.9023437,0 -1.1679687,-0.5234375 -0.265625,-0.52734375 -0.265625,-1.1875 v -2.3359375 h 1.4101562 v 2.1484375 q 0,0.3242188 0.1054688,0.5703125 0.109375,0.2421875 0.46875,0.2421875 0.3085937,0 0.4882812,-0.1757812 0.1796875,-0.1757813 0.3671875,-0.4492188 v -2.3359375 h 1.4101567 z m 3.715156,-0.23046875 q -0.21875,0.10546875 -0.605469,0.203125 -0.382813,0.09765625 -0.734375,0.09765625 -1.519531,0 -1.519531,-1.484375 V -3 H 11.348281 V -3.2460938 L 13.235,-5.1679687 h 0.160156 v 1.1914062 h 1.34375 V -3 h -1.34375 v 1.2734375 q 0,0.2226563 0.02734,0.359375 0.02734,0.1367188 0.152343,0.2304688 0.128907,0.089844 0.386719,0.089844 0.335938,0 0.882813,-0.28125 z"
         id="text26"
         style="font-weight:700;font-size:8px;font-family:GillSans-Bold, 'Gill Sans';letter-spacing:-0.04em;fill:#ffffff"
         transform="translate(76.73 335.09) scale(.88 1)"
         aria-label="Out" />
      <path
         d="M 5.9765625,-5.4140625 3.5351563,0.0703125 H 2.4570313 L 0.0625,-5.4140625 H 1.7617187 L 3,-2.2890625 l 1.2734375,-3.125 z m 3.8557811,-0.074219 -2.9453125,5.5585937 h -1.046875 l 2.9414062,-5.5585937 z m 6.2698434,2.7773437 q 0,0.7578125 -0.351562,1.3945313 -0.347657,0.6367187 -1.039063,1.0117187 -0.691406,0.375 -1.683594,0.375 -1.003906,0 -1.699218,-0.390625 -0.695313,-0.390625 -1.035157,-1.0273437 -0.3359371,-0.6367188 -0.3359371,-1.3632813 0,-0.7304688 0.3359371,-1.3632812 0.335938,-0.6367188 1.03125,-1.0234375 0.699219,-0.390625 1.703125,-0.390625 0.75,0 1.335938,0.2226562 0.589844,0.2226563 0.96875,0.6054688 0.378906,0.3789062 0.574219,0.8867187 0.195312,0.5039062 0.195312,1.0625 z m -1.664062,0 q 0,-0.3046875 -0.08984,-0.5546875 -0.08984,-0.2539063 -0.273438,-0.4375 -0.179687,-0.1875 -0.441406,-0.2890625 -0.261719,-0.1054687 -0.605469,-0.1054687 -0.65625,0 -1.03125,0.3828124 -0.375,0.3828125 -0.375,1.0039063 0,0.6210937 0.375,1.0078125 0.378907,0.3828125 1.03125,0.3828125 0.449219,0 0.765625,-0.1757812 0.316407,-0.1796875 0.480469,-0.4921875 0.164063,-0.3164063 0.164063,-0.7226563 z m 5.53547,2.52734375 q -0.175782,0.0664063 -0.371094,0.125 -0.195313,0.0546875 -0.441406,0.08984375 -0.242188,0.0390625 -0.53125,0.0390625 -0.652344,0 -1.105469,-0.21875 Q 17.075157,-0.37109375 16.829063,-0.703125 16.586876,-1.0390625 16.493126,-1.3867187 16.399376,-1.734375 16.399376,-2 q 0,-0.265625 0.09375,-0.6132813 0.09766,-0.3476562 0.335937,-0.671875 0.238282,-0.3242187 0.6875,-0.5429687 0.453125,-0.21875 1.113282,-0.21875 0.441406,0 0.71875,0.0625 0.277343,0.0625 0.5625,0.1679687 v 1.1054688 q -0.6875,-0.21875 -1.074219,-0.21875 -0.375,0 -0.667969,0.2265625 Q 17.879845,-2.4765625 17.879845,-2 q 0,0.3164063 0.144531,0.5351563 0.144531,0.2148437 0.367187,0.3164062 0.222657,0.1015625 0.445313,0.1015625 0.210937,0 0.480469,-0.0625 0.269531,-0.0625 0.65625,-0.1796875 z m 3.500311,-0.046875 q -0.21875,0.10546875 -0.605469,0.203125 -0.382813,0.09765625 -0.734375,0.09765625 -1.519531,0 -1.519531,-1.484375 V -3 h -0.636719 v -0.2460938 l 1.886719,-1.9218749 h 0.160156 v 1.1914062 h 1.34375 V -3 h -1.34375 v 1.2734375 q 0,0.2226563 0.02734,0.359375 0.02734,0.1367188 0.152343,0.2304688 0.128907,0.089844 0.386719,0.089844 0.335938,0 0.882813,-0.28125 z M 30.904219,-0.40625 q -0.335938,0.17578125 -0.6875,0.28125 -0.351563,0.10546875 -0.710938,0.1484375 -0.355469,0.046875 -0.738281,0.046875 -0.707031,0 -1.269531,-0.1953125 Q 26.939375,-0.3203125 26.525312,-0.69921875 26.115156,-1.0820312 25.908125,-1.5898437 25.705,-2.1015625 25.705,-2.7109375 q 0,-0.6992188 0.242187,-1.2226563 0.242188,-0.5273437 0.675782,-0.8749999 0.4375,-0.3476563 0.992187,-0.5117188 0.558594,-0.1679687 1.175781,-0.1679687 0.921875,0 2.089844,0.4101562 v 1.4375 q -0.402344,-0.25 -0.796875,-0.4140625 -0.390625,-0.1679687 -0.921875,-0.1679687 -0.472656,0 -0.882812,0.1875 -0.410157,0.1874999 -0.660157,0.5351562 -0.25,0.3476562 -0.25,0.8125 0,0.4101562 0.21875,0.7539063 0.21875,0.3398437 0.605469,0.5429687 0.390625,0.1992188 0.878906,0.1992188 0.394532,0 0.746094,-0.09375 0.351563,-0.097656 0.589844,-0.2148438 0.242187,-0.1171875 0.496094,-0.2773437 z"
         id="text27"
         style="font-weight:700;font-size:8px;font-family:GillSans-Bold, 'Gill Sans';letter-spacing:-0.04em"
         transform="matrix(0.88,0,0,1,18.2,239.7)"
         aria-label="V/Oct C" />
      <path
         d="M 6.9765625,0 H 5.34375 V -3.1367188 L 3.8710938,-1.3203125 H 3.7421875 L 2.265625,-3.1367188 V 0 H 0.6796875 v -5.4140625 h 1.4804688 l 1.6640625,2.03125 1.6718749,-2.03125 h 1.4804688 z m 2.1839061,-4.8945312 q 0,0.2460937 -0.1757813,0.4179687 -0.1757812,0.171875 -0.4179687,0.171875 -0.1640625,0 -0.3007813,-0.078125 -0.1328125,-0.078125 -0.2109375,-0.2109375 -0.078125,-0.1367187 -0.078125,-0.3007812 0,-0.2421875 0.171875,-0.4179688 0.171875,-0.1757812 0.4179688,-0.1757812 0.2421875,0 0.4179687,0.1757812 0.1757813,0.1757813 0.1757813,0.4179688 z M 9.2737498,0 H 7.8635936 V -3.9765625 H 9.2737498 Z M 14.352187,0 H 12.617812 L 11.848281,-1.1289062 11.082656,0 H 9.5435934 L 11.082656,-1.953125 9.5123434,-3.9765625 h 1.7304686 l 0.734375,1.0820312 0.742188,-1.0820312 h 1.539062 l -1.503906,1.8867187 z"
         id="text28"
         style="font-weight:700;font-size:8px;font-family:GillSans-Bold, 'Gill Sans';letter-spacing:-0.04em"
         transform="translate(25.41 287.83) scale(.88 1)"
         aria-label="Mix" />
      <path
         d="m 4.4648437,-1.5742187 q 0,0.5078125 -0.2617187,0.8789062 Q 3.9453125,-0.32421875 3.4804688,-0.125 3.015625,0.0703125 2.4140625,0.0703125 2.2460938,0.0703125 2,0.046875 1.7578125,0.02734375 1.3515625,-0.0703125 0.94921875,-0.16796875 0.51171875,-0.359375 V -1.6875 q 0.41015625,0.2539063 0.80468745,0.421875 0.3984375,0.1679688 0.8515626,0.1679688 0.4179687,0 0.5390625,-0.1367188 0.125,-0.140625 0.125,-0.2617187 0,-0.21875 -0.2109375,-0.3671875 Q 2.4101563,-2.015625 2.0078125,-2.1757813 1.5625,-2.3632813 1.2265625,-2.5820313 0.890625,-2.8046875 0.67578125,-3.1367188 0.46484375,-3.46875 0.46484375,-3.921875 q 0,-0.4375 0.21484375,-0.7890625 0.21484375,-0.3554687 0.65625,-0.5664062 0.4414062,-0.2109375 1.078125,-0.2109375 0.453125,0 0.8359375,0.089844 0.3867188,0.085937 0.6367188,0.1953125 0.2499999,0.109375 0.3437499,0.171875 v 1.2695312 Q 3.8984375,-4 3.4882813,-4.1875 3.0820313,-4.375 2.6171875,-4.375 2.3125,-4.375 2.1757813,-4.2578125 2.0390625,-4.140625 2.0390625,-3.96875 q 0,0.1601562 0.1367188,0.2773437 0.1367187,0.1171875 0.4882812,0.2851563 0.625,0.2929687 1,0.5273437 0.375,0.234375 0.5859375,0.5429688 0.2148437,0.3046875 0.2148437,0.7617188 z M 9.2698436,0 h -1.40625 v -2.0625 q 0,-0.023437 0,-0.042969 0.00391,-0.023437 0.00391,-0.09375 0,-0.2851562 -0.1210937,-0.5234375 -0.1210938,-0.2382812 -0.4609375,-0.2382812 -0.265625,0 -0.46875,0.1796875 -0.203125,0.1757812 -0.3867188,0.4453125 V 0 h -1.40625 v -5.4140625 h 1.40625 V -3.40625 q 0.3476563,-0.3710938 0.6875,-0.5039063 0.3398438,-0.1367187 0.7226563,-0.1367187 1.4296875,0 1.4296875,1.6054687 z M 13.918593,-0.19921875 Q 13.61,-0.078125 13.348281,-0.00390625 13.086562,0.0703125 12.719375,0.0703125 q -0.347657,0 -0.484375,-0.12109375 -0.136719,-0.125 -0.195313,-0.30078125 -0.226562,0.18359375 -0.503906,0.3046875 -0.277344,0.1171875 -0.726563,0.1171875 -0.433593,0 -0.703125,-0.1484375 Q 9.8404684,-0.23046875 9.7310934,-0.45703125 9.6256247,-0.6875 9.6256247,-0.9296875 q 0,-0.3671875 0.1835937,-0.6054687 0.1875,-0.2421875 0.4999996,-0.3945313 0.3125,-0.1523438 0.828125,-0.3164063 0.292969,-0.09375 0.441407,-0.140625 0.152343,-0.050781 0.226562,-0.078125 0.07422,-0.027344 0.15625,-0.070312 0,-0.2890625 -0.117187,-0.453125 -0.117188,-0.1640625 -0.507813,-0.1640625 -0.460937,0 -0.855469,0.203125 -0.394531,0.203125 -0.7226558,0.5234375 v -1.078125 q 0.2617188,-0.1875 0.5664058,-0.3046875 0.304688,-0.1210937 0.636719,-0.1796875 0.332031,-0.058594 0.671875,-0.058594 0.863281,0 1.296875,0.3359375 0.4375,0.3320312 0.4375,0.9179687 v 1.5351563 q 0,0.21875 0.03906,0.328125 0.04297,0.10546875 0.152343,0.10546875 0.132813,0 0.359375,-0.11328125 z M 11.961562,-0.9609375 v -0.9414062 q -0.5,0.203125 -0.730469,0.3671875 -0.230468,0.1601562 -0.230468,0.4375 0,0.1992187 0.113281,0.30468745 0.117187,0.10546875 0.269531,0.10546875 0.144531,0 0.285156,-0.078125 0.144532,-0.0820313 0.292969,-0.1953125 z m 6.558907,-1.0546875 q 0,0.3984375 -0.113282,0.7695313 -0.113281,0.3710937 -0.347656,0.67187495 -0.230469,0.296875 -0.597656,0.47265625 -0.363281,0.171875 -0.847656,0.171875 -0.390625,0 -0.617188,-0.08203125 -0.222656,-0.08203125 -0.445312,-0.21875 V 1.8085937 h -1.40625 v -5.7851562 h 1.40625 v 0.359375 q 0.210937,-0.1835938 0.464843,-0.3046875 0.257813,-0.125 0.695313,-0.125 0.433594,0 0.851562,0.2148437 0.417969,0.2148438 0.6875,0.671875 0.269532,0.453125 0.269532,1.1445313 z M 17.04,-1.984375 q 0,-0.359375 -0.113281,-0.5820313 -0.113282,-0.2265625 -0.292969,-0.3242187 -0.179688,-0.1015625 -0.371094,-0.1015625 -0.25,0 -0.410156,0.082031 -0.160156,0.078125 -0.300781,0.1992188 v 1.5195313 q 0.07422,0.039063 0.15625,0.089844 0.08594,0.046875 0.167968,0.082031 0.08594,0.0351562 0.179688,0.0585937 0.09766,0.0234375 0.207031,0.0234375 0.332031,0 0.554688,-0.28125 Q 17.04,-1.5 17.04,-1.984375 Z m 5.969062,0.3359375 h -2.800781 q 0.08203,0.3632813 0.402343,0.59375 0.320313,0.23046875 0.726563,0.23046875 0.710937,0 1.570312,-0.39843745 v 0.8710937 q -0.308593,0.16015625 -0.75,0.29296875 -0.4375,0.12890625 -1.117187,0.12890625 -0.734375,0 -1.25,-0.2734375 -0.515625,-0.2734375 -0.773438,-0.7421875 -0.253906,-0.46875 -0.253906,-1.0625 0,-0.5859375 0.253906,-1.046875 0.257813,-0.4648438 0.773438,-0.7265625 0.515625,-0.265625 1.25,-0.265625 0.484375,0 0.933594,0.2109375 0.453125,0.2070312 0.742187,0.6835937 0.292969,0.4726563 0.292969,1.2226563 z M 21.688749,-2.34375 q 0,-0.3828125 -0.191406,-0.609375 -0.1875,-0.2304688 -0.542969,-0.2304688 -0.351562,0 -0.570312,0.234375 -0.214844,0.2304688 -0.214844,0.6054688 z"
         id="text29"
         style="font-weight:700;font-size:8px;font-family:GillSans-Bold, 'Gill Sans';letter-spacing:-0.04em"
         transform="translate(21.65 335.09) scale(.88 1)"
         aria-label="Shape" />
      <g
         id="g110">
        <g
           id="pips_-_fewest"
           data-name="pips - fewest">
          <g
             style="clip-path: url(#clippath);"
             clip-path="url(#clippath)"
             id="g39">
            <g
               style="clip-path: url(#clippath-1);"
               clip-path="url(#clippath-1)"
               id="g38">
              <path
                 d="M37.31,115.58l.71-1.23c-1.74-.9-3.7-1.45-5.77-1.55v1.43c1.81.09,3.53.56,5.06,1.35"
                 style="fill: #000; stroke-width: 0px;"
                 id="path29" />
              <path
                 d="M42.11,119.92l1.23-.71c-1.09-1.69-2.53-3.14-4.22-4.22l-.71,1.23c1.48.96,2.74,2.22,3.7,3.7"
                 style="fill: #000; stroke-width: 0px;"
                 id="path30" />
              <path
                 d="M24.84,116.22l-.71-1.23c-1.69,1.09-3.14,2.53-4.22,4.22l1.23.71c.96-1.48,2.22-2.74,3.7-3.7"
                 style="fill: #000; stroke-width: 0px;"
                 id="path31" />
              <path
                 d="M44.1,126.07h1.43c-.09-2.07-.64-4.03-1.55-5.77l-1.23.71c.79,1.53,1.26,3.24,1.35,5.06"
                 style="fill: #000; stroke-width: 0px;"
                 id="path32" />
              <path
                 d="M30.99,114.23v-1.43c-2.07.09-4.03.64-5.77,1.55l.71,1.23c1.53-.79,3.24-1.26,5.06-1.35"
                 style="fill: #000; stroke-width: 0px;"
                 id="path33" />
              <path
                 d="M21.13,133.49l-1.23.71c1.09,1.69,2.53,3.14,4.22,4.22l.71-1.23c-1.48-.96-2.74-2.22-3.7-3.7"
                 style="fill: #000; stroke-width: 0px;"
                 id="path34" />
              <path
                 d="M38.41,137.19l.71,1.23c1.69-1.09,3.14-2.53,4.22-4.22l-1.23-.71c-.96,1.48-2.22,2.74-3.7,3.7"
                 style="fill: #000; stroke-width: 0px;"
                 id="path35" />
              <path
                 d="M44.1,127.34c-.09,1.81-.56,3.53-1.35,5.06l1.23.71c.9-1.74,1.45-3.7,1.55-5.77h-1.43Z"
                 style="fill: #000; stroke-width: 0px;"
                 id="path36" />
              <path
                 d="M19.15,127.34h-1.43c.09,2.07.64,4.03,1.55,5.77l1.23-.71c-.79-1.53-1.26-3.24-1.35-5.06"
                 style="fill: #000; stroke-width: 0px;"
                 id="path37" />
              <path
                 d="M20.5,121.01l-1.23-.71c-.9,1.74-1.45,3.7-1.55,5.77h1.43c.09-1.81.56-3.53,1.35-5.06"
                 style="fill: #000; stroke-width: 0px;"
                 id="path38" />
            </g>
          </g>
        </g>
        <path
           d="M 5.921875,0 H 4.1679687 L 3.7421875,-0.9609375 Q 3.5078125,-1.4882812 3.3203125,-1.7304687 3.1328125,-1.9765625 2.953125,-2.0429688 2.7773438,-2.1132813 2.4960938,-2.1132813 H 2.3125 V 0 H 0.6796875 v -5.4140625 h 2.7773438 q 0.6718749,0 1.1015624,0.2734375 0.4296875,0.2734375 0.6171875,0.6640625 0.1914063,0.390625 0.1914063,0.7421875 0,0.4101562 -0.1601563,0.6953125 Q 5.0507812,-2.7578125 4.875,-2.6289063 4.6992187,-2.5 4.4804687,-2.3828125 4.7421875,-2.2304688 4.9101562,-2.0195313 5.0820312,-1.8125 5.375,-1.1757812 Z m -2.21875,-3.703125 q 0,-0.375 -0.2460937,-0.5234375 Q 3.2109375,-4.375 2.65625,-4.375 H 2.3125 v 1.3046875 h 0.3515625 q 0.5976563,0 0.8164063,-0.1289063 Q 3.703125,-3.3320313 3.703125,-3.703125 Z m 6.765937,3.50390625 Q 10.160469,-0.078125 9.8987498,-0.00390625 9.6370311,0.0703125 9.2698436,0.0703125 q -0.3476563,0 -0.484375,-0.12109375 -0.1367188,-0.125 -0.1953125,-0.30078125 -0.2265625,0.18359375 -0.5039063,0.3046875 -0.2773437,0.1171875 -0.7265625,0.1171875 -0.4335937,0 -0.703125,-0.1484375 -0.265625,-0.15234375 -0.375,-0.37890625 Q 6.1760936,-0.6875 6.1760936,-0.9296875 q 0,-0.3671875 0.1835937,-0.6054687 0.1875,-0.2421875 0.5,-0.3945313 0.3125,-0.1523438 0.828125,-0.3164063 0.2929688,-0.09375 0.4414063,-0.140625 0.1523437,-0.050781 0.2265625,-0.078125 0.074219,-0.027344 0.15625,-0.070312 0,-0.2890625 -0.1171875,-0.453125 -0.1171875,-0.1640625 -0.5078125,-0.1640625 -0.4609375,0 -0.8554688,0.203125 -0.3945312,0.203125 -0.7226562,0.5234375 v -1.078125 q 0.2617187,-0.1875 0.5664062,-0.3046875 0.3046875,-0.1210937 0.6367188,-0.1796875 0.3320312,-0.058594 0.671875,-0.058594 0.8632812,0 1.296875,0.3359375 0.4375,0.3320312 0.4375,0.9179687 v 1.5351563 q 0,0.21875 0.039063,0.328125 0.042968,0.10546875 0.1523434,0.10546875 0.132813,0 0.359375,-0.11328125 z M 8.5120311,-0.9609375 v -0.9414062 q -0.5,0.203125 -0.7304688,0.3671875 -0.2304687,0.1601562 -0.2304687,0.4375 0,0.1992187 0.1132812,0.30468745 Q 7.7815623,-0.6875 7.9339061,-0.6875 q 0.1445312,0 0.2851562,-0.078125 0.1445313,-0.0820313 0.2929688,-0.1953125 z m 5.2151559,0.73046875 q -0.21875,0.10546875 -0.605469,0.203125 -0.382812,0.09765625 -0.734375,0.09765625 -1.519531,0 -1.519531,-1.484375 V -3 h -0.636719 v -0.2460938 l 1.886719,-1.9218749 h 0.160156 v 1.1914062 h 1.34375 V -3 h -1.34375 v 1.2734375 q 0,0.2226563 0.02734,0.359375 0.02734,0.1367188 0.152344,0.2304688 0.128906,0.089844 0.386719,0.089844 0.335937,0 0.882812,-0.28125 z m 1.664375,-4.66406245 q 0,0.2460937 -0.175781,0.4179687 -0.175781,0.171875 -0.417969,0.171875 -0.164062,0 -0.300781,-0.078125 -0.132812,-0.078125 -0.210937,-0.2109375 -0.07813,-0.1367187 -0.07813,-0.3007812 0,-0.2421875 0.171875,-0.4179688 0.171875,-0.1757812 0.417968,-0.1757812 0.242188,0 0.417969,0.1757812 0.175781,0.1757813 0.175781,0.4179688 z M 15.504844,0 h -1.410157 v -3.9765625 h 1.410157 z m 5.039375,-1.9921875 q 0,0.59375 -0.257812,1.05859375 -0.257813,0.46484375 -0.773438,0.734375 -0.511719,0.26953125 -1.25,0.26953125 -0.738281,0 -1.253906,-0.26953125 -0.511719,-0.26953125 -0.769531,-0.734375 -0.253907,-0.46484375 -0.253907,-1.05859375 0,-0.4492188 0.140625,-0.8164063 0.144532,-0.3671875 0.433594,-0.6484375 0.292969,-0.2851562 0.71875,-0.4375 0.425781,-0.1523437 0.984375,-0.1523437 0.5625,0 0.992188,0.15625 0.433593,0.1523437 0.714843,0.4296875 0.285157,0.2773437 0.429688,0.6484375 0.144531,0.3710937 0.144531,0.8203125 z m -1.480469,0 q 0,-0.4726563 -0.207031,-0.7382813 Q 18.653594,-3 18.262969,-3 q -0.386719,0 -0.59375,0.2695312 -0.203125,0.265625 -0.203125,0.7382813 0,0.46875 0.207031,0.7421875 0.207032,0.2734375 0.589844,0.2734375 0.390625,0 0.59375,-0.2695312 0.207031,-0.2734375 0.207031,-0.7460938 z m 9.024062,1.5859375 q -0.335937,0.17578125 -0.6875,0.28125 -0.351562,0.10546875 -0.710937,0.1484375 -0.355469,0.046875 -0.738281,0.046875 -0.707032,0 -1.269532,-0.1953125 -0.558593,-0.1953125 -0.972656,-0.57421875 -0.410156,-0.38281245 -0.617187,-0.89062495 -0.203125,-0.5117188 -0.203125,-1.1210938 0,-0.6992188 0.242187,-1.2226563 0.242188,-0.5273437 0.675781,-0.8749999 0.4375,-0.3476563 0.992188,-0.5117188 0.558594,-0.1679687 1.175781,-0.1679687 0.921875,0 2.089844,0.4101562 v 1.4375 q -0.402344,-0.25 -0.796875,-0.4140625 -0.390625,-0.1679687 -0.921875,-0.1679687 -0.472656,0 -0.882813,0.1875 -0.410156,0.1874999 -0.660156,0.5351562 -0.25,0.3476562 -0.25,0.8125 0,0.4101562 0.21875,0.7539063 0.21875,0.3398437 0.605469,0.5429687 0.390625,0.1992188 0.878906,0.1992188 0.394531,0 0.746094,-0.09375 0.351562,-0.097656 0.589844,-0.2148438 0.242187,-0.1171875 0.496093,-0.2773437 z"
           id="text39"
           style="font-weight:700;font-size:8px;font-family:GillSans-Bold, 'Gill Sans';letter-spacing:-0.04em"
           transform="translate(19.32 146.38) scale(.88 1)"
           aria-label="Ratio C" />
        <g
           id="pips_-_fewest-2"
           data-name="pips - fewest">
          <g
             style="clip-path: url(#clippath-2);"
             clip-path="url(#clippath-2)"
             id="g49">
            <g
               style="clip-path: url(#clippath-3);"
               clip-path="url(#clippath-3)"
               id="g48">
              <path
                 d="M88.85,115.58l.71-1.23c-1.74-.9-3.7-1.45-5.77-1.55v1.43c1.81.09,3.53.56,5.06,1.35"
                 style="fill: #000; stroke-width: 0px;"
                 id="path39" />
              <path
                 d="M93.65,119.92l1.23-.71c-1.09-1.69-2.53-3.14-4.22-4.22l-.71,1.23c1.48.96,2.74,2.22,3.7,3.7"
                 style="fill: #000; stroke-width: 0px;"
                 id="path40" />
              <path
                 d="M76.37,116.22l-.71-1.23c-1.69,1.09-3.14,2.53-4.22,4.22l1.23.71c.96-1.48,2.22-2.74,3.7-3.7"
                 style="fill: #000; stroke-width: 0px;"
                 id="path41" />
              <path
                 d="M95.63,126.07h1.43c-.09-2.07-.64-4.03-1.55-5.77l-1.23.71c.79,1.53,1.26,3.24,1.35,5.06"
                 style="fill: #000; stroke-width: 0px;"
                 id="path42" />
              <path
                 d="M82.53,114.23v-1.43c-2.07.09-4.03.64-5.77,1.55l.71,1.23c1.53-.79,3.24-1.26,5.06-1.35"
                 style="fill: #000; stroke-width: 0px;"
                 id="path43" />
              <path
                 d="M72.67,133.49l-1.23.71c1.09,1.69,2.53,3.14,4.22,4.22l.71-1.23c-1.48-.96-2.74-2.22-3.7-3.7"
                 style="fill: #000; stroke-width: 0px;"
                 id="path44" />
              <path
                 d="M89.94,137.19l.71,1.23c1.69-1.09,3.14-2.53,4.22-4.22l-1.23-.71c-.96,1.48-2.22,2.74-3.7,3.7"
                 style="fill: #000; stroke-width: 0px;"
                 id="path45" />
              <path
                 d="M95.63,127.34c-.09,1.81-.56,3.53-1.35,5.06l1.23.71c.9-1.74,1.45-3.7,1.55-5.77h-1.43Z"
                 style="fill: #000; stroke-width: 0px;"
                 id="path46" />
              <path
                 d="M70.68,127.34h-1.43c.09,2.07.64,4.03,1.55,5.77l1.23-.71c-.79-1.53-1.26-3.24-1.35-5.06"
                 style="fill: #000; stroke-width: 0px;"
                 id="path47" />
              <path
                 d="M72.04,121.01l-1.23-.71c-.9,1.74-1.45,3.7-1.55,5.77h1.43c.09-1.81.56-3.53,1.35-5.06"
                 style="fill: #000; stroke-width: 0px;"
                 id="path48" />
            </g>
          </g>
        </g>
        <path
           d="M 5.921875,0 H 4.1679687 L 3.7421875,-0.9609375 Q 3.5078125,-1.4882812 3.3203125,-1.7304687 3.1328125,-1.9765625 2.953125,-2.0429688 2.7773438,-2.1132813 2.4960938,-2.1132813 H 2.3125 V 0 H 0.6796875 v -5.4140625 h 2.7773438 q 0.6718749,0 1.1015624,0.2734375 0.4296875,0.2734375 0.6171875,0.6640625 0.1914063,0.390625 0.1914063,0.7421875 0,0.4101562 -0.1601563,0.6953125 Q 5.0507812,-2.7578125 4.875,-2.6289063 4.6992187,-2.5 4.4804687,-2.3828125 4.7421875,-2.2304688 4.9101562,-2.0195313 5.0820312,-1.8125 5.375,-1.1757812 Z m -2.21875,-3.703125 q 0,-0.375 -0.2460937,-0.5234375 Q 3.2109375,-4.375 2.65625,-4.375 H 2.3125 v 1.3046875 h 0.3515625 q 0.5976563,0 0.8164063,-0.1289063 Q 3.703125,-3.3320313 3.703125,-3.703125 Z m 6.765937,3.50390625 Q 10.160469,-0.078125 9.8987498,-0.00390625 9.6370311,0.0703125 9.2698436,0.0703125 q -0.3476563,0 -0.484375,-0.12109375 -0.1367188,-0.125 -0.1953125,-0.30078125 -0.2265625,0.18359375 -0.5039063,0.3046875 -0.2773437,0.1171875 -0.7265625,0.1171875 -0.4335937,0 -0.703125,-0.1484375 -0.265625,-0.15234375 -0.375,-0.37890625 Q 6.1760936,-0.6875 6.1760936,-0.9296875 q 0,-0.3671875 0.1835937,-0.6054687 0.1875,-0.2421875 0.5,-0.3945313 0.3125,-0.1523438 0.828125,-0.3164063 0.2929688,-0.09375 0.4414063,-0.140625 0.1523437,-0.050781 0.2265625,-0.078125 0.074219,-0.027344 0.15625,-0.070312 0,-0.2890625 -0.1171875,-0.453125 -0.1171875,-0.1640625 -0.5078125,-0.1640625 -0.4609375,0 -0.8554688,0.203125 -0.3945312,0.203125 -0.7226562,0.5234375 v -1.078125 q 0.2617187,-0.1875 0.5664062,-0.3046875 0.3046875,-0.1210937 0.6367188,-0.1796875 0.3320312,-0.058594 0.671875,-0.058594 0.8632812,0 1.296875,0.3359375 0.4375,0.3320312 0.4375,0.9179687 v 1.5351563 q 0,0.21875 0.039063,0.328125 0.042968,0.10546875 0.1523434,0.10546875 0.132813,0 0.359375,-0.11328125 z M 8.5120311,-0.9609375 v -0.9414062 q -0.5,0.203125 -0.7304688,0.3671875 -0.2304687,0.1601562 -0.2304687,0.4375 0,0.1992187 0.1132812,0.30468745 Q 7.7815623,-0.6875 7.9339061,-0.6875 q 0.1445312,0 0.2851562,-0.078125 0.1445313,-0.0820313 0.2929688,-0.1953125 z m 5.2151559,0.73046875 q -0.21875,0.10546875 -0.605469,0.203125 -0.382812,0.09765625 -0.734375,0.09765625 -1.519531,0 -1.519531,-1.484375 V -3 h -0.636719 v -0.2460938 l 1.886719,-1.9218749 h 0.160156 v 1.1914062 h 1.34375 V -3 h -1.34375 v 1.2734375 q 0,0.2226563 0.02734,0.359375 0.02734,0.1367188 0.152344,0.2304688 0.128906,0.089844 0.386719,0.089844 0.335937,0 0.882812,-0.28125 z m 1.664375,-4.66406245 q 0,0.2460937 -0.175781,0.4179687 -0.175781,0.171875 -0.417969,0.171875 -0.164062,0 -0.300781,-0.078125 -0.132812,-0.078125 -0.210937,-0.2109375 -0.07813,-0.1367187 -0.07813,-0.3007812 0,-0.2421875 0.171875,-0.4179688 0.171875,-0.1757812 0.417968,-0.1757812 0.242188,0 0.417969,0.1757812 0.175781,0.1757813 0.175781,0.4179688 z M 15.504844,0 h -1.410157 v -3.9765625 h 1.410157 z m 5.039375,-1.9921875 q 0,0.59375 -0.257812,1.05859375 -0.257813,0.46484375 -0.773438,0.734375 -0.511719,0.26953125 -1.25,0.26953125 -0.738281,0 -1.253906,-0.26953125 -0.511719,-0.26953125 -0.769531,-0.734375 -0.253907,-0.46484375 -0.253907,-1.05859375 0,-0.4492188 0.140625,-0.8164063 0.144532,-0.3671875 0.433594,-0.6484375 0.292969,-0.2851562 0.71875,-0.4375 0.425781,-0.1523437 0.984375,-0.1523437 0.5625,0 0.992188,0.15625 0.433593,0.1523437 0.714843,0.4296875 0.285157,0.2773437 0.429688,0.6484375 0.144531,0.3710937 0.144531,0.8203125 z m -1.480469,0 q 0,-0.4726563 -0.207031,-0.7382813 Q 18.653594,-3 18.262969,-3 q -0.386719,0 -0.59375,0.2695312 -0.203125,0.265625 -0.203125,0.7382813 0,0.46875 0.207031,0.7421875 0.207032,0.2734375 0.589844,0.2734375 0.390625,0 0.59375,-0.2695312 0.207031,-0.2734375 0.207031,-0.7460938 z m 8.055312,-0.1992188 H 24.872969 V 0 h -1.632813 v -5.4140625 h 3.878906 v 1.0859375 h -2.246093 v 1.046875 h 2.246093 z"
           id="text49"
           style="font-weight:700;font-size:8px;font-family:GillSans-Bold, 'Gill Sans';letter-spacing:-0.04em"
           transform="translate(71.28 146.38) scale(.88 1)"
           aria-label="Ratio F" />
        <g
           id="pips_-_fewest-3"
           data-name="pips - fewest">
          <g
             style="clip-path: url(#clippath-4);"
             clip-path="url(#clippath-4)"
             id="g59">
            <g
               style="clip-path: url(#clippath-5);"
               clip-path="url(#clippath-5)"
               id="g58">
              <path
                 d="M37.31,158.72l.71-1.23c-1.74-.9-3.7-1.45-5.77-1.55v1.43c1.81.09,3.53.56,5.06,1.35"
                 style="fill: #000; stroke-width: 0px;"
                 id="path49" />
              <path
                 d="M42.11,163.06l1.23-.71c-1.09-1.69-2.53-3.14-4.22-4.22l-.71,1.23c1.48.96,2.74,2.22,3.7,3.7"
                 style="fill: #000; stroke-width: 0px;"
                 id="path50" />
              <path
                 d="M24.84,159.36l-.71-1.23c-1.69,1.09-3.14,2.53-4.22,4.22l1.23.71c.96-1.48,2.22-2.74,3.7-3.7"
                 style="fill: #000; stroke-width: 0px;"
                 id="path51" />
              <path
                 d="M44.1,169.21h1.43c-.09-2.07-.64-4.03-1.55-5.77l-1.23.71c.79,1.53,1.26,3.24,1.35,5.06"
                 style="fill: #000; stroke-width: 0px;"
                 id="path52" />
              <path
                 d="M30.99,157.37v-1.43c-2.07.09-4.03.64-5.77,1.55l.71,1.23c1.53-.79,3.24-1.26,5.06-1.35"
                 style="fill: #000; stroke-width: 0px;"
                 id="path53" />
              <path
                 d="M21.13,176.63l-1.23.71c1.09,1.69,2.53,3.14,4.22,4.22l.71-1.23c-1.48-.96-2.74-2.22-3.7-3.7"
                 style="fill: #000; stroke-width: 0px;"
                 id="path54" />
              <path
                 d="M38.41,180.34l.71,1.23c1.69-1.09,3.14-2.53,4.22-4.22l-1.23-.71c-.96,1.48-2.22,2.74-3.7,3.7"
                 style="fill: #000; stroke-width: 0px;"
                 id="path55" />
              <path
                 d="M44.1,170.48c-.09,1.81-.56,3.53-1.35,5.06l1.23.71c.9-1.74,1.45-3.7,1.55-5.77h-1.43Z"
                 style="fill: #000; stroke-width: 0px;"
                 id="path56" />
              <path
                 d="M19.15,170.48h-1.43c.09,2.07.64,4.03,1.55,5.77l1.23-.71c-.79-1.53-1.26-3.24-1.35-5.06"
                 style="fill: #000; stroke-width: 0px;"
                 id="path57" />
              <path
                 d="M20.5,164.16l-1.23-.71c-.9,1.74-1.45,3.7-1.55,5.77h1.43c.09-1.81.56-3.53,1.35-5.06"
                 style="fill: #000; stroke-width: 0px;"
                 id="path58" />
            </g>
          </g>
        </g>
        <path
           d="m 4.4648437,-1.5742187 q 0,0.5078125 -0.2617187,0.8789062 Q 3.9453125,-0.32421875 3.4804688,-0.125 3.015625,0.0703125 2.4140625,0.0703125 2.2460938,0.0703125 2,0.046875 1.7578125,0.02734375 1.3515625,-0.0703125 0.94921875,-0.16796875 0.51171875,-0.359375 V -1.6875 q 0.41015625,0.2539063 0.80468745,0.421875 0.3984375,0.1679688 0.8515626,0.1679688 0.4179687,0 0.5390625,-0.1367188 0.125,-0.140625 0.125,-0.2617187 0,-0.21875 -0.2109375,-0.3671875 Q 2.4101563,-2.015625 2.0078125,-2.1757813 1.5625,-2.3632813 1.2265625,-2.5820313 0.890625,-2.8046875 0.67578125,-3.1367188 0.46484375,-3.46875 0.46484375,-3.921875 q 0,-0.4375 0.21484375,-0.7890625 0.21484375,-0.3554687 0.65625,-0.5664062 0.4414062,-0.2109375 1.078125,-0.2109375 0.453125,0 0.8359375,0.089844 0.3867188,0.085937 0.6367188,0.1953125 0.2499999,0.109375 0.3437499,0.171875 v 1.2695312 Q 3.8984375,-4 3.4882813,-4.1875 3.0820313,-4.375 2.6171875,-4.375 2.3125,-4.375 2.1757813,-4.2578125 2.0390625,-4.140625 2.0390625,-3.96875 q 0,0.1601562 0.1367188,0.2773437 0.1367187,0.1171875 0.4882812,0.2851563 0.625,0.2929687 1,0.5273437 0.375,0.234375 0.5859375,0.5429688 0.2148437,0.3046875 0.2148437,0.7617188 z M 9.2698436,0 h -1.40625 v -2.0625 q 0,-0.023437 0,-0.042969 0.00391,-0.023437 0.00391,-0.09375 0,-0.2851562 -0.1210937,-0.5234375 -0.1210938,-0.2382812 -0.4609375,-0.2382812 -0.265625,0 -0.46875,0.1796875 -0.203125,0.1757812 -0.3867188,0.4453125 V 0 h -1.40625 v -5.4140625 h 1.40625 V -3.40625 q 0.3476563,-0.3710938 0.6875,-0.5039063 0.3398438,-0.1367187 0.7226563,-0.1367187 1.4296875,0 1.4296875,1.6054687 z M 13.918593,-0.19921875 Q 13.61,-0.078125 13.348281,-0.00390625 13.086562,0.0703125 12.719375,0.0703125 q -0.347657,0 -0.484375,-0.12109375 -0.136719,-0.125 -0.195313,-0.30078125 -0.226562,0.18359375 -0.503906,0.3046875 -0.277344,0.1171875 -0.726563,0.1171875 -0.433593,0 -0.703125,-0.1484375 Q 9.8404684,-0.23046875 9.7310934,-0.45703125 9.6256247,-0.6875 9.6256247,-0.9296875 q 0,-0.3671875 0.1835937,-0.6054687 0.1875,-0.2421875 0.4999996,-0.3945313 0.3125,-0.1523438 0.828125,-0.3164063 0.292969,-0.09375 0.441407,-0.140625 0.152343,-0.050781 0.226562,-0.078125 0.07422,-0.027344 0.15625,-0.070312 0,-0.2890625 -0.117187,-0.453125 -0.117188,-0.1640625 -0.507813,-0.1640625 -0.460937,0 -0.855469,0.203125 -0.394531,0.203125 -0.7226558,0.5234375 v -1.078125 q 0.2617188,-0.1875 0.5664058,-0.3046875 0.304688,-0.1210937 0.636719,-0.1796875 0.332031,-0.058594 0.671875,-0.058594 0.863281,0 1.296875,0.3359375 0.4375,0.3320312 0.4375,0.9179687 v 1.5351563 q 0,0.21875 0.03906,0.328125 0.04297,0.10546875 0.152343,0.10546875 0.132813,0 0.359375,-0.11328125 z M 11.961562,-0.9609375 v -0.9414062 q -0.5,0.203125 -0.730469,0.3671875 -0.230468,0.1601562 -0.230468,0.4375 0,0.1992187 0.113281,0.30468745 0.117187,0.10546875 0.269531,0.10546875 0.144531,0 0.285156,-0.078125 0.144532,-0.0820313 0.292969,-0.1953125 z m 6.558907,-1.0546875 q 0,0.3984375 -0.113282,0.7695313 -0.113281,0.3710937 -0.347656,0.67187495 -0.230469,0.296875 -0.597656,0.47265625 -0.363281,0.171875 -0.847656,0.171875 -0.390625,0 -0.617188,-0.08203125 -0.222656,-0.08203125 -0.445312,-0.21875 V 1.8085937 h -1.40625 v -5.7851562 h 1.40625 v 0.359375 q 0.210937,-0.1835938 0.464843,-0.3046875 0.257813,-0.125 0.695313,-0.125 0.433594,0 0.851562,0.2148437 0.417969,0.2148438 0.6875,0.671875 0.269532,0.453125 0.269532,1.1445313 z M 17.04,-1.984375 q 0,-0.359375 -0.113281,-0.5820313 -0.113282,-0.2265625 -0.292969,-0.3242187 -0.179688,-0.1015625 -0.371094,-0.1015625 -0.25,0 -0.410156,0.082031 -0.160156,0.078125 -0.300781,0.1992188 v 1.5195313 q 0.07422,0.039063 0.15625,0.089844 0.08594,0.046875 0.167968,0.082031 0.08594,0.0351562 0.179688,0.0585937 0.09766,0.0234375 0.207031,0.0234375 0.332031,0 0.554688,-0.28125 Q 17.04,-1.5 17.04,-1.984375 Z m 5.969062,0.3359375 h -2.800781 q 0.08203,0.3632813 0.402343,0.59375 0.320313,0.23046875 0.726563,0.23046875 0.710937,0 1.570312,-0.39843745 v 0.8710937 q -0.308593,0.16015625 -0.75,0.29296875 -0.4375,0.12890625 -1.117187,0.12890625 -0.734375,0 -1.25,-0.2734375 -0.515625,-0.2734375 -0.773438,-0.7421875 -0.253906,-0.46875 -0.253906,-1.0625 0,-0.5859375 0.253906,-1.046875 0.257813,-0.4648438 0.773438,-0.7265625 0.515625,-0.265625 1.25,-0.265625 0.484375,0 0.933594,0.2109375 0.453125,0.2070312 0.742187,0.6835937 0.292969,0.4726563 0.292969,1.2226563 z M 21.688749,-2.34375 q 0,-0.3828125 -0.191406,-0.609375 -0.1875,-0.2304688 -0.542969,-0.2304688 -0.351562,0 -0.570312,0.234375 -0.214844,0.2304688 -0.214844,0.6054688 z"
           id="text59"
           style="font-weight:700;font-size:8px;font-family:GillSans-Bold, 'Gill Sans';letter-spacing:-0.04em"
           transform="translate(21.55 189.52) scale(.88 1)"
           aria-label="Shape" />
        <g
           id="pips_-_fewest-4"
           data-name="pips - fewest">
          <g
             style="clip-path: url(#clippath-6);"
             clip-path="url(#clippath-6)"
             id="g69">
            <g
               style="clip-path: url(#clippath-7);"
               clip-path="url(#clippath-7)"
               id="g68">
              <path
                 d="M88.85,158.72l.71-1.23c-1.74-.9-3.7-1.45-5.77-1.55v1.43c1.81.09,3.53.56,5.06,1.35"
                 style="fill: #000; stroke-width: 0px;"
                 id="path59" />
              <path
                 d="M93.65,163.06l1.23-.71c-1.09-1.69-2.53-3.14-4.22-4.22l-.71,1.23c1.48.96,2.74,2.22,3.7,3.7"
                 style="fill: #000; stroke-width: 0px;"
                 id="path60" />
              <path
                 d="M76.37,159.36l-.71-1.23c-1.69,1.09-3.14,2.53-4.22,4.22l1.23.71c.96-1.48,2.22-2.74,3.7-3.7"
                 style="fill: #000; stroke-width: 0px;"
                 id="path61" />
              <path
                 d="M95.63,169.21h1.43c-.09-2.07-.64-4.03-1.55-5.77l-1.23.71c.79,1.53,1.26,3.24,1.35,5.06"
                 style="fill: #000; stroke-width: 0px;"
                 id="path62" />
              <path
                 d="M82.53,157.37v-1.43c-2.07.09-4.03.64-5.77,1.55l.71,1.23c1.53-.79,3.24-1.26,5.06-1.35"
                 style="fill: #000; stroke-width: 0px;"
                 id="path63" />
              <path
                 d="M72.67,176.63l-1.23.71c1.09,1.69,2.53,3.14,4.22,4.22l.71-1.23c-1.48-.96-2.74-2.22-3.7-3.7"
                 style="fill: #000; stroke-width: 0px;"
                 id="path64" />
              <path
                 d="M89.94,180.34l.71,1.23c1.69-1.09,3.14-2.53,4.22-4.22l-1.23-.71c-.96,1.48-2.22,2.74-3.7,3.7"
                 style="fill: #000; stroke-width: 0px;"
                 id="path65" />
              <path
                 d="M95.63,170.48c-.09,1.81-.56,3.53-1.35,5.06l1.23.71c.9-1.74,1.45-3.7,1.55-5.77h-1.43Z"
                 style="fill: #000; stroke-width: 0px;"
                 id="path66" />
              <path
                 d="M70.68,170.48h-1.43c.09,2.07.64,4.03,1.55,5.77l1.23-.71c-.79-1.53-1.26-3.24-1.35-5.06"
                 style="fill: #000; stroke-width: 0px;"
                 id="path67" />
              <path
                 d="M72.04,164.16l-1.23-.71c-.9,1.74-1.45,3.7-1.55,5.77h1.43c.09-1.81.56-3.53,1.35-5.06"
                 style="fill: #000; stroke-width: 0px;"
                 id="path68" />
            </g>
          </g>
        </g>
        <path
           d="m 4.4648437,-1.5742187 q 0,0.5078125 -0.2617187,0.8789062 Q 3.9453125,-0.32421875 3.4804688,-0.125 3.015625,0.0703125 2.4140625,0.0703125 2.2460938,0.0703125 2,0.046875 1.7578125,0.02734375 1.3515625,-0.0703125 0.94921875,-0.16796875 0.51171875,-0.359375 V -1.6875 q 0.41015625,0.2539063 0.80468745,0.421875 0.3984375,0.1679688 0.8515626,0.1679688 0.4179687,0 0.5390625,-0.1367188 0.125,-0.140625 0.125,-0.2617187 0,-0.21875 -0.2109375,-0.3671875 Q 2.4101563,-2.015625 2.0078125,-2.1757813 1.5625,-2.3632813 1.2265625,-2.5820313 0.890625,-2.8046875 0.67578125,-3.1367188 0.46484375,-3.46875 0.46484375,-3.921875 q 0,-0.4375 0.21484375,-0.7890625 0.21484375,-0.3554687 0.65625,-0.5664062 0.4414062,-0.2109375 1.078125,-0.2109375 0.453125,0 0.8359375,0.089844 0.3867188,0.085937 0.6367188,0.1953125 0.2499999,0.109375 0.3437499,0.171875 v 1.2695312 Q 3.8984375,-4 3.4882813,-4.1875 3.0820313,-4.375 2.6171875,-4.375 2.3125,-4.375 2.1757813,-4.2578125 2.0390625,-4.140625 2.0390625,-3.96875 q 0,0.1601562 0.1367188,0.2773437 0.1367187,0.1171875 0.4882812,0.2851563 0.625,0.2929687 1,0.5273437 0.375,0.234375 0.5859375,0.5429688 0.2148437,0.3046875 0.2148437,0.7617188 z M 9.2698436,0 h -1.40625 v -2.0625 q 0,-0.023437 0,-0.042969 0.00391,-0.023437 0.00391,-0.09375 0,-0.2851562 -0.1210937,-0.5234375 -0.1210938,-0.2382812 -0.4609375,-0.2382812 -0.265625,0 -0.46875,0.1796875 -0.203125,0.1757812 -0.3867188,0.4453125 V 0 h -1.40625 v -5.4140625 h 1.40625 V -3.40625 q 0.3476563,-0.3710938 0.6875,-0.5039063 0.3398438,-0.1367187 0.7226563,-0.1367187 1.4296875,0 1.4296875,1.6054687 z M 13.918593,-0.19921875 Q 13.61,-0.078125 13.348281,-0.00390625 13.086562,0.0703125 12.719375,0.0703125 q -0.347657,0 -0.484375,-0.12109375 -0.136719,-0.125 -0.195313,-0.30078125 -0.226562,0.18359375 -0.503906,0.3046875 -0.277344,0.1171875 -0.726563,0.1171875 -0.433593,0 -0.703125,-0.1484375 Q 9.8404684,-0.23046875 9.7310934,-0.45703125 9.6256247,-0.6875 9.6256247,-0.9296875 q 0,-0.3671875 0.1835937,-0.6054687 0.1875,-0.2421875 0.4999996,-0.3945313 0.3125,-0.1523438 0.828125,-0.3164063 0.292969,-0.09375 0.441407,-0.140625 0.152343,-0.050781 0.226562,-0.078125 0.07422,-0.027344 0.15625,-0.070312 0,-0.2890625 -0.117187,-0.453125 -0.117188,-0.1640625 -0.507813,-0.1640625 -0.460937,0 -0.855469,0.203125 -0.394531,0.203125 -0.7226558,0.5234375 v -1.078125 q 0.2617188,-0.1875 0.5664058,-0.3046875 0.304688,-0.1210937 0.636719,-0.1796875 0.332031,-0.058594 0.671875,-0.058594 0.863281,0 1.296875,0.3359375 0.4375,0.3320312 0.4375,0.9179687 v 1.5351563 q 0,0.21875 0.03906,0.328125 0.04297,0.10546875 0.152343,0.10546875 0.132813,0 0.359375,-0.11328125 z M 11.961562,-0.9609375 v -0.9414062 q -0.5,0.203125 -0.730469,0.3671875 -0.230468,0.1601562 -0.230468,0.4375 0,0.1992187 0.113281,0.30468745 0.117187,0.10546875 0.269531,0.10546875 0.144531,0 0.285156,-0.078125 0.144532,-0.0820313 0.292969,-0.1953125 z m 6.558907,-1.0546875 q 0,0.3984375 -0.113282,0.7695313 -0.113281,0.3710937 -0.347656,0.67187495 -0.230469,0.296875 -0.597656,0.47265625 -0.363281,0.171875 -0.847656,0.171875 -0.390625,0 -0.617188,-0.08203125 -0.222656,-0.08203125 -0.445312,-0.21875 V 1.8085937 h -1.40625 v -5.7851562 h 1.40625 v 0.359375 q 0.210937,-0.1835938 0.464843,-0.3046875 0.257813,-0.125 0.695313,-0.125 0.433594,0 0.851562,0.2148437 0.417969,0.2148438 0.6875,0.671875 0.269532,0.453125 0.269532,1.1445313 z M 17.04,-1.984375 q 0,-0.359375 -0.113281,-0.5820313 -0.113282,-0.2265625 -0.292969,-0.3242187 -0.179688,-0.1015625 -0.371094,-0.1015625 -0.25,0 -0.410156,0.082031 -0.160156,0.078125 -0.300781,0.1992188 v 1.5195313 q 0.07422,0.039063 0.15625,0.089844 0.08594,0.046875 0.167968,0.082031 0.08594,0.0351562 0.179688,0.0585937 0.09766,0.0234375 0.207031,0.0234375 0.332031,0 0.554688,-0.28125 Q 17.04,-1.5 17.04,-1.984375 Z m 5.969062,0.3359375 h -2.800781 q 0.08203,0.3632813 0.402343,0.59375 0.320313,0.23046875 0.726563,0.23046875 0.710937,0 1.570312,-0.39843745 v 0.8710937 q -0.308593,0.16015625 -0.75,0.29296875 -0.4375,0.12890625 -1.117187,0.12890625 -0.734375,0 -1.25,-0.2734375 -0.515625,-0.2734375 -0.773438,-0.7421875 -0.253906,-0.46875 -0.253906,-1.0625 0,-0.5859375 0.253906,-1.046875 0.257813,-0.4648438 0.773438,-0.7265625 0.515625,-0.265625 1.25,-0.265625 0.484375,0 0.933594,0.2109375 0.453125,0.2070312 0.742187,0.6835937 0.292969,0.4726563 0.292969,1.2226563 z M 21.688749,-2.34375 q 0,-0.3828125 -0.191406,-0.609375 -0.1875,-0.2304688 -0.542969,-0.2304688 -0.351562,0 -0.570312,0.234375 -0.214844,0.2304688 -0.214844,0.6054688 z m 8.824845,1.9375 q -0.335938,0.17578125 -0.6875,0.28125 -0.351563,0.10546875 -0.710938,0.1484375 -0.355469,0.046875 -0.738281,0.046875 -0.707031,0 -1.269531,-0.1953125 Q 26.54875,-0.3203125 26.134687,-0.69921875 25.724531,-1.0820312 25.5175,-1.5898437 q -0.203125,-0.5117188 -0.203125,-1.1210938 0,-0.6992188 0.242187,-1.2226563 0.242188,-0.5273437 0.675782,-0.8749999 0.4375,-0.3476563 0.992187,-0.5117188 0.558594,-0.1679687 1.175781,-0.1679687 0.921875,0 2.089844,0.4101562 v 1.4375 q -0.402344,-0.25 -0.796875,-0.4140625 -0.390625,-0.1679687 -0.921875,-0.1679687 -0.472656,0 -0.882812,0.1875 -0.410157,0.1874999 -0.660157,0.5351562 -0.25,0.3476562 -0.25,0.8125 0,0.4101562 0.21875,0.7539063 0.21875,0.3398437 0.605469,0.5429687 0.390625,0.1992188 0.878906,0.1992188 0.394532,0 0.746094,-0.09375 Q 29.779219,-1.3828125 30.0175,-1.5 q 0.242187,-0.1171875 0.496094,-0.2773437 z m 6.074531,-5.0078125 -2.441406,5.484375 h -1.078125 l -2.394531,-5.484375 h 1.699218 l 1.238282,3.125 1.273437,-3.125 z"
           id="text69"
           style="font-weight:700;font-size:8px;font-family:GillSans-Bold, 'Gill Sans';letter-spacing:-0.04em"
           transform="translate(66.24 189.52) scale(.88 1)"
           aria-label="Shape CV" />
        <g
           id="pips_-_fewest-5"
           data-name="pips - fewest">
          <g
             style="clip-path: url(#clippath-8);"
             clip-path="url(#clippath-8)"
             id="g79">
            <g
               style="clip-path: url(#clippath-9);"
               clip-path="url(#clippath-9)"
               id="g78">
              <path
                 d="M37.31,29.3l.71-1.23c-1.74-.9-3.7-1.45-5.77-1.55v1.43c1.81.09,3.53.56,5.06,1.35"
                 style="fill: #000; stroke-width: 0px;"
                 id="path69" />
              <path
                 d="M42.11,33.64l1.23-.71c-1.09-1.69-2.53-3.14-4.22-4.22l-.71,1.23c1.48.96,2.74,2.22,3.7,3.7"
                 style="fill: #000; stroke-width: 0px;"
                 id="path70" />
              <path
                 d="M24.84,29.93l-.71-1.23c-1.69,1.09-3.14,2.53-4.22,4.22l1.23.71c.96-1.48,2.22-2.74,3.7-3.7"
                 style="fill: #000; stroke-width: 0px;"
                 id="path71" />
              <path
                 d="M44.1,39.79h1.43c-.09-2.07-.64-4.03-1.55-5.77l-1.23.71c.79,1.53,1.26,3.24,1.35,5.06"
                 style="fill: #000; stroke-width: 0px;"
                 id="path72" />
              <path
                 d="M30.99,27.95v-1.43c-2.07.09-4.03.64-5.77,1.55l.71,1.23c1.53-.79,3.24-1.26,5.06-1.35"
                 style="fill: #000; stroke-width: 0px;"
                 id="path73" />
              <path
                 d="M21.13,47.21l-1.23.71c1.09,1.69,2.53,3.14,4.22,4.22l.71-1.23c-1.48-.96-2.74-2.22-3.7-3.7"
                 style="fill: #000; stroke-width: 0px;"
                 id="path74" />
              <path
                 d="M38.41,50.91l.71,1.23c1.69-1.09,3.14-2.53,4.22-4.22l-1.23-.71c-.96,1.48-2.22,2.74-3.7,3.7"
                 style="fill: #000; stroke-width: 0px;"
                 id="path75" />
              <path
                 d="M44.1,41.06c-.09,1.81-.56,3.53-1.35,5.06l1.23.71c.9-1.74,1.45-3.7,1.55-5.77h-1.43Z"
                 style="fill: #000; stroke-width: 0px;"
                 id="path76" />
              <path
                 d="M19.15,41.06h-1.43c.09,2.07.64,4.03,1.55,5.77l1.23-.71c-.79-1.53-1.26-3.24-1.35-5.06"
                 style="fill: #000; stroke-width: 0px;"
                 id="path77" />
              <path
                 d="M20.5,34.73l-1.23-.71c-.9,1.74-1.45,3.7-1.55,5.77h1.43c.09-1.81.56-3.53,1.35-5.06"
                 style="fill: #000; stroke-width: 0px;"
                 id="path78" />
            </g>
          </g>
        </g>
        <path
           d="m 5.3671875,-3.7109375 q 0,0.3007812 -0.1054688,0.5898437 -0.1015625,0.2851563 -0.3320312,0.5351563 -0.2304688,0.2460937 -0.625,0.4023437 Q 3.9140625,-2.03125 3.3828125,-2.03125 H 2.3125 V 0 H 0.6796875 v -5.4140625 h 2.703125 q 0.53125,0 0.921875,0.15625 0.3945312,0.15625 0.625,0.40625 0.2304687,0.25 0.3320312,0.5429688 0.1054688,0.2929687 0.1054688,0.5976562 z m -1.6640625,0.00781 q 0,-0.3867187 -0.2304687,-0.5273437 Q 3.2460938,-4.375 2.65625,-4.375 H 2.3125 v 1.3046875 h 0.3515625 q 0.40625,0 0.625,-0.050781 0.21875,-0.050781 0.3164063,-0.1875 0.097656,-0.1367187 0.097656,-0.3945312 z m 3.3870311,-1.1914062 q 0,0.2460937 -0.1757813,0.4179687 -0.1757812,0.171875 -0.4179687,0.171875 -0.1640625,0 -0.3007813,-0.078125 -0.1328125,-0.078125 -0.2109375,-0.2109375 -0.078125,-0.1367187 -0.078125,-0.3007812 0,-0.2421875 0.171875,-0.4179688 0.171875,-0.1757812 0.4179688,-0.1757812 0.2421875,0 0.4179687,0.1757812 0.1757813,0.1757813 0.1757813,0.4179688 z M 7.2034373,0 H 5.7932811 V -3.9765625 H 7.2034373 Z M 10.988906,-0.23046875 Q 10.770156,-0.125 10.383438,-0.02734375 10.000625,0.0703125 9.6490626,0.0703125 q -1.5195312,0 -1.5195312,-1.484375 V -3 H 7.4928126 v -0.2460938 l 1.8867188,-1.9218749 h 0.1601562 v 1.1914062 H 10.883438 V -3 H 9.5396876 v 1.2734375 q 0,0.2226563 0.027344,0.359375 0.027344,0.1367188 0.1523437,0.2304688 0.1289063,0.089844 0.3867189,0.089844 0.335937,0 0.882812,-0.28125 z m 3.703438,0.046875 q -0.175782,0.0664063 -0.371094,0.125 -0.195313,0.0546875 -0.441406,0.08984375 -0.242188,0.0390625 -0.53125,0.0390625 -0.652344,0 -1.105469,-0.21875 Q 11.793906,-0.37109375 11.547812,-0.703125 11.305625,-1.0390625 11.211875,-1.3867187 11.118125,-1.734375 11.118125,-2 q 0,-0.265625 0.09375,-0.6132813 0.09766,-0.3476562 0.335937,-0.671875 0.238282,-0.3242187 0.6875,-0.5429687 0.453125,-0.21875 1.113282,-0.21875 0.441406,0 0.71875,0.0625 0.277343,0.0625 0.5625,0.1679687 v 1.1054688 q -0.6875,-0.21875 -1.074219,-0.21875 -0.375,0 -0.667969,0.2265625 Q 12.598594,-2.4765625 12.598594,-2 q 0,0.3164063 0.144531,0.5351563 0.144531,0.2148437 0.367187,0.3164062 0.222657,0.1015625 0.445313,0.1015625 0.210937,0 0.480469,-0.0625 0.269531,-0.0625 0.65625,-0.1796875 z M 19.302032,0 h -1.40625 v -2.0625 q 0,-0.023437 0,-0.042969 0.0039,-0.023437 0.0039,-0.09375 0,-0.2851562 -0.121094,-0.5234375 -0.121094,-0.2382812 -0.460937,-0.2382812 -0.265625,0 -0.46875,0.1796875 -0.203125,0.1757812 -0.386719,0.4453125 V 0 h -1.40625 v -5.4140625 h 1.40625 V -3.40625 q 0.347656,-0.3710938 0.6875,-0.5039063 0.339844,-0.1367187 0.722656,-0.1367187 1.429688,0 1.429688,1.6054687 z"
           id="text79"
           style="font-weight:700;font-size:8px;font-family:GillSans-Bold, 'Gill Sans';letter-spacing:-0.04em"
           transform="translate(23.1 60.1) scale(.88 1)"
           aria-label="Pitch" />
        <g
           id="pips_-_fewest-6"
           data-name="pips - fewest">
          <g
             style="clip-path: url(#clippath-10);"
             clip-path="url(#clippath-10)"
             id="g89">
            <g
               style="clip-path: url(#clippath-11);"
               clip-path="url(#clippath-11)"
               id="g88">
              <path
                 d="M88.85,29.3l.71-1.23c-1.74-.9-3.7-1.45-5.77-1.55v1.43c1.81.09,3.53.56,5.06,1.35"
                 style="fill: #000; stroke-width: 0px;"
                 id="path79" />
              <path
                 d="M93.65,33.64l1.23-.71c-1.09-1.69-2.53-3.14-4.22-4.22l-.71,1.23c1.48.96,2.74,2.22,3.7,3.7"
                 style="fill: #000; stroke-width: 0px;"
                 id="path80" />
              <path
                 d="M76.37,29.93l-.71-1.23c-1.69,1.09-3.14,2.53-4.22,4.22l1.23.71c.96-1.48,2.22-2.74,3.7-3.7"
                 style="fill: #000; stroke-width: 0px;"
                 id="path81" />
              <path
                 d="M95.63,39.79h1.43c-.09-2.07-.64-4.03-1.55-5.77l-1.23.71c.79,1.53,1.26,3.24,1.35,5.06"
                 style="fill: #000; stroke-width: 0px;"
                 id="path82" />
              <path
                 d="M82.53,27.95v-1.43c-2.07.09-4.03.64-5.77,1.55l.71,1.23c1.53-.79,3.24-1.26,5.06-1.35"
                 style="fill: #000; stroke-width: 0px;"
                 id="path83" />
              <path
                 d="M72.67,47.21l-1.23.71c1.09,1.69,2.53,3.14,4.22,4.22l.71-1.23c-1.48-.96-2.74-2.22-3.7-3.7"
                 style="fill: #000; stroke-width: 0px;"
                 id="path84" />
              <path
                 d="M89.94,50.91l.71,1.23c1.69-1.09,3.14-2.53,4.22-4.22l-1.23-.71c-.96,1.48-2.22,2.74-3.7,3.7"
                 style="fill: #000; stroke-width: 0px;"
                 id="path85" />
              <path
                 d="M95.63,41.06c-.09,1.81-.56,3.53-1.35,5.06l1.23.71c.9-1.74,1.45-3.7,1.55-5.77h-1.43Z"
                 style="fill: #000; stroke-width: 0px;"
                 id="path86" />
              <path
                 d="M70.68,41.06h-1.43c.09,2.07.64,4.03,1.55,5.77l1.23-.71c-.79-1.53-1.26-3.24-1.35-5.06"
                 style="fill: #000; stroke-width: 0px;"
                 id="path87" />
              <path
                 d="M72.04,34.73l-1.23-.71c-.9,1.74-1.45,3.7-1.55,5.77h1.43c.09-1.81.56-3.53,1.35-5.06"
                 style="fill: #000; stroke-width: 0px;"
                 id="path88" />
            </g>
          </g>
        </g>
        <path
           d="M 6.9765625,0 H 5.34375 V -3.1367188 L 3.8710938,-1.3203125 H 3.7421875 L 2.265625,-3.1367188 V 0 H 0.6796875 v -5.4140625 h 1.4804688 l 1.6640625,2.03125 1.6718749,-2.03125 h 1.4804688 z m 2.1839061,-4.8945312 q 0,0.2460937 -0.1757813,0.4179687 -0.1757812,0.171875 -0.4179687,0.171875 -0.1640625,0 -0.3007813,-0.078125 -0.1328125,-0.078125 -0.2109375,-0.2109375 -0.078125,-0.1367187 -0.078125,-0.3007812 0,-0.2421875 0.171875,-0.4179688 0.171875,-0.1757812 0.4179688,-0.1757812 0.2421875,0 0.4179687,0.1757812 0.1757813,0.1757813 0.1757813,0.4179688 z M 9.2737498,0 H 7.8635936 V -3.9765625 H 9.2737498 Z M 14.352187,0 H 12.617812 L 11.848281,-1.1289062 11.082656,0 H 9.5435934 L 11.082656,-1.953125 9.5123434,-3.9765625 h 1.7304686 l 0.734375,1.0820312 0.742188,-1.0820312 h 1.539062 l -1.503906,1.8867187 z"
           id="text89"
           style="font-weight:700;font-size:8px;font-family:GillSans-Bold, 'Gill Sans';letter-spacing:-0.04em"
           transform="translate(76.84 60.1) scale(.88 1)"
           aria-label="Mix" />
        <g
           id="pips_-_fewest-7"
           data-name="pips - fewest">
          <g
             style="clip-path: url(#clippath-12);"
             clip-path="url(#clippath-12)"
             id="g99">
            <g
               style="clip-path: url(#clippath-13);"
               clip-path="url(#clippath-13)"
               id="g98">
              <path
                 d="M37.31,72.44l.71-1.23c-1.74-.9-3.7-1.45-5.77-1.55v1.43c1.81.09,3.53.56,5.06,1.35"
                 style="fill: #000; stroke-width: 0px;"
                 id="path89" />
              <path
                 d="M42.11,76.78l1.23-.71c-1.09-1.69-2.53-3.14-4.22-4.22l-.71,1.23c1.48.96,2.74,2.22,3.7,3.7"
                 style="fill: #000; stroke-width: 0px;"
                 id="path90" />
              <path
                 d="M24.84,73.08l-.71-1.23c-1.69,1.09-3.14,2.53-4.22,4.22l1.23.71c.96-1.48,2.22-2.74,3.7-3.7"
                 style="fill: #000; stroke-width: 0px;"
                 id="path91" />
              <path
                 d="M44.1,82.93h1.43c-.09-2.07-.64-4.03-1.55-5.77l-1.23.71c.79,1.53,1.26,3.24,1.35,5.06"
                 style="fill: #000; stroke-width: 0px;"
                 id="path92" />
              <path
                 d="M30.99,71.09v-1.43c-2.07.09-4.03.64-5.77,1.55l.71,1.23c1.53-.79,3.24-1.26,5.06-1.35"
                 style="fill: #000; stroke-width: 0px;"
                 id="path93" />
              <path
                 d="M21.13,90.35l-1.23.71c1.09,1.69,2.53,3.14,4.22,4.22l.71-1.23c-1.48-.96-2.74-2.22-3.7-3.7"
                 style="fill: #000; stroke-width: 0px;"
                 id="path94" />
              <path
                 d="M38.41,94.05l.71,1.23c1.69-1.09,3.14-2.53,4.22-4.22l-1.23-.71c-.96,1.48-2.22,2.74-3.7,3.7"
                 style="fill: #000; stroke-width: 0px;"
                 id="path95" />
              <path
                 d="M44.1,84.2c-.09,1.81-.56,3.53-1.35,5.06l1.23.71c.9-1.74,1.45-3.7,1.55-5.77h-1.43Z"
                 style="fill: #000; stroke-width: 0px;"
                 id="path96" />
              <path
                 d="M19.15,84.2h-1.43c.09,2.07.64,4.03,1.55,5.77l1.23-.71c-.79-1.53-1.26-3.24-1.35-5.06"
                 style="fill: #000; stroke-width: 0px;"
                 id="path97" />
              <path
                 d="M20.5,77.87l-1.23-.71c-.9,1.74-1.45,3.7-1.55,5.77h1.43c.09-1.81.56-3.53,1.35-5.06"
                 style="fill: #000; stroke-width: 0px;"
                 id="path98" />
            </g>
          </g>
        </g>
        <path
           d="M 2.3203125,0 H 0.6875 v -5.4140625 h 1.6328125 z m 5.0628126,0 h -1.40625 v -2.1445313 q 0,-0.328125 -0.109375,-0.5703125 -0.1054688,-0.2460937 -0.46875,-0.2460937 -0.171875,0 -0.3046875,0.066406 -0.1289063,0.0625 -0.234375,0.1640625 -0.1015625,0.1015625 -0.171875,0.1953125 -0.070312,0.09375 -0.1445313,0.1992188 V 0 h -1.40625 v -3.9765625 h 1.40625 V -3.40625 q 0.3320313,-0.3554688 0.6640625,-0.4960938 0.3359375,-0.1445312 0.7460938,-0.1445312 1.4296875,0 1.4296875,1.7109375 z M 12.113906,0 H 10.70375 v -0.359375 q -0.222656,0.1875 -0.472656,0.30859375 -0.2460939,0.12109375 -0.6835939,0.12109375 -0.4335937,0 -0.8515625,-0.21484375 Q 8.2779689,-0.359375 8.0084376,-0.8125 7.7389064,-1.2695312 7.7389064,-1.9609375 q 0,-0.5429688 0.203125,-1.015625 Q 8.1451564,-3.453125 8.5787501,-3.75 q 0.4335938,-0.296875 1.0625,-0.296875 0.3906249,0 0.6328129,0.085937 0.242187,0.085937 0.429687,0.21875 v -1.671875 h 1.410156 z M 10.70375,-1.265625 v -1.5195313 q -0.246094,-0.1367187 -0.386719,-0.1953125 -0.136718,-0.058594 -0.3242184,-0.058594 -0.3320312,0 -0.5546875,0.28125 -0.21875,0.28125 -0.21875,0.765625 0,0.5273438 0.2304688,0.7695313 0.234375,0.2382812 0.5429687,0.2382812 0.2539064,0 0.4101564,-0.078125 0.15625,-0.082031 0.300781,-0.203125 z m 6.058906,-0.3828125 h -2.800781 q 0.08203,0.3632813 0.402344,0.59375 0.320312,0.23046875 0.726562,0.23046875 0.710938,0 1.570313,-0.39843745 v 0.8710937 q -0.308594,0.16015625 -0.75,0.29296875 -0.4375,0.12890625 -1.117188,0.12890625 -0.734375,0 -1.25,-0.2734375 -0.515625,-0.2734375 -0.773437,-0.7421875 -0.253907,-0.46875 -0.253907,-1.0625 0,-0.5859375 0.253907,-1.046875 0.257812,-0.4648438 0.773437,-0.7265625 0.515625,-0.265625 1.25,-0.265625 0.484375,0 0.933594,0.2109375 0.453125,0.2070312 0.742187,0.6835937 0.292969,0.4726563 0.292969,1.2226563 z M 15.442344,-2.34375 q 0,-0.3828125 -0.191407,-0.609375 -0.1875,-0.2304688 -0.542968,-0.2304688 -0.351563,0 -0.570313,0.234375 Q 13.922812,-2.71875 13.922812,-2.34375 Z M 21.563749,0 H 19.829374 L 19.059843,-1.1289062 18.294218,0 h -1.539062 l 1.539062,-1.953125 -1.570312,-2.0234375 h 1.730468 l 0.734375,1.0820312 0.742188,-1.0820312 h 1.539062 l -1.503906,1.8867187 z"
           id="text99"
           style="font-weight:700;font-size:8px;font-family:GillSans-Bold, 'Gill Sans';letter-spacing:-0.04em"
           transform="translate(22.14 103.24) scale(.88 1)"
           aria-label="Index" />
        <g
           id="pips_-_fewest-8"
           data-name="pips - fewest">
          <g
             style="clip-path: url(#clippath-14);"
             clip-path="url(#clippath-14)"
             id="g109">
            <g
               style="clip-path: url(#clippath-15);"
               clip-path="url(#clippath-15)"
               id="g108">
              <path
                 d="M88.85,72.44l.71-1.23c-1.74-.9-3.7-1.45-5.77-1.55v1.43c1.81.09,3.53.56,5.06,1.35"
                 style="fill: #000; stroke-width: 0px;"
                 id="path99" />
              <path
                 d="M93.65,76.78l1.23-.71c-1.09-1.69-2.53-3.14-4.22-4.22l-.71,1.23c1.48.96,2.74,2.22,3.7,3.7"
                 style="fill: #000; stroke-width: 0px;"
                 id="path100" />
              <path
                 d="M76.37,73.08l-.71-1.23c-1.69,1.09-3.14,2.53-4.22,4.22l1.23.71c.96-1.48,2.22-2.74,3.7-3.7"
                 style="fill: #000; stroke-width: 0px;"
                 id="path101" />
              <path
                 d="M95.63,82.93h1.43c-.09-2.07-.64-4.03-1.55-5.77l-1.23.71c.79,1.53,1.26,3.24,1.35,5.06"
                 style="fill: #000; stroke-width: 0px;"
                 id="path102" />
              <path
                 d="M82.53,71.09v-1.43c-2.07.09-4.03.64-5.77,1.55l.71,1.23c1.53-.79,3.24-1.26,5.06-1.35"
                 style="fill: #000; stroke-width: 0px;"
                 id="path103" />
              <path
                 d="M72.67,90.35l-1.23.71c1.09,1.69,2.53,3.14,4.22,4.22l.71-1.23c-1.48-.96-2.74-2.22-3.7-3.7"
                 style="fill: #000; stroke-width: 0px;"
                 id="path104" />
              <path
                 d="M89.94,94.05l.71,1.23c1.69-1.09,3.14-2.53,4.22-4.22l-1.23-.71c-.96,1.48-2.22,2.74-3.7,3.7"
                 style="fill: #000; stroke-width: 0px;"
                 id="path105" />
              <path
                 d="M95.63,84.2c-.09,1.81-.56,3.53-1.35,5.06l1.23.71c.9-1.74,1.45-3.7,1.55-5.77h-1.43Z"
                 style="fill: #000; stroke-width: 0px;"
                 id="path106" />
              <path
                 d="M70.68,84.2h-1.43c.09,2.07.64,4.03,1.55,5.77l1.23-.71c-.79-1.53-1.26-3.24-1.35-5.06"
                 style="fill: #000; stroke-width: 0px;"
                 id="path107" />
              <path
                 d="M72.04,77.87l-1.23-.71c-.9,1.74-1.45,3.7-1.55,5.77h1.43c.09-1.81.56-3.53,1.35-5.06"
                 style="fill: #000; stroke-width: 0px;"
                 id="path108" />
            </g>
          </g>
        </g>
        <path
           d="M 2.3203125,0 H 0.6875 v -5.4140625 h 1.6328125 z m 5.0628126,0 h -1.40625 v -2.1445313 q 0,-0.328125 -0.109375,-0.5703125 -0.1054688,-0.2460937 -0.46875,-0.2460937 -0.171875,0 -0.3046875,0.066406 -0.1289063,0.0625 -0.234375,0.1640625 -0.1015625,0.1015625 -0.171875,0.1953125 -0.070312,0.09375 -0.1445313,0.1992188 V 0 h -1.40625 v -3.9765625 h 1.40625 V -3.40625 q 0.3320313,-0.3554688 0.6640625,-0.4960938 0.3359375,-0.1445312 0.7460938,-0.1445312 1.4296875,0 1.4296875,1.7109375 z M 12.113906,0 H 10.70375 v -0.359375 q -0.222656,0.1875 -0.472656,0.30859375 -0.2460939,0.12109375 -0.6835939,0.12109375 -0.4335937,0 -0.8515625,-0.21484375 Q 8.2779689,-0.359375 8.0084376,-0.8125 7.7389064,-1.2695312 7.7389064,-1.9609375 q 0,-0.5429688 0.203125,-1.015625 Q 8.1451564,-3.453125 8.5787501,-3.75 q 0.4335938,-0.296875 1.0625,-0.296875 0.3906249,0 0.6328129,0.085937 0.242187,0.085937 0.429687,0.21875 v -1.671875 h 1.410156 z M 10.70375,-1.265625 v -1.5195313 q -0.246094,-0.1367187 -0.386719,-0.1953125 -0.136718,-0.058594 -0.3242184,-0.058594 -0.3320312,0 -0.5546875,0.28125 -0.21875,0.28125 -0.21875,0.765625 0,0.5273438 0.2304688,0.7695313 0.234375,0.2382812 0.5429687,0.2382812 0.2539064,0 0.4101564,-0.078125 0.15625,-0.082031 0.300781,-0.203125 z m 6.058906,-0.3828125 h -2.800781 q 0.08203,0.3632813 0.402344,0.59375 0.320312,0.23046875 0.726562,0.23046875 0.710938,0 1.570313,-0.39843745 v 0.8710937 q -0.308594,0.16015625 -0.75,0.29296875 -0.4375,0.12890625 -1.117188,0.12890625 -0.734375,0 -1.25,-0.2734375 -0.515625,-0.2734375 -0.773437,-0.7421875 -0.253907,-0.46875 -0.253907,-1.0625 0,-0.5859375 0.253907,-1.046875 0.257812,-0.4648438 0.773437,-0.7265625 0.515625,-0.265625 1.25,-0.265625 0.484375,0 0.933594,0.2109375 0.453125,0.2070312 0.742187,0.6835937 0.292969,0.4726563 0.292969,1.2226563 z M 15.442344,-2.34375 q 0,-0.3828125 -0.191407,-0.609375 -0.1875,-0.2304688 -0.542968,-0.2304688 -0.351563,0 -0.570313,0.234375 Q 13.922812,-2.71875 13.922812,-2.34375 Z M 21.563749,0 H 19.829374 L 19.059843,-1.1289062 18.294218,0 h -1.539062 l 1.539062,-1.953125 -1.570312,-2.0234375 h 1.730468 l 0.734375,1.0820312 0.742188,-1.0820312 h 1.539062 l -1.503906,1.8867187 z m 7.305313,-0.40625 q -0.335937,0.17578125 -0.6875,0.28125 -0.351562,0.10546875 -0.710937,0.1484375 -0.355469,0.046875 -0.738281,0.046875 -0.707032,0 -1.269532,-0.1953125 Q 24.904219,-0.3203125 24.490156,-0.69921875 24.08,-1.0820312 23.872969,-1.5898437 q -0.203125,-0.5117188 -0.203125,-1.1210938 0,-0.6992188 0.242187,-1.2226563 0.242188,-0.5273437 0.675781,-0.8749999 0.4375,-0.3476563 0.992188,-0.5117188 0.558594,-0.1679687 1.175781,-0.1679687 0.921875,0 2.089844,0.4101562 v 1.4375 q -0.402344,-0.25 -0.796875,-0.4140625 -0.390625,-0.1679687 -0.921875,-0.1679687 -0.472656,0 -0.882813,0.1875 -0.410156,0.1874999 -0.660156,0.5351562 -0.25,0.3476562 -0.25,0.8125 0,0.4101562 0.21875,0.7539063 0.21875,0.3398437 0.605469,0.5429687 0.390625,0.1992188 0.878906,0.1992188 0.394531,0 0.746094,-0.09375 0.351562,-0.097656 0.589844,-0.2148438 0.242187,-0.1171875 0.496093,-0.2773437 z m 6.074532,-5.0078125 -2.441406,5.484375 h -1.078125 l -2.394532,-5.484375 h 1.699219 l 1.238281,3.125 1.273438,-3.125 z"
           id="text109"
           style="font-weight:700;font-size:8px;font-family:GillSans-Bold, 'Gill Sans';letter-spacing:-0.04em"
           transform="translate(67.78 103.24) scale(.88 1)"
           aria-label="Index CV" />
      </g>
    </g>
  </g>
  <g
     id="g1" />
</svg>
