<svg xmlns="http://www.w3.org/2000/svg" width="20.41mm" height="130.6mm" viewBox="0 0 57.85 370.19">
  <defs>
    <clipPath id="clip-path">
      <rect x="15.02" y="32.98" width="27.8" height="25.62" style="fill: none" />
    </clipPath>
    <clipPath id="clip-path-3">
      <rect x="15.02" y="80.77" width="27.8" height="25.62" style="fill: none" />
    </clipPath>
    <clipPath id="clip-path-4">
      <rect x="15.02" y="80.77" width="27.8" height="25.62" style="fill: none" />
    </clipPath>
    <clipPath id="clip-path-5">
      <rect x="15.02" y="128.98" width="27.8" height="25.62" style="fill: none" />
    </clipPath>
  </defs>
  <g id="faceplate">
    <rect x="0.13" y="0.13" width="57.6" height="364.25" style="fill: #ededed;stroke: #9d9d9e;stroke-miterlimit: 10;stroke-width: 0.25px" />
    <g>
      <path d="M34.54,7.39l-5.53,7v-6a1.29,1.29,0,0,0-.64-1.17.89.89,0,0,0-1.13.29L20,16.76a1.49,1.49,0,0,0,0,1.79.91.91,0,0,0,1.46,0l5.5-7v6a1.29,1.29,0,0,0,.64,1.17.91.91,0,0,0,1.14-.3l5.53-7v6.16a1.05,1.05,0,1,0,2.06,0V8.27a1.29,1.29,0,0,0-.65-1.18A.91.91,0,0,0,34.54,7.39Z" style="stroke: #000;stroke-width: 0.6000000000000001px" />
      <path d="M20,7.32l-4.81,6.12a1.47,1.47,0,0,0,0,1.79.9.9,0,0,0,1.46,0l3.05-3.87v6.31a1.16,1.16,0,0,0,1,1.26,1.16,1.16,0,0,0,1-1.26V8.19A1.29,1.29,0,0,0,21.09,7,.9.9,0,0,0,20,7.32Z" style="stroke: #000;stroke-width: 0.6000000000000001px" />
      <path d="M42.91,11.84a1,1,0,0,0-.95-.78h-2.1l1.53-2s.8-1.17.1-1.82a1.27,1.27,0,0,0-1.58.06l-3.23,4.1a1.47,1.47,0,0,0-.2,1.38,1.05,1.05,0,0,0,1,.77h2.1L37,16.77s-1,1.13-.27,1.89,1.75-.14,1.75-.14l4.18-5.31A1.48,1.48,0,0,0,42.91,11.84Z" style="stroke: #000;stroke-width: 0.6000000000000001px" />
    </g>
    <g>
      <path d="M26.72,69.58H24.79l-.47-1.2a5.45,5.45,0,0,0-.46-1,1,1,0,0,0-.41-.39,1.18,1.18,0,0,0-.5-.09h-.2v2.64H21V62.82H24A1.94,1.94,0,0,1,25.9,64a2.31,2.31,0,0,1,.21.93,1.86,1.86,0,0,1-.18.86,1.61,1.61,0,0,1-.36.52,3.8,3.8,0,0,1-.44.31,1.72,1.72,0,0,1,.48.45,6.38,6.38,0,0,1,.51,1ZM24.28,65A.74.74,0,0,0,24,64.3a1.65,1.65,0,0,0-.88-.18h-.38v1.63h.38a1.7,1.7,0,0,0,.9-.17A.69.69,0,0,0,24.28,65Z" />
      <path d="M28.56,69.58H27v-5h1.55Zm-.13-6.11a.74.74,0,0,1-.19.52.6.6,0,0,1-.46.21.63.63,0,0,1-.33-.09.67.67,0,0,1-.23-.27.78.78,0,0,1-.09-.37.77.77,0,0,1,.19-.53.59.59,0,0,1,.92,0A.77.77,0,0,1,28.43,63.47Z" />
      <path d="M32.69,68.13a1.48,1.48,0,0,1-.44,1.11,1.78,1.78,0,0,1-1.31.43,3.22,3.22,0,0,1-.86-.1,8.13,8.13,0,0,1-.83-.28V68a5.62,5.62,0,0,0,.68.38,1.45,1.45,0,0,0,.63.13c.39,0,.58-.12.58-.36a.28.28,0,0,0-.08-.21,1.08,1.08,0,0,0-.29-.22l-.56-.29a2.16,2.16,0,0,1-.73-.57,1.35,1.35,0,0,1-.3-.89,1.44,1.44,0,0,1,.2-.71,1.48,1.48,0,0,1,.6-.56,2.12,2.12,0,0,1,1-.21,2.37,2.37,0,0,1,.35,0,3,3,0,0,1,.54.11,2.37,2.37,0,0,1,.61.27v1.21L32.23,66a2.08,2.08,0,0,0-.24-.15l-.37-.14a1.52,1.52,0,0,0-.42-.06.47.47,0,0,0-.37.12.36.36,0,0,0-.1.24.34.34,0,0,0,.1.22,1.7,1.7,0,0,0,.46.26,4.39,4.39,0,0,1,.83.46,1.61,1.61,0,0,1,.44.52A1.57,1.57,0,0,1,32.69,68.13Z" />
      <path d="M37.66,67.52H34.58a1.28,1.28,0,0,0,.44.75,1.26,1.26,0,0,0,.8.28,3.78,3.78,0,0,0,1.73-.49v1.08a4.19,4.19,0,0,1-.82.37,3.91,3.91,0,0,1-1.23.16,2.62,2.62,0,0,1-1.38-.34,2.18,2.18,0,0,1-.85-.93,3.25,3.25,0,0,1,0-2.64,2.05,2.05,0,0,1,.85-.9,2.71,2.71,0,0,1,1.38-.33,2.13,2.13,0,0,1,1,.26,2,2,0,0,1,.81.85,3.16,3.16,0,0,1,.32,1.53Zm-1.45-.87a1.27,1.27,0,0,0-.21-.76.7.7,0,0,0-.6-.29.75.75,0,0,0-.62.3,1.13,1.13,0,0,0-.24.75Z" />
    </g>
    <g id="pips_-_fewest" data-name="pips - fewest">
      <g style="clip-path: url(#clip-path)">
        <g style="clip-path: url(#clip-path)">
          <path d="M34.62,35.76l.71-1.23A13.72,13.72,0,0,0,29.56,33v1.43a12.39,12.39,0,0,1,5.06,1.35" />
          <path d="M39.41,40.1l1.24-.71a14,14,0,0,0-4.23-4.23l-.71,1.23a12.7,12.7,0,0,1,3.7,3.71" />
          <path d="M22.14,36.39l-.71-1.23a14,14,0,0,0-4.23,4.23l1.24.71a12.7,12.7,0,0,1,3.7-3.71" />
          <path d="M41.4,46.25h1.43a13.87,13.87,0,0,0-1.55-5.77l-1.23.71a12.51,12.51,0,0,1,1.35,5.06" />
          <path d="M28.29,34.41V33a13.72,13.72,0,0,0-5.77,1.55l.71,1.23a12.39,12.39,0,0,1,5.06-1.35" />
          <path d="M18.44,53.67l-1.24.71a14,14,0,0,0,4.23,4.23l.71-1.24a12.55,12.55,0,0,1-3.7-3.7" />
          <path d="M35.71,57.37l.71,1.24a14,14,0,0,0,4.23-4.23l-1.24-.71a12.55,12.55,0,0,1-3.7,3.7" />
          <path d="M41.4,47.52a12.46,12.46,0,0,1-1.35,5l1.23.72a13.87,13.87,0,0,0,1.55-5.77Z" />
          <path d="M16.45,47.52H15a13.87,13.87,0,0,0,1.55,5.77l1.23-.72a12.46,12.46,0,0,1-1.35-5" />
          <path d="M17.8,41.19l-1.23-.71A13.87,13.87,0,0,0,15,46.25h1.43a12.51,12.51,0,0,1,1.35-5.06" />
        </g>
      </g>
    </g>
    <g id="pips_-_fewest-2" data-name="pips - fewest">
      <g style="clip-path: url(#clip-path-3)">
        <g style="clip-path: url(#clip-path-4)">
          <path d="M34.62,83.55l.71-1.24a13.86,13.86,0,0,0-5.77-1.54v1.42a12.56,12.56,0,0,1,5.06,1.36" />
          <path d="M39.41,87.88l1.24-.71A13.85,13.85,0,0,0,36.42,83l-.71,1.23a12.55,12.55,0,0,1,3.7,3.7" />
          <path d="M22.14,84.18,21.43,83a13.85,13.85,0,0,0-4.23,4.22l1.24.71a12.55,12.55,0,0,1,3.7-3.7" />
          <path d="M41.4,94h1.43a13.92,13.92,0,0,0-1.55-5.78L40.05,89A12.47,12.47,0,0,1,41.4,94" />
          <path d="M28.29,82.19V80.77a13.86,13.86,0,0,0-5.77,1.54l.71,1.24a12.56,12.56,0,0,1,5.06-1.36" />
          <path d="M18.44,101.45l-1.24.72a14.07,14.07,0,0,0,4.23,4.22l.71-1.23a12.58,12.58,0,0,1-3.7-3.71" />
          <path d="M35.71,105.16l.71,1.23a14.07,14.07,0,0,0,4.23-4.22l-1.24-.72a12.58,12.58,0,0,1-3.7,3.71" />
          <path d="M41.4,95.3a12.51,12.51,0,0,1-1.35,5.06l1.23.71a13.87,13.87,0,0,0,1.55-5.77Z" />
          <path d="M16.45,95.3H15a13.87,13.87,0,0,0,1.55,5.77l1.23-.71a12.51,12.51,0,0,1-1.35-5.06" />
          <path d="M17.8,89l-1.23-.72A13.91,13.91,0,0,0,15,94h1.43a12.46,12.46,0,0,1,1.35-5" />
        </g>
      </g>
    </g>
    <g>
      <path d="M26.52,115.5H24.05v2.73H22.26v-6.76h4.26v1.35H24.05v1.31h2.47Z" />
      <path d="M31.66,118a5.56,5.56,0,0,1-.62.24,2.43,2.43,0,0,1-.7.09.75.75,0,0,1-.53-.15.85.85,0,0,1-.21-.37,2.37,2.37,0,0,1-.56.37,1.81,1.81,0,0,1-.8.15,1.4,1.4,0,0,1-.77-.19,1,1,0,0,1-.41-.47,1.52,1.52,0,0,1-.12-.59,1.31,1.31,0,0,1,.21-.76,1.51,1.51,0,0,1,.54-.49,7,7,0,0,1,.91-.39l.49-.18.25-.1.17-.08a1,1,0,0,0-.13-.57c-.08-.14-.27-.21-.56-.21a1.85,1.85,0,0,0-.94.26,3.46,3.46,0,0,0-.79.65v-1.34a2.69,2.69,0,0,1,.62-.39,3.35,3.35,0,0,1,.7-.22,3.64,3.64,0,0,1,.74-.07,2.18,2.18,0,0,1,1.43.41,1.46,1.46,0,0,1,.48,1.15v1.92a1.44,1.44,0,0,0,0,.41.17.17,0,0,0,.17.13.77.77,0,0,0,.39-.14Zm-2.15-1v-1.17a4.35,4.35,0,0,0-.8.45.68.68,0,0,0-.26.55.53.53,0,0,0,.13.38.41.41,0,0,0,.3.14.63.63,0,0,0,.31-.1A2.33,2.33,0,0,0,29.51,117Z" />
      <path d="M33.43,118.23H31.87v-6.76h1.56Z" />
      <path d="M35.77,118.23H34.22v-6.76h1.55Z" />
    </g>
    <g id="pips_-_fewest-3" data-name="pips - fewest">
      <g style="clip-path: url(#clip-path-5)">
        <g style="clip-path: url(#clip-path-5)">
          <path d="M34.62,131.76l.71-1.23A13.87,13.87,0,0,0,29.56,129v1.43a12.55,12.55,0,0,1,5.06,1.35" />
          <path d="M39.41,136.1l1.24-.71a14,14,0,0,0-4.23-4.23l-.71,1.24a12.55,12.55,0,0,1,3.7,3.7" />
          <path d="M22.14,132.4l-.71-1.24a14,14,0,0,0-4.23,4.23l1.24.71a12.55,12.55,0,0,1,3.7-3.7" />
          <path d="M41.4,142.25h1.43a13.87,13.87,0,0,0-1.55-5.77l-1.23.71a12.55,12.55,0,0,1,1.35,5.06" />
          <path d="M28.29,130.41V129a13.87,13.87,0,0,0-5.77,1.55l.71,1.23a12.55,12.55,0,0,1,5.06-1.35" />
          <path d="M18.44,149.67l-1.24.71a14,14,0,0,0,4.23,4.23l.71-1.24a12.55,12.55,0,0,1-3.7-3.7" />
          <path d="M35.71,153.37l.71,1.24a14,14,0,0,0,4.23-4.23l-1.24-.71a12.55,12.55,0,0,1-3.7,3.7" />
          <path d="M41.4,143.52a12.55,12.55,0,0,1-1.35,5.06l1.23.71a13.87,13.87,0,0,0,1.55-5.77Z" />
          <path d="M16.45,143.52H15a13.87,13.87,0,0,0,1.55,5.77l1.23-.71a12.55,12.55,0,0,1-1.35-5.06" />
          <path d="M17.8,137.19l-1.23-.71A13.87,13.87,0,0,0,15,142.25h1.43a12.55,12.55,0,0,1,1.35-5.06" />
        </g>
      </g>
    </g>
    <g>
      <path d="M20.36,161.33H18.18v5.12H16.39v-5.12H14.2v-1.65h6.16Z" />
      <path d="M25.48,166.45H23.93V163.7a1.54,1.54,0,0,0-.13-.65.51.51,0,0,0-.51-.3.7.7,0,0,0-.51.22,3.29,3.29,0,0,0-.43.56v2.92H20.8v-6.77h1.55v2.51a2.21,2.21,0,0,1,.76-.63,1.93,1.93,0,0,1,.79-.17c1.05,0,1.58.67,1.58,2Z" />
      <path d="M29.9,161.75l-.57,1.76a1,1,0,0,0-.72-.38.78.78,0,0,0-.56.25,2.64,2.64,0,0,0-.46.93v2.14H26v-5h1.55v1.2a2.54,2.54,0,0,1,.52-.86,1.12,1.12,0,0,1,1.32-.34A3.58,3.58,0,0,1,29.9,161.75Z" />
      <path d="M34.53,164.39H31.45a1.17,1.17,0,0,0,.44.74,1.18,1.18,0,0,0,.8.29,3.65,3.65,0,0,0,1.72-.5V166a3.94,3.94,0,0,1-.82.37,4.17,4.17,0,0,1-1.23.16A2.56,2.56,0,0,1,31,166.2a2.12,2.12,0,0,1-.85-.93,3,3,0,0,1-.28-1.33,2.93,2.93,0,0,1,.28-1.31,2.07,2.07,0,0,1,.85-.91,2.65,2.65,0,0,1,1.37-.33,2.25,2.25,0,0,1,1,.26,2.07,2.07,0,0,1,.82.86,3.22,3.22,0,0,1,.32,1.53Zm-1.46-.87a1.25,1.25,0,0,0-.21-.76.67.67,0,0,0-.59-.29.79.79,0,0,0-.63.29,1.17,1.17,0,0,0-.24.76Z" />
      <path d="M38.35,165a1.44,1.44,0,0,1-.44,1.11,1.77,1.77,0,0,1-1.3.43,3.25,3.25,0,0,1-.87-.1,5.83,5.83,0,0,1-.82-.29V164.9a5.15,5.15,0,0,0,.68.39,1.45,1.45,0,0,0,.63.13c.38,0,.58-.12.58-.36a.33.33,0,0,0-.09-.22,1.14,1.14,0,0,0-.29-.21c-.14-.08-.32-.18-.56-.29a2.37,2.37,0,0,1-.73-.57,1.35,1.35,0,0,1-.3-.89,1.41,1.41,0,0,1,.2-.71,1.58,1.58,0,0,1,.61-.56,2.07,2.07,0,0,1,1-.22l.35,0a3,3,0,0,1,.54.11,2.81,2.81,0,0,1,.62.26V163l-.23-.16-.25-.14a2.08,2.08,0,0,0-.36-.14,1.54,1.54,0,0,0-.43-.06.47.47,0,0,0-.37.12.37.37,0,0,0-.09.23.32.32,0,0,0,.1.23,1.54,1.54,0,0,0,.46.26,3.8,3.8,0,0,1,.82.46,1.32,1.32,0,0,1,.44.52A1.54,1.54,0,0,1,38.35,165Z" />
      <path d="M43.51,166.45H42v-2.58a.09.09,0,0,1,0-.05v-.12a1.71,1.71,0,0,0-.13-.65.51.51,0,0,0-.51-.3.7.7,0,0,0-.52.22,2.82,2.82,0,0,0-.42.56v2.92H38.84v-6.77h1.55v2.51a2.1,2.1,0,0,1,.75-.63,2,2,0,0,1,.8-.17c1.05,0,1.57.67,1.57,2Z" />
    </g>
    <g>
      <path d="M23,354.37H20.51v3H18.67v-7.45H23v1.5H20.51v1.44H23Z" />
      <path d="M28.91,357.38H24.28v-7.45h1.84v5.67h2.79Z" />
      <path d="M39.87,349.93l-2.64,7.55H36.16l-1.58-4.39L33,357.48H31.88l-2.59-7.55H31.2l1.26,4.13,1.46-4.13h1.31l1.43,4.13L38,349.93Z" />
    </g>
    <path d="M28.93,198.12c8,0,14.53,6,14.53,13.46V276.5c0,7.42-6.52,13.46-14.54,13.46s-14.53-6-14.53-13.46V211.58c0-7.42,6.52-13.46,14.54-13.46m0-1.06c-8.62,0-15.6,6.5-15.6,14.52V276.5c0,8,7,14.51,15.59,14.51s15.6-6.5,15.6-14.51V211.58c0-8-7-14.52-15.59-14.52Z" />
    <g>
      <path d="M21.91,239.45H20.47V234h1.44Z" style="fill: #231f20" />
      <path d="M26.36,239.45H25.13v-2.14a1.72,1.72,0,0,0-.1-.58.39.39,0,0,0-.41-.24.6.6,0,0,0-.27.06.87.87,0,0,0-.21.17,1.3,1.3,0,0,0-.15.2l-.13.2v2.33H22.63v-4h1.23v.58a1.75,1.75,0,0,1,.59-.5,1.41,1.41,0,0,1,.65-.15c.84,0,1.26.57,1.26,1.72Z" style="fill: #231f20" />
      <path d="M30.67,237.44a3.32,3.32,0,0,1-.1.77,2.28,2.28,0,0,1-.31.67,1.57,1.57,0,0,1-.52.47,1.66,1.66,0,0,1-.75.17,1.54,1.54,0,0,1-.54-.08,2.65,2.65,0,0,1-.4-.22v2H26.82v-5.79h1.23v.36a2,2,0,0,1,.41-.3,1.32,1.32,0,0,1,.61-.13,1.48,1.48,0,0,1,.75.22,1.6,1.6,0,0,1,.61.67A2.42,2.42,0,0,1,30.67,237.44Zm-1.31,0a1.42,1.42,0,0,0-.1-.59.69.69,0,0,0-.25-.32.6.6,0,0,0-.33-.1.74.74,0,0,0-.36.08,1.26,1.26,0,0,0-.27.2v1.52l.14.09.15.08a.76.76,0,0,0,.16.06.55.55,0,0,0,.18,0,.58.58,0,0,0,.49-.28A1.3,1.3,0,0,0,29.36,237.47Z" style="fill: #231f20" />
      <path d="M34.71,239.45H33.48v-.57a1.84,1.84,0,0,1-.55.48,1.41,1.41,0,0,1-.69.16,1,1,0,0,1-1-.52,2.84,2.84,0,0,1-.23-1.19v-2.34h1.23v2.15a1.61,1.61,0,0,0,.1.57.4.4,0,0,0,.41.25.54.54,0,0,0,.43-.18,3.77,3.77,0,0,0,.33-.45v-2.34h1.23Z" style="fill: #231f20" />
      <path d="M38,239.22a2.48,2.48,0,0,1-.54.2,2.13,2.13,0,0,1-.64.1c-.9,0-1.34-.49-1.34-1.48v-1.59h-.56v-.24l1.66-1.93h.14v1.19h1.18v1H36.71v1.27a3.21,3.21,0,0,0,0,.36.43.43,0,0,0,.14.23.55.55,0,0,0,.34.09,1.68,1.68,0,0,0,.78-.28Z" style="fill: #231f20" />
    </g>
    <path d="M44.52,260.47c0-8-7-14.52-15.59-14.52s-15.59,6.5-15.59,14.52v55.84h0v19.85A5.7,5.7,0,0,0,19,341.83H38.85a5.7,5.7,0,0,0,5.67-5.67V316.31h0Z" />
    <g>
      <path d="M26,288.18l-.26.11-.21.08-.3.09c-.21.05-.43.1-.65.13a4.88,4.88,0,0,1-.68,0,3,3,0,0,1-1.34-.3,2.33,2.33,0,0,1-1-.93,3,3,0,0,1-.37-1.56,3.86,3.86,0,0,1,.19-1.16,2.05,2.05,0,0,1,.58-.92,2.81,2.81,0,0,1,.66-.44,2.84,2.84,0,0,1,.65-.2,4.9,4.9,0,0,1,.7-.05,4.21,4.21,0,0,1,1,.11c.28.07.58.17.9.28v1.28a4,4,0,0,0-.68-.36,2.58,2.58,0,0,0-.9-.14,1.67,1.67,0,0,0-1,.27,1.44,1.44,0,0,0-.52.64,1.84,1.84,0,0,0-.14.72,1.71,1.71,0,0,0,.16.75,1.45,1.45,0,0,0,.51.56,1.63,1.63,0,0,0,.82.2,2.09,2.09,0,0,0,.59-.08v-.63h-.65v-1.09H26Z" style="fill: #fff" />
      <path d="M30.25,288.36l-.5.2a1.84,1.84,0,0,1-.55.07.6.6,0,0,1-.43-.12.64.64,0,0,1-.17-.3,2,2,0,0,1-.45.3,1.43,1.43,0,0,1-.64.12,1.1,1.1,0,0,1-.61-.15.8.8,0,0,1-.33-.38,1.1,1.1,0,0,1-.1-.47,1.07,1.07,0,0,1,.17-.61,1.16,1.16,0,0,1,.43-.39,6,6,0,0,1,.73-.32l.39-.14.2-.07.14-.07a1,1,0,0,0-.1-.46c-.07-.11-.22-.16-.45-.16a1.5,1.5,0,0,0-.75.2,2.66,2.66,0,0,0-.64.52v-1.07a2,2,0,0,1,.5-.31,2.62,2.62,0,0,1,.56-.18,2.88,2.88,0,0,1,.59-.06,1.69,1.69,0,0,1,1.14.34,1.14,1.14,0,0,1,.39.92v1.53a1.31,1.31,0,0,0,0,.33.14.14,0,0,0,.13.11.67.67,0,0,0,.32-.12Zm-1.72-.76v-.94a3.07,3.07,0,0,0-.64.36.54.54,0,0,0-.21.44.46.46,0,0,0,.1.31.33.33,0,0,0,.24.1.41.41,0,0,0,.25-.08A2.14,2.14,0,0,0,28.53,287.6Z" style="fill: #fff" />
      <path d="M33.12,288.33a2.58,2.58,0,0,1-.53.2,2.24,2.24,0,0,1-.65.1c-.89,0-1.34-.49-1.34-1.48v-1.59H30v-.25l1.66-1.92h.14v1.19H33v1H31.84v1.27a1.73,1.73,0,0,0,0,.36.36.36,0,0,0,.13.23.55.55,0,0,0,.34.09,1.64,1.64,0,0,0,.78-.28Z" style="fill: #fff" />
      <path d="M37,286.91H34.5a1,1,0,0,0,.36.6,1,1,0,0,0,.64.23,3.12,3.12,0,0,0,1.38-.4v.87a3.42,3.42,0,0,1-.66.29,3.08,3.08,0,0,1-1,.13,2.14,2.14,0,0,1-1.1-.27,1.77,1.77,0,0,1-.67-.74,2.47,2.47,0,0,1-.23-1.07,2.38,2.38,0,0,1,.23-1.05,1.66,1.66,0,0,1,.67-.72,2.14,2.14,0,0,1,1.1-.27,1.76,1.76,0,0,1,.83.21,1.62,1.62,0,0,1,.65.69,2.54,2.54,0,0,1,.26,1.22Zm-1.16-.69a1,1,0,0,0-.17-.61.54.54,0,0,0-.48-.23.6.6,0,0,0-.5.23.91.91,0,0,0-.19.61Z" style="fill: #fff" />
    </g>
    <g>
      <path d="M26.84,337.67H23.25v-5.41h3.53v1.08h-2.1v1h2v1.09h-2v1.16h2.16Z" style="fill: #fff" />
      <path d="M31.05,337.67H29.82v-2.14a1.72,1.72,0,0,0-.1-.58.39.39,0,0,0-.41-.24.6.6,0,0,0-.27.06.87.87,0,0,0-.21.17l-.15.19-.13.2v2.34H27.32v-4h1.23v.57a1.83,1.83,0,0,1,.59-.49,1.41,1.41,0,0,1,.65-.15q1.26,0,1.26,1.71Z" style="fill: #fff" />
      <path d="M35.2,333.69l-1.59,4H32.7l-1.56-4h1.33l.73,2.09.8-2.09Z" style="fill: #fff" />
    </g>
  </g>
  <g /></svg>