<?xml version="1.0" encoding="UTF-8" standalone="no"?>
<svg
   width="20.32mm"
   height="130.55mm"
   viewBox="0 0 57.6 370.07"
   version="1.1"
   id="svg56"
   sodipodi:docname="Follow_artwork.svg"
   inkscape:version="1.4.2 (ebf0e940, 2025-05-08)"
   xmlns:inkscape="http://www.inkscape.org/namespaces/inkscape"
   xmlns:sodipodi="http://sodipodi.sourceforge.net/DTD/sodipodi-0.dtd"
   xmlns="http://www.w3.org/2000/svg"
   xmlns:svg="http://www.w3.org/2000/svg">
  <sodipodi:namedview
     id="namedview56"
     pagecolor="#ffffff"
     bordercolor="#000000"
     borderopacity="0.25"
     inkscape:showpageshadow="2"
     inkscape:pageopacity="0.0"
     inkscape:pagecheckerboard="0"
     inkscape:deskcolor="#d1d1d1"
     inkscape:document-units="mm"
     inkscape:zoom="0.49797738"
     inkscape:cx="154.6255"
     inkscape:cy="706.85942"
     inkscape:window-width="1200"
     inkscape:window-height="979"
     inkscape:window-x="528"
     inkscape:window-y="38"
     inkscape:window-maximized="0"
     inkscape:current-layer="text" />
  <defs
     id="defs6">
    <clipPath
       id="clippath">
      <rect
         x="14.91"
         y="33.17"
         width="27.78"
         height="25.51"
         style="fill: none; stroke-width: 0px;"
         id="rect1" />
    </clipPath>
    <clipPath
       id="clippath-1">
      <rect
         x="14.91"
         y="33.17"
         width="27.78"
         height="25.51"
         style="fill: none; stroke-width: 0px;"
         id="rect2" />
    </clipPath>
    <clipPath
       id="clippath-2">
      <rect
         x="14.91"
         y="81.21"
         width="27.78"
         height="25.51"
         style="fill: none; stroke-width: 0px;"
         id="rect3" />
    </clipPath>
    <clipPath
       id="clippath-3">
      <rect
         x="14.91"
         y="81.21"
         width="27.78"
         height="25.51"
         style="fill: none; stroke-width: 0px;"
         id="rect4" />
    </clipPath>
    <clipPath
       id="clippath-4">
      <rect
         x="14.91"
         y="129.4"
         width="27.78"
         height="25.51"
         style="fill: none; stroke-width: 0px;"
         id="rect5" />
    </clipPath>
    <clipPath
       id="clippath-5">
      <rect
         x="14.91"
         y="129.4"
         width="27.78"
         height="25.51"
         style="fill: none; stroke-width: 0px;"
         id="rect6" />
    </clipPath>
  </defs>
  <g
     id="faceplate">
    <g
       id="g7">
      <path
         id="rect7"
         style="fill:#ededed;stroke-width:0px"
         d="m 0.13,0.13 h 57.349998 v 364 H 0.13 Z" />
      <path
         d="M57.35.25v363.75H.25V.25h57.1M57.6,0H0v364.25h57.6V0h0Z"
         style="fill: #9d9d9e; stroke-width: 0px;"
         id="path7" />
    </g>
    <g
       id="Layer_4"
       data-name="Layer 4">
      <path
         d="M28.8,200.84c8.05,0,14.59,6.08,14.59,13.54v63.83H14.21v-63.83c0-7.47,6.55-13.54,14.59-13.54M28.8,199.84c-8.61,0-15.59,6.51-15.59,14.54v64.83s31.18,0,31.18,0v-64.83c0-8.03-6.98-14.54-15.59-14.54h0Z"
         style="fill: #000; stroke-width: 0px;"
         id="path8" />
      <path
         d="M44.39,261.76c0-8.05-6.98-14.57-15.59-14.57s-15.59,6.53-15.59,14.57v54.4s0,0,0,0v19.77c0,3.11,2.55,5.65,5.67,5.65h19.84c3.12,0,5.67-2.54,5.67-5.65v-19.77s0,0,0,0v-54.39Z"
         style="fill: #000; stroke-width: 0px;"
         id="path9" />
      <g
         id="g12"
         transform="translate(0,8.6069709)">
        <path
           d="m 20.6,18.19 c -0.37,0 -0.71,-0.17 -0.97,-0.47 -0.51,-0.6 -0.52,-1.54 -0.04,-2.16 l 6.97,-8.88 c 0.38,-0.48 1.05,-0.65 1.57,-0.39 0.5,0.25 0.79,0.82 0.79,1.45 v 4.77 l 4.64,-5.85 c 0.38,-0.48 1.01,-0.64 1.53,-0.38 0.5,0.25 0.83,0.81 0.83,1.44 v 8.82 c 0,0.86 -0.61,1.57 -1.36,1.57 -0.75,0 -1.36,-0.7 -1.36,-1.57 v -4.79 l -4.64,5.85 c -0.38,0.48 -1.01,0.64 -1.54,0.38 -0.5,-0.24 -0.83,-0.81 -0.83,-1.44 v -4.67 l -4.61,5.8 c -0.26,0.32 -0.62,0.51 -1,0.51 v 0 z"
           style="fill:#2cabe1;stroke-width:0px"
           id="path10" />
        <path
           d="m 20.6,18.19 c -0.75,0 -1.35,-0.7 -1.35,-1.57 v -4.93 l -2.26,2.84 c -0.5,0.63 -1.44,0.65 -1.97,0.04 -0.51,-0.6 -0.52,-1.53 -0.03,-2.15 L 19.6,6.66 c 0.26,-0.32 0.63,-0.5 1,-0.5 0.18,0 0.37,0.04 0.54,0.12 0.5,0.25 0.82,0.81 0.82,1.44 v 8.89 c 0,0.86 -0.61,1.57 -1.36,1.57 v 0 z"
           style="fill:#ea2228;stroke-width:0px"
           id="path11" />
        <path
           d="m 37.2,18.21 v 0 c -0.35,0 -0.68,-0.15 -0.94,-0.42 -0.76,-0.78 -0.14,-1.84 0.29,-2.3 L 38.5,13.13 37.24,13.11 C 36.68,13.1 36.2,12.71 36,12.11 35.81,11.55 35.93,10.9 36.29,10.47 L 39.45,6.64 C 39.68,6.36 40,6.16 40.58,6.17 c 0.33,0 0.67,0.17 0.92,0.4 0.71,0.66 0.29,1.7 -0.07,2.2 l -1.04,1.26 1.26,0.02 c 0.56,0.01 1.04,0.4 1.24,1 0.19,0.56 0.07,1.21 -0.29,1.64 l -4.1,4.97 c -0.35,0.35 -0.65,0.55 -1.3,0.54 v 0 z"
           style="fill:#00a650;stroke-width:0px"
           id="path12" />
      </g>
    </g>
    <g
       id="text">
      <path
         d="M 7.4023437,0 H 5.2099609 L 4.6777344,-1.2011719 Q 4.3847656,-1.8603516 4.1503906,-2.1630859 3.9160156,-2.4707031 3.6914063,-2.5537109 3.4716797,-2.6416016 3.1201172,-2.6416016 H 2.890625 V 0 H 0.84960938 V -6.7675781 H 4.3212891 q 0.8398437,0 1.3769531,0.3417969 0.5371094,0.3417968 0.7714844,0.8300781 0.2392578,0.4882812 0.2392578,0.9277344 0,0.5126953 -0.2001953,0.8691406 Q 6.3134766,-3.4472656 6.09375,-3.2861328 5.8740234,-3.125 5.6005859,-2.9785156 5.9277344,-2.7880859 6.1376953,-2.5244141 6.3525391,-2.265625 6.71875,-1.4697266 Z M 4.6289062,-4.6289062 q 0,-0.46875 -0.3076171,-0.6542969 Q 4.0136719,-5.46875 3.3203125,-5.46875 H 2.890625 v 1.6308594 h 0.4394531 q 0.7470703,0 1.0205078,-0.1611328 0.2783203,-0.1660157 0.2783203,-0.6298828 z m 4.7220703,-1.4892579 q 0,0.3076172 -0.2197266,0.522461 -0.2197266,0.2148437 -0.5224609,0.2148437 -0.2050782,0 -0.3759766,-0.097656 -0.1660156,-0.097656 -0.2636719,-0.2636719 -0.097656,-0.1708984 -0.097656,-0.3759766 0,-0.3027343 0.2148437,-0.5224609 0.2148438,-0.2197266 0.522461,-0.2197266 0.3027343,0 0.5224609,0.2197266 0.2197266,0.2197266 0.2197266,0.5224609 z M 9.492578,0 H 7.7298827 V -4.9707031 H 9.492578 Z m 4.697656,-1.4501953 q 0,0.68359374 -0.50293,1.11328124 -0.498046,0.42480468 -1.484375,0.42480468 -0.551757,0 -0.981445,-0.09765625 -0.429687,-0.10253906 -0.9375,-0.28808593 V -1.5478516 q 0.444336,0.2539063 0.771485,0.3857422 0.327148,0.131836 0.717773,0.131836 0.65918,0 0.65918,-0.3613282 0,-0.1220703 -0.09766,-0.2148437 -0.09277,-0.097656 -0.332031,-0.2148438 -0.234375,-0.1220703 -0.629883,-0.2880859 -0.488281,-0.2148438 -0.830078,-0.5761719 -0.341797,-0.3613281 -0.341797,-0.883789 0,-0.3710938 0.22461,-0.7128907 0.229492,-0.3417968 0.688476,-0.5566406 0.458985,-0.2197265 1.108399,-0.2197265 0.15625,0 0.395508,0.024414 0.24414,0.019531 0.610351,0.1123047 0.371094,0.092773 0.703125,0.2636719 v 1.2158203 q -0.15625,-0.092774 -0.263672,-0.15625 -0.102539,-0.063477 -0.27832,-0.1416016 -0.175781,-0.078125 -0.415039,-0.1367187 -0.234375,-0.063477 -0.483399,-0.063477 -0.302734,0 -0.415039,0.1171875 -0.112304,0.1171875 -0.112304,0.234375 0,0.1220703 0.117187,0.2294922 0.117188,0.1025391 0.522461,0.2587891 0.585938,0.2246093 0.9375,0.4638671 0.351563,0.234375 0.498047,0.5175782 0.151367,0.2832031 0.151367,0.6689453 z m 5.649805,-0.6103516 h -3.500976 q 0.102539,0.4541016 0.502929,0.7421875 0.400391,0.288086 0.908204,0.288086 0.888671,0 1.96289,-0.4980469 v 1.08886717 q -0.385742,0.20019532 -0.9375,0.36621094 -0.546875,0.16113281 -1.396484,0.16113281 -0.917969,0 -1.5625,-0.34179687 -0.644531,-0.34179687 -0.966797,-0.92773435 -0.317383,-0.5859375 -0.317383,-1.328125 0,-0.7324219 0.317383,-1.3085938 0.322266,-0.5810547 0.966797,-0.9082031 0.644531,-0.3320312 1.5625,-0.3320312 0.605469,0 1.166992,0.2636718 0.566406,0.2587891 0.927734,0.8544922 0.366211,0.5908203 0.366211,1.5283203 z m -1.65039,-0.8691406 q 0,-0.4785156 -0.239258,-0.7617188 -0.234375,-0.2880859 -0.678711,-0.2880859 -0.439453,0 -0.712891,0.2929688 -0.268554,0.2880859 -0.268554,0.7568359 z"
         id="text12"
         style="font-weight:700;font-size:10px;font-family:GillSans-Bold, 'Gill Sans';letter-spacing:-0.04em"
         transform="translate(19.94 68.76) scale(.88 1)"
         aria-label="Rise" />
      <path
         d="M 5.6982422,-2.7392578 H 2.890625 V 0 H 0.84960938 V -6.7675781 H 5.6982422 v 1.3574219 H 2.890625 v 1.3085937 h 2.8076172 z m 5.9818358,2.49023436 q -0.385742,0.15136719 -0.712891,0.24414063 -0.327148,0.09277343 -0.786132,0.09277343 -0.4345707,0 -0.6054692,-0.15136718 -0.1708984,-0.15625 -0.2441406,-0.37597657 -0.2832031,0.22949219 -0.6298828,0.38085938 -0.3466797,0.14648437 -0.9082031,0.14648437 -0.5419922,0 -0.8789063,-0.18554687 Q 6.5824218,-0.28808594 6.445703,-0.57128906 6.3138671,-0.859375 6.3138671,-1.1621094 q 0,-0.4589843 0.2294922,-0.7568359 0.234375,-0.3027344 0.625,-0.4931641 0.390625,-0.1904297 1.0351562,-0.3955078 0.366211,-0.1171875 0.5517578,-0.1757812 0.1904297,-0.063477 0.2832032,-0.097656 0.092773,-0.03418 0.1953125,-0.087891 0,-0.3613281 -0.1464844,-0.5664063 -0.1464844,-0.2050781 -0.6347656,-0.2050781 -0.5761719,0 -1.069336,0.2539063 -0.493164,0.2539062 -0.9033203,0.6542968 v -1.3476562 q 0.3271485,-0.234375 0.7080078,-0.3808594 0.3808594,-0.1513672 0.7958985,-0.2246094 0.415039,-0.073242 0.8398437,-0.073242 1.0791016,0 1.6210933,0.4199218 0.546875,0.4150391 0.546875,1.147461 v 1.9189453 q 0,0.2734375 0.04883,0.4101562 0.05371,0.131836 0.190429,0.131836 0.166016,0 0.449219,-0.1416016 z M 9.233789,-1.2011719 v -1.1767578 q -0.625,0.2539063 -0.913086,0.4589844 -0.2880859,0.2001953 -0.2880859,0.546875 0,0.2490234 0.1416016,0.38085936 0.1464843,0.13183594 0.336914,0.13183594 0.1806641,0 0.3564453,-0.0976563 Q 9.0482421,-1.0595703 9.233789,-1.2011719 Z M 13.682422,0 h -1.762696 v -6.7675781 h 1.762696 z m 2.661524,0 H 14.58125 v -6.7675781 h 1.762696 z"
         id="text13"
         style="font-weight:700;font-size:10px;font-family:GillSans-Bold, 'Gill Sans';letter-spacing:-0.04em"
         transform="translate(21.39 116.95) scale(.88 1)"
         aria-label="Fall" />
      <path
         d="M 7.3388672,-5.1220703 H 4.8583984 V 0 H 2.8222656 V -5.1220703 H 0.34179688 V -6.7675781 H 7.3388672 Z M 13.149805,0 h -1.757813 v -2.578125 q 0,-0.029297 0,-0.053711 0.0049,-0.029297 0.0049,-0.1171875 0,-0.3564454 -0.151367,-0.6542969 -0.151367,-0.2978516 -0.576172,-0.2978516 -0.332031,0 -0.585938,0.2246094 -0.2539059,0.2197266 -0.4833981,0.5566406 V 0 H 7.8421874 v -6.7675781 h 1.7578125 v 2.5097656 q 0.4345701,-0.4638672 0.8593751,-0.6298828 0.424805,-0.1708984 0.90332,-0.1708984 1.78711,0 1.78711,2.0068359 z m 5.024804,-4.7021484 -0.649414,1.7626953 q -0.400391,-0.3808594 -0.810547,-0.3808594 -0.371094,0 -0.644531,0.2539062 -0.268555,0.2490235 -0.517578,0.9277344 V 0 h -1.757813 v -4.9707031 h 1.757813 v 1.2011718 q 0.166015,-0.4443359 0.585937,-0.8642578 0.419922,-0.4248046 0.986328,-0.4248046 0.297852,0 0.517579,0.087891 0.224609,0.087891 0.532226,0.2685547 z m 4.829492,2.6416015 h -3.500977 q 0.102539,0.4541016 0.50293,0.7421875 0.400391,0.288086 0.908203,0.288086 0.888672,0 1.962891,-0.4980469 v 1.08886717 q -0.385743,0.20019532 -0.9375,0.36621094 -0.546875,0.16113281 -1.396485,0.16113281 -0.917968,0 -1.5625,-0.34179687 -0.644531,-0.34179687 -0.966797,-0.92773435 -0.317382,-0.5859375 -0.317382,-1.328125 0,-0.7324219 0.317382,-1.3085938 0.322266,-0.5810547 0.966797,-0.9082031 0.644532,-0.3320312 1.5625,-0.3320312 0.605469,0 1.166992,0.2636718 0.566407,0.2587891 0.927735,0.8544922 0.366211,0.5908203 0.366211,1.5283203 z M 21.35371,-2.9296875 q 0,-0.4785156 -0.239258,-0.7617188 -0.234375,-0.2880859 -0.678711,-0.2880859 -0.439453,0 -0.71289,0.2929688 -0.268555,0.2880859 -0.268555,0.7568359 z m 6.001368,1.4794922 q 0,0.68359374 -0.50293,1.11328124 -0.498047,0.42480468 -1.484375,0.42480468 -0.551758,0 -0.981445,-0.09765625 -0.429688,-0.10253906 -0.9375,-0.28808593 V -1.5478516 q 0.444336,0.2539063 0.771484,0.3857422 0.327149,0.131836 0.717774,0.131836 0.659179,0 0.659179,-0.3613282 0,-0.1220703 -0.09766,-0.2148437 -0.09277,-0.097656 -0.332031,-0.2148438 -0.234375,-0.1220703 -0.629883,-0.2880859 -0.488281,-0.2148438 -0.830078,-0.5761719 -0.341797,-0.3613281 -0.341797,-0.883789 0,-0.3710938 0.224609,-0.7128907 0.229492,-0.3417968 0.688477,-0.5566406 0.458984,-0.2197265 1.108398,-0.2197265 0.15625,0 0.395508,0.024414 0.244141,0.019531 0.610352,0.1123047 0.371093,0.092773 0.703125,0.2636719 v 1.2158203 q -0.15625,-0.092774 -0.263672,-0.15625 -0.102539,-0.063477 -0.278321,-0.1416016 -0.175781,-0.078125 -0.415039,-0.1367187 -0.234375,-0.063477 -0.483398,-0.063477 -0.302734,0 -0.415039,0.1171875 -0.112305,0.1171875 -0.112305,0.234375 0,0.1220703 0.117188,0.2294922 0.117187,0.1025391 0.522461,0.2587891 0.585937,0.2246093 0.9375,0.4638671 0.351562,0.234375 0.498047,0.5175782 0.151367,0.2832031 0.151367,0.6689453 z M 33.214844,0 h -1.757813 v -2.578125 q 0,-0.029297 0,-0.053711 0.0049,-0.029297 0.0049,-0.1171875 0,-0.3564454 -0.151367,-0.6542969 -0.151367,-0.2978516 -0.576172,-0.2978516 -0.332031,0 -0.585938,0.2246094 -0.253906,0.2197266 -0.483398,0.5566406 V 0 h -1.757812 v -6.7675781 h 1.757812 v 2.5097656 q 0.43457,-0.4638672 0.859375,-0.6298828 0.424805,-0.1708984 0.90332,-0.1708984 1.78711,0 1.78711,2.0068359 z"
         id="text14"
         style="font-weight:700;font-size:10px;font-family:GillSans-Bold, 'Gill Sans';letter-spacing:-0.04em"
         transform="translate(13.78 165.14) scale(.88 1)"
         aria-label="Thresh" />
      <path
         d="m 22.909813,347.42977 h -2.53247 v 3.01318 h -1.840996 v -7.44433 h 4.373466 v 1.49315 h -2.53247 v 1.43946 h 2.53247 z m 5.87533,3.01318 H 24.14742 v -7.44433 h 1.840996 v 5.66113 h 2.796727 z m 10.055006,-7.44433 -2.642577,7.54101 h -1.06584 l -1.585546,-4.38818 -1.625186,4.38818 h -1.074647 l -2.589726,-7.54101 h 1.90706 l 1.268437,4.12499 1.453417,-4.12499 h 1.316885 l 1.426992,4.12499 1.325692,-4.12499 z"
         id="text15"
         style="font-weight:700;font-size:9.96092px;font-family:GillSans-Bold, 'Gill Sans';stroke-width:0.905538"
         aria-label="FLW" />
      <path
         d="M 2.3203125,0 H 0.6875 v -5.4140625 h 1.6328125 z m 5.0628126,0 h -1.40625 v -2.1445313 q 0,-0.328125 -0.109375,-0.5703125 -0.1054688,-0.2460937 -0.46875,-0.2460937 -0.171875,0 -0.3046875,0.066406 -0.1289063,0.0625 -0.234375,0.1640625 -0.1015625,0.1015625 -0.171875,0.1953125 -0.070312,0.09375 -0.1445313,0.1992188 V 0 h -1.40625 v -3.9765625 h 1.40625 V -3.40625 q 0.3320313,-0.3554688 0.6640625,-0.4960938 0.3359375,-0.1445312 0.7460938,-0.1445312 1.4296875,0 1.4296875,1.7109375 z m 4.8909379,-2.015625 q 0,0.3984375 -0.113282,0.7695313 -0.113281,0.3710937 -0.347656,0.67187495 -0.230469,0.296875 -0.597656,0.47265625 -0.363281,0.171875 -0.847656,0.171875 -0.3906254,0 -0.6171879,-0.08203125 Q 9.5279689,-0.09375 9.3053126,-0.23046875 V 1.8085937 h -1.40625 v -5.7851562 h 1.40625 v 0.359375 q 0.2109375,-0.1835938 0.4648438,-0.3046875 0.2578126,-0.125 0.6953126,-0.125 0.433594,0 0.851562,0.2148437 0.417969,0.2148438 0.6875,0.671875 0.269532,0.453125 0.269532,1.1445313 z m -1.480469,0.03125 q 0,-0.359375 -0.113281,-0.5820313 -0.113282,-0.2265625 -0.292969,-0.3242187 -0.179688,-0.1015625 -0.371094,-0.1015625 -0.2499999,0 -0.4101561,0.082031 -0.1601563,0.078125 -0.3007813,0.1992188 v 1.5195313 q 0.074219,0.039063 0.15625,0.089844 0.085937,0.046875 0.1679688,0.082031 0.085937,0.0351562 0.1796875,0.0585937 0.097656,0.0234375 0.2070311,0.0234375 0.332031,0 0.554688,-0.28125 Q 10.793594,-1.5 10.793594,-1.984375 Z M 16.875937,0 h -1.410156 v -0.56640625 q -0.296875,0.3203125 -0.625,0.48046875 -0.324219,0.15625 -0.78125,0.15625 -0.902344,0 -1.167969,-0.5234375 -0.265625,-0.52734375 -0.265625,-1.1875 v -2.3359375 h 1.410157 v 2.1484375 q 0,0.3242188 0.105468,0.5703125 0.109375,0.2421875 0.46875,0.2421875 0.308594,0 0.488282,-0.1757812 0.179687,-0.1757813 0.367187,-0.4492188 v -2.3359375 h 1.410156 z m 3.715156,-0.23046875 q -0.21875,0.10546875 -0.605469,0.203125 -0.382812,0.09765625 -0.734375,0.09765625 -1.519531,0 -1.519531,-1.484375 V -3 h -0.636719 v -0.2460938 l 1.886719,-1.9218749 h 0.160156 v 1.1914062 h 1.34375 V -3 h -1.34375 v 1.2734375 q 0,0.2226563 0.02734,0.359375 0.02734,0.1367188 0.152344,0.2304688 0.128906,0.089844 0.386719,0.089844 0.335937,0 0.882812,-0.28125 z"
         id="text16"
         style="font-weight:700;font-size:8px;font-family:GillSans-Bold, 'Gill Sans';letter-spacing:-0.04em;fill:#231f20"
         transform="translate(19.67 241.06) scale(.88 1)"
         aria-label="Input" />
      <path
         d="m 5.7851562,-0.3828125 q -0.1757812,0.0664063 -0.3007812,0.109375 -0.125,0.0429687 -0.2421875,0.078125 -0.1132813,0.0351563 -0.3320313,0.0898438 -0.3710937,0.0859375 -0.7421875,0.12890625 -0.3671874,0.046875 -0.7773437,0.046875 -0.8242187,0 -1.5234375,-0.30078125 Q 1.1679687,-0.53125 0.74609375,-1.1640625 0.328125,-1.796875 0.328125,-2.71875 q 0,-0.59375 0.21484375,-1.1640625 0.21875,-0.5742187 0.66406245,-0.9179687 Q 1.5742187,-5.0859375 1.9492187,-5.234375 2.328125,-5.3867187 2.6875,-5.4375 q 0.359375,-0.050781 0.7929688,-0.050781 0.7148437,0 1.1796874,0.109375 0.4648438,0.1054687 1.0195313,0.28125 v 1.2812499 Q 5.3125,-4.03125 4.9023437,-4.1757812 4.4921875,-4.3203125 3.8789063,-4.3203125 q -0.7070313,0 -1.1328125,0.2695313 -0.421875,0.2656249 -0.5898438,0.6367187 -0.1640625,0.3710937 -0.1640625,0.71875 0,0.4101562 0.1914063,0.7578125 0.1914062,0.34375 0.578125,0.5546875 0.3867187,0.2070313 0.9335937,0.2070313 0.3125,0 0.6640625,-0.082031 V -1.8945312 H 3.625 V -2.984375 h 2.1601562 z m 4.8596878,0.18359375 Q 10.33625,-0.078125 10.074531,-0.00390625 9.8128123,0.0703125 9.4456248,0.0703125 q -0.3476562,0 -0.484375,-0.12109375 -0.1367187,-0.125 -0.1953125,-0.30078125 -0.2265625,0.18359375 -0.5039062,0.3046875 -0.2773438,0.1171875 -0.7265625,0.1171875 -0.4335938,0 -0.703125,-0.1484375 -0.265625,-0.15234375 -0.375,-0.37890625 Q 6.3518748,-0.6875 6.3518748,-0.9296875 q 0,-0.3671875 0.1835938,-0.6054687 0.1875,-0.2421875 0.5,-0.3945313 0.3125,-0.1523438 0.828125,-0.3164063 0.2929687,-0.09375 0.4414062,-0.140625 0.1523438,-0.050781 0.2265625,-0.078125 0.074219,-0.027344 0.15625,-0.070312 0,-0.2890625 -0.1171875,-0.453125 -0.1171875,-0.1640625 -0.5078125,-0.1640625 -0.4609375,0 -0.8554687,0.203125 -0.3945313,0.203125 -0.7226563,0.5234375 v -1.078125 q 0.2617188,-0.1875 0.5664063,-0.3046875 0.3046875,-0.1210937 0.6367187,-0.1796875 0.3320313,-0.058594 0.671875,-0.058594 0.8632813,0 1.296875,0.3359375 0.4374997,0.3320312 0.4374997,0.9179687 v 1.5351563 q 0,0.21875 0.03906,0.328125 0.04297,0.10546875 0.152344,0.10546875 0.132812,0 0.359375,-0.11328125 z M 8.6878123,-0.9609375 v -0.9414062 q -0.5,0.203125 -0.7304687,0.3671875 -0.2304688,0.1601562 -0.2304688,0.4375 0,0.1992187 0.1132813,0.30468745 Q 7.9573436,-0.6875 8.1096873,-0.6875 q 0.1445313,0 0.2851563,-0.078125 0.1445312,-0.0820313 0.2929687,-0.1953125 z m 5.2151557,0.73046875 Q 13.684218,-0.125 13.2975,-0.02734375 12.914687,0.0703125 12.563125,0.0703125 q -1.519532,0 -1.519532,-1.484375 V -3 h -0.636718 v -0.2460938 l 1.886718,-1.9218749 h 0.160157 v 1.1914062 H 13.7975 V -3 h -1.34375 v 1.2734375 q 0,0.2226563 0.02734,0.359375 0.02734,0.1367188 0.152344,0.2304688 0.128906,0.089844 0.386719,0.089844 0.335937,0 0.882812,-0.28125 z M 18.278281,-1.6484375 H 15.4775 q 0.08203,0.3632813 0.402344,0.59375 0.320312,0.23046875 0.726562,0.23046875 0.710938,0 1.570313,-0.39843745 v 0.8710937 q -0.308594,0.16015625 -0.75,0.29296875 -0.4375,0.12890625 -1.117188,0.12890625 -0.734375,0 -1.25,-0.2734375 -0.515625,-0.2734375 -0.773437,-0.7421875 -0.253907,-0.46875 -0.253907,-1.0625 0,-0.5859375 0.253907,-1.046875 0.257812,-0.4648438 0.773437,-0.7265625 0.515625,-0.265625 1.25,-0.265625 0.484375,0 0.933594,0.2109375 0.453125,0.2070312 0.742187,0.6835937 0.292969,0.4726563 0.292969,1.2226563 z M 16.957969,-2.34375 q 0,-0.3828125 -0.191407,-0.609375 -0.1875,-0.2304688 -0.542968,-0.2304688 -0.351563,0 -0.570313,0.234375 -0.214844,0.2304688 -0.214844,0.6054688 z"
         id="text17"
         style="font-weight:700;font-size:8px;font-family:GillSans-Bold, 'Gill Sans';letter-spacing:-0.04em;fill:#ffffff"
         transform="translate(20.65 289.25) scale(.88 1)"
         aria-label="Gate" />
      <path
         d="M 4.7617187,0 H 0.6796875 v -5.4140625 h 4.015625 V -4.328125 H 2.3125 v 0.9921875 h 2.2734375 v 1.0898437 H 2.3125 v 1.1562501 h 2.4492187 z m 4.7893749,0 h -1.40625 v -2.1445313 q 0,-0.328125 -0.109375,-0.5703125 -0.1054688,-0.2460937 -0.46875,-0.2460937 -0.171875,0 -0.3046875,0.066406 -0.1289063,0.0625 -0.234375,0.1640625 -0.1015625,0.1015625 -0.171875,0.1953125 -0.070312,0.09375 -0.1445313,0.1992188 V 0 h -1.40625 v -3.9765625 h 1.40625 V -3.40625 q 0.3320313,-0.3554688 0.6640625,-0.4960938 0.3359375,-0.1445312 0.7460938,-0.1445312 1.4296875,0 1.4296875,1.7109375 z M 14.26625,-3.9765625 12.457656,0 H 11.418593 L 9.6490622,-3.9765625 h 1.5117188 l 0.824219,2.0820313 0.914062,-2.0820313 z"
         id="text18"
         style="font-weight:700;font-size:8px;font-family:GillSans-Bold, 'Gill Sans';letter-spacing:-0.04em;fill:#ffffff"
         transform="translate(22.51 337.44) scale(.88 1)"
         aria-label="Env" />
    </g>
    <g
       id="pips">
      <g
         id="pips_-_fewest"
         data-name="pips - fewest">
        <g
           style="clip-path: url(#clippath);"
           clip-path="url(#clippath)"
           id="g28">
          <g
             style="clip-path: url(#clippath-1);"
             clip-path="url(#clippath-1)"
             id="g27">
            <path
               d="M34.49,35.93l.71-1.23c-1.74-.9-3.69-1.45-5.77-1.54v1.42c1.81.09,3.52.56,5.05,1.35"
               style="fill: #000; stroke-width: 0px;"
               id="path18" />
            <path
               d="M39.28,40.25l1.23-.71c-1.09-1.69-2.53-3.12-4.22-4.21l-.71,1.23c1.48.96,2.74,2.21,3.7,3.69"
               style="fill: #000; stroke-width: 0px;"
               id="path19" />
            <path
               d="M22.02,36.56l-.71-1.23c-1.69,1.08-3.14,2.52-4.22,4.2l1.23.71c.96-1.47,2.22-2.73,3.7-3.69"
               style="fill: #000; stroke-width: 0px;"
               id="path20" />
            <path
               d="M41.26,46.38h1.43c-.09-2.07-.64-4.01-1.54-5.75l-1.23.71c.79,1.52,1.26,3.23,1.35,5.04"
               style="fill: #000; stroke-width: 0px;"
               id="path21" />
            <path
               d="M28.17,34.59v-1.42c-2.07.09-4.03.64-5.77,1.54l.71,1.23c1.53-.78,3.24-1.25,5.05-1.35"
               style="fill: #000; stroke-width: 0px;"
               id="path22" />
            <path
               d="M18.32,53.76l-1.23.71c1.09,1.69,2.53,3.12,4.22,4.21l.71-1.23c-1.48-.96-2.74-2.21-3.7-3.69"
               style="fill: #000; stroke-width: 0px;"
               id="path23" />
            <path
               d="M35.58,57.45l.71,1.23c1.69-1.08,3.14-2.52,4.22-4.2l-1.23-.71c-.96,1.47-2.22,2.73-3.7,3.69"
               style="fill: #000; stroke-width: 0px;"
               id="path24" />
            <path
               d="M41.26,47.64c-.09,1.81-.56,3.51-1.35,5.04l1.23.71c.9-1.73,1.45-3.68,1.54-5.75h-1.43Z"
               style="fill: #000; stroke-width: 0px;"
               id="path25" />
            <path
               d="M16.34,47.64h-1.43c.09,2.07.64,4.01,1.54,5.75l1.23-.71c-.79-1.52-1.26-3.23-1.35-5.04"
               style="fill: #000; stroke-width: 0px;"
               id="path26" />
            <path
               d="M17.69,41.34l-1.23-.71c-.9,1.73-1.45,3.68-1.54,5.75h1.43c.09-1.81.56-3.51,1.35-5.04"
               style="fill: #000; stroke-width: 0px;"
               id="path27" />
          </g>
        </g>
      </g>
      <g
         id="pips_-_fewest-2"
         data-name="pips - fewest">
        <g
           style="clip-path: url(#clippath-2);"
           clip-path="url(#clippath-2)"
           id="g38">
          <g
             style="clip-path: url(#clippath-3);"
             clip-path="url(#clippath-3)"
             id="g37">
            <path
               d="M34.49,83.98l.71-1.23c-1.74-.9-3.69-1.45-5.77-1.54v1.42c1.81.09,3.52.56,5.05,1.35"
               style="fill: #000; stroke-width: 0px;"
               id="path28" />
            <path
               d="M39.28,88.3l1.23-.71c-1.09-1.69-2.53-3.12-4.22-4.21l-.71,1.23c1.48.96,2.74,2.21,3.7,3.69"
               style="fill: #000; stroke-width: 0px;"
               id="path29" />
            <path
               d="M22.02,84.61l-.71-1.23c-1.69,1.08-3.14,2.52-4.22,4.2l1.23.71c.96-1.47,2.22-2.73,3.7-3.69"
               style="fill: #000; stroke-width: 0px;"
               id="path30" />
            <path
               d="M41.26,94.42h1.43c-.09-2.07-.64-4.01-1.54-5.75l-1.23.71c.79,1.52,1.26,3.23,1.35,5.04"
               style="fill: #000; stroke-width: 0px;"
               id="path31" />
            <path
               d="M28.17,82.63v-1.42c-2.07.09-4.03.64-5.77,1.54l.71,1.23c1.53-.78,3.24-1.25,5.05-1.35"
               style="fill: #000; stroke-width: 0px;"
               id="path32" />
            <path
               d="M18.32,101.81l-1.23.71c1.09,1.69,2.53,3.12,4.22,4.21l.71-1.23c-1.48-.96-2.74-2.21-3.7-3.69"
               style="fill: #000; stroke-width: 0px;"
               id="path33" />
            <path
               d="M35.58,105.5l.71,1.23c1.69-1.08,3.14-2.52,4.22-4.2l-1.23-.71c-.96,1.47-2.22,2.73-3.7,3.69"
               style="fill: #000; stroke-width: 0px;"
               id="path34" />
            <path
               d="M41.26,95.68c-.09,1.81-.56,3.51-1.35,5.04l1.23.71c.9-1.73,1.45-3.68,1.54-5.75h-1.43Z"
               style="fill: #000; stroke-width: 0px;"
               id="path35" />
            <path
               d="M16.34,95.68h-1.43c.09,2.07.64,4.01,1.54,5.75l1.23-.71c-.79-1.52-1.26-3.23-1.35-5.04"
               style="fill: #000; stroke-width: 0px;"
               id="path36" />
            <path
               d="M17.69,89.39l-1.23-.71c-.9,1.73-1.45,3.68-1.54,5.75h1.43c.09-1.81.56-3.51,1.35-5.04"
               style="fill: #000; stroke-width: 0px;"
               id="path37" />
          </g>
        </g>
      </g>
      <g
         id="pips_-_fewest-3"
         data-name="pips - fewest">
        <g
           style="clip-path: url(#clippath-4);"
           clip-path="url(#clippath-4)"
           id="g48">
          <g
             style="clip-path: url(#clippath-5);"
             clip-path="url(#clippath-5)"
             id="g47">
            <path
               d="M34.49,132.17l.71-1.23c-1.74-.9-3.69-1.45-5.77-1.54v1.42c1.81.09,3.52.56,5.05,1.35"
               style="fill: #000; stroke-width: 0px;"
               id="path38" />
            <path
               d="M39.28,136.49l1.23-.71c-1.09-1.69-2.53-3.12-4.22-4.21l-.71,1.23c1.48.96,2.74,2.21,3.7,3.69"
               style="fill: #000; stroke-width: 0px;"
               id="path39" />
            <path
               d="M22.02,132.8l-.71-1.23c-1.69,1.08-3.14,2.52-4.22,4.2l1.23.71c.96-1.47,2.22-2.73,3.7-3.69"
               style="fill: #000; stroke-width: 0px;"
               id="path40" />
            <path
               d="M41.26,142.61h1.43c-.09-2.07-.64-4.01-1.54-5.75l-1.23.71c.79,1.52,1.26,3.23,1.35,5.04"
               style="fill: #000; stroke-width: 0px;"
               id="path41" />
            <path
               d="M28.17,130.82v-1.42c-2.07.09-4.03.64-5.77,1.54l.71,1.23c1.53-.78,3.24-1.25,5.05-1.35"
               style="fill: #000; stroke-width: 0px;"
               id="path42" />
            <path
               d="M18.32,150l-1.23.71c1.09,1.69,2.53,3.12,4.22,4.21l.71-1.23c-1.48-.96-2.74-2.21-3.7-3.69"
               style="fill: #000; stroke-width: 0px;"
               id="path43" />
            <path
               d="M35.58,153.69l.71,1.23c1.69-1.08,3.14-2.52,4.22-4.2l-1.23-.71c-.96,1.47-2.22,2.73-3.7,3.69"
               style="fill: #000; stroke-width: 0px;"
               id="path44" />
            <path
               d="M41.26,143.87c-.09,1.81-.56,3.51-1.35,5.04l1.23.71c.9-1.73,1.45-3.68,1.54-5.75h-1.43Z"
               style="fill: #000; stroke-width: 0px;"
               id="path45" />
            <path
               d="M16.34,143.87h-1.43c.09,2.07.64,4.01,1.54,5.75l1.23-.71c-.79-1.52-1.26-3.23-1.35-5.04"
               style="fill: #000; stroke-width: 0px;"
               id="path46" />
            <path
               d="M17.69,137.58l-1.23-.71c-.9,1.73-1.45,3.68-1.54,5.75h1.43c.09-1.81.56-3.51,1.35-5.04"
               style="fill: #000; stroke-width: 0px;"
               id="path47" />
          </g>
        </g>
      </g>
    </g>
  </g>
  <g
     id="g1" />
</svg>
