<?xml version="1.0" encoding="UTF-8" standalone="no"?>
<svg
   width="40.73mm"
   height="128.59mm"
   viewBox="0 0 115.45 364.5"
   version="1.1"
   id="svg68"
   sodipodi:docname="Freeverb_artwork.svg"
   inkscape:version="1.4.2 (ebf0e940, 2025-05-08)"
   xmlns:inkscape="http://www.inkscape.org/namespaces/inkscape"
   xmlns:sodipodi="http://sodipodi.sourceforge.net/DTD/sodipodi-0.dtd"
   xmlns="http://www.w3.org/2000/svg"
   xmlns:svg="http://www.w3.org/2000/svg">
  <defs
     id="defs68" />
  <sodipodi:namedview
     id="namedview68"
     pagecolor="#ffffff"
     bordercolor="#000000"
     borderopacity="0.25"
     inkscape:showpageshadow="2"
     inkscape:pageopacity="0.0"
     inkscape:pagecheckerboard="0"
     inkscape:deskcolor="#d1d1d1"
     inkscape:document-units="mm"
     inkscape:zoom="0.6829637"
     inkscape:cx="71.014024"
     inkscape:cy="393.87159"
     inkscape:window-width="1696"
     inkscape:window-height="831"
     inkscape:window-x="32"
     inkscape:window-y="38"
     inkscape:window-maximized="0"
     inkscape:current-layer="faceplate" />
  <g
     id="faceplate">
    <path
       id="rect1"
       style="fill:#ededed;stroke:#9d9d9e;stroke-width:0.25px;stroke-miterlimit:10"
       d="m 0.12,0.12 h 115.2 V 364.37 H 0.12 Z" />
    <g
       id="g4">
      <path
         d="M100.47,316.9v-23.22h-21.54c-7.49,0-13.57,7.04-13.57,15.71v32.93h15.07s0,0,0,0h14.39c3.12,0,5.64-2.55,5.64-5.67v-19.84.08Z"
         style="fill: #000; stroke-width: 0px;"
         id="path1" />
      <g
         id="g3">
        <path
           d="M28.36,341.84h35.2s23.15,0,23.15,0c7.35,0,13.31-7.02,13.31-15.67v-107.66l-.06-6.64c-.29-8.35-6.12-15.02-13.28-15.02H28.32c-7.17,0-12.99,6.67-13.28,15.02l-.06,6.64v46.5l.07,61.17"
           style="fill: none; stroke: #000; stroke-miterlimit: 10;"
           id="path2" />
        <path
           d="M15.04,325.21v10.96c0,3.12,2.55,5.67,5.67,5.67h12.93"
           style="fill: none; stroke: #231f20; stroke-miterlimit: 10;"
           id="path3" />
      </g>
    </g>
    <path
       d="M 6.2680664,-3.0131836 H 3.1796875 V 0 H 0.93457031 V -7.4443359 H 6.2680664 v 1.493164 H 3.1796875 v 1.4394532 H 6.2680664 Z M 14.985352,0 H 12.57373 l -0.585449,-1.3212891 q -0.322265,-0.7250976 -0.580078,-1.0581054 -0.257812,-0.3383789 -0.504883,-0.4296875 -0.241699,-0.09668 -0.628418,-0.09668 H 10.022461 V 0 H 7.7773437 v -7.4443359 h 3.8188473 q 0.923829,0 1.514649,0.3759765 0.59082,0.3759766 0.848633,0.913086 0.263183,0.5371093 0.263183,1.0205078 0,0.5639648 -0.220215,0.9560547 -0.214843,0.3867187 -0.456543,0.5639648 -0.241699,0.1772461 -0.54248,0.3383789 0.359863,0.2094727 0.59082,0.4995117 0.236328,0.284668 0.63916,1.1601563 z M 11.93457,-5.0917969 q 0,-0.515625 -0.338379,-0.7197265 -0.338378,-0.2041016 -1.101074,-0.2041016 h -0.472656 v 1.7939453 h 0.483398 q 0.821778,0 1.122559,-0.1772461 0.306152,-0.1826172 0.306152,-0.6928711 z M 21.618652,0 h -5.612793 v -7.4443359 h 5.521485 v 1.493164 h -3.276367 v 1.3642578 h 3.125976 v 1.4985352 h -3.125976 v 1.5898437 h 3.367675 z m 7.1167,0 h -5.612793 v -7.4443359 h 5.521484 v 1.493164 h -3.276367 v 1.3642578 h 3.125976 v 1.4985352 h -3.125976 v 1.5898437 h 3.367676 z m 8.787109,-7.4443359 -3.356934,7.54101559 h -1.482422 l -3.29248,-7.54101559 h 2.336426 l 1.702636,4.296875 1.750977,-4.296875 z M 44.155762,0 h -5.612793 v -7.4443359 h 5.521484 v 1.493164 h -3.276367 v 1.3642578 h 3.125976 v 1.4985352 h -3.125976 v 1.5898437 h 3.367676 z m 8.711914,0 h -2.411621 l -0.58545,-1.3212891 q -0.322265,-0.7250976 -0.580078,-1.0581054 -0.257812,-0.3383789 -0.504882,-0.4296875 -0.2417,-0.09668 -0.628418,-0.09668 H 47.904785 V 0 h -2.245117 v -7.4443359 h 3.818848 q 0.923828,0 1.514648,0.3759765 0.59082,0.3759766 0.848633,0.913086 0.263183,0.5371093 0.263183,1.0205078 0,0.5639648 -0.220214,0.9560547 -0.214844,0.3867187 -0.456543,0.5639648 -0.2417,0.1772461 -0.542481,0.3383789 0.359863,0.2094727 0.59082,0.4995117 0.236329,0.284668 0.639161,1.1601563 z m -3.050781,-5.0917969 q 0,-0.515625 -0.338379,-0.7197265 -0.338379,-0.2041016 -1.101075,-0.2041016 h -0.472656 v 1.7939453 h 0.483399 q 0.821777,0 1.122558,-0.1772461 0.306153,-0.1826172 0.306153,-0.6928711 z m 10.871093,2.9809571 q 0,0.9614257 -0.660644,1.53613277 Q 59.37207,0 58.19043,0 h -4.302246 v -7.4443359 h 3.598632 q 0.698243,0 1.213868,0.1342773 0.520996,0.1342774 0.83789,0.3706055 0.316895,0.230957 0.472656,0.5478515 0.155762,0.3168946 0.155762,0.6928711 0,0.4082032 -0.161133,0.7573243 -0.161132,0.34375 -0.402832,0.5693359 -0.236328,0.2202148 -0.478027,0.3115234 0.762695,0.3007813 1.160156,0.7626953 0.402832,0.456543 0.402832,1.1870118 z m -2.621093,-3.1904297 q 0,-0.5371094 -0.354493,-0.7143555 -0.354492,-0.1772461 -1.106445,-0.1772461 h -0.472656 v 1.7832031 h 0.483398 q 0.768067,0 1.106446,-0.1772461 0.34375,-0.1772461 0.34375,-0.7143554 z m 0.365234,3.0991211 q 0,-0.9560547 -1.385742,-0.9560547 h -0.913086 v 1.9067383 h 0.913086 q 1.385742,0 1.385742,-0.9506836 z"
       id="text4"
       style="font-weight:700;font-size:11px;font-family:GillSans-Bold, 'Gill Sans'"
       transform="translate(32.64 357.47) scale(.82 1)"
       aria-label="FREEVERB" />
    <path
       d="m 4.4648437,-1.5742187 q 0,0.5078125 -0.2617187,0.8789062 Q 3.9453125,-0.32421875 3.4804688,-0.125 3.015625,0.0703125 2.4140625,0.0703125 2.2460938,0.0703125 2,0.046875 1.7578125,0.02734375 1.3515625,-0.0703125 0.94921875,-0.16796875 0.51171875,-0.359375 V -1.6875 q 0.41015625,0.2539063 0.80468745,0.421875 0.3984375,0.1679688 0.8515626,0.1679688 0.4179687,0 0.5390625,-0.1367188 0.125,-0.140625 0.125,-0.2617187 0,-0.21875 -0.2109375,-0.3671875 Q 2.4101563,-2.015625 2.0078125,-2.1757813 1.5625,-2.3632813 1.2265625,-2.5820313 0.890625,-2.8046875 0.67578125,-3.1367188 0.46484375,-3.46875 0.46484375,-3.921875 q 0,-0.4375 0.21484375,-0.7890625 0.21484375,-0.3554687 0.65625,-0.5664062 0.4414062,-0.2109375 1.078125,-0.2109375 0.453125,0 0.8359375,0.089844 0.3867188,0.085937 0.6367188,0.1953125 0.2499999,0.109375 0.3437499,0.171875 v 1.2695312 Q 3.8984375,-4 3.4882813,-4.1875 3.0820313,-4.375 2.6171875,-4.375 2.3125,-4.375 2.1757813,-4.2578125 2.0390625,-4.140625 2.0390625,-3.96875 q 0,0.1601562 0.1367188,0.2773437 0.1367187,0.1171875 0.4882812,0.2851563 0.625,0.2929687 1,0.5273437 0.375,0.234375 0.5859375,0.5429688 0.2148437,0.3046875 0.2148437,0.7617188 z m 1.9260936,-3.3203125 q 0,0.2460937 -0.1757812,0.4179687 -0.1757813,0.171875 -0.4179688,0.171875 -0.1640625,0 -0.3007812,-0.078125 -0.1328125,-0.078125 -0.2109375,-0.2109375 -0.078125,-0.1367187 -0.078125,-0.3007812 0,-0.2421875 0.171875,-0.4179688 0.171875,-0.1757812 0.4179687,-0.1757812 0.2421875,0 0.4179688,0.1757812 0.1757812,0.1757813 0.1757812,0.4179688 z M 6.5042186,0 H 5.0940623 V -3.9765625 H 6.5042186 Z M 10.934219,-3.8476563 9.0318751,-1.0390625 H 10.895156 V 0 H 6.8170314 V -0.12890625 L 8.7193751,-2.9375 H 6.9771876 v -1.0390625 h 3.9570314 z m 4.160468,2.1992188 h -2.800781 q 0.08203,0.3632813 0.402344,0.59375 0.320312,0.23046875 0.726562,0.23046875 0.710938,0 1.570313,-0.39843745 v 0.8710937 q -0.308594,0.16015625 -0.75,0.29296875 -0.4375,0.12890625 -1.117188,0.12890625 -0.734375,0 -1.25,-0.2734375 -0.515625,-0.2734375 -0.773437,-0.7421875 -0.253906,-0.46875 -0.253906,-1.0625 0,-0.5859375 0.253906,-1.046875 0.257812,-0.4648438 0.773437,-0.7265625 0.515625,-0.265625 1.25,-0.265625 0.484375,0 0.933594,0.2109375 0.453125,0.2070312 0.742188,0.6835937 0.292968,0.4726563 0.292968,1.2226563 z M 13.774375,-2.34375 q 0,-0.3828125 -0.191406,-0.609375 -0.1875,-0.2304688 -0.542969,-0.2304688 -0.351563,0 -0.570313,0.234375 -0.214843,0.2304688 -0.214843,0.6054688 z"
       id="text5"
       style="font-weight:700;font-size:8px;font-family:GillSans-Bold, 'Gill Sans';letter-spacing:-0.04em"
       transform="translate(76.59 239.99) scale(.88 1)"
       aria-label="Size" />
    <path
       d="m 6.2460937,-2.609375 q 0,0.8320313 -0.3046875,1.3359375 Q 5.640625,-0.76953125 5.2304687,-0.45703125 4.6484375,0 3.6015625,0 h -2.921875 v -5.4140625 h 2.25 q 0.5078125,0 0.8671875,0.054687 0.3632812,0.050781 0.6523437,0.1484375 0.2890625,0.09375 0.4921875,0.2148438 0.203125,0.1171875 0.3632813,0.2539062 0.2773437,0.2265625 0.484375,0.5351563 Q 6,-3.8984375 6.1210937,-3.4921875 q 0.125,0.40625 0.125,0.8828125 z m -1.6601562,-0.070312 q 0,-0.6601563 -0.2539063,-1.0273438 -0.25,-0.3710937 -0.6054687,-0.4960937 -0.3515625,-0.125 -0.71875,-0.125 H 2.3125 v 3.2070313 h 0.6953125 q 0.640625,0 1.109375,-0.3046875 0.46875,-0.3046875 0.46875,-1.2539063 z m 6.2424995,2.48046875 Q 10.519844,-0.078125 10.258125,-0.00390625 9.9964061,0.0703125 9.6292186,0.0703125 q -0.3476563,0 -0.484375,-0.12109375 -0.1367188,-0.125 -0.1953125,-0.30078125 -0.2265625,0.18359375 -0.5039063,0.3046875 -0.2773437,0.1171875 -0.7265625,0.1171875 -0.4335937,0 -0.703125,-0.1484375 -0.265625,-0.15234375 -0.375,-0.37890625 Q 6.5354686,-0.6875 6.5354686,-0.9296875 q 0,-0.3671875 0.1835937,-0.6054687 0.1875,-0.2421875 0.5,-0.3945313 0.3125,-0.1523438 0.828125,-0.3164063 0.2929688,-0.09375 0.4414063,-0.140625 0.1523437,-0.050781 0.2265625,-0.078125 0.074219,-0.027344 0.15625,-0.070312 0,-0.2890625 -0.1171875,-0.453125 -0.1171875,-0.1640625 -0.5078125,-0.1640625 -0.4609375,0 -0.8554688,0.203125 -0.3945312,0.203125 -0.7226562,0.5234375 v -1.078125 q 0.2617187,-0.1875 0.5664062,-0.3046875 0.3046875,-0.1210937 0.6367188,-0.1796875 0.3320312,-0.058594 0.671875,-0.058594 0.8632812,0 1.296875,0.3359375 0.4374999,0.3320312 0.4374999,0.9179687 v 1.5351563 q 0,0.21875 0.03906,0.328125 0.04297,0.10546875 0.152343,0.10546875 0.132813,0 0.359375,-0.11328125 z M 8.8714061,-0.9609375 v -0.9414062 q -0.5,0.203125 -0.7304688,0.3671875 -0.2304687,0.1601562 -0.2304687,0.4375 0,0.1992187 0.1132812,0.30468745 Q 8.1409373,-0.6875 8.2932811,-0.6875 q 0.1445312,0 0.2851562,-0.078125 0.1445313,-0.0820313 0.2929688,-0.1953125 z M 18.149062,0 h -1.40625 v -2.1210938 q 0,-0.421875 -0.140625,-0.6289062 -0.136719,-0.2109375 -0.4375,-0.2109375 -0.292969,0 -0.480469,0.1796875 -0.1875,0.1757812 -0.375,0.4453125 V 0 h -1.40625 v -2.1210938 q 0,-0.4023437 -0.128906,-0.6210937 -0.128906,-0.21875 -0.457031,-0.21875 -0.15625,0 -0.289063,0.0625 -0.128906,0.0625 -0.210937,0.140625 -0.08203,0.078125 -0.199219,0.2304687 Q 12.500625,-2.375 12.469375,-2.3359375 V 0 h -1.40625 v -3.9765625 h 1.40625 V -3.40625 q 0.316406,-0.3359375 0.644531,-0.4882813 0.328125,-0.1523437 0.757812,-0.1523437 0.203125,0 0.386719,0.039063 0.183594,0.035156 0.359375,0.125 0.179688,0.089844 0.324219,0.2460937 0.144531,0.15625 0.230469,0.3632813 0.339843,-0.3828125 0.703125,-0.578125 0.367187,-0.1953125 0.84375,-0.1953125 0.476562,0 0.796875,0.1914062 0.324218,0.1914063 0.476562,0.5546875 0.15625,0.359375 0.15625,0.875 z m 4.883126,-2.015625 q 0,0.3984375 -0.113281,0.7695313 -0.113281,0.3710937 -0.347656,0.67187495 -0.230469,0.296875 -0.597656,0.47265625 -0.363282,0.171875 -0.847657,0.171875 -0.390625,0 -0.617187,-0.08203125 -0.222656,-0.08203125 -0.445313,-0.21875 V 1.8085937 h -1.40625 v -5.7851562 h 1.40625 v 0.359375 q 0.210938,-0.1835938 0.464844,-0.3046875 0.257813,-0.125 0.695313,-0.125 0.433593,0 0.851562,0.2148437 0.417969,0.2148438 0.6875,0.671875 0.269531,0.453125 0.269531,1.1445313 z m -1.480468,0.03125 q 0,-0.359375 -0.113282,-0.5820313 -0.113281,-0.2265625 -0.292968,-0.3242187 -0.179688,-0.1015625 -0.371094,-0.1015625 -0.25,0 -0.410156,0.082031 -0.160157,0.078125 -0.300782,0.1992188 v 1.5195313 q 0.07422,0.039063 0.15625,0.089844 0.08594,0.046875 0.167969,0.082031 0.08594,0.0351562 0.179688,0.0585937 0.09766,0.0234375 0.207031,0.0234375 0.332031,0 0.554687,-0.28125 Q 21.55172,-1.5 21.55172,-1.984375 Z"
       id="text6"
       style="font-weight:700;font-size:8px;font-family:GillSans-Bold, 'Gill Sans';letter-spacing:-0.04em"
       transform="translate(73.22 289.9) scale(.88 1)"
       aria-label="Damp" />
    <path
       d="m 6.4726562,-2.7109375 q 0,0.7578125 -0.3515625,1.3945313 -0.3476562,0.6367187 -1.0390625,1.0117187 -0.6914062,0.375 -1.6835937,0.375 -1.0039062,0 -1.6992188,-0.390625 Q 1.0039062,-0.7109375 0.6640625,-1.3476562 0.328125,-1.984375 0.328125,-2.7109375 q 0,-0.7304688 0.3359375,-1.3632812 Q 1,-4.7109375 1.6953125,-5.0976562 q 0.6992188,-0.390625 1.703125,-0.390625 0.75,0 1.3359375,0.2226562 0.5898437,0.2226563 0.96875,0.6054688 0.3789062,0.3789062 0.5742187,0.8867187 0.1953125,0.5039062 0.1953125,1.0625 z m -1.6640625,0 q 0,-0.3046875 -0.089844,-0.5546875 -0.089844,-0.2539063 -0.2734375,-0.4375 -0.1796875,-0.1875 -0.4414063,-0.2890625 -0.2617187,-0.1054687 -0.6054687,-0.1054687 -0.65625,0 -1.03125,0.3828124 -0.375,0.3828125 -0.375,1.0039063 0,0.6210937 0.375,1.0078125 0.3789063,0.3828125 1.03125,0.3828125 0.4492188,0 0.765625,-0.1757812 0.3164062,-0.1796875 0.4804687,-0.4921875 0.1640625,-0.3164063 0.1640625,-0.7226563 z M 11.129219,0 H 9.7190623 v -0.56640625 q -0.296875,0.3203125 -0.625,0.48046875 -0.3242187,0.15625 -0.78125,0.15625 -0.9023437,0 -1.1679687,-0.5234375 -0.265625,-0.52734375 -0.265625,-1.1875 v -2.3359375 h 1.4101562 v 2.1484375 q 0,0.3242188 0.1054688,0.5703125 0.109375,0.2421875 0.46875,0.2421875 0.3085937,0 0.4882812,-0.1757812 0.1796875,-0.1757813 0.3671875,-0.4492188 v -2.3359375 h 1.4101567 z m 3.715156,-0.23046875 q -0.21875,0.10546875 -0.605469,0.203125 -0.382813,0.09765625 -0.734375,0.09765625 -1.519531,0 -1.519531,-1.484375 V -3 H 11.348281 V -3.2460938 L 13.235,-5.1679687 h 0.160156 v 1.1914062 h 1.34375 V -3 h -1.34375 v 1.2734375 q 0,0.2226563 0.02734,0.359375 0.02734,0.1367188 0.152343,0.2304688 0.128907,0.089844 0.386719,0.089844 0.335938,0 0.882813,-0.28125 z"
       id="text7"
       style="font-weight:700;font-size:8px;font-family:GillSans-Bold, 'Gill Sans';letter-spacing:-0.04em;fill:#ffffff"
       transform="translate(76.79 337.15) scale(.88 1)"
       aria-label="Out" />
    <path
       d="M 2.3203125,0 H 0.6875 v -5.4140625 h 1.6328125 z m 5.0628126,0 h -1.40625 v -2.1445313 q 0,-0.328125 -0.109375,-0.5703125 -0.1054688,-0.2460937 -0.46875,-0.2460937 -0.171875,0 -0.3046875,0.066406 -0.1289063,0.0625 -0.234375,0.1640625 -0.1015625,0.1015625 -0.171875,0.1953125 -0.070312,0.09375 -0.1445313,0.1992188 V 0 h -1.40625 v -3.9765625 h 1.40625 V -3.40625 q 0.3320313,-0.3554688 0.6640625,-0.4960938 0.3359375,-0.1445312 0.7460938,-0.1445312 1.4296875,0 1.4296875,1.7109375 z m 4.8909379,-2.015625 q 0,0.3984375 -0.113282,0.7695313 -0.113281,0.3710937 -0.347656,0.67187495 -0.230469,0.296875 -0.597656,0.47265625 -0.363281,0.171875 -0.847656,0.171875 -0.3906254,0 -0.6171879,-0.08203125 Q 9.5279689,-0.09375 9.3053126,-0.23046875 V 1.8085937 h -1.40625 v -5.7851562 h 1.40625 v 0.359375 q 0.2109375,-0.1835938 0.4648438,-0.3046875 0.2578126,-0.125 0.6953126,-0.125 0.433594,0 0.851562,0.2148437 0.417969,0.2148438 0.6875,0.671875 0.269532,0.453125 0.269532,1.1445313 z m -1.480469,0.03125 q 0,-0.359375 -0.113281,-0.5820313 -0.113282,-0.2265625 -0.292969,-0.3242187 -0.179688,-0.1015625 -0.371094,-0.1015625 -0.2499999,0 -0.4101561,0.082031 -0.1601563,0.078125 -0.3007813,0.1992188 v 1.5195313 q 0.074219,0.039063 0.15625,0.089844 0.085937,0.046875 0.1679688,0.082031 0.085937,0.0351562 0.1796875,0.0585937 0.097656,0.0234375 0.2070311,0.0234375 0.332031,0 0.554688,-0.28125 Q 10.793594,-1.5 10.793594,-1.984375 Z M 16.875937,0 h -1.410156 v -0.56640625 q -0.296875,0.3203125 -0.625,0.48046875 -0.324219,0.15625 -0.78125,0.15625 -0.902344,0 -1.167969,-0.5234375 -0.265625,-0.52734375 -0.265625,-1.1875 v -2.3359375 h 1.410157 v 2.1484375 q 0,0.3242188 0.105468,0.5703125 0.109375,0.2421875 0.46875,0.2421875 0.308594,0 0.488282,-0.1757812 0.179687,-0.1757813 0.367187,-0.4492188 v -2.3359375 h 1.410156 z m 3.715156,-0.23046875 q -0.21875,0.10546875 -0.605469,0.203125 -0.382812,0.09765625 -0.734375,0.09765625 -1.519531,0 -1.519531,-1.484375 V -3 h -0.636719 v -0.2460938 l 1.886719,-1.9218749 h 0.160156 v 1.1914062 h 1.34375 V -3 h -1.34375 v 1.2734375 q 0,0.2226563 0.02734,0.359375 0.02734,0.1367188 0.152344,0.2304688 0.128906,0.089844 0.386719,0.089844 0.335937,0 0.882812,-0.28125 z"
       id="text8"
       style="font-weight:700;font-size:8px;font-family:GillSans-Bold, 'Gill Sans';letter-spacing:-0.04em"
       transform="translate(23.14 239.99) scale(.88 1)"
       aria-label="Input" />
    <path
       d="M 4.5585937,-2.1914063 H 2.3125 V 0 H 0.6796875 V -5.4140625 H 4.5585937 V -4.328125 H 2.3125 v 1.046875 h 2.2460937 z m 4.5120311,0.5429688 H 6.2698436 q 0.082031,0.3632813 0.4023437,0.59375 0.3203125,0.23046875 0.7265625,0.23046875 0.7109375,0 1.5703125,-0.39843745 v 0.8710937 q -0.3085937,0.16015625 -0.75,0.29296875 -0.4375,0.12890625 -1.1171875,0.12890625 -0.734375,0 -1.25,-0.2734375 -0.515625,-0.2734375 -0.7734375,-0.7421875 -0.2539062,-0.46875 -0.2539062,-1.0625 0,-0.5859375 0.2539062,-1.046875 0.2578125,-0.4648438 0.7734375,-0.7265625 0.515625,-0.265625 1.25,-0.265625 0.484375,0 0.9335938,0.2109375 0.453125,0.2070312 0.7421875,0.6835937 0.2929687,0.4726563 0.2929687,1.2226563 z M 7.7503123,-2.34375 q 0,-0.3828125 -0.1914062,-0.609375 -0.1875,-0.2304688 -0.5429688,-0.2304688 -0.3515625,0 -0.5703125,0.234375 Q 6.2307811,-2.71875 6.2307811,-2.34375 Z m 5.7698437,0.6953125 h -2.800781 q 0.08203,0.3632813 0.402343,0.59375 0.320313,0.23046875 0.726563,0.23046875 0.710937,0 1.570312,-0.39843745 v 0.8710937 q -0.308593,0.16015625 -0.75,0.29296875 -0.4375,0.12890625 -1.117187,0.12890625 -0.734375,0 -1.25,-0.2734375 -0.5156251,-0.2734375 -0.7734376,-0.7421875 -0.2539062,-0.46875 -0.2539062,-1.0625 0,-0.5859375 0.2539062,-1.046875 0.2578125,-0.4648438 0.7734376,-0.7265625 0.515625,-0.265625 1.25,-0.265625 0.484375,0 0.933594,0.2109375 0.453125,0.2070312 0.742187,0.6835937 0.292969,0.4726563 0.292969,1.2226563 z M 12.199843,-2.34375 q 0,-0.3828125 -0.191406,-0.609375 -0.1875,-0.2304688 -0.542969,-0.2304688 -0.351562,0 -0.570312,0.234375 Q 10.680312,-2.71875 10.680312,-2.34375 Z M 18.098594,0 h -1.410157 v -0.359375 q -0.222656,0.1875 -0.472656,0.30859375 -0.246094,0.12109375 -0.683594,0.12109375 -0.433593,0 -0.851562,-0.21484375 -0.417969,-0.21484375 -0.6875,-0.66796875 -0.269531,-0.4570312 -0.269531,-1.1484375 0,-0.5429688 0.203125,-1.015625 0.203125,-0.4765625 0.636718,-0.7734375 0.433594,-0.296875 1.0625,-0.296875 0.390625,0 0.632813,0.085937 0.242187,0.085937 0.429687,0.21875 v -1.671875 h 1.410157 z M 16.688437,-1.265625 V -2.7851563 Q 16.442344,-2.921875 16.301719,-2.9804688 16.165,-3.0390625 15.9775,-3.0390625 q -0.332031,0 -0.554688,0.28125 -0.21875,0.28125 -0.21875,0.765625 0,0.5273438 0.230469,0.7695313 0.234375,0.2382812 0.542969,0.2382812 0.253906,0 0.410156,-0.078125 0.15625,-0.082031 0.300781,-0.203125 z m 6.347969,-0.6953125 q 0,0.6914063 -0.269532,1.1484375 -0.269531,0.453125 -0.6875,0.66796875 -0.417968,0.21484375 -0.851562,0.21484375 -0.3125,0 -0.542969,-0.0703125 -0.226562,-0.07421875 -0.355469,-0.15625 -0.125,-0.0859375 -0.261718,-0.203125 V 0 h -1.40625 v -5.4140625 h 1.40625 v 1.671875 q 0.15625,-0.1210938 0.429687,-0.2109375 0.273438,-0.09375 0.632813,-0.09375 0.480468,0 0.847656,0.1757812 0.367187,0.171875 0.597656,0.46875 0.234375,0.296875 0.347656,0.6679688 0.113282,0.3671875 0.113282,0.7734375 z m -1.480469,-0.03125 q 0,-0.5117188 -0.230469,-0.7773438 -0.230469,-0.2695312 -0.546875,-0.2695312 -0.316406,0 -0.710937,0.2539062 v 1.5195313 q 0.296875,0.28125 0.710937,0.28125 0.261719,0 0.519531,-0.2109375 0.257813,-0.2148437 0.257813,-0.796875 z m 6.015938,1.79296875 q -0.308594,0.12109375 -0.570313,0.1953125 -0.261719,0.07421875 -0.628906,0.07421875 -0.347656,0 -0.484375,-0.12109375 -0.136719,-0.125 -0.195313,-0.30078125 -0.226562,0.18359375 -0.503906,0.3046875 -0.277344,0.1171875 -0.726562,0.1171875 -0.433594,0 -0.703125,-0.1484375 -0.265625,-0.15234375 -0.375,-0.37890625 Q 23.278906,-0.6875 23.278906,-0.9296875 q 0,-0.3671875 0.183594,-0.6054687 0.1875,-0.2421875 0.5,-0.3945313 0.3125,-0.1523438 0.828125,-0.3164063 0.292968,-0.09375 0.441406,-0.140625 0.152344,-0.050781 0.226562,-0.078125 0.07422,-0.027344 0.15625,-0.070312 0,-0.2890625 -0.117187,-0.453125 -0.117188,-0.1640625 -0.507813,-0.1640625 -0.460937,0 -0.855468,0.203125 -0.394532,0.203125 -0.722657,0.5234375 v -1.078125 q 0.261719,-0.1875 0.566407,-0.3046875 0.304687,-0.1210937 0.636718,-0.1796875 0.332032,-0.058594 0.671875,-0.058594 0.863282,0 1.296875,0.3359375 0.4375,0.3320312 0.4375,0.9179687 v 1.5351563 q 0,0.21875 0.03906,0.328125 0.04297,0.10546875 0.152344,0.10546875 0.132812,0 0.359375,-0.11328125 z M 25.614843,-0.9609375 v -0.9414062 q -0.5,0.203125 -0.730468,0.3671875 -0.230469,0.1601562 -0.230469,0.4375 0,0.1992187 0.113281,0.30468745 0.117188,0.10546875 0.269531,0.10546875 0.144532,0 0.285157,-0.078125 0.144531,-0.0820313 0.292968,-0.1953125 z m 5.484688,0.77734375 q -0.175781,0.0664063 -0.371094,0.125 -0.195312,0.0546875 -0.441406,0.08984375 -0.242187,0.0390625 -0.53125,0.0390625 -0.652344,0 -1.105469,-0.21875 Q 28.201094,-0.37109375 27.955,-0.703125 27.712812,-1.0390625 27.619062,-1.3867187 27.525312,-1.734375 27.525312,-2 q 0,-0.265625 0.09375,-0.6132813 0.09766,-0.3476562 0.335938,-0.671875 0.238281,-0.3242187 0.6875,-0.5429687 0.453125,-0.21875 1.113281,-0.21875 0.441406,0 0.71875,0.0625 0.277344,0.0625 0.5625,0.1679687 v 1.1054688 q -0.6875,-0.21875 -1.074219,-0.21875 -0.375,0 -0.667968,0.2265625 Q 29.005781,-2.4765625 29.005781,-2 q 0,0.3164063 0.144531,0.5351563 0.144532,0.2148437 0.367188,0.3164062 0.222656,0.1015625 0.445312,0.1015625 0.210938,0 0.480469,-0.0625 0.269531,-0.0625 0.65625,-0.1796875 z M 36.189688,0 H 34.404531 L 32.877188,-1.8867187 V 0 h -1.421875 v -5.4140625 h 1.421875 v 3.1757812 l 1.394531,-1.7382812 h 1.6875 l -1.554688,1.8554687 z"
       id="text9"
       style="font-weight:700;font-size:8px;font-family:GillSans-Bold, 'Gill Sans';letter-spacing:-0.04em"
       transform="translate(18.83 289.9) scale(.88 1)"
       aria-label="Feedback" />
    <path
       d="M 6.9765625,0 H 5.34375 V -3.1367188 L 3.8710938,-1.3203125 H 3.7421875 L 2.265625,-3.1367188 V 0 H 0.6796875 v -5.4140625 h 1.4804688 l 1.6640625,2.03125 1.6718749,-2.03125 h 1.4804688 z m 2.1839061,-4.8945312 q 0,0.2460937 -0.1757813,0.4179687 -0.1757812,0.171875 -0.4179687,0.171875 -0.1640625,0 -0.3007813,-0.078125 -0.1328125,-0.078125 -0.2109375,-0.2109375 -0.078125,-0.1367187 -0.078125,-0.3007812 0,-0.2421875 0.171875,-0.4179688 0.171875,-0.1757812 0.4179688,-0.1757812 0.2421875,0 0.4179687,0.1757812 0.1757813,0.1757813 0.1757813,0.4179688 z M 9.2737498,0 H 7.8635936 V -3.9765625 H 9.2737498 Z M 14.352187,0 H 12.617812 L 11.848281,-1.1289062 11.082656,0 H 9.5435934 L 11.082656,-1.953125 9.5123434,-3.9765625 h 1.7304686 l 0.734375,1.0820312 0.742188,-1.0820312 h 1.539062 l -1.503906,1.8867187 z"
       id="text10"
       style="font-weight:700;font-size:8px;font-family:GillSans-Bold, 'Gill Sans';letter-spacing:-0.04em"
       transform="translate(25.8 337.15) scale(.88 1)"
       aria-label="Mix" />
    <g
       id="g49">
      <path
         d="M102.99,57.11h2.26c-.15-3.28-1.01-6.37-2.44-9.12l-1.95,1.13c1.24,2.42,1.99,5.13,2.14,8Z"
         style="fill: #000; stroke-width: 0px;"
         id="path10" />
      <path
         d="M102.99,59.11c-.14,2.87-.89,5.57-2.14,8l1.95,1.13c1.43-2.75,2.3-5.84,2.44-9.12h-2.26Z"
         style="fill: #000; stroke-width: 0px;"
         id="path11" />
      <path
         d="m 5.5810547,-1.9677734 q 0,0.6347656 -0.3271485,1.09863277 Q 4.9316406,-0.40527344 4.3505859,-0.15625 3.7695313,0.08789062 3.0175781,0.08789062 2.8076172,0.08789062 2.5,0.05859375 2.1972656,0.03417969 1.6894531,-0.08789062 1.1865234,-0.20996094 0.63964844,-0.44921875 V -2.109375 q 0.51269526,0.3173828 1.00585936,0.5273438 0.4980469,0.2099609 1.0644531,0.2099609 0.522461,0 0.6738282,-0.1708984 0.15625,-0.1757813 0.15625,-0.3271485 0,-0.2734375 -0.2636719,-0.4589844 Q 3.0126953,-2.5195313 2.5097656,-2.7197266 1.953125,-2.9541016 1.5332031,-3.2275391 1.1132812,-3.5058594 0.84472656,-3.9208984 0.58105469,-4.3359375 0.58105469,-4.9023437 q 0,-0.546875 0.26855469,-0.9863282 0.26855472,-0.4443359 0.82031252,-0.7080078 0.5517578,-0.2636719 1.3476562,-0.2636719 0.5664063,0 1.0449219,0.1123047 0.4833984,0.1074219 0.7958984,0.2441407 0.3125,0.1367187 0.4296875,0.2148437 v 1.5869141 Q 4.8730469,-5 4.3603516,-5.234375 3.8525391,-5.46875 3.2714844,-5.46875 q -0.3808594,0 -0.5517578,0.1464844 -0.1708985,0.1464844 -0.1708985,0.3613281 0,0.2001953 0.1708985,0.3466797 0.1708984,0.1464844 0.6103515,0.3564453 0.78125,0.3662109 1.25,0.6591797 0.46875,0.2929687 0.7324219,0.6787109 0.2685547,0.3808594 0.2685547,0.9521485 z m 2.4076171,-4.1503907 q 0,0.3076172 -0.2197266,0.522461 -0.2197265,0.2148437 -0.5224609,0.2148437 -0.2050781,0 -0.3759766,-0.097656 -0.1660156,-0.097656 -0.2636719,-0.2636719 -0.097656,-0.1708984 -0.097656,-0.3759766 0,-0.3027343 0.2148437,-0.5224609 0.2148438,-0.2197266 0.522461,-0.2197266 0.3027344,0 0.5224609,0.2197266 0.2197266,0.2197266 0.2197266,0.5224609 z M 8.1302733,0 H 6.367578 v -4.9707031 h 1.7626953 z m 5.5374997,-4.8095703 -2.377929,3.5107422 h 2.329101 V 0 H 8.5212889 V -0.16113281 L 10.899219,-3.671875 H 8.7214842 v -1.2988281 h 4.9462888 z m 5.200587,2.7490234 h -3.500977 q 0.102539,0.4541016 0.50293,0.7421875 0.40039,0.288086 0.908203,0.288086 0.888672,0 1.96289,-0.4980469 v 1.08886717 q -0.385742,0.20019532 -0.9375,0.36621094 -0.546875,0.16113281 -1.396484,0.16113281 -0.917969,0 -1.5625,-0.34179687 -0.644531,-0.34179687 -0.966797,-0.92773435 -0.317383,-0.5859375 -0.317383,-1.328125 0,-0.7324219 0.317383,-1.3085938 0.322266,-0.5810547 0.966797,-0.9082031 0.644531,-0.3320312 1.5625,-0.3320312 0.605469,0 1.166992,0.2636718 0.566407,0.2587891 0.927735,0.8544922 0.366211,0.5908203 0.366211,1.5283203 z m -1.650391,-0.8691406 q 0,-0.4785156 -0.239258,-0.7617188 Q 16.744336,-3.9794922 16.3,-3.9794922 q -0.439453,0 -0.71289,0.2929688 -0.268555,0.2880859 -0.268555,0.7568359 z"
         id="text11"
         style="font-weight:700;font-size:10px;font-family:GillSans-Bold, 'Gill Sans';letter-spacing:-0.04em"
         transform="translate(23.07 85.88) scale(.88 1)"
         aria-label="Size" />
      <g
         id="g21">
        <path
           d="M40.74,40.53l1.13-1.95c-2.75-1.43-5.84-2.3-9.12-2.44v2.26c2.87.14,5.57.89,7.99,2.14Z"
           style="fill: #000; stroke-width: 0px;"
           id="path12" />
        <path
           d="M48.32,47.38l1.95-1.13c-1.72-2.68-4-4.96-6.68-6.68l-1.13,1.95c2.34,1.52,4.33,3.51,5.85,5.85Z"
           style="fill: #000; stroke-width: 0px;"
           id="path13" />
        <path
           d="M21.02,41.53l-1.13-1.95c-2.68,1.72-4.96,4-6.68,6.68l1.95,1.13c1.52-2.34,3.51-4.33,5.85-5.85Z"
           style="fill: #000; stroke-width: 0px;"
           id="path14" />
        <path
           d="M51.46,57.11h2.26c-.15-3.28-1.01-6.37-2.44-9.12l-1.95,1.13c1.24,2.42,1.99,5.13,2.14,8Z"
           style="fill: #000; stroke-width: 0px;"
           id="path15" />
        <path
           d="M30.74,38.39v-2.26c-3.28.15-6.37,1.01-9.12,2.44l1.13,1.95c2.42-1.24,5.13-1.99,8-2.14Z"
           style="fill: #000; stroke-width: 0px;"
           id="path16" />
        <path
           d="M15.16,68.84l-1.95,1.13c1.72,2.68,4,4.96,6.68,6.68l1.13-1.95c-2.34-1.52-4.33-3.51-5.85-5.85Z"
           style="fill: #000; stroke-width: 0px;"
           id="path17" />
        <path
           d="M42.47,74.69l1.13,1.95c2.68-1.72,4.96-4,6.68-6.68l-1.95-1.13c-1.52,2.34-3.51,4.33-5.85,5.85Z"
           style="fill: #000; stroke-width: 0px;"
           id="path18" />
        <path
           d="M51.46,59.11c-.14,2.87-.89,5.57-2.14,8l1.95,1.13c1.43-2.75,2.3-5.84,2.44-9.12h-2.26Z"
           style="fill: #000; stroke-width: 0px;"
           id="path19" />
        <path
           d="M12.03,59.11h-2.26c.15,3.28,1.01,6.37,2.44,9.12l1.95-1.13c-1.24-2.42-1.99-5.13-2.14-8Z"
           style="fill: #000; stroke-width: 0px;"
           id="path20" />
        <path
           d="M14.16,49.11l-1.95-1.13c-1.43,2.75-2.3,5.84-2.44,9.12h2.26c.14-2.87.89-5.57,2.14-8Z"
           style="fill: #000; stroke-width: 0px;"
           id="path21" />
      </g>
      <path
         d="M 5.6982422,-2.7392578 H 2.890625 V 0 H 0.84960938 V -6.7675781 H 5.6982422 v 1.3574219 H 2.890625 v 1.3085937 h 2.8076172 z m 5.6400388,0.6787109 H 7.8373046 q 0.1025391,0.4541016 0.5029297,0.7421875 0.4003906,0.288086 0.9082031,0.288086 0.8886716,0 1.9628906,-0.4980469 v 1.08886717 q -0.385742,0.20019532 -0.9375,0.36621094 -0.546875,0.16113281 -1.3964843,0.16113281 -0.9179688,0 -1.5625,-0.34179687 Q 6.6703124,-0.59570312 6.3480468,-1.1816406 6.030664,-1.7675781 6.030664,-2.5097656 q 0,-0.7324219 0.3173828,-1.3085938 0.3222656,-0.5810547 0.9667969,-0.9082031 0.6445312,-0.3320312 1.5625,-0.3320312 0.6054687,0 1.1669923,0.2636718 0.566406,0.2587891 0.927734,0.8544922 0.366211,0.5908203 0.366211,1.5283203 z M 9.6878905,-2.9296875 q 0,-0.4785156 -0.2392578,-0.7617188 -0.234375,-0.2880859 -0.6787109,-0.2880859 -0.4394531,0 -0.7128906,0.2929688 -0.2685547,0.2880859 -0.2685547,0.7568359 z m 7.2123045,0.8691406 h -3.500976 q 0.102539,0.4541016 0.502929,0.7421875 0.400391,0.288086 0.908203,0.288086 0.888672,0 1.962891,-0.4980469 v 1.08886717 q -0.385742,0.20019532 -0.9375,0.36621094 -0.546875,0.16113281 -1.396484,0.16113281 -0.917969,0 -1.5625,-0.34179687 -0.644532,-0.34179687 -0.966797,-0.92773435 -0.317383,-0.5859375 -0.317383,-1.328125 0,-0.7324219 0.317383,-1.3085938 0.322265,-0.5810547 0.966797,-0.9082031 0.644531,-0.3320312 1.5625,-0.3320312 0.605468,0 1.166992,0.2636718 0.566406,0.2587891 0.927734,0.8544922 0.366211,0.5908203 0.366211,1.5283203 z m -1.650391,-0.8691406 q 0,-0.4785156 -0.239257,-0.7617188 -0.234375,-0.2880859 -0.678711,-0.2880859 -0.439453,0 -0.712891,0.2929688 -0.268555,0.2880859 -0.268555,0.7568359 z M 22.623241,0 h -1.762695 v -0.44921875 q -0.27832,0.234375 -0.59082,0.38574219 -0.307617,0.15136718 -0.854492,0.15136718 -0.541993,0 -1.064454,-0.26855468 -0.52246,-0.26855469 -0.859375,-0.83496094 -0.336914,-0.5712891 -0.336914,-1.4355469 0,-0.6787109 0.253907,-1.2695312 0.253906,-0.5957031 0.795898,-0.9667969 0.541992,-0.3710937 1.328125,-0.3710937 0.488281,0 0.791016,0.1074218 0.302734,0.1074219 0.537109,0.2734375 v -2.0898437 h 1.762695 z m -1.762695,-1.5820312 v -1.8994141 q -0.307617,-0.1708985 -0.483398,-0.2441406 -0.170899,-0.073242 -0.405274,-0.073242 -0.415039,0 -0.693359,0.3515625 -0.273438,0.3515625 -0.273438,0.9570312 0,0.6591797 0.288086,0.9619141 0.292969,0.2978516 0.678711,0.2978516 0.317383,0 0.512696,-0.097656 0.195312,-0.1025391 0.375976,-0.2539062 z m 7.934961,-0.8691407 q 0,0.8642578 -0.336914,1.4355469 -0.336914,0.56640625 -0.859375,0.83496094 Q 27.076757,0.08789062 26.534765,0.08789062 26.14414,0.08789062 25.856054,0 25.572851,-0.09277344 25.411718,-0.1953125 25.255468,-0.30273438 25.08457,-0.44921875 V 0 h -1.757813 v -6.7675781 h 1.757813 v 2.0898437 q 0.195312,-0.1513672 0.537109,-0.2636718 0.341797,-0.1171875 0.791016,-0.1171875 0.600586,0 1.05957,0.2197265 0.458985,0.2148438 0.747071,0.5859375 0.292968,0.3710938 0.43457,0.8349609 0.141601,0.4589844 0.141601,0.9667969 z m -1.850586,-0.039063 q 0,-0.6396484 -0.288085,-0.9716797 -0.288086,-0.336914 -0.683594,-0.336914 -0.395508,0 -0.888672,0.3173828 v 1.8994141 q 0.371094,0.3515625 0.888672,0.3515625 0.327148,0 0.649414,-0.2636719 0.322265,-0.2685547 0.322265,-0.9960938 z m 7.519923,2.24121096 q -0.385742,0.15136719 -0.712891,0.24414063 -0.327148,0.09277343 -0.786133,0.09277343 -0.43457,0 -0.605468,-0.15136718 -0.170899,-0.15625 -0.244141,-0.37597657 -0.283203,0.22949219 -0.629883,0.38085938 -0.34668,0.14648437 -0.908203,0.14648437 -0.541992,0 -0.878906,-0.18554687 -0.332032,-0.19042969 -0.46875,-0.47363281 -0.131836,-0.28808594 -0.131836,-0.59082034 0,-0.4589843 0.229492,-0.7568359 0.234375,-0.3027344 0.625,-0.4931641 0.390625,-0.1904297 1.035156,-0.3955078 0.366211,-0.1171875 0.551758,-0.1757812 0.19043,-0.063477 0.283203,-0.097656 0.09277,-0.03418 0.195313,-0.087891 0,-0.3613281 -0.146485,-0.5664063 -0.146484,-0.2050781 -0.634765,-0.2050781 -0.576172,0 -1.069336,0.2539063 -0.493164,0.2539062 -0.903321,0.6542968 v -1.3476562 q 0.327149,-0.234375 0.708008,-0.3808594 0.38086,-0.1513672 0.795899,-0.2246094 0.415039,-0.073242 0.839843,-0.073242 1.079102,0 1.621094,0.4199218 0.546875,0.4150391 0.546875,1.147461 v 1.9189453 q 0,0.2734375 0.04883,0.4101562 0.05371,0.131836 0.19043,0.131836 0.166016,0 0.449219,-0.1416016 z M 32.018555,-1.2011719 v -1.1767578 q -0.625,0.2539063 -0.913086,0.4589844 -0.288086,0.2001953 -0.288086,0.546875 0,0.2490234 0.141601,0.38085936 0.146485,0.13183594 0.336914,0.13183594 0.180664,0 0.356446,-0.0976563 0.180664,-0.10253905 0.366211,-0.24414065 z m 6.855858,0.97167971 q -0.219727,0.0830078 -0.463868,0.15625 -0.24414,0.06835938 -0.551757,0.11230469 -0.302735,0.04882812 -0.664063,0.04882812 -0.81543,0 -1.381836,-0.27343749 Q 35.251366,-0.46386719 34.943748,-0.87890625 34.641014,-1.2988281 34.523827,-1.7333984 34.406639,-2.1679688 34.406639,-2.5 q 0,-0.3320313 0.117188,-0.7666016 0.12207,-0.4345703 0.419921,-0.8398437 0.297852,-0.4052734 0.859375,-0.6787109 0.566407,-0.2734375 1.391602,-0.2734375 0.551758,0 0.898438,0.078125 0.346679,0.078125 0.703125,0.2099609 v 1.3818359 q -0.859375,-0.2734375 -1.342774,-0.2734375 -0.46875,0 -0.834961,0.2832031 -0.361328,0.2832032 -0.361328,0.8789063 0,0.3955078 0.180664,0.6689453 0.180664,0.2685547 0.458984,0.3955078 0.278321,0.1269532 0.556641,0.1269532 0.263672,0 0.600586,-0.078125 0.336914,-0.078125 0.820313,-0.2246094 z M 45.23711,0 h -2.231445 l -1.90918,-2.3583984 V 0 h -1.777344 v -6.7675781 h 1.777344 v 3.9697265 l 1.743164,-2.1728515 h 2.109375 l -1.943359,2.3193359 z"
         id="text21"
         style="font-weight:700;font-size:10px;font-family:GillSans-Bold, 'Gill Sans';letter-spacing:-0.04em"
         transform="translate(63.2 85.88) scale(.88 1)"
         aria-label="Feedback" />
      <path
         d="M92.27,40.53l1.13-1.95c-2.75-1.43-5.84-2.3-9.12-2.44v2.26c2.87.14,5.57.89,7.99,2.14Z"
         style="fill: #000; stroke-width: 0px;"
         id="path22" />
      <path
         d="M99.86,47.38l1.95-1.13c-1.72-2.68-4-4.96-6.68-6.68l-1.13,1.95c2.34,1.52,4.33,3.51,5.85,5.85Z"
         style="fill: #000; stroke-width: 0px;"
         id="path23" />
      <path
         d="M72.55,41.53l-1.13-1.95c-2.68,1.72-4.96,4-6.68,6.68l1.95,1.13c1.52-2.34,3.51-4.33,5.85-5.85Z"
         style="fill: #000; stroke-width: 0px;"
         id="path24" />
      <path
         d="M82.28,38.39v-2.26c-3.28.15-6.37,1.01-9.12,2.44l1.13,1.95c2.42-1.24,5.13-1.99,8-2.14Z"
         style="fill: #000; stroke-width: 0px;"
         id="path25" />
      <path
         d="M66.7,68.84l-1.95,1.13c1.72,2.68,4,4.96,6.68,6.68l1.13-1.95c-2.34-1.52-4.33-3.51-5.85-5.85Z"
         style="fill: #000; stroke-width: 0px;"
         id="path26" />
      <path
         d="M94,74.69l1.13,1.95c2.68-1.72,4.96-4,6.68-6.68l-1.95-1.13c-1.52,2.34-3.51,4.33-5.85,5.85Z"
         style="fill: #000; stroke-width: 0px;"
         id="path27" />
      <path
         d="M63.56,59.11h-2.26c.15,3.28,1.01,6.37,2.44,9.12l1.95-1.13c-1.24-2.42-1.99-5.13-2.14-8Z"
         style="fill: #000; stroke-width: 0px;"
         id="path28" />
      <path
         d="M65.7,49.11l-1.95-1.13c-1.43,2.75-2.3,5.84-2.44,9.12h2.26c.14-2.87.89-5.57,2.14-8Z"
         style="fill: #000; stroke-width: 0px;"
         id="path29" />
      <path
         d="m 7.8076172,-3.2617188 q 0,1.0400391 -0.3808594,1.6699219 Q 7.0507812,-0.96191406 6.5380859,-0.57128906 5.8105469,0 4.5019531,0 H 0.84960938 V -6.7675781 H 3.6621094 q 0.6347656,0 1.0839843,0.068359 0.4541016,0.063477 0.8154297,0.1855468 0.3613282,0.1171875 0.6152344,0.2685547 0.2539063,0.1464844 0.4541016,0.3173828 0.3466797,0.2832032 0.6054687,0.6689453 0.2636719,0.3857422 0.4150391,0.8935547 0.15625,0.5078125 0.15625,1.1035156 z m -2.0751953,-0.087891 q 0,-0.8251953 -0.3173828,-1.2841797 -0.3125,-0.4638671 -0.756836,-0.6201171 -0.4394531,-0.15625 -0.8984375,-0.15625 H 2.890625 v 4.008789 h 0.8691406 q 0.8007813,0 1.3867188,-0.3808594 0.5859375,-0.3808593 0.5859375,-1.5673828 z m 7.8031251,3.10058596 q -0.385742,0.15136719 -0.712891,0.24414063 -0.327148,0.09277343 -0.786133,0.09277343 -0.43457,0 -0.605468,-0.15136718 -0.170899,-0.15625 -0.244141,-0.37597657 -0.283203,0.22949219 -0.629883,0.38085938 -0.34668,0.14648437 -0.908203,0.14648437 -0.5419922,0 -0.8789062,-0.18554687 -0.3320313,-0.19042969 -0.46875,-0.47363281 -0.131836,-0.28808594 -0.131836,-0.59082034 0,-0.4589843 0.2294922,-0.7568359 0.234375,-0.3027344 0.625,-0.4931641 0.390625,-0.1904297 1.035156,-0.3955078 0.366211,-0.1171875 0.551758,-0.1757812 0.19043,-0.063477 0.283203,-0.097656 0.09277,-0.03418 0.195313,-0.087891 0,-0.3613281 -0.146485,-0.5664063 -0.146484,-0.2050781 -0.634765,-0.2050781 -0.5761722,0 -1.0693362,0.2539063 -0.4931641,0.2539062 -0.9033203,0.6542968 v -1.3476562 q 0.3271484,-0.234375 0.7080078,-0.3808594 0.3808594,-0.1513672 0.7958984,-0.2246094 0.4150393,-0.073242 0.8398433,-0.073242 1.079102,0 1.621094,0.4199218 0.546875,0.4150391 0.546875,1.147461 v 1.9189453 q 0,0.2734375 0.04883,0.4101562 0.05371,0.131836 0.19043,0.131836 0.166016,0 0.449219,-0.1416016 z M 11.089258,-1.2011719 v -1.1767578 q -0.625,0.2539063 -0.913086,0.4589844 -0.2880862,0.2001953 -0.2880862,0.546875 0,0.2490234 0.1416012,0.38085936 0.146485,0.13183594 0.336914,0.13183594 0.180665,0 0.356446,-0.0976563 0.180664,-0.10253905 0.366211,-0.24414065 z M 22.686328,0 h -1.757813 v -2.6513672 q 0,-0.5273437 -0.175781,-0.7861328 -0.170898,-0.2636719 -0.546875,-0.2636719 -0.366211,0 -0.600586,0.2246094 -0.234375,0.2197266 -0.46875,0.5566406 V 0 h -1.757812 v -2.6513672 q 0,-0.5029297 -0.161133,-0.7763672 -0.161133,-0.2734375 -0.571289,-0.2734375 -0.195313,0 -0.361328,0.078125 -0.161133,0.078125 -0.263672,0.1757813 -0.102539,0.097656 -0.249024,0.2880859 -0.146484,0.1904297 -0.185546,0.2392578 V 0 h -1.757813 v -4.9707031 h 1.757813 v 0.7128906 q 0.395507,-0.4199219 0.805664,-0.6103516 0.410156,-0.1904296 0.947265,-0.1904296 0.253906,0 0.483399,0.048828 0.229492,0.043945 0.449218,0.15625 0.22461,0.1123047 0.405274,0.3076172 0.180664,0.1953125 0.288086,0.4541015 0.424804,-0.4785156 0.878906,-0.7226562 0.458984,-0.2441406 1.054688,-0.2441406 0.595703,0 0.996093,0.2392578 0.405274,0.2392578 0.595703,0.6933593 0.195313,0.4492188 0.195313,1.09375 z m 6.103906,-2.5195313 q 0,0.4980469 -0.141602,0.9619141 -0.141602,0.4638672 -0.43457,0.83984376 -0.288086,0.37109375 -0.747071,0.59082032 -0.454101,0.21484374 -1.05957,0.21484374 -0.488281,0 -0.771484,-0.10253906 -0.278321,-0.10253906 -0.556641,-0.2734375 V 2.2607422 h -1.757812 v -7.2314453 h 1.757812 v 0.4492187 q 0.263672,-0.2294922 0.581055,-0.3808593 0.322265,-0.15625 0.86914,-0.15625 0.541993,0 1.064454,0.2685546 0.52246,0.2685547 0.859375,0.8398438 0.336914,0.5664062 0.336914,1.430664 z m -1.850586,0.039063 q 0,-0.4492187 -0.141602,-0.727539 -0.141601,-0.2832031 -0.366211,-0.4052735 -0.224609,-0.1269531 -0.463867,-0.1269531 -0.3125,0 -0.512695,0.1025391 -0.200196,0.097656 -0.375977,0.2490234 v 1.8994141 q 0.09277,0.048828 0.195313,0.1123047 0.107421,0.058594 0.209961,0.102539 0.107421,0.043945 0.224609,0.073242 0.12207,0.029297 0.258789,0.029297 0.415039,0 0.693359,-0.3515625 0.278321,-0.3515625 0.278321,-0.9570313 z"
         id="text29"
         style="font-weight:700;font-size:10px;font-family:GillSans-Bold, 'Gill Sans';letter-spacing:-0.04em"
         transform="translate(18.87 147.2) scale(.88 1)"
         aria-label="Damp" />
      <path
         d="M40.74,101.93l1.13-1.95c-2.75-1.43-5.84-2.3-9.12-2.44v2.26c2.87.14,5.57.89,7.99,2.14Z"
         style="fill: #000; stroke-width: 0px;"
         id="path30" />
      <path
         d="M48.32,108.78l1.95-1.13c-1.72-2.68-4-4.96-6.68-6.68l-1.13,1.95c2.34,1.52,4.33,3.51,5.85,5.85Z"
         style="fill: #000; stroke-width: 0px;"
         id="path31" />
      <path
         d="M21.02,102.93l-1.13-1.95c-2.68,1.72-4.96,4-6.68,6.68l1.95,1.13c1.52-2.34,3.51-4.33,5.85-5.85Z"
         style="fill: #000; stroke-width: 0px;"
         id="path32" />
      <path
         d="M51.46,118.51h2.26c-.15-3.28-1.01-6.37-2.44-9.12l-1.95,1.13c1.24,2.42,1.99,5.13,2.14,8Z"
         style="fill: #000; stroke-width: 0px;"
         id="path33" />
      <path
         d="M30.74,99.79v-2.26c-3.28.15-6.37,1.01-9.12,2.44l1.13,1.95c2.42-1.24,5.13-1.99,8-2.14Z"
         style="fill: #000; stroke-width: 0px;"
         id="path34" />
      <path
         d="M15.16,130.24l-1.95,1.13c1.72,2.68,4,4.96,6.68,6.68l1.13-1.95c-2.34-1.52-4.33-3.51-5.85-5.85Z"
         style="fill: #000; stroke-width: 0px;"
         id="path35" />
      <path
         d="M42.47,136.09l1.13,1.95c2.68-1.72,4.96-4,6.68-6.68l-1.95-1.13c-1.52,2.34-3.51,4.33-5.85,5.85Z"
         style="fill: #000; stroke-width: 0px;"
         id="path36" />
      <path
         d="M51.46,120.51c-.14,2.87-.89,5.57-2.14,8l1.95,1.13c1.43-2.75,2.3-5.84,2.44-9.12h-2.26Z"
         style="fill: #000; stroke-width: 0px;"
         id="path37" />
      <path
         d="M12.03,120.51h-2.26c.15,3.28,1.01,6.37,2.44,9.12l1.95-1.13c-1.24-2.42-1.99-5.13-2.14-8Z"
         style="fill: #000; stroke-width: 0px;"
         id="path38" />
      <path
         d="M14.16,110.51l-1.95-1.13c-1.43,2.75-2.3,5.84-2.44,9.12h2.26c.14-2.87.89-5.57,2.14-8Z"
         style="fill: #000; stroke-width: 0px;"
         id="path39" />
      <path
         d="M 8.7207031,0 H 6.6796875 V -3.9208984 L 4.8388672,-1.6503906 H 4.6777344 L 2.8320313,-3.9208984 V 0 H 0.84960938 V -6.7675781 H 2.7001953 l 2.0800781,2.5390625 2.0898438,-2.5390625 h 1.8505859 z m 2.7298829,-6.1181641 q 0,0.3076172 -0.219726,0.522461 -0.219727,0.2148437 -0.522461,0.2148437 -0.205078,0 -0.375977,-0.097656 -0.166015,-0.097656 -0.263672,-0.2636719 -0.097656,-0.1708984 -0.097656,-0.3759766 0,-0.3027343 0.2148439,-0.5224609 0.214844,-0.2197266 0.522461,-0.2197266 0.302734,0 0.522461,0.2197266 0.219726,0.2197266 0.219726,0.5224609 z M 11.592188,0 H 9.8294926 v -4.9707031 h 1.7626954 z m 6.348046,0 H 15.772265 L 14.810351,-1.4111328 13.85332,0 h -1.923828 l 1.923828,-2.4414063 -1.962891,-2.5292968 h 2.163086 l 0.917969,1.352539 0.927735,-1.352539 h 1.923828 l -1.879883,2.3583984 z"
         id="text39"
         style="font-weight:700;font-size:10px;font-family:GillSans-Bold, 'Gill Sans';letter-spacing:-0.04em"
         transform="translate(75.25 147.2) scale(.88 1)"
         aria-label="Mix" />
      <path
         d="M92.27,101.93l1.13-1.95c-2.75-1.43-5.84-2.3-9.12-2.44v2.26c2.87.14,5.57.89,7.99,2.14Z"
         style="fill: #000; stroke-width: 0px;"
         id="path40" />
      <path
         d="M99.86,108.78l1.95-1.13c-1.72-2.68-4-4.96-6.68-6.68l-1.13,1.95c2.34,1.52,4.33,3.51,5.85,5.85Z"
         style="fill: #000; stroke-width: 0px;"
         id="path41" />
      <path
         d="M72.55,102.93l-1.13-1.95c-2.68,1.72-4.96,4-6.68,6.68l1.95,1.13c1.52-2.34,3.51-4.33,5.85-5.85Z"
         style="fill: #000; stroke-width: 0px;"
         id="path42" />
      <path
         d="M102.99,118.51h2.26c-.15-3.28-1.01-6.37-2.44-9.12l-1.95,1.13c1.24,2.42,1.99,5.13,2.14,8Z"
         style="fill: #000; stroke-width: 0px;"
         id="path43" />
      <path
         d="M82.28,99.79v-2.26c-3.28.15-6.37,1.01-9.12,2.44l1.13,1.95c2.42-1.24,5.13-1.99,8-2.14Z"
         style="fill: #000; stroke-width: 0px;"
         id="path44" />
      <path
         d="M66.7,130.24l-1.95,1.13c1.72,2.68,4,4.96,6.68,6.68l1.13-1.95c-2.34-1.52-4.33-3.51-5.85-5.85Z"
         style="fill: #000; stroke-width: 0px;"
         id="path45" />
      <path
         d="M94,136.09l1.13,1.95c2.68-1.72,4.96-4,6.68-6.68l-1.95-1.13c-1.52,2.34-3.51,4.33-5.85,5.85Z"
         style="fill: #000; stroke-width: 0px;"
         id="path46" />
      <path
         d="M102.99,120.51c-.14,2.87-.89,5.57-2.14,8l1.95,1.13c1.43-2.75,2.3-5.84,2.44-9.12h-2.26Z"
         style="fill: #000; stroke-width: 0px;"
         id="path47" />
      <path
         d="M63.56,120.51h-2.26c.15,3.28,1.01,6.37,2.44,9.12l1.95-1.13c-1.24-2.42-1.99-5.13-2.14-8Z"
         style="fill: #000; stroke-width: 0px;"
         id="path48" />
      <path
         d="M65.7,110.51l-1.95-1.13c-1.43,2.75-2.3,5.84-2.44,9.12h2.26c.14-2.87.89-5.57,2.14-8Z"
         style="fill: #000; stroke-width: 0px;"
         id="path49" />
    </g>
    <g
       id="g42"
       transform="matrix(0.99998057,0,0,0.99998057,28.712722,-7.3320635)">
      <path
         id="path40-6"
         d="m 20.6,26.79 c -0.37,0 -0.71,-0.17 -0.97,-0.47 -0.51,-0.6 -0.52,-1.54 -0.04,-2.16 l 6.97,-8.88 c 0.38,-0.48 1.05,-0.65 1.57,-0.39 0.52,0.26 0.79,0.82 0.79,1.45 v 4.77 l 4.64,-5.85 c 0.38,-0.48 1.01,-0.64 1.53,-0.38 0.5,0.25 0.83,0.81 0.83,1.44 v 8.82 c 0,0.86 -0.61,1.57 -1.36,1.57 -0.75,0 -1.36,-0.7 -1.36,-1.57 v -4.79 l -4.64,5.85 c -0.38,0.48 -1.01,0.64 -1.54,0.38 -0.5,-0.24 -0.83,-0.81 -0.83,-1.44 v -4.67 l -4.61,5.8 c -0.26,0.32 -0.62,0.51 -1,0.51 h 0.02 z"
         style="fill:#2cabe1" />
      <path
         id="path41-9"
         d="m 20.6,26.79 c -0.75,0 -1.35,-0.7 -1.35,-1.57 v -4.93 l -2.26,2.84 c -0.5,0.63 -1.44,0.65 -1.97,0.04 -0.51,-0.6 -0.52,-1.53 -0.03,-2.15 l 4.61,-5.76 c 0.26,-0.32 0.63,-0.5 1,-0.5 0.18,0 0.37,0.04 0.54,0.12 0.5,0.25 0.82,0.81 0.82,1.44 v 8.89 c 0,0.86 -0.61,1.57 -1.36,1.57 v 0 z"
         style="fill:#ea2228" />
      <path
         id="path42-0"
         d="m 37.2,26.81 v 0 c -0.35,0 -0.68,-0.15 -0.94,-0.42 -0.76,-0.78 -0.14,-1.84 0.29,-2.3 L 38.5,21.73 37.24,21.71 C 36.68,21.7 36.2,21.31 36,20.71 35.81,20.15 35.93,19.5 36.29,19.07 l 3.16,-3.83 c 0.23,-0.28 0.55,-0.48 1.13,-0.47 0.33,0 0.67,0.17 0.92,0.4 0.71,0.66 0.29,1.7 -0.07,2.2 l -1.04,1.26 1.26,0.02 c 0.56,0.01 1.04,0.4 1.24,1 0.19,0.56 0.07,1.21 -0.29,1.64 l -4.1,4.97 c -0.35,0.35 -0.65,0.55 -1.3,0.54 v 0 z"
         style="fill:#00a650" />
    </g>
  </g>
  <g
     id="g1" />
</svg>
