<svg xmlns="http://www.w3.org/2000/svg" width="1.6in" height="5.14in" viewBox="0 0 115.45 370.2">
  <g id="faceplate">
    <rect x="0.13" y="0.13" width="115.2" height="364.25" style="fill: #ededed;stroke: #9d9d9e;stroke-miterlimit: 10;stroke-width: 0.25px" />
    <g>
      <path d="M46.49,356.9l-.34.15-.27.11-.38.12a6.51,6.51,0,0,1-.83.18,6.19,6.19,0,0,1-.88.06,3.61,3.61,0,0,1-1.72-.41,3,3,0,0,1-1.26-1.28,4.4,4.4,0,0,1-.48-2.14,5.52,5.52,0,0,1,.25-1.61,2.74,2.74,0,0,1,.75-1.25,3.16,3.16,0,0,1,.83-.6A3.25,3.25,0,0,1,43,350a5,5,0,0,1,.9-.07,4.92,4.92,0,0,1,1.33.15c.35.1.73.23,1.15.39v1.76a4.48,4.48,0,0,0-.88-.49,2.79,2.79,0,0,0-1.15-.2,2.09,2.09,0,0,0-1.28.36,1.92,1.92,0,0,0-.66.88,2.75,2.75,0,0,0-.19,1,2.4,2.4,0,0,0,.22,1,1.72,1.72,0,0,0,.65.76,1.88,1.88,0,0,0,1.05.29,2.9,2.9,0,0,0,.75-.11v-.88h-.83v-1.5h2.44Z" />
      <path d="M54.64,357.43H52.75l-.49-1.51H49.61l-.51,1.51H47.21l2.7-7.45h2Zm-2.81-2.81-.89-2.71-.9,2.71Z" />
      <path d="M61.3,351.79H59.07v5.64H57.23v-5.64H55V350H61.3Z" />
      <path d="M67,357.43h-4.6V350H66.9v1.5H64.22v1.36h2.56v1.5H64.22v1.59H67Z" />
      <path d="M75.19,355.42a3,3,0,0,1-.09.61,2.32,2.32,0,0,1-.35.68,1.9,1.9,0,0,1-.73.58,2.71,2.71,0,0,1-1.22.23,2.76,2.76,0,0,1-1.23-.23,2,2,0,0,1-.73-.58,2.06,2.06,0,0,1-.34-.68,2.69,2.69,0,0,1-.08-.61,2.2,2.2,0,0,1,.27-1.06,1.85,1.85,0,0,1,.72-.77,2.13,2.13,0,0,1-.58-.66,2,2,0,0,1-.2-.94,2.47,2.47,0,0,1,.11-.68,2.32,2.32,0,0,1,.37-.69,1.8,1.8,0,0,1,.67-.54,2.41,2.41,0,0,1,1-.2,2.49,2.49,0,0,1,1,.2,1.88,1.88,0,0,1,.67.53,2.08,2.08,0,0,1,.36.69,2.81,2.81,0,0,1,.1.69,1.9,1.9,0,0,1-.2.94,2.09,2.09,0,0,1-.58.66,1.81,1.81,0,0,1,.52.47,2.12,2.12,0,0,1,.34.63A2.34,2.34,0,0,1,75.19,355.42Zm-1.57-.2a1.25,1.25,0,0,0-.13-.59.91.91,0,0,0-.31-.38.68.68,0,0,0-.38-.12.76.76,0,0,0-.56.29,1.45,1.45,0,0,0,0,1.63.76.76,0,0,0,.57.29.72.72,0,0,0,.57-.31A1.26,1.26,0,0,0,73.62,355.22Zm-.18-3.08a1.57,1.57,0,0,0-.15-.68.47.47,0,0,0-.47-.32.5.5,0,0,0-.49.31,1.41,1.41,0,0,0-.16.69,1.29,1.29,0,0,0,.19.71.55.55,0,0,0,.44.27.53.53,0,0,0,.44-.27A1.22,1.22,0,0,0,73.44,352.14Z" />
    </g>
    <g>
      <path d="M63.34,8.11l-5.53,7v-6a1.3,1.3,0,0,0-.64-1.18.91.91,0,0,0-1.13.3l-7.28,9.24a1.48,1.48,0,0,0,0,1.79.9.9,0,0,0,1.46,0l5.5-7v6a1.3,1.3,0,0,0,.64,1.18.92.92,0,0,0,1.14-.3l5.53-7v6.15a1.05,1.05,0,1,0,2.06,0V9a1.26,1.26,0,0,0-.65-1.17A.9.9,0,0,0,63.34,8.11Z" style="stroke: #000;stroke-width: 0.6000000000000001px" />
      <path d="M48.76,8,44,14.17A1.47,1.47,0,0,0,44,16a.91.91,0,0,0,1.46,0l3-3.87v6.3a1.05,1.05,0,1,0,2.06,0V8.92a1.28,1.28,0,0,0-.65-1.17A.9.9,0,0,0,48.76,8Z" style="stroke: #000;stroke-width: 0.6000000000000001px" />
      <path d="M71.71,12.56a1,1,0,0,0-.95-.77h-2.1l1.53-1.95s.8-1.18.1-1.82-1.58.06-1.58.06l-3.23,4.1a1.44,1.44,0,0,0-.2,1.37,1,1,0,0,0,1,.77h2.1l-2.49,3.17s-1,1.13-.27,1.89,1.75-.13,1.75-.13l4.18-5.32A1.47,1.47,0,0,0,71.71,12.56Z" style="stroke: #000;stroke-width: 0.6000000000000001px" />
    </g>
    <path d="M101.65,316.75l.07-34.16-88,0,.07,33.89v19.84A5.68,5.68,0,0,0,19.47,342l76.51.32a5.68,5.68,0,0,0,5.67-5.67Z" />
    <path d="M101.23,264.3v-5.67a14.21,14.21,0,0,0-14.17-14.17H80.14l-46-.16H28.39a14.21,14.21,0,0,0-14.17,14.17v29.85A5.68,5.68,0,0,0,19.89,294h12.5l54.56.16h8.61a5.68,5.68,0,0,0,5.67-5.67Z" style="fill: #ededed;stroke: #000;stroke-miterlimit: 10" />
    <g>
      <path d="M79.27,287.52H77.73l-.38-1a4.3,4.3,0,0,0-.37-.77.87.87,0,0,0-.32-.32,1.16,1.16,0,0,0-.4-.06h-.17v2.11H74.66v-5.41H77.1a1.64,1.64,0,0,1,1,.27,1.55,1.55,0,0,1,.54.66,1.76,1.76,0,0,1,.17.74,1.48,1.48,0,0,1-.14.7,1.27,1.27,0,0,1-.29.41,2.41,2.41,0,0,1-.35.25,1.45,1.45,0,0,1,.38.36,4.62,4.62,0,0,1,.41.84Zm-2-3.7a.62.62,0,0,0-.22-.53,1.25,1.25,0,0,0-.7-.15h-.31v1.31h.31a1.36,1.36,0,0,0,.72-.13A.57.57,0,0,0,77.32,283.82Z" />
      <path d="M83,285.87H80.56a1,1,0,0,0,.36.59.94.94,0,0,0,.64.24,3.12,3.12,0,0,0,1.38-.4v.87a4.18,4.18,0,0,1-.66.29,3.08,3.08,0,0,1-1,.13,2.14,2.14,0,0,1-1.1-.27,1.74,1.74,0,0,1-.67-.75,2.53,2.53,0,0,1,0-2.11,1.61,1.61,0,0,1,.67-.72,2.14,2.14,0,0,1,1.1-.27,1.76,1.76,0,0,1,.83.21,1.62,1.62,0,0,1,.65.69,2.54,2.54,0,0,1,.26,1.22Zm-1.17-.69a1.06,1.06,0,0,0-.16-.62.55.55,0,0,0-.48-.22.6.6,0,0,0-.5.23.91.91,0,0,0-.19.61Z" />
      <path d="M86.09,286.36a1.21,1.21,0,0,1-.35.89,1.46,1.46,0,0,1-1,.34,2.84,2.84,0,0,1-.69-.08,4.77,4.77,0,0,1-.66-.23v-1a4.15,4.15,0,0,0,.54.31,1.26,1.26,0,0,0,.51.11c.31,0,.46-.1.46-.29a.28.28,0,0,0-.06-.18,1.07,1.07,0,0,0-.24-.17l-.44-.23a1.78,1.78,0,0,1-.59-.46,1.07,1.07,0,0,1-.24-.71,1.23,1.23,0,0,1,.16-.57,1.21,1.21,0,0,1,.48-.44,1.61,1.61,0,0,1,.78-.18l.29,0a2.29,2.29,0,0,1,.42.09,2.21,2.21,0,0,1,.5.21v1l-.19-.13-.19-.11a2,2,0,0,0-.29-.11,1.06,1.06,0,0,0-.35-.05.37.37,0,0,0-.29.09.31.31,0,0,0-.08.19.26.26,0,0,0,.09.18A1.23,1.23,0,0,0,85,285a2.82,2.82,0,0,1,.66.37,1.06,1.06,0,0,1,.36.41A1.27,1.27,0,0,1,86.09,286.36Z" />
      <path d="M90.07,285.87H87.6a1,1,0,0,0,.36.59,1,1,0,0,0,.64.24,3.12,3.12,0,0,0,1.38-.4v.87a4.18,4.18,0,0,1-.66.29,3.06,3.06,0,0,1-1,.13,2.09,2.09,0,0,1-1.1-.27,1.7,1.7,0,0,1-.68-.75,2.53,2.53,0,0,1,0-2.11,1.58,1.58,0,0,1,.68-.72,2.09,2.09,0,0,1,1.1-.27,1.75,1.75,0,0,1,.82.21,1.62,1.62,0,0,1,.65.69,2.54,2.54,0,0,1,.26,1.22Zm-1.16-.69a1.06,1.06,0,0,0-.17-.62.55.55,0,0,0-.48-.22.6.6,0,0,0-.5.23.91.91,0,0,0-.19.61Z" />
      <path d="M93.15,287.29a2.19,2.19,0,0,1-.53.2,2.13,2.13,0,0,1-.64.1c-.9,0-1.34-.5-1.34-1.48v-1.59h-.56v-.25l1.66-1.92h.14v1.19h1.18v1H91.88v1.27a3.21,3.21,0,0,0,0,.36.43.43,0,0,0,.14.23.53.53,0,0,0,.34.09,1.65,1.65,0,0,0,.77-.28Z" />
    </g>
    <g>
      <path d="M82.66,332.07a3.21,3.21,0,0,1-.3,1.39,2.49,2.49,0,0,1-.92,1,2.78,2.78,0,0,1-1.48.38,2.75,2.75,0,0,1-1.5-.39,2.44,2.44,0,0,1-.91-1,3.36,3.36,0,0,1,0-2.73,2.42,2.42,0,0,1,.91-1,2.75,2.75,0,0,1,1.5-.39,2.87,2.87,0,0,1,1.17.22,2.36,2.36,0,0,1,.86.61,2.46,2.46,0,0,1,.5.88A3.16,3.16,0,0,1,82.66,332.07Zm-1.46,0a1.94,1.94,0,0,0-.08-.56,1.18,1.18,0,0,0-.24-.44,1.14,1.14,0,0,0-.92-.39,1.15,1.15,0,0,0-.91.38,1.5,1.5,0,0,0-.33,1,1.47,1.47,0,0,0,.33,1,1.12,1.12,0,0,0,.91.39,1.2,1.2,0,0,0,.67-.18,1.06,1.06,0,0,0,.42-.49A1.66,1.66,0,0,0,81.2,332.07Z" style="fill: #fff" />
      <path d="M86.76,334.78H85.52v-.57a2.18,2.18,0,0,1-.55.48,1.46,1.46,0,0,1-.69.16,1,1,0,0,1-1-.53,3,3,0,0,1-.23-1.18V330.8h1.24V333a1.7,1.7,0,0,0,.09.57.4.4,0,0,0,.41.24.59.59,0,0,0,.44-.17,3.8,3.8,0,0,0,.32-.45V330.8h1.24Z" style="fill: #fff" />
      <path d="M90,334.55a3.33,3.33,0,0,1-.53.2,2.57,2.57,0,0,1-.65.1c-.89,0-1.34-.5-1.34-1.49v-1.58H87v-.25l1.66-1.92h.14v1.19h1.19v1H88.75v1.27a1.73,1.73,0,0,0,0,.36.36.36,0,0,0,.13.23.55.55,0,0,0,.34.09,1.64,1.64,0,0,0,.78-.28Z" style="fill: #fff" />
    </g>
    <g>
      <path d="M27.39,287.11a3,3,0,0,1-.61.28,3.3,3.3,0,0,1-.62.15,4.62,4.62,0,0,1-.65,0,3,3,0,0,1-1.12-.2,2.36,2.36,0,0,1-.85-.57,2.42,2.42,0,0,1-.55-.89,3.37,3.37,0,0,1-.18-1.12,3.11,3.11,0,0,1,.22-1.23,2.35,2.35,0,0,1,.59-.87,2.56,2.56,0,0,1,.87-.51,3.29,3.29,0,0,1,1-.17,5.14,5.14,0,0,1,1.84.41v1.44a4.8,4.8,0,0,0-.7-.42,1.88,1.88,0,0,0-.82-.16,1.71,1.71,0,0,0-.77.18,1.51,1.51,0,0,0-.58.54,1.59,1.59,0,0,0,0,1.56,1.44,1.44,0,0,0,1.31.75,2,2,0,0,0,.65-.1A2.34,2.34,0,0,0,27,286a4.54,4.54,0,0,0,.44-.28Z" />
      <path d="M29.17,287.52H27.93v-5.41h1.24Z" />
      <path d="M33.61,285.53a2.43,2.43,0,0,1-.23,1.06,1.71,1.71,0,0,1-.68.73,2.38,2.38,0,0,1-2.2,0,1.71,1.71,0,0,1-.68-.73,2.43,2.43,0,0,1-.23-1.06,2.61,2.61,0,0,1,.13-.82,1.86,1.86,0,0,1,.38-.65,1.79,1.79,0,0,1,.63-.44,2.33,2.33,0,0,1,.87-.15,2.14,2.14,0,0,1,.87.16,1.51,1.51,0,0,1,.63.43,1.83,1.83,0,0,1,.38.65A2.61,2.61,0,0,1,33.61,285.53Zm-1.31,0a1.28,1.28,0,0,0-.18-.74.64.64,0,0,0-1,0,1.28,1.28,0,0,0-.18.74,1.33,1.33,0,0,0,.18.74.64.64,0,0,0,1,0A1.33,1.33,0,0,0,32.3,285.53Z" />
      <path d="M37,287.34l-.32.12a2.23,2.23,0,0,1-.39.09,2.29,2.29,0,0,1-.47,0,2,2,0,0,1-1-.22,1.66,1.66,0,0,1-.61-.56,2.4,2.4,0,0,1-.3-.68,2.37,2.37,0,0,1,0-1.22,2.28,2.28,0,0,1,.3-.68,1.76,1.76,0,0,1,.6-.54,2,2,0,0,1,1-.22,2.68,2.68,0,0,1,.63.06,4.91,4.91,0,0,1,.5.17v1.11a2.89,2.89,0,0,0-.95-.22.81.81,0,0,0-.58.23.88.88,0,0,0-.26.7,1,1,0,0,0,.13.53.76.76,0,0,0,.32.32.81.81,0,0,0,.39.1,1.77,1.77,0,0,0,.43-.06,5.89,5.89,0,0,0,.57-.18Z" />
      <path d="M41.44,287.52H39.87l-1.34-1.89v1.89H37.28v-5.41h1.25v3.17l1.23-1.74h1.48l-1.37,1.86Z" />
    </g>
    <g>
      <path d="M29.78,334.78H26.19v-5.42h3.53v1.09H27.63v1h2v1.09h-2v1.16h2.15Z" style="fill: #fff" />
      <path d="M34,334.78H32.76v-2.15a1.62,1.62,0,0,0-.09-.57.41.41,0,0,0-.42-.24.53.53,0,0,0-.26.06.68.68,0,0,0-.21.17,1.25,1.25,0,0,0-.15.19,1.37,1.37,0,0,0-.13.2v2.34H30.26v-4H31.5v.57a1.85,1.85,0,0,1,.58-.5,1.59,1.59,0,0,1,.66-.14q1.26,0,1.26,1.71Z" style="fill: #fff" />
      <path d="M38.16,334.78H36.92v-.36a2.33,2.33,0,0,1-.41.31,1.29,1.29,0,0,1-.61.12,1.44,1.44,0,0,1-.75-.22,1.59,1.59,0,0,1-.6-.67,2.41,2.41,0,0,1-.24-1.14,2.84,2.84,0,0,1,.18-1,1.7,1.7,0,0,1,.56-.77,1.47,1.47,0,0,1,.94-.3,1.44,1.44,0,0,1,.55.09,1.55,1.55,0,0,1,.38.21v-1.67h1.24Zm-1.24-1.27V332a3.44,3.44,0,0,0-.34-.19.65.65,0,0,0-.29-.06.56.56,0,0,0-.48.28,1.32,1.32,0,0,0-.2.76,1.14,1.14,0,0,0,.21.77.59.59,0,0,0,.47.24.7.7,0,0,0,.37-.08A1.21,1.21,0,0,0,36.92,333.51Z" style="fill: #fff" />
    </g>
    <path d="M33,69H31.25V61.52H33Z" />
    <path d="M86.2,69h-5v-.15q.28-.31.63-.75l.89-1.17c.17-.22.33-.43.47-.64s.27-.42.38-.62a3.94,3.94,0,0,0,.26-.66,2.58,2.58,0,0,0,.11-.73,1.32,1.32,0,0,0-.26-.84.85.85,0,0,0-.67-.32,2.18,2.18,0,0,0-1.6,1V62.28l.46-.33.41-.24a3.3,3.3,0,0,1,.56-.2,2.56,2.56,0,0,1,.69-.09,2.17,2.17,0,0,1,1.1.28,2,2,0,0,1,.77.8,2.53,2.53,0,0,1,.28,1.22,3,3,0,0,1-.13.92,3.87,3.87,0,0,1-.26.7c-.09.17-.22.39-.37.65a14.88,14.88,0,0,1-.87,1.31H86.2Z" />
    <path d="M34.24,109.36a2.2,2.2,0,0,1-.2,1,1.88,1.88,0,0,1-.54.67,2.28,2.28,0,0,1-.7.38,2.69,2.69,0,0,1-.73.11,4.11,4.11,0,0,1-1.09-.16,4.68,4.68,0,0,1-1-.37v-1.68a3.55,3.55,0,0,0,.71.53,1.64,1.64,0,0,0,.79.21.93.93,0,0,0,.52-.13.82.82,0,0,0,.32-.32.87.87,0,0,0,.1-.42.91.91,0,0,0-.13-.5.94.94,0,0,0-.38-.36,1.34,1.34,0,0,0-.58-.13h-.21V107h.25a.91.91,0,0,0,.54-.14.86.86,0,0,0,.31-.35.94.94,0,0,0,.1-.38.88.88,0,0,0-.23-.59.76.76,0,0,0-.6-.27,1.87,1.87,0,0,0-.67.14,2.7,2.7,0,0,0-.66.38v-1.43A5,5,0,0,1,31,104a2.92,2.92,0,0,1,.92-.13,2.2,2.2,0,0,1,1.24.33,2.11,2.11,0,0,1,.73.79,2,2,0,0,1,.23.87,2,2,0,0,1-.13.67,2.28,2.28,0,0,1-.34.59,2,2,0,0,1-.42.4,2.39,2.39,0,0,1,.69.66A2,2,0,0,1,34.24,109.36Z" />
    <path d="M86.22,109.82h-.77v1.61H83.7v-1.61H81V108.4l3-4.42h1.4v4.56h.77Zm-2.52-1.28v-2.38l-1.62,2.38Z" />
    <path d="M34.31,151.55a2.84,2.84,0,0,1-.26,1.2,2.12,2.12,0,0,1-.79.89A2.29,2.29,0,0,1,32,154a3.71,3.71,0,0,1-1.16-.18,3.34,3.34,0,0,1-1-.54v-1.6a4.38,4.38,0,0,0,.85.52,2.39,2.39,0,0,0,1,.26.77.77,0,0,0,.68-.28,1.06,1.06,0,0,0,.19-.6,1.13,1.13,0,0,0-.11-.48.93.93,0,0,0-.39-.37,1.61,1.61,0,0,0-.75-.15,2.3,2.3,0,0,0-1,.22v-4.34H34V148H31.7v1.27h.41a2.18,2.18,0,0,1,1.17.32,2.12,2.12,0,0,1,.76.84A2.46,2.46,0,0,1,34.31,151.55Z" />
    <path d="M86.26,151.31a2.85,2.85,0,0,1-.18,1,2.52,2.52,0,0,1-.51.86,2.43,2.43,0,0,1-1.84.81,2.46,2.46,0,0,1-1.41-.41,2.62,2.62,0,0,1-.88-1.09,3.51,3.51,0,0,1-.3-1.44,4.3,4.3,0,0,1,.19-1.27,6.16,6.16,0,0,1,.53-1.26,7.84,7.84,0,0,1,.82-1.16,8.87,8.87,0,0,1,1.08-1l1.61.61c-.26.25-.48.48-.67.69a8.3,8.3,0,0,0-.54.64,7.38,7.38,0,0,0-.46.68,1.84,1.84,0,0,1,.44-.05,2,2,0,0,1,1.06.3A2.12,2.12,0,0,1,86,150,2.62,2.62,0,0,1,86.26,151.31Zm-1.7,0a1,1,0,0,0-.25-.76.82.82,0,0,0-.6-.25.71.71,0,0,0-.65.33,1.22,1.22,0,0,0,0,1.41.74.74,0,0,0,.6.3.73.73,0,0,0,.49-.17,1,1,0,0,0,.29-.4A1.34,1.34,0,0,0,84.56,151.28Z" />
    <path d="M34.68,189.11l-2.8,7.33-1.52-.55,2-5.35H29.71V188.9h5Z" />
    <path d="M86.25,194.34a2.43,2.43,0,0,1-.09.6,2.18,2.18,0,0,1-.37.68,2,2,0,0,1-.79.58,3,3,0,0,1-1.3.24,3.12,3.12,0,0,1-1.32-.24,1.94,1.94,0,0,1-.79-.58,1.84,1.84,0,0,1-.36-.67,2.31,2.31,0,0,1-.09-.61,2.15,2.15,0,0,1,.29-1.07,2,2,0,0,1,.77-.77,2.24,2.24,0,0,1-.62-.65,1.91,1.91,0,0,1-.21-.95,2.19,2.19,0,0,1,.51-1.37,2,2,0,0,1,.72-.54,2.77,2.77,0,0,1,1.1-.2,2.84,2.84,0,0,1,1.12.2,2.1,2.1,0,0,1,.72.54,1.93,1.93,0,0,1,.38.68,2.48,2.48,0,0,1,.11.69,1.86,1.86,0,0,1-.21.95,2.36,2.36,0,0,1-.62.65,1.93,1.93,0,0,1,.55.47,2.14,2.14,0,0,1,.5,1.37Zm-1.68-.2a1.26,1.26,0,0,0-.13-.6.94.94,0,0,0-.34-.37.7.7,0,0,0-.4-.13.8.8,0,0,0-.6.3,1.12,1.12,0,0,0-.27.8,1.14,1.14,0,0,0,.27.82.82.82,0,0,0,.6.29.75.75,0,0,0,.61-.31A1.2,1.2,0,0,0,84.57,194.14Zm-.19-3.09a1.62,1.62,0,0,0-.16-.68.53.53,0,0,0-.51-.32.54.54,0,0,0-.52.31,1.31,1.31,0,0,0-.17.69,1.13,1.13,0,0,0,.21.71.56.56,0,0,0,.47.28.57.57,0,0,0,.47-.28A1.13,1.13,0,0,0,84.38,191.05Z" />
    <path d="M33,69H31.25V61.52H33Z" />
    <path d="M86.2,69h-5v-.15q.28-.31.63-.75l.89-1.17c.17-.22.33-.43.47-.64s.27-.42.38-.62a3.94,3.94,0,0,0,.26-.66,2.58,2.58,0,0,0,.11-.73,1.32,1.32,0,0,0-.26-.84.85.85,0,0,0-.67-.32,2.18,2.18,0,0,0-1.6,1V62.28l.46-.33.41-.24a3.3,3.3,0,0,1,.56-.2,2.56,2.56,0,0,1,.69-.09,2.17,2.17,0,0,1,1.1.28,2,2,0,0,1,.77.8,2.53,2.53,0,0,1,.28,1.22,3,3,0,0,1-.13.92,3.87,3.87,0,0,1-.26.7c-.09.17-.22.39-.37.65a14.88,14.88,0,0,1-.87,1.31H86.2Z" />
    <path d="M34.24,109.36a2.2,2.2,0,0,1-.2,1,1.88,1.88,0,0,1-.54.67,2.28,2.28,0,0,1-.7.38,2.69,2.69,0,0,1-.73.11,4.11,4.11,0,0,1-1.09-.16,4.68,4.68,0,0,1-1-.37v-1.68a3.55,3.55,0,0,0,.71.53,1.64,1.64,0,0,0,.79.21.93.93,0,0,0,.52-.13.82.82,0,0,0,.32-.32.87.87,0,0,0,.1-.42.91.91,0,0,0-.13-.5.94.94,0,0,0-.38-.36,1.34,1.34,0,0,0-.58-.13h-.21V107h.25a.91.91,0,0,0,.54-.14.86.86,0,0,0,.31-.35.94.94,0,0,0,.1-.38.88.88,0,0,0-.23-.59.76.76,0,0,0-.6-.27,1.87,1.87,0,0,0-.67.14,2.7,2.7,0,0,0-.66.38v-1.43A5,5,0,0,1,31,104a2.92,2.92,0,0,1,.92-.13,2.2,2.2,0,0,1,1.24.33,2.11,2.11,0,0,1,.73.79,2,2,0,0,1,.23.87,2,2,0,0,1-.13.67,2.28,2.28,0,0,1-.34.59,2,2,0,0,1-.42.4,2.39,2.39,0,0,1,.69.66A2,2,0,0,1,34.24,109.36Z" />
    <path d="M86.22,109.82h-.77v1.61H83.7v-1.61H81V108.4l3-4.42h1.4v4.56h.77Zm-2.52-1.28v-2.38l-1.62,2.38Z" />
    <path d="M34.31,151.55a2.84,2.84,0,0,1-.26,1.2,2.12,2.12,0,0,1-.79.89A2.29,2.29,0,0,1,32,154a3.71,3.71,0,0,1-1.16-.18,3.34,3.34,0,0,1-1-.54v-1.6a4.38,4.38,0,0,0,.85.52,2.39,2.39,0,0,0,1,.26.77.77,0,0,0,.68-.28,1.06,1.06,0,0,0,.19-.6,1.13,1.13,0,0,0-.11-.48.93.93,0,0,0-.39-.37,1.61,1.61,0,0,0-.75-.15,2.3,2.3,0,0,0-1,.22v-4.34H34V148H31.7v1.27h.41a2.18,2.18,0,0,1,1.17.32,2.12,2.12,0,0,1,.76.84A2.46,2.46,0,0,1,34.31,151.55Z" />
    <path d="M86.26,151.31a2.85,2.85,0,0,1-.18,1,2.52,2.52,0,0,1-.51.86,2.43,2.43,0,0,1-1.84.81,2.46,2.46,0,0,1-1.41-.41,2.62,2.62,0,0,1-.88-1.09,3.51,3.51,0,0,1-.3-1.44,4.3,4.3,0,0,1,.19-1.27,6.16,6.16,0,0,1,.53-1.26,7.84,7.84,0,0,1,.82-1.16,8.87,8.87,0,0,1,1.08-1l1.61.61c-.26.25-.48.48-.67.69a8.3,8.3,0,0,0-.54.64,7.38,7.38,0,0,0-.46.68,1.84,1.84,0,0,1,.44-.05,2,2,0,0,1,1.06.3A2.12,2.12,0,0,1,86,150,2.62,2.62,0,0,1,86.26,151.31Zm-1.7,0a1,1,0,0,0-.25-.76.82.82,0,0,0-.6-.25.71.71,0,0,0-.65.33,1.22,1.22,0,0,0,0,1.41.74.74,0,0,0,.6.3.73.73,0,0,0,.49-.17,1,1,0,0,0,.29-.4A1.34,1.34,0,0,0,84.56,151.28Z" />
    <path d="M34.68,189.11l-2.8,7.33-1.52-.55,2-5.35H29.71V188.9h5Z" />
    <path d="M86.25,194.34a2.43,2.43,0,0,1-.09.6,2.18,2.18,0,0,1-.37.68,2,2,0,0,1-.79.58,3,3,0,0,1-1.3.24,3.12,3.12,0,0,1-1.32-.24,1.94,1.94,0,0,1-.79-.58,1.84,1.84,0,0,1-.36-.67,2.31,2.31,0,0,1-.09-.61,2.15,2.15,0,0,1,.29-1.07,2,2,0,0,1,.77-.77,2.24,2.24,0,0,1-.62-.65,1.91,1.91,0,0,1-.21-.95,2.19,2.19,0,0,1,.51-1.37,2,2,0,0,1,.72-.54,2.77,2.77,0,0,1,1.1-.2,2.84,2.84,0,0,1,1.12.2,2.1,2.1,0,0,1,.72.54,1.93,1.93,0,0,1,.38.68,2.48,2.48,0,0,1,.11.69,1.86,1.86,0,0,1-.21.95,2.36,2.36,0,0,1-.62.65,1.93,1.93,0,0,1,.55.47,2.14,2.14,0,0,1,.5,1.37Zm-1.68-.2a1.26,1.26,0,0,0-.13-.6.94.94,0,0,0-.34-.37.7.7,0,0,0-.4-.13.8.8,0,0,0-.6.3,1.12,1.12,0,0,0-.27.8,1.14,1.14,0,0,0,.27.82.82.82,0,0,0,.6.29.75.75,0,0,0,.61-.31A1.2,1.2,0,0,0,84.57,194.14Zm-.19-3.09a1.62,1.62,0,0,0-.16-.68.53.53,0,0,0-.51-.32.54.54,0,0,0-.52.31,1.31,1.31,0,0,0-.17.69,1.13,1.13,0,0,0,.21.71.56.56,0,0,0,.47.28.57.57,0,0,0,.47-.28A1.13,1.13,0,0,0,84.38,191.05Z" />
  </g>
  <g /></svg>