<svg xmlns="http://www.w3.org/2000/svg" width="20.41mm" height="130.6mm" viewBox="0 0 57.85 370.19">
  <defs>
    <clipPath id="clip-path">
      <rect x="15.02" y="32.83" width="27.8" height="25.62" style="fill: none" />
    </clipPath>
    <clipPath id="clip-path-3">
      <rect x="15.02" y="80.64" width="27.8" height="25.62" style="fill: none" />
    </clipPath>
  </defs>
  <g id="faceplate">
    <rect x="0.13" y="0.13" width="57.6" height="364.25" style="fill: #ededed;stroke: #9d9d9e;stroke-miterlimit: 10;stroke-width: 0.25px" />
    <g>
      <path d="M21.71,356.55l-.34.15-.27.1-.38.13a8.39,8.39,0,0,1-.84.18,6,6,0,0,1-.87.06,3.59,3.59,0,0,1-1.72-.42A2.94,2.94,0,0,1,16,355.47a4.37,4.37,0,0,1-.48-2.14,5.14,5.14,0,0,1,.25-1.6,2.91,2.91,0,0,1,.74-1.26,3.65,3.65,0,0,1,.84-.6,2.87,2.87,0,0,1,.83-.27,5.59,5.59,0,0,1,2.23.07c.35.1.73.23,1.15.39v1.76a5.06,5.06,0,0,0-.88-.49,3,3,0,0,0-1.15-.2,2,2,0,0,0-1.28.37,1.87,1.87,0,0,0-.66.88,2.75,2.75,0,0,0-.19,1,2.35,2.35,0,0,0,.22,1,1.74,1.74,0,0,0,.65.77,1.87,1.87,0,0,0,1.05.28,2.62,2.62,0,0,0,.75-.11v-.87h-.83V353h2.44Z" />
      <path d="M29.86,357.07H28l-.49-1.51H24.82l-.5,1.51H22.43l2.7-7.44h2Zm-2.81-2.8-.89-2.72-.9,2.72Z" />
      <path d="M36.52,351.44H34.28v5.63H32.45v-5.63H30.21v-1.81h6.31Z" />
      <path d="M42.2,357.07H37.6v-7.44h4.52v1.49H39.44v1.36H42V354H39.44v1.59H42.2Z" />
    </g>
    <g id="pips_-_fewest" data-name="pips - fewest">
      <g style="clip-path: url(#clip-path)">
        <g style="clip-path: url(#clip-path)">
          <path d="M34.62,35.61l.71-1.24a13.86,13.86,0,0,0-5.77-1.54v1.43a12.39,12.39,0,0,1,5.06,1.35" />
          <path d="M39.41,39.94l1.24-.71A14,14,0,0,0,36.42,35l-.71,1.23a12.55,12.55,0,0,1,3.7,3.7" />
          <path d="M22.14,36.24,21.43,35a14.07,14.07,0,0,0-4.23,4.22l1.24.71a12.67,12.67,0,0,1,3.7-3.7" />
          <path d="M41.4,46.1h1.43a13.83,13.83,0,0,0-1.55-5.77L40.05,41A12.47,12.47,0,0,1,41.4,46.1" />
          <path d="M28.29,34.26V32.83a13.86,13.86,0,0,0-5.77,1.54l.71,1.24a12.39,12.39,0,0,1,5.06-1.35" />
          <path d="M18.44,53.52l-1.24.71a14,14,0,0,0,4.23,4.22l.71-1.23a12.55,12.55,0,0,1-3.7-3.7" />
          <path d="M35.71,57.22l.71,1.23a14,14,0,0,0,4.23-4.22l-1.24-.71a12.55,12.55,0,0,1-3.7,3.7" />
          <path d="M41.4,47.36a12.47,12.47,0,0,1-1.35,5.06l1.23.71a13.83,13.83,0,0,0,1.55-5.77Z" />
          <path d="M16.45,47.36H15a13.83,13.83,0,0,0,1.55,5.77l1.23-.71a12.47,12.47,0,0,1-1.35-5.06" />
          <path d="M17.8,41l-1.23-.71A13.83,13.83,0,0,0,15,46.1h1.43A12.47,12.47,0,0,1,17.8,41" />
        </g>
      </g>
    </g>
    <g>
      <path d="M19.67,69.43H15.15V62.66h1.79v5.15h2.73Z" />
      <path d="M24.59,67.37H21.51a1.22,1.22,0,0,0,.45.74,1.18,1.18,0,0,0,.8.29,3.65,3.65,0,0,0,1.72-.5V69a3.94,3.94,0,0,1-.82.37,4.17,4.17,0,0,1-1.23.16,2.62,2.62,0,0,1-1.38-.34,2.16,2.16,0,0,1-.84-.93,3,3,0,0,1-.29-1.33,2.93,2.93,0,0,1,.29-1.31,2.11,2.11,0,0,1,.84-.91,2.71,2.71,0,0,1,1.38-.33,2.25,2.25,0,0,1,1,.26,2.07,2.07,0,0,1,.82.86A3.23,3.23,0,0,1,24.59,67Zm-1.45-.87a1.25,1.25,0,0,0-.21-.76.68.68,0,0,0-.6-.29.78.78,0,0,0-.62.29,1.17,1.17,0,0,0-.24.76Z" />
      <path d="M29.67,69.43H28.13V66.75A1.92,1.92,0,0,0,28,66a.49.49,0,0,0-.52-.31.7.7,0,0,0-.33.08.86.86,0,0,0-.26.21,1.33,1.33,0,0,0-.19.24c-.05.08-.11.16-.16.25v2.92H25v-5h1.55v.71a2.37,2.37,0,0,1,.73-.62,1.86,1.86,0,0,1,.82-.18c1,0,1.57.72,1.57,2.14Z" />
      <path d="M34.65,65.52h-.76a1.36,1.36,0,0,1,.4,1,1.67,1.67,0,0,1-.11.59,1.57,1.57,0,0,1-.34.51,1.79,1.79,0,0,1-.55.35,2.06,2.06,0,0,1-.74.17c-.35,0-.53.13-.53.33a.21.21,0,0,0,.06.17.51.51,0,0,0,.22.08l.5.06a4.16,4.16,0,0,1,.75.14,1.37,1.37,0,0,1,.64.41,1.29,1.29,0,0,1,.29.89,1.48,1.48,0,0,1-.22.82,1.45,1.45,0,0,1-.71.56,3.64,3.64,0,0,1-1.31.2,3.22,3.22,0,0,1-1.72-.36,1.08,1.08,0,0,1-.47-1.32.83.83,0,0,1,.3-.4,1.26,1.26,0,0,1,.66-.27.52.52,0,0,1-.26-.25.67.67,0,0,1-.11-.38,1,1,0,0,1,.15-.51A.77.77,0,0,1,31.3,68a1.79,1.79,0,0,1-.84-.55,1.52,1.52,0,0,1-.36-1,2,2,0,0,1,.17-.85,1.53,1.53,0,0,1,.45-.6,2,2,0,0,1,.68-.34,3.24,3.24,0,0,1,.85-.11h2.4Zm-1.4,4.84a.39.39,0,0,0-.31-.42,1.89,1.89,0,0,0-.63-.1,1.69,1.69,0,0,0-.78.13.43.43,0,0,0-.24.41c0,.37.33.56,1,.56A1.57,1.57,0,0,0,33,70.8.49.49,0,0,0,33.25,70.36Zm-.31-4a.81.81,0,0,0-.23-.6.69.69,0,0,0-.5-.23.65.65,0,0,0-.56.27,1,1,0,0,0-.21.58.86.86,0,0,0,.09.39.71.71,0,0,0,.25.29.75.75,0,0,0,.94-.13A.8.8,0,0,0,32.94,66.36Z" />
      <path d="M38.3,69.14a3.12,3.12,0,0,1-.66.26,2.94,2.94,0,0,1-.81.12c-1.12,0-1.67-.62-1.67-1.86v-2h-.7v-.31L36.53,63h.18v1.49h1.48v1.22H36.71v1.59a2.64,2.64,0,0,0,0,.45.48.48,0,0,0,.17.29.68.68,0,0,0,.42.11,2,2,0,0,0,1-.35Z" />
      <path d="M43.3,69.43H41.75V66.85a.09.09,0,0,1,0,0v-.12a1.55,1.55,0,0,0-.14-.65.49.49,0,0,0-.5-.3.7.7,0,0,0-.52.22,2.82,2.82,0,0,0-.42.56v2.92H38.63V62.66h1.55v2.51a2.1,2.1,0,0,1,.75-.63,2,2,0,0,1,.8-.17c1.05,0,1.57.67,1.57,2Z" />
    </g>
    <g id="pips_-_fewest-2" data-name="pips - fewest">
      <g style="clip-path: url(#clip-path-3)">
        <g style="clip-path: url(#clip-path-3)">
          <path d="M34.62,83.42l.71-1.24a13.86,13.86,0,0,0-5.77-1.54v1.42a12.56,12.56,0,0,1,5.06,1.36" />
          <path d="M39.41,87.75,40.65,87a14,14,0,0,0-4.23-4.22l-.71,1.23a12.55,12.55,0,0,1,3.7,3.7" />
          <path d="M22.14,84.05l-.71-1.23A13.85,13.85,0,0,0,17.2,87l1.24.71a12.55,12.55,0,0,1,3.7-3.7" />
          <path d="M41.4,93.91h1.43a13.83,13.83,0,0,0-1.55-5.77l-1.23.71a12.47,12.47,0,0,1,1.35,5.06" />
          <path d="M28.29,82.06V80.64a13.86,13.86,0,0,0-5.77,1.54l.71,1.24a12.56,12.56,0,0,1,5.06-1.36" />
          <path d="M18.44,101.32,17.2,102a14.07,14.07,0,0,0,4.23,4.22l.71-1.23a12.58,12.58,0,0,1-3.7-3.71" />
          <path d="M35.71,105l.71,1.23A14.07,14.07,0,0,0,40.65,102l-1.24-.72a12.58,12.58,0,0,1-3.7,3.71" />
          <path d="M41.4,95.17a12.47,12.47,0,0,1-1.35,5.06l1.23.71a13.83,13.83,0,0,0,1.55-5.77Z" />
          <path d="M16.45,95.17H15a13.83,13.83,0,0,0,1.55,5.77l1.23-.71a12.47,12.47,0,0,1-1.35-5.06" />
          <path d="M17.8,88.85l-1.23-.71A13.83,13.83,0,0,0,15,93.91h1.43a12.47,12.47,0,0,1,1.35-5.06" />
        </g>
      </g>
    </g>
    <g>
      <path d="M23.84,114.84a3.34,3.34,0,0,1-1.12,2.69,2.6,2.6,0,0,1-1.79.58H17.71v-6.77h2.48a6.41,6.41,0,0,1,.95.06,4.17,4.17,0,0,1,.72.19,2.72,2.72,0,0,1,.54.27,2.55,2.55,0,0,1,.4.32,3.3,3.3,0,0,1,.54.67,3.45,3.45,0,0,1,.36.89A4.3,4.3,0,0,1,23.84,114.84ZM22,114.76a2.47,2.47,0,0,0-.28-1.29,1.4,1.4,0,0,0-.66-.62,2.22,2.22,0,0,0-.8-.15h-.76v4h.76a2,2,0,0,0,1.22-.38A1.83,1.83,0,0,0,22,114.76Z" />
      <path d="M28.82,116H25.74a1.29,1.29,0,0,0,1.25,1,3.77,3.77,0,0,0,1.72-.5v1.09a4.56,4.56,0,0,1-.82.36,3.86,3.86,0,0,1-1.23.16,2.62,2.62,0,0,1-1.38-.34,2.16,2.16,0,0,1-.84-.93,3.15,3.15,0,0,1,0-2.64,2.08,2.08,0,0,1,.84-.9,2.71,2.71,0,0,1,1.38-.33,2.13,2.13,0,0,1,1,.26,2,2,0,0,1,.82.85,3.28,3.28,0,0,1,.31,1.53Zm-1.45-.86a1.28,1.28,0,0,0-.21-.77.67.67,0,0,0-.6-.28.75.75,0,0,0-.62.29,1.14,1.14,0,0,0-.24.76Z" />
      <path d="M30.86,118.11H29.31v-6.77h1.55Z" />
      <path d="M36.11,117.86a5.56,5.56,0,0,1-.62.24,2.43,2.43,0,0,1-.7.09.75.75,0,0,1-.53-.15.85.85,0,0,1-.21-.37,2.1,2.1,0,0,1-.56.37,1.81,1.81,0,0,1-.8.15,1.46,1.46,0,0,1-.77-.18,1.11,1.11,0,0,1-.41-.48,1.52,1.52,0,0,1-.12-.59,1.31,1.31,0,0,1,.21-.76,1.51,1.51,0,0,1,.54-.49,7,7,0,0,1,.91-.39l.49-.18.25-.1.17-.08a1,1,0,0,0-.13-.57c-.08-.14-.27-.21-.56-.21a1.85,1.85,0,0,0-.94.26,3.46,3.46,0,0,0-.79.65v-1.34a2.69,2.69,0,0,1,.62-.39,3.35,3.35,0,0,1,.7-.22,3.64,3.64,0,0,1,.74-.07,2.18,2.18,0,0,1,1.43.41,1.46,1.46,0,0,1,.48,1.15v1.92a1.39,1.39,0,0,0,0,.41.18.18,0,0,0,.17.14.8.8,0,0,0,.39-.15Zm-2.15-1v-1.17a4.35,4.35,0,0,0-.8.45.68.68,0,0,0-.26.55.53.53,0,0,0,.13.38.38.38,0,0,0,.29.14.63.63,0,0,0,.32-.1A3.14,3.14,0,0,0,34,116.9Z" />
      <path d="M40.93,113.13l-3,7.24H36.4l1.2-2.91-1.73-4.33h1.66l.89,2.48,1-2.48Z" />
    </g>
    <g>
      <path d="M34.54,6.76l-5.53,7v-6a1.27,1.27,0,0,0-.64-1.17.89.89,0,0,0-1.13.29L20,16.13a1.49,1.49,0,0,0,0,1.79.9.9,0,0,0,1.46,0l5.5-7v6a1.29,1.29,0,0,0,.64,1.18.92.92,0,0,0,1.14-.3l5.53-7v6.15a1.05,1.05,0,1,0,2.06,0V7.64a1.28,1.28,0,0,0-.65-1.18A.91.91,0,0,0,34.54,6.76Z" style="stroke: #000;stroke-width: 0.6000000000000001px" />
      <path d="M20,6.68l-4.81,6.13a1.47,1.47,0,0,0,0,1.79.9.9,0,0,0,1.46,0l3.05-3.87V17a1.17,1.17,0,0,0,1,1.26,1.17,1.17,0,0,0,1-1.26V7.56a1.29,1.29,0,0,0-.65-1.17A.91.91,0,0,0,20,6.68Z" style="stroke: #000;stroke-width: 0.6000000000000001px" />
      <path d="M42.91,11.2a1.05,1.05,0,0,0-.95-.77h-2.1l1.53-1.95s.8-1.17.1-1.82a1.27,1.27,0,0,0-1.58.06l-3.23,4.1a1.45,1.45,0,0,0-.2,1.37,1,1,0,0,0,1,.78h2.1L37,16.14s-1,1.13-.27,1.89,1.75-.14,1.75-.14l4.18-5.31A1.5,1.5,0,0,0,42.91,11.2Z" style="stroke: #000;stroke-width: 0.6000000000000001px" />
    </g>
    <path d="M44.52,308.41c0-8.08-7-14.62-15.6-14.62s-15.59,6.54-15.59,14.62v8.11h0v19.85A5.7,5.7,0,0,0,19,342H38.85a5.7,5.7,0,0,0,5.67-5.67V316.52h0Z" />
    <path d="M28.92,152.21c8,0,14.54,6,14.54,13.47V315.33c0,7.42-6.52,13.46-14.54,13.46s-14.54-6-14.54-13.46V165.68c0-7.43,6.52-13.47,14.53-13.47m0-1.05c-8.61,0-15.59,6.5-15.59,14.52V315.33c0,8,7,14.51,15.59,14.51s15.59-6.49,15.59-14.51V165.68c0-8-7-14.52-15.6-14.52Z" />
    <g>
      <path d="M21.48,190.34H17.86v-5.41H19.3v4.12h2.18Z" />
      <path d="M25.42,188.69H23a1,1,0,0,0,1,.83,2.93,2.93,0,0,0,1.38-.4V190a3.42,3.42,0,0,1-.66.29,3,3,0,0,1-1,.13,2.11,2.11,0,0,1-1.1-.27,1.73,1.73,0,0,1-.68-.74,2.47,2.47,0,0,1-.22-1.07,2.31,2.31,0,0,1,.22-1,1.66,1.66,0,0,1,.68-.73,2.11,2.11,0,0,1,1.1-.26,1.84,1.84,0,0,1,.82.2,1.64,1.64,0,0,1,.66.69,2.54,2.54,0,0,1,.25,1.22ZM24.26,188a1,1,0,0,0-.17-.61.54.54,0,0,0-.48-.23.64.64,0,0,0-.5.23,1,1,0,0,0-.19.61Z" />
      <path d="M29.49,190.34H28.25V188.2a1.42,1.42,0,0,0-.1-.57.39.39,0,0,0-.41-.25.5.5,0,0,0-.27.07.74.74,0,0,0-.2.16l-.16.2L27,188v2.33H25.75v-4H27v.57a1.73,1.73,0,0,1,.58-.5,1.45,1.45,0,0,1,.66-.14q1.26,0,1.26,1.71Z" />
      <path d="M33.47,187.21h-.62a1.07,1.07,0,0,1,.33.79,1.27,1.27,0,0,1-.09.47,1.09,1.09,0,0,1-.27.4,1.25,1.25,0,0,1-.44.29,2,2,0,0,1-.59.14c-.29,0-.43.1-.43.26a.16.16,0,0,0,.05.13.52.52,0,0,0,.18.07l.4.05a2.69,2.69,0,0,1,.59.11,1.15,1.15,0,0,1,.52.32,1.05,1.05,0,0,1,.23.72,1.3,1.3,0,0,1-.17.66,1.17,1.17,0,0,1-.58.44,2.74,2.74,0,0,1-1,.16,2.61,2.61,0,0,1-1.38-.28.88.88,0,0,1-.43-.77,1.18,1.18,0,0,1,.05-.29.86.86,0,0,1,.24-.33,1.17,1.17,0,0,1,.54-.21.44.44,0,0,1-.21-.2.53.53,0,0,1-.09-.3.78.78,0,0,1,.12-.41.57.57,0,0,1,.41-.26,1.51,1.51,0,0,1-.68-.44,1.24,1.24,0,0,1-.28-.84,1.67,1.67,0,0,1,.13-.69,1.31,1.31,0,0,1,.36-.47,1.51,1.51,0,0,1,.55-.28,2.37,2.37,0,0,1,.67-.08h1.93Zm-1.12,3.87a.32.32,0,0,0-.25-.33,1.7,1.7,0,0,0-.51-.08,1.55,1.55,0,0,0-.62.1.36.36,0,0,0-.19.33c0,.3.27.45.79.45a1.15,1.15,0,0,0,.57-.12A.36.36,0,0,0,32.35,191.08Zm-.25-3.19a.66.66,0,0,0-.18-.49.57.57,0,0,0-.41-.18.5.5,0,0,0-.44.22.77.77,0,0,0-.17.46.78.78,0,0,0,.07.31.68.68,0,0,0,.2.24.62.62,0,0,0,.31.08.55.55,0,0,0,.44-.19A.63.63,0,0,0,32.1,187.89Z" />
      <path d="M36.39,190.11a2.58,2.58,0,0,1-.53.2,2.19,2.19,0,0,1-.65.1c-.89,0-1.34-.49-1.34-1.48v-1.59h-.56v-.24L35,185.17h.14v1.2H36.3v1H35.11v1.28a1.86,1.86,0,0,0,0,.36.34.34,0,0,0,.13.22.49.49,0,0,0,.34.1,1.68,1.68,0,0,0,.78-.29Z" />
      <path d="M40.39,190.34H39.15v-2.2a1.27,1.27,0,0,0-.1-.52.42.42,0,0,0-.41-.24.55.55,0,0,0-.41.18,2,2,0,0,0-.34.45v2.33H36.65v-5.41h1.24v2a1.7,1.7,0,0,1,.6-.51,1.53,1.53,0,0,1,.64-.13c.84,0,1.26.53,1.26,1.6Z" />
    </g>
    <g>
      <path d="M24.83,236.84a3,3,0,0,1-.26,1.34,2.78,2.78,0,0,1-.63.81,2,2,0,0,1-1.43.46H19.94V234h2a4.27,4.27,0,0,1,.76.05,2.38,2.38,0,0,1,.57.15,2,2,0,0,1,.44.21l.32.26a2.45,2.45,0,0,1,.42.53,2.94,2.94,0,0,1,.3.72A3.49,3.49,0,0,1,24.83,236.84Zm-1.46-.07a2,2,0,0,0-.22-1,1.12,1.12,0,0,0-.53-.49,1.59,1.59,0,0,0-.64-.13h-.61v3.21H22a1.55,1.55,0,0,0,1-.31A1.47,1.47,0,0,0,23.37,236.77Z" />
      <path d="M28.82,237.8H26.36a1.08,1.08,0,0,0,.35.6,1,1,0,0,0,.64.23,3.12,3.12,0,0,0,1.39-.4v.87a4.08,4.08,0,0,1-.66.29,3.08,3.08,0,0,1-1,.13,2.11,2.11,0,0,1-1.1-.27,1.73,1.73,0,0,1-.68-.74,2.47,2.47,0,0,1-.22-1.07,2.38,2.38,0,0,1,.22-1.05,1.69,1.69,0,0,1,.68-.72,2.11,2.11,0,0,1,1.1-.27,1.76,1.76,0,0,1,.83.21,1.62,1.62,0,0,1,.65.69,2.54,2.54,0,0,1,.25,1.22Zm-1.16-.69a1,1,0,0,0-.16-.61.55.55,0,0,0-.48-.23.61.61,0,0,0-.5.23.91.91,0,0,0-.19.61Z" />
      <path d="M30.45,239.45H29.21V234h1.24Z" />
      <path d="M34.66,239.25c-.19.08-.35.15-.51.2a1.75,1.75,0,0,1-.55.07.61.61,0,0,1-.43-.12.74.74,0,0,1-.17-.3,1.9,1.9,0,0,1-.44.3,1.46,1.46,0,0,1-.64.12,1.14,1.14,0,0,1-.62-.15A.86.86,0,0,1,31,239a1.27,1.27,0,0,1-.09-.47,1.07,1.07,0,0,1,.16-.61,1.28,1.28,0,0,1,.44-.39,5.37,5.37,0,0,1,.73-.32l.39-.14.2-.07.13-.07a.85.85,0,0,0-.1-.46c-.07-.11-.22-.16-.45-.16a1.5,1.5,0,0,0-.75.2A3.11,3.11,0,0,0,31,237V236a2.18,2.18,0,0,1,.5-.31,2.81,2.81,0,0,1,.56-.18,3,3,0,0,1,.59-.06,1.73,1.73,0,0,1,1.15.34,1.17,1.17,0,0,1,.38.92v1.53a.92.92,0,0,0,0,.33.14.14,0,0,0,.13.11.71.71,0,0,0,.32-.12Zm-1.73-.76v-.94a3.72,3.72,0,0,0-.64.36.56.56,0,0,0-.2.44.41.41,0,0,0,.1.31.3.3,0,0,0,.23.1.44.44,0,0,0,.26-.08A1.38,1.38,0,0,0,32.93,238.49Z" />
      <path d="M38.51,235.47l-2.38,5.79H34.88l1-2.33-1.38-3.46h1.33l.71,2,.81-2Z" />
    </g>
    <g>
      <path d="M22,288.56H20.54v-5.41H22Z" />
      <path d="M26.43,288.56H25.19v-2.14a1.72,1.72,0,0,0-.09-.58.4.4,0,0,0-.42-.24.53.53,0,0,0-.26.06.87.87,0,0,0-.21.17,1.3,1.3,0,0,0-.15.2,1.74,1.74,0,0,0-.13.2v2.33H22.69v-4h1.24v.57a1.73,1.73,0,0,1,.59-.49,1.38,1.38,0,0,1,.65-.15c.84,0,1.26.57,1.26,1.72Z" />
      <path d="M30.73,286.55a2.73,2.73,0,0,1-.1.76,1.86,1.86,0,0,1-.3.67,1.53,1.53,0,0,1-.53.48,1.58,1.58,0,0,1-.74.17,1.64,1.64,0,0,1-.55-.08,2.56,2.56,0,0,1-.39-.22v2H26.88v-5.79h1.24v.36a1.73,1.73,0,0,1,.41-.3,1.29,1.29,0,0,1,.61-.13,1.48,1.48,0,0,1,.75.22,1.6,1.6,0,0,1,.61.67A2.56,2.56,0,0,1,30.73,286.55Zm-1.3,0a1.42,1.42,0,0,0-.1-.59.66.66,0,0,0-.26-.32.55.55,0,0,0-.32-.1.74.74,0,0,0-.36.08,1.05,1.05,0,0,0-.27.2v1.52l.14.09.15.08.16.06a.5.5,0,0,0,.18,0,.56.56,0,0,0,.48-.28A1.32,1.32,0,0,0,29.43,286.58Z" />
      <path d="M34.78,288.56H33.54V288a1.73,1.73,0,0,1-.55.48,1.35,1.35,0,0,1-.69.16,1,1,0,0,1-1-.52,2.84,2.84,0,0,1-.24-1.19v-2.34h1.24v2.15a1.62,1.62,0,0,0,.09.57.41.41,0,0,0,.42.25.55.55,0,0,0,.43-.18,3.8,3.8,0,0,0,.32-.45v-2.34h1.24Z" />
      <path d="M38.05,288.33a2.37,2.37,0,0,1-.53.2,2.19,2.19,0,0,1-.65.1c-.89,0-1.34-.49-1.34-1.48v-1.59H35v-.25l1.66-1.92h.14v1.19H38v1H36.78v1.27a1.84,1.84,0,0,0,0,.36.37.37,0,0,0,.14.23.51.51,0,0,0,.34.09,1.65,1.65,0,0,0,.77-.28Z" />
    </g>
    <g>
      <path d="M28.09,335a3.08,3.08,0,0,1-.31,1.39,2.34,2.34,0,0,1-.91,1,2.79,2.79,0,0,1-1.49.38,2.73,2.73,0,0,1-1.49-.39,2.38,2.38,0,0,1-.91-1,3.14,3.14,0,0,1-.3-1.36,3.19,3.19,0,0,1,.3-1.37,2.35,2.35,0,0,1,.91-1,2.73,2.73,0,0,1,1.49-.39,3.1,3.1,0,0,1,1.18.22,2.24,2.24,0,0,1,.85.61,2.75,2.75,0,0,1,.51.88A3.47,3.47,0,0,1,28.09,335Zm-1.47,0a2,2,0,0,0-.07-.56,1.55,1.55,0,0,0-.24-.44,1.08,1.08,0,0,0-.39-.28,1.3,1.3,0,0,0-.54-.11,1.14,1.14,0,0,0-.9.38,1.5,1.5,0,0,0-.33,1,1.47,1.47,0,0,0,.33,1,1.12,1.12,0,0,0,.9.39,1.23,1.23,0,0,0,.68-.18,1.19,1.19,0,0,0,.42-.49A1.65,1.65,0,0,0,26.62,335Z" style="fill: #fff" />
      <path d="M32.18,337.67H31v-.57a1.84,1.84,0,0,1-.55.48,1.41,1.41,0,0,1-.69.16,1,1,0,0,1-1-.53,2.79,2.79,0,0,1-.23-1.18v-2.34h1.23v2.15a1.61,1.61,0,0,0,.1.57.39.39,0,0,0,.41.24.53.53,0,0,0,.43-.17A2.92,2.92,0,0,0,31,336v-2.34h1.23Z" style="fill: #fff" />
      <path d="M35.46,337.44a2.58,2.58,0,0,1-.53.2,2.24,2.24,0,0,1-.65.1c-.89,0-1.34-.49-1.34-1.48v-1.59h-.56v-.25L34,332.5h.14v1.19h1.18v1H34.18v1.27a1.73,1.73,0,0,0,0,.36.36.36,0,0,0,.13.23.55.55,0,0,0,.34.09,1.64,1.64,0,0,0,.78-.28Z" style="fill: #fff" />
    </g>
  </g>
  <g /></svg>