<svg xmlns="http://www.w3.org/2000/svg" width="86.45mm" height="130.6mm" viewBox="0 0 245.05 370.2">
  <defs>
    <clipPath id="clip-path">
      <rect x="50.44" y="32.9" width="27.8" height="25.62" style="fill: none" />
    </clipPath>
    <clipPath id="clip-path-2">
      <rect x="50.44" y="32.9" width="27.8" height="25.62" style="fill: none" />
    </clipPath>
    <clipPath id="clip-path-3">
      <rect x="88.65" y="32.9" width="27.8" height="25.62" style="fill: none" />
    </clipPath>
    <clipPath id="clip-path-4">
      <rect x="88.65" y="32.9" width="27.8" height="25.62" style="fill: none" />
    </clipPath>
    <clipPath id="clip-path-5">
      <rect x="126.85" y="32.9" width="27.8" height="25.62" style="fill: none" />
    </clipPath>
    <clipPath id="clip-path-6">
      <rect x="126.85" y="32.9" width="27.8" height="25.62" style="fill: none" />
    </clipPath>
    <clipPath id="clip-path-7">
      <rect x="165.06" y="32.9" width="27.8" height="25.62" style="fill: none" />
    </clipPath>
    <clipPath id="clip-path-8">
      <rect x="165.06" y="32.9" width="27.8" height="25.62" style="fill: none" />
    </clipPath>
  </defs>
  <g id="faceplate">
    <rect x="0.13" y="0.13" width="244.8" height="364.25" style="fill: #ededed;stroke: #9d9d9e;stroke-miterlimit: 10;stroke-width: 0.25px" />
    <g>
      <path d="M128.14,6.74l-5.53,7v-6A1.3,1.3,0,0,0,122,6.56a.91.91,0,0,0-1.13.3l-7.28,9.25a1.49,1.49,0,0,0,0,1.79.9.9,0,0,0,1.46,0l5.5-7v6a1.29,1.29,0,0,0,.64,1.18.92.92,0,0,0,1.14-.3l5.53-7V16.9a1.05,1.05,0,1,0,2.06,0V7.61a1.27,1.27,0,0,0-.65-1.17A.9.9,0,0,0,128.14,6.74Z" style="stroke: #000;stroke-width: 0.6000000000000001px" />
      <path d="M113.56,6.66l-4.81,6.13a1.47,1.47,0,0,0,0,1.79.9.9,0,0,0,1.46,0l3-3.87V17a1.05,1.05,0,1,0,2.06,0V7.54a1.29,1.29,0,0,0-.65-1.17A.91.91,0,0,0,113.56,6.66Z" style="stroke: #000;stroke-width: 0.6000000000000001px" />
      <path d="M136.51,11.18a1.05,1.05,0,0,0-.95-.77h-2.1L135,8.46s.8-1.18.1-1.82-1.58.06-1.58.06l-3.23,4.1a1.45,1.45,0,0,0-.2,1.37,1,1,0,0,0,.95.77h2.1l-2.49,3.18s-1,1.12-.27,1.89,1.75-.14,1.75-.14l4.18-5.31A1.5,1.5,0,0,0,136.51,11.18Z" style="stroke: #000;stroke-width: 0.6000000000000001px" />
    </g>
    <path d="M230.08,288.32H13.83v46.93c0,3.49,2.53,6.35,5.64,6.35H48.94l115.64-.46,31.53.46h29.47c3.11,0,5.64-2.86,5.64-6.35V288.32Z" />
    <g>
      <path d="M162.46,331.87a2,2,0,0,1-.09.59,1.48,1.48,0,0,1-.3.53,1.52,1.52,0,0,1-.54.41,2.1,2.1,0,0,1-.82.15h-.94v2h-1.44v-5.41h2.38a2.1,2.1,0,0,1,.82.15,1.64,1.64,0,0,1,.54.41,1.61,1.61,0,0,1,.3.54A2.08,2.08,0,0,1,162.46,331.87Zm-1.47,0a.6.6,0,0,0-.2-.53,1.35,1.35,0,0,0-.72-.14h-.3v1.3h.31a2,2,0,0,0,.55-.05.41.41,0,0,0,.28-.19A.81.81,0,0,0,161,331.88Z" />
      <path d="M166.51,335.58h-1.24v-2.2a1.27,1.27,0,0,0-.1-.52.41.41,0,0,0-.41-.24.57.57,0,0,0-.41.18,2.4,2.4,0,0,0-.34.45v2.33h-1.24v-5.41H164v2a1.7,1.7,0,0,1,.6-.51,1.53,1.53,0,0,1,.64-.13c.84,0,1.26.53,1.26,1.6Z" />
      <path d="M170.6,335.38l-.5.2a1.86,1.86,0,0,1-.56.07.59.59,0,0,1-.42-.12.64.64,0,0,1-.17-.3,2.21,2.21,0,0,1-.45.3,1.43,1.43,0,0,1-.64.12,1.1,1.1,0,0,1-.61-.15.83.83,0,0,1-.34-.38,1.23,1.23,0,0,1-.09-.47,1,1,0,0,1,.16-.6,1.31,1.31,0,0,1,.44-.4,6.15,6.15,0,0,1,.73-.31l.39-.15.2-.07.14-.07a.87.87,0,0,0-.11-.46.5.5,0,0,0-.44-.16,1.57,1.57,0,0,0-.76.2,2.61,2.61,0,0,0-.63.53v-1.08a2,2,0,0,1,.5-.31,2.62,2.62,0,0,1,.56-.18,3.81,3.81,0,0,1,.59,0,1.7,1.7,0,0,1,1.14.33,1.14,1.14,0,0,1,.38.92v1.53a1.22,1.22,0,0,0,0,.33.14.14,0,0,0,.13.11.76.76,0,0,0,.32-.11Zm-1.72-.76v-.94a3.44,3.44,0,0,0-.65.37.53.53,0,0,0-.2.44.4.4,0,0,0,.1.3.34.34,0,0,0,.24.11.49.49,0,0,0,.25-.08C168.7,334.76,168.79,334.7,168.88,334.62Z" />
      <path d="M173.44,334.42a1.2,1.2,0,0,1-.35.89,1.44,1.44,0,0,1-1.05.34,2.42,2.42,0,0,1-.69-.08,4.77,4.77,0,0,1-.66-.23v-1a3.62,3.62,0,0,0,.55.31,1.18,1.18,0,0,0,.5.11c.31,0,.46-.1.46-.29a.27.27,0,0,0-.06-.17,1.06,1.06,0,0,0-.24-.18l-.44-.22a1.81,1.81,0,0,1-.59-.47,1,1,0,0,1-.24-.7,1.17,1.17,0,0,1,.16-.57,1.26,1.26,0,0,1,.49-.45,1.55,1.55,0,0,1,.78-.17h.28l.43.1a2.33,2.33,0,0,1,.49.21v1a1.72,1.72,0,0,1-.18-.13l-.2-.11a1.6,1.6,0,0,0-.29-.11,1.33,1.33,0,0,0-.34-.05.4.4,0,0,0-.3.09.34.34,0,0,0-.08.19.23.23,0,0,0,.09.18,1,1,0,0,0,.36.21,3.23,3.23,0,0,1,.66.37,1.16,1.16,0,0,1,.36.42A1.25,1.25,0,0,1,173.44,334.42Z" />
      <path d="M177.42,333.93H175a1,1,0,0,0,1,.83,2.93,2.93,0,0,0,1.38-.4v.87a2.9,2.9,0,0,1-.66.29,3,3,0,0,1-1,.13,2.11,2.11,0,0,1-1.1-.27,1.67,1.67,0,0,1-.68-.74,2.47,2.47,0,0,1-.23-1.07,2.31,2.31,0,0,1,.23-1,1.65,1.65,0,0,1,.68-.73,2.11,2.11,0,0,1,1.1-.26,1.84,1.84,0,0,1,.82.2,1.62,1.62,0,0,1,.65.69,2.54,2.54,0,0,1,.26,1.22Zm-1.16-.69a1,1,0,0,0-.17-.61.56.56,0,0,0-.48-.23.64.64,0,0,0-.5.23.93.93,0,0,0-.19.61Z" />
    </g>
    <g>
      <path d="M28.19,331.87a2,2,0,0,1-.09.59,1.65,1.65,0,0,1-.3.53,1.47,1.47,0,0,1-.55.41,2,2,0,0,1-.81.15H25.5v2H24.06v-5.41h2.38a2,2,0,0,1,.81.15,1.59,1.59,0,0,1,.55.41,1.81,1.81,0,0,1,.3.54A2.08,2.08,0,0,1,28.19,331.87Zm-1.47,0a.6.6,0,0,0-.2-.53,1.35,1.35,0,0,0-.72-.14h-.3v1.3h.31a2,2,0,0,0,.55-.05.41.41,0,0,0,.28-.19A.81.81,0,0,0,26.72,331.88Z" />
      <path d="M29.8,335.58H28.56v-4H29.8Zm-.1-4.89a.64.64,0,0,1-.15.42.51.51,0,0,1-.37.17.47.47,0,0,1-.26-.08.55.55,0,0,1-.19-.21.6.6,0,0,1-.07-.3.64.64,0,0,1,.15-.42.47.47,0,0,1,.37-.18.49.49,0,0,1,.37.18A.64.64,0,0,1,29.7,330.69Z" />
      <path d="M33.13,335.35a2.63,2.63,0,0,1-.53.21,2.48,2.48,0,0,1-.65.09c-.89,0-1.33-.49-1.33-1.48v-1.59h-.56v-.24l1.66-1.93h.14v1.2H33v1H31.86v1.28a3.53,3.53,0,0,0,0,.36.35.35,0,0,0,.14.22.48.48,0,0,0,.34.1,1.69,1.69,0,0,0,.77-.29Z" />
      <path d="M36.39,335.4a3,3,0,0,1-.32.12l-.39.1a3.38,3.38,0,0,1-.47,0,1.93,1.93,0,0,1-1-.22,1.56,1.56,0,0,1-.61-.55,1.94,1.94,0,0,1-.3-.68,2.51,2.51,0,0,1-.08-.62,2.43,2.43,0,0,1,.08-.61,2.47,2.47,0,0,1,.29-.67,1.81,1.81,0,0,1,.61-.55,2.09,2.09,0,0,1,1-.21,2.68,2.68,0,0,1,.63.06,3.69,3.69,0,0,1,.5.17v1.1a3.24,3.24,0,0,0-1-.22.85.85,0,0,0-.58.23.9.9,0,0,0-.26.7,1,1,0,0,0,.13.54.73.73,0,0,0,.32.31.82.82,0,0,0,.39.11,1.32,1.32,0,0,0,.42-.07,6,6,0,0,0,.58-.18Z" />
      <path d="M40.45,335.58H39.21v-2.2a1.27,1.27,0,0,0-.1-.52.41.41,0,0,0-.41-.24.57.57,0,0,0-.41.18,2.4,2.4,0,0,0-.34.45v2.33H36.71v-5.41H38v2a1.79,1.79,0,0,1,.6-.51,1.56,1.56,0,0,1,.64-.13c.84,0,1.26.53,1.26,1.6Z" />
    </g>
    <g>
      <path d="M72.1,335.58H70.56l-.37-1a4.2,4.2,0,0,0-.38-.77.77.77,0,0,0-.32-.31.93.93,0,0,0-.4-.07h-.16v2.11H67.49v-5.41h2.44a1.61,1.61,0,0,1,1,.27,1.53,1.53,0,0,1,.55.67,1.89,1.89,0,0,1,.17.74,1.6,1.6,0,0,1-.14.69,1.17,1.17,0,0,1-.3.41,3,3,0,0,1-.34.25,1.45,1.45,0,0,1,.38.36,5.45,5.45,0,0,1,.4.85Zm-1.95-3.7a.57.57,0,0,0-.22-.52,1.23,1.23,0,0,0-.7-.15h-.3v1.3h.31a1.36,1.36,0,0,0,.72-.13A.56.56,0,0,0,70.15,331.88Z" />
      <path d="M75.9,335.38l-.5.2a1.79,1.79,0,0,1-.55.07.6.6,0,0,1-.43-.12.64.64,0,0,1-.17-.3,1.9,1.9,0,0,1-.44.3,1.49,1.49,0,0,1-.64.12,1.14,1.14,0,0,1-.62-.15.76.76,0,0,1-.33-.38,1.24,1.24,0,0,1-.1-.47,1,1,0,0,1,.17-.6,1.22,1.22,0,0,1,.44-.4,5.3,5.3,0,0,1,.72-.31l.39-.15.2-.07.14-.07a.87.87,0,0,0-.1-.46.53.53,0,0,0-.45-.16,1.5,1.5,0,0,0-.75.2,2.66,2.66,0,0,0-.64.53v-1.08a2,2,0,0,1,.5-.31,2.81,2.81,0,0,1,.56-.18,3.81,3.81,0,0,1,.59,0,1.69,1.69,0,0,1,1.14.33,1.14,1.14,0,0,1,.39.92v1.53a1.31,1.31,0,0,0,0,.33c0,.07.07.11.14.11a.77.77,0,0,0,.31-.11Zm-1.72-.76v-.94a3.3,3.3,0,0,0-.64.37.51.51,0,0,0-.21.44.41.41,0,0,0,.11.3.3.3,0,0,0,.23.11.46.46,0,0,0,.25-.08A2.26,2.26,0,0,0,74.18,334.62Z" />
      <path d="M79.75,335.58H78.51v-2.14a1.42,1.42,0,0,0-.1-.57.39.39,0,0,0-.41-.25.5.5,0,0,0-.27.07.74.74,0,0,0-.2.16l-.16.2-.12.2v2.33H76v-4h1.24v.57a1.73,1.73,0,0,1,.58-.5,1.45,1.45,0,0,1,.66-.14q1.26,0,1.26,1.71Z" />
      <path d="M83.73,332.45h-.62a1.07,1.07,0,0,1,.33.79,1.27,1.27,0,0,1-.09.47,1.09,1.09,0,0,1-.27.4,1.25,1.25,0,0,1-.44.29,1.76,1.76,0,0,1-.59.14c-.29,0-.43.1-.43.26a.16.16,0,0,0,0,.13.38.38,0,0,0,.18.07l.4.05a3.43,3.43,0,0,1,.59.11,1.1,1.1,0,0,1,.52.33,1,1,0,0,1,.23.71,1.3,1.3,0,0,1-.17.66,1.11,1.11,0,0,1-.58.44,2.74,2.74,0,0,1-1,.16,2.55,2.55,0,0,1-1.37-.28.87.87,0,0,1-.44-.77,1.18,1.18,0,0,1,.05-.29.86.86,0,0,1,.24-.33,1.17,1.17,0,0,1,.54-.21.42.42,0,0,1-.21-.19.59.59,0,0,1-.09-.31.78.78,0,0,1,.12-.41.59.59,0,0,1,.41-.26,1.51,1.51,0,0,1-.68-.44,1.24,1.24,0,0,1-.28-.84,1.67,1.67,0,0,1,.13-.69,1.31,1.31,0,0,1,.36-.47,1.51,1.51,0,0,1,.55-.28,2.82,2.82,0,0,1,.68-.08h1.92Zm-1.12,3.87a.32.32,0,0,0-.25-.33,1.7,1.7,0,0,0-.51-.08,1.55,1.55,0,0,0-.62.1.36.36,0,0,0-.19.33c0,.3.27.45.79.45a1.15,1.15,0,0,0,.57-.12A.36.36,0,0,0,82.61,336.32Zm-.25-3.19a.67.67,0,0,0-.18-.49.57.57,0,0,0-.41-.18.5.5,0,0,0-.44.22.77.77,0,0,0-.17.46.78.78,0,0,0,.07.31.68.68,0,0,0,.2.24.62.62,0,0,0,.31.08.55.55,0,0,0,.44-.19A.63.63,0,0,0,82.36,333.13Z" />
      <path d="M87.48,333.93H85a1,1,0,0,0,.36.6,1,1,0,0,0,.64.23,3,3,0,0,0,1.38-.4v.87a2.9,2.9,0,0,1-.66.29,3.08,3.08,0,0,1-1,.13,2.14,2.14,0,0,1-1.1-.27,1.71,1.71,0,0,1-.67-.74,2.47,2.47,0,0,1-.23-1.07,2.31,2.31,0,0,1,.23-1,1.69,1.69,0,0,1,.67-.73,2.13,2.13,0,0,1,1.1-.26,1.88,1.88,0,0,1,.83.2,1.62,1.62,0,0,1,.65.69,2.54,2.54,0,0,1,.26,1.22Zm-1.16-.69a1,1,0,0,0-.17-.61.56.56,0,0,0-.48-.23.63.63,0,0,0-.5.23.93.93,0,0,0-.19.61Z" />
    </g>
    <g>
      <path d="M121.11,333.39h-2v2.19H117.7v-5.41h3.41v1.08h-2v1.05h2Z" />
      <path d="M127.34,335.58H125.9v-3.13l-1.29,1.81h-.12l-1.3-1.81v3.13H121.8v-5.41h1.3l1.46,2,1.48-2h1.3Z" />
    </g>
    <g>
      <path d="M211.94,332.87a3.12,3.12,0,0,1-.31,1.4,2.36,2.36,0,0,1-.92,1,3.09,3.09,0,0,1-3,0,2.42,2.42,0,0,1-.91-1,3.19,3.19,0,0,1-.3-1.37,3.11,3.11,0,0,1,.3-1.36,2.32,2.32,0,0,1,.91-1,2.71,2.71,0,0,1,1.49-.39,2.92,2.92,0,0,1,1.18.23,2.42,2.42,0,0,1,.85.6,2.69,2.69,0,0,1,.51.89A3.36,3.36,0,0,1,211.94,332.87Zm-1.47,0a1.59,1.59,0,0,0-.08-.55,1.23,1.23,0,0,0-.23-.44,1.11,1.11,0,0,0-.39-.29,1.33,1.33,0,0,0-.54-.1,1.11,1.11,0,0,0-.9.38,1.47,1.47,0,0,0-.33,1,1.5,1.5,0,0,0,.33,1,1.14,1.14,0,0,0,.9.38,1.23,1.23,0,0,0,.68-.18,1.13,1.13,0,0,0,.42-.49A1.65,1.65,0,0,0,210.47,332.87Z" style="fill: #ededed" />
      <path d="M216,335.58h-1.24V335a1.79,1.79,0,0,1-.54.47,1.42,1.42,0,0,1-.7.16,1,1,0,0,1-1-.52,2.84,2.84,0,0,1-.23-1.19v-2.33h1.23v2.14a1.61,1.61,0,0,0,.1.57.39.39,0,0,0,.41.25.54.54,0,0,0,.43-.18,2.92,2.92,0,0,0,.32-.45v-2.33H216Z" style="fill: #ededed" />
      <path d="M219.31,335.35a3,3,0,0,1-.54.21,2.47,2.47,0,0,1-.64.09c-.89,0-1.34-.49-1.34-1.48v-1.59h-.56v-.24l1.66-1.93H218v1.2h1.18v1H218v1.28a3.53,3.53,0,0,0,0,.36.4.4,0,0,0,.14.22.53.53,0,0,0,.34.1,1.68,1.68,0,0,0,.78-.29Z" style="fill: #ededed" />
    </g>
    <g>
      <path d="M164.3,335.58h-1.44v-5.41h1.44Z" style="fill: #ededed" />
      <path d="M168.75,335.58h-1.24v-2.14a1.62,1.62,0,0,0-.09-.57.39.39,0,0,0-.42-.25.46.46,0,0,0-.26.07.65.65,0,0,0-.21.16l-.15.2-.13.2v2.33H165v-4h1.24v.57a1.75,1.75,0,0,1,.59-.5,1.38,1.38,0,0,1,.65-.14q1.26,0,1.26,1.71Z" style="fill: #ededed" />
      <path d="M172.9,331.61l-1.59,4h-.92l-1.55-4h1.33l.72,2.08.81-2.08Z" style="fill: #ededed" />
    </g>
    <g>
      <path d="M115,331.49h-1.74v4.09h-1.43v-4.09H110.1v-1.32H115Z" style="fill: #ededed" />
      <path d="M118.46,331.82l-.46,1.41a.81.81,0,0,0-.57-.3.56.56,0,0,0-.45.2,2,2,0,0,0-.37.74v1.71h-1.24v-4h1.24v1a2.21,2.21,0,0,1,.41-.7.91.91,0,0,1,.7-.33.8.8,0,0,1,.36.07A1.88,1.88,0,0,1,118.46,331.82Z" style="fill: #ededed" />
      <path d="M119.87,335.58h-1.24v-4h1.24Zm-.1-4.89a.64.64,0,0,1-.15.42.5.5,0,0,1-.37.17.47.47,0,0,1-.26-.08.55.55,0,0,1-.19-.21.6.6,0,0,1-.07-.3.64.64,0,0,1,.15-.42.47.47,0,0,1,.74,0A.64.64,0,0,1,119.77,330.69Z" style="fill: #ededed" />
      <path d="M124,332.45h-.61a1.06,1.06,0,0,1,.32.79,1.27,1.27,0,0,1-.09.47,1.2,1.2,0,0,1-.26.4,1.35,1.35,0,0,1-.44.29,1.76,1.76,0,0,1-.59.14c-.29,0-.43.1-.43.26s0,.11,0,.13a.54.54,0,0,0,.17.07l.4.05a2.67,2.67,0,0,1,.6.11,1.12,1.12,0,0,1,.51.33,1,1,0,0,1,.24.71,1.21,1.21,0,0,1-.18.66,1.18,1.18,0,0,1-.57.44,2.76,2.76,0,0,1-1,.16,2.57,2.57,0,0,1-1.37-.28.85.85,0,0,1-.38-1.06.86.86,0,0,1,.24-.33,1.13,1.13,0,0,1,.54-.21.44.44,0,0,1-.22-.19.59.59,0,0,1-.09-.31.71.71,0,0,1,.13-.41.57.57,0,0,1,.41-.26,1.46,1.46,0,0,1-.68-.44,1.24,1.24,0,0,1-.29-.84,1.84,1.84,0,0,1,.13-.69,1.33,1.33,0,0,1,.37-.47,1.55,1.55,0,0,1,.54-.28,3,3,0,0,1,.68-.08H124Zm-1.12,3.87a.32.32,0,0,0-.24-.33,1.81,1.81,0,0,0-.51-.08,1.52,1.52,0,0,0-.62.1.35.35,0,0,0-.19.33c0,.3.26.45.79.45a1.11,1.11,0,0,0,.56-.12A.36.36,0,0,0,122.84,336.32Zm-.24-3.19a.66.66,0,0,0-.19-.49.55.55,0,0,0-.4-.18.52.52,0,0,0-.45.22.76.76,0,0,0-.16.46.64.64,0,0,0,.07.31.52.52,0,0,0,.51.32.56.56,0,0,0,.44-.19A.64.64,0,0,0,122.6,333.13Z" style="fill: #ededed" />
      <path d="M127.64,332.45H127a1.07,1.07,0,0,1,.33.79,1.1,1.1,0,0,1-.1.47,1.2,1.2,0,0,1-.26.4,1.35,1.35,0,0,1-.44.29,1.76,1.76,0,0,1-.59.14c-.29,0-.43.1-.43.26a.16.16,0,0,0,0,.13.52.52,0,0,0,.18.07l.4.05a2.69,2.69,0,0,1,.59.11,1.07,1.07,0,0,1,.51.33,1,1,0,0,1,.24.71,1.21,1.21,0,0,1-.18.66,1.14,1.14,0,0,1-.57.44,2.74,2.74,0,0,1-1,.16,2.59,2.59,0,0,1-1.38-.28.85.85,0,0,1-.38-1.06.86.86,0,0,1,.24-.33,1.13,1.13,0,0,1,.54-.21.44.44,0,0,1-.22-.19.59.59,0,0,1-.09-.31.79.79,0,0,1,.13-.41.57.57,0,0,1,.41-.26,1.46,1.46,0,0,1-.68-.44,1.24,1.24,0,0,1-.29-.84,1.67,1.67,0,0,1,.14-.69,1.21,1.21,0,0,1,.36-.47,1.51,1.51,0,0,1,.55-.28,2.8,2.8,0,0,1,.67-.08h1.92Zm-1.12,3.87a.32.32,0,0,0-.24-.33,1.75,1.75,0,0,0-.51-.08,1.52,1.52,0,0,0-.62.1.35.35,0,0,0-.19.33c0,.3.26.45.79.45a1.11,1.11,0,0,0,.56-.12A.36.36,0,0,0,126.52,336.32Zm-.24-3.19a.66.66,0,0,0-.18-.49.57.57,0,0,0-.41-.18.52.52,0,0,0-.45.22.76.76,0,0,0-.16.46.64.64,0,0,0,.07.31.59.59,0,0,0,.2.24.62.62,0,0,0,.31.08.56.56,0,0,0,.44-.19A.64.64,0,0,0,126.28,333.13Z" style="fill: #ededed" />
      <path d="M131.39,333.93h-2.46a1,1,0,0,0,.35.6,1,1,0,0,0,.64.23,3,3,0,0,0,1.39-.4v.87a3.72,3.72,0,0,1-.66.29,3.08,3.08,0,0,1-1,.13,2.14,2.14,0,0,1-1.1-.27,1.73,1.73,0,0,1-.68-.74,2.47,2.47,0,0,1-.22-1.07,2.31,2.31,0,0,1,.22-1,1.71,1.71,0,0,1,.68-.73,2.13,2.13,0,0,1,1.1-.26,1.88,1.88,0,0,1,.83.2,1.62,1.62,0,0,1,.65.69,2.54,2.54,0,0,1,.25,1.22Zm-1.16-.69a1,1,0,0,0-.16-.61.59.59,0,0,0-.48-.23.61.61,0,0,0-.5.23.93.93,0,0,0-.19.61Z" style="fill: #ededed" />
      <path d="M134.8,331.82l-.46,1.41a.81.81,0,0,0-.57-.3.59.59,0,0,0-.45.2,2,2,0,0,0-.37.74v1.71h-1.23v-4H133v1a2.07,2.07,0,0,1,.42-.7.92.92,0,0,1,1.06-.26A2.16,2.16,0,0,1,134.8,331.82Z" style="fill: #ededed" />
    </g>
    <g>
      <path d="M64.49,334a1.54,1.54,0,0,1-.86,1.45,2.19,2.19,0,0,1-.94.19,2.62,2.62,0,0,1-.37,0,2.92,2.92,0,0,1-.57-.12,3.88,3.88,0,0,1-.74-.29V333.9a7.73,7.73,0,0,0,.71.42,1.75,1.75,0,0,0,.75.17.62.62,0,0,0,.48-.14.41.41,0,0,0-.08-.63,2.14,2.14,0,0,0-.54-.31,4.49,4.49,0,0,1-.69-.41,1.82,1.82,0,0,1-.48-.55,1.57,1.57,0,0,1-.19-.79,1.74,1.74,0,0,1,.19-.79,1.37,1.37,0,0,1,.58-.56,1.86,1.86,0,0,1,.95-.22,2.81,2.81,0,0,1,.73.09,3,3,0,0,1,.56.2,2.36,2.36,0,0,1,.31.17v1.27a3.7,3.7,0,0,0-.66-.42,1.56,1.56,0,0,0-.76-.19.59.59,0,0,0-.39.11.4.4,0,0,0-.12.29.38.38,0,0,0,.12.28,2.2,2.2,0,0,0,.43.29,9.37,9.37,0,0,1,.88.52,1.85,1.85,0,0,1,.51.54A1.42,1.42,0,0,1,64.49,334Z" style="fill: #ededed" />
      <path d="M67.74,335.35a2.63,2.63,0,0,1-.53.21,2.48,2.48,0,0,1-.65.09c-.89,0-1.33-.49-1.33-1.48v-1.59h-.56v-.24l1.66-1.93h.14v1.2h1.18v1H66.47v1.28a3.53,3.53,0,0,0,0,.36.35.35,0,0,0,.14.22.53.53,0,0,0,.34.1,1.69,1.69,0,0,0,.77-.29Z" style="fill: #ededed" />
      <path d="M71.64,335.38c-.19.08-.35.15-.51.2a1.75,1.75,0,0,1-.55.07.61.61,0,0,1-.43-.12.74.74,0,0,1-.17-.3,1.9,1.9,0,0,1-.44.3,1.46,1.46,0,0,1-.64.12,1.14,1.14,0,0,1-.62-.15.87.87,0,0,1-.33-.38,1.27,1.27,0,0,1-.09-.47,1,1,0,0,1,.16-.6,1.31,1.31,0,0,1,.44-.4,5.5,5.5,0,0,1,.73-.31l.39-.15.2-.07.13-.07a.85.85,0,0,0-.1-.46.53.53,0,0,0-.45-.16,1.5,1.5,0,0,0-.75.2,2.86,2.86,0,0,0-.64.53v-1.08a2.18,2.18,0,0,1,.5-.31,2.81,2.81,0,0,1,.56-.18,4,4,0,0,1,.59,0,1.73,1.73,0,0,1,1.15.33,1.17,1.17,0,0,1,.38.92v1.53a.92.92,0,0,0,0,.33.14.14,0,0,0,.13.11.8.8,0,0,0,.32-.11Zm-1.73-.76v-.94a3.64,3.64,0,0,0-.64.37.53.53,0,0,0-.2.44.4.4,0,0,0,.1.3.33.33,0,0,0,.23.11.52.52,0,0,0,.26-.08A2.19,2.19,0,0,0,69.91,334.62Z" style="fill: #ededed" />
      <path d="M74.82,331.82l-.46,1.41a.81.81,0,0,0-.57-.3.59.59,0,0,0-.45.2,2,2,0,0,0-.37.74v1.71H71.74v-4H73v1a2.07,2.07,0,0,1,.42-.7.92.92,0,0,1,1.06-.26A2.16,2.16,0,0,1,74.82,331.82Z" style="fill: #ededed" />
      <path d="M77.69,335.35a2.9,2.9,0,0,1-.53.21,2.48,2.48,0,0,1-.65.09c-.89,0-1.33-.49-1.33-1.48v-1.59h-.56v-.24l1.66-1.93h.14v1.2H77.6v1H76.42v1.28a3.53,3.53,0,0,0,0,.36.35.35,0,0,0,.14.22.51.51,0,0,0,.34.1,1.69,1.69,0,0,0,.77-.29Z" style="fill: #ededed" />
      <path d="M81.18,330.09l-2.59,5.56h-.93l2.59-5.56Z" style="fill: #ededed" />
      <path d="M85.19,335.58H81.6v-5.41h3.53v1.08H83v1h2v1.09H83v1.15h2.15Z" style="fill: #ededed" />
      <path d="M89.4,335.58H88.17v-2.14a1.42,1.42,0,0,0-.1-.57.39.39,0,0,0-.41-.25.5.5,0,0,0-.27.07.74.74,0,0,0-.2.16,1.27,1.27,0,0,0-.16.2l-.12.2v2.33H85.67v-4h1.24v.57a1.73,1.73,0,0,1,.58-.5,1.45,1.45,0,0,1,.66-.14c.84,0,1.25.57,1.25,1.71Z" style="fill: #ededed" />
      <path d="M93.57,335.58H92.33v-.36a1.75,1.75,0,0,1-.42.31,1.22,1.22,0,0,1-.6.12,1.5,1.5,0,0,1-.75-.21,1.66,1.66,0,0,1-.61-.67,2.62,2.62,0,0,1-.23-1.15,2.88,2.88,0,0,1,.18-1,1.73,1.73,0,0,1,.56-.77,1.44,1.44,0,0,1,.93-.29,1.48,1.48,0,0,1,.56.08,1.57,1.57,0,0,1,.38.22v-1.67h1.24Zm-1.24-1.26V332.8l-.34-.2a.65.65,0,0,0-.29-.06.6.6,0,0,0-.49.28,1.44,1.44,0,0,0-.19.77,1.16,1.16,0,0,0,.21.77.59.59,0,0,0,.47.24.74.74,0,0,0,.36-.08A2.34,2.34,0,0,0,92.33,334.32Z" style="fill: #ededed" />
    </g>
    <g>
      <path d="M27.39,335.18a3.23,3.23,0,0,1-1.23.43,4.54,4.54,0,0,1-.65,0,3,3,0,0,1-1.11-.19,2.3,2.3,0,0,1-.86-.58A2.45,2.45,0,0,1,23,334a3.33,3.33,0,0,1-.18-1.12,3.28,3.28,0,0,1,.21-1.22,2.36,2.36,0,0,1,1.47-1.39,3.22,3.22,0,0,1,1-.17,5.1,5.1,0,0,1,1.84.41v1.44a5.09,5.09,0,0,0-.7-.41,1.73,1.73,0,0,0-.81-.17,1.61,1.61,0,0,0-.78.19,1.48,1.48,0,0,0-.58.53,1.46,1.46,0,0,0-.22.82,1.61,1.61,0,0,0,.19.75,1.47,1.47,0,0,0,.54.54,1.52,1.52,0,0,0,.77.2,2.39,2.39,0,0,0,.66-.09,3.25,3.25,0,0,0,.52-.22l.43-.27Z" style="fill: #ededed" />
      <path d="M29.18,335.58H27.94v-5.41h1.24Z" style="fill: #ededed" />
      <path d="M33.61,333.59a2.27,2.27,0,0,1-.23,1.06,1.69,1.69,0,0,1-.67.73,2.15,2.15,0,0,1-1.11.27,2.11,2.11,0,0,1-1.1-.27,1.69,1.69,0,0,1-.67-.73,2.6,2.6,0,0,1-.1-1.88,1.86,1.86,0,0,1,.38-.65,1.65,1.65,0,0,1,.63-.43,2.31,2.31,0,0,1,.86-.15,2.39,2.39,0,0,1,.88.15,1.76,1.76,0,0,1,.63.43,1.9,1.9,0,0,1,.37.65A2.39,2.39,0,0,1,33.61,333.59Zm-1.3,0a1.33,1.33,0,0,0-.18-.74.65.65,0,0,0-1.05,0,1.61,1.61,0,0,0,0,1.48.62.62,0,0,0,.52.28.59.59,0,0,0,.53-.28A1.31,1.31,0,0,0,32.31,333.59Z" style="fill: #ededed" />
      <path d="M37,335.4l-.33.12a3,3,0,0,1-.38.1,3.48,3.48,0,0,1-.47,0,1.91,1.91,0,0,1-1-.22,1.76,1.76,0,0,1-.62-.55,2.12,2.12,0,0,1-.29-.68,2.57,2.57,0,0,1-.09-.62,2.5,2.5,0,0,1,.09-.61,2,2,0,0,1,.29-.67,1.64,1.64,0,0,1,.61-.55,2.06,2.06,0,0,1,1-.21,2.68,2.68,0,0,1,.63.06,3.17,3.17,0,0,1,.49.17v1.1a3.13,3.13,0,0,0-.94-.22.83.83,0,0,0-.84.93,1.13,1.13,0,0,0,.12.54.81.81,0,0,0,.33.31.82.82,0,0,0,.39.11,1.83,1.83,0,0,0,.42-.07l.58-.18Z" style="fill: #ededed" />
      <path d="M41.45,335.58H39.88l-1.35-1.88v1.88H37.28v-5.41h1.25v3.17l1.23-1.73h1.49l-1.37,1.85Z" style="fill: #ededed" />
    </g>
    <path d="M13.87,325.55v9.88a5.69,5.69,0,0,0,5.67,5.67H217.19c7.49,0,13.56-6,13.56-14.63V265.88l-.06-6.23c-.29-8.38-6.24-15.07-13.54-15.07H27.43c-7.3,0-13.24,6.69-13.54,15.07l-.06,6.23v-.76l.07,61.35" style="fill: none;stroke: #000;stroke-miterlimit: 10" />
    <path d="M13.84,271.09V280l0,9a5.67,5.67,0,0,0,5.65,5.67H49l115.64-.41,31.53.41h29a5.67,5.67,0,0,0,5.64-5.67V270" style="fill: #ededed;stroke: #000;stroke-miterlimit: 10" />
    <g>
      <path d="M27.53,287.92a3,3,0,0,1-.6.28,3.6,3.6,0,0,1-.63.15,4.51,4.51,0,0,1-.65,0,3,3,0,0,1-1.11-.2,2.3,2.3,0,0,1-.86-.58,2.45,2.45,0,0,1-.54-.89,3.33,3.33,0,0,1-.18-1.12,3.28,3.28,0,0,1,.21-1.22A2.44,2.44,0,0,1,24.64,283a3.22,3.22,0,0,1,1-.16,4.89,4.89,0,0,1,1.84.41v1.43a5.09,5.09,0,0,0-.7-.41,1.86,1.86,0,0,0-.81-.17,1.61,1.61,0,0,0-.78.19,1.48,1.48,0,0,0-.58.53,1.59,1.59,0,0,0-.22.82,1.5,1.5,0,0,0,.2.75,1.31,1.31,0,0,0,.53.54,1.43,1.43,0,0,0,.77.2,2.39,2.39,0,0,0,.66-.09,3.25,3.25,0,0,0,.52-.22,4.28,4.28,0,0,0,.43-.27Z" />
      <path d="M29.32,288.32H28.08v-5.41h1.24Z" />
      <path d="M33.75,286.33a2.39,2.39,0,0,1-.22,1.06,1.8,1.8,0,0,1-.68.74,2.4,2.4,0,0,1-2.21,0,1.71,1.71,0,0,1-.67-.74,2.39,2.39,0,0,1-.23-1.06,2.3,2.3,0,0,1,.13-.81,1.69,1.69,0,0,1,.38-.65,1.67,1.67,0,0,1,.63-.44,2.6,2.6,0,0,1,1.74,0,1.76,1.76,0,0,1,.63.43,2.1,2.1,0,0,1,.38.65A2.66,2.66,0,0,1,33.75,286.33Zm-1.3,0a1.33,1.33,0,0,0-.18-.74.65.65,0,0,0-1.05,0,1.33,1.33,0,0,0-.18.74,1.23,1.23,0,0,0,.19.74.57.57,0,0,0,.52.28.59.59,0,0,0,.52-.27A1.34,1.34,0,0,0,32.45,286.33Z" />
      <path d="M37.11,288.14a1.61,1.61,0,0,1-.33.12,3,3,0,0,1-.38.1,3.43,3.43,0,0,1-.47,0,1.93,1.93,0,0,1-1-.23,1.56,1.56,0,0,1-.61-.55,1.94,1.94,0,0,1-.3-.68,2.4,2.4,0,0,1,0-1.23,2.31,2.31,0,0,1,.29-.67,1.61,1.61,0,0,1,.61-.54,2,2,0,0,1,1-.22,2.68,2.68,0,0,1,.63.06,3.69,3.69,0,0,1,.5.17v1.1a3.16,3.16,0,0,0-1-.21.88.88,0,0,0-.59.22.89.89,0,0,0-.25.7,1,1,0,0,0,.13.54.82.82,0,0,0,.32.32.94.94,0,0,0,.39.1,1.7,1.7,0,0,0,.42-.06l.58-.18Z" />
      <path d="M41.59,288.32H40l-1.34-1.88v1.88H37.42v-5.41h1.26v3.18l1.22-1.74h1.49L40,286.2Z" />
    </g>
    <g>
      <path d="M61.35,286.75a1.67,1.67,0,0,1-.23.88,1.48,1.48,0,0,1-.64.57,2.13,2.13,0,0,1-.94.2l-.36,0a2.92,2.92,0,0,1-.57-.12,4.26,4.26,0,0,1-.74-.28v-1.33a4.88,4.88,0,0,0,.71.42,1.72,1.72,0,0,0,.75.17.6.6,0,0,0,.47-.14.45.45,0,0,0,.11-.26.46.46,0,0,0-.18-.37,3.11,3.11,0,0,0-.54-.31,4.06,4.06,0,0,1-.69-.41,1.69,1.69,0,0,1-.48-.55,1.54,1.54,0,0,1-.19-.79,1.62,1.62,0,0,1,.19-.79,1.4,1.4,0,0,1,.57-.56,2,2,0,0,1,.95-.21,3.43,3.43,0,0,1,.74.08,3.23,3.23,0,0,1,.56.2,1.63,1.63,0,0,1,.3.17v1.27a3.3,3.3,0,0,0-.65-.42,1.6,1.6,0,0,0-.77-.19.54.54,0,0,0-.39.12.38.38,0,0,0-.12.29.36.36,0,0,0,.12.27,2.07,2.07,0,0,0,.43.29,6.74,6.74,0,0,1,.88.53,1.67,1.67,0,0,1,.52.54A1.38,1.38,0,0,1,61.35,286.75Z" />
      <path d="M64.6,288.09a3.23,3.23,0,0,1-.53.21,2.57,2.57,0,0,1-.65.1c-.89,0-1.34-.5-1.34-1.49v-1.59h-.56v-.24l1.66-1.92h.14v1.19h1.19v1H63.32v1.28a1.73,1.73,0,0,0,0,.36.39.39,0,0,0,.13.23.55.55,0,0,0,.34.09,1.76,1.76,0,0,0,.78-.28Z" />
      <path d="M68.49,288.13c-.18.08-.35.14-.5.19a1.77,1.77,0,0,1-.55.08.59.59,0,0,1-.43-.13.64.64,0,0,1-.17-.3,1.72,1.72,0,0,1-.45.31,1.41,1.41,0,0,1-.63.12,1.14,1.14,0,0,1-.62-.16.78.78,0,0,1-.33-.37,1.32,1.32,0,0,1-.1-.47,1,1,0,0,1,.17-.61,1.19,1.19,0,0,1,.44-.39,4.21,4.21,0,0,1,.72-.32l.39-.14.2-.08.14-.07a.94.94,0,0,0-.1-.45.5.5,0,0,0-.45-.17,1.42,1.42,0,0,0-.75.21,2.61,2.61,0,0,0-.64.52v-1.08a2.33,2.33,0,0,1,.5-.31,2.6,2.6,0,0,1,.56-.17,2.88,2.88,0,0,1,.59-.06,1.69,1.69,0,0,1,1.14.33,1.14,1.14,0,0,1,.39.92v1.54a1.27,1.27,0,0,0,0,.32c0,.07.07.11.14.11a.77.77,0,0,0,.31-.11Zm-1.72-.77v-.94a3.3,3.3,0,0,0-.64.37.52.52,0,0,0-.21.44.41.41,0,0,0,.11.3.3.3,0,0,0,.23.11.46.46,0,0,0,.25-.08A2.26,2.26,0,0,0,66.77,287.36Z" />
      <path d="M71.67,284.56,71.22,286a.81.81,0,0,0-.57-.3.59.59,0,0,0-.45.2,2,2,0,0,0-.37.74v1.71H68.59v-4h1.24v1a1.91,1.91,0,0,1,.41-.69.89.89,0,0,1,.7-.34.8.8,0,0,1,.36.07A3,3,0,0,1,71.67,284.56Z" />
      <path d="M74.55,288.09a3.23,3.23,0,0,1-.53.21,2.57,2.57,0,0,1-.65.1c-.89,0-1.34-.5-1.34-1.49v-1.59h-.56v-.24l1.66-1.92h.14v1.19h1.19v1H73.27v1.28a1.73,1.73,0,0,0,0,.36.39.39,0,0,0,.13.23.55.55,0,0,0,.34.09,1.76,1.76,0,0,0,.78-.28Z" />
      <path d="M78,282.84l-2.59,5.56h-.92l2.59-5.56Z" />
      <path d="M83.07,288.32H81.52l-.37-1a4.3,4.3,0,0,0-.37-.77.83.83,0,0,0-.32-.31,1,1,0,0,0-.41-.07h-.16v2.11H78.45v-5.41H80.9a1.53,1.53,0,0,1,1.51.94,1.93,1.93,0,0,1,.17.74,1.6,1.6,0,0,1-.14.69,1.33,1.33,0,0,1-.29.42l-.35.24a1.45,1.45,0,0,1,.38.36,5.21,5.21,0,0,1,.41.85Zm-1.95-3.7a.6.6,0,0,0-.22-.52,1.29,1.29,0,0,0-.71-.15h-.3v1.3h.31a1.36,1.36,0,0,0,.72-.13A.55.55,0,0,0,81.12,284.62Z" />
      <path d="M86.83,286.68H84.36a1,1,0,0,0,1,.82,3,3,0,0,0,1.39-.4V288a2.9,2.9,0,0,1-.66.29,3.06,3.06,0,0,1-1,.14,2.14,2.14,0,0,1-1.1-.28,1.73,1.73,0,0,1-.68-.74,2.42,2.42,0,0,1-.22-1.06,2.38,2.38,0,0,1,.22-1.05,1.71,1.71,0,0,1,.68-.73,2.24,2.24,0,0,1,1.1-.26,1.76,1.76,0,0,1,.83.21,1.59,1.59,0,0,1,.65.68,2.61,2.61,0,0,1,.26,1.23Zm-1.17-.7a1,1,0,0,0-.16-.61.56.56,0,0,0-.48-.23.61.61,0,0,0-.5.23.93.93,0,0,0-.19.61Z" />
      <path d="M89.89,287.16a1.2,1.2,0,0,1-.35.89,1.46,1.46,0,0,1-1.05.35,2.84,2.84,0,0,1-.69-.08,6.6,6.6,0,0,1-.66-.23v-1l.54.31a1.19,1.19,0,0,0,.51.1c.31,0,.46-.1.46-.29a.23.23,0,0,0-.07-.17.8.8,0,0,0-.23-.17,4.52,4.52,0,0,0-.45-.23,2,2,0,0,1-.58-.46,1.09,1.09,0,0,1-.24-.71,1.07,1.07,0,0,1,.16-.57,1.31,1.31,0,0,1,.48-.45,1.73,1.73,0,0,1,.78-.17,1.47,1.47,0,0,1,.28,0,2.57,2.57,0,0,1,.93.3v1l-.19-.12a.87.87,0,0,0-.2-.12,1.36,1.36,0,0,0-.29-.11,1.27,1.27,0,0,0-.34-.05.34.34,0,0,0-.29.1.25.25,0,0,0,0,.37,1.58,1.58,0,0,0,.37.2,3.23,3.23,0,0,1,.66.37,1.12,1.12,0,0,1,.35.42A1.25,1.25,0,0,1,89.89,287.16Z" />
      <path d="M93.87,286.68H91.4a1,1,0,0,0,.36.59,1,1,0,0,0,.63.23,3,3,0,0,0,1.39-.4V288a2.9,2.9,0,0,1-.66.29,3.06,3.06,0,0,1-1,.14,2.14,2.14,0,0,1-1.1-.28,1.73,1.73,0,0,1-.68-.74,2.42,2.42,0,0,1-.22-1.06,2.38,2.38,0,0,1,.22-1.05,1.71,1.71,0,0,1,.68-.73,2.24,2.24,0,0,1,1.1-.26,1.76,1.76,0,0,1,.83.21,1.59,1.59,0,0,1,.65.68,2.61,2.61,0,0,1,.26,1.23ZM92.7,286a1,1,0,0,0-.16-.61.56.56,0,0,0-.48-.23.61.61,0,0,0-.5.23.93.93,0,0,0-.19.61Z" />
      <path d="M97,288.09a2.9,2.9,0,0,1-.53.21,2.5,2.5,0,0,1-.65.1c-.89,0-1.33-.5-1.33-1.49v-1.59h-.56v-.24l1.66-1.92h.14v1.19h1.18v1H95.68v1.28a3.21,3.21,0,0,0,0,.36.4.4,0,0,0,.14.23.51.51,0,0,0,.34.09A1.77,1.77,0,0,0,97,287Z" />
    </g>
    <g>
      <path d="M118.57,286.75a1.58,1.58,0,0,1-.23.88,1.45,1.45,0,0,1-.63.57,2.2,2.2,0,0,1-.94.2l-.37,0a2.92,2.92,0,0,1-.57-.12,4.58,4.58,0,0,1-.74-.28v-1.33a4.88,4.88,0,0,0,.71.42,1.79,1.79,0,0,0,.75.17.62.62,0,0,0,.48-.14.45.45,0,0,0,.11-.26.47.47,0,0,0-.19-.37,2.5,2.5,0,0,0-.54-.31,4.49,4.49,0,0,1-.69-.41,1.82,1.82,0,0,1-.48-.55,1.54,1.54,0,0,1-.19-.79,1.74,1.74,0,0,1,.19-.79,1.43,1.43,0,0,1,.58-.56,2,2,0,0,1,1-.21,3.33,3.33,0,0,1,.73.08,3,3,0,0,1,.56.2,2.36,2.36,0,0,1,.31.17v1.27a3.7,3.7,0,0,0-.66-.42A1.53,1.53,0,0,0,117,284a.54.54,0,0,0-.39.12.38.38,0,0,0-.12.29.36.36,0,0,0,.12.27,1.82,1.82,0,0,0,.43.29,7.49,7.49,0,0,1,.88.53,1.63,1.63,0,0,1,.51.54A1.38,1.38,0,0,1,118.57,286.75Z" />
      <path d="M121.82,288.09a2.63,2.63,0,0,1-.53.21,2.5,2.5,0,0,1-.65.1c-.89,0-1.33-.5-1.33-1.49v-1.59h-.56v-.24l1.66-1.92h.14v1.19h1.18v1h-1.18v1.28a3.21,3.21,0,0,0,0,.36.4.4,0,0,0,.14.23.53.53,0,0,0,.34.09,1.77,1.77,0,0,0,.77-.28Z" />
      <path d="M126,286.33a2.39,2.39,0,0,1-.23,1.06,1.67,1.67,0,0,1-.68.74,2.38,2.38,0,0,1-2.2,0,1.73,1.73,0,0,1-.68-.74,2.39,2.39,0,0,1-.22-1.06,2.55,2.55,0,0,1,.12-.81,1.83,1.83,0,0,1,.38-.65,1.79,1.79,0,0,1,.64-.44,2.28,2.28,0,0,1,.86-.15,2.42,2.42,0,0,1,.88.15,1.76,1.76,0,0,1,.63.43,1.9,1.9,0,0,1,.37.65A2.39,2.39,0,0,1,126,286.33Zm-1.3,0a1.33,1.33,0,0,0-.18-.74.65.65,0,0,0-1,0,1.33,1.33,0,0,0-.18.74,1.31,1.31,0,0,0,.18.74.58.58,0,0,0,.52.28.6.6,0,0,0,.53-.27A1.34,1.34,0,0,0,124.65,286.33Z" />
      <path d="M130.15,286.31a2.86,2.86,0,0,1-.1.77,1.94,1.94,0,0,1-.3.67,1.41,1.41,0,0,1-.53.47,1.47,1.47,0,0,1-.74.18,1.32,1.32,0,0,1-.54-.09,1.44,1.44,0,0,1-.4-.22v2H126.3v-5.78h1.24v.36a1.53,1.53,0,0,1,.41-.31,1.32,1.32,0,0,1,.61-.12,1.47,1.47,0,0,1,.75.21,1.66,1.66,0,0,1,.61.67A2.48,2.48,0,0,1,130.15,286.31Zm-1.3,0a1.37,1.37,0,0,0-.1-.58.68.68,0,0,0-.26-.33.63.63,0,0,0-.32-.1.74.74,0,0,0-.36.08,1.35,1.35,0,0,0-.27.2v1.52l.14.09.15.09.16.05a.48.48,0,0,0,.18,0,.62.62,0,0,0,.49-.28A1.35,1.35,0,0,0,128.85,286.34Z" />
    </g>
    <g>
      <path d="M206.06,288.32h-1.54l-.38-1a4.3,4.3,0,0,0-.37-.77.83.83,0,0,0-.32-.31.93.93,0,0,0-.4-.07h-.17v2.11h-1.43v-5.41h2.44a1.61,1.61,0,0,1,1,.27,1.75,1.75,0,0,1,.55.67,1.9,1.9,0,0,1,.16.74,1.47,1.47,0,0,1-.14.69,1.33,1.33,0,0,1-.29.42,3.53,3.53,0,0,1-.35.24,1.31,1.31,0,0,1,.38.36,4.48,4.48,0,0,1,.41.85Zm-1.95-3.7a.57.57,0,0,0-.22-.52,1.25,1.25,0,0,0-.7-.15h-.31v1.3h.31a1.36,1.36,0,0,0,.72-.13A.55.55,0,0,0,204.11,284.62Z" />
      <path d="M209.82,286.68h-2.47a1,1,0,0,0,.36.59,1,1,0,0,0,.64.23,3,3,0,0,0,1.38-.4V288a2.9,2.9,0,0,1-.66.29,3.06,3.06,0,0,1-1,.14,2.08,2.08,0,0,1-1.09-.28,1.67,1.67,0,0,1-.68-.74,2.43,2.43,0,0,1-.23-1.06,2.38,2.38,0,0,1,.23-1.05,1.65,1.65,0,0,1,.68-.73,2.17,2.17,0,0,1,1.09-.26,1.76,1.76,0,0,1,.83.21,1.59,1.59,0,0,1,.65.68,2.61,2.61,0,0,1,.26,1.23Zm-1.16-.7a1,1,0,0,0-.17-.61.56.56,0,0,0-.48-.23.63.63,0,0,0-.5.23.93.93,0,0,0-.19.61Z" />
      <path d="M214,286.31a3.32,3.32,0,0,1-.1.77,2.16,2.16,0,0,1-.31.67,1.38,1.38,0,0,1-.52.47,1.54,1.54,0,0,1-.75.18,1.32,1.32,0,0,1-.54-.09,1.54,1.54,0,0,1-.39-.22v2h-1.24v-5.78h1.24v.36a1.53,1.53,0,0,1,.41-.31,1.29,1.29,0,0,1,.61-.12,1.52,1.52,0,0,1,.75.21,1.71,1.71,0,0,1,.6.67A2.48,2.48,0,0,1,214,286.31Zm-1.3,0a1.55,1.55,0,0,0-.1-.58.81.81,0,0,0-.26-.33.7.7,0,0,0-.33-.1.74.74,0,0,0-.36.08,1.64,1.64,0,0,0-.26.2v1.52l.13.09.15.09.16.05.18,0a.59.59,0,0,0,.49-.28A1.35,1.35,0,0,0,212.69,286.34Z" />
      <path d="M217.94,286.68h-2.47a1,1,0,0,0,.36.59,1,1,0,0,0,.64.23,3,3,0,0,0,1.38-.4V288a2.9,2.9,0,0,1-.66.29,3.06,3.06,0,0,1-1,.14,2.08,2.08,0,0,1-1.09-.28,1.67,1.67,0,0,1-.68-.74,2.43,2.43,0,0,1-.23-1.06,2.38,2.38,0,0,1,.23-1.05,1.65,1.65,0,0,1,.68-.73,2.17,2.17,0,0,1,1.09-.26,1.76,1.76,0,0,1,.83.21,1.59,1.59,0,0,1,.65.68,2.61,2.61,0,0,1,.26,1.23Zm-1.16-.7a1,1,0,0,0-.17-.61.56.56,0,0,0-.48-.23.63.63,0,0,0-.5.23.93.93,0,0,0-.19.61Z" />
      <path d="M221.89,288.13a4.55,4.55,0,0,1-.5.19,1.77,1.77,0,0,1-.55.08.61.61,0,0,1-.43-.13.74.74,0,0,1-.17-.3,1.67,1.67,0,0,1-.44.31,1.49,1.49,0,0,1-.64.12,1.14,1.14,0,0,1-.62-.16.78.78,0,0,1-.33-.37,1.31,1.31,0,0,1-.09-.47,1,1,0,0,1,.16-.61,1.28,1.28,0,0,1,.44-.39,4,4,0,0,1,.73-.32l.39-.14.2-.08.13-.07a.83.83,0,0,0-.1-.45.5.5,0,0,0-.45-.17,1.42,1.42,0,0,0-.75.21,2.81,2.81,0,0,0-.64.52v-1.08a2.6,2.6,0,0,1,.5-.31,2.78,2.78,0,0,1,.56-.17,3,3,0,0,1,.59-.06,1.73,1.73,0,0,1,1.15.33,1.17,1.17,0,0,1,.38.92v1.54a.89.89,0,0,0,0,.32.13.13,0,0,0,.13.11.72.72,0,0,0,.31-.11Zm-1.72-.77v-.94a3.3,3.3,0,0,0-.64.37.51.51,0,0,0-.2.44.4.4,0,0,0,.1.3.31.31,0,0,0,.23.11.52.52,0,0,0,.26-.08Z" />
      <path d="M224.76,288.09a2.9,2.9,0,0,1-.53.21,2.57,2.57,0,0,1-.65.1c-.89,0-1.33-.5-1.33-1.49v-1.59h-.56v-.24l1.66-1.92h.14v1.19h1.18v1h-1.18v1.28a1.84,1.84,0,0,0,0,.36.4.4,0,0,0,.14.23.51.51,0,0,0,.34.09,1.77,1.77,0,0,0,.77-.28Z" />
    </g>
    <g>
      <path d="M164.62,287.94l-.26.11-.21.08-.29.09a5.13,5.13,0,0,1-.66.13,4.83,4.83,0,0,1-.68,0,3,3,0,0,1-1.34-.31,2.33,2.33,0,0,1-1-.93,3.09,3.09,0,0,1-.37-1.55,3.87,3.87,0,0,1,.19-1.17,2,2,0,0,1,.59-.92,2.52,2.52,0,0,1,.65-.43,2.42,2.42,0,0,1,.65-.2,3.78,3.78,0,0,1,.7-.05,4.36,4.36,0,0,1,1,.1c.27.08.57.17.89.29v1.28a3.4,3.4,0,0,0-.68-.36,2.35,2.35,0,0,0-.9-.15,1.67,1.67,0,0,0-1,.27,1.44,1.44,0,0,0-.52.64,2.13,2.13,0,0,0-.14.72,1.63,1.63,0,0,0,.17.76,1.32,1.32,0,0,0,.5.55,1.57,1.57,0,0,0,.83.21,2.52,2.52,0,0,0,.58-.08v-.64h-.65v-1.09h1.9Z" />
      <path d="M168.9,288.13c-.18.08-.35.14-.5.19a1.77,1.77,0,0,1-.55.08.59.59,0,0,1-.43-.13.64.64,0,0,1-.17-.3,1.57,1.57,0,0,1-.45.31,1.43,1.43,0,0,1-.64.12,1.1,1.1,0,0,1-.61-.16.78.78,0,0,1-.33-.37,1.32,1.32,0,0,1-.1-.47,1,1,0,0,1,.17-.61,1.19,1.19,0,0,1,.44-.39,4.21,4.21,0,0,1,.72-.32l.39-.14.2-.08.14-.07a.94.94,0,0,0-.1-.45.5.5,0,0,0-.45-.17,1.42,1.42,0,0,0-.75.21,2.61,2.61,0,0,0-.64.52v-1.08a2.33,2.33,0,0,1,.5-.31,2.6,2.6,0,0,1,.56-.17,2.88,2.88,0,0,1,.59-.06,1.69,1.69,0,0,1,1.14.33,1.14,1.14,0,0,1,.39.92v1.54a1.27,1.27,0,0,0,0,.32c0,.07.07.11.13.11a.76.76,0,0,0,.32-.11Zm-1.72-.77v-.94a3.3,3.3,0,0,0-.64.37.52.52,0,0,0-.21.44.41.41,0,0,0,.11.3.3.3,0,0,0,.23.11.49.49,0,0,0,.25-.08A2.26,2.26,0,0,0,167.18,287.36Z" />
      <path d="M171.77,288.09a3.23,3.23,0,0,1-.53.21,2.57,2.57,0,0,1-.65.1c-.89,0-1.34-.5-1.34-1.49v-1.59h-.56v-.24l1.66-1.92h.14v1.19h1.19v1h-1.19v1.28a1.73,1.73,0,0,0,0,.36.39.39,0,0,0,.13.23.55.55,0,0,0,.34.09,1.76,1.76,0,0,0,.78-.28Z" />
      <path d="M175.62,286.68h-2.47a1,1,0,0,0,.36.59,1,1,0,0,0,.64.23,3,3,0,0,0,1.38-.4V288a2.9,2.9,0,0,1-.66.29,3,3,0,0,1-1,.14,2.11,2.11,0,0,1-1.1-.28,1.67,1.67,0,0,1-.68-.74,2.43,2.43,0,0,1-.23-1.06,2.38,2.38,0,0,1,.23-1.05,1.65,1.65,0,0,1,.68-.73,2.21,2.21,0,0,1,1.1-.26,1.72,1.72,0,0,1,.82.21,1.59,1.59,0,0,1,.65.68,2.61,2.61,0,0,1,.26,1.23Zm-1.16-.7a1,1,0,0,0-.17-.61.56.56,0,0,0-.48-.23.63.63,0,0,0-.5.23.93.93,0,0,0-.19.61Z" />
    </g>
    <g>
      <path d="M108.61,356.92l-.34.15-.27.1-.38.13a6.51,6.51,0,0,1-.83.18,6.19,6.19,0,0,1-.88.06,3.73,3.73,0,0,1-1.72-.41,3.08,3.08,0,0,1-1.26-1.29,4.37,4.37,0,0,1-.47-2.14,5.49,5.49,0,0,1,.24-1.6,2.83,2.83,0,0,1,.75-1.26,3.27,3.27,0,0,1,.84-.6,2.77,2.77,0,0,1,.83-.27,4.87,4.87,0,0,1,.89-.07,5.42,5.42,0,0,1,1.33.14c.35.1.73.23,1.15.39v1.77a4.53,4.53,0,0,0-.88-.5,3,3,0,0,0-1.15-.2,2,2,0,0,0-1.28.37,2,2,0,0,0-.66.88,2.75,2.75,0,0,0-.19,1,2.43,2.43,0,0,0,.22,1,1.77,1.77,0,0,0,.65.76,1.88,1.88,0,0,0,1,.29,2.55,2.55,0,0,0,.75-.12v-.87h-.83v-1.5h2.44Z" />
      <path d="M116.76,357.44h-1.88l-.5-1.51h-2.65l-.51,1.51h-1.89L112,350h2Zm-2.81-2.8-.89-2.72-.9,2.72Z" />
      <path d="M123.42,351.81h-2.23v5.63h-1.84v-5.63h-2.24V350h6.31Z" />
      <path d="M129.1,357.44h-4.6V350H129v1.49h-2.69v1.37h2.56v1.49h-2.56v1.59h2.76Z" />
      <path d="M136.87,355.37a2.48,2.48,0,0,1-.18,1,2.07,2.07,0,0,1-.5.68,2,2,0,0,1-.66.37,2.12,2.12,0,0,1-.68.12,3.58,3.58,0,0,1-1-.16,3.91,3.91,0,0,1-.94-.38v-1.67a3.72,3.72,0,0,0,.67.53,1.43,1.43,0,0,0,.73.21,1,1,0,0,0,.49-.13.83.83,0,0,0,.29-.33.86.86,0,0,0,.1-.41,1.07,1.07,0,0,0-.12-.51,1,1,0,0,0-.36-.35,1.05,1.05,0,0,0-.54-.13H134V353h.23a.88.88,0,0,0,.51-.14.87.87,0,0,0,.29-.35.92.92,0,0,0,.09-.38,1,1,0,0,0-.21-.6.71.71,0,0,0-.56-.26,1.67,1.67,0,0,0-.63.14,2.3,2.3,0,0,0-.61.38v-1.43a6,6,0,0,1,.81-.35,2.82,2.82,0,0,1,.85-.12,1.92,1.92,0,0,1,1.84,1.12,2.12,2.12,0,0,1,.21.87,1.92,1.92,0,0,1-.12.66,2.27,2.27,0,0,1-.31.6,1.86,1.86,0,0,1-.39.4,2.33,2.33,0,0,1,.64.65A2.07,2.07,0,0,1,136.87,355.37Z" />
      <path d="M142.61,357.44H138v-.14l.59-.76c.21-.29.49-.68.82-1.17.16-.21.31-.43.44-.64a4.93,4.93,0,0,0,.35-.61,3.94,3.94,0,0,0,.25-.66,2.64,2.64,0,0,0,.1-.74,1.34,1.34,0,0,0-.24-.83.75.75,0,0,0-.63-.32,2,2,0,0,0-1.49.94v-1.75l.43-.33a2.37,2.37,0,0,1,.39-.24,2.45,2.45,0,0,1,.51-.21,2.27,2.27,0,0,1,.65-.08,2,2,0,0,1,1,.27,2,2,0,0,1,.72.8,2.79,2.79,0,0,1,.26,1.23,3.46,3.46,0,0,1-.12.92,4.46,4.46,0,0,1-.24.69l-.34.65c-.26.46-.53.9-.81,1.31h2Z" />
    </g>
    <g id="pips_-_fewest" data-name="pips - fewest">
      <g style="clip-path: url(#clip-path)">
        <g style="clip-path: url(#clip-path-2)">
          <path d="M70,35.68l.71-1.24A13.86,13.86,0,0,0,65,32.9v1.43A12.39,12.39,0,0,1,70,35.68" />
          <path d="M74.83,40l1.24-.71a14,14,0,0,0-4.23-4.22l-.71,1.23a12.55,12.55,0,0,1,3.7,3.7" />
          <path d="M57.56,36.31l-.71-1.23a14,14,0,0,0-4.23,4.22l1.24.71a12.55,12.55,0,0,1,3.7-3.7" />
          <path d="M76.82,46.17h1.43A13.83,13.83,0,0,0,76.7,40.4l-1.23.71a12.47,12.47,0,0,1,1.35,5.06" />
          <path d="M63.71,34.33V32.9a13.86,13.86,0,0,0-5.77,1.54l.71,1.24a12.39,12.39,0,0,1,5.06-1.35" />
          <path d="M53.86,53.59l-1.24.71a14,14,0,0,0,4.23,4.22l.71-1.23a12.55,12.55,0,0,1-3.7-3.7" />
          <path d="M71.13,57.29l.71,1.23a14,14,0,0,0,4.23-4.22l-1.24-.71a12.55,12.55,0,0,1-3.7,3.7" />
          <path d="M76.82,47.43a12.47,12.47,0,0,1-1.35,5.06l1.23.71a13.83,13.83,0,0,0,1.55-5.77Z" />
          <path d="M51.87,47.43H50.44A13.83,13.83,0,0,0,52,53.2l1.23-.71a12.47,12.47,0,0,1-1.35-5.06" />
          <path d="M53.22,41.11,52,40.4a13.83,13.83,0,0,0-1.55,5.77h1.43a12.47,12.47,0,0,1,1.35-5.06" />
        </g>
      </g>
    </g>
    <g>
      <path d="M55.67,62.78H53.49V67.9h-1.8V62.78H49.51V61.13h6.16Z" />
      <path d="M60.6,65.84H57.52a1.21,1.21,0,0,0,.44.74,1.23,1.23,0,0,0,.8.29,3.77,3.77,0,0,0,1.72-.5v1.09a4.56,4.56,0,0,1-.82.36,3.83,3.83,0,0,1-1.23.17,2.56,2.56,0,0,1-1.37-.35,2,2,0,0,1-.85-.92,3,3,0,0,1-.28-1.33,2.9,2.9,0,0,1,.28-1.31,2,2,0,0,1,.85-.91,2.65,2.65,0,0,1,1.37-.33,2.22,2.22,0,0,1,1,.26,2.07,2.07,0,0,1,.82.86,3.22,3.22,0,0,1,.32,1.53ZM59.14,65a1.37,1.37,0,0,0-.2-.77.7.7,0,0,0-.6-.28.79.79,0,0,0-.63.29,1.15,1.15,0,0,0-.24.76Z" />
      <path d="M68.8,67.9H67.25V65.25a1.63,1.63,0,0,0-.15-.79.5.5,0,0,0-.48-.26.68.68,0,0,0-.53.22,2.9,2.9,0,0,0-.41.56V67.9H64.13V65.25a1.78,1.78,0,0,0-.14-.78.53.53,0,0,0-.51-.27.55.55,0,0,0-.31.08.92.92,0,0,0-.24.17,2.22,2.22,0,0,0-.21.29c-.09.13-.14.21-.17.24V67.9H61v-5h1.54v.71a2.44,2.44,0,0,1,.71-.61,1.72,1.72,0,0,1,.83-.19,2,2,0,0,1,.43,0,1.34,1.34,0,0,1,.4.16,1.1,1.1,0,0,1,.35.3,1.58,1.58,0,0,1,.26.46,2.91,2.91,0,0,1,.77-.73,1.79,1.79,0,0,1,.93-.24,1.54,1.54,0,0,1,.88.24,1.41,1.41,0,0,1,.52.69,3.22,3.22,0,0,1,.17,1.1Z" />
      <path d="M74.17,65.38a3.83,3.83,0,0,1-.12,1,2.92,2.92,0,0,1-.38.84,1.88,1.88,0,0,1-.66.59,2,2,0,0,1-.94.22,1.73,1.73,0,0,1-.67-.11,2.15,2.15,0,0,1-.49-.27v2.55H69.36V62.93h1.55v.45a2.16,2.16,0,0,1,.51-.39,1.63,1.63,0,0,1,.76-.15,1.85,1.85,0,0,1,.94.27,2,2,0,0,1,.75.84A3,3,0,0,1,74.17,65.38Zm-1.63,0a1.89,1.89,0,0,0-.12-.73,1,1,0,0,0-.32-.41.81.81,0,0,0-.41-.12.83.83,0,0,0-.45.1,1.59,1.59,0,0,0-.33.25v1.9l.17.11.18.1.2.08a.85.85,0,0,0,.23,0,.75.75,0,0,0,.61-.35A1.71,1.71,0,0,0,72.54,65.42Z" />
      <path d="M79.45,65.41a3,3,0,0,1-.28,1.32,2.1,2.1,0,0,1-.85.92,2.71,2.71,0,0,1-1.38.34,2.65,2.65,0,0,1-1.37-.34,2.1,2.1,0,0,1-.85-.92,3,3,0,0,1-.28-1.32,3.22,3.22,0,0,1,.15-1,2.5,2.5,0,0,1,.48-.82,2.31,2.31,0,0,1,.79-.54,2.78,2.78,0,0,1,1.08-.19A2.88,2.88,0,0,1,78,63a2.1,2.1,0,0,1,.78.54,2.19,2.19,0,0,1,.47.81A3.05,3.05,0,0,1,79.45,65.41Zm-1.63,0a1.66,1.66,0,0,0-.22-.93.82.82,0,0,0-1.31,0,1.66,1.66,0,0,0-.22.93,1.69,1.69,0,0,0,.22.93.8.8,0,0,0,1.31,0A1.69,1.69,0,0,0,77.82,65.41Z" />
    </g>
    <g id="pips_-_fewest-2" data-name="pips - fewest">
      <g style="clip-path: url(#clip-path-3)">
        <g style="clip-path: url(#clip-path-4)">
          <path d="M108.24,35.68l.71-1.24a13.82,13.82,0,0,0-5.77-1.54v1.43a12.31,12.31,0,0,1,5.06,1.35" />
          <path d="M113,40l1.23-.71a13.92,13.92,0,0,0-4.22-4.22l-.71,1.23A12.55,12.55,0,0,1,113,40" />
          <path d="M95.76,36.31l-.71-1.23a13.92,13.92,0,0,0-4.22,4.22l1.23.71a12.55,12.55,0,0,1,3.7-3.7" />
          <path d="M115,46.17h1.43a13.82,13.82,0,0,0-1.54-5.77l-1.24.71A12.31,12.31,0,0,1,115,46.17" />
          <path d="M101.92,34.33V32.9a13.82,13.82,0,0,0-5.77,1.54l.71,1.24a12.31,12.31,0,0,1,5.06-1.35" />
          <path d="M92.06,53.59l-1.23.71a13.92,13.92,0,0,0,4.22,4.22l.71-1.23a12.55,12.55,0,0,1-3.7-3.7" />
          <path d="M109.34,57.29l.71,1.23a13.92,13.92,0,0,0,4.22-4.22L113,53.59a12.55,12.55,0,0,1-3.7,3.7" />
          <path d="M115,47.43a12.31,12.31,0,0,1-1.35,5.06l1.24.71a13.82,13.82,0,0,0,1.54-5.77Z" />
          <path d="M90.08,47.43H88.65a13.82,13.82,0,0,0,1.54,5.77l1.24-.71a12.31,12.31,0,0,1-1.35-5.06" />
          <path d="M91.43,41.11l-1.24-.71a13.82,13.82,0,0,0-1.54,5.77h1.43a12.31,12.31,0,0,1,1.35-5.06" />
        </g>
      </g>
    </g>
    <g>
      <path d="M97.6,64.64a3.62,3.62,0,0,1-.33,1.67,3.44,3.44,0,0,1-.78,1,2.63,2.63,0,0,1-1.8.57H91.48V61.13H94a5.24,5.24,0,0,1,1,.07,3.61,3.61,0,0,1,.72.18,2.72,2.72,0,0,1,.54.27,3.3,3.3,0,0,1,.4.32,3,3,0,0,1,.53.67,3.4,3.4,0,0,1,.37.89A4.33,4.33,0,0,1,97.6,64.64Zm-1.82-.09a2.57,2.57,0,0,0-.28-1.29,1.46,1.46,0,0,0-.67-.62,2.17,2.17,0,0,0-.79-.15h-.76v4H94a2,2,0,0,0,1.22-.38A1.9,1.9,0,0,0,95.78,64.55Z" />
      <path d="M102.59,65.84H99.51a1.27,1.27,0,0,0,1.24,1,3.8,3.8,0,0,0,1.73-.5v1.09a4.9,4.9,0,0,1-.82.36,3.92,3.92,0,0,1-1.23.17,2.62,2.62,0,0,1-1.38-.35,2.1,2.1,0,0,1-.85-.92,3.16,3.16,0,0,1-.28-1.33,3,3,0,0,1,.28-1.31,2.08,2.08,0,0,1,.85-.91,2.71,2.71,0,0,1,1.38-.33,2.28,2.28,0,0,1,1,.26,2,2,0,0,1,.81.86,3.1,3.1,0,0,1,.32,1.53ZM101.14,65a1.3,1.3,0,0,0-.21-.77.7.7,0,0,0-.6-.28.77.77,0,0,0-.62.29,1.15,1.15,0,0,0-.24.76Z" />
      <path d="M104.63,67.9h-1.55V61.13h1.55Z" />
      <path d="M109.88,67.65a6.53,6.53,0,0,1-.63.24,2,2,0,0,1-.69.1.7.7,0,0,1-.53-.16.91.91,0,0,1-.22-.37,2.34,2.34,0,0,1-.55.38,1.81,1.81,0,0,1-.8.15,1.44,1.44,0,0,1-.77-.19,1,1,0,0,1-.41-.48,1.47,1.47,0,0,1-.12-.58,1.36,1.36,0,0,1,.2-.76,1.53,1.53,0,0,1,.55-.49,6.37,6.37,0,0,1,.91-.4l.49-.18.25-.09.17-.09a1.14,1.14,0,0,0-.13-.57A.64.64,0,0,0,107,64a1.81,1.81,0,0,0-.94.25,3.31,3.31,0,0,0-.8.66V63.52a2.41,2.41,0,0,1,.63-.38,3.19,3.19,0,0,1,.7-.23,3.64,3.64,0,0,1,.74-.07,2.12,2.12,0,0,1,1.43.42,1.47,1.47,0,0,1,.47,1.15v1.92a1.3,1.3,0,0,0,0,.4c0,.09.08.14.16.14a1,1,0,0,0,.4-.14Zm-2.15-1V65.52a3.9,3.9,0,0,0-.81.46.66.66,0,0,0-.25.55.52.52,0,0,0,.13.38.37.37,0,0,0,.29.13.57.57,0,0,0,.32-.1Z" />
      <path d="M114.7,62.93l-3,7.23h-1.57l1.21-2.91-1.73-4.32h1.66l.89,2.47,1-2.47Z" />
    </g>
    <g id="pips_-_fewest-3" data-name="pips - fewest">
      <g style="clip-path: url(#clip-path-5)">
        <g style="clip-path: url(#clip-path-6)">
          <path d="M146.45,35.68l.71-1.24a13.86,13.86,0,0,0-5.77-1.54v1.43a12.35,12.35,0,0,1,5.06,1.35" />
          <path d="M151.25,40l1.23-.71a14,14,0,0,0-4.23-4.22l-.71,1.23a12.58,12.58,0,0,1,3.71,3.7" />
          <path d="M134,36.31l-.71-1.23A14,14,0,0,0,129,39.3l1.24.71a12.55,12.55,0,0,1,3.7-3.7" />
          <path d="M153.23,46.17h1.43a13.68,13.68,0,0,0-1.55-5.77l-1.23.71a12.31,12.31,0,0,1,1.35,5.06" />
          <path d="M140.12,34.33V32.9a13.86,13.86,0,0,0-5.77,1.54l.72,1.24a12.31,12.31,0,0,1,5.05-1.35" />
          <path d="M130.27,53.59,129,54.3a14,14,0,0,0,4.23,4.22l.71-1.23a12.55,12.55,0,0,1-3.7-3.7" />
          <path d="M147.54,57.29l.71,1.23a14,14,0,0,0,4.23-4.22l-1.23-.71a12.7,12.7,0,0,1-3.71,3.7" />
          <path d="M153.23,47.43a12.31,12.31,0,0,1-1.35,5.06l1.23.71a13.68,13.68,0,0,0,1.55-5.77Z" />
          <path d="M128.28,47.43h-1.43a14,14,0,0,0,1.55,5.77l1.23-.71a12.47,12.47,0,0,1-1.35-5.06" />
          <path d="M129.63,41.11l-1.23-.71a14,14,0,0,0-1.55,5.77h1.43a12.47,12.47,0,0,1,1.35-5.06" />
        </g>
      </g>
    </g>
    <g>
      <path d="M137.08,67.42l-.34.14-.26.09-.37.12a7.73,7.73,0,0,1-.81.16,5.9,5.9,0,0,1-.86.06,3.83,3.83,0,0,1-1.68-.38,2.88,2.88,0,0,1-1.23-1.17,3.84,3.84,0,0,1-.46-1.94,4.6,4.6,0,0,1,.24-1.46A2.53,2.53,0,0,1,132,61.9a3.37,3.37,0,0,1,.82-.55,3.15,3.15,0,0,1,.81-.25,5.75,5.75,0,0,1,.87-.06,5.26,5.26,0,0,1,1.3.13c.34.09.71.21,1.12.36v1.6a4.69,4.69,0,0,0-.86-.45A3,3,0,0,0,135,62.5a2.13,2.13,0,0,0-1.25.33,1.9,1.9,0,0,0-.65.8,2.49,2.49,0,0,0-.18.9,2.09,2.09,0,0,0,.21.94,1.72,1.72,0,0,0,.64.7,1.94,1.94,0,0,0,1,.26,3.35,3.35,0,0,0,.73-.1v-.8h-.81V64.17h2.38Z" />
      <path d="M142.42,67.65a5.67,5.67,0,0,1-.63.24,2,2,0,0,1-.69.1.7.7,0,0,1-.53-.16.91.91,0,0,1-.22-.37,2.34,2.34,0,0,1-.55.38,1.81,1.81,0,0,1-.8.15,1.44,1.44,0,0,1-.77-.19,1,1,0,0,1-.41-.48,1.47,1.47,0,0,1-.12-.58,1.36,1.36,0,0,1,.2-.76,1.53,1.53,0,0,1,.55-.49,6.37,6.37,0,0,1,.91-.4l.49-.18.25-.09.17-.09a1.14,1.14,0,0,0-.13-.57.64.64,0,0,0-.56-.2,1.81,1.81,0,0,0-.94.25,3.31,3.31,0,0,0-.8.66V63.52a2.41,2.41,0,0,1,.63-.38,3.19,3.19,0,0,1,.7-.23,3.64,3.64,0,0,1,.74-.07,2.12,2.12,0,0,1,1.43.42,1.44,1.44,0,0,1,.47,1.15v1.92a1.3,1.3,0,0,0,.05.4.18.18,0,0,0,.17.14,1,1,0,0,0,.39-.14Zm-2.15-1V65.52a3.9,3.9,0,0,0-.81.46.66.66,0,0,0-.25.55.52.52,0,0,0,.13.38.37.37,0,0,0,.29.13.57.57,0,0,0,.32-.1Z" />
      <path d="M146,67.61a3.17,3.17,0,0,1-.66.25,2.63,2.63,0,0,1-.81.13c-1.11,0-1.67-.62-1.67-1.86v-2h-.7v-.31l2.07-2.4h.18v1.49h1.48v1.22h-1.48v1.59a2.64,2.64,0,0,0,0,.45.51.51,0,0,0,.17.29.68.68,0,0,0,.42.11,2.12,2.12,0,0,0,1-.35Z" />
      <path d="M150.82,65.84h-3.08a1.21,1.21,0,0,0,.44.74,1.23,1.23,0,0,0,.8.29,3.73,3.73,0,0,0,1.72-.5v1.09a4.56,4.56,0,0,1-.82.36,3.83,3.83,0,0,1-1.23.17,2.56,2.56,0,0,1-1.37-.35,2.1,2.1,0,0,1-.85-.92,3,3,0,0,1-.28-1.33,2.9,2.9,0,0,1,.28-1.31,2.08,2.08,0,0,1,.85-.91,2.65,2.65,0,0,1,1.37-.33,2.22,2.22,0,0,1,1,.26,2.07,2.07,0,0,1,.82.86,3.22,3.22,0,0,1,.32,1.53ZM149.37,65a1.37,1.37,0,0,0-.21-.77.7.7,0,0,0-.6-.28.79.79,0,0,0-.63.29,1.15,1.15,0,0,0-.24.76Z" />
    </g>
    <g style="clip-path: url(#clip-path-7)">
      <g style="clip-path: url(#clip-path-8)">
        <path d="M184.65,35.68l.71-1.24a13.82,13.82,0,0,0-5.77-1.54v1.43a12.31,12.31,0,0,1,5.06,1.35" />
        <path d="M189.45,40l1.23-.71a13.81,13.81,0,0,0-4.22-4.22l-.71,1.23a12.55,12.55,0,0,1,3.7,3.7" />
        <path d="M172.18,36.31l-.72-1.23a14,14,0,0,0-4.22,4.22l1.23.71a12.58,12.58,0,0,1,3.71-3.7" />
        <path d="M191.44,46.17h1.42a13.82,13.82,0,0,0-1.54-5.77l-1.24.71a12.48,12.48,0,0,1,1.36,5.06" />
        <path d="M178.33,34.33V32.9a13.82,13.82,0,0,0-5.77,1.54l.71,1.24a12.31,12.31,0,0,1,5.06-1.35" />
        <path d="M168.47,53.59l-1.23.71a14,14,0,0,0,4.22,4.22l.72-1.23a12.58,12.58,0,0,1-3.71-3.7" />
        <path d="M185.75,57.29l.71,1.23a13.92,13.92,0,0,0,4.22-4.22l-1.23-.71a12.55,12.55,0,0,1-3.7,3.7" />
        <path d="M191.44,47.43a12.48,12.48,0,0,1-1.36,5.06l1.24.71a13.82,13.82,0,0,0,1.54-5.77Z" />
        <path d="M166.49,47.43h-1.43a13.68,13.68,0,0,0,1.55,5.77l1.23-.71a12.31,12.31,0,0,1-1.35-5.06" />
        <path d="M167.84,41.11l-1.23-.71a13.68,13.68,0,0,0-1.55,5.77h1.43a12.31,12.31,0,0,1,1.35-5.06" />
      </g>
    </g>
    <g>
      <path d="M170.58,67.9h-1.93l-.47-1.2a5.26,5.26,0,0,0-.46-1,1.11,1.11,0,0,0-.4-.39,1.43,1.43,0,0,0-.51-.08h-.2V67.9h-1.8V61.13h3.06a2,2,0,0,1,1.21.34,2.07,2.07,0,0,1,.68.83,2.39,2.39,0,0,1,.21.93,1.93,1.93,0,0,1-.18.87,1.42,1.42,0,0,1-.36.51,3.8,3.8,0,0,1-.44.31,1.89,1.89,0,0,1,.48.45,7.1,7.1,0,0,1,.51,1.06Zm-2.44-4.63a.73.73,0,0,0-.27-.65,1.55,1.55,0,0,0-.88-.19h-.38v1.63H167a1.77,1.77,0,0,0,.9-.16A.72.72,0,0,0,168.14,63.27Z" />
      <path d="M175.28,65.84H172.2a1.21,1.21,0,0,0,.44.74,1.23,1.23,0,0,0,.8.29,3.77,3.77,0,0,0,1.72-.5v1.09a4.56,4.56,0,0,1-.82.36,3.83,3.83,0,0,1-1.23.17,2.56,2.56,0,0,1-1.37-.35,2,2,0,0,1-.85-.92,3,3,0,0,1-.28-1.33,2.9,2.9,0,0,1,.28-1.31,2,2,0,0,1,.85-.91,2.65,2.65,0,0,1,1.37-.33,2.22,2.22,0,0,1,1,.26A2.07,2.07,0,0,1,175,64a3.22,3.22,0,0,1,.32,1.53ZM173.82,65a1.37,1.37,0,0,0-.2-.77.7.7,0,0,0-.6-.28.79.79,0,0,0-.63.29,1.15,1.15,0,0,0-.24.76Z" />
      <path d="M180.49,65.38a3.42,3.42,0,0,1-.13,1,2.67,2.67,0,0,1-.38.84,1.93,1.93,0,0,1-.65.59,2,2,0,0,1-.94.22,1.82,1.82,0,0,1-.68-.11,2.68,2.68,0,0,1-.49-.27v2.55h-1.54V62.93h1.54v.45a2.44,2.44,0,0,1,.52-.39,1.6,1.6,0,0,1,.76-.15,1.85,1.85,0,0,1,.94.27,2.07,2.07,0,0,1,.75.84A3,3,0,0,1,180.49,65.38Zm-1.63,0a1.89,1.89,0,0,0-.12-.73,1,1,0,0,0-.33-.41.75.75,0,0,0-.41-.12.88.88,0,0,0-.45.1,2.39,2.39,0,0,0-.33.25v1.9l.18.11.18.1.2.08a.78.78,0,0,0,.22,0,.75.75,0,0,0,.62-.35A1.71,1.71,0,0,0,178.86,65.42Z" />
      <path d="M185.43,65.84h-3.08a1.21,1.21,0,0,0,.44.74,1.23,1.23,0,0,0,.8.29,3.77,3.77,0,0,0,1.72-.5v1.09a4.56,4.56,0,0,1-.82.36,3.83,3.83,0,0,1-1.23.17,2.56,2.56,0,0,1-1.37-.35,2,2,0,0,1-.85-.92,3,3,0,0,1-.28-1.33,2.9,2.9,0,0,1,.28-1.31,2,2,0,0,1,.85-.91,2.65,2.65,0,0,1,1.37-.33,2.22,2.22,0,0,1,1,.26,2.07,2.07,0,0,1,.82.86,3.22,3.22,0,0,1,.32,1.53ZM184,65a1.37,1.37,0,0,0-.2-.77.7.7,0,0,0-.6-.28.79.79,0,0,0-.63.29,1.15,1.15,0,0,0-.24.76Z" />
      <path d="M190.37,67.65a5.56,5.56,0,0,1-.62.24,2.11,2.11,0,0,1-.7.1.7.7,0,0,1-.53-.16.8.8,0,0,1-.21-.37,2.63,2.63,0,0,1-.56.38,1.81,1.81,0,0,1-.8.15,1.46,1.46,0,0,1-.77-.19,1,1,0,0,1-.41-.48,1.47,1.47,0,0,1-.12-.58,1.36,1.36,0,0,1,.2-.76,1.53,1.53,0,0,1,.55-.49,6.37,6.37,0,0,1,.91-.4l.49-.18.25-.09.17-.09a1,1,0,0,0-.13-.57.64.64,0,0,0-.56-.2,1.81,1.81,0,0,0-.94.25,3.27,3.27,0,0,0-.79.66V63.52a2.35,2.35,0,0,1,.62-.38,3.38,3.38,0,0,1,.7-.23,3.64,3.64,0,0,1,.74-.07,2.12,2.12,0,0,1,1.43.42,1.44,1.44,0,0,1,.48,1.15v1.92a1.36,1.36,0,0,0,0,.4.18.18,0,0,0,.17.14.92.92,0,0,0,.39-.14Zm-2.15-1V65.52a3.53,3.53,0,0,0-.8.46.66.66,0,0,0-.26.55.52.52,0,0,0,.13.38.37.37,0,0,0,.29.13.57.57,0,0,0,.32-.1Z" />
      <path d="M194,67.61a3.07,3.07,0,0,1-.67.25,2.63,2.63,0,0,1-.81.13c-1.11,0-1.67-.62-1.67-1.86v-2h-.7v-.31l2.08-2.4h.17v1.49h1.48v1.22h-1.48v1.59a2.64,2.64,0,0,0,0,.45.51.51,0,0,0,.17.29.74.74,0,0,0,.43.11,2.16,2.16,0,0,0,1-.35Z" />
    </g>
    <g>
      <path d="M215.21,65.89a1.56,1.56,0,0,1-.23.88,1.45,1.45,0,0,1-.63.57,2.2,2.2,0,0,1-.94.2l-.37,0-.57-.12a4.69,4.69,0,0,1-.74-.29V65.78a4.88,4.88,0,0,0,.71.42,1.59,1.59,0,0,0,.75.17.62.62,0,0,0,.48-.14.43.43,0,0,0,.1-.26.47.47,0,0,0-.18-.37,2.77,2.77,0,0,0-.54-.31,4.48,4.48,0,0,1-.69-.4,1.73,1.73,0,0,1-.48-.56,1.5,1.5,0,0,1-.19-.78,1.59,1.59,0,0,1,.19-.79,1.39,1.39,0,0,1,.58-.57,2,2,0,0,1,.95-.21,2.81,2.81,0,0,1,.73.09,2.39,2.39,0,0,1,.56.2,1.63,1.63,0,0,1,.3.17v1.27a3.86,3.86,0,0,0-.65-.43,1.68,1.68,0,0,0-.76-.19.54.54,0,0,0-.39.12.4.4,0,0,0-.12.29.38.38,0,0,0,.12.28,1.86,1.86,0,0,0,.43.28,9.18,9.18,0,0,1,.88.53,1.85,1.85,0,0,1,.51.54A1.41,1.41,0,0,1,215.21,65.89Z" />
      <path d="M219.29,65.82h-2.46a.93.93,0,0,0,.35.59,1,1,0,0,0,.64.23,3,3,0,0,0,1.38-.39v.87a4.18,4.18,0,0,1-.66.29,3,3,0,0,1-1,.13,2.11,2.11,0,0,1-1.1-.27,1.76,1.76,0,0,1-.68-.75,2.64,2.64,0,0,1,0-2.11,1.63,1.63,0,0,1,.68-.72,2.11,2.11,0,0,1,1.1-.27,1.72,1.72,0,0,1,.82.21,1.61,1.61,0,0,1,.66.68,2.61,2.61,0,0,1,.25,1.23Zm-1.16-.69a1.06,1.06,0,0,0-.17-.62.55.55,0,0,0-.48-.22.61.61,0,0,0-.5.23,1,1,0,0,0-.19.61Z" />
      <path d="M220.92,67.47h-1.24V62.05h1.24Z" />
      <path d="M225.08,65.82h-2.46a.93.93,0,0,0,.35.59,1,1,0,0,0,.64.23,3,3,0,0,0,1.38-.39v.87a4.18,4.18,0,0,1-.66.29,3,3,0,0,1-1,.13,2.11,2.11,0,0,1-1.1-.27,1.76,1.76,0,0,1-.68-.75,2.53,2.53,0,0,1,0-2.11,1.63,1.63,0,0,1,.68-.72,2.11,2.11,0,0,1,1.1-.27,1.72,1.72,0,0,1,.82.21,1.67,1.67,0,0,1,.66.68,2.61,2.61,0,0,1,.25,1.23Zm-1.16-.69a1.06,1.06,0,0,0-.17-.62.55.55,0,0,0-.48-.22.61.61,0,0,0-.5.23,1,1,0,0,0-.19.61Z" />
      <path d="M228.41,67.29l-.33.12a2,2,0,0,1-.39.09,2.29,2.29,0,0,1-.47,0,2,2,0,0,1-1-.22,1.66,1.66,0,0,1-.61-.56,2.4,2.4,0,0,1-.3-.68,2.37,2.37,0,0,1,0-1.22,2.28,2.28,0,0,1,.3-.68,1.71,1.71,0,0,1,.61-.54,1.93,1.93,0,0,1,1-.22,2.84,2.84,0,0,1,.64.06c.16.05.32.1.49.17v1.11a2.9,2.9,0,0,0-.94-.22.84.84,0,0,0-.85.93,1.06,1.06,0,0,0,.13.53.81.81,0,0,0,.72.42,1.76,1.76,0,0,0,.42-.06l.58-.18Z" />
      <path d="M231.49,67.24a2.48,2.48,0,0,1-.54.2,2.13,2.13,0,0,1-.64.1c-.9,0-1.34-.5-1.34-1.49V64.47h-.56v-.25l1.66-1.92h.14v1.19h1.18v1h-1.18v1.27a3.21,3.21,0,0,0,0,.36.43.43,0,0,0,.14.23.55.55,0,0,0,.34.09,1.68,1.68,0,0,0,.78-.28Z" />
    </g>
    <rect x="13.83" y="107.55" width="218.18" height="9.92" rx="2.83" />
    <rect x="13.83" y="148.33" width="218.18" height="9.92" rx="2.83" />
    <rect x="13.83" y="189.12" width="218.18" height="9.92" rx="2.83" />
    <rect x="13.83" y="229.9" width="218.18" height="9.92" rx="2.83" />
    <path d="M23.75,115.49H22.44v-5.42h1.31Z" style="fill: #fff" />
    <path d="M53.26,115.49H49.64v-.11c.14-.15.29-.34.46-.55s.38-.5.65-.85l.34-.47a4.37,4.37,0,0,0,.27-.44,2.53,2.53,0,0,0,.19-.48,1.68,1.68,0,0,0,.08-.54.93.93,0,0,0-.19-.61.62.62,0,0,0-.49-.23,1.6,1.6,0,0,0-1.16.69v-1.28l.34-.24a1.39,1.39,0,0,1,.3-.17,1.86,1.86,0,0,1,.4-.15,2.1,2.1,0,0,1,.51-.06,1.52,1.52,0,0,1,.79.2,1.36,1.36,0,0,1,.56.58,1.8,1.8,0,0,1,.21.89,2.09,2.09,0,0,1-.1.67,2.29,2.29,0,0,1-.19.5c-.07.13-.15.29-.26.48a10.51,10.51,0,0,1-.64,1h1.55Z" style="fill: #fff" />
    <path d="M81.31,114a1.79,1.79,0,0,1-.14.73,1.46,1.46,0,0,1-.39.49,1.73,1.73,0,0,1-.52.27,1.67,1.67,0,0,1-.52.09,3,3,0,0,1-.8-.12,3.18,3.18,0,0,1-.73-.28V114a2.39,2.39,0,0,0,.52.38,1.17,1.17,0,0,0,.57.16.77.77,0,0,0,.38-.1.72.72,0,0,0,.23-.23.67.67,0,0,0,.07-.31.69.69,0,0,0-.09-.36.7.7,0,0,0-.28-.26.93.93,0,0,0-.42-.1H79v-.87h.18a.7.7,0,0,0,.4-.1.77.77,0,0,0,.23-.25.74.74,0,0,0,.06-.28.66.66,0,0,0-.16-.44.57.57,0,0,0-.43-.19,1.33,1.33,0,0,0-.5.11,1.64,1.64,0,0,0-.48.27v-1a4.41,4.41,0,0,1,.64-.25,2.31,2.31,0,0,1,.67-.09,1.59,1.59,0,0,1,.9.24,1.44,1.44,0,0,1,.53.57,1.47,1.47,0,0,1,.16.64,1.36,1.36,0,0,1-.09.48,1.49,1.49,0,0,1-.24.43,1.19,1.19,0,0,1-.31.29,1.75,1.75,0,0,1,.5.48A1.41,1.41,0,0,1,81.31,114Z" style="fill: #fff" />
    <path d="M110,114.32h-.56v1.17h-1.27v-1.17h-1.94v-1l2.19-3.22h1v3.32H110Zm-1.83-.93v-1.74L107,113.39Z" style="fill: #fff" />
    <path d="M138.05,113.79a2,2,0,0,1-.19.87,1.5,1.5,0,0,1-.57.65,1.74,1.74,0,0,1-.93.25,3,3,0,0,1-.85-.13,2.57,2.57,0,0,1-.73-.39v-1.17a2.94,2.94,0,0,0,.62.38,1.72,1.72,0,0,0,.69.19.53.53,0,0,0,.49-.21.76.76,0,0,0,.06-.78.61.61,0,0,0-.28-.27,1.2,1.2,0,0,0-.54-.11,1.64,1.64,0,0,0-.72.16v-3.16h2.76v1.14h-1.71v.93h.31a1.47,1.47,0,0,1,.84.23,1.57,1.57,0,0,1,.56.61A1.78,1.78,0,0,1,138.05,113.79Z" style="fill: #fff" />
    <path d="M166.67,113.61a2,2,0,0,1-.13.73,2.22,2.22,0,0,1-.37.63,1.8,1.8,0,0,1-.59.43,1.83,1.83,0,0,1-.75.16,1.76,1.76,0,0,1-1-.3,1.9,1.9,0,0,1-.64-.79,2.67,2.67,0,0,1-.21-1.06,3.3,3.3,0,0,1,.13-.92,4.45,4.45,0,0,1,.39-.91,4.94,4.94,0,0,1,.6-.84,5.59,5.59,0,0,1,.78-.75l1.17.44c-.19.18-.35.35-.49.5s-.26.3-.39.47a5.25,5.25,0,0,0-.33.49,1.37,1.37,0,0,1,.31,0,1.53,1.53,0,0,1,.78.22,1.61,1.61,0,0,1,.56.62A2,2,0,0,1,166.67,113.61Zm-1.24,0a.74.74,0,0,0-.18-.55.61.61,0,0,0-.43-.18.52.52,0,0,0-.48.24.82.82,0,0,0-.16.49.79.79,0,0,0,.18.53.53.53,0,0,0,.43.22.57.57,0,0,0,.37-.12.69.69,0,0,0,.2-.3A.78.78,0,0,0,165.43,113.59Z" style="fill: #fff" />
    <path d="M195,110.23l-2,5.33-1.11-.4,1.46-3.89h-1.93v-1.2H195Z" style="fill: #fff" />
    <path d="M223.36,114a2,2,0,0,1-.07.44,1.5,1.5,0,0,1-.27.49,1.53,1.53,0,0,1-.57.43,2.77,2.77,0,0,1-1.91,0A1.43,1.43,0,0,1,220,115a1.42,1.42,0,0,1-.27-.49,1.78,1.78,0,0,1-.06-.44,1.55,1.55,0,0,1,.21-.78,1.44,1.44,0,0,1,.56-.56,1.67,1.67,0,0,1-.45-.47,1.41,1.41,0,0,1-.16-.69,1.5,1.5,0,0,1,.09-.49,1.46,1.46,0,0,1,.29-.51,1.4,1.4,0,0,1,.52-.39,2.38,2.38,0,0,1,1.61,0,1.44,1.44,0,0,1,.53.39,1.67,1.67,0,0,1,.28.5,1.8,1.8,0,0,1,.08.5,1.26,1.26,0,0,1-.16.69,1.53,1.53,0,0,1-.45.47,2,2,0,0,1,.41.34,1.78,1.78,0,0,1,.26.47A1.39,1.39,0,0,1,223.36,114Zm-1.23-.15a1,1,0,0,0-.09-.43.73.73,0,0,0-.25-.27.52.52,0,0,0-.29-.09.59.59,0,0,0-.44.21.83.83,0,0,0-.19.58.86.86,0,0,0,.19.61.62.62,0,0,0,.44.2.58.58,0,0,0,.45-.22A.9.9,0,0,0,222.13,113.88Zm-.14-2.24a1,1,0,0,0-.11-.49.38.38,0,0,0-.37-.24.41.41,0,0,0-.38.23,1,1,0,0,0-.12.5.86.86,0,0,0,.15.52.39.39,0,0,0,.68,0A.86.86,0,0,0,222,111.64Z" style="fill: #fff" />
    <path d="M25,152.47a3.36,3.36,0,0,1-.24,1.23,4.42,4.42,0,0,1-.66,1.17,5.68,5.68,0,0,1-1,1l-1.18-.44A6.93,6.93,0,0,0,23.09,154a1.32,1.32,0,0,1-.32,0,1.5,1.5,0,0,1-.77-.22,1.61,1.61,0,0,1-.56-.62,2,2,0,0,1-.21-.92,2.18,2.18,0,0,1,.13-.72,2,2,0,0,1,.38-.63,1.66,1.66,0,0,1,.58-.44,1.87,1.87,0,0,1,.75-.16,1.79,1.79,0,0,1,.81.18,1.68,1.68,0,0,1,.6.48,2.06,2.06,0,0,1,.36.69A2.63,2.63,0,0,1,25,152.47Zm-1.24-.18a.79.79,0,0,0-.18-.53.52.52,0,0,0-.44-.22.56.56,0,0,0-.36.12.69.69,0,0,0-.2.3.82.82,0,0,0-.07.33.71.71,0,0,0,.19.55.58.58,0,0,0,.42.18.53.53,0,0,0,.37-.12.66.66,0,0,0,.21-.29A.91.91,0,0,0,23.72,152.29Z" style="fill: #fff" />
    <g>
      <path d="M50.14,155.81H48.83V150.4h1.31Z" style="fill: #fff" />
      <path d="M55.25,153.11a4.5,4.5,0,0,1-.15,1.23,2.51,2.51,0,0,1-.4.87,1.78,1.78,0,0,1-.6.51,1.57,1.57,0,0,1-.71.16,1.6,1.6,0,0,1-.71-.16,1.66,1.66,0,0,1-.59-.51,2.61,2.61,0,0,1-.41-.87,4.5,4.5,0,0,1-.15-1.23,4.58,4.58,0,0,1,.15-1.24,2.7,2.7,0,0,1,.41-.87,1.66,1.66,0,0,1,.59-.51,1.57,1.57,0,0,1,1.42,0,1.66,1.66,0,0,1,.59.51,2.48,2.48,0,0,1,.41.88A4.5,4.5,0,0,1,55.25,153.11Zm-1.36,0a7.52,7.52,0,0,0-.08-1.18c-.06-.31-.2-.46-.42-.46a.34.34,0,0,0-.33.26,1.76,1.76,0,0,0-.14.59c0,.22,0,.49,0,.79a6.23,6.23,0,0,0,.09,1.2c.05.28.19.42.41.42s.36-.14.42-.42A7.35,7.35,0,0,0,53.89,153.11Z" style="fill: #fff" />
    </g>
    <g>
      <path d="M78.49,155.81h-1.3V150.4h1.3Z" style="fill: #fff" />
      <path d="M82.39,155.81h-1.3V150.4h1.3Z" style="fill: #fff" />
    </g>
    <g>
      <path d="M106.82,155.81h-1.3V150.4h1.3Z" style="fill: #fff" />
      <path d="M111.89,155.81h-3.62v-.1c.14-.16.3-.34.46-.55l.65-.85c.12-.16.24-.32.34-.47a3.68,3.68,0,0,0,.28-.45,2.67,2.67,0,0,0,.19-.48,1.89,1.89,0,0,0,.08-.53,1,1,0,0,0-.19-.61.62.62,0,0,0-.49-.23,1.57,1.57,0,0,0-1.16.69V151l.33-.24a2.14,2.14,0,0,1,.3-.17,2.23,2.23,0,0,1,.91-.22,1.57,1.57,0,0,1,.8.21,1.43,1.43,0,0,1,.56.58,1.92,1.92,0,0,1,.2.89,2.41,2.41,0,0,1-.09.67,3.32,3.32,0,0,1-.19.5c-.07.13-.16.29-.27.47a9.35,9.35,0,0,1-.63,1h1.54Z" style="fill: #fff" />
    </g>
    <g>
      <path d="M135.18,155.81h-1.3V150.4h1.3Z" style="fill: #fff" />
      <path d="M140,154.31a1.67,1.67,0,0,1-.15.73,1.46,1.46,0,0,1-.39.49,1.79,1.79,0,0,1-.51.27,1.71,1.71,0,0,1-.53.08,3.48,3.48,0,0,1-.8-.11,3.38,3.38,0,0,1-.73-.28v-1.21a2.39,2.39,0,0,0,.52.38,1.18,1.18,0,0,0,.57.15.74.74,0,0,0,.38-.09.59.59,0,0,0,.23-.24.61.61,0,0,0,.08-.3.76.76,0,0,0-.1-.37.69.69,0,0,0-.28-.25.82.82,0,0,0-.42-.1h-.16v-.87h.19a.67.67,0,0,0,.39-.11.61.61,0,0,0,.23-.25.57.57,0,0,0,.07-.27.66.66,0,0,0-.17-.44.56.56,0,0,0-.43-.19,1.48,1.48,0,0,0-.49.1,1.94,1.94,0,0,0-.48.28v-1a3.92,3.92,0,0,1,.63-.25,2.3,2.3,0,0,1,.67-.1,1.59,1.59,0,0,1,.9.24,1.52,1.52,0,0,1,.7,1.21,1.37,1.37,0,0,1-.09.49,2,2,0,0,1-.25.43,1.39,1.39,0,0,1-.31.29,1.77,1.77,0,0,1,.51.48A1.46,1.46,0,0,1,140,154.31Z" style="fill: #fff" />
    </g>
    <g>
      <path d="M163.5,155.81h-1.3V150.4h1.3Z" style="fill: #fff" />
      <path d="M168.59,154.64H168v1.17h-1.27v-1.17h-1.94v-1L167,150.4h1v3.32h.56Zm-1.83-.92V152l-1.18,1.74Z" style="fill: #fff" />
    </g>
    <g>
      <path d="M191.86,155.81h-1.3V150.4h1.3Z" style="fill: #fff" />
      <path d="M196.68,154.12a2,2,0,0,1-.19.87,1.5,1.5,0,0,1-.57.65,1.74,1.74,0,0,1-.93.24,2.65,2.65,0,0,1-.85-.13,2.15,2.15,0,0,1-.73-.39V154.2a2.59,2.59,0,0,0,.62.37,1.6,1.6,0,0,0,.69.2.54.54,0,0,0,.49-.21.73.73,0,0,0,.14-.43.69.69,0,0,0-.08-.35.61.61,0,0,0-.28-.27,1.08,1.08,0,0,0-.54-.11,1.79,1.79,0,0,0-.72.15V150.4h2.76v1.14h-1.71v.93h.31a1.47,1.47,0,0,1,.84.23,1.5,1.5,0,0,1,.56.61A1.78,1.78,0,0,1,196.68,154.12Z" style="fill: #fff" />
    </g>
    <g>
      <path d="M220.2,155.81h-1.31V150.4h1.31Z" style="fill: #fff" />
      <path d="M225.32,153.94a2.29,2.29,0,0,1-.13.73,1.89,1.89,0,0,1-.38.62,1.69,1.69,0,0,1-.58.44,1.86,1.86,0,0,1-.75.15,1.76,1.76,0,0,1-1-.3,1.82,1.82,0,0,1-.64-.78,2.52,2.52,0,0,1-.22-1.06,3.32,3.32,0,0,1,.14-.92,4.23,4.23,0,0,1,.39-.91,5.16,5.16,0,0,1,1.37-1.59l1.18.44c-.19.18-.35.35-.49.5a5.58,5.58,0,0,0-.39.46,3.92,3.92,0,0,0-.33.5.93.93,0,0,1,.31,0,1.38,1.38,0,0,1,.77.22,1.49,1.49,0,0,1,.57.62A2,2,0,0,1,225.32,153.94Zm-1.24,0a.69.69,0,0,0-.19-.55.58.58,0,0,0-.43-.18.56.56,0,0,0-.48.23.94.94,0,0,0-.15.5.81.81,0,0,0,.18.53.56.56,0,0,0,.79.1.63.63,0,0,0,.21-.3A.78.78,0,0,0,224.08,153.92Z" style="fill: #fff" />
    </g>
    <g>
      <path d="M21.8,196.66H20.49v-5.42H21.8Z" style="fill: #fff" />
      <path d="M26.89,191.4l-2,5.33-1.1-.4,1.45-3.89H23.27v-1.2h3.62Z" style="fill: #fff" />
    </g>
    <g>
      <path d="M50.14,196.66H48.83v-5.42h1.31Z" style="fill: #fff" />
      <path d="M55.25,195.2a1.59,1.59,0,0,1-.07.44,1.5,1.5,0,0,1-.27.49,1.53,1.53,0,0,1-.57.43,2.34,2.34,0,0,1-1,.17,2.39,2.39,0,0,1-1-.17,1.43,1.43,0,0,1-.57-.43,1.38,1.38,0,0,1-.26-.49,1.44,1.44,0,0,1-.07-.44,1.55,1.55,0,0,1,.21-.78,1.5,1.5,0,0,1,.56-.56,1.67,1.67,0,0,1-.45-.47,1.41,1.41,0,0,1-.15-.69,1.79,1.79,0,0,1,.08-.49,1.63,1.63,0,0,1,.29-.51,1.48,1.48,0,0,1,.52-.39,2.12,2.12,0,0,1,.8-.14,2.07,2.07,0,0,1,.81.14,1.44,1.44,0,0,1,.53.39,1.48,1.48,0,0,1,.28.5,1.8,1.8,0,0,1,.08.5,1.36,1.36,0,0,1-.15.69,1.7,1.7,0,0,1-.46.47,1.73,1.73,0,0,1,.41.34,1.54,1.54,0,0,1,.26.47A1.39,1.39,0,0,1,55.25,195.2ZM54,195.05a1,1,0,0,0-.1-.43.64.64,0,0,0-.24-.27.58.58,0,0,0-.3-.09.59.59,0,0,0-.44.21.83.83,0,0,0-.19.58.86.86,0,0,0,.19.61.62.62,0,0,0,.45.2.56.56,0,0,0,.44-.22A.91.91,0,0,0,54,195.05Zm-.14-2.24a1,1,0,0,0-.12-.49.37.37,0,0,0-.37-.24.41.41,0,0,0-.38.23,1,1,0,0,0-.12.5.81.81,0,0,0,.15.51.42.42,0,0,0,.34.21.43.43,0,0,0,.35-.21A.81.81,0,0,0,53.89,192.81Z" style="fill: #fff" />
    </g>
    <g>
      <path d="M78.49,196.66h-1.3v-5.42h1.3Z" style="fill: #fff" />
      <path d="M83.6,193.31a3.57,3.57,0,0,1-.23,1.23,4.59,4.59,0,0,1-.67,1.17,5.68,5.68,0,0,1-1,1l-1.18-.43a7,7,0,0,0,1.21-1.47.93.93,0,0,1-.31,0,1.38,1.38,0,0,1-.77-.22,1.53,1.53,0,0,1-.56-.62,2,2,0,0,1-.21-.92,2,2,0,0,1,.13-.72,2,2,0,0,1,.37-.63,1.82,1.82,0,0,1,.59-.44,1.78,1.78,0,0,1,.74-.15,1.94,1.94,0,0,1,.82.17,1.77,1.77,0,0,1,.6.48,2.36,2.36,0,0,1,.35.69A2.63,2.63,0,0,1,83.6,193.31Zm-1.24-.17a.85.85,0,0,0-.17-.54.53.53,0,0,0-.44-.22.52.52,0,0,0-.36.12.75.75,0,0,0-.21.3,1.06,1.06,0,0,0-.06.34.72.72,0,0,0,.18.54.58.58,0,0,0,.43.18.55.55,0,0,0,.37-.12.69.69,0,0,0,.2-.28A1,1,0,0,0,82.36,193.14Z" style="fill: #fff" />
    </g>
    <g>
      <path d="M108,196.66h-3.62v-.11c.14-.15.29-.34.46-.55l.65-.85.34-.47a3.08,3.08,0,0,0,.27-.44,3.45,3.45,0,0,0,.2-.48,2,2,0,0,0,.07-.54.93.93,0,0,0-.19-.61.59.59,0,0,0-.48-.23,1.57,1.57,0,0,0-1.16.69v-1.28l.33-.24a2.14,2.14,0,0,1,.3-.17,1.86,1.86,0,0,1,.4-.15,2.1,2.1,0,0,1,.51-.06,1.5,1.5,0,0,1,.79.2,1.45,1.45,0,0,1,.57.58,1.92,1.92,0,0,1,.2.89,2.41,2.41,0,0,1-.09.67,2.24,2.24,0,0,1-.2.5c-.06.13-.15.29-.26.48s-.41.65-.63.95H108Z" style="fill: #fff" />
      <path d="M111.93,194a4.65,4.65,0,0,1-.14,1.24,2.7,2.7,0,0,1-.41.87,1.74,1.74,0,0,1-.59.5,1.62,1.62,0,0,1-.72.17,1.54,1.54,0,0,1-.7-.17,1.58,1.58,0,0,1-.59-.51,2.38,2.38,0,0,1-.41-.86,5.2,5.2,0,0,1,0-2.48,2.7,2.7,0,0,1,.4-.87,1.66,1.66,0,0,1,.59-.51,1.6,1.6,0,0,1,.71-.16,1.54,1.54,0,0,1,.71.16,1.69,1.69,0,0,1,.6.51,2.66,2.66,0,0,1,.41.88A4.53,4.53,0,0,1,111.93,194Zm-1.35,0a6.36,6.36,0,0,0-.09-1.18c-.06-.31-.2-.46-.42-.46a.36.36,0,0,0-.33.26,2,2,0,0,0-.14.59c0,.23,0,.49,0,.79a6.37,6.37,0,0,0,.08,1.2c.06.28.19.43.41.43s.37-.15.42-.43A6.23,6.23,0,0,0,110.58,194Z" style="fill: #fff" />
    </g>
    <g>
      <path d="M136.35,196.66h-3.62v-.11c.14-.15.29-.34.46-.55l.65-.85.34-.47a3.08,3.08,0,0,0,.27-.44,3.45,3.45,0,0,0,.2-.48,2,2,0,0,0,.07-.54.93.93,0,0,0-.19-.61.59.59,0,0,0-.48-.23,1.57,1.57,0,0,0-1.16.69v-1.28l.33-.24a2.14,2.14,0,0,1,.3-.17,1.86,1.86,0,0,1,.4-.15,2.1,2.1,0,0,1,.51-.06,1.5,1.5,0,0,1,.79.2,1.45,1.45,0,0,1,.57.58,1.92,1.92,0,0,1,.2.89,2.41,2.41,0,0,1-.09.67,2.86,2.86,0,0,1-.2.5c-.06.13-.15.29-.26.48s-.41.65-.63.95h1.54Z" style="fill: #fff" />
      <path d="M139.08,196.66h-1.3v-5.42h1.3Z" style="fill: #fff" />
    </g>
    <g>
      <path d="M164.67,196.66h-3.62v-.11c.14-.15.29-.34.46-.55l.65-.85.34-.47a4.37,4.37,0,0,0,.27-.44,2.53,2.53,0,0,0,.19-.48,1.68,1.68,0,0,0,.08-.54.93.93,0,0,0-.19-.61.6.6,0,0,0-.48-.23,1.6,1.6,0,0,0-1.17.69v-1.28l.34-.24a1.39,1.39,0,0,1,.3-.17,1.86,1.86,0,0,1,.4-.15,2.1,2.1,0,0,1,.51-.06,1.52,1.52,0,0,1,.79.2,1.36,1.36,0,0,1,.56.58,1.8,1.8,0,0,1,.21.89,2.41,2.41,0,0,1-.09.67,2.86,2.86,0,0,1-.2.5c-.06.13-.15.29-.26.48s-.41.65-.63.95h1.54Z" style="fill: #fff" />
      <path d="M168.57,196.66H165v-.11c.14-.15.3-.34.46-.55l.65-.85.34-.47a3.08,3.08,0,0,0,.27-.44,3.45,3.45,0,0,0,.2-.48,2,2,0,0,0,.08-.54.93.93,0,0,0-.2-.61.59.59,0,0,0-.48-.23,1.57,1.57,0,0,0-1.16.69v-1.28l.33-.24a2.14,2.14,0,0,1,.3-.17,1.86,1.86,0,0,1,.4-.15,2.1,2.1,0,0,1,.51-.06,1.5,1.5,0,0,1,.79.2,1.45,1.45,0,0,1,.57.58,1.92,1.92,0,0,1,.2.89,2.41,2.41,0,0,1-.09.67,2.24,2.24,0,0,1-.2.5c-.06.13-.15.29-.26.48s-.41.65-.63.95h1.54Z" style="fill: #fff" />
    </g>
    <g>
      <path d="M193,196.66h-3.62v-.11c.14-.15.29-.34.46-.55l.65-.85.34-.47a4.37,4.37,0,0,0,.27-.44,2.53,2.53,0,0,0,.19-.48,1.68,1.68,0,0,0,.08-.54.93.93,0,0,0-.19-.61.6.6,0,0,0-.48-.23,1.6,1.6,0,0,0-1.17.69v-1.28l.34-.24a1.69,1.69,0,0,1,.3-.17,1.86,1.86,0,0,1,.4-.15,2.1,2.1,0,0,1,.51-.06,1.52,1.52,0,0,1,.79.2,1.36,1.36,0,0,1,.56.58,1.8,1.8,0,0,1,.21.89,2.41,2.41,0,0,1-.09.67,2.86,2.86,0,0,1-.2.5c-.06.13-.15.29-.26.48s-.41.65-.63.95H193Z" style="fill: #fff" />
      <path d="M196.64,195.15a1.64,1.64,0,0,1-.15.73,1.46,1.46,0,0,1-.39.49,1.72,1.72,0,0,1-.52.27,1.63,1.63,0,0,1-.52.09,3,3,0,0,1-.8-.12,3.38,3.38,0,0,1-.73-.28v-1.21a2.39,2.39,0,0,0,.52.38,1.17,1.17,0,0,0,.57.16.74.74,0,0,0,.38-.1.59.59,0,0,0,.23-.24.61.61,0,0,0,.08-.3.69.69,0,0,0-.1-.36.64.64,0,0,0-.28-.26.82.82,0,0,0-.42-.1h-.16v-.87h.19a.67.67,0,0,0,.39-.1.63.63,0,0,0,.23-.26.61.61,0,0,0-.1-.71.56.56,0,0,0-.43-.19,1.28,1.28,0,0,0-.49.11,1.42,1.42,0,0,0-.48.27v-1a3.92,3.92,0,0,1,.63-.25,2.31,2.31,0,0,1,.67-.09,1.59,1.59,0,0,1,.9.24,1.44,1.44,0,0,1,.53.57,1.49,1.49,0,0,1,.17.64,1.18,1.18,0,0,1-.1.48,1.49,1.49,0,0,1-.24.43,1.19,1.19,0,0,1-.31.29,1.92,1.92,0,0,1,.51.48A1.48,1.48,0,0,1,196.64,195.15Z" style="fill: #fff" />
    </g>
    <g>
      <path d="M221.37,196.66h-3.62v-.11c.14-.15.29-.34.46-.55l.64-.85c.12-.16.24-.31.34-.47a4.54,4.54,0,0,0,.28-.44,3.43,3.43,0,0,0,.19-.48,2,2,0,0,0,.08-.54.93.93,0,0,0-.19-.61.62.62,0,0,0-.49-.23,1.59,1.59,0,0,0-1.16.69v-1.28l.33-.24a1.8,1.8,0,0,1,.31-.17,1.68,1.68,0,0,1,.4-.15,2,2,0,0,1,.5-.06,1.53,1.53,0,0,1,.8.2,1.42,1.42,0,0,1,.56.58,1.8,1.8,0,0,1,.2.89,2.41,2.41,0,0,1-.09.67,2.29,2.29,0,0,1-.19.5l-.27.48a8.69,8.69,0,0,1-.63.95h1.55Z" style="fill: #fff" />
      <path d="M225.29,195.49h-.57v1.17h-1.26v-1.17h-1.94v-1l2.18-3.22h1v3.32h.57Zm-1.83-.93v-1.74l-1.19,1.74Z" style="fill: #fff" />
    </g>
    <g>
      <path d="M23,237.55H19.35v-.11c.13-.15.29-.33.46-.55s.38-.49.64-.85c.12-.15.24-.31.34-.46s.2-.31.28-.45a3.43,3.43,0,0,0,.19-.48,1.89,1.89,0,0,0,.08-.53,1,1,0,0,0-.19-.61.59.59,0,0,0-.49-.23,1.55,1.55,0,0,0-1.16.68v-1.27l.33-.24.3-.18a2,2,0,0,1,.91-.21,1.67,1.67,0,0,1,.8.2,1.49,1.49,0,0,1,.56.58,1.83,1.83,0,0,1,.2.89,2.36,2.36,0,0,1-.09.67,2.63,2.63,0,0,1-.19.51l-.27.47a8.69,8.69,0,0,1-.63,1H23Z" style="fill: #fff" />
      <path d="M26.62,235.85a2,2,0,0,1-.19.87,1.46,1.46,0,0,1-.58.65,1.61,1.61,0,0,1-.93.25,2.63,2.63,0,0,1-.84-.13,2.5,2.5,0,0,1-.74-.39v-1.17a2.79,2.79,0,0,0,.62.38,1.64,1.64,0,0,0,.7.19.56.56,0,0,0,.49-.21.78.78,0,0,0,.14-.43.85.85,0,0,0-.08-.35.64.64,0,0,0-.29-.27,1.15,1.15,0,0,0-.54-.11,1.8,1.8,0,0,0-.72.16v-3.16h2.76v1.15h-1.7v.92H25a1.61,1.61,0,0,1,.85.23,1.64,1.64,0,0,1,.56.61A1.94,1.94,0,0,1,26.62,235.85Z" style="fill: #fff" />
    </g>
    <g>
      <path d="M51.31,237.55H47.69v-.11c.14-.15.29-.33.46-.55s.38-.49.64-.85l.35-.46.27-.45a2.53,2.53,0,0,0,.19-.48,1.89,1.89,0,0,0,.08-.53.91.91,0,0,0-.19-.61.59.59,0,0,0-.49-.23,1.57,1.57,0,0,0-1.16.68v-1.27l.34-.24a2,2,0,0,1,.3-.18,1.68,1.68,0,0,1,.4-.15,2,2,0,0,1,.51-.06,1.63,1.63,0,0,1,.79.2,1.42,1.42,0,0,1,.56.58,1.83,1.83,0,0,1,.21.89,2.35,2.35,0,0,1-.1.67,2.63,2.63,0,0,1-.19.51l-.26.47a10.51,10.51,0,0,1-.64,1h1.55Z" style="fill: #fff" />
      <path d="M55.26,235.68a2.18,2.18,0,0,1-.13.72,2.09,2.09,0,0,1-.37.63,1.8,1.8,0,0,1-.59.43,1.71,1.71,0,0,1-.75.16,1.76,1.76,0,0,1-1-.3,1.84,1.84,0,0,1-.64-.79,2.67,2.67,0,0,1-.22-1.05,3.26,3.26,0,0,1,.14-.92,4.53,4.53,0,0,1,.39-.92,4.94,4.94,0,0,1,.6-.84,5.59,5.59,0,0,1,.78-.75l1.17.44-.49.5c-.13.15-.27.31-.39.47s-.23.33-.33.49a1.35,1.35,0,0,1,.31,0,1.52,1.52,0,0,1,.78.21,1.64,1.64,0,0,1,.56.63A1.92,1.92,0,0,1,55.26,235.68Zm-1.24,0a.74.74,0,0,0-.18-.55.62.62,0,0,0-.44-.18.55.55,0,0,0-.48.24.91.91,0,0,0-.15.49.84.84,0,0,0,.18.54.54.54,0,0,0,.43.21.57.57,0,0,0,.37-.12A.72.72,0,0,0,54,236,.86.86,0,0,0,54,235.65Z" style="fill: #fff" />
    </g>
    <g>
      <path d="M79.66,237.55H76v-.11c.14-.15.29-.33.46-.55s.38-.49.64-.85c.13-.15.24-.31.35-.46l.27-.45a2.53,2.53,0,0,0,.19-.48,1.59,1.59,0,0,0,.08-.53.91.91,0,0,0-.19-.61.59.59,0,0,0-.49-.23,1.59,1.59,0,0,0-1.16.68v-1.27l.34-.24a2,2,0,0,1,.3-.18,1.86,1.86,0,0,1,.4-.15,2.1,2.1,0,0,1,.51-.06,1.63,1.63,0,0,1,.79.2,1.42,1.42,0,0,1,.56.58,1.83,1.83,0,0,1,.21.89,2,2,0,0,1-.1.67,2.63,2.63,0,0,1-.19.51l-.26.47a10.51,10.51,0,0,1-.64,1h1.55Z" style="fill: #fff" />
      <path d="M83.58,232.29l-2,5.33-1.11-.4,1.46-3.89H80v-1.2h3.61Z" style="fill: #fff" />
    </g>
    <g>
      <path d="M108,237.55h-3.62v-.11c.14-.15.29-.33.46-.55s.38-.49.65-.85c.12-.15.23-.31.34-.46a3.82,3.82,0,0,0,.27-.45,3.45,3.45,0,0,0,.2-.48,1.88,1.88,0,0,0,.07-.53.91.91,0,0,0-.19-.61.56.56,0,0,0-.48-.23,1.55,1.55,0,0,0-1.16.68v-1.27l.33-.24.3-.18a1.86,1.86,0,0,1,.4-.15,2.1,2.1,0,0,1,.51-.06,1.6,1.6,0,0,1,.79.2,1.51,1.51,0,0,1,.57.58,2,2,0,0,1,.2.89,2.36,2.36,0,0,1-.09.67,2.58,2.58,0,0,1-.2.51c-.06.13-.15.28-.26.47s-.41.65-.63,1H108Z" style="fill: #fff" />
      <path d="M111.93,236.09a1.48,1.48,0,0,1-.07.44,1.41,1.41,0,0,1-.83.92,2.39,2.39,0,0,1-1,.17,2.31,2.31,0,0,1-.95-.17,1.53,1.53,0,0,1-.58-.42,1.42,1.42,0,0,1-.26-.5,1.72,1.72,0,0,1-.06-.44,1.51,1.51,0,0,1,.21-.77,1.41,1.41,0,0,1,.55-.56,1.53,1.53,0,0,1-.44-.48,1.29,1.29,0,0,1-.16-.68,1.51,1.51,0,0,1,.09-.5,1.67,1.67,0,0,1,.28-.5,1.31,1.31,0,0,1,.53-.39,1.89,1.89,0,0,1,.79-.15,2,2,0,0,1,.82.15,1.39,1.39,0,0,1,.53.38,1.44,1.44,0,0,1,.27.5,1.51,1.51,0,0,1,.08.51,1.34,1.34,0,0,1-.15.68,1.68,1.68,0,0,1-.45.48,1.32,1.32,0,0,1,.4.34,1.74,1.74,0,0,1,.27.46A1.64,1.64,0,0,1,111.93,236.09Zm-1.22-.14a.83.83,0,0,0-.1-.43.61.61,0,0,0-.24-.28.58.58,0,0,0-.3-.09.55.55,0,0,0-.43.22.82.82,0,0,0-.2.58.85.85,0,0,0,.2.6.59.59,0,0,0,.44.21.55.55,0,0,0,.44-.23A.85.85,0,0,0,110.71,236Zm-.14-2.25a1.21,1.21,0,0,0-.11-.49.39.39,0,0,0-.37-.24.41.41,0,0,0-.39.23,1.06,1.06,0,0,0-.12.5.86.86,0,0,0,.15.52.44.44,0,0,0,.34.2.43.43,0,0,0,.35-.2A.86.86,0,0,0,110.57,233.7Z" style="fill: #fff" />
    </g>
    <g>
      <path d="M136.35,237.55h-3.62v-.11c.14-.15.29-.33.46-.55s.38-.49.65-.85c.12-.15.23-.31.34-.46a3.82,3.82,0,0,0,.27-.45,3.45,3.45,0,0,0,.2-.48,1.88,1.88,0,0,0,.07-.53.91.91,0,0,0-.19-.61.56.56,0,0,0-.48-.23,1.55,1.55,0,0,0-1.16.68v-1.27l.33-.24.3-.18a1.86,1.86,0,0,1,.4-.15,2.1,2.1,0,0,1,.51-.06,1.6,1.6,0,0,1,.79.2,1.51,1.51,0,0,1,.57.58,2,2,0,0,1,.2.89,2.36,2.36,0,0,1-.09.67,3.39,3.39,0,0,1-.2.51c-.06.13-.15.28-.26.47s-.41.65-.63,1h1.54Z" style="fill: #fff" />
      <path d="M140.29,234.2a3.35,3.35,0,0,1-.23,1.23,4.78,4.78,0,0,1-.66,1.18,6.49,6.49,0,0,1-1,1l-1.17-.44a7.27,7.27,0,0,0,1.21-1.47,1,1,0,0,1-.32,0,1.41,1.41,0,0,1-.77-.22,1.54,1.54,0,0,1-.56-.62,1.94,1.94,0,0,1-.21-.91,2,2,0,0,1,.13-.73,2,2,0,0,1,.37-.63,1.8,1.8,0,0,1,.59-.43,1.71,1.71,0,0,1,.75-.16,1.79,1.79,0,0,1,.81.18,1.56,1.56,0,0,1,.6.48,2.09,2.09,0,0,1,.35.68A2.67,2.67,0,0,1,140.29,234.2Zm-1.24-.17a.83.83,0,0,0-.17-.54.54.54,0,0,0-.44-.21.52.52,0,0,0-.36.12.63.63,0,0,0-.21.3,1,1,0,0,0-.06.33.74.74,0,0,0,.18.55.61.61,0,0,0,.43.18.51.51,0,0,0,.37-.13.61.61,0,0,0,.2-.28A1,1,0,0,0,139.05,234Z" style="fill: #fff" />
    </g>
    <g>
      <path d="M164.37,236a1.76,1.76,0,0,1-.14.73,1.37,1.37,0,0,1-.39.49,1.53,1.53,0,0,1-.52.27,1.67,1.67,0,0,1-.52.09,3,3,0,0,1-.8-.12,2.79,2.79,0,0,1-.73-.27V236a2.39,2.39,0,0,0,.52.38,1.07,1.07,0,0,0,.57.16.67.67,0,0,0,.38-.1.72.72,0,0,0,.23-.23.66.66,0,0,0,.07-.3.75.75,0,0,0-.09-.37.78.78,0,0,0-.28-.26.93.93,0,0,0-.42-.09h-.16v-.87h.18a.7.7,0,0,0,.4-.11.68.68,0,0,0,.23-.25.74.74,0,0,0,.06-.28.62.62,0,0,0-.16-.43.54.54,0,0,0-.43-.19,1.31,1.31,0,0,0-.5.1,2.27,2.27,0,0,0-.48.27v-1a6,6,0,0,1,.64-.25,2.31,2.31,0,0,1,.67-.09,1.59,1.59,0,0,1,.9.24,1.51,1.51,0,0,1,.53.57,1.47,1.47,0,0,1,.16.64,1.36,1.36,0,0,1-.09.48,1.37,1.37,0,0,1-.24.43,1.24,1.24,0,0,1-.31.3,1.59,1.59,0,0,1,.5.47A1.43,1.43,0,0,1,164.37,236Z" style="fill: #fff" />
      <path d="M168.61,234.85a4.55,4.55,0,0,1-.15,1.23,2.5,2.5,0,0,1-.4.87,1.77,1.77,0,0,1-.6.5,1.58,1.58,0,0,1-.71.17,1.61,1.61,0,0,1-.71-.17,1.83,1.83,0,0,1-.59-.5,2.7,2.7,0,0,1-.4-.87,5.16,5.16,0,0,1,0-2.47,2.7,2.7,0,0,1,.4-.87,1.66,1.66,0,0,1,.59-.51,1.61,1.61,0,0,1,.71-.17,1.71,1.71,0,0,1,.71.16,1.78,1.78,0,0,1,.6.51,2.56,2.56,0,0,1,.4.88A4.63,4.63,0,0,1,168.61,234.85Zm-1.36,0a6.41,6.41,0,0,0-.08-1.18c-.06-.31-.2-.47-.42-.47a.35.35,0,0,0-.33.26,1.76,1.76,0,0,0-.14.6c0,.22,0,.48,0,.79a6,6,0,0,0,.09,1.19c0,.29.19.43.41.43s.36-.14.42-.43A6.19,6.19,0,0,0,167.25,234.85Z" style="fill: #fff" />
    </g>
    <g>
      <path d="M192.73,236a1.76,1.76,0,0,1-.14.73,1.37,1.37,0,0,1-.39.49,1.53,1.53,0,0,1-.52.27,1.63,1.63,0,0,1-.52.09,3,3,0,0,1-.8-.12,2.79,2.79,0,0,1-.73-.27V236a2.39,2.39,0,0,0,.52.38,1.07,1.07,0,0,0,.57.16.67.67,0,0,0,.38-.1.72.72,0,0,0,.23-.23.66.66,0,0,0,.07-.3.75.75,0,0,0-.09-.37.78.78,0,0,0-.28-.26.93.93,0,0,0-.42-.09h-.16v-.87h.18a.7.7,0,0,0,.4-.11.68.68,0,0,0,.23-.25.74.74,0,0,0,.06-.28.62.62,0,0,0-.16-.43.54.54,0,0,0-.43-.19,1.31,1.31,0,0,0-.5.1,2.27,2.27,0,0,0-.48.27v-1a6,6,0,0,1,.64-.25,2.31,2.31,0,0,1,.67-.09,1.59,1.59,0,0,1,.9.24,1.49,1.49,0,0,1,.7,1.21,1.62,1.62,0,0,1-.34.91,1.24,1.24,0,0,1-.31.3,1.59,1.59,0,0,1,.5.47A1.43,1.43,0,0,1,192.73,236Z" style="fill: #fff" />
      <path d="M195.76,237.55h-1.3v-5.42h1.3Z" style="fill: #fff" />
    </g>
    <g>
      <path d="M221.07,236a1.61,1.61,0,0,1-.15.73,1.37,1.37,0,0,1-.39.49,1.4,1.4,0,0,1-.51.27,1.69,1.69,0,0,1-.53.09,3.11,3.11,0,0,1-.8-.12,2.94,2.94,0,0,1-.73-.27V236a2.66,2.66,0,0,0,.52.38,1.13,1.13,0,0,0,.58.16.64.64,0,0,0,.37-.1.63.63,0,0,0,.23-.23.67.67,0,0,0,.08-.3.66.66,0,0,0-.1-.37.68.68,0,0,0-.27-.26,1,1,0,0,0-.43-.09h-.15v-.87H219a.72.72,0,0,0,.4-.11.58.58,0,0,0,.22-.25.61.61,0,0,0,.07-.28.63.63,0,0,0-.17-.43.53.53,0,0,0-.43-.19,1.26,1.26,0,0,0-.49.1,2.27,2.27,0,0,0-.48.27v-1a5.86,5.86,0,0,1,.63-.25,2.31,2.31,0,0,1,.67-.09,1.59,1.59,0,0,1,.9.24,1.43,1.43,0,0,1,.53.57,1.3,1.3,0,0,1,.08,1.12,1.61,1.61,0,0,1-.24.43,1.27,1.27,0,0,1-.32.3,1.62,1.62,0,0,1,.51.47A1.43,1.43,0,0,1,221.07,236Z" style="fill: #fff" />
      <path d="M225.27,237.55h-3.62v-.11c.14-.15.29-.33.46-.55s.38-.49.64-.85c.13-.15.24-.31.35-.46l.27-.45a2.53,2.53,0,0,0,.19-.48,1.59,1.59,0,0,0,.08-.53.91.91,0,0,0-.19-.61.59.59,0,0,0-.49-.23,1.59,1.59,0,0,0-1.16.68v-1.27l.34-.24a2,2,0,0,1,.3-.18,1.86,1.86,0,0,1,.4-.15,2,2,0,0,1,.51-.06,1.63,1.63,0,0,1,.79.2,1.42,1.42,0,0,1,.56.58,1.83,1.83,0,0,1,.21.89,2,2,0,0,1-.1.67,2.63,2.63,0,0,1-.19.51l-.26.47a10.51,10.51,0,0,1-.64,1h1.55Z" style="fill: #fff" />
    </g>
    <g>
      <path d="M17.77,64.43a1.58,1.58,0,0,1-.23.88,1.45,1.45,0,0,1-.63.57,2.2,2.2,0,0,1-.94.2l-.36,0a3.54,3.54,0,0,1-.58-.11,5.91,5.91,0,0,1-.74-.29V64.32a4.88,4.88,0,0,0,.71.42,1.79,1.79,0,0,0,.75.17.61.61,0,0,0,.48-.14.45.45,0,0,0,.11-.26.47.47,0,0,0-.19-.37,2.5,2.5,0,0,0-.54-.31,3.81,3.81,0,0,1-.69-.41,1.71,1.71,0,0,1-.48-.55,1.62,1.62,0,0,1-.19-.79,1.74,1.74,0,0,1,.19-.79,1.43,1.43,0,0,1,.58-.56,2,2,0,0,1,1-.21,2.94,2.94,0,0,1,.74.09,2.5,2.5,0,0,1,.55.19l.31.17v1.27a4.37,4.37,0,0,0-.66-.42,1.53,1.53,0,0,0-.76-.19.54.54,0,0,0-.39.12.38.38,0,0,0-.12.29.36.36,0,0,0,.12.27,1.82,1.82,0,0,0,.43.29,9.18,9.18,0,0,1,.88.53,1.78,1.78,0,0,1,.52.54A1.47,1.47,0,0,1,17.77,64.43Z" />
      <path d="M21.27,65.78a3,3,0,0,1-.53.2,2.57,2.57,0,0,1-.65.1c-.89,0-1.34-.5-1.34-1.49V63h-.56v-.25l1.66-1.92H20V62h1.18v1H20v1.27a1.84,1.84,0,0,0,0,.36.37.37,0,0,0,.14.23.5.5,0,0,0,.33.09,1.64,1.64,0,0,0,.78-.28Z" />
      <path d="M25.41,65.81c-.18.08-.35.14-.5.19a1.84,1.84,0,0,1-.56.08.54.54,0,0,1-.42-.13.64.64,0,0,1-.17-.3,1.72,1.72,0,0,1-.45.31,1.43,1.43,0,0,1-.64.12,1.1,1.1,0,0,1-.61-.15.8.8,0,0,1-.33-.38,1.2,1.2,0,0,1,.06-1.08,1.28,1.28,0,0,1,.44-.39,4.76,4.76,0,0,1,.73-.32l.39-.14.2-.08.14-.07a.83.83,0,0,0-.11-.45c-.06-.11-.21-.17-.44-.17a1.48,1.48,0,0,0-.76.21,2.57,2.57,0,0,0-.63.52V62.5a2.29,2.29,0,0,1,.5-.3,2.62,2.62,0,0,1,.56-.18A2.88,2.88,0,0,1,23.4,62a1.7,1.7,0,0,1,1.14.33,1.15,1.15,0,0,1,.38.92v1.54a1.19,1.19,0,0,0,0,.32.13.13,0,0,0,.13.11.76.76,0,0,0,.32-.11Zm-1.72-.76v-1a3.44,3.44,0,0,0-.65.37.54.54,0,0,0-.2.44.4.4,0,0,0,.1.3.34.34,0,0,0,.24.11.49.49,0,0,0,.25-.08Z" />
      <path d="M28.84,62.24l-.46,1.41a.81.81,0,0,0-.57-.3.62.62,0,0,0-.45.2,2.06,2.06,0,0,0-.37.75V66H25.76V62H27v1a1.94,1.94,0,0,1,.42-.69A.86.86,0,0,1,28.1,62a.87.87,0,0,1,.37.07Z" />
      <path d="M32,65.78a3.33,3.33,0,0,1-.53.2,2.57,2.57,0,0,1-.65.1c-.89,0-1.34-.5-1.34-1.49V63h-.56v-.25l1.66-1.92h.14V62h1.19v1H30.68v1.27a1.73,1.73,0,0,0,0,.36.36.36,0,0,0,.13.23.55.55,0,0,0,.34.09,1.64,1.64,0,0,0,.78-.28Z" />
    </g>
    <g>
      <path d="M18.66,71.24a1.67,1.67,0,0,1-.23.88,1.61,1.61,0,0,1-.64.57,2.16,2.16,0,0,1-.94.19,2.43,2.43,0,0,1-.36,0,2.92,2.92,0,0,1-.57-.12,3.43,3.43,0,0,1-.74-.29V71.13a4.4,4.4,0,0,0,.71.42,1.71,1.71,0,0,0,.74.17.61.61,0,0,0,.48-.14.47.47,0,0,0,.11-.26A.44.44,0,0,0,17,71a2.14,2.14,0,0,0-.54-.31,4,4,0,0,1-.68-.41,1.85,1.85,0,0,1-.49-.55,1.65,1.65,0,0,1-.18-.79,1.62,1.62,0,0,1,.19-.79,1.29,1.29,0,0,1,.57-.56,2,2,0,0,1,1-.22,2.89,2.89,0,0,1,.74.09,3.56,3.56,0,0,1,.56.2l.3.17v1.27a3.62,3.62,0,0,0-.65-.42,1.6,1.6,0,0,0-.77-.19.54.54,0,0,0-.39.12.36.36,0,0,0-.12.28.38.38,0,0,0,.12.28,2.07,2.07,0,0,0,.43.29,8.23,8.23,0,0,1,.88.52,1.93,1.93,0,0,1,.52.55A1.45,1.45,0,0,1,18.66,71.24Z" />
      <path d="M22.15,72.58a2.63,2.63,0,0,1-.53.21,2.47,2.47,0,0,1-.64.09c-.9,0-1.34-.49-1.34-1.48V69.81h-.56v-.24l1.66-1.92h.14v1.19h1.18v1H20.88v1.28a3.36,3.36,0,0,0,0,.36.35.35,0,0,0,.14.22.48.48,0,0,0,.34.1,1.77,1.77,0,0,0,.77-.28Z" />
      <path d="M26.53,70.82a2.39,2.39,0,0,1-.23,1.06,1.71,1.71,0,0,1-.68.73,2.38,2.38,0,0,1-2.2,0,1.71,1.71,0,0,1-.68-.73,2.39,2.39,0,0,1-.23-1.06,2.66,2.66,0,0,1,.13-.82,1.86,1.86,0,0,1,.38-.65,1.76,1.76,0,0,1,.63-.43,2.6,2.6,0,0,1,1.74,0,1.6,1.6,0,0,1,.63.43,1.92,1.92,0,0,1,.38.65A2.66,2.66,0,0,1,26.53,70.82Zm-1.31,0a1.33,1.33,0,0,0-.18-.74.64.64,0,0,0-1,0,1.61,1.61,0,0,0,0,1.48.57.57,0,0,0,.52.28.58.58,0,0,0,.52-.27A1.36,1.36,0,0,0,25.22,70.82Z" />
      <path d="M31,70.8a3.32,3.32,0,0,1-.1.77,2.28,2.28,0,0,1-.31.67,1.47,1.47,0,0,1-.52.47,1.54,1.54,0,0,1-.75.17,1.34,1.34,0,0,1-.54-.08,2,2,0,0,1-.4-.22v2H27.13V68.84h1.23v.36a1.7,1.7,0,0,1,.41-.31,1.37,1.37,0,0,1,.62-.12,1.46,1.46,0,0,1,.74.21,1.6,1.6,0,0,1,.61.67A2.45,2.45,0,0,1,31,70.8Zm-1.31,0a1.42,1.42,0,0,0-.1-.59.69.69,0,0,0-.25-.32.6.6,0,0,0-.33-.1.74.74,0,0,0-.36.08,1.56,1.56,0,0,0-.27.2v1.52l.14.09.15.08a.44.44,0,0,0,.16.06.57.57,0,0,0,.18,0,.59.59,0,0,0,.49-.29A1.3,1.3,0,0,0,29.67,70.83Z" />
    </g>
  </g>
  <g /></svg>