<?xml version="1.0" encoding="UTF-8" standalone="no"?>
<svg
   width="20.32mm"
   height="130.55mm"
   viewBox="0 0 57.6 370.07"
   version="1.1"
   id="svg45"
   sodipodi:docname="Gate_artwork.svg"
   inkscape:version="1.4.2 (ebf0e940, 2025-05-08)"
   xmlns:inkscape="http://www.inkscape.org/namespaces/inkscape"
   xmlns:sodipodi="http://sodipodi.sourceforge.net/DTD/sodipodi-0.dtd"
   xmlns="http://www.w3.org/2000/svg"
   xmlns:svg="http://www.w3.org/2000/svg">
  <sodipodi:namedview
     id="namedview45"
     pagecolor="#ffffff"
     bordercolor="#666666"
     borderopacity="1.0"
     inkscape:showpageshadow="2"
     inkscape:pageopacity="0.0"
     inkscape:pagecheckerboard="0"
     inkscape:deskcolor="#d1d1d1"
     inkscape:document-units="mm"
     inkscape:zoom="0.95659388"
     inkscape:cx="53.314161"
     inkscape:cy="420.76372"
     inkscape:window-width="1312"
     inkscape:window-height="730"
     inkscape:window-x="416"
     inkscape:window-y="194"
     inkscape:window-maximized="0"
     inkscape:current-layer="text" />
  <defs
     id="defs4">
    <clipPath
       id="clippath">
      <rect
         x="14.91"
         y="33.17"
         width="27.78"
         height="25.51"
         style="fill: none; stroke-width: 0px;"
         id="rect1" />
    </clipPath>
    <clipPath
       id="clippath-1">
      <rect
         x="14.91"
         y="33.17"
         width="27.78"
         height="25.51"
         style="fill: none; stroke-width: 0px;"
         id="rect2" />
    </clipPath>
    <clipPath
       id="clippath-2">
      <rect
         x="14.91"
         y="81.21"
         width="27.78"
         height="25.51"
         style="fill: none; stroke-width: 0px;"
         id="rect3" />
    </clipPath>
    <clipPath
       id="clippath-3">
      <rect
         x="14.91"
         y="81.21"
         width="27.78"
         height="25.51"
         style="fill: none; stroke-width: 0px;"
         id="rect4" />
    </clipPath>
  </defs>
  <g
     id="faceplate">
    <g
       id="g5">
      <path
         id="rect5"
         style="fill:#ededed;stroke-width:0px"
         d="m 0.13,0.12 h 57.349998 v 364 H 0.13 Z" />
      <path
         d="M57.35.25v363.75H.25V.25h57.1M57.6,0H0v364.25h57.6V0h0Z"
         style="fill: #9d9d9e; stroke-width: 0px;"
         id="path5" />
    </g>
    <g
       id="graphics">
      <g
         id="art">
        <path
           d="M28.8,152.65c8.05,0,14.59,6.08,14.59,13.54v157.37H14.21v-157.37c0-7.47,6.55-13.54,14.59-13.54M28.8,151.65c-8.61,0-15.59,6.51-15.59,14.54v158.37s31.18,0,31.18,0v-158.37c0-8.03-6.98-14.54-15.59-14.54h0Z"
           style="fill: #000; stroke-width: 0px;"
           id="path6" />
        <path
           d="M44.39,310.8c0-8.05-6.98-14.57-15.59-14.57s-15.59,6.53-15.59,14.57v5.36s0,0,0,0v19.77c0,3.11,2.55,5.65,5.67,5.65h19.84c3.12,0,5.67-2.54,5.67-5.65v-19.77s0,0,0,0v-5.35Z"
           style="fill: #000; stroke-width: 0px;"
           id="path7" />
        <g
           id="g10"
           transform="translate(0,8.6069709)">
          <path
             d="m 20.6,18.19 c -0.37,0 -0.71,-0.17 -0.97,-0.47 -0.51,-0.6 -0.52,-1.54 -0.04,-2.16 l 6.97,-8.88 c 0.38,-0.48 1.05,-0.65 1.57,-0.39 0.5,0.25 0.79,0.82 0.79,1.45 v 4.77 l 4.64,-5.85 c 0.38,-0.48 1.01,-0.64 1.53,-0.38 0.5,0.25 0.83,0.81 0.83,1.44 v 8.82 c 0,0.86 -0.61,1.57 -1.36,1.57 -0.75,0 -1.36,-0.7 -1.36,-1.57 v -4.79 l -4.64,5.85 c -0.38,0.48 -1.01,0.64 -1.54,0.38 -0.5,-0.24 -0.83,-0.81 -0.83,-1.44 v -4.67 l -4.61,5.8 c -0.26,0.32 -0.62,0.51 -1,0.51 v 0 z"
             style="fill:#2cabe1;stroke-width:0px"
             id="path8" />
          <path
             d="m 20.6,18.19 c -0.75,0 -1.35,-0.7 -1.35,-1.57 v -4.93 l -2.26,2.84 c -0.5,0.63 -1.44,0.65 -1.97,0.04 -0.51,-0.6 -0.52,-1.53 -0.03,-2.15 L 19.6,6.66 c 0.26,-0.32 0.63,-0.5 1,-0.5 0.18,0 0.37,0.04 0.54,0.12 0.5,0.25 0.82,0.81 0.82,1.44 v 8.89 c 0,0.86 -0.61,1.57 -1.36,1.57 v 0 z"
             style="fill:#ea2228;stroke-width:0px"
             id="path9" />
          <path
             d="m 37.2,18.21 v 0 c -0.35,0 -0.68,-0.15 -0.94,-0.42 -0.76,-0.78 -0.14,-1.84 0.29,-2.3 L 38.5,13.13 37.24,13.11 C 36.68,13.1 36.2,12.71 36,12.11 35.81,11.55 35.93,10.9 36.29,10.47 L 39.45,6.64 C 39.68,6.36 40,6.16 40.58,6.17 c 0.33,0 0.67,0.17 0.92,0.4 0.71,0.66 0.29,1.7 -0.07,2.2 l -1.04,1.26 1.26,0.02 c 0.56,0.01 1.04,0.4 1.24,1 0.19,0.56 0.07,1.21 -0.29,1.64 l -4.1,4.97 c -0.35,0.35 -0.65,0.55 -1.3,0.54 v 0 z"
             style="fill:#00a650;stroke-width:0px"
             id="path10" />
        </g>
      </g>
      <g
         id="text">
        <path
           d="m 21.582761,350.01854 q -0.198194,0.0913 -0.339131,0.15039 -0.140937,0.0591 -0.273066,0.10745 -0.127725,0.0484 -0.374365,0.12354 -0.418409,0.11816 -0.836816,0.17724 -0.414004,0.0645 -0.876456,0.0645 -0.929306,0 -1.717675,-0.41357 -0.788368,-0.41357 -1.264032,-1.2837 -0.471259,-0.87011 -0.471259,-2.13769 0,-0.8164 0.242236,-1.60058 0.24664,-0.78955 0.74873,-1.26221 0.414004,-0.39209 0.836816,-0.59619 0.427217,-0.20947 0.832412,-0.2793 0.405195,-0.0698 0.894071,-0.0698 0.805987,0 1.330098,0.15039 0.524111,0.14502 1.149521,0.38672 v 1.76172 q -0.414004,-0.29541 -0.876455,-0.49414 -0.462451,-0.19873 -1.153925,-0.19873 -0.797178,0 -1.277246,0.37061 -0.475664,0.36523 -0.665049,0.87549 -0.18498,0.51025 -0.18498,0.98827 0,0.56396 0.215811,1.042 0.21581,0.47265 0.651835,0.7627 0.436025,0.28465 1.052626,0.28465 0.352345,0 0.748731,-0.11279 v -0.87548 h -0.828008 v -1.49853 h 2.435576 z m 8.024626,0.52637 h -1.885039 l -0.497685,-1.50928 h -2.651386 l -0.506494,1.50928 h -1.885039 l 2.699834,-7.44433 h 2.034785 z m -2.805536,-2.80371 -0.894073,-2.71778 -0.90288,2.71778 z m 8.566354,-2.83057 h -2.237382 v 5.63428 h -1.83659 v -5.63428 H 29.05685 v -1.81005 h 6.311355 z m 5.677136,5.63428 h -4.602488 v -7.44433 h 4.527616 v 1.49315 h -2.686621 v 1.36426 h 2.5633 v 1.49854 h -2.5633 v 1.58984 h 2.761493 z"
           id="text10"
           style="font-weight:700;font-size:9.96092px;font-family:GillSans-Bold, 'Gill Sans';stroke-width:0.905538"
           aria-label="GATE" />
        <path
           d="M 5.9912109,0 H 0.84960938 V -6.7675781 H 2.890625 v 5.1464844 H 5.9912109 Z M 11.587305,-2.0605469 H 8.086328 q 0.1025391,0.4541016 0.5029297,0.7421875 0.4003906,0.288086 0.9082031,0.288086 0.8886722,0 1.9628902,-0.4980469 v 1.08886717 q -0.385742,0.20019532 -0.9375,0.36621094 -0.5468745,0.16113281 -1.3964839,0.16113281 -0.9179688,0 -1.5625,-0.34179687 -0.6445313,-0.34179687 -0.9667969,-0.92773435 -0.3173828,-0.5859375 -0.3173828,-1.328125 0,-0.7324219 0.3173828,-1.3085938 0.3222656,-0.5810547 0.9667969,-0.9082031 0.6445312,-0.3320312 1.5625,-0.3320312 0.6054687,0 1.1669919,0.2636718 0.566407,0.2587891 0.927735,0.8544922 0.366211,0.5908203 0.366211,1.5283203 z M 9.936914,-2.9296875 q 0,-0.4785156 -0.2392578,-0.7617188 -0.234375,-0.2880859 -0.678711,-0.2880859 -0.4394531,0 -0.7128906,0.2929688 -0.2685547,0.2880859 -0.2685547,0.7568359 z M 17.359179,0 h -1.757812 v -2.6806641 q 0,-0.4101562 -0.136719,-0.7128906 -0.131836,-0.3076172 -0.585937,-0.3076172 -0.214844,0 -0.38086,0.083008 -0.161132,0.078125 -0.292968,0.2050782 -0.126954,0.1269531 -0.214844,0.2441406 -0.08789,0.1171875 -0.180664,0.2490234 V 0 h -1.757813 v -4.9707031 h 1.757813 v 0.7128906 q 0.415039,-0.4443359 0.830078,-0.6201172 0.419922,-0.180664 0.932617,-0.180664 1.787109,0 1.787109,2.1386718 z m 5.654687,-3.9111328 h -0.86914 q 0.458984,0.4003906 0.458984,0.9814453 0,0.3076172 -0.131836,0.5908203 -0.126953,0.2832031 -0.380859,0.5029297 -0.249024,0.2197266 -0.620117,0.3613281 -0.366211,0.1367188 -0.839844,0.1660157 -0.610352,0.024414 -0.610352,0.32714839 0,0.1171875 0.07813,0.17089843 0.07813,0.0537109 0.244141,0.0830078 0.170898,0.0244141 0.571289,0.0585938 0.454102,0.0390625 0.844727,0.13671875 0.390625,0.0976563 0.727539,0.41015625 0.336914,0.3125 0.336914,0.89355468 0,0.46386723 -0.253907,0.82031253 -0.249023,0.3564453 -0.810546,0.5566406 -0.561524,0.2001953 -1.484375,0.2001953 -1.328125,0 -1.953125,-0.3564453 -0.620118,-0.3564453 -0.620118,-0.9521484 0,-0.16113285 0.07813,-0.37109379 0.08301,-0.20996093 0.341797,-0.40527343 Q 18.38496,0.06835937 18.883007,0 18.707226,-0.06347656 18.580273,-0.24414063 18.45332,-0.4296875 18.45332,-0.62988281 q 0,-0.25878907 0.175781,-0.51269529 0.180664,-0.2539063 0.581054,-0.3271485 -0.55664,-0.1464843 -0.961914,-0.5517578 -0.405273,-0.4052734 -0.405273,-1.0498047 0,-0.4882812 0.185547,-0.8544922 0.19043,-0.3662109 0.522461,-0.5957031 0.332031,-0.2294922 0.771484,-0.336914 0.439453,-0.1123047 0.961914,-0.1123047 h 2.729492 z m -1.943359,0.8398437 q 0,-0.3759765 -0.258789,-0.6005859 -0.253906,-0.2294922 -0.571289,-0.2294922 -0.405274,0 -0.639649,0.2734375 -0.229492,0.2734375 -0.229492,0.5761719 0,0.2099609 0.09766,0.390625 0.102539,0.180664 0.283203,0.2929687 0.185547,0.1074219 0.439453,0.1074219 0.380859,0 0.629883,-0.2392578 0.249023,-0.2392578 0.249023,-0.5712891 z m 0.351563,3.99902348 q 0,-0.32714844 -0.351563,-0.42480469 -0.34668,-0.0927734 -0.717773,-0.0927734 -0.610352,0 -0.883789,0.12695312 -0.268555,0.13183594 -0.268555,0.41503907 0,0.55664066 1.123047,0.55664066 0.502929,0 0.800781,-0.1464844 0.297852,-0.1416016 0.297852,-0.43457032 z m 5.742578,-1.21582032 q -0.273437,0.13183594 -0.756836,0.25390625 -0.478516,0.12207031 -0.917969,0.12207031 -1.899414,0 -1.899414,-1.85546872 V -3.75 h -0.795898 v -0.3076172 l 2.358398,-2.4023437 h 0.200196 v 1.4892578 h 1.679687 V -3.75 h -1.679687 v 1.5917969 q 0,0.2783203 0.03418,0.4492187 0.03418,0.1708985 0.19043,0.288086 0.161133,0.1123047 0.483398,0.1123047 0.419922,0 1.103516,-0.3515625 z M 32.84375,0 h -1.757813 v -2.578125 q 0,-0.029297 0,-0.053711 0.0049,-0.029297 0.0049,-0.1171875 0,-0.3564454 -0.151367,-0.6542969 -0.151367,-0.2978516 -0.576172,-0.2978516 -0.332031,0 -0.585937,0.2246094 -0.253907,0.2197266 -0.483399,0.5566406 V 0 h -1.757812 v -6.7675781 h 1.757812 v 2.5097656 q 0.434571,-0.4638672 0.859375,-0.6298828 0.424805,-0.1708984 0.903321,-0.1708984 1.787109,0 1.787109,2.0068359 z"
           id="text11"
           style="font-weight:700;font-size:10px;font-family:GillSans-Bold, 'Gill Sans';letter-spacing:-0.04em"
           transform="translate(14.13 68.76) scale(.88 1)"
           aria-label="Length" />
        <path
           d="m 7.8076172,-3.2617188 q 0,1.0400391 -0.3808594,1.6699219 Q 7.0507812,-0.96191406 6.5380859,-0.57128906 5.8105469,0 4.5019531,0 H 0.84960938 V -6.7675781 H 3.6621094 q 0.6347656,0 1.0839843,0.068359 0.4541016,0.063477 0.8154297,0.1855468 0.3613282,0.1171875 0.6152344,0.2685547 0.2539063,0.1464844 0.4541016,0.3173828 0.3466797,0.2832032 0.6054687,0.6689453 0.2636719,0.3857422 0.4150391,0.8935547 0.15625,0.5078125 0.15625,1.1035156 z m -2.0751953,-0.087891 q 0,-0.8251953 -0.3173828,-1.2841797 -0.3125,-0.4638671 -0.756836,-0.6201171 -0.4394531,-0.15625 -0.8984375,-0.15625 H 2.890625 v 4.008789 h 0.8691406 q 0.8007813,0 1.3867188,-0.3808594 0.5859375,-0.3808593 0.5859375,-1.5673828 z m 7.7445311,1.2890625 H 9.9759765 q 0.1025395,0.4541016 0.5029295,0.7421875 0.400391,0.288086 0.908203,0.288086 0.888672,0 1.962891,-0.4980469 v 1.08886717 q -0.385742,0.20019532 -0.9375,0.36621094 -0.546875,0.16113281 -1.396484,0.16113281 -0.917969,0 -1.5625005,-0.34179687 -0.6445312,-0.34179687 -0.9667968,-0.92773435 -0.3173829,-0.5859375 -0.3173829,-1.328125 0,-0.7324219 0.3173829,-1.3085938 0.3222656,-0.5810547 0.9667968,-0.9082031 0.6445315,-0.3320312 1.5625005,-0.3320312 0.605468,0 1.166992,0.2636718 0.566406,0.2587891 0.927734,0.8544922 0.366211,0.5908203 0.366211,1.5283203 z m -1.650391,-0.8691406 q 0,-0.4785156 -0.239257,-0.7617188 -0.234375,-0.2880859 -0.678711,-0.2880859 -0.439453,0 -0.712891,0.2929688 -0.2685547,0.2880859 -0.2685547,0.7568359 z M 15.791797,0 h -1.762696 v -6.7675781 h 1.762696 z m 5.967187,-0.24902344 q -0.385743,0.15136719 -0.712891,0.24414063 -0.327148,0.09277343 -0.786133,0.09277343 -0.43457,0 -0.605469,-0.15136718 -0.170898,-0.15625 -0.24414,-0.37597657 -0.283203,0.22949219 -0.629883,0.38085938 -0.34668,0.14648437 -0.908203,0.14648437 -0.541992,0 -0.878906,-0.18554687 -0.332032,-0.19042969 -0.46875,-0.47363281 -0.131836,-0.28808594 -0.131836,-0.59082034 0,-0.4589843 0.229492,-0.7568359 0.234375,-0.3027344 0.625,-0.4931641 0.390625,-0.1904297 1.035156,-0.3955078 0.366211,-0.1171875 0.551758,-0.1757812 0.19043,-0.063477 0.283203,-0.097656 0.09277,-0.03418 0.195313,-0.087891 0,-0.3613281 -0.146485,-0.5664063 -0.146484,-0.2050781 -0.634765,-0.2050781 -0.576172,0 -1.069336,0.2539063 -0.493164,0.2539062 -0.903321,0.6542968 v -1.3476562 q 0.327149,-0.234375 0.708008,-0.3808594 0.380859,-0.1513672 0.795899,-0.2246094 0.415039,-0.073242 0.839843,-0.073242 1.079102,0 1.621094,0.4199218 0.546875,0.4150391 0.546875,1.147461 v 1.9189453 q 0,0.2734375 0.04883,0.4101562 0.05371,0.131836 0.19043,0.131836 0.166015,0 0.449219,-0.1416016 z M 19.312695,-1.2011719 v -1.1767578 q -0.625,0.2539063 -0.913086,0.4589844 -0.288086,0.2001953 -0.288086,0.546875 0,0.2490234 0.141601,0.38085936 0.146485,0.13183594 0.336914,0.13183594 0.180664,0 0.356446,-0.0976563 0.180664,-0.10253905 0.366211,-0.24414065 z M 27.23789,-4.9707031 23.858984,2.2607422 H 22.08164 l 1.367188,-2.91015626 -1.967774,-4.32128904 h 1.889649 L 24.381445,-2.5 25.528906,-4.9707031 Z"
           id="text12"
           style="font-weight:700;font-size:10px;font-family:GillSans-Bold, 'Gill Sans';letter-spacing:-0.04em"
           transform="translate(16.82 116.95) scale(.88 1)"
           aria-label="Delay" />
        <path
           d="M 4.7929687,0 H 0.6796875 V -5.4140625 H 2.3125 V -1.296875 H 4.7929687 Z M 9.2698436,-1.6484375 H 6.4690623 q 0.082031,0.3632813 0.4023438,0.59375 0.3203125,0.23046875 0.7265625,0.23046875 0.7109375,0 1.5703125,-0.39843745 v 0.8710937 q -0.3085938,0.16015625 -0.75,0.29296875 -0.4375,0.12890625 -1.1171875,0.12890625 -0.734375,0 -1.25,-0.2734375 -0.515625,-0.2734375 -0.7734375,-0.7421875 -0.2539063,-0.46875 -0.2539063,-1.0625 0,-0.5859375 0.2539063,-1.046875 0.2578125,-0.4648438 0.7734375,-0.7265625 0.515625,-0.265625 1.25,-0.265625 0.484375,0 0.9335937,0.2109375 0.453125,0.2070312 0.7421875,0.6835937 0.2929688,0.4726563 0.2929688,1.2226563 z M 7.9495311,-2.34375 q 0,-0.3828125 -0.1914063,-0.609375 -0.1875,-0.2304688 -0.5429687,-0.2304688 -0.3515625,0 -0.5703125,0.234375 Q 6.4299998,-2.71875 6.4299998,-2.34375 Z M 13.887343,0 h -1.40625 v -2.1445313 q 0,-0.328125 -0.109375,-0.5703125 -0.105468,-0.2460937 -0.46875,-0.2460937 -0.171875,0 -0.304687,0.066406 -0.128906,0.0625 -0.234375,0.1640625 -0.101563,0.1015625 -0.171875,0.1953125 -0.07031,0.09375 -0.144531,0.1992188 V 0 H 9.6412497 V -3.9765625 H 11.0475 V -3.40625 q 0.332031,-0.3554688 0.664062,-0.4960938 0.335938,-0.1445312 0.746094,-0.1445312 1.429687,0 1.429687,1.7109375 z m 4.523751,-3.1289063 h -0.695313 q 0.367188,0.3203125 0.367188,0.7851563 0,0.2460937 -0.105469,0.4726563 -0.101563,0.2265625 -0.304688,0.4023437 -0.199218,0.1757813 -0.496093,0.2890625 -0.292969,0.109375 -0.671875,0.1328125 -0.488282,0.019531 -0.488282,0.26171875 0,0.09375 0.0625,0.13671875 0.0625,0.0429687 0.195313,0.0664063 0.136719,0.0195313 0.457031,0.046875 0.363281,0.03125 0.675781,0.109375 0.3125,0.078125 0.582032,0.328125 0.269531,0.25 0.269531,0.71484375 0,0.37109375 -0.203125,0.65625 -0.199219,0.2851562 -0.648438,0.4453125 -0.449218,0.1601562 -1.1875,0.1601562 -1.0625,0 -1.5625,-0.2851562 -0.496093,-0.2851563 -0.496093,-0.76171875 0,-0.12890625 0.0625,-0.296875 Q 14.29,0.3671875 14.497031,0.2109375 14.707969,0.0546875 15.106406,0 14.965781,-0.05078125 14.864219,-0.1953125 14.762656,-0.34375 14.762656,-0.50390625 q 0,-0.20703125 0.140625,-0.41015625 0.144531,-0.203125 0.464844,-0.2617187 -0.445313,-0.1171875 -0.769531,-0.4414063 -0.324219,-0.3242187 -0.324219,-0.8398438 0,-0.390625 0.148437,-0.6835937 0.152344,-0.2929688 0.417969,-0.4765625 0.265625,-0.1835938 0.617188,-0.2695313 0.351562,-0.089844 0.769531,-0.089844 h 2.183594 z m -1.554688,0.671875 q 0,-0.3007812 -0.207031,-0.4804687 -0.203125,-0.1835938 -0.457031,-0.1835938 -0.324219,0 -0.511719,0.21875 -0.183594,0.21875 -0.183594,0.4609375 0,0.1679688 0.07813,0.3125 0.08203,0.1445313 0.226563,0.2343751 0.148437,0.085937 0.351562,0.085937 0.304688,0 0.503906,-0.1914063 0.199219,-0.1914063 0.199219,-0.4570313 z m 0.28125,3.1992188 q 0,-0.26171875 -0.28125,-0.33984375 -0.277344,-0.0742188 -0.574219,-0.0742188 -0.488281,0 -0.707031,0.1015625 -0.214844,0.10546875 -0.214844,0.33203125 0,0.44531245 0.898438,0.44531245 0.402344,0 0.640625,-0.1171875 0.238281,-0.1132812 0.238281,-0.3476562 z m 4.594062,-0.97265625 q -0.21875,0.10546875 -0.605469,0.203125 -0.382812,0.09765625 -0.734375,0.09765625 -1.519531,0 -1.519531,-1.484375 V -3 h -0.636719 v -0.2460938 l 1.886719,-1.9218749 h 0.160156 v 1.1914062 h 1.34375 V -3 h -1.34375 v 1.2734375 q 0,0.2226563 0.02734,0.359375 0.02734,0.1367188 0.152344,0.2304688 0.128906,0.089844 0.386719,0.089844 0.335937,0 0.882812,-0.28125 z M 26.275,0 h -1.40625 v -2.0625 q 0,-0.023437 0,-0.042969 0.0039,-0.023437 0.0039,-0.09375 0,-0.2851562 -0.121094,-0.5234375 -0.121094,-0.2382812 -0.460937,-0.2382812 -0.265625,0 -0.46875,0.1796875 -0.203125,0.1757812 -0.386719,0.4453125 V 0 h -1.40625 v -5.4140625 h 1.40625 V -3.40625 q 0.347656,-0.3710938 0.6875,-0.5039063 0.339844,-0.1367187 0.722656,-0.1367187 1.429688,0 1.429688,1.6054687 z"
           id="text13"
           style="font-weight:700;font-size:8px;font-family:GillSans-Bold, 'Gill Sans';letter-spacing:-0.04em"
           transform="translate(17.07 192.92) scale(.88 1)"
           aria-label="Length" />
        <path
           d="m 6.2460937,-2.609375 q 0,0.8320313 -0.3046875,1.3359375 Q 5.640625,-0.76953125 5.2304687,-0.45703125 4.6484375,0 3.6015625,0 h -2.921875 v -5.4140625 h 2.25 q 0.5078125,0 0.8671875,0.054687 0.3632812,0.050781 0.6523437,0.1484375 0.2890625,0.09375 0.4921875,0.2148438 0.203125,0.1171875 0.3632813,0.2539062 0.2773437,0.2265625 0.484375,0.5351563 Q 6,-3.8984375 6.1210937,-3.4921875 q 0.125,0.40625 0.125,0.8828125 z m -1.6601562,-0.070312 q 0,-0.6601563 -0.2539063,-1.0273438 -0.25,-0.3710937 -0.6054687,-0.4960937 -0.3515625,-0.125 -0.71875,-0.125 H 2.3125 v 3.2070313 h 0.6953125 q 0.640625,0 1.109375,-0.3046875 0.46875,-0.3046875 0.46875,-1.2539063 z m 6.1956245,1.03125 H 7.9807811 q 0.082031,0.3632813 0.4023437,0.59375 0.3203125,0.23046875 0.7265625,0.23046875 0.7109375,0 1.5703127,-0.39843745 v 0.8710937 q -0.308594,0.16015625 -0.7500002,0.29296875 -0.4375,0.12890625 -1.1171875,0.12890625 -0.734375,0 -1.25,-0.2734375 -0.515625,-0.2734375 -0.7734375,-0.7421875 -0.2539062,-0.46875 -0.2539062,-1.0625 0,-0.5859375 0.2539062,-1.046875 0.2578125,-0.4648438 0.7734375,-0.7265625 0.515625,-0.265625 1.25,-0.265625 0.484375,0 0.9335938,0.2109375 0.4531249,0.2070312 0.7421879,0.6835937 0.292968,0.4726563 0.292968,1.2226563 z M 9.4612498,-2.34375 q 0,-0.3828125 -0.1914062,-0.609375 -0.1875,-0.2304688 -0.5429688,-0.2304688 -0.3515625,0 -0.5703125,0.234375 Q 7.9417186,-2.71875 7.9417186,-2.34375 Z M 12.633437,0 h -1.410156 v -5.4140625 h 1.410156 z m 4.77375,-0.19921875 q -0.308593,0.12109375 -0.570312,0.1953125 -0.261719,0.07421875 -0.628906,0.07421875 -0.347657,0 -0.484375,-0.12109375 -0.136719,-0.125 -0.195313,-0.30078125 -0.226562,0.18359375 -0.503906,0.3046875 -0.277344,0.1171875 -0.726563,0.1171875 -0.433593,0 -0.703125,-0.1484375 -0.265625,-0.15234375 -0.375,-0.37890625 Q 13.114219,-0.6875 13.114219,-0.9296875 q 0,-0.3671875 0.183593,-0.6054687 0.1875,-0.2421875 0.5,-0.3945313 0.3125,-0.1523438 0.828125,-0.3164063 0.292969,-0.09375 0.441407,-0.140625 0.152343,-0.050781 0.226562,-0.078125 0.07422,-0.027344 0.15625,-0.070312 0,-0.2890625 -0.117187,-0.453125 -0.117188,-0.1640625 -0.507813,-0.1640625 -0.460937,0 -0.855469,0.203125 -0.394531,0.203125 -0.722656,0.5234375 v -1.078125 q 0.261719,-0.1875 0.566406,-0.3046875 0.304688,-0.1210937 0.636719,-0.1796875 0.332031,-0.058594 0.671875,-0.058594 0.863281,0 1.296875,0.3359375 0.4375,0.3320312 0.4375,0.9179687 v 1.5351563 q 0,0.21875 0.03906,0.328125 0.04297,0.10546875 0.152343,0.10546875 0.132813,0 0.359375,-0.11328125 z M 15.450156,-0.9609375 v -0.9414062 q -0.5,0.203125 -0.730469,0.3671875 -0.230468,0.1601562 -0.230468,0.4375 0,0.1992187 0.113281,0.30468745 0.117187,0.10546875 0.269531,0.10546875 0.144531,0 0.285156,-0.078125 0.144532,-0.0820313 0.292969,-0.1953125 z m 6.340156,-3.015625 -2.703125,5.7851562 h -1.421875 l 1.09375,-2.32812495 -1.574219,-3.45703125 h 1.511719 L 19.505156,-2 20.423124,-3.9765625 Z"
           id="text14"
           style="font-weight:700;font-size:8px;font-family:GillSans-Bold, 'Gill Sans';letter-spacing:-0.04em"
           transform="translate(19.21 241.06) scale(.88 1)"
           aria-label="Delay" />
        <path
           d="M 2.3203125,0 H 0.6875 v -5.4140625 h 1.6328125 z m 5.0628126,0 h -1.40625 v -2.1445313 q 0,-0.328125 -0.109375,-0.5703125 -0.1054688,-0.2460937 -0.46875,-0.2460937 -0.171875,0 -0.3046875,0.066406 -0.1289063,0.0625 -0.234375,0.1640625 -0.1015625,0.1015625 -0.171875,0.1953125 -0.070312,0.09375 -0.1445313,0.1992188 V 0 h -1.40625 v -3.9765625 h 1.40625 V -3.40625 q 0.3320313,-0.3554688 0.6640625,-0.4960938 0.3359375,-0.1445312 0.7460938,-0.1445312 1.4296875,0 1.4296875,1.7109375 z m 4.8909379,-2.015625 q 0,0.3984375 -0.113282,0.7695313 -0.113281,0.3710937 -0.347656,0.67187495 -0.230469,0.296875 -0.597656,0.47265625 -0.363281,0.171875 -0.847656,0.171875 -0.3906254,0 -0.6171879,-0.08203125 Q 9.5279689,-0.09375 9.3053126,-0.23046875 V 1.8085937 h -1.40625 v -5.7851562 h 1.40625 v 0.359375 q 0.2109375,-0.1835938 0.4648438,-0.3046875 0.2578126,-0.125 0.6953126,-0.125 0.433594,0 0.851562,0.2148437 0.417969,0.2148438 0.6875,0.671875 0.269532,0.453125 0.269532,1.1445313 z m -1.480469,0.03125 q 0,-0.359375 -0.113281,-0.5820313 -0.113282,-0.2265625 -0.292969,-0.3242187 -0.179688,-0.1015625 -0.371094,-0.1015625 -0.2499999,0 -0.4101561,0.082031 -0.1601563,0.078125 -0.3007813,0.1992188 v 1.5195313 q 0.074219,0.039063 0.15625,0.089844 0.085937,0.046875 0.1679688,0.082031 0.085937,0.0351562 0.1796875,0.0585937 0.097656,0.0234375 0.2070311,0.0234375 0.332031,0 0.554688,-0.28125 Q 10.793594,-1.5 10.793594,-1.984375 Z M 16.875937,0 h -1.410156 v -0.56640625 q -0.296875,0.3203125 -0.625,0.48046875 -0.324219,0.15625 -0.78125,0.15625 -0.902344,0 -1.167969,-0.5234375 -0.265625,-0.52734375 -0.265625,-1.1875 v -2.3359375 h 1.410157 v 2.1484375 q 0,0.3242188 0.105468,0.5703125 0.109375,0.2421875 0.46875,0.2421875 0.308594,0 0.488282,-0.1757812 0.179687,-0.1757813 0.367187,-0.4492188 v -2.3359375 h 1.410156 z m 3.715156,-0.23046875 q -0.21875,0.10546875 -0.605469,0.203125 -0.382812,0.09765625 -0.734375,0.09765625 -1.519531,0 -1.519531,-1.484375 V -3 h -0.636719 v -0.2460938 l 1.886719,-1.9218749 h 0.160156 v 1.1914062 h 1.34375 V -3 h -1.34375 v 1.2734375 q 0,0.2226563 0.02734,0.359375 0.02734,0.1367188 0.152344,0.2304688 0.128906,0.089844 0.386719,0.089844 0.335937,0 0.882812,-0.28125 z"
           id="text15"
           style="font-weight:700;font-size:8px;font-family:GillSans-Bold, 'Gill Sans';letter-spacing:-0.04em"
           transform="translate(19.67 289.25) scale(.88 1)"
           aria-label="Input" />
        <path
           d="m 6.4726562,-2.7109375 q 0,0.7578125 -0.3515625,1.3945313 -0.3476562,0.6367187 -1.0390625,1.0117187 -0.6914062,0.375 -1.6835937,0.375 -1.0039062,0 -1.6992188,-0.390625 Q 1.0039062,-0.7109375 0.6640625,-1.3476562 0.328125,-1.984375 0.328125,-2.7109375 q 0,-0.7304688 0.3359375,-1.3632812 Q 1,-4.7109375 1.6953125,-5.0976562 q 0.6992188,-0.390625 1.703125,-0.390625 0.75,0 1.3359375,0.2226562 0.5898437,0.2226563 0.96875,0.6054688 0.3789062,0.3789062 0.5742187,0.8867187 0.1953125,0.5039062 0.1953125,1.0625 z m -1.6640625,0 q 0,-0.3046875 -0.089844,-0.5546875 -0.089844,-0.2539063 -0.2734375,-0.4375 -0.1796875,-0.1875 -0.4414063,-0.2890625 -0.2617187,-0.1054687 -0.6054687,-0.1054687 -0.65625,0 -1.03125,0.3828124 -0.375,0.3828125 -0.375,1.0039063 0,0.6210937 0.375,1.0078125 0.3789063,0.3828125 1.03125,0.3828125 0.4492188,0 0.765625,-0.1757812 0.3164062,-0.1796875 0.4804687,-0.4921875 0.1640625,-0.3164063 0.1640625,-0.7226563 z M 11.129219,0 H 9.7190623 v -0.56640625 q -0.296875,0.3203125 -0.625,0.48046875 -0.3242187,0.15625 -0.78125,0.15625 -0.9023437,0 -1.1679687,-0.5234375 -0.265625,-0.52734375 -0.265625,-1.1875 v -2.3359375 h 1.4101562 v 2.1484375 q 0,0.3242188 0.1054688,0.5703125 0.109375,0.2421875 0.46875,0.2421875 0.3085937,0 0.4882812,-0.1757812 0.1796875,-0.1757813 0.3671875,-0.4492188 v -2.3359375 h 1.4101567 z m 3.715156,-0.23046875 q -0.21875,0.10546875 -0.605469,0.203125 -0.382813,0.09765625 -0.734375,0.09765625 -1.519531,0 -1.519531,-1.484375 V -3 H 11.348281 V -3.2460938 L 13.235,-5.1679687 h 0.160156 v 1.1914062 h 1.34375 V -3 h -1.34375 v 1.2734375 q 0,0.2226563 0.02734,0.359375 0.02734,0.1367188 0.152343,0.2304688 0.128907,0.089844 0.386719,0.089844 0.335938,0 0.882813,-0.28125 z"
           id="text16"
           style="font-weight:700;font-size:8px;font-family:GillSans-Bold, 'Gill Sans';letter-spacing:-0.04em;fill:#ffffff"
           transform="translate(22.19 337.4) scale(.88 1)"
           aria-label="Out" />
      </g>
      <g
         id="pips_-_fewest"
         data-name="pips - fewest">
        <g
           style="clip-path: url(#clippath);"
           clip-path="url(#clippath)"
           id="g26">
          <g
             style="clip-path: url(#clippath-1);"
             clip-path="url(#clippath-1)"
             id="g25">
            <path
               d="M34.49,35.93l.71-1.23c-1.74-.9-3.69-1.45-5.77-1.54v1.42c1.81.09,3.52.56,5.05,1.35"
               style="fill: #000; stroke-width: 0px;"
               id="path16" />
            <path
               d="M39.28,40.25l1.23-.71c-1.09-1.69-2.53-3.12-4.22-4.21l-.71,1.23c1.48.96,2.74,2.21,3.7,3.69"
               style="fill: #000; stroke-width: 0px;"
               id="path17" />
            <path
               d="M22.02,36.56l-.71-1.23c-1.69,1.08-3.14,2.52-4.22,4.2l1.23.71c.96-1.47,2.22-2.73,3.7-3.69"
               style="fill: #000; stroke-width: 0px;"
               id="path18" />
            <path
               d="M41.26,46.38h1.43c-.09-2.07-.64-4.01-1.54-5.75l-1.23.71c.79,1.52,1.26,3.23,1.35,5.04"
               style="fill: #000; stroke-width: 0px;"
               id="path19" />
            <path
               d="M28.17,34.59v-1.42c-2.07.09-4.03.64-5.77,1.54l.71,1.23c1.53-.78,3.24-1.25,5.05-1.35"
               style="fill: #000; stroke-width: 0px;"
               id="path20" />
            <path
               d="M18.32,53.76l-1.23.71c1.09,1.69,2.53,3.12,4.22,4.21l.71-1.23c-1.48-.96-2.74-2.21-3.7-3.69"
               style="fill: #000; stroke-width: 0px;"
               id="path21" />
            <path
               d="M35.58,57.45l.71,1.23c1.69-1.08,3.14-2.52,4.22-4.2l-1.23-.71c-.96,1.47-2.22,2.73-3.7,3.69"
               style="fill: #000; stroke-width: 0px;"
               id="path22" />
            <path
               d="M41.26,47.64c-.09,1.81-.56,3.51-1.35,5.04l1.23.71c.9-1.73,1.45-3.68,1.54-5.75h-1.43Z"
               style="fill: #000; stroke-width: 0px;"
               id="path23" />
            <path
               d="M16.34,47.64h-1.43c.09,2.07.64,4.01,1.54,5.75l1.23-.71c-.79-1.52-1.26-3.23-1.35-5.04"
               style="fill: #000; stroke-width: 0px;"
               id="path24" />
            <path
               d="M17.69,41.34l-1.23-.71c-.9,1.73-1.45,3.68-1.54,5.75h1.43c.09-1.81.56-3.51,1.35-5.04"
               style="fill: #000; stroke-width: 0px;"
               id="path25" />
          </g>
        </g>
      </g>
      <g
         id="pips_-_fewest-2"
         data-name="pips - fewest">
        <g
           style="clip-path: url(#clippath-2);"
           clip-path="url(#clippath-2)"
           id="g36">
          <g
             style="clip-path: url(#clippath-3);"
             clip-path="url(#clippath-3)"
             id="g35">
            <path
               d="M34.49,83.98l.71-1.23c-1.74-.9-3.69-1.45-5.77-1.54v1.42c1.81.09,3.52.56,5.05,1.35"
               style="fill: #000; stroke-width: 0px;"
               id="path26" />
            <path
               d="M39.28,88.3l1.23-.71c-1.09-1.69-2.53-3.12-4.22-4.21l-.71,1.23c1.48.96,2.74,2.21,3.7,3.69"
               style="fill: #000; stroke-width: 0px;"
               id="path27" />
            <path
               d="M22.02,84.61l-.71-1.23c-1.69,1.08-3.14,2.52-4.22,4.2l1.23.71c.96-1.47,2.22-2.73,3.7-3.69"
               style="fill: #000; stroke-width: 0px;"
               id="path28" />
            <path
               d="M41.26,94.42h1.43c-.09-2.07-.64-4.01-1.54-5.75l-1.23.71c.79,1.52,1.26,3.23,1.35,5.04"
               style="fill: #000; stroke-width: 0px;"
               id="path29" />
            <path
               d="M28.17,82.63v-1.42c-2.07.09-4.03.64-5.77,1.54l.71,1.23c1.53-.78,3.24-1.25,5.05-1.35"
               style="fill: #000; stroke-width: 0px;"
               id="path30" />
            <path
               d="M18.32,101.81l-1.23.71c1.09,1.69,2.53,3.12,4.22,4.21l.71-1.23c-1.48-.96-2.74-2.21-3.7-3.69"
               style="fill: #000; stroke-width: 0px;"
               id="path31" />
            <path
               d="M35.58,105.5l.71,1.23c1.69-1.08,3.14-2.52,4.22-4.2l-1.23-.71c-.96,1.47-2.22,2.73-3.7,3.69"
               style="fill: #000; stroke-width: 0px;"
               id="path32" />
            <path
               d="M41.26,95.68c-.09,1.81-.56,3.51-1.35,5.04l1.23.71c.9-1.73,1.45-3.68,1.54-5.75h-1.43Z"
               style="fill: #000; stroke-width: 0px;"
               id="path33" />
            <path
               d="M16.34,95.68h-1.43c.09,2.07.64,4.01,1.54,5.75l1.23-.71c-.79-1.52-1.26-3.23-1.35-5.04"
               style="fill: #000; stroke-width: 0px;"
               id="path34" />
            <path
               d="M17.69,89.39l-1.23-.71c-.9,1.73-1.45,3.68-1.54,5.75h1.43c.09-1.81.56-3.51,1.35-5.04"
               style="fill: #000; stroke-width: 0px;"
               id="path35" />
          </g>
        </g>
      </g>
    </g>
  </g>
  <g
     id="g1" />
</svg>
