<svg xmlns="http://www.w3.org/2000/svg" width="20.41mm" height="130.6mm" viewBox="0 0 57.85 370.19">
  <defs>
    <clipPath id="clip-path">
      <rect x="15.02" y="32.85" width="27.8" height="25.62" style="fill: none" />
    </clipPath>
  </defs>
  <g id="faceplate">
    <rect x="0.13" y="0.13" width="57.6" height="364.25" style="fill: #ededed;stroke: #9d9d9e;stroke-miterlimit: 10;stroke-width: 0.25px" />
    <g id="pips_-_fewest" data-name="pips - fewest">
      <g style="clip-path: url(#clip-path)">
        <g style="clip-path: url(#clip-path)">
          <path d="M34.62,35.63l.71-1.24a13.86,13.86,0,0,0-5.77-1.54v1.43a12.39,12.39,0,0,1,5.06,1.35" />
          <path d="M39.41,40l1.24-.71A14,14,0,0,0,36.42,35l-.71,1.23a12.55,12.55,0,0,1,3.7,3.7" />
          <path d="M22.14,36.26,21.43,35a14,14,0,0,0-4.23,4.22l1.24.71a12.55,12.55,0,0,1,3.7-3.7" />
          <path d="M41.4,46.12h1.43a13.83,13.83,0,0,0-1.55-5.77l-1.23.71a12.47,12.47,0,0,1,1.35,5.06" />
          <path d="M28.29,34.28V32.85a13.86,13.86,0,0,0-5.77,1.54l.71,1.24a12.39,12.39,0,0,1,5.06-1.35" />
          <path d="M18.44,53.54l-1.24.71a14,14,0,0,0,4.23,4.22l.71-1.23a12.55,12.55,0,0,1-3.7-3.7" />
          <path d="M35.71,57.24l.71,1.23a14,14,0,0,0,4.23-4.22l-1.24-.71a12.55,12.55,0,0,1-3.7,3.7" />
          <path d="M41.4,47.38a12.47,12.47,0,0,1-1.35,5.06l1.23.71a13.83,13.83,0,0,0,1.55-5.77Z" />
          <path d="M16.45,47.38H15a13.83,13.83,0,0,0,1.55,5.77l1.23-.71a12.47,12.47,0,0,1-1.35-5.06" />
          <path d="M17.8,41.06l-1.23-.71A13.83,13.83,0,0,0,15,46.12h1.43a12.47,12.47,0,0,1,1.35-5.06" />
        </g>
      </g>
    </g>
    <g>
      <path d="M22.36,356.55l-.34.15-.27.1a2.94,2.94,0,0,1-.37.13,6.3,6.3,0,0,1-.84.18,6.19,6.19,0,0,1-.88.06,3.55,3.55,0,0,1-1.71-.42,3,3,0,0,1-1.27-1.28,4.48,4.48,0,0,1-.47-2.14,5.44,5.44,0,0,1,.24-1.6,3,3,0,0,1,.75-1.26,3.65,3.65,0,0,1,.84-.6,2.77,2.77,0,0,1,.83-.27,4.94,4.94,0,0,1,.89-.07,5.42,5.42,0,0,1,1.33.14c.35.1.74.23,1.15.39v1.76a4.64,4.64,0,0,0-.87-.49,3,3,0,0,0-1.16-.2,2,2,0,0,0-1.27.37,2,2,0,0,0-.67.88,3,3,0,0,0-.18,1,2.58,2.58,0,0,0,.21,1,1.84,1.84,0,0,0,.65.76,1.89,1.89,0,0,0,1.06.29,2.54,2.54,0,0,0,.74-.12v-.87h-.82V353h2.43Z" />
      <path d="M29.72,357.07h-2l-.48-1.32a5.61,5.61,0,0,0-.47-1.06,1.13,1.13,0,0,0-.41-.43,1.31,1.31,0,0,0-.52-.09h-.21v2.9H23.81v-7.44h3.13a2,2,0,0,1,1.24.37,2.09,2.09,0,0,1,.7.92,2.61,2.61,0,0,1,.22,1,2.27,2.27,0,0,1-.18.95,1.81,1.81,0,0,1-.38.57,3.93,3.93,0,0,1-.44.34,1.86,1.86,0,0,1,.48.49,7,7,0,0,1,.53,1.17ZM27.22,352a.83.83,0,0,0-.28-.72,1.5,1.5,0,0,0-.9-.2h-.39v1.79h.4a1.65,1.65,0,0,0,.92-.18A.79.79,0,0,0,27.22,352Z" />
      <path d="M35.16,357.07h-4.6v-7.44h4.53v1.49H32.4v1.37H35V354H32.4v1.59h2.76Z" />
      <path d="M42.37,349.63l-2.76,7.54H38.4l-2.7-7.54h1.91l1.4,4.29,1.44-4.29Z" />
    </g>
    <path d="M28.63,198.27c8,0,14.54,6.09,14.54,13.58v109.8c0,7.48-6.52,13.57-14.54,13.57s-14.54-6.09-14.54-13.57V211.85c0-7.49,6.53-13.58,14.54-13.58m0-1.05C20,197.22,13,203.77,13,211.85v109.8c0,8.08,7,14.63,15.59,14.63s15.59-6.55,15.59-14.63V211.85c0-8.08-7-14.63-15.59-14.63Z" />
    <g>
      <path d="M27.48,239.11H25.94l-.38-1a4.67,4.67,0,0,0-.37-.77.91.91,0,0,0-.32-.31,1,1,0,0,0-.4-.07H24.3v2.11H22.87V233.7h2.44a1.53,1.53,0,0,1,1.51.94,1.76,1.76,0,0,1,.17.74,1.47,1.47,0,0,1-.14.69,1.33,1.33,0,0,1-.29.42,3.53,3.53,0,0,1-.35.24,1.45,1.45,0,0,1,.38.36,4.48,4.48,0,0,1,.41.85Zm-1.95-3.7a.6.6,0,0,0-.22-.52,1.25,1.25,0,0,0-.7-.15H24.3V236h.31a1.36,1.36,0,0,0,.72-.13A.55.55,0,0,0,25.53,235.41Z" />
      <path d="M31.24,237.47H28.77a1,1,0,0,0,1,.82,3,3,0,0,0,1.38-.4v.87a2.9,2.9,0,0,1-.66.29,3.08,3.08,0,0,1-1,.13,2.14,2.14,0,0,1-1.1-.27,1.71,1.71,0,0,1-.67-.74,2.43,2.43,0,0,1-.23-1.06,2.38,2.38,0,0,1,.23-1.05,1.69,1.69,0,0,1,.67-.73,2.24,2.24,0,0,1,1.1-.26,1.76,1.76,0,0,1,.83.21A1.59,1.59,0,0,1,31,236a2.57,2.57,0,0,1,.26,1.22Zm-1.16-.7a1,1,0,0,0-.17-.61.56.56,0,0,0-.48-.23.63.63,0,0,0-.5.23.93.93,0,0,0-.19.61Z" />
      <path d="M35.25,235.14l-1.59,4h-.91l-1.56-4h1.33l.72,2.08.81-2.08Z" />
    </g>
    <g>
      <path d="M21.57,288H20.13v-5.41h1.44Z" />
      <path d="M26,288H24.79v-2.14a1.42,1.42,0,0,0-.1-.57.39.39,0,0,0-.41-.25.5.5,0,0,0-.27.07.62.62,0,0,0-.2.16.94.94,0,0,0-.16.2l-.12.2V288H22.29v-4h1.24v.57a1.73,1.73,0,0,1,.58-.5,1.45,1.45,0,0,1,.66-.14c.83,0,1.25.57,1.25,1.71Z" />
      <path d="M30.33,286a2.86,2.86,0,0,1-.1.77,2.28,2.28,0,0,1-.31.67,1.47,1.47,0,0,1-.52.47,1.51,1.51,0,0,1-.75.17,1.34,1.34,0,0,1-.54-.08,1.92,1.92,0,0,1-.39-.22v2H26.48V284h1.24v.36a1.53,1.53,0,0,1,.41-.31,1.29,1.29,0,0,1,.61-.12,1.52,1.52,0,0,1,.75.21,1.65,1.65,0,0,1,.6.67A2.45,2.45,0,0,1,30.33,286ZM29,286a1.61,1.61,0,0,0-.1-.59.78.78,0,0,0-.26-.32.6.6,0,0,0-.33-.1.77.77,0,0,0-.36.08,1.21,1.21,0,0,0-.26.2v1.52l.14.09L28,287a.52.52,0,0,0,.16.06.57.57,0,0,0,.18,0,.58.58,0,0,0,.49-.29A1.29,1.29,0,0,0,29,286Z" />
      <path d="M34.37,288H33.14v-.56a1.94,1.94,0,0,1-.55.47,1.38,1.38,0,0,1-.69.16,1,1,0,0,1-1-.52,3,3,0,0,1-.23-1.19V284h1.24v2.14a1.62,1.62,0,0,0,.09.57.39.39,0,0,0,.41.25.54.54,0,0,0,.43-.18,2.92,2.92,0,0,0,.33-.45V284h1.23Z" />
      <path d="M37.65,287.75a3.23,3.23,0,0,1-.53.21,2.6,2.6,0,0,1-.65.09c-.89,0-1.34-.49-1.34-1.48V285h-.56v-.24l1.66-1.93h.14V284h1.18v1H36.37v1.28a1.86,1.86,0,0,0,0,.36.34.34,0,0,0,.13.22.49.49,0,0,0,.34.1,1.68,1.68,0,0,0,.78-.29Z" />
    </g>
    <g>
      <path d="M22,67.53a1.9,1.9,0,0,1-.53,1.4,2,2,0,0,1-1.47.52H16.56V62.68h2.88a3.52,3.52,0,0,1,1,.12,2,2,0,0,1,.67.34,1.42,1.42,0,0,1,.38.5,1.61,1.61,0,0,1,.12.63,1.73,1.73,0,0,1-.13.69,1.59,1.59,0,0,1-.32.51,1.2,1.2,0,0,1-.38.29,2.41,2.41,0,0,1,.93.69A1.75,1.75,0,0,1,22,67.53Zm-2.1-2.9a.68.68,0,0,0-.28-.65,1.86,1.86,0,0,0-.89-.16h-.38v1.62h.39a1.81,1.81,0,0,0,.89-.16A.69.69,0,0,0,19.9,64.63Zm.29,2.82q0-.87-1.11-.87h-.73v1.73h.73C19.82,68.31,20.19,68,20.19,67.45Z" />
      <path d="M27.15,69.45H25.6v-.71a2.36,2.36,0,0,1-.69.6,1.74,1.74,0,0,1-.86.2,1.24,1.24,0,0,1-1.28-.66,3.69,3.69,0,0,1-.29-1.48V64.48H24v2.68a2,2,0,0,0,.11.72.5.5,0,0,0,.52.3A.67.67,0,0,0,25.2,68a4.1,4.1,0,0,0,.4-.56V64.48h1.55Z" />
      <path d="M30.72,63.94a2.42,2.42,0,0,0-.57-.09.46.46,0,0,0-.39.18.9.9,0,0,0-.14.53v.18h.78v1.19h-.78v3.52H28.07V65.93h-.71V64.74h.71v-.09a2.72,2.72,0,0,1,.18-1,1.65,1.65,0,0,1,.59-.77,1.86,1.86,0,0,1,1.1-.3,3.46,3.46,0,0,1,.78.09Z" />
      <path d="M33.62,63.94a2.49,2.49,0,0,0-.58-.09.45.45,0,0,0-.38.18.84.84,0,0,0-.14.53v.18h.78v1.19h-.78v3.52H31V65.93h-.72V64.74H31v-.09a2.94,2.94,0,0,1,.17-1,1.68,1.68,0,0,1,.6-.77,1.84,1.84,0,0,1,1.1-.3,3.46,3.46,0,0,1,.78.09Z" />
      <path d="M38.07,67.39H35a1.26,1.26,0,0,0,.44.74,1.23,1.23,0,0,0,.8.29,3.8,3.8,0,0,0,1.73-.5V69a4,4,0,0,1-.83.36,3.83,3.83,0,0,1-1.23.17,2.67,2.67,0,0,1-1.37-.34,2.18,2.18,0,0,1-.85-.93,3,3,0,0,1-.28-1.33,2.9,2.9,0,0,1,.28-1.31,2.08,2.08,0,0,1,.85-.91,2.67,2.67,0,0,1,1.37-.33,2.22,2.22,0,0,1,1,.26,2.07,2.07,0,0,1,.82.86A3.22,3.22,0,0,1,38.07,67Zm-1.45-.87a1.25,1.25,0,0,0-.21-.76.7.7,0,0,0-.6-.29.79.79,0,0,0-.63.29,1.15,1.15,0,0,0-.23.76Z" />
      <path d="M42.32,64.75l-.57,1.76a1,1,0,0,0-.71-.38.75.75,0,0,0-.57.25,2.64,2.64,0,0,0-.46.93v2.14H38.47v-5H40v1.2a2.58,2.58,0,0,1,.52-.87,1.14,1.14,0,0,1,.87-.42,1.11,1.11,0,0,1,.46.09A3.55,3.55,0,0,1,42.32,64.75Z" />
    </g>
    <path d="M44.22,308.21c0-8.08-7-14.63-15.59-14.63S13,300.13,13,308.21v8.11h0v19.84a5.68,5.68,0,0,0,5.67,5.67H38.55a5.68,5.68,0,0,0,5.67-5.67V316.32h0Z" />
    <g>
      <path d="M27.86,334.14a3.26,3.26,0,0,1-.3,1.4,2.42,2.42,0,0,1-.92,1,3.11,3.11,0,0,1-3,0,2.36,2.36,0,0,1-.9-1,3.11,3.11,0,0,1-.3-1.36,3.25,3.25,0,0,1,.29-1.36,2.38,2.38,0,0,1,.91-1,2.75,2.75,0,0,1,1.5-.39,3,3,0,0,1,1.18.23,2.3,2.3,0,0,1,.85.6,2.51,2.51,0,0,1,.5.89A3.1,3.1,0,0,1,27.86,334.14Zm-1.46,0a2,2,0,0,0-.08-.56,1.14,1.14,0,0,0-.24-.43,1,1,0,0,0-.39-.29,1.25,1.25,0,0,0-.53-.11,1.12,1.12,0,0,0-.91.39,1.47,1.47,0,0,0-.33,1,1.52,1.52,0,0,0,.33,1,1.18,1.18,0,0,0,.91.38,1.2,1.2,0,0,0,.67-.18,1.14,1.14,0,0,0,.43-.49A1.81,1.81,0,0,0,26.4,334.14Z" style="fill: #fff" />
      <path d="M32,336.85H30.72v-.56a1.82,1.82,0,0,1-.55.47,1.35,1.35,0,0,1-.69.16,1,1,0,0,1-1-.52,2.84,2.84,0,0,1-.24-1.19v-2.33h1.24V335a1.42,1.42,0,0,0,.1.57.4.4,0,0,0,.41.25.55.55,0,0,0,.43-.18,3.8,3.8,0,0,0,.32-.45v-2.33H32Z" style="fill: #fff" />
      <path d="M35.23,336.62a2.37,2.37,0,0,1-.53.2,2.14,2.14,0,0,1-.65.1c-.89,0-1.33-.49-1.33-1.48v-1.59h-.56v-.24l1.66-1.93H34v1.2h1.18v1H34v1.28a1.78,1.78,0,0,0,0,.35.35.35,0,0,0,.14.23.51.51,0,0,0,.34.09,1.65,1.65,0,0,0,.77-.28Z" style="fill: #fff" />
    </g>
    <g>
      <path d="M34.54,6.76l-5.53,7v-6a1.27,1.27,0,0,0-.64-1.17.89.89,0,0,0-1.13.29L20,16.13a1.49,1.49,0,0,0,0,1.79.9.9,0,0,0,1.46,0l5.5-7v6a1.29,1.29,0,0,0,.64,1.18.92.92,0,0,0,1.14-.3l5.53-7v6.15a1.05,1.05,0,1,0,2.06,0V7.64a1.28,1.28,0,0,0-.65-1.18A.91.91,0,0,0,34.54,6.76Z" style="stroke: #000;stroke-width: 0.6000000000000001px" />
      <path d="M20,6.68l-4.81,6.13a1.47,1.47,0,0,0,0,1.79.9.9,0,0,0,1.46,0l3.05-3.87V17a1.17,1.17,0,0,0,1,1.26,1.17,1.17,0,0,0,1-1.26V7.56a1.29,1.29,0,0,0-.65-1.17A.91.91,0,0,0,20,6.68Z" style="stroke: #000;stroke-width: 0.6000000000000001px" />
      <path d="M42.91,11.2a1.05,1.05,0,0,0-.95-.77h-2.1l1.53-1.95s.8-1.17.1-1.82a1.27,1.27,0,0,0-1.58.06l-3.23,4.1a1.45,1.45,0,0,0-.2,1.37,1,1,0,0,0,1,.78h2.1L37,16.14s-1,1.13-.27,1.89,1.75-.14,1.75-.14l4.18-5.31A1.5,1.5,0,0,0,42.91,11.2Z" style="stroke: #000;stroke-width: 0.6000000000000001px" />
    </g>
  </g>
  <g /></svg>