<?xml version="1.0" encoding="UTF-8" standalone="no"?>
<svg
   width="20.34mm"
   height="130.55mm"
   viewBox="0 0 57.67 370.07"
   version="1.1"
   id="svg44"
   sodipodi:docname="HPF_artwork.svg"
   inkscape:version="1.4.2 (ebf0e940, 2025-05-08)"
   xmlns:inkscape="http://www.inkscape.org/namespaces/inkscape"
   xmlns:sodipodi="http://sodipodi.sourceforge.net/DTD/sodipodi-0.dtd"
   xmlns="http://www.w3.org/2000/svg"
   xmlns:svg="http://www.w3.org/2000/svg">
  <sodipodi:namedview
     id="namedview44"
     pagecolor="#ffffff"
     bordercolor="#666666"
     borderopacity="1.0"
     inkscape:showpageshadow="2"
     inkscape:pageopacity="0.0"
     inkscape:pagecheckerboard="0"
     inkscape:deskcolor="#d1d1d1"
     inkscape:document-units="mm"
     inkscape:zoom="0.58961084"
     inkscape:cx="-190.80382"
     inkscape:cy="358.71118"
     inkscape:window-width="1728"
     inkscape:window-height="700"
     inkscape:window-x="0"
     inkscape:window-y="38"
     inkscape:window-maximized="0"
     inkscape:current-layer="text" />
  <defs
     id="defs4">
    <clipPath
       id="clippath">
      <rect
         x="14.91"
         y="33.17"
         width="27.78"
         height="25.51"
         style="fill: none; stroke-width: 0px;"
         id="rect1" />
    </clipPath>
    <clipPath
       id="clippath-1">
      <rect
         x="14.91"
         y="33.17"
         width="27.78"
         height="25.51"
         style="fill: none; stroke-width: 0px;"
         id="rect2" />
    </clipPath>
    <clipPath
       id="clippath-2">
      <rect
         x="14.91"
         y="81.21"
         width="27.78"
         height="25.51"
         style="fill: none; stroke-width: 0px;"
         id="rect3" />
    </clipPath>
    <clipPath
       id="clippath-3">
      <rect
         x="14.91"
         y="81.21"
         width="27.78"
         height="25.51"
         style="fill: none; stroke-width: 0px;"
         id="rect4" />
    </clipPath>
  </defs>
  <g
     id="faceplate">
    <g
       id="g5">
      <path
         id="rect5"
         style="fill:#ededed;stroke-width:0px"
         d="m 0.13,0.13 h 57.349998 v 364 H 0.13 Z" />
      <path
         d="M57.35.25v363.75H.25V.25h57.1M57.6,0H0v364.25h57.6V0h0Z"
         style="fill: #9d9d9e; stroke-width: 0px;"
         id="path5" />
    </g>
    <g
       id="g7">
      <path
         d="M28.8,200.84c8.05,0,14.59,6.08,14.59,13.54v109.18H14.21v-109.18c0-7.47,6.55-13.54,14.59-13.54M28.8,199.84c-8.61,0-15.59,6.51-15.59,14.54v110.18s31.18,0,31.18,0v-110.18c0-8.03-6.98-14.54-15.59-14.54h0Z"
         style="fill: #000; stroke-width: 0px;"
         id="path6" />
      <path
         d="M44.39,310.8c0-8.05-6.98-14.57-15.59-14.57s-15.59,6.53-15.59,14.57v5.36s0,0,0,0v19.77c0,3.11,2.55,5.65,5.67,5.65h19.84c3.12,0,5.67-2.54,5.67-5.65v-19.77s0,0,0,0v-5.35Z"
         style="fill: #000; stroke-width: 0px;"
         id="path7" />
    </g>
    <g
       id="pips">
      <g
         id="pips_-_fewest"
         data-name="pips - fewest">
        <g
           style="clip-path: url(#clippath);"
           clip-path="url(#clippath)"
           id="g18">
          <g
             style="clip-path: url(#clippath-1);"
             clip-path="url(#clippath-1)"
             id="g17">
            <path
               d="M34.49,35.93l.71-1.23c-1.74-.9-3.69-1.45-5.77-1.54v1.42c1.81.09,3.52.56,5.05,1.35"
               style="fill: #000; stroke-width: 0px;"
               id="path8" />
            <path
               d="M39.28,40.25l1.23-.71c-1.09-1.69-2.53-3.12-4.22-4.21l-.71,1.23c1.48.96,2.74,2.21,3.7,3.69"
               style="fill: #000; stroke-width: 0px;"
               id="path9" />
            <path
               d="M22.02,36.56l-.71-1.23c-1.69,1.08-3.14,2.52-4.22,4.2l1.23.71c.96-1.47,2.22-2.73,3.7-3.69"
               style="fill: #000; stroke-width: 0px;"
               id="path10" />
            <path
               d="M41.26,46.38h1.43c-.09-2.07-.64-4.01-1.54-5.75l-1.23.71c.79,1.52,1.26,3.23,1.35,5.04"
               style="fill: #000; stroke-width: 0px;"
               id="path11" />
            <path
               d="M28.17,34.59v-1.42c-2.07.09-4.03.64-5.77,1.54l.71,1.23c1.53-.78,3.24-1.25,5.05-1.35"
               style="fill: #000; stroke-width: 0px;"
               id="path12" />
            <path
               d="M18.32,53.76l-1.23.71c1.09,1.69,2.53,3.12,4.22,4.21l.71-1.23c-1.48-.96-2.74-2.21-3.7-3.69"
               style="fill: #000; stroke-width: 0px;"
               id="path13" />
            <path
               d="M35.58,57.45l.71,1.23c1.69-1.08,3.14-2.52,4.22-4.2l-1.23-.71c-.96,1.47-2.22,2.73-3.7,3.69"
               style="fill: #000; stroke-width: 0px;"
               id="path14" />
            <path
               d="M41.26,47.64c-.09,1.81-.56,3.51-1.35,5.04l1.23.71c.9-1.73,1.45-3.68,1.54-5.75h-1.43Z"
               style="fill: #000; stroke-width: 0px;"
               id="path15" />
            <path
               d="M16.34,47.64h-1.43c.09,2.07.64,4.01,1.54,5.75l1.23-.71c-.79-1.52-1.26-3.23-1.35-5.04"
               style="fill: #000; stroke-width: 0px;"
               id="path16" />
            <path
               d="M17.69,41.34l-1.23-.71c-.9,1.73-1.45,3.68-1.54,5.75h1.43c.09-1.81.56-3.51,1.35-5.04"
               style="fill: #000; stroke-width: 0px;"
               id="path17" />
          </g>
        </g>
      </g>
      <g
         id="pips_-_fewest-2"
         data-name="pips - fewest">
        <g
           style="clip-path: url(#clippath-2);"
           clip-path="url(#clippath-2)"
           id="g28">
          <g
             style="clip-path: url(#clippath-3);"
             clip-path="url(#clippath-3)"
             id="g27">
            <path
               d="M34.49,83.98l.71-1.23c-1.74-.9-3.69-1.45-5.77-1.54v1.42c1.81.09,3.52.56,5.05,1.35"
               style="fill: #000; stroke-width: 0px;"
               id="path18" />
            <path
               d="M39.28,88.3l1.23-.71c-1.09-1.69-2.53-3.12-4.22-4.21l-.71,1.23c1.48.96,2.74,2.21,3.7,3.69"
               style="fill: #000; stroke-width: 0px;"
               id="path19" />
            <path
               d="M22.02,84.61l-.71-1.23c-1.69,1.08-3.14,2.52-4.22,4.2l1.23.71c.96-1.47,2.22-2.73,3.7-3.69"
               style="fill: #000; stroke-width: 0px;"
               id="path20" />
            <path
               d="M41.26,94.42h1.43c-.09-2.07-.64-4.01-1.54-5.75l-1.23.71c.79,1.52,1.26,3.23,1.35,5.04"
               style="fill: #000; stroke-width: 0px;"
               id="path21" />
            <path
               d="M28.17,82.63v-1.42c-2.07.09-4.03.64-5.77,1.54l.71,1.23c1.53-.78,3.24-1.25,5.05-1.35"
               style="fill: #000; stroke-width: 0px;"
               id="path22" />
            <path
               d="M18.32,101.81l-1.23.71c1.09,1.69,2.53,3.12,4.22,4.21l.71-1.23c-1.48-.96-2.74-2.21-3.7-3.69"
               style="fill: #000; stroke-width: 0px;"
               id="path23" />
            <path
               d="M35.58,105.5l.71,1.23c1.69-1.08,3.14-2.52,4.22-4.2l-1.23-.71c-.96,1.47-2.22,2.73-3.7,3.69"
               style="fill: #000; stroke-width: 0px;"
               id="path24" />
            <path
               d="M41.26,95.68c-.09,1.81-.56,3.51-1.35,5.04l1.23.71c.9-1.73,1.45-3.68,1.54-5.75h-1.43Z"
               style="fill: #000; stroke-width: 0px;"
               id="path25" />
            <path
               d="M16.34,95.68h-1.43c.09,2.07.64,4.01,1.54,5.75l1.23-.71c-.79-1.52-1.26-3.23-1.35-5.04"
               style="fill: #000; stroke-width: 0px;"
               id="path26" />
            <path
               d="M17.69,89.39l-1.23-.71c-.9,1.73-1.45,3.68-1.54,5.75h1.43c.09-1.81.56-3.51,1.35-5.04"
               style="fill: #000; stroke-width: 0px;"
               id="path27" />
          </g>
        </g>
      </g>
    </g>
    <g
       id="text">
      <path
         d="m 28.783134,317.46234 h -2.028176 v -2.63128 h -3.059286 v 2.63128 h -2.03304 v -6.74113 h 2.03304 v 2.47564 h 3.059286 v -2.47564 h 2.028176 z m 7.529055,-4.62054 q 0,0.3745 -0.131321,0.73442 -0.126457,0.35505 -0.413417,0.66633 -0.28696,0.30642 -0.778197,0.50097 -0.486373,0.18968 -1.14784,0.18968 h -1.332662 v 2.52914 h -2.03304 v -6.74113 h 3.365702 q 0.661467,0 1.14784,0.19455 0.491237,0.19455 0.778197,0.50583 0.28696,0.31128 0.413417,0.67606 0.131321,0.36478 0.131321,0.74415 z m -2.071949,0.01 q 0,-0.4815 -0.28696,-0.6566 -0.282097,-0.17996 -1.01652,-0.17996 h -0.428008 v 1.62449 h 0.437735 q 0.505828,0 0.778197,-0.0632 0.272369,-0.0632 0.393963,-0.23346 0.121593,-0.17023 0.121593,-0.49124 z m 8.03002,1.88227 h -2.796646 v 2.72855 h -2.033039 v -6.74113 h 4.829685 v 1.35212 h -2.796646 v 1.30348 h 2.796646 z"
         id="text28"
         style="font-weight:700;font-size:9.96092px;font-family:GillSans-Bold, 'Gill Sans';stroke-width:0.905538"
         transform="scale(0.90553851,1.1043153)"
         aria-label="HPF" />
      <path
         d="M 5.5273437,-0.40625 Q 5.1914062,-0.23046875 4.8398437,-0.125 4.4882812,-0.01953125 4.1289062,0.0234375 3.7734375,0.0703125 3.390625,0.0703125 2.6835938,0.0703125 2.1210938,-0.125 1.5625,-0.3203125 1.1484375,-0.69921875 0.73828125,-1.0820312 0.53125,-1.5898437 0.328125,-2.1015625 0.328125,-2.7109375 q 0,-0.6992188 0.2421875,-1.2226563 0.2421875,-0.5273437 0.6757812,-0.8749999 0.4375,-0.3476563 0.9921876,-0.5117188 0.5585937,-0.1679687 1.1757812,-0.1679687 0.921875,0 2.0898437,0.4101562 v 1.4375 q -0.4023437,-0.25 -0.796875,-0.4140625 -0.390625,-0.1679687 -0.9218749,-0.1679687 -0.4726563,0 -0.8828125,0.1875 Q 2.4921875,-3.8476563 2.2421875,-3.5 q -0.25,0.3476562 -0.25,0.8125 0,0.4101562 0.21875,0.7539063 0.21875,0.3398437 0.6054688,0.5429687 0.390625,0.1992188 0.8789062,0.1992188 0.3945312,0 0.7460937,-0.09375 Q 4.7929687,-1.3828125 5.03125,-1.5 5.2734375,-1.6171875 5.5273437,-1.7773437 Z m 6.0745313,-5.0078125 -2.4414064,5.484375 h -1.078125 l -2.3945313,-5.484375 h 1.6992188 l 1.2382812,3.125 1.2734375,-3.125 z"
         id="text29"
         style="font-weight:700;font-size:8px;font-family:GillSans-Bold, 'Gill Sans';letter-spacing:-0.04em"
         transform="translate(23.67 241.06) scale(.88 1)"
         aria-label="CV" />
      <path
         d="M 2.3203125,0 H 0.6875 v -5.4140625 h 1.6328125 z m 5.0628126,0 h -1.40625 v -2.1445313 q 0,-0.328125 -0.109375,-0.5703125 -0.1054688,-0.2460937 -0.46875,-0.2460937 -0.171875,0 -0.3046875,0.066406 -0.1289063,0.0625 -0.234375,0.1640625 -0.1015625,0.1015625 -0.171875,0.1953125 -0.070312,0.09375 -0.1445313,0.1992188 V 0 h -1.40625 v -3.9765625 h 1.40625 V -3.40625 q 0.3320313,-0.3554688 0.6640625,-0.4960938 0.3359375,-0.1445312 0.7460938,-0.1445312 1.4296875,0 1.4296875,1.7109375 z m 4.8909379,-2.015625 q 0,0.3984375 -0.113282,0.7695313 -0.113281,0.3710937 -0.347656,0.67187495 -0.230469,0.296875 -0.597656,0.47265625 -0.363281,0.171875 -0.847656,0.171875 -0.3906254,0 -0.6171879,-0.08203125 Q 9.5279689,-0.09375 9.3053126,-0.23046875 V 1.8085937 h -1.40625 v -5.7851562 h 1.40625 v 0.359375 q 0.2109375,-0.1835938 0.4648438,-0.3046875 0.2578126,-0.125 0.6953126,-0.125 0.433594,0 0.851562,0.2148437 0.417969,0.2148438 0.6875,0.671875 0.269532,0.453125 0.269532,1.1445313 z m -1.480469,0.03125 q 0,-0.359375 -0.113281,-0.5820313 -0.113282,-0.2265625 -0.292969,-0.3242187 -0.179688,-0.1015625 -0.371094,-0.1015625 -0.2499999,0 -0.4101561,0.082031 -0.1601563,0.078125 -0.3007813,0.1992188 v 1.5195313 q 0.074219,0.039063 0.15625,0.089844 0.085937,0.046875 0.1679688,0.082031 0.085937,0.0351562 0.1796875,0.0585937 0.097656,0.0234375 0.2070311,0.0234375 0.332031,0 0.554688,-0.28125 Q 10.793594,-1.5 10.793594,-1.984375 Z M 16.875937,0 h -1.410156 v -0.56640625 q -0.296875,0.3203125 -0.625,0.48046875 -0.324219,0.15625 -0.78125,0.15625 -0.902344,0 -1.167969,-0.5234375 -0.265625,-0.52734375 -0.265625,-1.1875 v -2.3359375 h 1.410157 v 2.1484375 q 0,0.3242188 0.105468,0.5703125 0.109375,0.2421875 0.46875,0.2421875 0.308594,0 0.488282,-0.1757812 0.179687,-0.1757813 0.367187,-0.4492188 v -2.3359375 h 1.410156 z m 3.715156,-0.23046875 q -0.21875,0.10546875 -0.605469,0.203125 -0.382812,0.09765625 -0.734375,0.09765625 -1.519531,0 -1.519531,-1.484375 V -3 h -0.636719 v -0.2460938 l 1.886719,-1.9218749 h 0.160156 v 1.1914062 h 1.34375 V -3 h -1.34375 v 1.2734375 q 0,0.2226563 0.02734,0.359375 0.02734,0.1367188 0.152344,0.2304688 0.128906,0.089844 0.386719,0.089844 0.335937,0 0.882812,-0.28125 z"
         id="text30"
         style="font-weight:700;font-size:8px;font-family:GillSans-Bold, 'Gill Sans';letter-spacing:-0.04em"
         transform="translate(19.67 289.25) scale(.88 1)"
         aria-label="Input" />
      <path
         d="M 6.9091797,-0.5078125 Q 6.4892578,-0.28808594 6.0498047,-0.15625 5.6103516,-0.02441406 5.1611328,0.02929688 4.7167969,0.08789062 4.2382812,0.08789062 q -0.883789,0 -1.586914,-0.24414062 Q 1.953125,-0.40039063 1.4355469,-0.87402344 0.92285156,-1.3525391 0.6640625,-1.9873047 0.41015625,-2.6269531 0.41015625,-3.3886719 q 0,-0.8740234 0.30273437,-1.5283203 0.30273438,-0.6591797 0.84472658,-1.09375 0.546875,-0.4345703 1.2402344,-0.6396484 0.6982422,-0.209961 1.4697265,-0.209961 1.1523438,0 2.6123047,0.5126954 v 1.796875 q -0.5029297,-0.3125 -0.9960937,-0.5175782 -0.4882813,-0.2099609 -1.1523438,-0.2099609 -0.5908203,0 -1.1035156,0.234375 -0.5126953,0.234375 -0.8251953,0.6689453 -0.3125,0.4345703 -0.3125,1.015625 0,0.5126953 0.2734375,0.9423828 0.2734375,0.4248047 0.7568359,0.678711 0.4882813,0.2490234 1.0986328,0.2490234 0.4931641,0 0.9326172,-0.1171875 Q 5.9912109,-1.7285156 6.2890625,-1.875 6.5917969,-2.0214844 6.9091797,-2.2216797 Z M 12.832422,0 h -1.762696 v -0.70800781 q -0.371093,0.40039062 -0.78125,0.60058594 -0.405273,0.19531249 -0.976562,0.19531249 -1.1279297,0 -1.459961,-0.65429687 Q 7.5199218,-1.2255859 7.5199218,-2.0507813 v -2.9199218 h 1.7626953 v 2.6855468 q 0,0.4052735 0.1318359,0.7128907 0.1367188,0.3027344 0.585938,0.3027344 0.385742,0 0.610351,-0.2197266 0.224609,-0.2197266 0.458984,-0.5615235 v -2.9199218 h 1.762696 z m 4.643945,-0.28808594 q -0.273438,0.13183594 -0.756836,0.25390625 -0.478516,0.12207031 -0.917969,0.12207031 -1.899414,0 -1.899414,-1.85546872 V -3.75 H 13.10625 v -0.3076172 l 2.358398,-2.4023437 h 0.200196 v 1.4892578 h 1.679687 V -3.75 h -1.679687 v 1.5917969 q 0,0.2783203 0.03418,0.4492187 0.03418,0.1708985 0.19043,0.288086 0.161133,0.1123047 0.483398,0.1123047 0.419922,0 1.103516,-0.3515625 z m 5.859765,-2.20214846 q 0,0.7421875 -0.322266,1.3232422 -0.322265,0.5810547 -0.966796,0.91796876 -0.639649,0.33691406 -1.5625,0.33691406 -0.922852,0 -1.567383,-0.33691406 -0.639649,-0.33691406 -0.961914,-0.91796876 -0.317383,-0.5810547 -0.317383,-1.3232422 0,-0.5615234 0.175781,-1.0205078 0.180664,-0.4589844 0.541992,-0.8105469 0.366211,-0.3564453 0.898438,-0.546875 0.532226,-0.1904296 1.230469,-0.1904296 0.703125,0 1.240234,0.1953125 0.541992,0.1904296 0.893555,0.5371093 0.356445,0.3466797 0.537109,0.8105469 0.180664,0.4638672 0.180664,1.0253906 z m -1.850586,0 q 0,-0.5908203 -0.258789,-0.9228515 Q 20.972851,-3.75 20.48457,-3.75 q -0.483399,0 -0.742188,0.3369141 -0.253906,0.3320312 -0.253906,0.9228515 0,0.5859375 0.258789,0.9277344 0.258789,0.3417969 0.737305,0.3417969 0.488281,0 0.742187,-0.3369141 0.258789,-0.3417969 0.258789,-0.9326172 z m 5.69375,-3.0175781 q -0.40039,-0.092773 -0.649414,-0.092773 -0.283203,0 -0.444336,0.1855468 -0.15625,0.1855469 -0.15625,0.5273438 v 0.1757812 h 0.888672 v 1.1914063 H 25.929296 V 0 h -1.762695 v -3.5205078 h -0.810547 v -1.1914063 h 0.810547 v -0.087891 q 0,-0.5224609 0.200195,-0.9863281 0.205079,-0.46875 0.678711,-0.7714844 0.473633,-0.3027344 1.25,-0.3027344 0.439454,0 0.883789,0.092774 z m 3.579493,0 q -0.400391,-0.092773 -0.649414,-0.092773 -0.283203,0 -0.444336,0.1855468 -0.15625,0.1855469 -0.15625,0.5273438 v 0.1757812 h 0.888672 v 1.1914063 H 29.508789 V 0 h -1.762695 v -3.5205078 h -0.810547 v -1.1914063 h 0.810547 v -0.087891 q 0,-0.5224609 0.200195,-0.9863281 0.205078,-0.46875 0.678711,-0.7714844 0.473633,-0.3027344 1.25,-0.3027344 0.439453,0 0.883789,0.092774 z"
         id="text31"
         style="font-weight:700;font-size:10px;font-family:GillSans-Bold, 'Gill Sans';letter-spacing:-0.04em"
         transform="translate(15.39 68.71) scale(.88 1)"
         aria-label="Cutoff" />
      <path
         d="M 8.3789063,0.48828125 6.9482422,1.7919922 Q 6.1035156,1.6064453 5.2783203,1.2890625 4.453125,0.9765625 3.6181641,0.51757812 2.96875,0.16113281 2.6416016,-0.16113281 2.0751953,-0.36132813 1.5673828,-0.78125 1.0595703,-1.2060547 0.73242187,-1.8652344 0.41015625,-2.5244141 0.41015625,-3.3886719 q 0,-0.9130859 0.41992188,-1.7041015 Q 1.25,-5.8886719 2.1191406,-6.3720703 q 0.8740235,-0.4882813 2.1289063,-0.4882813 0.9667968,0 1.6992187,0.288086 0.7373047,0.2832031 1.2060547,0.7714844 0.4736328,0.4833984 0.703125,1.1132812 0.234375,0.625 0.234375,1.2988281 0,0.8203125 -0.2929687,1.459961 -0.2929688,0.6396484 -0.7666016,1.06445309 -0.4736328,0.42480468 -1.0693359,0.67382812 0.546875,0.24414063 1.0986328,0.40527344 0.5517578,0.16601563 1.2597656,0.16601563 z M 6.0107422,-3.3886719 q 0,-0.3808594 -0.1123047,-0.6933593 -0.1123047,-0.3173829 -0.3417969,-0.546875 -0.2246094,-0.234375 -0.5517578,-0.3613282 -0.3271484,-0.1318359 -0.7568359,-0.1318359 -0.8203125,0 -1.2890625,0.4785156 -0.46875,0.4785156 -0.46875,1.2548828 0,0.7763672 0.46875,1.2597656 0.4736328,0.4785157 1.2890625,0.4785157 0.5615234,0 0.9570312,-0.2197266 0.3955078,-0.2246094 0.600586,-0.6152344 0.2050781,-0.3955078 0.2050781,-0.9033203 z"
         id="text32"
         style="font-weight:700;font-size:10px;font-family:GillSans-Bold, 'Gill Sans';letter-spacing:-0.04em"
         transform="translate(25.06 117.04) scale(.88 1)"
         aria-label="Q" />
      <path
         d="M 6.9765625,0 H 5.34375 V -3.1367188 L 3.8710938,-1.3203125 H 3.7421875 L 2.265625,-3.1367188 V 0 H 0.6796875 v -5.4140625 h 1.4804688 l 1.6640625,2.03125 1.6718749,-2.03125 h 1.4804688 z m 5.2073435,-1.9921875 q 0,0.59375 -0.257812,1.05859375 -0.257813,0.46484375 -0.773438,0.734375 -0.511719,0.26953125 -1.2499999,0.26953125 -0.7382813,0 -1.2539063,-0.26953125 Q 8.1370311,-0.46875 7.8792186,-0.93359375 7.6253123,-1.3984375 7.6253123,-1.9921875 q 0,-0.4492188 0.140625,-0.8164063 0.1445313,-0.3671875 0.4335938,-0.6484375 0.2929687,-0.2851562 0.71875,-0.4375 0.4257812,-0.1523437 0.984375,-0.1523437 0.5624999,0 0.9921879,0.15625 0.433593,0.1523437 0.714843,0.4296875 0.285157,0.2773437 0.429688,0.6484375 0.144531,0.3710937 0.144531,0.8203125 z m -1.480469,0 q 0,-0.4726563 -0.207031,-0.7382813 Q 10.293281,-3 9.9026561,-3 q -0.3867188,0 -0.59375,0.2695312 -0.203125,0.265625 -0.203125,0.7382813 0,0.46875 0.2070312,0.7421875 0.2070313,0.2734375 0.5898438,0.2734375 0.3906249,0 0.5937499,-0.2695312 0.207031,-0.2734375 0.207031,-0.7460938 z M 16.801406,0 H 15.39125 v -0.359375 q -0.222657,0.1875 -0.472657,0.30859375 Q 14.6725,0.0703125 14.235,0.0703125 q -0.433594,0 -0.851563,-0.21484375 -0.417969,-0.21484375 -0.6875,-0.66796875 -0.269531,-0.4570312 -0.269531,-1.1484375 0,-0.5429688 0.203125,-1.015625 Q 12.832656,-3.453125 13.26625,-3.75 q 0.433593,-0.296875 1.0625,-0.296875 0.390625,0 0.632812,0.085937 0.242188,0.085937 0.429688,0.21875 v -1.671875 h 1.410156 z M 15.39125,-1.265625 v -1.5195313 q -0.246094,-0.1367187 -0.386719,-0.1953125 -0.136719,-0.058594 -0.324219,-0.058594 -0.332031,0 -0.554687,0.28125 -0.21875,0.28125 -0.21875,0.765625 0,0.5273438 0.230468,0.7695313 0.234375,0.2382812 0.542969,0.2382812 0.253906,0 0.410156,-0.078125 0.15625,-0.082031 0.300782,-0.203125 z m 6.058907,-0.3828125 h -2.800781 q 0.08203,0.3632813 0.402344,0.59375 0.320312,0.23046875 0.726562,0.23046875 0.710938,0 1.570313,-0.39843745 v 0.8710937 q -0.308594,0.16015625 -0.75,0.29296875 -0.4375,0.12890625 -1.117188,0.12890625 -0.734375,0 -1.25,-0.2734375 -0.515625,-0.2734375 -0.773437,-0.7421875 -0.253907,-0.46875 -0.253907,-1.0625 0,-0.5859375 0.253907,-1.046875 0.257812,-0.4648438 0.773437,-0.7265625 0.515625,-0.265625 1.25,-0.265625 0.484375,0 0.933594,0.2109375 0.453125,0.2070312 0.742187,0.6835937 0.292969,0.4726563 0.292969,1.2226563 z M 20.129845,-2.34375 q 0,-0.3828125 -0.191407,-0.609375 -0.1875,-0.2304688 -0.542968,-0.2304688 -0.351563,0 -0.570313,0.234375 -0.214844,0.2304688 -0.214844,0.6054688 z"
         id="text33"
         style="font-weight:700;font-size:8px;font-family:GillSans-Bold, 'Gill Sans';letter-spacing:-0.04em"
         transform="translate(19.26 192.87) scale(.88 1)"
         aria-label="Mode" />
      <path
         d="m 6.4726562,-2.7109375 q 0,0.7578125 -0.3515625,1.3945313 -0.3476562,0.6367187 -1.0390625,1.0117187 -0.6914062,0.375 -1.6835937,0.375 -1.0039062,0 -1.6992188,-0.390625 Q 1.0039062,-0.7109375 0.6640625,-1.3476562 0.328125,-1.984375 0.328125,-2.7109375 q 0,-0.7304688 0.3359375,-1.3632812 Q 1,-4.7109375 1.6953125,-5.0976562 q 0.6992188,-0.390625 1.703125,-0.390625 0.75,0 1.3359375,0.2226562 0.5898437,0.2226563 0.96875,0.6054688 0.3789062,0.3789062 0.5742187,0.8867187 0.1953125,0.5039062 0.1953125,1.0625 z m -1.6640625,0 q 0,-0.3046875 -0.089844,-0.5546875 -0.089844,-0.2539063 -0.2734375,-0.4375 -0.1796875,-0.1875 -0.4414063,-0.2890625 -0.2617187,-0.1054687 -0.6054687,-0.1054687 -0.65625,0 -1.03125,0.3828124 -0.375,0.3828125 -0.375,1.0039063 0,0.6210937 0.375,1.0078125 0.3789063,0.3828125 1.03125,0.3828125 0.4492188,0 0.765625,-0.1757812 0.3164062,-0.1796875 0.4804687,-0.4921875 0.1640625,-0.3164063 0.1640625,-0.7226563 z M 11.129219,0 H 9.7190623 v -0.56640625 q -0.296875,0.3203125 -0.625,0.48046875 -0.3242187,0.15625 -0.78125,0.15625 -0.9023437,0 -1.1679687,-0.5234375 -0.265625,-0.52734375 -0.265625,-1.1875 v -2.3359375 h 1.4101562 v 2.1484375 q 0,0.3242188 0.1054688,0.5703125 0.109375,0.2421875 0.46875,0.2421875 0.3085937,0 0.4882812,-0.1757812 0.1796875,-0.1757813 0.3671875,-0.4492188 v -2.3359375 h 1.4101567 z m 3.715156,-0.23046875 q -0.21875,0.10546875 -0.605469,0.203125 -0.382813,0.09765625 -0.734375,0.09765625 -1.519531,0 -1.519531,-1.484375 V -3 H 11.348281 V -3.2460938 L 13.235,-5.1679687 h 0.160156 v 1.1914062 h 1.34375 V -3 h -1.34375 v 1.2734375 q 0,0.2226563 0.02734,0.359375 0.02734,0.1367188 0.152343,0.2304688 0.128907,0.089844 0.386719,0.089844 0.335938,0 0.882813,-0.28125 z"
         id="text34"
         style="font-weight:700;font-size:8px;font-family:GillSans-Bold, 'Gill Sans';letter-spacing:-0.04em;fill:#ffffff"
         transform="translate(22.19 337.44) scale(.88 1)"
         aria-label="Out" />
    </g>
    <g
       id="g36"
       transform="translate(0,8.5708889)">
      <path
         d="m 20.6,18.19 c -0.37,0 -0.71,-0.17 -0.97,-0.47 -0.51,-0.6 -0.52,-1.54 -0.04,-2.16 l 6.97,-8.88 c 0.38,-0.48 1.05,-0.65 1.57,-0.39 0.5,0.25 0.79,0.82 0.79,1.45 v 4.77 l 4.64,-5.85 c 0.38,-0.48 1.01,-0.64 1.53,-0.38 0.5,0.25 0.83,0.81 0.83,1.44 v 8.82 c 0,0.86 -0.61,1.57 -1.36,1.57 -0.75,0 -1.36,-0.7 -1.36,-1.57 v -4.79 l -4.64,5.85 c -0.38,0.48 -1.01,0.64 -1.54,0.38 -0.5,-0.24 -0.83,-0.81 -0.83,-1.44 v -4.67 l -4.61,5.8 c -0.26,0.32 -0.62,0.51 -1,0.51 v 0 z"
         style="fill:#2cabe1;stroke-width:0px"
         id="path34" />
      <path
         d="m 20.6,18.19 c -0.75,0 -1.35,-0.7 -1.35,-1.57 v -4.93 l -2.26,2.84 c -0.5,0.63 -1.44,0.65 -1.97,0.04 -0.51,-0.6 -0.52,-1.53 -0.03,-2.15 L 19.6,6.66 c 0.26,-0.32 0.63,-0.5 1,-0.5 0.18,0 0.37,0.04 0.54,0.12 0.5,0.25 0.82,0.81 0.82,1.44 v 8.89 c 0,0.86 -0.61,1.57 -1.36,1.57 v 0 z"
         style="fill:#ea2228;stroke-width:0px"
         id="path35" />
      <path
         d="m 37.2,18.21 v 0 c -0.35,0 -0.68,-0.15 -0.94,-0.42 -0.76,-0.78 -0.14,-1.84 0.29,-2.3 L 38.5,13.13 37.24,13.11 C 36.68,13.1 36.2,12.71 36,12.11 35.81,11.55 35.93,10.9 36.29,10.47 L 39.45,6.64 C 39.68,6.36 40,6.16 40.58,6.17 c 0.33,0 0.67,0.17 0.92,0.4 0.71,0.66 0.29,1.7 -0.07,2.2 l -1.04,1.26 1.26,0.02 c 0.56,0.01 1.04,0.4 1.24,1 0.19,0.56 0.07,1.21 -0.29,1.64 l -4.1,4.97 c -0.35,0.35 -0.65,0.55 -1.3,0.54 v 0 z"
         style="fill:#00a650;stroke-width:0px"
         id="path36" />
    </g>
  </g>
  <g
     id="g1" />
</svg>
