<?xml version="1.0" encoding="UTF-8" standalone="no"?>
<svg
   width="132mm"
   height="129.24mm"
   viewBox="0 0 374.17 366.36"
   version="1.1"
   id="svg308"
   sodipodi:docname="HubMedium_artwork.svg"
   inkscape:version="1.3.2 (091e20e, 2023-11-25)"
   xmlns:inkscape="http://www.inkscape.org/namespaces/inkscape"
   xmlns:sodipodi="http://sodipodi.sourceforge.net/DTD/sodipodi-0.dtd"
   xmlns="http://www.w3.org/2000/svg"
   xmlns:svg="http://www.w3.org/2000/svg">
  <defs
     id="defs308" />
  <sodipodi:namedview
     id="namedview308"
     pagecolor="#ffffff"
     bordercolor="#000000"
     borderopacity="0.25"
     inkscape:showpageshadow="2"
     inkscape:pageopacity="0.0"
     inkscape:pagecheckerboard="0"
     inkscape:deskcolor="#d1d1d1"
     inkscape:document-units="mm"
     showgrid="false"
     inkscape:zoom="2.4894253"
     inkscape:cx="249.45517"
     inkscape:cy="244.23308"
     inkscape:window-width="2512"
     inkscape:window-height="1387"
     inkscape:window-x="50"
     inkscape:window-y="25"
     inkscape:window-maximized="1"
     inkscape:current-layer="artwork" />
  <g
     id="artwork">
    <rect
       width="374.17"
       height="364.25"
       style="fill: #231f20"
       id="rect1" />
    <rect
       x="102.74"
       y="143.58"
       width="167.81"
       height="19.74"
       rx="3.78"
       style="fill: #7d7e81"
       id="rect2" />
    <g
       id="g3">
      <path
         d="M356,12.89a4.54,4.54,0,0,0,0-9.07h-8.44a4.54,4.54,0,1,0,0,9.07Z"
         transform="translate(0.39 0.08)"
         style="fill: #7d7e80"
         id="path2" />
      <path
         d="M356,360.15a4.54,4.54,0,0,0,0-9.08h-8.44a4.54,4.54,0,0,0,0,9.08Z"
         transform="translate(0.39 0.08)"
         style="fill: #7d7e80"
         id="path3" />
    </g>
    <g
       id="g5">
      <path
         d="M25,12.89a4.54,4.54,0,0,0,0-9.07H16.6a4.54,4.54,0,0,0,0,9.07Z"
         transform="translate(0.39 0.08)"
         style="fill: #7d7e80"
         id="path4" />
      <path
         d="M25,360.15a4.54,4.54,0,0,0,0-9.08H16.6a4.54,4.54,0,0,0,0,9.08Z"
         transform="translate(0.39 0.08)"
         style="fill: #7d7e80"
         id="path5" />
    </g>
    <path
       d="M224.81,301.2c0,1.76-1.81,3.18-4,3.18s-4.05-1.42-4.05-3.18v-4.54h8.09Z"
       transform="translate(0.39 0.08)"
       style="fill: #faa629"
       id="path6" />
    <path
       d="M268.25,301.2c0,1.76-1.81,3.18-4,3.18s-4-1.42-4-3.18v-4.54h8.09Z"
       transform="translate(0.39 0.08)"
       style="fill: #00a551"
       id="path7" />
    <path
       d="M311.45,301.2c0,1.76-1.81,3.18-4,3.18s-4.05-1.42-4.05-3.18v-4.54h8.09Z"
       transform="translate(0.39 0.08)"
       style="fill: #231f20;stroke: #fff;stroke-width: 0.708661417322835px"
       id="path8" />
    <path
       d="M354.89,301.2c0,1.76-1.81,3.18-4,3.18s-4.05-1.42-4.05-3.18v-4.54h8.09Z"
       transform="translate(0.39 0.08)"
       style="fill: #fff"
       id="path9" />
    <path
       d="M341.45,342.68c0,1.77-1.81,3.19-4,3.19s-4.05-1.42-4.05-3.19v-4.53h8.09Z"
       transform="translate(0.39 0.08)"
       style="fill: #f06392"
       id="path10" />
    <path
       d="M211.85,342.68c0,1.77-1.81,3.19-4,3.19s-4.05-1.42-4.05-3.19v-4.53h8.09Z"
       transform="translate(0.39 0.08)"
       style="fill: #ec1c24"
       id="path11" />
    <path
       d="M255.53,342.68c0,1.77-1.81,3.19-4,3.19s-4.05-1.42-4.05-3.19v-4.53h8.09Z"
       transform="translate(0.39 0.08)"
       style="fill: #fff100"
       id="path12" />
    <path
       d="M297.77,342.68c0,1.77-1.81,3.19-4,3.19s-4.05-1.42-4.05-3.19v-4.53h8.09Z"
       transform="translate(0.39 0.08)"
       style="fill: #00adee"
       id="path13" />
    <g
       id="g20">
      <path
         d="M55.61,296.48l-.22.1-.17.07-.24.08-.54.11a3.48,3.48,0,0,1-.57,0,2.38,2.38,0,0,1-1.1-.26,2,2,0,0,1-.82-.82,2.82,2.82,0,0,1-.3-1.36,3.5,3.5,0,0,1,.15-1,1.78,1.78,0,0,1,.49-.8,1.94,1.94,0,0,1,.54-.39,2.32,2.32,0,0,1,.53-.17,3.48,3.48,0,0,1,.58-.05,3.3,3.3,0,0,1,.85.1,5.38,5.38,0,0,1,.74.25v1.12a2.8,2.8,0,0,0-.56-.32,2,2,0,0,0-.74-.12,1.27,1.27,0,0,0-.82.23,1.21,1.21,0,0,0-.43.56,1.84,1.84,0,0,0-.12.63,1.45,1.45,0,0,0,.14.66,1.17,1.17,0,0,0,.42.49,1.2,1.2,0,0,0,.67.18,2.22,2.22,0,0,0,.49-.07v-.56H54v-1h1.57Z"
         transform="translate(0.39 0.08)"
         style="fill: #fff"
         id="path14" />
      <path
         d="M59.37,296.64a3.27,3.27,0,0,1-.41.17,1.27,1.27,0,0,1-.46.07.47.47,0,0,1-.35-.11.6.6,0,0,1-.14-.26,1.37,1.37,0,0,1-.37.26,1.13,1.13,0,0,1-.53.11.92.92,0,0,1-.5-.13.73.73,0,0,1-.28-.33,1.2,1.2,0,0,1-.08-.42,1,1,0,0,1,.14-.53,1.07,1.07,0,0,1,.36-.34,4.35,4.35,0,0,1,.6-.28l.32-.12.17-.07.11-.06a.89.89,0,0,0-.08-.4.41.41,0,0,0-.37-.14,1.12,1.12,0,0,0-.62.18,2.48,2.48,0,0,0-.53.45v-.94a2.07,2.07,0,0,1,.41-.27,1.84,1.84,0,0,1,.47-.15,2,2,0,0,1,.48-.05,1.34,1.34,0,0,1,.95.29,1,1,0,0,1,.31.8v1.35a1,1,0,0,0,0,.28.13.13,0,0,0,.11.1.61.61,0,0,0,.26-.1ZM58,296v-.83a3,3,0,0,0-.53.32.49.49,0,0,0-.17.39.36.36,0,0,0,.09.26.26.26,0,0,0,.19.1.44.44,0,0,0,.21-.07Z"
         transform="translate(0.39 0.08)"
         style="fill: #fff"
         id="path15" />
      <path
         d="M62,296.62a1.75,1.75,0,0,1-.44.17,1.69,1.69,0,0,1-.53.09c-.74,0-1.11-.43-1.11-1.3v-1.39h-.46V294l1.37-1.68h.12v1h1v.85h-1v1.12a2.41,2.41,0,0,0,0,.31.31.31,0,0,0,.11.2.44.44,0,0,0,.28.08,1.28,1.28,0,0,0,.64-.25Z"
         transform="translate(0.39 0.08)"
         style="fill: #fff"
         id="path16" />
      <path
         d="M65.38,295.37h-2a.82.82,0,0,0,.29.52.76.76,0,0,0,.53.21,2.43,2.43,0,0,0,1.14-.35v.76a2.58,2.58,0,0,1-.55.25,2.31,2.31,0,0,1-.81.12,1.67,1.67,0,0,1-.91-.24,1.54,1.54,0,0,1-.56-.65,2.47,2.47,0,0,1,0-1.85,1.43,1.43,0,0,1,.56-.63,1.67,1.67,0,0,1,.91-.23,1.38,1.38,0,0,1,.68.18,1.33,1.33,0,0,1,.54.6,2.34,2.34,0,0,1,.21,1.07Zm-1-.6a.87.87,0,0,0-.14-.54.45.45,0,0,0-.39-.2.5.5,0,0,0-.41.2.85.85,0,0,0-.16.54Z"
         transform="translate(0.39 0.08)"
         style="fill: #fff"
         id="path17" />
      <path
         d="M69,296.82H67.78v-4.74H69Z"
         transform="translate(0.39 0.08)"
         style="fill: #fff"
         id="path18" />
      <path
         d="M72.88,296.82h-1v-1.88a1.51,1.51,0,0,0-.07-.5.34.34,0,0,0-.35-.21.42.42,0,0,0-.22,0,.57.57,0,0,0-.16.15.64.64,0,0,0-.13.17s-.07.11-.11.17v2.05h-1v-3.48h1v.5a1.5,1.5,0,0,1,.49-.44,1.19,1.19,0,0,1,.54-.12c.69,0,1,.49,1,1.49Z"
         transform="translate(0.39 0.08)"
         style="fill: #fff"
         id="path19" />
      <path
         d="M78.11,296.82h-3v-.09l.38-.49.53-.74.28-.41a2.65,2.65,0,0,0,.23-.39,4.09,4.09,0,0,0,.16-.42,1.84,1.84,0,0,0,.06-.47.82.82,0,0,0-.16-.53.48.48,0,0,0-.4-.2,1.3,1.3,0,0,0-1,.6v-1.12l.28-.21.25-.15a1.75,1.75,0,0,1,.33-.13,1.42,1.42,0,0,1,.42-.06,1.2,1.2,0,0,1,.65.18,1.29,1.29,0,0,1,.47.51,1.73,1.73,0,0,1,.17.78,2.27,2.27,0,0,1-.08.59,3,3,0,0,1-.16.44c0,.11-.13.25-.22.41a9.73,9.73,0,0,1-.52.83h1.27Z"
         transform="translate(0.39 0.08)"
         style="fill: #fff"
         id="path20" />
    </g>
    <line
       x1="115.49"
       y1="263.57"
       x2="115.49"
       y2="263.5"
       style="fill: #231f20"
       id="line20" />
    <g
       id="g32">
      <path
         d="M252.44,354.82h-1.39l-.36-1.09h-2l-.37,1.09H247l2-5.41h1.5Zm-2.07-2-.65-2-.67,2Z"
         transform="translate(0.39 0.08)"
         style="fill: #fff"
         id="path21" />
      <path
         d="M256.41,354.82h-1.16v-.56a2.09,2.09,0,0,1-.52.48,1.33,1.33,0,0,1-.65.16.94.94,0,0,1-1-.53,3,3,0,0,1-.22-1.19v-2.33h1.17V353a1.7,1.7,0,0,0,.09.57.37.37,0,0,0,.39.24.49.49,0,0,0,.4-.18,2.66,2.66,0,0,0,.31-.45v-2.33h1.16Z"
         transform="translate(0.39 0.08)"
         style="fill: #fff"
         id="path22" />
      <path
         d="M260.65,354.82h-1.17v-.35a1.85,1.85,0,0,1-.39.3,1,1,0,0,1-.57.13,1.37,1.37,0,0,1-.7-.22,1.59,1.59,0,0,1-.57-.67,2.59,2.59,0,0,1-.23-1.15,3,3,0,0,1,.17-1,1.73,1.73,0,0,1,.53-.78,1.37,1.37,0,0,1,.88-.29,1.56,1.56,0,0,1,.53.08,1.38,1.38,0,0,1,.35.22v-1.67h1.17Zm-1.17-1.26V352l-.31-.2a.78.78,0,0,0-.28,0,.52.52,0,0,0-.45.28,1.3,1.3,0,0,0-.19.76,1.22,1.22,0,0,0,.2.77.54.54,0,0,0,.44.24.63.63,0,0,0,.34-.08A1.16,1.16,0,0,0,259.48,353.56Z"
         transform="translate(0.39 0.08)"
         style="fill: #fff"
         id="path23" />
      <path
         d="M262.62,354.82h-1.17v-4h1.17Zm-.09-4.89a.64.64,0,0,1-.15.42.43.43,0,0,1-.59.09.46.46,0,0,1-.18-.21.73.73,0,0,1-.06-.3.63.63,0,0,1,.14-.42.44.44,0,0,1,.35-.17.44.44,0,0,1,.34.17A.64.64,0,0,1,262.53,349.93Z"
         transform="translate(0.39 0.08)"
         style="fill: #fff"
         id="path24" />
      <path
         d="M267.07,352.83a2.54,2.54,0,0,1-.21,1.06,1.77,1.77,0,0,1-.64.74,1.92,1.92,0,0,1-1,.27,1.89,1.89,0,0,1-1-.27,1.64,1.64,0,0,1-.64-.74,2.79,2.79,0,0,1-.09-1.87,1.54,1.54,0,0,1,.36-.65,1.61,1.61,0,0,1,.59-.44,2.32,2.32,0,0,1,1.64,0,1.65,1.65,0,0,1,.6.43,2.14,2.14,0,0,1,.35.65A2.66,2.66,0,0,1,267.07,352.83Zm-1.23,0a1.33,1.33,0,0,0-.17-.74.55.55,0,0,0-.49-.27.53.53,0,0,0-.49.27,1.33,1.33,0,0,0-.17.74,1.31,1.31,0,0,0,.17.74.53.53,0,0,0,.49.28.55.55,0,0,0,.49-.27A1.35,1.35,0,0,0,265.84,352.83Z"
         transform="translate(0.39 0.08)"
         style="fill: #fff"
         id="path25" />
      <path
         d="M270.72,349.34l-2.45,5.56h-.86l2.44-5.56Z"
         transform="translate(0.39 0.08)"
         style="fill: #fff"
         id="path26" />
      <path
         d="M275.4,354.42a2.51,2.51,0,0,1-.57.28,3,3,0,0,1-.59.15,4,4,0,0,1-.61,0,2.69,2.69,0,0,1-1.05-.2,2.2,2.2,0,0,1-.81-.58,2.38,2.38,0,0,1-.51-.89,3.33,3.33,0,0,1-.17-1.12,3.29,3.29,0,0,1,.2-1.22,2.29,2.29,0,0,1,.56-.87,2.24,2.24,0,0,1,.82-.52,2.92,2.92,0,0,1,1-.16,4.36,4.36,0,0,1,1.73.41v1.43a4.74,4.74,0,0,0-.66-.41,1.64,1.64,0,0,0-.76-.17,1.48,1.48,0,0,0-.74.19,1.37,1.37,0,0,0-.54.53,1.68,1.68,0,0,0,0,1.57,1.37,1.37,0,0,0,.5.54,1.32,1.32,0,0,0,.73.2,2.06,2.06,0,0,0,.62-.09,2.53,2.53,0,0,0,.49-.22,3.21,3.21,0,0,0,.41-.27Z"
         transform="translate(0.39 0.08)"
         style="fill: #fff"
         id="path27" />
      <path
         d="M280.71,349.41l-2,5.49h-.89l-2-5.49h1.41l1,3.13,1.06-3.13Z"
         transform="translate(0.39 0.08)"
         style="fill: #fff"
         id="path28" />
      <path
         d="M288.11,352.11a3.4,3.4,0,0,1-.29,1.4,2.37,2.37,0,0,1-.87,1,2.5,2.5,0,0,1-1.4.38,2.41,2.41,0,0,1-1.41-.4,2.34,2.34,0,0,1-.85-1,3.33,3.33,0,0,1-.28-1.37,3.28,3.28,0,0,1,.28-1.36,2.29,2.29,0,0,1,.85-1,2.48,2.48,0,0,1,1.41-.39,2.67,2.67,0,0,1,1.12.22,2.31,2.31,0,0,1,.8.6,2.53,2.53,0,0,1,.47.89A3.41,3.41,0,0,1,288.11,352.11Zm-1.38,0a1.92,1.92,0,0,0-.08-.55,1.21,1.21,0,0,0-.22-.44,1.06,1.06,0,0,0-.88-.39,1.05,1.05,0,0,0-.85.38,1.51,1.51,0,0,0-.31,1,1.54,1.54,0,0,0,.31,1,1,1,0,0,0,.85.38,1.17,1.17,0,0,0,.64-.17,1.1,1.1,0,0,0,.4-.5A1.81,1.81,0,0,0,286.73,352.11Z"
         transform="translate(0.39 0.08)"
         style="fill: #fff"
         id="path29" />
      <path
         d="M292.23,354.82h-1.16v-.56a2.09,2.09,0,0,1-.52.48,1.33,1.33,0,0,1-.65.16.94.94,0,0,1-1-.53,3,3,0,0,1-.22-1.19v-2.33h1.17V353a1.7,1.7,0,0,0,.09.57.36.36,0,0,0,.38.24.5.5,0,0,0,.41-.18,2.66,2.66,0,0,0,.31-.45v-2.33h1.16Z"
         transform="translate(0.39 0.08)"
         style="fill: #fff"
         id="path30" />
      <path
         d="M295.59,354.59a3.14,3.14,0,0,1-.5.21,2.35,2.35,0,0,1-.62.1c-.84,0-1.26-.5-1.26-1.49v-1.59h-.53v-.24l1.57-1.92h.13v1.19h1.12v1h-1.12v1.28a1.73,1.73,0,0,0,0,.36.37.37,0,0,0,.12.23.49.49,0,0,0,.32.09,1.64,1.64,0,0,0,.74-.28Z"
         transform="translate(0.39 0.08)"
         style="fill: #fff"
         id="path31" />
      <path
         d="M298.68,353.66a1.21,1.21,0,0,1-.33.89,1.31,1.31,0,0,1-1,.35,2.57,2.57,0,0,1-.65-.08,5.38,5.38,0,0,1-.62-.23v-1a5.38,5.38,0,0,0,.51.31,1,1,0,0,0,.47.1c.3,0,.44-.1.44-.29a.27.27,0,0,0-.06-.17.88.88,0,0,0-.22-.17l-.42-.23a1.76,1.76,0,0,1-.55-.46A1.14,1.14,0,0,1,296,352a1.16,1.16,0,0,1,.15-.57,1.17,1.17,0,0,1,.46-.45,1.51,1.51,0,0,1,.73-.17,1.42,1.42,0,0,1,.27,0,2.14,2.14,0,0,1,.4.09,2,2,0,0,1,.47.21v1l-.18-.12a.7.7,0,0,0-.18-.12,1.49,1.49,0,0,0-.28-.11,1.13,1.13,0,0,0-.32-.05.31.31,0,0,0-.27.1.25.25,0,0,0,0,.37,1.34,1.34,0,0,0,.35.2,3.75,3.75,0,0,1,.62.37,1.27,1.27,0,0,1,.33.42A1.25,1.25,0,0,1,298.68,353.66Z"
         transform="translate(0.39 0.08)"
         style="fill: #fff"
         id="path32" />
    </g>
    <g
       id="g43">
      <path
         d="M82.54,353.28H81.15l-.36-1.1h-2l-.38,1.1H77.07l2-5.42h1.5Zm-2.06-2-.66-2-.67,2Z"
         transform="translate(0.39 0.08)"
         style="fill: #fff"
         id="path33" />
      <path
         d="M86.52,353.28H85.35v-.57a2.09,2.09,0,0,1-.52.48,1.33,1.33,0,0,1-.65.16.94.94,0,0,1-1-.53,3,3,0,0,1-.22-1.18V349.3h1.17v2.15a1.7,1.7,0,0,0,.09.57.37.37,0,0,0,.39.24.51.51,0,0,0,.4-.17,3.84,3.84,0,0,0,.31-.45V349.3h1.17Z"
         transform="translate(0.39 0.08)"
         style="fill: #fff"
         id="path34" />
      <path
         d="M90.76,353.28H89.59v-.36a2.64,2.64,0,0,1-.39.31,1.15,1.15,0,0,1-.57.12,1.29,1.29,0,0,1-.71-.22,1.53,1.53,0,0,1-.57-.67,2.55,2.55,0,0,1-.22-1.14,3,3,0,0,1,.16-1,1.78,1.78,0,0,1,.53-.77,1.5,1.5,0,0,1,1.41-.21,1.62,1.62,0,0,1,.36.21v-1.67h1.17ZM89.59,352v-1.52l-.32-.19a.6.6,0,0,0-.27-.06.52.52,0,0,0-.46.28,1.4,1.4,0,0,0-.19.76,1.2,1.2,0,0,0,.2.77.57.57,0,0,0,.45.24.59.59,0,0,0,.34-.08A1.46,1.46,0,0,0,89.59,352Z"
         transform="translate(0.39 0.08)"
         style="fill: #fff"
         id="path35" />
      <path
         d="M92.72,353.28H91.55v-4h1.17Zm-.09-4.9a.6.6,0,0,1-.15.42.44.44,0,0,1-.34.17.38.38,0,0,1-.25-.08.63.63,0,0,1-.18-.21.73.73,0,0,1-.06-.3.68.68,0,0,1,.14-.42.46.46,0,0,1,.35-.17.44.44,0,0,1,.34.17A.64.64,0,0,1,92.63,348.38Z"
         transform="translate(0.39 0.08)"
         style="fill: #fff"
         id="path36" />
      <path
         d="M97.17,351.28a2.54,2.54,0,0,1-.21,1.06,1.71,1.71,0,0,1-.64.74,1.92,1.92,0,0,1-1,.27,1.89,1.89,0,0,1-1-.27,1.71,1.71,0,0,1-.64-.74,2.79,2.79,0,0,1-.09-1.87,1.88,1.88,0,0,1,.36-.65,1.61,1.61,0,0,1,.59-.44,2.1,2.1,0,0,1,.82-.15,2.07,2.07,0,0,1,.82.15,1.67,1.67,0,0,1,.6.44,2,2,0,0,1,.35.64A2.66,2.66,0,0,1,97.17,351.28Zm-1.23,0a1.33,1.33,0,0,0-.17-.74.59.59,0,0,0-1,0,1.33,1.33,0,0,0-.17.74,1.37,1.37,0,0,0,.17.75.55.55,0,0,0,.49.27.53.53,0,0,0,.49-.27A1.35,1.35,0,0,0,95.94,351.28Z"
         transform="translate(0.39 0.08)"
         style="fill: #fff"
         id="path37" />
      <path
         d="M100.82,347.79l-2.44,5.56h-.87l2.44-5.56Z"
         transform="translate(0.39 0.08)"
         style="fill: #fff"
         id="path38" />
      <path
         d="M105.5,352.87a2.51,2.51,0,0,1-.57.28,3.1,3.1,0,0,1-.58.15,4.21,4.21,0,0,1-.62.05,2.69,2.69,0,0,1-1-.2,2.3,2.3,0,0,1-.81-.57,2.55,2.55,0,0,1-.51-.89,3.65,3.65,0,0,1-.17-1.12,3.52,3.52,0,0,1,.2-1.23,2.29,2.29,0,0,1,.56-.87,2.48,2.48,0,0,1,.83-.52,2.82,2.82,0,0,1,1-.16,4.63,4.63,0,0,1,1.74.41v1.44a5.11,5.11,0,0,0-.66-.42,1.71,1.71,0,0,0-.77-.17,1.53,1.53,0,0,0-.73.19,1.5,1.5,0,0,0-.55.54,1.53,1.53,0,0,0-.21.81,1.6,1.6,0,0,0,.18.75,1.33,1.33,0,0,0,.51.54,1.27,1.27,0,0,0,.72.21,2.38,2.38,0,0,0,1.11-.31,3.32,3.32,0,0,0,.41-.28Z"
         transform="translate(0.39 0.08)"
         style="fill: #fff"
         id="path39" />
      <path
         d="M110.81,347.86l-2,5.49h-.9l-2-5.49h1.41l1,3.13,1.06-3.13Z"
         transform="translate(0.39 0.08)"
         style="fill: #fff"
         id="path40" />
      <path
         d="M114.76,353.28h-1.35v-5.42h1.35Z"
         transform="translate(0.39 0.08)"
         style="fill: #fff"
         id="path41" />
      <path
         d="M119.23,353.28h-1.17v-2.15a1.62,1.62,0,0,0-.09-.57.37.37,0,0,0-.39-.24.51.51,0,0,0-.25.06.61.61,0,0,0-.19.17,1.25,1.25,0,0,0-.15.19l-.12.2v2.34h-1.16v-4h1.16v.57a1.9,1.9,0,0,1,.55-.5,1.44,1.44,0,0,1,.62-.14c.79,0,1.19.57,1.19,1.71Z"
         transform="translate(0.39 0.08)"
         style="fill: #fff"
         id="path42" />
      <path
         d="M122.51,352.12a1.24,1.24,0,0,1-.33.89,1.35,1.35,0,0,1-1,.34,2.57,2.57,0,0,1-.65-.08,5.38,5.38,0,0,1-.62-.23v-1a3.87,3.87,0,0,0,.51.31,1.06,1.06,0,0,0,.48.1c.29,0,.43-.09.43-.29a.27.27,0,0,0-.06-.17.88.88,0,0,0-.22-.17l-.42-.23a1.63,1.63,0,0,1-.55-.46,1.12,1.12,0,0,1-.23-.71,1.16,1.16,0,0,1,.15-.57,1.17,1.17,0,0,1,.46-.45,1.51,1.51,0,0,1,.73-.17l.27,0a2.33,2.33,0,0,1,.87.3v1l-.17-.12-.19-.12-.27-.11a1.26,1.26,0,0,0-.33-.05.34.34,0,0,0-.27.1.25.25,0,0,0,0,.37,1.61,1.61,0,0,0,.35.21,2.9,2.9,0,0,1,.62.37,1.05,1.05,0,0,1,.33.41A1.27,1.27,0,0,1,122.51,352.12Z"
         transform="translate(0.39 0.08)"
         style="fill: #fff"
         id="path43" />
    </g>
    <g
       id="g47">
      <path
         d="M337.91,56.61a1.67,1.67,0,0,1-.22.88,1.38,1.38,0,0,1-.6.57,1.9,1.9,0,0,1-.88.19,2.12,2.12,0,0,1-.34,0,2.44,2.44,0,0,1-.54-.12,3.15,3.15,0,0,1-.7-.29V56.5a4.11,4.11,0,0,0,.67.42,1.54,1.54,0,0,0,.7.17.56.56,0,0,0,.45-.14.43.43,0,0,0,.1-.26.45.45,0,0,0-.17-.37,2.27,2.27,0,0,0-.51-.31,4,4,0,0,1-.65-.41,1.73,1.73,0,0,1-.45-.55,1.65,1.65,0,0,1-.18-.79,1.73,1.73,0,0,1,.18-.79,1.38,1.38,0,0,1,.54-.56,1.79,1.79,0,0,1,.9-.21,3,3,0,0,1,.69.08,2.83,2.83,0,0,1,.53.2,1.63,1.63,0,0,1,.28.17v1.27a3,3,0,0,0-.61-.42,1.44,1.44,0,0,0-.72-.19.5.5,0,0,0-.37.12.41.41,0,0,0,0,.56,2,2,0,0,0,.4.29,5.77,5.77,0,0,1,.83.53,1.68,1.68,0,0,1,.49.54A1.47,1.47,0,0,1,337.91,56.61Z"
         transform="translate(0.39 0.08)"
         style="fill: #fff"
         id="path44" />
      <path
         d="M343.76,58.18h-1.38L342,57.09h-1.95l-.37,1.09H338.3l2-5.41h1.49Zm-2.06-2-.66-2-.66,2Z"
         transform="translate(0.39 0.08)"
         style="fill: #fff"
         id="path45" />
      <path
         d="M348.28,52.77l-2,5.48h-.89l-2-5.48h1.41l1,3.13,1.06-3.13Z"
         transform="translate(0.39 0.08)"
         style="fill: #fff"
         id="path46" />
      <path
         d="M352.29,58.18H348.9V52.77h3.33v1.09h-2v1h1.89v1.09h-1.89v1.15h2Z"
         transform="translate(0.39 0.08)"
         style="fill: #fff"
         id="path47" />
    </g>
    <g
       id="g57">
      <path
         d="M163.64,357.62h-1.9v-4.31l-1.71,2.5h-.15l-1.72-2.5v4.31h-1.84v-7.44H158L160,353l1.95-2.79h1.72Z"
         transform="translate(0.39 0.08)"
         style="fill: #fff"
         id="path48" />
      <path
         d="M169.6,355.35h-3.25a1.34,1.34,0,0,0,.47.82,1.24,1.24,0,0,0,.84.32,3.89,3.89,0,0,0,1.82-.55v1.2a4.64,4.64,0,0,1-.86.4,4,4,0,0,1-1.31.18,2.7,2.7,0,0,1-1.45-.38,2.26,2.26,0,0,1-.89-1,3.43,3.43,0,0,1-.3-1.46,3.31,3.31,0,0,1,.3-1.44,2.16,2.16,0,0,1,.89-1,2.79,2.79,0,0,1,1.45-.36,2.24,2.24,0,0,1,1.09.28,2.14,2.14,0,0,1,.86.94,3.63,3.63,0,0,1,.34,1.69Zm-1.53-1a1.42,1.42,0,0,0-.22-.84.74.74,0,0,0-.64-.32.81.81,0,0,0-.66.32,1.37,1.37,0,0,0-.25.84Z"
         transform="translate(0.39 0.08)"
         style="fill: #fff"
         id="path49" />
      <path
         d="M174,357.3a3.49,3.49,0,0,1-.7.28,3,3,0,0,1-.86.14c-1.18,0-1.76-.68-1.76-2V353.5h-.74v-.34l2.19-2.64h.18v1.63h1.57v1.35h-1.57v1.75a2.25,2.25,0,0,0,0,.49.52.52,0,0,0,.18.32.66.66,0,0,0,.44.12,2.18,2.18,0,0,0,1-.39Z"
         transform="translate(0.39 0.08)"
         style="fill: #fff"
         id="path50" />
      <path
         d="M179.38,357.35a4.81,4.81,0,0,1-.67.26,2.2,2.2,0,0,1-.73.11.76.76,0,0,1-.56-.17,1,1,0,0,1-.23-.41,2.35,2.35,0,0,1-.58.41,1.89,1.89,0,0,1-.85.17,1.43,1.43,0,0,1-.81-.21,1.16,1.16,0,0,1-.44-.52,1.82,1.82,0,0,1-.12-.65,1.53,1.53,0,0,1,.21-.83,1.77,1.77,0,0,1,.58-.54,6.39,6.39,0,0,1,1-.44l.52-.19.26-.11a.81.81,0,0,0,.18-.1,1.22,1.22,0,0,0-.13-.62c-.09-.15-.29-.22-.59-.22a1.87,1.87,0,0,0-1,.28,3.69,3.69,0,0,0-.84.71V352.8a2.84,2.84,0,0,1,.66-.42,3.2,3.2,0,0,1,.74-.24,3.44,3.44,0,0,1,.78-.08,2.17,2.17,0,0,1,1.51.46,1.59,1.59,0,0,1,.51,1.26v2.11a1.72,1.72,0,0,0,0,.45c0,.1.09.15.18.15a.89.89,0,0,0,.42-.16Zm-2.28-1.05V355a4,4,0,0,0-.85.5.73.73,0,0,0-.26.6.6.6,0,0,0,.13.42.4.4,0,0,0,.31.15.62.62,0,0,0,.33-.11A4,4,0,0,0,177.1,356.3Z"
         transform="translate(0.39 0.08)"
         style="fill: #fff"
         id="path51" />
      <path
         d="M190.05,357.62h-1.9v-4.31l-1.71,2.5h-.15l-1.72-2.5v4.31h-1.84v-7.44h1.72l1.93,2.79,2-2.79h1.72Z"
         transform="translate(0.39 0.08)"
         style="fill: #fff"
         id="path52" />
      <path
         d="M196.38,354.88a3.4,3.4,0,0,1-.3,1.46,2.37,2.37,0,0,1-.9,1,3,3,0,0,1-2.91,0,2.35,2.35,0,0,1-.89-1,3.4,3.4,0,0,1-.3-1.46,3.33,3.33,0,0,1,.17-1.12,2.48,2.48,0,0,1,.5-.9,2.28,2.28,0,0,1,.83-.59,2.91,2.91,0,0,1,1.15-.21,3,3,0,0,1,1.15.21,2.2,2.2,0,0,1,.83.59,2.6,2.6,0,0,1,.5.89A3.67,3.67,0,0,1,196.38,354.88Zm-1.72,0a1.88,1.88,0,0,0-.24-1,.84.84,0,0,0-1.38,0,2.29,2.29,0,0,0,0,2,.82.82,0,0,0,1.38,0A1.85,1.85,0,0,0,194.66,354.88Z"
         transform="translate(0.39 0.08)"
         style="fill: #fff"
         id="path53" />
      <path
         d="M202,357.62h-1.64v-.49a2.63,2.63,0,0,1-.54.42,1.64,1.64,0,0,1-.8.17,1.84,1.84,0,0,1-1-.3,2.15,2.15,0,0,1-.8-.92,3.5,3.5,0,0,1-.31-1.58,4.33,4.33,0,0,1,.23-1.4,2.51,2.51,0,0,1,.74-1.06,1.92,1.92,0,0,1,1.24-.4,2.08,2.08,0,0,1,.73.11,1.69,1.69,0,0,1,.5.31v-2.3H202Zm-1.64-1.74v-2.09l-.44-.27a.92.92,0,0,0-.38-.08.74.74,0,0,0-.64.39,1.82,1.82,0,0,0-.26,1.05,1.68,1.68,0,0,0,.27,1.06.8.8,0,0,0,.63.33.93.93,0,0,0,.47-.11A1.87,1.87,0,0,0,200.38,355.88Z"
         transform="translate(0.39 0.08)"
         style="fill: #fff"
         id="path54" />
      <path
         d="M207.83,357.62H206.2v-.78a2.58,2.58,0,0,1-.73.66,1.75,1.75,0,0,1-.91.22,1.31,1.31,0,0,1-1.36-.73,4.19,4.19,0,0,1-.3-1.63v-3.21h1.63v3a2.37,2.37,0,0,0,.12.78.53.53,0,0,0,.55.33.72.72,0,0,0,.57-.24,4.39,4.39,0,0,0,.43-.62v-3.21h1.63Z"
         transform="translate(0.39 0.08)"
         style="fill: #fff"
         id="path55" />
      <path
         d="M210.5,357.62h-1.63v-7.44h1.63Z"
         transform="translate(0.39 0.08)"
         style="fill: #fff"
         id="path56" />
      <path
         d="M216.28,355.35H213a1.39,1.39,0,0,0,.47.82,1.28,1.28,0,0,0,.85.32,3.92,3.92,0,0,0,1.82-.55v1.2a5.09,5.09,0,0,1-.87.4,4,4,0,0,1-1.3.18,2.68,2.68,0,0,1-1.45-.38,2.34,2.34,0,0,1-.9-1,3.43,3.43,0,0,1-.3-1.46,3.31,3.31,0,0,1,.3-1.44,2.24,2.24,0,0,1,.9-1,2.76,2.76,0,0,1,1.45-.36,2.24,2.24,0,0,1,1.09.28,2.2,2.2,0,0,1,.86.94,3.63,3.63,0,0,1,.34,1.69Zm-1.54-1a1.42,1.42,0,0,0-.22-.84.71.71,0,0,0-.63-.32.81.81,0,0,0-.66.32,1.31,1.31,0,0,0-.25.84Z"
         transform="translate(0.39 0.08)"
         style="fill: #fff"
         id="path57" />
    </g>
    <path
       d="M194.94,7.6a1.64,1.64,0,0,0-2,.51l-6,7.66V9.68a2.11,2.11,0,0,0-1.08-1.92,1.62,1.62,0,0,0-2,.51l-9.09,11.56a2.31,2.31,0,0,0,0,2.86,1.68,1.68,0,0,0,1.28.62h0a1.66,1.66,0,0,0,1.29-.67s3.44-4.36,6-7.6v6.09a2.12,2.12,0,0,0,1.09,1.92,1.64,1.64,0,0,0,2-.51l6-7.66v6.25a1.81,1.81,0,1,0,3.58,0V9.52A2.12,2.12,0,0,0,194.94,7.6Z"
       transform="translate(0.39 0.08)"
       style="fill: #00adee"
       id="path58" />
    <g
       id="g60">
      <path
         d="M176,23.56a2.2,2.2,0,0,1-2-2.33V15.52l-2.46,3.13a1.94,1.94,0,0,1-1.49.77,1.89,1.89,0,0,1-1.5-.71,2.6,2.6,0,0,1-.05-3.18l6-7.66A2,2,0,0,1,176,7.1a1.83,1.83,0,0,1,.82.19,2.37,2.37,0,0,1,1.22,2.14v11.8A2.2,2.2,0,0,1,176,23.56Z"
         transform="translate(0.39 0.08)"
         style="fill: #ec1c24"
         id="path59" />
      <path
         d="M176,7.35a1.56,1.56,0,0,1,.7.16,2.1,2.1,0,0,1,1.09,1.92v11.8a1.81,1.81,0,1,1-3.58,0V14.79l-2.91,3.7a1.69,1.69,0,0,1-1.3.68h0a1.63,1.63,0,0,1-1.3-.62,2.33,2.33,0,0,1,0-2.87l6-7.66A1.67,1.67,0,0,1,176,7.35m0-.5a2.16,2.16,0,0,0-1.71.86l-6,7.66a2.85,2.85,0,0,0,.06,3.5,2.12,2.12,0,0,0,1.68.8,2.17,2.17,0,0,0,1.69-.87l2-2.56v5a2.31,2.31,0,1,0,4.58,0V9.43a2.61,2.61,0,0,0-1.36-2.37,2.18,2.18,0,0,0-.93-.21Z"
         transform="translate(0.39 0.08)"
         style="fill: #231f20"
         id="path60" />
    </g>
    <path
       d="M205.54,13.81a1.8,1.8,0,0,0-1.66-1.29h-1.6l1.31-1.67c.46-.67,1-2,0-2.92A2,2,0,0,0,201,8l-4.11,5.2a2.37,2.37,0,0,0-.34,2.19,1.81,1.81,0,0,0,1.66,1.3h1.61l-2.46,3.13c-.56.61-1.35,2-.32,3.05a1.66,1.66,0,0,0,1.22.53,2.71,2.71,0,0,0,1.72-.74L205.2,16A2.35,2.35,0,0,0,205.54,13.81Z"
       transform="translate(0.39 0.08)"
       style="fill: #00a551"
       id="path61" />
    <path
       d="M34.78,339.54a16.09,16.09,0,1,0-16.09-16.09A16.09,16.09,0,0,0,34.78,339.54Z"
       transform="translate(0.39 0.08)"
       style="fill: #231f20"
       id="path62" />
    <path
       d="M28.33,78.51H27.09V78a2,2,0,0,1-.54.48,1.54,1.54,0,0,1-.7.15,1,1,0,0,1-1-.52,2.84,2.84,0,0,1-.23-1.19V74.54h1.23v2.15a1.4,1.4,0,0,0,.1.56.39.39,0,0,0,.41.25.54.54,0,0,0,.43-.18,2.92,2.92,0,0,0,.32-.45V74.54h1.24Z"
       transform="translate(0.39 0.08)"
       style="fill: #ec1c24"
       id="path63" />
    <path
       d="M347.17,108h-1.53l-.67-1.13-.68,1.13h-1.35l1.35-2-1.38-2h1.52l.65,1.08.65-1.08h1.36L345.76,106Z"
       transform="translate(0.39 0.08)"
       style="fill: #f06392"
       id="path64" />
    <path
       d="M29.34,170.46l-1.38,4h-.78l-.78-2.17-.78,2.17h-.78l-1.42-4h1.26l.64,2,.68-2h.79l.69,2,.62-2Z"
       transform="translate(0.39 0.08)"
       style="fill: #00adee"
       id="path65" />
    <path
       d="M62.82,122.71l-1.59,4h-.91l-1.56-4h1.33l.72,2.08.81-2.08Z"
       transform="translate(0.39 0.08)"
       style="fill: #fff100"
       id="path66" />
    <path
       d="M303.89,135.17,301.51,141h-1.25l1-2.33-1.38-3.46h1.33l.71,2,.81-2Z"
       transform="translate(0.39 0.08)"
       style="fill: #faa629"
       id="path67" />
    <path
       d="M346.89,169.8l-1.68,2.81h1.64v1h-3.59v-.13l1.68-2.81H343.4v-1h3.49Z"
       transform="translate(0.39 0.08)"
       style="fill: #00a551"
       id="path68" />
    <path
       d="M222.05,302a1.49,1.49,0,0,1-.15.66,1,1,0,0,1-.43.48,1.2,1.2,0,0,1-.7.19,1.89,1.89,0,0,1-.63-.1,1.71,1.71,0,0,1-.55-.29v-.88a2,2,0,0,0,.46.29,1.35,1.35,0,0,0,.53.14.39.39,0,0,0,.36-.16.56.56,0,0,0,.11-.32.58.58,0,0,0-.06-.26.45.45,0,0,0-.21-.2.83.83,0,0,0-.41-.08,1.24,1.24,0,0,0-.54.11v-2.36h2.07v.85h-1.28v.7h.23a1.19,1.19,0,0,1,.63.17,1.16,1.16,0,0,1,.42.46A1.32,1.32,0,0,1,222.05,302Z"
       transform="translate(0.39 0.08)"
       style="fill: #231f20"
       id="path69" />
    <path
       d="M265.69,301.38a1.56,1.56,0,0,1-.38,1,1.22,1.22,0,0,1-.44.33,1.28,1.28,0,0,1-.56.12,1.32,1.32,0,0,1-.77-.23,1.4,1.4,0,0,1-.48-.59,1.92,1.92,0,0,1-.16-.79,2.35,2.35,0,0,1,.1-.69,2.68,2.68,0,0,1,.29-.68,4.09,4.09,0,0,1,.45-.64,4.42,4.42,0,0,1,.58-.56l.88.33-.36.37c-.1.12-.2.23-.3.36s-.17.24-.25.37a.88.88,0,0,1,.24,0,1.08,1.08,0,0,1,.58.16,1.13,1.13,0,0,1,.42.47A1.41,1.41,0,0,1,265.69,301.38Zm-.93,0a.55.55,0,0,0-.14-.41.45.45,0,0,0-.32-.14.4.4,0,0,0-.36.18.64.64,0,0,0-.11.37.6.6,0,0,0,.13.4.42.42,0,0,0,.59.07.44.44,0,0,0,.16-.22A.74.74,0,0,0,264.76,301.36Z"
       transform="translate(0.39 0.08)"
       style="fill: #231f20"
       id="path70" />
    <path
       d="M112.12,301.2c0,1.76-1.82,3.18-4.05,3.18s-4-1.42-4-3.18v-4.54h8.1Z"
       transform="translate(0.39 0.08)"
       style="fill: #faa629"
       id="path71" />
    <path
       d="M155.65,301.2c0,1.76-1.81,3.18-4.05,3.18s-4-1.42-4-3.18v-4.54h8.1Z"
       transform="translate(0.39 0.08)"
       style="fill: #00a551"
       id="path72" />
    <path
       d="M109.35,302a1.63,1.63,0,0,1-.14.66,1.17,1.17,0,0,1-.43.48,1.25,1.25,0,0,1-.7.19,2,2,0,0,1-.64-.1,1.71,1.71,0,0,1-.55-.29v-.88a2.14,2.14,0,0,0,.47.29,1.31,1.31,0,0,0,.52.14.42.42,0,0,0,.37-.16.55.55,0,0,0,.1-.32.58.58,0,0,0-.06-.26.45.45,0,0,0-.21-.2.81.81,0,0,0-.41-.08,1.24,1.24,0,0,0-.54.11v-2.36h2.07v.85h-1.28v.7h.23a1.19,1.19,0,0,1,.63.17,1.09,1.09,0,0,1,.42.46A1.32,1.32,0,0,1,109.35,302Z"
       transform="translate(0.39 0.08)"
       style="fill: #231f20"
       id="path73" />
    <path
       d="M153.09,301.38a1.62,1.62,0,0,1-.1.54,1.58,1.58,0,0,1-.28.47,1.36,1.36,0,0,1-1.77.22,1.35,1.35,0,0,1-.49-.59,2.1,2.1,0,0,1-.16-.79,2.74,2.74,0,0,1,.1-.69,3.13,3.13,0,0,1,.3-.68,3.47,3.47,0,0,1,.44-.64,4.52,4.52,0,0,1,.59-.56l.88.33-.37.37c-.1.12-.2.23-.29.36a3,3,0,0,0-.25.37.78.78,0,0,1,.24,0,1.08,1.08,0,0,1,.58.16,1.28,1.28,0,0,1,.42.47A1.53,1.53,0,0,1,153.09,301.38Zm-.93,0A.55.55,0,0,0,152,301a.45.45,0,0,0-.32-.14.38.38,0,0,0-.36.18.65.65,0,0,0-.12.37.6.6,0,0,0,.13.4.41.41,0,0,0,.33.16.4.4,0,0,0,.27-.09.6.6,0,0,0,.16-.22A.74.74,0,0,0,152.16,301.36Z"
       transform="translate(0.39 0.08)"
       style="fill: #231f20"
       id="path74" />
    <path
       d="M308.88,299.16l-1.53,4-.83-.3,1.1-2.92h-1.45v-.89h2.71Z"
       transform="translate(0.39 0.08)"
       style="fill: #fff"
       id="path75" />
    <path
       d="M352.33,301.69a1.16,1.16,0,0,1-.06.33,1,1,0,0,1-.2.37,1.09,1.09,0,0,1-.42.32,2.22,2.22,0,0,1-1.44,0,1.21,1.21,0,0,1-.43-.32,1,1,0,0,1-.19-.37,1,1,0,0,1,0-.33,1.17,1.17,0,0,1,.15-.58,1.21,1.21,0,0,1,.42-.42,1.24,1.24,0,0,1-.33-.36,1,1,0,0,1-.12-.51,1.1,1.1,0,0,1,.07-.38,1.07,1.07,0,0,1,.21-.37,1,1,0,0,1,.4-.29,1.32,1.32,0,0,1,.59-.11,1.36,1.36,0,0,1,.61.11,1,1,0,0,1,.4.29,1.07,1.07,0,0,1,.21.37,1.26,1.26,0,0,1,.06.38,1,1,0,0,1-.12.51,1.27,1.27,0,0,1-.34.36,1.05,1.05,0,0,1,.3.25,1.27,1.27,0,0,1,.28.75Zm-.92-.11a.79.79,0,0,0-.07-.32.55.55,0,0,0-.19-.21.44.44,0,0,0-.22-.07.47.47,0,0,0-.33.16.68.68,0,0,0-.14.44.65.65,0,0,0,.14.45.44.44,0,0,0,.34.16.45.45,0,0,0,.33-.17A.68.68,0,0,0,351.41,301.58Zm-.11-1.68a.77.77,0,0,0-.08-.37.29.29,0,0,0-.28-.18.31.31,0,0,0-.29.17.79.79,0,0,0-.09.38.66.66,0,0,0,.11.38.33.33,0,0,0,.26.16.3.3,0,0,0,.26-.16A.59.59,0,0,0,351.3,299.9Z"
       transform="translate(0.39 0.08)"
       style="fill: #231f20"
       id="path76" />
    <path
       d="M208.4,344.45h-1v-4.06h1Z"
       transform="translate(0.39 0.08)"
       style="fill: #231f20"
       id="path77" />
    <path
       d="M253,344h-2.71v-.08c.1-.12.22-.25.34-.41l.49-.64.25-.35c.08-.12.15-.23.21-.34a2.32,2.32,0,0,0,.14-.35,1.45,1.45,0,0,0,.06-.41.73.73,0,0,0-.14-.45.46.46,0,0,0-.37-.18,1.21,1.21,0,0,0-.87.52v-1l.25-.18a2.36,2.36,0,0,1,.23-.13,1.46,1.46,0,0,1,.3-.11,1.52,1.52,0,0,1,.38-.05,1.21,1.21,0,0,1,.6.15,1.19,1.19,0,0,1,.42.44,1.41,1.41,0,0,1,.15.67,1.63,1.63,0,0,1-.07.5,2.61,2.61,0,0,1-.14.38l-.2.35q-.22.38-.48.72H253Z"
       transform="translate(0.39 0.08)"
       style="fill: #231f20"
       id="path78" />
    <path
       d="M295,343.32a1.28,1.28,0,0,1-.11.55,1.06,1.06,0,0,1-.29.37,1.2,1.2,0,0,1-.39.2,1.32,1.32,0,0,1-.39.06,2.26,2.26,0,0,1-.6-.08,2.64,2.64,0,0,1-.55-.21v-.91a2.19,2.19,0,0,0,.39.29,1,1,0,0,0,.43.11.49.49,0,0,0,.28-.07.45.45,0,0,0,.18-.18.54.54,0,0,0,.05-.22.51.51,0,0,0-.07-.28.55.55,0,0,0-.21-.19.62.62,0,0,0-.31-.07h-.12V342h.14a.47.47,0,0,0,.46-.26.46.46,0,0,0,.05-.21.52.52,0,0,0-.12-.33.42.42,0,0,0-.32-.14,1,1,0,0,0-.37.08,1.58,1.58,0,0,0-.36.2v-.78a3.56,3.56,0,0,1,.47-.19,2,2,0,0,1,.5-.06,1.29,1.29,0,0,1,.68.17,1.19,1.19,0,0,1,.4.44,1.09,1.09,0,0,1,.12.47,1.15,1.15,0,0,1-.25.69,1.19,1.19,0,0,1-.23.22,1.17,1.17,0,0,1,.38.36A1,1,0,0,1,295,343.32Z"
       transform="translate(0.39 0.08)"
       style="fill: #231f20"
       id="path79" />
    <path
       d="M338.88,343.14h-.42V344h-1v-.88h-1.45v-.77l1.64-2.41h.77v2.49h.42Zm-1.38-.69v-1.3l-.88,1.3Z"
       transform="translate(0.39 0.08)"
       style="fill: #231f20"
       id="path80" />
    <path
       d="M168.65,342.68c0,1.77-1.81,3.19-4.05,3.19s-4-1.42-4-3.19v-4.53h8.1Z"
       transform="translate(0.39 0.08)"
       style="fill: #f06392"
       id="path81" />
    <path
       d="M38.83,342.68c0,1.77-1.82,3.19-4,3.19s-4.05-1.42-4.05-3.19v-4.53h8.1Z"
       transform="translate(0.39 0.08)"
       style="fill: #ec1c24"
       id="path82" />
    <path
       d="M82.34,342.68c0,1.77-1.81,3.19-4,3.19s-4.05-1.42-4.05-3.19v-4.53h8.1Z"
       transform="translate(0.39 0.08)"
       style="fill: #fff100"
       id="path83" />
    <path
       d="M125,342.68c0,1.77-1.81,3.19-4,3.19s-4-1.42-4-3.19v-4.53H125Z"
       transform="translate(0.39 0.08)"
       style="fill: #00adee"
       id="path84" />
    <path
       d="M35.37,344.45h-1v-4.06h1Z"
       transform="translate(0.39 0.08)"
       style="fill: #231f20"
       id="path85" />
    <path
       d="M79.75,344H77v-.08l.35-.41.48-.64.26-.35c.08-.12.14-.23.2-.34a1.6,1.6,0,0,0,.15-.35,1.45,1.45,0,0,0,.06-.41.68.68,0,0,0-.15-.45.44.44,0,0,0-.36-.18,1.19,1.19,0,0,0-.87.52v-1l.25-.18.22-.13a2.09,2.09,0,0,1,.3-.11,1.58,1.58,0,0,1,.38-.05,1.21,1.21,0,0,1,.6.15,1.05,1.05,0,0,1,.42.44,1.41,1.41,0,0,1,.15.67,1.63,1.63,0,0,1-.07.5,1.8,1.8,0,0,1-.14.38l-.2.35c-.15.25-.3.49-.47.72h1.15Z"
       transform="translate(0.39 0.08)"
       style="fill: #231f20"
       id="path86" />
    <path
       d="M122.2,343.32a1.28,1.28,0,0,1-.11.55,1.09,1.09,0,0,1-.3.37,1.27,1.27,0,0,1-.38.2,1.44,1.44,0,0,1-.4.06,2.14,2.14,0,0,1-.59-.08,2.44,2.44,0,0,1-.55-.21v-.91a2.19,2.19,0,0,0,.39.29.92.92,0,0,0,.43.11.51.51,0,0,0,.28-.07.42.42,0,0,0,.17-.18.43.43,0,0,0,.06-.22.61.61,0,0,0-.07-.28.55.55,0,0,0-.21-.19.66.66,0,0,0-.32-.07h-.11V342h.13a.56.56,0,0,0,.3-.07.6.6,0,0,0,.17-.19.63.63,0,0,0,0-.21.48.48,0,0,0-.13-.33.42.42,0,0,0-.32-.14,1,1,0,0,0-.37.08,1.58,1.58,0,0,0-.36.2v-.78a4.32,4.32,0,0,1,.48-.19,1.9,1.9,0,0,1,.5-.06,1.32,1.32,0,0,1,.68.17,1.09,1.09,0,0,1,.39.44,1,1,0,0,1,.13.47,1.27,1.27,0,0,1-.07.37,1.65,1.65,0,0,1-.18.32,1.6,1.6,0,0,1-.24.22,1.08,1.08,0,0,1,.38.36A1,1,0,0,1,122.2,343.32Z"
       transform="translate(0.39 0.08)"
       style="fill: #231f20"
       id="path87" />
    <path
       d="M166.08,343.14h-.42V344h-1v-.88h-1.45v-.77l1.64-2.41h.77v2.49h.42Zm-1.38-.69v-1.3l-.88,1.3Z"
       transform="translate(0.39 0.08)"
       style="fill: #231f20"
       id="path88" />
    <path
       d="M5.4,274a16.09,16.09,0,0,1,32.18,0v25.1H5.4Z"
       transform="translate(0.39 0.08)"
       style="fill: none;stroke: #fff;stroke-miterlimit: 10"
       id="path89" />
    <path
       d="M48.92,274a16.09,16.09,0,1,1,32.17,0v25.1H48.92Z"
       transform="translate(0.39 0.08)"
       style="fill: none;stroke: #fff;stroke-miterlimit: 10"
       id="path90" />
    <path
       d="M220.75,298.09A16.09,16.09,0,1,0,204.66,282,16.08,16.08,0,0,0,220.75,298.09Z"
       transform="translate(0.39 0.08)"
       style="fill: #fff;stroke: #fff;stroke-linejoin: round;stroke-width: 0.283464566929134px"
       id="path91" />
    <path
       d="M266.16,266.78h-34.6c5.68,2.87,8.32,10.18,8.32,15.47s-2.66,12.13-8.36,15h34.64a15.23,15.23,0,1,0,0-30.45Z"
       transform="translate(0.39 0.08)"
       style="fill: #fff;stroke: #fff;stroke-linejoin: round;stroke-width: 0.283464566929134px"
       id="path92" />
    <path
       d="M307.39,298.09A16.09,16.09,0,1,0,291.3,282,16.08,16.08,0,0,0,307.39,298.09Z"
       transform="translate(0.39 0.08)"
       style="fill: #fff;stroke: #fff;stroke-linejoin: round;stroke-width: 0.283464566929134px"
       id="path93" />
    <path
       d="M352.8,266.78H318.2c5.68,2.87,8.32,10.18,8.32,15.47s-2.66,12.13-8.37,15H352.8a15.23,15.23,0,1,0,0-30.45Z"
       transform="translate(0.39 0.08)"
       style="fill: #fff;stroke: #fff;stroke-linejoin: round;stroke-width: 0.283464566929134px"
       id="path94" />
    <path
       d="M207.9,339.54a16.09,16.09,0,1,0-16.09-16.08A16.08,16.08,0,0,0,207.9,339.54Z"
       transform="translate(0.39 0.08)"
       style="fill: #fff;stroke: #fff;stroke-linejoin: round;stroke-width: 0.283464566929134px"
       id="path95" />
    <path
       d="M253.31,308.23h-34.6c5.68,2.87,8.32,10.18,8.32,15.47s-2.66,12.13-8.37,15h34.65a15.23,15.23,0,1,0,0-30.45Z"
       transform="translate(0.39 0.08)"
       style="fill: #fff;stroke: #fff;stroke-linejoin: round;stroke-width: 0.283464566929134px"
       id="path96" />
    <path
       d="M293.78,339.54a16.09,16.09,0,1,0-16.09-16.08A16.08,16.08,0,0,0,293.78,339.54Z"
       transform="translate(0.39 0.08)"
       style="fill: #fff;stroke: #fff;stroke-linejoin: round;stroke-width: 0.283464566929134px"
       id="path97" />
    <path
       d="M339.19,308.23h-34.6c5.68,2.87,8.32,10.18,8.32,15.47s-2.66,12.13-8.36,15h34.64a15.23,15.23,0,1,0,0-30.45Z"
       transform="translate(0.39 0.08)"
       style="fill: #fff;stroke: #fff;stroke-linejoin: round;stroke-width: 0.283464566929134px"
       id="path98" />
    <path
       d="M34.78,339.54a16.09,16.09,0,1,0-16.09-16.08A16.08,16.08,0,0,0,34.78,339.54Z"
       transform="translate(0.39 0.08)"
       style="fill: #231f20;stroke: #fff;stroke-miterlimit: 10"
       id="path99" />
    <path
       d="M80.15,308.23H45.55c5.68,2.87,8.32,10.18,8.32,15.47s-2.66,12.13-8.36,15H80.15a15.23,15.23,0,1,0,0-30.45Z"
       transform="translate(0.39 0.08)"
       style="fill: #231f20;stroke: #fff;stroke-linejoin: round"
       id="path100" />
    <path
       d="M121,339.54a16.09,16.09,0,1,0-16.09-16.08A16.09,16.09,0,0,0,121,339.54Z"
       transform="translate(0.39 0.08)"
       style="fill: #231f20;stroke: #fff;stroke-miterlimit: 10"
       id="path101" />
    <path
       d="M166.33,308.23h-34.6c5.68,2.87,8.32,10.18,8.32,15.47s-2.66,12.13-8.37,15h34.65a15.23,15.23,0,1,0,0-30.45Z"
       transform="translate(0.39 0.08)"
       style="fill: #231f20;stroke: #fff;stroke-linejoin: round"
       id="path102" />
    <g
       id="g118">
      <path
         d="M356.56,86.42l1.38-.5a13.6,13.6,0,0,0-1.81-3.11l-1.13,1A12.88,12.88,0,0,1,356.56,86.42Z"
         transform="translate(0.39 0.08)"
         style="fill: #f06392"
         id="path103" />
      <path
         d="M354.18,82.78l1.13-.94a13.59,13.59,0,0,0-2.75-2.32l-.73,1.28A12.72,12.72,0,0,1,354.18,82.78Z"
         transform="translate(0.39 0.08)"
         style="fill: #f06392"
         id="path104" />
      <path
         d="M345,105.3"
         transform="translate(0.39 0.08)"
         style="fill: #f06392"
         id="path105" />
      <path
         d="M335.87,99.82l-1.13.94a13.59,13.59,0,0,0,2.75,2.32l.73-1.28A12.72,12.72,0,0,1,335.87,99.82Z"
         transform="translate(0.39 0.08)"
         style="fill: #f06392"
         id="path106" />
      <path
         d="M332.53,91.94h-1.47a13.33,13.33,0,0,0,.61,3.54l1.38-.5A12.73,12.73,0,0,1,332.53,91.94Z"
         transform="translate(0.39 0.08)"
         style="fill: #f06392"
         id="path107" />
      <path
         d="M357.52,90.66H359a13.33,13.33,0,0,0-.61-3.54l-1.38.5A13.24,13.24,0,0,1,357.52,90.66Z"
         transform="translate(0.39 0.08)"
         style="fill: #f06392"
         id="path108" />
      <path
         d="M350.72,80.16l.74-1.28a13.66,13.66,0,0,0-3.38-1.23l-.26,1.45A12.57,12.57,0,0,1,350.72,80.16Z"
         transform="translate(0.39 0.08)"
         style="fill: #f06392"
         id="path109" />
      <path
         d="M338.22,80.8l-.73-1.28a13.59,13.59,0,0,0-2.75,2.32l1.13.94A12.72,12.72,0,0,1,338.22,80.8Z"
         transform="translate(0.39 0.08)"
         style="fill: #f06392"
         id="path110" />
      <path
         d="M357.52,91.94a13.24,13.24,0,0,1-.52,3l1.38.5a13.33,13.33,0,0,0,.61-3.54Z"
         transform="translate(0.39 0.08)"
         style="fill: #f06392"
         id="path111" />
      <path
         d="M333.49,96.18l-1.39.5a14,14,0,0,0,1.82,3.11l1.13-1A12.45,12.45,0,0,1,333.49,96.18Z"
         transform="translate(0.39 0.08)"
         style="fill: #f06392"
         id="path112" />
      <path
         d="M335.05,83.76l-1.13-1a14,14,0,0,0-1.82,3.11l1.39.5A12.45,12.45,0,0,1,335.05,83.76Z"
         transform="translate(0.39 0.08)"
         style="fill: #f06392"
         id="path113" />
      <path
         d="M355,98.84l1.13,1a13.6,13.6,0,0,0,1.81-3.11l-1.38-.5A12.88,12.88,0,0,1,355,98.84Z"
         transform="translate(0.39 0.08)"
         style="fill: #f06392"
         id="path114" />
      <path
         d="M342.23,79.1,342,77.65a13.66,13.66,0,0,0-3.38,1.23l.74,1.28A12.57,12.57,0,0,1,342.23,79.1Z"
         transform="translate(0.39 0.08)"
         style="fill: #f06392"
         id="path115" />
      <path
         d="M351.83,101.8l.73,1.28a13.59,13.59,0,0,0,2.75-2.32l-1.13-.94A12.72,12.72,0,0,1,351.83,101.8Z"
         transform="translate(0.39 0.08)"
         style="fill: #f06392"
         id="path116" />
      <path
         d="M333.05,87.62l-1.38-.5a13.33,13.33,0,0,0-.61,3.54h1.47A12.73,12.73,0,0,1,333.05,87.62Z"
         transform="translate(0.39 0.08)"
         style="fill: #f06392"
         id="path117" />
      <path
         d="M345,78.78a13.13,13.13,0,0,1,1.54.1l.25-1.45a12.46,12.46,0,0,0-3.59,0l.25,1.45A13.16,13.16,0,0,1,345,78.78Z"
         transform="translate(0.39 0.08)"
         style="fill: #f06392"
         id="path118" />
    </g>
    <g
       id="g134">
      <path
         d="M356.56,152l1.38-.51a13.53,13.53,0,0,0-1.81-3.1l-1.13.94A12.7,12.7,0,0,1,356.56,152Z"
         transform="translate(0.39 0.08)"
         style="fill: #00a551"
         id="path119" />
      <path
         d="M354.18,148.39l1.13-.95a13.88,13.88,0,0,0-2.75-2.31l-.73,1.27A12.39,12.39,0,0,1,354.18,148.39Z"
         transform="translate(0.39 0.08)"
         style="fill: #00a551"
         id="path120" />
      <path
         d="M345,170.9"
         transform="translate(0.39 0.08)"
         style="fill: #00a551"
         id="path121" />
      <path
         d="M335.87,165.42l-1.13,1a13.88,13.88,0,0,0,2.75,2.31l.73-1.27A13.17,13.17,0,0,1,335.87,165.42Z"
         transform="translate(0.39 0.08)"
         style="fill: #00a551"
         id="path122" />
      <path
         d="M332.53,157.54h-1.47a13.47,13.47,0,0,0,.61,3.55l1.38-.51A12.73,12.73,0,0,1,332.53,157.54Z"
         transform="translate(0.39 0.08)"
         style="fill: #00a551"
         id="path123" />
      <path
         d="M357.52,156.27H359a13.47,13.47,0,0,0-.61-3.55l-1.38.51A13.06,13.06,0,0,1,357.52,156.27Z"
         transform="translate(0.39 0.08)"
         style="fill: #00a551"
         id="path124" />
      <path
         d="M350.72,145.76l.74-1.28a14.52,14.52,0,0,0-3.38-1.23l-.26,1.46A12.54,12.54,0,0,1,350.72,145.76Z"
         transform="translate(0.39 0.08)"
         style="fill: #00a551"
         id="path125" />
      <path
         d="M338.22,146.4l-.73-1.27a13.88,13.88,0,0,0-2.75,2.31l1.13.95A12.39,12.39,0,0,1,338.22,146.4Z"
         transform="translate(0.39 0.08)"
         style="fill: #00a551"
         id="path126" />
      <path
         d="M357.52,157.54a13.24,13.24,0,0,1-.52,3l1.38.51a13.47,13.47,0,0,0,.61-3.55Z"
         transform="translate(0.39 0.08)"
         style="fill: #00a551"
         id="path127" />
      <path
         d="M333.49,161.78l-1.39.5a14,14,0,0,0,1.82,3.11l1.13-.95A12,12,0,0,1,333.49,161.78Z"
         transform="translate(0.39 0.08)"
         style="fill: #00a551"
         id="path128" />
      <path
         d="M335.05,149.36l-1.13-.94a13.94,13.94,0,0,0-1.82,3.1l1.39.51A12.28,12.28,0,0,1,335.05,149.36Z"
         transform="translate(0.39 0.08)"
         style="fill: #00a551"
         id="path129" />
      <path
         d="M355,164.44l1.13.95a13.6,13.6,0,0,0,1.81-3.11l-1.38-.5A12.38,12.38,0,0,1,355,164.44Z"
         transform="translate(0.39 0.08)"
         style="fill: #00a551"
         id="path130" />
      <path
         d="M342.23,144.71l-.26-1.46a14.1,14.1,0,0,0-3.38,1.24l.74,1.27A12.54,12.54,0,0,1,342.23,144.71Z"
         transform="translate(0.39 0.08)"
         style="fill: #00a551"
         id="path131" />
      <path
         d="M351.83,167.41l.73,1.27a13.88,13.88,0,0,0,2.75-2.31l-1.13-1A13.17,13.17,0,0,1,351.83,167.41Z"
         transform="translate(0.39 0.08)"
         style="fill: #00a551"
         id="path132" />
      <path
         d="M333.05,153.23l-1.38-.51a13.47,13.47,0,0,0-.61,3.55h1.47A12.56,12.56,0,0,1,333.05,153.23Z"
         transform="translate(0.39 0.08)"
         style="fill: #00a551"
         id="path133" />
      <path
         d="M345,144.38a13.13,13.13,0,0,1,1.54.1l.25-1.45a13.49,13.49,0,0,0-3.59,0l.25,1.45A13.16,13.16,0,0,1,345,144.38Z"
         transform="translate(0.39 0.08)"
         style="fill: #00a551"
         id="path134" />
    </g>
    <g
       id="g150">
      <path
         d="M313.31,118.29l1.38-.5a14.37,14.37,0,0,0-1.81-3.11l-1.13.95A12.88,12.88,0,0,1,313.31,118.29Z"
         transform="translate(0.39 0.08)"
         style="fill: #faa629"
         id="path135" />
      <path
         d="M310.93,114.65l1.13-.94a14.16,14.16,0,0,0-2.75-2.32l-.74,1.28A12.46,12.46,0,0,1,310.93,114.65Z"
         transform="translate(0.39 0.08)"
         style="fill: #faa629"
         id="path136" />
      <path
         d="M301.77,137.17"
         transform="translate(0.39 0.08)"
         style="fill: #faa629"
         id="path137" />
      <path
         d="M292.61,131.69l-1.13.94a14.16,14.16,0,0,0,2.75,2.32l.74-1.28A12.46,12.46,0,0,1,292.61,131.69Z"
         transform="translate(0.39 0.08)"
         style="fill: #faa629"
         id="path138" />
      <path
         d="M289.28,123.81H287.8a14.18,14.18,0,0,0,.61,3.54l1.39-.5A12.25,12.25,0,0,1,289.28,123.81Z"
         transform="translate(0.39 0.08)"
         style="fill: #faa629"
         id="path139" />
      <path
         d="M314.26,122.53h1.48a14.26,14.26,0,0,0-.61-3.54l-1.39.5A12.25,12.25,0,0,1,314.26,122.53Z"
         transform="translate(0.39 0.08)"
         style="fill: #faa629"
         id="path140" />
      <path
         d="M307.47,112l.73-1.28a13.38,13.38,0,0,0-3.38-1.23l-.25,1.45A12.57,12.57,0,0,1,307.47,112Z"
         transform="translate(0.39 0.08)"
         style="fill: #faa629"
         id="path141" />
      <path
         d="M295,112.67l-.74-1.28a14.16,14.16,0,0,0-2.75,2.32l1.13.94A12.46,12.46,0,0,1,295,112.67Z"
         transform="translate(0.39 0.08)"
         style="fill: #faa629"
         id="path142" />
      <path
         d="M314.26,123.81a12.25,12.25,0,0,1-.52,3l1.39.5a14.18,14.18,0,0,0,.61-3.54Z"
         transform="translate(0.39 0.08)"
         style="fill: #faa629"
         id="path143" />
      <path
         d="M290.23,128.05l-1.38.5a14.37,14.37,0,0,0,1.81,3.11l1.13-.95A12.88,12.88,0,0,1,290.23,128.05Z"
         transform="translate(0.39 0.08)"
         style="fill: #faa629"
         id="path144" />
      <path
         d="M291.79,115.63l-1.13-.95a14.37,14.37,0,0,0-1.81,3.11l1.38.5A12.88,12.88,0,0,1,291.79,115.63Z"
         transform="translate(0.39 0.08)"
         style="fill: #faa629"
         id="path145" />
      <path
         d="M311.75,130.71l1.13.95a14.37,14.37,0,0,0,1.81-3.11l-1.38-.5A12.88,12.88,0,0,1,311.75,130.71Z"
         transform="translate(0.39 0.08)"
         style="fill: #faa629"
         id="path146" />
      <path
         d="M299,111l-.25-1.45a13.38,13.38,0,0,0-3.38,1.23l.73,1.28A12.57,12.57,0,0,1,299,111Z"
         transform="translate(0.39 0.08)"
         style="fill: #faa629"
         id="path147" />
      <path
         d="M308.57,133.67l.74,1.28a13.81,13.81,0,0,0,2.74-2.32l-1.12-.94A12.46,12.46,0,0,1,308.57,133.67Z"
         transform="translate(0.39 0.08)"
         style="fill: #faa629"
         id="path148" />
      <path
         d="M289.8,119.49l-1.39-.5a14.26,14.26,0,0,0-.61,3.54h1.48A12.25,12.25,0,0,1,289.8,119.49Z"
         transform="translate(0.39 0.08)"
         style="fill: #faa629"
         id="path149" />
      <path
         d="M301.77,110.65a13,13,0,0,1,1.54.1l.26-1.45a12.53,12.53,0,0,0-3.6,0l.26,1.45A13,13,0,0,1,301.77,110.65Z"
         transform="translate(0.39 0.08)"
         style="fill: #faa629"
         id="path150" />
    </g>
    <g
       id="g166">
      <path
         d="M37.89,152.82l1.38-.5a14.37,14.37,0,0,0-1.81-3.11l-1.13.95A12.63,12.63,0,0,1,37.89,152.82Z"
         transform="translate(0.39 0.08)"
         style="fill: #00adee"
         id="path151" />
      <path
         d="M35.51,149.18l1.13-1a14.47,14.47,0,0,0-2.75-2.31l-.74,1.27A12.9,12.9,0,0,1,35.51,149.18Z"
         transform="translate(0.39 0.08)"
         style="fill: #00adee"
         id="path152" />
      <path
         d="M26.35,171.69"
         transform="translate(0.39 0.08)"
         style="fill: #00adee"
         id="path153" />
      <path
         d="M17.19,166.21l-1.13.95a14.47,14.47,0,0,0,2.75,2.31l.74-1.27A12.15,12.15,0,0,1,17.19,166.21Z"
         transform="translate(0.39 0.08)"
         style="fill: #00adee"
         id="path154" />
      <path
         d="M13.86,158.33H12.38a14.34,14.34,0,0,0,.61,3.55l1.39-.51A12.09,12.09,0,0,1,13.86,158.33Z"
         transform="translate(0.39 0.08)"
         style="fill: #00adee"
         id="path155" />
      <path
         d="M38.84,157.06h1.48a14.34,14.34,0,0,0-.61-3.55l-1.39.51A12.25,12.25,0,0,1,38.84,157.06Z"
         transform="translate(0.39 0.08)"
         style="fill: #00adee"
         id="path156" />
      <path
         d="M32.05,146.56l.73-1.28A13.79,13.79,0,0,0,29.4,144l-.25,1.46A12.12,12.12,0,0,1,32.05,146.56Z"
         transform="translate(0.39 0.08)"
         style="fill: #00adee"
         id="path157" />
      <path
         d="M19.55,147.19l-.74-1.27a14.47,14.47,0,0,0-2.75,2.31l1.13,1A12.9,12.9,0,0,1,19.55,147.19Z"
         transform="translate(0.39 0.08)"
         style="fill: #00adee"
         id="path158" />
      <path
         d="M38.84,158.33a12.09,12.09,0,0,1-.52,3l1.39.51a14.34,14.34,0,0,0,.61-3.55Z"
         transform="translate(0.39 0.08)"
         style="fill: #00adee"
         id="path159" />
      <path
         d="M14.81,162.57l-1.38.51a14.3,14.3,0,0,0,1.81,3.1l1.13-.94A12.7,12.7,0,0,1,14.81,162.57Z"
         transform="translate(0.39 0.08)"
         style="fill: #00adee"
         id="path160" />
      <path
         d="M16.37,150.16l-1.13-.95a14.37,14.37,0,0,0-1.81,3.11l1.38.5A12.38,12.38,0,0,1,16.37,150.16Z"
         transform="translate(0.39 0.08)"
         style="fill: #00adee"
         id="path161" />
      <path
         d="M36.33,165.24l1.13.94a14.3,14.3,0,0,0,1.81-3.1l-1.38-.51A12.7,12.7,0,0,1,36.33,165.24Z"
         transform="translate(0.39 0.08)"
         style="fill: #00adee"
         id="path162" />
      <path
         d="M23.55,145.5,23.3,144a13.79,13.79,0,0,0-3.38,1.24l.73,1.28A12.12,12.12,0,0,1,23.55,145.5Z"
         transform="translate(0.39 0.08)"
         style="fill: #00adee"
         id="path163" />
      <path
         d="M33.15,168.2l.74,1.27a14.47,14.47,0,0,0,2.75-2.31l-1.13-.95A12.15,12.15,0,0,1,33.15,168.2Z"
         transform="translate(0.39 0.08)"
         style="fill: #00adee"
         id="path164" />
      <path
         d="M14.38,154,13,153.51a14.34,14.34,0,0,0-.61,3.55h1.48A12.25,12.25,0,0,1,14.38,154Z"
         transform="translate(0.39 0.08)"
         style="fill: #00adee"
         id="path165" />
      <path
         d="M26.35,145.17a11.17,11.17,0,0,1,1.54.11l.26-1.45a12.53,12.53,0,0,0-3.6,0l.26,1.45A11.17,11.17,0,0,1,26.35,145.17Z"
         transform="translate(0.39 0.08)"
         style="fill: #00adee"
         id="path166" />
    </g>
    <g
       id="g182">
      <path
         d="M72.3,105.07l1.38-.5a13.6,13.6,0,0,0-1.81-3.11l-1.13,1A12.63,12.63,0,0,1,72.3,105.07Z"
         transform="translate(0.39 0.08)"
         style="fill: #fff100"
         id="path167" />
      <path
         d="M69.92,101.43l1.13-1a14.47,14.47,0,0,0-2.75-2.31l-.74,1.27A12.9,12.9,0,0,1,69.92,101.43Z"
         transform="translate(0.39 0.08)"
         style="fill: #fff100"
         id="path168" />
      <path
         d="M60.76,123.94"
         transform="translate(0.39 0.08)"
         style="fill: #fff100"
         id="path169" />
      <path
         d="M51.61,118.46l-1.13,1a13.88,13.88,0,0,0,2.75,2.31l.73-1.27A12.39,12.39,0,0,1,51.61,118.46Z"
         transform="translate(0.39 0.08)"
         style="fill: #fff100"
         id="path170" />
      <path
         d="M48.27,110.58H46.8a13.89,13.89,0,0,0,.6,3.55l1.39-.5A12.25,12.25,0,0,1,48.27,110.58Z"
         transform="translate(0.39 0.08)"
         style="fill: #fff100"
         id="path171" />
      <path
         d="M73.25,109.31h1.48a13.89,13.89,0,0,0-.61-3.55l-1.39.51A12.25,12.25,0,0,1,73.25,109.31Z"
         transform="translate(0.39 0.08)"
         style="fill: #fff100"
         id="path172" />
      <path
         d="M66.46,98.81l.74-1.28a14.1,14.1,0,0,0-3.38-1.24l-.26,1.46A12.12,12.12,0,0,1,66.46,98.81Z"
         transform="translate(0.39 0.08)"
         style="fill: #fff100"
         id="path173" />
      <path
         d="M54,99.44l-.73-1.27a13.88,13.88,0,0,0-2.75,2.31l1.13,1A13.17,13.17,0,0,1,54,99.44Z"
         transform="translate(0.39 0.08)"
         style="fill: #fff100"
         id="path174" />
      <path
         d="M73.25,110.58a12.25,12.25,0,0,1-.52,3l1.39.5a13.89,13.89,0,0,0,.61-3.55Z"
         transform="translate(0.39 0.08)"
         style="fill: #fff100"
         id="path175" />
      <path
         d="M49.23,114.82l-1.39.51a13.94,13.94,0,0,0,1.82,3.1l1.13-.94A12.28,12.28,0,0,1,49.23,114.82Z"
         transform="translate(0.39 0.08)"
         style="fill: #fff100"
         id="path176" />
      <path
         d="M50.79,102.41l-1.13-1a14,14,0,0,0-1.82,3.11l1.39.5A12.21,12.21,0,0,1,50.79,102.41Z"
         transform="translate(0.39 0.08)"
         style="fill: #fff100"
         id="path177" />
      <path
         d="M70.74,117.49l1.13.94a13.53,13.53,0,0,0,1.81-3.1l-1.38-.51A12.7,12.7,0,0,1,70.74,117.49Z"
         transform="translate(0.39 0.08)"
         style="fill: #fff100"
         id="path178" />
      <path
         d="M58,97.75l-.25-1.46a14.1,14.1,0,0,0-3.38,1.24l.74,1.28A12.21,12.21,0,0,1,58,97.75Z"
         transform="translate(0.39 0.08)"
         style="fill: #fff100"
         id="path179" />
      <path
         d="M67.56,120.45l.74,1.27a14.47,14.47,0,0,0,2.75-2.31l-1.13-1A12.15,12.15,0,0,1,67.56,120.45Z"
         transform="translate(0.39 0.08)"
         style="fill: #fff100"
         id="path180" />
      <path
         d="M48.79,106.27l-1.39-.51a13.89,13.89,0,0,0-.6,3.55h1.47A12.25,12.25,0,0,1,48.79,106.27Z"
         transform="translate(0.39 0.08)"
         style="fill: #fff100"
         id="path181" />
      <path
         d="M60.76,97.42a11.31,11.31,0,0,1,1.55.11l.25-1.45a13.38,13.38,0,0,0-1.8-.13,13.23,13.23,0,0,0-1.79.13l.25,1.45A11.28,11.28,0,0,1,60.76,97.42Z"
         transform="translate(0.39 0.08)"
         style="fill: #fff100"
         id="path182" />
    </g>
    <g
       id="g198">
      <path
         d="M37.89,56.9l1.38-.51a14.3,14.3,0,0,0-1.81-3.1l-1.13.94A12.7,12.7,0,0,1,37.89,56.9Z"
         transform="translate(0.39 0.08)"
         style="fill: #ec1c24"
         id="path183" />
      <path
         d="M35.51,53.26l1.13-.95A14.9,14.9,0,0,0,33.89,50l-.74,1.28A12.15,12.15,0,0,1,35.51,53.26Z"
         transform="translate(0.39 0.08)"
         style="fill: #ec1c24"
         id="path184" />
      <path
         d="M26.35,75.77"
         transform="translate(0.39 0.08)"
         style="fill: #ec1c24"
         id="path185" />
      <path
         d="M17.19,70.29l-1.12.95a14.11,14.11,0,0,0,2.74,2.31l.74-1.27A13.24,13.24,0,0,1,17.19,70.29Z"
         transform="translate(0.39 0.08)"
         style="fill: #ec1c24"
         id="path186" />
      <path
         d="M13.86,62.41H12.38A14.34,14.34,0,0,0,13,66l1.39-.51A12.25,12.25,0,0,1,13.86,62.41Z"
         transform="translate(0.39 0.08)"
         style="fill: #ec1c24"
         id="path187" />
      <path
         d="M38.84,61.13h1.48a14.34,14.34,0,0,0-.61-3.54l-1.39.5A12.25,12.25,0,0,1,38.84,61.13Z"
         transform="translate(0.39 0.08)"
         style="fill: #ec1c24"
         id="path188" />
      <path
         d="M32.05,50.63l.73-1.28a13.85,13.85,0,0,0-3.37-1.23l-.26,1.45A13,13,0,0,1,32.05,50.63Z"
         transform="translate(0.39 0.08)"
         style="fill: #ec1c24"
         id="path189" />
      <path
         d="M19.55,51.27,18.81,50a14.52,14.52,0,0,0-2.74,2.32l1.12.95A12.45,12.45,0,0,1,19.55,51.27Z"
         transform="translate(0.39 0.08)"
         style="fill: #ec1c24"
         id="path190" />
      <path
         d="M38.84,62.41a12.25,12.25,0,0,1-.52,3l1.39.51a14.34,14.34,0,0,0,.61-3.55Z"
         transform="translate(0.39 0.08)"
         style="fill: #ec1c24"
         id="path191" />
      <path
         d="M14.82,66.65l-1.39.5a14.37,14.37,0,0,0,1.81,3.11l1.13-1A12.17,12.17,0,0,1,14.82,66.65Z"
         transform="translate(0.39 0.08)"
         style="fill: #ec1c24"
         id="path192" />
      <path
         d="M16.37,54.23l-1.13-.94a14.3,14.3,0,0,0-1.81,3.1l1.39.51A12.24,12.24,0,0,1,16.37,54.23Z"
         transform="translate(0.39 0.08)"
         style="fill: #ec1c24"
         id="path193" />
      <path
         d="M36.33,69.31l1.13,1a14,14,0,0,0,1.81-3.11l-1.38-.5A12.63,12.63,0,0,1,36.33,69.31Z"
         transform="translate(0.39 0.08)"
         style="fill: #ec1c24"
         id="path194" />
      <path
         d="M23.55,49.57l-.25-1.45a13.92,13.92,0,0,0-3.38,1.23l.74,1.28A12.79,12.79,0,0,1,23.55,49.57Z"
         transform="translate(0.39 0.08)"
         style="fill: #ec1c24"
         id="path195" />
      <path
         d="M33.15,72.27l.74,1.28a14.47,14.47,0,0,0,2.75-2.31l-1.13-.95A12.46,12.46,0,0,1,33.15,72.27Z"
         transform="translate(0.39 0.08)"
         style="fill: #ec1c24"
         id="path196" />
      <path
         d="M14.38,58.09,13,57.59a14.34,14.34,0,0,0-.61,3.54h1.48A12.25,12.25,0,0,1,14.38,58.09Z"
         transform="translate(0.39 0.08)"
         style="fill: #ec1c24"
         id="path197" />
      <path
         d="M26.35,49.25a13,13,0,0,1,1.54.1l.26-1.45a15.25,15.25,0,0,0-1.8-.13,15.25,15.25,0,0,0-1.8.13l.26,1.45A13.13,13.13,0,0,1,26.35,49.25Z"
         transform="translate(0.39 0.08)"
         style="fill: #ec1c24"
         id="path198" />
    </g>
    <g
       id="g205">
      <path
         d="M12.23,296.48l-.22.1-.18.07-.24.08-.54.11a3.36,3.36,0,0,1-.56,0,2.45,2.45,0,0,1-1.11-.26,1.94,1.94,0,0,1-.81-.82,2.71,2.71,0,0,1-.31-1.36,3.51,3.51,0,0,1,.16-1,1.86,1.86,0,0,1,.48-.8,2.29,2.29,0,0,1,.54-.39,2.25,2.25,0,0,1,.54-.17,3.27,3.27,0,0,1,.57-.05,3.38,3.38,0,0,1,.86.1,6.47,6.47,0,0,1,.74.25v1.12a3.5,3.5,0,0,0-.56-.32,2,2,0,0,0-.75-.12,1.31,1.31,0,0,0-.82.23,1.29,1.29,0,0,0-.43.56,1.84,1.84,0,0,0-.12.63,1.59,1.59,0,0,0,.14.66,1.17,1.17,0,0,0,.42.49,1.23,1.23,0,0,0,.68.18,2.14,2.14,0,0,0,.48-.07v-.56h-.53v-1h1.57Z"
         transform="translate(0.39 0.08)"
         style="fill: #fff"
         id="path199" />
      <path
         d="M16,296.64a3.37,3.37,0,0,1-.42.17,1.18,1.18,0,0,1-.45.07.46.46,0,0,1-.35-.11.61.61,0,0,1-.15-.26,1.5,1.5,0,0,1-.36.26,1.16,1.16,0,0,1-.53.11,1,1,0,0,1-.51-.13.71.71,0,0,1-.27-.33,1.2,1.2,0,0,1-.08-.42,1.06,1.06,0,0,1,.13-.53,1.1,1.1,0,0,1,.37-.34,4.35,4.35,0,0,1,.6-.28l.32-.12.16-.07.12-.06a.76.76,0,0,0-.09-.4.41.41,0,0,0-.37-.14,1.15,1.15,0,0,0-.62.18,2.44,2.44,0,0,0-.52.45v-.94a1.62,1.62,0,0,1,.41-.27,1.9,1.9,0,0,1,.46-.15,2,2,0,0,1,.49-.05,1.31,1.31,0,0,1,.94.29,1,1,0,0,1,.32.8v1.35a1,1,0,0,0,0,.28c0,.06.05.1.11.1A.66.66,0,0,0,16,296ZM14.57,296v-.83a2.67,2.67,0,0,0-.53.32.46.46,0,0,0-.17.39.4.4,0,0,0,.08.26.28.28,0,0,0,.2.1.44.44,0,0,0,.21-.07Z"
         transform="translate(0.39 0.08)"
         style="fill: #fff"
         id="path200" />
      <path
         d="M18.59,296.62a1.93,1.93,0,0,1-.44.17,1.79,1.79,0,0,1-.54.09c-.73,0-1.1-.43-1.1-1.3v-1.39h-.46V294l1.37-1.68h.11v1h1v.85h-1v1.12a2.41,2.41,0,0,0,0,.31.32.32,0,0,0,.12.2.43.43,0,0,0,.28.08,1.31,1.31,0,0,0,.64-.25Z"
         transform="translate(0.39 0.08)"
         style="fill: #fff"
         id="path201" />
      <path
         d="M22,295.37H20a.87.87,0,0,0,.29.52.79.79,0,0,0,.53.21,2.37,2.37,0,0,0,1.14-.35v.76a2.72,2.72,0,0,1-.54.25,2.31,2.31,0,0,1-.81.12,1.65,1.65,0,0,1-.91-.24,1.47,1.47,0,0,1-.56-.65,2.35,2.35,0,0,1,0-1.85,1.37,1.37,0,0,1,.56-.63,1.64,1.64,0,0,1,.91-.23,1.41,1.41,0,0,1,.68.18,1.37,1.37,0,0,1,.53.6,2.21,2.21,0,0,1,.22,1.07Zm-1-.6a.94.94,0,0,0-.14-.54.45.45,0,0,0-.4-.2.51.51,0,0,0-.41.2.91.91,0,0,0-.16.54Z"
         transform="translate(0.39 0.08)"
         style="fill: #fff"
         id="path202" />
      <path
         d="M25.58,296.82H24.4v-4.74h1.18Z"
         transform="translate(0.39 0.08)"
         style="fill: #fff"
         id="path203" />
      <path
         d="M29.49,296.82h-1v-1.88a1.5,1.5,0,0,0-.08-.5.32.32,0,0,0-.34-.21.4.4,0,0,0-.22,0,.8.8,0,0,0-.17.15l-.13.17-.1.17v2.05h-1v-3.48h1v.5a1.48,1.48,0,0,1,.48-.44,1.19,1.19,0,0,1,.54-.12c.69,0,1,.49,1,1.49Z"
         transform="translate(0.39 0.08)"
         style="fill: #fff"
         id="path204" />
      <path
         d="M33.76,296.82H32.69v-4.74h1.07Z"
         transform="translate(0.39 0.08)"
         style="fill: #fff"
         id="path205" />
    </g>
    <path
       d="M108.21,298.26a16.09,16.09,0,1,0-16.09-16.09A16.09,16.09,0,0,0,108.21,298.26Z"
       transform="translate(0.39 0.08)"
       style="fill: #231f20;stroke: #fff;stroke-miterlimit: 10"
       id="path206" />
    <path
       d="M153.58,266.83H119c5.68,2.86,8.32,10.17,8.32,15.46s-2.66,12.13-8.36,15h34.64a15.22,15.22,0,1,0,0-30.44Z"
       transform="translate(0.39 0.08)"
       style="fill: #231f20;stroke: #fff;stroke-linejoin: round"
       id="path207" />
    <path
       d="M281.17,231.08h-3.59v-5.41h3.53v1.09H279v1h2v1.09h-2V230h2.16Z"
       transform="translate(0.39 0.08)"
       style="fill: #faa629"
       id="path208" />
    <g
       id="g223">
      <path
         d="M290.17,179.92l1.25-2.16a26.85,26.85,0,0,0-6.43-2.34l-.43,2.46A24.1,24.1,0,0,1,290.17,179.92Z"
         transform="translate(0.39 0.08)"
         style="fill: #faa629"
         id="path209" />
      <path
         d="M279.11,177.26a24.45,24.45,0,0,1,3,.19l.44-2.46a25.54,25.54,0,0,0-6.84,0l.43,2.46A24.49,24.49,0,0,1,279.11,177.26Z"
         transform="translate(0.39 0.08)"
         style="fill: #faa629"
         id="path210" />
      <path
         d="M296.91,185l1.91-1.61a27.26,27.26,0,0,0-5.24-4.39l-1.25,2.16A24.44,24.44,0,0,1,296.91,185Z"
         transform="translate(0.39 0.08)"
         style="fill: #faa629"
         id="path211" />
      <path
         d="M273.66,177.88l-.44-2.46a26.78,26.78,0,0,0-6.42,2.34l1.24,2.16A24,24,0,0,1,273.66,177.88Z"
         transform="translate(0.39 0.08)"
         style="fill: #faa629"
         id="path212" />
      <path
         d="M303.4,200.34h2.5a26.89,26.89,0,0,0-1.18-6.75l-2.35.86A24.38,24.38,0,0,1,303.4,200.34Z"
         transform="translate(0.39 0.08)"
         style="fill: #faa629"
         id="path213" />
      <path
         d="M301.51,192.1l2.35-.85a26.46,26.46,0,0,0-3.44-5.92l-1.9,1.6A23.93,23.93,0,0,1,301.51,192.1Z"
         transform="translate(0.39 0.08)"
         style="fill: #faa629"
         id="path214" />
      <path
         d="M261.31,218.15l-1.91,1.61a27.2,27.2,0,0,0,5.23,4.39l1.25-2.16A24.06,24.06,0,0,1,261.31,218.15Z"
         transform="translate(0.39 0.08)"
         style="fill: #faa629"
         id="path215" />
      <path
         d="M256.7,211.07l-2.34.85a26.81,26.81,0,0,0,3.43,5.92l1.9-1.6A24.79,24.79,0,0,1,256.7,211.07Z"
         transform="translate(0.39 0.08)"
         style="fill: #faa629"
         id="path216" />
      <path
         d="M254.81,202.84h-2.5a26.9,26.9,0,0,0,1.19,6.74l2.35-.86A24.31,24.31,0,0,1,254.81,202.84Z"
         transform="translate(0.39 0.08)"
         style="fill: #faa629"
         id="path217" />
      <path
         d="M255.85,194.45l-2.35-.86a26.9,26.9,0,0,0-1.19,6.75h2.5A24.39,24.39,0,0,1,255.85,194.45Z"
         transform="translate(0.39 0.08)"
         style="fill: #faa629"
         id="path218" />
      <path
         d="M298.52,216.24l1.91,1.6a26.81,26.81,0,0,0,3.43-5.92l-2.35-.85A23.93,23.93,0,0,1,298.52,216.24Z"
         transform="translate(0.39 0.08)"
         style="fill: #faa629"
         id="path219" />
      <path
         d="M303.4,202.84a24.3,24.3,0,0,1-1,5.88l2.35.86a26.89,26.89,0,0,0,1.18-6.74Z"
         transform="translate(0.39 0.08)"
         style="fill: #faa629"
         id="path220" />
      <path
         d="M265.88,181.18,264.63,179a27.2,27.2,0,0,0-5.23,4.39l1.91,1.61A24.06,24.06,0,0,1,265.88,181.18Z"
         transform="translate(0.39 0.08)"
         style="fill: #faa629"
         id="path221" />
      <path
         d="M292.33,222l1.25,2.16a27.26,27.26,0,0,0,5.24-4.39l-1.91-1.61A24.44,24.44,0,0,1,292.33,222Z"
         transform="translate(0.39 0.08)"
         style="fill: #faa629"
         id="path222" />
      <path
         d="M259.69,186.93l-1.9-1.6a26.81,26.81,0,0,0-3.43,5.92l2.34.85A24.79,24.79,0,0,1,259.69,186.93Z"
         transform="translate(0.39 0.08)"
         style="fill: #faa629"
         id="path223" />
    </g>
    <path
       d="M95.08,229.55a1.53,1.53,0,0,1-.43,1.12,1.62,1.62,0,0,1-1.17.41H90.72v-5.41H93a2.57,2.57,0,0,1,.77.1,1.43,1.43,0,0,1,.54.26,1.09,1.09,0,0,1,.3.41,1.18,1.18,0,0,1,.1.5,1.42,1.42,0,0,1-.1.55,1.37,1.37,0,0,1-.26.41.86.86,0,0,1-.3.23,2,2,0,0,1,.74.55A1.41,1.41,0,0,1,95.08,229.55Zm-1.68-2.32a.54.54,0,0,0-.23-.52,1.45,1.45,0,0,0-.71-.13h-.3v1.3h.31a1.54,1.54,0,0,0,.71-.13A.55.55,0,0,0,93.4,227.23Zm.23,2.25c0-.46-.29-.69-.89-.69h-.58v1.38h.58C93.34,230.17,93.63,229.94,93.63,229.48Z"
       transform="translate(0.39 0.08)"
       style="fill: #fff100"
       id="path224" />
    <g
       id="g239">
      <path
         d="M103.68,179.92l1.24-2.16a26.78,26.78,0,0,0-6.42-2.34l-.44,2.46A24,24,0,0,1,103.68,179.92Z"
         transform="translate(0.39 0.08)"
         style="fill: #fff100"
         id="path225" />
      <path
         d="M92.61,177.26a24.62,24.62,0,0,1,3,.19L96,175a25.54,25.54,0,0,0-6.84,0l.44,2.46A24.45,24.45,0,0,1,92.61,177.26Z"
         transform="translate(0.39 0.08)"
         style="fill: #fff100"
         id="path226" />
      <path
         d="M110.41,185l1.91-1.61a27.51,27.51,0,0,0-5.23-4.39l-1.25,2.16A24.06,24.06,0,0,1,110.41,185Z"
         transform="translate(0.39 0.08)"
         style="fill: #fff100"
         id="path227" />
      <path
         d="M87.16,177.88l-.43-2.46a26.85,26.85,0,0,0-6.43,2.34l1.25,2.16A24.1,24.1,0,0,1,87.16,177.88Z"
         transform="translate(0.39 0.08)"
         style="fill: #fff100"
         id="path228" />
      <path
         d="M116.91,200.34h2.5a26.9,26.9,0,0,0-1.19-6.75l-2.35.86A24.39,24.39,0,0,1,116.91,200.34Z"
         transform="translate(0.39 0.08)"
         style="fill: #fff100"
         id="path229" />
      <path
         d="M115,192.1l2.34-.85a26.81,26.81,0,0,0-3.43-5.92l-1.91,1.6A24.39,24.39,0,0,1,115,192.1Z"
         transform="translate(0.39 0.08)"
         style="fill: #fff100"
         id="path230" />
      <path
         d="M74.81,218.15l-1.91,1.61a27.26,27.26,0,0,0,5.24,4.39L79.39,222A24.44,24.44,0,0,1,74.81,218.15Z"
         transform="translate(0.39 0.08)"
         style="fill: #fff100"
         id="path231" />
      <path
         d="M70.21,211.07l-2.35.85a26.81,26.81,0,0,0,3.43,5.92l1.91-1.6A23.93,23.93,0,0,1,70.21,211.07Z"
         transform="translate(0.39 0.08)"
         style="fill: #fff100"
         id="path232" />
      <path
         d="M68.32,202.84h-2.5A26.89,26.89,0,0,0,67,209.58l2.35-.86A24.3,24.3,0,0,1,68.32,202.84Z"
         transform="translate(0.39 0.08)"
         style="fill: #fff100"
         id="path233" />
      <path
         d="M69.35,194.45,67,193.59a26.89,26.89,0,0,0-1.18,6.75h2.5A24.38,24.38,0,0,1,69.35,194.45Z"
         transform="translate(0.39 0.08)"
         style="fill: #fff100"
         id="path234" />
      <path
         d="M112,216.24l1.9,1.6a26.81,26.81,0,0,0,3.43-5.92l-2.34-.85A24.79,24.79,0,0,1,112,216.24Z"
         transform="translate(0.39 0.08)"
         style="fill: #fff100"
         id="path235" />
      <path
         d="M116.91,202.84a24.31,24.31,0,0,1-1,5.88l2.35.86a26.9,26.9,0,0,0,1.19-6.74Z"
         transform="translate(0.39 0.08)"
         style="fill: #fff100"
         id="path236" />
      <path
         d="M79.39,181.18,78.14,179a27.26,27.26,0,0,0-5.24,4.39L74.81,185A24.44,24.44,0,0,1,79.39,181.18Z"
         transform="translate(0.39 0.08)"
         style="fill: #fff100"
         id="path237" />
      <path
         d="M105.84,222l1.25,2.16a27.2,27.2,0,0,0,5.23-4.39l-1.91-1.61A24.06,24.06,0,0,1,105.84,222Z"
         transform="translate(0.39 0.08)"
         style="fill: #fff100"
         id="path238" />
      <path
         d="M73.2,186.93l-1.9-1.6a26.46,26.46,0,0,0-3.44,5.92l2.35.85A23.93,23.93,0,0,1,73.2,186.93Z"
         transform="translate(0.39 0.08)"
         style="fill: #fff100"
         id="path239" />
    </g>
    <path
       d="M35.68,242.53H34.21l-.39-1.1H31.75l-.4,1.1H29.88L32,237.11h1.59Zm-2.19-2-.7-2-.7,2Z"
       transform="translate(0.39 0.08)"
       style="fill: #ec1c24"
       id="path240" />
    <g
       id="g255">
      <path
         d="M43.69,191.37l1.25-2.16a26.72,26.72,0,0,0-6.43-2.35l-.43,2.47A23.94,23.94,0,0,1,43.69,191.37Z"
         transform="translate(0.39 0.08)"
         style="fill: #ec1c24"
         id="path241" />
      <path
         d="M32.63,188.71a24.62,24.62,0,0,1,3,.19l.43-2.47a26.69,26.69,0,0,0-6.84,0l.43,2.47A24.62,24.62,0,0,1,32.63,188.71Z"
         transform="translate(0.39 0.08)"
         style="fill: #ec1c24"
         id="path242" />
      <path
         d="M50.43,196.46l1.91-1.6a27,27,0,0,0-5.24-4.4l-1.24,2.16A24.37,24.37,0,0,1,50.43,196.46Z"
         transform="translate(0.39 0.08)"
         style="fill: #ec1c24"
         id="path243" />
      <path
         d="M27.18,189.33l-.43-2.47a26.72,26.72,0,0,0-6.43,2.35l1.25,2.16A24.1,24.1,0,0,1,27.18,189.33Z"
         transform="translate(0.39 0.08)"
         style="fill: #ec1c24"
         id="path244" />
      <path
         d="M56.92,211.78h2.5A26.3,26.3,0,0,0,58.24,205l-2.35.86A24.22,24.22,0,0,1,56.92,211.78Z"
         transform="translate(0.39 0.08)"
         style="fill: #ec1c24"
         id="path245" />
      <path
         d="M55,203.55l2.34-.86A27,27,0,0,0,54,196.77L52,198.37A24.46,24.46,0,0,1,55,203.55Z"
         transform="translate(0.39 0.08)"
         style="fill: #ec1c24"
         id="path246" />
      <path
         d="M14.83,229.6l-1.91,1.6a27,27,0,0,0,5.24,4.4l1.24-2.16A24.37,24.37,0,0,1,14.83,229.6Z"
         transform="translate(0.39 0.08)"
         style="fill: #ec1c24"
         id="path247" />
      <path
         d="M10.23,222.52l-2.35.85a26.81,26.81,0,0,0,3.43,5.92l1.91-1.6A24.17,24.17,0,0,1,10.23,222.52Z"
         transform="translate(0.39 0.08)"
         style="fill: #ec1c24"
         id="path248" />
      <path
         d="M8.34,214.28H5.84A26.73,26.73,0,0,0,7,221l2.35-.85A24.38,24.38,0,0,1,8.34,214.28Z"
         transform="translate(0.39 0.08)"
         style="fill: #ec1c24"
         id="path249" />
      <path
         d="M9.37,205.9,7,205a26.73,26.73,0,0,0-1.18,6.74h2.5A24.22,24.22,0,0,1,9.37,205.9Z"
         transform="translate(0.39 0.08)"
         style="fill: #ec1c24"
         id="path250" />
      <path
         d="M52,227.69l1.91,1.6a27,27,0,0,0,3.43-5.92L55,222.52A24.64,24.64,0,0,1,52,227.69Z"
         transform="translate(0.39 0.08)"
         style="fill: #ec1c24"
         id="path251" />
      <path
         d="M56.92,214.28a24.38,24.38,0,0,1-1,5.89l2.35.85a26.3,26.3,0,0,0,1.18-6.74Z"
         transform="translate(0.39 0.08)"
         style="fill: #ec1c24"
         id="path252" />
      <path
         d="M19.4,192.62l-1.24-2.16a27,27,0,0,0-5.24,4.4l1.91,1.6A24.37,24.37,0,0,1,19.4,192.62Z"
         transform="translate(0.39 0.08)"
         style="fill: #ec1c24"
         id="path253" />
      <path
         d="M45.86,233.44l1.24,2.16a27,27,0,0,0,5.24-4.4l-1.91-1.6A24.37,24.37,0,0,1,45.86,233.44Z"
         transform="translate(0.39 0.08)"
         style="fill: #ec1c24"
         id="path254" />
      <path
         d="M13.22,198.37l-1.91-1.6a27,27,0,0,0-3.43,5.92l2.35.86A24,24,0,0,1,13.22,198.37Z"
         transform="translate(0.39 0.08)"
         style="fill: #ec1c24"
         id="path255" />
    </g>
    <path
       d="M155.9,242.12a2.73,2.73,0,0,1-.6.28,3.72,3.72,0,0,1-.62.15,4.77,4.77,0,0,1-.66,0,3,3,0,0,1-1.11-.2,2.4,2.4,0,0,1-.86-.57,2.53,2.53,0,0,1-.54-.89,3.37,3.37,0,0,1-.18-1.12,3.3,3.3,0,0,1,.21-1.23,2.26,2.26,0,0,1,.6-.87,2.47,2.47,0,0,1,.87-.51,3.24,3.24,0,0,1,1-.17,5,5,0,0,1,1.83.41v1.44a4.32,4.32,0,0,0-.7-.42,1.86,1.86,0,0,0-.81-.16,1.75,1.75,0,0,0-.78.18,1.58,1.58,0,0,0-.58.54,1.53,1.53,0,0,0-.22.81,1.5,1.5,0,0,0,.2.75,1.4,1.4,0,0,0,.53.55,1.55,1.55,0,0,0,.77.2,2.07,2.07,0,0,0,.66-.1,2.55,2.55,0,0,0,.52-.21,4.46,4.46,0,0,0,.43-.28Z"
       transform="translate(0.39 0.08)"
       style="fill: #00adee"
       id="path256" />
    <g
       id="g271">
      <path
         d="M164.57,191.37l1.25-2.16a26.88,26.88,0,0,0-6.43-2.35l-.43,2.47A24.1,24.1,0,0,1,164.57,191.37Z"
         transform="translate(0.39 0.08)"
         style="fill: #00adee"
         id="path257" />
      <path
         d="M153.51,188.71a24.45,24.45,0,0,1,3,.19l.44-2.47a26.69,26.69,0,0,0-6.84,0l.43,2.47A24.49,24.49,0,0,1,153.51,188.71Z"
         transform="translate(0.39 0.08)"
         style="fill: #00adee"
         id="path258" />
      <path
         d="M171.31,196.46l1.91-1.6a27,27,0,0,0-5.24-4.4l-1.25,2.16A24.44,24.44,0,0,1,171.31,196.46Z"
         transform="translate(0.39 0.08)"
         style="fill: #00adee"
         id="path259" />
      <path
         d="M148.06,189.33l-.44-2.47a26.8,26.8,0,0,0-6.42,2.35l1.24,2.16A24,24,0,0,1,148.06,189.33Z"
         transform="translate(0.39 0.08)"
         style="fill: #00adee"
         id="path260" />
      <path
         d="M177.8,211.78h2.5a26.73,26.73,0,0,0-1.18-6.74l-2.35.86A24.22,24.22,0,0,1,177.8,211.78Z"
         transform="translate(0.39 0.08)"
         style="fill: #00adee"
         id="path261" />
      <path
         d="M175.91,203.55l2.35-.86a26.68,26.68,0,0,0-3.44-5.92l-1.9,1.6A24,24,0,0,1,175.91,203.55Z"
         transform="translate(0.39 0.08)"
         style="fill: #00adee"
         id="path262" />
      <path
         d="M135.71,229.6l-1.91,1.6a26.89,26.89,0,0,0,5.23,4.4l1.25-2.16A24.06,24.06,0,0,1,135.71,229.6Z"
         transform="translate(0.39 0.08)"
         style="fill: #00adee"
         id="path263" />
      <path
         d="M131.1,222.52l-2.34.85a26.81,26.81,0,0,0,3.43,5.92l1.9-1.6A25,25,0,0,1,131.1,222.52Z"
         transform="translate(0.39 0.08)"
         style="fill: #00adee"
         id="path264" />
      <path
         d="M129.21,214.28h-2.5A26.74,26.74,0,0,0,127.9,221l2.35-.85A24.39,24.39,0,0,1,129.21,214.28Z"
         transform="translate(0.39 0.08)"
         style="fill: #00adee"
         id="path265" />
      <path
         d="M130.25,205.9,127.9,205a26.74,26.74,0,0,0-1.19,6.74h2.5A24.23,24.23,0,0,1,130.25,205.9Z"
         transform="translate(0.39 0.08)"
         style="fill: #00adee"
         id="path266" />
      <path
         d="M172.92,227.69l1.91,1.6a27,27,0,0,0,3.43-5.92l-2.35-.85A24.17,24.17,0,0,1,172.92,227.69Z"
         transform="translate(0.39 0.08)"
         style="fill: #00adee"
         id="path267" />
      <path
         d="M177.8,214.28a24.38,24.38,0,0,1-1,5.89l2.35.85a26.73,26.73,0,0,0,1.18-6.74Z"
         transform="translate(0.39 0.08)"
         style="fill: #00adee"
         id="path268" />
      <path
         d="M140.28,192.62,139,190.46a27.19,27.19,0,0,0-5.23,4.4l1.91,1.6A24.06,24.06,0,0,1,140.28,192.62Z"
         transform="translate(0.39 0.08)"
         style="fill: #00adee"
         id="path269" />
      <path
         d="M166.73,233.44,168,235.6a27,27,0,0,0,5.24-4.4l-1.91-1.6A24.44,24.44,0,0,1,166.73,233.44Z"
         transform="translate(0.39 0.08)"
         style="fill: #00adee"
         id="path270" />
      <path
         d="M134.1,198.37l-1.91-1.6a27,27,0,0,0-3.43,5.92l2.34.86A24.46,24.46,0,0,1,134.1,198.37Z"
         transform="translate(0.39 0.08)"
         style="fill: #00adee"
         id="path271" />
    </g>
    <path
       d="M221.2,239.92a2.87,2.87,0,0,1-.27,1.34,2.72,2.72,0,0,1-.62.81,2.08,2.08,0,0,1-1.44.46H216.3v-5.42h2a4.22,4.22,0,0,1,.77.06,2.38,2.38,0,0,1,.57.15,1.91,1.91,0,0,1,.43.21,1.65,1.65,0,0,1,.32.26,2.22,2.22,0,0,1,.43.53,2.93,2.93,0,0,1,.29.72A3.48,3.48,0,0,1,221.2,239.92Zm-1.46-.07a2,2,0,0,0-.22-1,1.12,1.12,0,0,0-.53-.49,1.59,1.59,0,0,0-.64-.13h-.61v3.21h.61a1.57,1.57,0,0,0,1-.31A1.5,1.5,0,0,0,219.74,239.85Z"
       transform="translate(0.39 0.08)"
       style="fill: #f06392"
       id="path272" />
    <g
       id="g287">
      <path
         d="M229.51,191.37l1.25-2.16a26.88,26.88,0,0,0-6.43-2.35l-.43,2.47A24.1,24.1,0,0,1,229.51,191.37Z"
         transform="translate(0.39 0.08)"
         style="fill: #f06392"
         id="path273" />
      <path
         d="M218.45,188.71a24.45,24.45,0,0,1,3,.19l.44-2.47a26.69,26.69,0,0,0-6.84,0l.43,2.47A24.62,24.62,0,0,1,218.45,188.71Z"
         transform="translate(0.39 0.08)"
         style="fill: #f06392"
         id="path274" />
      <path
         d="M236.25,196.46l1.91-1.6a27,27,0,0,0-5.24-4.4l-1.24,2.16A24.7,24.7,0,0,1,236.25,196.46Z"
         transform="translate(0.39 0.08)"
         style="fill: #f06392"
         id="path275" />
      <path
         d="M213,189.33l-.44-2.47a26.8,26.8,0,0,0-6.42,2.35l1.25,2.16A23.78,23.78,0,0,1,213,189.33Z"
         transform="translate(0.39 0.08)"
         style="fill: #f06392"
         id="path276" />
      <path
         d="M242.74,211.78h2.5a26.73,26.73,0,0,0-1.18-6.74l-2.35.86A24.22,24.22,0,0,1,242.74,211.78Z"
         transform="translate(0.39 0.08)"
         style="fill: #f06392"
         id="path277" />
      <path
         d="M240.85,203.55l2.35-.86a27,27,0,0,0-3.43-5.92l-1.91,1.6A24,24,0,0,1,240.85,203.55Z"
         transform="translate(0.39 0.08)"
         style="fill: #f06392"
         id="path278" />
      <path
         d="M200.65,229.6l-1.91,1.6a27.19,27.19,0,0,0,5.23,4.4l1.25-2.16A24.06,24.06,0,0,1,200.65,229.6Z"
         transform="translate(0.39 0.08)"
         style="fill: #f06392"
         id="path279" />
      <path
         d="M196,222.52l-2.34.85a26.81,26.81,0,0,0,3.43,5.92l1.91-1.6A24.64,24.64,0,0,1,196,222.52Z"
         transform="translate(0.39 0.08)"
         style="fill: #f06392"
         id="path280" />
      <path
         d="M194.15,214.28h-2.5a26.74,26.74,0,0,0,1.19,6.74l2.35-.85A24.39,24.39,0,0,1,194.15,214.28Z"
         transform="translate(0.39 0.08)"
         style="fill: #f06392"
         id="path281" />
      <path
         d="M195.19,205.9l-2.35-.86a26.74,26.74,0,0,0-1.19,6.74h2.5A24.23,24.23,0,0,1,195.19,205.9Z"
         transform="translate(0.39 0.08)"
         style="fill: #f06392"
         id="path282" />
      <path
         d="M237.86,227.69l1.91,1.6a27,27,0,0,0,3.43-5.92l-2.35-.85A24.17,24.17,0,0,1,237.86,227.69Z"
         transform="translate(0.39 0.08)"
         style="fill: #f06392"
         id="path283" />
      <path
         d="M242.74,214.28a24.38,24.38,0,0,1-1,5.89l2.35.85a26.73,26.73,0,0,0,1.18-6.74Z"
         transform="translate(0.39 0.08)"
         style="fill: #f06392"
         id="path284" />
      <path
         d="M205.22,192.62,204,190.46a27.19,27.19,0,0,0-5.23,4.4l1.91,1.6A24.37,24.37,0,0,1,205.22,192.62Z"
         transform="translate(0.39 0.08)"
         style="fill: #f06392"
         id="path285" />
      <path
         d="M231.68,233.44l1.24,2.16a27,27,0,0,0,5.24-4.4l-1.91-1.6A24.7,24.7,0,0,1,231.68,233.44Z"
         transform="translate(0.39 0.08)"
         style="fill: #f06392"
         id="path286" />
      <path
         d="M199,198.37l-1.91-1.6a27,27,0,0,0-3.43,5.92l2.34.86A24.46,24.46,0,0,1,199,198.37Z"
         transform="translate(0.39 0.08)"
         style="fill: #f06392"
         id="path287" />
    </g>
    <path
       d="M341.72,240.34h-2v2.19h-1.43v-5.42h3.41v1.09h-2v1.05h2Z"
       transform="translate(0.39 0.08)"
       style="fill: #00a551"
       id="path288" />
    <g
       id="g303">
      <path
         d="M350.81,191.37l1.25-2.16a26.72,26.72,0,0,0-6.43-2.35l-.43,2.47A24.1,24.1,0,0,1,350.81,191.37Z"
         transform="translate(0.39 0.08)"
         style="fill: #00a551"
         id="path289" />
      <path
         d="M339.75,188.71a24.62,24.62,0,0,1,3,.19l.43-2.47a26.69,26.69,0,0,0-6.84,0l.43,2.47A24.62,24.62,0,0,1,339.75,188.71Z"
         transform="translate(0.39 0.08)"
         style="fill: #00a551"
         id="path290" />
      <path
         d="M357.55,196.46l1.91-1.6a27,27,0,0,0-5.24-4.4L353,192.62A24.37,24.37,0,0,1,357.55,196.46Z"
         transform="translate(0.39 0.08)"
         style="fill: #00a551"
         id="path291" />
      <path
         d="M334.3,189.33l-.43-2.47a26.72,26.72,0,0,0-6.43,2.35l1.25,2.16A24.1,24.1,0,0,1,334.3,189.33Z"
         transform="translate(0.39 0.08)"
         style="fill: #00a551"
         id="path292" />
      <path
         d="M364,211.78h2.5a26.73,26.73,0,0,0-1.18-6.74l-2.35.86A24.22,24.22,0,0,1,364,211.78Z"
         transform="translate(0.39 0.08)"
         style="fill: #00a551"
         id="path293" />
      <path
         d="M362.15,203.55l2.35-.86a27,27,0,0,0-3.43-5.92l-1.91,1.6A24,24,0,0,1,362.15,203.55Z"
         transform="translate(0.39 0.08)"
         style="fill: #00a551"
         id="path294" />
      <path
         d="M322,229.6,320,231.2a27,27,0,0,0,5.24,4.4l1.24-2.16A24.37,24.37,0,0,1,322,229.6Z"
         transform="translate(0.39 0.08)"
         style="fill: #00a551"
         id="path295" />
      <path
         d="M317.34,222.52l-2.34.85a26.81,26.81,0,0,0,3.43,5.92l1.91-1.6A24.64,24.64,0,0,1,317.34,222.52Z"
         transform="translate(0.39 0.08)"
         style="fill: #00a551"
         id="path296" />
      <path
         d="M315.46,214.28H313a26.3,26.3,0,0,0,1.18,6.74l2.35-.85A24.38,24.38,0,0,1,315.46,214.28Z"
         transform="translate(0.39 0.08)"
         style="fill: #00a551"
         id="path297" />
      <path
         d="M316.49,205.9l-2.35-.86a26.3,26.3,0,0,0-1.18,6.74h2.5A24.22,24.22,0,0,1,316.49,205.9Z"
         transform="translate(0.39 0.08)"
         style="fill: #00a551"
         id="path298" />
      <path
         d="M359.16,227.69l1.91,1.6a27,27,0,0,0,3.43-5.92l-2.35-.85A24.17,24.17,0,0,1,359.16,227.69Z"
         transform="translate(0.39 0.08)"
         style="fill: #00a551"
         id="path299" />
      <path
         d="M364,214.28a24.38,24.38,0,0,1-1,5.89l2.35.85a26.73,26.73,0,0,0,1.18-6.74Z"
         transform="translate(0.39 0.08)"
         style="fill: #00a551"
         id="path300" />
      <path
         d="M326.52,192.62l-1.24-2.16a27,27,0,0,0-5.24,4.4l1.91,1.6A24.37,24.37,0,0,1,326.52,192.62Z"
         transform="translate(0.39 0.08)"
         style="fill: #00a551"
         id="path301" />
      <path
         d="M353,233.44l1.24,2.16a27,27,0,0,0,5.24-4.4l-1.91-1.6A24.37,24.37,0,0,1,353,233.44Z"
         transform="translate(0.39 0.08)"
         style="fill: #00a551"
         id="path302" />
      <path
         d="M320.34,198.37l-1.91-1.6a27,27,0,0,0-3.43,5.92l2.34.86A24.46,24.46,0,0,1,320.34,198.37Z"
         transform="translate(0.39 0.08)"
         style="fill: #00a551"
         id="path303" />
    </g>
    <rect
       x="102.74"
       y="56.85"
       width="167.81"
       height="82.88"
       rx="5.13"
       style="fill: #7d7e81"
       id="rect303" />
    <rect
       x="102.74"
       y="32.82"
       width="167.81"
       height="19.74"
       rx="3.78"
       style="fill: #7d7e81"
       id="rect304" />
  </g>
  <g
     id="g308" />
</svg>
