<svg xmlns="http://www.w3.org/2000/svg" width="76.29mm" height="130.28mm" viewBox="0 0 216.25 369.31">
  <g id="faceplate">
    <rect x="0.13" y="0.13" width="216" height="364.25" style="fill: #ededed;stroke: #9d9d9e;stroke-miterlimit: 10;stroke-width: 0.25px" />
    <path d="M198.41,317.52V294.3H176.87c-7.49,0-13.57,7-13.57,15.71v31.86h29.47a5.67,5.67,0,0,0,5.64-5.67V317.52Z" />
    <g>
      <path d="M35.13,235.85a1.9,1.9,0,0,1-.09.58,1.77,1.77,0,0,1-.29.54,1.54,1.54,0,0,1-.55.4,2,2,0,0,1-.81.15h-.94v2H31v-5.42h2.38a1.86,1.86,0,0,1,.81.16,1.54,1.54,0,0,1,.55.4,1.71,1.71,0,0,1,.29.55A2,2,0,0,1,35.13,235.85Zm-1.46,0a.64.64,0,0,0-.2-.53,1.35,1.35,0,0,0-.72-.14h-.3v1.31h.31a2,2,0,0,0,.55-.06.41.41,0,0,0,.27-.18A.74.74,0,0,0,33.67,235.85Z" />
      <path d="M41.19,239.56H39.75v-3.14l-1.29,1.82h-.11l-1.3-1.82v3.14h-1.4v-5.42H37l1.47,2,1.47-2h1.3Z" />
    </g>
    <g>
      <path d="M80.25,238a1.67,1.67,0,0,1-.22.88,1.53,1.53,0,0,1-.64.57,2.16,2.16,0,0,1-.94.2l-.36,0a3.27,3.27,0,0,1-.57-.11,4.91,4.91,0,0,1-.74-.29v-1.33a4.4,4.4,0,0,0,.71.42,1.71,1.71,0,0,0,.74.17.61.61,0,0,0,.48-.14.41.41,0,0,0-.08-.63,2.5,2.5,0,0,0-.54-.31,3.81,3.81,0,0,1-.69-.41,1.83,1.83,0,0,1-.48-.55,1.62,1.62,0,0,1-.19-.79,1.74,1.74,0,0,1,.19-.79,1.43,1.43,0,0,1,.58-.56,2,2,0,0,1,1-.21,2.89,2.89,0,0,1,.74.09,2.81,2.81,0,0,1,.56.19l.3.17v1.27a4.26,4.26,0,0,0-.65-.42,1.6,1.6,0,0,0-.77-.19.54.54,0,0,0-.39.12.38.38,0,0,0-.12.29.36.36,0,0,0,.12.27,1.82,1.82,0,0,0,.43.29,8.07,8.07,0,0,1,.88.53,1.78,1.78,0,0,1,.52.54A1.47,1.47,0,0,1,80.25,238Z" />
      <path d="M83.74,239.37l-.32.13-.39.09a3.3,3.3,0,0,1-.47,0,2,2,0,0,1-1-.22,1.74,1.74,0,0,1-.61-.56,2.15,2.15,0,0,1-.3-.68,2.4,2.4,0,0,1,0-1.23,2.34,2.34,0,0,1,.3-.67,1.58,1.58,0,0,1,.6-.54,2,2,0,0,1,1-.22,2.68,2.68,0,0,1,.63.06,3.28,3.28,0,0,1,.5.17v1.11a2.89,2.89,0,0,0-1-.22.84.84,0,0,0-.58.22.91.91,0,0,0-.26.71,1,1,0,0,0,.13.53.82.82,0,0,0,.32.32.81.81,0,0,0,.39.1,1.77,1.77,0,0,0,.43-.06c.15,0,.35-.1.57-.18Z" />
      <path d="M87.69,239.36a4.55,4.55,0,0,1-.5.19,1.77,1.77,0,0,1-.55.08.55.55,0,0,1-.43-.13.64.64,0,0,1-.17-.3,1.67,1.67,0,0,1-.44.31,1.49,1.49,0,0,1-.64.12,1.14,1.14,0,0,1-.62-.15.8.8,0,0,1-.33-.38,1.31,1.31,0,0,1-.09-.47,1,1,0,0,1,.16-.61,1.19,1.19,0,0,1,.44-.39,4,4,0,0,1,.73-.32l.39-.14.19-.08L86,237a.83.83,0,0,0-.1-.45.5.5,0,0,0-.45-.17,1.42,1.42,0,0,0-.75.21,2.81,2.81,0,0,0-.64.52v-1.08a2.55,2.55,0,0,1,.5-.3,2.81,2.81,0,0,1,.56-.18,3,3,0,0,1,.59-.06,1.73,1.73,0,0,1,1.15.33,1.18,1.18,0,0,1,.38.92v1.54a.89.89,0,0,0,0,.32c0,.08.06.11.13.11a.72.72,0,0,0,.31-.11ZM86,238.6v-.95a3.3,3.3,0,0,0-.64.37.51.51,0,0,0-.2.44.4.4,0,0,0,.1.3.3.3,0,0,0,.23.11.52.52,0,0,0,.26-.08C85.8,238.74,85.88,238.67,86,238.6Z" />
      <path d="M91.54,239.56H90.3v-2.15a1.62,1.62,0,0,0-.09-.57.41.41,0,0,0-.42-.24.6.6,0,0,0-.27.06.79.79,0,0,0-.2.17,1.25,1.25,0,0,0-.15.19,1.37,1.37,0,0,0-.13.2v2.34H87.8v-4H89v.57a1.85,1.85,0,0,1,.58-.5,1.59,1.59,0,0,1,.66-.14q1.26,0,1.26,1.71Z" />
    </g>
    <g>
      <path d="M130.8,239.56h-1.47l-.39-1.1h-2.07l-.4,1.1H125l2.11-5.42h1.59Zm-2.19-2-.7-2-.7,2Z" />
      <path d="M134.65,239.56h-1.24v-.36a2.53,2.53,0,0,1-.42.31,1.22,1.22,0,0,1-.6.12,1.54,1.54,0,0,1-.75-.22,1.52,1.52,0,0,1-.6-.67,2.41,2.41,0,0,1-.24-1.14,2.8,2.8,0,0,1,.18-1,1.63,1.63,0,0,1,.56-.77,1.44,1.44,0,0,1,.93-.3,1.46,1.46,0,0,1,.56.09,1.55,1.55,0,0,1,.38.21v-1.67h1.24Zm-1.24-1.27v-1.52a2.69,2.69,0,0,0-.34-.19.65.65,0,0,0-.29-.06.55.55,0,0,0-.48.28,1.32,1.32,0,0,0-.2.76,1.14,1.14,0,0,0,.21.77.59.59,0,0,0,.47.24.74.74,0,0,0,.36-.08A1.56,1.56,0,0,0,133.41,238.29Z" />
      <path d="M138.85,239.56h-1.24v-.36a2.94,2.94,0,0,1-.41.31,1.29,1.29,0,0,1-.61.12,1.47,1.47,0,0,1-.74-.22,1.6,1.6,0,0,1-.61-.67,2.41,2.41,0,0,1-.24-1.14,2.8,2.8,0,0,1,.18-1,1.7,1.7,0,0,1,.56-.77,1.49,1.49,0,0,1,.94-.3,1.4,1.4,0,0,1,.55.09,1.38,1.38,0,0,1,.38.21v-1.67h1.24Zm-1.24-1.27v-1.52a2.14,2.14,0,0,0-.34-.19.61.61,0,0,0-.28-.06.57.57,0,0,0-.49.28,1.32,1.32,0,0,0-.19.76,1.15,1.15,0,0,0,.2.77.63.63,0,0,0,.48.24.74.74,0,0,0,.36-.08A1.21,1.21,0,0,0,137.61,238.29Z" />
    </g>
    <g>
      <path d="M175.69,239.56h-1.54l-.37-1a4.36,4.36,0,0,0-.38-.78.84.84,0,0,0-.32-.31,1.1,1.1,0,0,0-.4-.07h-.16v2.12h-1.44v-5.42h2.44a1.55,1.55,0,0,1,1,.28,1.51,1.51,0,0,1,.55.66,1.93,1.93,0,0,1,.17.74,1.54,1.54,0,0,1-.14.69,1.34,1.34,0,0,1-.3.42,2.93,2.93,0,0,1-.34.24,1.64,1.64,0,0,1,.38.36,6,6,0,0,1,.4.85Zm-1.95-3.71a.57.57,0,0,0-.22-.52,1.23,1.23,0,0,0-.7-.15h-.3v1.31h.31a1.35,1.35,0,0,0,.72-.14A.55.55,0,0,0,173.74,235.85Z" />
      <path d="M179.45,237.91H177a.93.93,0,0,0,.35.59,1,1,0,0,0,.64.23,2.93,2.93,0,0,0,1.38-.4v.87a3.41,3.41,0,0,1-.66.3,3.27,3.27,0,0,1-1,.13,2.11,2.11,0,0,1-1.1-.28,1.73,1.73,0,0,1-.68-.74,2.43,2.43,0,0,1-.23-1.06,2.38,2.38,0,0,1,.23-1.05,1.71,1.71,0,0,1,.68-.73,2.21,2.21,0,0,1,1.1-.26,1.72,1.72,0,0,1,.82.21,1.59,1.59,0,0,1,.65.68,2.49,2.49,0,0,1,.26,1.23Zm-1.16-.7a1,1,0,0,0-.17-.61.56.56,0,0,0-.48-.23.64.64,0,0,0-.5.23,1,1,0,0,0-.19.61Z" />
      <path d="M182.51,238.4a1.14,1.14,0,0,1-.35.88,1.42,1.42,0,0,1-1,.35,3,3,0,0,1-.7-.08,6.6,6.6,0,0,1-.66-.23v-1a4.76,4.76,0,0,0,.55.31,1.18,1.18,0,0,0,.5.1c.31,0,.47-.09.47-.29a.28.28,0,0,0-.07-.17.8.8,0,0,0-.23-.17l-.45-.23a1.88,1.88,0,0,1-.58-.46,1.09,1.09,0,0,1-.24-.71,1.07,1.07,0,0,1,.16-.57,1.17,1.17,0,0,1,.48-.45,1.67,1.67,0,0,1,.78-.17,1.52,1.52,0,0,1,.28,0,2.37,2.37,0,0,1,.43.09,2.13,2.13,0,0,1,.49.21v1l-.18-.12c-.05,0-.12-.07-.2-.12l-.29-.11a1.27,1.27,0,0,0-.34,0,.34.34,0,0,0-.29.1.24.24,0,0,0-.08.18.25.25,0,0,0,.08.19,1.66,1.66,0,0,0,.37.21,3.91,3.91,0,0,1,.66.36,1.23,1.23,0,0,1,.35.42A1.27,1.27,0,0,1,182.51,238.4Z" />
      <path d="M186.49,237.91H184a1,1,0,0,0,.35.59,1,1,0,0,0,.64.23,2.93,2.93,0,0,0,1.38-.4v.87a3.41,3.41,0,0,1-.66.3,3.27,3.27,0,0,1-1,.13,2.11,2.11,0,0,1-1.1-.28,1.73,1.73,0,0,1-.68-.74,2.42,2.42,0,0,1-.22-1.06,2.38,2.38,0,0,1,.22-1.05,1.71,1.71,0,0,1,.68-.73,2.21,2.21,0,0,1,1.1-.26,1.72,1.72,0,0,1,.82.21,1.67,1.67,0,0,1,.66.68,2.61,2.61,0,0,1,.25,1.23Zm-1.16-.7a1,1,0,0,0-.17-.61.56.56,0,0,0-.48-.23.64.64,0,0,0-.5.23,1,1,0,0,0-.19.61Z" />
      <path d="M189.58,239.33a3.33,3.33,0,0,1-.53.2,2.57,2.57,0,0,1-.65.1c-.89,0-1.34-.5-1.34-1.49v-1.58h-.56v-.25l1.66-1.92h.14v1.19h1.19v1H188.3v1.27a1.73,1.73,0,0,0,0,.36.36.36,0,0,0,.13.23.55.55,0,0,0,.34.09,1.64,1.64,0,0,0,.78-.28Z" />
    </g>
    <g>
      <path d="M34.66,288.59H33.22v-3.14l-1.3,1.82h-.11l-1.3-1.82v3.14H29.12v-5.41h1.3l1.46,2,1.47-2h1.31Z" />
      <path d="M39.24,286.6a2.43,2.43,0,0,1-.23,1.06,1.71,1.71,0,0,1-.68.73,2.38,2.38,0,0,1-2.2,0,1.71,1.71,0,0,1-.68-.73,2.42,2.42,0,0,1-.22-1.06,2.66,2.66,0,0,1,.12-.82,2,2,0,0,1,.38-.65,1.76,1.76,0,0,1,.64-.43,2.27,2.27,0,0,1,.86-.16,2.42,2.42,0,0,1,.88.16,1.65,1.65,0,0,1,.63.43,1.81,1.81,0,0,1,.37.65A2.39,2.39,0,0,1,39.24,286.6Zm-1.3,0a1.31,1.31,0,0,0-.18-.74.6.6,0,0,0-.53-.27.58.58,0,0,0-.52.27,1.31,1.31,0,0,0-.18.74,1.33,1.33,0,0,0,.18.74.65.65,0,0,0,1,0A1.33,1.33,0,0,0,37.94,286.6Z" />
      <path d="M43.3,288.59H42.06v-.36a1.92,1.92,0,0,1-.41.31,1.29,1.29,0,0,1-.61.12,1.52,1.52,0,0,1-.75-.21,1.71,1.71,0,0,1-.6-.67,2.48,2.48,0,0,1-.24-1.15,2.88,2.88,0,0,1,.18-1,1.81,1.81,0,0,1,.56-.77,1.49,1.49,0,0,1,.94-.3,1.38,1.38,0,0,1,.93.31v-1.67H43.3Zm-1.24-1.26v-1.52a2.38,2.38,0,0,0-.34-.2.61.61,0,0,0-.28-.06.59.59,0,0,0-.49.28,1.35,1.35,0,0,0-.19.77,1.16,1.16,0,0,0,.2.77.61.61,0,0,0,.48.24.77.77,0,0,0,.36-.08A1.64,1.64,0,0,0,42.06,287.33Z" />
    </g>
    <g>
      <path d="M83.33,288.59H81.86l-.39-1.1H79.4l-.39,1.1H77.54l2.1-5.41h1.59Zm-2.19-2-.69-2-.71,2Z" />
      <path d="M87.32,286.63a2.48,2.48,0,0,1-.23,1.15,1.66,1.66,0,0,1-.61.67,1.47,1.47,0,0,1-.75.21,1.33,1.33,0,0,1-.47-.07,1.19,1.19,0,0,1-.32-.16,1.92,1.92,0,0,1-.23-.2v.36H83.47v-5.41h1.24v1.67a1.22,1.22,0,0,1,.38-.21,1.4,1.4,0,0,1,.56-.1,1.47,1.47,0,0,1,.74.18,1.41,1.41,0,0,1,.53.47,2,2,0,0,1,.3.66A2.88,2.88,0,0,1,87.32,286.63Zm-1.3,0a1.32,1.32,0,0,0-.2-.78.6.6,0,0,0-.48-.27,1.1,1.1,0,0,0-.63.26v1.52a.86.86,0,0,0,.63.28.64.64,0,0,0,.45-.22A1,1,0,0,0,86,286.6Z" />
      <path d="M90.42,287.43a1.2,1.2,0,0,1-.35.89,1.44,1.44,0,0,1-1,.34,2.84,2.84,0,0,1-.69-.08,4.77,4.77,0,0,1-.66-.23v-1a3.62,3.62,0,0,0,.55.31,1.18,1.18,0,0,0,.5.11c.31,0,.46-.1.46-.29a.28.28,0,0,0-.06-.18,1.16,1.16,0,0,0-.24-.17l-.44-.23a1.66,1.66,0,0,1-.59-.46,1.06,1.06,0,0,1-.24-.7,1.17,1.17,0,0,1,.16-.57,1.13,1.13,0,0,1,.49-.45,1.55,1.55,0,0,1,.78-.18l.28,0a2.55,2.55,0,0,1,.43.09,2.33,2.33,0,0,1,.49.21v1l-.18-.13-.2-.11a1.6,1.6,0,0,0-.29-.11,1,1,0,0,0-.34-.05.4.4,0,0,0-.3.09.34.34,0,0,0-.08.19.24.24,0,0,0,.09.18,1,1,0,0,0,.36.21,2.82,2.82,0,0,1,.66.37,1.08,1.08,0,0,1,.36.42A1.22,1.22,0,0,1,90.42,287.43Z" />
    </g>
    <g>
      <path d="M131.06,288.59h-3.62v-5.41h1.44v4.11h2.18Z" />
      <path d="M132.71,288.59h-1.24v-4h1.24Zm-.1-4.89a.59.59,0,0,1-.15.41.47.47,0,0,1-.63.1.55.55,0,0,1-.19-.21.6.6,0,0,1-.07-.3.62.62,0,0,1,.15-.42.47.47,0,0,1,.74,0A.62.62,0,0,1,132.61,283.7Z" />
      <path d="M137,288.59h-1.24v-2.14a1.72,1.72,0,0,0-.09-.58.4.4,0,0,0-.42-.24.53.53,0,0,0-.26.06.87.87,0,0,0-.21.17,1.3,1.3,0,0,0-.15.2,1.74,1.74,0,0,0-.13.2v2.33h-1.24v-4h1.24v.57a1.83,1.83,0,0,1,.59-.49,1.38,1.38,0,0,1,.65-.15c.84,0,1.26.57,1.26,1.72Z" />
    </g>
    <g>
      <path d="M174.88,284.88a2,2,0,0,1-.09.59,1.48,1.48,0,0,1-.3.53,1.43,1.43,0,0,1-.54.41,2.07,2.07,0,0,1-.82.15h-.94v2h-1.44v-5.41h2.38a2.07,2.07,0,0,1,.82.15,1.43,1.43,0,0,1,.54.41,1.61,1.61,0,0,1,.3.54A2.08,2.08,0,0,1,174.88,284.88Zm-1.47,0a.59.59,0,0,0-.2-.53,1.26,1.26,0,0,0-.72-.14h-.3v1.3h.31a2.51,2.51,0,0,0,.55,0,.44.44,0,0,0,.28-.19A.71.71,0,0,0,173.41,284.89Z" />
      <path d="M178.93,288.59h-1.24v-2.2a1.27,1.27,0,0,0-.1-.52.41.41,0,0,0-.41-.24.57.57,0,0,0-.41.18,2.4,2.4,0,0,0-.34.45v2.33h-1.24v-5.41h1.24v2a1.77,1.77,0,0,1,.6-.5,1.57,1.57,0,0,1,.64-.14c.84,0,1.26.54,1.26,1.61Z" />
      <path d="M183,288.39c-.18.08-.35.15-.5.2a1.86,1.86,0,0,1-.56.07.59.59,0,0,1-.42-.12.64.64,0,0,1-.17-.3,2,2,0,0,1-.45.3,1.43,1.43,0,0,1-.64.12,1.1,1.1,0,0,1-.61-.15.8.8,0,0,1-.33-.38,1.1,1.1,0,0,1-.1-.47,1.15,1.15,0,0,1,.16-.61,1.28,1.28,0,0,1,.44-.39,4.84,4.84,0,0,1,.73-.31l.39-.15.2-.07.14-.07a.84.84,0,0,0-.11-.46c-.06-.11-.21-.16-.44-.16a1.57,1.57,0,0,0-.76.2,2.61,2.61,0,0,0-.63.53v-1.08a2,2,0,0,1,.5-.31,2.62,2.62,0,0,1,.56-.18,2.88,2.88,0,0,1,.59-.06,1.69,1.69,0,0,1,1.14.34,1.14,1.14,0,0,1,.38.92v1.53a1.22,1.22,0,0,0,0,.33.14.14,0,0,0,.13.11.67.67,0,0,0,.32-.12Zm-1.72-.76v-.94a3.51,3.51,0,0,0-.65.36.56.56,0,0,0-.2.44.46.46,0,0,0,.1.31.33.33,0,0,0,.24.1.41.41,0,0,0,.25-.08A1.88,1.88,0,0,0,181.3,287.63Z" />
      <path d="M185.86,287.43a1.16,1.16,0,0,1-.35.89,1.43,1.43,0,0,1-1,.34,2.84,2.84,0,0,1-.69-.08,4.77,4.77,0,0,1-.66-.23v-1a3.62,3.62,0,0,0,.55.31,1.18,1.18,0,0,0,.5.11c.31,0,.46-.1.46-.29a.28.28,0,0,0-.06-.18,1.16,1.16,0,0,0-.24-.17l-.44-.23a1.75,1.75,0,0,1-.59-.46,1.06,1.06,0,0,1-.24-.7,1.17,1.17,0,0,1,.16-.57,1.13,1.13,0,0,1,.49-.45,1.55,1.55,0,0,1,.78-.18l.28,0a2.55,2.55,0,0,1,.43.09,2.33,2.33,0,0,1,.49.21v1l-.18-.13-.2-.11a1.6,1.6,0,0,0-.29-.11,1,1,0,0,0-.34-.05.4.4,0,0,0-.3.09.34.34,0,0,0-.08.19.24.24,0,0,0,.09.18,1.11,1.11,0,0,0,.37.21,3.3,3.3,0,0,1,.66.37,1.14,1.14,0,0,1,.35.42A1.22,1.22,0,0,1,185.86,287.43Z" />
      <path d="M189.84,286.94h-2.46a1,1,0,0,0,.35.6,1,1,0,0,0,.64.23,3.05,3.05,0,0,0,1.38-.4v.87a3.42,3.42,0,0,1-.66.29,3,3,0,0,1-1,.13,2.11,2.11,0,0,1-1.1-.27,1.73,1.73,0,0,1-.68-.74,2.47,2.47,0,0,1-.23-1.07,2.38,2.38,0,0,1,.23-1.05,1.69,1.69,0,0,1,.68-.72,2.11,2.11,0,0,1,1.1-.27,1.72,1.72,0,0,1,.82.21,1.56,1.56,0,0,1,.65.69,2.54,2.54,0,0,1,.26,1.22Zm-1.16-.69a1,1,0,0,0-.17-.61.54.54,0,0,0-.48-.23.61.61,0,0,0-.5.23.91.91,0,0,0-.19.61Z" />
    </g>
    <g>
      <path d="M32.16,332.14a2,2,0,0,1-.09.59,1.62,1.62,0,0,1-.29.53,1.43,1.43,0,0,1-.55.4,1.86,1.86,0,0,1-.81.16h-1v2H28v-5.42h2.38a2,2,0,0,1,.81.16,1.56,1.56,0,0,1,.55.41,1.66,1.66,0,0,1,.29.54A2,2,0,0,1,32.16,332.14Zm-1.46,0a.61.61,0,0,0-.2-.53,1.29,1.29,0,0,0-.72-.15h-.31v1.31h.31a2.51,2.51,0,0,0,.55,0,.49.49,0,0,0,.28-.19A.7.7,0,0,0,30.7,332.15Z" />
      <path d="M33.78,335.85H32.54v-4h1.24Zm-.1-4.9a.57.57,0,0,1-.16.42.45.45,0,0,1-.37.17.48.48,0,0,1-.26-.07.67.67,0,0,1-.19-.22.73.73,0,0,1-.06-.3.59.59,0,0,1,.15-.41.45.45,0,0,1,.36-.18.46.46,0,0,1,.37.18A.56.56,0,0,1,33.68,331Z" />
      <path d="M37.11,335.62a2.58,2.58,0,0,1-.53.2,2.19,2.19,0,0,1-.65.1c-.89,0-1.34-.49-1.34-1.49v-1.58H34v-.25l1.66-1.92h.14v1.19H37v1H35.83v1.27a1.73,1.73,0,0,0,0,.36.36.36,0,0,0,.13.23.55.55,0,0,0,.34.09,1.64,1.64,0,0,0,.78-.28Z" />
      <path d="M40.37,335.67l-.33.12a1.87,1.87,0,0,1-.39.09,2.29,2.29,0,0,1-.47,0,2,2,0,0,1-1-.22,1.66,1.66,0,0,1-.61-.56,2.4,2.4,0,0,1-.3-.68,2.92,2.92,0,0,1-.08-.61,2.43,2.43,0,0,1,.09-.61,2,2,0,0,1,.29-.68,1.71,1.71,0,0,1,.61-.54,2,2,0,0,1,1-.22,2.84,2.84,0,0,1,.64.06c.16.05.32.1.49.17v1.11a2.9,2.9,0,0,0-.94-.22.84.84,0,0,0-.85.93,1.06,1.06,0,0,0,.13.53.82.82,0,0,0,.32.32.88.88,0,0,0,.4.1,1.76,1.76,0,0,0,.42-.06l.58-.18Z" />
      <path d="M44.42,335.85H43.19v-2.2a1.27,1.27,0,0,0-.11-.52.39.39,0,0,0-.4-.24.58.58,0,0,0-.42.18,2.4,2.4,0,0,0-.34.44v2.34H40.69v-5.42h1.23v2a1.89,1.89,0,0,1,.61-.5,1.53,1.53,0,0,1,.64-.14c.83,0,1.25.54,1.25,1.61Z" />
    </g>
    <g>
      <path d="M78.88,335.85H77.34l-.38-1a3.7,3.7,0,0,0-.37-.77.81.81,0,0,0-.32-.32,1.12,1.12,0,0,0-.4-.06h-.16v2.11H74.27v-5.42h2.44a1.62,1.62,0,0,1,1,.28,1.58,1.58,0,0,1,.55.66,1.9,1.9,0,0,1,.16.74,1.48,1.48,0,0,1-.14.7,1.27,1.27,0,0,1-.29.41,2.41,2.41,0,0,1-.35.25,1.31,1.31,0,0,1,.38.36,4.62,4.62,0,0,1,.41.84Zm-1.95-3.7a.59.59,0,0,0-.22-.53,1.25,1.25,0,0,0-.7-.15h-.3v1.31H76a1.36,1.36,0,0,0,.72-.13A.6.6,0,0,0,76.93,332.15Z" />
      <path d="M82.68,335.65l-.5.2a2.17,2.17,0,0,1-.55.07.6.6,0,0,1-.43-.12.75.75,0,0,1-.17-.3,2,2,0,0,1-.45.3,1.43,1.43,0,0,1-.64.12,1.1,1.1,0,0,1-.61-.15.8.8,0,0,1-.33-.38,1.1,1.1,0,0,1-.1-.47,1.07,1.07,0,0,1,.17-.61,1.16,1.16,0,0,1,.43-.39,6,6,0,0,1,.73-.32l.39-.14.2-.08.14-.07a.94.94,0,0,0-.1-.45c-.07-.11-.22-.16-.45-.16a1.41,1.41,0,0,0-.75.2,2.66,2.66,0,0,0-.64.52v-1.07a2,2,0,0,1,.5-.31,2.62,2.62,0,0,1,.56-.18,2.88,2.88,0,0,1,.59-.06,1.64,1.64,0,0,1,1.14.34,1.14,1.14,0,0,1,.39.92v1.53a1.31,1.31,0,0,0,0,.33.13.13,0,0,0,.13.1.64.64,0,0,0,.32-.11ZM81,334.89V334a2.89,2.89,0,0,0-.64.36.54.54,0,0,0-.21.44.48.48,0,0,0,.1.31.33.33,0,0,0,.24.1.41.41,0,0,0,.25-.08A2.14,2.14,0,0,0,81,334.89Z" />
      <path d="M86.52,335.85H85.29V333.7a1.48,1.48,0,0,0-.1-.57.39.39,0,0,0-.41-.24.6.6,0,0,0-.27.06,1.06,1.06,0,0,0-.2.17,1.24,1.24,0,0,0-.16.19l-.12.2v2.34H82.79v-4H84v.57a2,2,0,0,1,.58-.5,1.59,1.59,0,0,1,.66-.14c.83,0,1.25.57,1.25,1.71Z" />
      <path d="M90.51,332.72h-.62a1.06,1.06,0,0,1,.33.79,1.27,1.27,0,0,1-.09.47,1.34,1.34,0,0,1-.27.4,1.53,1.53,0,0,1-.44.29,1.76,1.76,0,0,1-.59.13c-.29,0-.43.1-.43.26a.18.18,0,0,0,0,.14.38.38,0,0,0,.18.06,2.21,2.21,0,0,0,.4.05,4.77,4.77,0,0,1,.59.11,1.18,1.18,0,0,1,.51.33,1,1,0,0,1,.24.72,1.2,1.2,0,0,1-.18.65,1.11,1.11,0,0,1-.57.45,2.74,2.74,0,0,1-1,.16,2.6,2.6,0,0,1-1.38-.29.86.86,0,0,1-.43-.76.93.93,0,0,1,0-.3.77.77,0,0,1,.24-.32,1.17,1.17,0,0,1,.54-.21.42.42,0,0,1-.22-.2.58.58,0,0,1-.09-.3.86.86,0,0,1,.13-.42.61.61,0,0,1,.41-.26,1.36,1.36,0,0,1-.68-.44,1.21,1.21,0,0,1-.29-.84,1.59,1.59,0,0,1,.14-.68,1.27,1.27,0,0,1,.36-.48,1.66,1.66,0,0,1,.55-.27,2.36,2.36,0,0,1,.67-.09h1.93Zm-1.13,3.87a.33.33,0,0,0-.24-.34,1.7,1.7,0,0,0-.51-.07,1.39,1.39,0,0,0-.62.1.35.35,0,0,0-.19.33c0,.3.26.45.79.45a1.08,1.08,0,0,0,.56-.12A.37.37,0,0,0,89.38,336.59Zm-.24-3.2a.65.65,0,0,0-.18-.48.57.57,0,0,0-.41-.18.52.52,0,0,0-.45.22.8.8,0,0,0-.16.46.67.67,0,0,0,.07.31.56.56,0,0,0,.2.23.54.54,0,0,0,.31.09.56.56,0,0,0,.44-.19A.65.65,0,0,0,89.14,333.39Z" />
      <path d="M94.26,334.2H91.79a1,1,0,0,0,.35.59,1,1,0,0,0,.64.23,3.1,3.1,0,0,0,1.39-.39v.87a4.18,4.18,0,0,1-.66.29,3.08,3.08,0,0,1-1,.13,2.14,2.14,0,0,1-1.1-.27,1.76,1.76,0,0,1-.68-.75,2.64,2.64,0,0,1,0-2.11,1.63,1.63,0,0,1,.68-.72,2.14,2.14,0,0,1,1.1-.27,1.76,1.76,0,0,1,.83.21,1.65,1.65,0,0,1,.65.68,2.61,2.61,0,0,1,.26,1.23Zm-1.17-.69a1.06,1.06,0,0,0-.16-.62.55.55,0,0,0-.48-.22.59.59,0,0,0-.5.23.91.91,0,0,0-.19.61Z" />
    </g>
    <g>
      <path d="M130.69,333.66h-2v2.19h-1.44v-5.42h3.41v1.09h-2v1.05h2Z" />
      <path d="M136.92,335.85h-1.44v-3.14l-1.29,1.82h-.12l-1.3-1.82v3.14h-1.39v-5.42h1.3l1.47,2,1.47-2h1.3Z" />
    </g>
    <g>
      <path d="M179.13,333.14a3.08,3.08,0,0,1-.31,1.39,2.3,2.3,0,0,1-.92,1,3.06,3.06,0,0,1-3,0,2.38,2.38,0,0,1-.91-1,3.14,3.14,0,0,1-.3-1.36,3.19,3.19,0,0,1,.3-1.37,2.35,2.35,0,0,1,.91-1,2.71,2.71,0,0,1,1.49-.39,2.92,2.92,0,0,1,1.18.22,2.24,2.24,0,0,1,.85.61,2.75,2.75,0,0,1,.51.88A3.43,3.43,0,0,1,179.13,333.14Zm-1.47,0a1.65,1.65,0,0,0-.08-.56,1.32,1.32,0,0,0-.23-.44,1.24,1.24,0,0,0-.39-.29,1.53,1.53,0,0,0-.54-.1,1.14,1.14,0,0,0-.9.38,1.5,1.5,0,0,0-.33,1,1.47,1.47,0,0,0,.33,1,1.12,1.12,0,0,0,.9.39,1.23,1.23,0,0,0,.68-.18,1.19,1.19,0,0,0,.42-.49A1.65,1.65,0,0,0,177.66,333.14Z" style="fill: #ededed" />
      <path d="M183.22,335.85H182v-.57a1.84,1.84,0,0,1-.55.48,1.42,1.42,0,0,1-.7.16,1,1,0,0,1-1-.53,2.79,2.79,0,0,1-.23-1.18v-2.34h1.23V334a1.61,1.61,0,0,0,.1.57.39.39,0,0,0,.41.24.56.56,0,0,0,.43-.17,3.77,3.77,0,0,0,.33-.45v-2.34h1.23Z" style="fill: #ededed" />
      <path d="M186.5,335.62a2.48,2.48,0,0,1-.54.2,2.13,2.13,0,0,1-.64.1c-.89,0-1.34-.5-1.34-1.49v-1.58h-.56v-.25l1.66-1.92h.14v1.19h1.18v1h-1.18v1.27a3.21,3.21,0,0,0,0,.36.43.43,0,0,0,.14.23.55.55,0,0,0,.34.09,1.64,1.64,0,0,0,.78-.28Z" style="fill: #ededed" />
    </g>
    <g>
      <path d="M77,357.38H75.18v-7.44H77Z" />
      <path d="M85.19,357.38H83.55l-3.17-4.15v4.15H78.56v-7.44h1.63l3.16,4.12v-4.12h1.84Z" />
      <path d="M91.09,354.37H88.56v3H86.72v-7.44h4.37v1.49H88.56v1.44h2.53Z" />
      <path d="M94.18,357.38H92.34v-7.44h1.84Z" />
      <path d="M102.35,357.38h-1.64l-3.16-4.15v4.15H95.72v-7.44h1.64l3.16,4.12v-4.12h1.83Z" />
      <path d="M105.73,357.38h-1.84v-7.44h1.84Z" />
      <path d="M113.13,351.75h-2.24v5.63h-1.83v-5.63h-2.24v-1.81h6.31Z" />
      <path d="M118.81,357.38H114.2v-7.44h4.53v1.49H116v1.36h2.57v1.5H116v1.59h2.77Z" />
      <path d="M129.25,353.65a4.49,4.49,0,0,1-.4,1.92,3.18,3.18,0,0,1-1.17,1.39,3.31,3.31,0,0,1-1.9.52,3.22,3.22,0,0,1-3.08-2,4.75,4.75,0,0,1-.38-1.88,4.66,4.66,0,0,1,.38-1.87,3.15,3.15,0,0,1,1.16-1.41,3.34,3.34,0,0,1,1.92-.54,3.6,3.6,0,0,1,1.51.31,3,3,0,0,1,1.09.83,3.67,3.67,0,0,1,.65,1.22A4.69,4.69,0,0,1,129.25,353.65Zm-1.88,0a2.59,2.59,0,0,0-.1-.76,1.88,1.88,0,0,0-.3-.6,1.48,1.48,0,0,0-.5-.4,1.52,1.52,0,0,0-.69-.14,1.4,1.4,0,0,0-1.16.52,2.14,2.14,0,0,0-.42,1.38,2.19,2.19,0,0,0,.42,1.39,1.41,1.41,0,0,0,1.16.53,1.54,1.54,0,0,0,.87-.25,1.61,1.61,0,0,0,.54-.68A2.5,2.5,0,0,0,127.37,353.65Z" />
      <path d="M134.66,355.22a2.49,2.49,0,0,1-.29,1.21,2.05,2.05,0,0,1-.82.78,2.59,2.59,0,0,1-1.2.27l-.47,0a4.75,4.75,0,0,1-.73-.17,5.62,5.62,0,0,1-1-.39v-1.83a6.84,6.84,0,0,0,.91.58,2.12,2.12,0,0,0,1,.23c.32,0,.52-.06.61-.19a.66.66,0,0,0,.14-.36.62.62,0,0,0-.24-.5,3.33,3.33,0,0,0-.69-.43,5.32,5.32,0,0,1-.88-.56,2.44,2.44,0,0,1-.62-.76,2.32,2.32,0,0,1-.24-1.08,2.42,2.42,0,0,1,.24-1.09,2,2,0,0,1,.74-.78,2.45,2.45,0,0,1,1.22-.29,3.5,3.5,0,0,1,.94.13,3.51,3.51,0,0,1,1.11.5v1.75a5.24,5.24,0,0,0-.84-.59,2,2,0,0,0-1-.25.65.65,0,0,0-.5.16.54.54,0,0,0-.15.39.56.56,0,0,0,.15.39,3.37,3.37,0,0,0,.55.39,11.5,11.5,0,0,1,1.13.72,2.59,2.59,0,0,1,.66.75A2.09,2.09,0,0,1,134.66,355.22Z" />
      <path d="M141.38,356.82a4.06,4.06,0,0,1-.78.39,4.49,4.49,0,0,1-.8.21,5.59,5.59,0,0,1-.83.06,3.61,3.61,0,0,1-1.43-.27,3.06,3.06,0,0,1-1.1-.79,3.38,3.38,0,0,1-.69-1.23,5.32,5.32,0,0,1,0-3.22,3.33,3.33,0,0,1,.76-1.2,3.23,3.23,0,0,1,1.12-.71,3.91,3.91,0,0,1,1.33-.23,6,6,0,0,1,2.35.57v2a7.07,7.07,0,0,0-.89-.58,2.32,2.32,0,0,0-1.05-.23,2,2,0,0,0-1,.26,2,2,0,0,0-.75.74,2.24,2.24,0,0,0-.28,1.12,2.12,2.12,0,0,0,.25,1,2,2,0,0,0,.68.75,1.89,1.89,0,0,0,1,.27,2.55,2.55,0,0,0,.84-.13,3.27,3.27,0,0,0,.67-.29c.18-.11.37-.24.56-.38Z" />
    </g>
    <path d="M17.85,325.82v9.88a5.68,5.68,0,0,0,5.67,5.67H184.38c7.49,0,13.56-6,13.56-14.64v-108l-.06-6.23c-.29-8.37-6.23-15.06-13.54-15.06H31.41c-7.31,0-13.25,6.69-13.54,15.06l-.06,6.23v46.63l.06,61.34" style="fill: none;stroke: #000;stroke-miterlimit: 10" />
    <g>
      <path d="M107.17,73.09h-1.84l-.49-1.38h-2.59l-.49,1.38H99.92l2.64-6.77h2Zm-2.74-2.55-.87-2.47-.88,2.47Z" />
      <path d="M112.16,70.63a3.07,3.07,0,0,1-.3,1.44,1.93,1.93,0,0,1-.76.83,1.84,1.84,0,0,1-1.53.18,1.41,1.41,0,0,1-.39-.19l-.29-.25v.45h-1.55V66.32h1.55v2.09a1.57,1.57,0,0,1,.47-.27,1.87,1.87,0,0,1,.7-.11,2,2,0,0,1,.93.21,1.88,1.88,0,0,1,.66.59,2.73,2.73,0,0,1,.38.83A3.91,3.91,0,0,1,112.16,70.63Zm-1.63,0a1.59,1.59,0,0,0-.26-1,.74.74,0,0,0-.6-.33,1.37,1.37,0,0,0-.78.31v1.9a1,1,0,0,0,.78.35.82.82,0,0,0,.57-.26A1.34,1.34,0,0,0,110.53,70.6Z" />
      <path d="M116,71.64a1.51,1.51,0,0,1-.44,1.11,1.84,1.84,0,0,1-1.31.42,3.3,3.3,0,0,1-.87-.1,6.15,6.15,0,0,1-.82-.28V71.54a4.52,4.52,0,0,0,.68.38,1.46,1.46,0,0,0,.63.14c.39,0,.58-.13.58-.37a.32.32,0,0,0-.08-.21,1.16,1.16,0,0,0-.3-.22c-.13-.08-.32-.17-.55-.28a2.31,2.31,0,0,1-.73-.58,1.42,1.42,0,0,1-.1-1.6,1.55,1.55,0,0,1,.6-.56,2.09,2.09,0,0,1,1-.21,2.44,2.44,0,0,1,.35,0,2.79,2.79,0,0,1,.53.11,2.84,2.84,0,0,1,.62.27v1.21l-.23-.15a1.11,1.11,0,0,0-.25-.14,1.5,1.5,0,0,0-.36-.14,1.55,1.55,0,0,0-.43-.07.43.43,0,0,0-.36.12.36.36,0,0,0-.1.24.3.3,0,0,0,.1.22,1.54,1.54,0,0,0,.46.26,4.15,4.15,0,0,1,.83.47,1.43,1.43,0,0,1,.44.52A1.7,1.7,0,0,1,116,71.64Z" />
    </g>
    <path d="M108.12,27.09a19.9,19.9,0,0,0-2.45.17l-.39-2.21a21.4,21.4,0,0,1,5.69,0l-.39,2.21A19.92,19.92,0,0,0,108.12,27.09Z" />
    <path d="M93.63,33.46,91.91,32a22.06,22.06,0,0,1,4.34-3.66l1.12,1.95A19.52,19.52,0,0,0,93.63,33.46Z" />
    <path d="M99.1,29.29,98,27.35a21.89,21.89,0,0,1,5.34-2l.39,2.22A19.61,19.61,0,0,0,99.1,29.29Z" />
    <path d="M89.89,39.23l-2.1-.77a22.56,22.56,0,0,1,2.83-4.91L92.35,35A19.81,19.81,0,0,0,89.89,39.23Z" />
    <path d="M112.55,27.61l.39-2.22a21.67,21.67,0,0,1,5.33,2l-1.12,1.94A19.61,19.61,0,0,0,112.55,27.61Z" />
    <path d="M88.41,45.92H86.15a22,22,0,0,1,1-5.58l2.11.77A19.6,19.6,0,0,0,88.41,45.92Z" />
    <path d="M89.27,52.72l-2.1.77a22.17,22.17,0,0,1-1-5.57H88.4A19.74,19.74,0,0,0,89.27,52.72Z" />
    <path d="M92.41,58.8,90.7,60.24a22.06,22.06,0,0,1-2.84-4.88L90,54.6A19.8,19.8,0,0,0,92.41,58.8Z" />
    <path d="M123.9,35l1.73-1.44a22.56,22.56,0,0,1,2.83,4.91l-2.1.77A19.88,19.88,0,0,0,123.9,35Z" />
    <path d="M127,41.11l2.11-.77a22,22,0,0,1,1,5.58h-2.26A19.6,19.6,0,0,0,127,41.11Z" />
    <path d="M127.85,47.92h2.24a22.17,22.17,0,0,1-1,5.57l-2.1-.77A19.74,19.74,0,0,0,127.85,47.92Z" />
    <path d="M126.29,54.6l2.1.76a21.68,21.68,0,0,1-2.84,4.88l-1.71-1.44A19.63,19.63,0,0,0,126.29,54.6Z" />
    <path d="M97.43,63.45l-1.12,1.93A21.79,21.79,0,0,1,92,61.76l1.71-1.43A20.39,20.39,0,0,0,97.43,63.45Z" />
    <path d="M122.54,60.33l1.72,1.43a22.5,22.5,0,0,1-4.32,3.62l-1.12-1.94A19.63,19.63,0,0,0,122.54,60.33Z" />
    <path d="M118.88,30.29,120,28.35A22.41,22.41,0,0,1,124.35,32l-1.73,1.45A19.94,19.94,0,0,0,118.88,30.29Z" />
    <g>
      <path d="M102.57,155.94a2.89,2.89,0,0,1-.14.88,2.47,2.47,0,0,1-.44.81,2.24,2.24,0,0,1-.82.6,3.05,3.05,0,0,1-1.22.23H98.54v3H96.38v-8.12H100a3.05,3.05,0,0,1,1.22.23,2.26,2.26,0,0,1,.82.61,2.42,2.42,0,0,1,.44.82A3,3,0,0,1,102.57,155.94Zm-2.2,0a.91.91,0,0,0-.3-.79A2,2,0,0,0,99,155h-.45v2H99a3.45,3.45,0,0,0,.82-.07.66.66,0,0,0,.42-.28A1.11,1.11,0,0,0,100.37,156Z" />
      <path d="M105,161.51h-1.86v-6H105Zm-.15-7.34a.91.91,0,0,1-.23.62.72.72,0,0,1-1,.14.73.73,0,0,1-.28-.32.92.92,0,0,1-.1-.44.89.89,0,0,1,.23-.63.68.68,0,0,1,.55-.26.7.7,0,0,1,.55.26A.94.94,0,0,1,104.84,154.17Z" />
      <path d="M110,161.16a4.07,4.07,0,0,1-1.77.45q-2,0-2-2.22V157h-.84v-.37l2.49-2.88h.21v1.78h1.78V157h-1.78v1.91a3.74,3.74,0,0,0,0,.54.55.55,0,0,0,.2.34.84.84,0,0,0,.51.14,2.52,2.52,0,0,0,1.17-.42Z" />
      <path d="M114.88,161.23l-.49.19c-.18.05-.37.1-.58.14a4,4,0,0,1-.71.05,2.93,2.93,0,0,1-1.45-.33,2.48,2.48,0,0,1-.92-.83,3.07,3.07,0,0,1-.45-1,4.22,4.22,0,0,1-.12-.92,4.15,4.15,0,0,1,.12-.92,3.37,3.37,0,0,1,.45-1,2.41,2.41,0,0,1,.91-.81,3,3,0,0,1,1.46-.33,4.07,4.07,0,0,1,1,.09,5.37,5.37,0,0,1,.74.25v1.66a4.43,4.43,0,0,0-1.41-.33,1.31,1.31,0,0,0-.88.34,1.34,1.34,0,0,0-.39,1.06,1.66,1.66,0,0,0,.19.8,1.32,1.32,0,0,0,.49.48,1.26,1.26,0,0,0,.59.15,2.27,2.27,0,0,0,.63-.1q.36-.09.87-.27Z" />
      <path d="M121,161.51H119.1v-3.1s0,0,0-.06v-.14a1.86,1.86,0,0,0-.16-.79.61.61,0,0,0-.61-.35.89.89,0,0,0-.62.26,3.36,3.36,0,0,0-.51.67v3.51h-1.85v-8.12h1.85v3a2.64,2.64,0,0,1,.91-.76,2.38,2.38,0,0,1,.95-.2c1.26,0,1.89.8,1.89,2.41Z" />
    </g>
    <g>
      <path d="M170.61,184.22,168,191.07h-1l-1.54-4-1.59,4h-1.05l-2.52-6.85h1.86l1.23,3.75,1.42-3.75h1.29l1.39,3.75,1.29-3.75Z" />
      <path d="M175.37,190.74a6.53,6.53,0,0,1-.63.24,2.31,2.31,0,0,1-.69.09.73.73,0,0,1-.53-.15.87.87,0,0,1-.22-.37,2.34,2.34,0,0,1-.55.38,2,2,0,0,1-.8.14,1.44,1.44,0,0,1-.77-.18,1.07,1.07,0,0,1-.42-.48,1.67,1.67,0,0,1-.11-.59,1.31,1.31,0,0,1,.2-.76,1.63,1.63,0,0,1,.55-.49,7.94,7.94,0,0,1,.91-.39l.49-.18.24-.09.18-.09a1.14,1.14,0,0,0-.13-.57c-.09-.14-.28-.2-.56-.2a1.81,1.81,0,0,0-.94.25,3.51,3.51,0,0,0-.8.65v-1.34a2.55,2.55,0,0,1,.63-.39,3.18,3.18,0,0,1,.7-.22,3.61,3.61,0,0,1,.73-.07,2.11,2.11,0,0,1,1.43.42,1.42,1.42,0,0,1,.48,1.14v1.92a1.33,1.33,0,0,0,.05.41c0,.09.08.14.16.14a.87.87,0,0,0,.4-.15Zm-2.15-1v-1.17a4.5,4.5,0,0,0-.81.45.67.67,0,0,0-.25.55.49.49,0,0,0,.13.38.38.38,0,0,0,.29.14.66.66,0,0,0,.32-.1A3.14,3.14,0,0,0,173.22,189.78Z" />
      <path d="M180.11,186l-2,5H177L175,186h1.67l.9,2.6,1-2.6Z" />
      <path d="M184.77,188.93h-3.08a1.21,1.21,0,0,0,.44.74,1.23,1.23,0,0,0,.8.29,3.77,3.77,0,0,0,1.72-.5v1.09a4.56,4.56,0,0,1-.82.36,3.86,3.86,0,0,1-1.23.16,2.56,2.56,0,0,1-1.37-.34,2.07,2.07,0,0,1-.85-.93,3,3,0,0,1-.28-1.32,2.9,2.9,0,0,1,.28-1.31,2,2,0,0,1,.85-.91,2.65,2.65,0,0,1,1.37-.33,2.1,2.1,0,0,1,1,.26,2,2,0,0,1,.82.85,3.28,3.28,0,0,1,.32,1.53Zm-1.46-.87a1.35,1.35,0,0,0-.2-.77.7.7,0,0,0-.6-.28.76.76,0,0,0-.63.29,1.14,1.14,0,0,0-.24.76Z" />
    </g>
    <path d="M172.63,145a19.92,19.92,0,0,0-2.46.17l-.39-2.21a21.4,21.4,0,0,1,5.69,0l-.39,2.21A19.9,19.9,0,0,0,172.63,145Z" />
    <path d="M158.13,151.36l-1.72-1.45a22.4,22.4,0,0,1,4.34-3.66l1.12,1.95A19.52,19.52,0,0,0,158.13,151.36Z" />
    <path d="M163.6,147.19l-1.13-1.94a21.89,21.89,0,0,1,5.34-2l.39,2.22A19.61,19.61,0,0,0,163.6,147.19Z" />
    <path d="M154.39,157.13l-2.1-.77a22.2,22.2,0,0,1,2.84-4.91l1.72,1.45A19.81,19.81,0,0,0,154.39,157.13Z" />
    <path d="M177.05,145.51l.39-2.22a21.67,21.67,0,0,1,5.33,2l-1.12,1.94A19.61,19.61,0,0,0,177.05,145.51Z" />
    <path d="M152.91,163.82h-2.26a22,22,0,0,1,1-5.58l2.11.77A19.6,19.6,0,0,0,152.91,163.82Z" />
    <path d="M153.77,170.62l-2.1.77a22.17,22.17,0,0,1-1-5.57h2.24A19.74,19.74,0,0,0,153.77,170.62Z" />
    <path d="M156.91,176.7l-1.71,1.44a22,22,0,0,1-2.84-4.87l2.1-.77A19.8,19.8,0,0,0,156.91,176.7Z" />
    <path d="M188.4,152.9l1.73-1.45a22.56,22.56,0,0,1,2.83,4.91l-2.1.77A19.81,19.81,0,0,0,188.4,152.9Z" />
    <path d="M191.53,159l2.11-.77a22,22,0,0,1,1,5.58h-2.26A19.6,19.6,0,0,0,191.53,159Z" />
    <path d="M192.35,165.82h2.24a22.17,22.17,0,0,1-1,5.57l-2.1-.77A19.74,19.74,0,0,0,192.35,165.82Z" />
    <path d="M190.79,172.5l2.1.77a21.83,21.83,0,0,1-2.84,4.87l-1.71-1.44A19.63,19.63,0,0,0,190.79,172.5Z" />
    <path d="M161.93,181.35l-1.12,1.93a22.09,22.09,0,0,1-4.31-3.61l1.71-1.44A20,20,0,0,0,161.93,181.35Z" />
    <path d="M187,178.23l1.72,1.43a22.14,22.14,0,0,1-4.32,3.62l-1.12-1.93A19.67,19.67,0,0,0,187,178.23Z" />
    <path d="M183.38,148.2l1.12-1.95a22.41,22.41,0,0,1,4.35,3.66l-1.73,1.45A19.52,19.52,0,0,0,183.38,148.2Z" />
    <g>
      <path d="M29.51,191h-1.8v-3.92l-1.62,2.27H26l-1.63-2.27V191H22.58v-6.77h1.63L26,186.76l1.84-2.54h1.63Z" />
      <path d="M35.23,188.5a3,3,0,0,1-.28,1.32,2.15,2.15,0,0,1-.85.92,3,3,0,0,1-2.75,0,2.15,2.15,0,0,1-.85-.92,3.29,3.29,0,0,1-.12-2.34,2.13,2.13,0,0,1,1.26-1.36,2.78,2.78,0,0,1,1.08-.19,2.88,2.88,0,0,1,1.1.19,2.1,2.1,0,0,1,.78.54,2.35,2.35,0,0,1,.48.81A3.33,3.33,0,0,1,35.23,188.5Zm-1.62,0a1.64,1.64,0,0,0-.23-.93.82.82,0,0,0-1.31,0,1.64,1.64,0,0,0-.22.93,1.55,1.55,0,0,0,.23.92.72.72,0,0,0,.64.35.76.76,0,0,0,.66-.34A1.68,1.68,0,0,0,33.61,188.5Z" />
      <path d="M40.31,191H38.76v-.45a2.39,2.39,0,0,1-.52.38,1.56,1.56,0,0,1-.75.15,1.83,1.83,0,0,1-.94-.26,2.07,2.07,0,0,1-.75-.84,3.06,3.06,0,0,1-.3-1.43,3.82,3.82,0,0,1,.22-1.28,2.26,2.26,0,0,1,.7-1,1.84,1.84,0,0,1,1.17-.37,1.74,1.74,0,0,1,.7.11,1.8,1.8,0,0,1,.47.27v-2.09h1.55Zm-1.55-1.59v-1.89a4,4,0,0,0-.42-.25.8.8,0,0,0-.36-.07.73.73,0,0,0-.61.35,1.66,1.66,0,0,0-.24,1,1.47,1.47,0,0,0,.25,1,.78.78,0,0,0,.6.3.94.94,0,0,0,.45-.1A1.35,1.35,0,0,0,38.76,189.4Z" />
      <path d="M44.36,189.54a1.51,1.51,0,0,1-.44,1.11,1.82,1.82,0,0,1-1.31.42,3.22,3.22,0,0,1-.86-.1,6.25,6.25,0,0,1-.83-.28v-1.25a4.52,4.52,0,0,0,.68.38,1.46,1.46,0,0,0,.63.14c.39,0,.58-.12.58-.36a.29.29,0,0,0-.08-.22,1.08,1.08,0,0,0-.29-.22l-.56-.28a2.43,2.43,0,0,1-.73-.58,1.32,1.32,0,0,1-.3-.88,1.45,1.45,0,0,1,.2-.72,1.46,1.46,0,0,1,.6-.55,2,2,0,0,1,1-.22l.35,0a3,3,0,0,1,.54.11,2.77,2.77,0,0,1,.61.27v1.21l-.23-.15-.24-.14a1.78,1.78,0,0,0-.37-.14,1.52,1.52,0,0,0-.42-.06.51.51,0,0,0-.37.11.36.36,0,0,0-.1.24.32.32,0,0,0,.1.22,2,2,0,0,0,.46.27,3.9,3.9,0,0,1,.83.46,1.41,1.41,0,0,1,.44.52A1.54,1.54,0,0,1,44.36,189.54Z" />
      <path d="M49.52,191H48v-2.64a1,1,0,0,0,0-.11,1.59,1.59,0,0,0-.14-.66.5.5,0,0,0-.51-.29.7.7,0,0,0-.51.22,2.93,2.93,0,0,0-.43.56V191H44.85v-6.77h1.54v2.51a2.21,2.21,0,0,1,.76-.63,1.8,1.8,0,0,1,.8-.17c1,0,1.57.67,1.57,2Z" />
      <path d="M54.63,190.74A5,5,0,0,1,54,191a2.31,2.31,0,0,1-.69.09.75.75,0,0,1-.53-.15,1,1,0,0,1-.22-.37,2.34,2.34,0,0,1-.55.38,2,2,0,0,1-.8.14,1.46,1.46,0,0,1-.77-.18,1,1,0,0,1-.41-.48,1.48,1.48,0,0,1-.12-.59,1.35,1.35,0,0,1,.2-.75,1.66,1.66,0,0,1,.55-.5,7.94,7.94,0,0,1,.91-.39l.49-.18.25-.09.17-.09a1,1,0,0,0-.13-.57c-.09-.14-.27-.2-.56-.2a1.81,1.81,0,0,0-.94.25,3.46,3.46,0,0,0-.79.65v-1.34a2.69,2.69,0,0,1,.62-.39,3.35,3.35,0,0,1,.7-.22,3.64,3.64,0,0,1,.74-.07,2.12,2.12,0,0,1,1.43.42A1.43,1.43,0,0,1,54,187.5v1.91a1.39,1.39,0,0,0,0,.41.18.18,0,0,0,.17.14.84.84,0,0,0,.39-.15Zm-2.15-1v-1.18a3.53,3.53,0,0,0-.8.46.65.65,0,0,0-.26.54.53.53,0,0,0,.13.39.41.41,0,0,0,.29.13.66.66,0,0,0,.32-.1Z" />
      <path d="M59.57,188.47a3.42,3.42,0,0,1-.13,1,2.67,2.67,0,0,1-.38.84,1.93,1.93,0,0,1-.65.59,2,2,0,0,1-.94.21,1.75,1.75,0,0,1-.67-.1,3.06,3.06,0,0,1-.5-.27v2.55H54.76V186H56.3v.45a2.15,2.15,0,0,1,.52-.39,1.6,1.6,0,0,1,.76-.15,1.85,1.85,0,0,1,.94.27,2,2,0,0,1,.75.83A3.07,3.07,0,0,1,59.57,188.47Zm-1.63,0a1.85,1.85,0,0,0-.12-.73.87.87,0,0,0-.33-.41.75.75,0,0,0-.4-.12.9.9,0,0,0-.46.1,1.79,1.79,0,0,0-.33.25v1.9l.18.11.18.1.2.08a.86.86,0,0,0,.23,0,.72.72,0,0,0,.61-.35A1.65,1.65,0,0,0,57.94,188.51Z" />
      <path d="M64.51,188.93H61.43a1.21,1.21,0,0,0,.44.74,1.23,1.23,0,0,0,.8.29,3.77,3.77,0,0,0,1.72-.5v1.09a4.56,4.56,0,0,1-.82.36,3.86,3.86,0,0,1-1.23.16,2.56,2.56,0,0,1-1.37-.34,2.09,2.09,0,0,1-.85-.92,3,3,0,0,1-.28-1.33,2.9,2.9,0,0,1,.28-1.31,2,2,0,0,1,.85-.91,2.65,2.65,0,0,1,1.37-.33,2.1,2.1,0,0,1,1,.26,2,2,0,0,1,.82.85,3.28,3.28,0,0,1,.32,1.53Zm-1.46-.87a1.35,1.35,0,0,0-.2-.77.7.7,0,0,0-.6-.28.76.76,0,0,0-.63.29,1.14,1.14,0,0,0-.24.76Z" />
    </g>
    <path d="M43.3,145a19.9,19.9,0,0,0-2.45.17L40.46,143a21.32,21.32,0,0,1,5.68,0l-.38,2.21A20.06,20.06,0,0,0,43.3,145Z" />
    <path d="M28.81,151.36l-1.73-1.45a22.4,22.4,0,0,1,4.34-3.66l1.12,1.95A19.77,19.77,0,0,0,28.81,151.36Z" />
    <path d="M34.27,147.19l-1.12-1.94a22.31,22.31,0,0,1,5.34-2l.39,2.22A19.85,19.85,0,0,0,34.27,147.19Z" />
    <path d="M25.07,157.13l-2.1-.77a22.16,22.16,0,0,1,2.83-4.91l1.73,1.45A19.81,19.81,0,0,0,25.07,157.13Z" />
    <path d="M47.72,145.51l.39-2.22a21.74,21.74,0,0,1,5.34,2l-1.12,1.94A19.68,19.68,0,0,0,47.72,145.51Z" />
    <path d="M23.59,163.82H21.33a22,22,0,0,1,1-5.58l2.11.77A19.14,19.14,0,0,0,23.59,163.82Z" />
    <path d="M24.45,170.62l-2.1.77a21.73,21.73,0,0,1-1-5.57h2.24A19.74,19.74,0,0,0,24.45,170.62Z" />
    <path d="M27.59,176.7l-1.72,1.44A22.39,22.39,0,0,1,23,173.27l2.11-.77A19.39,19.39,0,0,0,27.59,176.7Z" />
    <path d="M59.08,152.9l1.72-1.45a21.78,21.78,0,0,1,2.83,4.91l-2.1.77A19.77,19.77,0,0,0,59.08,152.9Z" />
    <path d="M62.21,159l2.11-.77a22,22,0,0,1,1,5.58H63A19.6,19.6,0,0,0,62.21,159Z" />
    <path d="M63,165.82h2.24a22.17,22.17,0,0,1-1,5.57l-2.1-.77A19.74,19.74,0,0,0,63,165.82Z" />
    <path d="M61.47,172.5l2.1.77a22.22,22.22,0,0,1-2.84,4.87L59,176.7A20.05,20.05,0,0,0,61.47,172.5Z" />
    <path d="M32.61,181.35l-1.12,1.93a22.45,22.45,0,0,1-4.32-3.61l1.71-1.44A20.06,20.06,0,0,0,32.61,181.35Z" />
    <path d="M57.72,178.23l1.71,1.43a21.57,21.57,0,0,1-4.32,3.62L54,181.35A20,20,0,0,0,57.72,178.23Z" />
    <path d="M54.06,148.2l1.12-1.95a22.06,22.06,0,0,1,4.34,3.66l-1.73,1.45A19.77,19.77,0,0,0,54.06,148.2Z" />
    <g>
      <path d="M166.09,127.4a2.58,2.58,0,0,1-.11.73,2.11,2.11,0,0,1-.37.67,1.75,1.75,0,0,1-.68.5,2.47,2.47,0,0,1-1,.2h-1.18V132h-1.79v-6.77h3a2.48,2.48,0,0,1,1,.19,1.87,1.87,0,0,1,.68.51,2.16,2.16,0,0,1,.37.68A2.67,2.67,0,0,1,166.09,127.4Zm-1.83,0a.73.73,0,0,0-.25-.66,1.64,1.64,0,0,0-.9-.18h-.38v1.63h.39a2.47,2.47,0,0,0,.69-.07.54.54,0,0,0,.34-.23A.85.85,0,0,0,164.26,127.41Z" />
      <path d="M171.16,132h-1.55v-2.75a1.59,1.59,0,0,0-.13-.66.51.51,0,0,0-.51-.3.71.71,0,0,0-.51.23,2.65,2.65,0,0,0-.43.56V132h-1.55v-6.77H168v2.51a2.21,2.21,0,0,1,.76-.63,1.78,1.78,0,0,1,.79-.17c1,0,1.58.67,1.58,2Z" />
      <path d="M176.27,131.79a6.53,6.53,0,0,1-.63.24,2.31,2.31,0,0,1-.69.09.73.73,0,0,1-.53-.15.87.87,0,0,1-.22-.37,2,2,0,0,1-.55.37,1.84,1.84,0,0,1-.8.15,1.44,1.44,0,0,1-.77-.18,1.07,1.07,0,0,1-.42-.48,1.67,1.67,0,0,1-.11-.59,1.31,1.31,0,0,1,.2-.76,1.63,1.63,0,0,1,.55-.49,7.94,7.94,0,0,1,.91-.39l.49-.18.24-.1.18-.08a1.14,1.14,0,0,0-.13-.57c-.09-.14-.28-.2-.56-.2a1.81,1.81,0,0,0-.94.25,3.51,3.51,0,0,0-.8.65v-1.34a2.55,2.55,0,0,1,.63-.39,3.18,3.18,0,0,1,.7-.22,3.61,3.61,0,0,1,.73-.07,2.16,2.16,0,0,1,1.43.41,1.46,1.46,0,0,1,.48,1.15v1.92a1.33,1.33,0,0,0,.05.41c0,.09.08.14.16.14a.87.87,0,0,0,.4-.15Zm-2.15-1v-1.17a4.5,4.5,0,0,0-.81.45.67.67,0,0,0-.25.55.49.49,0,0,0,.13.38.38.38,0,0,0,.29.14.66.66,0,0,0,.32-.1A3.14,3.14,0,0,0,174.12,130.83Z" />
      <path d="M179.82,130.59a1.47,1.47,0,0,1-.44,1.11,1.82,1.82,0,0,1-1.31.42,3.22,3.22,0,0,1-.86-.1,6.25,6.25,0,0,1-.83-.28v-1.25a5.06,5.06,0,0,0,.68.38,1.53,1.53,0,0,0,.64.14c.38,0,.58-.12.58-.37a.29.29,0,0,0-.09-.21.94.94,0,0,0-.29-.22l-.56-.28a2.43,2.43,0,0,1-.73-.58,1.34,1.34,0,0,1-.3-.88,1.45,1.45,0,0,1,.2-.72,1.59,1.59,0,0,1,.61-.56,2,2,0,0,1,1-.21,2.37,2.37,0,0,1,.35,0,3,3,0,0,1,.54.11,2.77,2.77,0,0,1,.61.27v1.21l-.23-.15a1.27,1.27,0,0,0-.24-.14,1.78,1.78,0,0,0-.37-.14,1.47,1.47,0,0,0-.42-.06.47.47,0,0,0-.37.11.42.42,0,0,0-.1.24.31.31,0,0,0,.11.22,1.58,1.58,0,0,0,.46.27,4.06,4.06,0,0,1,.82.46,1.34,1.34,0,0,1,.44.52A1.54,1.54,0,0,1,179.82,130.59Z" />
      <path d="M184.79,130h-3.08a1.29,1.29,0,0,0,1.25,1,3.77,3.77,0,0,0,1.72-.5v1.09a4.56,4.56,0,0,1-.82.36,3.86,3.86,0,0,1-1.23.16,2.62,2.62,0,0,1-1.38-.34,2.24,2.24,0,0,1-.85-.93,3.12,3.12,0,0,1-.28-1.32,3,3,0,0,1,.28-1.31,2.13,2.13,0,0,1,.85-.91,2.71,2.71,0,0,1,1.38-.33,2.13,2.13,0,0,1,1,.26,2,2,0,0,1,.81.85,3.16,3.16,0,0,1,.32,1.53Zm-1.45-.87a1.28,1.28,0,0,0-.21-.77.7.7,0,0,0-.6-.28.75.75,0,0,0-.62.29,1.14,1.14,0,0,0-.24.76Z" />
    </g>
    <path d="M172.63,86a19.92,19.92,0,0,0-2.46.17L169.78,84a21.4,21.4,0,0,1,5.69,0l-.39,2.21A19.9,19.9,0,0,0,172.63,86Z" />
    <path d="M158.13,92.41,156.41,91a22.06,22.06,0,0,1,4.34-3.66l1.12,2A19.52,19.52,0,0,0,158.13,92.41Z" />
    <path d="M163.6,88.24l-1.13-1.94a21.89,21.89,0,0,1,5.34-2l.39,2.22A19.61,19.61,0,0,0,163.6,88.24Z" />
    <path d="M154.39,98.18l-2.1-.77a22.2,22.2,0,0,1,2.84-4.91L156.85,94A19.81,19.81,0,0,0,154.39,98.18Z" />
    <path d="M177.05,86.56l.39-2.22a21.67,21.67,0,0,1,5.33,2l-1.12,1.94A19.61,19.61,0,0,0,177.05,86.56Z" />
    <path d="M152.91,104.87h-2.26a22,22,0,0,1,1-5.58l2.11.77A19.6,19.6,0,0,0,152.91,104.87Z" />
    <path d="M153.77,111.67l-2.1.77a22.17,22.17,0,0,1-1-5.57h2.24A19.74,19.74,0,0,0,153.77,111.67Z" />
    <path d="M156.91,117.75l-1.71,1.44a22.22,22.22,0,0,1-2.84-4.87l2.1-.77A19.8,19.8,0,0,0,156.91,117.75Z" />
    <path d="M188.4,94l1.73-1.45A22.56,22.56,0,0,1,193,97.41l-2.1.77A19.81,19.81,0,0,0,188.4,94Z" />
    <path d="M191.53,100.06l2.11-.77a22,22,0,0,1,1,5.58h-2.26A19.6,19.6,0,0,0,191.53,100.06Z" />
    <path d="M192.35,106.87h2.24a22.17,22.17,0,0,1-1,5.57l-2.1-.77A19.74,19.74,0,0,0,192.35,106.87Z" />
    <path d="M190.79,113.55l2.1.77a21.83,21.83,0,0,1-2.84,4.87l-1.71-1.44A19.63,19.63,0,0,0,190.79,113.55Z" />
    <path d="M161.93,122.4l-1.12,1.93a21.79,21.79,0,0,1-4.31-3.62l1.71-1.43A20.39,20.39,0,0,0,161.93,122.4Z" />
    <path d="M187,119.28l1.72,1.43a22.5,22.5,0,0,1-4.32,3.62l-1.12-1.93A20.05,20.05,0,0,0,187,119.28Z" />
    <path d="M183.38,89.25l1.12-2A22.41,22.41,0,0,1,188.85,91l-1.73,1.45A19.52,19.52,0,0,0,183.38,89.25Z" />
    <g>
      <path d="M41.86,129.3H39.39V132H37.6v-6.77h4.26v1.36H39.39v1.3h2.47Z" />
      <path d="M49.64,132H47.85v-3.92l-1.62,2.27h-.14l-1.63-2.27V132H42.72v-6.77h1.63l1.83,2.54L48,125.27h1.62Z" />
    </g>
    <path d="M43.62,86a19.9,19.9,0,0,0-2.45.17L40.78,84a21.4,21.4,0,0,1,5.69,0l-.39,2.21A19.92,19.92,0,0,0,43.62,86Z" />
    <path d="M29.13,92.41,27.41,91a22.06,22.06,0,0,1,4.34-3.66l1.12,2A19.52,19.52,0,0,0,29.13,92.41Z" />
    <path d="M34.6,88.24,33.47,86.3a21.89,21.89,0,0,1,5.34-2l.39,2.22A19.61,19.61,0,0,0,34.6,88.24Z" />
    <path d="M25.39,98.18l-2.1-.77a22.56,22.56,0,0,1,2.83-4.91L27.85,94A19.81,19.81,0,0,0,25.39,98.18Z" />
    <path d="M48.05,86.56l.39-2.22a21.67,21.67,0,0,1,5.33,2l-1.12,1.94A19.61,19.61,0,0,0,48.05,86.56Z" />
    <path d="M23.91,104.87H21.65a22,22,0,0,1,1-5.58l2.11.77A19.6,19.6,0,0,0,23.91,104.87Z" />
    <path d="M24.77,111.67l-2.1.77a22.17,22.17,0,0,1-1-5.57H23.9A19.74,19.74,0,0,0,24.77,111.67Z" />
    <path d="M27.91,117.75l-1.71,1.44a22.22,22.22,0,0,1-2.84-4.87l2.1-.77A19.8,19.8,0,0,0,27.91,117.75Z" />
    <path d="M59.4,94l1.73-1.45A22.56,22.56,0,0,1,64,97.41l-2.1.77A19.81,19.81,0,0,0,59.4,94Z" />
    <path d="M62.53,100.06l2.11-.77a22,22,0,0,1,1,5.58H63.34A19.6,19.6,0,0,0,62.53,100.06Z" />
    <path d="M63.35,106.87h2.24a22.17,22.17,0,0,1-1,5.57l-2.1-.77A19.74,19.74,0,0,0,63.35,106.87Z" />
    <path d="M61.79,113.55l2.1.77a21.83,21.83,0,0,1-2.84,4.87l-1.71-1.44A19.63,19.63,0,0,0,61.79,113.55Z" />
    <path d="M32.93,122.4l-1.12,1.93a21.79,21.79,0,0,1-4.31-3.62l1.71-1.43A20.39,20.39,0,0,0,32.93,122.4Z" />
    <path d="M58,119.28l1.72,1.43a22.5,22.5,0,0,1-4.32,3.62l-1.12-1.93A20.05,20.05,0,0,0,58,119.28Z" />
    <path d="M54.38,89.25l1.12-2A22.41,22.41,0,0,1,59.85,91l-1.73,1.45A19.52,19.52,0,0,0,54.38,89.25Z" />
    <g>
      <path d="M166.14,73.09h-1.93l-.47-1.21a4.81,4.81,0,0,0-.46-1,1.11,1.11,0,0,0-.4-.39,1.23,1.23,0,0,0-.51-.09h-.2v2.65h-1.8V66.32h3.06a2,2,0,0,1,1.21.34,1.93,1.93,0,0,1,.68.83,2.35,2.35,0,0,1,.21.93,2,2,0,0,1-.17.86,1.62,1.62,0,0,1-.37.52,3.65,3.65,0,0,1-.43.31,1.56,1.56,0,0,1,.47.45,6.2,6.2,0,0,1,.51,1.06Zm-2.44-4.63a.75.75,0,0,0-.27-.66,1.63,1.63,0,0,0-.88-.18h-.38v1.63h.39a1.7,1.7,0,0,0,.9-.17A.69.69,0,0,0,163.7,68.46Z" />
      <path d="M170.89,72.84a6.53,6.53,0,0,1-.63.24,2.31,2.31,0,0,1-.69.09A.73.73,0,0,1,169,73a1,1,0,0,1-.22-.37,2,2,0,0,1-.55.37,1.84,1.84,0,0,1-.8.15,1.44,1.44,0,0,1-.77-.18,1,1,0,0,1-.41-.48,1.52,1.52,0,0,1-.12-.59,1.31,1.31,0,0,1,.2-.76,1.63,1.63,0,0,1,.55-.49,6.48,6.48,0,0,1,.91-.39l.49-.18.24-.1.18-.08a1.14,1.14,0,0,0-.13-.57c-.09-.14-.27-.21-.56-.21a1.82,1.82,0,0,0-.94.26,3.51,3.51,0,0,0-.8.65V68.71a2.55,2.55,0,0,1,.63-.39,3.18,3.18,0,0,1,.7-.22,3.64,3.64,0,0,1,.74-.07,2.15,2.15,0,0,1,1.42.41,1.46,1.46,0,0,1,.48,1.15v1.92a1.33,1.33,0,0,0,.05.41c0,.09.08.14.16.14a.87.87,0,0,0,.4-.15Zm-2.15-1V70.71a4.5,4.5,0,0,0-.81.45.67.67,0,0,0-.25.55.49.49,0,0,0,.13.38.38.38,0,0,0,.29.14.66.66,0,0,0,.32-.1A3.14,3.14,0,0,0,168.74,71.88Z" />
      <path d="M175.69,73.09h-1.54V70.4a1.92,1.92,0,0,0-.12-.71.5.5,0,0,0-.52-.31.67.67,0,0,0-.33.08,1.33,1.33,0,0,0-.26.21,1.84,1.84,0,0,0-.19.25,2.72,2.72,0,0,0-.16.25v2.92H171v-5h1.55v.72a2.28,2.28,0,0,1,.73-.63,2,2,0,0,1,.82-.17c1,0,1.57.71,1.57,2.14Z" />
      <path d="M180.67,69.17h-.77a1.35,1.35,0,0,1,.41,1,1.52,1.52,0,0,1-.12.59,1.36,1.36,0,0,1-.33.5,1.64,1.64,0,0,1-.55.36,2.3,2.3,0,0,1-.74.17c-.36,0-.53.12-.53.32a.21.21,0,0,0,.06.17.5.5,0,0,0,.22.09l.5.06a3.92,3.92,0,0,1,.74.13,1.49,1.49,0,0,1,.65.41,1.3,1.3,0,0,1,.29.9,1.5,1.5,0,0,1-.22.82,1.48,1.48,0,0,1-.72.55,3.35,3.35,0,0,1-1.3.2,3.23,3.23,0,0,1-1.72-.35,1.11,1.11,0,0,1-.55-1,1.47,1.47,0,0,1,.07-.38.93.93,0,0,1,.31-.4,1.25,1.25,0,0,1,.66-.26.62.62,0,0,1-.26-.25.67.67,0,0,1-.11-.38,1,1,0,0,1,.15-.52.73.73,0,0,1,.51-.32,1.81,1.81,0,0,1-.84-.56,1.52,1.52,0,0,1-.36-1,2,2,0,0,1,.16-.85,1.72,1.72,0,0,1,.46-.6,2.17,2.17,0,0,1,.68-.34,3.24,3.24,0,0,1,.85-.11h2.4ZM179.27,74a.39.39,0,0,0-.31-.42,2.23,2.23,0,0,0-.63-.09,1.86,1.86,0,0,0-.78.12.45.45,0,0,0-.24.42c0,.37.33.55,1,.55a1.45,1.45,0,0,0,.71-.14A.48.48,0,0,0,179.27,74ZM179,70a.81.81,0,0,0-.23-.6.7.7,0,0,0-.5-.23.66.66,0,0,0-.56.28.91.91,0,0,0-.21.57.86.86,0,0,0,.09.39.71.71,0,0,0,.25.29.64.64,0,0,0,.39.11.75.75,0,0,0,.55-.23A.81.81,0,0,0,179,70Z" />
      <path d="M185.36,71h-3.08a1.21,1.21,0,0,0,.44.75,1.23,1.23,0,0,0,.8.29,3.8,3.8,0,0,0,1.73-.5v1.09a5,5,0,0,1-.83.36,3.86,3.86,0,0,1-1.23.16,2.56,2.56,0,0,1-1.37-.34,2.18,2.18,0,0,1-.85-.93,3.25,3.25,0,0,1,0-2.64,2.11,2.11,0,0,1,.85-.9,2.65,2.65,0,0,1,1.37-.33,2.1,2.1,0,0,1,1,.26,2,2,0,0,1,.82.85,3.28,3.28,0,0,1,.32,1.53Zm-1.46-.86a1.35,1.35,0,0,0-.2-.77.7.7,0,0,0-.6-.28.76.76,0,0,0-.63.29,1.14,1.14,0,0,0-.24.76Z" />
    </g>
    <path d="M172.63,27.09a19.92,19.92,0,0,0-2.46.17l-.39-2.21a21.4,21.4,0,0,1,5.69,0l-.39,2.21A19.9,19.9,0,0,0,172.63,27.09Z" />
    <path d="M158.13,33.46,156.41,32a22.06,22.06,0,0,1,4.34-3.66l1.12,1.95A19.52,19.52,0,0,0,158.13,33.46Z" />
    <path d="M163.6,29.29l-1.13-1.94a21.89,21.89,0,0,1,5.34-2l.39,2.22A19.61,19.61,0,0,0,163.6,29.29Z" />
    <path d="M154.39,39.23l-2.1-.77a22.2,22.2,0,0,1,2.84-4.91L156.85,35A19.81,19.81,0,0,0,154.39,39.23Z" />
    <path d="M177.05,27.61l.39-2.22a21.67,21.67,0,0,1,5.33,2l-1.12,1.94A19.61,19.61,0,0,0,177.05,27.61Z" />
    <path d="M152.91,45.92h-2.26a22,22,0,0,1,1-5.58l2.11.77A19.6,19.6,0,0,0,152.91,45.92Z" />
    <path d="M153.77,52.72l-2.1.77a22.17,22.17,0,0,1-1-5.57h2.24A19.74,19.74,0,0,0,153.77,52.72Z" />
    <path d="M156.91,58.8l-1.71,1.44a22.06,22.06,0,0,1-2.84-4.88l2.1-.76A19.8,19.8,0,0,0,156.91,58.8Z" />
    <path d="M188.4,35l1.73-1.44A22.56,22.56,0,0,1,193,38.46l-2.1.77A19.88,19.88,0,0,0,188.4,35Z" />
    <path d="M191.53,41.11l2.11-.77a22,22,0,0,1,1,5.58h-2.26A19.6,19.6,0,0,0,191.53,41.11Z" />
    <path d="M192.35,47.92h2.24a22.17,22.17,0,0,1-1,5.57l-2.1-.77A19.74,19.74,0,0,0,192.35,47.92Z" />
    <path d="M190.79,54.6l2.1.76a21.68,21.68,0,0,1-2.84,4.88l-1.71-1.44A19.63,19.63,0,0,0,190.79,54.6Z" />
    <path d="M161.93,63.45l-1.12,1.93a21.79,21.79,0,0,1-4.31-3.62l1.71-1.43A20.39,20.39,0,0,0,161.93,63.45Z" />
    <path d="M187,60.33l1.72,1.43a22.5,22.5,0,0,1-4.32,3.62l-1.12-1.94A19.63,19.63,0,0,0,187,60.33Z" />
    <path d="M183.38,30.29l1.12-1.94A22.41,22.41,0,0,1,188.85,32l-1.73,1.45A19.94,19.94,0,0,0,183.38,30.29Z" />
    <g>
      <path d="M37.63,68H35.45v5.13H33.66V68H31.47V66.32h6.16Z" />
      <path d="M41.92,68.38l-.57,1.77a1,1,0,0,0-.72-.39.76.76,0,0,0-.56.26,2.46,2.46,0,0,0-.46.93v2.14H38.06v-5h1.55v1.21a2.48,2.48,0,0,1,.52-.87A1.1,1.1,0,0,1,41,68a1.26,1.26,0,0,1,.46.08A3.58,3.58,0,0,1,41.92,68.38Z" />
      <path d="M46.6,72.84a6.53,6.53,0,0,1-.63.24,2.31,2.31,0,0,1-.69.09.73.73,0,0,1-.53-.15.87.87,0,0,1-.22-.37A2,2,0,0,1,44,73a1.84,1.84,0,0,1-.8.15,1.44,1.44,0,0,1-.77-.18,1.07,1.07,0,0,1-.42-.48,1.71,1.71,0,0,1-.11-.59,1.31,1.31,0,0,1,.2-.76,1.63,1.63,0,0,1,.55-.49,6.48,6.48,0,0,1,.91-.39L44,70.1l.24-.1.18-.08a1.14,1.14,0,0,0-.13-.57.63.63,0,0,0-.56-.21,1.82,1.82,0,0,0-.94.26,3.51,3.51,0,0,0-.8.65V68.71a2.69,2.69,0,0,1,.62-.39,3.44,3.44,0,0,1,.71-.22,3.54,3.54,0,0,1,.73-.07,2.16,2.16,0,0,1,1.43.41A1.46,1.46,0,0,1,46,69.59v1.92a1.33,1.33,0,0,0,0,.41c0,.09.08.14.16.14a.87.87,0,0,0,.4-.15Zm-2.15-1V70.71a4.5,4.5,0,0,0-.81.45.67.67,0,0,0-.25.55.49.49,0,0,0,.13.38.38.38,0,0,0,.29.14.6.6,0,0,0,.31-.1A2.39,2.39,0,0,0,44.45,71.88Z" />
      <path d="M50.48,72.86l-.41.15a2.8,2.8,0,0,1-.48.12,3.65,3.65,0,0,1-.59,0,2.49,2.49,0,0,1-1.21-.27,2.18,2.18,0,0,1-.77-.7,2.65,2.65,0,0,1-.37-.85,3,3,0,0,1,0-1.53A2.6,2.6,0,0,1,47,69a2,2,0,0,1,.76-.68A2.53,2.53,0,0,1,49,68a3.44,3.44,0,0,1,.79.07l.62.21V69.7a3.59,3.59,0,0,0-1.18-.28,1.05,1.05,0,0,0-.73.29,1.09,1.09,0,0,0-.32.88,1.34,1.34,0,0,0,.15.66,1,1,0,0,0,.41.4,1.09,1.09,0,0,0,.49.13,2.27,2.27,0,0,0,.53-.08c.19,0,.43-.13.72-.23Z" />
      <path d="M56.08,73.09h-2l-1.68-2.36v2.36H50.87V66.32h1.56v4L54,68.11h1.85l-1.71,2.32Z" />
    </g>
    <g>
      <path d="M43.62,27.09a19.9,19.9,0,0,0-2.45.17l-.39-2.21a21.4,21.4,0,0,1,5.69,0l-.39,2.21A19.92,19.92,0,0,0,43.62,27.09Z" />
      <path d="M29.13,33.46,27.41,32a22.06,22.06,0,0,1,4.34-3.66l1.12,1.95A19.52,19.52,0,0,0,29.13,33.46Z" />
      <path d="M34.6,29.29l-1.13-1.94a21.89,21.89,0,0,1,5.34-2l.39,2.22A19.61,19.61,0,0,0,34.6,29.29Z" />
      <path d="M25.39,39.23l-2.1-.77a22.56,22.56,0,0,1,2.83-4.91L27.85,35A19.81,19.81,0,0,0,25.39,39.23Z" />
      <path d="M48.05,27.61l.39-2.22a21.67,21.67,0,0,1,5.33,2l-1.12,1.94A19.61,19.61,0,0,0,48.05,27.61Z" />
      <path d="M23.91,45.92H21.65a22,22,0,0,1,1-5.58l2.11.77A19.6,19.6,0,0,0,23.91,45.92Z" />
      <path d="M24.77,52.72l-2.1.77a22.17,22.17,0,0,1-1-5.57H23.9A19.74,19.74,0,0,0,24.77,52.72Z" />
      <path d="M27.91,58.8,26.2,60.24a22.06,22.06,0,0,1-2.84-4.88l2.1-.76A19.8,19.8,0,0,0,27.91,58.8Z" />
      <path d="M59.4,35l1.73-1.44A22.56,22.56,0,0,1,64,38.46l-2.1.77A19.88,19.88,0,0,0,59.4,35Z" />
      <path d="M62.53,41.11l2.11-.77a22,22,0,0,1,1,5.58H63.34A19.6,19.6,0,0,0,62.53,41.11Z" />
      <path d="M63.35,47.92h2.24a22.17,22.17,0,0,1-1,5.57l-2.1-.77A19.74,19.74,0,0,0,63.35,47.92Z" />
      <path d="M61.79,54.6l2.1.76a21.68,21.68,0,0,1-2.84,4.88L59.34,58.8A19.63,19.63,0,0,0,61.79,54.6Z" />
      <path d="M32.93,63.45l-1.12,1.93a21.79,21.79,0,0,1-4.31-3.62l1.71-1.43A20.39,20.39,0,0,0,32.93,63.45Z" />
      <path d="M58,60.33l1.72,1.43a22.5,22.5,0,0,1-4.32,3.62l-1.12-1.94A19.63,19.63,0,0,0,58,60.33Z" />
      <path d="M54.38,30.29l1.12-1.94A22.41,22.41,0,0,1,59.85,32l-1.73,1.45A19.94,19.94,0,0,0,54.38,30.29Z" />
    </g>
    <g>
      <path d="M113.74,8.07l-5.53,7v-6a1.29,1.29,0,0,0-.64-1.17.89.89,0,0,0-1.13.29l-7.28,9.25a1.49,1.49,0,0,0,0,1.79.91.91,0,0,0,1.46,0l5.5-7v6a1.29,1.29,0,0,0,.64,1.17.91.91,0,0,0,1.14-.3l5.53-7v6.16a1.05,1.05,0,1,0,2.06,0V9a1.29,1.29,0,0,0-.65-1.18A.91.91,0,0,0,113.74,8.07Z" style="stroke: #000;stroke-width: 0.6000000000000001px" />
      <path d="M99.16,8l-4.81,6.12a1.47,1.47,0,0,0,0,1.79.9.9,0,0,0,1.46,0l3-3.87v6.31a1.05,1.05,0,1,0,2.06,0V8.87a1.29,1.29,0,0,0-.65-1.17A.91.91,0,0,0,99.16,8Z" style="stroke: #000;stroke-width: 0.6000000000000001px" />
      <path d="M122.11,12.52a1,1,0,0,0-1-.78h-2.1l1.53-2s.8-1.17.1-1.82a1.27,1.27,0,0,0-1.58.06l-3.23,4.1a1.47,1.47,0,0,0-.2,1.38,1.05,1.05,0,0,0,.95.77h2.1l-2.49,3.17s-1,1.13-.27,1.89,1.75-.14,1.75-.14l4.18-5.31A1.48,1.48,0,0,0,122.11,12.52Z" style="stroke: #000;stroke-width: 0.6000000000000001px" />
    </g>
  </g>
  <g /></svg>