<svg xmlns="http://www.w3.org/2000/svg" width="20.55mm" height="130.6mm" viewBox="0 0 58.24 370.19">
  <defs>
    <clipPath id="clip-path">
      <rect x="15.02" y="33.46" width="27.8" height="25.62" style="fill: none" />
    </clipPath>
    <clipPath id="clip-path-2">
      <rect x="15.02" y="33.46" width="27.8" height="25.62" style="fill: none" />
    </clipPath>
    <clipPath id="clip-path-3">
      <rect x="15.02" y="81.27" width="27.8" height="25.62" style="fill: none" />
    </clipPath>
    <clipPath id="clip-path-5">
      <rect x="15.2" y="129.46" width="27.8" height="25.62" style="fill: none" />
    </clipPath>
  </defs>
  <g id="faceplate">
    <rect x="0.13" y="0.13" width="57.6" height="364.25" style="fill: #ededed;stroke: #9d9d9e;stroke-miterlimit: 10;stroke-width: 0.25px" />
    <g>
      <path d="M24,357.6H21.7l-2.33-3.48v3.48H17.53v-7.44h1.84v3.33l2.21-3.33h2l-2.27,3.48Z" />
      <path d="M30,352.5a2.73,2.73,0,0,1-.11.81,2.32,2.32,0,0,1-.38.73,1.87,1.87,0,0,1-.7.56,2.41,2.41,0,0,1-1,.21H26.59v2.79H24.75v-7.44H27.8a2.41,2.41,0,0,1,1,.21,2,2,0,0,1,.7.56,2.41,2.41,0,0,1,.38.75A2.85,2.85,0,0,1,30,352.5Zm-1.87,0a.88.88,0,0,0-.26-.73,1.6,1.6,0,0,0-.92-.19h-.39v1.79H27a2.55,2.55,0,0,0,.7-.07.55.55,0,0,0,.36-.26A1.09,1.09,0,0,0,28.16,352.51Z" />
      <path d="M35.7,357.6H31.06v-7.44H32.9v5.66h2.8Z" />
      <path d="M41,355.44a2.36,2.36,0,0,1-.29,1.21,2,2,0,0,1-.82.78,2.59,2.59,0,0,1-1.2.27l-.46,0a5.24,5.24,0,0,1-.73-.16,5.37,5.37,0,0,1-1-.4v-1.83a5.76,5.76,0,0,0,.91.58,1.94,1.94,0,0,0,.95.23c.32,0,.52-.06.61-.19a.54.54,0,0,0,.14-.35A.64.64,0,0,0,39,355a2.86,2.86,0,0,0-.69-.43,5.32,5.32,0,0,1-.88-.56,2.44,2.44,0,0,1-.62-.76,2.27,2.27,0,0,1-.24-1.08,2.33,2.33,0,0,1,.25-1.09,1.8,1.8,0,0,1,.73-.77,2.35,2.35,0,0,1,1.22-.29,3.58,3.58,0,0,1,1,.12,3.78,3.78,0,0,1,.71.27,3.65,3.65,0,0,1,.39.23v1.75a5.24,5.24,0,0,0-.84-.59,2,2,0,0,0-1-.25.65.65,0,0,0-.5.16.57.57,0,0,0-.15.4.55.55,0,0,0,.15.38,3.37,3.37,0,0,0,.55.39,11.5,11.5,0,0,1,1.13.72,2.59,2.59,0,0,1,.66.75A2.09,2.09,0,0,1,41,355.44Z" />
    </g>
    <path d="M28.63,198.52c8,0,14.54,6.09,14.54,13.58V321.9c0,7.49-6.52,13.58-14.54,13.58s-14.54-6.09-14.54-13.58V212.1c0-7.49,6.53-13.58,14.54-13.58m0-1.05C20,197.47,13,204,13,212.1V321.9c0,8.08,7,14.63,15.59,14.63S44.22,330,44.22,321.9V212.1c0-8.08-7-14.63-15.59-14.63Z" style="fill: #231f20" />
    <g>
      <path d="M23.63,234l-2.15,5.49h-.95L18.42,234h1.5L21,237.08,22.13,234Z" />
      <path d="M27,233.88l-2.59,5.56h-.92l2.59-5.56Z" />
      <path d="M32.54,236.66a3.08,3.08,0,0,1-.31,1.39,2.4,2.4,0,0,1-.91,1,2.79,2.79,0,0,1-1.49.38,2.71,2.71,0,0,1-1.49-.39,2.44,2.44,0,0,1-.91-1,3.26,3.26,0,0,1,0-2.73,2.35,2.35,0,0,1,.91-1,2.71,2.71,0,0,1,1.49-.39,2.92,2.92,0,0,1,1.18.22,2.24,2.24,0,0,1,.85.61,2.64,2.64,0,0,1,.51.88A3.43,3.43,0,0,1,32.54,236.66Zm-1.47,0a1.65,1.65,0,0,0-.08-.56,1.32,1.32,0,0,0-.23-.44,1.24,1.24,0,0,0-.39-.29,1.33,1.33,0,0,0-.54-.1,1.14,1.14,0,0,0-.9.38,1.5,1.5,0,0,0-.33,1,1.47,1.47,0,0,0,.33,1,1.12,1.12,0,0,0,.9.39,1.23,1.23,0,0,0,.68-.18,1.19,1.19,0,0,0,.42-.49A1.65,1.65,0,0,0,31.07,236.66Z" />
      <path d="M36,239.18l-.33.13a3.23,3.23,0,0,1-.39.09,3.3,3.3,0,0,1-.47,0,2.07,2.07,0,0,1-1-.22,1.74,1.74,0,0,1-.61-.56,2.4,2.4,0,0,1-.3-.68,3,3,0,0,1-.08-.61,3.1,3.1,0,0,1,.08-.62,2.34,2.34,0,0,1,.3-.67,1.66,1.66,0,0,1,.6-.54,2,2,0,0,1,1-.22,2.84,2.84,0,0,1,.64.06,3.58,3.58,0,0,1,.49.17v1.11a2.9,2.9,0,0,0-.94-.22.87.87,0,0,0-.59.22.91.91,0,0,0-.26.71,1.06,1.06,0,0,0,.13.53.81.81,0,0,0,.72.42,1.76,1.76,0,0,0,.42-.06l.58-.18Z" />
      <path d="M39,239.14a3.14,3.14,0,0,1-.54.2,2.5,2.5,0,0,1-.64.1c-.9,0-1.34-.5-1.34-1.49v-1.58H36v-.25l1.66-1.92h.14v1.19h1.18v1H37.75v1.27a3.21,3.21,0,0,0,0,.36.43.43,0,0,0,.14.23.55.55,0,0,0,.34.09A1.68,1.68,0,0,0,39,238Z" />
    </g>
    <g>
      <path d="M26.75,284.14H25v4.1H23.57v-4.1H21.83v-1.32h4.92Z" />
      <path d="M30.18,284.47l-.46,1.41a.77.77,0,0,0-.57-.3.62.62,0,0,0-.45.2,1.94,1.94,0,0,0-.36.74v1.72H27.1v-4h1.24v1a1.78,1.78,0,0,1,.41-.69.89.89,0,0,1,.69-.34.87.87,0,0,1,.37.07A4,4,0,0,1,30.18,284.47Z" />
      <path d="M31.6,288.24H30.36v-4H31.6Zm-.1-4.9a.6.6,0,0,1-.16.42.48.48,0,0,1-.36.17.43.43,0,0,1-.27-.08.46.46,0,0,1-.18-.21.6.6,0,0,1-.07-.3.64.64,0,0,1,.15-.42.48.48,0,0,1,.37-.17.48.48,0,0,1,.36.17A.6.6,0,0,1,31.5,283.34Z" />
      <path d="M35.69,285.11h-.61a1.06,1.06,0,0,1,.32.78,1.23,1.23,0,0,1-.09.47,1.13,1.13,0,0,1-.27.41,1.38,1.38,0,0,1-.44.28,1.76,1.76,0,0,1-.59.14c-.28,0-.43.1-.43.26a.17.17,0,0,0,.06.14.3.3,0,0,0,.17.06,3.81,3.81,0,0,0,.4.05,3.75,3.75,0,0,1,.6.11,1.12,1.12,0,0,1,.51.33,1,1,0,0,1,.24.71,1.21,1.21,0,0,1-.18.66,1.13,1.13,0,0,1-.57.44,2.83,2.83,0,0,1-1.05.16,2.57,2.57,0,0,1-1.37-.28.87.87,0,0,1-.44-.76.89.89,0,0,1,.06-.3.63.63,0,0,1,.24-.32,1,1,0,0,1,.53-.21.5.5,0,0,1-.21-.2.59.59,0,0,1-.09-.31.81.81,0,0,1,.12-.41.63.63,0,0,1,.41-.26,1.43,1.43,0,0,1-.68-.44,1.24,1.24,0,0,1-.28-.84,1.67,1.67,0,0,1,.13-.69,1.23,1.23,0,0,1,.37-.47,1.52,1.52,0,0,1,.54-.27,2.43,2.43,0,0,1,.68-.09h1.92ZM34.57,289a.32.32,0,0,0-.25-.34,1.69,1.69,0,0,0-.5-.08,1.31,1.31,0,0,0-.62.11.35.35,0,0,0-.2.33c0,.29.27.44.8.44a1.27,1.27,0,0,0,.56-.11A.38.38,0,0,0,34.57,289Zm-.25-3.2a.65.65,0,0,0-.18-.48.53.53,0,0,0-.4-.19.55.55,0,0,0-.45.22.77.77,0,0,0-.17.46.69.69,0,0,0,.08.32.6.6,0,0,0,.19.23.54.54,0,0,0,.31.09.62.62,0,0,0,.45-.19A.69.69,0,0,0,34.32,285.78Z" />
    </g>
    <g id="pips_-_fewest" data-name="pips - fewest">
      <g style="clip-path: url(#clip-path)">
        <g style="clip-path: url(#clip-path-2)">
          <path d="M34.62,36.24,35.33,35a13.72,13.72,0,0,0-5.77-1.55v1.43a12.39,12.39,0,0,1,5.06,1.35" />
          <path d="M39.41,40.58l1.24-.72a14.07,14.07,0,0,0-4.23-4.22l-.71,1.23a12.58,12.58,0,0,1,3.7,3.71" />
          <path d="M22.14,36.87l-.71-1.23a14.07,14.07,0,0,0-4.23,4.22l1.24.72a12.58,12.58,0,0,1,3.7-3.71" />
          <path d="M41.4,46.73h1.43A13.87,13.87,0,0,0,41.28,41l-1.23.71a12.51,12.51,0,0,1,1.35,5.06" />
          <path d="M28.29,34.89V33.46A13.72,13.72,0,0,0,22.52,35l.71,1.23a12.39,12.39,0,0,1,5.06-1.35" />
          <path d="M18.44,54.15l-1.24.71a14,14,0,0,0,4.23,4.23l.71-1.24a12.55,12.55,0,0,1-3.7-3.7" />
          <path d="M35.71,57.85l.71,1.23a13.85,13.85,0,0,0,4.23-4.22l-1.24-.71a12.55,12.55,0,0,1-3.7,3.7" />
          <path d="M41.4,48a12.46,12.46,0,0,1-1.35,5l1.23.72A13.91,13.91,0,0,0,42.83,48Z" />
          <path d="M16.45,48H15a13.91,13.91,0,0,0,1.55,5.77l1.23-.72a12.46,12.46,0,0,1-1.35-5" />
          <path d="M17.8,41.67,16.57,41A13.87,13.87,0,0,0,15,46.73h1.43a12.51,12.51,0,0,1,1.35-5.06" />
        </g>
      </g>
    </g>
    <g>
      <path d="M24.14,65.42a2.34,2.34,0,0,1-.12.74,2.08,2.08,0,0,1-.36.67,1.92,1.92,0,0,1-.69.5,2.48,2.48,0,0,1-1,.19H20.78v2.54H19V63.3h3a2.48,2.48,0,0,1,1,.19,1.83,1.83,0,0,1,.69.51,2,2,0,0,1,.36.68A2.34,2.34,0,0,1,24.14,65.42Zm-1.83,0a.78.78,0,0,0-.25-.66,1.64,1.64,0,0,0-.9-.18h-.38v1.64h.38a2.92,2.92,0,0,0,.69-.07.56.56,0,0,0,.35-.23A1,1,0,0,0,22.31,65.43Z" />
      <path d="M26.16,70.06H24.61v-5h1.55ZM26,63.94a.77.77,0,0,1-.19.53.6.6,0,0,1-.46.21.56.56,0,0,1-.33-.1.58.58,0,0,1-.23-.26.79.79,0,0,1-.09-.38.76.76,0,0,1,.19-.52.59.59,0,0,1,.92,0A.76.76,0,0,1,26,63.94Z" />
      <path d="M30.32,69.77a3.12,3.12,0,0,1-.66.26,3.06,3.06,0,0,1-.81.12c-1.12,0-1.67-.62-1.67-1.85v-2h-.71V66l2.08-2.41h.18v1.49H30.2v1.22H28.73V67.9a2.64,2.64,0,0,0,0,.45.44.44,0,0,0,.17.29.62.62,0,0,0,.42.11,2,2,0,0,0,1-.35Z" />
      <path d="M34.4,69.83,34,70c-.15,0-.31.08-.49.11a2.67,2.67,0,0,1-.58.05,2.53,2.53,0,0,1-1.22-.27,2.15,2.15,0,0,1-.76-.7,2.75,2.75,0,0,1-.37-.85,3.39,3.39,0,0,1-.11-.77,3.31,3.31,0,0,1,.11-.76,2.6,2.6,0,0,1,.37-.84,2,2,0,0,1,.75-.68A2.57,2.57,0,0,1,32.92,65a3.43,3.43,0,0,1,.79.08,4.12,4.12,0,0,1,.62.21v1.38a3.84,3.84,0,0,0-1.19-.27,1.11,1.11,0,0,0-.73.28,1.14,1.14,0,0,0-.32.88,1.26,1.26,0,0,0,.16.67,1,1,0,0,0,.41.4,1.07,1.07,0,0,0,.48.12,2.09,2.09,0,0,0,.53-.07l.73-.23Z" />
      <path d="M39.47,70.06H37.92V67.31a1.57,1.57,0,0,0-.13-.65.51.51,0,0,0-.51-.3.74.74,0,0,0-.51.22,3.29,3.29,0,0,0-.43.56v2.92H34.79V63.3h1.55v2.51a2.37,2.37,0,0,1,.76-.64,1.93,1.93,0,0,1,.79-.17c1,0,1.58.67,1.58,2Z" />
    </g>
    <g id="pips_-_fewest-2" data-name="pips - fewest">
      <g style="clip-path: url(#clip-path-3)">
        <g style="clip-path: url(#clip-path-3)">
          <path d="M34.62,84.05l.71-1.24a13.86,13.86,0,0,0-5.77-1.54V82.7a12.39,12.39,0,0,1,5.06,1.35" />
          <path d="M39.41,88.38l1.24-.71a14,14,0,0,0-4.23-4.22l-.71,1.23a12.55,12.55,0,0,1,3.7,3.7" />
          <path d="M22.14,84.68l-.71-1.23a14,14,0,0,0-4.23,4.22l1.24.71a12.55,12.55,0,0,1,3.7-3.7" />
          <path d="M41.4,94.54h1.43a13.83,13.83,0,0,0-1.55-5.77l-1.23.71a12.47,12.47,0,0,1,1.35,5.06" />
          <path d="M28.29,82.7V81.27a13.86,13.86,0,0,0-5.77,1.54l.71,1.24a12.39,12.39,0,0,1,5.06-1.35" />
          <path d="M18.44,102l-1.24.71a14,14,0,0,0,4.23,4.22l.71-1.23a12.55,12.55,0,0,1-3.7-3.7" />
          <path d="M35.71,105.66l.71,1.23a14,14,0,0,0,4.23-4.22L39.41,102a12.55,12.55,0,0,1-3.7,3.7" />
          <path d="M41.4,95.8a12.47,12.47,0,0,1-1.35,5.06l1.23.71a13.83,13.83,0,0,0,1.55-5.77Z" />
          <path d="M16.45,95.8H15a13.83,13.83,0,0,0,1.55,5.77l1.23-.71a12.47,12.47,0,0,1-1.35-5.06" />
          <path d="M17.8,89.48l-1.23-.71A13.83,13.83,0,0,0,15,94.54h1.43a12.47,12.47,0,0,1,1.35-5.06" />
        </g>
      </g>
    </g>
    <g>
      <path d="M22.93,115.48a3.62,3.62,0,0,1-.33,1.67,3.44,3.44,0,0,1-.78,1,2.62,2.62,0,0,1-1.79.57H16.81V112h2.48a5.19,5.19,0,0,1,.95.07,3.44,3.44,0,0,1,.72.18,2.72,2.72,0,0,1,.54.27,3.3,3.3,0,0,1,.4.32,3,3,0,0,1,.53.67,3.26,3.26,0,0,1,.37.89A4.33,4.33,0,0,1,22.93,115.48Zm-1.82-.09a2.47,2.47,0,0,0-.28-1.29,1.41,1.41,0,0,0-.67-.62,2.13,2.13,0,0,0-.79-.15h-.76v4h.76a2,2,0,0,0,1.22-.38A1.87,1.87,0,0,0,21.11,115.39Z" />
      <path d="M27.92,116.68H24.84a1.27,1.27,0,0,0,1.24,1,3.8,3.8,0,0,0,1.73-.5v1.09a4.9,4.9,0,0,1-.82.36,3.83,3.83,0,0,1-1.23.17,2.62,2.62,0,0,1-1.38-.35,2.1,2.1,0,0,1-.85-.92,3.16,3.16,0,0,1-.28-1.33,3,3,0,0,1,.28-1.31,2.08,2.08,0,0,1,.85-.91,2.71,2.71,0,0,1,1.38-.33,2.25,2.25,0,0,1,1,.26,2,2,0,0,1,.81.85,3.17,3.17,0,0,1,.32,1.54Zm-1.45-.87a1.28,1.28,0,0,0-.21-.77.7.7,0,0,0-.6-.28.74.74,0,0,0-.62.29,1.15,1.15,0,0,0-.24.76Z" />
      <path d="M32.08,118.51l-.41.15a3.06,3.06,0,0,1-.48.12,3.61,3.61,0,0,1-.59,0,2.49,2.49,0,0,1-1.21-.28,2.16,2.16,0,0,1-.77-.69,2.8,2.8,0,0,1-.37-.86,3.24,3.24,0,0,1-.1-.76,3.32,3.32,0,0,1,.1-.77,2.6,2.6,0,0,1,.37-.84,2,2,0,0,1,.76-.68,2.53,2.53,0,0,1,1.22-.27,2.91,2.91,0,0,1,.79.08A4.12,4.12,0,0,1,32,114v1.38a3.85,3.85,0,0,0-1.18-.27,1.09,1.09,0,0,0-.74.28,1.12,1.12,0,0,0-.31.88,1.34,1.34,0,0,0,.15.66,1,1,0,0,0,.41.4,1,1,0,0,0,.49.13,2.27,2.27,0,0,0,.53-.08l.72-.22Z" />
      <path d="M37,118.49a6.53,6.53,0,0,1-.63.24,2.29,2.29,0,0,1-.69.1.76.76,0,0,1-.54-.16.85.85,0,0,1-.21-.37,2.4,2.4,0,0,1-.56.38,1.79,1.79,0,0,1-.79.15,1.5,1.5,0,0,1-.78-.19,1.11,1.11,0,0,1-.41-.48,1.47,1.47,0,0,1-.12-.58,1.29,1.29,0,0,1,.21-.76,1.46,1.46,0,0,1,.55-.49,5.9,5.9,0,0,1,.91-.4l.48-.18.25-.09.17-.09a1,1,0,0,0-.13-.57c-.08-.13-.27-.2-.55-.2a1.85,1.85,0,0,0-1,.25,3.47,3.47,0,0,0-.79.66v-1.35a2.69,2.69,0,0,1,.62-.39,4.37,4.37,0,0,1,.7-.22,3.71,3.71,0,0,1,.74-.07,2.12,2.12,0,0,1,1.43.42,1.43,1.43,0,0,1,.48,1.15v1.92a1.36,1.36,0,0,0,0,.4c0,.09.09.14.17.14a1,1,0,0,0,.4-.14Zm-2.16-.95v-1.18a4.06,4.06,0,0,0-.8.46.64.64,0,0,0-.25.55.56.56,0,0,0,.12.38.43.43,0,0,0,.3.13.63.63,0,0,0,.31-.1A3.33,3.33,0,0,0,34.86,117.54Z" />
      <path d="M41.84,113.77l-3,7.23H37.3l1.2-2.91-1.73-4.32h1.66l.89,2.47,1-2.47Z" />
    </g>
    <path d="M44.22,308.46c0-8.08-7-14.63-15.59-14.63S13,300.38,13,308.46v8.11h0v19.84a5.68,5.68,0,0,0,5.67,5.67H38.55a5.68,5.68,0,0,0,5.67-5.67V316.57h0Z" />
    <g>
      <path d="M27.86,334.39a3.26,3.26,0,0,1-.3,1.4,2.42,2.42,0,0,1-.92,1,3.11,3.11,0,0,1-3,0,2.39,2.39,0,0,1-.9-1,3.19,3.19,0,0,1-.3-1.37,3.29,3.29,0,0,1,.29-1.36,2.38,2.38,0,0,1,.91-1,2.83,2.83,0,0,1,1.5-.38,3,3,0,0,1,1.18.22,2.42,2.42,0,0,1,.85.6,2.6,2.6,0,0,1,.5.89A3.14,3.14,0,0,1,27.86,334.39Zm-1.46,0a1.87,1.87,0,0,0-.08-.55,1.11,1.11,0,0,0-.24-.44,1.05,1.05,0,0,0-.39-.29,1.25,1.25,0,0,0-.53-.1,1.12,1.12,0,0,0-.91.38,1.47,1.47,0,0,0-.33,1,1.5,1.5,0,0,0,.33,1,1.14,1.14,0,0,0,.91.38,1.28,1.28,0,0,0,.67-.17,1.17,1.17,0,0,0,.43-.5A1.81,1.81,0,0,0,26.4,334.39Z" style="fill: #fff" />
      <path d="M32,337.1H30.72v-.56a2,2,0,0,1-.55.48,1.47,1.47,0,0,1-.69.15,1,1,0,0,1-1-.52,2.84,2.84,0,0,1-.24-1.19v-2.33h1.24v2.15a1.4,1.4,0,0,0,.1.56.39.39,0,0,0,.41.25.55.55,0,0,0,.43-.18,2.64,2.64,0,0,0,.32-.45v-2.33H32Z" style="fill: #fff" />
      <path d="M35.23,336.87a2.9,2.9,0,0,1-.53.21,2.48,2.48,0,0,1-.65.09c-.89,0-1.33-.49-1.33-1.48V334.1h-.56v-.24l1.66-1.92H34v1.19h1.18v1H34v1.28a1.84,1.84,0,0,0,0,.36.35.35,0,0,0,.14.22.46.46,0,0,0,.34.1,1.77,1.77,0,0,0,.77-.28Z" style="fill: #fff" />
    </g>
    <g id="pips_-_fewest-3" data-name="pips - fewest">
      <g style="clip-path: url(#clip-path-5)">
        <g style="clip-path: url(#clip-path-5)">
          <path d="M34.79,132.24,35.5,131a13.68,13.68,0,0,0-5.77-1.55v1.43a12.31,12.31,0,0,1,5.06,1.35" />
          <path d="M39.59,136.58l1.23-.71a13.85,13.85,0,0,0-4.22-4.23l-.71,1.23a12.7,12.7,0,0,1,3.7,3.71" />
          <path d="M22.32,132.87l-.72-1.23a14.15,14.15,0,0,0-4.22,4.22l1.23.72a12.62,12.62,0,0,1,3.71-3.71" />
          <path d="M41.58,142.73H43A13.86,13.86,0,0,0,41.46,137l-1.24.71a12.52,12.52,0,0,1,1.36,5.06" />
          <path d="M28.47,130.89v-1.43A13.68,13.68,0,0,0,22.7,131l.71,1.23a12.31,12.31,0,0,1,5.06-1.35" />
          <path d="M18.61,150.15l-1.23.71a14.07,14.07,0,0,0,4.22,4.23l.72-1.24a12.58,12.58,0,0,1-3.71-3.7" />
          <path d="M35.89,153.85l.71,1.24a14,14,0,0,0,4.22-4.23l-1.23-.71a12.55,12.55,0,0,1-3.7,3.7" />
          <path d="M41.58,144a12.47,12.47,0,0,1-1.36,5.05l1.24.72A13.86,13.86,0,0,0,43,144Z" />
          <path d="M16.63,144H15.2a13.72,13.72,0,0,0,1.55,5.77l1.23-.72A12.31,12.31,0,0,1,16.63,144" />
          <path d="M18,137.67,16.75,137a13.72,13.72,0,0,0-1.55,5.77h1.43A12.35,12.35,0,0,1,18,137.67" />
        </g>
      </g>
    </g>
    <g>
      <path d="M19.29,165a2,2,0,0,1-.29,1.1,1.81,1.81,0,0,1-.79.71A2.65,2.65,0,0,1,17,167l-.45,0a4.81,4.81,0,0,1-.71-.15,4.93,4.93,0,0,1-.93-.36v-1.66a6.5,6.5,0,0,0,.89.53,2.11,2.11,0,0,0,.93.21.78.78,0,0,0,.6-.17.56.56,0,0,0,.13-.33.55.55,0,0,0-.23-.46,2.82,2.82,0,0,0-.67-.39,5.28,5.28,0,0,1-.86-.51,2.14,2.14,0,0,1-.61-.69,2,2,0,0,1-.23-1,2.13,2.13,0,0,1,.23-1,1.79,1.79,0,0,1,.73-.71,2.51,2.51,0,0,1,1.18-.26,3.8,3.8,0,0,1,.92.11,3.28,3.28,0,0,1,.7.25,2.61,2.61,0,0,1,.38.21v1.59a4.19,4.19,0,0,0-.81-.53,2,2,0,0,0-1-.24.67.67,0,0,0-.49.15.49.49,0,0,0-.15.36.49.49,0,0,0,.15.35,3,3,0,0,0,.54.35c.46.25.82.47,1.1.66a2.28,2.28,0,0,1,.64.68A1.74,1.74,0,0,1,19.29,165Z" />
      <path d="M24.71,164.41a3.42,3.42,0,0,1-.13,1,2.67,2.67,0,0,1-.38.84,1.79,1.79,0,0,1-.66.59,1.83,1.83,0,0,1-.93.22,2,2,0,0,1-.68-.1,2.45,2.45,0,0,1-.49-.28v2.55H19.89V162h1.55v.45A2.6,2.6,0,0,1,22,162a1.55,1.55,0,0,1,.77-.16,1.78,1.78,0,0,1,.93.27,2,2,0,0,1,.76.84A3.06,3.06,0,0,1,24.71,164.41Zm-1.63,0a1.7,1.7,0,0,0-.13-.73.83.83,0,0,0-.32-.4.71.71,0,0,0-.41-.13.88.88,0,0,0-.45.1,1.59,1.59,0,0,0-.33.25v1.9l.18.11.18.11.2.07a.78.78,0,0,0,.22,0,.72.72,0,0,0,.61-.35A1.63,1.63,0,0,0,23.08,164.45Z" />
      <path d="M29,162.23,28.43,164a1,1,0,0,0-.71-.38.72.72,0,0,0-.56.25,2.48,2.48,0,0,0-.46.93v2.14H25.15v-5H26.7v1.2a2.54,2.54,0,0,1,.51-.87,1.14,1.14,0,0,1,.87-.42,1.08,1.08,0,0,1,.46.09A3.55,3.55,0,0,1,29,162.23Z" />
      <path d="M33.63,164.87H30.55a1.27,1.27,0,0,0,1.24,1,3.8,3.8,0,0,0,1.73-.5v1.09a4.87,4.87,0,0,1-.82.37,4.17,4.17,0,0,1-1.23.16,2.71,2.71,0,0,1-1.38-.34,2.18,2.18,0,0,1-.85-.93,3.13,3.13,0,0,1-.28-1.33,3.07,3.07,0,0,1,.28-1.31,2.08,2.08,0,0,1,.85-.91,2.71,2.71,0,0,1,1.38-.33,2.28,2.28,0,0,1,1,.26,2,2,0,0,1,.81.86,3.1,3.1,0,0,1,.32,1.53ZM32.18,164a1.25,1.25,0,0,0-.21-.76.7.7,0,0,0-.6-.29.77.77,0,0,0-.62.29,1.17,1.17,0,0,0-.24.76Z" />
      <path d="M38.58,166.68l-.63.25a2.31,2.31,0,0,1-.69.09.69.69,0,0,1-.53-.16.81.81,0,0,1-.22-.37,2.34,2.34,0,0,1-.55.38,1.84,1.84,0,0,1-.8.15,1.35,1.35,0,0,1-.77-.19,1,1,0,0,1-.42-.47,1.71,1.71,0,0,1-.11-.59,1.29,1.29,0,0,1,.2-.76,1.63,1.63,0,0,1,.55-.49,6.37,6.37,0,0,1,.91-.4l.49-.18.24-.09a.76.76,0,0,0,.18-.09,1.08,1.08,0,0,0-.13-.56c-.09-.14-.27-.21-.56-.21a1.81,1.81,0,0,0-.94.25,3.31,3.31,0,0,0-.8.66v-1.35a2.52,2.52,0,0,1,.63-.38,2.72,2.72,0,0,1,.7-.22,3.65,3.65,0,0,1,.74-.08,2.09,2.09,0,0,1,1.42.42,1.44,1.44,0,0,1,.48,1.15v1.92a1.37,1.37,0,0,0,.05.41.16.16,0,0,0,.16.13,1,1,0,0,0,.4-.14Zm-2.15-1v-1.18a3.9,3.9,0,0,0-.81.46.66.66,0,0,0-.25.55.52.52,0,0,0,.13.38.37.37,0,0,0,.29.13.57.57,0,0,0,.32-.1Z" />
      <path d="M43.34,166.93H41.79v-.45a2.62,2.62,0,0,1-.52.39,1.56,1.56,0,0,1-.75.15,1.85,1.85,0,0,1-.94-.27,2,2,0,0,1-.76-.84,3.16,3.16,0,0,1-.29-1.43,3.53,3.53,0,0,1,.22-1.27,2.16,2.16,0,0,1,.7-1,1.9,1.9,0,0,1,1.17-.37,1.94,1.94,0,0,1,.7.11,2,2,0,0,1,.47.27v-2.09h1.55Zm-1.55-1.58v-1.9a2.94,2.94,0,0,0-.43-.24.78.78,0,0,0-.35-.08.72.72,0,0,0-.61.35,1.71,1.71,0,0,0-.24,1,1.47,1.47,0,0,0,.25,1,.77.77,0,0,0,.6.3.88.88,0,0,0,.45-.1A2.39,2.39,0,0,0,41.79,165.35Z" />
    </g>
    <g>
      <path d="M34.54,6.76l-5.53,7v-6a1.27,1.27,0,0,0-.64-1.17.89.89,0,0,0-1.13.29L20,16.13a1.49,1.49,0,0,0,0,1.79.9.9,0,0,0,1.46,0l5.5-7v6a1.29,1.29,0,0,0,.64,1.18.92.92,0,0,0,1.14-.3l5.53-7v6.15a1.05,1.05,0,1,0,2.06,0V7.64a1.28,1.28,0,0,0-.65-1.18A.91.91,0,0,0,34.54,6.76Z" style="stroke: #000;stroke-width: 0.6000000000000001px" />
      <path d="M20,6.68l-4.81,6.13a1.47,1.47,0,0,0,0,1.79.9.9,0,0,0,1.46,0l3.05-3.87V17a1.17,1.17,0,0,0,1,1.26,1.17,1.17,0,0,0,1-1.26V7.56a1.29,1.29,0,0,0-.65-1.17A.91.91,0,0,0,20,6.68Z" style="stroke: #000;stroke-width: 0.6000000000000001px" />
      <path d="M42.91,11.2a1.05,1.05,0,0,0-.95-.77h-2.1l1.53-1.95s.8-1.17.1-1.82a1.27,1.27,0,0,0-1.58.06l-3.23,4.1a1.45,1.45,0,0,0-.2,1.37,1,1,0,0,0,1,.78h2.1L37,16.14s-1,1.13-.27,1.89,1.75-.14,1.75-.14l4.18-5.31A1.5,1.5,0,0,0,42.91,11.2Z" style="stroke: #000;stroke-width: 0.6000000000000001px" />
    </g>
  </g>
  <g /></svg>