<?xml version="1.0" encoding="UTF-8" standalone="no"?>
<svg
   width="20.32mm"
   height="130.55mm"
   viewBox="0 0 57.6 370.07"
   version="1.1"
   id="svg61"
   sodipodi:docname="KPLS_artwork.svg"
   inkscape:version="1.4.2 (ebf0e940, 2025-05-08)"
   xmlns:inkscape="http://www.inkscape.org/namespaces/inkscape"
   xmlns:sodipodi="http://sodipodi.sourceforge.net/DTD/sodipodi-0.dtd"
   xmlns="http://www.w3.org/2000/svg"
   xmlns:svg="http://www.w3.org/2000/svg">
  <sodipodi:namedview
     id="namedview61"
     pagecolor="#ffffff"
     bordercolor="#000000"
     borderopacity="0.25"
     inkscape:showpageshadow="2"
     inkscape:pageopacity="0.0"
     inkscape:pagecheckerboard="0"
     inkscape:deskcolor="#d1d1d1"
     inkscape:document-units="mm"
     inkscape:zoom="0.91090472"
     inkscape:cx="72.455437"
     inkscape:cy="383.13557"
     inkscape:window-width="1200"
     inkscape:window-height="979"
     inkscape:window-x="528"
     inkscape:window-y="38"
     inkscape:window-maximized="0"
     inkscape:current-layer="text" />
  <defs
     id="defs6">
    <clipPath
       id="clippath">
      <rect
         x="14.91"
         y="33.17"
         width="27.78"
         height="25.51"
         style="fill: none; stroke-width: 0px;"
         id="rect1" />
    </clipPath>
    <clipPath
       id="clippath-1">
      <rect
         x="14.91"
         y="33.17"
         width="27.78"
         height="25.51"
         style="fill: none; stroke-width: 0px;"
         id="rect2" />
    </clipPath>
    <clipPath
       id="clippath-2">
      <rect
         x="14.91"
         y="81.21"
         width="27.78"
         height="25.51"
         style="fill: none; stroke-width: 0px;"
         id="rect3" />
    </clipPath>
    <clipPath
       id="clippath-3">
      <rect
         x="14.91"
         y="81.21"
         width="27.78"
         height="25.51"
         style="fill: none; stroke-width: 0px;"
         id="rect4" />
    </clipPath>
    <clipPath
       id="clippath-4">
      <rect
         x="14.91"
         y="129.4"
         width="27.78"
         height="25.51"
         style="fill: none; stroke-width: 0px;"
         id="rect5" />
    </clipPath>
    <clipPath
       id="clippath-5">
      <rect
         x="14.91"
         y="129.4"
         width="27.78"
         height="25.51"
         style="fill: none; stroke-width: 0px;"
         id="rect6" />
    </clipPath>
  </defs>
  <g
     id="faceplate">
    <g
       id="g7">
      <path
         id="rect7"
         style="fill:#ededed;stroke-width:0px"
         d="m 0.13,0.13 h 57.349998 v 364 H 0.13 Z" />
      <path
         d="M57.35.25v363.75H.25V.25h57.1M57.6,0H0v364.25h57.6V0h0Z"
         style="fill: #9d9d9e; stroke-width: 0px;"
         id="path7" />
    </g>
    <g
       id="g9">
      <path
         d="M28.8,200.84c8.05,0,14.59,6.08,14.59,13.54v109.18H14.21v-109.18c0-7.47,6.55-13.54,14.59-13.54M28.8,199.84c-8.61,0-15.59,6.51-15.59,14.54v110.18s31.18,0,31.18,0v-110.18c0-8.03-6.98-14.54-15.59-14.54h0Z"
         style="fill: #000; stroke-width: 0px;"
         id="path8" />
      <path
         d="M44.39,310.8c0-8.05-6.98-14.57-15.59-14.57s-15.59,6.53-15.59,14.57v5.36s0,0,0,0v19.77c0,3.11,2.55,5.65,5.67,5.65h19.84c3.12,0,5.67-2.54,5.67-5.65v-19.77s0,0,0,0v-5.35Z"
         style="fill: #000; stroke-width: 0px;"
         id="path9" />
    </g>
    <g
       id="Pips">
      <g
         id="pips_-_fewest"
         data-name="pips - fewest">
        <g
           style="clip-path: url(#clippath);"
           clip-path="url(#clippath)"
           id="g20">
          <g
             style="clip-path: url(#clippath-1);"
             clip-path="url(#clippath-1)"
             id="g19">
            <path
               d="M34.49,35.93l.71-1.23c-1.74-.9-3.69-1.45-5.77-1.54v1.42c1.81.09,3.52.56,5.05,1.35"
               style="fill: #000; stroke-width: 0px;"
               id="path10" />
            <path
               d="M39.28,40.25l1.23-.71c-1.09-1.69-2.53-3.12-4.22-4.21l-.71,1.23c1.48.96,2.74,2.21,3.7,3.69"
               style="fill: #000; stroke-width: 0px;"
               id="path11" />
            <path
               d="M22.02,36.56l-.71-1.23c-1.69,1.08-3.14,2.52-4.22,4.2l1.23.71c.96-1.47,2.22-2.73,3.7-3.69"
               style="fill: #000; stroke-width: 0px;"
               id="path12" />
            <path
               d="M41.26,46.38h1.43c-.09-2.07-.64-4.01-1.54-5.75l-1.23.71c.79,1.52,1.26,3.23,1.35,5.04"
               style="fill: #000; stroke-width: 0px;"
               id="path13" />
            <path
               d="M28.17,34.59v-1.42c-2.07.09-4.03.64-5.77,1.54l.71,1.23c1.53-.78,3.24-1.25,5.05-1.35"
               style="fill: #000; stroke-width: 0px;"
               id="path14" />
            <path
               d="M18.32,53.76l-1.23.71c1.09,1.69,2.53,3.12,4.22,4.21l.71-1.23c-1.48-.96-2.74-2.21-3.7-3.69"
               style="fill: #000; stroke-width: 0px;"
               id="path15" />
            <path
               d="M35.58,57.45l.71,1.23c1.69-1.08,3.14-2.52,4.22-4.2l-1.23-.71c-.96,1.47-2.22,2.73-3.7,3.69"
               style="fill: #000; stroke-width: 0px;"
               id="path16" />
            <path
               d="M41.26,47.64c-.09,1.81-.56,3.51-1.35,5.04l1.23.71c.9-1.73,1.45-3.68,1.54-5.75h-1.43Z"
               style="fill: #000; stroke-width: 0px;"
               id="path17" />
            <path
               d="M16.34,47.64h-1.43c.09,2.07.64,4.01,1.54,5.75l1.23-.71c-.79-1.52-1.26-3.23-1.35-5.04"
               style="fill: #000; stroke-width: 0px;"
               id="path18" />
            <path
               d="M17.69,41.34l-1.23-.71c-.9,1.73-1.45,3.68-1.54,5.75h1.43c.09-1.81.56-3.51,1.35-5.04"
               style="fill: #000; stroke-width: 0px;"
               id="path19" />
          </g>
        </g>
      </g>
      <g
         id="pips_-_fewest-2"
         data-name="pips - fewest">
        <g
           style="clip-path: url(#clippath-2);"
           clip-path="url(#clippath-2)"
           id="g30">
          <g
             style="clip-path: url(#clippath-3);"
             clip-path="url(#clippath-3)"
             id="g29">
            <path
               d="M34.49,83.98l.71-1.23c-1.74-.9-3.69-1.45-5.77-1.54v1.42c1.81.09,3.52.56,5.05,1.35"
               style="fill: #000; stroke-width: 0px;"
               id="path20" />
            <path
               d="M39.28,88.3l1.23-.71c-1.09-1.69-2.53-3.12-4.22-4.21l-.71,1.23c1.48.96,2.74,2.21,3.7,3.69"
               style="fill: #000; stroke-width: 0px;"
               id="path21" />
            <path
               d="M22.02,84.61l-.71-1.23c-1.69,1.08-3.14,2.52-4.22,4.2l1.23.71c.96-1.47,2.22-2.73,3.7-3.69"
               style="fill: #000; stroke-width: 0px;"
               id="path22" />
            <path
               d="M41.26,94.42h1.43c-.09-2.07-.64-4.01-1.54-5.75l-1.23.71c.79,1.52,1.26,3.23,1.35,5.04"
               style="fill: #000; stroke-width: 0px;"
               id="path23" />
            <path
               d="M28.17,82.63v-1.42c-2.07.09-4.03.64-5.77,1.54l.71,1.23c1.53-.78,3.24-1.25,5.05-1.35"
               style="fill: #000; stroke-width: 0px;"
               id="path24" />
            <path
               d="M18.32,101.81l-1.23.71c1.09,1.69,2.53,3.12,4.22,4.21l.71-1.23c-1.48-.96-2.74-2.21-3.7-3.69"
               style="fill: #000; stroke-width: 0px;"
               id="path25" />
            <path
               d="M35.58,105.5l.71,1.23c1.69-1.08,3.14-2.52,4.22-4.2l-1.23-.71c-.96,1.47-2.22,2.73-3.7,3.69"
               style="fill: #000; stroke-width: 0px;"
               id="path26" />
            <path
               d="M41.26,95.68c-.09,1.81-.56,3.51-1.35,5.04l1.23.71c.9-1.73,1.45-3.68,1.54-5.75h-1.43Z"
               style="fill: #000; stroke-width: 0px;"
               id="path27" />
            <path
               d="M16.34,95.68h-1.43c.09,2.07.64,4.01,1.54,5.75l1.23-.71c-.79-1.52-1.26-3.23-1.35-5.04"
               style="fill: #000; stroke-width: 0px;"
               id="path28" />
            <path
               d="M17.69,89.39l-1.23-.71c-.9,1.73-1.45,3.68-1.54,5.75h1.43c.09-1.81.56-3.51,1.35-5.04"
               style="fill: #000; stroke-width: 0px;"
               id="path29" />
          </g>
        </g>
      </g>
      <g
         id="pips_-_fewest-3"
         data-name="pips - fewest">
        <g
           style="clip-path: url(#clippath-4);"
           clip-path="url(#clippath-4)"
           id="g40">
          <g
             style="clip-path: url(#clippath-5);"
             clip-path="url(#clippath-5)"
             id="g39">
            <path
               d="M34.49,132.17l.71-1.23c-1.74-.9-3.69-1.45-5.77-1.54v1.42c1.81.09,3.52.56,5.05,1.35"
               style="fill: #000; stroke-width: 0px;"
               id="path30" />
            <path
               d="M39.28,136.49l1.23-.71c-1.09-1.69-2.53-3.12-4.22-4.21l-.71,1.23c1.48.96,2.74,2.21,3.7,3.69"
               style="fill: #000; stroke-width: 0px;"
               id="path31" />
            <path
               d="M22.02,132.8l-.71-1.23c-1.69,1.08-3.14,2.52-4.22,4.2l1.23.71c.96-1.47,2.22-2.73,3.7-3.69"
               style="fill: #000; stroke-width: 0px;"
               id="path32" />
            <path
               d="M41.26,142.61h1.43c-.09-2.07-.64-4.01-1.54-5.75l-1.23.71c.79,1.52,1.26,3.23,1.35,5.04"
               style="fill: #000; stroke-width: 0px;"
               id="path33" />
            <path
               d="M28.17,130.82v-1.42c-2.07.09-4.03.64-5.77,1.54l.71,1.23c1.53-.78,3.24-1.25,5.05-1.35"
               style="fill: #000; stroke-width: 0px;"
               id="path34" />
            <path
               d="M18.32,150l-1.23.71c1.09,1.69,2.53,3.12,4.22,4.21l.71-1.23c-1.48-.96-2.74-2.21-3.7-3.69"
               style="fill: #000; stroke-width: 0px;"
               id="path35" />
            <path
               d="M35.58,153.69l.71,1.23c1.69-1.08,3.14-2.52,4.22-4.2l-1.23-.71c-.96,1.47-2.22,2.73-3.7,3.69"
               style="fill: #000; stroke-width: 0px;"
               id="path36" />
            <path
               d="M41.26,143.87c-.09,1.81-.56,3.51-1.35,5.04l1.23.71c.9-1.73,1.45-3.68,1.54-5.75h-1.43Z"
               style="fill: #000; stroke-width: 0px;"
               id="path37" />
            <path
               d="M16.34,143.87h-1.43c.09,2.07.64,4.01,1.54,5.75l1.23-.71c-.79-1.52-1.26-3.23-1.35-5.04"
               style="fill: #000; stroke-width: 0px;"
               id="path38" />
            <path
               d="M17.69,137.58l-1.23-.71c-.9,1.73-1.45,3.68-1.54,5.75h1.43c.09-1.81.56-3.51,1.35-5.04"
               style="fill: #000; stroke-width: 0px;"
               id="path39" />
          </g>
        </g>
      </g>
    </g>
    <g
       id="text">
      <path
         d="M 5.9765625,-5.4140625 3.5351563,0.0703125 H 2.4570313 L 0.0625,-5.4140625 H 1.7617187 L 3,-2.2890625 l 1.2734375,-3.125 z m 3.8557811,-0.074219 -2.9453125,5.5585937 h -1.046875 l 2.9414062,-5.5585937 z m 6.2698434,2.7773437 q 0,0.7578125 -0.351562,1.3945313 -0.347657,0.6367187 -1.039063,1.0117187 -0.691406,0.375 -1.683594,0.375 -1.003906,0 -1.699218,-0.390625 -0.695313,-0.390625 -1.035157,-1.0273437 -0.3359371,-0.6367188 -0.3359371,-1.3632813 0,-0.7304688 0.3359371,-1.3632812 0.335938,-0.6367188 1.03125,-1.0234375 0.699219,-0.390625 1.703125,-0.390625 0.75,0 1.335938,0.2226562 0.589844,0.2226563 0.96875,0.6054688 0.378906,0.3789062 0.574219,0.8867187 0.195312,0.5039062 0.195312,1.0625 z m -1.664062,0 q 0,-0.3046875 -0.08984,-0.5546875 -0.08984,-0.2539063 -0.273438,-0.4375 -0.179687,-0.1875 -0.441406,-0.2890625 -0.261719,-0.1054687 -0.605469,-0.1054687 -0.65625,0 -1.03125,0.3828124 -0.375,0.3828125 -0.375,1.0039063 0,0.6210937 0.375,1.0078125 0.378907,0.3828125 1.03125,0.3828125 0.449219,0 0.765625,-0.1757812 0.316407,-0.1796875 0.480469,-0.4921875 0.164063,-0.3164063 0.164063,-0.7226563 z m 5.53547,2.52734375 q -0.175782,0.0664063 -0.371094,0.125 -0.195313,0.0546875 -0.441406,0.08984375 -0.242188,0.0390625 -0.53125,0.0390625 -0.652344,0 -1.105469,-0.21875 Q 17.075157,-0.37109375 16.829063,-0.703125 16.586876,-1.0390625 16.493126,-1.3867187 16.399376,-1.734375 16.399376,-2 q 0,-0.265625 0.09375,-0.6132813 0.09766,-0.3476562 0.335937,-0.671875 0.238282,-0.3242187 0.6875,-0.5429687 0.453125,-0.21875 1.113282,-0.21875 0.441406,0 0.71875,0.0625 0.277343,0.0625 0.5625,0.1679687 v 1.1054688 q -0.6875,-0.21875 -1.074219,-0.21875 -0.375,0 -0.667969,0.2265625 Q 17.879845,-2.4765625 17.879845,-2 q 0,0.3164063 0.144531,0.5351563 0.144531,0.2148437 0.367187,0.3164062 0.222657,0.1015625 0.445313,0.1015625 0.210937,0 0.480469,-0.0625 0.269531,-0.0625 0.65625,-0.1796875 z m 3.500311,-0.046875 q -0.21875,0.10546875 -0.605469,0.203125 -0.382813,0.09765625 -0.734375,0.09765625 -1.519531,0 -1.519531,-1.484375 V -3 h -0.636719 v -0.2460938 l 1.886719,-1.9218749 h 0.160156 v 1.1914062 h 1.34375 V -3 h -1.34375 v 1.2734375 q 0,0.2226563 0.02734,0.359375 0.02734,0.1367188 0.152343,0.2304688 0.128907,0.089844 0.386719,0.089844 0.335938,0 0.882813,-0.28125 z"
         id="text40"
         style="font-weight:700;font-size:8px;font-family:GillSans-Bold, 'Gill Sans';letter-spacing:-0.04em"
         transform="translate(18.3 241.06) scale(.88 1)"
         aria-label="V/Oct" />
      <path
         d="M 5.8710937,-4.0976562 H 3.8867188 V 0 H 2.2578125 v -4.0976562 h -1.984375 v -1.3164063 h 5.5976562 z m 3.6682811,0.3359374 -0.5195312,1.4101563 Q 8.6995311,-2.65625 8.3714061,-2.65625 q -0.296875,0 -0.515625,0.203125 -0.2148438,0.1992187 -0.4140625,0.7421875 V 0 h -1.40625 v -3.9765625 h 1.40625 v 0.9609375 q 0.1328125,-0.3554688 0.46875,-0.6914063 0.3359375,-0.3398437 0.7890625,-0.3398437 0.2382812,0 0.4140625,0.070312 0.1796875,0.070312 0.4257812,0.2148437 z m 1.1526562,-1.1328124 q 0,0.2460937 -0.175781,0.4179687 -0.175782,0.171875 -0.417969,0.171875 -0.1640626,0 -0.3007813,-0.078125 -0.1328125,-0.078125 -0.2109375,-0.2109375 -0.078125,-0.1367187 -0.078125,-0.3007812 0,-0.2421875 0.171875,-0.4179688 0.171875,-0.1757812 0.4179688,-0.1757812 0.242187,0 0.417969,0.1757812 0.175781,0.1757813 0.175781,0.4179688 z M 10.805312,0 H 9.3951559 v -3.9765625 h 1.4101561 z m 4.64875,-3.1289063 H 14.75875 q 0.367187,0.3203125 0.367187,0.7851563 0,0.2460937 -0.105468,0.4726563 -0.101563,0.2265625 -0.304688,0.4023437 -0.199219,0.1757813 -0.496094,0.2890625 -0.292968,0.109375 -0.671875,0.1328125 -0.488281,0.019531 -0.488281,0.26171875 0,0.09375 0.0625,0.13671875 0.0625,0.0429687 0.195313,0.0664063 0.136718,0.0195313 0.457031,0.046875 0.363281,0.03125 0.675781,0.109375 0.3125,0.078125 0.582031,0.328125 0.269532,0.25 0.269532,0.71484375 0,0.37109375 -0.203125,0.65625 -0.199219,0.2851562 -0.648438,0.4453125 -0.449219,0.1601562 -1.1875,0.1601562 -1.0625,0 -1.5625,-0.2851562 -0.496094,-0.2851563 -0.496094,-0.76171875 0,-0.12890625 0.0625,-0.296875 Q 11.332969,0.3671875 11.54,0.2109375 11.750937,0.0546875 12.149375,0 12.00875,-0.05078125 11.907187,-0.1953125 11.805625,-0.34375 11.805625,-0.50390625 q 0,-0.20703125 0.140625,-0.41015625 0.144531,-0.203125 0.464844,-0.2617187 -0.445313,-0.1171875 -0.769532,-0.4414063 -0.324218,-0.3242187 -0.324218,-0.8398438 0,-0.390625 0.148437,-0.6835937 0.152344,-0.2929688 0.417969,-0.4765625 0.265625,-0.1835938 0.617187,-0.2695313 0.351563,-0.089844 0.769532,-0.089844 h 2.183593 z m -1.554687,0.671875 q 0,-0.3007812 -0.207031,-0.4804687 -0.203125,-0.1835938 -0.457032,-0.1835938 -0.324218,0 -0.511718,0.21875 -0.183594,0.21875 -0.183594,0.4609375 0,0.1679688 0.07813,0.3125 0.08203,0.1445313 0.226562,0.2343751 0.148438,0.085937 0.351563,0.085937 0.304687,0 0.503906,-0.1914063 0.199219,-0.1914063 0.199219,-0.4570313 z m 0.28125,3.1992188 q 0,-0.26171875 -0.28125,-0.33984375 -0.277344,-0.0742188 -0.574219,-0.0742188 -0.488281,0 -0.707031,0.1015625 -0.214844,0.10546875 -0.214844,0.33203125 0,0.44531245 0.898438,0.44531245 0.402343,0 0.640625,-0.1171875 0.238281,-0.1132812 0.238281,-0.3476562 z"
         id="text41"
         style="font-weight:700;font-size:8px;font-family:GillSans-Bold, 'Gill Sans';letter-spacing:-0.04em"
         transform="translate(21.57 289.25) scale(.88 1)"
         aria-label="Trig" />
      <path
         d="m 6.7089844,-4.6386719 q 0,0.3759766 -0.131836,0.7373047 -0.1269531,0.3564453 -0.415039,0.6689453 -0.288086,0.3076172 -0.78125,0.5029297 -0.4882813,0.1904297 -1.1523438,0.1904297 H 2.890625 V 0 H 0.84960938 V -6.7675781 H 4.2285156 q 0.6640625,0 1.1523438,0.1953125 0.493164,0.1953125 0.78125,0.5078125 0.2880859,0.3125 0.415039,0.6787109 0.131836,0.366211 0.131836,0.7470703 z m -2.0800782,0.00977 q 0,-0.4833985 -0.2880859,-0.6591797 Q 4.0576172,-5.46875 3.3203125,-5.46875 H 2.890625 v 1.6308594 h 0.4394531 q 0.5078125,0 0.78125,-0.063477 0.2734375,-0.063477 0.3955078,-0.234375 0.1220703,-0.1708984 0.1220703,-0.493164 z m 4.233789,-1.4892579 q 0,0.3076172 -0.2197265,0.522461 -0.2197266,0.2148437 -0.522461,0.2148437 -0.2050781,0 -0.3759765,-0.097656 -0.1660157,-0.097656 -0.2636719,-0.2636719 -0.097656,-0.1708984 -0.097656,-0.3759766 0,-0.3027343 0.2148438,-0.5224609 0.2148437,-0.2197266 0.5224609,-0.2197266 0.3027344,0 0.522461,0.2197266 0.2197265,0.2197266 0.2197265,0.5224609 z M 9.0042968,0 H 7.2416015 v -4.9707031 h 1.7626953 z m 4.7318362,-0.28808594 q -0.273438,0.13183594 -0.756836,0.25390625 -0.478516,0.12207031 -0.917969,0.12207031 -1.899414,0 -1.899414,-1.85546872 V -3.75 H 9.3660154 v -0.3076172 l 2.3583986,-2.4023437 h 0.200195 v 1.4892578 h 1.679688 V -3.75 h -1.679688 v 1.5917969 q 0,0.2783203 0.03418,0.4492187 0.03418,0.1708985 0.19043,0.288086 0.161132,0.1123047 0.483398,0.1123047 0.419922,0 1.103516,-0.3515625 z m 4.629297,0.0585937 q -0.219727,0.0830078 -0.463867,0.15625 -0.244141,0.06835938 -0.551758,0.11230469 -0.302734,0.04882812 -0.664063,0.04882812 -0.815429,0 -1.381836,-0.27343749 -0.561523,-0.27832032 -0.86914,-0.69335938 Q 14.132031,-1.2988281 14.014844,-1.7333984 13.897656,-2.1679688 13.897656,-2.5 q 0,-0.3320313 0.117188,-0.7666016 0.12207,-0.4345703 0.419922,-0.8398437 0.297851,-0.4052734 0.859375,-0.6787109 0.566406,-0.2734375 1.391601,-0.2734375 0.551758,0 0.898438,0.078125 0.34668,0.078125 0.703125,0.2099609 v 1.3818359 q -0.859375,-0.2734375 -1.342774,-0.2734375 -0.46875,0 -0.83496,0.2832031 -0.361329,0.2832032 -0.361329,0.8789063 0,0.3955078 0.180664,0.6689453 0.180665,0.2685547 0.458985,0.3955078 0.27832,0.1269532 0.55664,0.1269532 0.263672,0 0.600586,-0.078125 0.336914,-0.078125 0.820313,-0.2246094 z M 24.127539,0 h -1.757813 v -2.578125 q 0,-0.029297 0,-0.053711 0.0049,-0.029297 0.0049,-0.1171875 0,-0.3564454 -0.151367,-0.6542969 -0.151367,-0.2978516 -0.576172,-0.2978516 -0.332031,0 -0.585938,0.2246094 -0.253906,0.2197266 -0.483398,0.5566406 V 0 h -1.757813 v -6.7675781 h 1.757813 v 2.5097656 q 0.43457,-0.4638672 0.859375,-0.6298828 0.424805,-0.1708984 0.90332,-0.1708984 1.78711,0 1.78711,2.0068359 z"
         id="text42"
         style="font-weight:700;font-size:10px;font-family:GillSans-Bold, 'Gill Sans';letter-spacing:-0.04em"
         transform="translate(17.97 68.79) scale(.88 1)"
         aria-label="Pitch" />
      <path
         d="m 7.8076172,-3.2617188 q 0,1.0400391 -0.3808594,1.6699219 Q 7.0507812,-0.96191406 6.5380859,-0.57128906 5.8105469,0 4.5019531,0 H 0.84960938 V -6.7675781 H 3.6621094 q 0.6347656,0 1.0839843,0.068359 0.4541016,0.063477 0.8154297,0.1855468 0.3613282,0.1171875 0.6152344,0.2685547 0.2539063,0.1464844 0.4541016,0.3173828 0.3466797,0.2832032 0.6054687,0.6689453 0.2636719,0.3857422 0.4150391,0.8935547 0.15625,0.5078125 0.15625,1.1035156 z m -2.0751953,-0.087891 q 0,-0.8251953 -0.3173828,-1.2841797 -0.3125,-0.4638671 -0.756836,-0.6201171 -0.4394531,-0.15625 -0.8984375,-0.15625 H 2.890625 v 4.008789 h 0.8691406 q 0.8007813,0 1.3867188,-0.3808594 0.5859375,-0.3808593 0.5859375,-1.5673828 z m 7.7445311,1.2890625 H 9.9759765 q 0.1025395,0.4541016 0.5029295,0.7421875 0.400391,0.288086 0.908203,0.288086 0.888672,0 1.962891,-0.4980469 v 1.08886717 q -0.385742,0.20019532 -0.9375,0.36621094 -0.546875,0.16113281 -1.396484,0.16113281 -0.917969,0 -1.5625005,-0.34179687 -0.6445312,-0.34179687 -0.9667968,-0.92773435 -0.3173829,-0.5859375 -0.3173829,-1.328125 0,-0.7324219 0.3173829,-1.3085938 0.3222656,-0.5810547 0.9667968,-0.9082031 0.6445315,-0.3320312 1.5625005,-0.3320312 0.605468,0 1.166992,0.2636718 0.566406,0.2587891 0.927734,0.8544922 0.366211,0.5908203 0.366211,1.5283203 z m -1.650391,-0.8691406 q 0,-0.4785156 -0.239257,-0.7617188 -0.234375,-0.2880859 -0.678711,-0.2880859 -0.439453,0 -0.712891,0.2929688 -0.2685547,0.2880859 -0.2685547,0.7568359 z m 6.372461,2.70019531 q -0.219726,0.0830078 -0.463867,0.15625 -0.244141,0.06835938 -0.551758,0.11230469 -0.302734,0.04882812 -0.664062,0.04882812 -0.81543,0 -1.381836,-0.27343749 Q 14.575976,-0.46386719 14.268359,-0.87890625 13.965625,-1.2988281 13.848437,-1.7333984 13.73125,-2.1679688 13.73125,-2.5 q 0,-0.3320313 0.117187,-0.7666016 0.122071,-0.4345703 0.419922,-0.8398437 0.297852,-0.4052734 0.859375,-0.6787109 0.566406,-0.2734375 1.391602,-0.2734375 0.551758,0 0.898437,0.078125 0.34668,0.078125 0.703125,0.2099609 v 1.3818359 q -0.859375,-0.2734375 -1.342773,-0.2734375 -0.46875,0 -0.834961,0.2832031 -0.361328,0.2832032 -0.361328,0.8789063 0,0.3955078 0.180664,0.6689453 0.180664,0.2685547 0.458984,0.3955078 0.27832,0.1269532 0.556641,0.1269532 0.263672,0 0.600586,-0.078125 0.336914,-0.078125 0.820312,-0.2246094 z m 5.610742,-0.0195313 q -0.385742,0.15136719 -0.712891,0.24414063 -0.327148,0.09277343 -0.786133,0.09277343 -0.43457,0 -0.605468,-0.15136718 -0.170899,-0.15625 -0.244141,-0.37597657 -0.283203,0.22949219 -0.629883,0.38085938 -0.346679,0.14648437 -0.908203,0.14648437 -0.541992,0 -0.878906,-0.18554687 -0.332031,-0.19042969 -0.46875,-0.47363281 -0.131836,-0.28808594 -0.131836,-0.59082034 0,-0.4589843 0.229492,-0.7568359 0.234375,-0.3027344 0.625,-0.4931641 0.390625,-0.1904297 1.035156,-0.3955078 0.366211,-0.1171875 0.551758,-0.1757812 0.19043,-0.063477 0.283203,-0.097656 0.09277,-0.03418 0.195313,-0.087891 0,-0.3613281 -0.146485,-0.5664063 -0.146484,-0.2050781 -0.634765,-0.2050781 -0.576172,0 -1.069336,0.2539063 -0.493164,0.2539062 -0.90332,0.6542968 v -1.3476562 q 0.327148,-0.234375 0.708007,-0.3808594 0.38086,-0.1513672 0.795899,-0.2246094 0.415039,-0.073242 0.839844,-0.073242 1.079101,0 1.621093,0.4199218 0.546875,0.4150391 0.546875,1.147461 v 1.9189453 q 0,0.2734375 0.04883,0.4101562 0.05371,0.131836 0.19043,0.131836 0.166016,0 0.449219,-0.1416016 z M 21.363476,-1.2011719 v -1.1767578 q -0.625,0.2539063 -0.913086,0.4589844 -0.288086,0.2001953 -0.288086,0.546875 0,0.2490234 0.141601,0.38085936 0.146485,0.13183594 0.336915,0.13183594 0.180664,0 0.356445,-0.0976563 0.180664,-0.10253905 0.366211,-0.24414065 z m 7.925195,-3.7695312 -3.378906,7.2314453 h -1.777344 l 1.367188,-2.91015626 -1.967773,-4.32128904 h 1.889648 L 26.432226,-2.5 27.579687,-4.9707031 Z"
         id="text43"
         style="font-weight:700;font-size:10px;font-family:GillSans-Bold, 'Gill Sans';letter-spacing:-0.04em"
         transform="translate(15.74 117.04) scale(.88 1)"
         aria-label="Decay" />
      <path
         d="m 5.5810547,-1.9677734 q 0,0.6347656 -0.3271485,1.09863277 Q 4.9316406,-0.40527344 4.3505859,-0.15625 3.7695313,0.08789062 3.0175781,0.08789062 2.8076172,0.08789062 2.5,0.05859375 2.1972656,0.03417969 1.6894531,-0.08789062 1.1865234,-0.20996094 0.63964844,-0.44921875 V -2.109375 q 0.51269526,0.3173828 1.00585936,0.5273438 0.4980469,0.2099609 1.0644531,0.2099609 0.522461,0 0.6738282,-0.1708984 0.15625,-0.1757813 0.15625,-0.3271485 0,-0.2734375 -0.2636719,-0.4589844 Q 3.0126953,-2.5195313 2.5097656,-2.7197266 1.953125,-2.9541016 1.5332031,-3.2275391 1.1132812,-3.5058594 0.84472656,-3.9208984 0.58105469,-4.3359375 0.58105469,-4.9023437 q 0,-0.546875 0.26855469,-0.9863282 0.26855472,-0.4443359 0.82031252,-0.7080078 0.5517578,-0.2636719 1.3476562,-0.2636719 0.5664063,0 1.0449219,0.1123047 0.4833984,0.1074219 0.7958984,0.2441407 0.3125,0.1367187 0.4296875,0.2148437 v 1.5869141 Q 4.8730469,-5 4.3603516,-5.234375 3.8525391,-5.46875 3.2714844,-5.46875 q -0.3808594,0 -0.5517578,0.1464844 -0.1708985,0.1464844 -0.1708985,0.3613281 0,0.2001953 0.1708985,0.3466797 0.1708984,0.1464844 0.6103515,0.3564453 0.78125,0.3662109 1.25,0.6591797 0.46875,0.2929687 0.7324219,0.6787109 0.2685547,0.3808594 0.2685547,0.9521485 z m 6.1576173,-0.5517579 q 0,0.4980469 -0.141602,0.9619141 -0.141601,0.4638672 -0.43457,0.83984376 -0.288086,0.37109375 -0.74707,0.59082032 -0.454102,0.21484374 -1.0595707,0.21484374 -0.4882813,0 -0.7714844,-0.10253906 Q 8.3060546,-0.1171875 8.0277343,-0.28808594 V 2.2607422 H 6.2699218 v -7.2314453 h 1.7578125 v 0.4492187 q 0.2636719,-0.2294922 0.5810547,-0.3808593 0.3222656,-0.15625 0.8691406,-0.15625 0.5419924,0 1.0644534,0.2685546 0.522461,0.2685547 0.859375,0.8398438 0.336914,0.5664062 0.336914,1.430664 z m -1.8505862,0.039063 q 0,-0.4492187 -0.1416015,-0.727539 -0.1416016,-0.2832031 -0.366211,-0.4052735 -0.2246093,-0.1269531 -0.4638671,-0.1269531 -0.3125,0 -0.5126954,0.1025391 -0.2001953,0.097656 -0.3759765,0.2490234 v 1.8994141 q 0.092773,0.048828 0.1953125,0.1123047 0.1074219,0.058594 0.2099609,0.102539 0.1074219,0.043945 0.2246094,0.073242 0.1220703,0.029297 0.2587891,0.029297 0.415039,0 0.6933593,-0.3515625 Q 9.8880858,-1.875 9.8880858,-2.4804688 Z m 6.7337892,-2.2216796 -0.649414,1.7626953 q -0.400391,-0.3808594 -0.810547,-0.3808594 -0.371094,0 -0.644531,0.2539062 -0.268555,0.2490235 -0.517579,0.9277344 V 0 h -1.757812 v -4.9707031 h 1.757812 v 1.2011718 q 0.166016,-0.4443359 0.585938,-0.8642578 0.419922,-0.4248046 0.986328,-0.4248046 0.297852,0 0.517578,0.087891 0.22461,0.087891 0.532227,0.2685547 z m 4.829491,2.6416015 H 17.95039 q 0.102539,0.4541016 0.50293,0.7421875 0.40039,0.288086 0.908203,0.288086 0.888672,0 1.96289,-0.4980469 v 1.08886717 q -0.385742,0.20019532 -0.9375,0.36621094 -0.546875,0.16113281 -1.396484,0.16113281 -0.917969,0 -1.5625,-0.34179687 -0.644531,-0.34179687 -0.966797,-0.92773435 -0.317383,-0.5859375 -0.317383,-1.328125 0,-0.7324219 0.317383,-1.3085938 0.322266,-0.5810547 0.966797,-0.9082031 0.644531,-0.3320312 1.5625,-0.3320312 0.605469,0 1.166992,0.2636718 0.566406,0.2587891 0.927734,0.8544922 0.366211,0.5908203 0.366211,1.5283203 z m -1.65039,-0.8691406 q 0,-0.4785156 -0.239258,-0.7617188 -0.234375,-0.2880859 -0.678711,-0.2880859 -0.439453,0 -0.712891,0.2929688 -0.268554,0.2880859 -0.268554,0.7568359 z m 7.270899,2.68066406 q -0.385743,0.15136719 -0.712891,0.24414063 -0.327148,0.09277343 -0.786133,0.09277343 -0.43457,0 -0.605469,-0.15136718 -0.170898,-0.15625 -0.24414,-0.37597657 -0.283203,0.22949219 -0.629883,0.38085938 -0.34668,0.14648437 -0.908203,0.14648437 -0.541992,0 -0.878906,-0.18554687 -0.332032,-0.19042969 -0.46875,-0.47363281 -0.131836,-0.28808594 -0.131836,-0.59082034 0,-0.4589843 0.229492,-0.7568359 0.234375,-0.3027344 0.625,-0.4931641 0.390625,-0.1904297 1.035156,-0.3955078 0.366211,-0.1171875 0.551758,-0.1757812 0.19043,-0.063477 0.283203,-0.097656 0.09277,-0.03418 0.195313,-0.087891 0,-0.3613281 -0.146485,-0.5664063 -0.146484,-0.2050781 -0.634765,-0.2050781 -0.576172,0 -1.069336,0.2539063 -0.493164,0.2539062 -0.903321,0.6542968 v -1.3476562 q 0.327149,-0.234375 0.708008,-0.3808594 0.380859,-0.1513672 0.795899,-0.2246094 0.415039,-0.073242 0.839843,-0.073242 1.079102,0 1.621094,0.4199218 0.546875,0.4150391 0.546875,1.147461 v 1.9189453 q 0,0.2734375 0.04883,0.4101562 0.05371,0.131836 0.19043,0.131836 0.166015,0 0.449219,-0.1416016 z M 24.625586,-1.2011719 v -1.1767578 q -0.625,0.2539063 -0.913086,0.4589844 -0.288086,0.2001953 -0.288086,0.546875 0,0.2490234 0.141601,0.38085936 0.146485,0.13183594 0.336914,0.13183594 0.180664,0 0.356446,-0.0976563 0.180664,-0.10253905 0.366211,-0.24414065 z M 32.482422,0 h -1.762695 v -0.44921875 q -0.278321,0.234375 -0.590821,0.38574219 -0.307617,0.15136718 -0.854492,0.15136718 -0.541992,0 -1.064453,-0.26855468 -0.522461,-0.26855469 -0.859375,-0.83496094 -0.336914,-0.5712891 -0.336914,-1.4355469 0,-0.6787109 0.253906,-1.2695312 0.253906,-0.5957031 0.795899,-0.9667969 0.541992,-0.3710937 1.328125,-0.3710937 0.488281,0 0.791015,0.1074218 0.302735,0.1074219 0.53711,0.2734375 v -2.0898437 h 1.762695 z m -1.762695,-1.5820312 v -1.8994141 q -0.307618,-0.1708985 -0.483399,-0.2441406 -0.170898,-0.073242 -0.405273,-0.073242 -0.415039,0 -0.69336,0.3515625 -0.273437,0.3515625 -0.273437,0.9570312 0,0.6591797 0.288086,0.9619141 0.292968,0.2978516 0.678711,0.2978516 0.317382,0 0.512695,-0.097656 0.195312,-0.1025391 0.375977,-0.2539062 z"
         id="text44"
         style="font-weight:700;font-size:10px;font-family:GillSans-Bold, 'Gill Sans';letter-spacing:-0.04em"
         transform="matrix(0.88,0,0,1,14.08,164.74)"
         aria-label="Spread" />
      <path
         d="M 23.437811,350.54472 H 21.19162 l -2.334277,-3.48583 v 3.48583 h -1.840995 v -7.44433 h 1.840995 v 3.33009 l 2.210957,-3.33009 h 1.99955 l -2.272616,3.48584 z m 6.086736,-5.10253 q 0,0.41358 -0.118916,0.81103 -0.114512,0.3921 -0.374365,0.73584 -0.259854,0.33839 -0.704688,0.55323 -0.440429,0.20947 -1.039413,0.20947 h -1.206778 v 2.79296 h -1.840995 v -7.44433 h 3.047773 q 0.598984,0 1.039413,0.21485 0.444834,0.21484 0.704688,0.55859 0.259853,0.34375 0.374365,0.74659 0.118916,0.40283 0.118916,0.82177 z m -1.87623,0.011 q 0,-0.53173 -0.259854,-0.7251 -0.255449,-0.19872 -0.920497,-0.19872 h -0.387579 v 1.79394 h 0.396387 q 0.458047,0 0.704688,-0.0698 0.24664,-0.0698 0.356747,-0.25781 0.110108,-0.18799 0.110108,-0.54247 z m 7.53575,5.09179 h -4.637724 v -7.44433 h 1.840996 v 5.66114 h 2.796728 z m 4.822702,-2.16454 q 0,0.69824 -0.295088,1.20849 -0.290683,0.51025 -0.814794,0.78418 -0.524111,0.26856 -1.202372,0.26856 -0.189386,0 -0.466856,-0.0322 -0.273066,-0.0268 -0.731113,-0.16113 -0.453642,-0.13429 -0.946923,-0.39747 v -1.82617 q 0.46245,0.34912 0.907284,0.58009 0.449239,0.23095 0.960136,0.23095 0.471261,0 0.607793,-0.18798 0.140938,-0.19337 0.140938,-0.35987 0,-0.30078 -0.237832,-0.50489 -0.237832,-0.20947 -0.691474,-0.42968 -0.50209,-0.25781 -0.88086,-0.55859 -0.378769,-0.30615 -0.621006,-0.7627 -0.237831,-0.45655 -0.237831,-1.07959 0,-0.60156 0.242236,-1.08497 0.242236,-0.48876 0.739922,-0.7788 0.497685,-0.29004 1.215586,-0.29004 0.510897,0 0.942519,0.12354 0.436025,0.11816 0.7179,0.26854 0.281875,0.1504 0.387577,0.23634 v 1.7456 q -0.374365,-0.32764 -0.836816,-0.58545 -0.458047,-0.2578 -0.982157,-0.2578 -0.343535,0 -0.497686,0.16113 -0.15415,0.16113 -0.15415,0.39745 0,0.22022 0.15415,0.38135 0.154151,0.16114 0.550537,0.39209 0.704687,0.40283 1.127499,0.72509 0.422813,0.32228 0.660645,0.74659 0.242236,0.41894 0.242236,1.04736 z"
         id="text45"
         style="font-weight:700;font-size:9.96092px;font-family:GillSans-Bold, 'Gill Sans';stroke-width:0.905538"
         aria-label="KPLS" />
      <path
         d="m 6.4726562,-2.7109375 q 0,0.7578125 -0.3515625,1.3945313 -0.3476562,0.6367187 -1.0390625,1.0117187 -0.6914062,0.375 -1.6835937,0.375 -1.0039062,0 -1.6992188,-0.390625 Q 1.0039062,-0.7109375 0.6640625,-1.3476562 0.328125,-1.984375 0.328125,-2.7109375 q 0,-0.7304688 0.3359375,-1.3632812 Q 1,-4.7109375 1.6953125,-5.0976562 q 0.6992188,-0.390625 1.703125,-0.390625 0.75,0 1.3359375,0.2226562 0.5898437,0.2226563 0.96875,0.6054688 0.3789062,0.3789062 0.5742187,0.8867187 0.1953125,0.5039062 0.1953125,1.0625 z m -1.6640625,0 q 0,-0.3046875 -0.089844,-0.5546875 -0.089844,-0.2539063 -0.2734375,-0.4375 -0.1796875,-0.1875 -0.4414063,-0.2890625 -0.2617187,-0.1054687 -0.6054687,-0.1054687 -0.65625,0 -1.03125,0.3828124 -0.375,0.3828125 -0.375,1.0039063 0,0.6210937 0.375,1.0078125 0.3789063,0.3828125 1.03125,0.3828125 0.4492188,0 0.765625,-0.1757812 0.3164062,-0.1796875 0.4804687,-0.4921875 0.1640625,-0.3164063 0.1640625,-0.7226563 z M 11.129219,0 H 9.7190623 v -0.56640625 q -0.296875,0.3203125 -0.625,0.48046875 -0.3242187,0.15625 -0.78125,0.15625 -0.9023437,0 -1.1679687,-0.5234375 -0.265625,-0.52734375 -0.265625,-1.1875 v -2.3359375 h 1.4101562 v 2.1484375 q 0,0.3242188 0.1054688,0.5703125 0.109375,0.2421875 0.46875,0.2421875 0.3085937,0 0.4882812,-0.1757812 0.1796875,-0.1757813 0.3671875,-0.4492188 v -2.3359375 h 1.4101567 z m 3.715156,-0.23046875 q -0.21875,0.10546875 -0.605469,0.203125 -0.382813,0.09765625 -0.734375,0.09765625 -1.519531,0 -1.519531,-1.484375 V -3 H 11.348281 V -3.2460938 L 13.235,-5.1679687 h 0.160156 v 1.1914062 h 1.34375 V -3 h -1.34375 v 1.2734375 q 0,0.2226563 0.02734,0.359375 0.02734,0.1367188 0.152343,0.2304688 0.128907,0.089844 0.386719,0.089844 0.335938,0 0.882813,-0.28125 z"
         id="text46"
         style="font-weight:700;font-size:8px;font-family:GillSans-Bold, 'Gill Sans';letter-spacing:-0.04em;fill:#ffffff"
         transform="translate(22.19 337.44) scale(.88 1)"
         aria-label="Out" />
    </g>
    <g
       id="g48"
       transform="translate(0,8.6069709)">
      <path
         d="m 20.6,18.19 c -0.37,0 -0.71,-0.17 -0.97,-0.47 -0.51,-0.6 -0.52,-1.54 -0.04,-2.16 l 6.97,-8.88 c 0.38,-0.48 1.05,-0.65 1.57,-0.39 0.5,0.25 0.79,0.82 0.79,1.45 v 4.77 l 4.64,-5.85 c 0.38,-0.48 1.01,-0.64 1.53,-0.38 0.5,0.25 0.83,0.81 0.83,1.44 v 8.82 c 0,0.86 -0.61,1.57 -1.36,1.57 -0.75,0 -1.36,-0.7 -1.36,-1.57 v -4.79 l -4.64,5.85 c -0.38,0.48 -1.01,0.64 -1.54,0.38 -0.5,-0.24 -0.83,-0.81 -0.83,-1.44 v -4.67 l -4.61,5.8 c -0.26,0.32 -0.62,0.51 -1,0.51 v 0 z"
         style="fill:#2cabe1;stroke-width:0px"
         id="path46" />
      <path
         d="m 20.6,18.19 c -0.75,0 -1.35,-0.7 -1.35,-1.57 v -4.93 l -2.26,2.84 c -0.5,0.63 -1.44,0.65 -1.97,0.04 -0.51,-0.6 -0.52,-1.53 -0.03,-2.15 L 19.6,6.66 c 0.26,-0.32 0.63,-0.5 1,-0.5 0.18,0 0.37,0.04 0.54,0.12 0.5,0.25 0.82,0.81 0.82,1.44 v 8.89 c 0,0.86 -0.61,1.57 -1.36,1.57 v 0 z"
         style="fill:#ea2228;stroke-width:0px"
         id="path47" />
      <path
         d="m 37.2,18.21 v 0 c -0.35,0 -0.68,-0.15 -0.94,-0.42 -0.76,-0.78 -0.14,-1.84 0.29,-2.3 L 38.5,13.13 37.24,13.11 C 36.68,13.1 36.2,12.71 36,12.11 35.81,11.55 35.93,10.9 36.29,10.47 L 39.45,6.64 C 39.68,6.36 40,6.16 40.58,6.17 c 0.33,0 0.67,0.17 0.92,0.4 0.71,0.66 0.29,1.7 -0.07,2.2 l -1.04,1.26 1.26,0.02 c 0.56,0.01 1.04,0.4 1.24,1 0.19,0.56 0.07,1.21 -0.29,1.64 l -4.1,4.97 c -0.35,0.35 -0.65,0.55 -1.3,0.54 v 0 z"
         style="fill:#00a650;stroke-width:0px"
         id="path48" />
    </g>
  </g>
  <g
     id="g1" />
</svg>
