<svg xmlns="http://www.w3.org/2000/svg" width="40.73mm" height="128.59mm" viewBox="0 0 115.45 364.5">
  <g id="faceplate">
    <rect x=".12" y=".12" width="115.2" height="364.25" style="fill: #ededed; stroke: #9d9d9e; stroke-miterlimit: 10; stroke-width: .25px;" />
    <g>
      <path d="M100.44,318.76v-21.52h-21.54c-7.49,0-13.57,6.52-13.57,14.57v30.53h15.07s0,0,0,0h14.39c3.12,0,5.64-2.36,5.64-5.25v-18.39.08Z" style="fill: #000; stroke-width: 0px;" />
      <g>
        <path d="M28.32,341.84h35.2s23.15,0,23.15,0c7.35,0,13.31-7.02,13.31-15.67v-28.42l.27-63.47-.06-6.64c-.29-8.35-6.12-15.02-13.28-15.02H28.56c-7.17,0-12.99,6.67-13.28,15.02l-.06,6.64v-2.92l-.21,94.81" style="fill: none; stroke: #000; stroke-miterlimit: 10;" />
        <path d="M15.01,325.21v10.96c0,3.12,2.55,5.67,5.67,5.67h12.93" style="fill: none; stroke: #231f20; stroke-miterlimit: 10;" />
      </g>
    </g>
    <g>
      <path d="M53.52,357.47h-4.64v-7.44h1.84v5.66h2.8v1.78Z" style="fill: #000; stroke-width: 0px;" />
      <path d="M59.87,352.37c0,.28-.04.54-.12.81-.08.26-.2.51-.38.74-.17.23-.41.41-.7.55s-.64.21-1.04.21h-1.21v2.79h-1.84v-7.44h3.05c.4,0,.75.07,1.04.21.29.14.53.33.7.56.17.23.3.48.38.75.08.27.12.54.12.82ZM58,352.38c0-.35-.08-.6-.26-.73s-.48-.2-.92-.2h-.39v1.79h.4c.3,0,.54-.02.7-.07.17-.05.28-.13.36-.26.07-.13.11-.31.11-.54Z" style="fill: #000; stroke-width: 0px;" />
      <path d="M66.65,356.94c-.13.06-.25.11-.34.15-.09.04-.18.08-.27.11-.09.03-.21.07-.38.12-.28.08-.56.14-.83.18-.28.04-.57.06-.88.06-.62,0-1.19-.14-1.72-.41-.53-.28-.95-.7-1.26-1.28-.32-.58-.47-1.29-.47-2.14,0-.54.08-1.08.24-1.6.16-.52.41-.94.75-1.26.28-.26.56-.46.84-.6.28-.14.56-.23.83-.28.27-.05.57-.07.89-.07.54,0,.98.05,1.33.15.35.1.73.23,1.15.39v1.76c-.28-.2-.57-.36-.88-.49-.31-.13-.69-.2-1.15-.2-.53,0-.96.12-1.27.37s-.54.54-.67.88c-.12.34-.19.67-.19.99,0,.38.07.72.22,1.04.14.32.36.57.65.76.29.19.64.29,1.05.29.24,0,.49-.04.75-.11v-.88h-.83v-1.5h2.44v3.58Z" style="fill: #000; stroke-width: 0px;" />
    </g>
    <g>
      <path d="M78.92,293.41c-.2.12-.4.21-.61.28s-.41.12-.62.15c-.21.03-.43.04-.65.04-.42,0-.79-.06-1.12-.2-.33-.13-.61-.32-.86-.58-.24-.25-.42-.55-.54-.89s-.18-.71-.18-1.12c0-.47.07-.87.21-1.22.14-.35.34-.64.6-.87.26-.23.55-.4.87-.51.33-.11.67-.17,1.03-.17.54,0,1.15.14,1.84.41v1.44c-.24-.17-.47-.3-.7-.42-.23-.11-.5-.17-.81-.17-.28,0-.54.06-.78.19-.24.12-.43.3-.58.54-.15.23-.22.5-.22.81,0,.27.06.52.19.75.13.23.31.41.53.54.23.13.49.2.77.2.23,0,.45-.03.66-.1.21-.06.38-.13.52-.21.14-.08.29-.17.44-.28v1.37Z" style="fill: #000; stroke-width: 0px;" />
      <path d="M83.26,291.83c0,.4-.08.75-.23,1.06-.15.31-.38.55-.68.73-.3.18-.67.27-1.1.27s-.8-.09-1.1-.27c-.3-.18-.53-.42-.68-.73-.15-.31-.23-.66-.23-1.06,0-.3.04-.57.13-.82.08-.24.21-.46.38-.65.17-.19.38-.33.63-.44.25-.1.54-.15.87-.15s.62.05.88.15c.25.1.46.25.63.43.17.19.29.4.38.65.08.25.13.52.13.82ZM81.96,291.83c0-.31-.06-.56-.18-.74-.12-.18-.29-.27-.52-.27s-.4.09-.52.27c-.12.18-.18.43-.18.74s.06.56.18.74c.12.18.29.27.52.27s.4-.09.52-.27c.12-.18.18-.43.18-.74Z" style="fill: #000; stroke-width: 0px;" />
      <path d="M84.93,293.82h-1.24v-5.41h1.24v5.41Z" style="fill: #000; stroke-width: 0px;" />
      <path d="M89.36,291.83c0,.4-.08.75-.23,1.06-.15.31-.38.55-.68.73-.3.18-.67.27-1.1.27s-.8-.09-1.1-.27c-.3-.18-.53-.42-.68-.73-.15-.31-.23-.66-.23-1.06,0-.3.04-.57.13-.82.08-.24.21-.46.38-.65.17-.19.38-.33.63-.44.25-.1.54-.15.87-.15s.62.05.88.15c.25.1.46.25.63.43.17.19.29.4.38.65.08.25.13.52.13.82ZM88.06,291.83c0-.31-.06-.56-.18-.74-.12-.18-.29-.27-.52-.27s-.4.09-.52.27c-.12.18-.18.43-.18.74s.06.56.18.74c.12.18.29.27.52.27s.4-.09.52-.27c.12-.18.18-.43.18-.74Z" style="fill: #000; stroke-width: 0px;" />
      <path d="M92.8,290.06l-.46,1.41c-.19-.2-.38-.3-.57-.3-.17,0-.33.07-.45.2-.13.13-.25.38-.37.74v1.71h-1.24v-3.98h1.24v.96c.08-.24.22-.47.41-.69.2-.22.43-.34.69-.34.14,0,.26.02.37.07.1.05.23.12.37.21Z" style="fill: #000; stroke-width: 0px;" />
    </g>
    <g>
      <path d="M82.48,333.3c0,.5-.1.97-.31,1.39-.21.42-.51.76-.92,1.01-.41.25-.9.38-1.48.38s-1.09-.13-1.5-.39c-.41-.26-.71-.6-.91-1.03-.2-.42-.3-.88-.3-1.36s.1-.94.3-1.37c.2-.42.5-.76.91-1.02.41-.26.91-.39,1.5-.39.44,0,.83.07,1.18.22s.63.35.85.6.39.55.5.89c.12.34.17.69.17,1.06ZM81.02,333.3c0-.2-.03-.39-.08-.56s-.13-.31-.24-.44c-.11-.12-.24-.22-.39-.29-.15-.07-.33-.1-.53-.1-.38,0-.69.13-.91.38-.22.25-.33.59-.33,1s.11.75.33,1.01c.22.26.52.38.91.38.26,0,.49-.06.67-.18.19-.12.33-.28.42-.49.1-.21.14-.45.14-.72Z" style="fill: #fff; stroke-width: 0px;" />
      <path d="M86.58,336.01h-1.24v-.57c-.17.21-.36.37-.55.48-.19.11-.42.16-.69.16-.53,0-.87-.18-1.03-.53-.16-.35-.23-.75-.23-1.19v-2.34h1.24v2.15c0,.22.03.41.09.57.06.16.2.24.41.24.18,0,.33-.06.43-.18s.21-.27.32-.45v-2.34h1.24v3.98Z" style="fill: #fff; stroke-width: 0px;" />
      <path d="M89.85,335.78c-.13.07-.31.14-.53.2-.23.06-.44.1-.65.1-.89,0-1.34-.5-1.34-1.48v-1.59h-.56v-.25l1.66-1.92h.14v1.19h1.18v.98h-1.18v1.27c0,.15,0,.27.02.36.02.09.06.17.14.23.08.06.19.09.34.09.2,0,.46-.09.78-.28v1.1Z" style="fill: #fff; stroke-width: 0px;" />
    </g>
    <g>
      <path d="M27.43,293.82h-3.62v-5.41h1.44v4.12h2.18v1.3Z" style="fill: #000; stroke-width: 0px;" />
      <path d="M31.37,292.17h-2.46c.05.24.17.44.35.59.19.15.4.23.64.23.42,0,.88-.13,1.38-.4v.87c-.18.11-.4.2-.66.29-.26.09-.59.13-.98.13-.43,0-.8-.09-1.1-.27-.3-.18-.53-.43-.68-.74s-.23-.67-.23-1.06.08-.74.23-1.05.38-.55.68-.73c.3-.18.67-.26,1.1-.26.28,0,.56.07.82.21.26.14.48.37.65.68.17.32.26.72.26,1.22v.28ZM30.21,291.48c0-.25-.06-.46-.17-.61-.11-.15-.27-.23-.48-.23s-.37.08-.5.23c-.13.16-.19.36-.19.61h1.34Z" style="fill: #000; stroke-width: 0px;" />
      <path d="M35.39,289.84l-1.59,3.98h-.91l-1.56-3.98h1.33l.73,2.08.8-2.08h1.2Z" style="fill: #000; stroke-width: 0px;" />
      <path d="M39.11,292.17h-2.46c.05.24.17.44.35.59.19.15.4.23.64.23.42,0,.88-.13,1.38-.4v.87c-.18.11-.4.2-.66.29-.26.09-.59.13-.98.13-.43,0-.8-.09-1.1-.27-.3-.18-.53-.43-.68-.74s-.23-.67-.23-1.06.08-.74.23-1.05.38-.55.68-.73c.3-.18.67-.26,1.1-.26.28,0,.56.07.82.21.26.14.48.37.65.68.17.32.26.72.26,1.22v.28ZM37.95,291.48c0-.25-.06-.46-.17-.61-.11-.15-.27-.23-.48-.23s-.37.08-.5.23c-.13.16-.19.36-.19.61h1.34Z" style="fill: #000; stroke-width: 0px;" />
      <path d="M40.74,293.82h-1.24v-5.41h1.24v5.41Z" style="fill: #000; stroke-width: 0px;" />
    </g>
    <g>
      <path d="M25.11,252.21h-1.44v-5.41h1.44v5.41Z" style="fill: #000; stroke-width: 0px;" />
      <path d="M29.57,252.21h-1.24v-2.14c0-.22-.03-.41-.09-.57-.06-.16-.2-.24-.41-.24-.1,0-.19.02-.27.06s-.15.1-.21.17c-.06.07-.11.13-.15.2-.04.06-.08.13-.13.2v2.34h-1.24v-3.98h1.24v.57c.19-.24.39-.4.59-.5.2-.09.41-.14.65-.14.84,0,1.26.57,1.26,1.71v2.34Z" style="fill: #000; stroke-width: 0px;" />
      <path d="M33.87,250.19c0,.27-.03.52-.1.77-.07.25-.17.47-.3.67s-.31.36-.53.47c-.21.12-.46.17-.75.17-.23,0-.41-.03-.54-.08s-.26-.13-.39-.22v2.04h-1.24v-5.79h1.24v.36c.12-.12.26-.22.41-.31.15-.08.35-.12.61-.12s.5.07.75.21c.25.14.45.37.6.67.16.3.24.69.24,1.15ZM32.57,250.22c0-.24-.03-.43-.1-.58-.07-.15-.15-.26-.26-.32s-.21-.1-.33-.1c-.15,0-.27.03-.36.08-.09.05-.18.12-.26.2v1.52s.09.06.14.09c.05.03.1.06.15.08s.1.04.16.06.12.02.18.02c.19,0,.36-.09.49-.28.13-.19.2-.44.2-.77Z" style="fill: #000; stroke-width: 0px;" />
      <path d="M37.92,252.21h-1.24v-.57c-.17.21-.36.37-.55.48s-.42.16-.69.16c-.53,0-.87-.17-1.03-.53-.16-.35-.23-.75-.23-1.19v-2.34h1.24v2.15c0,.22.03.41.1.57.06.16.2.24.41.24.18,0,.33-.06.43-.18.11-.12.21-.27.32-.45v-2.34h1.24v3.98Z" style="fill: #000; stroke-width: 0px;" />
      <path d="M41.19,251.98c-.13.07-.31.14-.53.2-.23.07-.44.1-.65.1-.89,0-1.34-.49-1.34-1.48v-1.59h-.56v-.25l1.66-1.92h.14v1.19h1.18v.98h-1.18v1.27c0,.15,0,.27.02.36.02.09.06.17.14.23.07.06.19.09.34.09.2,0,.46-.09.78-.28v1.1Z" style="fill: #000; stroke-width: 0px;" />
    </g>
    <g>
      <path d="M80.71,248.5c0,.2-.03.4-.09.59s-.16.37-.29.54c-.13.17-.32.3-.55.4-.23.1-.5.15-.81.15h-.94v2.03h-1.44v-5.41h2.38c.31,0,.58.05.81.16.23.1.41.24.55.41.13.17.23.35.29.54s.09.39.09.6ZM79.24,248.5c0-.26-.07-.43-.2-.53-.13-.09-.37-.14-.72-.14h-.3v1.3h.31c.24,0,.42-.02.55-.05.13-.03.22-.1.28-.19.06-.09.09-.22.09-.39Z" style="fill: #000; stroke-width: 0px;" />
      <path d="M82.32,252.21h-1.24v-3.98h1.24v3.98ZM82.22,247.31c0,.16-.05.3-.15.42-.1.12-.23.17-.37.17-.1,0-.18-.03-.26-.08-.08-.05-.14-.12-.19-.21s-.07-.19-.07-.3c0-.16.05-.3.15-.42.1-.12.22-.18.37-.18s.26.06.37.18c.1.12.15.26.15.42Z" style="fill: #000; stroke-width: 0px;" />
      <path d="M86.63,252.21h-1.24v-2.14c0-.22-.03-.41-.09-.57-.06-.16-.2-.24-.41-.24-.1,0-.19.02-.27.06-.08.04-.15.1-.21.17-.06.07-.11.13-.15.2s-.08.13-.13.2v2.34h-1.24v-3.98h1.24v.57c.19-.24.39-.4.59-.5.2-.09.41-.14.65-.14.84,0,1.26.57,1.26,1.71v2.34Z" style="fill: #000; stroke-width: 0px;" />
      <path d="M90.61,249.08h-.61c.22.21.32.48.32.79,0,.16-.03.32-.09.47-.06.15-.15.29-.27.4-.12.12-.26.21-.44.29-.17.07-.37.12-.59.13-.29.01-.43.1-.43.26,0,.06.02.11.06.14.04.03.09.05.17.06.08.01.21.03.4.05.21.02.41.06.59.11.18.05.35.16.51.33.16.17.24.41.24.71,0,.25-.06.47-.18.66-.12.19-.31.34-.57.45-.26.11-.61.16-1.04.16-.62,0-1.08-.09-1.37-.29-.29-.19-.44-.44-.44-.76,0-.09.02-.18.06-.3.04-.11.12-.22.24-.32.12-.1.3-.17.53-.21-.08-.03-.15-.1-.21-.2s-.09-.2-.09-.31c0-.14.04-.27.13-.41.08-.13.22-.22.41-.26-.26-.08-.49-.22-.68-.44-.19-.22-.29-.5-.29-.84,0-.26.04-.49.13-.68s.21-.35.37-.48c.16-.12.34-.21.54-.27s.43-.09.68-.09h1.92v.85ZM89.49,252.95c0-.17-.08-.29-.25-.34s-.33-.08-.51-.08c-.29,0-.49.04-.62.1-.13.07-.19.18-.19.33,0,.3.26.45.79.45.24,0,.42-.04.56-.12.14-.08.21-.19.21-.35ZM89.24,249.75c0-.2-.06-.36-.18-.48s-.25-.18-.4-.18c-.19,0-.34.07-.45.22-.11.15-.16.3-.16.46,0,.11.02.22.07.31.05.1.11.17.2.23s.19.09.31.09c.18,0,.33-.06.44-.19.12-.13.17-.28.17-.46Z" style="fill: #000; stroke-width: 0px;" />
    </g>
    <g>
      <path d="M27.48,333.4c0,.55-.09,1-.27,1.34-.18.34-.39.61-.63.82-.34.3-.82.46-1.43.46h-2.57v-5.41h1.98c.3,0,.55.02.76.05s.4.08.57.15c.17.06.31.13.43.21.12.08.23.16.32.26.16.15.31.33.43.54.12.21.22.44.29.71.07.27.11.56.11.88ZM26.02,333.33c0-.44-.07-.78-.22-1.03s-.33-.41-.53-.49c-.21-.08-.42-.12-.63-.12h-.61v3.21h.61c.38,0,.7-.1.98-.3s.41-.62.41-1.25Z" style="fill: #000; stroke-width: 0px;" />
      <path d="M31.47,334.36h-2.46c.05.24.17.44.35.59.19.15.4.23.64.23.42,0,.88-.13,1.38-.4v.87c-.18.11-.4.2-.66.29-.26.09-.59.13-.98.13-.43,0-.8-.09-1.1-.27-.3-.18-.53-.43-.68-.74s-.23-.67-.23-1.06.08-.74.23-1.05.38-.55.68-.73c.3-.18.67-.26,1.1-.26.28,0,.56.07.82.21.26.14.48.37.65.68.17.32.26.72.26,1.22v.28ZM30.31,333.66c0-.26-.06-.46-.17-.61-.11-.15-.27-.23-.48-.23s-.37.08-.5.23c-.13.15-.19.36-.19.61h1.34Z" style="fill: #000; stroke-width: 0px;" />
      <path d="M34.79,335.82c-.1.04-.21.08-.33.12-.11.04-.24.07-.39.09-.14.02-.3.04-.47.04-.38,0-.71-.07-.97-.22-.26-.15-.47-.33-.61-.55-.14-.22-.24-.45-.3-.68-.06-.23-.08-.44-.08-.61s.03-.38.08-.61c.06-.23.15-.46.29-.67.14-.22.34-.4.61-.54.26-.15.59-.22.98-.22.26,0,.47.02.63.06.16.04.33.1.5.17v1.11c-.4-.15-.72-.22-.95-.22s-.42.08-.59.23c-.17.15-.26.38-.26.7,0,.21.04.39.13.53.08.14.19.25.32.32.13.07.26.1.39.1.12,0,.26-.02.42-.06.16-.04.35-.1.58-.18v1.11Z" style="fill: #000; stroke-width: 0px;" />
      <path d="M38.74,335.81c-.18.08-.35.15-.5.2-.15.05-.34.07-.55.07-.2,0-.35-.04-.43-.12-.08-.08-.14-.18-.17-.3-.13.12-.28.22-.44.3-.16.08-.38.12-.64.12s-.46-.05-.62-.15c-.16-.1-.27-.23-.33-.38-.06-.15-.09-.31-.09-.47,0-.25.05-.45.16-.61s.25-.29.44-.39c.18-.1.43-.21.73-.32.17-.06.3-.11.39-.14.09-.03.15-.06.2-.08.04-.02.09-.04.14-.07,0-.19-.03-.34-.1-.45-.07-.11-.22-.16-.45-.16-.27,0-.52.07-.75.2-.23.13-.44.31-.64.52v-1.08c.15-.12.32-.23.5-.31.18-.08.37-.14.56-.18.19-.04.39-.06.59-.06.51,0,.89.11,1.14.33.26.22.38.53.38.92v1.54c0,.15.01.25.04.33.02.07.07.11.13.11.08,0,.18-.04.32-.11v.74ZM37.02,335.05v-.94c-.29.13-.51.26-.64.37-.14.11-.2.25-.2.44,0,.13.03.23.1.3.07.07.15.11.24.11.08,0,.17-.03.25-.08.08-.05.17-.12.26-.19Z" style="fill: #000; stroke-width: 0px;" />
      <path d="M42.6,332.03l-2.38,5.79h-1.25l.96-2.33-1.39-3.46h1.33l.71,1.98.81-1.98h1.2Z" style="fill: #000; stroke-width: 0px;" />
    </g>
    <g>
      <path d="M52.3,139.3c-.25.15-.5.26-.76.35s-.52.15-.78.19-.53.06-.81.06c-.52,0-.98-.08-1.39-.24s-.77-.4-1.07-.72c-.3-.32-.53-.69-.68-1.11s-.23-.89-.23-1.4c0-.58.09-1.09.27-1.53.18-.44.43-.8.75-1.09.32-.29.68-.5,1.09-.64s.84-.21,1.29-.21c.68,0,1.44.17,2.3.51v1.8c-.29-.21-.59-.38-.87-.52-.29-.14-.63-.21-1.02-.21-.35,0-.67.08-.97.23s-.54.38-.73.67c-.18.29-.27.63-.27,1.02,0,.34.08.66.24.94.16.28.38.51.67.68s.61.25.96.25c.29,0,.56-.04.82-.12s.47-.17.65-.27.36-.21.54-.35v1.71Z" style="fill: #000; stroke-width: 0px;" />
      <path d="M57.74,137.32c0,.49-.09.94-.28,1.32-.19.39-.47.69-.85.92-.38.22-.84.34-1.38.34s-1-.11-1.38-.34c-.38-.22-.66-.53-.85-.92s-.28-.83-.28-1.32c0-.37.05-.71.16-1.02s.26-.58.48-.81c.21-.24.48-.42.79-.54.31-.13.67-.19,1.08-.19s.78.06,1.09.19c.32.13.58.31.79.54s.36.5.47.81c.11.31.16.65.16,1.03ZM56.11,137.32c0-.39-.08-.7-.23-.93s-.37-.33-.66-.33-.5.11-.65.33-.23.53-.23.93.08.7.23.93.37.34.65.34.5-.11.66-.34.23-.54.23-.93Z" style="fill: #000; stroke-width: 0px;" />
      <path d="M59.82,139.81h-1.55v-6.77h1.55v6.77Z" style="fill: #000; stroke-width: 0px;" />
      <path d="M65.36,137.32c0,.49-.09.94-.28,1.32-.19.39-.47.69-.85.92-.38.22-.83.34-1.38.34s-1-.11-1.38-.34-.66-.53-.85-.92-.28-.83-.28-1.32c0-.37.05-.71.16-1.02s.26-.58.48-.81.48-.42.79-.54c.31-.13.67-.19,1.08-.19s.78.06,1.09.19.58.31.79.54c.21.23.36.5.47.81s.16.65.16,1.03ZM63.73,137.32c0-.39-.08-.7-.23-.93s-.37-.33-.66-.33-.5.11-.65.33-.23.53-.23.93.08.7.23.93c.15.23.37.34.65.34s.5-.11.66-.34.23-.54.23-.93Z" style="fill: #000; stroke-width: 0px;" />
      <path d="M69.66,135.1l-.57,1.76c-.24-.25-.47-.38-.71-.38-.22,0-.41.08-.57.25s-.31.48-.46.93v2.14h-1.55v-4.97h1.55v1.2c.1-.3.27-.58.52-.87.25-.28.54-.42.87-.42.17,0,.33.03.46.09.13.06.29.15.47.27Z" style="fill: #000; stroke-width: 0px;" />
    </g>
    <g>
      <path d="M66.94,94.54l1.13-1.95c-2.75-1.43-5.84-2.3-9.12-2.44v2.26c2.87.14,5.57.89,7.99,2.14Z" style="fill: #000; stroke-width: 0px;" />
      <path d="M74.52,101.39l1.95-1.13c-1.72-2.68-4-4.96-6.68-6.68l-1.13,1.95c2.34,1.52,4.33,3.51,5.85,5.85Z" style="fill: #000; stroke-width: 0px;" />
      <path d="M47.21,95.54l-1.13-1.95c-2.68,1.72-4.96,4-6.68,6.68l1.95,1.13c1.52-2.34,3.51-4.33,5.85-5.85Z" style="fill: #000; stroke-width: 0px;" />
      <path d="M77.66,111.12h2.26c-.15-3.28-1.01-6.37-2.44-9.12l-1.95,1.13c1.24,2.42,1.99,5.13,2.14,8Z" style="fill: #000; stroke-width: 0px;" />
      <path d="M56.94,92.4v-2.26c-3.28.15-6.37,1.01-9.12,2.44l1.13,1.95c2.42-1.24,5.13-1.99,8-2.14Z" style="fill: #000; stroke-width: 0px;" />
      <path d="M41.36,122.85l-1.95,1.13c1.72,2.68,4,4.96,6.68,6.68l1.13-1.95c-2.34-1.52-4.33-3.51-5.85-5.85Z" style="fill: #000; stroke-width: 0px;" />
      <path d="M68.67,128.7l1.13,1.95c2.68-1.72,4.96-4,6.68-6.68l-1.95-1.13c-1.52,2.34-3.51,4.33-5.85,5.85Z" style="fill: #000; stroke-width: 0px;" />
      <path d="M77.66,113.12c-.14,2.87-.89,5.57-2.14,8l1.95,1.13c1.43-2.75,2.3-5.84,2.44-9.12h-2.26Z" style="fill: #000; stroke-width: 0px;" />
      <path d="M38.22,113.12h-2.26c.15,3.28,1.01,6.37,2.44,9.12l1.95-1.13c-1.24-2.42-1.99-5.13-2.14-8Z" style="fill: #000; stroke-width: 0px;" />
      <path d="M40.36,103.12l-1.95-1.13c-1.43,2.75-2.3,5.84-2.44,9.12h2.26c.14-2.87.89-5.57,2.14-8Z" style="fill: #000; stroke-width: 0px;" />
    </g>
    <g>
      <path d="M51.92,197.9c0,.69-.11,1.25-.33,1.67s-.48.76-.78,1.02c-.43.38-1.02.57-1.79.57h-3.21v-6.77h2.48c.37,0,.69.02.96.07s.5.11.72.19c.21.08.39.17.54.27.15.1.28.21.4.32.2.19.38.41.54.67.15.26.27.56.37.89.09.34.14.71.14,1.1ZM50.1,197.81c0-.55-.09-.98-.28-1.29-.19-.31-.41-.51-.67-.62-.26-.1-.52-.16-.79-.16h-.76v4.01h.76c.47,0,.88-.13,1.22-.38s.52-.78.52-1.57Z" style="fill: #000; stroke-width: 0px;" />
      <path d="M56.91,199.1h-3.08c.06.3.21.55.44.74.23.19.5.29.8.29.52,0,1.1-.17,1.73-.5v1.09c-.23.13-.5.25-.82.36-.32.11-.73.16-1.23.16-.54,0-1-.11-1.38-.34-.38-.23-.66-.54-.85-.93s-.28-.83-.28-1.33.09-.92.28-1.31.47-.69.85-.91.84-.33,1.38-.33c.35,0,.7.09,1.03.26.33.17.6.46.82.85.21.4.32.91.32,1.53v.35ZM55.46,198.23c0-.32-.07-.57-.21-.76-.14-.19-.34-.29-.6-.29s-.47.1-.62.29c-.16.19-.24.45-.24.76h1.67Z" style="fill: #000; stroke-width: 0px;" />
      <path d="M61.07,200.93c-.13.06-.27.11-.41.15-.14.05-.3.09-.48.12-.18.03-.38.05-.59.05-.48,0-.88-.09-1.21-.28-.33-.18-.59-.42-.77-.69s-.3-.56-.37-.85c-.07-.29-.1-.54-.1-.77s.03-.48.1-.77c.07-.29.19-.57.37-.84.17-.27.43-.5.76-.68.33-.18.74-.27,1.22-.27.32,0,.59.03.79.08.2.05.41.12.62.21v1.38c-.5-.18-.9-.27-1.18-.27s-.52.09-.73.28c-.21.19-.32.48-.32.88,0,.26.05.49.16.67.11.18.24.31.4.4.16.08.33.13.49.13s.33-.03.53-.08c.2-.05.44-.13.72-.22v1.38Z" style="fill: #000; stroke-width: 0px;" />
      <path d="M66.01,200.91c-.23.1-.44.18-.63.24-.19.06-.42.09-.69.09-.25,0-.43-.05-.53-.15-.1-.1-.17-.23-.21-.37-.17.15-.35.28-.55.38-.2.1-.47.15-.8.15s-.58-.06-.77-.19c-.2-.13-.33-.28-.41-.47s-.12-.39-.12-.59c0-.31.07-.56.2-.76s.32-.36.55-.49.53-.26.91-.4c.21-.08.38-.14.49-.18.11-.04.19-.07.25-.1.05-.02.11-.05.17-.09,0-.24-.04-.43-.13-.57s-.27-.21-.56-.21c-.34,0-.65.08-.94.25-.29.17-.55.39-.79.65v-1.35c.19-.16.4-.28.62-.38.22-.1.46-.17.7-.22.24-.05.49-.07.74-.07.63,0,1.11.14,1.43.42s.48.66.48,1.15v1.92c0,.18.02.32.04.41.03.09.09.13.17.13.1,0,.23-.05.4-.14v.92ZM63.85,199.96v-1.18c-.37.17-.63.32-.8.46-.17.13-.25.32-.25.55,0,.17.04.29.13.38.08.09.18.13.29.13s.21-.03.32-.1c.1-.07.21-.15.32-.24Z" style="fill: #000; stroke-width: 0px;" />
      <path d="M70.83,196.19l-2.97,7.23h-1.56l1.2-2.91-1.73-4.32h1.66l.89,2.47,1.01-2.47h1.5Z" style="fill: #000; stroke-width: 0px;" />
    </g>
    <g>
      <path d="M66.94,155.89l1.13-1.95c-2.75-1.43-5.84-2.3-9.12-2.44v2.26c2.87.14,5.57.89,7.99,2.14Z" style="fill: #000; stroke-width: 0px;" />
      <path d="M74.52,162.74l1.95-1.13c-1.72-2.68-4-4.96-6.68-6.68l-1.13,1.95c2.34,1.52,4.33,3.51,5.85,5.85Z" style="fill: #000; stroke-width: 0px;" />
      <path d="M47.21,156.89l-1.13-1.95c-2.68,1.72-4.96,4-6.68,6.68l1.95,1.13c1.52-2.34,3.51-4.33,5.85-5.85Z" style="fill: #000; stroke-width: 0px;" />
      <path d="M77.66,172.47h2.26c-.15-3.28-1.01-6.37-2.44-9.12l-1.95,1.13c1.24,2.42,1.99,5.13,2.14,8Z" style="fill: #000; stroke-width: 0px;" />
      <path d="M56.94,153.75v-2.26c-3.28.15-6.37,1.01-9.12,2.44l1.13,1.95c2.42-1.24,5.13-1.99,8-2.14Z" style="fill: #000; stroke-width: 0px;" />
      <path d="M41.36,184.2l-1.95,1.13c1.72,2.68,4,4.96,6.68,6.68l1.13-1.95c-2.34-1.52-4.33-3.51-5.85-5.85Z" style="fill: #000; stroke-width: 0px;" />
      <path d="M68.67,190.05l1.13,1.95c2.68-1.72,4.96-4,6.68-6.68l-1.95-1.13c-1.52,2.34-3.51,4.33-5.85,5.85Z" style="fill: #000; stroke-width: 0px;" />
      <path d="M77.66,174.47c-.14,2.87-.89,5.57-2.14,8l1.95,1.13c1.43-2.75,2.3-5.84,2.44-9.12h-2.26Z" style="fill: #000; stroke-width: 0px;" />
      <path d="M38.22,174.47h-2.26c.15,3.28,1.01,6.37,2.44,9.12l1.95-1.13c-1.24-2.42-1.99-5.13-2.14-8Z" style="fill: #000; stroke-width: 0px;" />
      <path d="M40.36,164.48l-1.95-1.13c-1.43,2.75-2.3,5.84-2.44,9.12h2.26c.14-2.87.89-5.57,2.14-8Z" style="fill: #000; stroke-width: 0px;" />
    </g>
    <g>
      <path d="M63.34,8.16s-3.5,4.44-5.53,7.03v-6.03c0-.52-.25-.98-.64-1.18-.39-.19-.84-.08-1.13.29l-7.28,9.25c-.4.5-.38,1.3.03,1.79.41.48,1.06.47,1.46-.03,0,0,3.47-4.41,5.5-6.99v6.03c0,.52.26.98.65,1.17.39.19.84.08,1.13-.29,0,0,3.49-4.44,5.53-7.03v6.15c0,.7.46,1.27,1.03,1.27s1.03-.57,1.03-1.27v-9.29c0-.52-.26-.98-.65-1.17-.39-.19-.84-.08-1.13.3Z" style="fill: #000; stroke: #000; stroke-width: .6px;" />
      <path d="M48.76,8.09l-4.82,6.13c-.4.5-.38,1.3.02,1.79.41.48,1.06.47,1.46-.03,0,0,1.62-2.07,3.05-3.87v6.31c0,.7.46,1.27,1.03,1.27s1.03-.57,1.03-1.27v-9.44c0-.52-.26-.98-.65-1.17-.39-.19-.84-.08-1.13.3Z" style="fill: #000; stroke: #000; stroke-width: .6px;" />
      <path d="M71.71,12.61c-.16-.47-.53-.77-.95-.77h-2.11l1.54-1.95s.8-1.17.09-1.82c-.7-.64-1.58.06-1.58.06l-3.22,4.1c-.29.37-.37.91-.21,1.37.16.47.54.77.95.77h2.11l-2.5,3.17s-1.03,1.13-.27,1.89c.76.76,1.76-.14,1.76-.14l4.18-5.32c.29-.36.37-.91.21-1.37Z" style="fill: #000; stroke: #000; stroke-width: .6px;" />
    </g>
    <g>
      <path d="M51.65,78.38h-4.52v-6.77h1.8v5.15h2.73v1.62Z" style="fill: #000; stroke-width: 0px;" />
      <path d="M56.57,76.32h-3.08c.06.3.21.55.44.74s.5.29.8.29c.52,0,1.1-.17,1.73-.5v1.09c-.23.13-.5.25-.82.36s-.73.16-1.23.16c-.54,0-1-.11-1.38-.34s-.66-.54-.85-.93-.28-.83-.28-1.33.09-.93.28-1.31.47-.69.85-.91.84-.33,1.38-.33c.35,0,.7.09,1.03.26.33.17.6.46.82.85.21.4.32.91.32,1.53v.35ZM55.12,75.45c0-.32-.07-.57-.21-.76-.14-.19-.34-.29-.6-.29s-.47.1-.62.29-.24.45-.24.76h1.67Z" style="fill: #000; stroke-width: 0px;" />
      <path d="M61.59,73.41l-1.99,4.97h-1.14l-1.95-4.97h1.66l.91,2.6,1-2.6h1.5Z" style="fill: #000; stroke-width: 0px;" />
      <path d="M66.24,76.32h-3.08c.06.3.21.55.44.74.24.19.5.29.8.29.52,0,1.1-.17,1.73-.5v1.09c-.23.13-.5.25-.82.36s-.73.16-1.23.16c-.54,0-1-.11-1.38-.34s-.66-.54-.85-.93-.28-.83-.28-1.33.09-.93.28-1.31.47-.69.85-.91.84-.33,1.38-.33c.36,0,.7.09,1.03.26s.6.46.82.85.32.91.32,1.53v.35ZM64.79,75.45c0-.32-.07-.57-.21-.76s-.34-.29-.6-.29-.47.1-.62.29-.24.45-.24.76h1.67Z" style="fill: #000; stroke-width: 0px;" />
      <path d="M68.28,78.38h-1.55v-6.77h1.55v6.77Z" style="fill: #000; stroke-width: 0px;" />
    </g>
    <path d="M66.72,33.03l1.13-1.95c-2.75-1.43-5.84-2.3-9.12-2.44v2.26c2.87.14,5.57.89,7.99,2.14Z" style="fill: #000; stroke-width: 0px;" />
    <path d="M74.3,39.88l1.95-1.13c-1.72-2.68-4-4.96-6.68-6.68l-1.13,1.95c2.34,1.52,4.33,3.51,5.85,5.85Z" style="fill: #000; stroke-width: 0px;" />
    <path d="M47,34.03l-1.13-1.95c-2.68,1.72-4.96,4-6.68,6.68l1.95,1.13c1.52-2.34,3.51-4.33,5.85-5.85Z" style="fill: #000; stroke-width: 0px;" />
    <path d="M77.44,49.61h2.26c-.15-3.28-1.01-6.37-2.44-9.12l-1.95,1.13c1.24,2.42,1.99,5.13,2.14,8Z" style="fill: #000; stroke-width: 0px;" />
    <path d="M56.73,30.89v-2.26c-3.28.15-6.37,1.01-9.12,2.44l1.13,1.95c2.42-1.24,5.13-1.99,8-2.14Z" style="fill: #000; stroke-width: 0px;" />
    <path d="M41.14,61.34l-1.95,1.13c1.72,2.68,4,4.96,6.68,6.68l1.13-1.95c-2.34-1.52-4.33-3.51-5.85-5.85Z" style="fill: #000; stroke-width: 0px;" />
    <path d="M68.45,67.19l1.13,1.95c2.68-1.72,4.96-4,6.68-6.68l-1.95-1.13c-1.52,2.34-3.51,4.33-5.85,5.85Z" style="fill: #000; stroke-width: 0px;" />
    <path d="M77.44,51.61c-.14,2.87-.89,5.57-2.14,8l1.95,1.13c1.43-2.75,2.3-5.84,2.44-9.12h-2.26Z" style="fill: #000; stroke-width: 0px;" />
    <path d="M38.01,51.61h-2.26c.15,3.28,1.01,6.37,2.44,9.12l1.95-1.13c-1.24-2.42-1.99-5.13-2.14-8Z" style="fill: #000; stroke-width: 0px;" />
    <path d="M40.14,41.61l-1.95-1.13c-1.43,2.75-2.3,5.84-2.44,9.12h2.26c.14-2.87.89-5.57,2.14-8Z" style="fill: #000; stroke-width: 0px;" />
  </g>
  <g /></svg>