<svg xmlns="http://www.w3.org/2000/svg" width="50.89mm" height="130.47mm" viewBox="0 0 144.25 369.83">
  <g id="faceplate">
    <rect x="0.13" y="0.13" width="144" height="364.25" style="fill: #ededed;stroke: #9d9d9e;stroke-miterlimit: 10;stroke-width: 0.25px" />
    <g>
      <path d="M131.68,318.76V297.24H110.14c-7.5,0-13.57,6.52-13.57,14.56v30.53H126a5.48,5.48,0,0,0,5.65-5.26V318.76Z" />
      <path d="M12.57,318.76V297.24H34.11c7.5,0,13.57,6.52,13.57,14.56v30.53H18.22a5.48,5.48,0,0,1-5.65-5.26V318.76Z" />
      <path d="M117.41,254.37H26.79a14.24,14.24,0,0,0-14.22,14.18v23.16h0V336.2a5.68,5.68,0,0,0,5.65,5.67H126a5.67,5.67,0,0,0,5.65-5.67V268.55A14.24,14.24,0,0,0,117.41,254.37Z" style="fill: none;stroke: #000;stroke-miterlimit: 10" />
    </g>
    <g>
      <path d="M77.74,6.38l-5.53,7v-6a1.29,1.29,0,0,0-.64-1.17.91.91,0,0,0-1.13.29l-7.28,9.25a1.49,1.49,0,0,0,0,1.79.9.9,0,0,0,1.46,0l5.5-7v6a1.29,1.29,0,0,0,.64,1.17.92.92,0,0,0,1.14-.29s3.49-4.45,5.53-7v6.15a1.05,1.05,0,1,0,2.06,0V7.26a1.26,1.26,0,0,0-.65-1.17A.9.9,0,0,0,77.74,6.38Z" style="stroke: #000;stroke-width: 0.6000000000000001px" />
      <path d="M63.16,6.31l-4.81,6.13a1.47,1.47,0,0,0,0,1.79.9.9,0,0,0,1.46,0l3.05-3.87v6.31a1.05,1.05,0,1,0,2.06,0V7.19A1.31,1.31,0,0,0,64.29,6,.91.91,0,0,0,63.16,6.31Z" style="stroke: #000;stroke-width: 0.6000000000000001px" />
      <path d="M86.11,10.83a1,1,0,0,0-1-.77h-2.1l1.53-2s.8-1.17.1-1.82a1.27,1.27,0,0,0-1.58.06l-3.23,4.1a1.47,1.47,0,0,0-.2,1.38,1.05,1.05,0,0,0,.95.77h2.1l-2.49,3.17s-1,1.13-.27,1.89,1.75-.13,1.75-.13L85.9,12.2A1.47,1.47,0,0,0,86.11,10.83Z" style="stroke: #000;stroke-width: 0.6000000000000001px" />
    </g>
    <g>
      <path d="M68,293.82H66.56v-5.41H68Z" />
      <path d="M72.45,293.82H71.21v-2.14a1.72,1.72,0,0,0-.09-.58.39.39,0,0,0-.41-.24.57.57,0,0,0-.27.06.87.87,0,0,0-.21.17l-.15.19-.13.2v2.34H68.71v-4H70v.57a1.83,1.83,0,0,1,.59-.49,1.38,1.38,0,0,1,.65-.15q1.26,0,1.26,1.71Z" />
      <path d="M78.23,293.82H74.61v-.11a5.77,5.77,0,0,0,.46-.55c.17-.21.39-.49.65-.84.12-.16.24-.32.34-.47s.2-.31.28-.45a2.67,2.67,0,0,0,.19-.48,1.89,1.89,0,0,0,.08-.53,1,1,0,0,0-.19-.61.59.59,0,0,0-.49-.23,1.59,1.59,0,0,0-1.16.68V289l.33-.24.3-.18a2.74,2.74,0,0,1,.41-.15,2,2,0,0,1,.5-.06,1.67,1.67,0,0,1,.8.2,1.56,1.56,0,0,1,.56.58,2,2,0,0,1,.2.89,2.48,2.48,0,0,1-.09.68,3.81,3.81,0,0,1-.19.5l-.27.47c-.19.33-.41.65-.63,1h1.54Z" />
    </g>
    <g>
      <path d="M111,293.82h-1.43v-5.41H111Z" />
      <path d="M115.42,293.82h-1.24v-2.14a1.72,1.72,0,0,0-.09-.58.4.4,0,0,0-.42-.24.53.53,0,0,0-.26.06.87.87,0,0,0-.21.17l-.15.19-.13.2v2.34h-1.24v-4h1.24v.57a1.73,1.73,0,0,1,.59-.49,1.38,1.38,0,0,1,.65-.15q1.26,0,1.26,1.71Z" />
      <path d="M120.91,292.32a1.59,1.59,0,0,1-.15.72,1.37,1.37,0,0,1-.39.49,1.65,1.65,0,0,1-.52.28,1.93,1.93,0,0,1-.52.08,3.48,3.48,0,0,1-.8-.11,3.18,3.18,0,0,1-.73-.28v-1.22a2.44,2.44,0,0,0,.52.39,1.16,1.16,0,0,0,.57.15.74.74,0,0,0,.38-.09.75.75,0,0,0,.23-.24.67.67,0,0,0,.08-.3.76.76,0,0,0-.1-.37.78.78,0,0,0-.28-.26.93.93,0,0,0-.42-.09h-.16v-.87h.19a.67.67,0,0,0,.39-.11.61.61,0,0,0,.23-.25.77.77,0,0,0,.07-.28.63.63,0,0,0-.17-.43.54.54,0,0,0-.43-.19,1.35,1.35,0,0,0-.5.1,2,2,0,0,0-.47.27v-1a4,4,0,0,1,.63-.26,2.31,2.31,0,0,1,.67-.09,1.59,1.59,0,0,1,.9.24,1.46,1.46,0,0,1,.53.58,1.42,1.42,0,0,1,.17.63,1.26,1.26,0,0,1-.1.49,1.44,1.44,0,0,1-.24.42,1.24,1.24,0,0,1-.31.3,1.73,1.73,0,0,1,.51.47A1.52,1.52,0,0,1,120.91,292.32Z" />
    </g>
    <g>
      <path d="M68,336H66.53v-5.42H68Z" />
      <path d="M72.42,336H71.18v-2.15a1.62,1.62,0,0,0-.09-.57.4.4,0,0,0-.42-.24.53.53,0,0,0-.26.06.68.68,0,0,0-.21.17,1.25,1.25,0,0,0-.15.19l-.13.2V336H68.68v-4h1.24v.57a1.77,1.77,0,0,1,.59-.5,1.51,1.51,0,0,1,.65-.14q1.26,0,1.26,1.71Z" />
      <path d="M78.22,334.84h-.56V336H76.39v-1.17H74.45v-1l2.19-3.22h1v3.32h.56Zm-1.83-.93v-1.74l-1.18,1.74Z" />
    </g>
    <g>
      <path d="M25.78,293.82H24.34v-5.41h1.44Z" />
      <path d="M30.24,293.82H29v-2.14a1.5,1.5,0,0,0-.1-.58.39.39,0,0,0-.41-.24.6.6,0,0,0-.27.06,1.06,1.06,0,0,0-.2.17,2.31,2.31,0,0,0-.16.19l-.12.2v2.34H26.5v-4h1.24v.57a1.8,1.8,0,0,1,.58-.49,1.45,1.45,0,0,1,.66-.15q1.26,0,1.26,1.71Z" />
      <path d="M34.85,293.82h-1.3v-5.41h1.3Z" />
    </g>
    <g>
      <path d="M26.79,336H25.35v-5.42h1.44Z" style="fill: #fff" />
      <path d="M31.25,336H30v-2.15a1.42,1.42,0,0,0-.1-.57.39.39,0,0,0-.41-.24.6.6,0,0,0-.27.06.79.79,0,0,0-.2.17c-.06.06-.11.13-.16.19l-.12.2V336H27.51v-4h1.24v.57a1.85,1.85,0,0,1,.58-.5A1.59,1.59,0,0,1,30,332q1.26,0,1.26,1.71Z" style="fill: #fff" />
      <path d="M35.4,332l-1.6,4h-.91l-1.56-4h1.33l.73,2.08.8-2.08Z" style="fill: #fff" />
    </g>
    <g>
      <path d="M114.26,333.3a3.22,3.22,0,0,1-.31,1.39,2.42,2.42,0,0,1-.92,1,2.76,2.76,0,0,1-1.48.38,2.71,2.71,0,0,1-1.49-.39,2.44,2.44,0,0,1-.91-1,3.26,3.26,0,0,1,0-2.73,2.35,2.35,0,0,1,.91-1,2.69,2.69,0,0,1,1.49-.39,2.92,2.92,0,0,1,1.18.22,2.42,2.42,0,0,1,.85.6,2.79,2.79,0,0,1,.51.89A3.43,3.43,0,0,1,114.26,333.3Zm-1.47,0a1.65,1.65,0,0,0-.08-.56,1.32,1.32,0,0,0-.23-.44,1.24,1.24,0,0,0-.39-.29,1.33,1.33,0,0,0-.54-.1,1.13,1.13,0,0,0-.9.38,1.5,1.5,0,0,0-.33,1,1.47,1.47,0,0,0,.33,1,1.12,1.12,0,0,0,.9.39,1.23,1.23,0,0,0,.68-.18,1.19,1.19,0,0,0,.42-.49A1.65,1.65,0,0,0,112.79,333.3Z" style="fill: #fff" />
      <path d="M118.35,336h-1.24v-.57a2,2,0,0,1-.54.48,1.54,1.54,0,0,1-.7.16,1,1,0,0,1-1-.53,2.79,2.79,0,0,1-.23-1.18V332h1.23v2.15a1.45,1.45,0,0,0,.1.57.39.39,0,0,0,.41.24.56.56,0,0,0,.43-.17,2.92,2.92,0,0,0,.32-.45V332h1.24Z" style="fill: #fff" />
      <path d="M121.63,335.78a3.14,3.14,0,0,1-.54.2,2.5,2.5,0,0,1-.64.1c-.9,0-1.34-.5-1.34-1.49V333h-.56v-.25l1.66-1.92h.14V332h1.18v1h-1.18v1.27a3.21,3.21,0,0,0,0,.36.43.43,0,0,0,.14.23.53.53,0,0,0,.34.09,1.68,1.68,0,0,0,.78-.28Z" style="fill: #fff" />
    </g>
    <g>
      <path d="M63.83,357.47H62v-4.31l-1.66,2.5h-.14l-1.67-2.5v4.31H56.73V350H58.4l1.88,2.79L62.16,350h1.67Z" />
      <path d="M67.22,357.47H65.38V350h1.84Z" />
      <path d="M75.66,357.47H73.29l-.64-.93-.39-.58c-.23-.34-.39-.58-.46-.7-.36.58-.65,1-.87,1.37l-.56.84H68l2.59-3.87L68.16,350h2.35l.42.62q.36.54.87,1.35c.31-.57.57-1,.76-1.27L73,350h2.31L73,353.6Z" />
      <path d="M81.07,357.47h-4.6V350H81v1.49H78.31v1.36h2.56v1.5H78.31V356h2.76Z" />
      <path d="M88.21,357.47h-2l-.48-1.32a6.22,6.22,0,0,0-.48-1.06,1.06,1.06,0,0,0-.41-.43,1.28,1.28,0,0,0-.52-.09h-.2v2.9H82.3V350h3.14a2,2,0,0,1,1.24.37,2.24,2.24,0,0,1,.7.92,2.74,2.74,0,0,1,.21,1,2.27,2.27,0,0,1-.18,1,1.65,1.65,0,0,1-.38.57,3.88,3.88,0,0,1-.44.33,1.94,1.94,0,0,1,.49.5,7.47,7.47,0,0,1,.52,1.16Zm-2.5-5.09a.86.86,0,0,0-.27-.72,1.55,1.55,0,0,0-.91-.2h-.38v1.79h.39a1.65,1.65,0,0,0,.92-.18A.79.79,0,0,0,85.71,352.38Z" />
    </g>
    <path d="M126.11,45.78h2.26a21.88,21.88,0,0,0-2.44-9.12l-2,1.12A19.6,19.6,0,0,1,126.11,45.78Z" />
    <path d="M126.11,47.78a19.55,19.55,0,0,1-2.13,8l2,1.13a21.88,21.88,0,0,0,2.44-9.12Z" />
    <g>
      <path d="M28.21,74.12H23.68V67.36h1.8V72.5h2.73Z" />
      <path d="M33.13,72.06H30.05a1.23,1.23,0,0,0,.44.74,1.2,1.2,0,0,0,.8.29,3.68,3.68,0,0,0,1.73-.5v1.09a4.19,4.19,0,0,1-.82.37,4,4,0,0,1-1.24.16,2.6,2.6,0,0,1-1.37-.34,2.18,2.18,0,0,1-.85-.93,3.25,3.25,0,0,1,0-2.64,2.13,2.13,0,0,1,.85-.91A2.7,2.7,0,0,1,31,69.06a2.11,2.11,0,0,1,1,.27,1.93,1.93,0,0,1,.82.85,3.28,3.28,0,0,1,.32,1.53Zm-1.45-.87a1.25,1.25,0,0,0-.21-.76.7.7,0,0,0-.6-.29.75.75,0,0,0-.62.29,1.17,1.17,0,0,0-.24.76Z" />
      <path d="M38.15,69.15l-2,5H35l-2-5h1.66l.91,2.6,1-2.6Z" />
      <path d="M42.8,72.06H39.72a1.2,1.2,0,0,0,.45.74,1.17,1.17,0,0,0,.79.29,3.65,3.65,0,0,0,1.73-.5v1.09a3.94,3.94,0,0,1-.82.37,3.86,3.86,0,0,1-1.23.16,2.62,2.62,0,0,1-1.38-.34,2.18,2.18,0,0,1-.85-.93,3.25,3.25,0,0,1,0-2.64,2.13,2.13,0,0,1,.85-.91,2.71,2.71,0,0,1,1.38-.33,2.14,2.14,0,0,1,1,.27,1.91,1.91,0,0,1,.81.85,3.16,3.16,0,0,1,.32,1.53Zm-1.45-.87a1.25,1.25,0,0,0-.21-.76.7.7,0,0,0-.6-.29.78.78,0,0,0-.62.29,1.17,1.17,0,0,0-.24.76Z" />
      <path d="M44.84,74.12H43.29V67.36h1.55Z" />
      <path d="M50.75,74.12H49.12V67.36h1.63Z" />
    </g>
    <g>
      <path d="M46.85,29.2,48,27.25a22,22,0,0,0-9.13-2.45v2.26A19.61,19.61,0,0,1,46.85,29.2Z" />
      <path d="M54.43,36.05l2-1.12a22,22,0,0,0-6.67-6.68L48.58,30.2A19.77,19.77,0,0,1,54.43,36.05Z" />
      <path d="M27.13,30.2,26,28.25a22.17,22.17,0,0,0-6.68,6.68l1.95,1.12A19.93,19.93,0,0,1,27.13,30.2Z" />
      <path d="M57.57,45.78h2.26a22,22,0,0,0-2.44-9.12l-2,1.12A19.45,19.45,0,0,1,57.57,45.78Z" />
      <path d="M36.85,27.06V24.8a22,22,0,0,0-9.12,2.45l1.13,1.95A19.6,19.6,0,0,1,36.85,27.06Z" />
      <path d="M21.27,57.51l-1.95,1.12A22.17,22.17,0,0,0,26,65.31l1.13-2A20,20,0,0,1,21.27,57.51Z" />
      <path d="M48.58,63.36l1.13,2a22,22,0,0,0,6.67-6.68l-2-1.12A19.89,19.89,0,0,1,48.58,63.36Z" />
      <path d="M57.57,47.78a19.41,19.41,0,0,1-2.14,8l2,1.13a22,22,0,0,0,2.44-9.12Z" />
      <path d="M18.14,47.78H15.88a21.88,21.88,0,0,0,2.44,9.12l1.95-1.13A19.55,19.55,0,0,1,18.14,47.78Z" />
      <path d="M20.27,37.78l-1.95-1.12a21.88,21.88,0,0,0-2.44,9.12h2.26A19.6,19.6,0,0,1,20.27,37.78Z" />
    </g>
    <g>
      <path d="M96.75,74.12H92.22V67.36H94V72.5h2.73Z" />
      <path d="M101.67,72.06H98.59a1.26,1.26,0,0,0,.44.74,1.22,1.22,0,0,0,.8.29,3.68,3.68,0,0,0,1.73-.5v1.09a4.19,4.19,0,0,1-.82.37,3.86,3.86,0,0,1-1.23.16,2.62,2.62,0,0,1-1.38-.34,2.18,2.18,0,0,1-.85-.93A3.13,3.13,0,0,1,97,71.61a3.07,3.07,0,0,1,.28-1.31,2.13,2.13,0,0,1,.85-.91,2.71,2.71,0,0,1,1.38-.33,2.17,2.17,0,0,1,1,.27,1.91,1.91,0,0,1,.81.85,3.16,3.16,0,0,1,.32,1.53Zm-1.45-.87a1.25,1.25,0,0,0-.21-.76.7.7,0,0,0-.6-.29.77.77,0,0,0-.62.29,1.17,1.17,0,0,0-.24.76Z" />
      <path d="M106.69,69.15l-2,5h-1.14l-2-5h1.66l.91,2.6,1-2.6Z" />
      <path d="M111.35,72.06h-3.09a1.22,1.22,0,0,0,.45.74,1.18,1.18,0,0,0,.8.29,3.65,3.65,0,0,0,1.72-.5v1.09a3.94,3.94,0,0,1-.82.37,3.86,3.86,0,0,1-1.23.16,2.62,2.62,0,0,1-1.38-.34,2.16,2.16,0,0,1-.84-.93,3,3,0,0,1-.29-1.33A2.93,2.93,0,0,1,107,70.3a2.11,2.11,0,0,1,.84-.91,2.71,2.71,0,0,1,1.38-.33,2.14,2.14,0,0,1,1,.27,1.91,1.91,0,0,1,.81.85,3.15,3.15,0,0,1,.33,1.53Zm-1.46-.87a1.25,1.25,0,0,0-.21-.76.68.68,0,0,0-.6-.29.78.78,0,0,0-.62.29,1.17,1.17,0,0,0-.24.76Z" />
      <path d="M113.38,74.12h-1.55V67.36h1.55Z" />
      <path d="M120.75,74.12h-4.53V74c.18-.19.37-.42.58-.69s.48-.62.81-1.06c.15-.2.29-.39.42-.58a6.23,6.23,0,0,0,.35-.56,4.17,4.17,0,0,0,.24-.6,2.53,2.53,0,0,0,.1-.67,1.17,1.17,0,0,0-.24-.76.78.78,0,0,0-.61-.29,2,2,0,0,0-1.45.86V68l.41-.29a2.71,2.71,0,0,1,.38-.22,2.09,2.09,0,0,1,.5-.19,2.61,2.61,0,0,1,.64-.08,2.08,2.08,0,0,1,1,.25,1.76,1.76,0,0,1,.7.73,2.33,2.33,0,0,1,.26,1.11,2.84,2.84,0,0,1-.12.84,4.22,4.22,0,0,1-.24.63c-.08.16-.19.36-.33.59a12.92,12.92,0,0,1-.79,1.19h1.93Z" />
    </g>
    <path d="M115.39,29.2l1.13-1.95a21.89,21.89,0,0,0-9.12-2.45v2.26A19.6,19.6,0,0,1,115.39,29.2Z" />
    <path d="M123,36.05l2-1.12a22.17,22.17,0,0,0-6.68-6.68l-1.13,1.95A19.93,19.93,0,0,1,123,36.05Z" />
    <path d="M95.67,30.2l-1.13-1.95a22,22,0,0,0-6.67,6.68l1.95,1.12A19.77,19.77,0,0,1,95.67,30.2Z" />
    <path d="M105.4,27.06V24.8a22,22,0,0,0-9.13,2.45L97.4,29.2A19.61,19.61,0,0,1,105.4,27.06Z" />
    <path d="M89.82,57.51l-1.95,1.12a22,22,0,0,0,6.67,6.68l1.13-2A19.89,19.89,0,0,1,89.82,57.51Z" />
    <path d="M117.12,63.36l1.13,2a22.17,22.17,0,0,0,6.68-6.68l-2-1.12A20,20,0,0,1,117.12,63.36Z" />
    <path d="M86.68,47.78H84.42a22,22,0,0,0,2.44,9.12l2-1.13A19.41,19.41,0,0,1,86.68,47.78Z" />
    <path d="M88.82,37.78l-2-1.12a22,22,0,0,0-2.44,9.12h2.26A19.45,19.45,0,0,1,88.82,37.78Z" />
    <g>
      <path d="M28.21,132.06H23.68v-6.77h1.8v5.15h2.73Z" />
      <path d="M33.13,130H30.05a1.27,1.27,0,0,0,1.24,1,3.8,3.8,0,0,0,1.73-.5v1.09a4.87,4.87,0,0,1-.82.37,4.29,4.29,0,0,1-1.24.16,2.6,2.6,0,0,1-1.37-.34,2.18,2.18,0,0,1-.85-.93,3,3,0,0,1-.28-1.33,2.93,2.93,0,0,1,.28-1.31,2.08,2.08,0,0,1,.85-.91A2.7,2.7,0,0,1,31,127a2.22,2.22,0,0,1,1,.26,2,2,0,0,1,.82.86,3.22,3.22,0,0,1,.32,1.53Zm-1.45-.87a1.25,1.25,0,0,0-.21-.76.7.7,0,0,0-.6-.29.75.75,0,0,0-.62.29,1.17,1.17,0,0,0-.24.76Z" />
      <path d="M38.15,127.09l-2,5H35l-2-5h1.66l.91,2.6,1-2.6Z" />
      <path d="M42.8,130H39.72A1.29,1.29,0,0,0,41,131a3.77,3.77,0,0,0,1.73-.5v1.09a4.53,4.53,0,0,1-.82.37,4.17,4.17,0,0,1-1.23.16,2.62,2.62,0,0,1-1.38-.34,2.18,2.18,0,0,1-.85-.93,3.13,3.13,0,0,1-.28-1.33,3.07,3.07,0,0,1,.28-1.31,2.08,2.08,0,0,1,.85-.91,2.71,2.71,0,0,1,1.38-.33,2.25,2.25,0,0,1,1,.26,2,2,0,0,1,.81.86,3.1,3.1,0,0,1,.32,1.53Zm-1.45-.87a1.25,1.25,0,0,0-.21-.76.7.7,0,0,0-.6-.29.78.78,0,0,0-.62.29,1.17,1.17,0,0,0-.24.76Z" />
      <path d="M44.84,132.06H43.29v-6.77h1.55Z" />
      <path d="M51.84,130.18a2.08,2.08,0,0,1-.19.91,1.64,1.64,0,0,1-.49.61,1.89,1.89,0,0,1-.64.34,2.23,2.23,0,0,1-.66.11,3.72,3.72,0,0,1-1-.15,4,4,0,0,1-.92-.34v-1.52a3.31,3.31,0,0,0,.65.48,1.44,1.44,0,0,0,.72.19.89.89,0,0,0,.47-.12.74.74,0,0,0,.29-.29.85.85,0,0,0,.09-.38.85.85,0,0,0-.46-.78,1.15,1.15,0,0,0-.53-.12H49V128h.23a.87.87,0,0,0,.5-.13.82.82,0,0,0,.28-.31.8.8,0,0,0,.08-.35.84.84,0,0,0-.2-.54.68.68,0,0,0-.54-.24,1.57,1.57,0,0,0-.62.13,2.57,2.57,0,0,0-.6.34v-1.3a5.81,5.81,0,0,1,.79-.31,2.75,2.75,0,0,1,.84-.12,2,2,0,0,1,1.13.3,1.88,1.88,0,0,1,.66.72,1.76,1.76,0,0,1,.21.79,1.66,1.66,0,0,1-.12.61,2.09,2.09,0,0,1-.3.53,1.9,1.9,0,0,1-.39.37,2,2,0,0,1,.63.6A1.8,1.8,0,0,1,51.84,130.18Z" />
    </g>
    <path d="M46.85,87.14l1.13-2a22,22,0,0,0-9.13-2.45V85A19.45,19.45,0,0,1,46.85,87.14Z" />
    <path d="M54.43,94l2-1.13a22.1,22.1,0,0,0-6.67-6.67l-1.13,2A19.77,19.77,0,0,1,54.43,94Z" />
    <path d="M27.13,88.14l-1.13-2a22.25,22.25,0,0,0-6.68,6.67L21.27,94A19.93,19.93,0,0,1,27.13,88.14Z" />
    <path d="M57.57,103.72h2.26a22,22,0,0,0-2.44-9.12l-2,1.12A19.45,19.45,0,0,1,57.57,103.72Z" />
    <path d="M36.85,85V82.74a22,22,0,0,0-9.12,2.45l1.13,2A19.45,19.45,0,0,1,36.85,85Z" />
    <path d="M21.27,115.44l-1.95,1.13A22.17,22.17,0,0,0,26,123.25l1.13-2A20,20,0,0,1,21.27,115.44Z" />
    <path d="M48.58,121.3l1.13,2a22,22,0,0,0,6.67-6.68l-2-1.13A19.81,19.81,0,0,1,48.58,121.3Z" />
    <path d="M57.57,105.72a19.41,19.41,0,0,1-2.14,8l2,1.13a22,22,0,0,0,2.44-9.12Z" />
    <path d="M18.14,105.72H15.88a21.88,21.88,0,0,0,2.44,9.12l1.95-1.13A19.55,19.55,0,0,1,18.14,105.72Z" />
    <path d="M20.27,95.72,18.32,94.6a21.88,21.88,0,0,0-2.44,9.12h2.26A19.6,19.6,0,0,1,20.27,95.72Z" />
    <g>
      <path d="M96.75,132.06H92.22v-6.77H94v5.15h2.73Z" />
      <path d="M101.67,130H98.59a1.26,1.26,0,0,0,.44.74,1.22,1.22,0,0,0,.8.29,3.8,3.8,0,0,0,1.73-.5v1.09a3.65,3.65,0,0,1-2,.53,2.62,2.62,0,0,1-1.38-.34,2.18,2.18,0,0,1-.85-.93,3.13,3.13,0,0,1-.28-1.33,3.07,3.07,0,0,1,.28-1.31,2.13,2.13,0,0,1,.85-.91,2.71,2.71,0,0,1,1.38-.33,2.28,2.28,0,0,1,1,.26,2,2,0,0,1,.81.86,3.1,3.1,0,0,1,.32,1.53Zm-1.45-.87a1.25,1.25,0,0,0-.21-.76.7.7,0,0,0-.6-.29.77.77,0,0,0-.62.29,1.17,1.17,0,0,0-.24.76Z" />
      <path d="M106.69,127.09l-2,5h-1.14l-2-5h1.66l.91,2.6,1-2.6Z" />
      <path d="M111.35,130h-3.09a1.22,1.22,0,0,0,.45.74,1.18,1.18,0,0,0,.8.29,3.77,3.77,0,0,0,1.72-.5v1.09a3.94,3.94,0,0,1-.82.37,4.17,4.17,0,0,1-1.23.16,2.62,2.62,0,0,1-1.38-.34,2.16,2.16,0,0,1-.84-.93,3,3,0,0,1-.29-1.33,2.93,2.93,0,0,1,.29-1.31,2.11,2.11,0,0,1,.84-.91,2.71,2.71,0,0,1,1.38-.33,2.25,2.25,0,0,1,1,.26,2,2,0,0,1,.81.86,3.1,3.1,0,0,1,.33,1.53Zm-1.46-.87a1.25,1.25,0,0,0-.21-.76.68.68,0,0,0-.6-.29.78.78,0,0,0-.62.29,1.17,1.17,0,0,0-.24.76Z" />
      <path d="M113.38,132.06h-1.55v-6.77h1.55Z" />
      <path d="M120.77,130.6h-.7v1.46h-1.59V130.6h-2.42v-1.29l2.73-4h1.28v4.15h.7Zm-2.29-1.16v-2.17L117,129.44Z" />
    </g>
    <path d="M115.39,87.14l1.13-2a21.89,21.89,0,0,0-9.12-2.45V85A19.45,19.45,0,0,1,115.39,87.14Z" />
    <path d="M123,94l2-1.13a22.25,22.25,0,0,0-6.68-6.67l-1.13,2A19.93,19.93,0,0,1,123,94Z" />
    <path d="M95.67,88.14l-1.13-2a22.1,22.1,0,0,0-6.67,6.67L89.82,94A19.77,19.77,0,0,1,95.67,88.14Z" />
    <path d="M126.11,103.72h2.26a21.88,21.88,0,0,0-2.44-9.12l-2,1.12A19.6,19.6,0,0,1,126.11,103.72Z" />
    <path d="M105.4,85V82.74a22,22,0,0,0-9.13,2.45l1.13,2A19.45,19.45,0,0,1,105.4,85Z" />
    <path d="M89.82,115.44l-1.95,1.13a22,22,0,0,0,6.67,6.68l1.13-2A19.81,19.81,0,0,1,89.82,115.44Z" />
    <path d="M117.12,121.3l1.13,2a22.17,22.17,0,0,0,6.68-6.68l-2-1.13A20,20,0,0,1,117.12,121.3Z" />
    <path d="M126.11,105.72a19.55,19.55,0,0,1-2.13,8l2,1.13a21.88,21.88,0,0,0,2.44-9.12Z" />
    <path d="M86.68,105.72H84.42a22,22,0,0,0,2.44,9.12l2-1.13A19.41,19.41,0,0,1,86.68,105.72Z" />
    <path d="M88.82,95.72l-2-1.12a22,22,0,0,0-2.44,9.12h2.26A19.45,19.45,0,0,1,88.82,95.72Z" />
  </g>
  <g /></svg>