<svg xmlns="http://www.w3.org/2000/svg" width="1.12in" height="5.07in" viewBox="0 0 80.66 364.76">
  <g id="artwork">
    <rect width="80.66" height="364.25" style="fill: #231f20; stroke-width: 0px;" />
    <g>
      <path d="M67.47,8.05s-3.54,4.5-5.61,7.13v-6.11c0-.52-.26-.99-.65-1.19-.4-.2-.85-.08-1.14.3l-7.37,9.37c-.4.51-.39,1.32.03,1.81.41.49,1.08.48,1.48-.03,0,0,3.51-4.47,5.57-7.08v6.11c0,.52.26.99.66,1.19.4.2.85.08,1.15-.3,0,0,3.54-4.5,5.6-7.12v6.23c0,.71.47,1.28,1.04,1.28s1.05-.57,1.05-1.28v-9.41c0-.52-.26-.99-.66-1.19-.4-.2-.85-.08-1.14.3Z" style="fill: #fff; stroke: #fff; stroke-miterlimit: 10; stroke-width: .81px;" />
      <path d="M52.69,7.98l-4.88,6.21c-.4.51-.39,1.32.02,1.81.42.49,1.08.48,1.48-.03,0,0,1.65-2.1,3.09-3.92v6.39c0,.71.46,1.28,1.04,1.28s1.05-.57,1.05-1.28v-9.57c0-.52-.26-.99-.65-1.19-.4-.2-.85-.08-1.15.3Z" style="fill: #fff; stroke: #fff; stroke-miterlimit: 10; stroke-width: .81px;" />
      <path d="M75.95,12.56c-.16-.47-.54-.78-.96-.78h-2.13l1.56-1.98s.81-1.19.09-1.84c-.71-.65-1.6.06-1.6.06l-3.27,4.15c-.29.37-.37.92-.21,1.39.16.47.54.78.96.78h2.14l-2.53,3.21s-1.05,1.14-.27,1.92c.77.77,1.78-.14,1.78-.14l4.24-5.39c.29-.37.38-.92.21-1.39Z" style="fill: #fff; stroke: #fff; stroke-miterlimit: 10; stroke-width: .81px;" />
    </g>
    <path d="M61.75,333.46c-2.24,0-4.05-1.43-4.05-3.19v-4.54h8.88v4.54c0,1.76-1.81,3.19-4.05,3.19h-.78Z" style="fill: #fff; stroke-width: 0px;" />
    <path d="M18.2,333.46c-2.24,0-4.05-1.43-4.05-3.19v-4.54h8.88v4.54c0,1.76-1.81,3.19-4.05,3.19h-.78Z" style="fill: #fff; stroke-width: 0px;" />
    <path d="M61.75,292.06c-2.24,0-4.05-1.43-4.05-3.19v-4.54h8.88v4.54c0,1.76-1.81,3.19-4.05,3.19h-.78Z" style="fill: #fff; stroke-width: 0px;" />
    <path d="M18.2,292.06c-2.24,0-4.05-1.43-4.05-3.19v-4.54h8.88v4.54c0,1.76-1.81,3.19-4.05,3.19h-.78Z" style="fill: #fff; stroke-width: 0px;" />
    <path d="M61.75,250.66c-2.24,0-4.05-1.43-4.05-3.19v-4.54h8.88v4.54c0,1.76-1.81,3.19-4.05,3.19h-.78Z" style="fill: #fff; stroke-width: 0px;" />
    <path d="M18.2,250.66c-2.24,0-4.05-1.43-4.05-3.19v-4.54h8.88v4.54c0,1.76-1.81,3.19-4.05,3.19h-.78Z" style="fill: #fff; stroke-width: 0px;" />
    <path d="M61.75,209.26c-2.24,0-4.05-1.43-4.05-3.19v-4.54h8.88v4.54c0,1.76-1.81,3.19-4.05,3.19h-.78Z" style="fill: #fff; stroke-width: 0px;" />
    <path d="M18.2,209.26c-2.24,0-4.05-1.43-4.05-3.19v-4.54h8.88v4.54c0,1.76-1.81,3.19-4.05,3.19h-.78Z" style="fill: #fff; stroke-width: 0px;" />
    <path d="M18.59,203.29c8.88,0,16.09-7.2,16.09-16.09,0-8.88-7.2-16.09-16.09-16.09-8.88,0-16.09,7.2-16.09,16.09s7.2,16.09,16.09,16.09Z" style="fill: #fff; stroke: #fff; stroke-linejoin: round; stroke-width: .28px;" />
    <path d="M61.54,171.98H29.4c5.68,2.86,8.32,10.17,8.32,15.46s-2.66,12.13-8.36,14.98h32.18c8.82,0,15.25-6.81,15.25-15.22,0-8.41-6.43-15.22-15.25-15.22Z" style="fill: #fff; stroke: #fff; stroke-linejoin: round; stroke-width: .28px;" />
    <path d="M18.59,244.69c8.88,0,16.09-7.2,16.09-16.09,0-8.88-7.2-16.09-16.09-16.09-8.88,0-16.09,7.2-16.09,16.09s7.2,16.09,16.09,16.09Z" style="fill: #fff; stroke: #fff; stroke-linejoin: round; stroke-width: .28px;" />
    <path d="M61.54,213.38H29.4c5.68,2.86,8.32,10.17,8.32,15.46s-2.66,12.13-8.36,14.98h32.18c8.82,0,15.25-6.81,15.25-15.22,0-8.41-6.43-15.22-15.25-15.22Z" style="fill: #fff; stroke: #fff; stroke-linejoin: round; stroke-width: .28px;" />
    <path d="M18.59,286.09c8.88,0,16.09-7.2,16.09-16.09,0-8.88-7.2-16.09-16.09-16.09-8.88,0-16.09,7.2-16.09,16.09s7.2,16.09,16.09,16.09Z" style="fill: #fff; stroke: #fff; stroke-linejoin: round; stroke-width: .28px;" />
    <path d="M61.54,254.78H29.4c5.68,2.86,8.32,10.17,8.32,15.46s-2.66,12.13-8.36,14.98h32.18c8.82,0,15.25-6.81,15.25-15.22,0-8.41-6.43-15.22-15.25-15.22Z" style="fill: #fff; stroke: #fff; stroke-linejoin: round; stroke-width: .28px;" />
    <path d="M18.59,327.49c8.88,0,16.09-7.2,16.09-16.09,0-8.88-7.2-16.09-16.09-16.09-8.88,0-16.09,7.2-16.09,16.09s7.2,16.09,16.09,16.09Z" style="fill: #fff; stroke: #fff; stroke-linejoin: round; stroke-width: .28px;" />
    <path d="M61.54,296.18H29.4c5.68,2.86,8.32,10.17,8.32,15.46s-2.66,12.13-8.36,14.98h32.18c8.82,0,15.25-6.81,15.25-15.22,0-8.41-6.43-15.22-15.25-15.22Z" style="fill: #fff; stroke: #fff; stroke-linejoin: round; stroke-width: .28px;" />
    <path d="M18.44,151.1c8.88,0,16.09-7.2,16.09-16.09,0-8.88-7.2-16.09-16.09-16.09-8.88,0-16.09,7.2-16.09,16.09s7.2,16.09,16.09,16.09Z" style="fill: none; stroke: #fff; stroke-miterlimit: 10;" />
    <path d="M61.54,119.79H29.22c5.68,2.86,8.32,10.17,8.32,15.46s-2.66,12.13-8.36,14.98h32.37c8.82,0,15.25-6.81,15.25-15.22s-6.43-15.22-15.25-15.22Z" style="fill: none; stroke: #fff; stroke-linejoin: round;" />
    <path d="M18.44,109.7c8.88,0,16.09-7.2,16.09-16.09,0-8.88-7.2-16.09-16.09-16.09-8.88,0-16.09,7.2-16.09,16.09s7.2,16.09,16.09,16.09Z" style="fill: none; stroke: #fff; stroke-miterlimit: 10;" />
    <path d="M61.54,78.39H29.22c5.68,2.86,8.32,10.17,8.32,15.46s-2.66,12.13-8.36,14.98h32.37c8.82,0,15.25-6.81,15.25-15.22s-6.43-15.22-15.25-15.22Z" style="fill: none; stroke: #fff; stroke-linejoin: round;" />
    <path d="M18.44,68.3c8.88,0,16.09-7.2,16.09-16.09,0-8.88-7.2-16.09-16.09-16.09-8.88,0-16.09,7.2-16.09,16.09s7.2,16.09,16.09,16.09Z" style="fill: none; stroke: #fff; stroke-miterlimit: 10;" />
    <path d="M61.54,36.99H29.22c5.68,2.86,8.32,10.17,8.32,15.46s-2.66,12.13-8.36,14.98h32.37c8.82,0,15.25-6.81,15.25-15.22s-6.43-15.22-15.25-15.22Z" style="fill: none; stroke: #fff; stroke-linejoin: round;" />
    <path d="M12.03,157.79h-1.19v-4.74h1.19v4.74Z" style="fill: #fff; stroke-width: 0px;" />
    <path d="M17.29,157.79h-1.05l-2.04-2.64v2.64h-1.17v-4.74h1.05l2.03,2.62v-2.62h1.18v4.74Z" style="fill: #fff; stroke-width: 0px;" />
    <path d="M21.77,157.79h-1.08v-4.74h1.08v4.74Z" style="fill: #fff; stroke-width: 0px;" />
    <path d="M25.23,157.79h-1.08v-4.74h1.08v4.74Z" style="fill: #fff; stroke-width: 0px;" />
    <path d="M55.27,157.79h-1.19v-4.74h1.19v4.74Z" style="fill: #fff; stroke-width: 0px;" />
    <path d="M60.53,157.79h-1.05l-2.04-2.64v2.64h-1.17v-4.74h1.05l2.03,2.62v-2.62h1.18v4.74Z" style="fill: #fff; stroke-width: 0px;" />
    <path d="M65.01,157.79h-1.08v-4.74h1.08v4.74Z" style="fill: #fff; stroke-width: 0px;" />
    <path d="M69.43,157.79h-2.99v-.09c.12-.13.24-.3.38-.48.14-.19.32-.43.53-.74.1-.14.19-.28.28-.41.09-.13.16-.26.23-.39.06-.13.12-.27.16-.42.04-.15.07-.31.07-.47,0-.22-.05-.4-.16-.53-.11-.14-.24-.2-.4-.2-.32,0-.64.2-.96.6v-1.12c.11-.09.2-.16.28-.21.07-.05.15-.1.25-.15.09-.05.2-.09.33-.13.13-.04.27-.05.42-.05.24,0,.46.06.66.18.2.12.35.29.46.51.11.22.17.48.17.78,0,.21-.03.41-.08.59-.05.18-.1.33-.16.44s-.13.25-.22.41c-.16.29-.34.57-.52.83h1.27v1.06Z" style="fill: #fff; stroke-width: 0px;" />
    <path d="M20.8,167.09h-1.56l-.41-1.23h-2.2l-.42,1.23h-1.56l2.24-6.09h1.68l2.23,6.09ZM18.47,164.8l-.74-2.22-.75,2.22h1.49Z" style="fill: #fff; stroke-width: 0px;" />
    <path d="M25.27,167.09h-1.31v-.64c-.19.24-.38.42-.58.54-.2.12-.45.18-.73.18-.56,0-.92-.2-1.09-.59-.17-.39-.25-.84-.25-1.33v-2.63h1.31v2.42c0,.24.03.46.1.64.07.18.21.27.44.27.19,0,.34-.07.46-.2.11-.13.23-.3.34-.51v-2.63h1.31v4.47Z" style="fill: #fff; stroke-width: 0px;" />
    <path d="M30.04,167.09h-1.32v-.4c-.14.14-.29.26-.44.35-.15.09-.37.14-.64.14s-.54-.08-.79-.24-.47-.41-.64-.75c-.17-.34-.25-.77-.25-1.29,0-.41.06-.79.19-1.14.13-.36.33-.65.59-.87s.6-.33.99-.33c.24,0,.44.03.59.1s.28.15.4.25v-1.88h1.32v6.09ZM28.72,165.67v-1.71c-.15-.1-.27-.18-.36-.22-.09-.04-.19-.07-.3-.07-.21,0-.38.11-.52.32-.14.21-.21.5-.21.86,0,.4.07.68.22.86.14.18.31.27.5.27.16,0,.29-.03.38-.09.1-.06.19-.14.28-.23Z" style="fill: #fff; stroke-width: 0px;" />
    <path d="M32.25,167.09h-1.32v-4.47h1.32v4.47ZM32.15,161.59c0,.18-.05.34-.16.47s-.24.19-.39.19c-.1,0-.2-.03-.28-.09s-.15-.14-.2-.24c-.05-.1-.07-.21-.07-.34,0-.18.05-.34.16-.47.11-.13.24-.2.39-.2s.28.07.39.2.16.29.16.47Z" style="fill: #fff; stroke-width: 0px;" />
    <path d="M37.26,164.85c0,.45-.08.84-.24,1.19-.16.35-.4.62-.72.83-.32.2-.71.3-1.17.3s-.85-.1-1.17-.3c-.32-.2-.56-.48-.72-.83-.16-.35-.24-.75-.24-1.19,0-.34.04-.64.13-.92.09-.27.22-.52.41-.73.18-.21.4-.38.67-.49.27-.12.57-.17.92-.17s.66.06.93.17c.27.12.49.28.67.49.18.21.31.45.4.73.09.28.14.59.14.92ZM35.87,164.85c0-.35-.06-.63-.19-.83-.13-.2-.31-.3-.56-.3s-.42.1-.55.3c-.13.2-.19.48-.19.83s.06.63.19.83.31.31.55.31.43-.1.56-.31c.13-.2.19-.48.19-.84Z" style="fill: #fff; stroke-width: 0px;" />
    <path d="M41.36,160.92l-2.75,6.25h-.98l2.75-6.25h.98Z" style="fill: #fff; stroke-width: 0px;" />
    <path d="M46.63,166.64c-.21.13-.42.24-.64.32s-.44.14-.66.17c-.22.03-.45.05-.69.05-.44,0-.83-.07-1.18-.22s-.65-.36-.91-.65c-.26-.29-.45-.62-.58-1-.13-.38-.19-.8-.19-1.26,0-.52.08-.98.23-1.38.15-.39.36-.72.63-.98.27-.26.58-.45.93-.58.35-.12.71-.19,1.1-.19.57,0,1.22.15,1.95.46v1.62c-.25-.19-.5-.34-.74-.47-.25-.12-.53-.19-.86-.19-.29,0-.57.07-.82.21-.25.14-.46.34-.62.6s-.23.57-.23.91c0,.31.07.59.2.85.14.26.33.46.57.61.24.15.51.23.82.23.25,0,.48-.04.7-.11.22-.07.4-.15.55-.24.15-.09.3-.19.46-.31v1.54Z" style="fill: #fff; stroke-width: 0px;" />
    <path d="M52.6,161l-2.28,6.17h-1.01l-2.24-6.17h1.59l1.16,3.52,1.19-3.52h1.59Z" style="fill: #fff; stroke-width: 0px;" />
    <path d="M57.04,167.09h-1.53v-6.09h1.53v6.09Z" style="fill: #fff; stroke-width: 0px;" />
    <path d="M62.07,167.09h-1.31v-2.41c0-.25-.03-.46-.1-.64-.07-.18-.21-.27-.44-.27-.11,0-.2.02-.28.07-.08.05-.16.11-.22.19-.06.08-.12.15-.16.22-.04.07-.09.14-.13.22v2.63h-1.31v-4.47h1.31v.64c.21-.27.41-.45.62-.56.21-.11.44-.16.69-.16.89,0,1.33.64,1.33,1.92v2.63Z" style="fill: #fff; stroke-width: 0px;" />
    <path d="M65.76,165.79c0,.41-.12.74-.37,1-.25.26-.62.38-1.11.38-.27,0-.52-.03-.73-.09-.21-.06-.45-.15-.7-.26v-1.12c.22.15.41.27.58.35s.34.12.54.12c.33,0,.49-.11.49-.32,0-.07-.02-.14-.07-.2-.05-.06-.13-.12-.25-.19-.12-.07-.28-.16-.47-.26-.24-.13-.45-.3-.62-.52-.17-.22-.26-.48-.26-.8,0-.22.06-.44.17-.64s.28-.37.51-.5c.23-.13.5-.2.83-.2.08,0,.18,0,.3.02.12.01.27.05.46.1s.36.13.52.24v1.09c-.08-.06-.14-.1-.2-.14-.05-.04-.12-.08-.21-.13s-.19-.09-.31-.12c-.12-.04-.24-.06-.36-.06-.15,0-.25.04-.31.11-.06.07-.08.14-.08.21,0,.07.03.14.09.21.06.06.19.14.39.23.29.14.53.27.7.42.17.14.3.3.37.47s.11.37.11.6Z" style="fill: #fff; stroke-width: 0px;" />
    <path d="M19.93,205.25c0,.31-.06.61-.17.92s-.28.6-.5.88-.47.54-.75.76l-.88-.33c.41-.4.71-.76.91-1.1-.06.02-.14.03-.24.03-.21,0-.4-.05-.58-.16-.18-.11-.32-.26-.42-.47-.1-.2-.16-.43-.16-.69,0-.19.03-.37.1-.54s.16-.33.28-.47c.12-.14.27-.25.44-.33s.36-.12.56-.12c.23,0,.43.04.61.13.18.09.33.21.45.36.12.15.21.32.27.51.06.19.09.39.09.6ZM18.99,205.12c0-.16-.04-.29-.13-.4-.09-.11-.2-.16-.33-.16-.11,0-.2.03-.27.09-.07.06-.12.14-.16.22-.03.09-.05.17-.05.25,0,.19.05.32.14.41.09.09.2.13.32.13.11,0,.21-.03.28-.09.07-.06.12-.13.15-.21s.04-.16.04-.24Z" style="fill: #231f20; stroke-width: 0px;" />
    <path d="M61.05,207.76h-.98v-4.06h.98v4.06Z" style="fill: #231f20; stroke-width: 0px;" />
    <path d="M64.88,205.73c0,.35-.04.66-.11.93-.07.27-.18.48-.31.65s-.28.29-.44.38c-.17.08-.34.12-.53.12s-.36-.04-.53-.12c-.17-.08-.31-.21-.44-.38s-.23-.39-.31-.65c-.07-.26-.11-.57-.11-.93s.04-.67.11-.93c.08-.26.18-.48.3-.65s.28-.3.44-.38c.17-.08.34-.12.53-.12s.37.04.53.12.31.21.45.38c.13.17.23.39.31.66.07.27.11.57.11.93ZM63.87,205.73c0-.36-.02-.65-.06-.88s-.15-.35-.31-.35c-.11,0-.2.06-.25.19s-.09.28-.1.45-.02.37-.02.59c0,.38.02.68.06.9.04.21.15.32.31.32s.27-.11.31-.32c.04-.21.06-.51.06-.9Z" style="fill: #231f20; stroke-width: 0px;" />
    <path d="M17.55,249.16h-.98v-4.06h.98v4.06Z" style="fill: #231f20; stroke-width: 0px;" />
    <path d="M20.48,249.16h-.98v-4.06h.98v4.06Z" style="fill: #231f20; stroke-width: 0px;" />
    <path d="M61.05,249.16h-.98v-4.06h.98v4.06Z" style="fill: #231f20; stroke-width: 0px;" />
    <path d="M64.85,249.16h-2.71v-.08c.1-.12.22-.25.35-.41.12-.16.29-.37.48-.64.09-.12.18-.24.26-.35.08-.12.15-.23.2-.33.06-.11.11-.23.14-.36.04-.13.06-.26.06-.4,0-.19-.05-.34-.14-.46-.09-.12-.22-.17-.36-.17-.29,0-.58.17-.87.52v-.96c.1-.07.18-.13.25-.18s.14-.09.23-.13.19-.08.3-.11.24-.05.38-.05c.22,0,.42.05.6.15s.32.25.42.44c.1.19.15.41.15.67,0,.18-.02.35-.07.5-.05.16-.09.28-.14.38s-.12.21-.2.35c-.15.25-.31.49-.47.71h1.16v.91Z" style="fill: #231f20; stroke-width: 0px;" />
    <path d="M17.55,290.56h-.98v-4.06h.98v4.06Z" style="fill: #231f20; stroke-width: 0px;" />
    <path d="M21.14,289.43c0,.21-.04.39-.11.54s-.17.27-.29.37c-.12.09-.25.16-.38.21-.14.04-.27.06-.39.06-.18,0-.38-.03-.6-.09-.22-.06-.4-.13-.55-.21v-.91c.12.11.25.21.39.29.14.08.28.12.43.12.11,0,.21-.02.28-.07.08-.05.13-.11.17-.18.04-.07.06-.15.06-.23,0-.1-.02-.2-.07-.28s-.12-.14-.21-.19-.2-.07-.32-.07h-.12v-.65h.14c.12,0,.22-.03.3-.08.08-.05.13-.12.17-.19.04-.07.05-.14.05-.21,0-.12-.04-.23-.12-.33-.08-.09-.19-.14-.32-.14-.12,0-.24.03-.37.08s-.25.12-.36.21v-.78c.17-.08.33-.14.48-.19s.32-.07.5-.07c.27,0,.5.06.68.18.18.12.31.26.4.43.08.17.12.33.12.48,0,.12-.02.24-.07.36-.05.12-.11.23-.18.32-.08.09-.15.17-.23.22.14.09.27.21.38.36.11.15.17.37.17.64Z" style="fill: #231f20; stroke-width: 0px;" />
    <path d="M61.05,290.56h-.98v-4.06h.98v4.06Z" style="fill: #231f20; stroke-width: 0px;" />
    <path d="M64.87,289.68h-.42v.88h-.95v-.88h-1.45v-.77l1.64-2.41h.77v2.49h.42v.7ZM63.5,288.99v-1.3l-.89,1.3h.89Z" style="fill: #231f20; stroke-width: 0px;" />
    <path d="M17.61,331.96h-.98v-4.06h.98v4.06Z" style="fill: #231f20; stroke-width: 0px;" />
    <path d="M21.23,330.69c0,.23-.05.45-.14.65s-.24.37-.43.49c-.19.12-.42.18-.7.18-.22,0-.43-.03-.63-.1s-.39-.16-.55-.29v-.88c.11.09.27.19.47.28s.37.14.52.14c.18,0,.3-.05.37-.16.07-.1.11-.21.11-.32,0-.09-.02-.18-.06-.26-.04-.08-.11-.15-.21-.2-.1-.05-.24-.08-.41-.08-.19,0-.37.04-.54.12v-2.37h2.07v.86h-1.28v.7s.06,0,.09,0c.03,0,.05,0,.06,0s.04,0,.08,0c.24,0,.45.06.63.17.18.12.32.27.42.46.1.19.15.4.15.62Z" style="fill: #231f20; stroke-width: 0px;" />
    <path d="M61.05,331.96h-.98v-4.06h.98v4.06Z" style="fill: #231f20; stroke-width: 0px;" />
    <path d="M64.89,330.56c0,.19-.03.37-.1.54s-.16.33-.28.47-.27.25-.44.33c-.17.08-.36.12-.56.12-.3,0-.55-.07-.77-.22-.22-.15-.38-.35-.48-.59-.11-.24-.16-.51-.16-.79,0-.23.03-.46.1-.69.07-.23.17-.46.29-.69.13-.23.28-.44.45-.63.17-.2.37-.38.58-.56l.88.33c-.14.14-.26.26-.37.37-.1.11-.2.23-.29.35-.09.12-.18.25-.25.37.07-.02.14-.03.24-.03.21,0,.4.05.58.16s.32.26.42.47c.1.2.16.43.16.69ZM63.96,330.54c0-.19-.05-.33-.14-.42-.09-.09-.2-.13-.32-.13-.16,0-.28.06-.36.18-.08.12-.11.24-.11.37,0,.16.04.29.13.4s.2.16.33.16c.11,0,.2-.03.27-.09s.12-.13.16-.22c.03-.09.05-.17.05-.25Z" style="fill: #231f20; stroke-width: 0px;" />
    <path d="M17.27,341h-1.56l-.41-1.23h-2.2l-.42,1.23h-1.56l2.24-6.09h1.68l2.23,6.09ZM14.95,338.71l-.74-2.22-.75,2.22h1.49Z" style="fill: #fff; stroke-width: 0px;" />
    <path d="M21.74,341h-1.31v-.64c-.19.24-.38.42-.58.54-.2.12-.45.18-.73.18-.56,0-.92-.2-1.09-.59-.17-.39-.25-.84-.25-1.33v-2.63h1.31v2.42c0,.24.03.46.1.64.07.18.21.27.44.27.19,0,.34-.07.46-.2.11-.13.23-.3.34-.51v-2.63h1.31v4.47Z" style="fill: #fff; stroke-width: 0px;" />
    <path d="M26.51,341h-1.32v-.4c-.14.14-.29.26-.44.35-.15.09-.37.14-.64.14s-.54-.08-.79-.24-.47-.41-.64-.75c-.17-.34-.25-.77-.25-1.29,0-.41.06-.79.19-1.14.13-.36.33-.65.59-.87s.6-.33.99-.33c.24,0,.44.03.59.1s.28.15.4.25v-1.88h1.32v6.09ZM25.2,339.58v-1.71c-.15-.1-.27-.18-.36-.22-.09-.04-.19-.07-.3-.07-.21,0-.38.11-.52.32-.14.21-.21.5-.21.86,0,.4.07.68.22.86.14.18.31.27.5.27.16,0,.29-.03.38-.09.1-.06.19-.14.28-.23Z" style="fill: #fff; stroke-width: 0px;" />
    <path d="M28.73,341h-1.32v-4.47h1.32v4.47ZM28.62,335.49c0,.18-.05.34-.16.47s-.24.19-.39.19c-.1,0-.2-.03-.28-.09s-.15-.14-.2-.24c-.05-.1-.07-.21-.07-.34,0-.18.05-.34.16-.47.11-.13.24-.2.39-.2s.28.07.39.2.16.29.16.47Z" style="fill: #fff; stroke-width: 0px;" />
    <path d="M33.73,338.76c0,.45-.08.84-.24,1.19-.16.35-.4.62-.72.83-.32.2-.71.3-1.17.3s-.85-.1-1.17-.3c-.32-.2-.56-.48-.72-.83-.16-.35-.24-.75-.24-1.19,0-.34.04-.64.13-.92.09-.27.22-.52.41-.73.18-.21.4-.38.67-.49.27-.12.57-.17.92-.17s.66.06.93.17c.27.12.49.28.67.49.18.21.31.45.4.73.09.28.14.59.14.92ZM32.35,338.76c0-.35-.06-.63-.19-.83-.13-.2-.31-.3-.56-.3s-.42.1-.55.3c-.13.2-.19.48-.19.83s.06.63.19.83.31.31.55.31.43-.1.56-.31c.13-.2.19-.48.19-.84Z" style="fill: #fff; stroke-width: 0px;" />
    <path d="M37.83,334.83l-2.75,6.25h-.98l2.75-6.25h.98Z" style="fill: #fff; stroke-width: 0px;" />
    <path d="M43.11,340.54c-.21.13-.42.24-.64.32s-.44.14-.66.17c-.22.03-.45.05-.69.05-.44,0-.83-.07-1.18-.22s-.65-.36-.91-.65c-.26-.29-.45-.62-.58-1-.13-.38-.19-.8-.19-1.26,0-.52.08-.98.23-1.38.15-.39.36-.72.63-.98.27-.26.58-.45.93-.58.35-.12.71-.19,1.1-.19.57,0,1.23.15,1.95.46v1.62c-.25-.19-.5-.34-.74-.47-.25-.12-.53-.19-.86-.19-.29,0-.57.07-.82.21-.25.14-.46.34-.62.6s-.23.57-.23.91c0,.31.07.59.2.85.14.26.33.46.57.61.24.15.51.23.82.23.25,0,.48-.04.7-.11.22-.07.4-.15.55-.24.15-.09.3-.19.46-.31v1.54Z" style="fill: #fff; stroke-width: 0px;" />
    <path d="M49.08,334.91l-2.28,6.17h-1.01l-2.24-6.17h1.59l1.16,3.52,1.19-3.52h1.59Z" style="fill: #fff; stroke-width: 0px;" />
    <path d="M57.4,337.95c0,.57-.11,1.09-.33,1.57-.22.48-.54.86-.97,1.14-.43.28-.95.42-1.57.42s-1.15-.15-1.59-.44c-.43-.29-.75-.68-.96-1.16-.21-.48-.32-.99-.32-1.53s.1-1.06.31-1.54c.21-.48.53-.86.96-1.15.43-.29.96-.44,1.59-.44.47,0,.88.08,1.25.25.37.17.67.39.9.68.24.29.42.62.54,1,.12.38.18.78.18,1.2ZM55.84,337.95c0-.23-.03-.44-.08-.63-.06-.19-.14-.35-.25-.49-.11-.14-.25-.25-.41-.33-.16-.08-.35-.12-.57-.12-.41,0-.73.14-.96.43-.23.29-.35.66-.35,1.13s.12.84.35,1.13c.24.29.56.43.96.43.28,0,.52-.07.72-.2.2-.13.35-.32.45-.55.1-.24.15-.51.15-.81Z" style="fill: #fff; stroke-width: 0px;" />
    <path d="M62.04,341h-1.31v-.64c-.19.24-.38.42-.58.54-.2.12-.45.18-.73.18-.56,0-.92-.2-1.09-.59-.17-.39-.25-.84-.25-1.33v-2.63h1.31v2.42c0,.24.03.46.1.64.07.18.21.27.44.27.19,0,.34-.07.46-.2.11-.13.23-.3.34-.51v-2.63h1.31v4.47Z" style="fill: #fff; stroke-width: 0px;" />
    <path d="M65.81,340.74c-.14.08-.32.16-.56.23-.24.07-.47.11-.69.11-.95,0-1.42-.56-1.42-1.67v-1.78h-.59v-.28l1.76-2.16h.15v1.34h1.25v1.1h-1.25v1.43c0,.17,0,.3.03.4.02.1.07.19.14.26.08.07.2.1.36.1.21,0,.48-.11.82-.32v1.23Z" style="fill: #fff; stroke-width: 0px;" />
    <path d="M69.29,339.69c0,.41-.12.74-.37,1-.25.26-.62.38-1.11.38-.27,0-.52-.03-.73-.09-.21-.06-.45-.15-.7-.26v-1.12c.22.15.41.27.58.35s.34.12.54.12c.33,0,.49-.11.49-.32,0-.07-.02-.14-.07-.2-.05-.06-.13-.12-.25-.19-.12-.07-.28-.16-.47-.26-.24-.13-.45-.3-.62-.52-.17-.22-.26-.48-.26-.8,0-.22.06-.44.17-.64s.28-.37.51-.5c.23-.13.5-.2.83-.2.08,0,.18,0,.3.02.12.01.27.05.46.1s.36.13.52.24v1.09c-.08-.06-.14-.1-.2-.14-.05-.04-.12-.08-.21-.13s-.19-.09-.31-.12c-.12-.04-.24-.06-.36-.06-.15,0-.25.04-.31.11-.06.07-.08.14-.08.21,0,.07.03.14.09.21.06.06.19.14.39.23.29.14.53.27.7.42.17.14.3.3.37.47s.11.37.11.6Z" style="fill: #fff; stroke-width: 0px;" />
    <path d="M42.63,357.36h-1.9v-4.31l-1.71,2.5h-.15l-1.72-2.5v4.31h-1.84v-7.44h1.72l1.93,2.79,1.94-2.79h1.72v7.44Z" style="fill: #fff; stroke-width: 0px;" />
    <path d="M51.44,357.36h-1.9v-4.31l-1.71,2.5h-.15l-1.72-2.5v4.31h-1.84v-7.44h1.72l1.93,2.79,1.94-2.79h1.72v7.44Z" style="fill: #fff; stroke-width: 0px;" />
    <path d="M62.51,357.36h-1.94l-.51-1.51h-2.73l-.52,1.51h-1.94l2.78-7.44h2.1l2.77,7.44ZM59.62,354.56l-.92-2.72-.93,2.72h1.85Z" style="fill: #fff; stroke-width: 0px;" />
    <path d="M65.16,357.36h-1.9v-7.44h1.9v7.44Z" style="fill: #fff; stroke-width: 0px;" />
    <path d="M73.39,353.64c0,.69-.14,1.33-.41,1.92-.27.58-.67,1.05-1.21,1.39-.54.34-1.19.52-1.96.52s-1.44-.18-1.97-.54c-.54-.36-.94-.83-1.2-1.41-.26-.58-.39-1.21-.39-1.87s.13-1.29.39-1.88c.26-.58.66-1.05,1.2-1.41.54-.36,1.2-.54,1.98-.54.58,0,1.1.1,1.55.31.46.2.83.48,1.12.83.29.35.52.75.67,1.22s.23.95.23,1.46ZM71.46,353.64c0-.28-.04-.53-.1-.77-.07-.23-.17-.43-.32-.6s-.31-.3-.52-.4c-.2-.09-.44-.14-.7-.14-.51,0-.91.18-1.2.53-.29.35-.44.81-.44,1.38s.15,1.03.44,1.38.69.53,1.2.53c.35,0,.64-.08.89-.24s.43-.39.56-.68c.13-.29.19-.62.19-.99Z" style="fill: #fff; stroke-width: 0px;" />
    <path d="M13.76,74.99h-1.19v-4.74h1.19v4.74Z" style="fill: #fff; stroke-width: 0px;" />
    <path d="M19.02,74.99h-1.05l-2.04-2.64v2.64h-1.17v-4.74h1.05l2.03,2.62v-2.62h1.18v4.74Z" style="fill: #fff; stroke-width: 0px;" />
    <path d="M24.48,70.39l-1.68,4.66-.91-.35,1.2-3.4h-1.59v-1.05h2.98v.14Z" style="fill: #fff; stroke-width: 0px;" />
    <path d="M57.27,74.99h-1.19v-4.74h1.19v4.74Z" style="fill: #fff; stroke-width: 0px;" />
    <path d="M62.54,74.99h-1.05l-2.04-2.64v2.64h-1.17v-4.74h1.05l2.03,2.62v-2.62h1.18v4.74Z" style="fill: #fff; stroke-width: 0px;" />
    <path d="M68.01,73.71c0,.11-.02.24-.06.38-.04.14-.11.29-.22.44-.11.15-.26.27-.47.37-.21.1-.47.15-.79.15s-.59-.05-.79-.15c-.2-.1-.36-.22-.47-.37s-.18-.29-.22-.43-.05-.27-.05-.39c0-.24.06-.46.17-.68.11-.21.27-.38.46-.49-.16-.12-.28-.26-.37-.42s-.13-.36-.13-.6c0-.14.02-.28.07-.43.05-.15.13-.3.24-.44.11-.14.25-.25.43-.34.18-.09.4-.13.66-.13s.49.04.67.13c.18.08.32.2.43.34.11.14.19.29.23.44.04.15.07.3.07.44,0,.25-.04.45-.13.6s-.21.29-.37.42c.13.08.24.18.33.3s.17.25.22.4c.05.15.08.31.08.46ZM67,73.59c0-.15-.03-.27-.08-.38-.05-.11-.12-.19-.2-.24s-.16-.08-.24-.08c-.13,0-.25.06-.36.19-.11.12-.16.29-.16.51,0,.23.05.41.16.53.11.12.23.18.37.18s.26-.07.36-.2c.1-.13.16-.3.16-.51ZM66.89,71.62c0-.15-.03-.29-.09-.43s-.16-.21-.3-.21-.25.07-.32.2c-.07.13-.1.28-.1.44,0,.19.04.34.12.45s.18.18.28.18.2-.06.29-.18.12-.27.12-.45Z" style="fill: #fff; stroke-width: 0px;" />
    <path d="M13.76,116.39h-1.19v-4.74h1.19v4.74Z" style="fill: #fff; stroke-width: 0px;" />
    <path d="M19.02,116.39h-1.05l-2.04-2.64v2.64h-1.17v-4.74h1.05l2.03,2.62v-2.62h1.18v4.74Z" style="fill: #fff; stroke-width: 0px;" />
    <path d="M24.5,113.46c0,.36-.06.72-.19,1.07-.13.36-.31.7-.55,1.03s-.51.63-.83.89l-.97-.38c.45-.46.78-.89,1-1.28-.07.02-.16.03-.26.03-.23,0-.44-.06-.64-.19-.19-.13-.35-.31-.46-.54-.12-.24-.17-.5-.17-.8,0-.22.04-.43.1-.63.07-.2.17-.39.31-.55.14-.16.3-.29.49-.38.19-.09.39-.14.62-.14.25,0,.47.05.67.15.2.1.36.24.49.42.13.18.23.38.29.6.07.22.1.46.1.7ZM23.47,113.31c0-.19-.05-.34-.14-.47-.09-.13-.22-.19-.36-.19-.12,0-.22.04-.3.11-.08.07-.14.16-.17.26s-.05.2-.05.29c0,.22.05.38.15.48s.22.16.35.16c.13,0,.23-.04.31-.11.08-.07.13-.15.17-.25s.05-.19.05-.28Z" style="fill: #fff; stroke-width: 0px;" />
    <path d="M55.55,116.39h-1.19v-4.74h1.19v4.74Z" style="fill: #fff; stroke-width: 0px;" />
    <path d="M60.81,116.39h-1.05l-2.04-2.64v2.64h-1.17v-4.74h1.05l2.03,2.62v-2.62h1.18v4.74Z" style="fill: #fff; stroke-width: 0px;" />
    <path d="M65.29,116.39h-1.08v-4.74h1.08v4.74Z" style="fill: #fff; stroke-width: 0px;" />
    <path d="M69.74,114.02c0,.41-.04.77-.12,1.08s-.19.56-.34.76c-.14.2-.31.34-.49.44-.18.1-.38.15-.59.15s-.4-.05-.58-.15-.35-.24-.49-.44-.25-.45-.34-.76-.12-.67-.12-1.08.04-.78.12-1.08c.08-.31.19-.56.33-.76.14-.2.3-.35.49-.45.18-.1.38-.15.59-.15s.4.05.59.14.35.24.49.45c.14.2.26.46.34.77s.12.67.12,1.08ZM68.62,114.02c0-.42-.02-.76-.07-1.03-.05-.27-.16-.4-.34-.4-.12,0-.21.08-.28.23s-.1.32-.11.52c-.01.2-.02.43-.02.69,0,.45.02.8.07,1.05.05.25.16.37.34.37s.3-.12.34-.37c.05-.25.07-.6.07-1.05Z" style="fill: #fff; stroke-width: 0px;" />
  </g>
  <g /></svg>