<?xml version="1.0" encoding="UTF-8" standalone="no"?>
<svg
   width="1.2in"
   height="5.059in"
   viewBox="0 0 86.250003 364.06838"
   version="1.1"
   id="svg37"
   sodipodi:docname="MMAudioExpander_artwork.svg"
   inkscape:version="1.3.2 (091e20e, 2023-11-25)"
   xmlns:inkscape="http://www.inkscape.org/namespaces/inkscape"
   xmlns:sodipodi="http://sodipodi.sourceforge.net/DTD/sodipodi-0.dtd"
   xmlns="http://www.w3.org/2000/svg"
   xmlns:svg="http://www.w3.org/2000/svg">
  <defs
     id="defs37" />
  <sodipodi:namedview
     id="namedview37"
     pagecolor="#ffffff"
     bordercolor="#000000"
     borderopacity="0.25"
     inkscape:showpageshadow="2"
     inkscape:pageopacity="0.0"
     inkscape:pagecheckerboard="0"
     inkscape:deskcolor="#d1d1d1"
     inkscape:document-units="in"
     showgrid="false"
     inkscape:zoom="2.4983563"
     inkscape:cx="53.635264"
     inkscape:cy="243.36"
     inkscape:window-width="2512"
     inkscape:window-height="1387"
     inkscape:window-x="50"
     inkscape:window-y="25"
     inkscape:window-maximized="1"
     inkscape:current-layer="artwork" />
  <g
     id="artwork">
    <rect
       width="86.357391"
       height="364.25"
       style="fill:#231f20;stroke-width:0px"
       id="rect1"
       x="0"
       y="0" />
    <g
       id="text2"
       style="font-weight:700;font-size:9px;font-family:GillSans-Bold, 'Gill Sans';fill:#ffffff"
       transform="matrix(0.83,0,0,1,11,343.34)"
       aria-label="Audio/CV Outs">
      <path
         style="letter-spacing:0.01em"
         d="M 7.453125,0 H 5.5722656 L 5.0756836,-1.2348633 H 2.4301758 L 1.9248047,0 H 0.04394531 L 2.737793,-6.0908203 H 4.7680664 Z M 4.6538086,-2.2939453 3.7617188,-4.5175781 2.8608398,-2.2939453 Z"
         id="path38" />
      <path
         d="m 12.840703,0 h -1.586426 v -0.63720703 q -0.333984,0.36035156 -0.703125,0.54052734 -0.364746,0.17578125 -0.878906,0.17578125 -1.0151367,0 -1.3139649,-0.58886718 Q 8.059453,-1.1030273 8.059453,-1.8457031 v -2.6279297 h 1.5864258 v 2.4169922 q 0,0.3647461 0.1186523,0.6416015 0.1230469,0.272461 0.5273439,0.272461 0.347168,0 0.549316,-0.1977539 0.202149,-0.1977539 0.413086,-0.5053711 v -2.6279297 h 1.586426 z m 5.743652,0 H 16.99793 v -0.40429688 q -0.250489,0.21093751 -0.531739,0.34716797 -0.276855,0.13623047 -0.769043,0.13623047 -0.487793,0 -0.958007,-0.24169922 -0.470215,-0.24169922 -0.773438,-0.75146484 -0.303223,-0.5141602 -0.303223,-1.2919922 0,-0.6108398 0.228516,-1.1425781 0.228516,-0.5361328 0.716309,-0.8701172 0.487793,-0.3339844 1.195312,-0.3339844 0.439453,0 0.711914,0.09668 0.272461,0.09668 0.483399,0.2460938 V -6.09082 h 1.586425 z M 16.99793,-1.4238281 v -1.7094727 q -0.276856,-0.1538086 -0.435059,-0.2197265 -0.153809,-0.065918 -0.364746,-0.065918 -0.373535,0 -0.624024,0.3164062 -0.246093,0.3164063 -0.246093,0.8613282 0,0.5932617 0.259277,0.8657226 0.263672,0.2680664 0.61084,0.2680664 0.285644,0 0.461426,-0.087891 0.175781,-0.092285 0.338379,-0.2285152 z m 4.126464,-4.0825196 q 0,0.2768555 -0.197753,0.4702149 -0.197754,0.1933594 -0.470215,0.1933594 -0.184571,0 -0.338379,-0.087891 -0.149414,-0.087891 -0.237305,-0.2373046 -0.08789,-0.1538086 -0.08789,-0.338379 0,-0.2724609 0.19336,-0.4702148 0.193359,-0.1977539 0.470215,-0.1977539 0.272461,0 0.470215,0.1977539 0.197753,0.1977539 0.197753,0.4702148 z M 21.251836,0 H 19.66541 v -4.4736328 h 1.586426 z m 6.029297,-2.2412109 q 0,0.6679687 -0.290039,1.1909179 -0.290039,0.52294925 -0.870118,0.82617191 -0.575683,0.30322265 -1.40625,0.30322265 -0.830566,0 -1.410644,-0.30322265 -0.575684,-0.30322266 -0.865723,-0.82617191 -0.285644,-0.5229492 -0.285644,-1.1909179 0,-0.5053711 0.158203,-0.9184571 0.162598,-0.4130859 0.487793,-0.7294922 0.32959,-0.3208007 0.808594,-0.4921875 0.479003,-0.1713867 1.107421,-0.1713867 0.632813,0 1.116211,0.1757813 0.487793,0.1713867 0.8042,0.4833984 0.3208,0.3120117 0.483398,0.7294922 0.162598,0.4174805 0.162598,0.9228516 z m -1.665528,0 q 0,-0.5317383 -0.23291,-0.8305664 Q 25.15418,-3.375 24.714726,-3.375 q -0.435058,0 -0.667968,0.3032227 -0.228516,0.2988281 -0.228516,0.8305664 0,0.5273437 0.23291,0.8349609 0.23291,0.3076172 0.663574,0.3076172 0.439454,0 0.667969,-0.3032227 0.23291,-0.3076172 0.23291,-0.8393554 z m 6.609375,-3.9331055 -3.313476,6.25341796 h -1.177735 l 3.309082,-6.25341796 z m 6.350098,5.71728515 q -0.37793,0.19775391 -0.773437,0.31640625 -0.395508,0.11865234 -0.799805,0.16699219 -0.399903,0.05273437 -0.830567,0.05273437 -0.79541,0 -1.428222,-0.21972656 -0.628418,-0.21972656 -1.094239,-0.64599609 -0.461425,-0.43066411 -0.694335,-1.00195311 -0.228516,-0.5756836 -0.228516,-1.2612305 0,-0.7866211 0.272461,-1.3754883 0.272461,-0.5932617 0.760254,-0.984375 0.492187,-0.3911132 1.116211,-0.5756836 0.628418,-0.1889648 1.322754,-0.1889648 1.037109,0 2.351074,0.4614258 v 1.6171875 q -0.452637,-0.28125 -0.896485,-0.4658203 -0.439453,-0.1889649 -1.037109,-0.1889649 -0.531738,0 -0.993164,0.2109375 -0.461426,0.2109375 -0.742676,0.6020508 -0.28125,0.3911133 -0.28125,0.9140625 0,0.4614258 0.246094,0.8481445 0.246094,0.3823243 0.681152,0.6108399 0.439453,0.2241211 0.98877,0.2241211 0.443848,0 0.839355,-0.1054688 0.395508,-0.1098633 0.663575,-0.2416992 0.27246,-0.1318359 0.558105,-0.3120117 z M 45.768926,-6.0908203 43.022344,0.07910156 H 41.809453 L 39.115605,-6.0908203 h 1.911621 l 1.393067,3.515625 1.432617,-3.515625 z m 10.023925,3.0410156 q 0,0.8525391 -0.395507,1.5688477 -0.391114,0.71630856 -1.168946,1.13818356 -0.777832,0.421875 -1.894043,0.421875 -1.129394,0 -1.911621,-0.43945312 -0.782226,-0.43945313 -1.164551,-1.15576174 -0.377929,-0.7163086 -0.377929,-1.5336914 0,-0.8217773 0.377929,-1.5336914 0.37793,-0.7163086 1.160157,-1.1513672 0.786621,-0.4394531 1.916015,-0.4394531 0.84375,0 1.50293,0.2504883 0.663574,0.2504883 1.089844,0.6811523 0.426269,0.4262696 0.645996,0.9975586 0.219726,0.5668945 0.219726,1.1953125 z m -1.87207,0 q 0,-0.3427734 -0.101074,-0.6240234 -0.101074,-0.2856446 -0.307617,-0.4921875 -0.202149,-0.2109375 -0.496582,-0.3251953 -0.294434,-0.1186524 -0.681153,-0.1186524 -0.738281,0 -1.160156,0.4306641 -0.421875,0.430664 -0.421875,1.1293945 0,0.6987305 0.421875,1.1337891 0.42627,0.430664 1.160156,0.430664 0.505371,0 0.861328,-0.1977539 0.355958,-0.2021484 0.540528,-0.5537109 0.18457,-0.355957 0.18457,-0.8129883 z M 61.391484,0 h -1.586426 v -0.63720703 q -0.333984,0.36035156 -0.703125,0.54052734 -0.364746,0.17578125 -0.878906,0.17578125 -1.015136,0 -1.313965,-0.58886718 -0.298828,-0.59326168 -0.298828,-1.33593748 v -2.6279297 h 1.586426 v 2.4169922 q 0,0.3647461 0.118652,0.6416015 0.123047,0.272461 0.527344,0.272461 0.347168,0 0.549317,-0.1977539 0.202148,-0.1977539 0.413085,-0.5053711 v -2.6279297 h 1.586426 z m 4.539551,-0.25927734 q -0.246094,0.11865234 -0.681152,0.22851562 -0.430664,0.10986328 -0.826172,0.10986328 -1.709473,0 -1.709473,-1.66992186 V -3.375 H 61.99793 v -0.2768555 l 2.122558,-2.1621093 h 0.180176 v 1.340332 h 1.511719 V -3.375 h -1.511719 v 1.4326172 q 0,0.2504883 0.03076,0.4042969 0.03076,0.1538086 0.171386,0.2592773 0.14502,0.1010742 0.435059,0.1010742 0.37793,0 0.993164,-0.3164062 z m 4.192383,-1.04589846 q 0,0.61523439 -0.452637,1.00195314 -0.448242,0.38232422 -1.335937,0.38232422 -0.496582,0 -0.883301,-0.08789062 -0.386719,-0.09228516 -0.84375,-0.25927735 V -1.3930664 q 0.399902,0.2285156 0.694336,0.347168 0.294433,0.11865231 0.645996,0.11865231 0.593262,0 0.593262,-0.32519531 0,-0.1098633 -0.08789,-0.1933594 -0.0835,-0.087891 -0.298828,-0.1933594 -0.210938,-0.1098632 -0.566895,-0.2592773 -0.439453,-0.1933594 -0.74707,-0.5185547 -0.307617,-0.3251953 -0.307617,-0.7954101 0,-0.3339844 0.202148,-0.6416016 0.206543,-0.3076172 0.619629,-0.5009766 0.413086,-0.1977539 0.997559,-0.1977539 0.140625,0 0.355957,0.021973 0.219726,0.017578 0.549316,0.1010742 0.333985,0.083496 0.632813,0.2373047 v 1.0942383 q -0.140625,-0.083496 -0.237305,-0.140625 -0.09229,-0.057129 -0.250488,-0.1274414 -0.158203,-0.070312 -0.373535,-0.1230469 -0.210938,-0.057129 -0.435059,-0.057129 -0.272461,0 -0.373535,0.1054687 -0.101074,0.1054688 -0.101074,0.2109375 0,0.1098633 0.105468,0.206543 0.105469,0.092285 0.470215,0.2329102 0.527344,0.2021484 0.84375,0.4174804 0.316406,0.2109375 0.448242,0.4658203 0.136231,0.2548829 0.136231,0.6020508 z"
         id="path39" />
    </g>
    <g
       id="text4"
       style="font-weight:700;font-size:9px;font-family:GillSans-Bold, 'Gill Sans';fill:#ffffff"
       transform="matrix(0.83,0,0,1,14.53,167.5)"
       aria-label="Audio/CV Ins">
      <path
         style="letter-spacing:0.01em"
         d="M 7.453125,0 H 5.5722656 L 5.0756836,-1.2348633 H 2.4301758 L 1.9248047,0 H 0.04394531 L 2.737793,-6.0908203 H 4.7680664 Z M 4.6538086,-2.2939453 3.7617188,-4.5175781 2.8608398,-2.2939453 Z"
         id="path40" />
      <path
         d="m 12.840703,0 h -1.586426 v -0.63720703 q -0.333984,0.36035156 -0.703125,0.54052734 -0.364746,0.17578125 -0.878906,0.17578125 -1.0151367,0 -1.3139649,-0.58886718 Q 8.059453,-1.1030273 8.059453,-1.8457031 v -2.6279297 h 1.5864258 v 2.4169922 q 0,0.3647461 0.1186523,0.6416015 0.1230469,0.272461 0.5273439,0.272461 0.347168,0 0.549316,-0.1977539 0.202149,-0.1977539 0.413086,-0.5053711 v -2.6279297 h 1.586426 z m 5.743652,0 H 16.99793 v -0.40429688 q -0.250489,0.21093751 -0.531739,0.34716797 -0.276855,0.13623047 -0.769043,0.13623047 -0.487793,0 -0.958007,-0.24169922 -0.470215,-0.24169922 -0.773438,-0.75146484 -0.303223,-0.5141602 -0.303223,-1.2919922 0,-0.6108398 0.228516,-1.1425781 0.228516,-0.5361328 0.716309,-0.8701172 0.487793,-0.3339844 1.195312,-0.3339844 0.439453,0 0.711914,0.09668 0.272461,0.09668 0.483399,0.2460938 V -6.09082 h 1.586425 z M 16.99793,-1.4238281 v -1.7094727 q -0.276856,-0.1538086 -0.435059,-0.2197265 -0.153809,-0.065918 -0.364746,-0.065918 -0.373535,0 -0.624024,0.3164062 -0.246093,0.3164063 -0.246093,0.8613282 0,0.5932617 0.259277,0.8657226 0.263672,0.2680664 0.61084,0.2680664 0.285644,0 0.461426,-0.087891 0.175781,-0.092285 0.338379,-0.2285152 z m 4.126464,-4.0825196 q 0,0.2768555 -0.197753,0.4702149 -0.197754,0.1933594 -0.470215,0.1933594 -0.184571,0 -0.338379,-0.087891 -0.149414,-0.087891 -0.237305,-0.2373046 -0.08789,-0.1538086 -0.08789,-0.338379 0,-0.2724609 0.19336,-0.4702148 0.193359,-0.1977539 0.470215,-0.1977539 0.272461,0 0.470215,0.1977539 0.197753,0.1977539 0.197753,0.4702148 z M 21.251836,0 H 19.66541 v -4.4736328 h 1.586426 z m 6.029297,-2.2412109 q 0,0.6679687 -0.290039,1.1909179 -0.290039,0.52294925 -0.870118,0.82617191 -0.575683,0.30322265 -1.40625,0.30322265 -0.830566,0 -1.410644,-0.30322265 -0.575684,-0.30322266 -0.865723,-0.82617191 -0.285644,-0.5229492 -0.285644,-1.1909179 0,-0.5053711 0.158203,-0.9184571 0.162598,-0.4130859 0.487793,-0.7294922 0.32959,-0.3208007 0.808594,-0.4921875 0.479003,-0.1713867 1.107421,-0.1713867 0.632813,0 1.116211,0.1757813 0.487793,0.1713867 0.8042,0.4833984 0.3208,0.3120117 0.483398,0.7294922 0.162598,0.4174805 0.162598,0.9228516 z m -1.665528,0 q 0,-0.5317383 -0.23291,-0.8305664 Q 25.15418,-3.375 24.714726,-3.375 q -0.435058,0 -0.667968,0.3032227 -0.228516,0.2988281 -0.228516,0.8305664 0,0.5273437 0.23291,0.8349609 0.23291,0.3076172 0.663574,0.3076172 0.439454,0 0.667969,-0.3032227 0.23291,-0.3076172 0.23291,-0.8393554 z m 6.609375,-3.9331055 -3.313476,6.25341796 h -1.177735 l 3.309082,-6.25341796 z m 6.350098,5.71728515 q -0.37793,0.19775391 -0.773437,0.31640625 -0.395508,0.11865234 -0.799805,0.16699219 -0.399903,0.05273437 -0.830567,0.05273437 -0.79541,0 -1.428222,-0.21972656 -0.628418,-0.21972656 -1.094239,-0.64599609 -0.461425,-0.43066411 -0.694335,-1.00195311 -0.228516,-0.5756836 -0.228516,-1.2612305 0,-0.7866211 0.272461,-1.3754883 0.272461,-0.5932617 0.760254,-0.984375 0.492187,-0.3911132 1.116211,-0.5756836 0.628418,-0.1889648 1.322754,-0.1889648 1.037109,0 2.351074,0.4614258 v 1.6171875 q -0.452637,-0.28125 -0.896485,-0.4658203 -0.439453,-0.1889649 -1.037109,-0.1889649 -0.531738,0 -0.993164,0.2109375 -0.461426,0.2109375 -0.742676,0.6020508 -0.28125,0.3911133 -0.28125,0.9140625 0,0.4614258 0.246094,0.8481445 0.246094,0.3823243 0.681152,0.6108399 0.439453,0.2241211 0.98877,0.2241211 0.443848,0 0.839355,-0.1054688 0.395508,-0.1098633 0.663575,-0.2416992 0.27246,-0.1318359 0.558105,-0.3120117 z M 45.768926,-6.0908203 43.022344,0.07910156 H 41.809453 L 39.115605,-6.0908203 h 1.911621 l 1.393067,3.515625 1.432617,-3.515625 z M 51.121465,0 h -1.836914 v -6.0908203 h 1.836914 z m 6.055664,0 h -1.582031 v -2.4125977 q 0,-0.3691406 -0.123047,-0.6416015 -0.118653,-0.2768555 -0.527344,-0.2768555 -0.193359,0 -0.342774,0.074707 -0.145019,0.070312 -0.263671,0.1845704 -0.114258,0.1142578 -0.19336,0.2197265 -0.0791,0.1054688 -0.162597,0.2241211 V 0 h -1.582032 v -4.4736328 h 1.582032 v 0.6416015 q 0.373535,-0.3999023 0.74707,-0.5581054 0.37793,-0.1625977 0.839355,-0.1625977 1.608399,0 1.608399,1.9248047 z m 4.447265,-1.3051758 q 0,0.61523439 -0.452636,1.00195314 -0.448242,0.38232422 -1.335938,0.38232422 -0.496582,0 -0.883301,-0.08789062 -0.386718,-0.09228516 -0.84375,-0.25927735 V -1.3930664 q 0.399903,0.2285156 0.694336,0.347168 0.294434,0.11865231 0.645996,0.11865231 0.593262,0 0.593262,-0.32519531 0,-0.1098633 -0.08789,-0.1933594 -0.0835,-0.087891 -0.298829,-0.1933594 -0.210937,-0.1098632 -0.566894,-0.2592773 -0.439453,-0.1933594 -0.74707,-0.5185547 -0.307618,-0.3251953 -0.307618,-0.7954101 0,-0.3339844 0.202149,-0.6416016 0.206543,-0.3076172 0.619629,-0.5009766 0.413086,-0.1977539 0.997558,-0.1977539 0.140625,0 0.355957,0.021973 0.219727,0.017578 0.549317,0.1010742 0.333984,0.083496 0.632812,0.2373047 v 1.0942383 q -0.140625,-0.083496 -0.237304,-0.140625 -0.09229,-0.057129 -0.250489,-0.1274414 -0.158203,-0.070312 -0.373535,-0.1230469 -0.210937,-0.057129 -0.435058,-0.057129 -0.272461,0 -0.373536,0.1054687 -0.101074,0.1054688 -0.101074,0.2109375 0,0.1098633 0.105469,0.206543 0.105469,0.092285 0.470215,0.2329102 0.527344,0.2021484 0.84375,0.4174804 0.316406,0.2109375 0.448242,0.4658203 0.13623,0.2548829 0.13623,0.6020506 z"
         id="path41" />
    </g>
    <path
       d="M 9.5927734,0 H 7.3476562 V -4.3129883 L 5.3227539,-1.8154297 H 5.1455078 L 3.1152344,-4.3129883 V 0 H 0.93457031 V -7.4443359 H 2.9702148 l 2.288086,2.7929687 2.2988281,-2.7929687 h 2.0356445 z m 7.1704106,-2.2666016 h -3.851075 q 0.112793,0.4995118 0.553223,0.8164063 0.44043,0.3168945 0.999023,0.3168945 0.97754,0 2.15918,-0.5478515 v 1.19775386 q -0.424316,0.22021485 -1.03125,0.40283203 -0.601562,0.1772461 -1.536133,0.1772461 -1.009765,0 -1.71875,-0.37597657 -0.708984,-0.37597656 -1.063476,-1.02050782 -0.349121,-0.6445312 -0.349121,-1.4609375 0,-0.8056641 0.349121,-1.4394531 0.354492,-0.6391602 1.063476,-0.9990234 0.708985,-0.3652344 1.71875,-0.3652344 0.666016,0 1.283692,0.290039 0.623047,0.284668 1.020508,0.9399414 0.402832,0.6499024 0.402832,1.6811524 z m -1.81543,-0.9560547 q 0,-0.5263671 -0.263184,-0.8378906 -0.257812,-0.3168945 -0.746582,-0.3168945 -0.483398,0 -0.784179,0.3222656 -0.295411,0.3168945 -0.295411,0.8325195 z m 7.079101,2.90576177 q -0.300781,0.14501953 -0.832519,0.27929687 -0.526367,0.13427735 -1.009766,0.13427735 -2.089355,0 -2.089355,-2.04101559 V -4.125 h -0.875488 v -0.3383789 l 2.594238,-2.6425781 h 0.220215 v 1.6381836 h 1.847656 V -4.125 H 20.03418 v 1.7509766 q 0,0.3061523 0.0376,0.4941406 0.0376,0.1879883 0.209473,0.3168945 0.177246,0.1235352 0.531738,0.1235352 0.461914,0 1.213867,-0.3867188 z m 6.520508,0.0429687 q -0.424316,0.16650391 -0.784179,0.26855469 -0.359864,0.10205078 -0.864747,0.10205078 -0.478027,0 -0.666015,-0.16650391 -0.187988,-0.171875 -0.268555,-0.41357422 -0.311523,0.25244141 -0.692871,0.41894532 -0.381348,0.16113281 -0.999023,0.16113281 -0.596192,0 -0.966797,-0.20410156 -0.365235,-0.20947266 -0.515625,-0.5209961 -0.14502,-0.31689453 -0.14502,-0.64990238 0,-0.5048828 0.252442,-0.8325195 0.257812,-0.3330079 0.6875,-0.5424805 0.429687,-0.2094727 1.138672,-0.4350586 0.402832,-0.1289063 0.606933,-0.1933594 0.209473,-0.069824 0.311524,-0.1074219 0.10205,-0.037598 0.214843,-0.09668 0,-0.397461 -0.161133,-0.6230468 -0.161132,-0.225586 -0.698242,-0.225586 -0.633789,0 -1.176269,0.2792969 -0.542481,0.2792969 -0.993653,0.7197266 v -1.4824219 q 0.359864,-0.2578125 0.778809,-0.4189453 0.418945,-0.1665039 0.875488,-0.2470703 0.456543,-0.080566 0.923828,-0.080566 1.187012,0 1.783204,0.461914 0.601562,0.456543 0.601562,1.2622071 v 2.1108398 q 0,0.3007813 0.05371,0.4511719 0.05908,0.1450195 0.209473,0.1450195 0.182617,0 0.49414,-0.1557617 z M 25.856445,-1.3212891 v -1.2944336 q -0.6875,0.2792969 -1.004394,0.5048829 -0.316895,0.2202148 -0.316895,0.6015625 0,0.2739257 0.155762,0.4189453 0.161133,0.1450195 0.370605,0.1450195 0.198731,0 0.39209,-0.1074219 0.198731,-0.1127929 0.402832,-0.2685547 z M 37.645996,0 H 35.347168 L 34.740234,-1.5092773 H 31.506836 L 30.88916,0 h -2.298828 l 3.29248,-7.4443359 h 2.481446 z m -3.421387,-2.8037109 -1.090332,-2.7177735 -1.101074,2.7177735 z M 40.890137,0 H 38.64502 v -7.4443359 h 2.245117 z m 9.845215,-3.7275391 q 0,1.0419922 -0.483399,1.9174805 -0.478027,0.87548829 -1.428711,1.39111329 -0.950683,0.515625 -2.314941,0.515625 -1.380371,0 -2.336426,-0.53710938 -0.956055,-0.53710937 -1.42334,-1.41259761 -0.461914,-0.8754883 -0.461914,-1.8745118 0,-1.0043945 0.461914,-1.8745117 0.461914,-0.8754883 1.417969,-1.4072265 0.961426,-0.5371094 2.341797,-0.5371094 1.03125,0 1.836914,0.3061523 0.811035,0.3061524 1.332031,0.8325196 0.520996,0.5209961 0.789551,1.2192382 0.268555,0.6928711 0.268555,1.4609375 z m -2.288086,0 q 0,-0.4189453 -0.123536,-0.7626953 -0.123535,-0.3491211 -0.375976,-0.6015625 -0.24707,-0.2578125 -0.606934,-0.3974609 -0.359863,-0.1450195 -0.832519,-0.1450195 -0.902344,0 -1.417969,0.5263671 -0.515625,0.5263672 -0.515625,1.3803711 0,0.8540039 0.515625,1.3857422 0.520996,0.5263672 1.417969,0.5263672 0.617676,0 1.052734,-0.2416992 0.435059,-0.2470703 0.660645,-0.6767578 0.225586,-0.4350586 0.225586,-0.9936524 z"
       id="text5"
       style="font-weight:700;font-size:11px;font-family:GillSans-Bold, 'Gill Sans';letter-spacing:0em;fill:#ffffff"
       transform="matrix(0.85,0,0,1,34.44,357.77)"
       aria-label="MetaAIO" />
    <g
       id="g8">
      <path
         d="M 64.9,7.68 C 64.2,7.33 63.39,7.54 62.87,8.19 l -6.02,7.66 V 9.76 C 56.85,8.92 56.43,8.17 55.77,7.84 55.07,7.49 54.25,7.7 53.74,8.35 l -9.09,11.56 c -0.64,0.82 -0.62,2.08 0.05,2.87 0.33,0.39 0.8,0.62 1.28,0.62 h 0.03 c 0.49,0 0.96,-0.25 1.29,-0.67 0,0 3.44,-4.36 5.98,-7.6 v 6.09 c 0,0.84 0.43,1.59 1.09,1.92 0.7,0.35 1.52,0.14 2.03,-0.51 0,0 3.46,-4.41 6.02,-7.65 v 6.25 c 0,1.15 0.8,2.08 1.79,2.08 0.99,0 1.79,-0.93 1.79,-2.08 V 9.62 C 66,8.78 65.57,8.03 64.91,7.71 Z"
         style="fill:#00adee;stroke-width:0px"
         id="path5" />
      <g
         id="g7">
        <path
           d="m 45.96,23.64 c -1.12,0 -2.04,-1.05 -2.04,-2.33 v -5.72 l -2.47,3.13 c -0.39,0.49 -0.91,0.76 -1.49,0.77 -0.6,0 -1.1,-0.24 -1.5,-0.71 C 37.72,17.9 37.7,16.5 38.41,15.59 l 6.02,-7.66 c 0.39,-0.49 0.94,-0.77 1.52,-0.77 0.28,0 0.56,0.06 0.82,0.19 C 47.52,7.72 48,8.56 48,9.49 v 11.8 c 0,1.29 -0.92,2.33 -2.04,2.33 z"
           style="fill:#ec1c24;stroke-width:0px"
           id="path6" />
        <path
           d="m 45.97,7.42 c 0.24,0 0.48,0.05 0.7,0.17 0.66,0.33 1.09,1.08 1.09,1.92 v 11.8 c 0,1.15 -0.8,2.08 -1.79,2.08 -0.99,0 -1.79,-0.93 -1.79,-2.08 v -6.44 l -2.91,3.7 c -0.34,0.43 -0.8,0.67 -1.29,0.68 v 0 c -0.52,0 -0.96,-0.21 -1.3,-0.62 -0.67,-0.79 -0.69,-2.05 -0.04,-2.87 L 44.66,8.1 C 45.01,7.66 45.49,7.43 45.98,7.43 M 45.97,6.92 c -0.66,0 -1.28,0.32 -1.72,0.87 l -6.02,7.66 c -0.78,1 -0.76,2.53 0.05,3.5 0.44,0.52 1.03,0.8 1.69,0.8 0.66,-0.01 1.26,-0.32 1.69,-0.87 l 2.02,-2.57 v 5 c 0,1.42 1.03,2.58 2.29,2.58 1.26,0 2.29,-1.16 2.29,-2.58 V 9.51 C 48.26,8.48 47.72,7.56 46.9,7.15 46.61,7 46.29,6.93 45.97,6.93 v 0 z"
           style="fill:#231f20;stroke-width:0px"
           id="path7" />
      </g>
      <path
         d="m 75.5,13.89 c -0.27,-0.79 -0.92,-1.3 -1.66,-1.3 h -1.6 l 1.31,-1.66 C 74.01,10.25 74.54,8.87 73.59,8.01 72.64,7.14 71.46,7.67 70.97,8.07 l -4.11,5.2 c -0.46,0.59 -0.6,1.45 -0.34,2.19 0.27,0.79 0.92,1.3 1.66,1.3 h 1.61 l -2.46,3.13 c -0.56,0.61 -1.35,2.03 -0.32,3.06 0.39,0.38 0.81,0.53 1.23,0.53 0.68,0 1.34,-0.39 1.71,-0.74 l 5.23,-6.64 c 0.46,-0.59 0.6,-1.45 0.34,-2.19 z"
         style="fill:#00a551;stroke-width:0px"
         id="path8" />
    </g>
    <path
       d="m 22.35,72.46 c 0,1.76 -1.81,3.19 -4.05,3.19 -2.24,0 -4.05,-1.43 -4.05,-3.19 v -4.54 h 8.1 z"
       style="fill:#ec1c24;stroke-width:0px"
       id="path9" />
    <path
       d="m 65.86,71.85 c 0,1.76 -1.81,3.19 -4.05,3.19 -2.24,0 -4.05,-1.43 -4.05,-3.19 v -4.54 h 8.1 z"
       style="fill:#fff100;stroke-width:0px"
       id="path10" />
    <path
       d="M 3.3486328,-3.9433594 1.6142578,0.05273437 0.67089844,-0.24609375 1.9130859,-3.1611328 H 0.26953125 V -4.0605469 H 3.3486328 Z"
       id="text10"
       style="font-weight:700;font-size:6px;font-family:GillSans-Bold, 'Gill Sans';letter-spacing:-0.04em;fill:#231f20"
       transform="matrix(0.88,0,0,1,16.83,74.39)"
       aria-label="7" />
    <path
       d="m 3.3662109,-1.0927734 q 0,0.14355465 -0.061523,0.32812496 -0.058594,0.18457032 -0.2255859,0.375 -0.1669922,0.1875 -0.4863282,0.31640625 -0.3193359,0.12597656 -0.8115234,0.12597656 -0.5009766,0 -0.81738281,-0.12597656 Q 0.64746094,-0.19921875 0.47460938,-0.38964844 0.3046875,-0.58300781 0.25195313,-0.75878906 0.19921875,-0.9375 0.19921875,-1.0927734 q 0,-0.3076172 0.17578125,-0.5800782 0.17578125,-0.2724609 0.47753906,-0.421875 Q 0.60644531,-2.25 0.47167969,-2.4492188 0.33691406,-2.6513672 0.33691406,-2.9648438 q 0,-0.1757812 0.0732422,-0.3720703 0.0761719,-0.196289 0.24316406,-0.3779297 0.16992188,-0.1816406 0.44824218,-0.290039 0.28125,-0.1113281 0.6796875,-0.1113281 0.4160156,0 0.6943359,0.1113281 0.2783204,0.1083984 0.4482422,0.290039 0.1699219,0.178711 0.2373047,0.3720704 0.067383,0.1933593 0.067383,0.3779296 0,0.3222657 -0.1318359,0.515625 -0.1289063,0.1904297 -0.3837891,0.3544922 0.2021485,0.1054688 0.3427735,0.2578125 0.1435547,0.1494141 0.2255859,0.3457032 0.084961,0.196289 0.084961,0.3984375 z M 2.203125,-2.8857422 q 0,-0.1933594 -0.09668,-0.3691406 -0.09375,-0.1757813 -0.3134766,-0.1757813 -0.2255859,0 -0.328125,0.1699219 -0.102539,0.1669922 -0.102539,0.375 0,0.2373047 0.1259765,0.3896484 0.1289063,0.1494141 0.2929688,0.1494141 0.1669922,0 0.2929688,-0.1494141 0.1289062,-0.1523437 0.1289065,-0.3896484 z m 0.1201172,1.6845703 q 0,-0.1875 -0.082031,-0.3222656 -0.082031,-0.1376953 -0.2080078,-0.2050781 -0.1259765,-0.070312 -0.2519531,-0.070312 -0.2050781,0 -0.3720703,0.1611328 -0.1669922,0.1611328 -0.1669922,0.4365234 0,0.29589846 0.1669922,0.4511719 0.1669922,0.15527344 0.3779297,0.15527344 0.2167969,0 0.375,-0.16699219 0.1611328,-0.16699219 0.1611325,-0.43945365 z"
       id="text11"
       style="font-weight:700;font-size:6px;font-family:GillSans-Bold, 'Gill Sans';letter-spacing:-0.04em;fill:#231f20"
       transform="matrix(0.88,0,0,1,60.34,73.66)"
       aria-label="8" />
    <path
       d="m 18.3,68.71 c 8.88,0 16.09,-7.2 16.09,-16.09 0,-8.88 -7.2,-16.09 -16.09,-16.09 -8.88,0 -16.09,7.2 -16.09,16.09 0,8.88 7.2,16.09 16.09,16.09 z"
       style="fill:#231f20;stroke:#ffffff;stroke-miterlimit:10"
       id="path11" />
    <path
       d="m 63.67,37.4 h -34.6 c 5.68,2.86 8.32,10.17 8.32,15.46 0,5.29 -2.66,12.13 -8.36,14.98 h 34.65 c 8.82,0 15.25,-6.81 15.25,-15.22 0,-8.41 -6.43,-15.22 -15.25,-15.22 z"
       style="fill:#231f20;stroke:#ffffff;stroke-linejoin:round"
       id="path12" />
    <path
       d="m 22.35,113.86 c 0,1.76 -1.81,3.19 -4.05,3.19 -2.24,0 -4.05,-1.43 -4.05,-3.19 v -4.54 h 8.1 z"
       style="fill:#00adee;stroke-width:0px"
       id="path13" />
    <path
       d="m 65.86,113.25 c 0,1.76 -1.81,3.19 -4.05,3.19 -2.24,0 -4.05,-1.43 -4.05,-3.19 v -4.54 h 8.1 z"
       style="fill:#f06392;stroke-width:0px"
       id="path14" />
    <path
       d="m 3.3662109,-2.5078125 q 0,0.4599609 -0.1992187,0.9199219 -0.1992188,0.4599609 -0.5683594,0.88183591 -0.3662109,0.421875 -0.8525391,0.76464844 l -1.00195308,-0.328125 Q 1.4414062,-0.86425781 1.7753906,-1.3681641 q -0.1083984,0.029297 -0.2695312,0.029297 -0.3574219,0 -0.65625002,-0.1640625 Q 0.55078125,-1.6669922 0.37207031,-1.96875 0.19335937,-2.2734375 0.19335937,-2.6572266 q 0,-0.28125 0.10839844,-0.5419922 0.10839844,-0.2607421 0.31933594,-0.4716796 0.2109375,-0.2109375 0.50097655,-0.328125 0.2900391,-0.1171875 0.6357422,-0.1171875 0.3867188,0 0.6943359,0.1318359 0.3076172,0.1318359 0.506836,0.3603516 0.2021484,0.2285156 0.3046875,0.515625 0.102539,0.2841796 0.102539,0.6005859 z M 2.3085938,-2.6396484 q 0,-0.2402344 -0.1464844,-0.4013672 -0.1464844,-0.1640625 -0.375,-0.1640625 -0.1875,0 -0.3105469,0.09375 -0.1201172,0.09082 -0.1757813,0.2226562 -0.052734,0.1289063 -0.052734,0.2490235 0,0.2783203 0.1552734,0.4130859 0.1582031,0.1318359 0.3662109,0.1318359 0.1962891,0 0.3164063,-0.09082 0.1201172,-0.09082 0.1699219,-0.2138672 0.052734,-0.1230468 0.052734,-0.2402346 z"
       id="text14"
       style="font-weight:700;font-size:6px;font-family:GillSans-Bold, 'Gill Sans';letter-spacing:-0.04em;fill:#231f20"
       transform="matrix(0.88,0,0,1,16.83,115.63)"
       aria-label="9" />
    <path
       d="M 2.3349609,0 H 1.2246094 v -4.0605469 h 1.1103515 z m 4.3566797,-2.0273438 q 0,0.5273438 -0.1259765,0.9257813 Q 6.4396875,-0.703125 6.2170312,-0.44824219 5.9973047,-0.19628906 5.713125,-0.0703125 5.4289453,0.05273437 5.1066797,0.05273437 q -0.319336,0 -0.6035156,-0.12304687 Q 4.2189844,-0.19628906 3.9992578,-0.45117188 3.7795312,-0.70605469 3.650625,-1.1015625 3.5246484,-1.4970703 3.5246484,-2.0273438 q 0,-0.5332031 0.1259766,-0.9287109 0.1289062,-0.3955078 0.3457031,-0.6533203 0.2197266,-0.2578125 0.5039063,-0.3808594 0.2871093,-0.1259765 0.6064453,-0.1259765 0.3222656,0 0.6035156,0.1230468 0.2841797,0.1230469 0.5068359,0.3837891 0.2226563,0.2578125 0.3486329,0.65625 0.1259765,0.3984375 0.1259765,0.9257812 z m -1.1572265,0 q 0,-0.5390625 -0.073242,-0.8847656 -0.073242,-0.3457031 -0.3544922,-0.3457031 -0.1904297,0 -0.2871094,0.1933594 -0.09375,0.1933593 -0.1171875,0.4453125 -0.020508,0.2519531 -0.020508,0.5917968 0,0.5771485 0.070312,0.8994141 0.073242,0.31933595 0.3544922,0.31933595 0.2841797,0 0.3544922,-0.31933595 0.073242,-0.3222656 0.073243,-0.8994141 z"
       id="text15"
       style="font-weight:700;font-size:6px;font-family:GillSans-Bold, 'Gill Sans';letter-spacing:-0.04em;fill:#231f20"
       transform="matrix(0.88,0,0,1,58.73,114.68)"
       aria-label="10" />
    <path
       d="m 18.3,110.11 c 8.88,0 16.09,-7.2 16.09,-16.09 0,-8.88 -7.2,-16.09 -16.09,-16.09 -8.88,0 -16.09,7.2 -16.09,16.09 0,8.88 7.2,16.09 16.09,16.09 z"
       style="fill:#231f20;stroke:#ffffff;stroke-miterlimit:10"
       id="path15" />
    <path
       d="m 63.67,78.8 h -34.6 c 5.68,2.86 8.32,10.17 8.32,15.46 0,5.29 -2.66,12.13 -8.36,14.98 h 34.65 c 8.82,0 15.25,-6.81 15.25,-15.22 0,-8.41 -6.43,-15.22 -15.25,-15.22 z"
       style="fill:#231f20;stroke:#ffffff;stroke-linejoin:round"
       id="path16" />
    <path
       d="m 22.35,155.26 c 0,1.76 -1.81,3.19 -4.05,3.19 -2.24,0 -4.05,-1.43 -4.05,-3.19 v -4.54 h 8.1 z"
       style="fill:#faa629;stroke-width:0px"
       id="path17" />
    <path
       d="m 65.86,154.65 c 0,1.76 -1.81,3.19 -4.05,3.19 -2.24,0 -4.05,-1.43 -4.05,-3.19 v -4.54 h 8.1 z"
       style="fill:#00a551;stroke-width:0px"
       id="path18" />
    <path
       d="M 2.3349609,0 H 1.2246094 V -4.0605469 H 2.3349609 Z M 5.6603906,0 H 4.5500391 v -4.0605469 h 1.1103515 z"
       id="text18"
       style="font-weight:700;font-size:6px;font-family:GillSans-Bold, 'Gill Sans';letter-spacing:-0.04em;fill:#231f20"
       transform="matrix(0.88,0,0,1,15.37,157.03)"
       aria-label="11" />
    <path
       d="M 2.3349609,0 H 1.2246094 v -4.0605469 h 1.1103515 z m 4.3215235,0 h -3.084961 v -0.07910156 q 0.178711,-0.17285157 0.3925782,-0.41308594 0.2138671,-0.24023437 0.5507812,-0.6357422 0.1552734,-0.1787109 0.2900391,-0.3515625 0.1376953,-0.1728515 0.234375,-0.3339844 0.09668,-0.1640625 0.1640625,-0.3603515 0.067383,-0.1962891 0.067383,-0.4013672 0,-0.28125 -0.1640625,-0.4541016 -0.1611328,-0.1757812 -0.413086,-0.1757812 -0.4980468,0 -0.9902343,0.515625 v -0.9580078 q 0.1728515,-0.1113282 0.2841797,-0.178711 0.1113281,-0.067383 0.2548828,-0.1318359 0.1464843,-0.064453 0.3457031,-0.1113281 0.1992187,-0.046875 0.4306641,-0.046875 0.3720703,0 0.6767578,0.1523437 0.3046875,0.1494141 0.477539,0.4365234 0.1757813,0.2841797 0.1757813,0.6650391 0,0.2695313 -0.079102,0.5039063 -0.079102,0.234375 -0.1640625,0.3779297 -0.084961,0.1435546 -0.2255859,0.3544921 -0.2519531,0.375 -0.5390625,0.71484379 h 1.3154297 z"
       id="text19"
       style="font-weight:700;font-size:6px;font-family:GillSans-Bold, 'Gill Sans';letter-spacing:-0.04em;fill:#231f20"
       transform="matrix(0.88,0,0,1,58.73,156.08)"
       aria-label="12" />
    <path
       d="m 18.3,151.51 c 8.88,0 16.09,-7.2 16.09,-16.09 0,-8.88 -7.2,-16.09 -16.09,-16.09 -8.88,0 -16.09,7.2 -16.09,16.09 0,8.88 7.2,16.09 16.09,16.09 z"
       style="fill:#231f20;stroke:#ffffff;stroke-miterlimit:10"
       id="path19" />
    <path
       d="m 63.67,120.2 h -34.6 c 5.68,2.86 8.32,10.17 8.32,15.46 0,5.29 -2.66,12.13 -8.36,14.98 h 34.65 c 8.82,0 15.25,-6.81 15.25,-15.22 0,-8.41 -6.43,-15.22 -15.25,-15.22 z"
       style="fill:#231f20;stroke:#ffffff;stroke-linejoin:round"
       id="path20" />
    <path
       d="m 18.3,68.7 c 8.88,0 16.09,-7.2 16.09,-16.09 0,-8.88 -7.2,-16.09 -16.09,-16.09 -8.88,0 -16.09,7.2 -16.09,16.09 0,8.88 7.2,16.09 16.09,16.09 z"
       style="fill:#231f20;stroke:#ffffff;stroke-miterlimit:10"
       id="path21" />
    <path
       d="m 22.25,207.29 c 0,1.76 -1.81,3.19 -4.05,3.19 -2.24,0 -4.05,-1.43 -4.05,-3.19 v -4.54 h 8.1 z"
       style="fill:#ec1c24;stroke-width:0px"
       id="path22" />
    <path
       d="m 65.93,206.86 c 0,1.76 -1.81,3.19 -4.05,3.19 -2.24,0 -4.05,-1.43 -4.05,-3.19 v -4.54 h 8.1 z"
       style="fill:#fff100;stroke-width:0px"
       id="path23" />
    <path
       d="m 3.3662109,-2.5078125 q 0,0.4599609 -0.1992187,0.9199219 -0.1992188,0.4599609 -0.5683594,0.88183591 -0.3662109,0.421875 -0.8525391,0.76464844 l -1.00195308,-0.328125 Q 1.4414062,-0.86425781 1.7753906,-1.3681641 q -0.1083984,0.029297 -0.2695312,0.029297 -0.3574219,0 -0.65625002,-0.1640625 Q 0.55078125,-1.6669922 0.37207031,-1.96875 0.19335937,-2.2734375 0.19335937,-2.6572266 q 0,-0.28125 0.10839844,-0.5419922 0.10839844,-0.2607421 0.31933594,-0.4716796 0.2109375,-0.2109375 0.50097655,-0.328125 0.2900391,-0.1171875 0.6357422,-0.1171875 0.3867188,0 0.6943359,0.1318359 0.3076172,0.1318359 0.506836,0.3603516 0.2021484,0.2285156 0.3046875,0.515625 0.102539,0.2841796 0.102539,0.6005859 z M 2.3085938,-2.6396484 q 0,-0.2402344 -0.1464844,-0.4013672 -0.1464844,-0.1640625 -0.375,-0.1640625 -0.1875,0 -0.3105469,0.09375 -0.1201172,0.09082 -0.1757813,0.2226562 -0.052734,0.1289063 -0.052734,0.2490235 0,0.2783203 0.1552734,0.4130859 0.1582031,0.1318359 0.3662109,0.1318359 0.1962891,0 0.3164063,-0.09082 0.1201172,-0.09082 0.1699219,-0.2138672 0.052734,-0.1230468 0.052734,-0.2402346 z"
       id="text23"
       style="font-weight:700;font-size:6px;font-family:GillSans-Bold, 'Gill Sans';letter-spacing:-0.04em;fill:#231f20"
       transform="matrix(0.88,0,0,1,16.73,209.06)"
       aria-label="9" />
    <path
       d="M 2.3349609,0 H 1.2246094 v -4.0605469 h 1.1103515 z m 4.3566797,-2.0273438 q 0,0.5273438 -0.1259765,0.9257813 Q 6.4396875,-0.703125 6.2170312,-0.44824219 5.9973047,-0.19628906 5.713125,-0.0703125 5.4289453,0.05273437 5.1066797,0.05273437 q -0.319336,0 -0.6035156,-0.12304687 Q 4.2189844,-0.19628906 3.9992578,-0.45117188 3.7795312,-0.70605469 3.650625,-1.1015625 3.5246484,-1.4970703 3.5246484,-2.0273438 q 0,-0.5332031 0.1259766,-0.9287109 0.1289062,-0.3955078 0.3457031,-0.6533203 0.2197266,-0.2578125 0.5039063,-0.3808594 0.2871093,-0.1259765 0.6064453,-0.1259765 0.3222656,0 0.6035156,0.1230468 0.2841797,0.1230469 0.5068359,0.3837891 0.2226563,0.2578125 0.3486329,0.65625 0.1259765,0.3984375 0.1259765,0.9257812 z m -1.1572265,0 q 0,-0.5390625 -0.073242,-0.8847656 -0.073242,-0.3457031 -0.3544922,-0.3457031 -0.1904297,0 -0.2871094,0.1933594 -0.09375,0.1933593 -0.1171875,0.4453125 -0.020508,0.2519531 -0.020508,0.5917968 0,0.5771485 0.070312,0.8994141 0.073242,0.31933595 0.3544922,0.31933595 0.2841797,0 0.3544922,-0.31933595 0.073242,-0.3222656 0.073243,-0.8994141 z"
       id="text24"
       style="font-weight:700;font-size:6px;font-family:GillSans-Bold, 'Gill Sans';letter-spacing:-0.04em;fill:#231f20"
       transform="matrix(0.88,0,0,1,58.82,208.19)"
       aria-label="10" />
    <path
       d="m 18.29,203.72 c 8.88,0 16.09,-7.2 16.09,-16.09 0,-8.88 -7.2,-16.09 -16.09,-16.09 -8.88,0 -16.09,7.2 -16.09,16.09 0,8.89 7.2,16.09 16.09,16.09 z"
       style="fill:#ffffff;stroke:#ffffff;stroke-width:0.28px;stroke-linejoin:round"
       id="path24" />
    <path
       d="M 63.7,172.41 H 29.1 c 5.68,2.86 8.32,10.17 8.32,15.46 0,5.29 -2.66,12.13 -8.36,14.98 h 34.65 c 8.82,0 15.25,-6.81 15.25,-15.22 0,-8.41 -6.43,-15.22 -15.25,-15.22 z"
       style="fill:#ffffff;stroke:#ffffff;stroke-width:0.28px;stroke-linejoin:round"
       id="path25" />
    <path
       d="m 22.25,248.69 c 0,1.76 -1.81,3.19 -4.05,3.19 -2.24,0 -4.05,-1.43 -4.05,-3.19 v -4.54 h 8.1 z"
       style="fill:#00adee;stroke-width:0px"
       id="path26" />
    <path
       d="m 65.93,248.26 c 0,1.76 -1.81,3.19 -4.05,3.19 -2.24,0 -4.05,-1.43 -4.05,-3.19 v -4.54 h 8.1 z"
       style="fill:#f06392;stroke-width:0px"
       id="path27" />
    <path
       d="M 2.3349609,0 H 1.2246094 V -4.0605469 H 2.3349609 Z M 5.6603906,0 H 4.5500391 v -4.0605469 h 1.1103515 z"
       id="text27"
       style="font-weight:700;font-size:6px;font-family:GillSans-Bold, 'Gill Sans';letter-spacing:-0.04em;fill:#231f20"
       transform="matrix(0.88,0,0,1,15.27,250.4)"
       aria-label="11" />
    <path
       d="M 2.3349609,0 H 1.2246094 v -4.0605469 h 1.1103515 z m 4.3215235,0 h -3.084961 v -0.07910156 q 0.178711,-0.17285157 0.3925782,-0.41308594 0.2138671,-0.24023437 0.5507812,-0.6357422 0.1552734,-0.1787109 0.2900391,-0.3515625 0.1376953,-0.1728515 0.234375,-0.3339844 0.09668,-0.1640625 0.1640625,-0.3603515 0.067383,-0.1962891 0.067383,-0.4013672 0,-0.28125 -0.1640625,-0.4541016 -0.1611328,-0.1757812 -0.413086,-0.1757812 -0.4980468,0 -0.9902343,0.515625 v -0.9580078 q 0.1728515,-0.1113282 0.2841797,-0.178711 0.1113281,-0.067383 0.2548828,-0.1318359 0.1464843,-0.064453 0.3457031,-0.1113281 0.1992187,-0.046875 0.4306641,-0.046875 0.3720703,0 0.6767578,0.1523437 0.3046875,0.1494141 0.477539,0.4365234 0.1757813,0.2841797 0.1757813,0.6650391 0,0.2695313 -0.079102,0.5039063 -0.079102,0.234375 -0.1640625,0.3779297 -0.084961,0.1435546 -0.2255859,0.3544921 -0.2519531,0.375 -0.5390625,0.71484379 h 1.3154297 z"
       id="text28"
       style="font-weight:700;font-size:6px;font-family:GillSans-Bold, 'Gill Sans';letter-spacing:-0.04em;fill:#231f20"
       transform="matrix(0.88,0,0,1,58.82,249.59)"
       aria-label="12" />
    <path
       d="m 18.29,245.12 c 8.88,0 16.09,-7.2 16.09,-16.09 0,-8.88 -7.2,-16.09 -16.09,-16.09 -8.88,0 -16.09,7.2 -16.09,16.09 0,8.89 7.2,16.09 16.09,16.09 z"
       style="fill:#ffffff;stroke:#ffffff;stroke-width:0.28px;stroke-linejoin:round"
       id="path28" />
    <path
       d="M 63.7,213.81 H 29.1 c 5.68,2.86 8.32,10.17 8.32,15.46 0,5.29 -2.66,12.13 -8.36,14.98 h 34.65 c 8.82,0 15.25,-6.81 15.25,-15.22 0,-8.41 -6.43,-15.22 -15.25,-15.22 z"
       style="fill:#ffffff;stroke:#ffffff;stroke-width:0.28px;stroke-linejoin:round"
       id="path29" />
    <path
       d="m 22.25,290.09 c 0,1.76 -1.81,3.19 -4.05,3.19 -2.24,0 -4.05,-1.43 -4.05,-3.19 v -4.54 h 8.1 z"
       style="fill:#faa629;stroke-width:0px"
       id="path30" />
    <path
       d="m 65.93,289.66 c 0,1.76 -1.81,3.19 -4.05,3.19 -2.24,0 -4.05,-1.43 -4.05,-3.19 v -4.54 h 8.1 z"
       style="fill:#00a551;stroke-width:0px"
       id="path31" />
    <path
       d="M 2.3349609,0 H 1.2246094 v -4.0605469 h 1.1103515 z m 4.0695703,-1.1279297 q 0,0.31933595 -0.1259765,0.54492189 -0.1259766,0.22558593 -0.3339844,0.36914062 -0.2050781,0.140625 -0.4365234,0.20507813 -0.2314453,0.06152343 -0.4482422,0.06152343 -0.3076172,0 -0.6796875,-0.08496093 Q 4.0080469,-0.12011719 3.7560937,-0.24023438 V -1.1513672 Q 3.9611719,-0.98144531 4.1984766,-0.86425781 4.4357812,-0.75 4.6877344,-0.75 q 0.1904297,0 0.3193359,-0.0703125 0.1318359,-0.0703125 0.1962891,-0.17578125 0.067383,-0.10839845 0.067383,-0.22851565 0,-0.1552734 -0.082031,-0.2753906 -0.082031,-0.1201172 -0.2373047,-0.1904297 -0.1552734,-0.073242 -0.3603515,-0.073242 H 4.4592192 V -2.416992 h 0.1552735 q 0.2050781,0 0.336914,-0.079102 0.1347657,-0.079101 0.1933594,-0.1875 0.058594,-0.1113281 0.058594,-0.2080078 0,-0.1845703 -0.1435547,-0.3251953 -0.140625,-0.1435547 -0.366211,-0.1435547 -0.2021484,0 -0.421875,0.076172 -0.2167968,0.076172 -0.4072265,0.2050781 v -0.7792968 q 0.2871094,-0.1201172 0.5390625,-0.1875 0.2548828,-0.070312 0.571289,-0.070312 0.459961,0 0.7675782,0.1787109 0.3105468,0.1787109 0.4511718,0.4335937 0.1435547,0.2519532 0.1435547,0.4746094 0,0.1816406 -0.079102,0.3632813 -0.079102,0.1816406 -0.2080078,0.3222656 -0.1259766,0.140625 -0.2636719,0.2197266 0.243164,0.1289062 0.430664,0.3574218 0.1875,0.2285157 0.1874998,0.6386715 z"
       id="text31"
       style="font-weight:700;font-size:6px;font-family:GillSans-Bold, 'Gill Sans';letter-spacing:-0.04em;fill:#231f20"
       transform="matrix(0.88,0,0,1,15.18,291.76)"
       aria-label="13" />
    <path
       d="M 2.3349609,0 H 1.2246094 V -4.0605469 H 2.3349609 Z M 6.6740625,-0.87597656 H 6.1935937 V 0 H 5.1125391 V -0.87597656 H 3.463125 V -1.6494141 l 1.8603516,-2.4111328 h 0.8701171 v 2.4873047 H 6.6740625 Z M 5.1125391,-1.5732422 v -1.3007812 l -1.0078125,1.3007812 z"
       id="text32"
       style="font-weight:700;font-size:6px;font-family:GillSans-Bold, 'Gill Sans';letter-spacing:-0.04em;fill:#231f20"
       transform="matrix(0.88,0,0,1,58.82,290.99)"
       aria-label="14" />
    <path
       d="m 18.29,286.52 c 8.88,0 16.09,-7.2 16.09,-16.09 0,-8.88 -7.2,-16.09 -16.09,-16.09 -8.88,0 -16.09,7.2 -16.09,16.09 0,8.89 7.2,16.09 16.09,16.09 z"
       style="fill:#ffffff;stroke:#ffffff;stroke-width:0.28px;stroke-linejoin:round"
       id="path32" />
    <path
       d="M 63.7,255.21 H 29.1 c 5.68,2.86 8.32,10.17 8.32,15.46 0,5.29 -2.66,12.13 -8.36,14.98 h 34.65 c 8.82,0 15.25,-6.81 15.25,-15.22 0,-8.41 -6.43,-15.22 -15.25,-15.22 z"
       style="fill:#ffffff;stroke:#ffffff;stroke-width:0.28px;stroke-linejoin:round"
       id="path33" />
    <path
       d="m 22.25,331.49 c 0,1.76 -1.81,3.19 -4.05,3.19 -2.24,0 -4.05,-1.43 -4.05,-3.19 v -4.54 h 8.1 z"
       style="fill:#231f20;stroke:#ffffff;stroke-width:0.71px"
       id="path34" />
    <path
       d="m 65.93,331.06 c 0,1.76 -1.81,3.19 -4.05,3.19 -2.24,0 -4.05,-1.43 -4.05,-3.19 v -4.54 h 8.1 z"
       style="fill:#ffffff;stroke-width:0px"
       id="path35" />
    <path
       d="M 2.3349609,0 H 1.2246094 v -4.0605469 h 1.1103515 z m 4.110586,-1.2714844 q 0,0.34863284 -0.1640625,0.65332034 -0.1611328,0.3046875 -0.4892578,0.48925781 -0.3251954,0.18164062 -0.7939454,0.18164062 -0.375,0 -0.7177734,-0.09667968 Q 3.9377344,-0.140625 3.650625,-0.33691406 V -1.2128906 q 0.1875,0.140625 0.5273437,0.28417966 0.3427735,0.14355469 0.5947266,0.14355469 0.2988281,0 0.4189453,-0.15527344 0.1201172,-0.15820311 0.1201172,-0.32519531 0,-0.1376953 -0.070312,-0.2607422 -0.070312,-0.1230469 -0.2431641,-0.2021484 -0.1699218,-0.082031 -0.4599609,-0.082031 -0.3193359,0 -0.6123047,0.1171875 v -2.3671875 h 2.3525391 v 0.8554688 h -1.453125 v 0.6972656 q 0.046875,-0.00586 0.09668,-0.00879 0.052734,-0.00586 0.073242,-0.00586 0.023437,-0.00293 0.087891,-0.00293 0.4101562,0 0.7207031,0.1728515 0.3105469,0.1728516 0.4746094,0.459961 0.1669922,0.2841797 0.1669922,0.6210937 z"
       id="text35"
       style="font-weight:700;font-size:6px;font-family:GillSans-Bold, 'Gill Sans';letter-spacing:-0.04em;fill:#ffffff"
       transform="matrix(0.88,0,0,1,15.11,333.13)"
       aria-label="15" />
    <path
       d="M 2.3349609,0 H 1.2246094 V -4.0605469 H 2.3349609 Z M 6.6975,-1.4033203 q 0,0.28125 -0.1113281,0.54492186 -0.1083985,0.26074219 -0.3164063,0.46875 -0.2080078,0.20800782 -0.4980469,0.32519532 -0.290039,0.11718749 -0.6416015,0.11718749 -0.506836,0 -0.8730469,-0.22265624 Q 3.8908594,-0.39550781 3.7062891,-0.76171875 3.5246484,-1.1308594 3.5246484,-1.5527344 q 0,-0.3427734 0.1142578,-0.6884765 0.1142579,-0.3486329 0.3310547,-0.6855469 0.2197266,-0.3398438 0.5097657,-0.6328125 0.290039,-0.2958985 0.665039,-0.5625 l 1.0019531,0.3310547 q -0.2402343,0.2050781 -0.4160156,0.375 -0.1757812,0.1669922 -0.3339844,0.3486328 -0.1582031,0.1816406 -0.2841796,0.3720703 0.1113281,-0.029297 0.2695312,-0.029297 0.3574219,0 0.65625,0.1640625 0.3017578,0.1640625 0.4804688,0.4658203 Q 6.6975,-1.7929687 6.6975,-1.4033203 Z m -1.0546875,-0.017578 q 0,-0.28125 -0.1582031,-0.413086 Q 5.3293359,-1.96875 5.1183984,-1.96875 q -0.2783203,0 -0.4101562,0.1787109 -0.1289063,0.1757813 -0.1289063,0.3691407 0,0.234375 0.1494141,0.3984375 0.1523437,0.16406246 0.3720703,0.16406246 0.1875,0 0.3076172,-0.0908203 0.1201172,-0.0908203 0.1757812,-0.21972656 0.058594,-0.1318359 0.058594,-0.251953 z"
       id="text36"
       style="font-weight:700;font-size:6px;font-family:GillSans-Bold, 'Gill Sans';letter-spacing:-0.04em;fill:#231f20"
       transform="matrix(0.88,0,0,1,58.82,332.39)"
       aria-label="16" />
    <path
       d="m 18.29,327.92 c 8.88,0 16.09,-7.2 16.09,-16.09 0,-8.88 -7.2,-16.09 -16.09,-16.09 -8.88,0 -16.09,7.2 -16.09,16.09 0,8.89 7.2,16.09 16.09,16.09 z"
       style="fill:#ffffff;stroke:#ffffff;stroke-width:0.28px;stroke-linejoin:round"
       id="path36" />
    <path
       d="M 63.7,296.61 H 29.1 c 5.68,2.86 8.32,10.17 8.32,15.46 0,5.29 -2.66,12.13 -8.36,14.98 h 34.65 c 8.82,0 15.25,-6.81 15.25,-15.22 0,-8.41 -6.43,-15.22 -15.25,-15.22 z"
       style="fill:#ffffff;stroke:#ffffff;stroke-width:0.28px;stroke-linejoin:round"
       id="path37" />
  </g>
  <g
     id="g37" />
</svg>
