<svg xmlns="http://www.w3.org/2000/svg" width="1.12in" height="5.07in" viewBox="0 0 80.5 364.86">
  <g id="artwork">
    <rect width="80.5" height="364.25" style="fill: #231f20; stroke-width: 0px;" />
    <text transform="translate(11 343.34) scale(.83 1)" style="fill: #fff; font-family: GillSans-Bold, 'Gill Sans'; font-size: 9px; font-weight: 700;"><tspan x="0" y="0" style="letter-spacing: .01em;">A</tspan><tspan x="7.62" y="0">udio/CV Outs</tspan></text>
    <text transform="translate(14.53 167.5) scale(.83 1)" style="fill: #fff; font-family: GillSans-Bold, 'Gill Sans'; font-size: 9px; font-weight: 700;"><tspan x="0" y="0" style="letter-spacing: .01em;">A</tspan><tspan x="7.62" y="0">udio/CV Ins</tspan></text>
    <text transform="translate(34.44 357.77) scale(.85 1)" style="fill: #fff; font-family: GillSans-Bold, 'Gill Sans'; font-size: 11px; font-weight: 700; letter-spacing: 0em;"><tspan x="0" y="0">MetaAIO</tspan></text>
    <g>
      <path d="M64.9,7.68c-.7-.35-1.51-.14-2.03.51l-6.02,7.66v-6.09c0-.84-.42-1.59-1.08-1.92-.7-.35-1.52-.14-2.03.51l-9.09,11.56c-.64.82-.62,2.08.05,2.87.33.39.8.62,1.28.62h.03c.49,0,.96-.25,1.29-.67,0,0,3.44-4.36,5.98-7.6v6.09c0,.84.43,1.59,1.09,1.92.7.35,1.52.14,2.03-.51,0,0,3.46-4.41,6.02-7.65v6.25c0,1.15.8,2.08,1.79,2.08s1.79-.93,1.79-2.08v-11.61c0-.84-.43-1.59-1.09-1.91Z" style="fill: #00adee; stroke-width: 0px;" />
      <g>
        <path d="M45.96,23.64c-1.12,0-2.04-1.05-2.04-2.33v-5.72l-2.47,3.13c-.39.49-.91.76-1.49.77-.6,0-1.1-.24-1.5-.71-.74-.88-.76-2.28-.05-3.19l6.02-7.66c.39-.49.94-.77,1.52-.77.28,0,.56.06.82.19.75.37,1.23,1.21,1.23,2.14v11.8c0,1.29-.92,2.33-2.04,2.33Z" style="fill: #ec1c24; stroke-width: 0px;" />
        <path d="M45.97,7.42c.24,0,.48.05.7.17.66.33,1.09,1.08,1.09,1.92v11.8c0,1.15-.8,2.08-1.79,2.08s-1.79-.93-1.79-2.08v-6.44l-2.91,3.7c-.34.43-.8.67-1.29.68h0c-.52,0-.96-.21-1.3-.62-.67-.79-.69-2.05-.04-2.87l6.02-7.66c.35-.44.83-.67,1.32-.67M45.97,6.92c-.66,0-1.28.32-1.72.87l-6.02,7.66c-.78,1-.76,2.53.05,3.5.44.52,1.03.8,1.69.8.66-.01,1.26-.32,1.69-.87l2.02-2.57v5c0,1.42,1.03,2.58,2.29,2.58s2.29-1.16,2.29-2.58v-11.8c0-1.03-.54-1.95-1.36-2.36-.29-.15-.61-.22-.93-.22h0Z" style="fill: #231f20; stroke-width: 0px;" />
      </g>
      <path d="M75.5,13.89c-.27-.79-.92-1.3-1.66-1.3h-1.6l1.31-1.66c.46-.68.99-2.06.04-2.92-.95-.87-2.13-.34-2.62.06l-4.11,5.2c-.46.59-.6,1.45-.34,2.19.27.79.92,1.3,1.66,1.3h1.61l-2.46,3.13c-.56.61-1.35,2.03-.32,3.06.39.38.81.53,1.23.53.68,0,1.34-.39,1.71-.74l5.23-6.64c.46-.59.6-1.45.34-2.19Z" style="fill: #00a551; stroke-width: 0px;" />
    </g>
    <path d="M22.35,72.46c0,1.76-1.81,3.19-4.05,3.19s-4.05-1.43-4.05-3.19v-4.54h8.1v4.54Z" style="fill: #ec1c24; stroke-width: 0px;" />
    <path d="M65.86,71.85c0,1.76-1.81,3.19-4.05,3.19s-4.05-1.43-4.05-3.19v-4.54h8.1v4.54Z" style="fill: #fff100; stroke-width: 0px;" />
    <text transform="translate(16.83 74.39) scale(.88 1)" style="fill: #231f20; font-family: GillSans-Bold, 'Gill Sans'; font-size: 6px; font-weight: 700; letter-spacing: -.04em;"><tspan x="0" y="0">7</tspan></text>
    <text transform="translate(60.34 73.66) scale(.88 1)" style="fill: #231f20; font-family: GillSans-Bold, 'Gill Sans'; font-size: 6px; font-weight: 700; letter-spacing: -.04em;"><tspan x="0" y="0">8</tspan></text>
    <path d="M18.3,68.71c8.88,0,16.09-7.2,16.09-16.09,0-8.88-7.2-16.09-16.09-16.09-8.88,0-16.09,7.2-16.09,16.09,0,8.88,7.2,16.09,16.09,16.09Z" style="fill: #231f20; stroke: #fff; stroke-miterlimit: 10;" />
    <path d="M63.67,37.4H29.07c5.68,2.86,8.32,10.17,8.32,15.46s-2.66,12.13-8.36,14.98h34.65c8.82,0,15.25-6.81,15.25-15.22s-6.43-15.22-15.25-15.22Z" style="fill: #231f20; stroke: #fff; stroke-linejoin: round;" />
    <path d="M22.35,113.86c0,1.76-1.81,3.19-4.05,3.19s-4.05-1.43-4.05-3.19v-4.54h8.1v4.54Z" style="fill: #00adee; stroke-width: 0px;" />
    <path d="M65.86,113.25c0,1.76-1.81,3.19-4.05,3.19s-4.05-1.43-4.05-3.19v-4.54h8.1v4.54Z" style="fill: #f06392; stroke-width: 0px;" />
    <text transform="translate(16.83 115.63) scale(.88 1)" style="fill: #231f20; font-family: GillSans-Bold, 'Gill Sans'; font-size: 6px; font-weight: 700; letter-spacing: -.04em;"><tspan x="0" y="0">9</tspan></text>
    <text transform="translate(58.73 114.68) scale(.88 1)" style="fill: #231f20; font-family: GillSans-Bold, 'Gill Sans'; font-size: 6px; font-weight: 700; letter-spacing: -.04em;"><tspan x="0" y="0">10</tspan></text>
    <path d="M18.3,110.11c8.88,0,16.09-7.2,16.09-16.09,0-8.88-7.2-16.09-16.09-16.09-8.88,0-16.09,7.2-16.09,16.09,0,8.88,7.2,16.09,16.09,16.09Z" style="fill: #231f20; stroke: #fff; stroke-miterlimit: 10;" />
    <path d="M63.67,78.8H29.07c5.68,2.86,8.32,10.17,8.32,15.46s-2.66,12.13-8.36,14.98h34.65c8.82,0,15.25-6.81,15.25-15.22s-6.43-15.22-15.25-15.22Z" style="fill: #231f20; stroke: #fff; stroke-linejoin: round;" />
    <path d="M22.35,155.26c0,1.76-1.81,3.19-4.05,3.19s-4.05-1.43-4.05-3.19v-4.54h8.1v4.54Z" style="fill: #faa629; stroke-width: 0px;" />
    <path d="M65.86,154.65c0,1.76-1.81,3.19-4.05,3.19s-4.05-1.43-4.05-3.19v-4.54h8.1v4.54Z" style="fill: #00a551; stroke-width: 0px;" />
    <text transform="translate(15.37 157.03) scale(.88 1)" style="fill: #231f20; font-family: GillSans-Bold, 'Gill Sans'; font-size: 6px; font-weight: 700; letter-spacing: -.04em;"><tspan x="0" y="0">11</tspan></text>
    <text transform="translate(58.73 156.08) scale(.88 1)" style="fill: #231f20; font-family: GillSans-Bold, 'Gill Sans'; font-size: 6px; font-weight: 700; letter-spacing: -.04em;"><tspan x="0" y="0">12</tspan></text>
    <path d="M18.3,151.51c8.88,0,16.09-7.2,16.09-16.09,0-8.88-7.2-16.09-16.09-16.09-8.88,0-16.09,7.2-16.09,16.09,0,8.88,7.2,16.09,16.09,16.09Z" style="fill: #231f20; stroke: #fff; stroke-miterlimit: 10;" />
    <path d="M63.67,120.2H29.07c5.68,2.86,8.32,10.17,8.32,15.46s-2.66,12.13-8.36,14.98h34.65c8.82,0,15.25-6.81,15.25-15.22s-6.43-15.22-15.25-15.22Z" style="fill: #231f20; stroke: #fff; stroke-linejoin: round;" />
    <path d="M18.3,68.7c8.88,0,16.09-7.2,16.09-16.09,0-8.88-7.2-16.09-16.09-16.09-8.88,0-16.09,7.2-16.09,16.09,0,8.88,7.2,16.09,16.09,16.09Z" style="fill: #231f20; stroke: #fff; stroke-miterlimit: 10;" />
    <path d="M22.25,207.29c0,1.76-1.81,3.19-4.05,3.19s-4.05-1.43-4.05-3.19v-4.54h8.1v4.54Z" style="fill: #ec1c24; stroke-width: 0px;" />
    <path d="M65.93,206.86c0,1.76-1.81,3.19-4.05,3.19s-4.05-1.43-4.05-3.19v-4.54h8.1v4.54Z" style="fill: #fff100; stroke-width: 0px;" />
    <text transform="translate(16.73 209.06) scale(.88 1)" style="fill: #231f20; font-family: GillSans-Bold, 'Gill Sans'; font-size: 6px; font-weight: 700; letter-spacing: -.04em;"><tspan x="0" y="0">9</tspan></text>
    <text transform="translate(58.82 208.19) scale(.88 1)" style="fill: #231f20; font-family: GillSans-Bold, 'Gill Sans'; font-size: 6px; font-weight: 700; letter-spacing: -.04em;"><tspan x="0" y="0">10</tspan></text>
    <path d="M18.29,203.72c8.88,0,16.09-7.2,16.09-16.09,0-8.88-7.2-16.09-16.09-16.09-8.88,0-16.09,7.2-16.09,16.09s7.2,16.09,16.09,16.09Z" style="fill: #fff; stroke: #fff; stroke-linejoin: round; stroke-width: .28px;" />
    <path d="M63.7,172.41H29.1c5.68,2.86,8.32,10.17,8.32,15.46s-2.66,12.13-8.36,14.98h34.65c8.82,0,15.25-6.81,15.25-15.22s-6.43-15.22-15.25-15.22Z" style="fill: #fff; stroke: #fff; stroke-linejoin: round; stroke-width: .28px;" />
    <path d="M22.25,248.69c0,1.76-1.81,3.19-4.05,3.19s-4.05-1.43-4.05-3.19v-4.54h8.1v4.54Z" style="fill: #00adee; stroke-width: 0px;" />
    <path d="M65.93,248.26c0,1.76-1.81,3.19-4.05,3.19s-4.05-1.43-4.05-3.19v-4.54h8.1v4.54Z" style="fill: #f06392; stroke-width: 0px;" />
    <text transform="translate(15.27 250.4) scale(.88 1)" style="fill: #231f20; font-family: GillSans-Bold, 'Gill Sans'; font-size: 6px; font-weight: 700; letter-spacing: -.04em;"><tspan x="0" y="0">11</tspan></text>
    <text transform="translate(58.82 249.59) scale(.88 1)" style="fill: #231f20; font-family: GillSans-Bold, 'Gill Sans'; font-size: 6px; font-weight: 700; letter-spacing: -.04em;"><tspan x="0" y="0">12</tspan></text>
    <path d="M18.29,245.12c8.88,0,16.09-7.2,16.09-16.09,0-8.88-7.2-16.09-16.09-16.09-8.88,0-16.09,7.2-16.09,16.09s7.2,16.09,16.09,16.09Z" style="fill: #fff; stroke: #fff; stroke-linejoin: round; stroke-width: .28px;" />
    <path d="M63.7,213.81H29.1c5.68,2.86,8.32,10.17,8.32,15.46s-2.66,12.13-8.36,14.98h34.65c8.82,0,15.25-6.81,15.25-15.22s-6.43-15.22-15.25-15.22Z" style="fill: #fff; stroke: #fff; stroke-linejoin: round; stroke-width: .28px;" />
    <path d="M22.25,290.09c0,1.76-1.81,3.19-4.05,3.19s-4.05-1.43-4.05-3.19v-4.54h8.1v4.54Z" style="fill: #faa629; stroke-width: 0px;" />
    <path d="M65.93,289.66c0,1.76-1.81,3.19-4.05,3.19s-4.05-1.43-4.05-3.19v-4.54h8.1v4.54Z" style="fill: #00a551; stroke-width: 0px;" />
    <text transform="translate(15.18 291.76) scale(.88 1)" style="fill: #231f20; font-family: GillSans-Bold, 'Gill Sans'; font-size: 6px; font-weight: 700; letter-spacing: -.04em;"><tspan x="0" y="0">13</tspan></text>
    <text transform="translate(58.82 290.99) scale(.88 1)" style="fill: #231f20; font-family: GillSans-Bold, 'Gill Sans'; font-size: 6px; font-weight: 700; letter-spacing: -.04em;"><tspan x="0" y="0">14</tspan></text>
    <path d="M18.29,286.52c8.88,0,16.09-7.2,16.09-16.09,0-8.88-7.2-16.09-16.09-16.09-8.88,0-16.09,7.2-16.09,16.09s7.2,16.09,16.09,16.09Z" style="fill: #fff; stroke: #fff; stroke-linejoin: round; stroke-width: .28px;" />
    <path d="M63.7,255.21H29.1c5.68,2.86,8.32,10.17,8.32,15.46s-2.66,12.13-8.36,14.98h34.65c8.82,0,15.25-6.81,15.25-15.22s-6.43-15.22-15.25-15.22Z" style="fill: #fff; stroke: #fff; stroke-linejoin: round; stroke-width: .28px;" />
    <path d="M22.25,331.49c0,1.76-1.81,3.19-4.05,3.19s-4.05-1.43-4.05-3.19v-4.54h8.1v4.54Z" style="fill: #231f20; stroke: #fff; stroke-width: .71px;" />
    <path d="M65.93,331.06c0,1.76-1.81,3.19-4.05,3.19s-4.05-1.43-4.05-3.19v-4.54h8.1v4.54Z" style="fill: #fff; stroke-width: 0px;" />
    <text transform="translate(15.11 333.13) scale(.88 1)" style="fill: #fff; font-family: GillSans-Bold, 'Gill Sans'; font-size: 6px; font-weight: 700; letter-spacing: -.04em;"><tspan x="0" y="0">15</tspan></text>
    <text transform="translate(58.82 332.39) scale(.88 1)" style="fill: #231f20; font-family: GillSans-Bold, 'Gill Sans'; font-size: 6px; font-weight: 700; letter-spacing: -.04em;"><tspan x="0" y="0">16</tspan></text>
    <path d="M18.29,327.92c8.88,0,16.09-7.2,16.09-16.09,0-8.88-7.2-16.09-16.09-16.09-8.88,0-16.09,7.2-16.09,16.09s7.2,16.09,16.09,16.09Z" style="fill: #fff; stroke: #fff; stroke-linejoin: round; stroke-width: .28px;" />
    <path d="M63.7,296.61H29.1c5.68,2.86,8.32,10.17,8.32,15.46s-2.66,12.13-8.36,14.98h34.65c8.82,0,15.25-6.81,15.25-15.22s-6.43-15.22-15.25-15.22Z" style="fill: #fff; stroke: #fff; stroke-linejoin: round; stroke-width: .28px;" />
  </g>
  <g /></svg>