<svg xmlns="http://www.w3.org/2000/svg" xmlns:inkscape="http://www.inkscape.org/namespaces/inkscape" xmlns:sodipodi="http://sodipodi.sourceforge.net/DTD/sodipodi-0.dtd" width="1.2in" height="5.06in" viewBox="0 0 86.4 364.26" version="1.1" id="svg30" sodipodi:docname="MMButtons_info.svg" inkscape:version="1.3.2 (091e20e, 2023-11-25)">
  <defs id="defs30" />
  <sodipodi:namedview id="namedview30" pagecolor="#ffffff" bordercolor="#666666" borderopacity="1.0" inkscape:showpageshadow="2" inkscape:pageopacity="0.0" inkscape:pagecheckerboard="0" inkscape:deskcolor="#d1d1d1" inkscape:document-units="in" showgrid="false" inkscape:zoom="2.0452667" inkscape:cx="23.224355" inkscape:cy="260.11277" inkscape:window-width="1680" inkscape:window-height="1051" inkscape:window-x="48" inkscape:window-y="38" inkscape:window-maximized="1" inkscape:current-layer="faceplate" />
  <g id="faceplate">
    <rect x="0" y="0" width="86.4" height="364.26" style="fill: #221f1f; stroke-width: 0px;" id="rect1" />
    <g id="g11">
      <path d="M21.97,338.15h-1.86v-4.31l-1.68,2.5h-.15l-1.69-2.5v4.31h-1.81v-7.44h1.69l1.9,2.79,1.91-2.79h1.69v7.44Z" style="fill: #fff; stroke-width: 0px;" id="path1" />
      <path d="M27.92,335.88h-3.2c.06.33.22.61.46.82.24.21.52.32.83.32.54,0,1.14-.18,1.79-.55v1.2c-.23.15-.52.28-.85.4s-.76.18-1.28.18c-.56,0-1.03-.12-1.43-.38-.39-.25-.69-.59-.88-1.02-.19-.43-.29-.92-.29-1.46s.1-1.02.29-1.44c.19-.42.49-.76.88-1,.39-.24.87-.36,1.43-.36.37,0,.72.1,1.07.29.34.19.63.5.85.94.22.43.33,1,.33,1.68v.39ZM26.41,334.93c0-.35-.07-.63-.22-.84-.14-.21-.35-.31-.62-.31s-.48.11-.65.32-.25.49-.25.83h1.73Z" style="fill: #fff; stroke-width: 0px;" id="path2" />
      <path d="M32.29,337.83c-.17.1-.4.19-.69.28-.29.09-.57.13-.84.13-1.16,0-1.73-.68-1.73-2.04v-2.18h-.73v-.34l2.15-2.64h.18v1.64h1.53v1.34h-1.53v1.75c0,.2.01.37.03.49.02.13.08.23.18.31.1.08.24.13.44.13.26,0,.59-.13,1.01-.39v1.51Z" style="fill: #fff; stroke-width: 0px;" id="path3" />
      <path d="M37.7,337.88c-.23.11-.45.2-.65.27-.2.07-.44.1-.72.1-.26,0-.45-.06-.55-.17-.1-.11-.18-.25-.22-.41-.17.17-.36.31-.58.42-.21.11-.49.16-.83.16s-.6-.07-.8-.21c-.2-.14-.35-.31-.43-.52-.08-.21-.12-.42-.12-.65,0-.34.07-.62.21-.83.14-.22.33-.4.57-.54s.55-.28.95-.43c.22-.09.39-.15.51-.2s.2-.08.26-.1c.06-.03.12-.06.18-.1,0-.27-.04-.47-.13-.62-.09-.15-.28-.23-.58-.23-.35,0-.68.09-.98.28-.3.19-.58.43-.82.72v-1.48c.2-.17.41-.31.65-.42.23-.11.47-.19.73-.24.25-.05.51-.08.77-.08.66,0,1.15.15,1.48.46.33.31.5.73.5,1.27v2.11c0,.2.02.35.05.45.03.1.09.15.17.15.1,0,.24-.05.41-.16v1.02ZM35.47,336.83v-1.29c-.38.19-.66.35-.83.5s-.26.35-.26.6c0,.18.04.32.13.42.09.1.19.14.31.14.11,0,.22-.04.33-.11.11-.07.22-.16.33-.27Z" style="fill: #fff; stroke-width: 0px;" id="path4" />
      <path d="M44.11,336.04c0,.64-.18,1.15-.55,1.54-.36.38-.87.57-1.53.57h-3.57v-7.44h2.99c.39,0,.72.04,1.01.13.29.09.52.21.69.37.18.16.31.34.39.55.09.21.13.44.13.69,0,.27-.04.52-.13.75-.09.23-.2.42-.33.57-.13.15-.27.25-.4.31.42.2.74.45.97.76.22.31.33.7.33,1.19ZM41.93,332.85c0-.36-.1-.6-.29-.71s-.5-.18-.92-.18h-.39v1.78h.4c.42,0,.73-.06.92-.18.19-.12.28-.36.28-.71ZM42.24,335.95c0-.64-.38-.96-1.15-.96h-.76v1.91h.76c.77,0,1.15-.32,1.15-.95Z" style="fill: #fff; stroke-width: 0px;" id="path5" />
      <path d="M49.82,338.15h-1.6v-.78c-.23.29-.46.51-.71.66-.25.15-.55.22-.9.22-.69,0-1.13-.24-1.33-.72-.2-.48-.3-1.02-.3-1.63v-3.21h1.6v2.95c0,.3.04.56.12.78.08.22.26.34.53.34.24,0,.42-.08.56-.24s.28-.37.42-.62v-3.21h1.6v5.47Z" style="fill: #fff; stroke-width: 0px;" id="path6" />
      <path d="M54.43,337.83c-.17.1-.4.19-.69.28-.29.09-.57.13-.84.13-1.16,0-1.73-.68-1.73-2.04v-2.18h-.73v-.34l2.15-2.64h.18v1.64h1.53v1.34h-1.53v1.75c0,.2.01.37.03.49.02.13.08.23.18.31.1.08.24.13.44.13.26,0,.59-.13,1.01-.39v1.51Z" style="fill: #fff; stroke-width: 0px;" id="path7" />
      <path d="M58.71,337.83c-.17.1-.4.19-.69.28-.29.09-.57.13-.84.13-1.16,0-1.73-.68-1.73-2.04v-2.18h-.73v-.34l2.15-2.64h.18v1.64h1.53v1.34h-1.53v1.75c0,.2.01.37.03.49.02.13.08.23.18.31.1.08.24.13.44.13.26,0,.59-.13,1.01-.39v1.51Z" style="fill: #fff; stroke-width: 0px;" id="path8" />
      <path d="M64.43,335.41c0,.54-.1,1.03-.29,1.46-.2.43-.49.76-.88,1.01-.39.25-.87.37-1.43.37s-1.04-.12-1.43-.37-.68-.58-.88-1.01c-.19-.43-.29-.91-.29-1.46,0-.41.05-.79.16-1.12.11-.34.27-.63.49-.89s.49-.46.82-.6c.32-.14.7-.21,1.12-.21s.81.07,1.13.21c.33.14.6.34.82.59.22.25.38.55.49.89.11.34.17.72.17,1.13ZM62.74,335.41c0-.43-.08-.77-.23-1.02-.16-.25-.38-.37-.68-.37s-.52.12-.68.37-.23.58-.23,1.02.08.77.24,1.02c.16.25.38.38.67.38s.52-.12.68-.37c.16-.25.23-.59.23-1.02Z" style="fill: #fff; stroke-width: 0px;" id="path9" />
      <path d="M70.11,338.15h-1.6v-2.95c0-.3-.04-.56-.12-.79-.08-.22-.26-.34-.54-.34-.13,0-.25.03-.35.09-.1.06-.19.13-.27.23-.08.09-.15.18-.2.27-.05.09-.11.18-.17.27v3.21h-1.6v-5.47h1.6v.78c.25-.33.51-.55.76-.68.25-.13.54-.2.85-.2,1.09,0,1.63.78,1.63,2.35v3.21Z" style="fill: #fff; stroke-width: 0px;" id="path10" />
      <path d="M74.62,336.55c0,.5-.15.91-.46,1.22-.3.31-.76.47-1.36.47-.34,0-.63-.04-.9-.11-.26-.07-.55-.18-.86-.31v-1.38c.27.19.51.33.7.42s.42.15.66.15c.4,0,.6-.13.6-.4,0-.09-.03-.17-.09-.24-.06-.07-.16-.15-.3-.24-.14-.09-.34-.19-.58-.31-.3-.16-.55-.37-.76-.63-.21-.26-.31-.59-.31-.97,0-.27.07-.53.21-.78.14-.25.35-.46.63-.62.28-.16.62-.24,1.01-.24.1,0,.22,0,.36.02.15.02.33.06.56.13.22.07.44.17.64.29v1.34c-.1-.07-.17-.13-.24-.17-.06-.05-.15-.1-.26-.16-.11-.06-.23-.11-.38-.15-.14-.04-.29-.07-.44-.07-.18,0-.31.04-.38.13s-.1.17-.1.26.04.17.11.25c.07.08.23.17.48.29.36.16.64.33.86.51.21.17.37.37.46.57.09.21.14.45.14.74Z" style="fill: #fff; stroke-width: 0px;" id="path11" />
    </g>
    <g id="g14">
      <path d="M61.3,9.03s-3.87,4.92-6.13,7.79c0-3.01,0-6.67,0-6.67,0-.57-.28-1.09-.71-1.3-.43-.21-.93-.08-1.25.33l-8.05,10.24c-.44.56-.42,1.44.03,1.98.45.53,1.18.52,1.62-.04,0,0,3.84-4.88,6.09-7.74,0,3.01,0,6.68,0,6.68,0,.57.28,1.09.72,1.3.43.21.93.08,1.25-.33,0,0,3.87-4.92,6.12-7.79,0,3.05,0,6.81,0,6.81,0,.78.51,1.4,1.14,1.4.63,0,1.14-.63,1.14-1.4v-10.29c0-.57-.28-1.09-.72-1.3-.43-.22-.92-.08-1.25.33Z" style="fill: #fff; stroke: #fff; stroke-width: .67px;" id="path12" />
      <path d="M45.15,8.95l-5.34,6.79c-.44.56-.42,1.44.03,1.98.46.54,1.18.52,1.62-.04,0,0,1.8-2.29,3.37-4.29v6.98c0,.78.51,1.4,1.14,1.4s1.15-.63,1.15-1.4v-10.45c0-.57-.28-1.09-.71-1.3-.43-.21-.93-.08-1.25.33Z" style="fill: #fff; stroke: #fff; stroke-width: .67px;" id="path13" />
      <path d="M70.56,13.95c-.18-.52-.59-.85-1.05-.85h-2.33s1.7-2.16,1.7-2.16c0,0,.88-1.3.1-2.01-.78-.71-1.75.07-1.75.07l-3.57,4.54c-.32.4-.41,1-.23,1.52.18.52.6.85,1.05.85h2.33s-2.76,3.51-2.76,3.51c0,0-1.14,1.25-.3,2.09.85.85,1.94-.15,1.94-.15l4.63-5.89c.32-.4.41-1,.23-1.52Z" style="fill: #fff; stroke: #fff; stroke-width: .67px;" id="path14" />
    </g>
    <path d="M63.17,99.51h-1.69v-7.44h1.69v7.44Z" style="fill: #fff; stroke-width: 0px;" id="path15" />
    <path d="M27.23,128.58h-4.69v-.15c.18-.21.38-.46.6-.76s.5-.68.84-1.17c.16-.22.31-.43.44-.64.14-.21.26-.42.35-.61.1-.2.18-.42.25-.66s.1-.49.1-.74c0-.34-.08-.62-.25-.84-.17-.21-.38-.32-.63-.32-.51,0-1.01.31-1.51.95v-1.76c.17-.14.32-.25.43-.33.11-.08.24-.16.39-.24s.32-.15.52-.2c.2-.06.42-.09.66-.09.38,0,.72.09,1.03.28.31.18.55.45.73.8.18.35.27.76.27,1.22,0,.33-.04.64-.12.92s-.16.52-.25.69-.2.39-.34.65c-.26.46-.53.9-.82,1.31h2v1.67Z" style="fill: #fff; stroke-width: 0px;" id="path16" />
    <path d="M27.28,189.2h-.73v1.61h-1.64v-1.61h-2.51v-1.42l2.83-4.42h1.32v4.56h.73v1.28ZM24.9,187.92v-2.38l-1.53,2.38h1.53Z" style="fill: #fff; stroke-width: 0px;" id="path17" />
    <path d="M64.31,159.67c0,.39-.06.72-.19,1-.13.28-.3.5-.51.67-.21.17-.43.3-.67.38-.24.08-.46.12-.68.12-.31,0-.66-.05-1.03-.16-.38-.11-.69-.23-.95-.38v-1.67c.21.21.43.38.67.52.24.14.49.21.75.21.19,0,.36-.04.49-.13.13-.09.23-.19.3-.33.07-.13.1-.27.1-.42,0-.19-.04-.36-.12-.5-.08-.15-.2-.26-.36-.35-.16-.09-.34-.13-.55-.13h-.2v-1.2h.24c.21,0,.38-.05.51-.15.13-.1.23-.21.29-.35.06-.13.09-.26.09-.38,0-.23-.07-.43-.22-.6-.14-.17-.33-.26-.56-.26-.21,0-.42.05-.64.14-.22.09-.43.22-.62.38v-1.43c.29-.15.57-.26.82-.35.26-.08.55-.13.87-.13.47,0,.86.11,1.17.33s.54.48.69.79c.14.31.22.6.22.87,0,.22-.04.44-.12.67-.08.22-.19.42-.31.59-.13.17-.26.31-.4.4.25.16.46.38.66.66.19.28.29.67.29,1.17Z" style="fill: #fff; stroke-width: 0px;" id="path18" />
    <path d="M64.37,225.03c0,.43-.08.83-.25,1.2-.17.37-.41.67-.74.89-.33.22-.73.34-1.21.34-.38,0-.75-.06-1.09-.18s-.67-.3-.96-.54v-1.61c.19.17.46.35.8.52.35.17.65.26.9.26.3,0,.52-.1.64-.29s.18-.39.18-.59c0-.17-.04-.33-.11-.48-.07-.15-.19-.28-.37-.37-.17-.1-.41-.15-.7-.15-.32,0-.63.07-.93.21v-4.34h3.58v1.57h-2.21v1.28s.1-.01.15-.02c.05,0,.09,0,.11-.01.02,0,.07,0,.13,0,.42,0,.78.11,1.1.32.32.21.56.49.72.84.17.35.25.73.25,1.14Z" style="fill: #fff; stroke-width: 0px;" id="path19" />
    <path d="M27.31,254.06c0,.34-.06.68-.17,1s-.27.61-.48.86c-.21.25-.46.45-.76.6-.29.14-.62.21-.98.21-.51,0-.96-.14-1.33-.41-.37-.27-.65-.63-.84-1.08-.19-.45-.28-.93-.28-1.45,0-.42.06-.84.17-1.26.12-.42.29-.84.51-1.26.22-.41.48-.8.77-1.16.29-.36.63-.7,1.01-1.03l1.52.61c-.24.25-.46.48-.63.68-.18.21-.35.42-.51.64-.16.22-.3.45-.43.68.11-.04.25-.05.41-.05.36,0,.7.1,1,.3.3.2.55.49.73.85.18.37.27.79.27,1.27ZM25.71,254.03c0-.34-.08-.6-.24-.76-.16-.16-.35-.24-.56-.24-.28,0-.49.11-.62.33s-.2.44-.2.68c0,.29.08.53.23.73.15.2.34.3.56.3.19,0,.35-.06.47-.17.12-.11.21-.25.27-.41s.09-.31.09-.46Z" style="fill: #fff; stroke-width: 0px;" id="path20" />
    <path d="M27.3,317.16c0,.17-.03.38-.09.6-.06.22-.18.45-.35.68-.17.23-.42.42-.74.58-.32.16-.74.23-1.23.23s-.92-.08-1.24-.23c-.32-.15-.57-.35-.74-.58-.17-.24-.29-.46-.34-.68-.05-.22-.08-.42-.08-.61,0-.38.09-.73.27-1.06.18-.33.42-.59.73-.77-.25-.19-.44-.41-.58-.65-.14-.25-.21-.56-.21-.94,0-.21.04-.44.11-.68.08-.24.2-.47.37-.69s.4-.4.68-.53c.28-.13.63-.2,1.03-.2s.77.07,1.06.2c.28.13.51.31.68.53.17.22.29.45.36.69s.1.47.1.69c0,.39-.07.71-.2.94-.13.23-.33.45-.59.65.21.13.38.29.52.47.14.18.26.4.34.64.08.24.13.48.13.73ZM25.72,316.96c0-.23-.04-.43-.12-.59-.08-.17-.19-.29-.32-.38-.13-.08-.26-.13-.38-.13-.21,0-.4.1-.57.29-.17.2-.25.46-.25.8,0,.36.08.64.25.83.17.19.36.28.58.28s.41-.1.57-.31.24-.47.24-.81ZM25.53,313.87c0-.24-.05-.46-.14-.68-.1-.21-.26-.32-.48-.32s-.4.1-.5.31c-.1.21-.16.44-.16.69,0,.29.06.53.19.71.13.18.28.28.44.28s.32-.09.45-.28c.13-.18.19-.42.19-.71Z" style="fill: #fff; stroke-width: 0px;" id="path21" />
    <path d="M64.72,282.65l-2.64,7.33-1.44-.55,1.89-5.34h-2.5v-1.65h4.69v.21Z" style="fill: #fff; stroke-width: 0px;" id="path22" />
    <ellipse style="fill:none;stroke:#ffffff;stroke-width:0.56692911;stroke-linejoin:bevel;stroke-opacity:1;stroke-dasharray:none" id="path23" cx="24.870001" cy="293.37" rx="13" ry="13" />
    <circle style="fill:none;stroke:#ffffff;stroke-width:0.566929;stroke-linejoin:bevel;stroke-dasharray:none;stroke-opacity:1" id="ellipse23" cx="24.870001" cy="230.49001" r="13" />
    <circle style="fill:none;stroke:#ffffff;stroke-width:0.566929;stroke-linejoin:bevel;stroke-dasharray:none;stroke-opacity:1" id="ellipse24" cx="24.870001" cy="165.69" r="13" />
    <circle style="fill:none;stroke:#ffffff;stroke-width:0.566929;stroke-linejoin:bevel;stroke-dasharray:none;stroke-opacity:1" id="circle24" cx="24.870001" cy="103.29" r="13" />
    <circle style="fill:none;stroke:#ffffff;stroke-width:0.566929;stroke-linejoin:bevel;stroke-dasharray:none;stroke-opacity:1" id="ellipse25" cx="62.310001" cy="264.10999" r="13" />
    <circle style="fill:none;stroke:#ffffff;stroke-width:0.566929;stroke-linejoin:bevel;stroke-dasharray:none;stroke-opacity:1" id="circle25" cx="62.310001" cy="201.23001" r="13" />
    <circle style="fill:none;stroke:#ffffff;stroke-width:0.566929;stroke-linejoin:bevel;stroke-dasharray:none;stroke-opacity:1" id="circle26" cx="62.310001" cy="136.43001" r="13" />
    <circle style="fill:none;stroke:#ffffff;stroke-width:0.566929;stroke-linejoin:bevel;stroke-dasharray:none;stroke-opacity:1" id="circle27" cx="62.310001" cy="74.030006" r="13" />
  </g>
  <g /></svg>