<?xml version="1.0" encoding="UTF-8" standalone="no"?>
<svg
   width="20.32mm"
   height="130.55mm"
   viewBox="0 0 57.6 370.07"
   version="1.1"
   id="svg17"
   sodipodi:docname="MNMX_artwork.svg"
   inkscape:version="1.4.2 (ebf0e940, 2025-05-08)"
   xmlns:inkscape="http://www.inkscape.org/namespaces/inkscape"
   xmlns:sodipodi="http://sodipodi.sourceforge.net/DTD/sodipodi-0.dtd"
   xmlns="http://www.w3.org/2000/svg"
   xmlns:svg="http://www.w3.org/2000/svg">
  <defs
     id="defs17" />
  <sodipodi:namedview
     id="namedview17"
     pagecolor="#ffffff"
     bordercolor="#000000"
     borderopacity="0.25"
     inkscape:showpageshadow="2"
     inkscape:pageopacity="0.0"
     inkscape:pagecheckerboard="0"
     inkscape:deskcolor="#d1d1d1"
     inkscape:document-units="mm"
     inkscape:zoom="0.41950933"
     inkscape:cx="-56.017824"
     inkscape:cy="277.70538"
     inkscape:window-width="1712"
     inkscape:window-height="680"
     inkscape:window-x="0"
     inkscape:window-y="38"
     inkscape:window-maximized="0"
     inkscape:current-layer="text" />
  <g
     id="faceplate">
    <g
       id="g1">
      <path
         id="rect1"
         style="fill:#ededed;stroke-width:0px"
         d="m 0.12,0.12 h 57.349998 v 364 H 0.12 Z" />
      <path
         d="M57.35.25v363.75H.25V.25h57.1M57.6,0H0v364.25h57.6V0h0Z"
         style="fill: #9d9d9e; stroke-width: 0px;"
         id="path1" />
    </g>
    <path
       d="M44.39,261.05c0-8.08-6.98-14.63-15.59-14.63s-15.59,6.55-15.59,14.63v55.1s0,0,0,0v19.84c0,3.12,2.55,5.67,5.67,5.67h19.84c3.12,0,5.67-2.55,5.67-5.67v-19.84s0,0,0,0v-55.1Z"
       style="fill: #000; stroke-width: 0px;"
       id="path2" />
    <path
       d="M28.8,152.09c8.02,0,14.54,6.04,14.54,13.46v149.65c0,7.42-6.52,13.46-14.54,13.46s-14.54-6.04-14.54-13.46v-149.65c0-7.42,6.52-13.46,14.54-13.46M28.8,151.04c-8.61,0-15.59,6.5-15.59,14.51v149.65c0,8.01,6.98,14.51,15.59,14.51s15.59-6.5,15.59-14.51v-149.65c0-8.02-6.98-14.51-15.59-14.51h0Z"
       style="fill: #000; stroke-width: 0px;"
       id="path3" />
    <g
       id="text">
      <path
         d="m 22.192398,317.43201 h -2.033039 v -3.90558 l -1.833626,2.26164 h -0.160504 l -1.83849,-2.26164 v 3.90558 h -1.974674 v -6.74113 h 1.843353 l 2.07195,2.52914 2.081676,-2.52914 h 1.843354 z m 9.022221,0 h -1.809308 l -3.497022,-3.7548 v 3.7548 h -2.013585 v -6.74113 h 1.804444 l 3.487295,3.73534 v -3.73534 h 2.028176 z m 9.532913,0 h -2.033039 v -3.90558 l -1.833627,2.26164 h -0.160503 l -1.83849,-2.26164 v 3.90558 h -1.974675 v -6.74113 h 1.843354 l 2.07195,2.52914 2.081676,-2.52914 h 1.843354 z m 9.314044,0 h -2.611824 l -0.714968,-0.84629 q -0.03405,-0.0486 -0.423145,-0.51556 -0.389098,-0.47178 -0.515555,-0.64201 -0.583648,0.78792 -0.953291,1.24511 l -0.617694,0.75875 h -2.572914 l 2.859874,-3.50675 -2.728553,-3.23438 h 2.597232 l 0.462055,0.56419 q 0.398826,0.49124 0.953291,1.22566 0.530146,-0.7782 0.846289,-1.15271 l 0.530147,-0.63714 h 2.548594 l -2.62155,3.23438 z"
         id="text3"
         style="font-weight:700;font-size:9.96092px;font-family:GillSans-Bold, 'Gill Sans';stroke-width:0.905538"
         transform="scale(0.90553851,1.1043153)"
         aria-label="MNMX" />
      <path
         d="M 2.3203125,0 H 0.6875 v -5.4140625 h 1.6328125 z m 5.0628126,0 h -1.40625 v -2.1445313 q 0,-0.328125 -0.109375,-0.5703125 -0.1054688,-0.2460937 -0.46875,-0.2460937 -0.171875,0 -0.3046875,0.066406 -0.1289063,0.0625 -0.234375,0.1640625 -0.1015625,0.1015625 -0.171875,0.1953125 -0.070312,0.09375 -0.1445313,0.1992188 V 0 h -1.40625 v -3.9765625 h 1.40625 V -3.40625 q 0.3320313,-0.3554688 0.6640625,-0.4960938 0.3359375,-0.1445312 0.7460938,-0.1445312 1.4296875,0 1.4296875,1.7109375 z M 16.137656,0 H 14.465781 L 14.024375,-1.0976562 H 11.672812 L 11.223594,0 H 9.5517187 L 11.94625,-5.4140625 h 1.804687 z m -2.488281,-2.0390625 -0.792969,-1.9765625 -0.800781,1.9765625 z"
         id="text4"
         style="font-weight:700;font-size:8px;font-family:GillSans-Bold, 'Gill Sans';letter-spacing:-0.04em"
         transform="translate(21.7 192.87) scale(.88 1)"
         aria-label="In A" />
      <path
         d="M 2.3203125,0 H 0.6875 v -5.4140625 h 1.6328125 z m 5.0628126,0 h -1.40625 v -2.1445313 q 0,-0.328125 -0.109375,-0.5703125 -0.1054688,-0.2460937 -0.46875,-0.2460937 -0.171875,0 -0.3046875,0.066406 -0.1289063,0.0625 -0.234375,0.1640625 -0.1015625,0.1015625 -0.171875,0.1953125 -0.070312,0.09375 -0.1445313,0.1992188 V 0 h -1.40625 v -3.9765625 h 1.40625 V -3.40625 q 0.3320313,-0.3554688 0.6640625,-0.4960938 0.3359375,-0.1445312 0.7460938,-0.1445312 1.4296875,0 1.4296875,1.7109375 z m 7.7545309,-1.5351562 q 0,0.6992187 -0.480469,1.11718745 Q 14.180625,0 13.32125,0 h -3.128906 v -5.4140625 h 2.617187 q 0.507813,0 0.882813,0.097656 0.378906,0.097656 0.609375,0.2695312 0.230468,0.1679688 0.34375,0.3984375 0.113281,0.2304688 0.113281,0.5039063 0,0.2968749 -0.117188,0.5507812 -0.117187,0.25 -0.292968,0.4140625 -0.171875,0.1601562 -0.347657,0.2265625 0.554688,0.21875 0.84375,0.5546875 0.292969,0.3320312 0.292969,0.8632813 z m -1.90625,-2.3203126 q 0,-0.3906249 -0.257812,-0.5195312 -0.257813,-0.1289062 -0.804688,-0.1289062 h -0.34375 v 1.2968749 h 0.351563 q 0.558593,0 0.804687,-0.1289062 0.25,-0.1289063 0.25,-0.5195313 z m 0.265625,2.2539063 q 0,-0.6953125 -1.007812,-0.6953125 h -0.664063 v 1.38671875 h 0.664063 q 1.007812,0 1.007812,-0.69140625 z"
         id="text5"
         style="font-weight:700;font-size:8px;font-family:GillSans-Bold, 'Gill Sans';letter-spacing:-0.04em"
         transform="translate(22.12 241.06) scale(.88 1)"
         aria-label="In B" />
      <path
         d="M 6.9765625,0 H 5.34375 V -3.1367188 L 3.8710938,-1.3203125 H 3.7421875 L 2.265625,-3.1367188 V 0 H 0.6796875 v -5.4140625 h 1.4804688 l 1.6640625,2.03125 1.6718749,-2.03125 h 1.4804688 z m 2.1839061,-4.8945312 q 0,0.2460937 -0.1757813,0.4179687 -0.1757812,0.171875 -0.4179687,0.171875 -0.1640625,0 -0.3007813,-0.078125 -0.1328125,-0.078125 -0.2109375,-0.2109375 -0.078125,-0.1367187 -0.078125,-0.3007812 0,-0.2421875 0.171875,-0.4179688 0.171875,-0.1757812 0.4179688,-0.1757812 0.2421875,0 0.4179687,0.1757812 0.1757813,0.1757813 0.1757813,0.4179688 z M 9.2737498,0 H 7.8635936 v -3.9765625 h 1.4101562 z m 4.8948432,0 h -1.40625 v -2.1445313 q 0,-0.328125 -0.109375,-0.5703125 -0.105468,-0.2460937 -0.46875,-0.2460937 -0.171875,0 -0.304687,0.066406 -0.128906,0.0625 -0.234375,0.1640625 -0.101563,0.1015625 -0.171875,0.1953125 -0.07031,0.09375 -0.144531,0.1992188 V 0 H 9.9224997 V -3.9765625 H 11.32875 V -3.40625 q 0.332031,-0.3554688 0.664062,-0.4960938 0.335938,-0.1445312 0.746094,-0.1445312 1.429687,0 1.429687,1.7109375 z"
         id="text6"
         style="font-weight:700;font-size:8px;font-family:GillSans-Bold, 'Gill Sans';letter-spacing:-0.04em;fill:#ffffff"
         transform="translate(22.53 289.25) scale(.88 1)"
         aria-label="Min" />
      <path
         d="M 6.9765625,0 H 5.34375 V -3.1367188 L 3.8710938,-1.3203125 H 3.7421875 L 2.265625,-3.1367188 V 0 H 0.6796875 v -5.4140625 h 1.4804688 l 1.6640625,2.03125 1.6718749,-2.03125 h 1.4804688 z m 4.9417185,-0.19921875 q -0.308594,0.12109375 -0.570312,0.1953125 -0.261719,0.07421875 -0.628907,0.07421875 -0.347656,0 -0.484375,-0.12109375 -0.136718,-0.125 -0.195312,-0.30078125 -0.2265627,0.18359375 -0.5039064,0.3046875 -0.2773438,0.1171875 -0.7265625,0.1171875 -0.4335938,0 -0.703125,-0.1484375 -0.265625,-0.15234375 -0.375,-0.37890625 Q 7.6253123,-0.6875 7.6253123,-0.9296875 q 0,-0.3671875 0.1835938,-0.6054687 0.1875,-0.2421875 0.5,-0.3945313 0.3125,-0.1523438 0.828125,-0.3164063 0.2929687,-0.09375 0.4414062,-0.140625 0.1523438,-0.050781 0.2265625,-0.078125 0.074219,-0.027344 0.15625,-0.070312 0,-0.2890625 -0.1171875,-0.453125 -0.1171875,-0.1640625 -0.5078125,-0.1640625 -0.4609375,0 -0.8554687,0.203125 -0.3945313,0.203125 -0.7226563,0.5234375 v -1.078125 q 0.2617188,-0.1875 0.5664063,-0.3046875 0.3046875,-0.1210937 0.6367187,-0.1796875 0.3320313,-0.058594 0.671875,-0.058594 0.8632812,0 1.2968752,0.3359375 0.4375,0.3320312 0.4375,0.9179687 v 1.5351563 q 0,0.21875 0.03906,0.328125 0.04297,0.10546875 0.152344,0.10546875 0.132813,0 0.359375,-0.11328125 z M 9.9612498,-0.9609375 v -0.9414062 q -0.5,0.203125 -0.7304687,0.3671875 -0.2304688,0.1601562 -0.2304688,0.4375 0,0.1992187 0.1132813,0.30468745 Q 9.2307811,-0.6875 9.3831248,-0.6875 q 0.1445313,0 0.2851563,-0.078125 0.1445312,-0.0820313 0.2929687,-0.1953125 z M 16.469375,0 H 14.735 L 13.965468,-1.1289062 13.199843,0 h -1.539062 l 1.539062,-1.953125 -1.570312,-2.0234375 H 13.36 l 0.734375,1.0820312 0.742187,-1.0820312 h 1.539063 l -1.503907,1.8867187 z"
         id="text7"
         style="font-weight:700;font-size:8px;font-family:GillSans-Bold, 'Gill Sans';letter-spacing:-0.04em;fill:#ffffff"
         transform="translate(21.55 337.43) scale(.88 1)"
         aria-label="Max" />
    </g>
    <g
       id="g9"
       transform="matrix(1.0000075,0,0,1,-1.0949625e-4,8.6069709)">
      <path
         d="m 20.6,18.19 c -0.37,0 -0.71,-0.17 -0.97,-0.47 -0.51,-0.6 -0.52,-1.54 -0.04,-2.16 l 6.97,-8.88 c 0.38,-0.48 1.05,-0.65 1.57,-0.39 0.5,0.25 0.79,0.82 0.79,1.45 v 4.77 l 4.64,-5.85 c 0.38,-0.48 1.01,-0.64 1.53,-0.38 0.5,0.25 0.83,0.81 0.83,1.44 v 8.82 c 0,0.86 -0.61,1.57 -1.36,1.57 -0.75,0 -1.36,-0.7 -1.36,-1.57 v -4.79 l -4.64,5.85 c -0.38,0.48 -1.01,0.64 -1.54,0.38 -0.5,-0.24 -0.83,-0.81 -0.83,-1.44 v -4.67 l -4.61,5.8 c -0.26,0.32 -0.62,0.51 -1,0.51 v 0 z"
         style="fill:#2cabe1;stroke-width:0px"
         id="path7" />
      <path
         d="m 20.6,18.19 c -0.75,0 -1.35,-0.7 -1.35,-1.57 v -4.93 l -2.26,2.84 c -0.5,0.63 -1.44,0.65 -1.97,0.04 -0.51,-0.6 -0.52,-1.53 -0.03,-2.15 L 19.6,6.66 c 0.26,-0.32 0.63,-0.5 1,-0.5 0.18,0 0.37,0.04 0.54,0.12 0.5,0.25 0.82,0.81 0.82,1.44 v 8.89 c 0,0.86 -0.61,1.57 -1.36,1.57 v 0 z"
         style="fill:#ea2228;stroke-width:0px"
         id="path8" />
      <path
         d="m 37.2,18.21 v 0 c -0.35,0 -0.68,-0.15 -0.94,-0.42 -0.76,-0.78 -0.14,-1.84 0.29,-2.3 L 38.5,13.13 37.24,13.11 C 36.68,13.1 36.2,12.71 36,12.11 35.81,11.55 35.93,10.9 36.29,10.47 L 39.45,6.64 C 39.68,6.36 40,6.16 40.58,6.17 c 0.33,0 0.67,0.17 0.92,0.4 0.71,0.66 0.29,1.7 -0.07,2.2 l -1.04,1.26 1.26,0.02 c 0.56,0.01 1.04,0.4 1.24,1 0.19,0.56 0.07,1.21 -0.29,1.64 l -4.1,4.97 c -0.35,0.35 -0.65,0.55 -1.3,0.54 v 0 z"
         style="fill:#00a650;stroke-width:0px"
         id="path9" />
    </g>
  </g>
  <g
     id="g2" />
</svg>
