<svg xmlns="http://www.w3.org/2000/svg" width="20.41mm" height="130.6mm" viewBox="0 0 57.85 370.19">
  <g id="faceplate">
    <rect x="0.13" y="0.13" width="57.6" height="364.25" style="fill: #ededed;stroke: #9d9d9e;stroke-miterlimit: 10;stroke-width: 0.25px" />
    <path d="M44.73,261.18c0-8.08-7-14.63-15.59-14.63s-15.59,6.55-15.59,14.63v55.1h0v19.85a5.68,5.68,0,0,0,5.67,5.66H39.06a5.68,5.68,0,0,0,5.67-5.66V316.28h0Z" />
    <g>
      <path d="M20.22,357.07H18.38v-4.31l-1.66,2.5h-.15l-1.66-2.5v4.31H13.12v-7.44h1.67l1.87,2.79,1.89-2.79h1.67Z" />
      <path d="M28.39,357.07H26.75l-3.17-4.14v4.14H21.76v-7.44h1.63l3.16,4.12v-4.12h1.84Z" />
      <path d="M37,357.07H35.18v-4.31l-1.66,2.5h-.15l-1.66-2.5v4.31H29.92v-7.44h1.67l1.88,2.79,1.88-2.79H37Z" />
      <path d="M45.45,357.07H43.09l-.65-.93-.38-.58c-.24-.34-.39-.58-.47-.7-.35.58-.64,1-.86,1.37l-.56.84H37.84l2.59-3.87L38,349.63h2.35l.42.62c.24.36.53.81.86,1.35.32-.57.58-1,.77-1.27l.48-.7h2.31l-2.38,3.57Z" />
    </g>
    <g>
      <path d="M34.54,6.76l-5.53,7v-6a1.27,1.27,0,0,0-.64-1.17.89.89,0,0,0-1.13.29L20,16.13a1.49,1.49,0,0,0,0,1.79.9.9,0,0,0,1.46,0l5.5-7v6a1.29,1.29,0,0,0,.64,1.18.92.92,0,0,0,1.14-.3l5.53-7v6.15a1.05,1.05,0,1,0,2.06,0V7.64a1.28,1.28,0,0,0-.65-1.18A.91.91,0,0,0,34.54,6.76Z" style="stroke: #000;stroke-width: 0.6000000000000001px" />
      <path d="M20,6.68l-4.81,6.13a1.47,1.47,0,0,0,0,1.79.9.9,0,0,0,1.46,0l3.05-3.87V17a1.17,1.17,0,0,0,1,1.26,1.17,1.17,0,0,0,1-1.26V7.56a1.29,1.29,0,0,0-.65-1.17A.91.91,0,0,0,20,6.68Z" style="stroke: #000;stroke-width: 0.6000000000000001px" />
      <path d="M42.91,11.2a1.05,1.05,0,0,0-.95-.77h-2.1l1.53-1.95s.8-1.17.1-1.82a1.27,1.27,0,0,0-1.58.06l-3.23,4.1a1.45,1.45,0,0,0-.2,1.37,1,1,0,0,0,1,.78h2.1L37,16.14s-1,1.13-.27,1.89,1.75-.14,1.75-.14l4.18-5.31A1.5,1.5,0,0,0,42.91,11.2Z" style="stroke: #000;stroke-width: 0.6000000000000001px" />
    </g>
    <path d="M28.92,152.21c8,0,14.54,6,14.54,13.47V315.33c0,7.42-6.52,13.46-14.54,13.46s-14.54-6-14.54-13.46V165.68c0-7.43,6.52-13.47,14.53-13.47m0-1.05c-8.61,0-15.59,6.5-15.59,14.52V315.33c0,8,7,14.51,15.59,14.51s15.59-6.49,15.59-14.51V165.68c0-8-7-14.52-15.6-14.52Z" />
    <g>
      <path d="M23.92,190.34H22.49v-5.41h1.43Z" />
      <path d="M28.38,190.34H27.14V188.2a1.62,1.62,0,0,0-.09-.57.41.41,0,0,0-.42-.25.44.44,0,0,0-.26.07.65.65,0,0,0-.21.16,1.3,1.3,0,0,0-.15.2l-.13.2v2.33H24.64v-4h1.24v.57a1.66,1.66,0,0,1,.59-.5,1.38,1.38,0,0,1,.65-.14q1.26,0,1.26,1.71Z" />
      <path d="M36.08,190.34H34.61l-.39-1.1H32.15l-.39,1.1H30.29l2.1-5.41H34Zm-2.19-2-.69-2-.71,2Z" />
    </g>
    <g>
      <path d="M24.12,239.45H22.69V234h1.43Z" />
      <path d="M28.58,239.45H27.34v-2.14a1.72,1.72,0,0,0-.09-.58.4.4,0,0,0-.42-.24.53.53,0,0,0-.26.06.87.87,0,0,0-.21.17,1.3,1.3,0,0,0-.15.2c0,.06-.09.12-.13.19v2.34H24.84v-4h1.24V236a1.73,1.73,0,0,1,.59-.49,1.38,1.38,0,0,1,.65-.15q1.26,0,1.26,1.71Z" />
      <path d="M35.4,237.92A1.5,1.5,0,0,1,35,239a1.59,1.59,0,0,1-1.18.42H31.05V234h2.3a3,3,0,0,1,.78.09,1.7,1.7,0,0,1,.54.27,1.27,1.27,0,0,1,.3.4,1.22,1.22,0,0,1,.1.51,1.57,1.57,0,0,1-.1.54,1.43,1.43,0,0,1-.26.42.92.92,0,0,1-.31.23,1.83,1.83,0,0,1,.75.55A1.38,1.38,0,0,1,35.4,237.92Zm-1.67-2.32a.54.54,0,0,0-.23-.52,1.45,1.45,0,0,0-.71-.13h-.3v1.29h.31a1.45,1.45,0,0,0,.71-.13A.54.54,0,0,0,33.73,235.6Zm.23,2.25c0-.46-.3-.7-.89-.7h-.58v1.39h.58C33.66,238.54,34,238.31,34,237.85Z" />
    </g>
    <g>
      <path d="M28.8,288.56H27.36v-3.14l-1.3,1.82H26l-1.3-1.82v3.14H23.26v-5.41h1.3l1.46,2,1.47-2H28.8Z" style="fill: #fff" />
      <path d="M30.82,288.56H29.58v-4h1.24Zm-.1-4.89a.56.56,0,0,1-.16.41.45.45,0,0,1-.36.18.5.5,0,0,1-.27-.08.46.46,0,0,1-.18-.21.6.6,0,0,1-.07-.3.62.62,0,0,1,.15-.42.46.46,0,0,1,.37-.18.45.45,0,0,1,.36.18A.58.58,0,0,1,30.72,283.67Z" style="fill: #fff" />
      <path d="M35.13,288.56H33.89v-2.14a1.5,1.5,0,0,0-.1-.58.39.39,0,0,0-.41-.24.6.6,0,0,0-.27.06,1.06,1.06,0,0,0-.2.17l-.16.2a1.76,1.76,0,0,0-.12.2v2.33H31.39v-4h1.24v.57a1.8,1.8,0,0,1,.58-.49,1.45,1.45,0,0,1,.66-.15c.84,0,1.26.57,1.26,1.72Z" style="fill: #fff" />
    </g>
    <g>
      <path d="M27.87,337.67H26.44v-3.14l-1.3,1.82H25l-1.3-1.82v3.14h-1.4v-5.41h1.3l1.47,2,1.47-2h1.3Z" style="fill: #fff" />
      <path d="M32.22,337.47l-.5.2a1.79,1.79,0,0,1-.55.07.6.6,0,0,1-.43-.12.75.75,0,0,1-.17-.3,1.77,1.77,0,0,1-.45.3,1.41,1.41,0,0,1-.63.12,1.14,1.14,0,0,1-.62-.15.8.8,0,0,1-.33-.38,1.1,1.1,0,0,1-.1-.47,1.07,1.07,0,0,1,.17-.61,1.19,1.19,0,0,1,.44-.39,5.17,5.17,0,0,1,.72-.32l.39-.14.2-.08a.46.46,0,0,0,.14-.07.94.94,0,0,0-.1-.45c-.07-.11-.22-.16-.45-.16a1.5,1.5,0,0,0-.75.2,2.86,2.86,0,0,0-.64.52v-1.07a2,2,0,0,1,.5-.31,2.62,2.62,0,0,1,.56-.18,2.88,2.88,0,0,1,.59-.06,1.64,1.64,0,0,1,1.14.34,1.14,1.14,0,0,1,.39.92v1.53a1.31,1.31,0,0,0,0,.33c0,.07.07.11.14.11a.68.68,0,0,0,.31-.12Zm-1.72-.76v-.94a2.89,2.89,0,0,0-.64.36.54.54,0,0,0-.21.44.43.43,0,0,0,.11.31.29.29,0,0,0,.23.1.41.41,0,0,0,.25-.08A2.14,2.14,0,0,0,30.5,336.71Z" style="fill: #fff" />
      <path d="M36.23,337.67H34.7L34,336.54l-.67,1.13H32l1.36-1.95-1.38-2h1.52l.65,1.08.65-1.08h1.35l-1.32,1.89Z" style="fill: #fff" />
    </g>
  </g>
  <g /></svg>