<?xml version="1.0" encoding="UTF-8" standalone="no"?>
<svg
   width="40.360001mm"
   height="128.49515mm"
   viewBox="0 0 114.41 364.23169"
   version="1.1"
   id="svg114"
   sodipodi:docname="MPEG_artwork.svg"
   inkscape:version="1.3.2 (091e20e, 2023-11-25)"
   xmlns:inkscape="http://www.inkscape.org/namespaces/inkscape"
   xmlns:sodipodi="http://sodipodi.sourceforge.net/DTD/sodipodi-0.dtd"
   xmlns="http://www.w3.org/2000/svg"
   xmlns:svg="http://www.w3.org/2000/svg">
  <defs
     id="defs114" />
  <sodipodi:namedview
     id="namedview114"
     pagecolor="#ffffff"
     bordercolor="#000000"
     borderopacity="0.25"
     inkscape:showpageshadow="2"
     inkscape:pageopacity="0.0"
     inkscape:pagecheckerboard="0"
     inkscape:deskcolor="#d1d1d1"
     inkscape:document-units="mm"
     showgrid="false"
     inkscape:zoom="6.0509034"
     inkscape:cx="94.200809"
     inkscape:cy="164.60352"
     inkscape:window-width="2512"
     inkscape:window-height="1387"
     inkscape:window-x="50"
     inkscape:window-y="25"
     inkscape:window-maximized="0"
     inkscape:current-layer="faceplate" />
  <g
     id="faceplate"
     transform="translate(0,-0.00940739)">
    <rect
       x="0"
       y="0"
       width="114.41"
       height="364.25"
       style="fill:#171717;stroke-width:0px"
       id="rect1" />
    <path
       d="m 81.45,26.87 c 7.69,0 13.92,6.69 13.92,14.95 0,8.26 -6.23,14.95 -13.92,14.95 h -52.2 c -7.69,0 -13.92,-6.7 -13.92,-14.95 0,-8.25 6.23,-14.95 13.92,-14.95 H 81.46 M 81.45,25.6 h -52.2 c -8.37,0 -15.19,7.28 -15.19,16.22 0,8.94 6.81,16.22 15.19,16.22 h 52.21 c 8.37,0 15.19,-7.28 15.19,-16.22 0,-8.94 -6.81,-16.22 -15.19,-16.22 v 0 z"
       style="fill:#ffffff;stroke-width:0px"
       id="path1" />
    <polyline
       points="44.88 53.22 44.88 48.73 46.89 48.73 46.89 53.22 57.83 53.22 57.83 48.73 60.1 48.73 60.1 53.22 62.17 53.22"
       style="fill:none;stroke:#ffffff;stroke-linecap:square"
       id="polyline1" />
    <g
       id="g3">
      <path
         d="m 12.6,275.02 35.77,-20.67 c 2.61,-1.48 5.62,-2.34 8.83,-2.34 3.21,0 6.22,0.86 8.83,2.34 l 35.84,20.69 c 2.58,1.52 4.83,3.7 6.44,6.48 1.45,2.52 2.21,5.24 2.36,7.96 0.01,-0.21 0.03,-0.42 0.04,-0.63 v -41.71 c -0.03,-3 -0.79,-6.03 -2.39,-8.82 -1.61,-2.78 -3.85,-4.96 -6.44,-6.48 L 66.04,211.15 c -2.61,-1.48 -5.62,-2.34 -8.83,-2.34 -3.21,0 -6.22,0.86 -8.83,2.34 l -35.77,20.67 c -2.61,1.52 -4.88,3.71 -6.49,6.51 -1.62,2.8 -2.38,5.86 -2.39,8.88 v 41.28 c 0,0.37 0,0.74 0.03,1.11 0.14,-2.75 0.89,-5.52 2.36,-8.07 1.62,-2.8 3.89,-4.99 6.49,-6.51 z"
         style="fill:#ffffff;stroke:#ffffff;stroke-width:0.75px;stroke-linecap:square"
         id="path2" />
      <path
         d="m 110.67,295.52 c -0.16,2.69 -0.91,5.38 -2.34,7.87 -1.55,2.68 -3.7,4.79 -6.16,6.31 l -36.08,20.83 c -2.62,1.5 -5.65,2.37 -8.89,2.37 -3.24,0 -6.26,-0.87 -8.89,-2.37 L 12.57,309.89 c -2.6,-1.52 -4.87,-3.71 -6.48,-6.51 -1.42,-2.45 -2.17,-5.1 -2.35,-7.74 v -6.03 c 0.14,-2.75 0.89,-5.52 2.36,-8.07 1.62,-2.8 3.89,-4.99 6.49,-6.51 l 35.77,-20.67 c 2.61,-1.48 5.62,-2.34 8.83,-2.34 3.21,0 6.22,0.86 8.83,2.34 l 35.84,20.69 c 2.58,1.52 4.83,3.7 6.44,6.48 1.45,2.52 2.21,5.24 2.36,7.96 v 6.03 z"
         style="fill:none;stroke:#ffffff;stroke-width:0.75px;stroke-linecap:square"
         id="path3" />
    </g>
    <g
       id="g42">
      <g
         id="g21">
        <path
           d="m 3.3720703,-1.4033203 q 0,0.28125 -0.1113281,0.54492186 -0.1083984,0.26074219 -0.3164063,0.46875 -0.2080078,0.20800782 -0.4980468,0.32519532 -0.2900391,0.11718749 -0.6416016,0.11718749 -0.5068359,0 -0.87304687,-0.22265624 Q 0.56542969,-0.39550781 0.38085938,-0.76171875 0.19921875,-1.1308594 0.19921875,-1.5527344 q 0,-0.3427734 0.11425781,-0.6884765 0.11425782,-0.3486329 0.33105469,-0.6855469 0.21972656,-0.3398438 0.50976565,-0.6328125 0.290039,-0.2958985 0.665039,-0.5625 l 1.0019532,0.3310547 q -0.2402344,0.2050781 -0.4160157,0.375 -0.1757812,0.1669922 -0.3339843,0.3486328 -0.1582032,0.1816406 -0.2841797,0.3720703 0.1113281,-0.029297 0.2695312,-0.029297 0.3574219,0 0.65625,0.1640625 0.3017578,0.1640625 0.4804688,0.4658203 0.1787109,0.3017579 0.1787109,0.6914063 z m -1.0546875,-0.017578 q 0,-0.28125 -0.1582031,-0.413086 Q 2.0039063,-1.96875 1.7929687,-1.96875 q -0.2783203,0 -0.4101562,0.1787109 -0.1289063,0.1757813 -0.1289063,0.3691407 0,0.234375 0.1494141,0.3984375 0.1523438,0.16406246 0.3720703,0.16406246 0.1875,0 0.3076172,-0.0908203 0.1201172,-0.0908203 0.1757813,-0.21972655 0.058594,-0.1318359 0.058594,-0.2519531 z"
           id="text3"
           style="font-weight:700;font-size:6px;font-family:GillSans-Bold, 'Gill Sans';fill:#ffffff"
           transform="matrix(0.73,0,0,1,58.95,83.69)"
           aria-label="6" />
        <path
           d="M 3.3486328,-3.9433594 1.6142578,0.05273437 0.67089844,-0.24609375 1.9130859,-3.1611328 H 0.26953125 V -4.0605469 H 3.3486328 Z"
           id="text4"
           style="font-weight:700;font-size:6px;font-family:GillSans-Bold, 'Gill Sans';fill:#ffffff"
           transform="matrix(0.73,0,0,1,60.04,90.29)"
           aria-label="7" />
        <path
           d="m 3.3662109,-1.0927734 q 0,0.14355465 -0.061523,0.32812496 -0.058594,0.18457032 -0.2255859,0.375 -0.1669922,0.1875 -0.4863282,0.31640625 -0.3193359,0.12597656 -0.8115234,0.12597656 -0.5009766,0 -0.81738281,-0.12597656 Q 0.64746094,-0.19921875 0.47460938,-0.38964844 0.3046875,-0.58300781 0.25195313,-0.75878906 0.19921875,-0.9375 0.19921875,-1.0927734 q 0,-0.3076172 0.17578125,-0.5800782 0.17578125,-0.2724609 0.47753906,-0.421875 Q 0.60644531,-2.25 0.47167969,-2.4492188 0.33691406,-2.6513672 0.33691406,-2.9648438 q 0,-0.1757812 0.0732422,-0.3720703 0.0761719,-0.196289 0.24316406,-0.3779297 0.16992188,-0.1816406 0.44824219,-0.290039 0.28125,-0.1113281 0.6796875,-0.1113281 0.4160156,0 0.6943359,0.1113281 0.2783204,0.1083984 0.4482422,0.290039 0.1699219,0.178711 0.2373047,0.3720704 0.067383,0.1933593 0.067383,0.3779296 0,0.3222657 -0.1318359,0.515625 -0.1289063,0.1904297 -0.3837891,0.3544922 0.2021485,0.1054688 0.3427735,0.2578125 0.1435547,0.1494141 0.2255859,0.3457032 0.084961,0.196289 0.084961,0.3984375 z M 2.203125,-2.8857422 q 0,-0.1933594 -0.09668,-0.3691406 -0.09375,-0.1757813 -0.3134766,-0.1757813 -0.2255859,0 -0.328125,0.1699219 -0.102539,0.1669922 -0.102539,0.375 0,0.2373047 0.1259765,0.3896484 0.1289063,0.1494141 0.2929688,0.1494141 0.1669922,0 0.2929688,-0.1494141 0.1289062,-0.1523437 0.1289062,-0.3896484 z m 0.1201172,1.6845703 q 0,-0.1875 -0.082031,-0.3222656 -0.082031,-0.1376953 -0.2080078,-0.2050781 -0.1259765,-0.070312 -0.2519531,-0.070312 -0.2050781,0 -0.3720703,0.1611328 -0.1669922,0.1611328 -0.1669922,0.4365234 0,0.29589846 0.1669922,0.4511719 0.1669922,0.15527344 0.3779297,0.15527344 0.2167969,0 0.375,-0.16699219 0.1611328,-0.16699219 0.1611328,-0.43945315 z"
           id="text5"
           style="font-weight:700;font-size:6px;font-family:GillSans-Bold, 'Gill Sans';fill:#ffffff"
           transform="matrix(0.73,0,0,1,59.46,96.2)"
           aria-label="8" />
        <path
           d="M 4.9362304,-3.2075585 H 0.47974609 V -4.1908398 H 4.9362304 Z m 0,1.9150195 H 0.47974609 V -2.2718554 H 4.9362304 Z"
           id="text6"
           style="font-weight:700;font-size:8.12px;font-family:GillSans-Bold, 'Gill Sans';fill:#ffffff"
           transform="matrix(0.91,0,0,1,34.04,65.36)"
           aria-label="=" />
        <path
           d="M 3.6591797,0 H 2.3583984 L 1.78125,-0.84667969 1.2070312,0 H 0.05273437 L 1.2070312,-1.4648437 0.02929688,-2.9824219 H 1.3271484 l 0.5507813,0.8115235 0.5566406,-0.8115235 H 3.5888672 L 2.4609375,-1.5673828 Z M 7.0224609,0 H 3.9375 v -0.07910156 q 0.1787109,-0.17285157 0.3925781,-0.41308594 0.2138672,-0.24023437 0.5507813,-0.6357422 0.1552734,-0.1787109 0.290039,-0.3515625 0.1376953,-0.1728515 0.234375,-0.3339844 0.09668,-0.1640625 0.1640625,-0.3603515 0.067383,-0.1962891 0.067383,-0.4013672 0,-0.28125 -0.1640625,-0.4541016 -0.1611328,-0.1757812 -0.4130859,-0.1757812 -0.4980469,0 -0.9902344,0.515625 v -0.9580078 q 0.1728516,-0.1113282 0.2841797,-0.178711 0.1113281,-0.067383 0.2548828,-0.1318359 0.1464844,-0.064453 0.3457032,-0.1113281 0.1992187,-0.046875 0.430664,-0.046875 0.3720703,0 0.6767578,0.1523437 0.3046875,0.1494141 0.4775391,0.4365234 0.1757812,0.2841797 0.1757812,0.6650391 0,0.2695313 -0.079102,0.5039063 -0.079102,0.234375 -0.1640625,0.3779297 -0.084961,0.1435546 -0.225586,0.3544921 -0.2519531,0.375 -0.5390625,0.71484379 h 1.3154297 z"
           id="text7"
           style="font-weight:700;font-size:6px;font-family:GillSans-Bold, 'Gill Sans';fill:#ffffff"
           transform="matrix(0.73,0,0,1,40.3,65.26)"
           aria-label="x2" />
        <path
           d="M 3.0849609,-4.1162109 0.87597656,0.05273437 H 0.09082031 L 2.296875,-4.1162109 Z M 6.5039062,0 H 3.4189453 v -0.07910156 q 0.178711,-0.17285157 0.3925781,-0.41308594 0.2138672,-0.24023437 0.5507813,-0.6357422 0.1552734,-0.1787109 0.290039,-0.3515625 0.1376954,-0.1728515 0.234375,-0.3339844 0.09668,-0.1640625 0.1640625,-0.3603515 0.067383,-0.1962891 0.067383,-0.4013672 0,-0.28125 -0.1640625,-0.4541016 -0.1611329,-0.1757812 -0.413086,-0.1757812 -0.4980469,0 -0.9902343,0.515625 v -0.9580078 q 0.1728515,-0.1113282 0.2841796,-0.178711 0.1113282,-0.067383 0.2548828,-0.1318359 0.1464844,-0.064453 0.3457032,-0.1113281 0.1992187,-0.046875 0.430664,-0.046875 0.3720703,0 0.6767578,0.1523437 0.3046875,0.1494141 0.4775391,0.4365234 0.1757813,0.2841797 0.1757813,0.6650391 0,0.2695313 -0.079102,0.5039063 -0.079102,0.234375 -0.1640625,0.3779297 -0.084961,0.1435546 -0.2255859,0.3544921 -0.2519532,0.375 -0.5390625,0.71484379 h 1.3154296 z"
           id="text8"
           style="font-weight:700;font-size:6px;font-family:GillSans-Bold, 'Gill Sans';fill:#ffffff"
           transform="matrix(0.73,0,0,1,27.87,65.26)"
           aria-label="/2" />
        <path
           d="M 3.3486328,-0.87597656 H 2.8681641 V 0 H 1.7871094 V -0.87597656 H 0.13769531 V -1.6494141 L 1.9980469,-4.0605469 h 0.8701172 v 2.4873047 H 3.3486328 Z M 1.7871094,-1.5732422 v -1.3007812 l -1.00781253,1.3007812 z"
           id="text9"
           style="font-weight:700;font-size:6px;font-family:GillSans-Bold, 'Gill Sans';fill:#ffffff"
           transform="matrix(0.73,0,0,1,52.8,72.24)"
           aria-label="4" />
        <path
           d="M 3.3486328,-0.87597656 H 2.8681641 V 0 H 1.7871094 V -0.87597656 H 0.13769531 V -1.6494141 L 1.9980469,-4.0605469 h 0.8701172 v 2.4873047 H 3.3486328 Z M 1.7871094,-1.5732422 v -1.3007812 l -1.00781253,1.3007812 z"
           id="text10"
           style="font-weight:700;font-size:6px;font-family:GillSans-Bold, 'Gill Sans';fill:#ffffff"
           transform="matrix(0.73,0,0,1,17.21,72.24)"
           aria-label="4" />
        <path
           d="m 3.1201172,-1.2714844 q 0,0.34863284 -0.1640625,0.65332034 -0.1611328,0.3046875 -0.4892578,0.48925781 -0.3251953,0.18164062 -0.7939453,0.18164062 -0.375,0 -0.71777347,-0.09667968 Q 0.61230469,-0.140625 0.32519531,-0.33691406 V -1.2128906 q 0.1875,0.140625 0.52734375,0.28417966 0.34277344,0.14355469 0.59472654,0.14355469 0.2988281,0 0.4189453,-0.15527344 0.1201172,-0.15820311 0.1201172,-0.32519531 0,-0.1376953 -0.070312,-0.2607422 -0.070312,-0.1230469 -0.243164,-0.2021484 -0.1699219,-0.082031 -0.459961,-0.082031 -0.31933591,0 -0.61230466,0.1171875 V -4.0605469 H 2.953125 v 0.8554688 H 1.5 v 0.6972656 q 0.046875,-0.00586 0.09668,-0.00879 0.052734,-0.00586 0.073242,-0.00586 0.023437,-0.00293 0.087891,-0.00293 0.4101563,0 0.7207031,0.1728515 0.3105469,0.1728516 0.4746094,0.459961 0.1669922,0.2841797 0.1669922,0.6210937 z"
           id="text11"
           style="font-weight:700;font-size:6px;font-family:GillSans-Bold, 'Gill Sans';fill:#ffffff"
           transform="matrix(0.73,0,0,1,56.79,78.28)"
           aria-label="5" />
        <path
           d="m 3.1201172,-1.2714844 q 0,0.34863284 -0.1640625,0.65332034 -0.1611328,0.3046875 -0.4892578,0.48925781 -0.3251953,0.18164062 -0.7939453,0.18164062 -0.375,0 -0.71777347,-0.09667968 Q 0.61230469,-0.140625 0.32519531,-0.33691406 V -1.2128906 q 0.1875,0.140625 0.52734375,0.28417966 0.34277344,0.14355469 0.59472654,0.14355469 0.2988281,0 0.4189453,-0.15527344 0.1201172,-0.15820311 0.1201172,-0.32519531 0,-0.1376953 -0.070312,-0.2607422 -0.070312,-0.1230469 -0.243164,-0.2021484 -0.1699219,-0.082031 -0.459961,-0.082031 -0.31933591,0 -0.61230466,0.1171875 V -4.0605469 H 2.953125 v 0.8554688 H 1.5 v 0.6972656 q 0.046875,-0.00586 0.09668,-0.00879 0.052734,-0.00586 0.073242,-0.00586 0.023437,-0.00293 0.087891,-0.00293 0.4101563,0 0.7207031,0.1728515 0.3105469,0.1728516 0.4746094,0.459961 0.1669922,0.2841797 0.1669922,0.6210937 z"
           id="text12"
           style="font-weight:700;font-size:6px;font-family:GillSans-Bold, 'Gill Sans';fill:#ffffff"
           transform="matrix(0.73,0,0,1,13.53,78.28)"
           aria-label="5" />
        <path
           d="m 3.3720703,-1.4033203 q 0,0.28125 -0.1113281,0.54492186 -0.1083984,0.26074219 -0.3164063,0.46875 -0.2080078,0.20800782 -0.4980468,0.32519532 -0.2900391,0.11718749 -0.6416016,0.11718749 -0.5068359,0 -0.87304687,-0.22265624 Q 0.56542969,-0.39550781 0.38085938,-0.76171875 0.19921875,-1.1308594 0.19921875,-1.5527344 q 0,-0.3427734 0.11425781,-0.6884765 0.11425782,-0.3486329 0.33105469,-0.6855469 0.21972656,-0.3398438 0.50976565,-0.6328125 0.290039,-0.2958985 0.665039,-0.5625 l 1.0019532,0.3310547 q -0.2402344,0.2050781 -0.4160157,0.375 -0.1757812,0.1669922 -0.3339843,0.3486328 -0.1582032,0.1816406 -0.2841797,0.3720703 0.1113281,-0.029297 0.2695312,-0.029297 0.3574219,0 0.65625,0.1640625 0.3017578,0.1640625 0.4804688,0.4658203 0.1787109,0.3017579 0.1787109,0.6914063 z m -1.0546875,-0.017578 q 0,-0.28125 -0.1582031,-0.413086 Q 2.0039063,-1.96875 1.7929687,-1.96875 q -0.2783203,0 -0.4101562,0.1787109 -0.1289063,0.1757813 -0.1289063,0.3691407 0,0.234375 0.1494141,0.3984375 0.1523438,0.16406246 0.3720703,0.16406246 0.1875,0 0.3076172,-0.0908203 0.1201172,-0.0908203 0.1757813,-0.21972655 0.058594,-0.1318359 0.058594,-0.2519531 z"
           id="text13"
           style="font-weight:700;font-size:6px;font-family:GillSans-Bold, 'Gill Sans';fill:#ffffff"
           transform="matrix(0.73,0,0,1,11.1,83.69)"
           aria-label="6" />
        <path
           d="M 3.3486328,-3.9433594 1.6142578,0.05273437 0.67089844,-0.24609375 1.9130859,-3.1611328 H 0.26953125 V -4.0605469 H 3.3486328 Z"
           id="text14"
           style="font-weight:700;font-size:6px;font-family:GillSans-Bold, 'Gill Sans';fill:#ffffff"
           transform="matrix(0.73,0,0,1,10.58,90.29)"
           aria-label="7" />
        <path
           d="m 3.3662109,-1.0927734 q 0,0.14355465 -0.061523,0.32812496 -0.058594,0.18457032 -0.2255859,0.375 -0.1669922,0.1875 -0.4863282,0.31640625 -0.3193359,0.12597656 -0.8115234,0.12597656 -0.5009766,0 -0.81738281,-0.12597656 Q 0.64746094,-0.19921875 0.47460938,-0.38964844 0.3046875,-0.58300781 0.25195313,-0.75878906 0.19921875,-0.9375 0.19921875,-1.0927734 q 0,-0.3076172 0.17578125,-0.5800782 0.17578125,-0.2724609 0.47753906,-0.421875 Q 0.60644531,-2.25 0.47167969,-2.4492188 0.33691406,-2.6513672 0.33691406,-2.9648438 q 0,-0.1757812 0.0732422,-0.3720703 0.0761719,-0.196289 0.24316406,-0.3779297 0.16992188,-0.1816406 0.44824219,-0.290039 0.28125,-0.1113281 0.6796875,-0.1113281 0.4160156,0 0.6943359,0.1113281 0.2783204,0.1083984 0.4482422,0.290039 0.1699219,0.178711 0.2373047,0.3720704 0.067383,0.1933593 0.067383,0.3779296 0,0.3222657 -0.1318359,0.515625 -0.1289063,0.1904297 -0.3837891,0.3544922 0.2021485,0.1054688 0.3427735,0.2578125 0.1435547,0.1494141 0.2255859,0.3457032 0.084961,0.196289 0.084961,0.3984375 z M 2.203125,-2.8857422 q 0,-0.1933594 -0.09668,-0.3691406 -0.09375,-0.1757813 -0.3134766,-0.1757813 -0.2255859,0 -0.328125,0.1699219 -0.102539,0.1669922 -0.102539,0.375 0,0.2373047 0.1259765,0.3896484 0.1289063,0.1494141 0.2929688,0.1494141 0.1669922,0 0.2929688,-0.1494141 0.1289062,-0.1523437 0.1289062,-0.3896484 z m 0.1201172,1.6845703 q 0,-0.1875 -0.082031,-0.3222656 -0.082031,-0.1376953 -0.2080078,-0.2050781 -0.1259765,-0.070312 -0.2519531,-0.070312 -0.2050781,0 -0.3720703,0.1611328 -0.1669922,0.1611328 -0.1669922,0.4365234 0,0.29589846 0.1669922,0.4511719 0.1669922,0.15527344 0.3779297,0.15527344 0.2167969,0 0.375,-0.16699219 0.1611328,-0.16699219 0.1611328,-0.43945315 z"
           id="text15"
           style="font-weight:700;font-size:6px;font-family:GillSans-Bold, 'Gill Sans';fill:#ffffff"
           transform="matrix(0.73,0,0,1,10.49,96.2)"
           aria-label="8" />
        <path
           d="M 2.3349609,0 H 1.2246094 V -4.0605469 H 2.3349609 Z M 6.5964844,0 H 3.5115235 v -0.07910156 q 0.1787109,-0.17285157 0.3925781,-0.41308594 0.2138672,-0.24023437 0.5507813,-0.6357422 0.1552734,-0.1787109 0.290039,-0.3515625 0.1376953,-0.1728515 0.234375,-0.3339844 0.09668,-0.1640625 0.1640625,-0.3603515 0.067383,-0.1962891 0.067383,-0.4013672 0,-0.28125 -0.1640625,-0.4541016 -0.1611328,-0.1757812 -0.4130859,-0.1757812 -0.4980469,0 -0.9902344,0.515625 v -0.9580078 q 0.1728516,-0.1113282 0.2841797,-0.178711 0.1113281,-0.067383 0.2548828,-0.1318359 0.1464844,-0.064453 0.3457031,-0.1113281 0.1992188,-0.046875 0.4306641,-0.046875 0.3720703,0 0.6767578,0.1523437 0.3046875,0.1494141 0.4775391,0.4365234 0.1757812,0.2841797 0.1757812,0.6650391 0,0.2695313 -0.079102,0.5039063 -0.079102,0.234375 -0.1640625,0.3779297 -0.084961,0.1435546 -0.225586,0.3544921 -0.2519531,0.375 -0.5390625,0.71484379 h 1.3154297 z"
           id="text16"
           style="font-weight:700;font-size:6px;font-family:GillSans-Bold, 'Gill Sans';letter-spacing:-0.05em;fill:#ffffff"
           transform="matrix(0.73,0,0,1,56.39,101.7)"
           aria-label="12" />
        <path
           d="M 2.3349609,0 H 1.2246094 V -4.0605469 H 2.3349609 Z M 6.6375,-1.4033203 q 0,0.28125 -0.1113281,0.54492186 -0.1083984,0.26074219 -0.3164062,0.46875 -0.2080078,0.20800782 -0.4980469,0.32519532 -0.2900391,0.11718749 -0.6416016,0.11718749 -0.5068359,0 -0.8730468,-0.22265624 Q 3.8308594,-0.39550781 3.6462891,-0.76171875 3.4646485,-1.1308594 3.4646485,-1.5527344 q 0,-0.3427734 0.1142578,-0.6884765 0.1142578,-0.3486329 0.3310547,-0.6855469 0.2197265,-0.3398438 0.5097656,-0.6328125 0.2900391,-0.2958985 0.6650391,-0.5625 l 1.0019531,0.3310547 q -0.2402344,0.2050781 -0.4160156,0.375 -0.1757813,0.1669922 -0.3339844,0.3486328 -0.1582031,0.1816406 -0.2841797,0.3720703 0.1113281,-0.029297 0.2695313,-0.029297 0.3574218,0 0.65625,0.1640625 0.3017578,0.1640625 0.4804687,0.4658203 Q 6.6375,-1.7929687 6.6375,-1.4033203 Z m -1.0546875,-0.017578 q 0,-0.28125 -0.1582031,-0.413086 Q 5.269336,-1.96875 5.0583985,-1.96875 q -0.2783203,0 -0.4101563,0.1787109 -0.1289062,0.1757813 -0.1289062,0.3691407 0,0.234375 0.149414,0.3984375 0.1523438,0.16406246 0.3720704,0.16406246 0.1875,0 0.3076171,-0.0908203 0.1201172,-0.0908203 0.1757813,-0.21972655 0.058594,-0.1318359 0.058594,-0.2519531 z"
           id="text17"
           style="font-weight:700;font-size:6px;font-family:GillSans-Bold, 'Gill Sans';letter-spacing:-0.05em;fill:#ffffff"
           transform="matrix(0.73,0,0,1,11.13,101.7)"
           aria-label="16" />
        <path
           d="M 3.6591797,0 H 2.3583984 L 1.78125,-0.84667969 1.2070312,0 H 0.05273437 L 1.2070312,-1.4648437 0.02929688,-2.9824219 H 1.3271484 l 0.5507813,0.8115235 0.5566406,-0.8115235 H 3.5888672 L 2.4609375,-1.5673828 Z M 5.7263672,0 H 4.6160157 v -4.0605469 h 1.1103515 z m 4.3025388,-1.4033203 q 0,0.28125 -0.1113278,0.54492186 -0.1083984,0.26074219 -0.3164062,0.46875 -0.2080078,0.20800782 -0.4980469,0.32519532 -0.2900391,0.11718749 -0.6416016,0.11718749 -0.5068359,0 -0.8730468,-0.22265624 Q 7.2222657,-0.39550781 7.0376954,-0.76171875 6.8560548,-1.1308594 6.8560548,-1.5527344 q 0,-0.3427734 0.1142578,-0.6884765 0.1142578,-0.3486329 0.3310547,-0.6855469 0.2197265,-0.3398438 0.5097656,-0.6328125 0.2900391,-0.2958985 0.6650391,-0.5625 l 1.0019531,0.3310547 q -0.2402344,0.2050781 -0.4160156,0.375 -0.1757813,0.1669922 -0.3339844,0.3486328 -0.1582031,0.1816406 -0.2841797,0.3720703 0.1113281,-0.029297 0.2695313,-0.029297 0.3574218,0 0.65625,0.1640625 0.3017578,0.1640625 0.4804687,0.4658203 0.1787106,0.3017579 0.1787106,0.6914063 z m -1.0546872,-0.017578 q 0,-0.28125 -0.1582031,-0.413086 Q 8.6607423,-1.96875 8.4498048,-1.96875 q -0.2783203,0 -0.4101563,0.1787109 -0.1289062,0.1757813 -0.1289062,0.3691407 0,0.234375 0.149414,0.3984375 0.1523438,0.16406246 0.3720704,0.16406246 0.1875,0 0.3076171,-0.0908203 0.1201172,-0.0908203 0.1757813,-0.21972655 0.058594,-0.1318359 0.058594,-0.2519531 z"
           id="text18"
           style="font-weight:700;font-size:6px;font-family:GillSans-Bold, 'Gill Sans';letter-spacing:-0.05em;fill:#ffffff"
           transform="matrix(0.73,0,0,1,51.62,107.85)"
           aria-label="x16" />
        <path
           d="M 3.0849609,-4.1162109 0.87597656,0.05273437 H 0.09082031 L 2.296875,-4.1162109 Z m 2.8669923,2.9882812 q 0,0.31933595 -0.1259766,0.54492189 Q 5.7,-0.35742188 5.4919922,-0.21386719 q -0.2050781,0.140625 -0.4365234,0.20507813 -0.2314453,0.06152343 -0.4482422,0.06152343 -0.3076172,0 -0.6796875,-0.08496093 Q 3.5554688,-0.12011719 3.3035157,-0.24023438 V -1.1513672 Q 3.5085938,-0.98144531 3.7458985,-0.86425781 3.9832032,-0.75 4.2351563,-0.75 q 0.1904297,0 0.3193359,-0.0703125 0.131836,-0.0703125 0.1962891,-0.17578125 0.067383,-0.10839845 0.067383,-0.22851565 0,-0.1552734 -0.082031,-0.2753906 -0.082031,-0.1201172 -0.2373047,-0.1904297 -0.1552735,-0.073242 -0.3603516,-0.073242 H 4.0066407 v -0.6533203 h 0.1552734 q 0.2050781,0 0.3369141,-0.079102 0.1347656,-0.079101 0.1933593,-0.1875 0.058594,-0.1113281 0.058594,-0.2080078 0,-0.1845703 -0.1435547,-0.3251953 -0.140625,-0.1435547 -0.3662109,-0.1435547 -0.2021485,0 -0.421875,0.076172 -0.2167969,0.076172 -0.4072266,0.2050781 v -0.7792968 q 0.2871094,-0.1201172 0.5390625,-0.1875 0.2548828,-0.070312 0.5712891,-0.070312 0.4599609,0 0.7675781,0.1787109 0.3105469,0.1787109 0.4511719,0.4335937 0.1435547,0.2519532 0.1435547,0.4746094 0,0.1816406 -0.079102,0.3632813 -0.079102,0.1816406 -0.2080078,0.3222656 -0.1259766,0.140625 -0.2636719,0.2197266 0.2431641,0.1289062 0.4306641,0.3574218 0.1875,0.2285157 0.1875,0.6386719 z M 9.469336,0 H 6.3843751 v -0.07910156 q 0.1787109,-0.17285157 0.3925781,-0.41308594 0.2138672,-0.24023437 0.5507813,-0.6357422 0.1552734,-0.1787109 0.290039,-0.3515625 0.1376953,-0.1728515 0.234375,-0.3339844 0.09668,-0.1640625 0.1640625,-0.3603515 0.067383,-0.1962891 0.067383,-0.4013672 0,-0.28125 -0.1640625,-0.4541016 -0.1611328,-0.1757812 -0.4130859,-0.1757812 -0.4980469,0 -0.9902344,0.515625 v -0.9580078 q 0.1728516,-0.1113282 0.2841797,-0.178711 0.1113281,-0.067383 0.2548828,-0.1318359 0.1464844,-0.064453 0.3457032,-0.1113281 0.1992187,-0.046875 0.430664,-0.046875 0.3720703,0 0.6767578,0.1523437 0.3046875,0.1494141 0.4775391,0.4365234 0.1757812,0.2841797 0.1757812,0.6650391 0,0.2695313 -0.079101,0.5039063 -0.079102,0.234375 -0.1640625,0.3779297 -0.084961,0.1435546 -0.225586,0.3544921 -0.2519531,0.375 -0.5390625,0.71484379 H 9.469336 Z"
           id="text19"
           style="font-weight:700;font-size:6px;font-family:GillSans-Bold, 'Gill Sans';letter-spacing:-0.05em;fill:#ffffff"
           transform="matrix(0.73,0,0,1,13.58,107.85)"
           aria-label="/32" />
        <path
           d="m 3.0791016,-1.1279297 q 0,0.31933595 -0.1259766,0.54492189 -0.1259766,0.22558593 -0.3339844,0.36914062 -0.2050781,0.140625 -0.4365234,0.20507813 -0.2314453,0.06152343 -0.4482422,0.06152343 -0.3076172,0 -0.6796875,-0.08496093 Q 0.68261719,-0.12011719 0.43066406,-0.24023438 V -1.1513672 Q 0.63574219,-0.98144531 0.87304688,-0.86425781 1.1103516,-0.75 1.3623047,-0.75 q 0.1904297,0 0.3193359,-0.0703125 0.131836,-0.0703125 0.1962891,-0.17578125 0.067383,-0.10839845 0.067383,-0.22851565 0,-0.1552734 -0.082031,-0.2753906 Q 1.78125,-1.6201172 1.6259766,-1.6904297 1.4707031,-1.7636719 1.265625,-1.7636719 H 1.1337891 v -0.6533203 h 0.1552734 q 0.2050781,0 0.3369141,-0.079102 0.1347656,-0.079101 0.1933593,-0.1875 0.058594,-0.1113281 0.058594,-0.2080078 0,-0.1845703 -0.1435547,-0.3251953 -0.140625,-0.1435547 -0.3662109,-0.1435547 -0.2021485,0 -0.42187504,0.076172 -0.21679687,0.076172 -0.40722656,0.2050781 v -0.7792968 q 0.28710938,-0.1201172 0.5390625,-0.1875 0.2548828,-0.070312 0.5712891,-0.070312 0.4599609,0 0.7675781,0.1787109 0.3105469,0.1787109 0.4511719,0.4335937 0.1435547,0.2519532 0.1435547,0.4746094 0,0.1816406 -0.079102,0.3632813 -0.079102,0.1816406 -0.2080078,0.3222656 -0.1259766,0.140625 -0.2636719,0.2197266 0.2431641,0.1289062 0.4306641,0.3574218 0.1875,0.2285157 0.1875,0.6386719 z"
           id="text20"
           style="font-weight:700;font-size:6px;font-family:GillSans-Bold, 'Gill Sans';fill:#ffffff"
           transform="matrix(0.73,0,0,1,47.51,67.97)"
           aria-label="3" />
        <path
           d="m 3.0791016,-1.1279297 q 0,0.31933595 -0.1259766,0.54492189 -0.1259766,0.22558593 -0.3339844,0.36914062 -0.2050781,0.140625 -0.4365234,0.20507813 -0.2314453,0.06152343 -0.4482422,0.06152343 -0.3076172,0 -0.6796875,-0.08496093 Q 0.68261719,-0.12011719 0.43066406,-0.24023438 V -1.1513672 Q 0.63574219,-0.98144531 0.87304688,-0.86425781 1.1103516,-0.75 1.3623047,-0.75 q 0.1904297,0 0.3193359,-0.0703125 0.131836,-0.0703125 0.1962891,-0.17578125 0.067383,-0.10839845 0.067383,-0.22851565 0,-0.1552734 -0.082031,-0.2753906 Q 1.78125,-1.6201172 1.6259766,-1.6904297 1.4707031,-1.7636719 1.265625,-1.7636719 H 1.1337891 v -0.6533203 h 0.1552734 q 0.2050781,0 0.3369141,-0.079102 0.1347656,-0.079101 0.1933593,-0.1875 0.058594,-0.1113281 0.058594,-0.2080078 0,-0.1845703 -0.1435547,-0.3251953 -0.140625,-0.1435547 -0.3662109,-0.1435547 -0.2021485,0 -0.42187504,0.076172 -0.21679687,0.076172 -0.40722656,0.2050781 v -0.7792968 q 0.28710938,-0.1201172 0.5390625,-0.1875 0.2548828,-0.070312 0.5712891,-0.070312 0.4599609,0 0.7675781,0.1787109 0.3105469,0.1787109 0.4511719,0.4335937 0.1435547,0.2519532 0.1435547,0.4746094 0,0.1816406 -0.079102,0.3632813 -0.079102,0.1816406 -0.2080078,0.3222656 -0.1259766,0.140625 -0.2636719,0.2197266 0.2431641,0.1289062 0.4306641,0.3574218 0.1875,0.2285157 0.1875,0.6386719 z"
           id="text21"
           style="font-weight:700;font-size:6px;font-family:GillSans-Bold, 'Gill Sans';fill:#ffffff"
           transform="matrix(0.73,0,0,1,23.56,67.97)"
           aria-label="3" />
      </g>
      <g
         id="g41">
        <path
           d="m 48.82,103.66 c 0.47,0.61 0.9,1.17 1.22,1.59 1.14,-0.91 2.19,-1.92 3.13,-3.04 l -1.59,-1.22 c -0.83,0.98 -1.75,1.87 -2.76,2.67 z"
           style="fill:#ffffff;stroke-width:0px"
           id="path21" />
        <path
           d="m 44.93,106.08 0.78,1.87 c 1.33,-0.63 2.6,-1.38 3.77,-2.26 -0.3,-0.37 -0.71,-0.89 -1.25,-1.59 -1.03,0.76 -2.13,1.42 -3.29,1.98 z"
           style="fill:#ffffff;stroke-width:0px"
           id="path22" />
        <path
           d="m 21.21,100.99 -1.59,1.22 c 0.94,1.11 1.99,2.13 3.13,3.04 0.32,-0.42 0.74,-0.97 1.22,-1.59 -1,-0.8 -1.92,-1.69 -2.75,-2.67 z"
           style="fill:#ffffff;stroke-width:0px"
           id="path23" />
        <path
           d="m 24.56,104.1 c -0.54,0.7 -0.95,1.21 -1.25,1.59 1.17,0.87 2.44,1.63 3.77,2.26 l 0.77,-1.87 c -1.17,-0.56 -2.27,-1.22 -3.3,-1.98 z"
           style="fill:#ffffff;stroke-width:0px"
           id="path24" />
        <path
           d="m 52.79,99.41 1.59,1.22 c 0.71,-1.02 1.34,-2.1 1.87,-3.23 l -1.87,-0.77 c -0.46,0.97 -0.99,1.91 -1.6,2.79 z"
           style="fill:#ffffff;stroke-width:0px"
           id="path25" />
        <path
           d="m 16.79,91.67 -2,0.26 c 0.22,1.24 0.54,2.45 0.96,3.61 l 1.87,-0.77 c -0.36,-1 -0.64,-2.03 -0.84,-3.1 z"
           style="fill:#ffffff;stroke-width:0px"
           id="path26" />
        <path
           d="m 18.39,96.62 -1.87,0.77 c 0.53,1.13 1.16,2.21 1.88,3.23 l 1.59,-1.22 c -0.61,-0.88 -1.14,-1.81 -1.6,-2.79 z"
           style="fill:#ffffff;stroke-width:0px"
           id="path27" />
        <path
           d="m 16.45,88.08 c 0,-0.54 0.04,-1.08 0.08,-1.61 l -2,-0.26 c -0.05,0.62 -0.09,1.24 -0.09,1.87 0,0.63 0.03,1.25 0.09,1.87 l 2,-0.26 c -0.04,-0.53 -0.08,-1.06 -0.08,-1.61 z"
           style="fill:#ffffff;stroke-width:0px"
           id="path28" />
        <path
           d="m 17.63,81.39 -1.87,-0.77 c -0.42,1.16 -0.74,2.37 -0.96,3.61 l 2,0.26 c 0.2,-1.07 0.48,-2.1 0.84,-3.1 z"
           style="fill:#ffffff;stroke-width:0px"
           id="path29" />
        <path
           d="m 23.48,72.9 -1.22,-1.59 c -0.95,0.8 -1.84,1.69 -2.64,2.64 l 1.59,1.22 c 0.7,-0.82 1.45,-1.58 2.27,-2.27 z"
           style="fill:#ffffff;stroke-width:0px"
           id="path30" />
        <path
           d="m 27.85,70.08 -0.77,-1.87 c -1.13,0.53 -2.22,1.16 -3.23,1.88 l 1.22,1.59 c 0.88,-0.61 1.81,-1.14 2.79,-1.6 z"
           style="fill:#ffffff;stroke-width:0px"
           id="path31" />
        <path
           d="M 19.99,76.76 18.4,75.54 c -0.71,1.02 -1.34,2.1 -1.87,3.23 l 1.87,0.77 c 0.46,-0.97 0.99,-1.91 1.6,-2.79 z"
           style="fill:#ffffff;stroke-width:0px"
           id="path32" />
        <path
           d="m 56,91.67 c -0.2,1.07 -0.48,2.1 -0.84,3.1 l 1.87,0.77 c 0.42,-1.16 0.74,-2.37 0.96,-3.61 l -2,-0.26 z"
           style="fill:#ffffff;stroke-width:0px"
           id="path33" />
        <path
           d="m 54.39,79.54 1.87,-0.77 C 55.72,77.64 55.1,76.56 54.39,75.54 l -1.59,1.22 c 0.61,0.88 1.13,1.81 1.6,2.79 z"
           style="fill:#ffffff;stroke-width:0px"
           id="path34" />
        <path
           d="m 56.34,88.08 c 0,0.54 -0.04,1.07 -0.08,1.61 l 2,0.26 c 0.05,-0.62 0.09,-1.24 0.09,-1.87 0,-0.63 -0.03,-1.25 -0.09,-1.87 l -2,0.26 c 0.04,0.53 0.08,1.06 0.08,1.61 z"
           style="fill:#ffffff;stroke-width:0px"
           id="path35" />
        <path
           d="m 43.08,69.32 0.77,-1.87 c -1.16,-0.42 -2.37,-0.74 -3.61,-0.96 l -0.26,2 c 1.07,0.2 2.1,0.48 3.1,0.84 z"
           style="fill:#ffffff;stroke-width:0px"
           id="path36" />
        <path
           d="m 36.39,68.14 c 0.54,0 1.08,0.04 1.61,0.08 l 0.26,-2 c -0.62,-0.05 -1.24,-0.09 -1.87,-0.09 -0.63,0 -1.25,0.03 -1.87,0.09 l 0.26,2 c 0.53,-0.04 1.06,-0.08 1.61,-0.08 z"
           style="fill:#ffffff;stroke-width:0px"
           id="path37" />
        <path
           d="m 47.72,71.68 1.22,-1.59 c -1.02,-0.71 -2.1,-1.34 -3.23,-1.88 l -0.77,1.87 c 0.97,0.46 1.91,0.99 2.79,1.6 z"
           style="fill:#ffffff;stroke-width:0px"
           id="path38" />
        <path
           d="m 51.57,75.17 1.6,-1.22 C 52.37,73 51.48,72.11 50.53,71.31 l -1.22,1.59 c 0.82,0.7 1.57,1.45 2.27,2.27 z"
           style="fill:#ffffff;stroke-width:0px"
           id="path39" />
        <path
           d="m 56,84.49 2,-0.26 c -0.22,-1.24 -0.54,-2.45 -0.96,-3.61 l -1.87,0.77 c 0.36,1 0.64,2.03 0.84,3.1 z"
           style="fill:#ffffff;stroke-width:0px"
           id="path40" />
        <path
           d="m 32.8,68.48 -0.26,-2 c -1.24,0.22 -2.45,0.54 -3.61,0.96 l 0.77,1.87 c 1,-0.36 2.03,-0.64 3.1,-0.84 z"
           style="fill:#ffffff;stroke-width:0px"
           id="path41" />
      </g>
    </g>
    <g
       id="g48">
      <path
         d="m 61.46,174.95 c -7.25,0 -7.25,-4.05 -7.25,-4.05 v 4.05"
         style="fill:none;stroke:#ffffff;stroke-linecap:square"
         id="path42" />
      <path
         d="m 13.82,174.95 c 7.25,0 7.25,-4.05 7.25,-4.05 v 4.05"
         style="fill:none;stroke:#ffffff;stroke-linecap:square"
         id="path43" />
      <path
         d="m 67.95,165.07 c -3.88,0 -7.25,-4.05 -7.25,-4.05 v 4.05"
         style="fill:none;stroke:#ffffff"
         id="path44" />
      <path
         d="m 5.44,164.51 c 3.88,0 7.25,-4.05 7.25,-4.05 v 4.05"
         style="fill:none;stroke:#ffffff"
         id="path45" />
      <polyline
         points="68.99 150.76 61.74 146.71 61.74 150.76"
         style="fill:none;stroke:#ffffff"
         id="polyline45" />
      <polyline
         points="5.2 150.84 12.45 146.8 12.45 150.84"
         style="fill:none;stroke:#ffffff"
         id="polyline46" />
      <polyline
         points="41.62 129.88 36.95 124.66 32.27 129.88"
         style="fill:none;stroke:#ffffff"
         id="polyline47" />
      <path
         d="m 11.52,137.45 c 3.99,0 3.99,-4.45 3.99,-4.45 0,0 0.1,4.45 3.99,4.45"
         style="fill:none;stroke:#ffffff"
         id="path47" />
      <path
         d="m 55.61,137.93 c 0,0 1,-4.45 3.99,-4.45 2.99,0 3.99,4.45 3.99,4.45"
         style="fill:none;stroke:#ffffff"
         id="path48" />
    </g>
    <g
       id="g63">
      <path
         d="m 37.2,135.06 c 0.83,0 1.65,0.07 2.45,0.17 l 0.39,-2.21 c -0.93,-0.12 -1.88,-0.19 -2.84,-0.19 -0.96,0 -1.91,0.07 -2.84,0.19 l 0.39,2.21 c 0.81,-0.1 1.62,-0.17 2.45,-0.17 z"
         style="fill:#ffffff;stroke-width:0px"
         id="path49" />
      <path
         d="m 51.7,141.44 1.73,-1.45 c -1.28,-1.4 -2.74,-2.63 -4.34,-3.66 l -1.12,1.94 c 1.38,0.9 2.62,1.96 3.73,3.16 z"
         style="fill:#ffffff;stroke-width:0px"
         id="path50" />
      <path
         d="m 46.23,137.27 1.12,-1.95 c -1.67,-0.87 -3.46,-1.53 -5.34,-1.96 l -0.39,2.21 c 1.62,0.37 3.16,0.94 4.61,1.69 z"
         style="fill:#ffffff;stroke-width:0px"
         id="path51" />
      <path
         d="m 55.43,147.2 2.1,-0.77 c -0.73,-1.77 -1.69,-3.42 -2.83,-4.92 l -1.73,1.45 c 0.98,1.3 1.82,2.71 2.46,4.23 z"
         style="fill:#ffffff;stroke-width:0px"
         id="path52" />
      <path
         d="m 32.78,135.58 -0.39,-2.21 c -1.88,0.42 -3.67,1.08 -5.34,1.95 l 1.12,1.94 c 1.44,-0.74 2.98,-1.31 4.6,-1.69 z"
         style="fill:#ffffff;stroke-width:0px"
         id="path53" />
      <path
         d="m 56.92,153.9 h 2.26 c -0.08,-1.93 -0.41,-3.8 -0.96,-5.58 l -2.11,0.77 c 0.47,1.53 0.73,3.15 0.81,4.81 z"
         style="fill:#ffffff;stroke-width:0px"
         id="path54" />
      <path
         d="m 56.06,160.7 2.1,0.76 c 0.57,-1.79 0.91,-3.65 1.01,-5.56 h -2.23 c -0.09,1.65 -0.39,3.25 -0.88,4.8 z"
         style="fill:#ffffff;stroke-width:0px"
         id="path55" />
      <path
         d="m 52.92,166.78 1.72,1.44 c 1.15,-1.5 2.11,-3.14 2.84,-4.88 l -2.1,-0.77 c -0.64,1.5 -1.47,2.91 -2.45,4.2 z"
         style="fill:#ffffff;stroke-width:0px"
         id="path56" />
      <path
         d="m 21.43,142.97 -1.73,-1.45 c -1.14,1.5 -2.1,3.15 -2.83,4.91 l 2.1,0.77 c 0.64,-1.52 1.48,-2.93 2.46,-4.23 z"
         style="fill:#ffffff;stroke-width:0px"
         id="path57" />
      <path
         d="m 18.3,149.08 -2.11,-0.77 c -0.55,1.78 -0.88,3.65 -0.96,5.58 h 2.26 c 0.08,-1.66 0.34,-3.28 0.81,-4.81 z"
         style="fill:#ffffff;stroke-width:0px"
         id="path58" />
      <path
         d="m 17.47,155.9 h -2.23 c 0.09,1.91 0.44,3.78 1.01,5.56 l 2.1,-0.77 c -0.48,-1.54 -0.79,-3.15 -0.88,-4.8 z"
         style="fill:#ffffff;stroke-width:0px"
         id="path59" />
      <path
         d="m 19.04,162.57 -2.11,0.77 c 0.73,1.74 1.69,3.38 2.84,4.87 l 1.71,-1.44 c -0.99,-1.3 -1.81,-2.71 -2.45,-4.2 z"
         style="fill:#ffffff;stroke-width:0px"
         id="path60" />
      <path
         d="m 47.9,171.42 1.12,1.93 c 1.61,-1.03 3.05,-2.24 4.32,-3.62 l -1.71,-1.44 c -1.1,1.18 -2.34,2.23 -3.72,3.12 z"
         style="fill:#ffffff;stroke-width:0px"
         id="path61" />
      <path
         d="m 22.78,168.3 -1.71,1.44 c 1.27,1.37 2.71,2.59 4.32,3.62 l 1.12,-1.94 c -1.38,-0.89 -2.62,-1.94 -3.72,-3.12 z"
         style="fill:#ffffff;stroke-width:0px"
         id="path62" />
      <path
         d="m 26.45,138.27 -1.12,-1.94 c -1.6,1.03 -3.06,2.26 -4.34,3.66 l 1.73,1.45 c 1.11,-1.2 2.36,-2.27 3.74,-3.16 z"
         style="fill:#ffffff;stroke-width:0px"
         id="path63" />
    </g>
    <g
       id="g78">
      <g
         id="g75">
        <path
           d="m 81.85,125.02 -1.09,-0.92 c 0.81,-0.89 1.74,-1.67 2.75,-2.32 l 0.71,1.23 c -0.87,0.57 -1.66,1.25 -2.37,2.01 z"
           style="fill:#ffffff;stroke-width:0px"
           id="path64" />
        <path
           d="m 85.32,122.38 -0.71,-1.23 c 1.06,-0.55 2.19,-0.97 3.38,-1.24 l 0.25,1.4 c -1.03,0.24 -2.01,0.6 -2.92,1.07 z"
           style="fill:#ffffff;stroke-width:0px"
           id="path65" />
        <path
           d="m 79.48,128.68 -1.33,-0.48 c 0.46,-1.12 1.07,-2.17 1.79,-3.12 l 1.09,0.92 c -0.62,0.82 -1.15,1.72 -1.56,2.68 z"
           style="fill:#ffffff;stroke-width:0px"
           id="path66" />
        <path
           d="m 93.85,121.31 0.25,-1.4 c 1.19,0.27 2.33,0.69 3.38,1.24 l -0.71,1.23 c -0.91,-0.47 -1.89,-0.83 -2.92,-1.07 z"
           style="fill:#ffffff;stroke-width:0px"
           id="path67" />
        <path
           d="m 78.54,132.92 h -1.43 c 0.05,-1.23 0.26,-2.41 0.61,-3.54 l 1.34,0.49 c -0.3,0.97 -0.46,2 -0.51,3.05 z"
           style="fill:#ffffff;stroke-width:0px"
           id="path68" />
        <path
           d="m 79.09,137.23 -1.33,0.48 c -0.36,-1.13 -0.58,-2.32 -0.64,-3.53 h 1.42 c 0.06,1.04 0.25,2.06 0.55,3.04 z"
           style="fill:#ffffff;stroke-width:0px"
           id="path69" />
        <path
           d="M 81.08,141.09 79.99,142 c -0.73,-0.95 -1.33,-1.99 -1.8,-3.09 l 1.33,-0.49 c 0.41,0.95 0.93,1.84 1.55,2.67 z"
           style="fill:#ffffff;stroke-width:0px"
           id="path70" />
        <path
           d="m 101.04,125.99 1.1,-0.92 c 0.72,0.95 1.33,2 1.79,3.12 l -1.33,0.48 c -0.4,-0.96 -0.94,-1.86 -1.56,-2.68 z"
           style="fill:#ffffff;stroke-width:0px"
           id="path71" />
        <path
           d="m 103.03,129.87 1.34,-0.49 c 0.35,1.13 0.56,2.31 0.61,3.54 h -1.43 c -0.05,-1.05 -0.22,-2.08 -0.51,-3.05 z"
           style="fill:#ffffff;stroke-width:0px"
           id="path72" />
        <path
           d="m 103.55,134.19 h 1.42 c -0.06,1.21 -0.28,2.39 -0.64,3.53 L 103,137.23 c 0.31,-0.98 0.5,-2 0.55,-3.04 z"
           style="fill:#ffffff;stroke-width:0px"
           id="path73" />
        <path
           d="m 102.56,138.42 1.33,0.49 c -0.47,1.1 -1.07,2.14 -1.8,3.09 L 101,141.09 c 0.63,-0.82 1.15,-1.72 1.55,-2.66 z"
           style="fill:#ffffff;stroke-width:0px"
           id="path74" />
        <path
           d="m 97.86,123.01 0.71,-1.23 c 1.02,0.65 1.94,1.43 2.75,2.32 l -1.1,0.92 c -0.7,-0.76 -1.5,-1.44 -2.37,-2.01 z"
           style="fill:#ffffff;stroke-width:0px"
           id="path75" />
      </g>
      <path
         d="m 93.04,118.1 c 0,0.42 -0.05,0.79 -0.16,1.1 -0.11,0.31 -0.25,0.58 -0.43,0.78 -0.18,0.2 -0.39,0.35 -0.63,0.45 -0.24,0.1 -0.49,0.15 -0.75,0.15 -0.26,0 -0.52,-0.05 -0.75,-0.15 -0.24,-0.1 -0.44,-0.25 -0.63,-0.45 -0.19,-0.2 -0.33,-0.46 -0.43,-0.77 -0.11,-0.31 -0.16,-0.68 -0.16,-1.1 0,-0.42 0.05,-0.79 0.16,-1.11 0.11,-0.31 0.25,-0.57 0.43,-0.78 0.18,-0.2 0.39,-0.36 0.63,-0.46 0.24,-0.1 0.49,-0.15 0.75,-0.15 0.26,0 0.52,0.05 0.75,0.15 0.23,0.1 0.44,0.25 0.63,0.46 0.19,0.21 0.33,0.47 0.43,0.78 0.1,0.31 0.16,0.68 0.16,1.1 z m -1.44,0 c 0,-0.43 -0.03,-0.78 -0.09,-1.05 -0.06,-0.27 -0.21,-0.41 -0.44,-0.41 -0.16,0 -0.28,0.08 -0.36,0.23 -0.08,0.15 -0.13,0.33 -0.15,0.53 -0.02,0.2 -0.03,0.44 -0.03,0.7 0,0.46 0.03,0.82 0.09,1.07 0.06,0.26 0.21,0.38 0.44,0.38 0.23,0 0.38,-0.13 0.44,-0.38 0.06,-0.25 0.09,-0.61 0.09,-1.07 z"
         style="fill:#ffffff;stroke-width:0px"
         id="path76" />
      <path
         d="M 101.6,144.49 H 100 v 1.61 h -0.9 v -1.61 h -1.6 v -0.91 h 1.6 v -1.61 h 0.9 v 1.61 h 1.6 z"
         style="fill:#ffffff;stroke-width:0px"
         id="path77" />
      <path
         d="M 83.51,144.81 H 80.2 v -1.26 h 3.31 z"
         style="fill:#ffffff;stroke-width:0px"
         id="path78" />
      <circle
         cx="91.040001"
         cy="133.48"
         r="13.93"
         style="fill:none;stroke-width:0px"
         id="circle78" />
    </g>
    <g
       id="g93">
      <g
         id="g90">
        <path
           d="m 81.85,180.07 -1.09,-0.92 c 0.81,-0.89 1.74,-1.67 2.75,-2.32 l 0.71,1.23 c -0.87,0.57 -1.66,1.25 -2.37,2.01 z"
           style="fill:#ffffff;stroke-width:0px"
           id="path79" />
        <path
           d="m 85.32,177.43 -0.71,-1.23 c 1.06,-0.55 2.19,-0.97 3.38,-1.24 l 0.25,1.4 c -1.03,0.24 -2.01,0.6 -2.92,1.07 z"
           style="fill:#ffffff;stroke-width:0px"
           id="path80" />
        <path
           d="m 79.48,183.73 -1.33,-0.48 c 0.46,-1.12 1.07,-2.17 1.79,-3.12 l 1.09,0.92 c -0.62,0.82 -1.15,1.72 -1.56,2.68 z"
           style="fill:#ffffff;stroke-width:0px"
           id="path81" />
        <path
           d="m 93.85,176.36 0.25,-1.4 c 1.19,0.27 2.33,0.69 3.38,1.24 l -0.71,1.23 c -0.91,-0.47 -1.89,-0.83 -2.92,-1.07 z"
           style="fill:#ffffff;stroke-width:0px"
           id="path82" />
        <path
           d="m 78.54,187.97 h -1.43 c 0.05,-1.23 0.26,-2.41 0.61,-3.54 l 1.34,0.49 c -0.3,0.97 -0.46,2 -0.51,3.05 z"
           style="fill:#ffffff;stroke-width:0px"
           id="path83" />
        <path
           d="m 79.09,192.29 -1.33,0.48 c -0.36,-1.13 -0.58,-2.32 -0.64,-3.53 h 1.42 c 0.06,1.04 0.25,2.06 0.55,3.04 z"
           style="fill:#ffffff;stroke-width:0px"
           id="path84" />
        <path
           d="m 81.08,196.14 -1.09,0.91 c -0.73,-0.95 -1.33,-1.99 -1.8,-3.09 l 1.33,-0.49 c 0.41,0.95 0.93,1.84 1.55,2.67 z"
           style="fill:#ffffff;stroke-width:0px"
           id="path85" />
        <path
           d="m 101.04,181.05 1.1,-0.92 c 0.72,0.95 1.33,2 1.79,3.12 l -1.33,0.48 c -0.4,-0.96 -0.94,-1.86 -1.56,-2.68 z"
           style="fill:#ffffff;stroke-width:0px"
           id="path86" />
        <path
           d="m 103.03,184.92 1.34,-0.49 c 0.35,1.13 0.56,2.31 0.61,3.54 h -1.43 c -0.05,-1.05 -0.22,-2.08 -0.51,-3.05 z"
           style="fill:#ffffff;stroke-width:0px"
           id="path87" />
        <path
           d="m 103.55,189.24 h 1.42 c -0.06,1.21 -0.28,2.39 -0.64,3.53 L 103,192.28 c 0.31,-0.98 0.5,-2 0.55,-3.04 z"
           style="fill:#ffffff;stroke-width:0px"
           id="path88" />
        <path
           d="m 102.56,193.48 1.33,0.49 c -0.47,1.1 -1.07,2.14 -1.8,3.09 L 101,196.15 c 0.63,-0.82 1.15,-1.72 1.55,-2.66 z"
           style="fill:#ffffff;stroke-width:0px"
           id="path89" />
        <path
           d="m 97.86,178.07 0.71,-1.23 c 1.02,0.65 1.94,1.43 2.75,2.32 l -1.1,0.92 c -0.7,-0.76 -1.5,-1.44 -2.37,-2.01 z"
           style="fill:#ffffff;stroke-width:0px"
           id="path90" />
      </g>
      <path
         d="m 93.04,173.16 c 0,0.42 -0.05,0.79 -0.16,1.1 -0.11,0.31 -0.25,0.58 -0.43,0.78 -0.18,0.2 -0.39,0.35 -0.63,0.45 -0.24,0.1 -0.49,0.15 -0.75,0.15 -0.26,0 -0.52,-0.05 -0.75,-0.15 -0.24,-0.1 -0.44,-0.25 -0.63,-0.45 -0.19,-0.2 -0.33,-0.46 -0.43,-0.77 -0.11,-0.31 -0.16,-0.68 -0.16,-1.1 0,-0.42 0.05,-0.79 0.16,-1.11 0.11,-0.31 0.25,-0.57 0.43,-0.78 0.18,-0.2 0.39,-0.36 0.63,-0.46 0.24,-0.1 0.49,-0.15 0.75,-0.15 0.26,0 0.52,0.05 0.75,0.15 0.23,0.1 0.44,0.25 0.63,0.46 0.19,0.21 0.33,0.47 0.43,0.78 0.1,0.31 0.16,0.68 0.16,1.1 z m -1.44,0 c 0,-0.43 -0.03,-0.78 -0.09,-1.05 -0.06,-0.27 -0.21,-0.41 -0.44,-0.41 -0.16,0 -0.28,0.08 -0.36,0.23 -0.08,0.15 -0.13,0.33 -0.15,0.53 -0.02,0.2 -0.03,0.44 -0.03,0.7 0,0.46 0.03,0.82 0.09,1.07 0.06,0.26 0.21,0.38 0.44,0.38 0.23,0 0.38,-0.13 0.44,-0.38 0.06,-0.25 0.09,-0.61 0.09,-1.07 z"
         style="fill:#ffffff;stroke-width:0px"
         id="path91" />
      <path
         d="M 101.6,199.54 H 100 v 1.61 h -0.9 v -1.61 h -1.6 v -0.91 h 1.6 v -1.61 h 0.9 v 1.61 h 1.6 z"
         style="fill:#ffffff;stroke-width:0px"
         id="path92" />
      <path
         d="M 83.51,199.86 H 80.2 v -1.26 h 3.31 z"
         style="fill:#ffffff;stroke-width:0px"
         id="path93" />
      <circle
         cx="91.040001"
         cy="188.53999"
         r="13.93"
         style="fill:none;stroke-width:0px"
         id="circle93" />
    </g>
    <path
       d="m 7.0268555,-2.9355469 q 0,0.9360352 -0.3427735,1.5029297 Q 6.3457031,-0.86572266 5.8842773,-0.51416016 5.2294922,0 4.0517578,0 H 0.76464844 V -6.0908203 H 3.2958984 q 0.5712891,0 0.975586,0.061523 0.4086914,0.057129 0.7338867,0.1669922 0.3251953,0.1054688 0.5537109,0.2416992 0.2285157,0.131836 0.4086914,0.2856446 0.3120118,0.2548828 0.5449219,0.6020507 0.2373047,0.347168 0.3735352,0.8041993 0.140625,0.4570312 0.140625,0.993164 z m -1.8676758,-0.079102 q 0,-0.7426758 -0.2856445,-1.1557618 -0.28125,-0.4174804 -0.6811524,-0.5581054 -0.3955078,-0.140625 -0.8085937,-0.140625 H 2.6015625 v 3.6079101 h 0.7822266 q 0.7207031,0 1.2480468,-0.3427734 0.5273438,-0.3427734 0.5273438,-1.4106445 z M 9.079453,-5.5063477 q 0,0.2768555 -0.1977539,0.4702149 -0.1977539,0.1933594 -0.4702149,0.1933594 -0.1845703,0 -0.3383789,-0.087891 -0.149414,-0.087891 -0.2373047,-0.2373046 -0.087891,-0.1538086 -0.087891,-0.338379 0,-0.2724609 0.1933594,-0.4702148 0.1933594,-0.1977539 0.4702148,-0.1977539 0.272461,0 0.4702149,0.1977539 0.1977539,0.1977539 0.1977539,0.4702148 z M 9.2068944,0 H 7.6204686 V -4.4736328 H 9.2068944 Z M 14.65207,-4.4736328 12.617402,0 H 11.448457 L 9.4577341,-4.4736328 h 1.7006839 l 0.927246,2.3422851 1.02832,-2.3422851 z m 4.293809,-1.7006836 -3.313477,6.25341796 H 14.454668 L 17.76375,-6.1743164 Z M 26.566347,0 h -1.836914 v -3.5288086 l -1.656738,2.043457 h -0.14502 l -1.661133,-2.043457 V 0 h -1.784179 v -6.0908203 h 1.665527 l 1.87207,2.2851562 1.88086,-2.2851562 h 1.665527 z m 5.634142,0 h -1.586426 v -0.63720703 q -0.333984,0.36035156 -0.703125,0.54052734 -0.364746,0.17578125 -0.878906,0.17578125 -1.015137,0 -1.313965,-0.58886718 -0.298828,-0.59326168 -0.298828,-1.33593748 v -2.6279297 h 1.586426 v 2.4169922 q 0,0.3647461 0.118652,0.6416015 0.123047,0.272461 0.527344,0.272461 0.347168,0 0.549316,-0.1977539 0.202149,-0.1977539 0.413086,-0.5053711 v -2.6279297 h 1.586426 z m 2.316269,0 h -1.586426 v -6.0908203 h 1.586426 z m 4.258652,-0.25927734 q -0.246094,0.11865234 -0.681153,0.22851562 -0.430664,0.10986328 -0.826172,0.10986328 -1.709472,0 -1.709472,-1.66992186 V -3.375 h -0.716309 v -0.2768555 l 2.122559,-2.1621093 h 0.180176 v 1.340332 h 1.511718 V -3.375 h -1.511718 v 1.4326172 q 0,0.2504883 0.03076,0.4042969 0.03076,0.1538086 0.171387,0.2592773 0.14502,0.1010742 0.435059,0.1010742 0.377929,0 0.993164,-0.3164062 z"
       id="text93"
       style="font-weight:700;font-size:9px;font-family:GillSans-Bold, 'Gill Sans';letter-spacing:-0.04em;fill:#ffffff"
       transform="matrix(0.88,0,0,1,19.29,118.47)"
       aria-label="Div/Mult" />
    <path
       d="m 5.0229492,-1.7709961 q 0,0.5712891 -0.2944336,0.98876954 Q 4.4384766,-0.36474609 3.9155273,-0.140625 3.3925781,0.07910156 2.7158203,0.07910156 2.5268555,0.07910156 2.25,0.05273437 1.9775391,0.03076172 1.5205078,-0.07910156 1.0678711,-0.18896484 0.57568359,-0.40429688 V -1.8984375 q 0.46142581,0.2856445 0.90527341,0.4746094 0.4482422,0.1889648 0.9580078,0.1889648 0.4702149,0 0.6064454,-0.1538086 0.140625,-0.1582031 0.140625,-0.2944336 0,-0.2460937 -0.2373047,-0.4130859 Q 2.7114258,-2.2675781 2.2587891,-2.4477539 1.7578125,-2.6586914 1.3798828,-2.9047852 1.0019531,-3.1552734 0.76025391,-3.5288086 0.52294922,-3.9023438 0.52294922,-4.4121094 q 0,-0.4921875 0.24169922,-0.8876953 0.24169926,-0.3999023 0.73828126,-0.637207 0.496582,-0.2373047 1.2128906,-0.2373047 0.5097656,0 0.9404297,0.1010742 0.4350586,0.09668 0.7163086,0.2197266 0.28125,0.1230469 0.3867187,0.1933594 v 1.4282226 Q 4.3857422,-4.5 3.9243164,-4.7109375 3.4672852,-4.921875 2.9443359,-4.921875 q -0.3427734,0 -0.496582,0.1318359 -0.1538086,0.131836 -0.1538086,0.3251954 0,0.1801757 0.1538086,0.3120117 0.1538086,0.1318359 0.5493164,0.3208007 0.703125,0.3295899 1.125,0.5932618 0.421875,0.2636718 0.6591797,0.6108398 0.2416992,0.3427734 0.2416992,0.8569336 z M 10.428574,0 H 8.8465428 v -2.3203125 q 0,-0.026367 0,-0.04834 0.00439,-0.026367 0.00439,-0.1054688 0,-0.3208008 -0.1362305,-0.5888672 -0.1362305,-0.2680664 -0.5185547,-0.2680664 -0.2988281,0 -0.5273437,0.2021484 -0.2285157,0.197754 -0.4350586,0.5009766 V 0 H 5.6517186 v -6.0908203 h 1.5820313 v 2.258789 q 0.3911132,-0.4174804 0.7734375,-0.5668945 0.3823242,-0.1538086 0.8129882,-0.1538086 1.6083984,0 1.6083984,1.8061524 z m 5.229844,-0.22412109 q -0.347168,0.13623047 -0.641602,0.21972656 -0.294433,0.08349609 -0.707519,0.08349609 -0.391114,0 -0.544922,-0.13623047 -0.153809,-0.140625 -0.219727,-0.3383789 -0.254883,0.20654297 -0.566894,0.34277344 -0.312012,0.13183593 -0.817383,0.13183593 -0.487793,0 -0.791016,-0.16699218 -0.298828,-0.17138672 -0.421875,-0.42626954 -0.118652,-0.25927734 -0.118652,-0.53173824 0,-0.413086 0.206543,-0.6811524 0.210937,-0.2724609 0.5625,-0.4438476 0.351562,-0.1713868 0.93164,-0.3559571 0.32959,-0.1054687 0.496582,-0.1582031 0.171387,-0.057129 0.254883,-0.087891 0.0835,-0.030762 0.175782,-0.079102 0,-0.3251953 -0.131836,-0.5097656 -0.131836,-0.1845703 -0.571289,-0.1845703 -0.518555,0 -0.962403,0.2285156 -0.443847,0.2285156 -0.812988,0.5888672 v -1.2128906 q 0.294434,-0.2109375 0.637207,-0.3427735 0.342773,-0.1362304 0.716309,-0.2021484 0.373535,-0.065918 0.755859,-0.065918 0.971191,0 1.458984,0.3779297 0.492188,0.3735352 0.492188,1.0327149 v 1.7270507 q 0,0.2460938 0.04395,0.3691407 0.04834,0.11865231 0.171387,0.11865231 0.149414,0 0.404297,-0.12744141 z m -2.20166,-0.85693361 v -1.059082 q -0.5625,0.2285156 -0.821778,0.4130859 -0.259277,0.1801758 -0.259277,0.4921875 0,0.2241211 0.127441,0.34277346 0.131836,0.11865234 0.303223,0.11865234 0.162598,0 0.320801,-0.0878906 0.162597,-0.0922852 0.32959,-0.21972657 z m 7.378769,-1.1865234 q 0,0.4482422 -0.127441,0.8657226 -0.127441,0.4174805 -0.391113,0.75585941 -0.259278,0.33398437 -0.672364,0.53173828 -0.408691,0.19335937 -0.953613,0.19335937 -0.439453,0 -0.694336,-0.09228515 -0.250488,-0.09228516 -0.500976,-0.24609375 V 2.034668 h -1.582032 v -6.5083008 h 1.582032 v 0.4042969 q 0.237304,-0.206543 0.522949,-0.3427735 0.290039,-0.140625 0.782226,-0.140625 0.487793,0 0.958008,0.2416992 0.470215,0.2416993 0.773438,0.7558594 0.303222,0.5097656 0.303222,1.2875977 z M 19.17,-2.2324219 q 0,-0.4042969 -0.127441,-0.6547851 -0.127442,-0.2548828 -0.32959,-0.3647461 -0.202149,-0.1142578 -0.417481,-0.1142578 -0.28125,0 -0.461425,0.092285 -0.180176,0.087891 -0.338379,0.2241211 v 1.7094727 q 0.0835,0.043945 0.175781,0.1010742 0.09668,0.052734 0.188965,0.092285 0.09668,0.039551 0.202148,0.065918 0.109863,0.026367 0.23291,0.026367 0.373536,0 0.624024,-0.3164062 Q 19.17,-1.6875 19.17,-2.2324219 Z m 6.715195,0.3779297 h -3.150879 q 0.09229,0.4086914 0.452637,0.6679688 0.360351,0.25927731 0.817382,0.25927731 0.799805,0 1.766602,-0.44824221 v 0.97998049 q -0.347168,0.18017578 -0.84375,0.32958984 -0.492188,0.14501953 -1.256836,0.14501953 -0.826172,0 -1.40625,-0.30761719 -0.580078,-0.30761718 -0.870117,-0.83496097 -0.285645,-0.5273437 -0.285645,-1.1953125 0,-0.6591797 0.285645,-1.1777343 0.290039,-0.5229493 0.870117,-0.8173828 0.580078,-0.2988282 1.40625,-0.2988282 0.544922,0 1.050293,0.2373047 0.509766,0.2329102 0.834961,0.769043 0.32959,0.5317383 0.32959,1.3754883 z m -1.485352,-0.7822266 q 0,-0.430664 -0.215332,-0.6855468 -0.210937,-0.2592774 -0.61084,-0.2592774 -0.395507,0 -0.641601,0.2636719 -0.241699,0.2592773 -0.241699,0.6811523 z"
       id="text94"
       style="font-weight:700;font-size:9px;font-family:GillSans-Bold, 'Gill Sans';letter-spacing:-0.04em;fill:#ffffff"
       transform="matrix(0.88,0,0,1,25.75,182.97)"
       aria-label="Shape" />
    <path
       d="m 5.0229492,-1.7709961 q 0,0.5712891 -0.2944336,0.98876954 Q 4.4384766,-0.36474609 3.9155273,-0.140625 3.3925781,0.07910156 2.7158203,0.07910156 2.5268555,0.07910156 2.25,0.05273437 1.9775391,0.03076172 1.5205078,-0.07910156 1.0678711,-0.18896484 0.57568359,-0.40429688 V -1.8984375 q 0.46142581,0.2856445 0.90527341,0.4746094 0.4482422,0.1889648 0.9580078,0.1889648 0.4702149,0 0.6064454,-0.1538086 0.140625,-0.1582031 0.140625,-0.2944336 0,-0.2460937 -0.2373047,-0.4130859 Q 2.7114258,-2.2675781 2.2587891,-2.4477539 1.7578125,-2.6586914 1.3798828,-2.9047852 1.0019531,-3.1552734 0.76025391,-3.5288086 0.52294922,-3.9023438 0.52294922,-4.4121094 q 0,-0.4921875 0.24169922,-0.8876953 0.24169926,-0.3999023 0.73828126,-0.637207 0.496582,-0.2373047 1.2128906,-0.2373047 0.5097656,0 0.9404297,0.1010742 0.4350586,0.09668 0.7163086,0.2197266 0.28125,0.1230469 0.3867187,0.1933594 v 1.4282226 Q 4.3857422,-4.5 3.9243164,-4.7109375 3.4672852,-4.921875 2.9443359,-4.921875 q -0.3427734,0 -0.496582,0.1318359 -0.1538086,0.131836 -0.1538086,0.3251954 0,0.1801757 0.1538086,0.3120117 0.1538086,0.1318359 0.5493164,0.3208007 0.703125,0.3295899 1.125,0.5932618 0.421875,0.2636718 0.6591797,0.6108398 0.2416992,0.3427734 0.2416992,0.8569336 z m 4.4608007,1.56445313 q -0.1977539,0.074707 -0.4174805,0.140625 -0.2197266,0.06152344 -0.496582,0.10107422 -0.272461,0.04394531 -0.5976563,0.04394531 -0.7338867,0 -1.2436523,-0.24609375 Q 6.2230077,-0.41748047 5.9461522,-0.79101562 5.6736913,-1.1689453 5.5682225,-1.5600586 5.4627538,-1.9511719 5.4627538,-2.25 q 0,-0.2988281 0.1054687,-0.6899414 0.1098633,-0.3911133 0.3779297,-0.7558594 0.2680664,-0.3647461 0.7734375,-0.6108398 0.5097656,-0.2460938 1.2524414,-0.2460938 0.496582,0 0.8085938,0.070312 0.3120117,0.070312 0.6328125,0.1889649 v 1.2436523 q -0.7734375,-0.2460937 -1.2084961,-0.2460937 -0.421875,0 -0.7514649,0.2548828 Q 7.1282811,-2.7861328 7.1282811,-2.25 q 0,0.355957 0.1625977,0.6020508 0.1625976,0.2416992 0.4130859,0.355957 0.2504883,0.1142578 0.5009766,0.1142578 0.2373047,0 0.5405273,-0.070312 0.3032227,-0.070312 0.7382813,-0.2021484 z m 5.0496681,-0.0175781 q -0.347168,0.13623047 -0.641602,0.21972656 -0.294433,0.08349609 -0.707519,0.08349609 -0.391114,0 -0.544922,-0.13623047 -0.153809,-0.140625 -0.219727,-0.3383789 -0.254883,0.20654297 -0.566894,0.34277344 -0.312012,0.13183593 -0.817383,0.13183593 -0.487793,0 -0.791016,-0.16699218 Q 9.9455271,-0.25927734 9.8224802,-0.51416016 9.7038279,-0.7734375 9.7038279,-1.0458984 q 0,-0.413086 0.2065429,-0.6811524 0.2109372,-0.2724609 0.5625002,-0.4438476 0.351562,-0.1713868 0.93164,-0.3559571 0.32959,-0.1054687 0.496582,-0.1582031 0.171387,-0.057129 0.254883,-0.087891 0.0835,-0.030762 0.175782,-0.079102 0,-0.3251953 -0.131836,-0.5097656 -0.131836,-0.1845703 -0.571289,-0.1845703 -0.518555,0 -0.962403,0.2285156 -0.443847,0.2285156 -0.8129881,0.5888672 v -1.2128906 q 0.2944341,-0.2109375 0.6372071,-0.3427735 0.342773,-0.1362304 0.716309,-0.2021484 0.373535,-0.065918 0.755859,-0.065918 0.971191,0 1.458984,0.3779297 0.492188,0.3735352 0.492188,1.0327149 v 1.7270507 q 0,0.2460938 0.04395,0.3691407 0.04834,0.11865231 0.171387,0.11865231 0.149414,0 0.404297,-0.12744141 z m -2.20166,-0.85693361 v -1.059082 q -0.5625,0.2285156 -0.821778,0.4130859 -0.259277,0.1801758 -0.259277,0.4921875 0,0.2241211 0.127441,0.34277346 0.131836,0.11865234 0.303223,0.11865234 0.162598,0 0.320801,-0.0878906 0.162597,-0.0922852 0.32959,-0.21972657 z M 16.335527,0 h -1.586425 v -6.0908203 h 1.586425 z m 5.317734,-1.8544922 h -3.150879 q 0.09229,0.4086914 0.452637,0.6679688 0.360352,0.25927731 0.817383,0.25927731 0.799804,0 1.766601,-0.44824221 v 0.97998049 q -0.347168,0.18017578 -0.84375,0.32958984 -0.492187,0.14501953 -1.256836,0.14501953 -0.826171,0 -1.40625,-0.30761719 -0.580078,-0.30761718 -0.870117,-0.83496097 -0.285644,-0.5273437 -0.285644,-1.1953125 0,-0.6591797 0.285644,-1.1777343 0.290039,-0.5229493 0.870117,-0.8173828 0.580079,-0.2988282 1.40625,-0.2988282 0.544922,0 1.050293,0.2373047 0.509766,0.2329102 0.834961,0.769043 0.32959,0.5317383 0.32959,1.3754883 z M 20.16791,-2.6367188 q 0,-0.430664 -0.215332,-0.6855468 -0.210938,-0.2592774 -0.61084,-0.2592774 -0.395508,0 -0.641602,0.2636719 -0.241699,0.2592773 -0.241699,0.6811523 z"
       id="text95"
       style="font-weight:700;font-size:9px;font-family:GillSans-Bold, 'Gill Sans';letter-spacing:-0.04em;fill:#ffffff"
       transform="matrix(0.88,0,0,1,81.51,152.54)"
       aria-label="Scale" />
    <path
       d="m 7.2817383,-3.0498047 q 0,0.8525391 -0.3955078,1.5688477 -0.3911133,0.71630856 -1.1689453,1.13818356 -0.7778321,0.421875 -1.894043,0.421875 -1.1293945,0 -1.9116211,-0.43945312 Q 1.1293945,-0.79980469 0.74707031,-1.5161133 0.36914063,-2.2324219 0.36914063,-3.0498047 q 0,-0.8217773 0.37792968,-1.5336914 Q 1.125,-5.2998047 1.9072266,-5.7348633 q 0.7866211,-0.4394531 1.9160156,-0.4394531 0.84375,0 1.5029297,0.2504883 0.6635742,0.2504883 1.0898437,0.6811523 0.4262696,0.4262696 0.6459961,0.9975586 0.2197266,0.5668945 0.2197266,1.1953125 z m -1.8720703,0 q 0,-0.3427734 -0.1010743,-0.6240234 Q 5.2075195,-3.9594727 5.0009766,-4.1660156 4.7988281,-4.3769531 4.5043945,-4.4912109 4.2099609,-4.6098633 3.8232422,-4.6098633 q -0.7382813,0 -1.1601563,0.4306641 -0.421875,0.430664 -0.421875,1.1293945 0,0.6987305 0.421875,1.1337891 0.4262696,0.430664 1.1601563,0.430664 0.5053711,0 0.8613281,-0.1977539 0.355957,-0.2021484 0.5405274,-0.5537109 0.1845703,-0.355957 0.1845703,-0.8129883 z m 5.392441,-1.9072265 q -0.360351,-0.083496 -0.584472,-0.083496 -0.2548832,0 -0.3999028,0.1669921 -0.140625,0.1669922 -0.140625,0.4746094 v 0.1582031 H 10.476914 V -3.168457 H 9.6771092 V 0 H 8.0906835 V -3.168457 H 7.3611913 v -1.0722657 h 0.7294922 v -0.079102 q 0,-0.4702149 0.1801757,-0.8876953 0.1845704,-0.421875 0.6108399,-0.694336 0.4262695,-0.2724609 1.1249999,-0.2724609 0.395508,0 0.79541,0.083496 z m 3.221543,0 q -0.360351,-0.083496 -0.584473,-0.083496 -0.254882,0 -0.399902,0.1669921 -0.140625,0.1669922 -0.140625,0.4746094 v 0.1582031 h 0.799805 V -3.168457 H 12.898652 V 0 h -1.586426 v -3.168457 h -0.729492 v -1.0722657 h 0.729492 v -0.079102 q 0,-0.4702149 0.180176,-0.8876953 0.18457,-0.421875 0.61084,-0.694336 0.426269,-0.2724609 1.125,-0.2724609 0.395508,0 0.79541,0.083496 z m 3.463243,3.6518554 q 0,0.61523439 -0.452637,1.00195314 -0.448242,0.38232422 -1.335938,0.38232422 -0.496582,0 -0.8833,-0.08789062 -0.386719,-0.09228516 -0.84375,-0.25927735 V -1.3930664 q 0.399902,0.2285156 0.694336,0.347168 0.294433,0.11865231 0.645996,0.11865231 0.593261,0 0.593261,-0.32519531 0,-0.1098633 -0.08789,-0.1933594 -0.0835,-0.087891 -0.298828,-0.1933594 -0.210938,-0.1098632 -0.566895,-0.2592773 -0.439453,-0.1933594 -0.74707,-0.5185547 -0.307617,-0.3251953 -0.307617,-0.7954101 0,-0.3339844 0.202148,-0.6416016 0.206543,-0.3076172 0.619629,-0.5009766 0.413086,-0.1977539 0.997559,-0.1977539 0.140625,0 0.355957,0.021973 0.219726,0.017578 0.549316,0.1010742 0.333984,0.083496 0.632812,0.2373047 v 1.0942383 q -0.140625,-0.083496 -0.237304,-0.140625 -0.09229,-0.057129 -0.250489,-0.1274414 -0.158203,-0.070312 -0.373535,-0.1230469 -0.210937,-0.057129 -0.435058,-0.057129 -0.272461,0 -0.373535,0.1054687 -0.101075,0.1054688 -0.101075,0.2109375 0,0.1098633 0.105469,0.206543 0.105469,0.092285 0.470215,0.2329102 0.527344,0.2021484 0.84375,0.4174804 0.316406,0.2109375 0.448242,0.4658203 0.136231,0.2548829 0.136231,0.6020508 z m 5.084823,-0.5493164 h -3.150879 q 0.09229,0.4086914 0.452637,0.6679688 0.360352,0.25927731 0.817383,0.25927731 0.799805,0 1.766601,-0.44824221 v 0.97998049 q -0.347168,0.18017578 -0.84375,0.32958984 -0.492187,0.14501953 -1.256836,0.14501953 -0.826171,0 -1.40625,-0.30761719 -0.580078,-0.30761718 -0.870117,-0.83496097 -0.285644,-0.5273437 -0.285644,-1.1953125 0,-0.6591797 0.285644,-1.1777343 0.290039,-0.5229493 0.870117,-0.8173828 0.580079,-0.2988282 1.40625,-0.2988282 0.544922,0 1.050293,0.2373047 0.509766,0.2329102 0.834961,0.769043 0.32959,0.5317383 0.32959,1.3754883 z m -1.485351,-0.7822266 q 0,-0.430664 -0.215332,-0.6855468 -0.210938,-0.2592774 -0.61084,-0.2592774 -0.395508,0 -0.641602,0.2636719 -0.241699,0.2592773 -0.241699,0.6811523 z m 5.431993,2.37744146 q -0.246094,0.11865234 -0.681152,0.22851562 -0.430664,0.10986328 -0.826172,0.10986328 -1.709473,0 -1.709473,-1.66992186 V -3.375 h -0.716308 v -0.2768555 l 2.122558,-2.1621093 h 0.180176 v 1.340332 h 1.511719 V -3.375 h -1.511719 v 1.4326172 q 0,0.2504883 0.03076,0.4042969 0.03076,0.1538086 0.171386,0.2592773 0.14502,0.1010742 0.435059,0.1010742 0.37793,0 0.993164,-0.3164062 z"
       id="text96"
       style="font-weight:700;font-size:9px;font-family:GillSans-Bold, 'Gill Sans';letter-spacing:-0.04em;fill:#ffffff"
       transform="matrix(0.88,0,0,1,79.49,208.13)"
       aria-label="Offset" />
    <path
       d="m 6.2460937,-2.609375 q 0,0.8320313 -0.3046875,1.3359375 Q 5.640625,-0.76953125 5.2304687,-0.45703125 4.6484375,0 3.6015625,0 h -2.921875 v -5.4140625 h 2.25 q 0.5078125,0 0.8671875,0.054687 0.3632812,0.050781 0.6523437,0.1484375 0.2890625,0.09375 0.4921875,0.2148438 0.203125,0.1171875 0.3632813,0.2539062 0.2773437,0.2265625 0.484375,0.5351563 Q 6,-3.8984375 6.1210937,-3.4921875 q 0.125,0.40625 0.125,0.8828125 z m -1.6601562,-0.070312 q 0,-0.6601563 -0.2539063,-1.0273438 -0.25,-0.3710937 -0.6054687,-0.4960937 -0.3515625,-0.125 -0.71875,-0.125 H 2.3125 v 3.2070313 h 0.6953125 q 0.640625,0 1.109375,-0.3046875 0.46875,-0.3046875 0.46875,-1.2539063 z M 8.390625,-4.8945312 q 0,0.2460937 -0.1757812,0.4179687 -0.1757813,0.171875 -0.4179688,0.171875 -0.1640625,0 -0.3007813,-0.078125 -0.1328125,-0.078125 -0.2109375,-0.2109375 -0.078125,-0.1367187 -0.078125,-0.3007812 0,-0.2421875 0.171875,-0.4179688 0.171875,-0.1757812 0.4179688,-0.1757812 0.2421875,0 0.4179688,0.1757812 0.1757812,0.1757813 0.1757812,0.4179688 z M 8.5039063,0 H 7.09375 V -3.9765625 H 8.5039063 Z M 13.664063,-3.9765625 11.855469,0 H 10.816406 L 9.046875,-3.9765625 h 1.511719 l 0.824219,2.0820313 0.914062,-2.0820313 z"
       id="text97"
       style="font-weight:700;font-size:8px;font-family:GillSans-Bold, 'Gill Sans';fill:#ffffff"
       transform="matrix(0.83,0,0,1,51.4,330.27)"
       aria-label="Div" />
    <g
       id="text100"
       style="font-weight:700;font-size:8px;font-family:GillSans-Bold, 'Gill Sans';fill:#ffffff"
       transform="matrix(0.83,0,0,1,40.94,287.64)"
       aria-label="Shape CV">
      <path
         d="m 4.4648437,-1.5742187 q 0,0.5078125 -0.2617187,0.8789062 Q 3.9453125,-0.32421875 3.4804688,-0.125 3.015625,0.0703125 2.4140625,0.0703125 2.2460938,0.0703125 2,0.046875 1.7578125,0.02734375 1.3515625,-0.0703125 0.94921875,-0.16796875 0.51171875,-0.359375 V -1.6875 q 0.41015625,0.2539063 0.80468745,0.421875 0.3984375,0.1679688 0.8515626,0.1679688 0.4179687,0 0.5390625,-0.1367188 0.125,-0.140625 0.125,-0.2617187 0,-0.21875 -0.2109375,-0.3671875 Q 2.4101563,-2.015625 2.0078125,-2.1757813 1.5625,-2.3632813 1.2265625,-2.5820313 0.890625,-2.8046875 0.67578125,-3.1367188 0.46484375,-3.46875 0.46484375,-3.921875 q 0,-0.4375 0.21484375,-0.7890625 0.21484375,-0.3554687 0.65625,-0.5664062 0.4414062,-0.2109375 1.078125,-0.2109375 0.453125,0 0.8359375,0.089844 0.3867188,0.085937 0.6367188,0.1953125 0.2499999,0.109375 0.3437499,0.171875 v 1.2695312 Q 3.8984375,-4 3.4882813,-4.1875 3.0820313,-4.375 2.6171875,-4.375 2.3125,-4.375 2.1757813,-4.2578125 2.0390625,-4.140625 2.0390625,-3.96875 q 0,0.1601562 0.1367188,0.2773437 0.1367187,0.1171875 0.4882812,0.2851563 0.625,0.2929687 1,0.5273437 0.375,0.234375 0.5859375,0.5429688 0.2148437,0.3046875 0.2148437,0.7617188 z M 9.5898438,0 h -1.40625 v -2.0625 q 0,-0.023437 0,-0.042969 0.00391,-0.023437 0.00391,-0.09375 0,-0.2851562 -0.1210937,-0.5234375 -0.1210938,-0.2382812 -0.4609376,-0.2382812 -0.265625,0 -0.46875,0.1796875 Q 6.9335937,-2.6054688 6.75,-2.3359375 V 0 H 5.34375 V -5.4140625 H 6.75 V -3.40625 q 0.3476562,-0.3710938 0.6875,-0.5039063 0.3398437,-0.1367187 0.7226563,-0.1367187 1.4296875,0 1.4296875,1.6054687 z"
         id="path96" />
      <path
         style="letter-spacing:0.01em"
         d="M 14.554218,-0.19921875 Q 14.245625,-0.078125 13.983906,-0.00390625 13.722187,0.0703125 13.355,0.0703125 q -0.347657,0 -0.484375,-0.12109375 -0.136719,-0.125 -0.195313,-0.30078125 -0.226562,0.18359375 -0.503906,0.3046875 -0.277344,0.1171875 -0.726563,0.1171875 -0.433593,0 -0.703125,-0.1484375 -0.265625,-0.15234375 -0.375,-0.37890625 Q 10.26125,-0.6875 10.26125,-0.9296875 q 0,-0.3671875 0.183593,-0.6054687 0.1875,-0.2421875 0.5,-0.3945313 0.3125,-0.1523438 0.828125,-0.3164063 0.292969,-0.09375 0.441407,-0.140625 0.152343,-0.050781 0.226562,-0.078125 0.07422,-0.027344 0.15625,-0.070312 0,-0.2890625 -0.117187,-0.453125 -0.117188,-0.1640625 -0.507813,-0.1640625 -0.460937,0 -0.855469,0.203125 -0.394531,0.203125 -0.722656,0.5234375 v -1.078125 q 0.261719,-0.1875 0.566406,-0.3046875 0.304688,-0.1210937 0.636719,-0.1796875 0.332031,-0.058594 0.671875,-0.058594 0.863281,0 1.296875,0.3359375 0.4375,0.3320312 0.4375,0.9179687 v 1.5351563 q 0,0.21875 0.03906,0.328125 0.04297,0.10546875 0.152343,0.10546875 0.132813,0 0.359375,-0.11328125 z M 12.597187,-0.9609375 v -0.9414062 q -0.5,0.203125 -0.730469,0.3671875 -0.230468,0.1601562 -0.230468,0.4375 0,0.1992187 0.113281,0.30468745 0.117187,0.10546875 0.269531,0.10546875 0.144531,0 0.285156,-0.078125 0.144532,-0.0820313 0.292969,-0.1953125 z"
         id="path97" />
      <path
         style="letter-spacing:0em"
         d="m 19.476406,-2.015625 q 0,0.3984375 -0.113281,0.7695313 -0.113281,0.3710937 -0.347656,0.67187495 -0.230469,0.296875 -0.597657,0.47265625 -0.363281,0.171875 -0.847656,0.171875 -0.390625,0 -0.617187,-0.08203125 -0.222657,-0.08203125 -0.445313,-0.21875 V 1.8085937 h -1.40625 v -5.7851562 h 1.40625 v 0.359375 q 0.210938,-0.1835938 0.464844,-0.3046875 0.257812,-0.125 0.695312,-0.125 0.433594,0 0.851563,0.2148437 0.417969,0.2148438 0.6875,0.671875 0.269531,0.453125 0.269531,1.1445313 z m -1.480469,0.03125 q 0,-0.359375 -0.113281,-0.5820313 Q 17.769375,-2.7929688 17.589687,-2.890625 17.41,-2.9921875 17.218594,-2.9921875 q -0.25,0 -0.410157,0.082031 -0.160156,0.078125 -0.300781,0.1992188 v 1.5195313 q 0.07422,0.039063 0.15625,0.089844 0.08594,0.046875 0.167969,0.082031 0.08594,0.0351562 0.179687,0.0585937 0.09766,0.0234375 0.207032,0.0234375 0.332031,0 0.554687,-0.28125 Q 17.995937,-1.5 17.995937,-1.984375 Z M 24.285,-1.6484375 h -2.800781 q 0.08203,0.3632813 0.402343,0.59375 0.320313,0.23046875 0.726563,0.23046875 0.710937,0 1.570312,-0.39843745 v 0.8710937 q -0.308593,0.16015625 -0.75,0.29296875 -0.4375,0.12890625 -1.117187,0.12890625 -0.734375,0 -1.25,-0.2734375 -0.515625,-0.2734375 -0.773438,-0.7421875 -0.253906,-0.46875 -0.253906,-1.0625 0,-0.5859375 0.253906,-1.046875 0.257813,-0.4648438 0.773438,-0.7265625 0.515625,-0.265625 1.25,-0.265625 0.484375,0 0.933594,0.2109375 0.453125,0.2070312 0.742187,0.6835937 Q 24.285,-2.6796875 24.285,-1.9296875 Z M 22.964687,-2.34375 q 0,-0.3828125 -0.191406,-0.609375 -0.1875,-0.2304688 -0.542969,-0.2304688 -0.351562,0 -0.570312,0.234375 -0.214844,0.2304688 -0.214844,0.6054688 z m 9.464844,1.9375 q -0.335937,0.17578125 -0.6875,0.28125 -0.351562,0.10546875 -0.710937,0.1484375 -0.355469,0.046875 -0.738282,0.046875 -0.707031,0 -1.269531,-0.1953125 -0.558594,-0.1953125 -0.972656,-0.57421875 -0.410156,-0.38281245 -0.617188,-0.89062495 -0.203125,-0.5117188 -0.203125,-1.1210938 0,-0.6992188 0.242188,-1.2226563 0.242187,-0.5273437 0.675781,-0.8749999 0.4375,-0.3476563 0.992188,-0.5117188 0.558593,-0.1679687 1.175781,-0.1679687 0.921875,0 2.089844,0.4101562 v 1.4375 q -0.402344,-0.25 -0.796875,-0.4140625 -0.390625,-0.1679687 -0.921875,-0.1679687 -0.472657,0 -0.882813,0.1875 -0.410156,0.1874999 -0.660156,0.5351562 -0.25,0.3476562 -0.25,0.8125 0,0.4101562 0.21875,0.7539063 0.21875,0.3398437 0.605469,0.5429687 0.390625,0.1992188 0.878906,0.1992188 0.394531,0 0.746094,-0.09375 0.351562,-0.097656 0.589843,-0.2148438 0.242188,-0.1171875 0.496094,-0.2773437 z m 6.394531,-5.0078125 -2.441406,5.484375 H 35.304531 L 32.91,-5.4140625 h 1.699219 l 1.238281,3.125 1.273437,-3.125 z"
         id="path98" />
    </g>
    <g
       id="text103"
       style="font-weight:700;font-size:8px;font-family:GillSans-Bold, 'Gill Sans';fill:#ffffff"
       transform="matrix(0.83,0,0,1,10.47,307.51)"
       aria-label="Trigger">
      <path
         style="letter-spacing:-0.03em"
         d="M 5.8710937,-4.0976562 H 3.8867188 V 0 H 2.2578125 v -4.0976562 h -1.984375 v -1.3164063 h 5.5976562 z"
         id="path46" />
      <path
         style="letter-spacing:-0.04em"
         d="M 9.8553123,-3.7617188 9.3357811,-2.3515625 Q 9.0154686,-2.65625 8.6873436,-2.65625 q -0.296875,0 -0.515625,0.203125 -0.2148438,0.1992187 -0.4140625,0.7421875 V 0 h -1.40625 v -3.9765625 h 1.40625 v 0.9609375 q 0.1328125,-0.3554688 0.46875,-0.6914063 0.3359375,-0.3398437 0.7890625,-0.3398437 0.2382812,0 0.4140625,0.070312 0.1796875,0.070312 0.4257812,0.2148437 z"
         id="path94" />
      <path
         d="m 11.336407,-4.8945312 q 0,0.2460937 -0.175782,0.4179687 -0.175781,0.171875 -0.417968,0.171875 -0.164063,0 -0.300782,-0.078125 -0.132812,-0.078125 -0.210937,-0.2109375 -0.07813,-0.1367187 -0.07813,-0.3007812 0,-0.2421875 0.171875,-0.4179688 0.171875,-0.1757812 0.417969,-0.1757812 0.242187,0 0.417968,0.1757812 0.175782,0.1757813 0.175782,0.4179688 z M 11.449688,0 h -1.410156 v -3.9765625 h 1.410156 z m 4.96875,-3.1289063 h -0.695313 q 0.367188,0.3203125 0.367188,0.7851563 0,0.2460937 -0.105469,0.4726563 -0.101562,0.2265625 -0.304687,0.4023437 -0.199219,0.1757813 -0.496094,0.2890625 -0.292969,0.109375 -0.671875,0.1328125 -0.488281,0.019531 -0.488281,0.26171875 0,0.09375 0.0625,0.13671875 0.0625,0.0429687 0.195312,0.0664063 0.136719,0.0195313 0.457031,0.046875 0.363282,0.03125 0.675782,0.109375 0.3125,0.078125 0.582031,0.328125 0.269531,0.25 0.269531,0.71484375 0,0.37109375 -0.203125,0.65625 -0.199219,0.2851562 -0.648437,0.4453125 -0.449219,0.1601562 -1.1875,0.1601562 -1.0625,0 -1.5625,-0.2851562 -0.496094,-0.2851563 -0.496094,-0.76171875 0,-0.12890625 0.0625,-0.296875 Q 12.297344,0.3671875 12.504375,0.2109375 12.715313,0.0546875 13.11375,0 12.973125,-0.05078125 12.871563,-0.1953125 12.77,-0.34375 12.77,-0.50390625 q 0,-0.20703125 0.140625,-0.41015625 0.144532,-0.203125 0.464844,-0.2617187 -0.445312,-0.1171875 -0.769531,-0.4414063 -0.324219,-0.3242187 -0.324219,-0.8398438 0,-0.390625 0.148438,-0.6835937 0.152343,-0.2929688 0.417968,-0.4765625 0.265625,-0.1835938 0.617188,-0.2695313 0.351562,-0.089844 0.769531,-0.089844 h 2.183594 z m -1.554688,0.671875 q 0,-0.3007812 -0.207031,-0.4804687 -0.203125,-0.1835938 -0.457031,-0.1835938 -0.324219,0 -0.511719,0.21875 -0.183594,0.21875 -0.183594,0.4609375 0,0.1679688 0.07813,0.3125 0.08203,0.1445313 0.226563,0.2343751 0.148437,0.085937 0.351562,0.085937 0.304688,0 0.503907,-0.1914063 0.199218,-0.1914063 0.199218,-0.4570313 z M 15.145,0.7421875 q 0,-0.26171875 -0.28125,-0.33984375 -0.277343,-0.0742188 -0.574218,-0.0742188 -0.488282,0 -0.707032,0.1015625 -0.214843,0.10546875 -0.214843,0.33203125 0,0.44531245 0.898437,0.44531245 0.402344,0 0.640625,-0.1171875 Q 15.145,0.9765625 15.145,0.7421875 Z m 5.777344,-3.8710938 h -0.695312 q 0.367187,0.3203125 0.367187,0.7851563 0,0.2460937 -0.105469,0.4726563 -0.101562,0.2265625 -0.304687,0.4023437 -0.199219,0.1757813 -0.496094,0.2890625 -0.292969,0.109375 -0.671875,0.1328125 -0.488281,0.019531 -0.488281,0.26171875 0,0.09375 0.0625,0.13671875 0.0625,0.0429687 0.195312,0.0664063 0.136719,0.0195313 0.457032,0.046875 0.363281,0.03125 0.675781,0.109375 0.3125,0.078125 0.582031,0.328125 0.269531,0.25 0.269531,0.71484375 0,0.37109375 -0.203125,0.65625 -0.199218,0.2851562 -0.648437,0.4453125 -0.449219,0.1601562 -1.1875,0.1601562 -1.0625,0 -1.5625,-0.2851562 -0.496094,-0.2851563 -0.496094,-0.76171875 0,-0.12890625 0.0625,-0.296875 Q 16.80125,0.3671875 17.008282,0.2109375 17.219219,0.0546875 17.617657,0 17.477032,-0.05078125 17.375469,-0.1953125 17.273907,-0.34375 17.273907,-0.50390625 q 0,-0.20703125 0.140625,-0.41015625 0.144531,-0.203125 0.464843,-0.2617187 -0.445312,-0.1171875 -0.769531,-0.4414063 -0.324219,-0.3242187 -0.324219,-0.8398438 0,-0.390625 0.148438,-0.6835937 0.152344,-0.2929688 0.417969,-0.4765625 0.265625,-0.1835938 0.617187,-0.2695313 0.351563,-0.089844 0.769531,-0.089844 h 2.183594 z m -1.554687,0.671875 q 0,-0.3007812 -0.207032,-0.4804687 -0.203125,-0.1835938 -0.457031,-0.1835938 -0.324219,0 -0.511719,0.21875 -0.183593,0.21875 -0.183593,0.4609375 0,0.1679688 0.07813,0.3125 0.08203,0.1445313 0.226562,0.2343751 0.148438,0.085937 0.351563,0.085937 0.304687,0 0.503906,-0.1914063 0.199219,-0.1914063 0.199219,-0.4570313 z m 0.28125,3.1992188 q 0,-0.26171875 -0.28125,-0.33984375 -0.277344,-0.0742188 -0.574219,-0.0742188 -0.488281,0 -0.707031,0.1015625 -0.214844,0.10546875 -0.214844,0.33203125 0,0.44531245 0.898437,0.44531245 0.402344,0 0.640625,-0.1171875 0.238282,-0.1132812 0.238282,-0.3476562 z m 5.855468,-2.390625 h -2.800781 q 0.08203,0.3632813 0.402344,0.59375 0.320312,0.23046875 0.726562,0.23046875 0.710938,0 1.570313,-0.39843745 v 0.8710937 q -0.308594,0.16015625 -0.75,0.29296875 -0.4375,0.12890625 -1.117188,0.12890625 -0.734375,0 -1.25,-0.2734375 -0.515625,-0.2734375 -0.773437,-0.7421875 -0.253906,-0.46875 -0.253906,-1.0625 0,-0.5859375 0.253906,-1.046875 0.257812,-0.4648438 0.773437,-0.7265625 0.515625,-0.265625 1.25,-0.265625 0.484375,0 0.933594,0.2109375 0.453125,0.2070312 0.742188,0.6835937 0.292968,0.4726563 0.292968,1.2226563 z M 24.184063,-2.34375 q 0,-0.3828125 -0.191406,-0.609375 -0.1875,-0.2304688 -0.542969,-0.2304688 -0.351563,0 -0.570313,0.234375 -0.214843,0.2304688 -0.214843,0.6054688 z m 5.507812,-1.4179688 -0.519531,1.4101563 Q 28.852032,-2.65625 28.523907,-2.65625 q -0.296875,0 -0.515625,0.203125 -0.214844,0.1992187 -0.414063,0.7421875 V 0 h -1.40625 v -3.9765625 h 1.40625 v 0.9609375 q 0.132813,-0.3554688 0.46875,-0.6914063 0.335938,-0.3398437 0.789063,-0.3398437 0.238281,0 0.414062,0.070312 0.179688,0.070312 0.425781,0.2148437 z"
         id="path95" />
    </g>
    <path
       d="M 5.5273437,-0.40625 Q 5.1914062,-0.23046875 4.8398437,-0.125 4.4882812,-0.01953125 4.1289062,0.0234375 3.7734375,0.0703125 3.390625,0.0703125 2.6835938,0.0703125 2.1210938,-0.125 1.5625,-0.3203125 1.1484375,-0.69921875 0.73828125,-1.0820312 0.53125,-1.5898437 0.328125,-2.1015625 0.328125,-2.7109375 q 0,-0.6992188 0.2421875,-1.2226563 0.2421875,-0.5273437 0.6757812,-0.8749999 0.4375,-0.3476563 0.9921876,-0.5117188 0.5585937,-0.1679687 1.1757812,-0.1679687 0.921875,0 2.0898437,0.4101562 v 1.4375 q -0.4023437,-0.25 -0.796875,-0.4140625 -0.390625,-0.1679687 -0.9218749,-0.1679687 -0.4726563,0 -0.8828125,0.1875 Q 2.4921875,-3.8476563 2.2421875,-3.5 q -0.25,0.3476562 -0.25,0.8125 0,0.4101562 0.21875,0.7539063 0.21875,0.3398437 0.6054688,0.5429687 0.390625,0.1992188 0.8789062,0.1992188 0.3945312,0 0.7460937,-0.09375 Q 4.7929687,-1.3828125 5.03125,-1.5 5.2734375,-1.6171875 5.5273437,-1.7773437 Z M 10.65625,-3.9765625 7.953125,1.8085937 H 6.53125 L 7.625,-0.51953125 6.0507812,-3.9765625 H 7.5625 L 8.3710938,-2 9.2890625,-3.9765625 Z m 3.808594,3.79296875 q -0.175781,0.0664063 -0.371094,0.125 -0.195312,0.0546875 -0.441406,0.08984375 -0.242188,0.0390625 -0.53125,0.0390625 -0.652344,0 -1.105469,-0.21875 Q 11.566406,-0.37109375 11.320313,-0.703125 11.078125,-1.0390625 10.984375,-1.3867187 10.890625,-1.734375 10.890625,-2 q 0,-0.265625 0.09375,-0.6132813 0.09766,-0.3476562 0.335938,-0.671875 0.238281,-0.3242187 0.6875,-0.5429687 0.453125,-0.21875 1.113281,-0.21875 0.441406,0 0.71875,0.0625 0.277344,0.0625 0.5625,0.1679687 v 1.1054688 q -0.6875,-0.21875 -1.074219,-0.21875 -0.375,0 -0.667969,0.2265625 Q 12.371094,-2.4765625 12.371094,-2 q 0,0.3164063 0.144531,0.5351563 0.144531,0.2148437 0.367188,0.3164062 0.222656,0.1015625 0.445312,0.1015625 0.210938,0 0.480469,-0.0625 0.269531,-0.0625 0.65625,-0.1796875 z M 16.628906,0 H 15.21875 v -5.4140625 h 1.410156 z m 5.046875,-1.6484375 H 18.875 q 0.08203,0.3632813 0.402344,0.59375 0.320312,0.23046875 0.726562,0.23046875 0.710938,0 1.570313,-0.39843745 v 0.8710937 q -0.308594,0.16015625 -0.75,0.29296875 -0.4375,0.12890625 -1.117188,0.12890625 -0.734375,0 -1.25,-0.2734375 -0.515625,-0.2734375 -0.773437,-0.7421875 -0.253907,-0.46875 -0.253907,-1.0625 0,-0.5859375 0.253907,-1.046875 0.257812,-0.4648438 0.773437,-0.7265625 0.515625,-0.265625 1.25,-0.265625 0.484375,0 0.933594,0.2109375 0.453125,0.2070312 0.742187,0.6835937 0.292969,0.4726563 0.292969,1.2226563 z M 20.355469,-2.34375 q 0,-0.3828125 -0.191407,-0.609375 -0.1875,-0.2304688 -0.542968,-0.2304688 -0.351563,0 -0.570313,0.234375 -0.214844,0.2304688 -0.214844,0.6054688 z"
       id="text104"
       style="font-weight:700;font-size:8px;font-family:GillSans-Bold, 'Gill Sans';fill:#ffffff"
       transform="matrix(0.83,0,0,1,82.07,307.51)"
       aria-label="Cycle" />
    <path
       d="M 4.1665039,0 H 0.59472656 V -4.7373047 H 4.1083984 v 0.9501953 H 2.0234375 v 0.8681641 H 4.0126953 V -1.965332 H 2.0234375 v 1.01171872 h 2.1430664 z m 6.0258791,-2.3720703 q 0,0.6630859 -0.3076174,1.2202148 -0.3041992,0.55712894 -0.9091797,0.88525394 -0.6049804,0.328125 -1.4731445,0.328125 -0.878418,0 -1.4868164,-0.34179688 Q 5.4072266,-0.62207031 5.1098633,-1.1791992 4.815918,-1.7363281 4.815918,-2.3720703 q 0,-0.6391602 0.2939453,-1.1928711 0.2939453,-0.5571289 0.9023437,-0.8955078 0.6118164,-0.3417969 1.4902344,-0.3417969 0.65625,0 1.1689453,0.1948242 0.5161133,0.1948242 0.8476563,0.5297852 0.3315429,0.3315429 0.502441,0.7758789 0.170899,0.440918 0.170899,0.9296875 z m -1.4560549,0 q 0,-0.2666016 -0.078613,-0.4853516 -0.078613,-0.2221679 -0.2392578,-0.3828125 -0.1572265,-0.1640625 -0.3862304,-0.2529297 -0.2290039,-0.092285 -0.5297852,-0.092285 -0.5742187,0 -0.9023437,0.3349609 -0.328125,0.334961 -0.328125,0.878418 0,0.543457 0.328125,0.8818359 0.3315429,0.334961 0.9023437,0.334961 0.3930664,0 0.6699219,-0.1538086 0.2768555,-0.1572266 0.4204101,-0.4306641 0.1435547,-0.2768555 0.1435547,-0.6323242 z m 5.7387699,0.4545898 H 12.509766 V 0 h -1.428711 v -4.7373047 h 3.394043 v 0.9501953 h -1.965332 v 0.9160156 h 1.965332 z"
       id="text105"
       style="font-weight:700;font-size:7px;font-family:GillSans-Bold, 'Gill Sans';fill:#231f20"
       transform="matrix(0.83,0,0,1,11.11,265.87)"
       aria-label="EOF" />
    <path
       d="m 3.6401367,-1.4833984 q 0,0.4067382 -0.1914062,0.76220699 -0.1879883,0.35546875 -0.5708008,0.57080079 -0.3793945,0.21191406 -0.9262695,0.21191406 -0.4375,0 -0.8374024,-0.11279297 Q 0.71435547,-0.1640625 0.37939453,-0.39306641 V -1.4150391 q 0.21875,0.1640625 0.61523438,0.331543 0.39990229,0.16748047 0.69384769,0.16748047 0.3486328,0 0.4887695,-0.18115237 0.1401367,-0.1845703 0.1401367,-0.3793945 0,-0.1606445 -0.082031,-0.3041992 -0.082031,-0.1435547 -0.2836914,-0.2358399 -0.1982422,-0.095703 -0.5366211,-0.095703 -0.3725586,0 -0.71435551,0.1367188 V -4.7373047 H 3.4453125 v 0.9980469 H 1.75 v 0.8134765 q 0.054687,-0.00684 0.112793,-0.010254 0.061523,-0.00684 0.085449,-0.00684 0.027344,-0.00342 0.1025391,-0.00342 0.4785156,0 0.8408203,0.2016602 0.3623047,0.2016601 0.5537109,0.5366211 0.1948242,0.331543 0.1948242,0.7246094 z M 9.0391603,-4.7373047 6.9029298,0.06152344 H 5.9595704 L 3.8643556,-4.7373047 H 5.351172 l 1.0834961,2.734375 1.1142578,-2.734375 z M 14.638476,0 h -3.571777 v -4.7373047 h 3.513672 v 0.9501953 H 12.49541 v 0.8681641 h 1.989258 V -1.965332 H 12.49541 v 1.01171872 h 2.143066 z m 5.751075,0 h -1.271484 l -2.45752,-2.6386719 V 0 h -1.415039 v -4.7373047 h 1.268067 l 2.450683,2.625 v -2.625 h 1.425293 z M 25.86377,-4.7373047 23.727539,0.06152344 H 22.78418 L 20.688965,-4.7373047 h 1.486816 l 1.083496,2.734375 1.114258,-2.734375 z"
       id="text106"
       style="font-weight:700;font-size:7px;font-family:GillSans-Bold, 'Gill Sans';letter-spacing:-0.05em;fill:#231f20"
       transform="matrix(0.83,0,0,1,85.87,265.15)"
       aria-label="5V ENV" />
    <path
       d="M 4.1665039,0 H 0.59472656 V -4.7373047 H 4.1083984 v 0.9501953 H 2.0234375 v 0.8681641 H 4.0126953 V -1.965332 H 2.0234375 v 1.01171872 H 4.1665039 Z M 10.267578,0 H 8.9960938 L 6.5385742,-2.6386719 V 0 h -1.415039 v -4.7373047 h 1.2680664 l 2.4506836,2.625 v -2.625 h 1.4252928 z m 5.824219,-4.7373047 -2.136231,4.79882814 H 13.012207 L 10.916992,-4.7373047 h 1.486817 l 1.083496,2.734375 1.114258,-2.734375 z m 7.796387,2.3652344 q 0,0.6630859 -0.307618,1.2202148 -0.304199,0.55712894 -0.909179,0.88525394 -0.604981,0.328125 -1.473145,0.328125 -0.878418,0 -1.486816,-0.34179688 -0.608399,-0.34179687 -0.905762,-0.89892576 -0.293945,-0.5571289 -0.293945,-1.1928711 0,-0.6391602 0.293945,-1.1928711 0.293945,-0.5571289 0.902344,-0.8955078 0.611816,-0.3417969 1.490234,-0.3417969 0.65625,0 1.168945,0.1948242 0.516114,0.1948242 0.847657,0.5297852 0.331543,0.3315429 0.502441,0.7758789 0.170899,0.440918 0.170899,0.9296875 z m -1.456055,0 q 0,-0.2666016 -0.07861,-0.4853516 -0.07861,-0.2221679 -0.239258,-0.3828125 -0.157227,-0.1640625 -0.386231,-0.2529297 -0.229004,-0.092285 -0.529785,-0.092285 -0.574219,0 -0.902344,0.3349609 -0.328125,0.334961 -0.328125,0.878418 0,0.543457 0.328125,0.8818359 0.331543,0.334961 0.902344,0.334961 0.393067,0 0.669922,-0.1538086 0.276856,-0.1572266 0.42041,-0.4306641 0.143555,-0.2768555 0.143555,-0.6323242 z m 7.280273,0.2495117 q 0,0.6083984 -0.229004,1.0390625 -0.225586,0.4272461 -0.601562,0.67675782 -0.372559,0.24951172 -0.806641,0.35888672 -0.430664,0.109375 -0.861328,0.109375 -0.601562,0 -1.172363,-0.20507813 -0.567383,-0.20507812 -0.950195,-0.69726562 -0.382813,-0.49218749 -0.382813,-1.28173829 v -2.6147461 h 1.425293 v 2.2456055 q 0,0.4682617 0.133301,0.7758789 0.136719,0.3041992 0.375976,0.4477539 0.242676,0.1401367 0.570801,0.1401367 0.314453,0 0.557129,-0.1401367 0.242676,-0.1401367 0.375977,-0.4443359 0.136718,-0.3041993 0.136718,-0.772461 v -2.2524414 h 1.428711 z m 5.663575,-1.4628906 H 33.639648 V 0 h -1.425293 v -3.5854492 h -1.736328 v -1.1518555 h 4.89795 z"
       id="text107"
       style="font-weight:700;font-size:7px;font-family:GillSans-Bold, 'Gill Sans';fill:#231f20"
       transform="matrix(0.83,0,0,1,42.3,245.68)"
       aria-label="ENV OUT" />
    <path
       d="m 6.7089844,-4.6386719 q 0,0.3759766 -0.131836,0.7373047 -0.1269531,0.3564453 -0.415039,0.6689453 -0.288086,0.3076172 -0.78125,0.5029297 -0.4882813,0.1904297 -1.1523438,0.1904297 H 2.890625 V 0 H 0.84960938 V -6.7675781 H 4.2285156 q 0.6640625,0 1.1523438,0.1953125 0.493164,0.1953125 0.78125,0.5078125 0.2880859,0.3125 0.415039,0.6787109 0.131836,0.366211 0.131836,0.7470703 z m -2.0800782,0.00977 q 0,-0.4833985 -0.2880859,-0.6591797 Q 4.0576172,-5.46875 3.3203125,-5.46875 H 2.890625 v 1.6308594 h 0.4394531 q 0.5078125,0 0.78125,-0.063477 0.2734375,-0.063477 0.3955078,-0.234375 0.1220703,-0.1708984 0.1220703,-0.493164 z m 4.6337891,-1.4892579 q 0,0.3076172 -0.2197265,0.522461 -0.2197266,0.2148437 -0.522461,0.2148437 -0.2050781,0 -0.3759765,-0.097656 -0.1660157,-0.097656 -0.2636719,-0.2636719 -0.097656,-0.1708984 -0.097656,-0.3759766 0,-0.3027343 0.2148438,-0.5224609 0.2148437,-0.2197266 0.5224609,-0.2197266 0.3027344,0 0.522461,0.2197266 0.2197265,0.2197266 0.2197265,0.5224609 z M 9.4042969,0 H 7.6416016 v -4.9707031 h 1.7626953 z m 6.5185551,0 h -1.757813 v -2.6806641 q 0,-0.4101562 -0.136719,-0.7128906 -0.131836,-0.3076172 -0.585937,-0.3076172 -0.214844,0 -0.38086,0.083008 -0.161132,0.078125 -0.292968,0.2050782 -0.126953,0.1269531 -0.214844,0.2441406 -0.08789,0.1171875 -0.180664,0.2490234 V 0 h -1.757813 v -4.9707031 h 1.757813 v 0.7128906 q 0.415039,-0.4443359 0.830078,-0.6201172 0.419922,-0.180664 0.932617,-0.180664 1.78711,0 1.78711,2.1386718 z m 6.054687,-3.9111328 h -0.869141 q 0.458985,0.4003906 0.458985,0.9814453 0,0.3076172 -0.131836,0.5908203 -0.126953,0.2832031 -0.38086,0.5029297 -0.249023,0.2197266 -0.620117,0.3613281 -0.366211,0.1367188 -0.839843,0.1660157 -0.610352,0.024414 -0.610352,0.32714839 0,0.1171875 0.07813,0.17089843 0.07813,0.0537109 0.244141,0.0830078 0.170898,0.0244141 0.571289,0.0585938 0.454101,0.0390625 0.844726,0.13671875 0.390625,0.0976563 0.727539,0.41015625 0.336914,0.3125 0.336914,0.89355468 0,0.46386723 -0.253906,0.82031253 -0.249023,0.3564453 -0.810547,0.5566406 -0.561523,0.2001953 -1.484375,0.2001953 -1.328125,0 -1.953125,-0.3564453 -0.620117,-0.3564453 -0.620117,-0.9521484 0,-0.16113285 0.07813,-0.37109379 0.08301,-0.20996093 0.341797,-0.40527343 Q 17.348633,0.06835937 17.84668,0 17.670898,-0.06347656 17.543945,-0.24414063 17.416992,-0.4296875 17.416992,-0.62988281 q 0,-0.25878907 0.175781,-0.51269529 0.180664,-0.2539063 0.581055,-0.3271485 -0.556641,-0.1464843 -0.961914,-0.5517578 -0.405273,-0.4052734 -0.405273,-1.0498047 0,-0.4882812 0.185546,-0.8544922 0.19043,-0.3662109 0.522461,-0.5957031 0.332032,-0.2294922 0.771485,-0.336914 0.439453,-0.1123047 0.961914,-0.1123047 h 2.729492 z m -1.943359,0.8398437 q 0,-0.3759765 -0.258789,-0.6005859 -0.253907,-0.2294922 -0.571289,-0.2294922 -0.405274,0 -0.639649,0.2734375 -0.229492,0.2734375 -0.229492,0.5761719 0,0.2099609 0.09766,0.390625 0.102539,0.180664 0.283203,0.2929687 0.185547,0.1074219 0.439453,0.1074219 0.38086,0 0.629883,-0.2392578 0.249024,-0.2392578 0.249024,-0.5712891 z m 0.351562,3.99902348 q 0,-0.32714844 -0.351562,-0.42480469 -0.34668,-0.0927734 -0.717774,-0.0927734 -0.610351,0 -0.883789,0.12695312 -0.268555,0.13183594 -0.268555,0.41503907 0,0.55664066 1.123047,0.55664066 0.50293,0 0.800782,-0.1464844 0.297851,-0.1416016 0.297851,-0.43457032 z"
       id="text108"
       style="font-weight:700;font-size:10px;font-family:GillSans-Bold, 'Gill Sans';fill:#ffffff"
       transform="matrix(0.83,0,0,1,44.38,36.75)"
       aria-label="Ping" />
    <g
       id="g110">
      <path
         d="m 61.98,6.78 c 0,0 -3.87,4.92 -6.13,7.79 V 7.9 C 55.85,7.33 55.57,6.81 55.14,6.6 54.71,6.39 54.21,6.52 53.89,6.93 l -8.05,10.24 c -0.44,0.56 -0.42,1.44 0.03,1.98 0.45,0.53 1.18,0.52 1.62,-0.04 0,0 3.84,-4.88 6.09,-7.74 v 6.68 c 0,0.57 0.28,1.09 0.72,1.3 0.43,0.21 0.93,0.08 1.25,-0.33 0,0 3.87,-4.92 6.12,-7.79 0,3.05 0,6.81 0,6.81 0,0.78 0.51,1.4 1.14,1.4 0.63,0 1.14,-0.63 1.14,-1.4 V 7.75 C 63.95,7.18 63.67,6.66 63.23,6.45 62.8,6.23 62.31,6.37 61.98,6.78 Z"
         style="fill:#ffffff;stroke:#ffffff;stroke-width:0.67px"
         id="path108" />
      <path
         d="m 45.83,6.7 -5.34,6.79 c -0.44,0.56 -0.42,1.44 0.03,1.98 0.46,0.54 1.18,0.52 1.62,-0.04 0,0 1.8,-2.29 3.37,-4.29 v 6.98 c 0,0.78 0.51,1.4 1.14,1.4 0.63,0 1.15,-0.63 1.15,-1.4 V 7.67 C 47.8,7.1 47.52,6.58 47.09,6.37 46.66,6.16 46.16,6.29 45.84,6.7 Z"
         style="fill:#ffffff;stroke:#ffffff;stroke-width:0.67px"
         id="path109" />
      <path
         d="m 71.24,11.7 c -0.18,-0.52 -0.59,-0.85 -1.05,-0.85 h -2.33 c 0,0 1.7,-2.16 1.7,-2.16 0,0 0.88,-1.3 0.1,-2.01 -0.78,-0.71 -1.75,0.07 -1.75,0.07 l -3.57,4.54 c -0.32,0.4 -0.41,1 -0.23,1.52 0.18,0.52 0.6,0.85 1.05,0.85 h 2.33 c 0,0 -2.76,3.51 -2.76,3.51 0,0 -1.14,1.25 -0.3,2.09 0.85,0.85 1.94,-0.15 1.94,-0.15 L 71,13.22 c 0.32,-0.4 0.41,-1 0.23,-1.52 z"
         style="fill:#ffffff;stroke:#ffffff;stroke-width:0.67px"
         id="path110" />
    </g>
    <path
       d="M 6.9091797,-0.5078125 Q 6.4892578,-0.28808594 6.0498047,-0.15625 5.6103516,-0.02441406 5.1611328,0.02929688 4.7167969,0.08789062 4.2382812,0.08789062 q -0.883789,0 -1.586914,-0.24414062 Q 1.953125,-0.40039063 1.4355469,-0.87402344 0.92285156,-1.3525391 0.6640625,-1.9873047 0.41015625,-2.6269531 0.41015625,-3.3886719 q 0,-0.8740234 0.30273437,-1.5283203 0.30273438,-0.6591797 0.84472658,-1.09375 0.546875,-0.4345703 1.2402344,-0.6396484 0.6982422,-0.209961 1.4697265,-0.209961 1.1523438,0 2.6123047,0.5126954 v 1.796875 q -0.5029297,-0.3125 -0.9960937,-0.5175782 -0.4882813,-0.2099609 -1.1523438,-0.2099609 -0.5908203,0 -1.1035156,0.234375 -0.5126953,0.234375 -0.8251953,0.6689453 -0.3125,0.4345703 -0.3125,1.015625 0,0.5126953 0.2734375,0.9423828 0.2734375,0.4248047 0.7568359,0.678711 0.4882813,0.2490234 1.0986328,0.2490234 0.4931641,0 0.9326172,-0.1171875 Q 5.9912109,-1.7285156 6.2890625,-1.875 6.5917969,-2.0214844 6.9091797,-2.2216797 Z M 13.320313,-4.9707031 9.9414063,2.2607422 H 8.1640625 L 9.53125,-0.64941406 7.5634766,-4.9707031 H 9.453125 L 10.463867,-2.5 11.611328,-4.9707031 Z m 4.760742,4.74121091 q -0.219727,0.0830078 -0.463868,0.15625 -0.24414,0.06835938 -0.551757,0.11230469 -0.302735,0.04882812 -0.664063,0.04882812 -0.815429,0 -1.381836,-0.27343749 -0.561523,-0.27832032 -0.86914,-0.69335938 Q 13.847656,-1.2988281 13.730469,-1.7333984 13.613281,-2.1679688 13.613281,-2.5 q 0,-0.3320313 0.117188,-0.7666016 0.12207,-0.4345703 0.419922,-0.8398437 0.297851,-0.4052734 0.859375,-0.6787109 0.566406,-0.2734375 1.391601,-0.2734375 0.551758,0 0.898438,0.078125 0.346679,0.078125 0.703125,0.2099609 v 1.3818359 q -0.859375,-0.2734375 -1.342774,-0.2734375 -0.46875,0 -0.834961,0.2832031 -0.361328,0.2832032 -0.361328,0.8789063 0,0.3955078 0.180664,0.6689453 0.180664,0.2685547 0.458985,0.3955078 0.27832,0.1269532 0.55664,0.1269532 0.263672,0 0.600586,-0.078125 0.336914,-0.078125 0.820313,-0.2246094 z M 20.786133,0 h -1.762696 v -6.7675781 h 1.762696 z m 6.308594,-2.0605469 H 23.59375 q 0.102539,0.4541016 0.50293,0.7421875 0.40039,0.288086 0.908203,0.288086 0.888672,0 1.96289,-0.4980469 v 1.08886717 q -0.385742,0.20019532 -0.9375,0.36621094 -0.546875,0.16113281 -1.396484,0.16113281 -0.917969,0 -1.5625,-0.34179687 -0.644531,-0.34179687 -0.966797,-0.92773435 -0.317383,-0.5859375 -0.317383,-1.328125 0,-0.7324219 0.317383,-1.3085938 0.322266,-0.5810547 0.966797,-0.9082031 0.644531,-0.3320312 1.5625,-0.3320312 0.605469,0 1.166992,0.2636718 0.566406,0.2587891 0.927735,0.8544922 0.366211,0.5908203 0.366211,1.5283203 z m -1.650391,-0.8691406 q 0,-0.4785156 -0.239258,-0.7617188 -0.234375,-0.2880859 -0.678711,-0.2880859 -0.439453,0 -0.71289,0.2929688 -0.268555,0.2880859 -0.268555,0.7568359 z"
       id="text110"
       style="font-weight:700;font-size:10px;font-family:GillSans-Bold, 'Gill Sans';fill:#ffffff"
       transform="matrix(0.83,0,0,1,80.68,101.97)"
       aria-label="Cycle" />
    <path
       d="M 9.5927734,0 H 7.3476562 V -4.3129883 L 5.3227539,-1.8154297 H 5.1455078 L 3.1152344,-4.3129883 V 0 H 0.93457031 V -7.4443359 H 2.9702148 l 2.288086,2.7929687 2.2988281,-2.7929687 h 2.0356445 z m 3.4428716,-6.7299805 q 0,0.3383789 -0.2417,0.5747071 -0.241699,0.2363281 -0.574707,0.2363281 -0.225586,0 -0.413574,-0.1074219 -0.182617,-0.1074219 -0.290039,-0.290039 -0.107422,-0.1879883 -0.107422,-0.4135743 0,-0.3330078 0.236328,-0.574707 0.236328,-0.2416992 0.574707,-0.2416992 0.333008,0 0.574707,0.2416992 0.2417,0.2416992 0.2417,0.574707 z M 13.191406,0 h -1.938965 v -5.4677734 h 1.938965 z m 7.17041,0 h -1.933593 v -2.9487305 q 0,-0.4511718 -0.150391,-0.7841797 -0.14502,-0.3383789 -0.644531,-0.3383789 -0.236328,0 -0.418946,0.091309 -0.177246,0.085937 -0.322265,0.225586 -0.139649,0.1396484 -0.236328,0.2685547 -0.09668,0.1289062 -0.198731,0.2739257 V 0 h -1.933593 v -5.4677734 h 1.933593 v 0.7841797 q 0.456543,-0.4887696 0.913086,-0.682129 0.461914,-0.1987304 1.025879,-0.1987304 1.96582,0 1.96582,2.352539 z m 3.040039,-6.7299805 q 0,0.3383789 -0.241699,0.5747071 -0.241699,0.2363281 -0.574707,0.2363281 -0.225586,0 -0.413574,-0.1074219 -0.182617,-0.1074219 -0.290039,-0.290039 -0.107422,-0.1879883 -0.107422,-0.4135743 0,-0.3330078 0.236328,-0.574707 0.236328,-0.2416992 0.574707,-0.2416992 0.333008,0 0.574707,0.2416992 0.241699,0.2416992 0.241699,0.574707 z M 23.557617,0 h -1.938965 v -5.4677734 h 1.938965 z M 34.91748,-5.1025391 q 0,0.4135743 -0.145019,0.8110352 -0.139649,0.3920898 -0.456543,0.7358398 -0.316895,0.3383789 -0.859375,0.5532227 -0.537109,0.2094726 -1.267578,0.2094726 h -1.47168 V 0 h -2.245117 v -7.4443359 h 3.716797 q 0.730469,0 1.267578,0.2148437 0.54248,0.2148438 0.859375,0.5585938 0.316894,0.34375 0.456543,0.746582 0.145019,0.402832 0.145019,0.8217773 z m -2.288085,0.010742 q 0,-0.5317383 -0.316895,-0.7250976 -0.311523,-0.1987305 -1.122559,-0.1987305 h -0.472656 v 1.7939453 h 0.483399 q 0.558593,0 0.859375,-0.069824 0.300781,-0.069824 0.435058,-0.2578125 0.134278,-0.1879883 0.134278,-0.5424805 z M 41.776367,0 h -5.612793 v -7.4443359 h 5.521485 v 1.493164 h -3.276368 v 1.3642578 h 3.125977 v 1.4985352 h -3.125977 v 1.5898437 h 3.367676 z m 8.523926,-0.52636719 q -0.241699,0.0913086 -0.413574,0.15039063 -0.171875,0.059082 -0.333008,0.10742187 -0.155762,0.0483398 -0.456543,0.12353516 -0.510254,0.11816406 -1.020508,0.17724609 -0.504883,0.06445313 -1.068848,0.06445313 -1.1333,0 -2.094726,-0.41357422 -0.961426,-0.41357422 -1.541504,-1.28369137 -0.574707,-0.8701172 -0.574707,-2.1376954 0,-0.8164062 0.29541,-1.6005859 0.300781,-0.7895508 0.913086,-1.262207 0.504883,-0.3920899 1.020508,-0.5961914 0.520996,-0.2094727 1.015137,-0.2792969 0.49414,-0.069824 1.090332,-0.069824 0.98291,0 1.62207,0.1503906 0.63916,0.1450195 1.401855,0.3867188 v 1.7617187 q -0.504882,-0.2954101 -1.068847,-0.4941406 -0.563965,-0.1987305 -1.407227,-0.1987305 -0.972168,0 -1.557617,0.3706055 -0.580078,0.3652344 -0.811035,0.8754883 -0.225586,0.5102539 -0.225586,0.9882812 0,0.5639649 0.263184,1.0419922 0.263183,0.4726562 0.794921,0.7626953 0.531739,0.284668 1.283692,0.284668 0.429687,0 0.913086,-0.112793 v -0.8754883 h -1.009766 v -1.4985351 h 2.970215 z"
       id="text111"
       style="font-weight:700;font-size:11px;font-family:GillSans-Bold, 'Gill Sans';fill:#ffffff"
       transform="matrix(0.83,0,0,1,36.87,351.93)"
       aria-label="Mini PEG" />
  </g>
  <g
     id="g1" />
</svg>
