<svg xmlns="http://www.w3.org/2000/svg" width="40.73mm" height="130.6mm" viewBox="0 0 115.45 370.19">
  <g id="faceplate">
    <rect x="0.13" y="0.13" width="115.2" height="364.25" style="fill: #ededed;stroke: #9d9d9e;stroke-miterlimit: 10;stroke-width: 0.25px" />
    <path d="M100.22,224.06c-.29-8.38-6.12-9.49-13.29-9.49H28.58c-7.16,0-13,6.69-13.28,15.06l-.09,32.31v46.63l0,7.18c0,.18,0,.36,0,.54v19.84a5.68,5.68,0,0,0,5.66,5.67H94.58a5.68,5.68,0,0,0,5.66-5.67V229.63Z" />
    <g>
      <path d="M20.94,245.81a5.18,5.18,0,0,1-5.17-5.17l-.06-19.84a4.18,4.18,0,0,1,0-.5l0-7.22.09-46.63c.28-8.16,5.9-14.57,12.78-14.57H86.93c6.89,0,12.5,6.41,12.79,14.59V167h0v73.69a5.18,5.18,0,0,1-5.17,5.17Z" style="fill: #ededed" />
      <path d="M28.58,152.38H86.93c6.62,0,12,6.2,12.29,14.1l0,.43v73.73a4.67,4.67,0,0,1-4.66,4.67H20.94a4.67,4.67,0,0,1-4.67-4.67l-.06-19.84a3.39,3.39,0,0,1,0-.45v-.1l0-7.17.09-46.6c.27-7.9,5.67-14.1,12.28-14.1m0-1c-7.16,0-13,6.7-13.28,15.07l-.09,46.63,0,7.18c0,.18,0,.36,0,.54l.06,19.84a5.68,5.68,0,0,0,5.67,5.67H94.58a5.68,5.68,0,0,0,5.66-5.67V166.45h0c-.29-8.38-6.12-15.07-13.29-15.07Z" />
    </g>
    <g>
      <path d="M53.69,99.13H51.38l-.56-1.45a6.86,6.86,0,0,0-.56-1.15,1.3,1.3,0,0,0-.48-.47,1.53,1.53,0,0,0-.61-.1h-.24v3.17H46.77V91h3.67a2.38,2.38,0,0,1,2.27,1.41A2.77,2.77,0,0,1,53,93.52a2.32,2.32,0,0,1-.21,1,1.77,1.77,0,0,1-.44.62,4.33,4.33,0,0,1-.52.37,2.1,2.1,0,0,1,.57.54A7.61,7.61,0,0,1,53,97.36Zm-2.93-5.56a.86.86,0,0,0-.32-.78,1.91,1.91,0,0,0-1.06-.23h-.45v2h.46a2,2,0,0,0,1.08-.2A.83.83,0,0,0,50.76,93.57Z" />
      <path d="M59.39,98.83a6.68,6.68,0,0,1-.75.29,2.88,2.88,0,0,1-.83.11.89.89,0,0,1-.64-.18,1.13,1.13,0,0,1-.26-.45,3,3,0,0,1-.66.45,2.22,2.22,0,0,1-1,.18,1.73,1.73,0,0,1-.93-.22,1.22,1.22,0,0,1-.49-.57,1.78,1.78,0,0,1-.15-.71,1.6,1.6,0,0,1,.25-.91,1.8,1.8,0,0,1,.66-.59,7.49,7.49,0,0,1,1.09-.47l.59-.22.29-.11a1.06,1.06,0,0,0,.21-.11,1.22,1.22,0,0,0-.16-.68c-.1-.16-.32-.24-.67-.24a2.25,2.25,0,0,0-1.13.3,4.39,4.39,0,0,0-1,.79V93.87a3.22,3.22,0,0,1,.75-.46,4.12,4.12,0,0,1,.84-.27,5.24,5.24,0,0,1,.88-.08,2.52,2.52,0,0,1,1.72.5,1.73,1.73,0,0,1,.57,1.38v2.3a1.5,1.5,0,0,0,.06.49.19.19,0,0,0,.2.16,1.12,1.12,0,0,0,.47-.17Zm-2.58-1.15V96.27a5.8,5.8,0,0,0-1,.55.8.8,0,0,0-.3.66.65.65,0,0,0,.15.46.49.49,0,0,0,.35.15.68.68,0,0,0,.38-.12A2.46,2.46,0,0,0,56.81,97.68Z" />
      <path d="M63.69,98.78a3.93,3.93,0,0,1-.79.31,3.86,3.86,0,0,1-1,.14c-1.33,0-2-.74-2-2.23V94.63h-.84v-.37l2.49-2.89h.21v1.79h1.77v1.47H61.78v1.91a2.7,2.7,0,0,0,0,.54.55.55,0,0,0,.2.34.8.8,0,0,0,.51.14,2.45,2.45,0,0,0,1.16-.43Z" />
      <path d="M69.47,96.65h-3.7a1.53,1.53,0,0,0,1.49,1.24,4.45,4.45,0,0,0,2.07-.6V98.6a6.06,6.06,0,0,1-1,.44,4.75,4.75,0,0,1-1.48.19,3.15,3.15,0,0,1-1.65-.41,2.54,2.54,0,0,1-1-1.11,3.72,3.72,0,0,1-.34-1.6,3.62,3.62,0,0,1,.34-1.57,2.5,2.5,0,0,1,1-1.09,3.25,3.25,0,0,1,1.65-.39,2.58,2.58,0,0,1,1.23.31,2.36,2.36,0,0,1,1,1,3.83,3.83,0,0,1,.39,1.84Zm-1.75-1a1.52,1.52,0,0,0-.25-.92.82.82,0,0,0-.72-.34,1,1,0,0,0-.75.35,1.39,1.39,0,0,0-.28.91Z" />
    </g>
    <g>
      <path d="M38.52,357.38H36.68v-4.31L35,355.57h-.15l-1.66-2.5v4.31H31.42v-7.44h1.67L35,352.73l1.89-2.79h1.67Z" />
      <path d="M46.42,354.05a4.2,4.2,0,0,1-.29,1.63,2.79,2.79,0,0,1-.78,1.06,3.22,3.22,0,0,1-1,.57,3.89,3.89,0,0,1-1.11.17,3.79,3.79,0,0,1-1.51-.32,2.73,2.73,0,0,1-1.22-1.1,3.67,3.67,0,0,1-.5-2v-4.11h1.84v3.53a3.75,3.75,0,0,0,.17,1.21,1.48,1.48,0,0,0,.49.71,1.3,1.3,0,0,0,1.45,0,1.45,1.45,0,0,0,.49-.7,3.75,3.75,0,0,0,.17-1.21v-3.54h1.84Z" />
      <path d="M52.5,357.38H47.87v-7.44h1.84v5.66H52.5Z" />
      <path d="M59.43,351.75H57.19v5.63H55.35v-5.63H53.12v-1.81h6.31Z" />
      <path d="M62.35,357.38H60.51v-7.44h1.84Z" />
      <path d="M71.21,357.38H66.57v-7.44h1.84v5.66h2.8Z" />
      <path d="M76.65,354.37H74.12v3H72.28v-7.44h4.37v1.49H74.12v1.44h2.53Z" />
      <path d="M84.42,353.65a4.64,4.64,0,0,1-.39,1.92A3.21,3.21,0,0,1,82.85,357a3.69,3.69,0,0,1-3.81,0,3.35,3.35,0,0,1-1.17-1.41,4.71,4.71,0,0,1-.38-1.88,4.66,4.66,0,0,1,.38-1.87A3.21,3.21,0,0,1,79,350.37a3.29,3.29,0,0,1,1.92-.53,3.59,3.59,0,0,1,1.5.3,3,3,0,0,1,1.09.83,3.67,3.67,0,0,1,.65,1.22A4.69,4.69,0,0,1,84.42,353.65Zm-1.88,0a2.64,2.64,0,0,0-.1-.76,1.69,1.69,0,0,0-.3-.6,1.48,1.48,0,0,0-.5-.4,1.65,1.65,0,0,0-.68-.14,1.41,1.41,0,0,0-1.17.52,2.49,2.49,0,0,0,0,2.77,1.43,1.43,0,0,0,1.17.53,1.53,1.53,0,0,0,.86-.25,1.49,1.49,0,0,0,.54-.67A2.59,2.59,0,0,0,82.54,353.65Z" />
    </g>
    <g>
      <path d="M81.85,189.35a2,2,0,0,1-.09.59,1.61,1.61,0,0,1-.3.54,1.45,1.45,0,0,1-.55.4,2,2,0,0,1-.81.15h-.94v2H77.72v-5.41H80.1a1.86,1.86,0,0,1,.81.16,1.45,1.45,0,0,1,.55.4,1.56,1.56,0,0,1,.3.55A2,2,0,0,1,81.85,189.35Zm-1.47,0a.6.6,0,0,0-.2-.53,1.35,1.35,0,0,0-.72-.14h-.3V190h.31a2,2,0,0,0,.55-.05.43.43,0,0,0,.28-.18A.89.89,0,0,0,80.38,189.36Z" />
      <path d="M90.08,187.65,88,193.13h-.83L86,189.94l-1.27,3.19h-.84l-2-5.48h1.49l1,3,1.13-3h1l1.12,3,1-3Z" />
    </g>
    <g>
      <path d="M79.34,286.09a1.92,1.92,0,0,1-.09.59,1.61,1.61,0,0,1-.3.54,1.41,1.41,0,0,1-.54.4,2.1,2.1,0,0,1-.82.15h-.94v2H75.21v-5.42h2.38a1.94,1.94,0,0,1,.82.16,1.41,1.41,0,0,1,.54.4,1.56,1.56,0,0,1,.3.55A2,2,0,0,1,79.34,286.09Zm-1.47,0a.6.6,0,0,0-.2-.53,1.35,1.35,0,0,0-.72-.14h-.3v1.31H77a1.94,1.94,0,0,0,.55-.06.43.43,0,0,0,.28-.18A.75.75,0,0,0,77.87,286.1Z" style="fill: #fff" />
      <path d="M83.34,289.81H82.1v-.57a2.18,2.18,0,0,1-.55.48,1.46,1.46,0,0,1-.69.16,1,1,0,0,1-1-.53,3,3,0,0,1-.23-1.18v-2.34h1.24V288a1.7,1.7,0,0,0,.09.57.4.4,0,0,0,.41.24.56.56,0,0,0,.44-.18,3,3,0,0,0,.32-.44v-2.34h1.24Z" style="fill: #fff" />
      <path d="M85.15,289.81H83.91v-5.42h1.24Z" style="fill: #fff" />
      <path d="M88.46,288.65a1.17,1.17,0,0,1-.35.88,1.46,1.46,0,0,1-1,.35,2.84,2.84,0,0,1-.69-.08,6.6,6.6,0,0,1-.66-.23v-1a5.78,5.78,0,0,0,.54.31,1.22,1.22,0,0,0,.51.1c.31,0,.46-.09.46-.29a.23.23,0,0,0-.07-.17.8.8,0,0,0-.23-.17c-.11-.07-.26-.14-.44-.23a1.92,1.92,0,0,1-.59-.46,1.09,1.09,0,0,1-.24-.71,1.07,1.07,0,0,1,.16-.57,1.31,1.31,0,0,1,.48-.45,1.73,1.73,0,0,1,.78-.17,1.47,1.47,0,0,1,.28,0,2.57,2.57,0,0,1,.93.3v1l-.19-.12-.19-.12-.3-.11a1.27,1.27,0,0,0-.34-.05.34.34,0,0,0-.29.1.25.25,0,0,0,0,.37,2,2,0,0,0,.37.21,3.25,3.25,0,0,1,.66.36,1.12,1.12,0,0,1,.35.42A1.27,1.27,0,0,1,88.46,288.65Z" style="fill: #fff" />
      <path d="M92.44,288.16H90a1,1,0,0,0,.36.59A.93.93,0,0,0,91,289a3,3,0,0,0,1.39-.4v.87a2.92,2.92,0,0,1-1.65.43,2,2,0,0,1-1.1-.28,1.8,1.8,0,0,1-.68-.74,2.57,2.57,0,0,1-.22-1.06,2.53,2.53,0,0,1,.22-1.05,1.77,1.77,0,0,1,.68-.73,2.24,2.24,0,0,1,1.1-.26,1.76,1.76,0,0,1,.83.21,1.65,1.65,0,0,1,.65.68,2.61,2.61,0,0,1,.26,1.23Zm-1.17-.7a1,1,0,0,0-.16-.61.56.56,0,0,0-.48-.23.61.61,0,0,0-.5.23.93.93,0,0,0-.19.61Z" style="fill: #fff" />
    </g>
    <g>
      <path d="M80.41,335.49a1.67,1.67,0,0,1-.22.88,1.61,1.61,0,0,1-.64.57,2.16,2.16,0,0,1-.94.19,2.43,2.43,0,0,1-.36,0,2.65,2.65,0,0,1-.57-.12,3.43,3.43,0,0,1-.74-.29v-1.32a4.4,4.4,0,0,0,.71.42,1.71,1.71,0,0,0,.74.17.61.61,0,0,0,.48-.14.47.47,0,0,0,.11-.26.44.44,0,0,0-.19-.37,2.14,2.14,0,0,0-.54-.31,4,4,0,0,1-.68-.41,1.85,1.85,0,0,1-.49-.55,1.65,1.65,0,0,1-.19-.79,1.74,1.74,0,0,1,.19-.79,1.37,1.37,0,0,1,.58-.56,2,2,0,0,1,1-.21,2.9,2.9,0,0,1,.74.08,3.56,3.56,0,0,1,.56.2l.3.17v1.27a3.62,3.62,0,0,0-.65-.42,1.6,1.6,0,0,0-.77-.19.54.54,0,0,0-.39.12.36.36,0,0,0-.12.28.38.38,0,0,0,.12.28,1.82,1.82,0,0,0,.43.29,8.23,8.23,0,0,1,.88.52,1.93,1.93,0,0,1,.52.55A1.45,1.45,0,0,1,80.41,335.49Z" style="fill: #fff" />
      <path d="M82.21,337.06H81v-4h1.24Zm-.1-4.89a.64.64,0,0,1-.15.42.51.51,0,0,1-.37.17.5.5,0,0,1-.27-.08.53.53,0,0,1-.18-.21.6.6,0,0,1-.07-.3.64.64,0,0,1,.15-.42.45.45,0,0,1,.37-.17.48.48,0,0,1,.37.17A.64.64,0,0,1,82.11,332.17Z" style="fill: #fff" />
      <path d="M86.52,337.06H85.28v-2.14a1.42,1.42,0,0,0-.1-.57.39.39,0,0,0-.41-.25.5.5,0,0,0-.27.07.74.74,0,0,0-.2.16l-.16.2-.12.2v2.33H82.78v-4H84v.57a1.73,1.73,0,0,1,.58-.5,1.45,1.45,0,0,1,.66-.14q1.26,0,1.26,1.71Z" style="fill: #fff" />
      <path d="M90.57,335.42H88.1a1,1,0,0,0,.36.59,1,1,0,0,0,.63.23,3,3,0,0,0,1.39-.4v.87a2.9,2.9,0,0,1-.66.29,3.08,3.08,0,0,1-1,.13,2.14,2.14,0,0,1-1.1-.27,1.8,1.8,0,0,1-.68-.74,2.57,2.57,0,0,1-.22-1.06,2.53,2.53,0,0,1,.22-1.05,1.77,1.77,0,0,1,.68-.73,2.13,2.13,0,0,1,1.1-.26,1.76,1.76,0,0,1,.83.21,1.53,1.53,0,0,1,.65.68,2.57,2.57,0,0,1,.26,1.22Zm-1.17-.7a1,1,0,0,0-.16-.61.56.56,0,0,0-.48-.23.61.61,0,0,0-.5.23.93.93,0,0,0-.19.61Z" style="fill: #fff" />
    </g>
    <g>
      <path d="M78.41,236.19a2,2,0,0,1-.09.59,1.48,1.48,0,0,1-.3.53,1.39,1.39,0,0,1-.55.41,2,2,0,0,1-.81.15h-.94v2H74.28v-5.41h2.38a2,2,0,0,1,.81.15,1.39,1.39,0,0,1,.55.41,1.61,1.61,0,0,1,.3.54A2.08,2.08,0,0,1,78.41,236.19Zm-1.47,0a.59.59,0,0,0-.2-.53,1.26,1.26,0,0,0-.72-.14h-.3v1.3H76a2.51,2.51,0,0,0,.55-.05.44.44,0,0,0,.28-.19A.81.81,0,0,0,76.94,236.2Z" />
      <path d="M82.46,239.9H81.22v-2.2a1.27,1.27,0,0,0-.1-.52.41.41,0,0,0-.41-.24.57.57,0,0,0-.41.18,2.4,2.4,0,0,0-.34.45v2.33H78.72v-5.41H80v2a1.7,1.7,0,0,1,.6-.51,1.53,1.53,0,0,1,.64-.13c.84,0,1.26.53,1.26,1.6Z" />
      <path d="M86.55,239.7l-.5.2a1.86,1.86,0,0,1-.56.07.59.59,0,0,1-.42-.12.64.64,0,0,1-.17-.3,2.21,2.21,0,0,1-.45.3,1.43,1.43,0,0,1-.64.12,1.1,1.1,0,0,1-.61-.15.76.76,0,0,1-.33-.38,1.18,1.18,0,0,1,.06-1.07,1.31,1.31,0,0,1,.44-.4,6.15,6.15,0,0,1,.73-.31l.39-.15.2-.07.14-.07a.84.84,0,0,0-.11-.46c-.07-.11-.21-.16-.44-.16a1.54,1.54,0,0,0-.76.2,2.61,2.61,0,0,0-.63.53V236.4a2,2,0,0,1,.5-.31,2.45,2.45,0,0,1,.56-.18,3.81,3.81,0,0,1,.59,0,1.72,1.72,0,0,1,1.14.33,1.14,1.14,0,0,1,.38.92v1.53a1.22,1.22,0,0,0,0,.33.14.14,0,0,0,.13.11.67.67,0,0,0,.32-.12Zm-1.72-.76V238a3,3,0,0,0-.65.37.52.52,0,0,0-.2.43.41.41,0,0,0,.1.31.33.33,0,0,0,.24.1.41.41,0,0,0,.25-.08A1.88,1.88,0,0,0,84.83,238.94Z" />
      <path d="M89.39,238.74a1.2,1.2,0,0,1-.35.89A1.44,1.44,0,0,1,88,240a2.42,2.42,0,0,1-.69-.08,4.77,4.77,0,0,1-.66-.23v-1a4.15,4.15,0,0,0,.54.31,1.26,1.26,0,0,0,.51.11c.31,0,.46-.1.46-.29a.25.25,0,0,0-.06-.17,1.06,1.06,0,0,0-.24-.18l-.44-.23a1.66,1.66,0,0,1-.59-.46,1,1,0,0,1-.24-.7,1.17,1.17,0,0,1,.16-.57,1.13,1.13,0,0,1,.49-.45,1.55,1.55,0,0,1,.78-.17h.28a4.22,4.22,0,0,1,.43.09,1.94,1.94,0,0,1,.49.22v1L89,237l-.2-.11a1.6,1.6,0,0,0-.29-.11,1.33,1.33,0,0,0-.34-.05.4.4,0,0,0-.3.09.34.34,0,0,0-.08.19.23.23,0,0,0,.09.18,1,1,0,0,0,.36.21,2.82,2.82,0,0,1,.66.37,1.16,1.16,0,0,1,.36.42A1.25,1.25,0,0,1,89.39,238.74Z" />
      <path d="M93.37,238.25H90.9a1,1,0,0,0,1,.83,3,3,0,0,0,1.38-.4v.87a3.42,3.42,0,0,1-.66.29,3,3,0,0,1-1,.13,2.11,2.11,0,0,1-1.1-.27,1.67,1.67,0,0,1-.68-.74,2.47,2.47,0,0,1-.23-1.07,2.31,2.31,0,0,1,.23-1,1.65,1.65,0,0,1,.68-.73,2.11,2.11,0,0,1,1.1-.26,1.71,1.71,0,0,1,.82.2,1.62,1.62,0,0,1,.65.69,2.54,2.54,0,0,1,.26,1.22Zm-1.16-.69A1,1,0,0,0,92,237a.56.56,0,0,0-.48-.23.63.63,0,0,0-.5.23.93.93,0,0,0-.19.61Z" />
    </g>
    <g>
      <path d="M29.34,239.9H27.8l-.38-1a4.3,4.3,0,0,0-.37-.77.83.83,0,0,0-.32-.31,1,1,0,0,0-.4-.07h-.17v2.11H24.73v-5.41h2.44a1.61,1.61,0,0,1,1,.27,1.68,1.68,0,0,1,.55.67,1.87,1.87,0,0,1,.16.74,1.47,1.47,0,0,1-.14.69,1.17,1.17,0,0,1-.29.41,2.41,2.41,0,0,1-.35.25,1.31,1.31,0,0,1,.38.36,4.48,4.48,0,0,1,.41.85Zm-1.95-3.7a.56.56,0,0,0-.22-.52,1.25,1.25,0,0,0-.7-.15h-.31v1.3h.31a1.36,1.36,0,0,0,.72-.13A.56.56,0,0,0,27.39,236.2Z" />
      <path d="M33.14,239.7l-.5.2a1.86,1.86,0,0,1-.56.07.59.59,0,0,1-.42-.12.64.64,0,0,1-.17-.3,2.21,2.21,0,0,1-.45.3,1.43,1.43,0,0,1-.64.12,1.1,1.1,0,0,1-.61-.15.76.76,0,0,1-.33-.38,1.1,1.1,0,0,1-.1-.47,1,1,0,0,1,.16-.6A1.31,1.31,0,0,1,30,238a6.15,6.15,0,0,1,.73-.31l.39-.15.2-.07.14-.07a.84.84,0,0,0-.11-.46c-.07-.11-.21-.16-.44-.16a1.57,1.57,0,0,0-.76.2,2.61,2.61,0,0,0-.63.53V236.4a2,2,0,0,1,.5-.31,2.45,2.45,0,0,1,.56-.18,3.81,3.81,0,0,1,.59,0,1.7,1.7,0,0,1,1.14.33,1.14,1.14,0,0,1,.38.92v1.53a1.22,1.22,0,0,0,0,.33.14.14,0,0,0,.13.11.67.67,0,0,0,.32-.12Zm-1.72-.76V238a3,3,0,0,0-.65.37.52.52,0,0,0-.2.43.41.41,0,0,0,.1.31.33.33,0,0,0,.24.1.41.41,0,0,0,.25-.08A1.88,1.88,0,0,0,31.42,238.94Z" />
      <path d="M36,239.67a3.23,3.23,0,0,1-.53.21,2.6,2.6,0,0,1-.65.09c-.89,0-1.34-.49-1.34-1.48V236.9h-.56v-.24l1.66-1.93h.14v1.2h1.18v1H34.73v1.28a3.53,3.53,0,0,0,0,.36.4.4,0,0,0,.14.22.55.55,0,0,0,.34.1,1.68,1.68,0,0,0,.78-.29Z" />
      <path d="M39.86,238.25H37.39a1,1,0,0,0,.36.6,1,1,0,0,0,.63.23,3,3,0,0,0,1.39-.4v.87a3.42,3.42,0,0,1-.66.29,3.08,3.08,0,0,1-1,.13,2.14,2.14,0,0,1-1.1-.27,1.73,1.73,0,0,1-.68-.74,2.47,2.47,0,0,1-.22-1.07,2.31,2.31,0,0,1,.22-1,1.71,1.71,0,0,1,.68-.73,2.13,2.13,0,0,1,1.1-.26,1.75,1.75,0,0,1,.83.2,1.62,1.62,0,0,1,.65.69,2.54,2.54,0,0,1,.26,1.22Zm-1.17-.69a1,1,0,0,0-.16-.61.56.56,0,0,0-.48-.23.61.61,0,0,0-.5.23.93.93,0,0,0-.19.61Z" />
    </g>
    <g>
      <path d="M27.69,193.06H26.14l-.37-1a4.3,4.3,0,0,0-.37-.77.83.83,0,0,0-.32-.31,1,1,0,0,0-.41-.07h-.16v2.11H23.08v-5.41h2.44a1.53,1.53,0,0,1,1.51.94,1.93,1.93,0,0,1,.17.74,1.6,1.6,0,0,1-.14.69,1.33,1.33,0,0,1-.29.42l-.35.24a1.45,1.45,0,0,1,.38.36,4.48,4.48,0,0,1,.41.85Zm-2-3.7a.6.6,0,0,0-.22-.52,1.29,1.29,0,0,0-.71-.15h-.3V190h.31a1.36,1.36,0,0,0,.72-.13A.55.55,0,0,0,25.74,189.36Z" />
      <path d="M31.45,191.42H29a1,1,0,0,0,1,.82,3,3,0,0,0,1.39-.4v.87a2.9,2.9,0,0,1-.66.29,3.08,3.08,0,0,1-1,.13,2.14,2.14,0,0,1-1.1-.27,1.73,1.73,0,0,1-.68-.74,2.42,2.42,0,0,1-.22-1.06,2.38,2.38,0,0,1,.22-1.05,1.71,1.71,0,0,1,.68-.73,2.24,2.24,0,0,1,1.1-.26,1.76,1.76,0,0,1,.83.21,1.59,1.59,0,0,1,.65.68,2.57,2.57,0,0,1,.26,1.22Zm-1.17-.7a1,1,0,0,0-.16-.61.56.56,0,0,0-.48-.23.61.61,0,0,0-.5.23.93.93,0,0,0-.19.61Z" />
      <path d="M34.51,191.9a1.2,1.2,0,0,1-.35.89,1.46,1.46,0,0,1-1,.34,2.42,2.42,0,0,1-.69-.08,6.36,6.36,0,0,1-.66-.22v-1a5.41,5.41,0,0,0,.54.3,1.09,1.09,0,0,0,.51.11c.31,0,.46-.1.46-.29a.23.23,0,0,0-.07-.17.8.8,0,0,0-.23-.17,3.46,3.46,0,0,0-.44-.23,1.92,1.92,0,0,1-.59-.46,1.09,1.09,0,0,1-.24-.71,1.07,1.07,0,0,1,.16-.57,1.31,1.31,0,0,1,.48-.45,1.73,1.73,0,0,1,.78-.17,1.47,1.47,0,0,1,.28,0,2.57,2.57,0,0,1,.93.3v1l-.19-.12a1,1,0,0,0-.19-.12,1.72,1.72,0,0,0-.3-.11,1.27,1.27,0,0,0-.34-.05.34.34,0,0,0-.29.1.25.25,0,0,0,0,.37,1.58,1.58,0,0,0,.37.2,3.23,3.23,0,0,1,.66.37,1.12,1.12,0,0,1,.35.42A1.25,1.25,0,0,1,34.51,191.9Z" />
      <path d="M38.49,191.42H36a1,1,0,0,0,1,.82,3,3,0,0,0,1.38-.4v.87a2.9,2.9,0,0,1-.66.29,3.08,3.08,0,0,1-1,.13,2.14,2.14,0,0,1-1.1-.27,1.65,1.65,0,0,1-.67-.74,2.43,2.43,0,0,1-.23-1.06A2.38,2.38,0,0,1,35,190a1.63,1.63,0,0,1,.67-.73,2.24,2.24,0,0,1,1.1-.26,1.76,1.76,0,0,1,.83.21,1.59,1.59,0,0,1,.65.68,2.57,2.57,0,0,1,.26,1.22Zm-1.17-.7a1,1,0,0,0-.16-.61.56.56,0,0,0-.48-.23.63.63,0,0,0-.5.23.93.93,0,0,0-.19.61Z" />
      <path d="M41.57,192.83A2.63,2.63,0,0,1,41,193a2.48,2.48,0,0,1-.65.09c-.89,0-1.33-.49-1.33-1.48v-1.59H38.5v-.24l1.66-1.92h.14v1.19h1.18v1H40.3v1.28a3.21,3.21,0,0,0,0,.36.4.4,0,0,0,.14.23.53.53,0,0,0,.34.09,1.77,1.77,0,0,0,.77-.28Z" />
    </g>
    <g>
      <path d="M21.16,289.81H19.72v-5.42h1.44Z" style="fill: #fff" />
      <path d="M25.61,289.81H24.37v-2.15a1.62,1.62,0,0,0-.09-.57.4.4,0,0,0-.41-.25.57.57,0,0,0-.27.07.68.68,0,0,0-.21.17,1.25,1.25,0,0,0-.15.19l-.13.2v2.34H21.88v-4h1.23v.57a1.87,1.87,0,0,1,.59-.5,1.51,1.51,0,0,1,.65-.14q1.26,0,1.26,1.71Z" style="fill: #fff" />
      <path d="M29.76,285.83l-1.59,4h-.91l-1.56-4H27l.72,2.08.81-2.08Z" style="fill: #fff" />
      <path d="M35.24,288.23a1.67,1.67,0,0,1-.23.88,1.48,1.48,0,0,1-.64.57,2.13,2.13,0,0,1-.94.2l-.36,0a3.66,3.66,0,0,1-.57-.11,5.36,5.36,0,0,1-.74-.29v-1.33a4.88,4.88,0,0,0,.71.42,1.72,1.72,0,0,0,.75.17.6.6,0,0,0,.47-.14.45.45,0,0,0,.11-.26.46.46,0,0,0-.18-.37,3.11,3.11,0,0,0-.54-.31,3.7,3.7,0,0,1-.69-.41,1.85,1.85,0,0,1-.49-.55,1.78,1.78,0,0,1,0-1.58,1.4,1.4,0,0,1,.57-.56,2,2,0,0,1,1-.21,2.89,2.89,0,0,1,.74.09,2.6,2.6,0,0,1,.56.19,1.63,1.63,0,0,1,.3.17V286a3.3,3.3,0,0,0-.65-.42,1.6,1.6,0,0,0-.77-.19.54.54,0,0,0-.39.12.38.38,0,0,0-.12.29.36.36,0,0,0,.12.27,2.07,2.07,0,0,0,.43.29,6.74,6.74,0,0,1,.88.53,1.67,1.67,0,0,1,.52.54A1.38,1.38,0,0,1,35.24,288.23Z" style="fill: #fff" />
      <path d="M39.36,289.61c-.18.08-.35.14-.5.19a1.84,1.84,0,0,1-.56.08.54.54,0,0,1-.42-.13.64.64,0,0,1-.17-.3,1.72,1.72,0,0,1-.45.31,1.43,1.43,0,0,1-.64.12,1.1,1.1,0,0,1-.61-.15.8.8,0,0,1-.33-.38,1.2,1.2,0,0,1,.06-1.08,1.28,1.28,0,0,1,.44-.39,4.76,4.76,0,0,1,.73-.32l.39-.14.2-.08.14-.07a.83.83,0,0,0-.11-.45c-.06-.11-.21-.17-.44-.17a1.48,1.48,0,0,0-.76.21,2.57,2.57,0,0,0-.63.52V286.3a2,2,0,0,1,.5-.3,2.62,2.62,0,0,1,.56-.18,2.88,2.88,0,0,1,.59-.06,1.7,1.7,0,0,1,1.14.33,1.15,1.15,0,0,1,.38.92v1.54a1.19,1.19,0,0,0,0,.32A.13.13,0,0,0,39,289a.76.76,0,0,0,.32-.11Zm-1.72-.77v-.94a3.44,3.44,0,0,0-.65.37.54.54,0,0,0-.2.44.45.45,0,0,0,.1.3.34.34,0,0,0,.24.11.49.49,0,0,0,.25-.08C37.46,289,37.55,288.92,37.64,288.84Z" style="fill: #fff" />
      <path d="M45,285.83l-1.39,4h-.78l-.78-2.17-.77,2.17h-.78l-1.42-4h1.25l.64,2,.69-2h.78l.7,2,.61-2Z" style="fill: #fff" />
    </g>
    <g>
      <path d="M29.14,335.49a1.67,1.67,0,0,1-.23.88,1.48,1.48,0,0,1-.64.57,2.12,2.12,0,0,1-.93.19,2.62,2.62,0,0,1-.37,0,2.92,2.92,0,0,1-.57-.12,3.88,3.88,0,0,1-.74-.29v-1.32a4.88,4.88,0,0,0,.71.42,1.72,1.72,0,0,0,.75.17.64.64,0,0,0,.48-.14.45.45,0,0,0,.1-.26.46.46,0,0,0-.18-.37,2.58,2.58,0,0,0-.54-.31,4.49,4.49,0,0,1-.69-.41,1.69,1.69,0,0,1-.48-.55,1.54,1.54,0,0,1-.19-.79,1.62,1.62,0,0,1,.19-.79,1.37,1.37,0,0,1,.58-.56,2,2,0,0,1,.95-.21,2.82,2.82,0,0,1,.73.08,3,3,0,0,1,.56.2,1.63,1.63,0,0,1,.3.17v1.27a3.3,3.3,0,0,0-.65-.42,1.56,1.56,0,0,0-.76-.19.54.54,0,0,0-.39.12.36.36,0,0,0-.12.28.38.38,0,0,0,.12.28,1.82,1.82,0,0,0,.43.29,9.37,9.37,0,0,1,.88.52,1.77,1.77,0,0,1,.51.55A1.36,1.36,0,0,1,29.14,335.49Z" style="fill: #fff" />
      <path d="M33.26,336.86l-.5.2a1.79,1.79,0,0,1-.55.07.6.6,0,0,1-.43-.12.64.64,0,0,1-.17-.3,1.9,1.9,0,0,1-.44.3,1.49,1.49,0,0,1-.64.12,1.14,1.14,0,0,1-.62-.15.76.76,0,0,1-.33-.38,1.24,1.24,0,0,1-.1-.47,1,1,0,0,1,.17-.6,1.31,1.31,0,0,1,.44-.4,5.3,5.3,0,0,1,.72-.31l.4-.15.19-.07.14-.07a.81.81,0,0,0-.1-.45.5.5,0,0,0-.45-.17,1.5,1.5,0,0,0-.75.2,2.66,2.66,0,0,0-.64.53v-1.08a2.18,2.18,0,0,1,.5-.31,2.26,2.26,0,0,1,.56-.17,2.88,2.88,0,0,1,.59-.06,1.69,1.69,0,0,1,1.14.33,1.14,1.14,0,0,1,.39.92v1.54a1.27,1.27,0,0,0,0,.32c0,.07.07.11.14.11a.77.77,0,0,0,.31-.11Zm-1.72-.76v-.94a3.3,3.3,0,0,0-.64.37.51.51,0,0,0-.21.44.41.41,0,0,0,.11.3.3.3,0,0,0,.23.11.46.46,0,0,0,.25-.08A2.26,2.26,0,0,0,31.54,336.1Z" style="fill: #fff" />
      <path d="M38.94,333.09l-1.38,4h-.78L36,334.9l-.78,2.16h-.78l-1.42-4h1.26l.64,2,.68-2h.79l.69,2,.62-2Z" style="fill: #fff" />
    </g>
    <g>
      <g>
        <path d="M25.31,142.47a2.27,2.27,0,0,1-.11.73,2,2,0,0,1-.37.67,1.79,1.79,0,0,1-.68.51,2.65,2.65,0,0,1-1,.19H22v2.54H20.16v-6.77h3a2.32,2.32,0,0,1,1,.2,1.77,1.77,0,0,1,.68.5,2.16,2.16,0,0,1,.37.68A2.39,2.39,0,0,1,25.31,142.47Zm-1.83,0a.75.75,0,0,0-.25-.66,1.64,1.64,0,0,0-.9-.18H22v1.63h.39a3,3,0,0,0,.69-.06.6.6,0,0,0,.35-.24A.94.94,0,0,0,23.48,142.48Z" />
        <path d="M30.38,147.11H28.83v-2.75a1.59,1.59,0,0,0-.13-.66.51.51,0,0,0-.51-.29.7.7,0,0,0-.51.22,2.93,2.93,0,0,0-.43.56v2.92H25.71v-6.77h1.54v2.51a2.21,2.21,0,0,1,.76-.63,1.93,1.93,0,0,1,.79-.17c1.05,0,1.58.67,1.58,2Z" />
        <path d="M35.49,146.86a6.53,6.53,0,0,1-.63.24,2.29,2.29,0,0,1-.69.1.73.73,0,0,1-.53-.16,1,1,0,0,1-.22-.37,2.34,2.34,0,0,1-.55.38,1.84,1.84,0,0,1-.8.15,1.44,1.44,0,0,1-.77-.19,1,1,0,0,1-.41-.48,1.47,1.47,0,0,1-.12-.58,1.29,1.29,0,0,1,.2-.76,1.53,1.53,0,0,1,.55-.49,6.37,6.37,0,0,1,.91-.4l.49-.18.24-.09.18-.09a1.14,1.14,0,0,0-.13-.57.64.64,0,0,0-.56-.2,1.81,1.81,0,0,0-.94.25,3.31,3.31,0,0,0-.8.66v-1.35a2.55,2.55,0,0,1,.63-.39,3.81,3.81,0,0,1,.7-.22,3.64,3.64,0,0,1,.74-.07,2.09,2.09,0,0,1,1.42.42,1.43,1.43,0,0,1,.48,1.15v1.92a1.3,1.3,0,0,0,0,.4c0,.09.08.14.16.14a1,1,0,0,0,.4-.14Zm-2.15-1v-1.18a3.9,3.9,0,0,0-.81.46.64.64,0,0,0-.25.55.52.52,0,0,0,.13.38.41.41,0,0,0,.29.13.66.66,0,0,0,.32-.1Z" />
        <path d="M39,145.66a1.47,1.47,0,0,1-.44,1.11,1.83,1.83,0,0,1-1.31.43,3.69,3.69,0,0,1-.86-.1,7.45,7.45,0,0,1-.82-.29v-1.25a5.86,5.86,0,0,0,.67.39,1.7,1.7,0,0,0,.64.13c.38,0,.58-.12.58-.36a.29.29,0,0,0-.09-.22,1.12,1.12,0,0,0-.29-.22c-.14-.08-.32-.17-.56-.28a2.29,2.29,0,0,1-.73-.58,1.32,1.32,0,0,1-.3-.88,1.39,1.39,0,0,1,.2-.71,1.51,1.51,0,0,1,.61-.56,1.93,1.93,0,0,1,1-.22l.35,0a3.2,3.2,0,0,1,.54.12,2.73,2.73,0,0,1,.61.26v1.22l-.22-.16-.25-.14a3,3,0,0,0-.36-.14,1.59,1.59,0,0,0-.43-.06.51.51,0,0,0-.37.11.42.42,0,0,0-.1.24.33.33,0,0,0,.11.23,1.81,1.81,0,0,0,.46.26,3.8,3.8,0,0,1,.82.46,1.41,1.41,0,0,1,.44.52A1.54,1.54,0,0,1,39,145.66Z" />
        <path d="M44,145.05H40.93a1.29,1.29,0,0,0,1.25,1,3.77,3.77,0,0,0,1.72-.5v1.09a4.56,4.56,0,0,1-.82.36,3.83,3.83,0,0,1-1.23.17,2.62,2.62,0,0,1-1.38-.35,2.08,2.08,0,0,1-.84-.92,3,3,0,0,1-.29-1.33,2.9,2.9,0,0,1,.29-1.31,2.05,2.05,0,0,1,.84-.91,2.71,2.71,0,0,1,1.38-.33,2.25,2.25,0,0,1,1,.26,2,2,0,0,1,.81.85A3.17,3.17,0,0,1,44,144.7Zm-1.45-.87a1.28,1.28,0,0,0-.21-.77.68.68,0,0,0-.6-.28.75.75,0,0,0-.62.29,1.15,1.15,0,0,0-.24.76Z" />
      </g>
      <path d="M41,102.18l1.13-2A21.88,21.88,0,0,0,33,97.79v2.26A19.55,19.55,0,0,1,41,102.18Z" />
      <path d="M48.54,109l2-1.13a22.17,22.17,0,0,0-6.68-6.68l-1.12,2A20,20,0,0,1,48.54,109Z" />
      <path d="M21.23,103.18l-1.12-2a22.17,22.17,0,0,0-6.68,6.68l2,1.13A19.93,19.93,0,0,1,21.23,103.18Z" />
      <path d="M51.68,118.76h2.25a21.73,21.73,0,0,0-2.44-9.12l-2,1.13A19.76,19.76,0,0,1,51.68,118.76Z" />
      <path d="M31,100.05V97.79a21.88,21.88,0,0,0-9.12,2.44l1.12,2A19.6,19.6,0,0,1,31,100.05Z" />
      <path d="M15.38,130.49l-2,1.13a22.13,22.13,0,0,0,6.68,6.67l1.12-1.95A19.89,19.89,0,0,1,15.38,130.49Z" />
      <path d="M42.69,136.34l1.12,1.95a22.13,22.13,0,0,0,6.68-6.67l-2-1.13A20,20,0,0,1,42.69,136.34Z" />
      <path d="M51.68,120.76a19.77,19.77,0,0,1-2.14,8l2,1.12a21.73,21.73,0,0,0,2.44-9.12Z" />
      <path d="M12.24,120.76H10a21.89,21.89,0,0,0,2.45,9.12l2-1.12A19.61,19.61,0,0,1,12.24,120.76Z" />
      <path d="M14.38,110.77l-2-1.13A21.89,21.89,0,0,0,10,118.76h2.26A19.6,19.6,0,0,1,14.38,110.77Z" />
      <g>
        <path d="M81.15,142.47a2.28,2.28,0,0,1-.12.73,2,2,0,0,1-.36.67,1.83,1.83,0,0,1-.69.51,2.65,2.65,0,0,1-1,.19H77.79v2.54H76v-6.77h3a2.32,2.32,0,0,1,1,.2,1.81,1.81,0,0,1,.69.5,2.13,2.13,0,0,1,.36.68A2.4,2.4,0,0,1,81.15,142.47Zm-1.83,0a.78.78,0,0,0-.25-.66,1.66,1.66,0,0,0-.91-.18h-.37v1.63h.38a3,3,0,0,0,.69-.06.57.57,0,0,0,.35-.24A.94.94,0,0,0,79.32,142.48Z" />
        <path d="M91.44,140.34l-2.58,6.86h-1l-1.55-4-1.58,4h-1l-2.53-6.86H83l1.24,3.75,1.42-3.75h1.28l1.4,3.75,1.29-3.75Z" />
      </g>
      <path d="M92.49,102.18l1.12-2a21.88,21.88,0,0,0-9.12-2.44v2.26A19.6,19.6,0,0,1,92.49,102.18Z" />
      <path d="M100.07,109l2-1.13a22.17,22.17,0,0,0-6.68-6.68l-1.12,2A19.93,19.93,0,0,1,100.07,109Z" />
      <path d="M72.76,103.18l-1.12-2A22.17,22.17,0,0,0,65,107.91l2,1.13A20,20,0,0,1,72.76,103.18Z" />
      <path d="M103.21,118.76h2.26a21.89,21.89,0,0,0-2.45-9.12l-2,1.13A19.6,19.6,0,0,1,103.21,118.76Z" />
      <path d="M82.49,100.05V97.79a21.88,21.88,0,0,0-9.12,2.44l1.13,2A19.55,19.55,0,0,1,82.49,100.05Z" />
      <path d="M66.91,130.49l-2,1.13a22.13,22.13,0,0,0,6.68,6.67l1.12-1.95A20,20,0,0,1,66.91,130.49Z" />
      <path d="M94.22,136.34l1.12,1.95a22.13,22.13,0,0,0,6.68-6.67l-2-1.13A19.89,19.89,0,0,1,94.22,136.34Z" />
      <path d="M103.21,120.76a19.61,19.61,0,0,1-2.14,8l2,1.12a21.89,21.89,0,0,0,2.45-9.12Z" />
      <path d="M63.77,120.76H61.52A21.73,21.73,0,0,0,64,129.88l1.95-1.12A19.77,19.77,0,0,1,63.77,120.76Z" />
      <path d="M65.91,110.77,64,109.64a21.73,21.73,0,0,0-2.44,9.12h2.25A19.76,19.76,0,0,1,65.91,110.77Z" />
    </g>
    <g>
      <path d="M63.29,8.07l-5.53,7v-6a1.29,1.29,0,0,0-.64-1.17A.89.89,0,0,0,56,8.19l-7.28,9.25a1.49,1.49,0,0,0,0,1.79.91.91,0,0,0,1.46,0l5.49-7v6a1.29,1.29,0,0,0,.65,1.17.9.9,0,0,0,1.13-.3l5.53-7v6.16a1.06,1.06,0,1,0,2.07,0V9a1.31,1.31,0,0,0-.65-1.18A.91.91,0,0,0,63.29,8.07Z" style="stroke: #000;stroke-width: 0.6000000000000001px" />
      <path d="M48.71,8l-4.82,6.12a1.48,1.48,0,0,0,0,1.79.9.9,0,0,0,1.46,0l3-3.87v6.31a1.06,1.06,0,1,0,2.07,0V8.87a1.29,1.29,0,0,0-.65-1.17A.91.91,0,0,0,48.71,8Z" style="stroke: #000;stroke-width: 0.6000000000000001px" />
      <path d="M71.66,12.52a1.06,1.06,0,0,0-1-.78H68.6l1.54-2s.8-1.17.09-1.82S68.65,8,68.65,8l-3.22,4.1a1.5,1.5,0,0,0-.21,1.38,1.06,1.06,0,0,0,1,.77h2.11l-2.49,3.17s-1,1.13-.27,1.89,1.75-.14,1.75-.14l4.18-5.31A1.48,1.48,0,0,0,71.66,12.52Z" style="stroke: #000;stroke-width: 0.6000000000000001px" />
    </g>
  </g>
  <g /></svg>