<?xml version="1.0" encoding="UTF-8" standalone="no"?>
<svg
   width="40.729816mm"
   height="128.5mm"
   viewBox="0 0 115.44948 364.23746"
   version="1.1"
   id="svg38"
   sodipodi:docname="MultiLFO_artwork.svg"
   inkscape:version="1.4 (e7c3feb1, 2024-10-09)"
   inkscape:export-filename="MultiLFO_info.png"
   inkscape:export-xdpi="96"
   inkscape:export-ydpi="96"
   xmlns:inkscape="http://www.inkscape.org/namespaces/inkscape"
   xmlns:sodipodi="http://sodipodi.sourceforge.net/DTD/sodipodi-0.dtd"
   xmlns="http://www.w3.org/2000/svg"
   xmlns:svg="http://www.w3.org/2000/svg">
  <defs
     id="defs38" />
  <sodipodi:namedview
     id="namedview38"
     pagecolor="#ffffff"
     bordercolor="#666666"
     borderopacity="1.0"
     inkscape:showpageshadow="2"
     inkscape:pageopacity="0.0"
     inkscape:pagecheckerboard="0"
     inkscape:deskcolor="#d1d1d1"
     inkscape:document-units="mm"
     inkscape:zoom="2.1917327"
     inkscape:cx="118.39947"
     inkscape:cy="246.38041"
     inkscape:window-width="1768"
     inkscape:window-height="1325"
     inkscape:window-x="291"
     inkscape:window-y="87"
     inkscape:window-maximized="0"
     inkscape:current-layer="faceplate"
     showgrid="false" />
  <g
     id="faceplate"
     transform="translate(0.00474072,0.005)">
    <rect
       x="0.12"
       y="0.12"
       width="115.2"
       height="364.25"
       style="fill:#ededed;stroke:#9d9d9e;stroke-width:0.25px;stroke-miterlimit:10"
       id="rect1" />
    <path
       d="m 100.22,224.06 c -0.29,-8.38 -6.12,-9.49 -13.28,-9.49 H 28.58 c -7.17,0 -12.99,6.69 -13.28,15.07 l -0.1,32.31 v 46.63 l 0.03,7.18 c -0.02,0.18 -0.03,0.36 -0.03,0.54 v 19.84 c 0,3.12 2.55,5.67 5.67,5.67 h 73.7 c 3.12,0 5.67,-2.55 5.67,-5.67 v -106.5 l -0.03,-5.58 z"
       style="fill:#000000;stroke-width:0px"
       id="path1" />
    <g
       id="g3">
      <path
         d="m 20.94,245.81 c -2.85,0 -5.17,-2.32 -5.17,-5.17 L 15.71,220.8 c 0,-0.17 0,-0.33 0.03,-0.49 l -0.03,-7.23 0.1,-46.63 c 0.28,-8.16 5.9,-14.57 12.78,-14.57 h 58.35 c 6.88,0 12.5,6.41 12.78,14.58 l 0.02,0.48 h 0.01 v 73.69 c 0,2.85 -2.32,5.17 -5.17,5.17 H 20.94 Z"
         style="fill:#ededed;stroke-width:0px"
         id="path2" />
      <path
         d="m 28.58,152.38 h 58.35 c 6.61,0 12.01,6.19 12.28,14.1 l 0.03,0.43 v 73.73 c 0,2.57 -2.09,4.67 -4.67,4.67 H 20.94 c -2.57,0 -4.67,-2.09 -4.67,-4.67 L 16.21,220.8 c 0,-0.15 0,-0.3 0.02,-0.45 v -0.05 c 0,0 0,-0.05 0,-0.05 l -0.03,-7.17 0.09,-46.6 c 0.27,-7.91 5.67,-14.1 12.28,-14.1 m 0.01,-1 c -7.17,0 -12.99,6.69 -13.28,15.07 l -0.1,46.63 0.03,7.18 c -0.02,0.18 -0.03,0.36 -0.03,0.54 l 0.06,19.84 c 0,3.12 2.55,5.67 5.67,5.67 h 73.64 c 3.12,0 5.67,-2.55 5.67,-5.67 v -74.19 h -0.03 c -0.29,-8.38 -6.12,-15.07 -13.28,-15.07 z"
         style="fill:#000000;stroke-width:0px"
         id="path3" />
    </g>
    <path
       d="M 8.8828125,0 H 6.2519531 L 5.6132812,-1.4414062 Q 5.2617187,-2.2324219 4.9804687,-2.5957031 4.6992187,-2.9648438 4.4296875,-3.0644531 4.1660156,-3.1699219 3.7441406,-3.1699219 H 3.46875 V 0 H 1.0195312 v -8.1210938 h 4.1660157 q 1.0078125,0 1.6523437,0.4101563 0.6445313,0.4101563 0.9257813,0.9960938 0.2871094,0.5859375 0.2871094,1.1132812 0,0.6152344 -0.2402344,1.0429688 Q 7.5761719,-4.1367187 7.3125,-3.9433594 7.0488281,-3.75 6.7207031,-3.5742188 7.1132812,-3.3457031 7.3652344,-3.0292969 7.6230469,-2.71875 8.0625,-1.7636719 Z m -3.328125,-5.5546875 q 0,-0.5625 -0.3691406,-0.7851562 Q 4.8164062,-6.5625 3.984375,-6.5625 H 3.46875 v 1.9570313 h 0.5273438 q 0.8964843,0 1.2246093,-0.1933594 0.3339844,-0.1992188 0.3339844,-0.7558594 z m 10.1489065,5.25585937 q -0.46289,0.18164063 -0.855469,0.29296875 -0.392578,0.11132813 -0.943359,0.11132813 -0.521484,0 -0.726562,-0.18164062 -0.205079,-0.18750001 -0.292969,-0.45117188 -0.339844,0.27539062 -0.75586,0.45703125 -0.416015,0.17578125 -1.089843,0.17578125 -0.650391,0 -1.0546878,-0.22265625 -0.3984375,-0.22851563 -0.5625,-0.56835937 Q 9.2641411,-1.03125 9.2641411,-1.3945312 q 0,-0.5507813 0.2753906,-0.9082032 0.28125,-0.3632812 0.7500003,-0.5917969 0.46875,-0.2285156 1.242187,-0.4746093 0.439453,-0.140625 0.66211,-0.2109375 0.228515,-0.076172 0.339843,-0.1171875 0.111328,-0.041016 0.234375,-0.1054688 0,-0.4335937 -0.175781,-0.6796875 -0.175781,-0.2460937 -0.761719,-0.2460937 -0.691406,0 -1.283203,0.3046875 -0.5917967,0.3046875 -1.0839842,0.7851562 v -1.6171875 q 0.3925782,-0.28125 0.8496092,-0.4570312 0.457031,-0.1816406 0.955078,-0.2695313 0.498047,-0.087891 1.007813,-0.087891 1.294922,0 1.945312,0.5039063 0.65625,0.4980468 0.65625,1.3769531 v 2.3027344 q 0,0.328125 0.05859,0.4921875 0.06445,0.1582031 0.228516,0.1582031 0.199218,0 0.539062,-0.1699219 z M 12.768047,-1.4414062 v -1.4121094 q -0.75,0.3046875 -1.095703,0.5507812 -0.345703,0.2402344 -0.345703,0.65625 0,0.2988282 0.169922,0.4570313 0.175781,0.1582031 0.404297,0.1582031 0.216797,0 0.427734,-0.1171875 0.216797,-0.1230469 0.439453,-0.2929687 z m 7.822734,1.09570307 q -0.328125,0.15820313 -0.908203,0.30468751 -0.574219,0.14648437 -1.101562,0.14648437 -2.279297,0 -2.279297,-2.22656255 V -4.5 h -0.955078 v -0.3691406 l 2.830078,-2.8828125 h 0.240234 v 1.7871094 h 2.015625 V -4.5 h -2.015625 v 1.9101562 q 0,0.3339844 0.04102,0.5390625 0.04102,0.2050782 0.228515,0.3457032 0.19336,0.1347656 0.580078,0.1347656 0.503907,0 1.324219,-0.421875 z m 6.562968,-2.12695317 h -4.201171 q 0.123046,0.5449219 0.603515,0.8906251 0.480469,0.3457031 1.089844,0.3457031 1.066406,0 2.355469,-0.5976563 v 1.30664065 q -0.462891,0.24023437 -1.125,0.43945313 -0.65625,0.19335937 -1.675782,0.19335937 -1.101562,0 -1.875,-0.41015625 -0.773437,-0.41015625 -1.160156,-1.1132812 -0.380859,-0.7031251 -0.380859,-1.5937501 0,-0.8789062 0.380859,-1.5703124 0.386719,-0.6972657 1.160156,-1.0898438 0.773438,-0.3984375 1.875,-0.3984375 0.726563,0 1.400391,0.3164063 0.679688,0.3105468 1.113281,1.0253906 0.439453,0.7089844 0.439453,1.8339843 z M 25.173281,-3.515625 q 0,-0.5742187 -0.28711,-0.9140625 -0.28125,-0.3457031 -0.814453,-0.3457031 -0.527344,0 -0.855469,0.3515625 -0.322265,0.3457031 -0.322265,0.9082031 z"
       id="text3"
       style="font-weight:700;font-size:12px;font-family:GillSans-Bold, 'Gill Sans';letter-spacing:-0.04em"
       transform="matrix(0.88,0,0,1,45.88,99.13)"
       aria-label="Rate" />
    <path
       d="M 9.5927734,0 H 7.3476562 V -4.3129883 L 5.3227539,-1.8154297 H 5.1455078 L 3.1152344,-4.3129883 V 0 H 0.93457031 V -7.4443359 H 2.9702148 l 2.288086,2.7929687 2.2988281,-2.7929687 h 2.0356445 z m 9.6357426,-3.3354492 q 0,0.9560547 -0.359864,1.6328125 -0.354492,0.6713867 -0.945312,1.06347654 -0.585449,0.39208985 -1.267578,0.56396485 -0.676758,0.171875 -1.353516,0.171875 -0.945312,0 -1.842285,-0.32226563 -0.891602,-0.32226562 -1.493164,-1.09570316 -0.601563,-0.7734375 -0.601563,-2.0141601 v -4.1088867 h 2.239746 v 3.5288086 q 0,0.7358398 0.209473,1.2192382 0.214844,0.4780274 0.59082,0.7036133 0.381348,0.2202149 0.896973,0.2202149 0.494141,0 0.875488,-0.2202149 0.381348,-0.2202148 0.590821,-0.6982422 0.214843,-0.4780273 0.214843,-1.2138672 v -3.5395507 h 2.245118 z M 26.645996,0 h -5.655762 v -7.4443359 h 2.245118 v 5.6611328 h 3.410644 z m 7.025391,-5.6342773 H 30.942871 V 0 h -2.239746 v -5.6342773 h -2.728516 v -1.8100586 h 7.696778 z M 37.237793,0 h -2.245117 v -7.4443359 h 2.245117 z m 10.801269,0 h -5.655761 v -7.4443359 h 2.245117 v 5.6611328 h 3.410644 z m 6.638672,-3.0131836 H 51.589355 V 0 h -2.245117 v -7.4443359 h 5.333496 v 1.493164 h -3.088379 v 1.4394532 h 3.088379 z m 9.47461,-0.7143555 q 0,1.0419922 -0.483399,1.9174805 -0.478027,0.87548829 -1.428711,1.39111329 -0.950683,0.515625 -2.314941,0.515625 -1.380371,0 -2.336426,-0.53710938 -0.956055,-0.53710937 -1.42334,-1.41259761 -0.461914,-0.8754883 -0.461914,-1.8745118 0,-1.0043945 0.461914,-1.8745117 0.461914,-0.8754883 1.417969,-1.4072265 0.961426,-0.5371094 2.341797,-0.5371094 1.03125,0 1.836914,0.3061523 0.811035,0.3061524 1.332031,0.8325196 0.520996,0.5209961 0.789551,1.2192382 0.268555,0.6928711 0.268555,1.4609375 z m -2.288086,0 q 0,-0.4189453 -0.123535,-0.7626953 -0.123536,-0.3491211 -0.375977,-0.6015625 -0.24707,-0.2578125 -0.606934,-0.3974609 -0.359863,-0.1450195 -0.832519,-0.1450195 -0.902344,0 -1.417969,0.5263671 -0.515625,0.5263672 -0.515625,1.3803711 0,0.8540039 0.515625,1.3857422 0.520996,0.5263672 1.417969,0.5263672 0.617676,0 1.052734,-0.2416992 0.435059,-0.2470703 0.660645,-0.6767578 0.225586,-0.4350586 0.225586,-0.9936524 z"
       id="text4"
       style="font-weight:700;font-size:11px;font-family:GillSans-Bold, 'Gill Sans'"
       transform="matrix(0.82,0,0,1,30.65,357.38)"
       aria-label="MULTI LFO" />
    <path
       d="m 5.3671875,-3.7109375 q 0,0.3007812 -0.1054688,0.5898437 -0.1015625,0.2851563 -0.3320312,0.5351563 -0.2304688,0.2460937 -0.625,0.4023437 Q 3.9140625,-2.03125 3.3828125,-2.03125 H 2.3125 V 0 H 0.6796875 v -5.4140625 h 2.703125 q 0.53125,0 0.921875,0.15625 0.3945312,0.15625 0.625,0.40625 0.2304687,0.25 0.3320312,0.5429688 0.1054688,0.2929687 0.1054688,0.5976562 z m -1.6640625,0.00781 q 0,-0.3867187 -0.2304687,-0.5273437 Q 3.2460938,-4.375 2.65625,-4.375 H 2.3125 v 1.3046875 h 0.3515625 q 0.40625,0 0.625,-0.050781 0.21875,-0.050781 0.3164063,-0.1875 0.097656,-0.1367187 0.097656,-0.3945312 z M 14.722969,-5.414065 12.379219,0.07031 H 11.433906 L 10.027656,-3.1210963 8.5862498,0.07031 h -0.953125 l -2.296875,-5.484375 h 1.6914063 l 1.125,3 1.2890625,-3 h 1.1679684 l 1.265625,3 1.175782,-3 z"
       id="text5"
       style="font-weight:700;font-size:8px;font-family:GillSans-Bold, 'Gill Sans';letter-spacing:-0.04em"
       transform="matrix(0.88,0,0,1,77.12,193.06)"
       aria-label="PW" />
    <path
       d="m 5.3671875,-3.7109375 q 0,0.3007812 -0.1054688,0.5898437 -0.1015625,0.2851563 -0.3320312,0.5351563 -0.2304688,0.2460937 -0.625,0.4023437 Q 3.9140625,-2.03125 3.3828125,-2.03125 H 2.3125 V 0 H 0.6796875 v -5.4140625 h 2.703125 q 0.53125,0 0.921875,0.15625 0.3945312,0.15625 0.625,0.40625 0.2304687,0.25 0.3320312,0.5429688 0.1054688,0.2929687 0.1054688,0.5976562 z m -1.6640625,0.00781 q 0,-0.3867187 -0.2304687,-0.5273437 Q 3.2460938,-4.375 2.65625,-4.375 H 2.3125 v 1.3046875 h 0.3515625 q 0.40625,0 0.625,-0.050781 0.21875,-0.050781 0.3164063,-0.1875 0.097656,-0.1367187 0.097656,-0.3945312 z M 9.9143748,0 H 8.5042186 v -0.56640625 q -0.296875,0.3203125 -0.625,0.48046875 -0.3242188,0.15625 -0.78125,0.15625 -0.9023438,0 -1.1679688,-0.5234375 -0.265625,-0.52734375 -0.265625,-1.1875 v -2.3359375 h 1.4101563 v 2.1484375 q 0,0.3242188 0.1054687,0.5703125 0.109375,0.2421875 0.46875,0.2421875 0.3085938,0 0.4882813,-0.1757812 0.1796875,-0.1757813 0.3671875,-0.4492188 v -2.3359375 h 1.4101562 z m 2.0589062,0 h -1.410156 v -5.4140625 h 1.410156 z m 3.758125,-1.1601562 q 0,0.54687495 -0.402344,0.89062495 -0.398437,0.33984375 -1.1875,0.33984375 -0.441406,0 -0.785156,-0.078125 -0.34375,-0.08203125 -0.75,-0.23046875 V -1.2382812 q 0.355469,0.203125 0.617188,0.3085937 0.261718,0.10546875 0.574218,0.10546875 0.527344,0 0.527344,-0.28906245 0,-0.097656 -0.07813,-0.171875 -0.07422,-0.078125 -0.265625,-0.171875 Q 13.793906,-1.5546875 13.4775,-1.6875 13.086875,-1.859375 12.813437,-2.1484375 12.54,-2.4375 12.54,-2.8554688 q 0,-0.296875 0.179687,-0.5703125 0.183594,-0.2734375 0.550782,-0.4453125 0.367187,-0.1757812 0.886718,-0.1757812 0.125,0 0.316407,0.019531 0.195312,0.015625 0.488281,0.089844 0.296875,0.074219 0.5625,0.2109375 v 0.9726562 q -0.125,-0.074219 -0.210938,-0.125 -0.08203,-0.050781 -0.222656,-0.1132812 -0.140625,-0.0625 -0.332031,-0.109375 -0.1875,-0.050781 -0.386719,-0.050781 -0.242187,0 -0.332031,0.09375 -0.08984,0.09375 -0.08984,0.1875 0,0.097656 0.09375,0.1835938 0.09375,0.082031 0.417969,0.2070312 0.46875,0.1796875 0.75,0.3710938 0.28125,0.1875 0.398437,0.4140625 0.121094,0.2265625 0.121094,0.5351563 z m 4.519844,-0.4882813 h -2.800781 q 0.08203,0.3632813 0.402344,0.59375 0.320312,0.23046875 0.726562,0.23046875 0.710938,0 1.570313,-0.39843745 v 0.8710937 q -0.308594,0.16015625 -0.75,0.29296875 -0.4375,0.12890625 -1.117188,0.12890625 -0.734375,0 -1.25,-0.2734375 -0.515625,-0.2734375 -0.773437,-0.7421875 -0.253906,-0.46875 -0.253906,-1.0625 0,-0.5859375 0.253906,-1.046875 0.257812,-0.4648438 0.773437,-0.7265625 0.515625,-0.265625 1.25,-0.265625 0.484375,0 0.933594,0.2109375 0.453125,0.2070312 0.742188,0.6835937 0.292968,0.4726563 0.292968,1.2226563 z M 18.930938,-2.34375 q 0,-0.3828125 -0.191406,-0.609375 -0.1875,-0.2304688 -0.542969,-0.2304688 -0.351563,0 -0.570313,0.234375 -0.214843,0.2304688 -0.214843,0.6054688 z"
       id="text6"
       style="font-weight:700;font-size:8px;font-family:GillSans-Bold, 'Gill Sans';letter-spacing:-0.04em;fill:#ffffff"
       transform="matrix(0.88,0,0,1,74.62,289.81)"
       aria-label="Pulse" />
    <path
       d="m 4.4648437,-1.5742187 q 0,0.5078125 -0.2617187,0.8789062 Q 3.9453125,-0.32421875 3.4804688,-0.125 3.015625,0.0703125 2.4140625,0.0703125 2.2460938,0.0703125 2,0.046875 1.7578125,0.02734375 1.3515625,-0.0703125 0.94921875,-0.16796875 0.51171875,-0.359375 V -1.6875 q 0.41015625,0.2539063 0.80468745,0.421875 0.3984375,0.1679688 0.8515626,0.1679688 0.4179687,0 0.5390625,-0.1367188 0.125,-0.140625 0.125,-0.2617187 0,-0.21875 -0.2109375,-0.3671875 Q 2.4101563,-2.015625 2.0078125,-2.1757813 1.5625,-2.3632813 1.2265625,-2.5820313 0.890625,-2.8046875 0.67578125,-3.1367188 0.46484375,-3.46875 0.46484375,-3.921875 q 0,-0.4375 0.21484375,-0.7890625 0.21484375,-0.3554687 0.65625,-0.5664062 0.4414062,-0.2109375 1.078125,-0.2109375 0.453125,0 0.8359375,0.089844 0.3867188,0.085937 0.6367188,0.1953125 0.2499999,0.109375 0.3437499,0.171875 v 1.2695312 Q 3.8984375,-4 3.4882813,-4.1875 3.0820313,-4.375 2.6171875,-4.375 2.3125,-4.375 2.1757813,-4.2578125 2.0390625,-4.140625 2.0390625,-3.96875 q 0,0.1601562 0.1367188,0.2773437 0.1367187,0.1171875 0.4882812,0.2851563 0.625,0.2929687 1,0.5273437 0.375,0.234375 0.5859375,0.5429688 0.2148437,0.3046875 0.2148437,0.7617188 z m 1.9260936,-3.3203125 q 0,0.2460937 -0.1757812,0.4179687 -0.1757813,0.171875 -0.4179688,0.171875 -0.1640625,0 -0.3007812,-0.078125 -0.1328125,-0.078125 -0.2109375,-0.2109375 -0.078125,-0.1367187 -0.078125,-0.3007812 0,-0.2421875 0.171875,-0.4179688 0.171875,-0.1757812 0.4179687,-0.1757812 0.2421875,0 0.4179688,0.1757812 0.1757812,0.1757813 0.1757812,0.4179688 z M 6.5042186,0 H 5.0940623 V -3.9765625 H 6.5042186 Z M 11.399063,0 H 9.9928126 v -2.1445313 q 0,-0.328125 -0.109375,-0.5703125 -0.1054687,-0.2460937 -0.46875,-0.2460937 -0.171875,0 -0.3046875,0.066406 -0.1289062,0.0625 -0.234375,0.1640625 -0.1015625,0.1015625 -0.171875,0.1953125 -0.070312,0.09375 -0.1445312,0.1992188 V 0 h -1.40625 v -3.9765625 h 1.40625 V -3.40625 q 0.3320312,-0.3554688 0.6640625,-0.4960938 0.3359375,-0.1445312 0.7460937,-0.1445312 1.4296879,0 1.4296879,1.7109375 z m 4.601874,-1.6484375 h -2.800781 q 0.08203,0.3632813 0.402344,0.59375 0.320312,0.23046875 0.726562,0.23046875 0.710938,0 1.570313,-0.39843745 v 0.8710937 q -0.308594,0.16015625 -0.75,0.29296875 -0.4375,0.12890625 -1.117188,0.12890625 -0.734375,0 -1.25,-0.2734375 -0.515625,-0.2734375 -0.773437,-0.7421875 -0.253906,-0.46875 -0.253906,-1.0625 0,-0.5859375 0.253906,-1.046875 0.257812,-0.4648438 0.773437,-0.7265625 0.515625,-0.265625 1.25,-0.265625 0.484375,0 0.933594,0.2109375 0.453125,0.2070312 0.742188,0.6835937 0.292968,0.4726563 0.292968,1.2226563 z M 14.680625,-2.34375 q 0,-0.3828125 -0.191406,-0.609375 -0.1875,-0.2304688 -0.542969,-0.2304688 -0.351563,0 -0.570313,0.234375 -0.214843,0.2304688 -0.214843,0.6054688 z"
       id="text7"
       style="font-weight:700;font-size:8px;font-family:GillSans-Bold, 'Gill Sans';letter-spacing:-0.04em;fill:#ffffff"
       transform="matrix(0.88,0,0,1,76.49,337.06)"
       aria-label="Sine" />
    <path
       d="m 5.3671875,-3.7109375 q 0,0.3007812 -0.1054688,0.5898437 -0.1015625,0.2851563 -0.3320312,0.5351563 -0.2304688,0.2460937 -0.625,0.4023437 Q 3.9140625,-2.03125 3.3828125,-2.03125 H 2.3125 V 0 H 0.6796875 v -5.4140625 h 2.703125 q 0.53125,0 0.921875,0.15625 0.3945312,0.15625 0.625,0.40625 0.2304687,0.25 0.3320312,0.5429688 0.1054688,0.2929687 0.1054688,0.5976562 z m -1.6640625,0.00781 q 0,-0.3867187 -0.2304687,-0.5273437 Q 3.2460938,-4.375 2.65625,-4.375 H 2.3125 v 1.3046875 h 0.3515625 q 0.40625,0 0.625,-0.050781 0.21875,-0.050781 0.3164063,-0.1875 0.097656,-0.1367187 0.097656,-0.3945312 z M 9.9690623,0 h -1.40625 v -2.0625 q 0,-0.023437 0,-0.042969 0.00391,-0.023437 0.00391,-0.09375 0,-0.2851562 -0.1210938,-0.5234375 -0.1210937,-0.2382812 -0.4609375,-0.2382812 -0.265625,0 -0.46875,0.1796875 -0.203125,0.1757812 -0.3867187,0.4453125 V 0 h -1.40625 v -5.4140625 h 1.40625 V -3.40625 q 0.3476562,-0.3710938 0.6875,-0.5039063 0.3398437,-0.1367187 0.7226562,-0.1367187 1.4296875,0 1.4296875,1.6054687 z M 14.617812,-0.19921875 Q 14.309218,-0.078125 14.0475,-0.00390625 13.785781,0.0703125 13.418593,0.0703125 q -0.347656,0 -0.484375,-0.12109375 -0.136718,-0.125 -0.195312,-0.30078125 -0.226563,0.18359375 -0.503906,0.3046875 -0.277344,0.1171875 -0.726563,0.1171875 -0.433594,0 -0.703125,-0.1484375 -0.265625,-0.15234375 -0.375,-0.37890625 Q 10.324843,-0.6875 10.324843,-0.9296875 q 0,-0.3671875 0.183594,-0.6054687 0.1875,-0.2421875 0.5,-0.3945313 0.3125,-0.1523438 0.828125,-0.3164063 0.292969,-0.09375 0.441406,-0.140625 0.152344,-0.050781 0.226563,-0.078125 0.07422,-0.027344 0.15625,-0.070312 0,-0.2890625 -0.117188,-0.453125 -0.117187,-0.1640625 -0.507812,-0.1640625 -0.460938,0 -0.855469,0.203125 -0.394531,0.203125 -0.722656,0.5234375 v -1.078125 q 0.261719,-0.1875 0.566406,-0.3046875 0.304688,-0.1210937 0.636719,-0.1796875 0.332031,-0.058594 0.671875,-0.058594 0.863281,0 1.296875,0.3359375 0.4375,0.3320312 0.4375,0.9179687 v 1.5351563 q 0,0.21875 0.03906,0.328125 0.04297,0.10546875 0.152344,0.10546875 0.132813,0 0.359375,-0.11328125 z M 12.660781,-0.9609375 v -0.9414062 q -0.5,0.203125 -0.730469,0.3671875 -0.230469,0.1601562 -0.230469,0.4375 0,0.1992187 0.113282,0.30468745 0.117187,0.10546875 0.269531,0.10546875 0.144531,0 0.285156,-0.078125 0.144531,-0.0820313 0.292969,-0.1953125 z m 5.187813,-0.1992187 q 0,0.54687495 -0.402344,0.89062495 -0.398438,0.33984375 -1.1875,0.33984375 -0.441406,0 -0.785156,-0.078125 -0.34375,-0.08203125 -0.75,-0.23046875 V -1.2382812 q 0.355468,0.203125 0.617187,0.3085937 0.261719,0.10546875 0.574219,0.10546875 0.527344,0 0.527344,-0.28906245 0,-0.097656 -0.07813,-0.171875 -0.07422,-0.078125 -0.265625,-0.171875 -0.1875,-0.097656 -0.503907,-0.2304688 -0.390625,-0.171875 -0.664062,-0.4609375 -0.273438,-0.2890625 -0.273438,-0.7070313 0,-0.296875 0.179688,-0.5703125 0.183594,-0.2734375 0.550781,-0.4453125 0.367188,-0.1757812 0.886719,-0.1757812 0.125,0 0.316406,0.019531 0.195313,0.015625 0.488281,0.089844 0.296875,0.074219 0.5625,0.2109375 v 0.9726562 q -0.125,-0.074219 -0.210937,-0.125 -0.08203,-0.050781 -0.222656,-0.1132812 -0.140625,-0.0625 -0.332032,-0.109375 -0.1875,-0.050781 -0.386718,-0.050781 -0.242188,0 -0.332032,0.09375 -0.08984,0.09375 -0.08984,0.1875 0,0.097656 0.09375,0.1835938 0.09375,0.082031 0.417968,0.2070312 0.46875,0.1796875 0.75,0.3710938 0.28125,0.1875 0.398438,0.4140625 0.121094,0.2265625 0.121094,0.5351563 z m 4.519843,-0.4882813 h -2.800781 q 0.08203,0.3632813 0.402343,0.59375 0.320313,0.23046875 0.726563,0.23046875 0.710937,0 1.570312,-0.39843745 v 0.8710937 q -0.308593,0.16015625 -0.75,0.29296875 -0.4375,0.12890625 -1.117187,0.12890625 -0.734375,0 -1.25,-0.2734375 -0.515625,-0.2734375 -0.773438,-0.7421875 -0.253906,-0.46875 -0.253906,-1.0625 0,-0.5859375 0.253906,-1.046875 0.257813,-0.4648438 0.773438,-0.7265625 0.515625,-0.265625 1.25,-0.265625 0.484375,0 0.933594,0.2109375 0.453125,0.2070312 0.742187,0.6835937 0.292969,0.4726563 0.292969,1.2226563 z M 21.048124,-2.34375 q 0,-0.3828125 -0.191406,-0.609375 -0.1875,-0.2304688 -0.542969,-0.2304688 -0.351562,0 -0.570312,0.234375 -0.214844,0.2304688 -0.214844,0.6054688 z"
       id="text8"
       style="font-weight:700;font-size:8px;font-family:GillSans-Bold, 'Gill Sans';letter-spacing:-0.04em"
       transform="matrix(0.88,0,0,1,73.68,239.9)"
       aria-label="Phase" />
    <path
       d="M 5.921875,0 H 4.1679687 L 3.7421875,-0.9609375 Q 3.5078125,-1.4882812 3.3203125,-1.7304687 3.1328125,-1.9765625 2.953125,-2.0429688 2.7773438,-2.1132813 2.4960938,-2.1132813 H 2.3125 V 0 H 0.6796875 v -5.4140625 h 2.7773438 q 0.6718749,0 1.1015624,0.2734375 0.4296875,0.2734375 0.6171875,0.6640625 0.1914063,0.390625 0.1914063,0.7421875 0,0.4101562 -0.1601563,0.6953125 Q 5.0507812,-2.7578125 4.875,-2.6289063 4.6992187,-2.5 4.4804687,-2.3828125 4.7421875,-2.2304688 4.9101562,-2.0195313 5.0820312,-1.8125 5.375,-1.1757812 Z m -2.21875,-3.703125 q 0,-0.375 -0.2460937,-0.5234375 Q 3.2109375,-4.375 2.65625,-4.375 H 2.3125 v 1.3046875 h 0.3515625 q 0.5976563,0 0.8164063,-0.1289063 Q 3.703125,-3.3320313 3.703125,-3.703125 Z m 6.765937,3.50390625 Q 10.160469,-0.078125 9.8987498,-0.00390625 9.6370311,0.0703125 9.2698436,0.0703125 q -0.3476563,0 -0.484375,-0.12109375 -0.1367188,-0.125 -0.1953125,-0.30078125 -0.2265625,0.18359375 -0.5039063,0.3046875 -0.2773437,0.1171875 -0.7265625,0.1171875 -0.4335937,0 -0.703125,-0.1484375 -0.265625,-0.15234375 -0.375,-0.37890625 Q 6.1760936,-0.6875 6.1760936,-0.9296875 q 0,-0.3671875 0.1835937,-0.6054687 0.1875,-0.2421875 0.5,-0.3945313 0.3125,-0.1523438 0.828125,-0.3164063 0.2929688,-0.09375 0.4414063,-0.140625 0.1523437,-0.050781 0.2265625,-0.078125 0.074219,-0.027344 0.15625,-0.070312 0,-0.2890625 -0.1171875,-0.453125 -0.1171875,-0.1640625 -0.5078125,-0.1640625 -0.4609375,0 -0.8554688,0.203125 -0.3945312,0.203125 -0.7226562,0.5234375 v -1.078125 q 0.2617187,-0.1875 0.5664062,-0.3046875 0.3046875,-0.1210937 0.6367188,-0.1796875 0.3320312,-0.058594 0.671875,-0.058594 0.8632812,0 1.296875,0.3359375 0.4375,0.3320312 0.4375,0.9179687 v 1.5351563 q 0,0.21875 0.039063,0.328125 0.042968,0.10546875 0.1523439,0.10546875 0.132813,0 0.359375,-0.11328125 z M 8.5120311,-0.9609375 v -0.9414062 q -0.5,0.203125 -0.7304688,0.3671875 -0.2304687,0.1601562 -0.2304687,0.4375 0,0.1992187 0.1132812,0.30468745 Q 7.7815623,-0.6875 7.9339061,-0.6875 q 0.1445312,0 0.2851562,-0.078125 0.1445313,-0.0820313 0.2929688,-0.1953125 z m 5.2151559,0.73046875 q -0.21875,0.10546875 -0.605469,0.203125 -0.382812,0.09765625 -0.734375,0.09765625 -1.519531,0 -1.519531,-1.484375 V -3 h -0.636719 v -0.2460938 l 1.886719,-1.9218749 h 0.160156 v 1.1914062 h 1.34375 V -3 h -1.34375 v 1.2734375 q 0,0.2226563 0.02734,0.359375 0.02734,0.1367188 0.152344,0.2304688 0.128906,0.089844 0.386719,0.089844 0.335937,0 0.882812,-0.28125 z M 18.1025,-1.6484375 h -2.800781 q 0.08203,0.3632813 0.402343,0.59375 0.320313,0.23046875 0.726563,0.23046875 0.710937,0 1.570312,-0.39843745 v 0.8710937 q -0.308593,0.16015625 -0.75,0.29296875 -0.4375,0.12890625 -1.117187,0.12890625 -0.734375,0 -1.25,-0.2734375 -0.515625,-0.2734375 -0.773438,-0.7421875 -0.253906,-0.46875 -0.253906,-1.0625 0,-0.5859375 0.253906,-1.046875 0.257813,-0.4648438 0.773438,-0.7265625 0.515625,-0.265625 1.25,-0.265625 0.484375,0 0.933594,0.2109375 0.453125,0.2070312 0.742187,0.6835937 0.292969,0.4726563 0.292969,1.2226563 z M 16.782187,-2.34375 q 0,-0.3828125 -0.191406,-0.609375 -0.1875,-0.2304688 -0.542969,-0.2304688 -0.351562,0 -0.570312,0.234375 -0.214844,0.2304688 -0.214844,0.6054688 z"
       id="text9"
       style="font-weight:700;font-size:8px;font-family:GillSans-Bold, 'Gill Sans';letter-spacing:-0.04em"
       transform="matrix(0.88,0,0,1,24.13,239.9)"
       aria-label="Rate" />
    <path
       d="M 5.921875,0 H 4.1679687 L 3.7421875,-0.9609375 Q 3.5078125,-1.4882812 3.3203125,-1.7304687 3.1328125,-1.9765625 2.953125,-2.0429688 2.7773438,-2.1132813 2.4960938,-2.1132813 H 2.3125 V 0 H 0.6796875 v -5.4140625 h 2.7773438 q 0.6718749,0 1.1015624,0.2734375 0.4296875,0.2734375 0.6171875,0.6640625 0.1914063,0.390625 0.1914063,0.7421875 0,0.4101562 -0.1601563,0.6953125 Q 5.0507812,-2.7578125 4.875,-2.6289063 4.6992187,-2.5 4.4804687,-2.3828125 4.7421875,-2.2304688 4.9101562,-2.0195313 5.0820312,-1.8125 5.375,-1.1757812 Z m -2.21875,-3.703125 q 0,-0.375 -0.2460937,-0.5234375 Q 3.2109375,-4.375 2.65625,-4.375 H 2.3125 v 1.3046875 h 0.3515625 q 0.5976563,0 0.8164063,-0.1289063 Q 3.703125,-3.3320313 3.703125,-3.703125 Z m 6.375312,2.0546875 H 7.2776561 q 0.082031,0.3632813 0.4023437,0.59375 0.3203125,0.23046875 0.7265625,0.23046875 0.7109375,0 1.5703125,-0.39843745 v 0.8710937 q -0.3085937,0.16015625 -0.75,0.29296875 -0.4375,0.12890625 -1.1171875,0.12890625 -0.734375,0 -1.25,-0.2734375 -0.515625,-0.2734375 -0.7734375,-0.7421875 -0.2539062,-0.46875 -0.2539062,-1.0625 0,-0.5859375 0.2539062,-1.046875 0.2578125,-0.4648438 0.7734375,-0.7265625 0.515625,-0.265625 1.25,-0.265625 0.484375,0 0.9335938,0.2109375 0.453125,0.2070312 0.7421875,0.6835937 0.2929684,0.4726563 0.2929684,1.2226563 z M 8.7581248,-2.34375 q 0,-0.3828125 -0.1914062,-0.609375 -0.1875,-0.2304688 -0.5429688,-0.2304688 -0.3515625,0 -0.5703125,0.234375 Q 7.2385936,-2.71875 7.2385936,-2.34375 Z m 4.8010932,1.1835938 q 0,0.54687495 -0.402343,0.89062495 -0.398438,0.33984375 -1.1875,0.33984375 -0.441407,0 -0.785157,-0.078125 -0.34375,-0.08203125 -0.75,-0.23046875 V -1.2382812 q 0.355469,0.203125 0.617188,0.3085937 0.261719,0.10546875 0.574219,0.10546875 0.527343,0 0.527343,-0.28906245 0,-0.097656 -0.07813,-0.171875 -0.07422,-0.078125 -0.265625,-0.171875 -0.1875,-0.097656 -0.503906,-0.2304688 -0.390625,-0.171875 -0.664062,-0.4609375 -0.273438,-0.2890625 -0.273438,-0.7070313 0,-0.296875 0.179688,-0.5703125 0.183593,-0.2734375 0.550781,-0.4453125 0.367187,-0.1757812 0.886719,-0.1757812 0.125,0 0.316406,0.019531 0.195312,0.015625 0.488281,0.089844 0.296875,0.074219 0.5625,0.2109375 v 0.9726562 q -0.125,-0.074219 -0.210937,-0.125 -0.08203,-0.050781 -0.222657,-0.1132812 -0.140625,-0.0625 -0.332031,-0.109375 -0.1875,-0.050781 -0.386719,-0.050781 -0.242187,0 -0.332031,0.09375 -0.08984,0.09375 -0.08984,0.1875 0,0.097656 0.09375,0.1835938 0.09375,0.082031 0.417969,0.2070312 0.46875,0.1796875 0.75,0.3710938 0.28125,0.1875 0.398438,0.4140625 0.121093,0.2265625 0.121093,0.5351563 z m 4.519844,-0.4882813 h -2.800781 q 0.08203,0.3632813 0.402344,0.59375 0.320312,0.23046875 0.726562,0.23046875 0.710938,0 1.570313,-0.39843745 v 0.8710937 q -0.308594,0.16015625 -0.75,0.29296875 -0.4375,0.12890625 -1.117188,0.12890625 -0.734375,0 -1.25,-0.2734375 -0.515625,-0.2734375 -0.773437,-0.7421875 -0.253906,-0.46875 -0.253906,-1.0625 0,-0.5859375 0.253906,-1.046875 0.257812,-0.4648438 0.773437,-0.7265625 0.515625,-0.265625 1.25,-0.265625 0.484375,0 0.933594,0.2109375 0.453125,0.2070312 0.742188,0.6835937 0.292968,0.4726563 0.292968,1.2226563 z M 16.75875,-2.34375 q 0,-0.3828125 -0.191406,-0.609375 -0.1875,-0.2304688 -0.542969,-0.2304688 -0.351563,0 -0.570313,0.234375 -0.214843,0.2304688 -0.214843,0.6054688 z m 4.828437,2.11328125 q -0.21875,0.10546875 -0.605469,0.203125 -0.382812,0.09765625 -0.734375,0.09765625 -1.519531,0 -1.519531,-1.484375 V -3 h -0.636719 v -0.2460938 l 1.886719,-1.9218749 h 0.160156 v 1.1914062 h 1.34375 V -3 h -1.34375 v 1.2734375 q 0,0.2226563 0.02734,0.359375 0.02734,0.1367188 0.152344,0.2304688 0.128906,0.089844 0.386718,0.089844 0.335938,0 0.882813,-0.28125 z"
       id="text10"
       style="font-weight:700;font-size:8px;font-family:GillSans-Bold, 'Gill Sans';letter-spacing:-0.04em"
       transform="matrix(0.88,0,0,1,22.48,193.06)"
       aria-label="Reset" />
    <path
       style="font-size:7.50467px;font-family:'Gill Sans';-inkscape-font-specification:'Gill Sans, Normal';letter-spacing:-0.04em;stroke-width:0.938083"
       d="m 104.29202,39.414264 -0.55699,-0.337124 q -0.52401,-0.318802 -0.74753,-0.626611 -0.21987,-0.311473 -0.21987,-0.714556 0,-0.604624 0.41774,-0.982056 0.42141,-0.377433 1.09199,-0.377433 0.64127,0 1.17627,0.359111 v 0.831816 q -0.55332,-0.531336 -1.19093,-0.531336 -0.35911,0 -0.58996,0.168562 -0.23086,0.164897 -0.23086,0.425069 0,0.230856 0.16856,0.432398 0.16856,0.201541 0.546,0.421405 l 0.56065,0.329795 q 0.93808,0.556987 0.93808,1.421783 0,0.615617 -0.41407,1.000378 -0.41042,0.384761 -1.07001,0.384761 -0.75853,0 -1.38147,-0.465377 v -0.930755 q 0.59363,0.7512 1.37414,0.7512 0.34446,0 0.57165,-0.190549 0.23086,-0.194212 0.23086,-0.483699 0,-0.469042 -0.67425,-0.886782 z m 1.79218,-2.971821 h 0.66692 v 5.119153 h -0.66692 z m 2.9428,1.740586 q 0.76952,0 1.27887,0.498357 0.50935,0.494692 0.50935,1.245892 0,0.729214 -0.51668,1.212913 -0.51668,0.480035 -1.30086,0.480035 -0.75853,0 -1.26788,-0.487364 -0.50935,-0.491028 -0.50935,-1.223906 0,-0.740207 0.51302,-1.231235 0.51668,-0.494692 1.29353,-0.494692 z m -0.0366,0.60096 q -0.48003,0 -0.78784,0.315137 -0.30781,0.315138 -0.30781,0.802501 0,0.4837 0.31514,0.791509 0.31513,0.304144 0.80983,0.304144 0.49103,0 0.8025,-0.307809 0.31514,-0.311473 0.31514,-0.795172 0,-0.480035 -0.32613,-0.795173 -0.32614,-0.315137 -0.82083,-0.315137 z m 6.40198,-0.593632 h 0.71456 l -1.48774,3.429869 h -0.20887 l -1.00038,-2.348874 -0.98206,2.348874 h -0.2162 l -1.5024,-3.429869 h 0.71456 l 0.88312,2.04473 0.85746,-2.04473 h 0.4947 l 0.8538,2.04473 z"
       id="text10-2"
       transform="scale(0.93808314,1.0660036)"
       aria-label="Slow" />
    <path
       style="font-size:7.50467px;font-family:'Gill Sans';-inkscape-font-specification:'Gill Sans, Normal';letter-spacing:-0.04em;stroke-width:0.938083"
       d="m 104.01622,62.533306 h 2.72998 v 0.652261 h -1.9971 v 1.429112 h 1.9971 v 0.652261 h -1.9971 v 2.385518 h -0.73288 z m 5.24038,3.092745 v 1.432776 q 0,0.172226 0.11726,0.172226 0.12092,0 0.37743,-0.179555 v 0.406748 q -0.22719,0.146575 -0.36644,0.197877 -0.13558,0.05497 -0.28582,0.05497 -0.42874,0 -0.50569,-0.337123 -0.42507,0.329795 -0.9051,0.329795 -0.35179,0 -0.58631,-0.230857 -0.23452,-0.234521 -0.23452,-0.586302 0,-0.318802 0.2272,-0.567981 0.23085,-0.252843 0.65226,-0.399418 l 0.8538,-0.293151 v -0.179555 q 0,-0.608289 -0.60829,-0.608289 -0.54599,0 -1.06267,0.564316 v -0.729214 q 0.38842,-0.458048 1.11764,-0.458048 0.54599,0 0.87579,0.285822 0.10993,0.09161 0.19787,0.245514 0.088,0.15024 0.10993,0.304144 0.0257,0.15024 0.0257,0.57531 z m -0.65593,1.359488 v -1.000378 l -0.44706,0.172226 q -0.34078,0.135583 -0.4837,0.274829 -0.13924,0.135583 -0.13924,0.340789 0,0.20887 0.13192,0.340788 0.13558,0.131918 0.34811,0.131918 0.3188,0 0.58997,-0.260172 z m 1.2755,0.425069 v -0.71822 q 0.28216,0.197877 0.57531,0.322466 0.29681,0.120925 0.49836,0.120925 0.20887,0 0.35911,-0.102603 0.15024,-0.102603 0.15024,-0.245514 0,-0.146575 -0.0989,-0.24185 -0.0953,-0.09894 -0.41774,-0.282158 -0.64494,-0.35911 -0.84648,-0.611953 -0.19787,-0.256507 -0.19787,-0.556987 0,-0.388425 0.30048,-0.633939 0.30414,-0.245514 0.78051,-0.245514 0.49469,0 1.01504,0.278493 v 0.65959 q -0.59363,-0.35911 -0.97107,-0.35911 -0.19421,0 -0.31513,0.08428 -0.11726,0.08062 -0.11726,0.216199 0,0.117261 0.10626,0.223528 0.10994,0.106267 0.3811,0.256507 l 0.23819,0.135583 q 0.8428,0.47637 0.8428,1.055344 0,0.414076 -0.32613,0.681576 -0.32246,0.263836 -0.83181,0.263836 -0.30048,0 -0.535,-0.06229 -0.23452,-0.06596 -0.58997,-0.238186 z m 2.27954,-2.594387 1.25323,-1.231235 v 0.696234 h 1.06633 v 0.60096 h -1.06633 v 1.652639 q 0,0.578974 0.48003,0.578974 0.35911,0 0.75853,-0.24185 v 0.622946 q -0.38476,0.216199 -0.83915,0.216199 -0.45804,0 -0.76219,-0.2675 -0.0953,-0.08062 -0.15757,-0.179555 -0.0623,-0.102603 -0.10627,-0.263836 -0.0403,-0.164898 -0.0403,-0.622946 V 64.88218 h -0.58631 z"
       id="text10-2-2"
       transform="scale(0.93808314,1.0660036)"
       aria-label="Fast" />
    <path
       d="M 2.3203125,0 H 0.6875 v -5.4140625 h 1.6328125 z m 5.0628126,0 h -1.40625 v -2.1445313 q 0,-0.328125 -0.109375,-0.5703125 -0.1054688,-0.2460937 -0.46875,-0.2460937 -0.171875,0 -0.3046875,0.066406 -0.1289063,0.0625 -0.234375,0.1640625 -0.1015625,0.1015625 -0.171875,0.1953125 -0.070312,0.09375 -0.1445313,0.1992188 V 0 h -1.40625 v -3.9765625 h 1.40625 V -3.40625 q 0.3320313,-0.3554688 0.6640625,-0.4960938 0.3359375,-0.1445312 0.7460938,-0.1445312 1.4296875,0 1.4296875,1.7109375 z M 12.098281,-3.9765625 10.289688,0 H 9.2506251 L 7.4810939,-3.9765625 h 1.5117187 l 0.8242188,2.0820313 0.9140626,-2.0820313 z m 6.223282,2.4023438 q 0,0.5078125 -0.261719,0.8789062 -0.257812,0.37109375 -0.722656,0.5703125 -0.464844,0.1953125 -1.066406,0.1953125 -0.167969,0 -0.414063,-0.0234375 Q 15.614532,0.02734375 15.208282,-0.0703125 14.805938,-0.16796875 14.368438,-0.359375 V -1.6875 q 0.410156,0.2539063 0.804687,0.421875 0.398438,0.1679688 0.851563,0.1679688 0.417969,0 0.539062,-0.1367188 0.125,-0.140625 0.125,-0.2617187 0,-0.21875 -0.210937,-0.3671875 -0.210938,-0.1523438 -0.613281,-0.3125001 -0.445313,-0.1875 -0.78125,-0.40625 Q 14.747344,-2.8046875 14.5325,-3.1367188 14.321563,-3.46875 14.321563,-3.921875 q 0,-0.4375 0.214844,-0.7890625 0.214843,-0.3554687 0.65625,-0.5664062 0.441406,-0.2109375 1.078125,-0.2109375 0.453125,0 0.835937,0.089844 0.386719,0.085937 0.636719,0.1953125 0.25,0.109375 0.34375,0.171875 v 1.2695312 Q 17.755157,-4 17.345,-4.1875 16.93875,-4.375 16.473907,-4.375 q -0.304688,0 -0.441407,0.1171875 -0.136718,0.1171875 -0.136718,0.2890625 0,0.1601562 0.136718,0.2773437 0.136719,0.1171875 0.488282,0.2851563 0.625,0.2929687 1,0.5273437 0.375,0.234375 0.585937,0.5429688 0.214844,0.3046875 0.214844,0.7617188 z m 4.683905,1.37499995 q -0.308593,0.12109375 -0.570312,0.1953125 -0.261719,0.07421875 -0.628906,0.07421875 -0.347657,0 -0.484375,-0.12109375 -0.136719,-0.125 -0.195313,-0.30078125 -0.226562,0.18359375 -0.503906,0.3046875 -0.277344,0.1171875 -0.726563,0.1171875 -0.433593,0 -0.703125,-0.1484375 -0.265625,-0.15234375 -0.375,-0.37890625 Q 18.7125,-0.6875 18.7125,-0.9296875 q 0,-0.3671875 0.183593,-0.6054687 0.1875,-0.2421875 0.5,-0.3945313 0.3125,-0.1523438 0.828125,-0.3164063 0.292969,-0.09375 0.441407,-0.140625 0.152343,-0.050781 0.226562,-0.078125 0.07422,-0.027344 0.15625,-0.070312 0,-0.2890625 -0.117187,-0.453125 -0.117188,-0.1640625 -0.507813,-0.1640625 -0.460937,0 -0.855469,0.203125 -0.394531,0.203125 -0.722656,0.5234375 v -1.078125 q 0.261719,-0.1875 0.566406,-0.3046875 0.304688,-0.1210937 0.636719,-0.1796875 0.332031,-0.058594 0.671875,-0.058594 0.863281,0 1.296875,0.3359375 0.4375,0.3320312 0.4375,0.9179687 v 1.5351563 q 0,0.21875 0.03906,0.328125 0.04297,0.10546875 0.152343,0.10546875 0.132813,0 0.359375,-0.11328125 z M 21.048437,-0.9609375 v -0.9414062 q -0.5,0.203125 -0.730469,0.3671875 -0.230468,0.1601562 -0.230468,0.4375 0,0.1992187 0.113281,0.30468745 0.117187,0.10546875 0.269531,0.10546875 0.144531,0 0.285156,-0.078125 Q 20.9,-0.84765625 21.048437,-0.9609375 Z M 29.568281,-3.9765625 27.997969,0 H 27.11125 L 26.224531,-2.1679688 25.341719,0 H 24.455 l -1.609375,-3.9765625 h 1.425781 l 0.726563,2.0078125 0.777343,-2.0078125 h 0.894532 L 27.455,-1.96875 28.158125,-3.9765625 Z"
       id="text11"
       style="font-weight:700;font-size:8px;font-family:GillSans-Bold, 'Gill Sans';letter-spacing:-0.04em;fill:#ffffff"
       transform="matrix(0.88,0,0,1,19.11,289.81)"
       aria-label="Inv Saw" />
    <path
       d="m 4.4648437,-1.5742187 q 0,0.5078125 -0.2617187,0.8789062 Q 3.9453125,-0.32421875 3.4804688,-0.125 3.015625,0.0703125 2.4140625,0.0703125 2.2460938,0.0703125 2,0.046875 1.7578125,0.02734375 1.3515625,-0.0703125 0.94921875,-0.16796875 0.51171875,-0.359375 V -1.6875 q 0.41015625,0.2539063 0.80468745,0.421875 0.3984375,0.1679688 0.8515626,0.1679688 0.4179687,0 0.5390625,-0.1367188 0.125,-0.140625 0.125,-0.2617187 0,-0.21875 -0.2109375,-0.3671875 Q 2.4101563,-2.015625 2.0078125,-2.1757813 1.5625,-2.3632813 1.2265625,-2.5820313 0.890625,-2.8046875 0.67578125,-3.1367188 0.46484375,-3.46875 0.46484375,-3.921875 q 0,-0.4375 0.21484375,-0.7890625 0.21484375,-0.3554687 0.65625,-0.5664062 0.4414062,-0.2109375 1.078125,-0.2109375 0.453125,0 0.8359375,0.089844 0.3867188,0.085937 0.6367188,0.1953125 0.2499999,0.109375 0.3437499,0.171875 v 1.2695312 Q 3.8984375,-4 3.4882813,-4.1875 3.0820313,-4.375 2.6171875,-4.375 2.3125,-4.375 2.1757813,-4.2578125 2.0390625,-4.140625 2.0390625,-3.96875 q 0,0.1601562 0.1367188,0.2773437 0.1367187,0.1171875 0.4882812,0.2851563 0.625,0.2929687 1,0.5273437 0.375,0.234375 0.5859375,0.5429688 0.2148437,0.3046875 0.2148437,0.7617188 z m 4.6839061,1.37499995 Q 8.8401561,-0.078125 8.5784373,-0.00390625 8.3167186,0.0703125 7.9495311,0.0703125 q -0.3476563,0 -0.484375,-0.12109375 -0.1367188,-0.125 -0.1953125,-0.30078125 -0.2265625,0.18359375 -0.5039063,0.3046875 -0.2773437,0.1171875 -0.7265625,0.1171875 -0.4335937,0 -0.703125,-0.1484375 -0.265625,-0.15234375 -0.375,-0.37890625 Q 4.8557811,-0.6875 4.8557811,-0.9296875 q 0,-0.3671875 0.1835937,-0.6054687 0.1875,-0.2421875 0.5,-0.3945313 0.3125,-0.1523438 0.828125,-0.3164063 0.2929688,-0.09375 0.4414063,-0.140625 0.1523437,-0.050781 0.2265625,-0.078125 0.074219,-0.027344 0.15625,-0.070312 0,-0.2890625 -0.1171875,-0.453125 -0.1171875,-0.1640625 -0.5078125,-0.1640625 -0.4609375,0 -0.8554688,0.203125 -0.3945312,0.203125 -0.7226562,0.5234375 v -1.078125 q 0.2617187,-0.1875 0.5664062,-0.3046875 0.3046875,-0.1210937 0.6367188,-0.1796875 0.3320312,-0.058594 0.671875,-0.058594 0.8632812,0 1.296875,0.3359375 0.4375,0.3320312 0.4375,0.9179687 v 1.5351563 q 0,0.21875 0.039063,0.328125 0.042969,0.10546875 0.1523437,0.10546875 0.1328125,0 0.359375,-0.11328125 z M 7.1917186,-0.9609375 v -0.9414062 q -0.5,0.203125 -0.7304688,0.3671875 -0.2304687,0.1601562 -0.2304687,0.4375 0,0.1992187 0.1132812,0.30468745 Q 6.4612498,-0.6875 6.6135936,-0.6875 q 0.1445312,0 0.2851562,-0.078125 0.1445313,-0.0820313 0.2929688,-0.1953125 z M 15.711562,-3.9765625 14.14125,0 H 13.254531 L 12.367812,-2.1679688 11.485,0 H 10.598281 L 8.9889059,-3.9765625 h 1.4257811 l 0.726563,2.0078125 0.777343,-2.0078125 h 0.894532 l 0.785156,2.0078125 0.703125,-2.0078125 z"
       id="text12"
       style="font-weight:700;font-size:8px;font-family:GillSans-Bold, 'Gill Sans';letter-spacing:-0.04em;fill:#ffffff"
       transform="matrix(0.88,0,0,1,25.21,337.06)"
       aria-label="Saw" />
    <g
       id="g32">
      <path
         d="m 6.7089844,-4.6386719 q 0,0.3759766 -0.131836,0.7373047 -0.1269531,0.3564453 -0.415039,0.6689453 -0.288086,0.3076172 -0.78125,0.5029297 -0.4882813,0.1904297 -1.1523438,0.1904297 H 2.890625 V 0 H 0.84960938 V -6.7675781 H 4.2285156 q 0.6640625,0 1.1523438,0.1953125 0.493164,0.1953125 0.78125,0.5078125 0.2880859,0.3125 0.415039,0.6787109 0.131836,0.366211 0.131836,0.7470703 z m -2.0800782,0.00977 q 0,-0.4833985 -0.2880859,-0.6591797 Q 4.0576172,-5.46875 3.3203125,-5.46875 H 2.890625 v 1.6308594 h 0.4394531 q 0.5078125,0 0.78125,-0.063477 0.2734375,-0.063477 0.3955078,-0.234375 0.1220703,-0.1708984 0.1220703,-0.493164 z M 12.461328,0 h -1.757812 v -2.578125 q 0,-0.029297 0,-0.053711 0.0049,-0.029297 0.0049,-0.1171875 0,-0.3564454 -0.151367,-0.6542969 -0.151367,-0.2978516 -0.5761717,-0.2978516 -0.3320313,0 -0.5859375,0.2246094 Q 9.1410335,-3.256836 8.9115413,-2.919922 V 0 H 7.1537108 v -6.7675781 h 1.7578125 v 2.5097656 q 0.4345704,-0.4638672 0.859375,-0.6298828 0.4248047,-0.1708984 0.9033207,-0.1708984 1.787109,0 1.787109,2.0068359 z m 5.810937,-0.24902344 q -0.385742,0.15136719 -0.71289,0.24414063 -0.327149,0.09277343 -0.786133,0.09277343 -0.43457,0 -0.605469,-0.15136718 -0.170898,-0.15625 -0.24414,-0.37597657 -0.283204,0.22949219 -0.629883,0.38085938 -0.34668,0.14648437 -0.908203,0.14648437 -0.541993,0 -0.878907,-0.18554687 -0.332031,-0.19042969 -0.46875,-0.47363281 -0.131836,-0.28808594 -0.131836,-0.59082034 0,-0.4589843 0.229493,-0.7568359 0.234375,-0.3027344 0.625,-0.4931641 0.390625,-0.1904297 1.035156,-0.3955078 0.366211,-0.1171875 0.551758,-0.1757812 0.190429,-0.063477 0.283203,-0.097656 0.09277,-0.03418 0.195312,-0.087891 0,-0.3613281 -0.146484,-0.5664063 -0.146484,-0.2050781 -0.634766,-0.2050781 -0.576172,0 -1.069336,0.2539063 -0.493164,0.2539062 -0.90332,0.6542968 v -1.3476562 q 0.327149,-0.234375 0.708008,-0.3808594 0.380859,-0.1513672 0.795898,-0.2246094 0.415039,-0.073242 0.839844,-0.073242 1.079102,0 1.621094,0.4199218 0.546875,0.4150391 0.546875,1.147461 v 1.9189453 q 0,0.2734375 0.04883,0.4101562 0.05371,0.131836 0.19043,0.131836 0.166015,0 0.449218,-0.1416016 z M 15.825976,-1.2011719 v -1.1767578 q -0.625,0.2539063 -0.913086,0.4589844 -0.288086,0.2001953 -0.288086,0.546875 0,0.2490234 0.141602,0.38085936 0.146484,0.13183594 0.336914,0.13183594 0.180664,0 0.356445,-0.0976563 0.180664,-0.1025391 0.366211,-0.2441406 z m 6.484765,-0.2490234 q 0,0.68359374 -0.502929,1.11328124 -0.498047,0.42480468 -1.484375,0.42480468 -0.551758,0 -0.981446,-0.09765625 -0.429687,-0.10253906 -0.9375,-0.28808593 V -1.5478516 q 0.444336,0.2539063 0.771485,0.3857422 0.327148,0.131836 0.717773,0.131836 0.65918,0 0.65918,-0.3613282 0,-0.1220703 -0.09766,-0.2148437 -0.09277,-0.097656 -0.332032,-0.2148438 -0.234375,-0.1220703 -0.629882,-0.2880859 -0.488282,-0.2148438 -0.830079,-0.5761719 -0.341796,-0.3613281 -0.341796,-0.883789 0,-0.3710938 0.224609,-0.7128907 0.229492,-0.3417968 0.688477,-0.5566406 0.458984,-0.2197265 1.108398,-0.2197265 0.15625,0 0.395508,0.024414 0.24414,0.019531 0.610351,0.1123047 0.371094,0.092773 0.703125,0.2636719 v 1.2158203 q -0.15625,-0.092774 -0.263672,-0.15625 -0.102539,-0.063477 -0.27832,-0.1416016 -0.175781,-0.078125 -0.415039,-0.1367187 -0.234375,-0.063477 -0.483398,-0.063477 -0.302735,0 -0.415039,0.1171875 -0.112305,0.1171875 -0.112305,0.234375 0,0.1220703 0.117187,0.2294922 0.117188,0.1025391 0.522461,0.2587891 0.585938,0.2246093 0.9375,0.4638671 0.351563,0.234375 0.498047,0.5175782 0.151367,0.2832031 0.151367,0.6689453 z m 5.649805,-0.6103516 H 24.45957 q 0.102539,0.4541016 0.50293,0.7421875 0.40039,0.288086 0.908203,0.288086 0.888672,0 1.96289,-0.4980469 v 1.08886717 q -0.385742,0.20019532 -0.9375,0.36621094 -0.546875,0.16113281 -1.396484,0.16113281 -0.917969,0 -1.5625,-0.34179687 -0.644531,-0.34179687 -0.966797,-0.92773435 -0.317383,-0.5859375 -0.317383,-1.328125 0,-0.7324219 0.317383,-1.3085938 0.322266,-0.5810547 0.966797,-0.9082031 0.644531,-0.3320312 1.5625,-0.3320312 0.605469,0 1.166992,0.2636718 0.566406,0.2587891 0.927735,0.8544922 0.36621,0.5908203 0.36621,1.5283203 z m -1.65039,-0.8691406 q 0,-0.4785156 -0.239258,-0.7617188 -0.234375,-0.2880859 -0.678711,-0.2880859 -0.439453,0 -0.712891,0.2929688 -0.268554,0.2880859 -0.268554,0.7568359 z"
         id="text13"
         style="font-weight:700;font-size:10px;font-family:GillSans-Bold, 'Gill Sans';letter-spacing:-0.04em"
         transform="matrix(0.88,0,0,1,19.41,147.11)"
         aria-label="Phase" />
      <path
         d="m 40.95,102.18 1.13,-1.95 c -2.75,-1.43 -5.84,-2.3 -9.12,-2.44 v 2.26 c 2.87,0.14 5.57,0.89 7.99,2.14 z"
         style="fill:#000000;stroke-width:0px"
         id="path13" />
      <path
         d="m 48.54,109.04 1.95,-1.13 c -1.72,-2.68 -4,-4.96 -6.68,-6.68 l -1.13,1.95 c 2.34,1.52 4.33,3.51 5.85,5.85 z"
         style="fill:#000000;stroke-width:0px"
         id="path14" />
      <path
         d="m 21.23,103.18 -1.13,-1.95 c -2.68,1.72 -4.96,4 -6.68,6.68 l 1.95,1.13 c 1.52,-2.34 3.51,-4.33 5.85,-5.85 z"
         style="fill:#000000;stroke-width:0px"
         id="path15" />
      <path
         d="m 51.68,118.76 h 2.26 c -0.15,-3.28 -1.01,-6.37 -2.44,-9.12 l -1.95,1.13 c 1.24,2.42 1.99,5.13 2.14,8 z"
         style="fill:#000000;stroke-width:0px"
         id="path16" />
      <path
         d="m 30.96,100.05 v -2.26 c -3.28,0.15 -6.37,1.01 -9.12,2.44 l 1.13,1.95 c 2.42,-1.24 5.13,-1.99 8,-2.14 z"
         style="fill:#000000;stroke-width:0px"
         id="path17" />
      <path
         d="m 15.38,130.49 -1.95,1.13 c 1.72,2.68 4,4.96 6.68,6.68 l 1.13,-1.95 c -2.34,-1.52 -4.33,-3.51 -5.85,-5.85 z"
         style="fill:#000000;stroke-width:0px"
         id="path18" />
      <path
         d="m 42.69,136.34 1.13,1.95 c 2.68,-1.72 4.96,-4 6.68,-6.68 l -1.95,-1.13 c -1.52,2.34 -3.51,4.33 -5.85,5.85 z"
         style="fill:#000000;stroke-width:0px"
         id="path19" />
      <path
         d="m 51.68,120.76 c -0.14,2.87 -0.89,5.57 -2.14,8 l 1.95,1.13 c 1.43,-2.75 2.3,-5.84 2.44,-9.12 h -2.26 z"
         style="fill:#000000;stroke-width:0px"
         id="path20" />
      <path
         d="M 12.24,120.76 H 9.98 c 0.15,3.28 1.01,6.37 2.44,9.12 l 1.95,-1.13 c -1.24,-2.42 -1.99,-5.13 -2.14,-8 z"
         style="fill:#000000;stroke-width:0px"
         id="path21" />
      <path
         d="m 14.38,110.77 -1.95,-1.13 c -1.43,2.75 -2.3,5.84 -2.44,9.12 h 2.26 c 0.14,-2.87 0.89,-5.57 2.14,-8 z"
         style="fill:#000000;stroke-width:0px"
         id="path22" />
      <path
         d="m 6.7089844,-4.6386719 q 0,0.3759766 -0.131836,0.7373047 -0.1269531,0.3564453 -0.415039,0.6689453 -0.288086,0.3076172 -0.78125,0.5029297 -0.4882813,0.1904297 -1.1523438,0.1904297 H 2.890625 V 0 H 0.84960938 V -6.7675781 H 4.2285156 q 0.6640625,0 1.1523438,0.1953125 0.493164,0.1953125 0.78125,0.5078125 0.2880859,0.3125 0.415039,0.6787109 0.131836,0.366211 0.131836,0.7470703 z m -2.0800782,0.00977 q 0,-0.4833985 -0.2880859,-0.6591797 Q 4.0576172,-5.46875 3.3203125,-5.46875 H 2.890625 v 1.6308594 h 0.4394531 q 0.5078125,0 0.78125,-0.063477 0.2734375,-0.063477 0.3955078,-0.234375 0.1220703,-0.1708984 0.1220703,-0.493164 z M 18.403711,-6.7675781 15.474023,0.08789062 h -1.18164 L 12.53457,-3.9013672 10.732812,0.08789062 H 9.5414062 L 6.6703124,-6.7675781 h 2.1142578 l 1.4062498,3.75 1.611328,-3.75 h 1.459961 l 1.582032,3.75 1.469726,-3.75 z"
         id="text22"
         style="font-weight:700;font-size:10px;font-family:GillSans-Bold, 'Gill Sans';letter-spacing:-0.04em"
         transform="matrix(0.88,0,0,1,75.24,147.11)"
         aria-label="PW" />
      <path
         d="m 92.49,102.18 1.13,-1.95 C 90.87,98.8 87.78,97.93 84.5,97.79 v 2.26 c 2.87,0.14 5.57,0.89 7.99,2.14 z"
         style="fill:#000000;stroke-width:0px"
         id="path23" />
      <path
         d="m 100.07,109.04 1.95,-1.13 c -1.72,-2.68 -4,-4.96 -6.68,-6.68 l -1.13,1.95 c 2.34,1.52 4.33,3.51 5.85,5.85 z"
         style="fill:#000000;stroke-width:0px"
         id="path24" />
      <path
         d="m 72.76,103.18 -1.13,-1.95 c -2.68,1.72 -4.96,4 -6.68,6.68 l 1.95,1.13 c 1.52,-2.34 3.51,-4.33 5.85,-5.85 z"
         style="fill:#000000;stroke-width:0px"
         id="path25" />
      <path
         d="m 103.21,118.76 h 2.26 c -0.15,-3.28 -1.01,-6.37 -2.44,-9.12 l -1.95,1.13 c 1.24,2.42 1.99,5.13 2.14,8 z"
         style="fill:#000000;stroke-width:0px"
         id="path26" />
      <path
         d="m 82.49,100.05 v -2.26 c -3.28,0.15 -6.37,1.01 -9.12,2.44 l 1.13,1.95 c 2.42,-1.24 5.13,-1.99 8,-2.14 z"
         style="fill:#000000;stroke-width:0px"
         id="path27" />
      <path
         d="m 66.91,130.49 -1.95,1.13 c 1.72,2.68 4,4.96 6.68,6.68 l 1.13,-1.95 c -2.34,-1.52 -4.33,-3.51 -5.85,-5.85 z"
         style="fill:#000000;stroke-width:0px"
         id="path28" />
      <path
         d="m 94.22,136.34 1.13,1.95 c 2.68,-1.72 4.96,-4 6.68,-6.68 l -1.95,-1.13 c -1.52,2.34 -3.51,4.33 -5.85,5.85 z"
         style="fill:#000000;stroke-width:0px"
         id="path29" />
      <path
         d="m 103.21,120.76 c -0.14,2.87 -0.89,5.57 -2.14,8 l 1.95,1.13 c 1.43,-2.75 2.3,-5.84 2.44,-9.12 h -2.26 z"
         style="fill:#000000;stroke-width:0px"
         id="path30" />
      <path
         d="m 63.77,120.76 h -2.26 c 0.15,3.28 1.01,6.37 2.44,9.12 l 1.95,-1.13 c -1.24,-2.42 -1.99,-5.13 -2.14,-8 z"
         style="fill:#000000;stroke-width:0px"
         id="path31" />
      <path
         d="m 65.91,110.77 -1.95,-1.13 c -1.43,2.75 -2.3,5.84 -2.44,9.12 h 2.26 c 0.14,-2.87 0.89,-5.57 2.14,-8 z"
         style="fill:#000000;stroke-width:0px"
         id="path32" />
    </g>
    <g
       id="g35">
      <path
         d="m 49.47,18.19 c -0.37,0 -0.71,-0.17 -0.97,-0.47 -0.51,-0.6 -0.52,-1.54 -0.04,-2.16 L 55.43,6.68 C 55.81,6.2 56.48,6.03 57,6.29 c 0.5,0.25 0.79,0.82 0.79,1.45 v 4.77 l 4.64,-5.85 c 0.38,-0.48 1.01,-0.64 1.53,-0.38 0.5,0.25 0.83,0.81 0.83,1.44 v 8.82 c 0,0.86 -0.61,1.57 -1.36,1.57 -0.75,0 -1.36,-0.7 -1.36,-1.57 v -4.79 l -4.64,5.85 c -0.38,0.48 -1.01,0.64 -1.54,0.38 -0.5,-0.24 -0.83,-0.81 -0.83,-1.44 v -4.67 l -4.61,5.8 c -0.26,0.32 -0.62,0.51 -1,0.51 v 0 z"
         style="fill:#2cabe1;stroke-width:0px"
         id="path33" />
      <path
         d="m 49.47,18.19 c -0.75,0 -1.35,-0.7 -1.35,-1.57 v -4.93 l -2.26,2.84 c -0.5,0.63 -1.44,0.65 -1.97,0.04 -0.51,-0.6 -0.52,-1.53 -0.03,-2.15 l 4.61,-5.76 c 0.26,-0.32 0.63,-0.5 1,-0.5 0.18,0 0.37,0.04 0.54,0.12 0.5,0.25 0.82,0.81 0.82,1.44 v 8.89 c 0,0.86 -0.61,1.57 -1.36,1.57 v 0 z"
         style="fill:#ea2228;stroke-width:0px"
         id="path34" />
      <path
         d="m 66.07,18.21 v 0 c -0.35,0 -0.68,-0.15 -0.94,-0.42 -0.76,-0.78 -0.14,-1.84 0.29,-2.3 l 1.95,-2.36 -1.26,-0.02 c -0.56,-0.01 -1.04,-0.4 -1.24,-1 -0.19,-0.56 -0.07,-1.21 0.29,-1.64 l 3.16,-3.83 c 0.23,-0.28 0.55,-0.48 1.13,-0.47 0.33,0 0.67,0.17 0.92,0.4 0.71,0.66 0.29,1.7 -0.07,2.2 l -1.04,1.26 1.26,0.02 c 0.56,0.01 1.04,0.4 1.24,1 0.19,0.56 0.07,1.21 -0.29,1.64 l -4.1,4.97 c -0.35,0.35 -0.65,0.55 -1.3,0.54 v 0 z"
         style="fill:#00a650;stroke-width:0px"
         id="path35" />
    </g>
  </g>
  <g
     id="g1"
     transform="translate(0.00474072,0.005)" />
</svg>
