<svg xmlns="http://www.w3.org/2000/svg" width="20.41mm" height="130.6mm" viewBox="0 0 57.85 370.19">
  <g id="faceplate">
    <rect x="0.13" y="0.13" width="57.6" height="364.25" style="fill: #ededed;stroke: #9d9d9e;stroke-miterlimit: 10;stroke-width: 0.25px" />
    <g>
      <path d="M26.77,357.11H25.14L22,353v4.15H20.15v-7.45h1.63l3.16,4.13v-4.13h1.83Z" />
      <path d="M32.58,354.94a2.34,2.34,0,0,1-.3,1.21,1.93,1.93,0,0,1-.82.78,2.56,2.56,0,0,1-1.2.27l-.46,0a4.1,4.1,0,0,1-.73-.16,4.72,4.72,0,0,1-.95-.4v-1.82a7.24,7.24,0,0,0,.91.58,2.09,2.09,0,0,0,1,.23.78.78,0,0,0,.61-.19.64.64,0,0,0,.13-.36.64.64,0,0,0-.23-.51,2.85,2.85,0,0,0-.7-.42,5.8,5.8,0,0,1-.88-.57,2.46,2.46,0,0,1-.62-.76,2.6,2.6,0,0,1,0-2.16,1.8,1.8,0,0,1,.74-.78,2.38,2.38,0,0,1,1.21-.29,3.58,3.58,0,0,1,.95.12,3.31,3.31,0,0,1,.71.27,2.33,2.33,0,0,1,.39.24v1.74a5.57,5.57,0,0,0-.83-.58,2,2,0,0,0-1-.26.67.67,0,0,0-.5.16.57.57,0,0,0-.15.4A.54.54,0,0,0,30,352a2.74,2.74,0,0,0,.55.39,9,9,0,0,1,1.13.73,2.47,2.47,0,0,1,.67.74A2.09,2.09,0,0,1,32.58,354.94Z" />
      <path d="M38.43,357.11h-4.6v-7.45h4.52v1.5H35.67v1.36h2.56V354H35.67v1.59h2.76Z" />
    </g>
    <path d="M44.73,261.18c0-8.08-7-14.63-15.59-14.63s-15.59,6.55-15.59,14.63v55.1h0v19.85a5.68,5.68,0,0,0,5.67,5.66H39.06a5.68,5.68,0,0,0,5.67-5.66V316.28h0Z" />
    <g>
      <path d="M26.9,284.14l-2.06,5.49H24l-1.24-3.19-1.27,3.19h-.84l-2-5.49h1.49l1,3,1.13-3h1l1.12,3,1-3Z" style="fill: #fff" />
      <path d="M30.81,289.56H29.58v-2.2a1.27,1.27,0,0,0-.11-.52.39.39,0,0,0-.4-.24.54.54,0,0,0-.41.18,1.76,1.76,0,0,0-.34.44v2.34H27.08v-5.42h1.24v2a1.77,1.77,0,0,1,.6-.5,1.53,1.53,0,0,1,.64-.14c.83,0,1.25.54,1.25,1.61Z" style="fill: #fff" />
      <path d="M32.58,289.56H31.34v-4h1.24Zm-.1-4.9a.57.57,0,0,1-.16.42.44.44,0,0,1-.36.17.5.5,0,0,1-.27-.07.67.67,0,0,1-.19-.22.73.73,0,0,1-.06-.3.59.59,0,0,1,.15-.41.46.46,0,0,1,.37-.18.45.45,0,0,1,.36.18A.56.56,0,0,1,32.48,284.66Z" style="fill: #fff" />
      <path d="M35.91,289.33a2.58,2.58,0,0,1-.53.2,2.19,2.19,0,0,1-.65.1c-.89,0-1.34-.5-1.34-1.49v-1.58h-.56v-.25l1.66-1.92h.14v1.19h1.19v1H34.63v1.27a1.73,1.73,0,0,0,0,.36.36.36,0,0,0,.13.23.55.55,0,0,0,.34.09,1.64,1.64,0,0,0,.78-.28Z" style="fill: #fff" />
      <path d="M39.76,287.91H37.29a1,1,0,0,0,.36.59,1,1,0,0,0,.64.23,3.06,3.06,0,0,0,1.38-.39v.87a4.18,4.18,0,0,1-.66.29,3,3,0,0,1-1,.13,2.11,2.11,0,0,1-1.1-.27,1.7,1.7,0,0,1-.68-.75,2.53,2.53,0,0,1,0-2.11,1.58,1.58,0,0,1,.68-.72,2.11,2.11,0,0,1,1.1-.27,1.75,1.75,0,0,1,.82.21,1.65,1.65,0,0,1,.65.68,2.61,2.61,0,0,1,.26,1.23Zm-1.16-.7a1,1,0,0,0-.17-.61.55.55,0,0,0-.48-.22.6.6,0,0,0-.5.23.88.88,0,0,0-.19.6Z" style="fill: #fff" />
    </g>
    <g>
      <path d="M26.37,333.11a1.9,1.9,0,0,1-.09.58,1.61,1.61,0,0,1-.3.54,1.41,1.41,0,0,1-.54.4,2.07,2.07,0,0,1-.82.16h-.94v2H22.24V331.4h2.38a1.91,1.91,0,0,1,.82.16,1.41,1.41,0,0,1,.54.4,1.56,1.56,0,0,1,.3.55A2,2,0,0,1,26.37,333.11Zm-1.46,0a.61.61,0,0,0-.21-.53,1.35,1.35,0,0,0-.72-.14h-.3v1.31H24a2.51,2.51,0,0,0,.55-.05.49.49,0,0,0,.28-.19A.72.72,0,0,0,24.91,333.11Z" style="fill: #fff" />
      <path d="M28,336.82H26.74v-4H28Zm-.1-4.9a.63.63,0,0,1-.16.42.48.48,0,0,1-.37.17.42.42,0,0,1-.26-.08.55.55,0,0,1-.19-.21.73.73,0,0,1-.07-.3.6.6,0,0,1,.16-.42.48.48,0,0,1,.36-.17.48.48,0,0,1,.37.17A.65.65,0,0,1,27.89,331.92Z" style="fill: #fff" />
      <path d="M32.29,336.82H31.06v-2.15a1.61,1.61,0,0,0-.1-.57.39.39,0,0,0-.41-.24.6.6,0,0,0-.27.06.68.68,0,0,0-.21.17,1.25,1.25,0,0,0-.15.19l-.13.2v2.34H28.56v-4h1.23v.57a1.87,1.87,0,0,1,.59-.5,1.55,1.55,0,0,1,.65-.14q1.26,0,1.26,1.71Z" style="fill: #fff" />
      <path d="M36.91,336.82H35.34L34,334.93v1.89H32.75V331.4H34v3.18l1.22-1.74h1.49l-1.37,1.86Z" style="fill: #fff" />
    </g>
    <g>
      <path d="M34.54,6.76l-5.53,7v-6a1.27,1.27,0,0,0-.64-1.17.89.89,0,0,0-1.13.29L20,16.13a1.49,1.49,0,0,0,0,1.79.9.9,0,0,0,1.46,0l5.5-7v6a1.29,1.29,0,0,0,.64,1.18.92.92,0,0,0,1.14-.3l5.53-7v6.15a1.05,1.05,0,1,0,2.06,0V7.64a1.28,1.28,0,0,0-.65-1.18A.91.91,0,0,0,34.54,6.76Z" style="stroke: #000;stroke-width: 0.6000000000000001px" />
      <path d="M20,6.68l-4.81,6.13a1.47,1.47,0,0,0,0,1.79.9.9,0,0,0,1.46,0l3.05-3.87V17a1.17,1.17,0,0,0,1,1.26,1.17,1.17,0,0,0,1-1.26V7.56a1.29,1.29,0,0,0-.65-1.17A.91.91,0,0,0,20,6.68Z" style="stroke: #000;stroke-width: 0.6000000000000001px" />
      <path d="M42.91,11.2a1.05,1.05,0,0,0-.95-.77h-2.1l1.53-1.95s.8-1.17.1-1.82a1.27,1.27,0,0,0-1.58.06l-3.23,4.1a1.45,1.45,0,0,0-.2,1.37,1,1,0,0,0,1,.78h2.1L37,16.14s-1,1.13-.27,1.89,1.75-.14,1.75-.14l4.18-5.31A1.5,1.5,0,0,0,42.91,11.2Z" style="stroke: #000;stroke-width: 0.6000000000000001px" />
    </g>
  </g>
  <g /></svg>