<?xml version="1.0" encoding="UTF-8" standalone="no"?>
<svg
   width="20.409006mm"
   height="128.59262mm"
   viewBox="0 0 57.847183 364.5"
   version="1.1"
   id="svg56"
   sodipodi:docname="Octave_artwork.svg"
   inkscape:version="1.3.2 (091e20e, 2023-11-25)"
   xmlns:inkscape="http://www.inkscape.org/namespaces/inkscape"
   xmlns:sodipodi="http://sodipodi.sourceforge.net/DTD/sodipodi-0.dtd"
   xmlns="http://www.w3.org/2000/svg"
   xmlns:svg="http://www.w3.org/2000/svg">
  <sodipodi:namedview
     id="namedview56"
     pagecolor="#ffffff"
     bordercolor="#000000"
     borderopacity="0.25"
     inkscape:showpageshadow="2"
     inkscape:pageopacity="0.0"
     inkscape:pagecheckerboard="0"
     inkscape:deskcolor="#d1d1d1"
     inkscape:document-units="mm"
     showgrid="false"
     inkscape:zoom="2.4635017"
     inkscape:cx="124.82232"
     inkscape:cy="232.18982"
     inkscape:window-width="2512"
     inkscape:window-height="1387"
     inkscape:window-x="50"
     inkscape:window-y="25"
     inkscape:window-maximized="1"
     inkscape:current-layer="faceplate" />
  <defs
     id="defs2">
    <clipPath
       id="clip-path">
      <rect
         x="15.02"
         y="32.849998"
         width="27.799999"
         height="25.620001"
         style="fill:none"
         id="rect1" />
    </clipPath>
    <clipPath
       id="clip-path-3">
      <rect
         x="15.02"
         y="80.650002"
         width="27.799999"
         height="25.620001"
         style="fill:none"
         id="rect2" />
    </clipPath>
  </defs>
  <g
     id="faceplate"
     transform="translate(-0.00640788,-0.005)">
    <rect
       x="0.13"
       y="0.13"
       width="57.599998"
       height="364.25"
       style="fill:#ededed;stroke:#9d9d9e;stroke-width:0.25px;stroke-miterlimit:10"
       id="rect3" />
    <g
       id="pips_-_fewest"
       data-name="pips - fewest">
      <g
         clip-path="url(#clip-path)"
         id="g13">
        <g
           clip-path="url(#clip-path)"
           id="g12">
          <path
             d="m 34.62,35.63 0.71,-1.24 a 13.86,13.86 0 0 0 -5.77,-1.54 v 1.43 a 12.39,12.39 0 0 1 5.06,1.35"
             id="path3" />
          <path
             d="m 39.41,40 1.24,-0.71 A 14,14 0 0 0 36.42,35 l -0.71,1.23 a 12.55,12.55 0 0 1 3.7,3.7"
             id="path4" />
          <path
             d="M 22.14,36.26 21.43,35 a 14,14 0 0 0 -4.23,4.22 l 1.24,0.71 a 12.55,12.55 0 0 1 3.7,-3.7"
             id="path5" />
          <path
             d="m 41.4,46.12 h 1.43 a 13.83,13.83 0 0 0 -1.55,-5.77 l -1.23,0.71 a 12.47,12.47 0 0 1 1.35,5.06"
             id="path6" />
          <path
             d="m 28.29,34.28 v -1.43 a 13.86,13.86 0 0 0 -5.77,1.54 l 0.71,1.24 a 12.39,12.39 0 0 1 5.06,-1.35"
             id="path7" />
          <path
             d="m 18.44,53.54 -1.24,0.71 a 14,14 0 0 0 4.23,4.22 l 0.71,-1.23 a 12.55,12.55 0 0 1 -3.7,-3.7"
             id="path8" />
          <path
             d="m 35.71,57.24 0.71,1.23 a 14,14 0 0 0 4.23,-4.22 l -1.24,-0.71 a 12.55,12.55 0 0 1 -3.7,3.7"
             id="path9" />
          <path
             d="m 41.4,47.38 a 12.47,12.47 0 0 1 -1.35,5.06 l 1.23,0.71 a 13.83,13.83 0 0 0 1.55,-5.77 z"
             id="path10" />
          <path
             d="M 16.45,47.38 H 15 a 13.83,13.83 0 0 0 1.55,5.77 l 1.23,-0.71 a 12.47,12.47 0 0 1 -1.35,-5.06"
             id="path11" />
          <path
             d="M 17.8,41.06 16.57,40.35 A 13.83,13.83 0 0 0 15,46.12 h 1.43 a 12.47,12.47 0 0 1 1.35,-5.06"
             id="path12" />
        </g>
      </g>
    </g>
    <g
       id="pips_-_fewest-2"
       data-name="pips - fewest" />
    <g
       id="g25">
      <path
         d="m 25.78,353.34 a 4.64,4.64 0 0 1 -0.39,1.92 3.21,3.21 0 0 1 -1.18,1.39 3.69,3.69 0 0 1 -3.81,0 3.26,3.26 0 0 1 -1.16,-1.41 4.55,4.55 0 0 1 -0.39,-1.88 4.66,4.66 0 0 1 0.38,-1.87 3.19,3.19 0 0 1 3.09,-1.94 3.59,3.59 0 0 1 1.5,0.3 3,3 0 0 1 1.09,0.83 3.67,3.67 0 0 1 0.65,1.22 4.69,4.69 0 0 1 0.22,1.44 z m -1.87,0 a 2.63,2.63 0 0 0 -0.11,-0.76 1.69,1.69 0 0 0 -0.3,-0.6 1.39,1.39 0 0 0 -0.5,-0.4 1.65,1.65 0 0 0 -0.68,-0.14 1.42,1.42 0 0 0 -1.17,0.52 2.18,2.18 0 0 0 -0.42,1.38 2.12,2.12 0 0 0 0.43,1.39 1.41,1.41 0 0 0 1.16,0.53 1.53,1.53 0 0 0 0.86,-0.25 1.49,1.49 0 0 0 0.54,-0.67 2.58,2.58 0 0 0 0.19,-1 z"
         id="path23" />
      <path
         d="m 32.39,356.51 a 4.29,4.29 0 0 1 -0.77,0.39 3.94,3.94 0 0 1 -0.8,0.21 5.73,5.73 0 0 1 -0.84,0.06 3.64,3.64 0 0 1 -1.43,-0.27 3,3 0 0 1 -1.09,-0.79 3.55,3.55 0 0 1 -0.7,-1.23 5,5 0 0 1 -0.23,-1.54 4.77,4.77 0 0 1 0.27,-1.68 3.35,3.35 0 0 1 0.77,-1.2 3.23,3.23 0 0 1 1.12,-0.71 3.89,3.89 0 0 1 1.32,-0.22 6,6 0 0 1 2.36,0.56 v 2 a 7.16,7.16 0 0 0 -0.9,-0.58 2.25,2.25 0 0 0 -1,-0.22 1.95,1.95 0 0 0 -1.74,1 2.14,2.14 0 0 0 -0.28,1.12 2.23,2.23 0 0 0 0.24,1 2.07,2.07 0 0 0 0.69,0.75 1.84,1.84 0 0 0 1,0.27 2.63,2.63 0 0 0 0.84,-0.13 3.54,3.54 0 0 0 0.67,-0.29 5.47,5.47 0 0 0 0.55,-0.38 z"
         id="path24" />
      <path
         d="m 39.48,351.44 h -2.23 v 5.63 h -1.84 v -5.63 h -2.24 v -1.81 h 6.31 z"
         id="path25" />
    </g>
    <path
       d="m 28.63,198.27 c 8,0 14.54,6.09 14.54,13.58 v 109.8 c 0,7.48 -6.52,13.57 -14.54,13.57 -8.02,0 -14.54,-6.09 -14.54,-13.57 v -109.8 c 0,-7.49 6.53,-13.58 14.54,-13.58 m 0,-1.05 C 20,197.22 13,203.77 13,211.85 v 109.8 c 0,8.08 7,14.63 15.59,14.63 8.59,0 15.59,-6.55 15.59,-14.63 v -109.8 c 0,-8.08 -7,-14.63 -15.59,-14.63 z"
       id="path26" />
    <g
       id="g28">
      <path
         d="m 28.5,238.71 a 3,3 0 0 1 -0.6,0.28 3.6,3.6 0 0 1 -0.63,0.15 4.54,4.54 0 0 1 -0.65,0 3,3 0 0 1 -1.11,-0.19 2.3,2.3 0 0 1 -0.86,-0.58 2.45,2.45 0 0 1 -0.54,-0.89 3.33,3.33 0 0 1 -0.18,-1.12 3.28,3.28 0 0 1 0.21,-1.22 2.44,2.44 0 0 1 1.47,-1.39 3.22,3.22 0 0 1 1,-0.16 4.89,4.89 0 0 1 1.84,0.41 v 1.43 a 5.09,5.09 0 0 0 -0.7,-0.41 1.86,1.86 0 0 0 -0.81,-0.17 1.61,1.61 0 0 0 -0.78,0.19 1.48,1.48 0 0 0 -0.58,0.53 1.61,1.61 0 0 0 0,1.57 1.4,1.4 0 0 0 0.54,0.54 1.43,1.43 0 0 0 0.77,0.2 2.39,2.39 0 0 0 0.66,-0.09 3.25,3.25 0 0 0 0.52,-0.22 4.28,4.28 0 0 0 0.43,-0.27 z"
         id="path27" />
      <path
         d="m 33.85,233.7 -2.15,5.48 h -0.95 l -2.11,-5.48 h 1.5 l 1.09,3.13 1.12,-3.13 z"
         id="path28" />
    </g>
    <g
       id="g33">
      <path
         d="m 21.57,288 h -1.44 v -5.41 h 1.44 z"
         id="path29" />
      <path
         d="m 26,288 h -1.21 v -2.14 a 1.42,1.42 0 0 0 -0.1,-0.57 0.39,0.39 0 0 0 -0.41,-0.25 0.5,0.5 0 0 0 -0.27,0.07 0.62,0.62 0 0 0 -0.2,0.16 0.94,0.94 0 0 0 -0.16,0.2 l -0.12,0.2 V 288 h -1.24 v -4 h 1.24 v 0.57 a 1.73,1.73 0 0 1 0.58,-0.5 1.45,1.45 0 0 1 0.66,-0.14 c 0.83,0 1.25,0.57 1.25,1.71 z"
         id="path30" />
      <path
         d="m 30.33,286 a 2.86,2.86 0 0 1 -0.1,0.77 2.28,2.28 0 0 1 -0.31,0.67 1.47,1.47 0 0 1 -0.52,0.47 1.51,1.51 0 0 1 -0.75,0.17 1.34,1.34 0 0 1 -0.54,-0.08 1.92,1.92 0 0 1 -0.39,-0.22 v 2 H 26.48 V 284 h 1.24 v 0.36 a 1.53,1.53 0 0 1 0.41,-0.31 1.29,1.29 0 0 1 0.61,-0.12 1.52,1.52 0 0 1 0.75,0.21 1.65,1.65 0 0 1 0.6,0.67 2.45,2.45 0 0 1 0.24,1.19 z M 29,286 a 1.61,1.61 0 0 0 -0.1,-0.59 0.78,0.78 0 0 0 -0.26,-0.32 0.6,0.6 0 0 0 -0.33,-0.1 0.77,0.77 0 0 0 -0.36,0.08 1.21,1.21 0 0 0 -0.26,0.2 v 1.52 l 0.14,0.09 L 28,287 a 0.52,0.52 0 0 0 0.16,0.06 0.57,0.57 0 0 0 0.18,0 0.58,0.58 0 0 0 0.49,-0.29 A 1.29,1.29 0 0 0 29,286 Z"
         id="path31" />
      <path
         d="m 34.37,288 h -1.23 v -0.56 a 1.94,1.94 0 0 1 -0.55,0.47 1.38,1.38 0 0 1 -0.69,0.16 1,1 0 0 1 -1,-0.52 3,3 0 0 1 -0.23,-1.19 V 284 h 1.24 v 2.14 a 1.62,1.62 0 0 0 0.09,0.57 0.39,0.39 0 0 0 0.41,0.25 0.54,0.54 0 0 0 0.43,-0.18 2.92,2.92 0 0 0 0.33,-0.45 V 284 h 1.23 z"
         id="path32" />
      <path
         d="m 37.65,287.75 a 3.23,3.23 0 0 1 -0.53,0.21 2.6,2.6 0 0 1 -0.65,0.09 c -0.89,0 -1.34,-0.49 -1.34,-1.48 V 285 h -0.56 v -0.24 l 1.66,-1.93 h 0.14 V 284 h 1.18 v 1 h -1.18 v 1.28 a 1.86,1.86 0 0 0 0,0.36 0.34,0.34 0 0 0 0.13,0.22 0.49,0.49 0 0 0 0.34,0.1 1.68,1.68 0 0 0 0.78,-0.29 z"
         id="path33" />
    </g>
    <g
       id="g39">
      <path
         d="m 21.31,66.06 a 3.9,3.9 0 0 1 -0.39,1.74 2.92,2.92 0 0 1 -1.14,1.27 3.51,3.51 0 0 1 -1.85,0.47 3.36,3.36 0 0 1 -1.87,-0.49 3.05,3.05 0 0 1 -1.14,-1.28 4.14,4.14 0 0 1 0,-3.42 2.94,2.94 0 0 1 1.13,-1.27 3.42,3.42 0 0 1 1.88,-0.49 3.6,3.6 0 0 1 1.47,0.28 2.83,2.83 0 0 1 1.06,0.75 3.21,3.21 0 0 1 0.63,1.11 4,4 0 0 1 0.22,1.33 z m -1.83,0 a 2.5,2.5 0 0 0 -0.1,-0.69 1.62,1.62 0 0 0 -0.3,-0.55 1.25,1.25 0 0 0 -0.49,-0.36 1.53,1.53 0 0 0 -0.66,-0.13 1.42,1.42 0 0 0 -1.14,0.48 1.86,1.86 0 0 0 -0.41,1.25 1.89,1.89 0 0 0 0.41,1.26 1.44,1.44 0 0 0 1.14,0.48 1.5,1.5 0 0 0 0.84,-0.22 1.46,1.46 0 0 0 0.53,-0.58 2.13,2.13 0 0 0 0.18,-0.94 z"
         id="path34" />
      <path
         d="m 25.57,69.22 a 2.86,2.86 0 0 1 -0.41,0.15 3.19,3.19 0 0 1 -0.49,0.12 3.48,3.48 0 0 1 -0.58,0.05 2.42,2.42 0 0 1 -1.22,-0.28 2,2 0 0 1 -0.76,-0.69 2.75,2.75 0 0 1 -0.37,-0.85 2.75,2.75 0 0 1 0,-1.54 2.6,2.6 0 0 1 0.37,-0.84 2.08,2.08 0 0 1 0.75,-0.68 2.57,2.57 0 0 1 1.23,-0.27 3.43,3.43 0 0 1 0.79,0.08 4.12,4.12 0 0 1 0.62,0.21 v 1.38 a 3.85,3.85 0 0 0 -1.18,-0.27 1.09,1.09 0 0 0 -0.74,0.28 1.13,1.13 0 0 0 -0.32,0.88 1.38,1.38 0 0 0 0.16,0.67 1,1 0 0 0 0.41,0.39 1,1 0 0 0 0.49,0.13 1.74,1.74 0 0 0 0.52,-0.08 c 0.2,0 0.44,-0.12 0.73,-0.22 z"
         id="path35" />
      <path
         d="m 29.42,69.16 a 3.92,3.92 0 0 1 -0.67,0.26 2.94,2.94 0 0 1 -0.81,0.12 c -1.11,0 -1.67,-0.62 -1.67,-1.86 v -2 h -0.7 V 65.37 L 27.65,63 h 0.17 v 1.49 h 1.48 v 1.21 h -1.48 v 1.59 a 2.64,2.64 0 0 0 0,0.45 0.51,0.51 0 0 0 0.18,0.26 0.71,0.71 0 0 0 0.43,0.11 2.2,2.2 0 0 0 1,-0.35 z"
         id="path36" />
      <path
         d="m 34.28,69.2 a 6.53,6.53 0 0 1 -0.63,0.24 2,2 0 0 1 -0.69,0.1 0.7,0.7 0 0 1 -0.53,-0.16 0.91,0.91 0 0 1 -0.22,-0.37 2.34,2.34 0 0 1 -0.55,0.38 1.81,1.81 0 0 1 -0.8,0.15 1.35,1.35 0 0 1 -0.77,-0.19 1,1 0 0 1 -0.41,-0.47 1.52,1.52 0 0 1 -0.12,-0.59 1.36,1.36 0 0 1 0.2,-0.76 1.53,1.53 0 0 1 0.55,-0.49 6.37,6.37 0 0 1 0.91,-0.4 l 0.49,-0.18 0.25,-0.09 0.17,-0.09 A 1.14,1.14 0 0 0 32,65.71 a 0.64,0.64 0 0 0 -0.56,-0.2 1.81,1.81 0 0 0 -0.94,0.25 3.51,3.51 0 0 0 -0.8,0.66 v -1.35 a 2.71,2.71 0 0 1 0.63,-0.38 3.19,3.19 0 0 1 0.7,-0.23 4.53,4.53 0 0 1 0.74,-0.07 2.12,2.12 0 0 1 1.43,0.42 1.47,1.47 0 0 1 0.47,1.19 v 1.92 a 1.37,1.37 0 0 0 0,0.41 0.17,0.17 0 0 0 0.16,0.13 1,1 0 0 0 0.4,-0.14 z m -2.15,-1 v -1.13 a 3.9,3.9 0 0 0 -0.81,0.46 0.69,0.69 0 0 0 -0.25,0.55 0.52,0.52 0 0 0 0.13,0.38 0.37,0.37 0 0 0 0.29,0.13 0.57,0.57 0 0 0 0.32,-0.1 z"
         id="path37" />
      <path
         d="m 39,64.48 -2,5 h -1.11 l -1.94,-5 h 1.66 l 0.9,2.6 1,-2.6 z"
         id="path38" />
      <path
         d="M 43.68,67.39 H 40.6 a 1.27,1.27 0 0 0 1.24,1 3.8,3.8 0 0 0 1.73,-0.5 V 69 a 4,4 0 0 1 -0.83,0.36 3.83,3.83 0 0 1 -1.23,0.17 2.67,2.67 0 0 1 -1.37,-0.34 2.18,2.18 0 0 1 -0.85,-0.93 3,3 0 0 1 -0.29,-1.32 2.9,2.9 0 0 1 0.28,-1.31 2.08,2.08 0 0 1 0.85,-0.91 2.67,2.67 0 0 1 1.37,-0.33 2.22,2.22 0 0 1 1,0.26 2.07,2.07 0 0 1 0.82,0.86 3.22,3.22 0 0 1 0.36,1.49 z m -1.45,-0.87 a 1.25,1.25 0 0 0 -0.21,-0.76 0.7,0.7 0 0 0 -0.6,-0.29 0.79,0.79 0 0 0 -0.63,0.29 1.15,1.15 0 0 0 -0.24,0.76 z"
         id="path39" />
    </g>
    <path
       d="m 44.22,308.21 c 0,-8.08 -7,-14.63 -15.59,-14.63 -8.59,0 -15.63,6.55 -15.63,14.63 v 8.11 0 19.84 a 5.68,5.68 0 0 0 5.67,5.67 h 19.88 a 5.68,5.68 0 0 0 5.67,-5.67 v -19.84 0 z"
       id="path46" />
    <g
       id="g49">
      <path
         d="m 27.86,334.14 a 3.26,3.26 0 0 1 -0.3,1.4 2.42,2.42 0 0 1 -0.92,1 3.11,3.11 0 0 1 -3,0 2.36,2.36 0 0 1 -0.9,-1 3.11,3.11 0 0 1 -0.3,-1.36 3.25,3.25 0 0 1 0.29,-1.36 2.38,2.38 0 0 1 0.91,-1 2.75,2.75 0 0 1 1.5,-0.39 3,3 0 0 1 1.18,0.23 2.3,2.3 0 0 1 0.85,0.6 2.51,2.51 0 0 1 0.5,0.89 3.1,3.1 0 0 1 0.19,0.99 z m -1.46,0 a 2,2 0 0 0 -0.08,-0.56 1.14,1.14 0 0 0 -0.24,-0.43 1,1 0 0 0 -0.39,-0.29 1.25,1.25 0 0 0 -0.53,-0.11 1.12,1.12 0 0 0 -0.91,0.39 1.47,1.47 0 0 0 -0.33,1 1.52,1.52 0 0 0 0.33,1 1.18,1.18 0 0 0 0.91,0.38 1.2,1.2 0 0 0 0.67,-0.18 1.14,1.14 0 0 0 0.43,-0.49 1.81,1.81 0 0 0 0.14,-0.71 z"
         style="fill:#ffffff"
         id="path47" />
      <path
         d="m 32,336.85 h -1.28 v -0.56 a 1.82,1.82 0 0 1 -0.55,0.47 1.35,1.35 0 0 1 -0.69,0.16 1,1 0 0 1 -1,-0.52 2.84,2.84 0 0 1 -0.24,-1.19 v -2.33 h 1.24 V 335 a 1.42,1.42 0 0 0 0.1,0.57 0.4,0.4 0 0 0 0.41,0.25 0.55,0.55 0 0 0 0.43,-0.18 3.8,3.8 0 0 0 0.32,-0.45 v -2.33 H 32 Z"
         style="fill:#ffffff"
         id="path48" />
      <path
         d="m 35.23,336.62 a 2.37,2.37 0 0 1 -0.53,0.2 2.14,2.14 0 0 1 -0.65,0.1 c -0.89,0 -1.33,-0.49 -1.33,-1.48 v -1.59 h -0.56 v -0.24 l 1.66,-1.93 H 34 v 1.2 h 1.18 v 1 H 34 v 1.28 a 1.78,1.78 0 0 0 0,0.35 0.35,0.35 0 0 0 0.14,0.23 0.51,0.51 0 0 0 0.34,0.09 1.65,1.65 0 0 0 0.77,-0.28 z"
         style="fill:#ffffff"
         id="path49" />
    </g>
    <g
       id="g55">
      <path
         d="m 34.54,6.76 -5.53,7 v -6 A 1.27,1.27 0 0 0 28.37,6.59 0.89,0.89 0 0 0 27.24,6.88 L 20,16.13 a 1.49,1.49 0 0 0 0,1.79 0.9,0.9 0 0 0 1.46,0 l 5.5,-7 v 6 a 1.29,1.29 0 0 0 0.64,1.18 0.92,0.92 0 0 0 1.14,-0.3 l 5.53,-7 v 6.15 a 1.05,1.05 0 1 0 2.06,0 V 7.64 a 1.28,1.28 0 0 0 -0.65,-1.18 0.91,0.91 0 0 0 -1.14,0.3 z"
         style="stroke:#000000;stroke-width:0.6px"
         id="path53" />
      <path
         d="m 20,6.68 -4.81,6.13 a 1.47,1.47 0 0 0 0,1.79 0.9,0.9 0 0 0 1.46,0 L 19.7,10.73 V 17 a 1.17,1.17 0 0 0 1,1.26 1.17,1.17 0 0 0 1,-1.26 V 7.56 A 1.29,1.29 0 0 0 21.05,6.39 0.91,0.91 0 0 0 20,6.68 Z"
         style="stroke:#000000;stroke-width:0.6px"
         id="path54" />
      <path
         d="m 42.91,11.2 a 1.05,1.05 0 0 0 -0.95,-0.77 h -2.1 l 1.53,-1.95 c 0,0 0.8,-1.17 0.1,-1.82 a 1.27,1.27 0 0 0 -1.58,0.06 l -3.23,4.1 a 1.45,1.45 0 0 0 -0.2,1.37 1,1 0 0 0 1,0.78 h 2.1 L 37,16.14 c 0,0 -1,1.13 -0.27,1.89 0.73,0.76 1.75,-0.14 1.75,-0.14 l 4.18,-5.31 a 1.5,1.5 0 0 0 0.25,-1.38 z"
         style="stroke:#000000;stroke-width:0.6px"
         id="path55" />
    </g>
  </g>
  <g
     id="g56"
     transform="translate(-0.00640788,-0.005)" />
</svg>
