<?xml version="1.0" encoding="UTF-8" standalone="no"?>
<svg
   width="20.32mm"
   height="130.55mm"
   viewBox="0 0 57.6 370.07"
   version="1.1"
   id="svg36"
   sodipodi:docname="Octave_artwork.svg"
   inkscape:version="1.4.2 (ebf0e940, 2025-05-08)"
   xmlns:inkscape="http://www.inkscape.org/namespaces/inkscape"
   xmlns:sodipodi="http://sodipodi.sourceforge.net/DTD/sodipodi-0.dtd"
   xmlns="http://www.w3.org/2000/svg"
   xmlns:svg="http://www.w3.org/2000/svg">
  <sodipodi:namedview
     id="namedview36"
     pagecolor="#ffffff"
     bordercolor="#666666"
     borderopacity="1.0"
     inkscape:showpageshadow="2"
     inkscape:pageopacity="0.0"
     inkscape:pagecheckerboard="0"
     inkscape:deskcolor="#d1d1d1"
     inkscape:document-units="mm"
     inkscape:zoom="2.6598468"
     inkscape:cx="3.3836535"
     inkscape:cy="415.62544"
     inkscape:window-width="1312"
     inkscape:window-height="704"
     inkscape:window-x="49"
     inkscape:window-y="38"
     inkscape:window-maximized="0"
     inkscape:current-layer="text" />
  <defs
     id="defs2">
    <clipPath
       id="clippath">
      <rect
         x="14.91"
         y="33.17"
         width="27.78"
         height="25.51"
         style="fill: none; stroke-width: 0px;"
         id="rect1" />
    </clipPath>
    <clipPath
       id="clippath-1">
      <rect
         x="14.91"
         y="33.17"
         width="27.78"
         height="25.51"
         style="fill: none; stroke-width: 0px;"
         id="rect2" />
    </clipPath>
  </defs>
  <g
     id="faceplate">
    <g
       id="g3">
      <path
         id="rect3"
         style="fill:#ededed;stroke-width:0px"
         d="m 0.13,0.13 h 57.349998 v 364 H 0.13 Z" />
      <path
         d="M57.35.25v363.75H.25V.25h57.1M57.6,0H0v364.25h57.6V0h0Z"
         style="fill: #9d9d9e; stroke-width: 0px;"
         id="path3" />
    </g>
    <g
       id="g5">
      <path
         d="M28.8,200.84c8.05,0,14.59,6.08,14.59,13.54v109.18H14.21v-109.18c0-7.47,6.55-13.54,14.59-13.54M28.8,199.84c-8.61,0-15.59,6.51-15.59,14.54v110.18s31.18,0,31.18,0v-110.18c0-8.03-6.98-14.54-15.59-14.54h0Z"
         style="fill: #000; stroke-width: 0px;"
         id="path4" />
      <path
         d="M44.39,310.8c0-8.05-6.98-14.57-15.59-14.57s-15.59,6.53-15.59,14.57v5.36s0,0,0,0v19.77c0,3.11,2.55,5.65,5.67,5.65h19.84c3.12,0,5.67-2.54,5.67-5.65v-19.77s0,0,0,0v-5.35Z"
         style="fill: #000; stroke-width: 0px;"
         id="path5" />
    </g>
    <g
       id="pips_-_fewest"
       data-name="pips - fewest">
      <g
         style="clip-path: url(#clippath);"
         clip-path="url(#clippath)"
         id="g16">
        <g
           style="clip-path: url(#clippath-1);"
           clip-path="url(#clippath-1)"
           id="g15">
          <path
             d="M34.49,35.93l.71-1.23c-1.74-.9-3.69-1.45-5.77-1.54v1.42c1.81.09,3.52.56,5.05,1.35"
             style="fill: #000; stroke-width: 0px;"
             id="path6" />
          <path
             d="M39.28,40.25l1.23-.71c-1.09-1.69-2.53-3.12-4.22-4.21l-.71,1.23c1.48.96,2.74,2.21,3.7,3.69"
             style="fill: #000; stroke-width: 0px;"
             id="path7" />
          <path
             d="M22.02,36.56l-.71-1.23c-1.69,1.08-3.14,2.52-4.22,4.2l1.23.71c.96-1.47,2.22-2.73,3.7-3.69"
             style="fill: #000; stroke-width: 0px;"
             id="path8" />
          <path
             d="M41.26,46.38h1.43c-.09-2.07-.64-4.01-1.54-5.75l-1.23.71c.79,1.52,1.26,3.23,1.35,5.04"
             style="fill: #000; stroke-width: 0px;"
             id="path9" />
          <path
             d="M28.17,34.59v-1.42c-2.07.09-4.03.64-5.77,1.54l.71,1.23c1.53-.78,3.24-1.25,5.05-1.35"
             style="fill: #000; stroke-width: 0px;"
             id="path10" />
          <path
             d="M18.32,53.76l-1.23.71c1.09,1.69,2.53,3.12,4.22,4.21l.71-1.23c-1.48-.96-2.74-2.21-3.7-3.69"
             style="fill: #000; stroke-width: 0px;"
             id="path11" />
          <path
             d="M35.58,57.45l.71,1.23c1.69-1.08,3.14-2.52,4.22-4.2l-1.23-.71c-.96,1.47-2.22,2.73-3.7,3.69"
             style="fill: #000; stroke-width: 0px;"
             id="path12" />
          <path
             d="M41.26,47.64c-.09,1.81-.56,3.51-1.35,5.04l1.23.71c.9-1.73,1.45-3.68,1.54-5.75h-1.43Z"
             style="fill: #000; stroke-width: 0px;"
             id="path13" />
          <path
             d="M16.34,47.64h-1.43c.09,2.07.64,4.01,1.54,5.75l1.23-.71c-.79-1.52-1.26-3.23-1.35-5.04"
             style="fill: #000; stroke-width: 0px;"
             id="path14" />
          <path
             d="M17.69,41.34l-1.23-.71c-.9,1.73-1.45,3.68-1.54,5.75h1.43c.09-1.81.56-3.51,1.35-5.04"
             style="fill: #000; stroke-width: 0px;"
             id="path15" />
        </g>
      </g>
    </g>
    <g
       id="text">
      <path
         d="m 25.447917,346.81747 q 0,1.04199 -0.396386,1.91748 -0.391983,0.87549 -1.171543,1.39111 -0.77956,0.51562 -1.898252,0.51562 -1.131904,0 -1.915868,-0.5371 -0.783965,-0.53711 -1.167138,-1.4126 -0.37877,-0.87549 -0.37877,-1.87451 0,-1.00439 0.37877,-1.87452 0.37877,-0.87548 1.162734,-1.40722 0.788368,-0.53711 1.920272,-0.53711 0.845626,0 1.506269,0.30616 0.665049,0.30615 1.092266,0.83252 0.427216,0.52099 0.647432,1.21923 0.220214,0.69287 0.220214,1.46094 z m -1.87623,0 q 0,-0.41894 -0.101299,-0.76269 -0.101299,-0.34913 -0.3083,-0.60157 -0.202598,-0.25781 -0.497685,-0.39746 -0.295088,-0.14502 -0.682667,-0.14502 -0.739921,0 -1.162734,0.52637 -0.422812,0.52636 -0.422812,1.38037 0,0.854 0.422812,1.38574 0.427217,0.52636 1.162734,0.52636 0.506494,0 0.863242,-0.24169 0.356749,-0.24707 0.541729,-0.67676 0.18498,-0.43506 0.18498,-0.99365 z m 8.487077,3.16895 q -0.378769,0.2417 -0.775155,0.38672 -0.396387,0.14501 -0.801582,0.2041 -0.400791,0.0645 -0.832412,0.0645 -0.797178,0 -1.431396,-0.26855 -0.629814,-0.26856 -1.09667,-0.78955 -0.462451,-0.52637 -0.695878,-1.22461 -0.229023,-0.70362 -0.229023,-1.5415 0,-0.96143 0.273066,-1.68116 0.273066,-0.72509 0.761943,-1.20313 0.493281,-0.47802 1.118691,-0.70361 0.629815,-0.23096 1.325693,-0.23096 1.039413,0 2.356298,0.56398 v 1.97655 q -0.453642,-0.34375 -0.898476,-0.56934 -0.44043,-0.23095 -1.039414,-0.23095 -0.53292,0 -0.995371,0.25781 -0.46245,0.25781 -0.744326,0.73584 -0.281875,0.47804 -0.281875,1.11719 0,0.56396 0.246641,1.03662 0.246641,0.46728 0.682666,0.74658 0.440429,0.27393 0.990967,0.27393 0.444833,0 0.841219,-0.12891 0.396387,-0.13427 0.665049,-0.29541 0.273067,-0.16113 0.559345,-0.38134 z m 7.090917,-5.07569 h -2.237382 v 5.63428 h -1.836592 v -5.63428 h -2.237382 v -1.81005 h 6.311356 z"
         id="text16"
         style="font-weight:700;font-size:9.96092px;font-family:GillSans-Bold, 'Gill Sans';stroke-width:0.905538"
         aria-label="OCT" />
      <path
         d="M 2.3203125,0 H 0.6875 v -5.4140625 h 1.6328125 z m 5.0628126,0 h -1.40625 v -2.1445313 q 0,-0.328125 -0.109375,-0.5703125 -0.1054688,-0.2460937 -0.46875,-0.2460937 -0.171875,0 -0.3046875,0.066406 -0.1289063,0.0625 -0.234375,0.1640625 -0.1015625,0.1015625 -0.171875,0.1953125 -0.070312,0.09375 -0.1445313,0.1992188 V 0 h -1.40625 v -3.9765625 h 1.40625 V -3.40625 q 0.3320313,-0.3554688 0.6640625,-0.4960938 0.3359375,-0.1445312 0.7460938,-0.1445312 1.4296875,0 1.4296875,1.7109375 z m 4.8909379,-2.015625 q 0,0.3984375 -0.113282,0.7695313 -0.113281,0.3710937 -0.347656,0.67187495 -0.230469,0.296875 -0.597656,0.47265625 -0.363281,0.171875 -0.847656,0.171875 -0.3906254,0 -0.6171879,-0.08203125 Q 9.5279689,-0.09375 9.3053126,-0.23046875 V 1.8085937 h -1.40625 v -5.7851562 h 1.40625 v 0.359375 q 0.2109375,-0.1835938 0.4648438,-0.3046875 0.2578126,-0.125 0.6953126,-0.125 0.433594,0 0.851562,0.2148437 0.417969,0.2148438 0.6875,0.671875 0.269532,0.453125 0.269532,1.1445313 z m -1.480469,0.03125 q 0,-0.359375 -0.113281,-0.5820313 -0.113282,-0.2265625 -0.292969,-0.3242187 -0.179688,-0.1015625 -0.371094,-0.1015625 -0.2499999,0 -0.4101561,0.082031 -0.1601563,0.078125 -0.3007813,0.1992188 v 1.5195313 q 0.074219,0.039063 0.15625,0.089844 0.085937,0.046875 0.1679688,0.082031 0.085937,0.0351562 0.1796875,0.0585937 0.097656,0.0234375 0.2070311,0.0234375 0.332031,0 0.554688,-0.28125 Q 10.793594,-1.5 10.793594,-1.984375 Z M 16.875937,0 h -1.410156 v -0.56640625 q -0.296875,0.3203125 -0.625,0.48046875 -0.324219,0.15625 -0.78125,0.15625 -0.902344,0 -1.167969,-0.5234375 -0.265625,-0.52734375 -0.265625,-1.1875 v -2.3359375 h 1.410157 v 2.1484375 q 0,0.3242188 0.105468,0.5703125 0.109375,0.2421875 0.46875,0.2421875 0.308594,0 0.488282,-0.1757812 0.179687,-0.1757813 0.367187,-0.4492188 v -2.3359375 h 1.410156 z m 3.715156,-0.23046875 q -0.21875,0.10546875 -0.605469,0.203125 -0.382812,0.09765625 -0.734375,0.09765625 -1.519531,0 -1.519531,-1.484375 V -3 h -0.636719 v -0.2460938 l 1.886719,-1.9218749 h 0.160156 v 1.1914062 h 1.34375 V -3 h -1.34375 v 1.2734375 q 0,0.2226563 0.02734,0.359375 0.02734,0.1367188 0.152344,0.2304688 0.128906,0.089844 0.386719,0.089844 0.335937,0 0.882812,-0.28125 z"
         id="text17"
         style="font-weight:700;font-size:8px;font-family:GillSans-Bold, 'Gill Sans';letter-spacing:-0.04em"
         transform="translate(19.67 289.25) scale(.88 1)"
         aria-label="Input" />
      <path
         d="m 8.0908203,-3.3886719 q 0,0.9472656 -0.4394531,1.7431641 -0.4345703,0.79589842 -1.2988281,1.26464842 -0.8642579,0.46875 -2.1044922,0.46875 -1.2548828,0 -2.1240235,-0.48828125 Q 1.2548828,-0.88867188 0.83007813,-1.6845703 0.41015625,-2.4804688 0.41015625,-3.3886719 q 0,-0.9130859 0.41992188,-1.7041015 Q 1.25,-5.8886719 2.1191406,-6.3720703 q 0.8740235,-0.4882813 2.1289063,-0.4882813 0.9375,0 1.6699218,0.2783204 0.7373047,0.2783203 1.2109375,0.7568359 0.4736329,0.4736328 0.7177735,1.1083984 0.2441406,0.6298828 0.2441406,1.328125 z m -2.0800781,0 q 0,-0.3808594 -0.1123047,-0.6933593 -0.1123047,-0.3173829 -0.3417969,-0.546875 -0.2246094,-0.234375 -0.5517578,-0.3613282 -0.3271484,-0.1318359 -0.7568359,-0.1318359 -0.8203125,0 -1.2890625,0.4785156 -0.46875,0.4785156 -0.46875,1.2548828 0,0.7763672 0.46875,1.2597656 0.4736328,0.4785157 1.2890625,0.4785157 0.5615234,0 0.9570312,-0.2197266 0.3955078,-0.2246094 0.600586,-0.6152344 0.2050781,-0.3955078 0.2050781,-0.9033203 z m 6.9193368,3.15917971 q -0.219727,0.0830078 -0.463868,0.15625 -0.24414,0.06835938 -0.551757,0.11230469 -0.302735,0.04882812 -0.664063,0.04882812 -0.81543,0 -1.3818359,-0.27343749 Q 9.3070316,-0.46386719 8.9994144,-0.87890625 8.6966801,-1.2988281 8.5794926,-1.7333984 8.4623051,-2.1679688 8.4623051,-2.5 q 0,-0.3320313 0.1171875,-0.7666016 0.1220703,-0.4345703 0.4199218,-0.8398437 0.2978516,-0.4052734 0.859375,-0.6787109 0.5664066,-0.2734375 1.3916016,-0.2734375 0.551758,0 0.898438,0.078125 0.346679,0.078125 0.703125,0.2099609 v 1.3818359 q -0.859375,-0.2734375 -1.342774,-0.2734375 -0.46875,0 -0.834961,0.2832031 -0.361328,0.2832032 -0.361328,0.8789063 0,0.3955078 0.180664,0.6689453 0.180664,0.2685547 0.458984,0.3955078 0.278321,0.1269532 0.556641,0.1269532 0.263672,0 0.600586,-0.078125 0.336914,-0.078125 0.820313,-0.2246094 z m 4.37539,-0.0585937 q -0.273438,0.13183594 -0.756836,0.25390625 -0.478516,0.12207031 -0.917969,0.12207031 -1.899414,0 -1.899414,-1.85546872 V -3.75 h -0.795899 v -0.3076172 l 2.358399,-2.4023437 h 0.200195 v 1.4892578 h 1.679688 V -3.75 h -1.679688 v 1.5917969 q 0,0.2783203 0.03418,0.4492187 0.03418,0.1708985 0.190429,0.288086 0.161133,0.1123047 0.483399,0.1123047 0.419922,0 1.103516,-0.3515625 z m 5.527733,0.0390625 q -0.385742,0.15136719 -0.71289,0.24414063 -0.327149,0.09277343 -0.786133,0.09277343 -0.43457,0 -0.605469,-0.15136718 -0.170898,-0.15625 -0.24414,-0.37597657 -0.283204,0.22949219 -0.629883,0.38085938 -0.34668,0.14648437 -0.908203,0.14648437 -0.541993,0 -0.878907,-0.18554687 -0.332031,-0.19042969 -0.46875,-0.47363281 -0.131836,-0.28808594 -0.131836,-0.59082034 0,-0.4589843 0.229493,-0.7568359 0.234375,-0.3027344 0.625,-0.4931641 0.390625,-0.1904297 1.035156,-0.3955078 0.366211,-0.1171875 0.551758,-0.1757812 0.190429,-0.063477 0.283203,-0.097656 0.09277,-0.03418 0.195312,-0.087891 0,-0.3613281 -0.146484,-0.5664063 -0.146484,-0.2050781 -0.634766,-0.2050781 -0.576172,0 -1.069336,0.2539063 -0.493164,0.2539062 -0.90332,0.6542968 v -1.3476562 q 0.327148,-0.234375 0.708008,-0.3808594 0.380859,-0.1513672 0.795898,-0.2246094 0.415039,-0.073242 0.839844,-0.073242 1.079102,0 1.621094,0.4199218 0.546875,0.4150391 0.546875,1.147461 v 1.9189453 q 0,0.2734375 0.04883,0.4101562 0.05371,0.131836 0.19043,0.131836 0.166015,0 0.449218,-0.1416016 z M 20.386913,-1.2011719 v -1.1767578 q -0.625,0.2539063 -0.913086,0.4589844 -0.288086,0.2001953 -0.288086,0.546875 0,0.2490234 0.141602,0.38085936 0.146484,0.13183594 0.336914,0.13183594 0.180664,0 0.356445,-0.0976563 0.180664,-0.10253905 0.366211,-0.24414065 z M 28.224218,-4.9707031 25.963476,0 h -1.298828 l -2.211914,-4.9707031 h 1.889648 l 1.030274,2.602539 1.142578,-2.602539 z m 5.146876,2.9101562 h -3.500977 q 0.102539,0.4541016 0.50293,0.7421875 0.40039,0.288086 0.908203,0.288086 0.888672,0 1.962891,-0.4980469 v 1.08886717 q -0.385743,0.20019532 -0.9375,0.36621094 -0.546875,0.16113281 -1.396485,0.16113281 -0.917969,0 -1.5625,-0.34179687 -0.644531,-0.34179687 -0.966797,-0.92773435 -0.317382,-0.5859375 -0.317382,-1.328125 0,-0.7324219 0.317382,-1.3085938 0.322266,-0.5810547 0.966797,-0.9082031 0.644531,-0.3320312 1.5625,-0.3320312 0.605469,0 1.166992,0.2636718 0.566407,0.2587891 0.927735,0.8544922 0.366211,0.5908203 0.366211,1.5283203 z m -1.650391,-0.8691406 q 0,-0.4785156 -0.239258,-0.7617188 -0.234375,-0.2880859 -0.678711,-0.2880859 -0.439453,0 -0.71289,0.2929688 -0.268555,0.2880859 -0.268555,0.7568359 z"
         id="text18"
         style="font-weight:700;font-size:10px;font-family:GillSans-Bold, 'Gill Sans';letter-spacing:-0.04em"
         transform="translate(13.92 68.85) scale(.88 1)"
         aria-label="Octave" />
      <path
         d="m 6.4726562,-2.7109375 q 0,0.7578125 -0.3515625,1.3945313 -0.3476562,0.6367187 -1.0390625,1.0117187 -0.6914062,0.375 -1.6835937,0.375 -1.0039062,0 -1.6992188,-0.390625 Q 1.0039062,-0.7109375 0.6640625,-1.3476562 0.328125,-1.984375 0.328125,-2.7109375 q 0,-0.7304688 0.3359375,-1.3632812 Q 1,-4.7109375 1.6953125,-5.0976562 q 0.6992188,-0.390625 1.703125,-0.390625 0.75,0 1.3359375,0.2226562 0.5898437,0.2226563 0.96875,0.6054688 0.3789062,0.3789062 0.5742187,0.8867187 0.1953125,0.5039062 0.1953125,1.0625 z m -1.6640625,0 q 0,-0.3046875 -0.089844,-0.5546875 -0.089844,-0.2539063 -0.2734375,-0.4375 -0.1796875,-0.1875 -0.4414063,-0.2890625 -0.2617187,-0.1054687 -0.6054687,-0.1054687 -0.65625,0 -1.03125,0.3828124 -0.375,0.3828125 -0.375,1.0039063 0,0.6210937 0.375,1.0078125 0.3789063,0.3828125 1.03125,0.3828125 0.4492188,0 0.765625,-0.1757812 0.3164062,-0.1796875 0.4804687,-0.4921875 0.1640625,-0.3164063 0.1640625,-0.7226563 z M 11.129219,0 H 9.7190623 v -0.56640625 q -0.296875,0.3203125 -0.625,0.48046875 -0.3242187,0.15625 -0.78125,0.15625 -0.9023437,0 -1.1679687,-0.5234375 -0.265625,-0.52734375 -0.265625,-1.1875 v -2.3359375 h 1.4101562 v 2.1484375 q 0,0.3242188 0.1054688,0.5703125 0.109375,0.2421875 0.46875,0.2421875 0.3085937,0 0.4882812,-0.1757812 0.1796875,-0.1757813 0.3671875,-0.4492188 v -2.3359375 h 1.4101567 z m 3.715156,-0.23046875 q -0.21875,0.10546875 -0.605469,0.203125 -0.382813,0.09765625 -0.734375,0.09765625 -1.519531,0 -1.519531,-1.484375 V -3 H 11.348281 V -3.2460938 L 13.235,-5.1679687 h 0.160156 v 1.1914062 h 1.34375 V -3 h -1.34375 v 1.2734375 q 0,0.2226563 0.02734,0.359375 0.02734,0.1367188 0.152343,0.2304688 0.128907,0.089844 0.386719,0.089844 0.335938,0 0.882813,-0.28125 z"
         id="text19"
         style="font-weight:700;font-size:8px;font-family:GillSans-Bold, 'Gill Sans';letter-spacing:-0.04em;fill:#ffffff"
         transform="translate(22.19 337.44) scale(.88 1)"
         aria-label="Out" />
      <path
         d="M 5.5273437,-0.40625 Q 5.1914062,-0.23046875 4.8398437,-0.125 4.4882812,-0.01953125 4.1289062,0.0234375 3.7734375,0.0703125 3.390625,0.0703125 2.6835938,0.0703125 2.1210938,-0.125 1.5625,-0.3203125 1.1484375,-0.69921875 0.73828125,-1.0820312 0.53125,-1.5898437 0.328125,-2.1015625 0.328125,-2.7109375 q 0,-0.6992188 0.2421875,-1.2226563 0.2421875,-0.5273437 0.6757812,-0.8749999 0.4375,-0.3476563 0.9921876,-0.5117188 0.5585937,-0.1679687 1.1757812,-0.1679687 0.921875,0 2.0898437,0.4101562 v 1.4375 q -0.4023437,-0.25 -0.796875,-0.4140625 -0.390625,-0.1679687 -0.9218749,-0.1679687 -0.4726563,0 -0.8828125,0.1875 Q 2.4921875,-3.8476563 2.2421875,-3.5 q -0.25,0.3476562 -0.25,0.8125 0,0.4101562 0.21875,0.7539063 0.21875,0.3398437 0.6054688,0.5429687 0.390625,0.1992188 0.8789062,0.1992188 0.3945312,0 0.7460937,-0.09375 Q 4.7929687,-1.3828125 5.03125,-1.5 5.2734375,-1.6171875 5.5273437,-1.7773437 Z m 6.0745313,-5.0078125 -2.4414064,5.484375 h -1.078125 l -2.3945313,-5.484375 h 1.6992188 l 1.2382812,3.125 1.2734375,-3.125 z"
         id="text20"
         style="font-weight:700;font-size:8px;font-family:GillSans-Bold, 'Gill Sans';letter-spacing:-0.04em"
         transform="translate(23.67 241.06) scale(.88 1)"
         aria-label="CV" />
    </g>
    <g
       id="g22"
       transform="translate(0,8.6069709)">
      <path
         d="m 20.6,18.19 c -0.37,0 -0.71,-0.17 -0.97,-0.47 -0.51,-0.6 -0.52,-1.54 -0.04,-2.16 l 6.97,-8.88 c 0.38,-0.48 1.05,-0.65 1.57,-0.39 0.5,0.25 0.79,0.82 0.79,1.45 v 4.77 l 4.64,-5.85 c 0.38,-0.48 1.01,-0.64 1.53,-0.38 0.5,0.25 0.83,0.81 0.83,1.44 v 8.82 c 0,0.86 -0.61,1.57 -1.36,1.57 -0.75,0 -1.36,-0.7 -1.36,-1.57 v -4.79 l -4.64,5.85 c -0.38,0.48 -1.01,0.64 -1.54,0.38 -0.5,-0.24 -0.83,-0.81 -0.83,-1.44 v -4.67 l -4.61,5.8 c -0.26,0.32 -0.62,0.51 -1,0.51 v 0 z"
         style="fill:#2cabe1;stroke-width:0px"
         id="path20" />
      <path
         d="m 20.6,18.19 c -0.75,0 -1.35,-0.7 -1.35,-1.57 v -4.93 l -2.26,2.84 c -0.5,0.63 -1.44,0.65 -1.97,0.04 -0.51,-0.6 -0.52,-1.53 -0.03,-2.15 L 19.6,6.66 c 0.26,-0.32 0.63,-0.5 1,-0.5 0.18,0 0.37,0.04 0.54,0.12 0.5,0.25 0.82,0.81 0.82,1.44 v 8.89 c 0,0.86 -0.61,1.57 -1.36,1.57 v 0 z"
         style="fill:#ea2228;stroke-width:0px"
         id="path21" />
      <path
         d="m 37.2,18.21 v 0 c -0.35,0 -0.68,-0.15 -0.94,-0.42 -0.76,-0.78 -0.14,-1.84 0.29,-2.3 L 38.5,13.13 37.24,13.11 C 36.68,13.1 36.2,12.71 36,12.11 35.81,11.55 35.93,10.9 36.29,10.47 L 39.45,6.64 C 39.68,6.36 40,6.16 40.58,6.17 c 0.33,0 0.67,0.17 0.92,0.4 0.71,0.66 0.29,1.7 -0.07,2.2 l -1.04,1.26 1.26,0.02 c 0.56,0.01 1.04,0.4 1.24,1 0.19,0.56 0.07,1.21 -0.29,1.64 l -4.1,4.97 c -0.35,0.35 -0.65,0.55 -1.3,0.54 v 0 z"
         style="fill:#00a650;stroke-width:0px"
         id="path22" />
    </g>
  </g>
  <g
     id="g1" />
</svg>
