<svg xmlns="http://www.w3.org/2000/svg" width="20.41mm" height="130.6mm" viewBox="0 0 57.85 370.19">
  <defs>
    <clipPath id="clip-path">
      <rect x="15.02" y="33.74" width="27.8" height="25.62" style="fill: none" />
    </clipPath>
  </defs>
  <g id="faceplate">
    <rect x="0.13" y="0.13" width="57.6" height="364.25" style="fill: #ededed;stroke: #9d9d9e;stroke-miterlimit: 10;stroke-width: 0.25px" />
    <g>
      <path d="M34.54,6.76l-5.53,7v-6a1.27,1.27,0,0,0-.64-1.17.89.89,0,0,0-1.13.29L20,16.13a1.49,1.49,0,0,0,0,1.79.9.9,0,0,0,1.46,0l5.5-7v6a1.29,1.29,0,0,0,.64,1.18.92.92,0,0,0,1.14-.3l5.53-7v6.15a1.05,1.05,0,1,0,2.06,0V7.64a1.28,1.28,0,0,0-.65-1.18A.91.91,0,0,0,34.54,6.76Z" style="stroke: #000;stroke-width: 0.6000000000000001px" />
      <path d="M20,6.68l-4.81,6.13a1.47,1.47,0,0,0,0,1.79.9.9,0,0,0,1.46,0l3.05-3.87V17a1.17,1.17,0,0,0,1,1.26,1.17,1.17,0,0,0,1-1.26V7.56a1.29,1.29,0,0,0-.65-1.17A.91.91,0,0,0,20,6.68Z" style="stroke: #000;stroke-width: 0.6000000000000001px" />
      <path d="M42.91,11.2a1.05,1.05,0,0,0-.95-.77h-2.1l1.53-1.95s.8-1.17.1-1.82a1.27,1.27,0,0,0-1.58.06l-3.23,4.1a1.45,1.45,0,0,0-.2,1.37,1,1,0,0,0,1,.78h2.1L37,16.14s-1,1.13-.27,1.89,1.75-.14,1.75-.14l4.18-5.31A1.5,1.5,0,0,0,42.91,11.2Z" style="stroke: #000;stroke-width: 0.6000000000000001px" />
    </g>
    <g>
      <path d="M24.2,352.28a2.84,2.84,0,0,1-.12.81,2.4,2.4,0,0,1-.37.73,2,2,0,0,1-.71.56,2.38,2.38,0,0,1-1,.21H20.75v2.79H18.91v-7.44H22a2.38,2.38,0,0,1,1,.21,1.91,1.91,0,0,1,.71.56,2.39,2.39,0,0,1,.37.75A2.81,2.81,0,0,1,24.2,352.28Zm-1.88,0a.87.87,0,0,0-.25-.73,1.62,1.62,0,0,0-.93-.2h-.39v1.8h.4a3.12,3.12,0,0,0,.71-.07.56.56,0,0,0,.35-.26A1,1,0,0,0,22.32,352.29Z" />
      <path d="M31.92,357.38H30l-.5-1.51H26.89l-.51,1.51H24.5l2.7-7.44h2Zm-2.8-2.8-.9-2.72-.9,2.72Z" />
      <path d="M39.36,357.38H37.72l-3.16-4.15v4.15H32.73v-7.44h1.64l3.16,4.12v-4.12h1.83Z" />
    </g>
    <path d="M29.28,150.53c8,0,14.54,6,14.54,13.46v109.2c0,7.42-6.52,13.46-14.54,13.46s-14.54-6-14.54-13.46V164c0-7.42,6.52-13.46,14.54-13.46m0-1.05c-8.61,0-15.59,6.5-15.59,14.51v109.2c0,8,7,14.51,15.59,14.51s15.59-6.49,15.59-14.51V164c0-8-7-14.51-15.59-14.51Z" />
    <path d="M44.73,261c0-8.08-7-14.62-15.59-14.62S13.55,252.91,13.55,261v55.54h0v19.84A5.68,5.68,0,0,0,19.22,342H39.06a5.68,5.68,0,0,0,5.67-5.67V316.53h0Z" />
    <g>
      <path d="M29,189.94a3.71,3.71,0,0,1-.61.28,3.3,3.3,0,0,1-.62.15,4.63,4.63,0,0,1-.65,0,3,3,0,0,1-1.12-.19,2.26,2.26,0,0,1-.85-.58,2.47,2.47,0,0,1-.55-.89,3.33,3.33,0,0,1-.18-1.12,3.09,3.09,0,0,1,.22-1.22,2.48,2.48,0,0,1,.59-.88,2.51,2.51,0,0,1,.88-.51,3.18,3.18,0,0,1,1-.17,5.14,5.14,0,0,1,1.84.41v1.44a5.76,5.76,0,0,0-.7-.41,1.73,1.73,0,0,0-.81-.17,1.61,1.61,0,0,0-.78.19,1.41,1.41,0,0,0-.58.53,1.46,1.46,0,0,0-.22.82,1.49,1.49,0,0,0,.19.75,1.52,1.52,0,0,0,.53.54,1.56,1.56,0,0,0,.78.2,2.27,2.27,0,0,0,.65-.09,2.9,2.9,0,0,0,.52-.22l.44-.27Z" style="fill: #231f20" />
      <path d="M34.38,184.93l-2.14,5.48h-1l-2.11-5.48h1.5l1.09,3.12,1.12-3.12Z" style="fill: #231f20" />
    </g>
    <g>
      <path d="M28,239.45H26.6V234H28Z" style="fill: #231f20" />
      <path d="M32.5,239.45H31.26v-2.14a1.5,1.5,0,0,0-.1-.58.39.39,0,0,0-.41-.24.6.6,0,0,0-.27.06,1.06,1.06,0,0,0-.2.17,1.4,1.4,0,0,0-.16.2l-.12.2v2.33H28.76v-4H30v.58a1.73,1.73,0,0,1,.58-.5,1.45,1.45,0,0,1,.66-.15c.84,0,1.26.57,1.26,1.72Z" style="fill: #231f20" />
    </g>
    <g>
      <path d="M25.66,285.85a3.19,3.19,0,0,1-.31,1.39,2.39,2.39,0,0,1-.92,1,3.11,3.11,0,0,1-3,0,2.36,2.36,0,0,1-.9-1,3.14,3.14,0,0,1-.3-1.36,3.33,3.33,0,0,1,.29-1.37,2.42,2.42,0,0,1,.91-1,2.75,2.75,0,0,1,1.5-.39,3,3,0,0,1,1.18.23,2.19,2.19,0,0,1,.85.6,2.51,2.51,0,0,1,.5.89A3.11,3.11,0,0,1,25.66,285.85Zm-1.47,0a2,2,0,0,0-.08-.56,1.14,1.14,0,0,0-.24-.43,1,1,0,0,0-.39-.29,1.25,1.25,0,0,0-.53-.11,1.14,1.14,0,0,0-.91.39,1.47,1.47,0,0,0-.33,1,1.52,1.52,0,0,0,.33,1,1.18,1.18,0,0,0,.91.38,1.2,1.2,0,0,0,.67-.18,1.14,1.14,0,0,0,.43-.49A1.81,1.81,0,0,0,24.19,285.85Z" style="fill: #fff" />
      <path d="M29.75,288.56H28.51V288a1.73,1.73,0,0,1-.55.48,1.35,1.35,0,0,1-.69.16,1,1,0,0,1-1-.52,2.84,2.84,0,0,1-.24-1.19v-2.34h1.24v2.15a1.42,1.42,0,0,0,.1.57.4.4,0,0,0,.41.25.55.55,0,0,0,.43-.18,3.8,3.8,0,0,0,.32-.45v-2.34h1.24Z" style="fill: #fff" />
      <path d="M33,288.33a2.19,2.19,0,0,1-.53.2,2.14,2.14,0,0,1-.65.1c-.89,0-1.33-.49-1.33-1.48v-1.59H30v-.25l1.66-1.92h.14v1.19h1.18v1H31.75v1.27a3.21,3.21,0,0,0,0,.36.35.35,0,0,0,.14.23.53.53,0,0,0,.34.09,1.65,1.65,0,0,0,.77-.28Z" style="fill: #fff" />
      <path d="M37.44,288.56H36.13v-5.41h1.31Z" style="fill: #fff" />
    </g>
    <g>
      <path d="M25.65,335a3.08,3.08,0,0,1-.31,1.39,2.37,2.37,0,0,1-.91,1,2.78,2.78,0,0,1-1.48.37,2.75,2.75,0,0,1-1.5-.39,2.38,2.38,0,0,1-.91-1,3.14,3.14,0,0,1-.3-1.36,3.19,3.19,0,0,1,.3-1.37,2.42,2.42,0,0,1,.91-1,2.75,2.75,0,0,1,1.5-.39,3.05,3.05,0,0,1,1.17.22A2.24,2.24,0,0,1,25,333a2.42,2.42,0,0,1,.51.88A3.47,3.47,0,0,1,25.65,335Zm-1.46,0a2,2,0,0,0-.08-.56,1.18,1.18,0,0,0-.24-.44,1.08,1.08,0,0,0-.39-.28,1.25,1.25,0,0,0-.53-.11A1.12,1.12,0,0,0,22,334a1.68,1.68,0,0,0,0,2,1.12,1.12,0,0,0,.91.39,1.22,1.22,0,0,0,.67-.18,1.06,1.06,0,0,0,.42-.49A1.66,1.66,0,0,0,24.19,335Z" style="fill: #fff" />
      <path d="M29.75,337.67H28.51v-.57a1.84,1.84,0,0,1-.55.48,1.35,1.35,0,0,1-.69.16,1,1,0,0,1-1-.53A3,3,0,0,1,26,336v-2.34h1.24v2.15a1.62,1.62,0,0,0,.09.57.4.4,0,0,0,.41.24.52.52,0,0,0,.43-.17,2.92,2.92,0,0,0,.33-.45v-2.34h1.24Z" style="fill: #fff" />
      <path d="M33,337.44a2.58,2.58,0,0,1-.53.2,2.19,2.19,0,0,1-.65.1c-.89,0-1.34-.49-1.34-1.48v-1.59h-.56v-.25l1.66-1.92h.14v1.19h1.19v1H31.74v1.27a1.73,1.73,0,0,0,0,.36.36.36,0,0,0,.13.23.55.55,0,0,0,.34.09,1.64,1.64,0,0,0,.78-.28Z" style="fill: #fff" />
      <path d="M38.6,337.67H35v-.11a5.77,5.77,0,0,0,.46-.55l.65-.84.34-.47a3.82,3.82,0,0,0,.27-.45,2.66,2.66,0,0,0,.2-.48,1.89,1.89,0,0,0,.08-.53.91.91,0,0,0-.2-.61.56.56,0,0,0-.48-.23,1.59,1.59,0,0,0-1.16.68v-1.27l.33-.24.3-.18.4-.15a2.1,2.1,0,0,1,.51-.06,1.6,1.6,0,0,1,.79.2A1.51,1.51,0,0,1,38,333a2,2,0,0,1,.2.89,2.48,2.48,0,0,1-.09.68,3.81,3.81,0,0,1-.19.5l-.27.47c-.2.34-.41.65-.63,1H38.6Z" style="fill: #fff" />
    </g>
    <g id="pips_-_fewest" data-name="pips - fewest">
      <g style="clip-path: url(#clip-path)">
        <g style="clip-path: url(#clip-path)">
          <path d="M34.62,36.52l.71-1.24a13.86,13.86,0,0,0-5.77-1.54v1.43a12.39,12.39,0,0,1,5.06,1.35" />
          <path d="M39.41,40.85l1.24-.71a14,14,0,0,0-4.23-4.22l-.71,1.23a12.55,12.55,0,0,1,3.7,3.7" />
          <path d="M22.14,37.15l-.71-1.23a14,14,0,0,0-4.23,4.22l1.24.71a12.55,12.55,0,0,1,3.7-3.7" />
          <path d="M41.4,47h1.43a13.83,13.83,0,0,0-1.55-5.77L40.05,42A12.47,12.47,0,0,1,41.4,47" />
          <path d="M28.29,35.17V33.74a13.86,13.86,0,0,0-5.77,1.54l.71,1.24a12.39,12.39,0,0,1,5.06-1.35" />
          <path d="M18.44,54.43l-1.24.71a14,14,0,0,0,4.23,4.22l.71-1.23a12.55,12.55,0,0,1-3.7-3.7" />
          <path d="M35.71,58.13l.71,1.23a14,14,0,0,0,4.23-4.22l-1.24-.71a12.55,12.55,0,0,1-3.7,3.7" />
          <path d="M41.4,48.27a12.47,12.47,0,0,1-1.35,5.06l1.23.71a13.83,13.83,0,0,0,1.55-5.77Z" />
          <path d="M16.45,48.27H15A13.83,13.83,0,0,0,16.57,54l1.23-.71a12.47,12.47,0,0,1-1.35-5.06" />
          <path d="M17.8,42l-1.23-.71A13.83,13.83,0,0,0,15,47h1.43A12.47,12.47,0,0,1,17.8,42" />
        </g>
      </g>
    </g>
    <g>
      <path d="M26.93,64.83a2.27,2.27,0,0,1-.11.73,2.11,2.11,0,0,1-.37.67,1.77,1.77,0,0,1-.68.5,2.47,2.47,0,0,1-1,.2H23.57v2.53H21.78V62.7h3a2.48,2.48,0,0,1,1,.19,1.79,1.79,0,0,1,.68.51,2.05,2.05,0,0,1,.37.68A2.35,2.35,0,0,1,26.93,64.83Zm-1.83,0a.76.76,0,0,0-.25-.67A1.73,1.73,0,0,0,24,64h-.38v1.63H24a2.47,2.47,0,0,0,.69-.07.56.56,0,0,0,.35-.23A1,1,0,0,0,25.1,64.84Z" />
      <path d="M31.86,69.22a5.56,5.56,0,0,1-.62.24,2.43,2.43,0,0,1-.7.09A.75.75,0,0,1,30,69.4.83.83,0,0,1,29.8,69a2.13,2.13,0,0,1-.56.38,1.81,1.81,0,0,1-.8.15,1.4,1.4,0,0,1-.77-.19,1,1,0,0,1-.41-.47,1.52,1.52,0,0,1-.12-.59,1.31,1.31,0,0,1,.21-.76,1.51,1.51,0,0,1,.54-.49,7,7,0,0,1,.91-.39l.49-.18.25-.1.17-.08a1,1,0,0,0-.13-.57c-.08-.14-.27-.21-.56-.21a1.85,1.85,0,0,0-.94.26,3.46,3.46,0,0,0-.79.65V65.08a3,3,0,0,1,.62-.38,3.35,3.35,0,0,1,.7-.22,3.64,3.64,0,0,1,.74-.07,2.18,2.18,0,0,1,1.43.41A1.44,1.44,0,0,1,31.26,66v1.92a1.44,1.44,0,0,0,0,.41.17.17,0,0,0,.17.13.77.77,0,0,0,.39-.14Zm-2.15-1V67.09a4.35,4.35,0,0,0-.8.45.68.68,0,0,0-.26.55.53.53,0,0,0,.13.38.38.38,0,0,0,.29.14.56.56,0,0,0,.32-.11A2,2,0,0,0,29.71,68.26Z" />
      <path d="M36.67,69.46H35.12V66.78a1.92,1.92,0,0,0-.12-.71.49.49,0,0,0-.51-.31.74.74,0,0,0-.34.08,1.71,1.71,0,0,0-.26.21c-.07.09-.14.17-.19.25l-.16.24v2.92H32v-5h1.54v.72a2.3,2.3,0,0,1,.74-.63,1.94,1.94,0,0,1,.82-.17c1,0,1.57.71,1.57,2.13Z" />
    </g>
  </g>
  <g /></svg>