<svg xmlns="http://www.w3.org/2000/svg" xmlns:inkscape="http://www.inkscape.org/namespaces/inkscape" xmlns:sodipodi="http://sodipodi.sourceforge.net/DTD/sodipodi-0.dtd" width="40.72794mm" height="128.58701mm" viewBox="0 0 115.44416 364.50087" version="1.1" id="svg226" sodipodi:docname="PI_info.svg" inkscape:version="1.3.2 (091e20e, 2023-11-25)">
  <defs id="defs226" />
  <sodipodi:namedview id="namedview226" pagecolor="#ffffff" bordercolor="#000000" borderopacity="0.25" inkscape:showpageshadow="2" inkscape:pageopacity="0.0" inkscape:pagecheckerboard="0" inkscape:deskcolor="#d1d1d1" inkscape:document-units="mm" showgrid="false" inkscape:zoom="2.2519928" inkscape:cx="133.88142" inkscape:cy="223.80178" inkscape:window-width="2512" inkscape:window-height="1387" inkscape:window-x="50" inkscape:window-y="25" inkscape:window-maximized="1" inkscape:current-layer="components" />
  <g id="faceplate" transform="translate(0.00208206,0.005)">
    <rect x="0.12" y="0.12" width="115.2" height="364.25" style="fill:#ededed;stroke:#9d9d9e;stroke-width:0.25px;stroke-miterlimit:10" id="rect1" />
    <path d="m 57.02,217.92 c 0,-6.73 -5.2,-12.94 -11.93,-12.94 H 17.18 c -6.73,0 -12.55,6.1 -12.55,12.83 v 76.26 h 52.39 z" style="fill:#171717" id="path1" />
    <path d="m 30.93,34.53 c -0.83,0 -1.65,0.07 -2.45,0.17 l -0.39,-2.21 c 0.93,-0.12 1.88,-0.19 2.84,-0.19 0.96,0 1.91,0.07 2.84,0.19 l -0.39,2.21 c -0.81,-0.1 -1.62,-0.17 -2.45,-0.17 z" style="fill:#171717" id="path2" />
    <path d="M 16.43,40.9 14.7,39.45 c 1.28,-1.4 2.74,-2.63 4.34,-3.66 l 1.12,1.94 c -1.38,0.9 -2.62,1.96 -3.73,3.17 z" style="fill:#171717" id="path3" />
    <path d="m 21.9,36.73 -1.12,-1.95 c 1.67,-0.87 3.46,-1.53 5.34,-1.96 l 0.39,2.21 c -1.62,0.37 -3.16,0.94 -4.61,1.69 z" style="fill:#171717" id="path4" />
    <path d="m 12.7,46.67 -2.1,-0.76 c 0.73,-1.77 1.69,-3.42 2.83,-4.92 l 1.73,1.45 c -0.98,1.3 -1.82,2.71 -2.46,4.23 z" style="fill:#171717" id="path5" />
    <path d="m 35.35,35.04 0.39,-2.21 c 1.88,0.42 3.67,1.08 5.34,1.95 l -1.12,1.95 c -1.44,-0.74 -2.98,-1.31 -4.6,-1.69 z" style="fill:#171717" id="path6" />
    <path d="M 11.21,53.36 H 8.95 c 0.08,-1.93 0.41,-3.8 0.96,-5.58 l 2.11,0.77 c -0.47,1.53 -0.73,3.15 -0.81,4.81 z" style="fill:#171717" id="path7" />
    <path d="m 12.07,60.16 -2.1,0.76 C 9.4,59.13 9.06,57.27 8.96,55.36 h 2.23 c 0.09,1.65 0.39,3.25 0.88,4.8 z" style="fill:#171717" id="path8" />
    <path d="m 15.21,66.24 -1.71,1.44 c -1.15,-1.5 -2.11,-3.14 -2.84,-4.88 l 2.1,-0.77 c 0.64,1.5 1.46,2.91 2.45,4.2 z" style="fill:#171717" id="path9" />
    <path d="m 46.7,42.43 1.73,-1.45 c 1.14,1.5 2.1,3.15 2.83,4.92 l -2.1,0.76 C 48.52,45.14 47.68,43.73 46.7,42.43 Z" style="fill:#171717" id="path10" />
    <path d="m 49.83,48.55 2.11,-0.77 c 0.55,1.78 0.88,3.65 0.96,5.58 H 50.64 C 50.56,51.7 50.3,50.08 49.83,48.55 Z" style="fill:#171717" id="path11" />
    <path d="m 50.65,55.36 h 2.23 c -0.09,1.91 -0.44,3.78 -1.01,5.56 l -2.1,-0.77 c 0.48,-1.54 0.79,-3.15 0.88,-4.8 z" style="fill:#171717" id="path12" />
    <path d="m 49.09,62.04 2.11,0.77 c -0.73,1.74 -1.69,3.38 -2.84,4.88 l -1.71,-1.44 c 0.99,-1.3 1.81,-2.71 2.45,-4.2 z" style="fill:#171717" id="path13" />
    <path d="m 20.23,70.89 -1.12,1.93 C 17.5,71.79 16.06,70.58 14.79,69.2 l 1.71,-1.44 c 1.1,1.18 2.34,2.23 3.72,3.12 z" style="fill:#171717" id="path14" />
    <path d="m 45.35,67.77 1.71,1.44 c -1.27,1.37 -2.71,2.59 -4.32,3.62 L 41.62,70.9 c 1.38,-0.89 2.62,-1.94 3.72,-3.12 z" style="fill:#171717" id="path15" />
    <path d="m 41.68,37.73 1.12,-1.94 c 1.6,1.03 3.06,2.26 4.34,3.66 L 45.41,40.9 C 44.3,39.7 43.05,38.63 41.67,37.73 Z" style="fill:#171717" id="path16" />
    <path d="m 30.9,141.05 c -0.52,0 -1.04,0.04 -1.54,0.11 l -0.25,-1.39 c 0.59,-0.08 1.18,-0.12 1.79,-0.12 0.61,0 1.2,0.04 1.79,0.12 l -0.24,1.39 c -0.51,-0.06 -1.02,-0.11 -1.54,-0.11 z" style="fill:#171717" id="path17" />
    <path d="m 21.79,145.05 -1.09,-0.91 c 0.8,-0.88 1.72,-1.65 2.73,-2.3 l 0.7,1.22 c -0.86,0.56 -1.65,1.24 -2.35,1.99 z" style="fill:#171717" id="path18" />
    <path d="m 25.23,142.43 -0.71,-1.22 c 1.05,-0.55 2.17,-0.96 3.36,-1.23 l 0.25,1.39 c -1.02,0.23 -1.99,0.59 -2.9,1.06 z" style="fill:#171717" id="path19" />
    <path d="m 19.44,148.68 -1.32,-0.48 c 0.46,-1.11 1.06,-2.15 1.78,-3.09 l 1.09,0.91 c -0.62,0.82 -1.14,1.7 -1.54,2.66 z" style="fill:#171717" id="path20" />
    <path d="m 33.68,141.37 0.25,-1.39 c 1.18,0.27 2.31,0.68 3.36,1.23 l -0.71,1.22 c -0.91,-0.47 -1.88,-0.83 -2.89,-1.06 z" style="fill:#171717" id="path21" />
    <path d="m 18.51,152.89 h -1.42 c 0.05,-1.21 0.26,-2.39 0.6,-3.51 l 1.32,0.48 c -0.29,0.96 -0.46,1.98 -0.51,3.03 z" style="fill:#171717" id="path22" />
    <path d="m 19.05,157.16 -1.32,0.48 c -0.36,-1.12 -0.57,-2.3 -0.63,-3.5 h 1.4 c 0.06,1.04 0.25,2.05 0.55,3.02 z" style="fill:#171717" id="path23" />
    <path d="m 21.02,160.99 -1.08,0.9 c -0.72,-0.94 -1.32,-1.97 -1.79,-3.07 l 1.32,-0.48 c 0.4,0.94 0.92,1.83 1.54,2.64 z" style="fill:#171717" id="path24" />
    <path d="m 40.82,146.02 1.09,-0.91 c 0.72,0.94 1.32,1.98 1.78,3.09 l -1.32,0.48 c -0.4,-0.96 -0.93,-1.84 -1.54,-2.66 z" style="fill:#171717" id="path25" />
    <path d="m 42.79,149.86 1.33,-0.48 c 0.35,1.12 0.55,2.29 0.6,3.51 H 43.3 c -0.05,-1.05 -0.22,-2.06 -0.51,-3.03 z" style="fill:#171717" id="path26" />
    <path d="m 43.31,154.15 h 1.41 c -0.06,1.2 -0.28,2.38 -0.63,3.5 l -1.32,-0.48 c 0.3,-0.97 0.49,-1.98 0.55,-3.02 z" style="fill:#171717" id="path27" />
    <path d="m 42.32,158.34 1.32,0.48 c -0.46,1.09 -1.06,2.12 -1.79,3.07 l -1.08,-0.9 c 0.62,-0.82 1.14,-1.7 1.54,-2.64 z" style="fill:#171717" id="path28" />
    <path d="m 24.18,163.91 -0.7,1.22 c -1.01,-0.65 -1.92,-1.41 -2.72,-2.27 l 1.08,-0.9 c 0.69,0.74 1.47,1.4 2.34,1.96 z" style="fill:#171717" id="path29" />
    <path d="m 39.97,161.94 1.08,0.9 c -0.8,0.86 -1.71,1.63 -2.72,2.27 l -0.7,-1.22 c 0.87,-0.56 1.65,-1.22 2.34,-1.96 z" style="fill:#171717" id="path30" />
    <path d="m 37.66,143.06 0.71,-1.22 c 1.01,0.65 1.93,1.42 2.73,2.3 l -1.09,0.91 c -0.7,-0.76 -1.48,-1.43 -2.35,-1.99 z" style="fill:#171717" id="path31" />
    <path d="m 30.9,96.89 c -0.52,0 -1.04,0.04 -1.54,0.11 l -0.25,-1.39 c 0.59,-0.08 1.18,-0.12 1.79,-0.12 0.61,0 1.2,0.04 1.79,0.12 L 32.45,97 c -0.51,-0.06 -1.02,-0.11 -1.54,-0.11 z" style="fill:#171717" id="path32" />
    <path d="M 21.79,100.89 20.7,99.98 c 0.8,-0.88 1.72,-1.65 2.73,-2.3 l 0.7,1.22 c -0.86,0.56 -1.65,1.24 -2.35,1.99 z" style="fill:#171717" id="path33" />
    <path d="m 25.23,98.27 -0.71,-1.22 c 1.05,-0.55 2.17,-0.96 3.36,-1.23 l 0.25,1.39 c -1.02,0.23 -1.99,0.59 -2.9,1.06 z" style="fill:#171717" id="path34" />
    <path d="m 19.44,104.52 -1.32,-0.48 c 0.46,-1.11 1.06,-2.15 1.78,-3.09 l 1.09,0.91 c -0.62,0.82 -1.14,1.71 -1.54,2.66 z" style="fill:#171717" id="path35" />
    <path d="m 33.68,97.21 0.25,-1.39 c 1.18,0.26 2.31,0.68 3.36,1.23 l -0.71,1.22 C 35.67,97.8 34.7,97.44 33.69,97.21 Z" style="fill:#171717" id="path36" />
    <path d="m 18.51,108.73 h -1.42 c 0.05,-1.22 0.26,-2.39 0.6,-3.51 l 1.32,0.48 c -0.29,0.96 -0.46,1.98 -0.51,3.03 z" style="fill:#171717" id="path37" />
    <path d="m 19.05,113 -1.32,0.48 c -0.36,-1.12 -0.57,-2.3 -0.63,-3.5 h 1.4 c 0.06,1.03 0.25,2.05 0.55,3.02 z" style="fill:#171717" id="path38" />
    <path d="m 21.02,116.83 -1.08,0.9 c -0.72,-0.94 -1.32,-1.97 -1.79,-3.07 l 1.32,-0.48 c 0.4,0.94 0.92,1.83 1.54,2.64 z" style="fill:#171717" id="path39" />
    <path d="m 40.82,101.86 1.09,-0.91 c 0.72,0.94 1.32,1.98 1.78,3.09 l -1.32,0.48 c -0.4,-0.96 -0.93,-1.84 -1.54,-2.66 z" style="fill:#171717" id="path40" />
    <path d="m 42.79,105.7 1.33,-0.48 c 0.35,1.12 0.55,2.29 0.6,3.51 H 43.3 c -0.05,-1.05 -0.22,-2.06 -0.51,-3.03 z" style="fill:#171717" id="path41" />
    <path d="m 43.31,109.99 h 1.41 c -0.06,1.2 -0.28,2.38 -0.63,3.5 l -1.32,-0.48 c 0.3,-0.97 0.49,-1.98 0.55,-3.02 z" style="fill:#171717" id="path42" />
    <path d="m 42.32,114.18 1.32,0.48 c -0.46,1.09 -1.06,2.12 -1.79,3.06 l -1.08,-0.9 c 0.62,-0.82 1.14,-1.7 1.54,-2.64 z" style="fill:#171717" id="path43" />
    <path d="m 24.18,119.75 -0.7,1.22 c -1.01,-0.65 -1.92,-1.41 -2.72,-2.27 l 1.08,-0.9 c 0.69,0.74 1.47,1.4 2.34,1.96 z" style="fill:#171717" id="path44" />
    <path d="m 39.97,117.78 1.08,0.9 c -0.8,0.86 -1.71,1.63 -2.72,2.27 l -0.7,-1.22 c 0.87,-0.56 1.65,-1.22 2.34,-1.96 z" style="fill:#171717" id="path45" />
    <path d="m 37.66,98.9 0.71,-1.22 c 1.01,0.65 1.93,1.42 2.73,2.3 l -1.09,0.91 c -0.7,-0.75 -1.48,-1.43 -2.35,-1.99 z" style="fill:#171717" id="path46" />
    <g id="g48">
      <path d="m 57.46,314.95 v 0 -21.33 c 0,-2.32 -1.02,-4.41 -2.77,-5.73 -0.3,-0.23 -29.66,-23.23 -39.9,-31.37 v 0 c -1.1,-0.9 -2.48,-1.37 -3.9,-1.37 -3.37,0 -6.13,2.62 -6.17,5.98 v 0 53.83 0 6.73 c 0,7.1 5.77,12.87 12.87,12.87 h 27.02 c 7.1,0 12.87,-5.77 12.87,-12.87 v -6.73 z M 5.72,261.2 V 321" style="fill:#171717" id="path47" />
      <path d="M 44.6,335.05 H 17.58 c -7.37,0 -13.37,-6 -13.37,-13.37 l 0.03,-61.06 c 0.29,-3.39 3.12,-5.98 6.64,-5.98 1.39,0 2.75,0.43 3.85,1.21 v 0 c 0,0 0.35,0.27 0.35,0.27 10.31,8.19 39.62,31.15 39.9,31.36 1.88,1.41 2.96,3.65 2.96,6.12 v 28.07 c 0,7.37 -5.99,13.37 -13.36,13.37 z M 5.21,315.45 v 6.23 c 0,6.82 5.55,12.37 12.37,12.37 H 44.6 c 6.82,0 12.37,-5.55 12.37,-12.37 v -28.07 c 0,-2.16 -0.95,-4.1 -2.58,-5.33 -0.28,-0.22 -28.95,-22.67 -39.56,-31.1 v 0 c 0,0 -0.35,-0.28 -0.35,-0.28 -0.99,-0.81 -2.26,-1.26 -3.58,-1.26 -3.14,0 -5.63,2.41 -5.67,5.48 v 0.41 c 0,0 0,53.91 0,53.91 z" style="fill:#ededed" id="path48" />
    </g>
    <g id="g50">
      <path d="m 5.13,237.39 h 17.81 c 6.73,0 12.24,-5.51 12.24,-12.24 V 205.56 H 17.37 c -6.73,0 -12.24,5.51 -12.24,12.24 z" style="fill:#ededed" id="path49" />
      <path d="M 22.94,237.89 H 4.63 V 217.8 c 0,-7.03 5.71,-12.74 12.74,-12.74 h 18.32 v 20.09 c 0,7.02 -5.71,12.74 -12.74,12.74 z m -17.31,-1 h 17.31 c 6.47,0 11.74,-5.27 11.74,-11.74 V 206.06 H 17.36 c -6.47,0 -11.74,5.27 -11.74,11.74 v 19.09 z" style="fill:#171717" id="path50" />
    </g>
    <g id="g52">
      <path d="M 17.23,246.01 H 15.8 v -5.78 h 1.43 z" style="fill:#ffffff" id="path51" />
      <path d="M 23.57,246.01 H 22.3 l -2.46,-3.22 v 3.22 h -1.42 v -5.78 h 1.27 l 2.45,3.2 v -3.2 h 1.42 v 5.78 z" style="fill:#ffffff" id="path52" />
    </g>
    <path d="m 13.13,271.51 h -1.71 v 1.86 h -0.97 v -1.86 H 8.74 v -1.05 h 1.71 v -1.86 h 0.97 v 1.86 h 1.71 z" style="fill:#ffffff" id="path53" />
    <path d="m 52.41,302.47 h -4.09 v -1.19 h 4.09 z" style="fill:#ffffff" id="path54" />
    <g id="g65">
      <path d="m 13.04,82.09 c 0,0.46 -0.1,0.87 -0.29,1.21 -0.2,0.34 -0.47,0.6 -0.81,0.78 -0.35,0.18 -0.75,0.27 -1.2,0.27 -0.12,0 -0.28,-0.01 -0.46,-0.03 C 10.1,84.3 9.85,84.25 9.55,84.16 9.25,84.07 8.93,83.94 8.6,83.76 v -1.82 c 0.31,0.23 0.61,0.43 0.91,0.58 0.3,0.15 0.62,0.23 0.96,0.23 0.31,0 0.52,-0.06 0.61,-0.19 0.09,-0.13 0.14,-0.25 0.14,-0.36 0,-0.2 -0.08,-0.37 -0.24,-0.51 C 10.82,81.55 10.59,81.41 10.29,81.26 9.96,81.09 9.66,80.9 9.41,80.7 9.16,80.5 8.95,80.24 8.79,79.94 8.63,79.64 8.55,79.28 8.55,78.86 8.55,78.44 8.63,78.1 8.79,77.77 8.95,77.45 9.2,77.19 9.53,77 c 0.33,-0.19 0.73,-0.29 1.21,-0.29 0.34,0 0.65,0.04 0.94,0.12 0.29,0.08 0.53,0.17 0.71,0.27 0.18,0.1 0.32,0.18 0.39,0.24 v 1.74 c -0.25,-0.22 -0.53,-0.41 -0.83,-0.58 -0.3,-0.17 -0.63,-0.26 -0.98,-0.26 -0.23,0 -0.39,0.05 -0.5,0.16 -0.1,0.11 -0.15,0.24 -0.15,0.4 0,0.15 0.05,0.27 0.15,0.38 0.1,0.11 0.29,0.24 0.55,0.39 0.47,0.27 0.84,0.51 1.12,0.72 0.28,0.21 0.5,0.46 0.66,0.74 0.16,0.28 0.24,0.63 0.24,1.05 z" style="fill:#171717" id="path55" />
      <path d="m 18.38,81.99 h -3.15 c 0.06,0.33 0.21,0.6 0.45,0.81 0.24,0.21 0.51,0.32 0.82,0.32 0.53,0 1.12,-0.18 1.77,-0.55 v 1.2 c -0.23,0.15 -0.51,0.28 -0.84,0.4 -0.33,0.12 -0.75,0.18 -1.26,0.18 -0.55,0 -1.02,-0.13 -1.41,-0.38 -0.39,-0.25 -0.68,-0.59 -0.87,-1.02 -0.19,-0.43 -0.29,-0.92 -0.29,-1.46 0,-0.54 0.1,-1.02 0.29,-1.44 0.19,-0.42 0.48,-0.76 0.87,-1 0.39,-0.24 0.86,-0.36 1.41,-0.36 0.36,0 0.71,0.1 1.05,0.29 0.34,0.19 0.62,0.5 0.83,0.94 0.22,0.43 0.33,0.99 0.33,1.68 z m -1.49,-0.95 c 0,-0.35 -0.07,-0.63 -0.21,-0.84 -0.14,-0.21 -0.35,-0.31 -0.61,-0.31 -0.26,0 -0.48,0.11 -0.64,0.32 -0.16,0.21 -0.24,0.49 -0.24,0.83 h 1.71 z" style="fill:#171717" id="path56" />
      <path d="m 23.7,84.25 h -1.58 v -2.94 c 0,-0.3 -0.04,-0.56 -0.12,-0.79 -0.08,-0.22 -0.26,-0.33 -0.53,-0.33 -0.13,0 -0.24,0.03 -0.34,0.09 -0.1,0.06 -0.19,0.14 -0.26,0.23 -0.07,0.09 -0.14,0.18 -0.2,0.27 -0.06,0.09 -0.11,0.18 -0.16,0.27 v 3.21 H 18.93 V 78.8 h 1.58 v 0.78 c 0.25,-0.33 0.5,-0.55 0.75,-0.68 0.25,-0.13 0.53,-0.2 0.84,-0.2 1.07,0 1.61,0.78 1.61,2.35 v 3.21 z" style="fill:#171717" id="path57" />
      <path d="m 27.91,82.66 c 0,0.5 -0.15,0.91 -0.45,1.22 -0.3,0.31 -0.75,0.47 -1.34,0.47 -0.33,0 -0.62,-0.04 -0.88,-0.11 -0.26,-0.07 -0.54,-0.18 -0.84,-0.31 v -1.37 c 0.27,0.19 0.5,0.33 0.69,0.42 0.2,0.1 0.41,0.14 0.65,0.14 0.39,0 0.59,-0.13 0.59,-0.4 0,-0.09 -0.03,-0.17 -0.09,-0.24 -0.06,-0.07 -0.16,-0.15 -0.3,-0.24 -0.14,-0.09 -0.33,-0.19 -0.57,-0.31 -0.29,-0.16 -0.54,-0.37 -0.75,-0.63 -0.21,-0.26 -0.31,-0.59 -0.31,-0.97 0,-0.27 0.07,-0.53 0.2,-0.78 0.14,-0.25 0.34,-0.46 0.62,-0.61 0.28,-0.16 0.61,-0.24 1,-0.24 0.09,0 0.21,0 0.36,0.02 0.15,0.02 0.33,0.06 0.55,0.13 0.22,0.07 0.43,0.16 0.63,0.29 v 1.33 C 27.58,80.4 27.5,80.35 27.44,80.3 c -0.06,-0.05 -0.15,-0.1 -0.25,-0.16 -0.1,-0.06 -0.23,-0.11 -0.37,-0.15 -0.14,-0.04 -0.29,-0.07 -0.44,-0.07 -0.18,0 -0.31,0.04 -0.37,0.13 -0.07,0.09 -0.1,0.17 -0.1,0.26 0,0.09 0.04,0.17 0.11,0.25 0.07,0.08 0.23,0.17 0.47,0.29 0.35,0.16 0.63,0.33 0.84,0.51 0.21,0.18 0.36,0.36 0.45,0.57 0.09,0.21 0.13,0.45 0.13,0.73 z" style="fill:#171717" id="path58" />
      <path d="M 30.19,84.25 H 28.6 v -5.46 h 1.59 z m -0.13,-6.72 c 0,0.23 -0.07,0.42 -0.2,0.57 -0.13,0.15 -0.29,0.24 -0.47,0.24 -0.12,0 -0.23,-0.04 -0.34,-0.11 -0.1,-0.07 -0.18,-0.17 -0.24,-0.29 -0.06,-0.12 -0.09,-0.26 -0.09,-0.41 0,-0.22 0.06,-0.41 0.2,-0.57 0.13,-0.16 0.29,-0.24 0.47,-0.24 0.18,0 0.34,0.08 0.47,0.24 0.13,0.16 0.2,0.35 0.2,0.57 z" style="fill:#171717" id="path59" />
      <path d="m 34.57,83.93 c -0.17,0.1 -0.39,0.19 -0.68,0.28 -0.29,0.09 -0.56,0.13 -0.83,0.13 -1.14,0 -1.71,-0.68 -1.71,-2.04 v -2.18 h -0.71 v -0.34 l 2.12,-2.64 h 0.18 v 1.64 h 1.51 v 1.34 h -1.51 v 1.75 c 0,0.2 0,0.37 0.03,0.49 0.02,0.12 0.08,0.23 0.17,0.31 0.1,0.08 0.24,0.13 0.43,0.13 0.25,0 0.58,-0.13 0.99,-0.39 v 1.51 z" style="fill:#171717" id="path60" />
      <path d="M 36.69,84.25 H 35.1 v -5.46 h 1.59 z m -0.13,-6.72 c 0,0.23 -0.07,0.42 -0.2,0.57 -0.13,0.15 -0.29,0.24 -0.47,0.24 -0.12,0 -0.23,-0.04 -0.34,-0.11 -0.1,-0.07 -0.18,-0.17 -0.24,-0.29 -0.06,-0.12 -0.09,-0.26 -0.09,-0.41 0,-0.22 0.06,-0.41 0.2,-0.57 0.13,-0.16 0.29,-0.24 0.47,-0.24 0.18,0 0.34,0.08 0.47,0.24 0.13,0.16 0.2,0.35 0.2,0.57 z" style="fill:#171717" id="path61" />
      <path d="m 42.26,78.79 -2.04,5.46 h -1.17 l -1.99,-5.46 h 1.7 l 0.93,2.86 1.03,-2.86 z" style="fill:#171717" id="path62" />
      <path d="m 44.21,84.25 h -1.59 v -5.46 h 1.59 z m -0.13,-6.72 c 0,0.23 -0.07,0.42 -0.2,0.57 -0.13,0.15 -0.29,0.24 -0.47,0.24 -0.12,0 -0.23,-0.04 -0.34,-0.11 -0.1,-0.07 -0.18,-0.17 -0.24,-0.29 -0.06,-0.12 -0.09,-0.26 -0.09,-0.41 0,-0.22 0.06,-0.41 0.2,-0.57 0.13,-0.16 0.29,-0.24 0.47,-0.24 0.18,0 0.34,0.08 0.47,0.24 0.13,0.16 0.2,0.35 0.2,0.57 z" style="fill:#171717" id="path63" />
      <path d="m 48.59,83.93 c -0.17,0.1 -0.39,0.19 -0.68,0.28 -0.29,0.09 -0.56,0.13 -0.83,0.13 -1.14,0 -1.71,-0.68 -1.71,-2.04 v -2.18 h -0.71 v -0.34 l 2.12,-2.64 h 0.18 v 1.64 h 1.51 v 1.34 h -1.51 v 1.75 c 0,0.2 0,0.37 0.03,0.49 0.02,0.12 0.08,0.23 0.17,0.31 0.1,0.08 0.24,0.13 0.43,0.13 0.25,0 0.58,-0.13 0.99,-0.39 v 1.51 z" style="fill:#171717" id="path64" />
      <path d="m 53.83,78.79 -3.04,7.94 h -1.6 l 1.23,-3.2 -1.77,-4.75 h 1.7 l 0.91,2.71 1.03,-2.71 h 1.54 z" style="fill:#171717" id="path65" />
    </g>
    <g id="g72">
      <path d="m 21.36,129.07 c 0,0.41 -0.09,0.77 -0.26,1.07 -0.17,0.3 -0.41,0.53 -0.72,0.69 -0.31,0.16 -0.67,0.24 -1.07,0.24 -0.11,0 -0.25,0 -0.41,-0.03 -0.16,-0.03 -0.38,-0.07 -0.65,-0.15 -0.27,-0.08 -0.55,-0.2 -0.84,-0.35 v -1.62 c 0.27,0.21 0.54,0.38 0.81,0.51 0.27,0.13 0.55,0.2 0.85,0.2 0.28,0 0.46,-0.06 0.54,-0.17 0.08,-0.11 0.12,-0.22 0.12,-0.32 0,-0.18 -0.07,-0.33 -0.21,-0.45 -0.14,-0.12 -0.35,-0.25 -0.61,-0.38 -0.3,-0.15 -0.56,-0.32 -0.78,-0.5 -0.22,-0.18 -0.41,-0.4 -0.55,-0.67 -0.14,-0.27 -0.21,-0.59 -0.21,-0.96 0,-0.37 0.07,-0.68 0.21,-0.96 0.14,-0.29 0.36,-0.52 0.66,-0.69 0.29,-0.17 0.65,-0.26 1.08,-0.26 0.3,0 0.58,0.04 0.84,0.11 0.26,0.07 0.47,0.15 0.63,0.24 0.16,0.09 0.28,0.16 0.34,0.21 v 1.55 c -0.22,-0.19 -0.47,-0.37 -0.74,-0.52 -0.27,-0.15 -0.56,-0.23 -0.87,-0.23 -0.2,0 -0.35,0.05 -0.44,0.14 -0.09,0.1 -0.14,0.21 -0.14,0.35 0,0.13 0.04,0.24 0.14,0.34 0.1,0.1 0.25,0.21 0.49,0.35 0.42,0.24 0.75,0.45 1,0.64 0.25,0.19 0.45,0.41 0.59,0.66 0.14,0.25 0.21,0.56 0.21,0.93 z" style="fill:#171717" id="path66" />
      <path d="M 26.21,130.99 H 24.8 v -0.69 c -0.2,0.26 -0.41,0.46 -0.62,0.58 -0.22,0.13 -0.48,0.19 -0.79,0.19 -0.6,0 -0.99,-0.21 -1.16,-0.64 -0.18,-0.43 -0.27,-0.91 -0.27,-1.45 v -2.85 h 1.41 v 2.62 c 0,0.26 0.04,0.5 0.11,0.69 0.07,0.2 0.23,0.3 0.47,0.3 0.21,0 0.37,-0.07 0.49,-0.21 0.12,-0.14 0.24,-0.33 0.37,-0.55 v -2.85 h 1.41 v 4.85 z" style="fill:#171717" id="path67" />
      <path d="m 30.01,129.57 c 0,0.44 -0.13,0.81 -0.4,1.08 -0.27,0.28 -0.66,0.42 -1.19,0.42 -0.29,0 -0.56,-0.03 -0.79,-0.1 -0.23,-0.07 -0.48,-0.16 -0.75,-0.28 v -1.22 c 0.24,0.17 0.44,0.29 0.62,0.38 0.18,0.09 0.37,0.13 0.57,0.13 0.35,0 0.53,-0.12 0.53,-0.35 0,-0.08 -0.03,-0.15 -0.08,-0.21 -0.05,-0.06 -0.14,-0.13 -0.27,-0.21 -0.13,-0.08 -0.29,-0.17 -0.51,-0.28 -0.26,-0.14 -0.48,-0.33 -0.66,-0.56 -0.18,-0.23 -0.27,-0.52 -0.27,-0.86 0,-0.24 0.06,-0.47 0.18,-0.7 0.12,-0.22 0.3,-0.4 0.55,-0.55 0.25,-0.15 0.54,-0.21 0.89,-0.21 0.08,0 0.19,0 0.32,0.02 0.13,0.01 0.29,0.05 0.49,0.11 0.2,0.06 0.38,0.15 0.56,0.26 v 1.19 c -0.08,-0.06 -0.15,-0.11 -0.21,-0.15 -0.06,-0.04 -0.13,-0.09 -0.22,-0.14 -0.09,-0.05 -0.2,-0.1 -0.33,-0.14 -0.13,-0.04 -0.26,-0.06 -0.39,-0.06 -0.16,0 -0.27,0.04 -0.33,0.11 -0.06,0.07 -0.09,0.15 -0.09,0.23 0,0.08 0.03,0.15 0.09,0.22 0.06,0.07 0.2,0.15 0.42,0.25 0.31,0.15 0.56,0.3 0.75,0.45 0.19,0.15 0.32,0.32 0.4,0.51 0.08,0.18 0.12,0.4 0.12,0.65 z" style="fill:#171717" id="path68" />
      <path d="m 33.69,130.71 c -0.15,0.09 -0.35,0.17 -0.6,0.25 -0.26,0.08 -0.5,0.12 -0.74,0.12 -1.01,0 -1.52,-0.6 -1.52,-1.81 v -1.94 h -0.64 v -0.3 l 1.89,-2.34 h 0.16 v 1.45 h 1.34 v 1.19 h -1.34 v 1.55 c 0,0.18 0,0.33 0.03,0.44 0.03,0.11 0.07,0.2 0.15,0.28 0.08,0.08 0.21,0.11 0.38,0.11 0.22,0 0.52,-0.11 0.88,-0.34 v 1.34 z" style="fill:#171717" id="path69" />
      <path d="m 38.21,130.74 c -0.21,0.1 -0.4,0.18 -0.57,0.24 -0.17,0.06 -0.38,0.09 -0.63,0.09 -0.25,0 -0.39,-0.05 -0.48,-0.15 -0.09,-0.1 -0.16,-0.22 -0.2,-0.36 -0.15,0.15 -0.32,0.27 -0.5,0.37 -0.18,0.1 -0.43,0.15 -0.73,0.15 -0.3,0 -0.52,-0.06 -0.7,-0.18 -0.18,-0.12 -0.3,-0.28 -0.38,-0.46 -0.07,-0.19 -0.11,-0.38 -0.11,-0.57 0,-0.3 0.06,-0.55 0.19,-0.74 0.12,-0.2 0.29,-0.35 0.5,-0.48 0.21,-0.12 0.48,-0.25 0.83,-0.39 0.2,-0.08 0.34,-0.13 0.44,-0.17 0.1,-0.04 0.18,-0.07 0.22,-0.09 0.05,-0.02 0.1,-0.05 0.16,-0.09 0,-0.24 -0.04,-0.42 -0.12,-0.55 -0.08,-0.13 -0.25,-0.2 -0.51,-0.2 -0.31,0 -0.59,0.08 -0.86,0.25 -0.26,0.17 -0.5,0.38 -0.72,0.64 v -1.32 c 0.17,-0.15 0.36,-0.28 0.57,-0.37 0.2,-0.1 0.42,-0.17 0.64,-0.22 0.22,-0.05 0.45,-0.07 0.67,-0.07 0.58,0 1.01,0.14 1.3,0.41 0.29,0.27 0.44,0.65 0.44,1.12 v 1.87 c 0,0.18 0.01,0.31 0.04,0.4 0.03,0.09 0.08,0.13 0.15,0.13 0.09,0 0.21,-0.05 0.36,-0.14 v 0.9 z m -1.96,-0.93 v -1.15 c -0.33,0.17 -0.58,0.31 -0.73,0.45 -0.15,0.14 -0.23,0.31 -0.23,0.54 0,0.16 0.04,0.29 0.12,0.37 0.08,0.09 0.17,0.13 0.27,0.13 0.1,0 0.19,-0.03 0.29,-0.1 0.1,-0.06 0.19,-0.14 0.29,-0.24 z" style="fill:#171717" id="path70" />
      <path d="m 40.03,130.99 h -1.41 v -4.85 h 1.41 z m -0.11,-5.97 c 0,0.2 -0.06,0.37 -0.18,0.51 -0.12,0.14 -0.26,0.21 -0.42,0.21 -0.11,0 -0.21,-0.03 -0.3,-0.1 -0.09,-0.07 -0.16,-0.15 -0.21,-0.26 -0.05,-0.11 -0.08,-0.23 -0.08,-0.36 0,-0.2 0.06,-0.37 0.17,-0.51 0.12,-0.14 0.25,-0.21 0.42,-0.21 0.17,0 0.3,0.07 0.42,0.21 0.12,0.14 0.18,0.31 0.18,0.51 z" style="fill:#171717" id="path71" />
      <path d="m 45.03,130.99 h -1.41 v -2.62 c 0,-0.27 -0.04,-0.5 -0.11,-0.7 -0.07,-0.2 -0.23,-0.3 -0.47,-0.3 -0.12,0 -0.21,0.03 -0.3,0.08 -0.09,0.05 -0.17,0.12 -0.23,0.2 -0.07,0.08 -0.13,0.16 -0.17,0.24 -0.04,0.08 -0.1,0.16 -0.14,0.24 v 2.85 h -1.41 v -4.85 h 1.41 v 0.7 c 0.22,-0.29 0.44,-0.49 0.67,-0.61 0.22,-0.12 0.47,-0.17 0.74,-0.17 0.95,0 1.43,0.7 1.43,2.09 v 2.85 z" style="fill:#171717" id="path72" />
    </g>
    <g id="g81">
      <path d="m 16.39,175.53 h -3.7 v -5.99 h 3.64 v 1.2 h -2.16 v 1.1 h 2.06 v 1.21 h -2.06 v 1.28 h 2.22 v 1.21 z" style="fill:#171717" id="path73" />
      <path d="m 20.83,175.53 h -1.28 v -2.37 c 0,-0.24 -0.03,-0.45 -0.1,-0.63 -0.06,-0.18 -0.21,-0.27 -0.43,-0.27 -0.1,0 -0.2,0.02 -0.28,0.07 -0.08,0.05 -0.15,0.11 -0.21,0.18 -0.06,0.08 -0.12,0.15 -0.16,0.22 -0.04,0.07 -0.09,0.14 -0.13,0.22 v 2.58 h -1.28 v -4.4 h 1.28 v 0.63 c 0.2,-0.26 0.4,-0.45 0.6,-0.55 0.2,-0.1 0.43,-0.16 0.67,-0.16 0.87,0 1.3,0.63 1.3,1.89 v 2.58 z" style="fill:#171717" id="path74" />
      <path d="m 25.2,171.13 -1.64,4.4 h -0.94 l -1.6,-4.4 h 1.37 l 0.75,2.3 0.83,-2.3 h 1.24 z" style="fill:#171717" id="path75" />
      <path d="m 26.39,174.68 c 0,0.26 -0.07,0.48 -0.22,0.66 -0.14,0.18 -0.32,0.27 -0.54,0.27 -0.22,0 -0.39,-0.09 -0.54,-0.27 -0.15,-0.18 -0.23,-0.4 -0.23,-0.66 0,-0.26 0.08,-0.48 0.23,-0.66 0.15,-0.18 0.33,-0.27 0.54,-0.27 0.13,0 0.26,0.04 0.38,0.12 0.12,0.08 0.21,0.2 0.28,0.34 0.07,0.14 0.1,0.3 0.1,0.47 z" style="fill:#171717" id="path76" />
      <path d="m 34.06,172.64 c 0,0.61 -0.09,1.11 -0.27,1.48 -0.18,0.37 -0.4,0.67 -0.65,0.9 -0.35,0.34 -0.84,0.51 -1.48,0.51 h -2.65 v -5.99 h 2.04 c 0.31,0 0.57,0.02 0.79,0.06 0.22,0.04 0.41,0.09 0.59,0.16 0.18,0.07 0.32,0.15 0.45,0.24 0.13,0.09 0.23,0.18 0.33,0.28 0.17,0.17 0.31,0.36 0.44,0.59 0.13,0.23 0.23,0.49 0.3,0.79 0.07,0.3 0.11,0.62 0.11,0.98 z m -1.5,-0.08 c 0,-0.49 -0.08,-0.87 -0.23,-1.14 -0.15,-0.27 -0.34,-0.45 -0.55,-0.55 -0.21,-0.1 -0.43,-0.14 -0.65,-0.14 H 30.5 v 3.55 h 0.63 c 0.39,0 0.72,-0.11 1,-0.34 0.28,-0.22 0.43,-0.69 0.43,-1.39 z" style="fill:#171717" id="path77" />
      <path d="m 38.27,173.71 h -2.54 c 0.05,0.27 0.17,0.49 0.37,0.66 0.2,0.17 0.41,0.25 0.66,0.25 0.43,0 0.9,-0.15 1.42,-0.44 v 0.96 c -0.19,0.12 -0.41,0.23 -0.68,0.32 -0.26,0.1 -0.6,0.14 -1.01,0.14 -0.44,0 -0.82,-0.1 -1.13,-0.3 -0.31,-0.2 -0.54,-0.48 -0.7,-0.82 -0.15,-0.35 -0.23,-0.74 -0.23,-1.17 0,-0.43 0.08,-0.82 0.23,-1.16 0.15,-0.34 0.39,-0.61 0.7,-0.8 0.31,-0.19 0.69,-0.29 1.13,-0.29 0.29,0 0.58,0.08 0.85,0.23 0.27,0.15 0.5,0.41 0.67,0.76 0.18,0.35 0.26,0.8 0.26,1.35 z m -1.2,-0.77 c 0,-0.28 -0.06,-0.51 -0.17,-0.68 -0.11,-0.17 -0.28,-0.25 -0.49,-0.25 -0.21,0 -0.38,0.09 -0.51,0.26 -0.13,0.17 -0.2,0.4 -0.2,0.67 h 1.38 z" style="fill:#171717" id="path78" />
      <path d="m 41.79,175.33 c -0.11,0.05 -0.22,0.09 -0.34,0.14 -0.12,0.04 -0.25,0.08 -0.4,0.1 -0.15,0.03 -0.31,0.04 -0.48,0.04 -0.39,0 -0.73,-0.08 -1,-0.24 -0.27,-0.16 -0.48,-0.37 -0.63,-0.61 -0.15,-0.25 -0.25,-0.5 -0.31,-0.75 -0.06,-0.25 -0.09,-0.48 -0.09,-0.68 0,-0.2 0.03,-0.42 0.09,-0.68 0.06,-0.26 0.16,-0.5 0.3,-0.74 0.14,-0.24 0.35,-0.44 0.62,-0.6 0.27,-0.16 0.61,-0.24 1.01,-0.24 0.27,0 0.48,0.02 0.65,0.07 0.17,0.05 0.34,0.11 0.51,0.19 v 1.22 c -0.42,-0.16 -0.74,-0.24 -0.97,-0.24 -0.23,0 -0.43,0.08 -0.61,0.25 -0.18,0.17 -0.26,0.43 -0.26,0.78 0,0.23 0.04,0.43 0.13,0.59 0.09,0.16 0.2,0.28 0.33,0.35 0.13,0.07 0.27,0.11 0.4,0.11 0.13,0 0.27,-0.02 0.43,-0.07 0.16,-0.05 0.36,-0.11 0.6,-0.2 v 1.22 z" style="fill:#171717" id="path79" />
      <path d="m 45.95,175.31 c -0.19,0.09 -0.36,0.16 -0.52,0.22 -0.16,0.06 -0.35,0.08 -0.57,0.08 -0.21,0 -0.36,-0.05 -0.44,-0.14 -0.08,-0.09 -0.14,-0.2 -0.18,-0.33 -0.14,0.14 -0.29,0.25 -0.46,0.33 -0.17,0.09 -0.39,0.13 -0.66,0.13 -0.27,0 -0.47,-0.06 -0.64,-0.17 -0.16,-0.11 -0.27,-0.25 -0.34,-0.42 -0.06,-0.17 -0.1,-0.34 -0.1,-0.52 0,-0.27 0.06,-0.49 0.17,-0.67 0.11,-0.18 0.26,-0.32 0.45,-0.43 0.19,-0.11 0.44,-0.23 0.75,-0.35 0.18,-0.07 0.31,-0.12 0.4,-0.16 0.09,-0.04 0.16,-0.06 0.2,-0.08 0.04,-0.02 0.09,-0.05 0.14,-0.08 0,-0.21 -0.04,-0.38 -0.11,-0.5 -0.07,-0.12 -0.22,-0.18 -0.46,-0.18 -0.28,0 -0.54,0.07 -0.78,0.22 -0.24,0.15 -0.46,0.34 -0.65,0.58 v -1.19 c 0.16,-0.14 0.33,-0.25 0.51,-0.34 0.18,-0.09 0.38,-0.15 0.58,-0.2 0.2,-0.04 0.4,-0.06 0.61,-0.06 0.52,0 0.91,0.12 1.18,0.37 0.27,0.25 0.39,0.58 0.39,1.02 v 1.7 c 0,0.16 0.01,0.28 0.04,0.36 0.03,0.08 0.07,0.12 0.14,0.12 0.08,0 0.19,-0.04 0.32,-0.13 v 0.82 z m -1.77,-0.84 v -1.04 c -0.3,0.15 -0.52,0.28 -0.66,0.4 -0.14,0.12 -0.21,0.28 -0.21,0.49 0,0.15 0.04,0.26 0.11,0.34 0.07,0.08 0.15,0.12 0.24,0.12 0.09,0 0.17,-0.03 0.26,-0.09 0.09,-0.06 0.17,-0.13 0.26,-0.21 z" style="fill:#171717" id="path80" />
      <path d="m 50.02,171.13 -2.45,6.4 h -1.29 l 0.99,-2.57 -1.43,-3.82 h 1.37 l 0.73,2.19 0.83,-2.19 h 1.24 z" style="fill:#171717" id="path81" />
    </g>
    <path d="m 46.66,198.92 v -6.38 h -1 c 0,0.06 0.01,1.61 1.16,3.2 1.15,1.6 3.45,3.14 7.76,3.18 v -1 c -4.07,-0.05 -5.98,-1.44 -6.95,-2.77 -0.48,-0.67 -0.73,-1.33 -0.85,-1.83 -0.06,-0.25 -0.09,-0.45 -0.11,-0.59 v -0.16 c 0,0 -0.01,-0.04 -0.01,-0.04 v 0 c 0,0 -1,0 -1,0 v 6.38 h 1 v 0 z" style="fill:#171717" id="path82" />
    <path d="m 9.43,198.92 v -6.38 h -1 c 0,0 0,0.71 0.33,1.61 0.32,0.9 0.96,2.04 2.21,2.98 l 0.61,0.46 0.89,-3.88 -0.49,-0.11 -0.49,0.11 c 0,0 0.24,1.06 0.81,2.19 0.29,0.57 0.65,1.16 1.14,1.66 0.48,0.5 1.09,0.92 1.83,1.08 v 0 c 0,0 0,0 0,0 0.38,0.08 0.62,0.14 0.92,0.19 0.3,0.05 0.63,0.07 1.15,0.08 v -1 c -0.49,0 -0.75,-0.03 -0.99,-0.07 -0.24,-0.04 -0.47,-0.1 -0.88,-0.18 v 0 c -0.49,-0.11 -0.93,-0.39 -1.32,-0.8 -0.58,-0.6 -1.02,-1.46 -1.29,-2.16 -0.14,-0.35 -0.24,-0.66 -0.31,-0.88 -0.03,-0.11 -0.06,-0.2 -0.07,-0.26 l -0.02,-0.09 h -0.97 c 0,0 -0.72,3.13 -0.72,3.13 l 0.49,0.11 0.3,-0.4 c -1.07,-0.8 -1.6,-1.75 -1.87,-2.52 -0.13,-0.38 -0.2,-0.71 -0.24,-0.94 -0.02,-0.12 -0.03,-0.21 -0.03,-0.26 v -0.06 c 0,0 0,-0.01 0,-0.01 h -1 v 6.39 h 1 v 0 z" style="fill:#171717" id="path83" />
    <g id="g89">
      <path d="m 7.35,185.65 v 0.72 H 5.72 v 1.23 h 1.63 v 0.73 H 5.72 v 2.09 H 4.96 v -4.78 h 2.39 z" style="fill:#171717" id="path84" />
      <path d="m 8.87,187.17 c 0.27,0 0.52,0.07 0.74,0.21 0.22,0.14 0.39,0.33 0.52,0.58 0.12,0.25 0.18,0.53 0.18,0.85 0,0.32 -0.06,0.62 -0.18,0.87 -0.12,0.25 -0.29,0.44 -0.52,0.59 -0.23,0.15 -0.48,0.22 -0.75,0.22 -0.27,0 -0.53,-0.07 -0.75,-0.22 -0.22,-0.14 -0.39,-0.34 -0.51,-0.59 -0.12,-0.25 -0.18,-0.54 -0.18,-0.87 0,-0.33 0.06,-0.61 0.19,-0.86 0.12,-0.25 0.29,-0.44 0.52,-0.58 0.23,-0.14 0.46,-0.21 0.73,-0.21 z m -0.71,1.64 c 0,0.32 0.06,0.57 0.19,0.76 0.13,0.19 0.3,0.29 0.51,0.29 0.21,0 0.4,-0.09 0.53,-0.27 0.13,-0.18 0.19,-0.44 0.19,-0.78 0,-0.34 -0.06,-0.57 -0.2,-0.75 -0.13,-0.18 -0.3,-0.26 -0.53,-0.26 -0.21,0 -0.38,0.09 -0.51,0.28 -0.13,0.19 -0.2,0.43 -0.2,0.74 z" style="fill:#171717" id="path85" />
      <path d="m 11.21,185.65 v 4.78 h -0.69 v -4.78 z" style="fill:#171717" id="path86" />
      <path d="m 12.57,185.65 v 4.78 h -0.69 v -4.78 z" style="fill:#171717" id="path87" />
      <path d="m 14.52,187.17 c 0.27,0 0.52,0.07 0.74,0.21 0.22,0.14 0.39,0.33 0.52,0.58 0.12,0.25 0.18,0.53 0.18,0.85 0,0.32 -0.06,0.62 -0.18,0.87 -0.12,0.25 -0.29,0.44 -0.52,0.59 -0.23,0.15 -0.48,0.22 -0.75,0.22 -0.27,0 -0.53,-0.07 -0.75,-0.22 -0.22,-0.14 -0.39,-0.34 -0.51,-0.59 -0.12,-0.25 -0.18,-0.54 -0.18,-0.87 0,-0.33 0.06,-0.61 0.19,-0.86 0.12,-0.25 0.29,-0.44 0.52,-0.58 0.23,-0.14 0.46,-0.21 0.73,-0.21 z m -0.71,1.64 c 0,0.32 0.06,0.57 0.19,0.76 0.13,0.19 0.3,0.29 0.51,0.29 0.21,0 0.4,-0.09 0.53,-0.27 0.13,-0.18 0.19,-0.44 0.19,-0.78 0,-0.34 -0.06,-0.57 -0.2,-0.75 -0.13,-0.18 -0.3,-0.26 -0.53,-0.26 -0.21,0 -0.38,0.09 -0.51,0.28 -0.13,0.19 -0.2,0.43 -0.2,0.74 z" style="fill:#171717" id="path88" />
      <path d="m 16.52,187.24 0.61,1.84 0.62,-1.84 h 0.45 l 0.61,1.84 0.61,-1.84 h 0.72 l -1.17,3.25 h -0.29 l -0.71,-1.95 -0.71,1.95 h -0.29 l -1.18,-3.25 h 0.72 z" style="fill:#171717" id="path89" />
    </g>
    <g id="g93">
      <path d="m 46.22,185.59 c 0.48,0 0.96,0.13 1.44,0.39 v 0.84 c -0.47,-0.29 -0.94,-0.44 -1.4,-0.44 -0.29,0 -0.54,0.07 -0.76,0.21 -0.22,0.14 -0.39,0.34 -0.52,0.6 -0.12,0.26 -0.18,0.55 -0.18,0.87 0,0.49 0.13,0.88 0.4,1.18 0.27,0.3 0.62,0.45 1.05,0.45 0.12,0 0.23,-0.01 0.34,-0.04 0.11,-0.03 0.24,-0.07 0.39,-0.14 v -0.79 H 46.33 V 188 h 1.4 v 1.97 c -0.19,0.16 -0.42,0.29 -0.69,0.38 -0.27,0.09 -0.55,0.14 -0.84,0.14 -0.41,0 -0.79,-0.1 -1.12,-0.31 -0.33,-0.21 -0.6,-0.5 -0.78,-0.87 -0.18,-0.37 -0.28,-0.79 -0.28,-1.25 0,-0.46 0.09,-0.89 0.28,-1.27 0.19,-0.38 0.46,-0.67 0.79,-0.88 0.34,-0.21 0.72,-0.31 1.13,-0.31 z" style="fill:#171717" id="path90" />
      <path d="m 49.47,187.17 c 0.38,0 0.69,0.15 0.91,0.45 0.22,0.3 0.34,0.72 0.34,1.25 V 189 h -1.85 c 0.03,0.29 0.12,0.5 0.26,0.66 0.15,0.15 0.35,0.23 0.6,0.23 0.16,0 0.32,-0.04 0.47,-0.1 0.15,-0.06 0.31,-0.17 0.47,-0.32 v 0.63 c -0.31,0.26 -0.68,0.4 -1.12,0.4 -0.41,0 -0.75,-0.15 -1.01,-0.46 -0.26,-0.3 -0.39,-0.71 -0.39,-1.21 0,-0.5 0.12,-0.88 0.36,-1.19 0.24,-0.31 0.56,-0.46 0.95,-0.46 z m 0.6,1.32 c -0.02,-0.23 -0.08,-0.41 -0.17,-0.54 -0.1,-0.13 -0.23,-0.2 -0.4,-0.2 -0.17,0 -0.31,0.06 -0.42,0.19 -0.11,0.13 -0.17,0.31 -0.2,0.55 z" style="fill:#171717" id="path91" />
      <path d="m 52.63,187.17 c 0.28,0 0.5,0.11 0.67,0.34 0.17,0.23 0.25,0.52 0.25,0.89 v 2.03 h -0.69 v -1.95 c 0,-0.21 -0.04,-0.37 -0.12,-0.49 -0.08,-0.12 -0.19,-0.18 -0.33,-0.18 -0.11,0 -0.21,0.04 -0.3,0.11 -0.09,0.07 -0.2,0.2 -0.31,0.38 v 2.12 h -0.69 v -3.19 h 0.69 v 0.45 c 0.13,-0.18 0.26,-0.31 0.39,-0.39 0.13,-0.08 0.28,-0.12 0.44,-0.12 z" style="fill:#171717" id="path92" />
      <path d="m 54.42,189.44 c 0.11,0 0.21,0.05 0.3,0.15 0.09,0.1 0.13,0.23 0.13,0.37 0,0.14 -0.04,0.26 -0.13,0.37 -0.08,0.1 -0.19,0.16 -0.3,0.16 -0.11,0 -0.22,-0.05 -0.3,-0.16 -0.09,-0.1 -0.13,-0.23 -0.13,-0.37 0,-0.14 0.04,-0.27 0.13,-0.37 0.09,-0.1 0.19,-0.15 0.3,-0.15 z" style="fill:#171717" id="path93" />
    </g>
    <g id="g97">
      <path d="m 44.77,273.96 c -0.09,0.04 -0.17,0.07 -0.24,0.1 -0.07,0.03 -0.13,0.05 -0.19,0.07 -0.06,0.02 -0.15,0.05 -0.27,0.08 -0.2,0.05 -0.39,0.09 -0.59,0.12 -0.2,0.03 -0.4,0.04 -0.62,0.04 -0.44,0 -0.84,-0.09 -1.21,-0.28 -0.37,-0.18 -0.67,-0.47 -0.89,-0.86 -0.22,-0.39 -0.33,-0.86 -0.33,-1.43 0,-0.36 0.06,-0.72 0.17,-1.07 0.11,-0.35 0.29,-0.63 0.53,-0.84 0.2,-0.17 0.39,-0.31 0.59,-0.4 0.2,-0.09 0.4,-0.15 0.59,-0.19 0.19,-0.03 0.4,-0.05 0.63,-0.05 0.38,0 0.69,0.03 0.94,0.1 0.25,0.07 0.52,0.15 0.81,0.26 v 1.18 c -0.19,-0.13 -0.4,-0.24 -0.62,-0.33 -0.22,-0.09 -0.49,-0.13 -0.82,-0.13 -0.38,0 -0.67,0.08 -0.9,0.25 -0.22,0.16 -0.38,0.36 -0.47,0.59 -0.09,0.23 -0.13,0.45 -0.13,0.66 0,0.25 0.05,0.48 0.15,0.69 0.1,0.21 0.26,0.38 0.46,0.51 0.2,0.13 0.45,0.19 0.74,0.19 0.16,0 0.34,-0.03 0.53,-0.08 v -0.58 h -0.58 v -1 h 1.72 v 2.39 z" style="fill:#ffffff" id="path94" />
      <path d="m 48.72,274.13 c -0.16,0.07 -0.32,0.13 -0.46,0.18 -0.14,0.05 -0.3,0.07 -0.5,0.07 -0.2,0 -0.31,-0.04 -0.39,-0.11 -0.07,-0.08 -0.12,-0.17 -0.15,-0.27 -0.12,0.11 -0.25,0.21 -0.4,0.28 -0.15,0.07 -0.34,0.11 -0.58,0.11 -0.24,0 -0.42,-0.05 -0.56,-0.14 -0.14,-0.09 -0.24,-0.21 -0.3,-0.35 -0.06,-0.14 -0.08,-0.28 -0.08,-0.43 0,-0.22 0.05,-0.41 0.15,-0.56 0.1,-0.15 0.23,-0.27 0.4,-0.36 0.17,-0.09 0.39,-0.19 0.66,-0.29 0.16,-0.06 0.27,-0.1 0.35,-0.13 0.08,-0.03 0.14,-0.05 0.18,-0.07 0.04,-0.02 0.08,-0.04 0.12,-0.06 0,-0.18 -0.03,-0.32 -0.09,-0.42 -0.06,-0.1 -0.2,-0.15 -0.4,-0.15 -0.24,0 -0.47,0.06 -0.68,0.19 -0.21,0.12 -0.4,0.29 -0.57,0.48 v -0.99 c 0.14,-0.12 0.29,-0.21 0.45,-0.28 0.16,-0.07 0.33,-0.13 0.51,-0.16 0.18,-0.04 0.36,-0.05 0.54,-0.05 0.46,0 0.8,0.1 1.04,0.31 0.23,0.2 0.35,0.49 0.35,0.84 v 1.41 c 0,0.13 0.01,0.23 0.03,0.3 0.02,0.07 0.06,0.1 0.12,0.1 0.07,0 0.17,-0.04 0.29,-0.1 v 0.68 z m -1.56,-0.7 v -0.87 c -0.27,0.12 -0.46,0.24 -0.58,0.34 -0.12,0.1 -0.18,0.23 -0.18,0.4 0,0.12 0.03,0.22 0.09,0.28 0.06,0.06 0.13,0.1 0.21,0.1 0.08,0 0.15,-0.02 0.23,-0.07 0.08,-0.05 0.15,-0.11 0.23,-0.18 z" style="fill:#ffffff" id="path95" />
      <path d="m 51.4,274.1 c -0.12,0.06 -0.28,0.13 -0.48,0.19 -0.21,0.06 -0.4,0.09 -0.59,0.09 -0.81,0 -1.21,-0.45 -1.21,-1.36 v -1.46 h -0.51 v -0.23 l 1.5,-1.77 h 0.13 v 1.09 h 1.07 v 0.9 h -1.07 v 1.17 c 0,0.14 0,0.25 0.02,0.33 0.02,0.08 0.06,0.15 0.12,0.21 0.07,0.06 0.17,0.08 0.31,0.08 0.18,0 0.41,-0.09 0.7,-0.26 v 1.01 z" style="fill:#ffffff" id="path96" />
      <path d="m 54.97,272.8 h -2.23 c 0.04,0.22 0.15,0.4 0.32,0.55 0.17,0.14 0.36,0.21 0.58,0.21 0.38,0 0.79,-0.12 1.25,-0.37 v 0.8 c -0.16,0.1 -0.36,0.19 -0.6,0.27 -0.23,0.08 -0.53,0.12 -0.89,0.12 -0.39,0 -0.72,-0.08 -1,-0.25 -0.27,-0.17 -0.48,-0.39 -0.61,-0.68 -0.14,-0.29 -0.2,-0.61 -0.2,-0.98 0,-0.37 0.07,-0.68 0.2,-0.96 0.13,-0.28 0.34,-0.51 0.61,-0.67 0.28,-0.16 0.61,-0.24 1,-0.24 0.26,0 0.51,0.06 0.74,0.19 0.24,0.13 0.44,0.34 0.59,0.63 0.15,0.29 0.23,0.67 0.23,1.13 v 0.26 z m -1.05,-0.64 c 0,-0.23 -0.05,-0.42 -0.15,-0.56 -0.1,-0.14 -0.24,-0.21 -0.43,-0.21 -0.19,0 -0.34,0.07 -0.45,0.21 -0.12,0.14 -0.17,0.33 -0.17,0.56 h 1.21 z" style="fill:#ffffff" id="path97" />
    </g>
    <g id="g101">
      <path d="m 14.84,312.72 h -3.76 v -5.73 h 3.7 v 1.15 h -2.2 v 1.05 h 2.1 v 1.15 h -2.1 v 1.22 h 2.26 v 1.15 z" style="fill:#ffffff" id="path98" />
      <path d="m 19.48,312.72 h -1.3 v -2.27 c 0,-0.23 -0.03,-0.43 -0.1,-0.61 -0.07,-0.17 -0.21,-0.26 -0.43,-0.26 -0.11,0 -0.2,0.02 -0.28,0.07 -0.08,0.05 -0.15,0.1 -0.22,0.18 -0.06,0.07 -0.12,0.14 -0.16,0.21 -0.04,0.07 -0.09,0.14 -0.13,0.21 v 2.47 h -1.3 v -4.21 h 1.3 v 0.6 c 0.2,-0.25 0.41,-0.43 0.61,-0.53 0.21,-0.1 0.43,-0.15 0.69,-0.15 0.88,0 1.32,0.6 1.32,1.81 v 2.47 z" style="fill:#ffffff" id="path99" />
      <path d="m 24.04,308.52 -1.67,4.21 h -0.96 l -1.63,-4.21 h 1.39 l 0.76,2.2 0.84,-2.2 h 1.26 z" style="fill:#ffffff" id="path100" />
      <path d="m 25.39,311.91 c 0,0.25 -0.07,0.46 -0.22,0.63 -0.15,0.17 -0.33,0.26 -0.55,0.26 -0.22,0 -0.4,-0.09 -0.55,-0.26 -0.15,-0.17 -0.23,-0.38 -0.23,-0.63 0,-0.25 0.08,-0.46 0.23,-0.63 0.15,-0.17 0.34,-0.26 0.55,-0.26 0.13,0 0.26,0.04 0.38,0.12 0.12,0.08 0.22,0.19 0.28,0.32 0.07,0.13 0.1,0.28 0.1,0.45 z" style="fill:#ffffff" id="path101" />
    </g>
    <g id="g104">
      <path d="m 16.53,317.13 c 0,0.54 -0.11,1.04 -0.32,1.49 -0.21,0.45 -0.54,0.81 -0.96,1.08 -0.42,0.27 -0.94,0.4 -1.55,0.4 -0.61,0 -1.14,-0.14 -1.57,-0.42 -0.43,-0.28 -0.75,-0.64 -0.95,-1.1 -0.21,-0.45 -0.31,-0.94 -0.31,-1.46 0,-0.52 0.1,-1.01 0.31,-1.46 0.21,-0.45 0.52,-0.82 0.95,-1.09 0.43,-0.28 0.95,-0.42 1.57,-0.42 0.46,0 0.87,0.08 1.23,0.24 0.36,0.16 0.66,0.37 0.89,0.65 0.23,0.27 0.41,0.59 0.53,0.95 0.12,0.36 0.18,0.74 0.18,1.14 z m -1.53,0 c 0,-0.22 -0.03,-0.42 -0.08,-0.59 -0.06,-0.18 -0.14,-0.33 -0.25,-0.47 -0.11,-0.13 -0.25,-0.24 -0.41,-0.31 -0.16,-0.07 -0.35,-0.11 -0.56,-0.11 -0.4,0 -0.72,0.14 -0.95,0.41 -0.23,0.27 -0.35,0.63 -0.35,1.07 0,0.44 0.12,0.8 0.35,1.08 0.23,0.27 0.55,0.41 0.95,0.41 0.28,0 0.51,-0.06 0.71,-0.19 0.19,-0.13 0.34,-0.3 0.44,-0.53 0.1,-0.23 0.15,-0.48 0.15,-0.77 z" style="fill:#ffffff" id="path102" />
      <path d="m 21.04,320.03 h -1.3 v -0.61 c -0.18,0.23 -0.38,0.4 -0.58,0.51 -0.2,0.11 -0.44,0.17 -0.72,0.17 -0.55,0 -0.91,-0.19 -1.07,-0.56 -0.16,-0.37 -0.24,-0.8 -0.24,-1.27 v -2.5 h 1.3 v 2.3 c 0,0.23 0.03,0.43 0.1,0.61 0.07,0.18 0.21,0.26 0.43,0.26 0.19,0 0.34,-0.06 0.45,-0.19 0.11,-0.12 0.22,-0.29 0.34,-0.48 v -2.5 h 1.3 v 4.25 z" style="fill:#ffffff" id="path103" />
      <path d="m 24.69,319.79 c -0.13,0.08 -0.32,0.15 -0.56,0.22 -0.24,0.07 -0.46,0.1 -0.68,0.1 -0.93,0 -1.4,-0.53 -1.4,-1.59 v -1.69 h -0.59 v -0.26 l 1.74,-2.05 h 0.15 v 1.27 h 1.24 v 1.04 h -1.24 v 1.36 c 0,0.16 0,0.29 0.03,0.38 0.03,0.09 0.06,0.18 0.14,0.24 0.08,0.06 0.2,0.1 0.35,0.1 0.21,0 0.48,-0.1 0.81,-0.3 v 1.17 z" style="fill:#ffffff" id="path104" />
    </g>
    <g id="g111">
      <g id="g106">
        <path d="m 64.29,15.24 c 0,0 -4.09,5.19 -6.47,8.22 v -7.04 c 0,-0.6 -0.3,-1.15 -0.75,-1.37 -0.46,-0.23 -0.98,-0.09 -1.32,0.34 l -8.5,10.81 c -0.46,0.59 -0.45,1.52 0.03,2.09 0.48,0.57 1.24,0.55 1.71,-0.04 0,0 4.05,-5.15 6.42,-8.17 v 7.04 c 0,0.6 0.3,1.15 0.76,1.37 0.46,0.23 0.98,0.09 1.32,-0.34 0,0 4.08,-5.19 6.46,-8.22 v 7.19 c 0,0.82 0.54,1.48 1.21,1.48 0.67,0 1.21,-0.66 1.21,-1.48 V 16.26 c 0,-0.6 -0.3,-1.15 -0.76,-1.37 -0.46,-0.23 -0.98,-0.09 -1.32,0.35 z" style="fill:#171717" id="path105" />
        <path d="m 48.12,29.15 c -0.45,0 -0.87,-0.2 -1.18,-0.57 -0.62,-0.73 -0.64,-1.9 -0.04,-2.66 l 8.5,-10.81 c 0.47,-0.6 1.22,-0.79 1.87,-0.47 0.61,0.3 1,1 1,1.78 v 5.74 l 5.66,-7.2 c 0.47,-0.6 1.23,-0.79 1.87,-0.47 0.61,0.3 1.01,1 1.01,1.77 v 10.86 c 0,1.06 -0.74,1.93 -1.66,1.93 -0.92,0 -1.66,-0.87 -1.66,-1.93 v -5.89 c -2.39,3.04 -5.66,7.2 -5.66,7.2 -0.47,0.6 -1.23,0.79 -1.87,0.47 -0.61,-0.3 -1.01,-1 -1.01,-1.77 v -5.74 c -2.38,3.03 -5.62,7.14 -5.62,7.14 -0.31,0.39 -0.74,0.62 -1.2,0.62 h -0.02 z m 8.5,-13.76 c -0.19,0 -0.37,0.1 -0.51,0.28 l -8.5,10.81 c -0.33,0.42 -0.32,1.12 0.02,1.52 0.14,0.16 0.31,0.25 0.49,0.25 v 0 c 0.19,0 0.37,-0.1 0.51,-0.28 0,0 4.05,-5.15 6.42,-8.16 l 0.8,-1.02 v 8.34 c 0,0.43 0.2,0.82 0.51,0.97 0.27,0.13 0.56,0.04 0.77,-0.22 v 0 c 0,0 4.08,-5.19 6.46,-8.22 l 0.8,-1.02 v 8.49 c 0,0.57 0.34,1.03 0.76,1.03 0.42,0 0.76,-0.47 0.76,-1.03 V 16.27 c 0,-0.43 -0.2,-0.82 -0.51,-0.97 -0.27,-0.13 -0.55,-0.05 -0.77,0.22 l -7.27,9.24 v -8.34 c 0,-0.43 -0.2,-0.82 -0.5,-0.97 -0.08,-0.04 -0.17,-0.06 -0.25,-0.06 z" style="fill:#171717" id="path106" />
      </g>
      <g id="g108">
        <path d="m 47.25,15.16 -5.63,7.16 c -0.46,0.59 -0.45,1.52 0.03,2.09 0.48,0.57 1.24,0.55 1.71,-0.04 0,0 1.9,-2.42 3.56,-4.52 v 7.37 c 0,0.82 0.54,1.48 1.2,1.48 0.66,0 1.21,-0.66 1.21,-1.48 V 16.19 c 0,-0.6 -0.3,-1.15 -0.75,-1.37 -0.46,-0.23 -0.98,-0.09 -1.32,0.35 z" style="fill:#171717" id="path107" />
        <path d="m 48.12,29.15 c -0.91,0 -1.65,-0.87 -1.65,-1.93 v -6.07 l -2.75,3.5 c -0.31,0.4 -0.74,0.62 -1.2,0.63 -0.46,0 -0.89,-0.19 -1.21,-0.57 -0.62,-0.74 -0.63,-1.9 -0.04,-2.66 l 5.63,-7.16 c 0.47,-0.6 1.22,-0.79 1.88,-0.47 0.61,0.3 1,1 1,1.78 v 11.03 c 0,1.06 -0.74,1.93 -1.66,1.93 z m -0.75,-10.6 v 8.67 c 0,0.56 0.34,1.03 0.75,1.03 0.41,0 0.76,-0.46 0.76,-1.03 V 16.19 c 0,-0.43 -0.2,-0.82 -0.5,-0.97 -0.26,-0.13 -0.56,-0.05 -0.77,0.22 l -5.63,7.16 c -0.33,0.42 -0.32,1.12 0.02,1.52 0.14,0.16 0.31,0.25 0.49,0.25 h 0.01 c 0.19,0 0.37,-0.1 0.51,-0.28 z" style="fill:#171717" id="path108" />
      </g>
      <g id="g110">
        <path d="m 74.07,20.44 c -0.19,-0.55 -0.62,-0.9 -1.11,-0.9 H 70.5 l 1.8,-2.28 c 0,0 0.93,-1.37 0.11,-2.12 -0.82,-0.75 -1.84,0.07 -1.84,0.07 L 66.8,20 c -0.34,0.43 -0.43,1.06 -0.24,1.61 0.19,0.55 0.63,0.9 1.11,0.9 h 2.46 l -2.92,3.71 c 0,0 -1.21,1.32 -0.32,2.21 0.89,0.89 2.05,-0.16 2.05,-0.16 l 4.88,-6.21 c 0.34,-0.43 0.43,-1.06 0.24,-1.6 z" style="fill:#171717" id="path109" />
        <path d="m 67.71,29.22 c -0.38,0 -0.78,-0.13 -1.13,-0.49 -0.95,-0.95 -0.22,-2.27 0.3,-2.83 l 2.32,-2.95 h -1.54 c -0.68,0 -1.28,-0.47 -1.54,-1.2 -0.24,-0.69 -0.12,-1.49 0.31,-2.03 l 3.84,-4.86 c 0.46,-0.37 1.55,-0.85 2.43,-0.05 0.88,0.8 0.39,2.08 -0.04,2.71 l -1.24,1.58 h 1.53 c 0.68,0 1.28,0.47 1.53,1.2 0.24,0.69 0.12,1.49 -0.31,2.03 l -4.88,6.21 c -0.35,0.32 -0.95,0.69 -1.59,0.69 z m 3.17,-13.7 -3.73,4.75 c -0.24,0.3 -0.31,0.78 -0.17,1.18 0.12,0.36 0.4,0.6 0.69,0.6 h 3.39 l -3.49,4.44 c 0,0 -0.93,1.04 -0.35,1.61 0.57,0.57 1.35,-0.1 1.43,-0.17 l 4.83,-6.16 c 0.24,-0.31 0.31,-0.78 0.17,-1.18 v 0 c -0.13,-0.37 -0.39,-0.6 -0.68,-0.6 h -3.39 l 2.37,-3.01 v 0 c 0,0 0.67,-1.04 0.16,-1.51 -0.47,-0.43 -1.07,-0.05 -1.22,0.06 z" style="fill:#171717" id="path110" />
      </g>
    </g>
    <path d="m 109.46,322.66171 v -75.2346 c 0,0 0,-0.2613 0,-0.2613 v -47.92489 0.045 l -0.03,-4.16268 v -11.40679 c 0,-6.55037 -5.91,-11.87535 -13.18,-11.87535 H 77.17 c -7.27,0 -13.18,5.32498 -13.18,11.87535 v 34.03127 l -0.03,3.559 v 101.36399" style="fill:#171717;stroke-width:0.949218" id="path111" />
    <path d="m 63.990001,322.10683 c 0,7.13937 5.90999,12.94317 13.18,12.94317 h 19.08 c 7.270009,0 13.179999,-5.8038 13.179999,-12.94317" style="fill:#171717;stroke-width:0.990975" id="path111-5" sodipodi:nodetypes="cssc" />
    <polyline points="108.93 297 109.26 297 109.26 265.75" id="polyline111" />
    <polyline points="64.16 266.12 64.16 297 64.39 297" id="polyline112" />
    <g id="g123">
      <path d="m 73.15,67.39 h -3.76 v -5.91 h 3.7 v 1.19 h -2.2 v 1.08 h 2.1 v 1.19 h -2.1 v 1.26 h 2.26 z" style="fill:#171717" id="path115" />
      <path d="m 77.66,67.39 h -1.3 v -2.34 c 0,-0.24 -0.03,-0.45 -0.1,-0.62 -0.07,-0.18 -0.21,-0.27 -0.43,-0.27 -0.11,0 -0.2,0.02 -0.28,0.07 -0.08,0.05 -0.15,0.11 -0.22,0.18 -0.07,0.07 -0.12,0.14 -0.16,0.21 -0.04,0.07 -0.09,0.14 -0.13,0.22 v 2.55 h -1.3 v -4.34 h 1.3 v 0.62 c 0.2,-0.26 0.41,-0.44 0.61,-0.54 0.21,-0.1 0.43,-0.16 0.69,-0.16 0.88,0 1.32,0.62 1.32,1.87 z" style="fill:#171717" id="path116" />
      <path d="m 82.1,63.05 -1.67,4.34 h -0.96 l -1.63,-4.34 h 1.39 l 0.76,2.27 0.84,-2.27 h 1.26 z" style="fill:#171717" id="path117" />
      <path d="m 83.32,66.55 c 0,0.26 -0.07,0.47 -0.22,0.65 -0.15,0.18 -0.33,0.27 -0.55,0.27 -0.22,0 -0.4,-0.09 -0.55,-0.27 -0.15,-0.18 -0.23,-0.4 -0.23,-0.65 0,-0.25 0.08,-0.47 0.23,-0.65 0.15,-0.18 0.34,-0.27 0.55,-0.27 0.13,0 0.26,0.04 0.38,0.12 0.12,0.08 0.22,0.19 0.28,0.33 0.07,0.14 0.1,0.29 0.1,0.46 z" style="fill:#171717" id="path118" />
      <path d="M 89.79,67.39 H 86 v -5.91 h 1.5 v 4.49 h 2.29 z" style="fill:#171717" id="path119" />
      <path d="m 94.01,65.59 h -2.58 c 0.05,0.26 0.17,0.48 0.37,0.65 0.2,0.17 0.42,0.25 0.67,0.25 0.44,0 0.92,-0.14 1.45,-0.43 v 0.95 c -0.19,0.12 -0.42,0.22 -0.69,0.32 -0.27,0.1 -0.61,0.14 -1.03,0.14 -0.45,0 -0.84,-0.1 -1.15,-0.3 -0.32,-0.2 -0.55,-0.47 -0.71,-0.81 -0.16,-0.34 -0.24,-0.73 -0.24,-1.16 0,-0.43 0.08,-0.81 0.24,-1.14 0.16,-0.34 0.39,-0.6 0.71,-0.79 0.32,-0.19 0.7,-0.29 1.15,-0.29 0.3,0 0.58,0.08 0.86,0.23 0.28,0.15 0.5,0.4 0.68,0.75 0.18,0.35 0.27,0.79 0.27,1.34 v 0.31 z m -1.22,-0.76 c 0,-0.28 -0.06,-0.5 -0.17,-0.67 -0.11,-0.17 -0.28,-0.25 -0.5,-0.25 -0.22,0 -0.39,0.08 -0.52,0.25 -0.13,0.17 -0.2,0.39 -0.2,0.66 h 1.4 z" style="fill:#171717" id="path120" />
      <path d="m 98.31,63.05 -1.67,4.34 h -0.96 l -1.63,-4.34 h 1.39 l 0.76,2.27 0.84,-2.27 h 1.26 z" style="fill:#171717" id="path121" />
      <path d="m 102.21,65.59 h -2.58 c 0.05,0.26 0.17,0.48 0.37,0.65 0.2,0.17 0.42,0.25 0.67,0.25 0.44,0 0.92,-0.14 1.45,-0.43 v 0.95 c -0.19,0.12 -0.42,0.22 -0.69,0.32 -0.27,0.1 -0.61,0.14 -1.03,0.14 -0.45,0 -0.84,-0.1 -1.15,-0.3 -0.32,-0.2 -0.55,-0.47 -0.71,-0.81 -0.16,-0.34 -0.24,-0.73 -0.24,-1.16 0,-0.43 0.08,-0.81 0.24,-1.14 0.16,-0.34 0.39,-0.6 0.71,-0.79 0.32,-0.19 0.7,-0.29 1.15,-0.29 0.3,0 0.58,0.08 0.86,0.23 0.28,0.15 0.5,0.4 0.68,0.75 0.18,0.35 0.27,0.79 0.27,1.34 v 0.31 z m -1.22,-0.76 c 0,-0.28 -0.06,-0.5 -0.17,-0.67 -0.11,-0.17 -0.28,-0.25 -0.5,-0.25 -0.22,0 -0.39,0.08 -0.52,0.25 -0.13,0.17 -0.2,0.39 -0.2,0.66 h 1.4 z" style="fill:#171717" id="path122" />
      <path d="m 104.01,67.39 h -1.3 v -5.91 h 1.3 z" style="fill:#171717" id="path123" />
    </g>
    <g id="g128" style="fill:#000000;fill-opacity:1" transform="translate(0,6.9509577)">
      <path d="m 79.59,156.71 h -3.37 v -5.14 h 1.34 v 3.91 h 2.03 z" style="fill:#000000;fill-opacity:1" id="path124" />
      <path d="m 82.16,148.96 v 10.39 H 81.3 v -10.39 z" style="fill:#000000;fill-opacity:1" id="path125" />
      <path d="m 91.53,148.94 v 10.39 h -0.86 v -10.39 z" style="fill:#000000;fill-opacity:1" id="path126" />
      <path d="m 88.99,156.71 h -1.34 v -2.98 l -1.21,1.73 h -0.11 l -1.21,-1.73 v 2.98 h -1.3 v -5.14 h 1.21 l 1.36,1.93 1.37,-1.93 h 1.21 v 5.14 z" style="fill:#000000;fill-opacity:1" id="path127" />
      <path d="m 97.9,156.71 h -1.33 v -2.01 h -2.01 v 2.01 h -1.34 v -5.14 h 1.34 v 1.89 h 2.01 v -1.89 h 1.33 z" style="fill:#000000;fill-opacity:1" id="path128" />
    </g>
    <g id="g137" transform="translate(0,4.8844568)">
      <path d="m 71.9,115.98 h -1.51 v -5.91 h 1.51 z" style="fill:#171717" id="path129" />
      <path d="m 76.66,115.98 h -1.3 v -2.34 c 0,-0.24 -0.03,-0.45 -0.1,-0.62 -0.07,-0.18 -0.21,-0.27 -0.43,-0.27 -0.11,0 -0.2,0.02 -0.28,0.07 -0.08,0.05 -0.15,0.11 -0.22,0.18 -0.07,0.07 -0.12,0.14 -0.16,0.21 -0.04,0.07 -0.09,0.14 -0.13,0.22 v 2.55 h -1.3 v -4.34 h 1.3 v 0.62 c 0.2,-0.26 0.41,-0.44 0.61,-0.54 0.21,-0.1 0.43,-0.16 0.69,-0.16 0.88,0 1.32,0.62 1.32,1.87 z" style="fill:#171717" id="path130" />
      <path d="m 81.11,111.64 -1.67,4.34 h -0.96 l -1.63,-4.34 h 1.39 l 0.76,2.27 0.84,-2.27 h 1.26 z" style="fill:#171717" id="path131" />
      <path d="m 82.32,115.14 c 0,0.26 -0.07,0.47 -0.22,0.65 -0.15,0.18 -0.33,0.27 -0.55,0.27 -0.22,0 -0.4,-0.09 -0.55,-0.27 -0.15,-0.18 -0.23,-0.4 -0.23,-0.65 0,-0.25 0.08,-0.47 0.23,-0.65 0.15,-0.18 0.34,-0.27 0.55,-0.27 0.13,0 0.26,0.04 0.38,0.12 0.12,0.08 0.22,0.19 0.28,0.33 0.07,0.14 0.1,0.29 0.1,0.46 z" style="fill:#171717" id="path132" />
      <path d="M 88.79,115.98 H 85 v -5.91 h 1.5 v 4.49 h 2.29 z" style="fill:#171717" id="path133" />
      <path d="m 93.01,114.18 h -2.58 c 0.05,0.26 0.17,0.48 0.37,0.65 0.2,0.17 0.42,0.25 0.67,0.25 0.44,0 0.92,-0.14 1.45,-0.43 v 0.95 c -0.19,0.12 -0.42,0.22 -0.69,0.32 -0.27,0.1 -0.61,0.14 -1.03,0.14 -0.45,0 -0.84,-0.1 -1.15,-0.3 -0.32,-0.2 -0.55,-0.47 -0.71,-0.81 -0.16,-0.34 -0.24,-0.73 -0.24,-1.16 0,-0.43 0.08,-0.81 0.24,-1.14 0.16,-0.34 0.39,-0.6 0.71,-0.79 0.32,-0.19 0.7,-0.29 1.15,-0.29 0.3,0 0.58,0.08 0.86,0.23 0.28,0.15 0.5,0.4 0.68,0.75 0.18,0.35 0.27,0.79 0.27,1.34 v 0.31 z m -1.22,-0.76 c 0,-0.28 -0.06,-0.5 -0.17,-0.67 -0.11,-0.17 -0.28,-0.25 -0.5,-0.25 -0.22,0 -0.39,0.08 -0.52,0.25 -0.13,0.17 -0.2,0.39 -0.2,0.66 h 1.4 z" style="fill:#171717" id="path134" />
      <path d="m 97.31,111.64 -1.67,4.34 h -0.96 l -1.63,-4.34 h 1.39 l 0.76,2.27 0.84,-2.27 h 1.26 z" style="fill:#171717" id="path135" />
      <path d="m 101.21,114.18 h -2.58 c 0.05,0.26 0.17,0.48 0.37,0.65 0.2,0.17 0.42,0.25 0.67,0.25 0.44,0 0.92,-0.14 1.45,-0.43 v 0.95 c -0.19,0.12 -0.42,0.22 -0.69,0.32 -0.27,0.1 -0.61,0.14 -1.03,0.14 -0.45,0 -0.84,-0.1 -1.15,-0.3 -0.32,-0.2 -0.55,-0.47 -0.71,-0.81 -0.16,-0.34 -0.24,-0.73 -0.24,-1.16 0,-0.43 0.08,-0.81 0.24,-1.14 0.16,-0.34 0.39,-0.6 0.71,-0.79 0.32,-0.19 0.7,-0.29 1.15,-0.29 0.3,0 0.58,0.08 0.86,0.23 0.28,0.15 0.5,0.4 0.68,0.75 0.18,0.35 0.27,0.79 0.27,1.34 v 0.31 z m -1.22,-0.76 c 0,-0.28 -0.06,-0.5 -0.17,-0.67 -0.11,-0.17 -0.28,-0.25 -0.5,-0.25 -0.22,0 -0.39,0.08 -0.52,0.25 -0.13,0.17 -0.2,0.39 -0.2,0.66 h 1.4 z" style="fill:#171717" id="path136" />
      <path d="m 103.01,115.98 h -1.3 v -5.91 h 1.3 z" style="fill:#171717" id="path137" />
    </g>
    <g id="g144" transform="translate(0,23.169104)">
      <path d="m 75.67,198.65 h -3.76 v -5.91 h 3.7 v 1.19 h -2.2 v 1.08 h 2.1 v 1.19 h -2.1 v 1.26 h 2.26 z" style="fill:#ededed" id="path138" />
      <path d="m 80.18,198.65 h -1.3 v -2.34 c 0,-0.24 -0.03,-0.45 -0.1,-0.62 -0.07,-0.18 -0.21,-0.27 -0.43,-0.27 -0.11,0 -0.2,0.02 -0.28,0.07 -0.08,0.05 -0.15,0.11 -0.22,0.18 -0.07,0.07 -0.12,0.14 -0.16,0.21 -0.04,0.07 -0.09,0.14 -0.13,0.22 v 2.55 h -1.3 v -4.34 h 1.3 v 0.62 c 0.2,-0.26 0.41,-0.44 0.61,-0.54 0.21,-0.1 0.43,-0.16 0.69,-0.16 0.88,0 1.32,0.62 1.32,1.87 z" style="fill:#ededed" id="path139" />
      <path d="m 84.63,194.31 -1.67,4.34 H 82 l -1.63,-4.34 h 1.39 l 0.76,2.27 0.84,-2.27 h 1.26 z" style="fill:#ededed" id="path140" />
      <path d="m 85.84,197.81 c 0,0.26 -0.07,0.47 -0.22,0.65 -0.15,0.18 -0.33,0.27 -0.55,0.27 -0.22,0 -0.4,-0.09 -0.55,-0.27 -0.15,-0.18 -0.23,-0.4 -0.23,-0.65 0,-0.25 0.08,-0.47 0.23,-0.65 0.15,-0.18 0.34,-0.27 0.55,-0.27 0.13,0 0.26,0.04 0.38,0.12 0.12,0.08 0.22,0.19 0.28,0.33 0.07,0.14 0.1,0.29 0.1,0.46 z" style="fill:#ededed" id="path141" />
      <path d="m 93.86,195.69 c 0,0.55 -0.11,1.06 -0.32,1.52 -0.21,0.46 -0.54,0.83 -0.96,1.1 -0.42,0.27 -0.94,0.41 -1.55,0.41 -0.61,0 -1.14,-0.14 -1.57,-0.43 -0.43,-0.28 -0.75,-0.66 -0.95,-1.12 -0.21,-0.46 -0.31,-0.96 -0.31,-1.49 0,-0.53 0.1,-1.03 0.31,-1.49 0.21,-0.46 0.52,-0.83 0.95,-1.12 0.43,-0.28 0.95,-0.42 1.57,-0.42 0.46,0 0.87,0.08 1.23,0.24 0.36,0.16 0.66,0.38 0.89,0.66 0.23,0.28 0.41,0.6 0.53,0.97 0.12,0.37 0.18,0.76 0.18,1.16 z m -1.53,0 c 0,-0.22 -0.03,-0.42 -0.08,-0.61 -0.06,-0.18 -0.14,-0.34 -0.25,-0.48 -0.11,-0.13 -0.25,-0.24 -0.41,-0.32 -0.16,-0.08 -0.35,-0.11 -0.56,-0.11 -0.4,0 -0.72,0.14 -0.95,0.42 -0.23,0.28 -0.35,0.64 -0.35,1.1 0,0.46 0.12,0.82 0.35,1.1 0.23,0.28 0.55,0.42 0.95,0.42 0.28,0 0.51,-0.07 0.71,-0.19 0.2,-0.12 0.34,-0.31 0.44,-0.54 0.1,-0.23 0.15,-0.49 0.15,-0.79 z" style="fill:#ededed" id="path142" />
      <path d="m 98.24,198.65 h -1.3 v -0.62 c -0.18,0.23 -0.38,0.41 -0.58,0.52 -0.2,0.11 -0.44,0.17 -0.72,0.17 -0.55,0 -0.91,-0.19 -1.07,-0.57 -0.16,-0.38 -0.24,-0.81 -0.24,-1.29 v -2.55 h 1.3 v 2.34 c 0,0.24 0.03,0.44 0.1,0.62 0.07,0.18 0.21,0.27 0.43,0.27 0.19,0 0.34,-0.06 0.45,-0.19 0.11,-0.13 0.22,-0.29 0.34,-0.49 v -2.55 h 1.3 v 4.34 z" style="fill:#ededed" id="path143" />
      <path d="m 101.77,198.4 c -0.13,0.08 -0.32,0.15 -0.56,0.22 -0.24,0.07 -0.46,0.11 -0.68,0.11 -0.93,0 -1.4,-0.54 -1.4,-1.62 v -1.73 h -0.59 v -0.27 l 1.74,-2.1 h 0.15 v 1.3 h 1.24 v 1.07 h -1.24 v 1.39 c 0,0.16 0,0.29 0.03,0.39 0.03,0.1 0.06,0.18 0.14,0.25 0.08,0.07 0.2,0.1 0.35,0.1 0.21,0 0.48,-0.1 0.81,-0.31 v 1.2 z" style="fill:#ededed" id="path144" />
    </g>
    <g id="g151" transform="translate(0,33.623455)">
      <path d="m 74.42,239.56 h -1.51 v -5.91 h 1.51 z" style="fill:#ededed" id="path145" />
      <path d="m 79.19,239.56 h -1.3 v -2.34 c 0,-0.24 -0.03,-0.45 -0.1,-0.62 -0.07,-0.18 -0.21,-0.27 -0.43,-0.27 -0.11,0 -0.2,0.02 -0.28,0.07 -0.08,0.05 -0.15,0.11 -0.22,0.18 -0.07,0.07 -0.12,0.14 -0.16,0.21 -0.04,0.07 -0.09,0.14 -0.13,0.22 v 2.55 h -1.3 v -4.34 h 1.3 v 0.62 c 0.2,-0.26 0.41,-0.44 0.61,-0.54 0.21,-0.1 0.43,-0.16 0.69,-0.16 0.88,0 1.32,0.62 1.32,1.87 z" style="fill:#ededed" id="path146" />
      <path d="m 83.63,235.22 -1.67,4.34 H 81 l -1.63,-4.34 h 1.39 l 0.76,2.27 0.84,-2.27 h 1.26 z" style="fill:#ededed" id="path147" />
      <path d="m 84.84,238.72 c 0,0.26 -0.07,0.47 -0.22,0.65 -0.15,0.18 -0.33,0.27 -0.55,0.27 -0.22,0 -0.4,-0.09 -0.55,-0.27 -0.15,-0.18 -0.23,-0.4 -0.23,-0.65 0,-0.25 0.08,-0.47 0.23,-0.65 0.15,-0.18 0.34,-0.27 0.55,-0.27 0.13,0 0.26,0.04 0.38,0.12 0.12,0.08 0.22,0.19 0.28,0.33 0.07,0.14 0.1,0.29 0.1,0.46 z" style="fill:#ededed" id="path148" />
      <path d="m 92.86,236.6 c 0,0.55 -0.11,1.06 -0.32,1.52 -0.21,0.46 -0.54,0.83 -0.96,1.1 -0.42,0.27 -0.94,0.41 -1.55,0.41 -0.61,0 -1.14,-0.14 -1.57,-0.43 -0.43,-0.28 -0.75,-0.66 -0.95,-1.12 -0.21,-0.46 -0.31,-0.96 -0.31,-1.49 0,-0.53 0.1,-1.03 0.31,-1.49 0.21,-0.46 0.52,-0.83 0.95,-1.12 0.43,-0.28 0.95,-0.42 1.57,-0.42 0.46,0 0.87,0.08 1.23,0.24 0.36,0.16 0.66,0.38 0.89,0.66 0.23,0.28 0.41,0.6 0.53,0.97 0.12,0.37 0.18,0.76 0.18,1.16 z m -1.53,0 c 0,-0.22 -0.03,-0.42 -0.08,-0.61 -0.06,-0.18 -0.14,-0.34 -0.25,-0.48 -0.11,-0.13 -0.25,-0.24 -0.41,-0.32 -0.16,-0.08 -0.35,-0.11 -0.56,-0.11 -0.4,0 -0.72,0.14 -0.95,0.42 -0.23,0.28 -0.35,0.64 -0.35,1.1 0,0.46 0.12,0.82 0.35,1.1 0.23,0.28 0.55,0.42 0.95,0.42 0.28,0 0.51,-0.07 0.71,-0.19 0.2,-0.12 0.34,-0.31 0.44,-0.54 0.1,-0.23 0.15,-0.49 0.15,-0.79 z" style="fill:#ededed" id="path149" />
      <path d="m 97.24,239.56 h -1.3 v -0.62 c -0.18,0.23 -0.38,0.41 -0.58,0.52 -0.2,0.11 -0.44,0.17 -0.72,0.17 -0.55,0 -0.91,-0.19 -1.07,-0.57 -0.16,-0.38 -0.24,-0.81 -0.24,-1.29 v -2.55 h 1.3 v 2.34 c 0,0.24 0.03,0.44 0.1,0.62 0.07,0.18 0.21,0.27 0.43,0.27 0.19,0 0.34,-0.06 0.45,-0.19 0.11,-0.13 0.22,-0.29 0.34,-0.49 v -2.55 h 1.3 v 4.34 z" style="fill:#ededed" id="path150" />
      <path d="m 100.77,239.31 c -0.13,0.08 -0.32,0.15 -0.56,0.22 -0.24,0.07 -0.46,0.11 -0.68,0.11 -0.93,0 -1.4,-0.54 -1.4,-1.62 v -1.73 h -0.59 v -0.27 l 1.74,-2.1 h 0.15 v 1.3 h 1.24 v 1.07 h -1.24 v 1.39 c 0,0.16 0,0.29 0.03,0.39 0.03,0.1 0.06,0.18 0.14,0.25 0.08,0.07 0.2,0.1 0.35,0.1 0.21,0 0.48,-0.1 0.81,-0.31 v 1.2 z" style="fill:#ededed" id="path151" />
    </g>
    <g id="g159" transform="translate(0,41.252306)">
      <path d="m 73.89,280.67 h -1.54 l -0.41,-1.2 h -2.17 l -0.41,1.2 h -1.54 l 2.21,-5.91 h 1.66 z m -2.29,-2.23 -0.73,-2.16 -0.74,2.16 z" style="fill:#ededed" id="path152" />
      <path d="m 78.1,280.67 h -1.3 v -0.62 c -0.18,0.23 -0.38,0.41 -0.58,0.52 -0.2,0.11 -0.44,0.17 -0.72,0.17 -0.55,0 -0.91,-0.19 -1.07,-0.57 -0.16,-0.38 -0.24,-0.81 -0.24,-1.29 v -2.55 h 1.3 v 2.34 c 0,0.24 0.03,0.44 0.1,0.62 0.07,0.18 0.21,0.27 0.43,0.27 0.19,0 0.34,-0.06 0.45,-0.19 0.11,-0.13 0.22,-0.29 0.34,-0.49 v -2.55 h 1.3 v 4.34 z" style="fill:#ededed" id="path153" />
      <path d="m 82.61,280.67 h -1.3 v -0.39 c -0.14,0.14 -0.28,0.25 -0.43,0.34 -0.15,0.09 -0.36,0.13 -0.63,0.13 -0.27,0 -0.53,-0.08 -0.79,-0.24 -0.26,-0.16 -0.47,-0.4 -0.63,-0.73 -0.16,-0.33 -0.25,-0.75 -0.25,-1.25 0,-0.4 0.06,-0.77 0.19,-1.11 0.12,-0.35 0.32,-0.63 0.59,-0.84 0.27,-0.22 0.59,-0.32 0.98,-0.32 0.24,0 0.43,0.03 0.58,0.09 0.15,0.06 0.28,0.14 0.4,0.24 v -1.82 h 1.3 v 5.91 z m -1.3,-1.38 v -1.66 c -0.15,-0.1 -0.27,-0.17 -0.36,-0.21 -0.08,-0.04 -0.19,-0.06 -0.3,-0.06 -0.2,0 -0.37,0.1 -0.51,0.31 -0.14,0.21 -0.2,0.48 -0.2,0.84 0,0.38 0.07,0.66 0.21,0.84 0.14,0.17 0.31,0.26 0.5,0.26 0.16,0 0.28,-0.03 0.38,-0.09 0.1,-0.06 0.19,-0.13 0.28,-0.22 z" style="fill:#ededed" id="path154" />
      <path d="m 84.6,280.67 h -1.3 v -4.34 h 1.3 z m -0.1,-5.34 c 0,0.18 -0.05,0.33 -0.16,0.46 -0.11,0.13 -0.24,0.19 -0.39,0.19 -0.1,0 -0.19,-0.03 -0.28,-0.09 -0.08,-0.06 -0.15,-0.13 -0.2,-0.23 -0.05,-0.1 -0.07,-0.21 -0.07,-0.33 0,-0.18 0.05,-0.33 0.16,-0.46 0.11,-0.13 0.23,-0.19 0.38,-0.19 0.15,0 0.28,0.06 0.39,0.19 0.11,0.13 0.16,0.28 0.16,0.46 z" style="fill:#ededed" id="path155" />
      <path d="m 89.34,278.5 c 0,0.43 -0.08,0.82 -0.24,1.16 -0.16,0.34 -0.4,0.61 -0.71,0.8 -0.32,0.2 -0.7,0.29 -1.15,0.29 -0.45,0 -0.84,-0.1 -1.15,-0.29 -0.32,-0.2 -0.55,-0.46 -0.71,-0.8 -0.16,-0.34 -0.24,-0.72 -0.24,-1.16 0,-0.33 0.04,-0.62 0.13,-0.89 0.09,-0.27 0.22,-0.5 0.4,-0.71 0.18,-0.21 0.4,-0.36 0.66,-0.48 0.26,-0.11 0.56,-0.17 0.91,-0.17 0.35,0 0.65,0.06 0.92,0.17 0.27,0.11 0.49,0.27 0.66,0.47 0.17,0.2 0.31,0.44 0.39,0.71 0.09,0.27 0.13,0.57 0.13,0.9 z m -1.36,0 c 0,-0.34 -0.06,-0.61 -0.19,-0.81 -0.13,-0.2 -0.31,-0.29 -0.55,-0.29 -0.24,0 -0.42,0.1 -0.55,0.29 -0.13,0.19 -0.19,0.46 -0.19,0.81 0,0.35 0.06,0.61 0.19,0.81 0.13,0.2 0.31,0.3 0.54,0.3 0.23,0 0.42,-0.1 0.55,-0.3 0.13,-0.2 0.19,-0.47 0.19,-0.81 z" style="fill:#ededed" id="path156" />
      <path d="m 97.36,277.71 c 0,0.55 -0.11,1.06 -0.32,1.52 -0.21,0.46 -0.54,0.83 -0.96,1.1 -0.42,0.27 -0.94,0.41 -1.55,0.41 -0.61,0 -1.14,-0.14 -1.57,-0.43 -0.43,-0.28 -0.75,-0.66 -0.95,-1.12 -0.21,-0.46 -0.31,-0.96 -0.31,-1.49 0,-0.53 0.1,-1.03 0.31,-1.49 0.21,-0.46 0.52,-0.83 0.95,-1.12 0.43,-0.28 0.95,-0.42 1.57,-0.42 0.46,0 0.87,0.08 1.23,0.24 0.36,0.16 0.66,0.38 0.89,0.66 0.23,0.28 0.41,0.6 0.53,0.97 0.12,0.37 0.18,0.76 0.18,1.16 z m -1.53,0 c 0,-0.22 -0.03,-0.42 -0.08,-0.61 -0.06,-0.18 -0.14,-0.34 -0.25,-0.48 -0.11,-0.13 -0.25,-0.24 -0.41,-0.32 -0.16,-0.08 -0.35,-0.11 -0.56,-0.11 -0.4,0 -0.72,0.14 -0.95,0.42 -0.23,0.28 -0.35,0.64 -0.35,1.1 0,0.46 0.12,0.82 0.35,1.1 0.23,0.28 0.55,0.42 0.95,0.42 0.28,0 0.51,-0.07 0.71,-0.19 0.2,-0.12 0.34,-0.31 0.44,-0.54 0.1,-0.23 0.15,-0.49 0.15,-0.79 z" style="fill:#ededed" id="path157" />
      <path d="m 101.75,280.67 h -1.3 v -0.62 c -0.18,0.23 -0.38,0.41 -0.58,0.52 -0.2,0.11 -0.44,0.17 -0.72,0.17 -0.55,0 -0.91,-0.19 -1.07,-0.57 -0.16,-0.38 -0.24,-0.81 -0.24,-1.29 v -2.55 h 1.3 v 2.34 c 0,0.24 0.03,0.44 0.1,0.62 0.07,0.18 0.21,0.27 0.43,0.27 0.19,0 0.34,-0.06 0.45,-0.19 0.11,-0.13 0.22,-0.29 0.34,-0.49 v -2.55 h 1.3 v 4.34 z" style="fill:#ededed" id="path158" />
      <path d="m 105.27,280.42 c -0.13,0.08 -0.32,0.15 -0.56,0.22 -0.24,0.07 -0.46,0.11 -0.68,0.11 -0.93,0 -1.4,-0.54 -1.4,-1.62 v -1.73 h -0.59 v -0.27 l 1.74,-2.1 h 0.15 v 1.3 h 1.24 v 1.07 h -1.24 v 1.39 c 0,0.16 0,0.29 0.03,0.39 0.03,0.1 0.06,0.18 0.14,0.25 0.08,0.07 0.2,0.1 0.35,0.1 0.21,0 0.48,-0.1 0.81,-0.31 v 1.2 z" style="fill:#ededed" id="path159" />
    </g>
    <g id="g183">
      <path d="m 15.43,343 c 0,0.23 -0.03,0.45 -0.1,0.66 -0.06,0.22 -0.17,0.42 -0.31,0.6 -0.14,0.19 -0.33,0.34 -0.57,0.45 -0.24,0.12 -0.53,0.17 -0.85,0.17 h -0.99 v 2.29 h -1.5 v -6.09 h 2.49 c 0.33,0 0.61,0.06 0.85,0.18 0.24,0.12 0.43,0.27 0.57,0.46 0.14,0.19 0.24,0.39 0.31,0.61 0.06,0.22 0.1,0.44 0.1,0.67 z m -1.53,0 c 0,-0.29 -0.07,-0.49 -0.21,-0.6 -0.14,-0.11 -0.39,-0.16 -0.75,-0.16 h -0.32 v 1.47 h 0.32 c 0.25,0 0.44,-0.02 0.58,-0.06 0.13,-0.04 0.23,-0.11 0.29,-0.21 0.06,-0.1 0.09,-0.25 0.09,-0.44 z" style="fill:#171717" id="path165" />
      <path d="m 19.74,347.18 h -3.76 v -6.09 h 3.7 v 1.22 h -2.2 v 1.12 h 2.1 v 1.23 h -2.1 v 1.3 h 2.26 v 1.23 z" style="fill:#171717" id="path166" />
      <path d="m 25.3,347.18 h -1.62 l -0.39,-1.08 c -0.14,-0.4 -0.27,-0.68 -0.39,-0.87 -0.12,-0.18 -0.23,-0.3 -0.34,-0.35 -0.11,-0.05 -0.25,-0.08 -0.42,-0.08 h -0.17 v 2.38 h -1.5 v -6.09 h 2.56 c 0.41,0 0.75,0.1 1.02,0.31 0.26,0.21 0.45,0.45 0.57,0.75 0.12,0.3 0.17,0.57 0.17,0.83 0,0.31 -0.05,0.57 -0.15,0.78 -0.1,0.21 -0.2,0.37 -0.31,0.46 -0.11,0.1 -0.23,0.19 -0.36,0.28 0.16,0.11 0.29,0.25 0.4,0.41 0.1,0.16 0.25,0.47 0.43,0.95 z m -2.05,-4.17 c 0,-0.28 -0.08,-0.48 -0.23,-0.59 -0.15,-0.11 -0.4,-0.17 -0.74,-0.17 h -0.32 v 1.47 h 0.32 c 0.37,0 0.62,-0.05 0.75,-0.15 0.14,-0.1 0.2,-0.29 0.2,-0.56 z" style="fill:#171717" id="path167" />
      <path d="m 30.16,346.72 c -0.21,0.13 -0.42,0.24 -0.63,0.32 -0.22,0.08 -0.43,0.14 -0.65,0.17 -0.22,0.03 -0.45,0.05 -0.68,0.05 -0.43,0 -0.82,-0.07 -1.17,-0.22 -0.34,-0.15 -0.64,-0.36 -0.9,-0.65 -0.25,-0.29 -0.44,-0.62 -0.57,-1 -0.13,-0.38 -0.19,-0.8 -0.19,-1.26 0,-0.52 0.07,-0.98 0.22,-1.38 0.15,-0.39 0.36,-0.72 0.62,-0.98 0.27,-0.26 0.57,-0.45 0.92,-0.58 0.34,-0.12 0.7,-0.19 1.08,-0.19 0.57,0 1.21,0.15 1.93,0.46 v 1.62 c -0.25,-0.19 -0.49,-0.34 -0.73,-0.47 -0.24,-0.12 -0.53,-0.19 -0.85,-0.19 -0.29,0 -0.56,0.07 -0.81,0.21 -0.25,0.14 -0.46,0.34 -0.61,0.6 -0.15,0.26 -0.23,0.57 -0.23,0.91 0,0.31 0.07,0.59 0.2,0.85 0.13,0.26 0.32,0.46 0.56,0.61 0.24,0.15 0.51,0.23 0.81,0.23 0.24,0 0.47,-0.04 0.69,-0.11 0.22,-0.07 0.4,-0.15 0.55,-0.24 0.15,-0.09 0.3,-0.19 0.46,-0.31 v 1.54 z" style="fill:#171717" id="path168" />
      <path d="m 36.09,344.45 c 0,0.52 -0.08,0.97 -0.24,1.33 -0.16,0.37 -0.37,0.66 -0.63,0.87 -0.26,0.21 -0.55,0.37 -0.85,0.46 -0.3,0.09 -0.61,0.14 -0.91,0.14 -0.42,0 -0.83,-0.09 -1.23,-0.26 -0.4,-0.17 -0.73,-0.47 -1,-0.9 -0.27,-0.42 -0.4,-0.97 -0.4,-1.65 v -3.36 h 1.5 v 2.89 c 0,0.4 0.05,0.73 0.14,1 0.1,0.26 0.23,0.45 0.4,0.58 0.17,0.12 0.37,0.18 0.6,0.18 0.23,0 0.42,-0.06 0.59,-0.18 0.17,-0.12 0.3,-0.31 0.4,-0.57 0.1,-0.26 0.14,-0.59 0.14,-0.99 v -2.9 h 1.51 v 3.36 z" style="fill:#171717" id="path169" />
      <path d="m 40.47,345.41 c 0,0.38 -0.08,0.71 -0.24,0.99 -0.16,0.28 -0.38,0.49 -0.67,0.64 -0.29,0.15 -0.61,0.22 -0.98,0.22 -0.1,0 -0.23,0 -0.38,-0.02 -0.15,-0.02 -0.35,-0.06 -0.6,-0.13 -0.25,-0.07 -0.51,-0.18 -0.78,-0.33 v -1.49 c 0.25,0.19 0.5,0.35 0.74,0.47 0.24,0.13 0.5,0.19 0.78,0.19 0.26,0 0.42,-0.05 0.5,-0.16 0.08,-0.1 0.11,-0.2 0.11,-0.29 0,-0.16 -0.07,-0.3 -0.19,-0.42 -0.13,-0.11 -0.32,-0.23 -0.57,-0.35 -0.27,-0.14 -0.51,-0.29 -0.72,-0.46 -0.21,-0.17 -0.38,-0.37 -0.51,-0.62 -0.13,-0.25 -0.2,-0.54 -0.2,-0.88 0,-0.34 0.07,-0.62 0.2,-0.89 0.13,-0.27 0.33,-0.48 0.6,-0.64 0.27,-0.16 0.6,-0.24 0.99,-0.24 0.28,0 0.54,0.03 0.77,0.1 0.24,0.07 0.43,0.14 0.58,0.22 0.15,0.08 0.26,0.15 0.32,0.19 v 1.43 c -0.2,-0.18 -0.43,-0.34 -0.68,-0.48 -0.25,-0.14 -0.52,-0.21 -0.8,-0.21 -0.19,0 -0.32,0.04 -0.41,0.13 -0.09,0.09 -0.13,0.2 -0.13,0.33 0,0.12 0.04,0.22 0.13,0.31 0.09,0.09 0.23,0.19 0.45,0.32 0.38,0.22 0.69,0.42 0.92,0.59 0.23,0.17 0.41,0.38 0.54,0.61 0.13,0.23 0.2,0.52 0.2,0.86 z" style="fill:#171717" id="path170" />
      <path d="m 44.7,345.41 c 0,0.38 -0.08,0.71 -0.24,0.99 -0.16,0.28 -0.38,0.49 -0.67,0.64 -0.29,0.15 -0.61,0.22 -0.98,0.22 -0.1,0 -0.23,0 -0.38,-0.02 -0.15,-0.02 -0.35,-0.06 -0.6,-0.13 -0.25,-0.07 -0.51,-0.18 -0.78,-0.33 v -1.49 c 0.25,0.19 0.5,0.35 0.74,0.47 0.24,0.13 0.5,0.19 0.78,0.19 0.26,0 0.42,-0.05 0.5,-0.16 0.08,-0.1 0.11,-0.2 0.11,-0.29 0,-0.16 -0.07,-0.3 -0.19,-0.42 -0.13,-0.11 -0.32,-0.23 -0.57,-0.35 -0.27,-0.14 -0.51,-0.29 -0.72,-0.46 -0.21,-0.17 -0.38,-0.37 -0.51,-0.62 -0.13,-0.25 -0.2,-0.54 -0.2,-0.88 0,-0.34 0.07,-0.62 0.2,-0.89 0.13,-0.27 0.33,-0.48 0.6,-0.64 0.27,-0.16 0.6,-0.24 0.99,-0.24 0.28,0 0.54,0.03 0.77,0.1 0.24,0.07 0.43,0.14 0.58,0.22 0.15,0.08 0.26,0.15 0.32,0.19 v 1.43 c -0.2,-0.18 -0.43,-0.34 -0.68,-0.48 -0.25,-0.14 -0.52,-0.21 -0.8,-0.21 -0.19,0 -0.32,0.04 -0.41,0.13 -0.09,0.09 -0.13,0.2 -0.13,0.33 0,0.12 0.04,0.22 0.13,0.31 0.09,0.09 0.23,0.19 0.45,0.32 0.38,0.22 0.69,0.42 0.92,0.59 0.23,0.17 0.41,0.38 0.54,0.61 0.13,0.23 0.2,0.52 0.2,0.86 z" style="fill:#171717" id="path171" />
      <path d="m 46.94,347.18 h -1.51 v -6.09 h 1.51 z" style="fill:#171717" id="path172" />
      <path d="m 53.26,344.13 c 0,0.57 -0.11,1.09 -0.32,1.57 -0.21,0.48 -0.54,0.86 -0.96,1.14 -0.42,0.28 -0.94,0.42 -1.55,0.42 -0.61,0 -1.14,-0.15 -1.57,-0.44 -0.43,-0.29 -0.75,-0.68 -0.95,-1.16 -0.21,-0.48 -0.31,-0.99 -0.31,-1.53 0,-0.54 0.1,-1.06 0.31,-1.54 0.21,-0.48 0.52,-0.86 0.95,-1.15 0.43,-0.29 0.95,-0.44 1.57,-0.44 0.46,0 0.87,0.08 1.23,0.25 0.36,0.17 0.66,0.39 0.89,0.68 0.23,0.29 0.41,0.62 0.53,1 0.12,0.38 0.18,0.78 0.18,1.2 z m -1.53,0 c 0,-0.23 -0.03,-0.44 -0.08,-0.63 -0.06,-0.19 -0.14,-0.35 -0.25,-0.49 -0.11,-0.14 -0.25,-0.25 -0.41,-0.33 -0.16,-0.08 -0.35,-0.12 -0.56,-0.12 -0.4,0 -0.72,0.14 -0.95,0.43 -0.23,0.29 -0.35,0.66 -0.35,1.13 0,0.47 0.12,0.84 0.35,1.13 0.23,0.29 0.55,0.43 0.95,0.43 0.28,0 0.51,-0.07 0.71,-0.2 0.19,-0.13 0.34,-0.32 0.44,-0.55 0.1,-0.24 0.15,-0.51 0.15,-0.81 z" style="fill:#171717" id="path173" />
      <path d="m 59.22,347.18 h -1.34 l -2.59,-3.39 v 3.39 H 53.8 v -6.09 h 1.34 l 2.58,3.38 v -3.38 h 1.5 z" style="fill:#171717" id="path174" />
      <path d="m 63.6,347.18 h -1.51 v -6.09 h 1.51 z" style="fill:#171717" id="path175" />
      <path d="m 70,347.18 h -1.34 l -2.59,-3.39 v 3.39 h -1.49 v -6.09 h 1.34 l 2.58,3.38 v -3.38 H 70 Z" style="fill:#171717" id="path176" />
      <path d="m 75.75,342.57 h -1.83 v 4.61 h -1.5 v -4.61 h -1.83 v -1.48 h 5.16 z" style="fill:#171717" id="path177" />
      <path d="m 80.1,347.18 h -3.76 v -6.09 h 3.7 v 1.22 h -2.2 v 1.12 h 2.1 v 1.23 h -2.1 v 1.3 h 2.26 v 1.23 z" style="fill:#171717" id="path178" />
      <path d="m 85.66,347.18 h -1.62 l -0.39,-1.08 c -0.14,-0.4 -0.27,-0.68 -0.39,-0.87 -0.12,-0.18 -0.23,-0.3 -0.34,-0.35 -0.11,-0.05 -0.25,-0.08 -0.42,-0.08 h -0.17 v 2.38 h -1.5 v -6.09 h 2.56 c 0.41,0 0.75,0.1 1.02,0.31 0.26,0.21 0.45,0.45 0.57,0.75 0.12,0.3 0.17,0.57 0.17,0.83 0,0.31 -0.05,0.57 -0.15,0.78 -0.1,0.21 -0.2,0.37 -0.31,0.46 -0.11,0.1 -0.23,0.19 -0.36,0.28 0.16,0.11 0.29,0.25 0.4,0.41 0.1,0.16 0.25,0.47 0.43,0.95 z m -2.05,-4.17 c 0,-0.28 -0.08,-0.48 -0.23,-0.59 -0.15,-0.11 -0.4,-0.17 -0.74,-0.17 h -0.32 v 1.47 h 0.32 c 0.37,0 0.62,-0.05 0.75,-0.15 0.14,-0.1 0.2,-0.29 0.2,-0.56 z" style="fill:#171717" id="path179" />
      <path d="m 89.63,344.71 h -2.07 v 2.46 h -1.5 v -6.09 h 3.58 v 1.22 h -2.07 v 1.18 h 2.07 v 1.23 z" style="fill:#171717" id="path180" />
      <path d="m 95.42,347.18 h -1.54 l -0.41,-1.23 H 91.3 l -0.41,1.23 h -1.54 l 2.21,-6.09 h 1.66 z m -2.29,-2.29 -0.73,-2.22 -0.74,2.22 z" style="fill:#171717" id="path181" />
      <path d="m 100.15,346.72 c -0.21,0.13 -0.42,0.24 -0.63,0.32 -0.22,0.08 -0.43,0.14 -0.65,0.17 -0.22,0.03 -0.45,0.05 -0.68,0.05 -0.43,0 -0.82,-0.07 -1.17,-0.22 -0.34,-0.15 -0.64,-0.36 -0.9,-0.65 -0.25,-0.29 -0.44,-0.62 -0.57,-1 -0.13,-0.38 -0.19,-0.8 -0.19,-1.26 0,-0.52 0.07,-0.98 0.22,-1.38 0.15,-0.39 0.36,-0.72 0.62,-0.98 0.27,-0.26 0.57,-0.45 0.92,-0.58 0.34,-0.12 0.7,-0.19 1.08,-0.19 0.57,0 1.21,0.15 1.93,0.46 v 1.62 c -0.25,-0.19 -0.49,-0.34 -0.73,-0.47 -0.24,-0.12 -0.53,-0.19 -0.85,-0.19 -0.29,0 -0.56,0.07 -0.81,0.21 -0.25,0.14 -0.46,0.34 -0.61,0.6 -0.15,0.26 -0.23,0.57 -0.23,0.91 0,0.31 0.07,0.59 0.2,0.85 0.13,0.26 0.32,0.46 0.56,0.61 0.24,0.15 0.51,0.23 0.81,0.23 0.24,0 0.47,-0.04 0.69,-0.11 0.22,-0.07 0.4,-0.15 0.55,-0.24 0.15,-0.09 0.3,-0.19 0.46,-0.31 v 1.54 z" style="fill:#171717" id="path182" />
      <path d="m 104.64,347.18 h -3.76 v -6.09 h 3.7 v 1.22 h -2.2 v 1.12 h 2.1 v 1.23 h -2.1 v 1.3 h 2.26 v 1.23 z" style="fill:#171717" id="path183" />
    </g>
    <path d="m 83.06,76.66 v -6.38 h -1 c 0,0.06 0.01,1.61 1.16,3.2 1.15,1.6 3.45,3.14 7.76,3.18 v -1 C 86.91,75.61 85,74.22 84.03,72.89 83.55,72.22 83.3,71.56 83.18,71.06 83.12,70.81 83.09,70.61 83.07,70.47 v -0.16 c 0,0 -0.01,-0.04 -0.01,-0.04 v 0 c 0,0 -1,0 -1,0 v 6.38 h 1 v 0 z" style="fill:#171717" id="path184" />
    <path d="m 83.06,124.03446 v 6.38 h -1 c 0,-0.06 0.01,-1.61 1.16,-3.2 1.15,-1.6 3.45,-3.14 7.76,-3.18 v 1 c -4.07,0.05 -5.98,1.44 -6.95,2.77 -0.48,0.67 -0.73,1.33 -0.85,1.83 -0.06,0.25 -0.09,0.45 -0.11,0.59 v 0.16 c 0,0 -0.01,0.04 -0.01,0.04 v 0 c 0,0 -1,0 -1,0 v -6.38 h 1 v 0 z" style="fill:#171717" id="path185" />
    <g id="g200">
      <path d="m 86.52,34.33 c -0.52,0 -1.04,0.04 -1.54,0.11 l -0.25,-1.39 c 0.59,-0.08 1.18,-0.12 1.79,-0.12 0.61,0 1.2,0.04 1.79,0.12 l -0.24,1.39 c -0.51,-0.06 -1.02,-0.11 -1.54,-0.11 z" style="fill:#171717" id="path186" />
      <path d="m 77.41,38.34 -1.09,-0.91 c 0.8,-0.88 1.72,-1.65 2.73,-2.3 l 0.7,1.22 c -0.86,0.56 -1.65,1.24 -2.35,1.99 z" style="fill:#171717" id="path187" />
      <path d="M 80.85,35.72 80.14,34.5 c 1.05,-0.55 2.17,-0.96 3.36,-1.23 l 0.25,1.39 c -1.02,0.23 -1.99,0.59 -2.9,1.06 z" style="fill:#171717" id="path188" />
      <path d="m 75.06,41.96 -1.32,-0.48 c 0.46,-1.11 1.06,-2.15 1.78,-3.09 l 1.09,0.91 c -0.62,0.82 -1.14,1.71 -1.54,2.66 z" style="fill:#171717" id="path189" />
      <path d="m 89.3,34.66 0.25,-1.39 c 1.18,0.26 2.31,0.68 3.36,1.23 l -0.71,1.22 c -0.91,-0.47 -1.88,-0.83 -2.89,-1.06 z" style="fill:#171717" id="path190" />
      <path d="m 74.13,46.17 h -1.42 c 0.05,-1.22 0.26,-2.39 0.6,-3.51 l 1.32,0.48 c -0.29,0.96 -0.46,1.98 -0.51,3.03 z" style="fill:#171717" id="path191" />
      <path d="m 74.67,50.45 -1.32,0.48 c -0.36,-1.12 -0.57,-2.3 -0.63,-3.5 h 1.4 c 0.06,1.03 0.25,2.05 0.55,3.02 z" style="fill:#171717" id="path192" />
      <path d="m 76.65,54.27 -1.08,0.9 C 74.85,54.23 74.25,53.2 73.78,52.1 l 1.32,-0.48 c 0.4,0.94 0.92,1.83 1.54,2.64 z" style="fill:#171717" id="path193" />
      <path d="m 96.44,39.3 1.09,-0.91 c 0.72,0.94 1.32,1.98 1.78,3.09 l -1.32,0.48 C 97.59,41 97.06,40.12 96.45,39.3 Z" style="fill:#171717" id="path194" />
      <path d="m 98.41,43.15 1.33,-0.48 c 0.35,1.12 0.55,2.29 0.6,3.51 H 98.92 C 98.87,45.13 98.7,44.12 98.41,43.15 Z" style="fill:#171717" id="path195" />
      <path d="m 98.93,47.43 h 1.41 c -0.06,1.2 -0.28,2.38 -0.63,3.5 l -1.32,-0.48 c 0.3,-0.97 0.49,-1.98 0.55,-3.02 z" style="fill:#171717" id="path196" />
      <path d="m 97.95,51.63 1.32,0.48 c -0.46,1.09 -1.06,2.12 -1.79,3.06 l -1.08,-0.9 c 0.62,-0.82 1.14,-1.7 1.54,-2.64 z" style="fill:#171717" id="path197" />
      <path d="m 79.8,57.19 -0.7,1.22 C 78.09,57.76 77.18,57 76.38,56.14 l 1.08,-0.9 c 0.69,0.74 1.47,1.4 2.34,1.96 z" style="fill:#171717" id="path198" />
      <path d="m 95.59,55.23 1.08,0.9 c -0.8,0.86 -1.71,1.63 -2.72,2.27 l -0.7,-1.22 c 0.87,-0.56 1.65,-1.22 2.34,-1.96 z" style="fill:#171717" id="path199" />
      <path d="M 93.29,36.35 94,35.13 c 1.01,0.65 1.93,1.42 2.73,2.3 l -1.09,0.91 c -0.7,-0.75 -1.48,-1.43 -2.35,-1.99 z" style="fill:#171717" id="path200" />
    </g>
    <g id="g215" transform="translate(0,4.3208656)">
      <path d="m 86.52,81.46 c -0.52,0 -1.04,0.04 -1.54,0.11 l -0.25,-1.39 c 0.59,-0.08 1.18,-0.12 1.79,-0.12 0.61,0 1.2,0.04 1.79,0.12 l -0.24,1.39 c -0.51,-0.06 -1.02,-0.11 -1.54,-0.11 z" style="fill:#171717" id="path201" />
      <path d="m 77.41,85.47 -1.09,-0.91 c 0.8,-0.88 1.72,-1.65 2.73,-2.3 l 0.7,1.22 c -0.86,0.56 -1.65,1.24 -2.35,1.99 z" style="fill:#171717" id="path202" />
      <path d="m 80.85,82.85 -0.71,-1.22 c 1.05,-0.55 2.17,-0.96 3.36,-1.23 l 0.25,1.39 c -1.02,0.23 -1.99,0.59 -2.9,1.06 z" style="fill:#171717" id="path203" />
      <path d="m 75.06,89.1 -1.32,-0.48 c 0.46,-1.11 1.06,-2.15 1.78,-3.09 l 1.09,0.91 c -0.62,0.82 -1.14,1.71 -1.54,2.66 z" style="fill:#171717" id="path204" />
      <path d="m 89.3,81.79 0.25,-1.39 c 1.18,0.26 2.31,0.68 3.36,1.23 l -0.71,1.22 c -0.91,-0.47 -1.88,-0.83 -2.89,-1.06 z" style="fill:#171717" id="path205" />
      <path d="m 74.13,93.31 h -1.42 c 0.05,-1.22 0.26,-2.39 0.6,-3.51 l 1.32,0.48 c -0.29,0.96 -0.46,1.98 -0.51,3.03 z" style="fill:#171717" id="path206" />
      <path d="m 74.67,97.58 -1.32,0.48 c -0.36,-1.12 -0.57,-2.3 -0.63,-3.5 h 1.4 c 0.06,1.03 0.25,2.05 0.55,3.02 z" style="fill:#171717" id="path207" />
      <path d="m 76.65,101.41 -1.08,0.9 c -0.72,-0.94 -1.32,-1.97 -1.79,-3.07 l 1.32,-0.48 c 0.4,0.94 0.92,1.83 1.54,2.64 z" style="fill:#171717" id="path208" />
      <path d="m 96.44,86.44 1.09,-0.91 c 0.72,0.94 1.32,1.98 1.78,3.09 l -1.32,0.48 c -0.4,-0.96 -0.93,-1.84 -1.54,-2.66 z" style="fill:#171717" id="path209" />
      <path d="m 98.41,90.28 1.33,-0.48 c 0.35,1.12 0.55,2.29 0.6,3.51 H 98.92 C 98.87,92.26 98.7,91.25 98.41,90.28 Z" style="fill:#171717" id="path210" />
      <path d="m 98.93,94.56 h 1.41 c -0.06,1.2 -0.28,2.38 -0.63,3.5 l -1.32,-0.48 c 0.3,-0.97 0.49,-1.98 0.55,-3.02 z" style="fill:#171717" id="path211" />
      <path d="m 97.95,98.76 1.32,0.48 c -0.46,1.09 -1.06,2.12 -1.79,3.06 l -1.08,-0.9 c 0.62,-0.82 1.14,-1.7 1.54,-2.64 z" style="fill:#171717" id="path212" />
      <path d="m 79.8,104.32 -0.7,1.22 c -1.01,-0.65 -1.92,-1.41 -2.72,-2.27 l 1.08,-0.9 c 0.69,0.74 1.47,1.4 2.34,1.96 z" style="fill:#171717" id="path213" />
      <path d="m 95.59,102.36 1.08,0.9 c -0.8,0.86 -1.71,1.63 -2.72,2.27 l -0.7,-1.22 c 0.87,-0.56 1.65,-1.22 2.34,-1.96 z" style="fill:#171717" id="path214" />
      <path d="M 93.29,83.48 94,82.26 c 1.01,0.65 1.93,1.42 2.73,2.3 l -1.09,0.91 c -0.7,-0.75 -1.48,-1.43 -2.35,-1.99 z" style="fill:#171717" id="path215" />
    </g>
  </g>
  <g /></svg>