<svg xmlns="http://www.w3.org/2000/svg" width="35.65mm" height="130.6mm" viewBox="0 0 101.05 370.19">
  <defs>
    <clipPath id="clip-path">
      <rect x="36.62" y="81.19" width="27.8" height="25.62" style="fill: none" />
    </clipPath>
    <clipPath id="clip-path-3">
      <rect x="36.62" y="125.94" width="27.8" height="25.62" style="fill: none" />
    </clipPath>
    <clipPath id="clip-path-4">
      <rect x="36.62" y="125.94" width="27.8" height="25.62" style="fill: none" />
    </clipPath>
    <clipPath id="clip-path-5">
      <rect x="36.62" y="170.69" width="27.8" height="25.62" style="fill: none" />
    </clipPath>
    <clipPath id="clip-path-6">
      <rect x="36.62" y="170.69" width="27.8" height="25.62" style="fill: none" />
    </clipPath>
  </defs>
  <g id="faceplate">
    <rect x="0.13" y="0.13" width="100.8" height="364.25" style="fill: #ededed;stroke: #9d9d9e;stroke-miterlimit: 10;stroke-width: 0.25px" />
    <path d="M14.08,294.09v42.58a5.68,5.68,0,0,0,5.67,5.67H81.36A5.68,5.68,0,0,0,87,336.67V316.83h0V294.09Z" />
    <g>
      <path d="M19.75,310.31a5.17,5.17,0,0,1-5.17-5.16V229.91a13.7,13.7,0,0,1,13.68-13.68h44.6a13.69,13.69,0,0,1,13.67,13.68v75.24a5.17,5.17,0,0,1-5.17,5.16Z" style="fill: #ededed" />
      <path d="M72.86,216.73A13.19,13.19,0,0,1,86,229.91v75.24a4.67,4.67,0,0,1-4.67,4.66H19.75a4.67,4.67,0,0,1-4.67-4.66V229.91a13.19,13.19,0,0,1,13.18-13.18h44.6m0-1H28.26a14.22,14.22,0,0,0-14.18,14.18v75.24a5.68,5.68,0,0,0,5.67,5.66H81.36A5.68,5.68,0,0,0,87,305.15V229.91a14.21,14.21,0,0,0-14.17-14.18Z" />
    </g>
    <g>
      <path d="M24.87,351.93a2.74,2.74,0,0,1-.12.81,2.17,2.17,0,0,1-.38.74,1.77,1.77,0,0,1-.7.55,2.38,2.38,0,0,1-1,.21H21.42V357H19.58v-7.45h3.05a2.38,2.38,0,0,1,1,.22,1.79,1.79,0,0,1,.7.56,2.17,2.17,0,0,1,.38.74A2.91,2.91,0,0,1,24.87,351.93ZM23,352a.84.84,0,0,0-.26-.73,1.58,1.58,0,0,0-.92-.2h-.39v1.8h.4a3,3,0,0,0,.7-.07.59.59,0,0,0,.36-.26A1,1,0,0,0,23,352Z" />
      <path d="M27.74,357H25.9v-7.45h1.84Z" />
      <path d="M35.13,351.4H32.9V357H31.06V351.4H28.82v-1.81h6.31Z" />
      <path d="M41.67,356.48a4.29,4.29,0,0,1-.77.39,4.68,4.68,0,0,1-.8.2,5.69,5.69,0,0,1-.83.06,3.58,3.58,0,0,1-1.43-.26,3,3,0,0,1-1.1-.8,3.51,3.51,0,0,1-.7-1.22,5,5,0,0,1-.23-1.54,4.77,4.77,0,0,1,.27-1.68,3.19,3.19,0,0,1,.77-1.2,3.09,3.09,0,0,1,1.12-.71,3.9,3.9,0,0,1,1.32-.23,6.22,6.22,0,0,1,2.36.56v2a5.6,5.6,0,0,0-.9-.57,2.25,2.25,0,0,0-1-.23,2,2,0,0,0-1,.26,2.07,2.07,0,0,0-.74.73,2.34,2.34,0,0,0,0,2.16,1.87,1.87,0,0,0,.68.74,1.76,1.76,0,0,0,1,.28,2.55,2.55,0,0,0,.84-.13,3.52,3.52,0,0,0,.67-.3,4.2,4.2,0,0,0,.55-.38Z" />
      <path d="M49.36,357H47.52v-2.91H44.75V357H42.91v-7.45h1.84v2.74h2.77v-2.74h1.84Z" />
      <path d="M57.84,354.87a2.34,2.34,0,0,1-.3,1.21,1.91,1.91,0,0,1-.81.78,2.59,2.59,0,0,1-1.2.27l-.47,0a3.49,3.49,0,0,1-.73-.16,5,5,0,0,1-.95-.4v-1.82a7.24,7.24,0,0,0,.91.58,2.12,2.12,0,0,0,1,.23.76.76,0,0,0,.61-.19.6.6,0,0,0-.1-.87,3.35,3.35,0,0,0-.69-.42,5,5,0,0,1-.88-.57,2.21,2.21,0,0,1-.62-.76,2.27,2.27,0,0,1-.24-1.08,2.38,2.38,0,0,1,.24-1.08,1.8,1.8,0,0,1,.74-.78,2.42,2.42,0,0,1,1.22-.29,3.51,3.51,0,0,1,.94.12,3.65,3.65,0,0,1,.72.27,2.61,2.61,0,0,1,.38.24v1.75a4.59,4.59,0,0,0-.83-.59,2,2,0,0,0-1-.26.69.69,0,0,0-.49.16.54.54,0,0,0-.16.4.51.51,0,0,0,.16.38,2.24,2.24,0,0,0,.55.39,9.54,9.54,0,0,1,1.12.73,2.34,2.34,0,0,1,.67.74A2.09,2.09,0,0,1,57.84,354.87Z" />
      <path d="M65.54,357H63.7v-2.91H60.93V357H59.09v-7.45h1.84v2.74H63.7v-2.74h1.84Z" />
      <path d="M68.92,357H67.08v-7.45h1.84Z" />
      <path d="M74.83,354H72.3v3H70.46v-7.45h4.37v1.5H72.3v1.44h2.53Z" />
      <path d="M81.93,351.4H79.69V357H77.85V351.4H75.61v-1.81h6.32Z" />
    </g>
    <path d="M70.24,46.26H72.5a21.88,21.88,0,0,0-2.44-9.12l-2,1.13A19.55,19.55,0,0,1,70.24,46.26Z" />
    <path d="M70.24,48.26a19.6,19.6,0,0,1-2.13,8l2,1.12a21.88,21.88,0,0,0,2.44-9.12Z" />
    <g>
      <path d="M42.1,73.86a4.71,4.71,0,0,1-.76.35,4.43,4.43,0,0,1-.78.19,5.34,5.34,0,0,1-.81,0,3.84,3.84,0,0,1-1.4-.24,2.89,2.89,0,0,1-1.07-.72,3.17,3.17,0,0,1-.68-1.11,4.6,4.6,0,0,1,0-2.93,3,3,0,0,1,.75-1.09,3.1,3.1,0,0,1,1.09-.65,4.25,4.25,0,0,1,1.29-.2,6.33,6.33,0,0,1,2.3.51v1.8a5.86,5.86,0,0,0-.87-.52,2.32,2.32,0,0,0-1-.21,2.13,2.13,0,0,0-1,.23,2,2,0,0,0-.73.67,2,2,0,0,0,0,2,1.82,1.82,0,0,0,.67.68,1.91,1.91,0,0,0,1,.25,2.76,2.76,0,0,0,.82-.12,3.11,3.11,0,0,0,.65-.27,5,5,0,0,0,.55-.35Z" />
      <path d="M47.53,71.88a3,3,0,0,1-.29,1.32,2.15,2.15,0,0,1-.85.92,2.65,2.65,0,0,1-1.37.33,2.71,2.71,0,0,1-1.38-.33,2.15,2.15,0,0,1-.85-.92,3.12,3.12,0,0,1-.28-1.32,3.21,3.21,0,0,1,.16-1,2.2,2.2,0,0,1,1.26-1.36,3.22,3.22,0,0,1,2.18,0,2.14,2.14,0,0,1,.79.54,2.33,2.33,0,0,1,.47.81A3.32,3.32,0,0,1,47.53,71.88Zm-1.63,0a1.64,1.64,0,0,0-.23-.93.74.74,0,0,0-.65-.33.73.73,0,0,0-.65.33,2,2,0,0,0,0,1.85.74.74,0,0,0,.65.35.75.75,0,0,0,.65-.34A1.68,1.68,0,0,0,45.9,71.88Z" />
      <path d="M52.52,74.12a6.53,6.53,0,0,1-.63.24,2.31,2.31,0,0,1-.69.09.76.76,0,0,1-.54-.15.85.85,0,0,1-.21-.37,2.57,2.57,0,0,1-.55.38,2,2,0,0,1-.8.14,1.5,1.5,0,0,1-.78-.18,1.11,1.11,0,0,1-.41-.48,1.48,1.48,0,0,1-.12-.59,1.33,1.33,0,0,1,.21-.76,1.54,1.54,0,0,1,.55-.49,7.94,7.94,0,0,1,.91-.39l.48-.18.25-.09.17-.09a1,1,0,0,0-.13-.57c-.08-.14-.27-.2-.55-.2a1.79,1.79,0,0,0-.94.25,3.51,3.51,0,0,0-.8.65V70a2.69,2.69,0,0,1,.62-.39,3.55,3.55,0,0,1,.7-.22,3.71,3.71,0,0,1,.74-.07,2.11,2.11,0,0,1,1.43.42,1.43,1.43,0,0,1,.48,1.15v1.91a1.33,1.33,0,0,0,.05.41c0,.09.08.14.16.14a.87.87,0,0,0,.4-.15Zm-2.16-1V72a4.72,4.72,0,0,0-.8.45.67.67,0,0,0-.25.55.57.57,0,0,0,.12.39.45.45,0,0,0,.3.13.63.63,0,0,0,.31-.1A3.33,3.33,0,0,0,50.36,73.17Z" />
      <path d="M56.5,69.66l-.58,1.77a1,1,0,0,0-.71-.38.72.72,0,0,0-.56.25,2.4,2.4,0,0,0-.46.93v2.14H52.64v-5h1.55v1.2a2.61,2.61,0,0,1,.51-.87,1.14,1.14,0,0,1,.87-.42,1.08,1.08,0,0,1,.46.09A3,3,0,0,1,56.5,69.66Z" />
      <path d="M60.06,72.92A1.51,1.51,0,0,1,59.62,74a1.84,1.84,0,0,1-1.31.42,3.22,3.22,0,0,1-.86-.1,5.8,5.8,0,0,1-.83-.28V72.82a4.52,4.52,0,0,0,.68.38,1.46,1.46,0,0,0,.63.14c.39,0,.58-.12.58-.37a.32.32,0,0,0-.08-.21,1.16,1.16,0,0,0-.3-.22c-.13-.08-.32-.17-.55-.28a2.31,2.31,0,0,1-.73-.58,1.32,1.32,0,0,1-.3-.88,1.35,1.35,0,0,1,.2-.72,1.46,1.46,0,0,1,.6-.55,2,2,0,0,1,1-.22l.35,0a2.79,2.79,0,0,1,.53.11,2.84,2.84,0,0,1,.62.27v1.21l-.23-.15a1.72,1.72,0,0,0-.25-.14,1.5,1.5,0,0,0-.36-.14,1.54,1.54,0,0,0-.43-.06c-.18,0-.3,0-.36.11a.36.36,0,0,0-.1.24.3.3,0,0,0,.1.22,1.75,1.75,0,0,0,.46.27,4.17,4.17,0,0,1,.83.46,1.43,1.43,0,0,1,.44.52A1.7,1.7,0,0,1,60.06,72.92Z" />
      <path d="M65,72.31H62a1.27,1.27,0,0,0,1.24,1,3.8,3.8,0,0,0,1.73-.5v1.09a4.9,4.9,0,0,1-.82.36,4,4,0,0,1-1.24.16,2.6,2.6,0,0,1-1.37-.34,2.12,2.12,0,0,1-.85-.93,3,3,0,0,1-.28-1.32,2.9,2.9,0,0,1,.28-1.31,2.08,2.08,0,0,1,.85-.91,2.7,2.7,0,0,1,1.37-.33,2.1,2.1,0,0,1,1,.26,2,2,0,0,1,.82.85A3.28,3.28,0,0,1,65,72Zm-1.45-.87a1.28,1.28,0,0,0-.21-.77.7.7,0,0,0-.6-.28.76.76,0,0,0-.63.29,1.19,1.19,0,0,0-.23.76Z" />
    </g>
    <path d="M59.52,29.68l1.13-1.95a21.82,21.82,0,0,0-9.12-2.44v2.25A19.76,19.76,0,0,1,59.52,29.68Z" />
    <path d="M67.1,36.53l2-1.12a22,22,0,0,0-6.67-6.68l-1.13,1.95A19.77,19.77,0,0,1,67.1,36.53Z" />
    <path d="M39.8,30.68l-1.13-1.95A22,22,0,0,0,32,35.41l2,1.12A19.77,19.77,0,0,1,39.8,30.68Z" />
    <path d="M49.53,27.54V25.29a21.82,21.82,0,0,0-9.13,2.44l1.13,1.95A19.77,19.77,0,0,1,49.53,27.54Z" />
    <path d="M33.94,58,32,59.11a22,22,0,0,0,6.67,6.68l1.13-2A19.93,19.93,0,0,1,33.94,58Z" />
    <path d="M61.25,63.84l1.13,2a22,22,0,0,0,6.67-6.68L67.1,58A19.77,19.77,0,0,1,61.25,63.84Z" />
    <path d="M30.81,48.26H28.55A21.88,21.88,0,0,0,31,57.38l1.95-1.12A19.6,19.6,0,0,1,30.81,48.26Z" />
    <path d="M32.94,38.27,31,37.14a21.88,21.88,0,0,0-2.44,9.12h2.26A19.55,19.55,0,0,1,32.94,38.27Z" />
    <g id="pips_-_fewest" data-name="pips - fewest">
      <g style="clip-path: url(#clip-path)">
        <g style="clip-path: url(#clip-path)">
          <path d="M56.22,84l.71-1.23a13.86,13.86,0,0,0-5.77-1.54v1.42A12.55,12.55,0,0,1,56.22,84" />
          <path d="M61,88.3l1.24-.71A14,14,0,0,0,58,83.36l-.71,1.24A12.55,12.55,0,0,1,61,88.3" />
          <path d="M43.74,84.6,43,83.36a14,14,0,0,0-4.23,4.23L40,88.3a12.55,12.55,0,0,1,3.7-3.7" />
          <path d="M63,94.45h1.43a13.91,13.91,0,0,0-1.55-5.77l-1.23.72a12.46,12.46,0,0,1,1.35,5" />
          <path d="M49.89,82.61V81.19a13.86,13.86,0,0,0-5.77,1.54L44.83,84a12.72,12.72,0,0,1,5.06-1.35" />
          <path d="M40,101.87l-1.24.72A14.07,14.07,0,0,0,43,106.81l.71-1.23a12.58,12.58,0,0,1-3.7-3.71" />
          <path d="M57.31,105.58l.71,1.23a14.07,14.07,0,0,0,4.23-4.22L61,101.87a12.58,12.58,0,0,1-3.7,3.71" />
          <path d="M63,95.72a12.51,12.51,0,0,1-1.35,5.06l1.23.71a13.87,13.87,0,0,0,1.55-5.77Z" />
          <path d="M38.05,95.72H36.62a13.87,13.87,0,0,0,1.55,5.77l1.23-.71a12.51,12.51,0,0,1-1.35-5.06" />
          <path d="M39.4,89.4l-1.23-.72a13.91,13.91,0,0,0-1.55,5.77h1.43a12.46,12.46,0,0,1,1.35-5" />
        </g>
      </g>
    </g>
    <g>
      <path d="M46.69,115.05H44.22v2.74h-1.8V111h4.27v1.36H44.22v1.31h2.47Z" />
      <path d="M48.92,117.79H47.37v-5h1.55Zm-.12-6.12a.75.75,0,0,1-.2.52.58.58,0,0,1-.78.12.7.7,0,0,1-.24-.27.75.75,0,0,1-.08-.37.78.78,0,0,1,.18-.52.59.59,0,0,1,.92,0A.75.75,0,0,1,48.8,111.67Z" />
      <path d="M54.31,117.79H52.76v-2.68a2,2,0,0,0-.12-.72.5.5,0,0,0-.52-.3.62.62,0,0,0-.33.08,1,1,0,0,0-.26.2c-.07.09-.14.17-.19.25l-.16.25v2.92H49.64v-5h1.54v.71a2.34,2.34,0,0,1,.73-.62,1.86,1.86,0,0,1,.82-.18c1.05,0,1.58.71,1.58,2.14Z" />
      <path d="M59.37,115.73H56.29a1.26,1.26,0,0,0,.44.74,1.23,1.23,0,0,0,.8.29,3.8,3.8,0,0,0,1.73-.5v1.09a4.68,4.68,0,0,1-.83.36,3.83,3.83,0,0,1-1.23.17,2.58,2.58,0,0,1-1.37-.35,2.1,2.1,0,0,1-.85-.92,3,3,0,0,1-.28-1.33A2.9,2.9,0,0,1,55,114a2.08,2.08,0,0,1,.85-.91,2.67,2.67,0,0,1,1.37-.33,2.22,2.22,0,0,1,1,.26,2,2,0,0,1,.82.85,3.29,3.29,0,0,1,.32,1.54Zm-1.45-.87a1.28,1.28,0,0,0-.21-.77.7.7,0,0,0-.6-.28.76.76,0,0,0-.63.29,1.15,1.15,0,0,0-.24.76Z" />
    </g>
    <g id="pips_-_fewest-2" data-name="pips - fewest">
      <g style="clip-path: url(#clip-path-3)">
        <g style="clip-path: url(#clip-path-4)">
          <path d="M56.22,128.72l.71-1.24a13.86,13.86,0,0,0-5.77-1.54v1.42a12.56,12.56,0,0,1,5.06,1.36" />
          <path d="M61,133.05l1.24-.71A14,14,0,0,0,58,128.12l-.71,1.23a12.55,12.55,0,0,1,3.7,3.7" />
          <path d="M43.74,129.35,43,128.12a13.85,13.85,0,0,0-4.23,4.22l1.24.71a12.55,12.55,0,0,1,3.7-3.7" />
          <path d="M63,139.21h1.43a13.83,13.83,0,0,0-1.55-5.77l-1.23.71A12.47,12.47,0,0,1,63,139.21" />
          <path d="M49.89,127.36v-1.42a13.86,13.86,0,0,0-5.77,1.54l.71,1.24a12.56,12.56,0,0,1,5.06-1.36" />
          <path d="M40,146.63l-1.24.71A14.07,14.07,0,0,0,43,151.56l.71-1.23a12.67,12.67,0,0,1-3.7-3.7" />
          <path d="M57.31,150.33l.71,1.23a14.07,14.07,0,0,0,4.23-4.22L61,146.63a12.67,12.67,0,0,1-3.7,3.7" />
          <path d="M63,140.47a12.47,12.47,0,0,1-1.35,5.06l1.23.71a13.83,13.83,0,0,0,1.55-5.77Z" />
          <path d="M38.05,140.47H36.62a13.83,13.83,0,0,0,1.55,5.77l1.23-.71a12.47,12.47,0,0,1-1.35-5.06" />
          <path d="M39.4,134.15l-1.23-.71a13.83,13.83,0,0,0-1.55,5.77h1.43a12.47,12.47,0,0,1,1.35-5.06" />
        </g>
      </g>
    </g>
    <g>
      <path d="M43.07,155.77l-2.58,6.86h-1l-1.55-4-1.58,4h-1l-2.53-6.86H34.6l1.24,3.75,1.42-3.75h1.28l1.39,3.75,1.3-3.75Z" />
      <path d="M44.92,162.54H43.36v-5h1.56Zm-.13-6.12a.73.73,0,0,1-.19.52.58.58,0,0,1-.46.22.62.62,0,0,1-.56-.37.75.75,0,0,1-.09-.37.76.76,0,0,1,.19-.52.57.57,0,0,1,.46-.22.58.58,0,0,1,.46.22A.76.76,0,0,1,44.79,156.42Z" />
      <path d="M50.3,162.54H48.75v-2.68a2,2,0,0,0-.12-.72.48.48,0,0,0-.51-.3.63.63,0,0,0-.34.08.82.82,0,0,0-.25.21,2.12,2.12,0,0,0-.2.24l-.15.25v2.92H45.63v-5h1.55v.71a2.14,2.14,0,0,1,.73-.62,1.83,1.83,0,0,1,.82-.18c1.05,0,1.57.71,1.57,2.14Z" />
      <path d="M55.5,162.54H54v-.45a2.44,2.44,0,0,1-.52.39,1.56,1.56,0,0,1-.75.15,1.85,1.85,0,0,1-.94-.27,2.07,2.07,0,0,1-.75-.84,3.06,3.06,0,0,1-.3-1.43,3.76,3.76,0,0,1,.22-1.27,2.18,2.18,0,0,1,.71-1,1.79,1.79,0,0,1,1.16-.37,1.94,1.94,0,0,1,.7.11,1.8,1.8,0,0,1,.47.27v-2.09H55.5ZM54,161v-1.9a4,4,0,0,0-.42-.25.8.8,0,0,0-.36-.07.73.73,0,0,0-.61.35,1.71,1.71,0,0,0-.24,1,1.41,1.41,0,0,0,.26,1,.75.75,0,0,0,.59.3.83.83,0,0,0,.45-.1A1.59,1.59,0,0,0,54,161Z" />
      <path d="M61,160.05a3,3,0,0,1-.28,1.32,2.1,2.1,0,0,1-.85.92,3,3,0,0,1-2.76,0,2.08,2.08,0,0,1-.84-.92,3,3,0,0,1-.28-1.32,3.22,3.22,0,0,1,.15-1,2.35,2.35,0,0,1,.48-.81,2.12,2.12,0,0,1,.79-.55,2.78,2.78,0,0,1,1.08-.19,3,3,0,0,1,1.09.19,2.14,2.14,0,0,1,.79.54,2.19,2.19,0,0,1,.47.81A3.05,3.05,0,0,1,61,160.05Zm-1.63,0a1.66,1.66,0,0,0-.22-.93.82.82,0,0,0-1.31,0,1.66,1.66,0,0,0-.22.93,1.69,1.69,0,0,0,.22.93.75.75,0,0,0,.65.34.73.73,0,0,0,.66-.34A1.69,1.69,0,0,0,59.33,160.05Z" />
      <path d="M68.37,157.57l-1.72,5h-1l-1-2.71-1,2.71h-1l-1.77-5h1.57l.8,2.51.85-2.51h1l.86,2.51.77-2.51Z" />
    </g>
    <g id="pips_-_fewest-3" data-name="pips - fewest">
      <g style="clip-path: url(#clip-path-5)">
        <g style="clip-path: url(#clip-path-6)">
          <path d="M56.22,173.47l.71-1.24a13.86,13.86,0,0,0-5.77-1.54v1.43a12.39,12.39,0,0,1,5.06,1.35" />
          <path d="M61,177.8l1.24-.71A14,14,0,0,0,58,172.87l-.71,1.23a12.55,12.55,0,0,1,3.7,3.7" />
          <path d="M43.74,174.1,43,172.87a14,14,0,0,0-4.23,4.22l1.24.71a12.55,12.55,0,0,1,3.7-3.7" />
          <path d="M63,184h1.43a13.83,13.83,0,0,0-1.55-5.77l-1.23.71A12.47,12.47,0,0,1,63,184" />
          <path d="M49.89,172.12v-1.43a13.86,13.86,0,0,0-5.77,1.54l.71,1.24a12.39,12.39,0,0,1,5.06-1.35" />
          <path d="M40,191.38l-1.24.71A14,14,0,0,0,43,196.31l.71-1.23a12.55,12.55,0,0,1-3.7-3.7" />
          <path d="M57.31,195.08l.71,1.23a14,14,0,0,0,4.23-4.22L61,191.38a12.55,12.55,0,0,1-3.7,3.7" />
          <path d="M63,185.22a12.47,12.47,0,0,1-1.35,5.06l1.23.71a13.83,13.83,0,0,0,1.55-5.77Z" />
          <path d="M38.05,185.22H36.62A13.83,13.83,0,0,0,38.17,191l1.23-.71a12.47,12.47,0,0,1-1.35-5.06" />
          <path d="M39.4,178.9l-1.23-.71A13.83,13.83,0,0,0,36.62,184h1.43a12.47,12.47,0,0,1,1.35-5.06" />
        </g>
      </g>
    </g>
    <g>
      <path d="M50.3,207.29H48.51v-3.92l-1.62,2.27h-.14l-1.63-2.27v3.92H43.38v-6.77H45l1.83,2.54,1.84-2.54H50.3Z" />
      <path d="M52.83,207.29H51.28v-5h1.55Zm-.12-6.12a.73.73,0,0,1-.2.52.58.58,0,0,1-.46.22.56.56,0,0,1-.33-.1.73.73,0,0,1-.23-.26.82.82,0,0,1,.1-.9.59.59,0,0,1,.92,0A.77.77,0,0,1,52.71,201.17Z" />
      <path d="M58.42,207.29H56.51l-.85-1.41-.84,1.41H53.13l1.69-2.44-1.73-2.53H55l.8,1.35.82-1.35h1.69l-1.65,2.36Z" />
    </g>
    <g>
      <path d="M31.38,326.76a3.12,3.12,0,0,1-.31,1.4,2.4,2.4,0,0,1-.91,1,2.79,2.79,0,0,1-1.49.38,2.71,2.71,0,0,1-1.49-.4,2.42,2.42,0,0,1-.91-1,3.19,3.19,0,0,1-.3-1.37,3.14,3.14,0,0,1,.3-1.36,2.25,2.25,0,0,1,.91-1,2.71,2.71,0,0,1,1.49-.39,2.92,2.92,0,0,1,1.18.22,2.33,2.33,0,0,1,.85.6,2.79,2.79,0,0,1,.51.89A3.41,3.41,0,0,1,31.38,326.76Zm-1.47,0a1.93,1.93,0,0,0-.07-.55,1.43,1.43,0,0,0-.24-.44,1.24,1.24,0,0,0-.39-.29,1.3,1.3,0,0,0-.54-.1,1.11,1.11,0,0,0-.9.38,1.47,1.47,0,0,0-.33,1,1.5,1.5,0,0,0,.33,1,1.11,1.11,0,0,0,.9.38,1.32,1.32,0,0,0,.68-.17,1.21,1.21,0,0,0,.42-.5A1.65,1.65,0,0,0,29.91,326.76Z" style="fill: #fff" />
      <path d="M35.47,329.47H34.24v-.56a2.18,2.18,0,0,1-.55.48,1.53,1.53,0,0,1-.69.16,1,1,0,0,1-1-.53,2.84,2.84,0,0,1-.23-1.19V325.5H33v2.15a1.6,1.6,0,0,0,.1.56.39.39,0,0,0,.41.25.54.54,0,0,0,.43-.18,2.19,2.19,0,0,0,.33-.45V325.5h1.23Z" style="fill: #fff" />
      <path d="M38.75,329.24a3,3,0,0,1-.54.21,2.5,2.5,0,0,1-.64.1c-.89,0-1.34-.5-1.34-1.49v-1.59h-.56v-.24l1.66-1.92h.14v1.19h1.18v1H37.47v1.28a3.21,3.21,0,0,0,0,.36.46.46,0,0,0,.14.23.55.55,0,0,0,.34.09,1.76,1.76,0,0,0,.78-.28Z" style="fill: #fff" />
    </g>
    <g>
      <path d="M66.1,254.65a1.9,1.9,0,0,1-.09.58,1.52,1.52,0,0,1-.3.54,1.35,1.35,0,0,1-.55.4,1.86,1.86,0,0,1-.81.16h-.94v2H62v-5.42h2.38a2,2,0,0,1,.81.16,1.37,1.37,0,0,1,.55.41,1.44,1.44,0,0,1,.3.54A2,2,0,0,1,66.1,254.65Zm-1.47,0a.58.58,0,0,0-.2-.52,1.24,1.24,0,0,0-.72-.15h-.3v1.31h.31a2.51,2.51,0,0,0,.55,0,.49.49,0,0,0,.28-.19A.83.83,0,0,0,64.63,254.65Z" />
      <path d="M67.71,258.36H66.47v-4h1.24Zm-.1-4.9a.6.6,0,0,1-.15.42.46.46,0,0,1-.37.17.4.4,0,0,1-.26-.08.55.55,0,0,1-.19-.21.6.6,0,0,1-.07-.3.59.59,0,0,1,.15-.41.47.47,0,0,1,.74,0A.59.59,0,0,1,67.61,253.46Z" />
      <path d="M71,258.13a2.19,2.19,0,0,1-.53.2,2.13,2.13,0,0,1-.64.1c-.9,0-1.34-.5-1.34-1.49v-1.58H68v-.25l1.66-1.92h.14v1.19H71v1H69.77v1.27a3.21,3.21,0,0,0,0,.36.37.37,0,0,0,.14.23.53.53,0,0,0,.34.09A1.65,1.65,0,0,0,71,257Z" />
      <path d="M74.3,258.17l-.32.13a2.23,2.23,0,0,1-.39.09,2.29,2.29,0,0,1-.47,0,2,2,0,0,1-1-.22,1.58,1.58,0,0,1-.61-.56,1.94,1.94,0,0,1-.3-.68,2.92,2.92,0,0,1-.08-.61,3.1,3.1,0,0,1,.08-.62,2.34,2.34,0,0,1,.3-.67,1.76,1.76,0,0,1,.6-.54,2,2,0,0,1,1-.22,2.68,2.68,0,0,1,.63.06,4.91,4.91,0,0,1,.5.17v1.11a3,3,0,0,0-1-.22.84.84,0,0,0-.58.22.92.92,0,0,0-.26.71,1,1,0,0,0,.13.53.76.76,0,0,0,.32.32.81.81,0,0,0,.39.1,1.77,1.77,0,0,0,.43-.06c.15,0,.35-.1.57-.18Z" />
      <path d="M78.36,258.36H77.12v-2.11a.55.55,0,0,0,0-.09,1.32,1.32,0,0,0-.11-.53.41.41,0,0,0-.41-.23.6.6,0,0,0-.41.17,2.4,2.4,0,0,0-.34.45v2.34H74.62v-5.42h1.24v2a1.68,1.68,0,0,1,.61-.5,1.49,1.49,0,0,1,.63-.14c.84,0,1.26.54,1.26,1.61Z" />
    </g>
    <g>
      <path d="M24,258.36H22.53v-5.42H24Z" />
      <path d="M28.42,258.36H27.18v-2.15a1.62,1.62,0,0,0-.09-.57.39.39,0,0,0-.41-.24.6.6,0,0,0-.27.06.68.68,0,0,0-.21.17l-.15.19-.13.2v2.34H24.69v-4h1.23V255a1.87,1.87,0,0,1,.59-.5,1.55,1.55,0,0,1,.65-.14q1.26,0,1.26,1.71Z" />
      <path d="M32.73,256.34a3.25,3.25,0,0,1-.1.77,2.16,2.16,0,0,1-.31.67,1.38,1.38,0,0,1-.52.47,1.73,1.73,0,0,1-1.29.1,2.65,2.65,0,0,1-.4-.22v2H28.88v-5.79h1.23v.36a2.45,2.45,0,0,1,.41-.31,1.32,1.32,0,0,1,.61-.12,1.39,1.39,0,0,1,.75.22,1.54,1.54,0,0,1,.61.67A2.41,2.41,0,0,1,32.73,256.34Zm-1.31,0a1.37,1.37,0,0,0-.1-.58.72.72,0,0,0-.25-.33.68.68,0,0,0-.33-.09.64.64,0,0,0-.36.08,1.26,1.26,0,0,0-.27.2v1.52l.14.08a1.19,1.19,0,0,0,.15.09l.16.06.18,0a.58.58,0,0,0,.49-.28A1.33,1.33,0,0,0,31.42,256.37Z" />
      <path d="M36.77,258.36H35.54v-.57a2.18,2.18,0,0,1-.55.48,1.42,1.42,0,0,1-.7.16,1,1,0,0,1-1-.53,2.79,2.79,0,0,1-.23-1.18v-2.34h1.23v2.15a1.61,1.61,0,0,0,.1.57.39.39,0,0,0,.41.24.56.56,0,0,0,.43-.17,3.77,3.77,0,0,0,.33-.45v-2.34h1.23Z" />
      <path d="M40.05,258.13a2.48,2.48,0,0,1-.54.2,2.13,2.13,0,0,1-.64.1c-.9,0-1.34-.5-1.34-1.49v-1.58H37v-.25l1.66-1.92h.14v1.19H40v1H38.77v1.27a3.21,3.21,0,0,0,0,.36.43.43,0,0,0,.14.23.53.53,0,0,0,.34.09,1.68,1.68,0,0,0,.78-.28Z" />
    </g>
    <g>
      <path d="M69.83,307.18H68.39V304l-1.3,1.82H67L65.68,304v3.14H64.29v-5.42h1.3l1.46,2,1.47-2h1.31Z" />
      <path d="M71.85,307.18H70.61v-4h1.24Zm-.1-4.9a.57.57,0,0,1-.16.42.44.44,0,0,1-.36.17.43.43,0,0,1-.27-.08.46.46,0,0,1-.18-.21.6.6,0,0,1-.07-.3.64.64,0,0,1,.15-.42.48.48,0,0,1,.37-.17.48.48,0,0,1,.36.17A.6.6,0,0,1,71.75,302.28Z" />
      <path d="M76.32,307.18H74.79l-.68-1.13-.67,1.13H72.09l1.35-2-1.38-2h1.52l.65,1.08.65-1.08h1.36l-1.33,1.89Z" />
    </g>
    <g>
      <path d="M25,301.76l-2.06,5.49h-.83l-1.24-3.19-1.27,3.19h-.84l-2-5.49h1.49l1,3,1.14-3h1l1.12,3,1-3Z" />
      <path d="M26.43,307.18H25.19v-4h1.24Zm-.1-4.9a.6.6,0,0,1-.15.42.48.48,0,0,1-.37.17.4.4,0,0,1-.26-.08.48.48,0,0,1-.19-.21.6.6,0,0,1-.07-.3.64.64,0,0,1,.15-.42.48.48,0,0,1,.37-.17.51.51,0,0,1,.37.17A.64.64,0,0,1,26.33,302.28Z" />
      <path d="M30.74,307.18H29.5V305a1.62,1.62,0,0,0-.09-.57.4.4,0,0,0-.42-.24.53.53,0,0,0-.26.06.68.68,0,0,0-.21.17,1.25,1.25,0,0,0-.15.19l-.13.2v2.34H27v-4h1.24v.57a1.77,1.77,0,0,1,.59-.5,1.51,1.51,0,0,1,.65-.14q1.26,0,1.26,1.71Z" />
      <path d="M34.9,307.18H33.66v-.36a2.33,2.33,0,0,1-.41.31,1.29,1.29,0,0,1-.61.12,1.44,1.44,0,0,1-.75-.22,1.59,1.59,0,0,1-.6-.67,2.41,2.41,0,0,1-.24-1.14,2.8,2.8,0,0,1,.18-1,1.75,1.75,0,0,1,.56-.77,1.49,1.49,0,0,1,.94-.3,1.4,1.4,0,0,1,.55.09,1.38,1.38,0,0,1,.38.21v-1.67H34.9Zm-1.24-1.27v-1.52a3.44,3.44,0,0,0-.34-.19.61.61,0,0,0-.28-.06.57.57,0,0,0-.49.28,1.32,1.32,0,0,0-.2.76,1.14,1.14,0,0,0,.21.77.61.61,0,0,0,.48.24.68.68,0,0,0,.36-.08A1.21,1.21,0,0,0,33.66,305.91Z" />
      <path d="M39.27,305.18a2.39,2.39,0,0,1-.23,1.06,1.73,1.73,0,0,1-.68.74,2.38,2.38,0,0,1-2.2,0,1.73,1.73,0,0,1-.68-.74,2.39,2.39,0,0,1-.22-1.06,2.6,2.6,0,0,1,.12-.81,1.92,1.92,0,0,1,.38-.65,1.67,1.67,0,0,1,.63-.44,2.33,2.33,0,0,1,.87-.15,2.42,2.42,0,0,1,.88.15,1.66,1.66,0,0,1,.62.44,1.73,1.73,0,0,1,.38.64A2.43,2.43,0,0,1,39.27,305.18Zm-1.31,0a1.33,1.33,0,0,0-.18-.74.65.65,0,0,0-1,0,1.33,1.33,0,0,0-.18.74,1.34,1.34,0,0,0,.18.75.59.59,0,0,0,.52.27.58.58,0,0,0,.52-.27A1.34,1.34,0,0,0,38,305.18Z" />
      <path d="M45.2,303.2l-1.38,4H43L42.25,305l-.77,2.17H40.7l-1.42-4h1.26l.64,2,.68-2h.79l.69,2,.62-2Z" />
    </g>
    <g>
      <path d="M56.14,6.76l-5.53,7v-6A1.27,1.27,0,0,0,50,6.59a.89.89,0,0,0-1.13.29l-7.28,9.25a1.49,1.49,0,0,0,0,1.79.9.9,0,0,0,1.46,0l5.5-7v6a1.29,1.29,0,0,0,.64,1.18.92.92,0,0,0,1.14-.3l5.53-7v6.15a1.05,1.05,0,1,0,2.06,0V7.64a1.28,1.28,0,0,0-.65-1.18A.91.91,0,0,0,56.14,6.76Z" style="stroke: #000;stroke-width: 0.6000000000000001px" />
      <path d="M41.56,6.68l-4.81,6.13a1.47,1.47,0,0,0,0,1.79.9.9,0,0,0,1.46,0l3.05-3.87V17a1.05,1.05,0,1,0,2.06,0V7.56a1.29,1.29,0,0,0-.65-1.17A.91.91,0,0,0,41.56,6.68Z" style="stroke: #000;stroke-width: 0.6000000000000001px" />
      <path d="M64.51,11.2a1.05,1.05,0,0,0-1-.77h-2.1L63,8.48s.8-1.17.1-1.82a1.27,1.27,0,0,0-1.58.06l-3.23,4.1a1.45,1.45,0,0,0-.2,1.37A1,1,0,0,0,59,13h2.1l-2.49,3.17s-1,1.13-.27,1.89,1.75-.14,1.75-.14l4.18-5.31A1.5,1.5,0,0,0,64.51,11.2Z" style="stroke: #000;stroke-width: 0.6000000000000001px" />
    </g>
  </g>
  <g /></svg>