<?xml version="1.0" encoding="UTF-8" standalone="no"?>
<svg
   width="35.56mm"
   height="130.55mm"
   viewBox="0 0 100.8 370.07"
   version="1.1"
   id="svg70"
   sodipodi:docname="PitchShift_artwork.svg"
   inkscape:version="1.4.2 (ebf0e940, 2025-05-08)"
   xmlns:inkscape="http://www.inkscape.org/namespaces/inkscape"
   xmlns:sodipodi="http://sodipodi.sourceforge.net/DTD/sodipodi-0.dtd"
   xmlns="http://www.w3.org/2000/svg"
   xmlns:svg="http://www.w3.org/2000/svg">
  <sodipodi:namedview
     id="namedview70"
     pagecolor="#ffffff"
     bordercolor="#000000"
     borderopacity="0.25"
     inkscape:showpageshadow="2"
     inkscape:pageopacity="0.0"
     inkscape:pagecheckerboard="0"
     inkscape:deskcolor="#d1d1d1"
     inkscape:document-units="mm"
     inkscape:zoom="1.7575818"
     inkscape:cx="169.26666"
     inkscape:cy="444.92949"
     inkscape:window-width="1200"
     inkscape:window-height="979"
     inkscape:window-x="528"
     inkscape:window-y="38"
     inkscape:window-maximized="0"
     inkscape:current-layer="faceplate" />
  <defs
     id="defs6">
    <clipPath
       id="clippath">
      <rect
         x="36.5"
         y="81.06"
         width="27.8"
         height="25.62"
         style="fill: none; stroke-width: 0px;"
         id="rect1" />
    </clipPath>
    <clipPath
       id="clippath-1">
      <rect
         x="36.5"
         y="81.06"
         width="27.8"
         height="25.62"
         style="fill: none; stroke-width: 0px;"
         id="rect2" />
    </clipPath>
    <clipPath
       id="clippath-2">
      <rect
         x="36.5"
         y="125.81"
         width="27.8"
         height="25.62"
         style="fill: none; stroke-width: 0px;"
         id="rect3" />
    </clipPath>
    <clipPath
       id="clippath-3">
      <rect
         x="36.5"
         y="125.81"
         width="27.8"
         height="25.62"
         style="fill: none; stroke-width: 0px;"
         id="rect4" />
    </clipPath>
    <clipPath
       id="clippath-4">
      <rect
         x="36.5"
         y="170.56"
         width="27.8"
         height="25.62"
         style="fill: none; stroke-width: 0px;"
         id="rect5" />
    </clipPath>
    <clipPath
       id="clippath-5">
      <rect
         x="36.5"
         y="170.56"
         width="27.8"
         height="25.62"
         style="fill: none; stroke-width: 0px;"
         id="rect6" />
    </clipPath>
  </defs>
  <g
     id="faceplate">
    <g
       id="g7">
      <path
         id="rect7"
         style="fill:#ededed;stroke-width:0px"
         d="m 0.12,0.13 h 100.55 v 364 H 0.12 Z" />
      <path
         d="M100.55.25v363.75H.25V.25h100.3M100.8,0H0v364.25h100.8V0h0Z"
         style="fill: #9d9d9e; stroke-width: 0px;"
         id="path7" />
    </g>
    <path
       d="M13.96,293.97v42.58c0,3.12,2.55,5.67,5.67,5.67h61.61c3.12,0,5.67-2.55,5.67-5.67v-19.84h0v-22.74H13.96Z"
       style="fill: #000; stroke-width: 0px;"
       id="path8" />
    <g
       id="g10">
      <path
         d="M19.63,310.19c-2.85,0-5.17-2.32-5.17-5.17v-75.24c0-7.54,6.13-13.67,13.67-13.67h44.6c7.54,0,13.67,6.13,13.67,13.67v75.24c0,2.85-2.32,5.17-5.17,5.17H19.63Z"
         style="fill: #ededed; stroke-width: 0px;"
         id="path9" />
      <path
         d="M72.74,216.61c7.26,0,13.17,5.91,13.17,13.17v75.24c0,2.57-2.09,4.67-4.67,4.67H19.63c-2.57,0-4.67-2.09-4.67-4.67v-75.24c0-7.26,5.91-13.17,13.17-13.17h44.6M72.74,215.61H28.13c-7.8,0-14.17,6.38-14.17,14.17v75.24c0,3.12,2.55,5.67,5.67,5.67h61.61c3.12,0,5.67-2.55,5.67-5.67v-75.24c0-7.8-6.38-14.17-14.17-14.17h0Z"
         style="fill: #000; stroke-width: 0px;"
         id="path10" />
    </g>
    <path
       d="m 36.741728,351.80746 q 0,0.41358 -0.118916,0.81104 -0.114511,0.39209 -0.374365,0.73584 -0.259853,0.33837 -0.704687,0.55322 -0.44043,0.20947 -1.039415,0.20947 H 33.297568 V 356.91 h -1.840996 v -7.44434 h 3.047773 q 0.598985,0 1.039415,0.21485 0.444834,0.21484 0.704687,0.55859 0.259854,0.34375 0.374365,0.74658 0.118916,0.40284 0.118916,0.82178 z m -1.87623,0.0107 q 0,-0.53174 -0.259854,-0.72509 -0.255449,-0.19873 -0.920498,-0.19873 h -0.387578 v 1.79394 h 0.396387 q 0.458047,0 0.704687,-0.0698 0.246641,-0.0698 0.356748,-0.25782 0.110108,-0.18798 0.110108,-0.54248 z m 4.747832,5.0918 h -1.840996 v -7.44434 h 1.840996 z m 7.394814,-5.63428 H 44.770762 V 356.91 H 42.93417 v -5.63428 h -2.237383 v -1.81006 h 6.311357 z m 6.025079,5.07569 q -0.37877,0.2417 -0.775157,0.38672 -0.396386,0.14501 -0.801582,0.2041 -0.400791,0.0645 -0.832412,0.0645 -0.797178,0 -1.431396,-0.26855 -0.629815,-0.26856 -1.096671,-0.78956 -0.46245,-0.52636 -0.695878,-1.22461 -0.229024,-0.70361 -0.229024,-1.5415 0,-0.96142 0.273067,-1.68115 0.273066,-0.7251 0.761943,-1.20313 0.493281,-0.47802 1.118692,-0.70361 0.629814,-0.23096 1.325693,-0.23096 1.039414,0 2.356299,0.56397 v 1.97656 q -0.453643,-0.34375 -0.898477,-0.56934 -0.440429,-0.23095 -1.039414,-0.23095 -0.53292,0 -0.995371,0.25781 -0.462451,0.25781 -0.744326,0.73584 -0.281875,0.47803 -0.281875,1.11719 0,0.56396 0.24664,1.03662 0.246641,0.46728 0.682667,0.74658 0.440429,0.27393 0.990967,0.27393 0.444833,0 0.84122,-0.12891 0.396387,-0.13428 0.665049,-0.29541 0.273066,-0.16113 0.559346,-0.38135 z m 7.685497,0.55859 H 58.882129 V 354.0042 H 56.111826 V 356.91 H 54.27083 v -7.44434 h 1.840996 v 2.73389 h 2.770303 v -2.73389 h 1.836591 z m 8.478272,-2.16455 q 0,0.69824 -0.295088,1.2085 -0.290684,0.51025 -0.814795,0.78418 -0.524111,0.26855 -1.202373,0.26855 -0.189385,0 -0.466856,-0.0322 -0.273066,-0.0268 -0.731113,-0.16113 -0.453642,-0.13428 -0.946923,-0.39746 v -1.82617 q 0.462451,0.34912 0.907285,0.58008 0.449238,0.23095 0.960137,0.23095 0.47126,0 0.607792,-0.18799 0.140937,-0.19335 0.140937,-0.35986 0,-0.30078 -0.237831,-0.50488 -0.237832,-0.20947 -0.691475,-0.42969 -0.50209,-0.25781 -0.880859,-0.55859 -0.37877,-0.30616 -0.621006,-0.7627 -0.237832,-0.45654 -0.237832,-1.07959 0,-0.60156 0.242236,-1.08496 0.242237,-0.48877 0.739923,-0.77881 0.497685,-0.29004 1.215585,-0.29004 0.510898,0 0.942519,0.12354 0.436026,0.11816 0.717901,0.26855 0.281875,0.15039 0.387578,0.23633 v 1.74561 q -0.374365,-0.32764 -0.836816,-0.58545 -0.458048,-0.25781 -0.982159,-0.25781 -0.343535,0 -0.497685,0.16113 -0.154151,0.16113 -0.154151,0.39746 0,0.22021 0.154151,0.38135 0.15415,0.16113 0.550537,0.39209 0.704687,0.40283 1.1275,0.72509 0.422812,0.32227 0.660644,0.74659 0.242237,0.41894 0.242237,1.04736 z m 7.698711,2.16455 h -1.836592 v -2.90576 h -2.770303 v 2.9058 h -1.840996 v -7.44434 h 1.840996 v 2.73389 h 2.770303 v -2.73389 h 1.836592 z m 3.3825,0 h -1.840996 v -7.44434 h 1.840996 z m 5.91497,-3.01318 h -2.53247 V 356.91 h -1.840996 v -7.44434 h 4.373466 v 1.49317 h -2.53247 v 1.43945 h 2.53247 z m 7.090918,-2.6211 H 91.046709 V 356.91 h -1.836592 v -5.63428 h -2.237383 v -1.81006 h 6.311357 z"
       id="text10"
       style="font-weight:700;font-size:11px;font-family:GillSans-Bold, 'Gill Sans';stroke-width:0.905538"
       aria-label="PITCH SHIFT" />
    <path
       d="M70.12,46.14h2.26c-.15-3.28-1.01-6.37-2.44-9.12l-1.95,1.13c1.24,2.42,1.99,5.13,2.14,8Z"
       style="fill: #000; stroke-width: 0px;"
       id="path11" />
    <path
       d="M70.12,48.14c-.14,2.87-.89,5.57-2.14,8l1.95,1.13c1.43-2.75,2.3-5.84,2.44-9.12h-2.26Z"
       style="fill: #000; stroke-width: 0px;"
       id="path12" />
    <path
       d="M 6.9091797,-0.5078125 Q 6.4892578,-0.28808594 6.0498047,-0.15625 5.6103516,-0.02441406 5.1611328,0.02929688 4.7167969,0.08789062 4.2382812,0.08789062 q -0.883789,0 -1.586914,-0.24414062 Q 1.953125,-0.40039063 1.4355469,-0.87402344 0.92285156,-1.3525391 0.6640625,-1.9873047 0.41015625,-2.6269531 0.41015625,-3.3886719 q 0,-0.8740234 0.30273437,-1.5283203 0.30273438,-0.6591797 0.84472658,-1.09375 0.546875,-0.4345703 1.2402344,-0.6396484 0.6982422,-0.209961 1.4697265,-0.209961 1.1523438,0 2.6123047,0.5126954 v 1.796875 q -0.5029297,-0.3125 -0.9960937,-0.5175782 -0.4882813,-0.2099609 -1.1523438,-0.2099609 -0.5908203,0 -1.1035156,0.234375 -0.5126953,0.234375 -0.8251953,0.6689453 -0.3125,0.4345703 -0.3125,1.015625 0,0.5126953 0.2734375,0.9423828 0.2734375,0.4248047 0.7568359,0.678711 0.4882813,0.2490234 1.0986328,0.2490234 0.4931641,0 0.9326172,-0.1171875 Q 5.9912109,-1.7285156 6.2890625,-1.875 6.5917969,-2.0214844 6.9091797,-2.2216797 Z m 6.1722653,-1.9824219 q 0,0.7421875 -0.322265,1.3232422 -0.322266,0.5810547 -0.966797,0.91796876 -0.639649,0.33691406 -1.5625,0.33691406 -0.9228518,0 -1.5673831,-0.33691406 Q 8.0228515,-0.5859375 7.7005858,-1.1669922 7.383203,-1.7480469 7.383203,-2.4902344 q 0,-0.5615234 0.1757813,-1.0205078 0.180664,-0.4589844 0.5419922,-0.8105469 0.3662109,-0.3564453 0.8984375,-0.546875 0.5322265,-0.1904296 1.230469,-0.1904296 0.703125,0 1.240234,0.1953125 0.541992,0.1904296 0.893555,0.5371093 0.356445,0.3466797 0.537109,0.8105469 0.180664,0.4638672 0.180664,1.0253906 z m -1.850586,0 q 0,-0.5908203 -0.258789,-0.9228515 Q 10.718164,-3.75 10.229883,-3.75 q -0.4833987,0 -0.7421878,0.3369141 -0.2539062,0.3320312 -0.2539062,0.9228515 0,0.5859375 0.258789,0.9277344 0.2587891,0.3417969 0.737305,0.3417969 0.488281,0 0.742187,-0.3369141 0.258789,-0.3417969 0.258789,-0.9326172 z m 7.519922,2.24121096 q -0.385742,0.15136719 -0.712891,0.24414063 -0.327148,0.09277343 -0.786132,0.09277343 -0.434571,0 -0.605469,-0.15136718 -0.170899,-0.15625 -0.244141,-0.37597657 -0.283203,0.22949219 -0.629883,0.38085938 -0.346679,0.14648437 -0.908203,0.14648437 -0.541992,0 -0.878906,-0.18554687 -0.332031,-0.19042969 -0.46875,-0.47363281 Q 13.38457,-0.859375 13.38457,-1.1621094 q 0,-0.4589843 0.229492,-0.7568359 0.234375,-0.3027344 0.625,-0.4931641 0.390625,-0.1904297 1.035157,-0.3955078 0.36621,-0.1171875 0.551757,-0.1757812 0.19043,-0.063477 0.283203,-0.097656 0.09277,-0.03418 0.195313,-0.087891 0,-0.3613281 -0.146484,-0.5664063 -0.146485,-0.2050781 -0.634766,-0.2050781 -0.576172,0 -1.069336,0.2539063 -0.493164,0.2539062 -0.90332,0.6542968 v -1.3476562 q 0.327148,-0.234375 0.708008,-0.3808594 0.380859,-0.1513672 0.795898,-0.2246094 0.415039,-0.073242 0.839844,-0.073242 1.079101,0 1.621093,0.4199218 0.546875,0.4150391 0.546875,1.147461 v 1.9189453 q 0,0.2734375 0.04883,0.4101562 0.05371,0.131836 0.190429,0.131836 0.166016,0 0.449219,-0.1416016 z M 16.304492,-1.2011719 v -1.1767578 q -0.625,0.2539063 -0.913086,0.4589844 -0.288086,0.2001953 -0.288086,0.546875 0,0.2490234 0.141602,0.38085936 0.146484,0.13183594 0.336914,0.13183594 0.180664,0 0.356445,-0.0976563 0.180664,-0.10253905 0.366211,-0.24414065 z m 7.109765,-3.5009765 -0.649414,1.7626953 q -0.400391,-0.3808594 -0.810547,-0.3808594 -0.371094,0 -0.644531,0.2539062 -0.268555,0.2490235 -0.517578,0.9277344 V 0 h -1.757813 v -4.9707031 h 1.757813 v 1.2011718 q 0.166015,-0.4443359 0.585937,-0.8642578 0.419922,-0.4248046 0.986328,-0.4248046 0.297852,0 0.517578,0.087891 0.22461,0.087891 0.532227,0.2685547 z m 3.760157,3.2519531 q 0,0.68359374 -0.50293,1.11328124 -0.498047,0.42480468 -1.484375,0.42480468 -0.551758,0 -0.981445,-0.09765625 -0.429688,-0.10253906 -0.9375,-0.28808593 V -1.5478516 q 0.444336,0.2539063 0.771484,0.3857422 0.327148,0.131836 0.717773,0.131836 0.65918,0 0.65918,-0.3613282 0,-0.1220703 -0.09766,-0.2148437 -0.09277,-0.097656 -0.332031,-0.2148438 -0.234375,-0.1220703 -0.629883,-0.2880859 -0.488281,-0.2148438 -0.830078,-0.5761719 -0.341797,-0.3613281 -0.341797,-0.883789 0,-0.3710938 0.224609,-0.7128907 0.229492,-0.3417968 0.688477,-0.5566406 0.458984,-0.2197265 1.108398,-0.2197265 0.15625,0 0.395508,0.024414 0.244141,0.019531 0.610352,0.1123047 0.371093,0.092773 0.703125,0.2636719 v 1.2158203 q -0.15625,-0.092774 -0.263672,-0.15625 -0.102539,-0.063477 -0.278321,-0.1416016 -0.175781,-0.078125 -0.415039,-0.1367187 -0.234375,-0.063477 -0.483398,-0.063477 -0.302734,0 -0.415039,0.1171875 -0.112305,0.1171875 -0.112305,0.234375 0,0.1220703 0.117188,0.2294922 0.117187,0.1025391 0.522461,0.2587891 0.585937,0.2246093 0.9375,0.4638671 0.351562,0.234375 0.498046,0.5175782 0.151368,0.2832031 0.151368,0.6689453 z m 5.649805,-0.6103516 h -3.500977 q 0.102539,0.4541016 0.50293,0.7421875 0.40039,0.288086 0.908203,0.288086 0.888672,0 1.962891,-0.4980469 v 1.08886717 q -0.385743,0.20019532 -0.9375,0.36621094 -0.546875,0.16113281 -1.396485,0.16113281 -0.917969,0 -1.5625,-0.34179687 -0.644531,-0.34179687 -0.966797,-0.92773435 -0.317382,-0.5859375 -0.317382,-1.328125 0,-0.7324219 0.317382,-1.3085938 0.322266,-0.5810547 0.966797,-0.9082031 0.644531,-0.3320312 1.5625,-0.3320312 0.605469,0 1.166992,0.2636718 0.566407,0.2587891 0.927735,0.8544922 0.366211,0.5908203 0.366211,1.5283203 z m -1.650391,-0.8691406 q 0,-0.4785156 -0.239258,-0.7617188 -0.234375,-0.2880859 -0.678711,-0.2880859 -0.439453,0 -0.71289,0.2929688 -0.268555,0.2880859 -0.268555,0.7568359 z"
       id="text12"
       style="font-weight:700;font-size:10px;font-family:GillSans-Bold, 'Gill Sans';letter-spacing:-0.04em"
       transform="translate(35.89 74.24) scale(.88 1)"
       aria-label="Coarse" />
    <path
       d="M59.4,29.56l1.13-1.95c-2.75-1.43-5.84-2.3-9.12-2.44v2.26c2.87.14,5.57.89,7.99,2.14Z"
       style="fill: #000; stroke-width: 0px;"
       id="path13" />
    <path
       d="M66.98,36.41l1.95-1.13c-1.72-2.68-4-4.96-6.68-6.68l-1.13,1.95c2.34,1.52,4.33,3.51,5.85,5.85Z"
       style="fill: #000; stroke-width: 0px;"
       id="path14" />
    <path
       d="M39.67,30.56l-1.13-1.95c-2.68,1.72-4.96,4-6.68,6.68l1.95,1.13c1.52-2.34,3.51-4.33,5.85-5.85Z"
       style="fill: #000; stroke-width: 0px;"
       id="path15" />
    <path
       d="M49.4,27.42v-2.26c-3.28.15-6.37,1.01-9.12,2.44l1.13,1.95c2.42-1.24,5.13-1.99,8-2.14Z"
       style="fill: #000; stroke-width: 0px;"
       id="path16" />
    <path
       d="M33.82,57.86l-1.95,1.13c1.72,2.68,4,4.96,6.68,6.68l1.13-1.95c-2.34-1.52-4.33-3.51-5.85-5.85Z"
       style="fill: #000; stroke-width: 0px;"
       id="path17" />
    <path
       d="M61.13,63.72l1.13,1.95c2.68-1.72,4.96-4,6.68-6.68l-1.95-1.13c-1.52,2.34-3.51,4.33-5.85,5.85Z"
       style="fill: #000; stroke-width: 0px;"
       id="path18" />
    <path
       d="M30.68,48.14h-2.26c.15,3.28,1.01,6.37,2.44,9.12l1.95-1.13c-1.24-2.42-1.99-5.13-2.14-8Z"
       style="fill: #000; stroke-width: 0px;"
       id="path19" />
    <path
       d="M32.82,38.14l-1.95-1.13c-1.43,2.75-2.3,5.84-2.44,9.12h2.26c.14-2.87.89-5.57,2.14-8Z"
       style="fill: #000; stroke-width: 0px;"
       id="path20" />
    <g
       id="pips_-_fewest"
       data-name="pips - fewest">
      <g
         style="clip-path: url(#clippath);"
         clip-path="url(#clippath)"
         id="g31">
        <g
           style="clip-path: url(#clippath-1);"
           clip-path="url(#clippath-1)"
           id="g30">
          <path
             d="M56.09,83.84l.71-1.23c-1.74-.9-3.7-1.45-5.77-1.55v1.43c1.81.09,3.53.56,5.06,1.35"
             style="fill: #000; stroke-width: 0px;"
             id="path21" />
          <path
             d="M60.89,88.18l1.23-.71c-1.09-1.69-2.53-3.14-4.22-4.22l-.71,1.23c1.48.96,2.74,2.22,3.7,3.7"
             style="fill: #000; stroke-width: 0px;"
             id="path22" />
          <path
             d="M43.61,84.47l-.71-1.23c-1.69,1.09-3.14,2.53-4.22,4.22l1.23.71c.96-1.48,2.22-2.74,3.7-3.7"
             style="fill: #000; stroke-width: 0px;"
             id="path23" />
          <path
             d="M62.87,94.33h1.43c-.09-2.07-.64-4.03-1.55-5.77l-1.23.71c.79,1.53,1.26,3.24,1.35,5.06"
             style="fill: #000; stroke-width: 0px;"
             id="path24" />
          <path
             d="M49.77,82.49v-1.43c-2.07.09-4.03.64-5.77,1.55l.71,1.23c1.53-.79,3.24-1.26,5.06-1.35"
             style="fill: #000; stroke-width: 0px;"
             id="path25" />
          <path
             d="M39.91,101.75l-1.23.71c1.09,1.69,2.53,3.14,4.22,4.22l.71-1.23c-1.48-.96-2.74-2.22-3.7-3.7"
             style="fill: #000; stroke-width: 0px;"
             id="path26" />
          <path
             d="M57.19,105.45l.71,1.23c1.69-1.09,3.14-2.53,4.22-4.22l-1.23-.71c-.96,1.48-2.22,2.74-3.7,3.7"
             style="fill: #000; stroke-width: 0px;"
             id="path27" />
          <path
             d="M62.87,95.59c-.09,1.81-.56,3.53-1.35,5.06l1.23.71c.9-1.74,1.45-3.7,1.55-5.77h-1.43Z"
             style="fill: #000; stroke-width: 0px;"
             id="path28" />
          <path
             d="M37.93,95.59h-1.43c.09,2.07.64,4.03,1.55,5.77l1.23-.71c-.79-1.53-1.26-3.24-1.35-5.06"
             style="fill: #000; stroke-width: 0px;"
             id="path29" />
          <path
             d="M39.28,89.27l-1.23-.71c-.9,1.74-1.45,3.7-1.55,5.77h1.43c.09-1.81.56-3.53,1.35-5.06"
             style="fill: #000; stroke-width: 0px;"
             id="path30" />
        </g>
      </g>
    </g>
    <path
       d="M 5.6982422,-2.7392578 H 2.890625 V 0 H 0.84960938 V -6.7675781 H 5.6982422 v 1.3574219 H 2.890625 v 1.3085937 h 2.8076172 z m 2.3929686,-3.3789063 q 0,0.3076172 -0.2197265,0.522461 -0.2197266,0.2148437 -0.522461,0.2148437 -0.2050781,0 -0.3759765,-0.097656 -0.1660156,-0.097656 -0.2636719,-0.2636719 -0.097656,-0.1708984 -0.097656,-0.3759766 0,-0.3027343 0.2148437,-0.5224609 0.2148438,-0.2197266 0.5224609,-0.2197266 0.3027344,0 0.522461,0.2197266 0.2197265,0.2197266 0.2197265,0.5224609 z M 8.2328124,0 H 6.4701171 v -4.9707031 h 1.7626953 z m 6.1185546,0 h -1.757813 v -2.6806641 q 0,-0.4101562 -0.136718,-0.7128906 -0.131836,-0.3076172 -0.585938,-0.3076172 -0.214844,0 -0.380859,0.083008 -0.161133,0.078125 -0.292969,0.2050782 -0.126953,0.1269531 -0.214844,0.2441406 -0.08789,0.1171875 -0.180664,0.2490234 V 0 H 9.0437498 v -4.9707031 h 1.7578122 v 0.7128906 q 0.415039,-0.4443359 0.830078,-0.6201172 0.419922,-0.180664 0.932618,-0.180664 1.787109,0 1.787109,2.1386718 z m 5.752344,-2.0605469 h -3.500976 q 0.102539,0.4541016 0.502929,0.7421875 0.400391,0.288086 0.908203,0.288086 0.888672,0 1.962891,-0.4980469 v 1.08886717 q -0.385742,0.20019532 -0.9375,0.36621094 -0.546875,0.16113281 -1.396484,0.16113281 -0.917969,0 -1.5625,-0.34179687 -0.644532,-0.34179687 -0.966797,-0.92773435 -0.317383,-0.5859375 -0.317383,-1.328125 0,-0.7324219 0.317383,-1.3085938 0.322265,-0.5810547 0.966797,-0.9082031 0.644531,-0.3320312 1.5625,-0.3320312 0.605468,0 1.166992,0.2636718 0.566406,0.2587891 0.927734,0.8544922 0.366211,0.5908203 0.366211,1.5283203 z m -1.65039,-0.8691406 q 0,-0.4785156 -0.239258,-0.7617188 -0.234375,-0.2880859 -0.678711,-0.2880859 -0.439453,0 -0.712891,0.2929688 -0.268555,0.2880859 -0.268555,0.7568359 z"
       id="text31"
       style="font-weight:700;font-size:10px;font-family:GillSans-Bold, 'Gill Sans';letter-spacing:-0.04em"
       transform="translate(41.55 117.66) scale(.88 1)"
       aria-label="Fine" />
    <g
       id="pips_-_fewest-2"
       data-name="pips - fewest">
      <g
         style="clip-path: url(#clippath-2);"
         clip-path="url(#clippath-2)"
         id="g41">
        <g
           style="clip-path: url(#clippath-3);"
           clip-path="url(#clippath-3)"
           id="g40">
          <path
             d="M56.09,128.59l.71-1.23c-1.74-.9-3.7-1.45-5.77-1.55v1.43c1.81.09,3.53.56,5.06,1.35"
             style="fill: #000; stroke-width: 0px;"
             id="path31" />
          <path
             d="M60.89,132.93l1.23-.71c-1.09-1.69-2.53-3.14-4.22-4.22l-.71,1.23c1.48.96,2.74,2.22,3.7,3.7"
             style="fill: #000; stroke-width: 0px;"
             id="path32" />
          <path
             d="M43.61,129.22l-.71-1.23c-1.69,1.09-3.14,2.53-4.22,4.22l1.23.71c.96-1.48,2.22-2.74,3.7-3.7"
             style="fill: #000; stroke-width: 0px;"
             id="path33" />
          <path
             d="M62.87,139.08h1.43c-.09-2.07-.64-4.03-1.55-5.77l-1.23.71c.79,1.53,1.26,3.24,1.35,5.06"
             style="fill: #000; stroke-width: 0px;"
             id="path34" />
          <path
             d="M49.77,127.24v-1.43c-2.07.09-4.03.64-5.77,1.55l.71,1.23c1.53-.79,3.24-1.26,5.06-1.35"
             style="fill: #000; stroke-width: 0px;"
             id="path35" />
          <path
             d="M39.91,146.5l-1.23.71c1.09,1.69,2.53,3.14,4.22,4.22l.71-1.23c-1.48-.96-2.74-2.22-3.7-3.7"
             style="fill: #000; stroke-width: 0px;"
             id="path36" />
          <path
             d="M57.19,150.2l.71,1.23c1.69-1.09,3.14-2.53,4.22-4.22l-1.23-.71c-.96,1.48-2.22,2.74-3.7,3.7"
             style="fill: #000; stroke-width: 0px;"
             id="path37" />
          <path
             d="M62.87,140.35c-.09,1.81-.56,3.53-1.35,5.06l1.23.71c.9-1.74,1.45-3.7,1.55-5.77h-1.43Z"
             style="fill: #000; stroke-width: 0px;"
             id="path38" />
          <path
             d="M37.93,140.35h-1.43c.09,2.07.64,4.03,1.55,5.77l1.23-.71c-.79-1.53-1.26-3.24-1.35-5.06"
             style="fill: #000; stroke-width: 0px;"
             id="path39" />
          <path
             d="M39.28,134.02l-1.23-.71c-.9,1.74-1.45,3.7-1.55,5.77h1.43c.09-1.81.56-3.53,1.35-5.06"
             style="fill: #000; stroke-width: 0px;"
             id="path40" />
        </g>
      </g>
    </g>
    <path
       d="M 11.811523,-6.7675781 8.8818359,0.08789062 H 7.7001953 L 5.9423828,-3.9013672 4.140625,0.08789062 H 2.9492188 L 0.078125,-6.7675781 h 2.1142578 l 1.40625,3.75 1.6113281,-3.75 h 1.459961 l 1.5820312,3.75 1.4697266,-3.75 z m 1.816798,0.649414 q 0,0.3076172 -0.219727,0.522461 -0.219726,0.2148437 -0.522461,0.2148437 -0.205078,0 -0.375976,-0.097656 -0.166016,-0.097656 -0.263672,-0.2636719 -0.09766,-0.1708984 -0.09766,-0.3759766 0,-0.3027343 0.214843,-0.5224609 0.214844,-0.2197266 0.522461,-0.2197266 0.302735,0 0.522461,0.2197266 0.219727,0.2197266 0.219727,0.5224609 z M 13.769922,0 h -1.762695 v -4.9707031 h 1.762695 z m 6.118554,0 h -1.757812 v -2.6806641 q 0,-0.4101562 -0.136719,-0.7128906 -0.131836,-0.3076172 -0.585937,-0.3076172 -0.214844,0 -0.38086,0.083008 -0.161133,0.078125 -0.292969,0.2050782 -0.126953,0.1269531 -0.214843,0.2441406 -0.08789,0.1171875 -0.180664,0.2490234 V 0 h -1.757813 v -4.9707031 h 1.757813 v 0.7128906 q 0.415039,-0.4443359 0.830078,-0.6201172 0.419922,-0.180664 0.932617,-0.180664 1.787109,0 1.787109,2.1386718 z m 5.913476,0 h -1.762695 v -0.44921875 q -0.27832,0.234375 -0.59082,0.38574219 -0.307617,0.15136718 -0.854492,0.15136718 -0.541993,0 -1.064454,-0.26855468 -0.522461,-0.26855469 -0.859375,-0.83496094 -0.336914,-0.5712891 -0.336914,-1.4355469 0,-0.6787109 0.253907,-1.2695312 0.253906,-0.5957031 0.795898,-0.9667969 0.541992,-0.3710937 1.328125,-0.3710937 0.488281,0 0.791016,0.1074218 0.302734,0.1074219 0.537109,0.2734375 v -2.0898437 h 1.762695 z m -1.762695,-1.5820312 v -1.8994141 q -0.307617,-0.1708985 -0.483398,-0.2441406 -0.170899,-0.073242 -0.405274,-0.073242 -0.415039,0 -0.693359,0.3515625 -0.273438,0.3515625 -0.273438,0.9570312 0,0.6591797 0.288086,0.9619141 0.292969,0.2978516 0.678711,0.2978516 0.317383,0 0.512695,-0.097656 0.195313,-0.1025391 0.375977,-0.2539062 z m 7.964258,-0.9082032 q 0,0.7421875 -0.322265,1.3232422 -0.322266,0.5810547 -0.966797,0.91796876 -0.639649,0.33691406 -1.5625,0.33691406 -0.922852,0 -1.567383,-0.33691406 -0.639649,-0.33691406 -0.961914,-0.91796876 -0.317383,-0.5810547 -0.317383,-1.3232422 0,-0.5615234 0.175781,-1.0205078 0.180664,-0.4589844 0.541992,-0.8105469 0.366211,-0.3564453 0.898438,-0.546875 0.532227,-0.1904296 1.230469,-0.1904296 0.703125,0 1.240234,0.1953125 0.541992,0.1904296 0.893555,0.5371093 0.356445,0.3466797 0.537109,0.8105469 0.180664,0.4638672 0.180664,1.0253906 z m -1.850586,0 q 0,-0.5908203 -0.258789,-0.9228515 Q 29.640234,-3.75 29.151953,-3.75 q -0.483399,0 -0.742188,0.3369141 -0.253906,0.3320312 -0.253906,0.9228515 0,0.5859375 0.258789,0.9277344 0.258789,0.3417969 0.737305,0.3417969 0.488281,0 0.742187,-0.3369141 0.258789,-0.3417969 0.258789,-0.9326172 z M 40.285156,-4.9707031 38.322266,0 H 37.213867 L 36.105469,-2.7099609 35.001953,0 h -1.108398 l -2.011719,-4.9707031 h 1.782226 l 0.908204,2.5097656 0.971679,-2.5097656 h 1.118164 l 0.981446,2.5097656 0.878906,-2.5097656 z"
       id="text41"
       style="font-weight:700;font-size:10px;font-family:GillSans-Bold, 'Gill Sans';letter-spacing:-0.04em"
       transform="translate(32.55 162.41) scale(.88 1)"
       aria-label="Window" />
    <g
       id="pips_-_fewest-3"
       data-name="pips - fewest">
      <g
         style="clip-path: url(#clippath-4);"
         clip-path="url(#clippath-4)"
         id="g51">
        <g
           style="clip-path: url(#clippath-5);"
           clip-path="url(#clippath-5)"
           id="g50">
          <path
             d="M56.09,173.34l.71-1.23c-1.74-.9-3.7-1.45-5.77-1.55v1.43c1.81.09,3.53.56,5.06,1.35"
             style="fill: #000; stroke-width: 0px;"
             id="path41" />
          <path
             d="M60.89,177.68l1.23-.71c-1.09-1.69-2.53-3.14-4.22-4.22l-.71,1.23c1.48.96,2.74,2.22,3.7,3.7"
             style="fill: #000; stroke-width: 0px;"
             id="path42" />
          <path
             d="M43.61,173.98l-.71-1.23c-1.69,1.09-3.14,2.53-4.22,4.22l1.23.71c.96-1.48,2.22-2.74,3.7-3.7"
             style="fill: #000; stroke-width: 0px;"
             id="path43" />
          <path
             d="M62.87,183.83h1.43c-.09-2.07-.64-4.03-1.55-5.77l-1.23.71c.79,1.53,1.26,3.24,1.35,5.06"
             style="fill: #000; stroke-width: 0px;"
             id="path44" />
          <path
             d="M49.77,171.99v-1.43c-2.07.09-4.03.64-5.77,1.55l.71,1.23c1.53-.79,3.24-1.26,5.06-1.35"
             style="fill: #000; stroke-width: 0px;"
             id="path45" />
          <path
             d="M39.91,191.25l-1.23.71c1.09,1.69,2.53,3.14,4.22,4.22l.71-1.23c-1.48-.96-2.74-2.22-3.7-3.7"
             style="fill: #000; stroke-width: 0px;"
             id="path46" />
          <path
             d="M57.19,194.95l.71,1.23c1.69-1.09,3.14-2.53,4.22-4.22l-1.23-.71c-.96,1.48-2.22,2.74-3.7,3.7"
             style="fill: #000; stroke-width: 0px;"
             id="path47" />
          <path
             d="M62.87,185.1c-.09,1.81-.56,3.53-1.35,5.06l1.23.71c.9-1.74,1.45-3.7,1.55-5.77h-1.43Z"
             style="fill: #000; stroke-width: 0px;"
             id="path48" />
          <path
             d="M37.93,185.1h-1.43c.09,2.07.64,4.03,1.55,5.77l1.23-.71c-.79-1.53-1.26-3.24-1.35-5.06"
             style="fill: #000; stroke-width: 0px;"
             id="path49" />
          <path
             d="M39.28,178.77l-1.23-.71c-.9,1.74-1.45,3.7-1.55,5.77h1.43c.09-1.81.56-3.53,1.35-5.06"
             style="fill: #000; stroke-width: 0px;"
             id="path50" />
        </g>
      </g>
    </g>
    <path
       d="M 8.7207031,0 H 6.6796875 V -3.9208984 L 4.8388672,-1.6503906 H 4.6777344 L 2.8320313,-3.9208984 V 0 H 0.84960938 V -6.7675781 H 2.7001953 l 2.0800781,2.5390625 2.0898438,-2.5390625 h 1.8505859 z m 2.7298829,-6.1181641 q 0,0.3076172 -0.219726,0.522461 -0.219727,0.2148437 -0.522461,0.2148437 -0.205078,0 -0.375977,-0.097656 -0.166015,-0.097656 -0.263672,-0.2636719 -0.097656,-0.1708984 -0.097656,-0.3759766 0,-0.3027343 0.2148439,-0.5224609 0.214844,-0.2197266 0.522461,-0.2197266 0.302734,0 0.522461,0.2197266 0.219726,0.2197266 0.219726,0.5224609 z M 11.592188,0 H 9.8294926 v -4.9707031 h 1.7626954 z m 6.348046,0 H 15.772265 L 14.810351,-1.4111328 13.85332,0 h -1.923828 l 1.923828,-2.4414063 -1.962891,-2.5292968 h 2.163086 l 0.917969,1.352539 0.927735,-1.352539 h 1.923828 l -1.879883,2.3583984 z"
       id="text51"
       style="font-weight:700;font-size:10px;font-family:GillSans-Bold, 'Gill Sans';letter-spacing:-0.04em"
       transform="translate(42.5 207.17) scale(.88 1)"
       aria-label="Mix" />
    <path
       d="m 6.4726562,-2.7109375 q 0,0.7578125 -0.3515625,1.3945313 -0.3476562,0.6367187 -1.0390625,1.0117187 -0.6914062,0.375 -1.6835937,0.375 -1.0039062,0 -1.6992188,-0.390625 Q 1.0039062,-0.7109375 0.6640625,-1.3476562 0.328125,-1.984375 0.328125,-2.7109375 q 0,-0.7304688 0.3359375,-1.3632812 Q 1,-4.7109375 1.6953125,-5.0976562 q 0.6992188,-0.390625 1.703125,-0.390625 0.75,0 1.3359375,0.2226562 0.5898437,0.2226563 0.96875,0.6054688 0.3789062,0.3789062 0.5742187,0.8867187 0.1953125,0.5039062 0.1953125,1.0625 z m -1.6640625,0 q 0,-0.3046875 -0.089844,-0.5546875 -0.089844,-0.2539063 -0.2734375,-0.4375 -0.1796875,-0.1875 -0.4414063,-0.2890625 -0.2617187,-0.1054687 -0.6054687,-0.1054687 -0.65625,0 -1.03125,0.3828124 -0.375,0.3828125 -0.375,1.0039063 0,0.6210937 0.375,1.0078125 0.3789063,0.3828125 1.03125,0.3828125 0.4492188,0 0.765625,-0.1757812 0.3164062,-0.1796875 0.4804687,-0.4921875 0.1640625,-0.3164063 0.1640625,-0.7226563 z M 11.129219,0 H 9.7190623 v -0.56640625 q -0.296875,0.3203125 -0.625,0.48046875 -0.3242187,0.15625 -0.78125,0.15625 -0.9023437,0 -1.1679687,-0.5234375 -0.265625,-0.52734375 -0.265625,-1.1875 v -2.3359375 h 1.4101562 v 2.1484375 q 0,0.3242188 0.1054688,0.5703125 0.109375,0.2421875 0.46875,0.2421875 0.3085937,0 0.4882812,-0.1757812 0.1796875,-0.1757813 0.3671875,-0.4492188 v -2.3359375 h 1.4101567 z m 3.715156,-0.23046875 q -0.21875,0.10546875 -0.605469,0.203125 -0.382813,0.09765625 -0.734375,0.09765625 -1.519531,0 -1.519531,-1.484375 V -3 H 11.348281 V -3.2460938 L 13.235,-5.1679687 h 0.160156 v 1.1914062 h 1.34375 V -3 h -1.34375 v 1.2734375 q 0,0.2226563 0.02734,0.359375 0.02734,0.1367188 0.152343,0.2304688 0.128907,0.089844 0.386719,0.089844 0.335938,0 0.882813,-0.28125 z"
       id="text52"
       style="font-weight:700;font-size:8px;font-family:GillSans-Bold, 'Gill Sans';letter-spacing:-0.04em;fill:#ffffff"
       transform="translate(25.56 329.35) scale(.88 1)"
       aria-label="Out" />
    <path
       d="m 5.3671875,-3.7109375 q 0,0.3007812 -0.1054688,0.5898437 -0.1015625,0.2851563 -0.3320312,0.5351563 -0.2304688,0.2460937 -0.625,0.4023437 Q 3.9140625,-2.03125 3.3828125,-2.03125 H 2.3125 V 0 H 0.6796875 v -5.4140625 h 2.703125 q 0.53125,0 0.921875,0.15625 0.3945312,0.15625 0.625,0.40625 0.2304687,0.25 0.3320312,0.5429688 0.1054688,0.2929687 0.1054688,0.5976562 z m -1.6640625,0.00781 q 0,-0.3867187 -0.2304687,-0.5273437 Q 3.2460938,-4.375 2.65625,-4.375 H 2.3125 v 1.3046875 h 0.3515625 q 0.40625,0 0.625,-0.050781 0.21875,-0.050781 0.3164063,-0.1875 0.097656,-0.1367187 0.097656,-0.3945312 z m 3.3870311,-1.1914062 q 0,0.2460937 -0.1757813,0.4179687 -0.1757812,0.171875 -0.4179687,0.171875 -0.1640625,0 -0.3007813,-0.078125 -0.1328125,-0.078125 -0.2109375,-0.2109375 -0.078125,-0.1367187 -0.078125,-0.3007812 0,-0.2421875 0.171875,-0.4179688 0.171875,-0.1757812 0.4179688,-0.1757812 0.2421875,0 0.4179687,0.1757812 0.1757813,0.1757813 0.1757813,0.4179688 z M 7.2034373,0 H 5.7932811 V -3.9765625 H 7.2034373 Z M 10.988906,-0.23046875 Q 10.770156,-0.125 10.383438,-0.02734375 10.000625,0.0703125 9.6490626,0.0703125 q -1.5195312,0 -1.5195312,-1.484375 V -3 H 7.4928126 v -0.2460938 l 1.8867188,-1.9218749 h 0.1601562 v 1.1914062 H 10.883438 V -3 H 9.5396876 v 1.2734375 q 0,0.2226563 0.027344,0.359375 0.027344,0.1367188 0.1523437,0.2304688 0.1289063,0.089844 0.3867189,0.089844 0.335937,0 0.882812,-0.28125 z m 3.703438,0.046875 q -0.175782,0.0664063 -0.371094,0.125 -0.195313,0.0546875 -0.441406,0.08984375 -0.242188,0.0390625 -0.53125,0.0390625 -0.652344,0 -1.105469,-0.21875 Q 11.793906,-0.37109375 11.547812,-0.703125 11.305625,-1.0390625 11.211875,-1.3867187 11.118125,-1.734375 11.118125,-2 q 0,-0.265625 0.09375,-0.6132813 0.09766,-0.3476562 0.335937,-0.671875 0.238282,-0.3242187 0.6875,-0.5429687 0.453125,-0.21875 1.113282,-0.21875 0.441406,0 0.71875,0.0625 0.277343,0.0625 0.5625,0.1679687 v 1.1054688 q -0.6875,-0.21875 -1.074219,-0.21875 -0.375,0 -0.667969,0.2265625 Q 12.598594,-2.4765625 12.598594,-2 q 0,0.3164063 0.144531,0.5351563 0.144531,0.2148437 0.367187,0.3164062 0.222657,0.1015625 0.445313,0.1015625 0.210937,0 0.480469,-0.0625 0.269531,-0.0625 0.65625,-0.1796875 z M 19.302032,0 h -1.40625 v -2.0625 q 0,-0.023437 0,-0.042969 0.0039,-0.023437 0.0039,-0.09375 0,-0.2851562 -0.121094,-0.5234375 -0.121094,-0.2382812 -0.460937,-0.2382812 -0.265625,0 -0.46875,0.1796875 -0.203125,0.1757812 -0.386719,0.4453125 V 0 h -1.40625 v -5.4140625 h 1.40625 V -3.40625 q 0.347656,-0.3710938 0.6875,-0.5039063 0.339844,-0.1367187 0.722656,-0.1367187 1.429688,0 1.429688,1.6054687 z"
       id="text53"
       style="font-weight:700;font-size:8px;font-family:GillSans-Bold, 'Gill Sans';letter-spacing:-0.04em"
       transform="translate(61.25 258.23) scale(.88 1)"
       aria-label="Pitch" />
    <path
       d="M 2.3203125,0 H 0.6875 v -5.4140625 h 1.6328125 z m 5.0628126,0 h -1.40625 v -2.1445313 q 0,-0.328125 -0.109375,-0.5703125 -0.1054688,-0.2460937 -0.46875,-0.2460937 -0.171875,0 -0.3046875,0.066406 -0.1289063,0.0625 -0.234375,0.1640625 -0.1015625,0.1015625 -0.171875,0.1953125 -0.070312,0.09375 -0.1445313,0.1992188 V 0 h -1.40625 v -3.9765625 h 1.40625 V -3.40625 q 0.3320313,-0.3554688 0.6640625,-0.4960938 0.3359375,-0.1445312 0.7460938,-0.1445312 1.4296875,0 1.4296875,1.7109375 z m 4.8909379,-2.015625 q 0,0.3984375 -0.113282,0.7695313 -0.113281,0.3710937 -0.347656,0.67187495 -0.230469,0.296875 -0.597656,0.47265625 -0.363281,0.171875 -0.847656,0.171875 -0.3906254,0 -0.6171879,-0.08203125 Q 9.5279689,-0.09375 9.3053126,-0.23046875 V 1.8085937 h -1.40625 v -5.7851562 h 1.40625 v 0.359375 q 0.2109375,-0.1835938 0.4648438,-0.3046875 0.2578126,-0.125 0.6953126,-0.125 0.433594,0 0.851562,0.2148437 0.417969,0.2148438 0.6875,0.671875 0.269532,0.453125 0.269532,1.1445313 z m -1.480469,0.03125 q 0,-0.359375 -0.113281,-0.5820313 -0.113282,-0.2265625 -0.292969,-0.3242187 -0.179688,-0.1015625 -0.371094,-0.1015625 -0.2499999,0 -0.4101561,0.082031 -0.1601563,0.078125 -0.3007813,0.1992188 v 1.5195313 q 0.074219,0.039063 0.15625,0.089844 0.085937,0.046875 0.1679688,0.082031 0.085937,0.0351562 0.1796875,0.0585937 0.097656,0.0234375 0.2070311,0.0234375 0.332031,0 0.554688,-0.28125 Q 10.793594,-1.5 10.793594,-1.984375 Z M 16.875937,0 h -1.410156 v -0.56640625 q -0.296875,0.3203125 -0.625,0.48046875 -0.324219,0.15625 -0.78125,0.15625 -0.902344,0 -1.167969,-0.5234375 -0.265625,-0.52734375 -0.265625,-1.1875 v -2.3359375 h 1.410157 v 2.1484375 q 0,0.3242188 0.105468,0.5703125 0.109375,0.2421875 0.46875,0.2421875 0.308594,0 0.488282,-0.1757812 0.179687,-0.1757813 0.367187,-0.4492188 v -2.3359375 h 1.410156 z m 3.715156,-0.23046875 q -0.21875,0.10546875 -0.605469,0.203125 -0.382812,0.09765625 -0.734375,0.09765625 -1.519531,0 -1.519531,-1.484375 V -3 h -0.636719 v -0.2460938 l 1.886719,-1.9218749 h 0.160156 v 1.1914062 h 1.34375 V -3 h -1.34375 v 1.2734375 q 0,0.2226563 0.02734,0.359375 0.02734,0.1367188 0.152344,0.2304688 0.128906,0.089844 0.386719,0.089844 0.335937,0 0.882812,-0.28125 z"
       id="text54"
       style="font-weight:700;font-size:8px;font-family:GillSans-Bold, 'Gill Sans';letter-spacing:-0.04em"
       transform="translate(21.8 258.23) scale(.88 1)"
       aria-label="Input" />
    <path
       d="M 6.9765625,0 H 5.34375 V -3.1367188 L 3.8710938,-1.3203125 H 3.7421875 L 2.265625,-3.1367188 V 0 H 0.6796875 v -5.4140625 h 1.4804688 l 1.6640625,2.03125 1.6718749,-2.03125 h 1.4804688 z m 2.1839061,-4.8945312 q 0,0.2460937 -0.1757813,0.4179687 -0.1757812,0.171875 -0.4179687,0.171875 -0.1640625,0 -0.3007813,-0.078125 -0.1328125,-0.078125 -0.2109375,-0.2109375 -0.078125,-0.1367187 -0.078125,-0.3007812 0,-0.2421875 0.171875,-0.4179688 0.171875,-0.1757812 0.4179688,-0.1757812 0.2421875,0 0.4179687,0.1757812 0.1757813,0.1757813 0.1757813,0.4179688 z M 9.2737498,0 H 7.8635936 V -3.9765625 H 9.2737498 Z M 14.352187,0 H 12.617812 L 11.848281,-1.1289062 11.082656,0 H 9.5435934 L 11.082656,-1.953125 9.5123434,-3.9765625 h 1.7304686 l 0.734375,1.0820312 0.742188,-1.0820312 h 1.539062 l -1.503906,1.8867187 z"
       id="text55"
       style="font-weight:700;font-size:8px;font-family:GillSans-Bold, 'Gill Sans';letter-spacing:-0.04em"
       transform="translate(63.56 307.05) scale(.88 1)"
       aria-label="Mix" />
    <path
       d="M 9.4492188,-5.4140625 7.1054687,0.0703125 H 6.1601562 L 4.7539062,-3.1210938 3.3125,0.0703125 H 2.359375 L 0.0625,-5.4140625 h 1.6914062 l 1.1250001,3 1.2890624,-3 h 1.1679688 l 1.265625,3 1.1757812,-3 z m 1.4534382,0.5195313 q 0,0.2460937 -0.175782,0.4179687 -0.175781,0.171875 -0.417968,0.171875 -0.164063,0 -0.300782,-0.078125 -0.1328122,-0.078125 -0.2109372,-0.2109375 -0.078125,-0.1367187 -0.078125,-0.3007812 0,-0.2421875 0.171875,-0.4179688 0.1718752,-0.1757812 0.4179692,-0.1757812 0.242187,0 0.417968,0.1757812 0.175782,0.1757813 0.175782,0.4179688 z M 11.015938,0 H 9.6057816 v -3.9765625 h 1.4101564 z m 4.894843,0 h -1.40625 v -2.1445313 q 0,-0.328125 -0.109375,-0.5703125 -0.105469,-0.2460937 -0.46875,-0.2460937 -0.171875,0 -0.304688,0.066406 -0.128906,0.0625 -0.234375,0.1640625 -0.101562,0.1015625 -0.171875,0.1953125 -0.07031,0.09375 -0.144531,0.1992188 V 0 h -1.40625 v -3.9765625 h 1.40625 V -3.40625 q 0.332031,-0.3554688 0.664063,-0.4960938 0.335937,-0.1445312 0.746093,-0.1445312 1.429688,0 1.429688,1.7109375 z m 4.730781,0 h -1.410156 v -0.359375 q -0.222656,0.1875 -0.472656,0.30859375 -0.246094,0.12109375 -0.683594,0.12109375 -0.433594,0 -0.851562,-0.21484375 -0.417969,-0.21484375 -0.6875,-0.66796875 -0.269532,-0.4570312 -0.269532,-1.1484375 0,-0.5429688 0.203125,-1.015625 0.203125,-0.4765625 0.636719,-0.7734375 0.433594,-0.296875 1.0625,-0.296875 0.390625,0 0.632813,0.085937 0.242187,0.085937 0.429687,0.21875 v -1.671875 h 1.410156 z m -1.410156,-1.265625 v -1.5195313 q -0.246094,-0.1367187 -0.386719,-0.1953125 -0.136718,-0.058594 -0.324218,-0.058594 -0.332032,0 -0.554688,0.28125 -0.21875,0.28125 -0.21875,0.765625 0,0.5273438 0.230469,0.7695313 0.234375,0.2382812 0.542969,0.2382812 0.253906,0 0.410156,-0.078125 0.15625,-0.082031 0.300781,-0.203125 z m 6.371406,-0.7265625 q 0,0.59375 -0.257813,1.05859375 -0.257812,0.46484375 -0.773437,0.734375 -0.511719,0.26953125 -1.25,0.26953125 -0.738281,0 -1.253906,-0.26953125 -0.511719,-0.26953125 -0.769532,-0.734375 -0.253906,-0.46484375 -0.253906,-1.05859375 0,-0.4492188 0.140625,-0.8164063 0.144531,-0.3671875 0.433594,-0.6484375 0.292969,-0.2851562 0.71875,-0.4375 0.425781,-0.1523437 0.984375,-0.1523437 0.5625,0 0.992187,0.15625 0.433594,0.1523437 0.714844,0.4296875 0.285156,0.2773437 0.429688,0.6484375 0.144531,0.3710937 0.144531,0.8203125 z m -1.480469,0 q 0,-0.4726563 -0.207031,-0.7382813 Q 23.712187,-3 23.321562,-3 q -0.386719,0 -0.59375,0.2695312 -0.203125,0.265625 -0.203125,0.7382813 0,0.46875 0.207031,0.7421875 0.207031,0.2734375 0.589844,0.2734375 0.390625,0 0.59375,-0.2695312 0.207031,-0.2734375 0.207031,-0.7460938 z M 32.228125,-3.9765625 30.657812,0 H 29.771093 L 28.884375,-2.1679688 28.001562,0 h -0.886719 l -1.609375,-3.9765625 h 1.425782 l 0.726562,2.0078125 0.777344,-2.0078125 h 0.894531 l 0.785156,2.0078125 0.703125,-2.0078125 z"
       id="text56"
       style="font-weight:700;font-size:8px;font-family:GillSans-Bold, 'Gill Sans';letter-spacing:-0.04em"
       transform="translate(16.51 307.05) scale(.88 1)"
       aria-label="Window" />
    <g
       id="g58">
      <path
         d="M42.2,18.07c-.37,0-.71-.17-.97-.47-.51-.6-.52-1.54-.04-2.16l6.97-8.88c.38-.48,1.05-.65,1.57-.39.5.25.79.82.79,1.45v4.77l4.64-5.85c.38-.48,1.01-.64,1.53-.38.5.25.83.81.83,1.44v8.82c0,.86-.61,1.57-1.36,1.57s-1.36-.7-1.36-1.57v-4.79l-4.64,5.85c-.38.48-1.01.64-1.54.38-.5-.24-.83-.81-.83-1.44v-4.67l-4.61,5.8c-.26.32-.62.51-1,.51h0Z"
         style="fill: #2cabe1; stroke-width: 0px;"
         id="path56" />
      <path
         d="M42.2,18.07c-.75,0-1.35-.7-1.35-1.57v-4.93l-2.26,2.84c-.5.63-1.44.65-1.97.04-.51-.6-.52-1.53-.03-2.15l4.61-5.76c.26-.32.63-.5,1-.5.18,0,.37.04.54.12.5.25.82.81.82,1.44v8.89c0,.86-.61,1.57-1.36,1.57h0Z"
         style="fill: #ea2228; stroke-width: 0px;"
         id="path57" />
      <path
         d="M58.8,18.09h0c-.35,0-.68-.15-.94-.42-.76-.78-.14-1.84.29-2.3l1.95-2.36-1.26-.02c-.56-.01-1.04-.4-1.24-1-.19-.56-.07-1.21.29-1.64l3.16-3.83c.23-.28.55-.48,1.13-.47.33,0,.67.17.92.4.71.66.29,1.7-.07,2.2l-1.04,1.26,1.26.02c.56.01,1.04.4,1.24,1,.19.56.07,1.21-.29,1.64l-4.1,4.97c-.35.35-.65.55-1.3.54h0Z"
         style="fill: #00a650; stroke-width: 0px;"
         id="path58" />
    </g>
  </g>
  <g
     id="g1" />
</svg>
