<svg xmlns="http://www.w3.org/2000/svg" width="61.05mm" height="130.34mm" viewBox="0 0 173.05 369.47">
  <g id="faceplate">
    <rect x=".12" y=".12" width="172.8" height="364.25" style="fill: #ededed; stroke: #9d9d9e; stroke-miterlimit: 10; stroke-width: .25px;" />
    <path d="m39.21,326.24H3.35v-36.39h1v35.39h34.86c8.71,0,15.79-7.63,15.79-17,0-1.18-.12-2.38-.35-3.56-.18-.9-3.01-9.99-4.48-14.67l.95-.3c.17.55,4.27,13.6,4.51,14.78.25,1.25.37,2.52.37,3.76,0,9.92-7.53,18-16.79,18Z" style="fill: #171717;" />
    <g>
      <path d="m50.64,289.85l-7.05-23.03c-2.35-7.12-8.66-12.23-16.09-12.23H3.85v35.26" style="fill: #5ab947;" />
      <path d="m50.17,290l-7.05-23.03c-2.34-7.1-8.61-11.88-15.61-11.88H4.35v34.76h-1v-35.76h24.15c7.43,0,14.09,5.05,16.56,12.58l7.06,23.04-.96.29Z" />
    </g>
    <path d="m39.21,250.64H3.35v-36.39h1v35.39h34.86c8.71,0,15.79-7.63,15.79-17,0-1.18-.12-2.38-.35-3.56-.18-.9-3.01-9.99-4.48-14.67l.95-.3c.17.55,4.27,13.6,4.51,14.78.25,1.25.37,2.52.37,3.76,0,9.92-7.53,18-16.79,18Z" style="fill: #171717;" />
    <path d="m50.64,214.25l-7.05-23.03c-2.35-7.12-8.66-12.23-16.09-12.23H3.85v35.26" style="fill: #5db0e2;" />
    <path d="m50.17,214.4l-7.05-23.03c-2.34-7.1-8.61-11.88-15.61-11.88H4.35v34.76h-1v-35.76h24.15c7.43,0,14.08,5.05,16.56,12.58l7.06,23.04-.96.29Z" />
    <path d="m39.21,175.04H3.35v-36.39h1v35.39h34.86c8.71,0,15.79-7.63,15.79-17,0-1.18-.12-2.38-.35-3.56-.18-.9-3.01-9.99-4.48-14.67l.95-.3c.17.55,4.27,13.6,4.51,14.78.25,1.25.37,2.52.37,3.76,0,9.92-7.53,18-16.79,18Z" style="fill: #171717;" />
    <g>
      <path d="m50.64,138.65l-7.05-23.03c-2.35-7.12-8.66-12.23-16.09-12.23H3.85v35.26" style="fill: #171717;" />
      <path d="m50.17,138.8l-7.05-23.03c-2.34-7.1-8.61-11.88-15.61-11.88H4.35v34.76h-1v-35.76h24.15c7.43,0,14.08,5.05,16.56,12.58l7.06,23.04-.96.29Z" style="fill: #171717;" />
    </g>
    <path d="m39.21,99.44H3.35v-36.39h1v35.39h34.86c8.71,0,15.79-7.63,15.79-17,0-1.18-.12-2.38-.35-3.56-.18-.9-3.01-9.99-4.48-14.67l.95-.3c.17.55,4.27,13.6,4.51,14.78.25,1.25.37,2.52.37,3.76,0,9.92-7.53,18-16.79,18Z" style="fill: #171717;" />
    <g>
      <path d="m50.64,63.05l-7.05-23.03c-2.35-7.12-8.66-12.23-16.09-12.23H3.85v35.26" style="fill: #ec1c24;" />
      <path d="m50.17,63.2l-7.05-23.03c-2.34-7.1-8.61-11.88-15.61-11.88H4.35v34.76h-1V27.29h24.15c7.43,0,14.08,5.05,16.56,12.58l7.06,23.04-.96.29Z" />
    </g>
    <g>
      <path d="m94.73,43.95h-27.45c-7.84,0-14.19,6.83-14.19,15.25s6.35,15.25,14.19,15.25h26.68c-3.14-4.1-5-9.22-5-14.78,0-6,2.17-11.48,5.77-15.73Z" style="fill: #ec1c24;" />
      <path d="m94.98,74.96h-27.69c-8.1,0-14.69-7.07-14.69-15.75s6.59-15.75,14.69-15.75h28.53s-.7.82-.7.82c-3.64,4.3-5.65,9.77-5.65,15.4,0,5.28,1.69,10.29,4.9,14.47l.62.8Zm-1.3-30.5h-26.4c-7.55,0-13.69,6.62-13.69,14.75s6.14,14.75,13.69,14.75h25.69c-2.96-4.19-4.52-9.11-4.52-14.28,0-5.52,1.85-10.88,5.22-15.23Z" />
    </g>
    <g>
      <path d="m95.09,119.55h-27.8c-7.84,0-14.19,6.83-14.19,15.25s6.35,15.25,14.19,15.25h27.04c-3.14-4.1-5-9.22-5-14.78,0-6,2.17-11.48,5.77-15.73Z" style="fill: #171717;" />
      <path d="m95.34,150.56h-28.05c-8.1,0-14.69-7.07-14.69-15.75s6.59-15.75,14.69-15.75h28.88s-.7.82-.7.82c-3.64,4.3-5.65,9.77-5.65,15.4,0,5.28,1.69,10.29,4.9,14.47l.62.8Zm-1.3-30.5h-26.75c-7.55,0-13.69,6.62-13.69,14.75s6.14,14.75,13.69,14.75h26.05c-2.96-4.19-4.52-9.11-4.52-14.28,0-5.52,1.85-10.88,5.22-15.23Z" style="fill: #171717;" />
    </g>
    <g>
      <path d="m95.17,195.15h-27.88c-7.84,0-14.19,6.83-14.19,15.25s6.35,15.25,14.19,15.25h27.11c-3.14-4.1-5-9.22-5-14.78,0-6,2.17-11.48,5.77-15.73Z" style="fill: #5db0e2;" />
      <path d="m95.41,226.16h-28.12c-8.1,0-14.69-7.07-14.69-15.75s6.59-15.75,14.69-15.75h28.96l-.7.82c-3.64,4.3-5.65,9.77-5.65,15.4,0,5.28,1.69,10.29,4.9,14.47l.62.8Zm-28.12-30.5c-7.55,0-13.69,6.62-13.69,14.75s6.14,14.75,13.69,14.75h26.12c-2.96-4.19-4.52-9.11-4.52-14.28,0-5.52,1.85-10.88,5.22-15.23h-26.83Z" />
    </g>
    <g>
      <path d="m95.09,270.75h-27.8c-7.84,0-14.19,6.83-14.19,15.25s6.35,15.25,14.19,15.25h27.04c-3.14-4.1-5-9.22-5-14.78,0-6,2.17-11.48,5.77-15.73Z" style="fill: #5ab947;" />
      <path d="m95.34,301.76h-28.05c-8.1,0-14.69-7.07-14.69-15.75s6.59-15.75,14.69-15.75h28.88l-.7.82c-3.64,4.3-5.65,9.77-5.65,15.4,0,5.28,1.69,10.29,4.9,14.47l.62.8Zm-28.05-30.5c-7.55,0-13.69,6.62-13.69,14.75s6.14,14.75,13.69,14.75h26.05c-2.96-4.19-4.52-9.11-4.52-14.28,0-5.52,1.85-10.88,5.22-15.23h-26.75Z" />
    </g>
    <g>
      <g>
        <path d="m18.19,133.42c0,.2-.03.4-.09.59-.06.19-.16.37-.29.54-.13.17-.32.3-.55.4-.23.1-.5.15-.81.15h-.94v2.03h-1.44v-5.41h2.38c.31,0,.58.05.81.16.23.1.41.24.55.41.14.17.23.35.29.54.06.2.09.39.09.6Zm-1.46,0c0-.26-.07-.43-.2-.53-.13-.1-.37-.14-.72-.14h-.3v1.3h.31c.24,0,.42-.02.55-.05.13-.03.22-.1.28-.19s.09-.22.09-.39Z" style="fill: #231f20;" />
        <path d="m20.15,137.13h-1.44v-5.41h1.44v5.41Z" style="fill: #231f20;" />
        <path d="m26.24,137.13h-1.28l-2.47-3.02v3.02h-1.42v-5.41h1.28l2.46,3v-3h1.43v5.41Z" style="fill: #231f20;" />
        <path d="m31.65,136.75c-.1.04-.19.08-.26.11s-.14.05-.21.08c-.07.02-.17.05-.29.09-.22.06-.43.1-.65.13-.22.03-.44.04-.69.04-.48,0-.93-.1-1.34-.3s-.74-.51-.98-.93c-.25-.42-.37-.94-.37-1.55,0-.4.06-.78.19-1.17.13-.38.32-.69.58-.92.22-.19.43-.34.65-.44.22-.1.44-.17.65-.2.21-.03.44-.05.7-.05.42,0,.77.04,1.04.11.27.07.57.17.9.28v1.28c-.22-.14-.44-.26-.68-.36s-.54-.14-.9-.14c-.42,0-.75.09-1,.27-.25.18-.42.39-.52.64-.1.25-.15.49-.15.72,0,.27.06.53.17.76s.28.42.51.55c.23.14.5.21.82.21.18,0,.38-.03.58-.08v-.64h-.65v-1.09h1.9v2.6Z" style="fill: #231f20;" />
      </g>
      <g>
        <path d="m18.19,133.42c0,.2-.03.4-.09.59-.06.19-.16.37-.29.54-.13.17-.32.3-.55.4-.23.1-.5.15-.81.15h-.94v2.03h-1.44v-5.41h2.38c.31,0,.58.05.81.16.23.1.41.24.55.41.14.17.23.35.29.54.06.2.09.39.09.6Zm-1.46,0c0-.26-.07-.43-.2-.53-.13-.1-.37-.14-.72-.14h-.3v1.3h.31c.24,0,.42-.02.55-.05.13-.03.22-.1.28-.19s.09-.22.09-.39Z" style="fill: #ededed;" />
        <path d="m20.15,137.13h-1.44v-5.41h1.44v5.41Z" style="fill: #ededed;" />
        <path d="m26.24,137.13h-1.28l-2.47-3.02v3.02h-1.42v-5.41h1.28l2.46,3v-3h1.43v5.41Z" style="fill: #ededed;" />
        <path d="m31.65,136.75c-.1.04-.19.08-.26.11s-.14.05-.21.08c-.07.02-.17.05-.29.09-.22.06-.43.1-.65.13-.22.03-.44.04-.69.04-.48,0-.93-.1-1.34-.3s-.74-.51-.98-.93c-.25-.42-.37-.94-.37-1.55,0-.4.06-.78.19-1.17.13-.38.32-.69.58-.92.22-.19.43-.34.65-.44.22-.1.44-.17.65-.2.21-.03.44-.05.7-.05.42,0,.77.04,1.04.11.27.07.57.17.9.28v1.28c-.22-.14-.44-.26-.68-.36s-.54-.14-.9-.14c-.42,0-.75.09-1,.27-.25.18-.42.39-.52.64-.1.25-.15.49-.15.72,0,.27.06.53.17.76s.28.42.51.55c.23.14.5.21.82.21.18,0,.38-.03.58-.08v-.64h-.65v-1.09h1.9v2.6Z" style="fill: #ededed;" />
      </g>
    </g>
    <polygon points="6.54 207.52 6.54 212.37 10.77 209.95 6.54 207.52" style="fill: #171717;" />
    <g>
      <path d="m18.19,209.02c0,.2-.03.4-.09.59-.06.19-.16.37-.29.54-.13.17-.32.3-.55.4-.23.1-.5.15-.81.15h-.94v2.03h-1.44v-5.41h2.38c.31,0,.58.05.81.16.23.1.41.24.55.41.14.17.23.35.29.54.06.2.09.39.09.6Zm-1.46,0c0-.26-.07-.43-.2-.53-.13-.1-.37-.14-.72-.14h-.3v1.3h.31c.24,0,.42-.02.55-.05.13-.03.22-.1.28-.19.06-.09.09-.22.09-.39Z" style="fill: #171717;" />
      <path d="m20.15,212.73h-1.44v-5.41h1.44v5.41Z" style="fill: #171717;" />
      <path d="m26.24,212.73h-1.28l-2.47-3.02v3.02h-1.42v-5.41h1.28l2.46,3v-3h1.43v5.41Z" style="fill: #171717;" />
      <path d="m31.65,212.35c-.1.04-.19.08-.26.11-.07.03-.14.05-.21.08-.07.02-.17.05-.29.09-.22.06-.43.1-.65.13-.22.03-.44.04-.69.04-.48,0-.93-.1-1.34-.3-.41-.2-.74-.51-.98-.93-.25-.42-.37-.94-.37-1.55,0-.4.06-.79.19-1.17.13-.38.32-.69.58-.92.22-.19.43-.34.65-.44.22-.1.44-.17.65-.2.21-.03.44-.05.7-.05.42,0,.77.04,1.04.11.27.07.57.17.9.28v1.28c-.22-.14-.44-.26-.68-.36-.24-.1-.54-.14-.9-.14-.42,0-.75.09-1,.27-.25.18-.42.39-.52.64-.1.25-.15.49-.15.72,0,.27.06.53.17.76s.28.42.51.55c.23.14.5.21.82.21.18,0,.38-.03.58-.08v-.64h-.65v-1.09h1.9v2.6Z" style="fill: #171717;" />
    </g>
    <g>
      <path d="m44.29,346.91l-1.2,1.43c-.47-.14-.94-.32-1.41-.55-.46-.23-.93-.51-1.4-.85-.36-.26-.64-.51-.82-.75-.32-.15-.62-.38-.9-.69-.29-.31-.52-.71-.7-1.19-.18-.48-.27-1.04-.27-1.68,0-.67.12-1.29.35-1.88.24-.58.6-1.05,1.09-1.41.49-.36,1.09-.53,1.79-.53.54,0,1.02.1,1.43.31.41.21.75.49,1.01.85.26.36.46.76.59,1.22.13.46.2.94.2,1.43,0,.6-.08,1.14-.25,1.61-.16.47-.38.86-.64,1.17s-.57.56-.9.74c.31.18.62.33.92.45s.66.18,1.06.18l.05.12Zm-1.99-4.26c0-.28-.03-.53-.09-.77-.06-.23-.16-.43-.29-.6-.13-.17-.28-.3-.47-.4-.18-.09-.4-.14-.64-.14-.46,0-.82.17-1.08.53-.26.35-.39.81-.39,1.38s.13,1.03.4,1.38c.26.35.63.53,1.08.53.32,0,.58-.08.81-.24s.39-.39.5-.68c.12-.29.17-.62.17-.99Z" style="fill: #171717;" />
      <path d="m51.05,343.04c0,.64-.09,1.18-.27,1.63-.18.45-.42.8-.72,1.07-.3.26-.62.45-.97.56-.35.12-.69.17-1.04.17-.48,0-.95-.11-1.41-.32s-.84-.58-1.14-1.1c-.31-.52-.46-1.19-.46-2.01v-4.11h1.71v3.53c0,.49.05.9.16,1.22.11.32.26.56.45.7s.42.22.68.22.47-.07.67-.22c.19-.15.35-.38.45-.7.11-.32.16-.72.16-1.21v-3.54h1.72v4.11Z" style="fill: #171717;" />
      <path d="m58.66,346.37h-1.76l-.46-1.51h-2.47l-.47,1.51h-1.76l2.52-7.44h1.9l2.51,7.44Zm-2.62-2.8l-.83-2.72-.84,2.72h1.68Z" style="fill: #171717;" />
      <path d="m65.27,342.78c0,.76-.11,1.38-.32,1.84-.21.46-.46.84-.75,1.12-.41.42-.98.63-1.71.63h-3.07v-7.44h2.37c.36,0,.66.02.91.07.25.05.48.12.68.2.2.09.38.19.52.3s.27.23.38.35c.19.21.36.45.51.74.15.28.26.61.35.98.09.37.13.78.13,1.21Zm-1.75-.1c0-.6-.09-1.08-.26-1.42-.18-.34-.39-.56-.64-.68-.25-.11-.5-.17-.76-.17h-.73v4.41h.73c.45,0,.84-.14,1.17-.42.33-.28.49-.85.49-1.72Z" style="fill: #171717;" />
      <path d="m73.76,341.27c0,.28-.04.54-.11.81-.07.26-.19.51-.35.74-.16.23-.38.41-.66.55s-.6.21-.97.21h-1.13v2.79h-1.72v-7.44h2.84c.37,0,.7.07.97.21.28.14.49.33.66.56.16.23.28.48.35.75.07.27.11.54.11.82Zm-1.75.01c0-.35-.08-.6-.24-.73s-.45-.2-.86-.2h-.36v1.79h.37c.29,0,.5-.02.66-.07.15-.05.26-.13.33-.26.07-.13.1-.31.1-.54Z" style="fill: #171717;" />
      <path d="m76.44,346.37h-1.72v-7.44h1.72v7.44Z" style="fill: #171717;" />
      <path d="m84.06,346.37h-1.53l-2.96-4.15v4.15h-1.7v-7.44h1.52l2.95,4.12v-4.12h1.71v7.44Z" style="fill: #171717;" />
      <path d="m90.86,345.85c-.12.06-.23.11-.32.15-.09.04-.17.08-.25.11-.08.03-.2.07-.35.12-.26.08-.52.14-.78.18s-.53.06-.82.06c-.58,0-1.11-.14-1.6-.41-.49-.28-.88-.7-1.18-1.28-.29-.58-.44-1.29-.44-2.14,0-.54.08-1.08.23-1.6.15-.52.38-.94.7-1.26.26-.26.52-.46.78-.6.26-.14.52-.23.77-.28.25-.05.53-.07.83-.07.5,0,.92.05,1.24.15s.68.23,1.07.39v1.76c-.26-.2-.53-.36-.82-.49-.29-.13-.65-.2-1.08-.2-.5,0-.89.12-1.19.37-.3.25-.5.54-.62.88-.12.34-.17.67-.17.99,0,.38.07.72.2,1.04.13.32.34.57.61.76.27.19.6.29.98.29.22,0,.45-.04.7-.11v-.88h-.77v-1.5h2.27v3.58Z" style="fill: #171717;" />
      <path d="m98.47,346.37h-1.76l-.46-1.51h-2.47l-.47,1.51h-1.76l2.52-7.44h1.9l2.51,7.44Zm-2.62-2.8l-.83-2.72-.84,2.72h1.68Z" style="fill: #171717;" />
      <path d="m104.43,344.26c0,.64-.17,1.15-.5,1.54-.34.38-.8.57-1.41.57h-3.29v-7.44h2.75c.36,0,.67.04.93.13.26.09.48.21.64.37.16.16.28.34.36.55.08.21.12.44.12.69,0,.27-.04.52-.12.75-.08.23-.18.42-.31.57-.12.15-.25.25-.37.31.39.2.69.45.89.76.2.31.31.7.31,1.19Zm-2.01-3.19c0-.36-.09-.6-.27-.71-.18-.12-.46-.18-.85-.18h-.36v1.78h.37c.39,0,.67-.06.85-.18s.26-.36.26-.71Zm.28,3.1c0-.64-.35-.96-1.06-.96h-.7v1.91h.7c.71,0,1.06-.32,1.06-.95Z" style="fill: #171717;" />
      <path d="m109.86,346.37h-4.33v-7.44h1.72v5.66h2.61v1.78Z" style="fill: #171717;" />
      <path d="m115.15,346.37h-4.29v-7.44h4.22v1.49h-2.51v1.36h2.39v1.5h-2.39v1.59h2.58v1.5Z" style="fill: #171717;" />
      <path d="m123.12,346.37h-4.33v-7.44h1.72v5.66h2.61v1.78Z" style="fill: #171717;" />
      <path d="m128.2,343.36h-2.36v3.01h-1.72v-7.44h4.08v1.49h-2.36v1.44h2.36v1.5Z" style="fill: #171717;" />
      <path d="m135.45,342.64c0,.7-.12,1.33-.37,1.92-.25.58-.61,1.05-1.09,1.39-.49.34-1.08.52-1.77.52s-1.3-.18-1.79-.54c-.49-.36-.85-.83-1.09-1.41-.24-.58-.36-1.21-.36-1.88s.12-1.29.35-1.88c.24-.58.6-1.05,1.09-1.41.49-.36,1.09-.53,1.79-.53.53,0,1,.1,1.41.31.41.2.75.48,1.02.83.27.35.47.76.6,1.22.14.46.21.95.21,1.46Zm-1.75,0c0-.28-.03-.53-.09-.77-.06-.23-.16-.43-.29-.6-.13-.17-.28-.3-.47-.4-.18-.09-.4-.14-.64-.14-.46,0-.82.17-1.08.53-.26.35-.39.81-.39,1.38s.13,1.03.4,1.38c.26.35.63.53,1.08.53.32,0,.58-.08.81-.24s.39-.39.5-.68c.12-.29.17-.62.17-.99Z" style="fill: #171717;" />
    </g>
    <g>
      <path d="m88.05,248.68h-1.54l-.38-.96c-.14-.35-.26-.61-.37-.77-.11-.16-.22-.27-.32-.31-.1-.05-.24-.07-.4-.07h-.16v2.11h-1.44v-5.41h2.44c.39,0,.72.09.97.27.25.18.43.4.54.66.11.26.17.51.17.74,0,.27-.05.5-.14.69-.09.19-.19.33-.29.41s-.22.17-.35.25c.15.1.28.22.38.36.1.14.24.42.41.85l.48,1.18Zm-1.95-3.7c0-.25-.07-.42-.22-.52-.14-.1-.38-.15-.7-.15h-.3v1.3h.31c.35,0,.59-.04.72-.13.13-.09.19-.25.19-.5Z" style="fill: #171717;" />
      <path d="m91.81,247.03h-2.46c.05.24.17.44.35.59.19.15.4.23.64.23.42,0,.88-.13,1.38-.4v.87c-.18.11-.4.2-.66.29-.26.09-.59.13-.98.13-.43,0-.8-.09-1.1-.27-.3-.18-.53-.43-.68-.74s-.23-.67-.23-1.06.08-.74.23-1.05.38-.55.68-.73.67-.26,1.1-.26c.28,0,.56.07.82.21.26.14.48.37.65.68.17.32.26.72.26,1.22v.28Zm-1.16-.7c0-.26-.06-.46-.17-.61s-.27-.23-.48-.23-.37.08-.5.23c-.13.15-.19.36-.19.61h1.34Z" style="fill: #171717;" />
      <path d="m94.87,247.52c0,.36-.12.66-.35.89-.24.23-.58.34-1.05.34-.26,0-.49-.03-.69-.08-.2-.05-.42-.13-.66-.23v-1c.21.13.39.24.54.31s.32.11.5.11c.31,0,.46-.1.46-.29,0-.07-.02-.12-.07-.17s-.12-.11-.23-.17c-.11-.06-.26-.14-.45-.23-.23-.12-.42-.27-.58-.46-.16-.19-.24-.43-.24-.71,0-.2.05-.39.16-.57.11-.18.27-.33.48-.45.22-.12.48-.17.78-.17.07,0,.17,0,.28.02s.26.04.43.09c.17.05.34.12.49.21v.97c-.07-.05-.13-.09-.18-.12-.05-.03-.12-.07-.2-.11-.08-.04-.18-.08-.29-.11-.11-.03-.23-.05-.34-.05-.14,0-.24.03-.29.09s-.08.12-.08.19.03.12.08.18c.05.06.18.12.37.21.27.12.5.24.66.37.17.13.28.26.35.42.07.15.11.33.11.54Z" style="fill: #171717;" />
      <path d="m98.85,247.03h-2.46c.05.24.17.44.35.59.19.15.4.23.64.23.42,0,.88-.13,1.38-.4v.87c-.18.11-.4.2-.66.29-.26.09-.59.13-.98.13-.43,0-.8-.09-1.1-.27-.3-.18-.53-.43-.68-.74s-.23-.67-.23-1.06.08-.74.23-1.05.38-.55.68-.73.67-.26,1.1-.26c.28,0,.56.07.82.21.26.14.48.37.65.68.17.32.26.72.26,1.22v.28Zm-1.16-.7c0-.26-.06-.46-.17-.61s-.27-.23-.48-.23-.37.08-.5.23c-.13.15-.19.36-.19.61h1.34Z" style="fill: #171717;" />
      <path d="m101.93,248.45c-.13.07-.3.14-.53.2-.23.06-.44.1-.65.1-.89,0-1.34-.5-1.34-1.48v-1.59h-.56v-.25l1.66-1.92h.14v1.19h1.18v.98h-1.18v1.27c0,.15,0,.27.02.36.02.09.06.17.14.23.07.06.19.09.34.09.2,0,.46-.09.78-.28v1.1Z" style="fill: #171717;" />
    </g>
    <polygon points="6.54 131.92 6.54 136.77 10.77 134.35 6.54 131.92" style="fill: #ededed;" />
    <g>
      <path d="m88.05,173.08h-1.54l-.38-.96c-.14-.35-.26-.61-.37-.77s-.22-.27-.32-.31-.24-.07-.4-.07h-.16v2.11h-1.44v-5.41h2.44c.39,0,.72.09.97.27s.43.4.54.66.17.51.17.74c0,.27-.05.5-.14.69s-.19.33-.29.41-.22.17-.35.25c.15.1.28.22.38.36s.24.42.41.85l.48,1.18Zm-1.95-3.7c0-.25-.07-.42-.22-.52s-.38-.15-.7-.15h-.3v1.3h.31c.35,0,.59-.04.72-.13s.19-.25.19-.5Z" style="fill: #171717;" />
      <path d="m91.81,171.43h-2.46c.05.24.17.44.35.59.19.15.4.23.64.23.42,0,.88-.13,1.38-.4v.87c-.18.11-.4.2-.66.29s-.59.13-.98.13c-.43,0-.8-.09-1.1-.27s-.53-.43-.68-.74-.23-.67-.23-1.06.08-.74.23-1.05.38-.55.68-.73.67-.26,1.1-.26c.28,0,.56.07.82.21s.48.37.65.68c.17.32.26.72.26,1.22v.28Zm-1.16-.7c0-.26-.06-.46-.17-.61s-.27-.23-.48-.23-.37.08-.5.23-.19.36-.19.61h1.34Z" style="fill: #171717;" />
      <path d="m94.87,171.92c0,.36-.12.66-.35.89-.24.23-.58.34-1.05.34-.26,0-.49-.03-.69-.08-.2-.05-.42-.13-.66-.23v-1c.21.14.39.24.54.31s.32.11.5.11c.31,0,.46-.1.46-.29,0-.06-.02-.12-.07-.17s-.12-.11-.23-.17c-.11-.06-.26-.14-.45-.23-.23-.11-.42-.27-.58-.46-.16-.19-.24-.43-.24-.71,0-.2.05-.39.16-.57.11-.18.27-.33.48-.45.22-.12.48-.17.78-.17.07,0,.17,0,.28.02s.26.04.43.09.34.12.49.21v.97c-.07-.05-.13-.09-.18-.12-.05-.03-.12-.07-.2-.11-.08-.04-.18-.08-.29-.11s-.23-.05-.34-.05c-.14,0-.24.03-.29.09s-.08.12-.08.19.03.13.08.18.18.13.37.21c.27.12.5.24.66.37s.28.27.35.42c.07.15.11.33.11.54Z" style="fill: #171717;" />
      <path d="m98.85,171.43h-2.46c.05.24.17.44.35.59.19.15.4.23.64.23.42,0,.88-.13,1.38-.4v.87c-.18.11-.4.2-.66.29s-.59.13-.98.13c-.43,0-.8-.09-1.1-.27s-.53-.43-.68-.74-.23-.67-.23-1.06.08-.74.23-1.05.38-.55.68-.73.67-.26,1.1-.26c.28,0,.56.07.82.21s.48.37.65.68c.17.32.26.72.26,1.22v.28Zm-1.16-.7c0-.26-.06-.46-.17-.61s-.27-.23-.48-.23-.37.08-.5.23-.19.36-.19.61h1.34Z" style="fill: #171717;" />
      <path d="m101.93,172.85c-.13.07-.3.14-.53.2-.23.06-.44.1-.65.1-.89,0-1.34-.49-1.34-1.48v-1.59h-.56v-.25l1.66-1.92h.14v1.19h1.18v.98h-1.18v1.27c0,.15,0,.27.02.36s.06.17.14.23.19.09.34.09c.2,0,.46-.09.78-.28v1.1Z" style="fill: #171717;" />
    </g>
    <polygon points="6.54 56.32 6.54 61.17 10.77 58.75 6.54 56.32" style="fill: #171717;" />
    <g>
      <path d="m18.19,57.82c0,.2-.03.4-.09.59-.06.19-.16.37-.29.54-.13.17-.32.3-.55.4-.23.1-.5.15-.81.15h-.94v2.03h-1.44v-5.41h2.38c.31,0,.58.05.81.16.23.1.41.24.55.41.14.17.23.35.29.54.06.2.09.39.09.6Zm-1.46,0c0-.26-.07-.43-.2-.53-.13-.1-.37-.14-.72-.14h-.3v1.3h.31c.24,0,.42-.02.55-.05.13-.03.22-.1.28-.19s.09-.22.09-.39Z" style="fill: #171717;" />
      <path d="m20.15,61.53h-1.44v-5.41h1.44v5.41Z" style="fill: #171717;" />
      <path d="m26.24,61.53h-1.28l-2.47-3.02v3.02h-1.42v-5.41h1.28l2.46,3v-3h1.43v5.41Z" style="fill: #171717;" />
      <path d="m31.65,61.15c-.1.04-.19.08-.26.11s-.14.05-.21.08c-.07.02-.17.05-.29.09-.22.06-.43.1-.65.13-.22.03-.44.04-.69.04-.48,0-.93-.1-1.34-.3s-.74-.51-.98-.93c-.25-.42-.37-.94-.37-1.55,0-.4.06-.78.19-1.17.13-.38.32-.69.58-.92.22-.19.43-.34.65-.44.22-.1.44-.17.65-.2.21-.03.44-.05.7-.05.42,0,.77.04,1.04.11.27.07.57.17.9.28v1.28c-.22-.14-.44-.26-.68-.36s-.54-.14-.9-.14c-.42,0-.75.09-1,.27-.25.18-.42.39-.52.64-.1.25-.15.49-.15.72,0,.27.06.53.17.76s.28.42.51.55c.23.14.5.21.82.21.18,0,.38-.03.58-.08v-.64h-.65v-1.09h1.9v2.6Z" style="fill: #171717;" />
    </g>
    <g>
      <path d="m20.06,93.96c0,.51-.1.97-.31,1.39s-.51.76-.92,1.01-.9.38-1.48.38-1.09-.13-1.5-.39c-.41-.26-.71-.6-.91-1.03s-.3-.88-.3-1.36.1-.94.3-1.37c.2-.42.5-.76.91-1.02s.91-.39,1.5-.39c.44,0,.83.07,1.18.22s.63.35.85.6c.22.25.39.55.51.89.11.34.17.69.17,1.06Zm-1.46,0c0-.2-.03-.39-.08-.56s-.13-.31-.24-.44-.24-.22-.39-.29-.33-.1-.53-.1c-.39,0-.69.13-.91.38-.22.26-.33.59-.33,1s.11.75.33,1.01.52.38.91.38c.26,0,.49-.06.67-.18.19-.12.33-.28.42-.49.1-.21.14-.45.14-.72Z" style="fill: #171717;" />
      <path d="m25.63,94.24c0,.46-.08.86-.23,1.19-.15.33-.35.59-.6.78-.25.19-.52.33-.81.41s-.58.12-.87.12c-.4,0-.8-.08-1.18-.23-.38-.16-.7-.42-.96-.8-.26-.38-.39-.86-.39-1.46v-2.99h1.43v2.57c0,.36.04.65.14.88.09.23.22.4.38.51s.35.16.57.16.4-.05.56-.16.29-.28.38-.51c.09-.23.14-.53.14-.88v-2.57h1.44v2.99Z" style="fill: #171717;" />
      <path d="m31.05,92.57h-1.75v4.1h-1.43v-4.1h-1.75v-1.32h4.93v1.32Z" style="fill: #171717;" />
    </g>
    <g>
      <path d="m20.06,169.56c0,.51-.1.97-.31,1.39s-.51.76-.92,1.01-.9.38-1.48.38-1.09-.13-1.5-.39c-.41-.26-.71-.6-.91-1.03s-.3-.88-.3-1.36.1-.94.3-1.37c.2-.42.5-.76.91-1.02s.91-.39,1.5-.39c.44,0,.83.07,1.18.22s.63.35.85.6c.22.25.39.55.51.89.11.34.17.69.17,1.06Zm-1.46,0c0-.2-.03-.39-.08-.56s-.13-.31-.24-.44-.24-.22-.39-.29-.33-.1-.53-.1c-.39,0-.69.13-.91.38-.22.26-.33.59-.33,1s.11.75.33,1.01.52.38.91.38c.26,0,.49-.06.67-.18.19-.12.33-.28.42-.49.1-.21.14-.45.14-.72Z" style="fill: #171717;" />
      <path d="m25.63,169.84c0,.46-.08.86-.23,1.19-.15.33-.35.59-.6.78-.25.19-.52.33-.81.41s-.58.12-.87.12c-.4,0-.8-.08-1.18-.23-.38-.16-.7-.42-.96-.8-.26-.38-.39-.86-.39-1.46v-2.99h1.43v2.57c0,.36.04.65.14.88.09.23.22.4.38.51s.35.16.57.16.4-.05.56-.16.29-.28.38-.51c.09-.23.14-.53.14-.88v-2.57h1.44v2.99Z" style="fill: #171717;" />
      <path d="m31.05,168.17h-1.75v4.1h-1.43v-4.1h-1.75v-1.32h4.93v1.32Z" style="fill: #171717;" />
    </g>
    <g>
      <path d="m20.06,245.16c0,.51-.1.97-.31,1.39-.21.42-.51.76-.92,1.01s-.9.38-1.48.38-1.09-.13-1.5-.39c-.41-.26-.71-.6-.91-1.03-.2-.42-.3-.88-.3-1.36s.1-.94.3-1.37c.2-.42.5-.76.91-1.02.41-.26.91-.39,1.5-.39.44,0,.83.07,1.18.22s.63.35.85.6c.22.25.39.55.51.89.11.34.17.69.17,1.06Zm-1.46,0c0-.2-.03-.39-.08-.56s-.13-.31-.24-.44c-.11-.12-.24-.22-.39-.29-.15-.07-.33-.1-.53-.1-.39,0-.69.13-.91.38-.22.26-.33.59-.33,1s.11.75.33,1.01c.22.26.52.38.91.38.26,0,.49-.06.67-.18.19-.12.33-.28.42-.49.1-.21.14-.45.14-.72Z" style="fill: #171717;" />
      <path d="m25.63,245.44c0,.46-.08.86-.23,1.19-.15.33-.35.59-.6.78-.25.19-.52.33-.81.41-.29.08-.58.12-.87.12-.4,0-.8-.08-1.18-.23-.38-.16-.7-.42-.96-.8-.26-.38-.39-.86-.39-1.46v-2.99h1.43v2.57c0,.36.04.65.14.88.09.23.22.4.38.51.16.11.35.16.57.16s.4-.05.56-.16c.16-.11.29-.28.38-.51.09-.23.14-.53.14-.88v-2.57h1.44v2.99Z" style="fill: #171717;" />
      <path d="m31.05,243.77h-1.75v4.1h-1.43v-4.1h-1.75v-1.32h4.93v1.32Z" style="fill: #171717;" />
    </g>
    <g>
      <path d="m20.06,320.76c0,.5-.1.97-.31,1.39-.21.42-.51.76-.92,1.01s-.9.38-1.48.38-1.09-.13-1.5-.39c-.41-.26-.71-.6-.91-1.03-.2-.42-.3-.88-.3-1.36s.1-.94.3-1.37c.2-.42.5-.76.91-1.02.41-.26.91-.39,1.5-.39.44,0,.83.07,1.18.22s.63.35.85.6c.22.25.39.55.51.89.11.34.17.69.17,1.06Zm-1.46,0c0-.2-.03-.39-.08-.56s-.13-.31-.24-.44c-.11-.12-.24-.22-.39-.29-.15-.07-.33-.1-.53-.1-.39,0-.69.13-.91.38-.22.25-.33.59-.33,1s.11.75.33,1.01c.22.26.52.38.91.38.26,0,.49-.06.67-.18.19-.12.33-.28.42-.49.1-.21.14-.45.14-.72Z" style="fill: #171717;" />
      <path d="m25.63,321.04c0,.46-.08.86-.23,1.19-.15.33-.35.58-.6.78-.25.19-.52.33-.81.41-.29.08-.58.12-.87.12-.4,0-.8-.08-1.18-.23-.38-.16-.7-.42-.96-.8-.26-.38-.39-.86-.39-1.46v-2.99h1.43v2.57c0,.36.04.65.14.88.09.23.22.4.38.51.16.11.35.16.57.16s.4-.05.56-.16c.16-.11.29-.28.38-.51.09-.23.14-.53.14-.88v-2.57h1.44v2.99Z" style="fill: #171717;" />
      <path d="m31.05,319.37h-1.75v4.1h-1.43v-4.1h-1.75v-1.32h4.93v1.32Z" style="fill: #171717;" />
    </g>
    <g>
      <path d="m108.29,84.85c0,.38-.09.71-.26.99-.17.28-.41.49-.72.64-.31.15-.66.22-1.06.22-.11,0-.25,0-.41-.02s-.38-.06-.64-.13-.54-.18-.83-.33v-1.49c.27.19.54.35.8.47s.54.19.84.19c.28,0,.45-.05.54-.16s.12-.2.12-.29c0-.16-.07-.3-.21-.42-.14-.11-.34-.23-.61-.35-.29-.14-.55-.29-.77-.46-.22-.17-.4-.37-.54-.62s-.21-.54-.21-.88.07-.62.21-.89.36-.48.65-.64.65-.24,1.07-.24c.3,0,.58.03.83.1.25.07.46.14.63.22s.28.15.34.19v1.43c-.22-.18-.46-.34-.73-.48s-.56-.21-.86-.21c-.2,0-.35.04-.44.13-.09.09-.13.2-.13.33,0,.12.04.22.13.31.09.09.25.19.48.32.41.22.74.42.99.59.25.18.44.38.58.61s.21.52.21.86Z" style="fill: #171717;" />
      <path d="m113.52,86.62h-1.77l-1.51-2.12v2.12h-1.41v-6.09h1.41v3.57l1.38-1.96h1.67l-1.54,2.09,1.77,2.39Z" style="fill: #171717;" />
      <path d="m117.69,84.76h-2.77c.05.27.19.5.4.67.21.17.45.26.72.26.47,0,.99-.15,1.55-.45v.98c-.2.12-.45.23-.74.33-.29.1-.66.15-1.11.15-.49,0-.9-.1-1.24-.31-.34-.21-.59-.48-.76-.83s-.25-.75-.25-1.2.08-.83.25-1.18c.17-.35.42-.62.76-.82.34-.2.75-.3,1.24-.3.32,0,.63.08.93.24s.54.41.73.77c.19.36.29.82.29,1.38v.32Zm-1.31-.78c0-.29-.06-.52-.19-.69-.12-.17-.3-.26-.54-.26s-.42.09-.56.26c-.14.17-.21.4-.21.68h1.5Z" style="fill: #171717;" />
      <path d="m124.32,82.14l-1.55,4.47h-.88l-.88-2.44-.87,2.44h-.88l-1.59-4.47h1.41l.72,2.26.77-2.26h.89l.78,2.26.7-2.26h1.4Z" style="fill: #171717;" />
    </g>
    <path d="m101.79,158.94c-2.41,0-4.19-.62-5.21-1.75v1.58h-1v-4.37h1c0,3.09,3.26,3.55,5.21,3.55v1Z" style="fill: #171717;" />
    <g>
      <path d="m108.29,160.45c0,.38-.09.71-.26.99-.17.28-.41.49-.72.64-.31.15-.66.22-1.06.22-.11,0-.25,0-.41-.02s-.38-.06-.64-.13-.54-.18-.83-.33v-1.49c.27.19.54.35.8.47s.54.19.84.19c.28,0,.45-.05.54-.16s.12-.2.12-.29c0-.16-.07-.3-.21-.42-.14-.11-.34-.23-.61-.35-.29-.14-.55-.29-.77-.46-.22-.17-.4-.37-.54-.62s-.21-.54-.21-.88.07-.62.21-.89.36-.48.65-.64.65-.24,1.07-.24c.3,0,.58.03.83.1.25.07.46.14.63.22s.28.15.34.19v1.43c-.22-.18-.46-.34-.73-.48s-.56-.21-.86-.21c-.2,0-.35.04-.44.13-.09.09-.13.2-.13.33,0,.12.04.22.13.31.09.09.25.19.48.32.41.22.74.42.99.59.25.18.44.38.58.61s.21.52.21.86Z" style="fill: #171717;" />
      <path d="m113.52,162.22h-1.77l-1.51-2.12v2.12h-1.41v-6.09h1.41v3.57l1.38-1.96h1.67l-1.54,2.09,1.77,2.39Z" style="fill: #171717;" />
      <path d="m117.69,160.36h-2.77c.05.27.19.5.4.67.21.17.45.26.72.26.47,0,.99-.15,1.55-.45v.98c-.2.12-.45.23-.74.33-.29.1-.66.15-1.11.15-.49,0-.9-.1-1.24-.31-.34-.21-.59-.48-.76-.83s-.25-.75-.25-1.2.08-.83.25-1.18c.17-.35.42-.62.76-.82.34-.2.75-.3,1.24-.3.32,0,.63.08.93.24s.54.41.73.77c.19.36.29.82.29,1.38v.32Zm-1.31-.78c0-.29-.06-.52-.19-.69-.12-.17-.3-.26-.54-.26s-.42.09-.56.26c-.14.17-.21.4-.21.68h1.5Z" style="fill: #171717;" />
      <path d="m124.32,157.74l-1.55,4.47h-.88l-.88-2.44-.87,2.44h-.88l-1.59-4.47h1.41l.72,2.26.77-2.26h.89l.78,2.26.7-2.26h1.4Z" style="fill: #171717;" />
    </g>
    <polygon points="126.41 159.25 125.82 158.45 132.14 153.82 132.14 158.85 131.14 158.85 131.14 155.79 126.41 159.25" style="fill: #171717;" />
    <polygon points="116.97 114.49 114.04 111.13 111.31 114.48 110.71 113.99 114.02 109.92 117.56 113.98 116.97 114.49" style="fill: #171717;" />
    <polygon points="116.97 38.89 114.04 35.53 111.31 38.88 110.71 38.39 114.02 34.32 117.56 38.38 116.97 38.89" style="fill: #171717;" />
    <polygon points="116.97 190.09 114.04 186.73 111.31 190.08 110.71 189.59 114.02 185.52 117.56 189.58 116.97 190.09" style="fill: #171717;" />
    <polygon points="116.97 265.69 114.04 262.33 111.31 265.68 110.71 265.19 114.02 261.12 117.56 265.18 116.97 265.69" style="fill: #171717;" />
    <g>
      <path d="m108.29,236.05c0,.38-.09.71-.26.99-.17.28-.41.49-.72.64s-.66.22-1.06.22c-.11,0-.25,0-.41-.02-.16-.02-.38-.06-.64-.13s-.54-.18-.83-.33v-1.49c.27.19.54.35.8.47s.54.19.84.19c.28,0,.45-.05.54-.16.08-.1.12-.2.12-.29,0-.16-.07-.3-.21-.42-.14-.11-.34-.23-.61-.35-.29-.14-.55-.29-.77-.46-.22-.17-.4-.37-.54-.62s-.21-.54-.21-.88.07-.62.21-.89c.14-.26.36-.48.65-.63s.65-.24,1.07-.24c.3,0,.58.03.83.1.25.07.46.14.63.22s.28.15.34.19v1.43c-.22-.18-.46-.34-.73-.48s-.56-.21-.86-.21c-.2,0-.35.04-.44.13-.09.09-.13.2-.13.33,0,.12.04.22.13.31.09.09.25.19.48.32.41.22.74.42.99.59.25.18.44.38.58.61.14.23.21.52.21.86Z" style="fill: #171717;" />
      <path d="m113.52,237.82h-1.77l-1.51-2.12v2.12h-1.41v-6.09h1.41v3.57l1.38-1.96h1.67l-1.54,2.09,1.77,2.39Z" style="fill: #171717;" />
      <path d="m117.69,235.96h-2.77c.05.27.19.5.4.67.21.17.45.26.72.26.47,0,.99-.15,1.55-.45v.98c-.2.12-.45.23-.74.33-.29.1-.66.15-1.11.15-.49,0-.9-.1-1.24-.31-.34-.21-.59-.48-.76-.83s-.25-.75-.25-1.2.08-.83.25-1.18c.17-.35.42-.62.76-.82.34-.2.75-.3,1.24-.3.32,0,.63.08.93.24.3.16.54.41.73.77.19.36.29.82.29,1.38v.32Zm-1.31-.78c0-.29-.06-.52-.19-.69-.12-.17-.3-.26-.54-.26s-.42.09-.56.26c-.14.17-.21.4-.21.68h1.5Z" style="fill: #171717;" />
      <path d="m124.32,233.35l-1.55,4.47h-.88l-.88-2.44-.87,2.44h-.88l-1.59-4.47h1.41l.72,2.26.77-2.26h.89l.78,2.26.7-2.26h1.4Z" style="fill: #171717;" />
    </g>
    <g>
      <path d="m108.29,311.65c0,.38-.09.71-.26.99-.17.28-.41.49-.72.64s-.66.22-1.06.22c-.11,0-.25,0-.41-.02-.16-.02-.38-.06-.64-.13s-.54-.18-.83-.33v-1.49c.27.19.54.35.8.47s.54.19.84.19c.28,0,.45-.05.54-.16.08-.1.12-.2.12-.29,0-.16-.07-.3-.21-.42-.14-.11-.34-.23-.61-.35-.29-.14-.55-.29-.77-.46-.22-.17-.4-.37-.54-.62s-.21-.54-.21-.88.07-.62.21-.89c.14-.26.36-.48.65-.63s.65-.24,1.07-.24c.3,0,.58.03.83.1.25.07.46.14.63.22s.28.15.34.19v1.43c-.22-.18-.46-.34-.73-.48s-.56-.21-.86-.21c-.2,0-.35.04-.44.13-.09.09-.13.2-.13.33,0,.12.04.22.13.31.09.09.25.19.48.32.41.22.74.42.99.59.25.18.44.38.58.61.14.23.21.52.21.86Z" style="fill: #171717;" />
      <path d="m113.52,313.42h-1.77l-1.51-2.12v2.12h-1.41v-6.09h1.41v3.57l1.38-1.96h1.67l-1.54,2.09,1.77,2.39Z" style="fill: #171717;" />
      <path d="m117.69,311.56h-2.77c.05.27.19.5.4.67.21.17.45.26.72.26.47,0,.99-.15,1.55-.45v.98c-.2.12-.45.23-.74.33-.29.1-.66.15-1.11.15-.49,0-.9-.1-1.24-.31-.34-.21-.59-.48-.76-.83s-.25-.75-.25-1.2.08-.83.25-1.18c.17-.35.42-.62.76-.82.34-.2.75-.3,1.24-.3.32,0,.63.08.93.24.3.16.54.41.73.77.19.36.29.82.29,1.38v.32Zm-1.31-.78c0-.29-.06-.52-.19-.69-.12-.17-.3-.26-.54-.26s-.42.09-.56.26c-.14.17-.21.4-.21.68h1.5Z" style="fill: #171717;" />
      <path d="m124.32,308.95l-1.55,4.47h-.88l-.88-2.44-.87,2.44h-.88l-1.59-4.47h1.41l.72,2.26.77-2.26h.89l.78,2.26.7-2.26h1.4Z" style="fill: #171717;" />
    </g>
    <g>
      <path d="m88.05,97.48h-1.54l-.38-.96c-.14-.35-.26-.61-.37-.77s-.22-.27-.32-.31-.24-.07-.4-.07h-.16v2.11h-1.44v-5.41h2.44c.39,0,.72.09.97.27s.43.4.54.66.17.51.17.74c0,.27-.05.5-.14.69s-.19.33-.29.41-.22.17-.35.25c.15.1.28.22.38.36s.24.42.41.85l.48,1.18Zm-1.95-3.7c0-.25-.07-.42-.22-.52s-.38-.15-.7-.15h-.3v1.3h.31c.35,0,.59-.04.72-.13s.19-.25.19-.5Z" style="fill: #171717;" />
      <path d="m91.81,95.83h-2.46c.05.24.17.44.35.59.19.15.4.23.64.23.42,0,.88-.13,1.38-.4v.87c-.18.11-.4.2-.66.29s-.59.13-.98.13c-.43,0-.8-.09-1.1-.27s-.53-.43-.68-.74-.23-.67-.23-1.06.08-.74.23-1.05.38-.55.68-.73.67-.26,1.1-.26c.28,0,.56.07.82.21s.48.37.65.68c.17.32.26.72.26,1.22v.28Zm-1.16-.7c0-.26-.06-.46-.17-.61s-.27-.23-.48-.23-.37.08-.5.23-.19.36-.19.61h1.34Z" style="fill: #171717;" />
      <path d="m94.87,96.32c0,.36-.12.66-.35.89-.24.23-.58.34-1.05.34-.26,0-.49-.03-.69-.08-.2-.05-.42-.13-.66-.23v-1c.21.14.39.24.54.31s.32.11.5.11c.31,0,.46-.1.46-.29,0-.06-.02-.12-.07-.17s-.12-.11-.23-.17c-.11-.06-.26-.14-.45-.23-.23-.11-.42-.27-.58-.46-.16-.19-.24-.43-.24-.71,0-.2.05-.39.16-.57.11-.18.27-.33.48-.45.22-.12.48-.17.78-.17.07,0,.17,0,.28.02s.26.04.43.09.34.12.49.21v.97c-.07-.05-.13-.09-.18-.12-.05-.03-.12-.07-.2-.11-.08-.04-.18-.08-.29-.11s-.23-.05-.34-.05c-.14,0-.24.03-.29.09s-.08.12-.08.19.03.13.08.18.18.13.37.21c.27.12.5.24.66.37s.28.27.35.42c.07.15.11.33.11.54Z" style="fill: #171717;" />
      <path d="m98.85,95.83h-2.46c.05.24.17.44.35.59.19.15.4.23.64.23.42,0,.88-.13,1.38-.4v.87c-.18.11-.4.2-.66.29s-.59.13-.98.13c-.43,0-.8-.09-1.1-.27s-.53-.43-.68-.74-.23-.67-.23-1.06.08-.74.23-1.05.38-.55.68-.73.67-.26,1.1-.26c.28,0,.56.07.82.21s.48.37.65.68c.17.32.26.72.26,1.22v.28Zm-1.16-.7c0-.26-.06-.46-.17-.61s-.27-.23-.48-.23-.37.08-.5.23-.19.36-.19.61h1.34Z" style="fill: #171717;" />
      <path d="m101.93,97.25c-.13.07-.3.14-.53.2-.23.06-.44.1-.65.1-.89,0-1.34-.49-1.34-1.48v-1.59h-.56v-.25l1.66-1.92h.14v1.19h1.18v.98h-1.18v1.27c0,.15,0,.27.02.36s.06.17.14.23.19.09.34.09c.2,0,.46-.09.78-.28v1.1Z" style="fill: #171717;" />
    </g>
    <polygon points="6.54 283.12 6.54 287.97 10.77 285.55 6.54 283.12" style="fill: #171717;" />
    <g>
      <path d="m18.19,284.62c0,.2-.03.4-.09.59-.06.19-.16.37-.29.54-.13.17-.32.3-.55.4-.23.1-.5.15-.81.15h-.94v2.03h-1.44v-5.41h2.38c.31,0,.58.05.81.16.23.1.41.24.55.41.14.17.23.35.29.54.06.2.09.39.09.6Zm-1.46,0c0-.26-.07-.43-.2-.53-.13-.09-.37-.14-.72-.14h-.3v1.3h.31c.24,0,.42-.02.55-.05.13-.03.22-.1.28-.19.06-.09.09-.22.09-.39Z" style="fill: #171717;" />
      <path d="m20.15,288.33h-1.44v-5.41h1.44v5.41Z" style="fill: #171717;" />
      <path d="m26.24,288.33h-1.28l-2.47-3.02v3.02h-1.42v-5.41h1.28l2.46,3v-3h1.43v5.41Z" style="fill: #171717;" />
      <path d="m31.65,287.95c-.1.04-.19.08-.26.11-.07.03-.14.05-.21.08-.07.02-.17.05-.29.09-.22.06-.43.1-.65.13-.22.03-.44.04-.69.04-.48,0-.93-.1-1.34-.3-.41-.2-.74-.51-.98-.93-.25-.42-.37-.94-.37-1.55,0-.4.06-.78.19-1.17.13-.38.32-.69.58-.92.22-.19.43-.33.65-.44.22-.1.44-.17.65-.2.21-.03.44-.05.7-.05.42,0,.77.04,1.04.11.27.07.57.17.9.28v1.28c-.22-.14-.44-.26-.68-.36-.24-.1-.54-.14-.9-.14-.42,0-.75.09-1,.27-.25.18-.42.39-.52.64-.1.25-.15.49-.15.72,0,.27.06.53.17.76s.28.42.51.55c.23.14.5.21.82.21.18,0,.38-.03.58-.08v-.64h-.65v-1.09h1.9v2.6Z" style="fill: #171717;" />
    </g>
    <g>
      <path d="m88.05,324.28h-1.54l-.38-.96c-.14-.35-.26-.61-.37-.77-.11-.16-.22-.27-.32-.31-.1-.04-.24-.07-.4-.07h-.16v2.11h-1.44v-5.41h2.44c.39,0,.72.09.97.27.25.18.43.4.54.66.11.26.17.51.17.74,0,.27-.05.5-.14.69-.09.19-.19.33-.29.41s-.22.17-.35.25c.15.1.28.22.38.36.1.14.24.42.41.85l.48,1.18Zm-1.95-3.7c0-.25-.07-.42-.22-.52-.14-.1-.38-.15-.7-.15h-.3v1.3h.31c.35,0,.59-.04.72-.13.13-.09.19-.25.19-.5Z" style="fill: #171717;" />
      <path d="m91.81,322.63h-2.46c.05.24.17.44.35.59.19.15.4.23.64.23.42,0,.88-.13,1.38-.4v.87c-.18.11-.4.2-.66.29-.26.09-.59.13-.98.13-.43,0-.8-.09-1.1-.27-.3-.18-.53-.43-.68-.74s-.23-.67-.23-1.06.08-.74.23-1.05.38-.55.68-.73.67-.26,1.1-.26c.28,0,.56.07.82.21.26.14.48.37.65.68.17.32.26.72.26,1.22v.28Zm-1.16-.7c0-.25-.06-.46-.17-.61s-.27-.23-.48-.23-.37.08-.5.23c-.13.16-.19.36-.19.61h1.34Z" style="fill: #171717;" />
      <path d="m94.87,323.12c0,.37-.12.66-.35.89-.24.23-.58.34-1.05.34-.26,0-.49-.03-.69-.08-.2-.05-.42-.13-.66-.23v-1c.21.14.39.24.54.31s.32.11.5.11c.31,0,.46-.1.46-.29,0-.06-.02-.12-.07-.17s-.12-.11-.23-.17c-.11-.06-.26-.14-.45-.23-.23-.11-.42-.27-.58-.46-.16-.19-.24-.43-.24-.71,0-.2.05-.39.16-.57.11-.18.27-.33.48-.45.22-.12.48-.17.78-.17.07,0,.17,0,.28.02s.26.04.43.09c.17.05.34.12.49.21v.97c-.07-.05-.13-.09-.18-.12-.05-.03-.12-.07-.2-.11-.08-.04-.18-.08-.29-.11-.11-.03-.23-.05-.34-.05-.14,0-.24.03-.29.09s-.08.12-.08.19.03.13.08.18c.05.06.18.13.37.21.27.12.5.24.66.37.17.13.28.27.35.42.07.15.11.33.11.54Z" style="fill: #171717;" />
      <path d="m98.85,322.63h-2.46c.05.24.17.44.35.59.19.15.4.23.64.23.42,0,.88-.13,1.38-.4v.87c-.18.11-.4.2-.66.29-.26.09-.59.13-.98.13-.43,0-.8-.09-1.1-.27-.3-.18-.53-.43-.68-.74s-.23-.67-.23-1.06.08-.74.23-1.05.38-.55.68-.73.67-.26,1.1-.26c.28,0,.56.07.82.21.26.14.48.37.65.68.17.32.26.72.26,1.22v.28Zm-1.16-.7c0-.25-.06-.46-.17-.61s-.27-.23-.48-.23-.37.08-.5.23c-.13.16-.19.36-.19.61h1.34Z" style="fill: #171717;" />
      <path d="m101.93,324.05c-.13.07-.3.14-.53.2-.23.07-.44.1-.65.1-.89,0-1.34-.49-1.34-1.48v-1.59h-.56v-.25l1.66-1.92h.14v1.19h1.18v.98h-1.18v1.27c0,.15,0,.27.02.36.02.09.06.17.14.23.07.06.19.09.34.09.2,0,.46-.09.78-.28v1.1Z" style="fill: #171717;" />
    </g>
    <g>
      <path d="m152.25,56.82c0,.2-.03.4-.09.59-.06.19-.16.37-.29.54-.13.17-.32.3-.55.4s-.5.15-.81.15h-.94v2.03h-1.44v-5.41h2.38c.31,0,.58.05.81.16s.41.24.55.41c.14.17.23.35.29.54.06.2.09.39.09.6Zm-1.46,0c0-.26-.07-.43-.2-.53-.13-.1-.37-.14-.72-.14h-.3v1.3h.31c.24,0,.42-.02.55-.05s.22-.1.28-.19c.06-.09.09-.22.09-.39Z" style="fill: #171717;" />
      <path d="m153.86,60.53h-1.24v-3.98h1.24v3.98Zm-.1-4.89c0,.16-.05.3-.16.42-.1.11-.23.17-.37.17-.1,0-.18-.03-.26-.08s-.14-.12-.19-.21-.07-.19-.07-.3c0-.16.05-.3.15-.42s.22-.18.37-.18.26.06.37.18c.1.12.16.26.16.42Z" style="fill: #171717;" />
      <path d="m158.17,60.53h-1.24v-2.14c0-.22-.03-.41-.09-.57-.06-.16-.2-.24-.41-.24-.1,0-.19.02-.27.06-.08.04-.15.1-.21.17s-.11.13-.15.2c-.04.06-.08.13-.13.2v2.34h-1.24v-3.98h1.24v.57c.2-.24.39-.4.59-.5.2-.1.42-.14.66-.14.84,0,1.26.57,1.26,1.71v2.34Z" style="fill: #171717;" />
      <path d="m162.15,57.4h-.61c.22.21.32.48.32.79,0,.16-.03.32-.09.47-.06.15-.15.29-.27.4s-.26.21-.44.29-.37.12-.59.13c-.29.01-.43.1-.43.26,0,.06.02.11.05.14.04.03.09.05.17.06s.21.03.4.05c.21.02.41.06.59.11s.35.16.51.33.24.4.24.71c0,.25-.06.47-.18.66s-.31.34-.57.45-.61.16-1.04.16c-.62,0-1.08-.1-1.37-.29-.29-.19-.44-.44-.44-.76,0-.09.02-.19.06-.3s.12-.22.24-.32c.12-.1.3-.17.54-.21-.08-.03-.15-.1-.21-.2s-.09-.2-.09-.31c0-.14.04-.27.12-.41.08-.14.22-.22.41-.26-.26-.08-.49-.23-.68-.44s-.29-.5-.29-.84c0-.26.04-.49.13-.68.09-.2.21-.35.37-.48.16-.12.34-.21.54-.27.21-.06.43-.09.68-.09h1.92v.85Zm-1.12,3.87c0-.17-.08-.29-.25-.34-.16-.05-.33-.08-.51-.08-.29,0-.49.03-.62.1s-.19.18-.19.33c0,.3.26.45.79.45.24,0,.42-.04.56-.12s.21-.19.21-.35Zm-.25-3.2c0-.2-.06-.36-.18-.48s-.25-.18-.4-.18c-.19,0-.34.07-.45.22-.11.15-.16.3-.16.46,0,.11.02.22.07.31s.11.17.2.23.19.09.31.09c.18,0,.33-.06.44-.19s.18-.28.18-.46Z" style="fill: #171717;" />
    </g>
    <g>
      <path d="m155.58,95.98c0,.51-.1.97-.31,1.39s-.51.76-.92,1.01c-.41.25-.9.38-1.48.38s-1.09-.13-1.5-.39c-.41-.26-.71-.6-.91-1.03s-.3-.88-.3-1.36.1-.94.3-1.37c.2-.42.5-.76.91-1.02s.91-.39,1.5-.39c.44,0,.83.07,1.18.22s.63.35.85.6c.22.25.39.55.51.89s.17.69.17,1.06Zm-1.46,0c0-.2-.03-.39-.08-.56s-.13-.31-.24-.44-.24-.22-.39-.29-.33-.1-.53-.1c-.39,0-.69.13-.91.38-.22.26-.33.59-.33,1s.11.75.33,1.01c.22.26.52.38.91.38.26,0,.49-.06.67-.18.19-.12.33-.28.42-.49.1-.21.14-.45.14-.72Z" style="fill: #171717;" />
      <path d="m159.73,98.69h-1.24v-2.14c0-.22-.03-.41-.09-.57-.06-.16-.2-.24-.41-.24-.1,0-.19.02-.27.06-.08.04-.15.1-.21.17s-.11.13-.15.2c-.04.06-.08.13-.13.2v2.34h-1.24v-3.98h1.24v.57c.2-.24.39-.4.59-.5.2-.1.42-.14.66-.14.84,0,1.26.57,1.26,1.71v2.34Z" style="fill: #171717;" />
    </g>
    <g>
      <path d="m152.25,132.42c0,.2-.03.4-.09.59-.06.19-.16.37-.29.54-.13.17-.32.3-.55.4s-.5.15-.81.15h-.94v2.03h-1.44v-5.41h2.38c.31,0,.58.05.81.16s.41.24.55.41c.14.17.23.35.29.54.06.2.09.39.09.6Zm-1.46,0c0-.26-.07-.43-.2-.53-.13-.1-.37-.14-.72-.14h-.3v1.3h.31c.24,0,.42-.02.55-.05s.22-.1.28-.19c.06-.09.09-.22.09-.39Z" style="fill: #171717;" />
      <path d="m153.86,136.13h-1.24v-3.98h1.24v3.98Zm-.1-4.89c0,.16-.05.3-.16.42-.1.11-.23.17-.37.17-.1,0-.18-.03-.26-.08s-.14-.12-.19-.21-.07-.19-.07-.3c0-.16.05-.3.15-.42s.22-.18.37-.18.26.06.37.18c.1.12.16.26.16.42Z" style="fill: #171717;" />
      <path d="m158.17,136.13h-1.24v-2.14c0-.22-.03-.41-.09-.57-.06-.16-.2-.24-.41-.24-.1,0-.19.02-.27.06-.08.04-.15.1-.21.17s-.11.13-.15.2c-.04.06-.08.13-.13.2v2.34h-1.24v-3.98h1.24v.57c.2-.24.39-.4.59-.5.2-.1.42-.14.66-.14.84,0,1.26.57,1.26,1.71v2.34Z" style="fill: #171717;" />
      <path d="m162.15,133h-.61c.22.21.32.48.32.79,0,.16-.03.32-.09.47-.06.15-.15.29-.27.4s-.26.21-.44.29-.37.12-.59.13c-.29.01-.43.1-.43.26,0,.06.02.11.05.14.04.03.09.05.17.06s.21.03.4.05c.21.02.41.06.59.11s.35.16.51.33.24.4.24.71c0,.25-.06.47-.18.66s-.31.34-.57.45-.61.16-1.04.16c-.62,0-1.08-.1-1.37-.29-.29-.19-.44-.44-.44-.76,0-.09.02-.19.06-.3s.12-.22.24-.32c.12-.1.3-.17.54-.21-.08-.03-.15-.1-.21-.2s-.09-.2-.09-.31c0-.14.04-.27.12-.41.08-.14.22-.22.41-.26-.26-.08-.49-.23-.68-.44s-.29-.5-.29-.84c0-.26.04-.49.13-.68.09-.2.21-.35.37-.48.16-.12.34-.21.54-.27.21-.06.43-.09.68-.09h1.92v.85Zm-1.12,3.87c0-.17-.08-.29-.25-.34-.16-.05-.33-.08-.51-.08-.29,0-.49.03-.62.1s-.19.18-.19.33c0,.3.26.45.79.45.24,0,.42-.04.56-.12s.21-.19.21-.35Zm-.25-3.2c0-.2-.06-.36-.18-.48s-.25-.18-.4-.18c-.19,0-.34.07-.45.22-.11.15-.16.3-.16.46,0,.11.02.22.07.31s.11.17.2.23.19.09.31.09c.18,0,.33-.06.44-.19s.18-.28.18-.46Z" style="fill: #171717;" />
    </g>
    <g>
      <path d="m155.58,171.58c0,.51-.1.97-.31,1.39s-.51.76-.92,1.01c-.41.25-.9.38-1.48.38s-1.09-.13-1.5-.39c-.41-.26-.71-.6-.91-1.03s-.3-.88-.3-1.36.1-.94.3-1.37c.2-.42.5-.76.91-1.02s.91-.39,1.5-.39c.44,0,.83.07,1.18.22s.63.35.85.6c.22.25.39.55.51.89s.17.69.17,1.06Zm-1.46,0c0-.2-.03-.39-.08-.56s-.13-.31-.24-.44-.24-.22-.39-.29-.33-.1-.53-.1c-.39,0-.69.13-.91.38-.22.26-.33.59-.33,1s.11.75.33,1.01c.22.26.52.38.91.38.26,0,.49-.06.67-.18.19-.12.33-.28.42-.49.1-.21.14-.45.14-.72Z" style="fill: #171717;" />
      <path d="m159.73,174.29h-1.24v-2.14c0-.22-.03-.41-.09-.57-.06-.16-.2-.24-.41-.24-.1,0-.19.02-.27.06-.08.04-.15.1-.21.17s-.11.13-.15.2c-.04.06-.08.13-.13.2v2.34h-1.24v-3.98h1.24v.57c.2-.24.39-.4.59-.5.2-.1.42-.14.66-.14.84,0,1.26.57,1.26,1.71v2.34Z" style="fill: #171717;" />
    </g>
    <g>
      <path d="m152.25,208.02c0,.2-.03.4-.09.59-.06.19-.16.37-.29.54-.13.17-.32.3-.55.4-.23.1-.5.15-.81.15h-.94v2.03h-1.44v-5.41h2.38c.31,0,.58.05.81.16.23.1.41.24.55.41.14.17.23.35.29.54.06.2.09.39.09.6Zm-1.46,0c0-.26-.07-.43-.2-.53-.13-.09-.37-.14-.72-.14h-.3v1.3h.31c.24,0,.42-.02.55-.05.13-.03.22-.1.28-.19.06-.09.09-.22.09-.39Z" style="fill: #171717;" />
      <path d="m153.86,211.73h-1.24v-3.98h1.24v3.98Zm-.1-4.89c0,.16-.05.3-.16.42-.1.12-.23.17-.37.17-.1,0-.18-.03-.26-.08-.08-.05-.14-.12-.19-.21s-.07-.19-.07-.3c0-.16.05-.3.15-.42s.22-.18.37-.18.26.06.37.18c.1.12.16.26.16.42Z" style="fill: #171717;" />
      <path d="m158.17,211.73h-1.24v-2.14c0-.22-.03-.41-.09-.57-.06-.16-.2-.24-.41-.24-.1,0-.19.02-.27.06-.08.04-.15.1-.21.17-.06.07-.11.13-.15.2-.04.06-.08.13-.13.2v2.34h-1.24v-3.98h1.24v.57c.2-.24.39-.4.59-.5.2-.09.42-.14.66-.14.84,0,1.26.57,1.26,1.71v2.34Z" style="fill: #171717;" />
      <path d="m162.15,208.6h-.61c.22.21.32.48.32.79,0,.16-.03.32-.09.47-.06.15-.15.29-.27.4s-.26.21-.44.29-.37.12-.59.13c-.29.01-.43.1-.43.26,0,.06.02.11.05.14.04.03.09.05.17.06.08.01.21.03.4.05.21.02.41.06.59.11.18.05.35.16.51.33.16.17.24.41.24.71,0,.25-.06.47-.18.66-.12.19-.31.34-.57.45-.26.11-.61.16-1.04.16-.62,0-1.08-.09-1.37-.29-.29-.19-.44-.44-.44-.76,0-.09.02-.18.06-.3.04-.11.12-.22.24-.32.12-.1.3-.17.54-.21-.08-.03-.15-.1-.21-.2s-.09-.2-.09-.31c0-.14.04-.27.12-.41.08-.13.22-.22.41-.26-.26-.08-.49-.22-.68-.44-.19-.22-.29-.5-.29-.84,0-.26.04-.49.13-.68.09-.2.21-.35.37-.48.16-.12.34-.21.54-.27.21-.06.43-.09.68-.09h1.92v.85Zm-1.12,3.87c0-.17-.08-.29-.25-.34-.16-.05-.33-.08-.51-.08-.29,0-.49.04-.62.1-.13.07-.19.18-.19.33,0,.3.26.45.79.45.24,0,.42-.04.56-.12.14-.08.21-.19.21-.35Zm-.25-3.2c0-.2-.06-.36-.18-.48s-.25-.18-.4-.18c-.19,0-.34.07-.45.22-.11.15-.16.3-.16.46,0,.11.02.22.07.31.05.1.11.17.2.23s.19.09.31.09c.18,0,.33-.06.44-.19.12-.13.18-.28.18-.46Z" style="fill: #171717;" />
    </g>
    <g>
      <path d="m155.58,247.18c0,.51-.1.97-.31,1.39-.21.42-.51.76-.92,1.01-.41.25-.9.38-1.48.38s-1.09-.13-1.5-.39c-.41-.26-.71-.6-.91-1.03-.2-.42-.3-.88-.3-1.36s.1-.94.3-1.37c.2-.42.5-.76.91-1.02.41-.26.91-.39,1.5-.39.44,0,.83.07,1.18.22s.63.35.85.6c.22.25.39.55.51.89.11.34.17.69.17,1.06Zm-1.46,0c0-.2-.03-.39-.08-.56s-.13-.31-.24-.44c-.11-.12-.24-.22-.39-.29-.15-.07-.33-.1-.53-.1-.39,0-.69.13-.91.38-.22.26-.33.59-.33,1s.11.75.33,1.01c.22.26.52.38.91.38.26,0,.49-.06.67-.18.19-.12.33-.28.42-.49.1-.21.14-.45.14-.72Z" style="fill: #171717;" />
      <path d="m159.73,249.89h-1.24v-2.14c0-.22-.03-.41-.09-.57-.06-.16-.2-.24-.41-.24-.1,0-.19.02-.27.06-.08.04-.15.1-.21.17-.06.07-.11.13-.15.2-.04.06-.08.13-.13.2v2.34h-1.24v-3.98h1.24v.57c.2-.24.39-.4.59-.5.2-.09.42-.14.66-.14.84,0,1.26.57,1.26,1.71v2.34Z" style="fill: #171717;" />
    </g>
    <g>
      <path d="m152.25,283.62c0,.2-.03.4-.09.59-.06.19-.16.37-.29.54-.13.17-.32.3-.55.4-.23.1-.5.15-.81.15h-.94v2.03h-1.44v-5.41h2.38c.31,0,.58.05.81.16.23.1.41.24.55.41.14.17.23.35.29.54.06.2.09.39.09.6Zm-1.46,0c0-.26-.07-.43-.2-.53-.13-.1-.37-.14-.72-.14h-.3v1.3h.31c.24,0,.42-.02.55-.05.13-.03.22-.1.28-.19.06-.09.09-.22.09-.39Z" style="fill: #171717;" />
      <path d="m153.86,287.33h-1.24v-3.98h1.24v3.98Zm-.1-4.89c0,.16-.05.3-.16.42-.1.11-.23.17-.37.17-.1,0-.18-.03-.26-.08-.08-.05-.14-.12-.19-.21s-.07-.19-.07-.3c0-.16.05-.3.15-.42s.22-.18.37-.18.26.06.37.18c.1.12.16.26.16.42Z" style="fill: #171717;" />
      <path d="m158.17,287.33h-1.24v-2.14c0-.22-.03-.41-.09-.57-.06-.16-.2-.24-.41-.24-.1,0-.19.02-.27.06-.08.04-.15.1-.21.17-.06.07-.11.13-.15.2-.04.06-.08.13-.13.2v2.34h-1.24v-3.98h1.24v.57c.2-.24.39-.4.59-.5.2-.1.42-.14.66-.14.84,0,1.26.57,1.26,1.71v2.34Z" style="fill: #171717;" />
      <path d="m162.15,284.2h-.61c.22.21.32.47.32.79,0,.16-.03.32-.09.47-.06.15-.15.29-.27.4s-.26.21-.44.29-.37.12-.59.13c-.29.01-.43.1-.43.26,0,.06.02.11.05.14.04.03.09.05.17.06.08.01.21.03.4.05.21.02.41.06.59.11.18.05.35.16.51.33.16.17.24.4.24.71,0,.25-.06.47-.18.66-.12.19-.31.34-.57.45-.26.11-.61.16-1.04.16-.62,0-1.08-.1-1.37-.29-.29-.19-.44-.44-.44-.76,0-.09.02-.19.06-.3.04-.11.12-.22.24-.32.12-.1.3-.17.54-.21-.08-.03-.15-.1-.21-.2s-.09-.2-.09-.31c0-.14.04-.28.12-.41.08-.14.22-.22.41-.26-.26-.08-.49-.23-.68-.44-.19-.22-.29-.5-.29-.84,0-.26.04-.49.13-.68.09-.2.21-.35.37-.48.16-.12.34-.21.54-.27.21-.06.43-.09.68-.09h1.92v.85Zm-1.12,3.87c0-.17-.08-.29-.25-.34-.16-.05-.33-.08-.51-.08-.29,0-.49.03-.62.1-.13.07-.19.18-.19.33,0,.3.26.45.79.45.24,0,.42-.04.56-.12.14-.08.21-.19.21-.35Zm-.25-3.2c0-.2-.06-.36-.18-.48s-.25-.18-.4-.18c-.19,0-.34.07-.45.22-.11.15-.16.3-.16.46,0,.11.02.22.07.31.05.1.11.17.2.23s.19.09.31.09c.18,0,.33-.06.44-.19.12-.13.18-.28.18-.46Z" style="fill: #171717;" />
    </g>
    <g>
      <path d="m155.58,322.78c0,.5-.1.97-.31,1.39-.21.42-.51.76-.92,1.01-.41.25-.9.38-1.48.38s-1.09-.13-1.5-.39c-.41-.26-.71-.6-.91-1.03-.2-.42-.3-.88-.3-1.36s.1-.94.3-1.37c.2-.42.5-.76.91-1.02.41-.26.91-.39,1.5-.39.44,0,.83.07,1.18.22s.63.35.85.6c.22.25.39.55.51.89.11.34.17.69.17,1.06Zm-1.46,0c0-.2-.03-.39-.08-.56s-.13-.31-.24-.44c-.11-.12-.24-.22-.39-.29-.15-.07-.33-.1-.53-.1-.39,0-.69.13-.91.38-.22.25-.33.59-.33,1s.11.75.33,1.01c.22.26.52.38.91.38.26,0,.49-.06.67-.18.19-.12.33-.28.42-.49.1-.21.14-.45.14-.72Z" style="fill: #171717;" />
      <path d="m159.73,325.49h-1.24v-2.14c0-.22-.03-.41-.09-.57-.06-.16-.2-.24-.41-.24-.1,0-.19.02-.27.06-.08.04-.15.1-.21.17-.06.07-.11.13-.15.2-.04.06-.08.13-.13.2v2.34h-1.24v-3.98h1.24v.57c.2-.24.39-.4.59-.5.2-.1.42-.14.66-.14.84,0,1.26.57,1.26,1.71v2.34Z" style="fill: #171717;" />
    </g>
    <g>
      <path d="m102.03,153.97c-6.39-4.11-10.2-11.09-10.2-18.68,0-10.3,7.28-19.41,17.32-21.66l.33,1.48c-9.35,2.1-16.14,10.58-16.14,20.18,0,7.07,3.55,13.57,9.51,17.4l-.82,1.27Z" style="fill: #171717;" />
      <path d="m126.02,153.97l-.82-1.27c5.95-3.83,9.51-10.34,9.51-17.4,0-9.6-6.79-18.08-16.14-20.18l.33-1.48c10.04,2.25,17.32,11.36,17.32,21.66,0,7.59-3.81,14.57-10.2,18.68Z" style="fill: #171717;" />
    </g>
    <path d="m101.79,234.54c-2.41,0-4.19-.62-5.21-1.75v1.58h-1v-4.37h1c0,3.09,3.26,3.55,5.21,3.55v1Z" style="fill: #171717;" />
    <polygon points="126.41 234.85 125.82 234.05 132.14 229.42 132.14 234.45 131.14 234.45 131.14 231.39 126.41 234.85" style="fill: #171717;" />
    <g>
      <path d="m102.03,229.57c-6.39-4.11-10.2-11.09-10.2-18.68,0-10.3,7.28-19.41,17.32-21.66l.33,1.48c-9.35,2.1-16.14,10.58-16.14,20.18,0,7.07,3.55,13.57,9.51,17.4l-.82,1.27Z" style="fill: #171717;" />
      <path d="m126.02,229.57l-.82-1.27c5.95-3.83,9.51-10.34,9.51-17.4,0-9.59-6.79-18.08-16.14-20.18l.33-1.48c10.04,2.25,17.32,11.36,17.32,21.66,0,7.58-3.81,14.57-10.2,18.68Z" style="fill: #171717;" />
    </g>
    <path d="m101.79,310.14c-2.41,0-4.19-.62-5.21-1.75v1.58h-1v-4.37h1c0,3.09,3.26,3.55,5.21,3.55v1Z" style="fill: #171717;" />
    <polygon points="126.41 310.45 125.82 309.65 132.14 305.02 132.14 310.05 131.14 310.05 131.14 306.99 126.41 310.45" style="fill: #171717;" />
    <path d="m154.65,42h-18.12l-.15-.21c-5.12-7.27-13.48-11.6-22.36-11.6-6.3,0-12.45,2.2-17.32,6.19l-.14.11h-54.91v-1h54.55c5.02-4.07,11.34-6.3,17.82-6.3,9.12,0,17.7,4.41,23.03,11.82h17.6v1Z" style="fill: #171717;" />
    <path d="m154.65,117.6h-18.12l-.15-.21c-5.12-7.27-13.48-11.6-22.36-11.6-6.3,0-12.45,2.2-17.32,6.19l-.14.11h-54.91v-1h54.55c5.02-4.07,11.34-6.3,17.82-6.3,9.12,0,17.7,4.41,23.03,11.82h17.6v1Z" style="fill: #171717;" />
    <path d="m154.65,193.2h-18.12l-.15-.21c-5.12-7.27-13.48-11.6-22.36-11.6-6.3,0-12.45,2.2-17.32,6.19l-.14.11h-54.91v-1h54.55c5.02-4.07,11.34-6.3,17.82-6.3,9.12,0,17.7,4.41,23.03,11.82h17.6v1Z" style="fill: #171717;" />
    <path d="m154.65,268.8h-18.12l-.15-.21c-5.12-7.27-13.48-11.6-22.36-11.6-6.3,0-12.45,2.2-17.32,6.19l-.14.11h-54.91v-1h54.55c5.02-4.07,11.34-6.3,17.82-6.3,9.12,0,17.7,4.41,23.03,11.82h17.6v1Z" style="fill: #171717;" />
    <g>
      <path d="m102.03,305.17c-6.39-4.11-10.2-11.09-10.2-18.68,0-10.3,7.28-19.41,17.32-21.66l.33,1.48c-9.35,2.1-16.14,10.58-16.14,20.18,0,7.07,3.55,13.57,9.51,17.4l-.82,1.27Z" style="fill: #171717;" />
      <path d="m126.02,305.17l-.82-1.27c5.95-3.83,9.51-10.34,9.51-17.4,0-9.59-6.79-18.08-16.14-20.18l.33-1.48c10.04,2.25,17.32,11.36,17.32,21.66,0,7.58-3.81,14.57-10.2,18.68Z" style="fill: #171717;" />
    </g>
    <path d="m101.79,83.34c-2.41,0-4.19-.62-5.21-1.75v1.58h-1v-4.37h1c0,3.09,3.26,3.55,5.21,3.55v1Z" style="fill: #171717;" />
    <polygon points="126.41 83.65 125.82 82.85 132.14 78.22 132.14 83.25 131.14 83.25 131.14 80.19 126.41 83.65" style="fill: #171717;" />
    <g>
      <path d="m102.03,78.37c-6.39-4.11-10.2-11.09-10.2-18.68,0-10.3,7.28-19.41,17.32-21.66l.33,1.48c-9.35,2.1-16.14,10.58-16.14,20.18,0,7.07,3.55,13.57,9.51,17.4l-.82,1.27Z" style="fill: #171717;" />
      <path d="m126.02,78.37l-.82-1.27c5.95-3.83,9.51-10.34,9.51-17.4,0-9.6-6.79-18.08-16.14-20.18l.33-1.48c10.04,2.25,17.32,11.36,17.32,21.66,0,7.58-3.81,14.57-10.2,18.68Z" style="fill: #171717;" />
    </g>
    <rect x="154.34" y="63.41" width="1" height="10.69" style="fill: #171717;" />
    <rect x="154.34" y="139.01" width="1" height="10.69" style="fill: #171717;" />
    <rect x="154.34" y="290.21" width="1" height="10.69" style="fill: #171717;" />
    <rect x="154.34" y="214.61" width="1" height="10.69" style="fill: #171717;" />
    <g>
      <path d="m93.55,5.91s-4.37,5.55-6.92,8.79v-7.53c0-.65-.32-1.23-.8-1.47-.49-.24-1.05-.09-1.41.37l-9.09,11.56c-.49.63-.48,1.63.04,2.24.51.6,1.33.59,1.82-.04,0,0,4.34-5.51,6.87-8.73v7.53c0,.65.32,1.23.81,1.47.49.24,1.05.1,1.41-.37,0,0,4.37-5.56,6.91-8.79v7.69c0,.88.57,1.58,1.29,1.58s1.29-.71,1.29-1.58V7.01c0-.65-.32-1.23-.81-1.47-.49-.24-1.04-.1-1.41.37Z" style="fill: #00adee; stroke: #00adee; stroke-width: .96px;" />
      <path d="m75.32,5.82l-6.02,7.66c-.5.63-.48,1.63.03,2.24.52.61,1.33.59,1.83-.04,0,0,2.03-2.58,3.81-4.84v7.88c0,.87.57,1.58,1.29,1.58s1.29-.71,1.29-1.58V6.92c0-.65-.32-1.23-.81-1.47-.49-.24-1.05-.09-1.41.37Z" style="fill: #ec1c24; stroke: #ec1c24; stroke-width: .96px;" />
      <path d="m104.01,11.47c-.2-.58-.67-.96-1.19-.96h-2.63l1.92-2.44s1-1.47.11-2.27c-.88-.81-1.97.08-1.97.08l-4.03,5.12c-.36.46-.46,1.13-.26,1.72.2.58.67.96,1.19.96h2.63l-3.12,3.96s-1.29,1.41-.34,2.36c.96.96,2.2-.17,2.2-.17l5.22-6.64c.36-.46.46-1.13.26-1.72Z" style="fill: #00a551; stroke: #00a551; stroke-width: .96px;" />
    </g>
  </g>
  <g /></svg>