<svg xmlns="http://www.w3.org/2000/svg" width="50.89mm" height="130.47mm" viewBox="0 0 144.25 369.83">
  <g id="faceplate">
    <rect x="0.13" y="0.13" width="144" height="364.25" style="fill: #ededed;stroke: #9d9d9e;stroke-miterlimit: 10;stroke-width: 0.25px" />
    <g>
      <path d="M60.64,358.14l-1.29,1.43a8.86,8.86,0,0,1-1.51-.55,10.84,10.84,0,0,1-1.49-.85,3.87,3.87,0,0,1-.88-.75,2.81,2.81,0,0,1-1-.68,3.46,3.46,0,0,1-.75-1.19,4.34,4.34,0,0,1-.3-1.68,4.66,4.66,0,0,1,.38-1.87A3.21,3.21,0,0,1,55,350.59a3.28,3.28,0,0,1,1.91-.53,3.53,3.53,0,0,1,1.54.31,3.06,3.06,0,0,1,1.09.85,3.63,3.63,0,0,1,.63,1.22,4.9,4.9,0,0,1,.21,1.43,4.69,4.69,0,0,1-.26,1.61,3.54,3.54,0,0,1-.7,1.17,3.25,3.25,0,0,1-1,.74,7.23,7.23,0,0,0,1,.45,3.33,3.33,0,0,0,1.14.18Zm-2.14-4.27a2.64,2.64,0,0,0-.1-.76,1.69,1.69,0,0,0-.3-.6,1.48,1.48,0,0,0-.5-.4,1.67,1.67,0,0,0-.69-.14,1.4,1.4,0,0,0-1.16.52,2.49,2.49,0,0,0,0,2.77,1.43,1.43,0,0,0,1.16.53,1.54,1.54,0,0,0,.87-.25,1.49,1.49,0,0,0,.54-.67A2.59,2.59,0,0,0,58.5,353.87Z" />
      <path d="M67.89,354.27a4,4,0,0,1-.3,1.63,2.67,2.67,0,0,1-.77,1.06,3.22,3.22,0,0,1-1,.57,3.89,3.89,0,0,1-1.11.17,3.79,3.79,0,0,1-1.51-.32,2.81,2.81,0,0,1-1.23-1.1,3.67,3.67,0,0,1-.49-2v-4.11h1.83v3.53a3.47,3.47,0,0,0,.18,1.21,1.47,1.47,0,0,0,.48.71,1.22,1.22,0,0,0,.74.22,1.15,1.15,0,0,0,.71-.22,1.45,1.45,0,0,0,.49-.7A3.49,3.49,0,0,0,66,353.7v-3.54h1.85Z" />
      <path d="M76,357.6H74.15l-.5-1.51H71l-.51,1.51H68.61l2.7-7.44h2Zm-2.8-2.8-.9-2.72-.9,2.72Z" />
      <path d="M83.47,357.6H81.83l-3.16-4.14v4.14H76.84v-7.44h1.64l3.16,4.12v-4.12h1.83Z" />
      <path d="M90.86,352H88.62v5.63H86.78V352H84.55v-1.81h6.31Z" />
    </g>
    <g>
      <path d="M77.74,6.38l-5.53,7v-6a1.29,1.29,0,0,0-.64-1.17.91.91,0,0,0-1.13.29l-7.28,9.25a1.49,1.49,0,0,0,0,1.79.9.9,0,0,0,1.46,0l5.5-7v6a1.29,1.29,0,0,0,.64,1.17.92.92,0,0,0,1.14-.29s3.49-4.45,5.53-7v6.15a1.05,1.05,0,1,0,2.06,0V7.26a1.26,1.26,0,0,0-.65-1.17A.9.9,0,0,0,77.74,6.38Z" style="stroke: #000;stroke-width: 0.6000000000000001px" />
      <path d="M63.16,6.31l-4.81,6.13a1.47,1.47,0,0,0,0,1.79.9.9,0,0,0,1.46,0l3.05-3.87v6.31a1.05,1.05,0,1,0,2.06,0V7.19A1.31,1.31,0,0,0,64.29,6,.91.91,0,0,0,63.16,6.31Z" style="stroke: #000;stroke-width: 0.6000000000000001px" />
      <path d="M86.11,10.83a1,1,0,0,0-1-.77h-2.1l1.53-2s.8-1.17.1-1.82a1.27,1.27,0,0,0-1.58.06l-3.23,4.1a1.47,1.47,0,0,0-.2,1.38,1.05,1.05,0,0,0,.95.77h2.1l-2.49,3.17s-1,1.13-.27,1.89,1.75-.13,1.75-.13L85.9,12.2A1.47,1.47,0,0,0,86.11,10.83Z" style="stroke: #000;stroke-width: 0.6000000000000001px" />
    </g>
    <path d="M12.38,336.2a5.68,5.68,0,0,0,5.67,5.67H126.2a5.68,5.68,0,0,0,5.67-5.67V290.81H12.38Z" />
    <path d="M131.48,274.22v-5.67a14.21,14.21,0,0,0-14.18-14.17H27a14.21,14.21,0,0,0-14.17,14.17v23.16a5.68,5.68,0,0,0,5.67,5.67H125.81a5.68,5.68,0,0,0,5.67-5.67Z" style="fill: #ededed;stroke: #000;stroke-miterlimit: 10" />
    <g>
      <path d="M114.33,334.39a3.12,3.12,0,0,1-.31,1.4,2.4,2.4,0,0,1-.91,1,2.78,2.78,0,0,1-1.48.37,2.75,2.75,0,0,1-1.5-.39,2.42,2.42,0,0,1-.91-1,3.18,3.18,0,0,1-.29-1.37,3.14,3.14,0,0,1,.29-1.36,2.38,2.38,0,0,1,.91-1,2.75,2.75,0,0,1,1.5-.39,2.87,2.87,0,0,1,1.17.23,2.33,2.33,0,0,1,.85.6,2.38,2.38,0,0,1,.51.89A3.41,3.41,0,0,1,114.33,334.39Zm-1.46,0a1.87,1.87,0,0,0-.08-.55,1.11,1.11,0,0,0-.24-.44,1.14,1.14,0,0,0-.92-.39,1.12,1.12,0,0,0-.91.38,1.47,1.47,0,0,0-.33,1,1.5,1.5,0,0,0,.33,1,1.15,1.15,0,0,0,.91.38,1.31,1.31,0,0,0,.67-.17,1.08,1.08,0,0,0,.42-.5A1.66,1.66,0,0,0,112.87,334.39Z" style="fill: #fff" />
      <path d="M118.43,337.1h-1.24v-.56a2.18,2.18,0,0,1-.55.48,1.47,1.47,0,0,1-.69.15,1,1,0,0,1-1-.52,3,3,0,0,1-.23-1.19v-2.33h1.24v2.15a1.6,1.6,0,0,0,.09.56.39.39,0,0,0,.41.25.56.56,0,0,0,.44-.18,3.12,3.12,0,0,0,.32-.45v-2.33h1.24Z" style="fill: #fff" />
      <path d="M121.7,336.87a3.23,3.23,0,0,1-.53.21,2.54,2.54,0,0,1-.65.09c-.89,0-1.34-.49-1.34-1.48V334.1h-.56v-.24l1.66-1.92h.14v1.19h1.19v1h-1.19v1.28a1.73,1.73,0,0,0,0,.36.34.34,0,0,0,.13.22.49.49,0,0,0,.34.1,1.76,1.76,0,0,0,.78-.28Z" style="fill: #fff" />
    </g>
    <g>
      <path d="M71,333.39a2,2,0,0,1-.09.59,1.61,1.61,0,0,1-.3.54,1.45,1.45,0,0,1-.55.4,2,2,0,0,1-.81.15h-.94v2H66.83v-5.41h2.38a1.86,1.86,0,0,1,.81.16,1.45,1.45,0,0,1,.55.4,1.61,1.61,0,0,1,.3.54A2.08,2.08,0,0,1,71,333.39Zm-1.47,0a.6.6,0,0,0-.2-.53,1.35,1.35,0,0,0-.72-.14h-.3V334h.31a2,2,0,0,0,.55,0,.41.41,0,0,0,.28-.19A.81.81,0,0,0,69.49,333.4Z" style="fill: #fff" />
      <path d="M74.35,333.34l-.46,1.41a.81.81,0,0,0-.57-.3.57.57,0,0,0-.45.2,2,2,0,0,0-.37.74v1.71H71.26v-4H72.5v1a2.21,2.21,0,0,1,.41-.7.91.91,0,0,1,.7-.33.8.8,0,0,1,.36.07A2.55,2.55,0,0,1,74.35,333.34Z" style="fill: #fff" />
      <path d="M78.05,335.45H75.59a.93.93,0,0,0,.35.6,1,1,0,0,0,.64.23,2.93,2.93,0,0,0,1.38-.4v.87a2.9,2.9,0,0,1-.66.29,3,3,0,0,1-1,.13,2.11,2.11,0,0,1-1.1-.27,1.67,1.67,0,0,1-.68-.74,2.43,2.43,0,0,1-.23-1.06,2.35,2.35,0,0,1,.23-1.05,1.65,1.65,0,0,1,.68-.73,2.11,2.11,0,0,1,1.1-.26,1.72,1.72,0,0,1,.82.21,1.53,1.53,0,0,1,.65.68,2.57,2.57,0,0,1,.26,1.22Zm-1.16-.69a1,1,0,0,0-.17-.61.56.56,0,0,0-.48-.23.64.64,0,0,0-.5.23.93.93,0,0,0-.19.61Z" style="fill: #fff" />
    </g>
    <g>
      <path d="M26.75,333H25v4.09H23.57V333H21.83v-1.32h4.92Z" style="fill: #fff" />
      <path d="M30.84,337.1H29.61v-2.2a1.27,1.27,0,0,0-.11-.52.39.39,0,0,0-.4-.24.58.58,0,0,0-.42.18,2.93,2.93,0,0,0-.34.45v2.33H27.11v-5.41h1.23v2a1.81,1.81,0,0,1,.61-.51,1.53,1.53,0,0,1,.64-.13c.83,0,1.25.53,1.25,1.6Z" style="fill: #fff" />
      <path d="M34.38,333.34l-.46,1.41a.77.77,0,0,0-.57-.3.59.59,0,0,0-.45.2,1.86,1.86,0,0,0-.36.74v1.71H31.3v-4h1.24v1a1.89,1.89,0,0,1,.41-.7.89.89,0,0,1,.69-.33.87.87,0,0,1,.37.07A2.52,2.52,0,0,1,34.38,333.34Z" style="fill: #fff" />
      <path d="M38.18,337.1H36.94v-.56a2,2,0,0,1-.55.48,1.47,1.47,0,0,1-.69.15,1,1,0,0,1-1-.52,2.84,2.84,0,0,1-.24-1.19v-2.33h1.24v2.15a1.4,1.4,0,0,0,.1.56.39.39,0,0,0,.41.25.55.55,0,0,0,.43-.18,3.12,3.12,0,0,0,.32-.45v-2.33h1.24Z" style="fill: #fff" />
    </g>
    <g>
      <path d="M22.92,294.05H21.49v-5.42h1.43Z" />
      <path d="M27.38,294.05H26.14V291.9a1.62,1.62,0,0,0-.09-.57.4.4,0,0,0-.42-.24.53.53,0,0,0-.26.06.68.68,0,0,0-.21.17l-.15.19-.13.2v2.34H23.64v-4h1.24v.57a1.77,1.77,0,0,1,.59-.5,1.51,1.51,0,0,1,.65-.14q1.26,0,1.26,1.71Z" />
      <path d="M31.68,292a2.8,2.8,0,0,1-.1.77,1.94,1.94,0,0,1-.3.67,1.41,1.41,0,0,1-.53.47,1.47,1.47,0,0,1-.74.18,1.64,1.64,0,0,1-.55-.08,2.56,2.56,0,0,1-.39-.22v2H27.83v-5.79h1.24v.36a2.1,2.1,0,0,1,.41-.31,1.32,1.32,0,0,1,.61-.12,1.39,1.39,0,0,1,.75.22,1.54,1.54,0,0,1,.61.67A2.54,2.54,0,0,1,31.68,292Zm-1.3,0a1.37,1.37,0,0,0-.1-.58.74.74,0,0,0-.26-.33.62.62,0,0,0-.32-.09.64.64,0,0,0-.36.08,1.05,1.05,0,0,0-.27.2v1.52l.14.08a1.19,1.19,0,0,0,.15.09l.16.06.18,0a.56.56,0,0,0,.48-.28A1.26,1.26,0,0,0,30.38,292.06Z" />
      <path d="M35.73,294.05H34.49v-.57a2,2,0,0,1-.55.48,1.35,1.35,0,0,1-.69.16,1,1,0,0,1-1-.53,2.8,2.8,0,0,1-.24-1.18v-2.34h1.24v2.15a1.42,1.42,0,0,0,.1.57.39.39,0,0,0,.41.24.58.58,0,0,0,.43-.17,3.8,3.8,0,0,0,.32-.45v-2.34h1.24Z" />
      <path d="M39,293.82a2.37,2.37,0,0,1-.53.2,2.14,2.14,0,0,1-.65.1c-.89,0-1.33-.5-1.33-1.49v-1.58h-.56v-.25l1.66-1.92h.14v1.19h1.18v1H37.73v1.27a1.84,1.84,0,0,0,0,.36.37.37,0,0,0,.14.23.51.51,0,0,0,.34.09,1.65,1.65,0,0,0,.77-.28Z" />
    </g>
    <g>
      <path d="M67.59,292.47a1.65,1.65,0,0,1-.23.88,1.53,1.53,0,0,1-.64.57,2.16,2.16,0,0,1-.94.2l-.36,0a4.93,4.93,0,0,1-.57-.12,4,4,0,0,1-.74-.29v-1.33a4.4,4.4,0,0,0,.71.42,1.71,1.71,0,0,0,.74.17.61.61,0,0,0,.48-.14.45.45,0,0,0,.11-.26.46.46,0,0,0-.19-.37,2.5,2.5,0,0,0-.54-.31,3.4,3.4,0,0,1-.68-.41,1.73,1.73,0,0,1-.49-.55,1.61,1.61,0,0,1-.18-.78,1.74,1.74,0,0,1,.18-.8,1.43,1.43,0,0,1,.58-.56,2,2,0,0,1,1-.21,2.89,2.89,0,0,1,.74.09,3.63,3.63,0,0,1,.56.19l.3.18v1.27a3.66,3.66,0,0,0-.65-.43,1.6,1.6,0,0,0-.77-.19.54.54,0,0,0-.39.12.38.38,0,0,0-.12.29.38.38,0,0,0,.12.28,2.27,2.27,0,0,0,.43.28,8.07,8.07,0,0,1,.88.53,1.9,1.9,0,0,1,.52.54A1.47,1.47,0,0,1,67.59,292.47Z" />
      <path d="M71.07,293.86l-.32.13a2.23,2.23,0,0,1-.39.09,2.29,2.29,0,0,1-.47,0,2.07,2.07,0,0,1-1-.22,1.66,1.66,0,0,1-.61-.56,2.4,2.4,0,0,1-.3-.68,2.92,2.92,0,0,1-.08-.61,3.1,3.1,0,0,1,.08-.62,2.34,2.34,0,0,1,.3-.67,1.76,1.76,0,0,1,.6-.54,2,2,0,0,1,1-.22,2.68,2.68,0,0,1,.63.06,4.91,4.91,0,0,1,.5.17v1.11a2.89,2.89,0,0,0-1-.22.84.84,0,0,0-.58.22.92.92,0,0,0-.26.71,1,1,0,0,0,.13.53.76.76,0,0,0,.32.32.81.81,0,0,0,.39.1,1.77,1.77,0,0,0,.43-.06c.15,0,.35-.1.57-.18Z" />
      <path d="M75,293.85a4.55,4.55,0,0,1-.5.19,1.73,1.73,0,0,1-.55.08.57.57,0,0,1-.43-.13.77.77,0,0,1-.17-.29,1.9,1.9,0,0,1-.44.3,1.49,1.49,0,0,1-.64.12,1.14,1.14,0,0,1-.62-.15.8.8,0,0,1-.33-.38,1.27,1.27,0,0,1-.09-.47,1,1,0,0,1,.16-.61,1.19,1.19,0,0,1,.44-.39,4.86,4.86,0,0,1,.73-.32l.39-.14.19-.08a.46.46,0,0,0,.14-.07.83.83,0,0,0-.1-.45c-.07-.11-.22-.16-.45-.16a1.41,1.41,0,0,0-.75.2,2.81,2.81,0,0,0-.64.52v-1.08a2.55,2.55,0,0,1,.5-.3,2.81,2.81,0,0,1,.56-.18A3,3,0,0,1,73,290a1.73,1.73,0,0,1,1.15.33,1.18,1.18,0,0,1,.38.92v1.54a1,1,0,0,0,0,.33.12.12,0,0,0,.13.1.61.61,0,0,0,.31-.11Zm-1.72-.76v-.94a2.89,2.89,0,0,0-.64.36.53.53,0,0,0-.2.44.4.4,0,0,0,.1.3.31.31,0,0,0,.23.11.52.52,0,0,0,.26-.08C73.13,293.23,73.21,293.16,73.3,293.09Z" />
      <path d="M76.43,294.05H75.19v-5.42h1.24Z" />
      <path d="M80.59,292.4H78.13a1,1,0,0,0,.35.59,1,1,0,0,0,.64.23,2.93,2.93,0,0,0,1.38-.4v.88a4.47,4.47,0,0,1-.65.29,3.39,3.39,0,0,1-1,.13,2,2,0,0,1-1.1-.28,1.73,1.73,0,0,1-.68-.74,2.64,2.64,0,0,1,0-2.11,1.71,1.71,0,0,1,.68-.73,2.21,2.21,0,0,1,1.1-.26,1.7,1.7,0,0,1,.82.21,1.61,1.61,0,0,1,.66.68,2.61,2.61,0,0,1,.25,1.23Zm-1.16-.7a1,1,0,0,0-.16-.61.59.59,0,0,0-.48-.23.59.59,0,0,0-.5.24.89.89,0,0,0-.2.6Z" />
    </g>
    <g>
      <path d="M112.08,294.05h-1.54l-.37-1a3.89,3.89,0,0,0-.38-.77.75.75,0,0,0-.32-.32,1.1,1.1,0,0,0-.4-.07h-.16v2.12h-1.44v-5.42h2.44a1.62,1.62,0,0,1,1,.28,1.51,1.51,0,0,1,.55.66,1.93,1.93,0,0,1,.17.74,1.62,1.62,0,0,1-.14.7,1.28,1.28,0,0,1-.3.41,2.93,2.93,0,0,1-.34.24,1.67,1.67,0,0,1,.38.37,4.8,4.8,0,0,1,.4.84Zm-2-3.71a.57.57,0,0,0-.22-.52,1.23,1.23,0,0,0-.7-.15h-.3V291h.31a1.47,1.47,0,0,0,.72-.13A.58.58,0,0,0,110.13,290.34Z" />
      <path d="M116.12,292.06a2.38,2.38,0,0,1-.23,1.05,1.73,1.73,0,0,1-.68.74,2.38,2.38,0,0,1-2.2,0,1.73,1.73,0,0,1-.68-.74,2.38,2.38,0,0,1-.22-1.05,2.62,2.62,0,0,1,.12-.82,1.77,1.77,0,0,1,.38-.65,1.67,1.67,0,0,1,.63-.44,2.6,2.6,0,0,1,1.74,0,1.62,1.62,0,0,1,.63.44,1.88,1.88,0,0,1,.38.64A2.72,2.72,0,0,1,116.12,292.06Zm-1.31,0a1.28,1.28,0,0,0-.18-.74.64.64,0,0,0-1,0,1.28,1.28,0,0,0-.18.74,1.33,1.33,0,0,0,.18.74.64.64,0,0,0,1,0A1.33,1.33,0,0,0,114.81,292.06Z" />
      <path d="M120.34,292.06a2.25,2.25,0,0,1-.23,1.05,1.71,1.71,0,0,1-.67.74,2.15,2.15,0,0,1-1.11.27,2.11,2.11,0,0,1-1.1-.27,1.65,1.65,0,0,1-.67-.74,2.25,2.25,0,0,1-.23-1.05,2.35,2.35,0,0,1,.13-.82,1.77,1.77,0,0,1,.38-.65,1.67,1.67,0,0,1,.63-.44,2.31,2.31,0,0,1,.86-.15,2.39,2.39,0,0,1,.88.15,1.79,1.79,0,0,1,.63.44,1.85,1.85,0,0,1,.37.64A2.45,2.45,0,0,1,120.34,292.06Zm-1.3,0a1.28,1.28,0,0,0-.18-.74.65.65,0,0,0-1,0,1.28,1.28,0,0,0-.18.74,1.25,1.25,0,0,0,.19.74.58.58,0,0,0,.51.27.6.6,0,0,0,.53-.27A1.33,1.33,0,0,0,119,292.06Z" />
      <path d="M123.46,293.82a2.37,2.37,0,0,1-.53.2,2.14,2.14,0,0,1-.65.1c-.89,0-1.33-.5-1.33-1.49v-1.58h-.56v-.25l1.66-1.92h.14v1.19h1.18v1h-1.18v1.27a1.84,1.84,0,0,0,0,.36.37.37,0,0,0,.14.23.51.51,0,0,0,.34.09,1.65,1.65,0,0,0,.77-.28Z" />
    </g>
    <g>
      <path d="M56.52,223.91H54.33V229H52.54v-5.12H50.36v-1.64h6.16Z" />
      <path d="M60.81,224.33l-.58,1.76a1,1,0,0,0-.71-.38A.75.75,0,0,0,59,226a2.46,2.46,0,0,0-.46.94V229H57v-5H58.5v1.2a2.67,2.67,0,0,1,.51-.86,1.14,1.14,0,0,1,.87-.42,1.08,1.08,0,0,1,.46.08A4.37,4.37,0,0,1,60.81,224.33Z" />
      <path d="M65.48,228.78a4.23,4.23,0,0,1-.62.25,2.31,2.31,0,0,1-.69.09.76.76,0,0,1-.54-.15.89.89,0,0,1-.21-.38,2.13,2.13,0,0,1-.56.38,1.81,1.81,0,0,1-.8.15,1.4,1.4,0,0,1-.77-.19,1,1,0,0,1-.41-.47,1.52,1.52,0,0,1-.12-.59,1.31,1.31,0,0,1,.21-.76,1.6,1.6,0,0,1,.54-.49,5.64,5.64,0,0,1,.92-.39l.48-.18.25-.1.17-.09a1,1,0,0,0-.13-.56c-.08-.14-.27-.21-.56-.21a1.85,1.85,0,0,0-.94.26,3.22,3.22,0,0,0-.79.65v-1.35a3,3,0,0,1,.62-.38,3.35,3.35,0,0,1,.7-.22A3.71,3.71,0,0,1,63,224a2.12,2.12,0,0,1,1.43.41,1.44,1.44,0,0,1,.48,1.15v1.92a1.44,1.44,0,0,0,0,.41.17.17,0,0,0,.17.13.77.77,0,0,0,.39-.14Zm-2.15-.95v-1.17a4.11,4.11,0,0,0-.8.45.68.68,0,0,0-.26.55.54.54,0,0,0,.13.38.39.39,0,0,0,.3.13.54.54,0,0,0,.31-.1A1.67,1.67,0,0,0,63.33,227.83Z" />
      <path d="M70.29,229H68.74v-2.68a1.92,1.92,0,0,0-.12-.71.49.49,0,0,0-.51-.31.74.74,0,0,0-.34.08,1.27,1.27,0,0,0-.25.21c-.08.08-.14.17-.2.24l-.15.25V229H65.62v-5h1.55v.72a2.18,2.18,0,0,1,.73-.63,1.83,1.83,0,0,1,.82-.17c1,0,1.57.71,1.57,2.13Z" />
      <path d="M74.28,227.58a1.44,1.44,0,0,1-.44,1.11,1.77,1.77,0,0,1-1.3.43,3.25,3.25,0,0,1-.87-.1,8,8,0,0,1-.82-.28v-1.25a6.32,6.32,0,0,0,.68.38,1.45,1.45,0,0,0,.63.13c.38,0,.58-.12.58-.36a.33.33,0,0,0-.09-.22,1.14,1.14,0,0,0-.29-.21c-.14-.08-.32-.18-.55-.29a2.16,2.16,0,0,1-.73-.57,1.31,1.31,0,0,1-.31-.89,1.44,1.44,0,0,1,.2-.71,1.58,1.58,0,0,1,.61-.56,2.07,2.07,0,0,1,1-.21,2.3,2.3,0,0,1,.35,0,2.86,2.86,0,0,1,.54.11,2.43,2.43,0,0,1,.62.27v1.21l-.23-.15a2.34,2.34,0,0,0-.25-.15,2.08,2.08,0,0,0-.36-.14,1.54,1.54,0,0,0-.43-.06.47.47,0,0,0-.37.12.4.4,0,0,0-.09.23.3.3,0,0,0,.1.23,1.54,1.54,0,0,0,.46.26,4.27,4.27,0,0,1,.82.46,1.39,1.39,0,0,1,.44.52A1.57,1.57,0,0,1,74.28,227.58Z" />
      <path d="M79.57,226.51a3.85,3.85,0,0,1-.12,1,2.73,2.73,0,0,1-.38.83,1.79,1.79,0,0,1-.66.59,1.85,1.85,0,0,1-.93.22,1.81,1.81,0,0,1-.68-.1,3,3,0,0,1-.49-.27v2.54H74.76v-7.23h1.55v.45a2.33,2.33,0,0,1,.51-.38,1.67,1.67,0,0,1,.77-.15,1.8,1.8,0,0,1,.93.26,2,2,0,0,1,.76.84A3.06,3.06,0,0,1,79.57,226.51Zm-1.62,0a1.87,1.87,0,0,0-.13-.73.88.88,0,0,0-.32-.4.71.71,0,0,0-.41-.13,1,1,0,0,0-.45.1,1.35,1.35,0,0,0-.33.26v1.89l.17.11.19.11.2.07a.78.78,0,0,0,.22,0,.72.72,0,0,0,.61-.35A1.66,1.66,0,0,0,78,226.55Z" />
      <path d="M84.86,226.54a3,3,0,0,1-.29,1.33,2.13,2.13,0,0,1-.85.91,2.56,2.56,0,0,1-1.37.34,2.62,2.62,0,0,1-1.38-.34,2.13,2.13,0,0,1-.85-.91,3.13,3.13,0,0,1-.28-1.33,3,3,0,0,1,.16-1,2.23,2.23,0,0,1,.48-.81,2,2,0,0,1,.78-.54,3.22,3.22,0,0,1,2.18,0,2.14,2.14,0,0,1,.79.54,2.5,2.5,0,0,1,.47.81A3.3,3.3,0,0,1,84.86,226.54Zm-1.63,0a1.62,1.62,0,0,0-.23-.92.75.75,0,0,0-.65-.34.74.74,0,0,0-.65.34,1.62,1.62,0,0,0-.23.92,1.68,1.68,0,0,0,.23.93.79.79,0,0,0,1.3,0A1.64,1.64,0,0,0,83.23,226.54Z" />
      <path d="M88.73,227.58a1.48,1.48,0,0,1-.44,1.11,1.8,1.8,0,0,1-1.31.43,3.22,3.22,0,0,1-.86-.1,7.38,7.38,0,0,1-.83-.28v-1.25a7.44,7.44,0,0,0,.68.38,1.45,1.45,0,0,0,.63.13c.39,0,.58-.12.58-.36a.37.37,0,0,0-.08-.22,1.69,1.69,0,0,0-.29-.21l-.56-.29a2.16,2.16,0,0,1-.73-.57,1.42,1.42,0,0,1-.1-1.6,1.48,1.48,0,0,1,.6-.56,2.12,2.12,0,0,1,1-.21,2.44,2.44,0,0,1,.35,0,2.79,2.79,0,0,1,.53.11,2.29,2.29,0,0,1,.62.27v1.21l-.23-.15a1.63,1.63,0,0,0-.25-.15,2.08,2.08,0,0,0-.36-.14,1.54,1.54,0,0,0-.43-.06.44.44,0,0,0-.36.12.36.36,0,0,0-.1.23.3.3,0,0,0,.1.23,1.54,1.54,0,0,0,.46.26,4.39,4.39,0,0,1,.83.46,1.61,1.61,0,0,1,.44.52A1.74,1.74,0,0,1,88.73,227.58Z" />
      <path d="M93.7,227H90.62a1.28,1.28,0,0,0,.44.75,1.24,1.24,0,0,0,.8.28,3.78,3.78,0,0,0,1.73-.49v1.08a4.19,4.19,0,0,1-.82.37,4,4,0,0,1-1.24.16,2.6,2.6,0,0,1-1.37-.34,2.18,2.18,0,0,1-.85-.93,3.25,3.25,0,0,1,0-2.64,2.13,2.13,0,0,1,.85-.91,2.7,2.7,0,0,1,1.37-.32,2.1,2.1,0,0,1,1,.26,1.93,1.93,0,0,1,.82.85,3.28,3.28,0,0,1,.32,1.53Zm-1.45-.87a1.25,1.25,0,0,0-.21-.76.7.7,0,0,0-.6-.29.75.75,0,0,0-.62.29,1.17,1.17,0,0,0-.24.76Z" />
    </g>
    <path d="M81.12,184.11l1.13-2a21.82,21.82,0,0,0-9.12-2.44V182A19.76,19.76,0,0,1,81.12,184.11Z" />
    <path d="M88.7,191l2-1.12A22,22,0,0,0,84,183.16l-1.13,2A19.77,19.77,0,0,1,88.7,191Z" />
    <path d="M61.4,185.11l-1.13-2a22,22,0,0,0-6.67,6.68L55.55,191A19.77,19.77,0,0,1,61.4,185.11Z" />
    <path d="M91.84,200.69H94.1a21.88,21.88,0,0,0-2.44-9.12l-2,1.12A19.6,19.6,0,0,1,91.84,200.69Z" />
    <path d="M71.13,182v-2.25A21.82,21.82,0,0,0,62,182.16l1.13,2A19.77,19.77,0,0,1,71.13,182Z" />
    <path d="M55.54,212.42l-1.94,1.12a22,22,0,0,0,6.67,6.68l1.13-1.95A19.93,19.93,0,0,1,55.54,212.42Z" />
    <path d="M82.85,218.27,84,220.22a22,22,0,0,0,6.67-6.68l-2-1.12A19.77,19.77,0,0,1,82.85,218.27Z" />
    <path d="M91.84,202.69a19.55,19.55,0,0,1-2.13,8l2,1.13a21.88,21.88,0,0,0,2.44-9.12Z" />
    <path d="M52.41,202.69H50.15a21.88,21.88,0,0,0,2.44,9.12l1.95-1.13A19.55,19.55,0,0,1,52.41,202.69Z" />
    <path d="M54.54,192.69l-1.95-1.12a21.88,21.88,0,0,0-2.44,9.12h2.26A19.6,19.6,0,0,1,54.54,192.69Z" />
    <g>
      <path d="M31.93,177.07a2,2,0,0,1-.28,1.1,1.84,1.84,0,0,1-.8.71,2.58,2.58,0,0,1-1.17.25l-.46,0a3.35,3.35,0,0,1-.71-.15,4.85,4.85,0,0,1-.92-.36v-1.66a6.42,6.42,0,0,0,.88.53,2.12,2.12,0,0,0,.94.21.77.77,0,0,0,.59-.17.58.58,0,0,0,.14-.33.59.59,0,0,0-.23-.46,3.86,3.86,0,0,0-.68-.39,4.44,4.44,0,0,1-.86-.51,2.11,2.11,0,0,1-.6-.69,1.92,1.92,0,0,1-.24-1,2.07,2.07,0,0,1,.24-1,1.74,1.74,0,0,1,.72-.7,2.43,2.43,0,0,1,1.19-.27,3.8,3.8,0,0,1,.92.11,4.62,4.62,0,0,1,.7.25,3.32,3.32,0,0,1,.38.21v1.59a4.61,4.61,0,0,0-.82-.53,2,2,0,0,0-1-.24.66.66,0,0,0-.48.15.49.49,0,0,0-.15.36.49.49,0,0,0,.15.35,2.66,2.66,0,0,0,.53.35,11.7,11.7,0,0,1,1.1.66,2.32,2.32,0,0,1,.65.68A1.76,1.76,0,0,1,31.93,177.07Z" />
      <path d="M36.3,178.81l-.41.16c-.15,0-.31.08-.49.11a3.48,3.48,0,0,1-.58,0,2.42,2.42,0,0,1-1.22-.28,2,2,0,0,1-.76-.69,2.75,2.75,0,0,1-.37-.85,3.39,3.39,0,0,1-.11-.77,3.31,3.31,0,0,1,.11-.76,2.6,2.6,0,0,1,.37-.84,2,2,0,0,1,.75-.68,2.57,2.57,0,0,1,1.23-.28,3.43,3.43,0,0,1,.79.08,4.12,4.12,0,0,1,.62.21v1.38a3.84,3.84,0,0,0-1.19-.27,1.08,1.08,0,0,0-.73.28,1.14,1.14,0,0,0-.32.88,1.26,1.26,0,0,0,.16.67,1,1,0,0,0,.41.4,1.07,1.07,0,0,0,.48.12,2.09,2.09,0,0,0,.53-.07l.73-.23Z" />
      <path d="M41.23,178.79a5.75,5.75,0,0,1-.62.25,2.43,2.43,0,0,1-.7.09.75.75,0,0,1-.53-.15.89.89,0,0,1-.21-.38,2.13,2.13,0,0,1-.56.38,1.81,1.81,0,0,1-.8.15,1.37,1.37,0,0,1-.77-.19,1,1,0,0,1-.41-.47,1.52,1.52,0,0,1-.12-.59,1.36,1.36,0,0,1,.2-.76,1.63,1.63,0,0,1,.55-.49,6.92,6.92,0,0,1,.91-.4l.49-.17.25-.1.17-.09a1,1,0,0,0-.13-.56c-.08-.14-.27-.21-.56-.21a1.82,1.82,0,0,0-.94.26,3.22,3.22,0,0,0-.79.65v-1.35a3,3,0,0,1,.62-.38,3.35,3.35,0,0,1,.7-.22,3.65,3.65,0,0,1,.74-.08,2.12,2.12,0,0,1,1.43.42,1.44,1.44,0,0,1,.48,1.15v1.92a1.44,1.44,0,0,0,0,.41.17.17,0,0,0,.17.13.88.88,0,0,0,.39-.14Zm-2.15-.95v-1.18a4.27,4.27,0,0,0-.8.46.68.68,0,0,0-.26.55.54.54,0,0,0,.13.38.37.37,0,0,0,.29.13.55.55,0,0,0,.32-.1A2,2,0,0,0,39.08,177.84Z" />
      <path d="M43,179H41.44v-6.76H43Z" />
      <path d="M48.19,177H45.11a1.22,1.22,0,0,0,.45.74,1.18,1.18,0,0,0,.8.29,3.65,3.65,0,0,0,1.72-.5v1.09a3.94,3.94,0,0,1-.82.37,3.86,3.86,0,0,1-1.23.16,2.62,2.62,0,0,1-1.38-.34,2.16,2.16,0,0,1-.84-.93,3,3,0,0,1-.29-1.33,2.93,2.93,0,0,1,.29-1.31,2.11,2.11,0,0,1,.84-.91A2.71,2.71,0,0,1,46,174a2.14,2.14,0,0,1,1,.27,1.91,1.91,0,0,1,.81.85,3.16,3.16,0,0,1,.32,1.53Zm-1.45-.87a1.25,1.25,0,0,0-.21-.76.7.7,0,0,0-.6-.29.78.78,0,0,0-.62.29,1.17,1.17,0,0,0-.24.76Z" />
    </g>
    <path d="M46.85,134.12l1.13-2a22,22,0,0,0-9.13-2.45V132A19.61,19.61,0,0,1,46.85,134.12Z" />
    <path d="M54.43,141l2-1.12a22,22,0,0,0-6.67-6.68l-1.13,2A19.77,19.77,0,0,1,54.43,141Z" />
    <path d="M27.13,135.12l-1.13-2a22.17,22.17,0,0,0-6.68,6.68L21.27,141A19.93,19.93,0,0,1,27.13,135.12Z" />
    <path d="M57.57,150.7h2.26a22,22,0,0,0-2.44-9.12l-2,1.12A19.45,19.45,0,0,1,57.57,150.7Z" />
    <path d="M36.85,132v-2.26a22,22,0,0,0-9.12,2.45l1.13,2A19.6,19.6,0,0,1,36.85,132Z" />
    <path d="M21.27,162.43l-1.95,1.12A22.17,22.17,0,0,0,26,170.23l1.13-1.95A20,20,0,0,1,21.27,162.43Z" />
    <path d="M48.58,168.28l1.13,1.95a22,22,0,0,0,6.67-6.68l-2-1.12A19.89,19.89,0,0,1,48.58,168.28Z" />
    <path d="M57.57,152.7a19.41,19.41,0,0,1-2.14,8l2,1.13a22,22,0,0,0,2.44-9.12Z" />
    <path d="M18.14,152.7H15.88a21.88,21.88,0,0,0,2.44,9.12l1.95-1.13A19.55,19.55,0,0,1,18.14,152.7Z" />
    <path d="M20.27,142.7l-1.95-1.12a21.88,21.88,0,0,0-2.44,9.12h2.26A19.6,19.6,0,0,1,20.27,142.7Z" />
    <g>
      <path d="M102.34,179h-1.93l-.47-1.2a4.74,4.74,0,0,0-.47-1,.91.91,0,0,0-.4-.39,1.21,1.21,0,0,0-.5-.09h-.2V179h-1.8v-6.76h3.05a2,2,0,0,1,1.22.34,1.94,1.94,0,0,1,.68.83,2.31,2.31,0,0,1,.21.92,1.87,1.87,0,0,1-.18.87,1.48,1.48,0,0,1-.37.52,3,3,0,0,1-.43.3,1.91,1.91,0,0,1,.48.46,5.81,5.81,0,0,1,.5,1Zm-2.44-4.63a.71.71,0,0,0-.28-.65,1.62,1.62,0,0,0-.88-.19h-.37v1.63h.38a1.72,1.72,0,0,0,.9-.16A.69.69,0,0,0,99.9,174.41Z" />
      <path d="M107.38,176.55a3,3,0,0,1-.29,1.33,2.13,2.13,0,0,1-.85.91,2.56,2.56,0,0,1-1.37.34,2.62,2.62,0,0,1-1.38-.34,2.13,2.13,0,0,1-.85-.91,3.13,3.13,0,0,1-.28-1.33,3,3,0,0,1,.16-1,2.15,2.15,0,0,1,.48-.81,2.09,2.09,0,0,1,.78-.55,3.07,3.07,0,0,1,1.09-.19,2.86,2.86,0,0,1,1.09.2,2.14,2.14,0,0,1,.79.54,2.5,2.5,0,0,1,.47.81A3.3,3.3,0,0,1,107.38,176.55Zm-1.63,0a1.62,1.62,0,0,0-.23-.92.73.73,0,0,0-.65-.34.72.72,0,0,0-.65.34,1.62,1.62,0,0,0-.23.92,1.68,1.68,0,0,0,.23.93.79.79,0,0,0,1.3,0A1.64,1.64,0,0,0,105.75,176.55Z" />
      <path d="M112.66,176.55a3,3,0,0,1-.29,1.33,2.11,2.11,0,0,1-.84.91,3,3,0,0,1-2.76,0,2.11,2.11,0,0,1-.84-.91,3,3,0,0,1-.29-1.33,3.3,3.3,0,0,1,.16-1,2.15,2.15,0,0,1,.48-.81,2,2,0,0,1,.79-.55,3,3,0,0,1,1.08-.19,2.83,2.83,0,0,1,1.09.2,2.14,2.14,0,0,1,.79.54,2.33,2.33,0,0,1,.47.81A3,3,0,0,1,112.66,176.55Zm-1.63,0a1.62,1.62,0,0,0-.23-.92.79.79,0,0,0-1.3,0,1.62,1.62,0,0,0-.23.92,1.68,1.68,0,0,0,.23.93.73.73,0,0,0,.65.34.72.72,0,0,0,.65-.34A1.64,1.64,0,0,0,111,176.55Z" />
      <path d="M116.56,178.75a3.12,3.12,0,0,1-.66.26,3.06,3.06,0,0,1-.81.12c-1.12,0-1.68-.62-1.68-1.85v-2h-.7V175l2.08-2.4H115v1.49h1.47v1.22H115v1.59a2.64,2.64,0,0,0,0,.45.44.44,0,0,0,.17.29.62.62,0,0,0,.42.11,2,2,0,0,0,1-.35Z" />
    </g>
    <path d="M115.39,134.12l1.13-2a21.89,21.89,0,0,0-9.12-2.45V132A19.6,19.6,0,0,1,115.39,134.12Z" />
    <path d="M123,141l2-1.12a22.17,22.17,0,0,0-6.68-6.68l-1.13,2A19.93,19.93,0,0,1,123,141Z" />
    <path d="M95.67,135.12l-1.13-2a22,22,0,0,0-6.67,6.68L89.82,141A19.77,19.77,0,0,1,95.67,135.12Z" />
    <path d="M126.11,150.7h2.26a21.88,21.88,0,0,0-2.44-9.12l-2,1.12A19.6,19.6,0,0,1,126.11,150.7Z" />
    <path d="M105.4,132v-2.26a22,22,0,0,0-9.13,2.45l1.13,2A19.61,19.61,0,0,1,105.4,132Z" />
    <path d="M89.82,162.43l-1.95,1.12a22,22,0,0,0,6.67,6.68l1.13-1.95A19.89,19.89,0,0,1,89.82,162.43Z" />
    <path d="M117.12,168.28l1.13,1.95a22.17,22.17,0,0,0,6.68-6.68l-2-1.12A20,20,0,0,1,117.12,168.28Z" />
    <path d="M126.11,152.7a19.55,19.55,0,0,1-2.13,8l2,1.13a21.88,21.88,0,0,0,2.44-9.12Z" />
    <path d="M86.68,152.7H84.42a22,22,0,0,0,2.44,9.12l2-1.13A19.41,19.41,0,0,1,86.68,152.7Z" />
    <path d="M88.82,142.7l-2-1.12a22,22,0,0,0-2.44,9.12h2.26A19.45,19.45,0,0,1,88.82,142.7Z" />
  </g>
  <g /></svg>