<svg xmlns="http://www.w3.org/2000/svg" width="61.05mm" height="131.71mm" viewBox="0 0 173.05 373.34">
  <g id="faceplate">
    <rect x=".12" y=".12" width="172.8" height="364.25" style="fill: #ededed; stroke: #9d9d9e; stroke-miterlimit: 10; stroke-width: .25px;" />
    <g>
      <path d="m21.38,100.22c-6.34,0-11.49-5.52-11.49-12.31s5.15-12.31,11.49-12.31h29.71c6.34,0,11.49,5.52,11.49,12.31s-5.15,12.31-11.49,12.31h-29.71Z" style="fill: #00adee;" />
      <path d="m51.09,76.1c6.07,0,10.99,5.29,10.99,11.81s-4.92,11.81-10.99,11.81h-29.71c-6.07,0-10.99-5.28-10.99-11.81s4.92-11.81,10.99-11.81h29.71m0-1h-29.71c-6.61,0-11.99,5.74-11.99,12.81s5.38,12.81,11.99,12.81h29.71c6.61,0,11.99-5.74,11.99-12.81s-5.38-12.81-11.99-12.81h0Z" style="fill: #171717;" />
    </g>
    <g>
      <path d="m27.28,86.43l-1.26,2.35,1.31,2.49h-1.3l-.72-1.58-.72,1.58h-1.3l1.31-2.49-1.26-2.35h1.3l.67,1.46.67-1.46h1.3Z" style="fill: #171717;" />
      <path d="m29.36,86.77h-1.27v-.85h.12c.43,0,.77-.08,1.02-.24.25-.16.41-.42.47-.78h.95v6.37h-1.3v-4.5Z" style="fill: #171717;" />
    </g>
    <g>
      <path d="m21.38,131.82c-6.34,0-11.49-5.52-11.49-12.31s5.15-12.31,11.49-12.31h29.71c6.34,0,11.49,5.52,11.49,12.31s-5.15,12.31-11.49,12.31h-29.71Z" style="fill: #00adee;" />
      <path d="m51.09,107.71c6.07,0,10.99,5.29,10.99,11.81s-4.92,11.81-10.99,11.81h-29.71c-6.07,0-10.99-5.28-10.99-11.81s4.92-11.81,10.99-11.81h29.71m0-1h-29.71c-6.61,0-11.99,5.74-11.99,12.81s5.38,12.81,11.99,12.81h29.71c6.61,0,11.99-5.74,11.99-12.81s-5.38-12.81-11.99-12.81h0Z" style="fill: #171717;" />
    </g>
    <g>
      <path d="m27.28,118.04l-1.26,2.35,1.31,2.49h-1.3l-.72-1.58-.72,1.58h-1.3l1.31-2.49-1.26-2.35h1.3l.67,1.46.67-1.46h1.3Z" style="fill: #171717;" />
      <path d="m27.88,122.88c0-.28.03-.55.09-.79.06-.25.14-.48.26-.7.12-.22.26-.44.44-.65.18-.21.38-.43.62-.64l.52-.49c.14-.13.26-.24.35-.35s.16-.22.2-.32c.05-.11.08-.22.09-.35.01-.13.02-.27.02-.43,0-.53-.21-.79-.63-.79-.16,0-.29.03-.38.1-.09.07-.17.16-.22.27-.05.11-.08.25-.1.4-.01.15-.02.31-.02.48h-1.24v-.24c0-.59.16-1.05.48-1.37.32-.32.82-.48,1.5-.48.65,0,1.13.15,1.44.45.31.3.47.73.47,1.29,0,.2-.02.39-.05.57-.04.18-.09.35-.17.51-.08.16-.18.32-.31.47s-.28.31-.46.47l-.72.67c-.19.17-.34.34-.45.51-.11.17-.18.31-.21.43h2.4v1.01h-3.92Z" style="fill: #171717;" />
    </g>
    <g>
      <path d="m21.38,163.43c-6.34,0-11.49-5.52-11.49-12.3s5.15-12.31,11.49-12.31h29.71c6.34,0,11.49,5.52,11.49,12.31s-5.15,12.3-11.49,12.3h-29.71Z" style="fill: #00a551;" />
      <path d="m51.09,139.32c6.07,0,10.99,5.29,10.99,11.81s-4.92,11.8-10.99,11.8h-29.71c-6.07,0-10.99-5.28-10.99-11.8s4.92-11.81,10.99-11.81h29.71m0-1h-29.71c-6.61,0-11.99,5.74-11.99,12.81s5.38,12.8,11.99,12.8h29.71c6.61,0,11.99-5.74,11.99-12.8s-5.38-12.81-11.99-12.81h0Z" style="fill: #171717;" />
    </g>
    <g>
      <path d="m24.73,152.67c0,.15.01.29.04.41.02.12.07.23.14.31.07.08.15.15.27.2.11.05.25.07.42.07.2,0,.38-.06.54-.19.16-.13.24-.33.24-.6,0-.14-.02-.27-.06-.37s-.1-.2-.19-.28c-.09-.08-.21-.16-.36-.23-.15-.07-.33-.14-.54-.21-.29-.1-.54-.2-.75-.32-.21-.11-.39-.25-.53-.4-.14-.15-.24-.33-.31-.53-.07-.2-.1-.43-.1-.7,0-.64.18-1.11.53-1.42s.84-.47,1.46-.47c.29,0,.55.03.8.09.24.06.45.17.63.31.18.14.31.32.41.54.1.22.15.48.15.79v.18h-1.24c0-.31-.05-.54-.16-.71-.11-.17-.29-.25-.54-.25-.14,0-.26.02-.36.06s-.17.1-.23.17c-.06.07-.1.15-.12.24-.02.09-.03.18-.03.28,0,.2.04.36.13.5.08.14.26.26.54.37l1,.43c.25.11.45.22.6.34.16.12.28.24.37.38.09.14.16.28.19.45.04.16.05.34.05.54,0,.68-.2,1.17-.59,1.48s-.94.46-1.64.46-1.26-.16-1.57-.48-.47-.77-.47-1.37v-.26h1.3v.19Z" style="fill: #171717;" />
      <path d="m29.81,153.47c.09.2.28.29.56.29.16,0,.28-.03.37-.08.09-.05.16-.13.22-.22.05-.09.08-.2.1-.33s.02-.26.02-.4-.01-.28-.03-.41c-.02-.13-.06-.24-.12-.35-.06-.1-.14-.18-.25-.24-.11-.06-.25-.09-.43-.09h-.43v-.85h.42c.14,0,.25-.03.35-.09.09-.06.17-.13.22-.23.06-.09.1-.2.13-.32s.04-.25.04-.38c0-.31-.05-.52-.15-.65-.1-.13-.26-.19-.47-.19-.14,0-.25.03-.34.08-.09.05-.15.12-.2.22-.05.09-.08.2-.09.33-.02.13-.02.26-.02.41h-1.19c0-.64.16-1.11.48-1.42.32-.31.78-.46,1.39-.46s1.03.13,1.35.4c.32.26.48.68.48,1.24,0,.38-.08.7-.26.94s-.41.4-.72.46v.02c.41.07.71.23.88.5.17.27.26.6.26,1,0,.22-.03.44-.08.67-.05.23-.16.44-.31.62-.16.19-.37.34-.64.45-.27.11-.63.17-1.08.17-.62,0-1.08-.17-1.39-.5-.31-.34-.46-.81-.46-1.43v-.03h1.24c0,.37.06.66.15.85Z" style="fill: #171717;" />
    </g>
    <g>
      <path d="m21.38,195.04c-6.34,0-11.49-5.52-11.49-12.3s5.15-12.31,11.49-12.31h29.71c6.34,0,11.49,5.52,11.49,12.31s-5.15,12.3-11.49,12.3h-29.71Z" style="fill: #00a551;" />
      <path d="m51.09,170.93c6.07,0,10.99,5.29,10.99,11.81s-4.92,11.8-10.99,11.8h-29.71c-6.07,0-10.99-5.28-10.99-11.8s4.92-11.81,10.99-11.81h29.71m0-1h-29.71c-6.61,0-11.99,5.74-11.99,12.81s5.38,12.8,11.99,12.8h29.71c6.61,0,11.99-5.74,11.99-12.8s-5.38-12.81-11.99-12.81h0Z" style="fill: #171717;" />
    </g>
    <g>
      <path d="m24.73,184.28c0,.15.01.29.04.41s.07.23.14.31.15.15.27.2c.11.05.25.07.42.07.2,0,.38-.06.54-.19.16-.13.24-.33.24-.6,0-.14-.02-.27-.06-.37-.04-.11-.1-.2-.19-.28-.09-.08-.21-.16-.36-.23-.15-.07-.33-.14-.54-.21-.29-.1-.54-.2-.75-.32-.21-.11-.39-.25-.53-.4-.14-.15-.24-.33-.31-.53-.07-.2-.1-.43-.1-.7,0-.64.18-1.11.53-1.42s.84-.47,1.46-.47c.29,0,.55.03.8.09.24.06.45.17.63.31.18.14.31.32.41.54.1.22.15.48.15.79v.18h-1.24c0-.31-.05-.54-.16-.71-.11-.17-.29-.25-.54-.25-.14,0-.26.02-.36.06s-.17.1-.23.17c-.06.07-.1.15-.12.24-.02.09-.03.18-.03.28,0,.2.04.36.13.5.08.14.26.26.54.37l1,.43c.25.11.45.22.6.34.16.12.28.24.37.38.09.13.16.28.19.45s.05.34.05.54c0,.68-.2,1.17-.59,1.48-.39.31-.94.46-1.64.46s-1.26-.16-1.57-.48-.47-.77-.47-1.37v-.26h1.3v.19Z" style="fill: #171717;" />
      <path d="m30.48,179.72h1.34v4.04h.61v1.01h-.61v1.32h-1.19v-1.32h-2.27v-1.06l2.12-3.99Zm.13,1.62l-1.24,2.42h1.26v-2.42h-.02Z" style="fill: #171717;" />
    </g>
    <g>
      <path d="m21.38,226.65c-6.34,0-11.49-5.52-11.49-12.3s5.15-12.31,11.49-12.31h29.71c6.34,0,11.49,5.52,11.49,12.31s-5.15,12.3-11.49,12.3h-29.71Z" style="fill: #00a551;" />
      <path d="m51.09,202.54c6.07,0,10.99,5.29,10.99,11.81s-4.92,11.8-10.99,11.8h-29.71c-6.07,0-10.99-5.28-10.99-11.8s4.92-11.81,10.99-11.81h29.71m0-1h-29.71c-6.61,0-11.99,5.74-11.99,12.81s5.38,12.8,11.99,12.8h29.71c6.61,0,11.99-5.74,11.99-12.8s-5.38-12.81-11.99-12.81h0Z" style="fill: #171717;" />
    </g>
    <g>
      <path d="m24.73,215.89c0,.15.01.29.04.41s.07.23.14.31.15.15.27.2c.11.05.25.07.42.07.2,0,.38-.06.54-.19.16-.13.24-.33.24-.6,0-.14-.02-.27-.06-.37-.04-.11-.1-.2-.19-.28-.09-.08-.21-.16-.36-.23-.15-.07-.33-.14-.54-.21-.29-.1-.54-.2-.75-.32-.21-.11-.39-.25-.53-.4-.14-.15-.24-.33-.31-.53-.07-.2-.1-.43-.1-.7,0-.64.18-1.11.53-1.42.35-.31.84-.47,1.46-.47.29,0,.55.03.8.09.24.06.45.17.63.31.18.14.31.32.41.54.1.22.15.48.15.79v.18h-1.24c0-.31-.05-.54-.16-.71-.11-.17-.29-.25-.54-.25-.14,0-.26.02-.36.06s-.17.1-.23.17c-.06.07-.1.15-.12.24-.02.09-.03.18-.03.28,0,.2.04.36.13.5s.26.26.54.37l1,.43c.25.11.45.22.6.34.16.12.28.24.37.38.09.13.16.28.19.45s.05.34.05.54c0,.68-.2,1.17-.59,1.48-.39.31-.94.46-1.64.46s-1.26-.16-1.57-.48-.47-.77-.47-1.37v-.26h1.3v.19Z" style="fill: #171717;" />
      <path d="m29.71,212.47l-.13,1.45h.02c.12-.17.28-.29.47-.36.19-.08.43-.11.7-.11.31,0,.56.06.76.17.2.12.36.27.48.46s.2.41.25.65.07.49.07.74c0,.35-.03.68-.09.96-.06.29-.17.54-.32.74-.15.21-.36.36-.63.47-.26.11-.6.16-1.01.16s-.73-.05-.98-.16c-.25-.11-.44-.25-.57-.43-.13-.18-.22-.37-.27-.58s-.07-.4-.07-.58v-.17h1.24c0,.11,0,.22.02.34s.04.23.09.34c.04.11.11.19.19.26.08.07.19.1.33.1.27,0,.46-.1.58-.31.12-.21.18-.52.18-.93,0-.26-.01-.48-.04-.66-.02-.17-.06-.31-.12-.41-.06-.1-.13-.17-.23-.22-.1-.04-.22-.06-.36-.06-.19,0-.33.05-.43.16-.1.11-.16.25-.18.43h-1.16l.23-3.46h3.32v1.01h-2.35Z" style="fill: #171717;" />
    </g>
    <g>
      <path d="m21.38,258.26c-6.34,0-11.49-5.52-11.49-12.3s5.15-12.31,11.49-12.31h29.71c6.34,0,11.49,5.52,11.49,12.31s-5.15,12.3-11.49,12.3h-29.71Z" style="fill: #00a551;" />
      <path d="m51.09,234.15c6.07,0,10.99,5.29,10.99,11.81s-4.92,11.8-10.99,11.8h-29.71c-6.07,0-10.99-5.28-10.99-11.8s4.92-11.81,10.99-11.81h29.71m0-1h-29.71c-6.61,0-11.99,5.74-11.99,12.81s5.38,12.8,11.99,12.8h29.71c6.61,0,11.99-5.74,11.99-12.8s-5.38-12.81-11.99-12.81h0Z" style="fill: #171717;" />
    </g>
    <g>
      <path d="m24.73,247.49c0,.15.01.29.04.41s.07.23.14.31.15.15.27.2c.11.05.25.07.42.07.2,0,.38-.06.54-.19.16-.13.24-.33.24-.6,0-.14-.02-.27-.06-.37-.04-.11-.1-.2-.19-.28-.09-.08-.21-.16-.36-.23-.15-.07-.33-.14-.54-.21-.29-.1-.54-.2-.75-.32-.21-.11-.39-.25-.53-.4-.14-.15-.24-.33-.31-.53-.07-.2-.1-.43-.1-.7,0-.64.18-1.11.53-1.42.35-.31.84-.47,1.46-.47.29,0,.55.03.8.09.24.06.45.17.63.31.18.14.31.32.41.54.1.22.15.48.15.79v.18h-1.24c0-.31-.05-.54-.16-.71-.11-.17-.29-.25-.54-.25-.14,0-.26.02-.36.06s-.17.1-.23.17c-.06.07-.1.15-.12.24-.02.09-.03.18-.03.28,0,.2.04.36.13.5s.26.26.54.37l1,.43c.25.11.45.22.6.34.16.12.28.24.37.38.09.13.16.28.19.45s.05.34.05.54c0,.68-.2,1.17-.59,1.48-.39.31-.94.46-1.64.46s-1.26-.16-1.57-.48-.47-.77-.47-1.37v-.26h1.3v.19Z" style="fill: #171717;" />
      <path d="m30.9,243.99c-.09-.13-.24-.2-.45-.2-.17,0-.3.04-.41.12-.11.08-.19.19-.24.34-.06.14-.09.32-.11.51-.02.2-.03.41-.03.65v.32h.02c.11-.17.26-.3.46-.4.2-.1.45-.15.73-.15s.52.05.72.15c.2.1.36.24.48.41.12.18.21.39.27.63.06.24.09.51.09.8,0,.74-.16,1.3-.49,1.68s-.85.57-1.57.57c-.44,0-.8-.08-1.06-.23-.26-.16-.47-.37-.61-.64-.14-.27-.23-.59-.27-.95-.04-.36-.06-.74-.06-1.12,0-.45.01-.89.04-1.31.03-.42.11-.8.24-1.12.14-.33.35-.59.63-.79s.7-.3,1.22-.3c.23,0,.45.03.66.08s.4.14.56.27c.16.13.29.29.39.5.1.21.15.46.16.77h-1.24c0-.25-.04-.44-.13-.58Zm-1.16,3.85c.02.16.05.29.1.4.05.11.12.2.22.26.09.06.21.09.37.09s.28-.03.37-.09c.09-.06.16-.15.21-.27.05-.11.08-.25.09-.4.02-.15.02-.32.02-.5,0-.43-.05-.74-.16-.93-.11-.19-.29-.28-.54-.28s-.44.09-.55.28c-.11.19-.16.5-.16.93,0,.18,0,.35.03.5Z" style="fill: #171717;" />
    </g>
    <g>
      <path d="m21.38,289.87c-6.34,0-11.49-5.52-11.49-12.3s5.15-12.31,11.49-12.31h29.71c6.34,0,11.49,5.52,11.49,12.31s-5.15,12.3-11.49,12.3h-29.71Z" style="fill: #00a551;" />
      <path d="m51.09,265.75c6.07,0,10.99,5.29,10.99,11.81s-4.92,11.8-10.99,11.8h-29.71c-6.07,0-10.99-5.28-10.99-11.8s4.92-11.81,10.99-11.81h29.71m0-1h-29.71c-6.61,0-11.99,5.74-11.99,12.81s5.38,12.8,11.99,12.8h29.71c6.61,0,11.99-5.74,11.99-12.8s-5.38-12.81-11.99-12.81h0Z" style="fill: #171717;" />
    </g>
    <g>
      <path d="m24.73,279.1c0,.15.01.29.04.41s.07.23.14.31.15.15.27.2c.11.05.25.07.42.07.2,0,.38-.06.54-.19.16-.13.24-.33.24-.6,0-.14-.02-.27-.06-.37-.04-.11-.1-.2-.19-.28-.09-.08-.21-.16-.36-.23-.15-.07-.33-.14-.54-.21-.29-.1-.54-.2-.75-.32-.21-.11-.39-.25-.53-.4-.14-.15-.24-.33-.31-.53-.07-.2-.1-.43-.1-.7,0-.64.18-1.11.53-1.42.35-.31.84-.47,1.46-.47.29,0,.55.03.8.09.24.06.45.17.63.31.18.14.31.32.41.54.1.22.15.48.15.79v.18h-1.24c0-.31-.05-.54-.16-.71-.11-.17-.29-.25-.54-.25-.14,0-.26.02-.36.06s-.17.1-.23.17c-.06.07-.1.15-.12.24-.02.09-.03.18-.03.28,0,.2.04.36.13.5s.26.26.54.37l1,.43c.25.11.45.22.6.34.16.12.28.24.37.38.09.13.16.28.19.45s.05.34.05.54c0,.68-.2,1.17-.59,1.48-.39.31-.94.46-1.64.46s-1.26-.16-1.57-.48-.47-.77-.47-1.37v-.26h1.3v.19Z" style="fill: #171717;" />
      <path d="m28.63,278.09c.18-.29.45-.47.81-.54v-.02c-.17-.04-.32-.11-.44-.2-.12-.09-.21-.19-.28-.31-.07-.11-.12-.23-.15-.36-.03-.13-.04-.25-.04-.36,0-.62.17-1.07.5-1.35.33-.27.79-.41,1.37-.41s1.04.14,1.37.41c.33.27.5.72.5,1.35,0,.11-.02.23-.05.36s-.09.25-.16.36c-.07.11-.17.22-.28.31-.12.09-.26.16-.43.2v.02c.36.07.63.25.81.54.18.29.27.63.27,1.04,0,.19-.02.39-.07.61-.04.22-.14.43-.28.62-.14.19-.35.35-.62.48-.27.13-.62.19-1.07.19s-.8-.06-1.07-.19-.47-.29-.62-.48c-.14-.19-.24-.4-.28-.62-.04-.22-.07-.43-.07-.61,0-.4.09-.75.27-1.04Zm1.06,1.44c.02.13.06.25.12.35.06.1.13.18.23.23.1.06.22.09.36.09s.26-.03.36-.09c.1-.06.17-.13.23-.23.06-.1.1-.22.12-.35.02-.13.03-.28.03-.43s0-.3-.03-.43c-.02-.13-.06-.25-.12-.35-.06-.1-.13-.18-.23-.23-.1-.06-.22-.09-.36-.09s-.26.03-.36.09c-.1.06-.17.13-.23.23-.06.1-.1.21-.12.35-.02.13-.03.28-.03.43s.01.29.03.43Zm.25-2.59c.11.14.27.22.46.22s.34-.07.46-.22c.11-.14.17-.37.17-.68,0-.58-.21-.87-.63-.87s-.63.29-.63.87c0,.31.06.53.17.68Z" style="fill: #171717;" />
    </g>
    <g>
      <path d="m21.38,321.47c-6.34,0-11.49-5.52-11.49-12.3s5.15-12.31,11.49-12.31h29.71c6.34,0,11.49,5.52,11.49,12.31s-5.15,12.3-11.49,12.3h-29.71Z" style="fill: #00adee;" />
      <path d="m51.09,297.36c6.07,0,10.99,5.29,10.99,11.81s-4.92,11.8-10.99,11.8h-29.71c-6.07,0-10.99-5.28-10.99-11.8s4.92-11.81,10.99-11.81h29.71m0-1h-29.71c-6.61,0-11.99,5.74-11.99,12.81s5.38,12.8,11.99,12.8h29.71c6.61,0,11.99-5.74,11.99-12.8s-5.38-12.81-11.99-12.81h0Z" style="fill: #171717;" />
    </g>
    <g>
      <path d="m27.28,307.69l-1.26,2.35,1.31,2.49h-1.3l-.72-1.58-.72,1.58h-1.3l1.31-2.49-1.26-2.35h1.3l.67,1.46.67-1.46h1.3Z" style="fill: #171717;" />
      <path d="m28.12,309.69c.18-.29.45-.47.81-.54v-.02c-.17-.04-.32-.11-.44-.2s-.21-.19-.28-.31c-.07-.11-.12-.23-.15-.36-.03-.13-.04-.25-.04-.36,0-.62.17-1.07.5-1.35.33-.27.79-.41,1.37-.41s1.04.14,1.37.41c.33.27.5.72.5,1.35,0,.11-.02.23-.05.36-.03.13-.09.25-.16.36-.07.11-.17.22-.28.31s-.26.16-.43.2v.02c.36.07.63.25.81.54.18.29.27.63.27,1.04,0,.19-.02.39-.07.61-.04.22-.14.43-.28.62-.14.19-.35.35-.62.48-.27.13-.62.19-1.07.19s-.8-.06-1.07-.19c-.27-.13-.47-.29-.62-.48-.14-.19-.24-.4-.28-.62-.04-.22-.07-.43-.07-.61,0-.4.09-.75.27-1.04Zm1.06,1.44c.02.13.06.25.12.35.06.1.13.18.23.23.1.06.22.09.36.09s.26-.03.36-.09c.1-.06.17-.13.23-.23.06-.1.1-.22.12-.35.02-.13.03-.28.03-.43s-.01-.3-.03-.43c-.02-.13-.06-.25-.12-.35-.06-.1-.13-.18-.23-.23-.1-.06-.22-.09-.36-.09s-.26.03-.36.09c-.1.06-.17.13-.23.23-.06.1-.1.21-.12.35s-.03.28-.03.43.01.29.03.43Zm.25-2.59c.11.14.27.22.46.22s.35-.07.46-.22c.11-.14.17-.37.17-.68,0-.58-.21-.87-.63-.87s-.63.29-.63.87c0,.31.06.53.17.68Z" style="fill: #171717;" />
    </g>
    <path d="m51.09,44.47c6.07,0,10.99,5.3,10.99,11.83s-4.92,11.84-10.99,11.84h-29.71c-6.07,0-10.99-5.3-10.99-11.84s4.92-11.83,10.99-11.83h29.71m0-1h-29.71c-6.61,0-11.99,5.76-11.99,12.83s5.38,12.84,11.99,12.84h29.71c6.61,0,11.99-5.76,11.99-12.84s-5.38-12.83-11.99-12.83h0Z" style="fill: #171717;" />
    <g>
      <polyline points="23.04 63.54 27.52 63.54 27.52 56.03 32.01 56.03" style="fill: none; stroke: #000;" />
      <path d="m27.49,56.55l-2.65,2.11,2.65-2.11Z" style="fill: none; stroke: #000;" />
      <line x1="29.99" y1="58.65" x2="27.43" y2="56.6" style="fill: none; stroke: #000;" />
    </g>
    <g>
      <path d="m25.1,49.56c-.43,0-.7-.32-.7-.73s.29-.73.72-.73.7.32.71.73c0,.4-.28.73-.72.73h0Zm-.63,4.98v-4.4h1.27v4.4h-1.27Z" />
      <path d="m26.77,51.54c0-.55-.02-1.01-.03-1.4h1.11l.06.61h.03c.17-.29.58-.71,1.26-.71.84,0,1.47.6,1.47,1.9v2.6h-1.27v-2.44c0-.57-.18-.95-.65-.95-.35,0-.56.26-.65.51-.03.09-.04.22-.04.34v2.54h-1.27v-3Z" />
    </g>
    <g>
      <path d="m92,9.19s-3.41,4.33-5.39,6.85v-5.87c0-.5-.25-.96-.63-1.14-.38-.19-.82-.07-1.1.29l-7.09,9.01c-.38.49-.37,1.27.03,1.74.4.47,1.04.46,1.42-.03,0,0,3.38-4.29,5.35-6.81v5.87c0,.5.25.96.63,1.14s.82.07,1.1-.29c0,0,3.41-4.33,5.39-6.85v5.99c0,.68.45,1.23,1.01,1.23s1-.55,1-1.23v-9.05c0-.5-.25-.96-.63-1.14-.38-.19-.82-.07-1.1.29Z" style="fill: #00adee; stroke: #00adee; stroke-width: .75px;" />
      <path d="m77.79,9.12l-4.69,5.97c-.39.49-.37,1.27.02,1.74.4.47,1.04.46,1.42-.03,0,0,1.58-2.01,2.97-3.77v6.14c0,.68.45,1.23,1,1.23s1.01-.55,1.01-1.23v-9.2c0-.5-.25-.96-.63-1.14-.38-.19-.82-.07-1.1.29Z" style="fill: #ec1c24; stroke: #ec1c24; stroke-width: .75px;" />
      <path d="m100.15,13.52c-.16-.46-.52-.75-.92-.75h-2.05l1.5-1.9s.78-1.14.09-1.77c-.69-.63-1.54.06-1.54.06l-3.14,3.99c-.28.36-.36.88-.2,1.34.16.46.52.75.93.75h2.05l-2.43,3.09s-1.01,1.1-.26,1.84c.74.74,1.71-.13,1.71-.13l4.07-5.18c.28-.36.36-.88.2-1.34Z" style="fill: #00a551; stroke: #00a551; stroke-width: .75px;" />
    </g>
    <g>
      <path d="m62.78,342.27c0,.46-.1.87-.3,1.21-.2.34-.47.6-.83.78-.35.18-.76.27-1.22.27-.13,0-.28,0-.47-.03-.19-.02-.43-.07-.74-.16s-.63-.22-.96-.4v-1.83c.31.23.62.43.92.58s.62.23.97.23c.32,0,.52-.06.62-.19s.14-.25.14-.36c0-.2-.08-.37-.24-.51s-.39-.28-.7-.43c-.34-.17-.64-.36-.89-.56-.25-.2-.46-.46-.63-.76-.16-.3-.24-.67-.24-1.08s.08-.76.25-1.09c.16-.32.41-.58.75-.78s.75-.29,1.23-.29c.34,0,.66.04.96.12.29.08.53.17.72.27s.32.18.39.24v1.75c-.25-.22-.53-.41-.84-.59-.31-.17-.64-.26-1-.26-.23,0-.4.05-.5.16-.1.11-.16.24-.16.4,0,.15.05.27.16.38.1.11.29.24.56.39.48.27.86.51,1.14.72s.51.46.67.74.24.63.24,1.05Z" style="fill: #171717;" />
      <path d="m70.57,344.43h-1.86v-2.91h-2.8v2.91h-1.86v-7.44h1.86v2.73h2.8v-2.73h1.86v7.44Z" style="fill: #171717;" />
      <path d="m78.56,341.09c0,.64-.1,1.18-.3,1.63-.2.45-.46.8-.79,1.07-.33.26-.68.45-1.05.56s-.75.17-1.13.17c-.52,0-1.03-.11-1.53-.32-.5-.21-.91-.58-1.24-1.1s-.5-1.19-.5-2.01v-4.11h1.86v3.53c0,.49.06.9.18,1.22s.28.56.49.7c.21.15.46.22.74.22s.52-.07.73-.22c.21-.15.38-.38.49-.7.12-.32.18-.72.18-1.21v-3.54h1.86v4.11Z" style="fill: #171717;" />
      <path d="m84.45,341.42h-2.56v3.01h-1.86v-7.44h4.43v1.49h-2.56v1.44h2.56v1.5Z" style="fill: #171717;" />
      <path d="m90.13,341.42h-2.56v3.01h-1.86v-7.44h4.43v1.49h-2.56v1.44h2.56v1.5Z" style="fill: #171717;" />
      <path d="m96.07,344.43h-4.69v-7.44h1.86v5.66h2.83v1.78Z" style="fill: #171717;" />
      <path d="m99.03,344.43h-1.86v-7.44h1.86v7.44Z" style="fill: #171717;" />
      <path d="m107.3,344.43h-1.66l-3.21-4.15v4.15h-1.85v-7.44h1.65l3.2,4.12v-4.12h1.86v7.44Z" style="fill: #171717;" />
      <path d="m114.68,343.9c-.13.06-.25.11-.34.15-.09.04-.19.08-.27.11-.09.03-.21.07-.38.12-.28.08-.56.14-.84.18-.28.04-.58.06-.89.06-.63,0-1.21-.14-1.74-.41-.53-.28-.96-.7-1.28-1.28s-.48-1.29-.48-2.14c0-.54.08-1.08.25-1.6s.42-.94.76-1.26c.28-.26.56-.46.85-.6s.57-.23.84-.28.58-.07.9-.07c.54,0,.99.05,1.35.15s.74.23,1.16.39v1.76c-.28-.2-.58-.36-.89-.49-.31-.13-.7-.2-1.17-.2-.54,0-.97.12-1.29.37-.32.25-.55.54-.67.88s-.19.67-.19.99c0,.38.07.72.22,1.04.15.32.37.57.66.76.29.19.65.29,1.07.29.24,0,.49-.04.76-.11v-.88h-.84v-1.5h2.47v3.58Z" style="fill: #171717;" />
      <path d="m44.51,352.87c-.25.16-.52.29-.78.39s-.54.17-.81.21c-.27.04-.55.06-.84.06-.54,0-1.02-.09-1.45-.27s-.8-.44-1.11-.79c-.31-.35-.55-.76-.7-1.22-.16-.47-.23-.98-.23-1.54,0-.64.09-1.2.28-1.68.18-.48.44-.88.77-1.2.33-.32.71-.55,1.13-.71s.87-.23,1.34-.23c.7,0,1.5.19,2.38.56v1.98c-.31-.23-.61-.42-.91-.57s-.65-.23-1.05-.23c-.36,0-.7.09-1.01.26-.31.17-.56.42-.75.74-.19.32-.29.69-.29,1.12,0,.38.08.72.25,1.03.17.31.4.56.69.75.29.18.63.28,1,.28.3,0,.58-.04.85-.13.27-.09.49-.19.68-.29s.37-.23.56-.38v1.88Z" style="fill: #171717;" />
      <path d="m50.46,353.43h-4.69v-7.44h1.86v5.66h2.83v1.78Z" style="fill: #171717;" />
      <path d="m57.63,349.7c0,.69-.13,1.33-.4,1.92-.27.58-.66,1.05-1.19,1.39s-1.17.52-1.92.52-1.41-.18-1.94-.54c-.53-.36-.92-.83-1.18-1.41-.26-.58-.39-1.21-.39-1.87s.13-1.29.38-1.88.65-1.05,1.18-1.41c.53-.36,1.18-.54,1.94-.54.57,0,1.08.1,1.53.31s.82.48,1.1.83c.29.35.51.75.66,1.22s.22.95.22,1.46Zm-1.9,0c0-.28-.04-.53-.1-.77-.07-.23-.17-.43-.31-.6-.14-.17-.31-.3-.51-.4s-.43-.14-.69-.14c-.5,0-.89.18-1.18.53-.29.35-.43.81-.43,1.38s.14,1.03.43,1.38c.29.35.68.53,1.17.53.34,0,.63-.08.87-.24.24-.16.42-.39.55-.68s.19-.62.19-.99Z" style="fill: #171717;" />
      <path d="m64.32,352.87c-.25.16-.52.29-.78.39s-.54.17-.81.21c-.27.04-.55.06-.84.06-.54,0-1.02-.09-1.45-.27s-.8-.44-1.11-.79c-.31-.35-.55-.76-.7-1.22-.16-.47-.23-.98-.23-1.54,0-.64.09-1.2.28-1.68.18-.48.44-.88.77-1.2.33-.32.71-.55,1.13-.71s.87-.23,1.34-.23c.7,0,1.5.19,2.38.56v1.98c-.31-.23-.61-.42-.91-.57s-.65-.23-1.05-.23c-.36,0-.7.09-1.01.26-.31.17-.56.42-.75.74-.19.32-.29.69-.29,1.12,0,.38.08.72.25,1.03.17.31.4.56.69.75.29.18.63.28,1,.28.3,0,.58-.04.85-.13.27-.09.49-.19.68-.29s.37-.23.56-.38v1.88Z" style="fill: #171717;" />
      <path d="m72.08,353.43h-2.27l-2.36-3.49v3.49h-1.86v-7.44h1.86v3.33l2.24-3.33h2.02l-2.3,3.49,2.67,3.96Z" style="fill: #171717;" />
      <path d="m82.79,353.43h-1.86v-4.31l-1.68,2.5h-.15l-1.68-2.5v4.31h-1.81v-7.44h1.69l1.9,2.79,1.91-2.79h1.69v7.44Z" style="fill: #171717;" />
      <path d="m90.78,350.09c0,.64-.1,1.18-.3,1.63-.2.45-.46.8-.79,1.07-.33.26-.68.45-1.05.56s-.75.17-1.13.17c-.52,0-1.03-.11-1.53-.32-.5-.21-.91-.58-1.24-1.1s-.5-1.19-.5-2.01v-4.11h1.86v3.53c0,.49.06.9.18,1.22s.28.56.49.7c.21.15.46.22.74.22s.52-.07.73-.22c.21-.15.38-.38.49-.7.12-.32.18-.72.18-1.21v-3.54h1.86v4.11Z" style="fill: #171717;" />
      <path d="m96.94,353.43h-4.69v-7.44h1.86v5.66h2.83v1.78Z" style="fill: #171717;" />
      <path d="m102.77,347.8h-2.26v5.63h-1.86v-5.63h-2.26v-1.81h6.39v1.81Z" style="fill: #171717;" />
      <path d="m105.73,353.43h-1.86v-7.44h1.86v7.44Z" style="fill: #171717;" />
      <path d="m112.64,348.33c0,.28-.04.54-.12.81-.08.26-.21.51-.38.74s-.41.41-.71.55-.65.21-1.05.21h-1.22v2.79h-1.86v-7.44h3.08c.4,0,.76.07,1.05.21s.54.33.71.56.3.48.38.75c.08.27.12.54.12.82Zm-1.9.01c0-.35-.09-.6-.26-.73s-.49-.2-.93-.2h-.39v1.79h.4c.31,0,.55-.02.71-.07.17-.05.29-.13.36-.26.08-.13.11-.31.11-.54Z" style="fill: #171717;" />
      <path d="m118.37,353.43h-4.69v-7.44h1.86v5.66h2.83v1.78Z" style="fill: #171717;" />
      <path d="m121.33,353.43h-1.86v-7.44h1.86v7.44Z" style="fill: #171717;" />
      <path d="m127.55,353.43h-4.66v-7.44h4.58v1.49h-2.72v1.36h2.59v1.5h-2.59v1.59h2.8v1.5Z" style="fill: #171717;" />
      <path d="m134.78,353.43h-2l-.49-1.32c-.18-.48-.34-.84-.48-1.06s-.28-.37-.42-.43c-.13-.06-.31-.09-.52-.09h-.21v2.91h-1.86v-7.44h3.17c.51,0,.93.12,1.26.38.33.25.56.55.71.91.14.36.22.7.22,1.02,0,.38-.06.69-.18.95-.12.26-.25.45-.38.57-.13.12-.28.23-.45.34.2.14.36.31.49.5.13.19.31.58.53,1.16l.62,1.62Zm-2.53-5.09c0-.34-.09-.58-.28-.72s-.49-.2-.91-.2h-.39v1.79h.4c.46,0,.77-.06.93-.18s.25-.35.25-.69Z" style="fill: #171717;" />
    </g>
    <path d="m82.93,101.17c-6,0-11.04-4.69-11.46-10.68-.45-6.31,4.32-11.82,10.62-12.29.36-.03,35.8-3.3,56.58-31.09,2.19-2.93,5.55-4.61,9.22-4.61,2.5,0,4.87.79,6.88,2.29,5.08,3.8,6.12,11.02,2.32,16.09-27.36,36.6-71.46,40.12-73.33,40.26-.28.02-.55.03-.82.03" style="fill: #2eaae1; stroke: #171717;" />
    <path d="m82.81,137.22c-5.99,0-10.91-4.5-11.44-10.48-.56-6.32,4.12-11.91,10.43-12.48,18.65-1.68,49.67-8.39,57.02-17.48,2.2-2.71,5.46-4.27,8.95-4.27,2.62,0,5.18.91,7.23,2.56,4.93,3.99,5.7,11.25,1.71,16.17-16.12,19.93-63.52,25.09-72.86,25.92-.34.03-.69.05-1.03.05" style="fill: #2eaae1; stroke: #171717;" />
    <path d="m82.82,173.22c-6.1,0-11.14-4.78-11.47-10.87-.35-6.33,4.52-11.76,10.86-12.11,24.39-1.34,54.37-4.18,60.25-6.44,1.67-.86,3.49-1.3,5.3-1.3,4.2,0,8.07,2.29,10.09,5.96,3.05,5.56,1.01,12.56-4.55,15.62-8.87,4.87-42.88,7.65-69.84,9.12-.21.01-.43.02-.64.02" style="fill: #2eaae1; stroke: #171717;" />
    <path d="m147.77,215.83c-1.03,0-2.06-.14-3.06-.41-11.7-3.22-48.97-5.31-62.35-5.85-6.34-.25-11.28-5.61-11.03-11.95.25-6.19,5.28-11.04,11.46-11.04.16,0,.32,0,.49.01,5.19.21,51.2,2.16,67.53,6.66,2.96.82,5.43,2.73,6.95,5.41,1.52,2.67,1.9,5.77,1.09,8.73-1.37,4.97-5.92,8.45-11.08,8.45" style="fill: #2eaae1; stroke: #171717;" />
    <path d="m147.76,265.8c-2.73,0-5.37-.98-7.45-2.75-13.64-11.62-46.78-16.58-58.39-17.52-6.32-.51-11.05-6.06-10.55-12.37.47-5.94,5.5-10.59,11.45-10.59.3,0,.61.02.92.04,5.03.4,49.75,4.41,71.49,22.94,2.34,1.99,3.76,4.77,4.01,7.84.24,3.06-.72,6.04-2.71,8.37-2.19,2.57-5.38,4.04-8.76,4.04" style="fill: #2eaae1; stroke: #171717;" />
    <path d="m147.96,334.39c-1.99,0-3.9-.62-5.53-1.78-6.25-4.49-36.17-14.94-60.3-16.7-5.22-.38-9.16-4.94-8.78-10.17.36-4.94,4.51-8.8,9.45-8.8.24,0,.47,0,.71.02,13.02.95,56.55,10.56,70,20.22,4.26,3.05,5.23,9,2.18,13.26-1.78,2.48-4.67,3.96-7.73,3.96" style="fill: #01a64f; stroke: #171717;" />
    <path d="m147.75,301.76c-1.9,0-3.74-.57-5.32-1.64-15.17-10.3-49.39-18.18-61.3-20.34-5.15-.94-8.58-5.89-7.64-11.05.82-4.52,4.75-7.8,9.34-7.8.57,0,1.14.05,1.71.16,1.91.35,46.99,8.67,68.57,23.31,4.33,2.94,5.47,8.86,2.52,13.2-1.77,2.61-4.71,4.16-7.87,4.16" style="fill: #01a64f; stroke: #171717;" />
    <path d="m83.2,67.27c-4.96,0-8.81-1.4-11.14-4.04-4.22-4.78-2.78-12.43-1.54-16.56,1.86-6.22,5.61-12.49,9.56-15.98,3.39-2.99,7.77-4.64,12.32-4.64,5.49,0,10.74,2.38,14.4,6.53,6.97,7.89,6.32,19.89-1.45,26.75-5.21,4.6-14.53,7.94-22.14,7.94Z" style="fill: #ec2227; stroke: #171717;" />
    <path d="m101.52,80.47c.62-.21,1.16-.22,1.62-.02.45.2.79.62,1,1.27.17.5.21.94.11,1.32-.1.39-.34.7-.73.93v.02c.4-.07.71-.04.95.09.24.13.45.39.63.8.06.13.12.28.18.44s.13.34.21.54c.14.39.27.69.37.89.11.2.25.31.41.34l.02.06-1.63.55c-.11-.08-.2-.18-.27-.31-.07-.13-.13-.27-.18-.41l-.52-1.41c-.11-.28-.26-.49-.45-.61-.19-.12-.44-.13-.75-.02l-.8.27,1.06,3.15-1.5.5-2.51-7.44,2.77-.93Zm.45,3.47c.36-.12.61-.3.75-.53.14-.24.14-.56,0-.96-.23-.69-.7-.91-1.39-.68l-.71.24.72,2.15.62-.21Z" style="fill: #171717;" />
    <path d="m105.56,82.82c-.07-.39-.07-.74,0-1.05.07-.31.22-.59.45-.82.22-.24.54-.44.94-.6.42-.17.79-.26,1.12-.25.33,0,.62.1.88.28.26.18.5.44.71.77.21.33.42.74.61,1.22.19.47.32.9.39,1.29.07.39.07.74,0,1.05-.07.31-.23.58-.45.8-.23.23-.55.42-.95.58-.42.18-.79.26-1.11.26s-.62-.09-.88-.27c-.26-.17-.5-.43-.71-.77-.21-.34-.41-.74-.61-1.22-.19-.47-.32-.9-.39-1.29m2.13,1.49c.11.24.22.42.34.58.12.15.25.25.39.3.14.05.3.05.46-.02.29-.12.42-.34.41-.69-.01-.34-.16-.86-.43-1.55-.28-.69-.53-1.16-.76-1.41-.23-.25-.49-.33-.77-.21-.17.07-.29.17-.35.31-.06.14-.09.3-.07.49.02.19.07.41.15.65.08.24.18.5.29.78.11.28.22.54.33.77" style="fill: #171717;" />
    <path d="m110.85,77l.7,1.54.8-.36.43.95-.8.36,1.32,2.91c.1.21.2.35.3.41.1.06.25.05.46-.04.05-.02.11-.05.16-.08.05-.03.1-.06.14-.08l.43.96c-.15.07-.3.14-.44.21-.14.08-.29.15-.45.22-.27.12-.5.2-.68.24-.18.04-.35.03-.49-.04-.14-.07-.27-.19-.38-.35-.12-.17-.23-.39-.36-.66l-1.39-3.09-.7.32-.43-.94.7-.32-.7-1.55,1.38-.62Z" style="fill: #171717;" />
    <path d="m113.51,79.49c-.16-.31-.24-.59-.24-.84,0-.25.04-.49.14-.7.1-.21.25-.41.45-.57.2-.17.43-.32.68-.45.41-.21.75-.33,1.04-.38.29-.05.54-.03.75.04.21.07.39.2.54.37.15.18.29.38.41.61l1.41,2.78c.12.25.23.44.33.56.09.12.21.25.36.37l-1.29.66c-.09-.06-.17-.13-.24-.22-.07-.08-.14-.16-.2-.25h-.02c-.02.36-.11.63-.27.82s-.41.36-.74.53c-.23.12-.46.18-.66.18-.21,0-.39-.05-.57-.14-.17-.09-.32-.22-.46-.37-.14-.16-.25-.32-.34-.5-.12-.25-.21-.48-.25-.68s-.04-.4,0-.58c.04-.18.13-.36.25-.53.12-.17.29-.35.49-.53l.66-.6c.18-.15.28-.3.31-.43.04-.13,0-.29-.09-.46-.1-.2-.23-.34-.38-.4-.15-.07-.34-.04-.57.07-.21.11-.33.25-.37.43-.04.18,0,.37.1.58l.07.15-1.21.62-.07-.13Zm2.85.21c-.08.1-.16.18-.24.24-.24.2-.39.4-.44.59-.05.2-.01.41.11.65.11.2.23.36.38.46.15.1.32.11.5.02.09-.05.18-.11.26-.19.09-.08.15-.17.2-.28.05-.1.07-.22.07-.35,0-.13-.04-.27-.11-.41l-.53-1.04c-.05.12-.12.23-.21.32" style="fill: #171717;" />
    <path d="m118.19,73.19l.84,1.47.77-.43.51.9-.77.43,1.58,2.78c.12.2.23.33.34.38.11.05.26.02.45-.09.05-.03.1-.06.15-.09.05-.03.09-.07.14-.1l.52.92c-.14.09-.29.17-.41.26-.13.08-.28.17-.43.26-.25.14-.47.25-.66.3-.18.06-.35.06-.49,0-.14-.05-.29-.16-.41-.32-.13-.15-.27-.36-.42-.62l-1.67-2.95-.67.38-.51-.9.67-.38-.84-1.47,1.32-.75Z" style="fill: #171717;" />
    <path d="m123.24,76.41c.09.15.2.29.3.41.11.12.23.23.34.31.12.08.24.12.36.14.12.02.24-.02.36-.09.21-.14.32-.31.33-.53,0-.22-.08-.5-.24-.84l1.15-.73c.34.6.47,1.14.37,1.62-.09.48-.45.92-1.06,1.31-.46.29-.87.45-1.23.45-.36,0-.68-.08-.96-.25-.28-.18-.54-.41-.77-.71-.23-.3-.44-.61-.64-.92-.21-.34-.39-.67-.54-1.01-.15-.34-.23-.68-.24-1-.02-.33.07-.65.23-.96.17-.31.47-.6.91-.87.37-.23.72-.37,1.03-.4.32-.03.61.02.89.16.27.14.54.34.79.62.25.28.49.62.73,1l.18.29-2.54,1.6.25.4Zm.22-2.48c-.11-.13-.22-.24-.33-.31-.11-.08-.22-.11-.34-.11s-.24.04-.37.12c-.13.08-.22.18-.27.29-.05.11-.07.23-.05.36.01.12.04.25.1.39.05.13.12.26.19.37l.12.2,1.31-.83c-.13-.19-.25-.35-.36-.49" style="fill: #171717;" />
    <path d="m106.3,122.49c.04.18.09.34.15.48.06.14.14.25.24.34.1.09.22.14.37.17.14.03.32.02.52-.02.24-.05.43-.17.59-.37.16-.2.2-.45.13-.78-.04-.17-.09-.32-.16-.43-.07-.12-.18-.22-.3-.29-.13-.08-.29-.14-.48-.18-.2-.05-.43-.09-.71-.12-.37-.04-.69-.1-.97-.18-.28-.08-.52-.2-.73-.34-.21-.15-.38-.33-.51-.55-.13-.22-.23-.49-.3-.81-.16-.76-.07-1.37.27-1.84.34-.47.89-.77,1.62-.93.34-.07.67-.1.98-.09.3.01.58.08.83.21.25.12.46.3.63.54.18.23.3.54.38.9l.04.21-1.48.32c-.08-.36-.2-.63-.37-.8-.17-.17-.41-.22-.71-.16-.17.04-.31.09-.41.17-.11.08-.18.16-.23.26-.05.1-.08.2-.08.32,0,.11,0,.23.03.34.05.24.14.42.28.57.14.14.38.24.74.31l1.3.26c.32.07.59.15.81.25.21.1.39.22.54.36.14.14.26.3.34.48.09.18.15.39.2.63.17.81.06,1.45-.33,1.92-.39.47-1,.79-1.84.97-.87.19-1.54.13-2-.17-.46-.3-.76-.81-.91-1.52l-.07-.31,1.55-.33.05.23Z" style="fill: #171717;" />
    <rect x="110.13" y="115.79" width="1.52" height="7.85" transform="translate(-24.5 28.61) rotate(-13.25)" style="fill: #171717;" />
    <path d="m113.21,115.02l.32,1.26-1.47.37-.32-1.26,1.47-.37Zm.5,1.97l1.45,5.74-1.47.37-1.45-5.74,1.47-.37Z" style="fill: #171717;" />
    <path d="m116.13,116.34l.17.6h.02c.09-.32.22-.56.39-.73.17-.18.4-.31.7-.39.6-.17,1.11-.06,1.52.34.41.39.77,1.11,1.07,2.17.3,1.06.37,1.86.21,2.4-.16.53-.53.89-1.13,1.06-.28.08-.52.09-.75.04-.22-.05-.45-.16-.66-.35h-.02s.66,2.37.66,2.37l-1.46.41-2.11-7.53,1.4-.39Zm1.4,4.19c.18.29.44.39.76.3.32-.09.48-.3.49-.64,0-.34-.08-.82-.25-1.44-.18-.62-.36-1.07-.54-1.36-.18-.29-.43-.39-.75-.3-.32.09-.49.31-.5.65,0,.34.08.82.25,1.44.18.62.36,1.08.54,1.36" style="fill: #171717;" />
    <path d="m98.35,161.4c.02.18.04.35.08.5.04.15.11.27.2.37.09.09.2.17.34.21.14.05.31.07.52.05.24-.02.45-.11.64-.29.18-.17.26-.42.23-.75-.01-.18-.05-.33-.11-.45-.06-.12-.14-.23-.26-.33-.12-.09-.27-.18-.45-.25-.19-.07-.41-.14-.68-.21-.36-.09-.67-.2-.94-.31-.27-.12-.49-.27-.68-.44-.19-.18-.33-.38-.43-.62-.1-.24-.16-.52-.19-.84-.06-.77.11-1.37.52-1.78.4-.41.98-.65,1.73-.7.35-.03.68-.01.98.04.3.06.57.16.8.32.23.16.41.36.55.62.14.26.22.57.25.95l.02.22-1.52.11c-.03-.37-.11-.65-.26-.84-.14-.19-.37-.27-.68-.25-.18.02-.32.05-.43.11-.11.06-.2.13-.27.22-.06.09-.1.19-.12.3-.02.11-.02.23-.01.34.02.24.09.44.2.6.12.16.35.29.69.41l1.26.43c.31.11.57.23.77.36.2.13.37.27.49.43.12.16.22.33.28.53.06.19.1.41.11.65.06.82-.13,1.45-.58,1.86-.45.41-1.11.65-1.96.71-.89.07-1.54-.08-1.96-.44-.41-.36-.64-.9-.7-1.62l-.02-.32,1.58-.12.02.23Z" style="fill: #171717;" />
    <path d="m103.74,155.34l.21,2.53h.02c.25-.53.71-.82,1.37-.87.48-.04.86.06,1.14.3.28.24.45.66.49,1.25l.36,4.37-1.51.12-.33-4.07c-.02-.3-.09-.52-.21-.63-.11-.11-.28-.16-.51-.14-.53.04-.77.39-.72,1.04l.32,3.91-1.51.12-.64-7.83,1.51-.12Z" style="fill: #171717;" />
    <path d="m111.28,161.88c-.14.3-.33.53-.57.68-.25.14-.53.23-.86.26-.48.04-.86-.05-1.15-.28-.28-.23-.45-.64-.5-1.23l-.38-4.37,1.51-.13.36,4.06c.03.31.1.52.21.63.11.11.29.16.51.14.54-.05.77-.39.71-1.04l-.34-3.91,1.51-.13.52,5.89-1.45.13-.06-.69h-.02Z" style="fill: #171717;" />
    <path d="m112.9,157.53l-.1-1.03.77-.07-.06-.67c-.03-.27-.01-.49.04-.68.06-.19.15-.34.27-.47.12-.12.29-.21.48-.28.2-.07.41-.11.65-.13.27-.03.54-.04.81-.04l.1,1.07s-.09,0-.15,0l-.14.02c-.21.02-.36.07-.44.15-.08.08-.11.2-.1.37l.05.52.88-.08.1,1.03-.88.09.46,4.86-1.51.14-.46-4.86-.77.07Z" style="fill: #171717;" />
    <path d="m116.12,157.22l-.1-1.03.77-.08-.07-.67c-.03-.26-.01-.49.04-.68.05-.19.14-.34.27-.47.12-.12.29-.22.48-.29s.41-.11.65-.14c.27-.03.54-.04.81-.05l.11,1.07s-.09,0-.16,0l-.14.02c-.21.02-.36.07-.44.16-.08.08-.11.21-.09.37l.05.52.87-.09.1,1.03-.88.09.49,4.86-1.51.15-.49-4.86-.77.08Z" style="fill: #171717;" />
    <rect x="119.91" y="153.79" width="1.52" height="7.85" transform="translate(-15.96 13.6) rotate(-6.05)" style="fill: #171717;" />
    <path d="m123.91,159.05c.02.18.05.34.1.5.04.16.1.3.18.42.07.12.16.21.27.28.1.06.22.09.36.07.25-.03.43-.14.52-.34.1-.2.14-.48.14-.86l1.36-.16c.05.69-.07,1.23-.36,1.63-.3.39-.8.63-1.52.72-.55.06-.98.02-1.31-.12-.32-.15-.58-.36-.76-.64-.18-.28-.31-.61-.39-.98-.07-.37-.13-.73-.18-1.11-.05-.39-.06-.77-.05-1.14s.09-.71.21-1.01c.13-.3.34-.56.63-.76.29-.2.68-.33,1.2-.39.44-.05.8-.02,1.1.09.3.11.54.29.73.53.19.24.33.54.43.9.1.36.18.77.23,1.22l.04.34-2.98.34.05.47Zm1.27-2.13c-.04-.17-.09-.31-.16-.43-.07-.11-.16-.2-.26-.25-.11-.05-.23-.07-.39-.05-.15.02-.27.07-.36.15-.09.08-.16.18-.2.3-.05.12-.07.25-.08.39-.01.14,0,.28,0,.42l.03.23,1.54-.18c-.03-.23-.07-.42-.11-.59" style="fill: #171717;" />
    <path d="m103.28,199.95c-.01.18,0,.35.01.5.02.15.07.28.14.39.07.11.18.2.31.26.13.07.3.11.5.12.24.02.46-.05.67-.19.2-.14.32-.38.34-.71,0-.18,0-.33-.04-.46-.04-.13-.11-.25-.21-.36-.1-.11-.24-.21-.41-.31-.17-.09-.39-.2-.65-.3-.34-.14-.64-.29-.88-.44-.25-.16-.45-.34-.61-.53-.16-.2-.27-.42-.34-.67-.06-.25-.09-.54-.06-.86.05-.78.3-1.34.76-1.69.46-.35,1.06-.5,1.82-.46.35.02.67.09.96.18.29.1.54.24.75.43.2.18.36.41.46.69.1.27.14.6.12.97l-.02.22-1.51-.1c.02-.38-.02-.67-.14-.88-.12-.21-.33-.33-.64-.35-.18-.01-.32,0-.45.05-.12.04-.22.1-.29.18-.07.08-.13.17-.16.28-.04.11-.05.22-.06.34-.02.24.02.45.11.62.09.17.3.34.63.5l1.18.61c.29.15.53.3.71.46.18.15.32.32.43.49.1.17.17.36.2.56.03.2.04.42.02.66-.05.83-.34,1.41-.84,1.76-.5.35-1.18.49-2.04.43-.89-.06-1.52-.29-1.87-.71-.36-.41-.52-.98-.47-1.71l.02-.32,1.58.11-.02.23Z" style="fill: #171717;" />
    <polygon points="109.34 198.87 109.36 198.87 111.05 196.78 112.71 196.9 110.85 199.1 112.54 202.82 110.87 202.7 109.79 200.18 109.2 200.85 109.07 202.57 107.56 202.46 108.12 194.63 109.64 194.74 109.34 198.87" style="fill: #171717;" />
    <path d="m115.01,197.08l-.46,5.9-1.52-.12.46-5.9,1.52.12Zm.16-2.02l-.1,1.29-1.51-.12.1-1.3,1.52.12Z" style="fill: #171717;" />
    <path d="m117.55,197.29l-.05.62h.02c.2-.26.4-.45.62-.55.22-.1.48-.14.79-.11.62.05,1.05.33,1.31.84.25.51.33,1.31.24,2.41-.09,1.1-.3,1.87-.64,2.32s-.81.65-1.43.6c-.29-.03-.52-.1-.71-.22-.19-.12-.36-.31-.5-.55h-.02l-.21,2.44-1.51-.12.66-7.79,1.45.12Zm-.16,4.42c.07.33.28.52.61.54.33.03.55-.12.68-.43s.22-.8.27-1.44c.05-.64.04-1.13-.03-1.46-.07-.33-.27-.51-.6-.54-.34-.03-.57.11-.69.43-.12.32-.21.8-.27,1.44-.05.64-.05,1.13.02,1.46" style="fill: #171717;" />
    <path d="m107.16,233.17c.39.08.71.22.95.41.24.19.42.41.54.66.12.25.18.52.2.81.01.29-.01.58-.07.87-.08.39-.21.73-.39,1-.18.27-.4.48-.65.62-.25.14-.54.23-.86.26-.32.03-.66,0-1.03-.07l-.83-.18-.65,3.07-1.55-.33,1.62-7.68,2.71.57Zm-1.21,3.37c.31.07.58.02.81-.12.23-.15.39-.42.47-.81.08-.39.06-.7-.06-.93-.12-.23-.38-.39-.77-.48l-.64-.14-.49,2.34.69.14Z" style="fill: #171717;" />
    <polygon points="111.28 234.08 110.71 239.92 110.73 239.93 113.04 234.52 114.51 234.89 113.99 240.74 114.02 240.75 116.27 235.33 117.74 235.7 114.45 242.97 112.73 242.54 113.26 236.8 113.24 236.79 111 242.1 109.28 241.67 109.81 233.71 111.28 234.08" style="fill: #171717;" />
    <polygon points="108.7 306.01 108.29 311.66 108.31 311.66 110.89 306.62 113.15 307.25 111.04 314.82 109.64 314.43 111.32 308.39 111.31 308.38 108.28 314.05 107.09 313.72 107.43 307.3 107.41 307.3 105.72 313.34 104.33 312.95 106.43 305.38 108.7 306.01" style="fill: #171717;" />
    <path d="m115.11,315.31c-.23.24-.49.37-.78.42-.28.05-.58.03-.9-.07-.47-.14-.78-.37-.96-.68-.18-.31-.18-.76-.01-1.33l1.26-4.21,1.45.43-1.17,3.91c-.08.3-.1.51-.03.66.06.14.21.25.42.31.51.16.86-.08,1.05-.71l1.12-3.76,1.46.43-1.69,5.67-1.39-.41.2-.67h-.02Z" style="fill: #171717;" />
    <path d="m121.32,309.98l-.5,1.62.84.26-.31.99-.84-.26-.95,3.06c-.07.22-.09.39-.05.5.04.12.16.21.37.27.06.02.11.04.17.05.06.01.11.02.16.03l-.32,1c-.16-.05-.32-.09-.48-.13-.15-.04-.31-.08-.48-.13-.28-.09-.5-.18-.67-.28-.17-.09-.28-.21-.34-.36-.05-.14-.07-.32-.05-.52.02-.2.08-.44.17-.73l1.01-3.23-.73-.23.31-.99.73.23.51-1.62,1.45.45Z" style="fill: #171717;" />
    <path d="m122.29,315.92c-.06.17-.1.33-.13.5-.03.17-.03.32-.02.46.02.14.06.26.12.37.07.1.17.18.3.22.24.08.45.05.62-.09.17-.14.33-.38.49-.72l1.29.43c-.24.64-.58,1.09-1.01,1.32-.43.23-1,.24-1.68.01-.52-.17-.9-.39-1.14-.67-.23-.27-.37-.57-.42-.9-.04-.33-.02-.68.06-1.04.08-.37.19-.73.3-1.08.12-.38.27-.73.44-1.06.17-.33.37-.61.62-.83.25-.22.54-.36.89-.42.34-.07.76-.01,1.25.14.42.14.74.32.96.55.23.22.37.48.44.78.07.3.08.63.02,1-.06.37-.16.77-.3,1.2l-.11.32-2.85-.94-.15.45Zm2.05-1.4c.03-.17.04-.32.03-.45-.02-.13-.06-.25-.13-.33-.07-.09-.18-.16-.33-.21-.15-.05-.28-.05-.4-.02-.12.04-.22.1-.31.19-.09.09-.17.19-.24.32-.07.12-.12.25-.17.39l-.07.22,1.47.49c.07-.22.11-.41.15-.58" style="fill: #171717;" />
    <path d="m105.13,270.83l1.59.41-1.23,4.79.72.18-.3,1.2-.73-.19-.4,1.57-1.41-.36.4-1.57-2.68-.69.32-1.26,3.71-4.07Zm-.33,1.96l-2.21,2.49,1.49.38.73-2.86h-.02Z" style="fill: #171717;" />
    <polygon points="111.94 274.59 109.69 276.95 110.44 280.32 108.91 279.9 108.57 277.8 107.21 279.43 105.69 279.01 108.04 276.5 107.32 273.32 108.84 273.74 109.15 275.68 110.41 274.17 111.94 274.59" style="fill: #171717;" />
    <polygon points="120 274.97 119.63 276.21 116.94 275.4 116.4 277.17 118.93 277.93 118.55 279.18 116.03 278.41 115.04 281.67 113.52 281.21 115.8 273.69 120 274.97" style="fill: #171717;" />
    <path d="m119.41,278.57c.11-.33.25-.59.42-.77.18-.19.37-.32.6-.39.22-.08.46-.11.72-.09.26.02.53.07.8.16.43.14.77.3,1,.46.24.17.4.36.5.56.1.2.14.41.12.64-.02.23-.07.47-.15.72l-.96,2.96c-.09.27-.14.48-.16.63-.02.16-.03.33-.01.52l-1.38-.45c-.02-.11-.02-.21-.02-.32,0-.11.02-.22.03-.32h-.02c-.26.23-.52.36-.77.38-.25.02-.55-.04-.89-.15-.25-.08-.45-.19-.59-.34-.15-.14-.25-.31-.3-.5s-.07-.38-.06-.59c.02-.21.05-.41.11-.59.09-.27.19-.48.31-.66.12-.17.26-.31.41-.41.16-.1.34-.16.55-.2.21-.04.45-.04.72-.03l.89.05c.23.01.41-.02.52-.09.12-.07.21-.2.27-.39.07-.21.08-.4.02-.56-.06-.15-.21-.27-.46-.35-.22-.07-.41-.06-.57.04-.16.1-.27.26-.34.48l-.05.16-1.3-.42.05-.14Zm1.86,2.16c-.12,0-.24,0-.33,0-.32-.03-.56,0-.73.11-.18.11-.3.29-.38.54-.07.21-.09.41-.05.59.03.18.14.3.34.37.1.03.2.05.32.05.11,0,.23-.02.34-.05.11-.04.21-.11.3-.2.09-.09.16-.22.21-.37l.36-1.11c-.12.05-.25.07-.37.08" style="fill: #171717;" />
    <path d="m124.73,282.99c-.09.24-.09.46-.02.65.07.2.23.33.47.42.22.08.42.09.59.02.17-.07.29-.21.37-.43.07-.18.06-.33,0-.46-.07-.13-.17-.25-.29-.35l-.88-.72c-.34-.28-.57-.58-.68-.9-.11-.32-.1-.68.04-1.08.08-.23.2-.43.34-.61.15-.18.33-.31.55-.41.22-.09.48-.14.77-.14.29,0,.62.07.98.2.65.23,1.08.54,1.3.93.21.39.23.83.05,1.34l-.08.23-1.29-.45c.1-.29.13-.52.08-.69-.04-.17-.18-.29-.42-.37-.18-.07-.36-.07-.53-.02-.17.05-.29.18-.36.38-.05.14-.05.28,0,.42.05.14.18.29.39.45l.76.59c.39.31.64.62.74.93.1.31.07.68-.07,1.1-.11.3-.25.54-.43.72s-.39.31-.62.39c-.23.08-.49.11-.76.08-.28-.03-.57-.09-.87-.2-.4-.14-.72-.3-.96-.47-.24-.17-.41-.36-.51-.57-.11-.21-.15-.43-.13-.67.02-.24.07-.5.16-.77l.07-.2,1.29.45-.06.19Z" style="fill: #171717;" />
    <path d="m132.08,279.42l-.6,1.58.82.31-.37.97-.82-.31-1.14,2.99c-.09.22-.11.39-.08.51.03.11.14.21.35.29.05.02.11.04.17.05.05.02.11.03.16.04l-.37.99c-.16-.06-.31-.11-.46-.16-.15-.04-.31-.1-.47-.16-.27-.11-.49-.21-.65-.31-.16-.11-.27-.23-.32-.38-.05-.15-.05-.32-.02-.52.04-.2.11-.44.21-.72l1.2-3.17-.72-.27.37-.96.72.27.6-1.59,1.42.54Z" style="fill: #171717;" />
    <path d="m90.92,28.36c.63.19,1.07.5,1.33.92.26.43.29.97.09,1.62-.15.5-.38.89-.68,1.15-.3.26-.68.37-1.13.33v.02c.36.17.6.37.72.62.12.24.13.58.05,1.02-.03.14-.06.3-.11.47-.04.17-.09.35-.14.56-.11.41-.18.71-.21.93-.02.23.03.4.14.51l-.02.06-1.64-.49c-.05-.13-.06-.26-.04-.41.02-.14.05-.29.09-.44l.39-1.45c.07-.3.07-.55-.01-.76-.09-.21-.29-.36-.6-.46l-.81-.24-.95,3.18-1.52-.45,2.25-7.53,2.8.84Zm-1.64,3.09c.37.11.67.1.92,0,.25-.11.43-.37.55-.78.21-.7-.04-1.15-.74-1.36l-.71-.21-.65,2.17.63.19Z" style="fill: #171717;" />
    <path d="m93.48,35.54c-.09.15-.17.31-.23.46-.07.16-.11.3-.12.44-.02.14,0,.27.04.38.04.12.12.21.24.28.22.14.43.16.62.06.2-.09.41-.29.64-.58l1.16.71c-.39.58-.82.92-1.29,1.05-.48.13-1.02,0-1.64-.37-.46-.29-.79-.59-.95-.91-.17-.32-.23-.64-.2-.98.03-.33.13-.67.3-1,.17-.34.35-.66.55-.98.21-.34.43-.65.67-.93.24-.28.5-.5.79-.66.29-.16.61-.23.96-.21.35.02.75.16,1.18.43.37.23.64.48.81.75.16.27.25.56.25.86s-.07.63-.21.98c-.14.34-.34.71-.57,1.1l-.18.29-2.56-1.58-.25.4Zm2.32-.89c.07-.16.12-.3.13-.44.02-.13,0-.25-.05-.36-.05-.11-.14-.2-.27-.28-.13-.08-.26-.12-.38-.11-.12,0-.23.05-.34.11-.11.07-.21.15-.31.25-.09.11-.18.22-.25.34l-.12.2,1.32.81c.11-.19.21-.37.28-.53" style="fill: #171717;" />
    <path d="m97.15,38.87c-.18.18-.28.37-.29.58-.02.21.07.4.25.59.17.16.34.25.52.27.18.02.36-.06.52-.23.14-.13.2-.27.19-.42,0-.15-.04-.29-.11-.44l-.48-1.02c-.19-.4-.27-.77-.23-1.11.04-.34.2-.66.5-.95.17-.17.36-.3.57-.4.21-.1.43-.14.67-.13.24.01.49.08.75.2.26.13.53.33.8.61.49.48.75.95.77,1.39.02.44-.15.85-.53,1.23l-.17.17-.96-.96c.21-.22.34-.41.37-.59.03-.17-.04-.34-.22-.52-.14-.14-.29-.21-.47-.24-.18-.03-.34.04-.49.18-.1.1-.16.23-.18.38-.02.15.04.34.16.58l.43.86c.23.45.32.84.27,1.16-.04.32-.22.64-.54.96-.22.22-.45.38-.7.46-.24.09-.48.11-.73.09-.25-.03-.49-.11-.72-.26-.24-.14-.47-.32-.7-.55-.3-.3-.52-.58-.66-.84-.14-.25-.21-.5-.22-.73,0-.23.05-.45.17-.66.12-.21.28-.42.48-.62l.14-.15.97.96-.14.14Z" style="fill: #171717;" />
    <path d="m97.81,43.31c.14.23.32.36.5.39.19.02.39-.02.61-.13l4.12-4.57.84,1.34-2.99,2.93v.02s3.88-1.54,3.88-1.54l.81,1.29-5.43,1.74c-.48.15-.89.25-1.21.32-.32.06-.6.06-.82.01-.23-.05-.43-.16-.59-.33-.17-.17-.34-.4-.54-.7l-.33-.52.96-.6c.05.12.12.24.19.35" style="fill: #171717;" />
    <path d="m106.7,45.85l-.66.22v.02c.34.06.61.19.82.39.21.2.36.46.47.77.15.46.14.85-.02,1.18-.17.33-.54.59-1.1.78l-4.16,1.38-.48-1.44,3.87-1.29c.29-.1.48-.21.56-.35.08-.14.09-.31.02-.53-.17-.51-.56-.66-1.18-.45l-3.73,1.24-.48-1.44,5.62-1.87.46,1.38Z" style="fill: #171717;" />
    <path d="m106.55,53.67c.14-.03.26-.07.37-.13.11-.05.2-.13.26-.22.06-.09.09-.21.08-.36-.02-.18-.07-.33-.16-.44-.09-.11-.22-.19-.39-.23-.17-.05-.38-.07-.64-.08-.25,0-.55,0-.89.03-.37.03-.68.06-.94.1-.26.04-.47.09-.63.17-.16.07-.28.16-.35.27-.07.11-.1.25-.09.42.02.26.14.43.37.54.23.1.58.13,1.07.1l.11,1.45c-.77.06-1.38-.08-1.81-.39-.43-.32-.68-.88-.74-1.68-.03-.38,0-.71.07-1,.07-.29.21-.53.44-.74.22-.2.53-.37.92-.49s.88-.21,1.48-.25c.61-.05,1.11-.02,1.52.06.41.09.73.23.99.42.25.2.44.44.55.72.12.29.19.6.21.95.05.7-.11,1.25-.5,1.63-.38.38-.93.6-1.63.65l-.11-1.44c.15-.01.29-.03.43-.06" style="fill: #171717;" />
  </g>
  <g /></svg>