<svg xmlns="http://www.w3.org/2000/svg" width="20.41mm" height="130.6mm" viewBox="0 0 57.85 370.19">
  <defs>
    <clipPath id="clip-path">
      <rect x="15.02" y="80.65" width="27.8" height="25.62" style="fill: none" />
    </clipPath>
    <clipPath id="clip-path-3">
      <rect x="15.02" y="32.85" width="27.8" height="25.62" style="fill: none" />
    </clipPath>
    <clipPath id="clip-path-5">
      <rect x="15.02" y="177.41" width="27.8" height="25.62" style="fill: none" />
    </clipPath>
    <clipPath id="clip-path-7">
      <rect x="15.02" y="129.23" width="27.8" height="25.62" style="fill: none" />
    </clipPath>
  </defs>
  <g id="faceplate">
    <rect x="0.13" y="0.13" width="57.6" height="364.25" style="fill: #ededed;stroke: #9d9d9e;stroke-miterlimit: 10;stroke-width: 0.25px" />
    <g id="pips_-_fewest" data-name="pips - fewest">
      <g style="clip-path: url(#clip-path)">
        <g style="clip-path: url(#clip-path)">
          <path d="M34.62,83.43l.71-1.23a14,14,0,0,0-5.77-1.55v1.43a12.55,12.55,0,0,1,5.06,1.35" />
          <path d="M39.41,87.77l1.24-.71a14,14,0,0,0-4.23-4.23l-.71,1.24a12.55,12.55,0,0,1,3.7,3.7" />
          <path d="M22.14,84.07l-.71-1.24a14,14,0,0,0-4.23,4.23l1.24.71a12.55,12.55,0,0,1,3.7-3.7" />
          <path d="M41.4,93.92h1.43a13.87,13.87,0,0,0-1.55-5.77l-1.23.72a12.46,12.46,0,0,1,1.35,5" />
          <path d="M28.29,82.08V80.66a13.86,13.86,0,0,0-5.77,1.54l.71,1.23a12.55,12.55,0,0,1,5.06-1.35" />
          <path d="M18.44,101.34l-1.24.72a14.07,14.07,0,0,0,4.23,4.22l.71-1.23a12.58,12.58,0,0,1-3.7-3.71" />
          <path d="M35.71,105.05l.71,1.23a14.07,14.07,0,0,0,4.23-4.22l-1.24-.72a12.58,12.58,0,0,1-3.7,3.71" />
          <path d="M41.4,95.19a12.51,12.51,0,0,1-1.35,5.06l1.23.71a13.87,13.87,0,0,0,1.55-5.77Z" />
          <path d="M16.45,95.19H15A13.87,13.87,0,0,0,16.57,101l1.23-.71a12.51,12.51,0,0,1-1.35-5.06" />
          <path d="M17.8,88.87l-1.23-.72A13.87,13.87,0,0,0,15,93.92h1.43a12.46,12.46,0,0,1,1.35-5" />
        </g>
      </g>
    </g>
    <g>
      <path d="M22,354.91a2.36,2.36,0,0,1-.3,1.21,1.91,1.91,0,0,1-.81.78,2.6,2.6,0,0,1-1.21.27l-.46,0a5.57,5.57,0,0,1-.73-.16,5.71,5.71,0,0,1-.95-.4v-1.83a6.26,6.26,0,0,0,.91.58,2,2,0,0,0,1,.23c.31,0,.52-.06.61-.19a.61.61,0,0,0,.14-.36.63.63,0,0,0-.24-.5,3.33,3.33,0,0,0-.69-.43,4.93,4.93,0,0,1-.88-.56,2.26,2.26,0,0,1-.86-1.84,2.45,2.45,0,0,1,.24-1.09,1.83,1.83,0,0,1,.74-.77,2.31,2.31,0,0,1,1.21-.29,3.53,3.53,0,0,1,.95.12,3.31,3.31,0,0,1,.71.27,3.65,3.65,0,0,1,.39.23v1.75a5.14,5.14,0,0,0-.83-.59,2,2,0,0,0-1-.25.63.63,0,0,0-.49.16.54.54,0,0,0-.16.4.52.52,0,0,0,.16.38,3,3,0,0,0,.55.39,11.18,11.18,0,0,1,1.12.72,2.49,2.49,0,0,1,.67.75A2.09,2.09,0,0,1,22,354.91Z" />
      <path d="M27.83,357.07h-4.6v-7.44h4.53v1.49H25.07v1.37h2.56V354H25.07v1.59h2.76Z" />
      <path d="M35.86,357.61,34.57,359a8.56,8.56,0,0,1-1.51-.55,10.37,10.37,0,0,1-1.5-.85,4.1,4.1,0,0,1-.88-.75,3,3,0,0,1-1-.68A3.79,3.79,0,0,1,29,355a4.89,4.89,0,0,1,.09-3.55,3.26,3.26,0,0,1,1.16-1.41,3.31,3.31,0,0,1,1.92-.53,3.51,3.51,0,0,1,1.53.31,2.9,2.9,0,0,1,1.09.85,3.56,3.56,0,0,1,.64,1.22,4.9,4.9,0,0,1,.21,1.43,4.45,4.45,0,0,1-.27,1.61,3.52,3.52,0,0,1-.69,1.17,3.39,3.39,0,0,1-1,.74,6.28,6.28,0,0,0,1,.45,3.31,3.31,0,0,0,1.13.18Zm-2.14-4.27a2.64,2.64,0,0,0-.1-.76,1.71,1.71,0,0,0-.31-.6,1.31,1.31,0,0,0-.5-.4,1.62,1.62,0,0,0-.68-.14A1.4,1.4,0,0,0,31,352a2.13,2.13,0,0,0-.43,1.38,2.18,2.18,0,0,0,.43,1.39,1.41,1.41,0,0,0,1.16.53,1.46,1.46,0,0,0,1.4-.92A2.41,2.41,0,0,0,33.72,353.34Z" />
      <path d="M41,355.47h-.72v1.6H38.66v-1.6H36.18v-1.42l2.8-4.42h1.31v4.56H41Zm-2.35-1.28V351.8l-1.51,2.39Z" />
    </g>
    <path d="M31.2,118.12H26.67V118c.17-.19.37-.42.58-.69s.47-.62.8-1.06a7.21,7.21,0,0,0,.43-.58,4.93,4.93,0,0,0,.34-.56,2.69,2.69,0,0,0,.24-.6,2.18,2.18,0,0,0,.1-.67,1.17,1.17,0,0,0-.24-.76.76.76,0,0,0-.6-.29,2,2,0,0,0-1.46.86v-1.59l.42-.3a2.24,2.24,0,0,1,.38-.22,2.61,2.61,0,0,1,.5-.19,2.59,2.59,0,0,1,.63-.08,2,2,0,0,1,1,.26,1.8,1.8,0,0,1,.7.72,2.33,2.33,0,0,1,.25,1.11,3.22,3.22,0,0,1-.11.84,4.22,4.22,0,0,1-.24.63l-.33.59c-.25.42-.51.82-.79,1.2H31.2Z" />
    <g>
      <path d="M34.54,6.76l-5.53,7v-6a1.27,1.27,0,0,0-.64-1.17.89.89,0,0,0-1.13.29L20,16.13a1.49,1.49,0,0,0,0,1.79.9.9,0,0,0,1.46,0l5.5-7v6a1.29,1.29,0,0,0,.64,1.18.92.92,0,0,0,1.14-.3l5.53-7v6.15a1.05,1.05,0,1,0,2.06,0V7.64a1.28,1.28,0,0,0-.65-1.18A.91.91,0,0,0,34.54,6.76Z" style="stroke: #000;stroke-width: 0.6000000000000001px" />
      <path d="M20,6.68l-4.81,6.13a1.47,1.47,0,0,0,0,1.79.9.9,0,0,0,1.46,0l3.05-3.87V17a1.17,1.17,0,0,0,1,1.26,1.17,1.17,0,0,0,1-1.26V7.56a1.29,1.29,0,0,0-.65-1.17A.91.91,0,0,0,20,6.68Z" style="stroke: #000;stroke-width: 0.6000000000000001px" />
      <path d="M42.91,11.2a1.05,1.05,0,0,0-.95-.77h-2.1l1.53-1.95s.8-1.17.1-1.82a1.27,1.27,0,0,0-1.58.06l-3.23,4.1a1.45,1.45,0,0,0-.2,1.37,1,1,0,0,0,1,.78h2.1L37,16.14s-1,1.13-.27,1.89,1.75-.14,1.75-.14l4.18-5.31A1.5,1.5,0,0,0,42.91,11.2Z" style="stroke: #000;stroke-width: 0.6000000000000001px" />
    </g>
    <path d="M29.28,247.47c8,0,14.54,6,14.54,13.46v60.59c0,7.42-6.52,13.46-14.54,13.46s-14.54-6-14.54-13.46V260.93c0-7.43,6.52-13.46,14.54-13.46m0-1.06c-8.61,0-15.59,6.5-15.59,14.52v60.59c0,8,7,14.51,15.59,14.51s15.59-6.5,15.59-14.51V260.93c0-8-7-14.52-15.59-14.52Z" />
    <path d="M44.84,308c0-8.08-7-14.63-15.59-14.63S13.66,300,13.66,308v8.11h0V336a5.68,5.68,0,0,0,5.67,5.67H39.17A5.68,5.68,0,0,0,44.84,336V316.15h0Z" />
    <g>
      <path d="M28.45,287.61a2.73,2.73,0,0,1-.6.28,3.72,3.72,0,0,1-.62.15,4.65,4.65,0,0,1-.66,0,3,3,0,0,1-1.11-.2,2.4,2.4,0,0,1-.86-.57,2.53,2.53,0,0,1-.54-.89,3.37,3.37,0,0,1-.18-1.12,3.3,3.3,0,0,1,.21-1.23,2.26,2.26,0,0,1,.6-.87,2.47,2.47,0,0,1,.87-.51,3.22,3.22,0,0,1,1-.17,5.05,5.05,0,0,1,1.84.41v1.44a4.32,4.32,0,0,0-.7-.42,1.86,1.86,0,0,0-.81-.16,1.75,1.75,0,0,0-.78.18,1.58,1.58,0,0,0-.58.54,1.53,1.53,0,0,0-.22.81,1.48,1.48,0,0,0,.2.75,1.4,1.4,0,0,0,.53.55,1.55,1.55,0,0,0,.77.2,2.07,2.07,0,0,0,.66-.1,2.55,2.55,0,0,0,.52-.21,4.46,4.46,0,0,0,.43-.28Z" />
      <path d="M30.24,288H29V282.6h1.24Z" />
      <path d="M35,288H33.4l-1.35-1.89V288H30.8V282.6h1.25v3.18L33.28,284h1.49L33.4,285.9Z" />
    </g>
    <g>
      <path d="M28.37,334a3.08,3.08,0,0,1-.31,1.39,2.37,2.37,0,0,1-.91,1,2.79,2.79,0,0,1-1.49.37,2.73,2.73,0,0,1-1.49-.39,2.38,2.38,0,0,1-.91-1A3.14,3.14,0,0,1,23,334a3.19,3.19,0,0,1,.3-1.37,2.42,2.42,0,0,1,.91-1,2.73,2.73,0,0,1,1.49-.39,2.92,2.92,0,0,1,1.18.23,2.12,2.12,0,0,1,.85.6,2.53,2.53,0,0,1,.51.89A3.36,3.36,0,0,1,28.37,334Zm-1.46,0a2,2,0,0,0-.08-.56,1.49,1.49,0,0,0-.24-.43,1,1,0,0,0-.39-.29,1.3,1.3,0,0,0-.54-.11,1.12,1.12,0,0,0-.9.39,1.47,1.47,0,0,0-.33,1,1.52,1.52,0,0,0,.33,1,1.14,1.14,0,0,0,.9.38,1.23,1.23,0,0,0,.68-.18,1.19,1.19,0,0,0,.42-.49A1.66,1.66,0,0,0,26.91,334Z" style="fill: #fff" />
      <path d="M32.46,336.68H31.23v-.57a1.84,1.84,0,0,1-.55.48,1.38,1.38,0,0,1-.69.16,1,1,0,0,1-1-.52,3,3,0,0,1-.23-1.19V332.7H30v2.15a1.61,1.61,0,0,0,.1.57.4.4,0,0,0,.41.25.54.54,0,0,0,.43-.18,2.92,2.92,0,0,0,.33-.45V332.7h1.23Z" style="fill: #fff" />
      <path d="M35.74,336.45a2.58,2.58,0,0,1-.53.2,2.24,2.24,0,0,1-.65.1c-.89,0-1.34-.49-1.34-1.48v-1.59h-.56v-.25l1.66-1.92h.14v1.19h1.18v1H34.46V335a1.73,1.73,0,0,0,0,.36.36.36,0,0,0,.13.23.55.55,0,0,0,.34.09,1.64,1.64,0,0,0,.78-.28Z" style="fill: #fff" />
    </g>
    <g id="pips_-_fewest-2" data-name="pips - fewest">
      <g style="clip-path: url(#clip-path-3)">
        <g style="clip-path: url(#clip-path-3)">
          <path d="M34.62,35.63l.71-1.24a13.86,13.86,0,0,0-5.77-1.54v1.43a12.39,12.39,0,0,1,5.06,1.35" />
          <path d="M39.41,40l1.24-.71A14,14,0,0,0,36.42,35l-.71,1.23a12.55,12.55,0,0,1,3.7,3.7" />
          <path d="M22.14,36.26,21.43,35a14,14,0,0,0-4.23,4.22l1.24.71a12.55,12.55,0,0,1,3.7-3.7" />
          <path d="M41.4,46.12h1.43a13.83,13.83,0,0,0-1.55-5.77l-1.23.71a12.47,12.47,0,0,1,1.35,5.06" />
          <path d="M28.29,34.28V32.85a13.86,13.86,0,0,0-5.77,1.54l.71,1.24a12.39,12.39,0,0,1,5.06-1.35" />
          <path d="M18.44,53.54l-1.24.71a14,14,0,0,0,4.23,4.22l.71-1.23a12.55,12.55,0,0,1-3.7-3.7" />
          <path d="M35.71,57.24l.71,1.23a14,14,0,0,0,4.23-4.22l-1.24-.71a12.55,12.55,0,0,1-3.7,3.7" />
          <path d="M41.4,47.38a12.47,12.47,0,0,1-1.35,5.06l1.23.71a13.83,13.83,0,0,0,1.55-5.77Z" />
          <path d="M16.45,47.38H15a13.83,13.83,0,0,0,1.55,5.77l1.23-.71a12.47,12.47,0,0,1-1.35-5.06" />
          <path d="M17.8,41.06l-1.23-.71A13.83,13.83,0,0,0,15,46.12h1.43a12.47,12.47,0,0,1,1.35-5.06" />
        </g>
      </g>
    </g>
    <path d="M29.88,69.45H28.25V62.68h1.63Z" />
    <g id="pips_-_fewest-3" data-name="pips - fewest">
      <g style="clip-path: url(#clip-path-5)">
        <g style="clip-path: url(#clip-path-5)">
          <path d="M34.62,180.19l.71-1.23a14,14,0,0,0-5.77-1.55v1.43a12.55,12.55,0,0,1,5.06,1.35" />
          <path d="M39.41,184.53l1.24-.71a14,14,0,0,0-4.23-4.23l-.71,1.24a12.55,12.55,0,0,1,3.7,3.7" />
          <path d="M22.14,180.83l-.71-1.24a14,14,0,0,0-4.23,4.23l1.24.71a12.55,12.55,0,0,1,3.7-3.7" />
          <path d="M41.4,190.68h1.43a13.87,13.87,0,0,0-1.55-5.77l-1.23.72a12.46,12.46,0,0,1,1.35,5.05" />
          <path d="M28.29,178.84v-1.43A14,14,0,0,0,22.52,179l.71,1.23a12.55,12.55,0,0,1,5.06-1.35" />
          <path d="M18.44,198.1l-1.24.71A14,14,0,0,0,21.43,203l.71-1.23a12.7,12.7,0,0,1-3.7-3.71" />
          <path d="M35.71,201.81l.71,1.23a14.07,14.07,0,0,0,4.23-4.22l-1.24-.72a12.58,12.58,0,0,1-3.7,3.71" />
          <path d="M41.4,192A12.51,12.51,0,0,1,40.05,197l1.23.71A13.87,13.87,0,0,0,42.83,192Z" />
          <path d="M16.45,192H15a13.87,13.87,0,0,0,1.55,5.77L17.8,197A12.51,12.51,0,0,1,16.45,192" />
          <path d="M17.8,185.63l-1.23-.72A13.87,13.87,0,0,0,15,190.68h1.43a12.46,12.46,0,0,1,1.35-5.05" />
        </g>
      </g>
    </g>
    <path d="M31.36,212.56h-.7V214H29.07v-1.46H26.65v-1.29l2.73-4h1.28v4.14h.7Zm-2.29-1.17v-2.16l-1.48,2.16Z" />
    <g id="pips_-_fewest-4" data-name="pips - fewest">
      <g style="clip-path: url(#clip-path-7)">
        <g style="clip-path: url(#clip-path-7)">
          <path d="M34.62,132l.71-1.24a13.86,13.86,0,0,0-5.77-1.54v1.42A12.4,12.4,0,0,1,34.62,132" />
          <path d="M39.41,136.34l1.24-.71a14,14,0,0,0-4.23-4.23l-.71,1.24a12.55,12.55,0,0,1,3.7,3.7" />
          <path d="M22.14,132.64l-.71-1.23a13.85,13.85,0,0,0-4.23,4.22l1.24.71a12.55,12.55,0,0,1,3.7-3.7" />
          <path d="M41.4,142.49h1.43a13.91,13.91,0,0,0-1.55-5.77l-1.23.72a12.46,12.46,0,0,1,1.35,5.05" />
          <path d="M28.29,130.65v-1.42a13.86,13.86,0,0,0-5.77,1.54l.71,1.23a12.72,12.72,0,0,1,5.06-1.35" />
          <path d="M18.44,149.91l-1.24.72a14.07,14.07,0,0,0,4.23,4.22l.71-1.23a12.58,12.58,0,0,1-3.7-3.71" />
          <path d="M35.71,153.62l.71,1.23a14.07,14.07,0,0,0,4.23-4.22l-1.24-.72a12.58,12.58,0,0,1-3.7,3.71" />
          <path d="M41.4,143.76a12.51,12.51,0,0,1-1.35,5.06l1.23.71a13.87,13.87,0,0,0,1.55-5.77Z" />
          <path d="M16.45,143.76H15a13.87,13.87,0,0,0,1.55,5.77l1.23-.71a12.51,12.51,0,0,1-1.35-5.06" />
          <path d="M17.8,137.44l-1.23-.72A13.91,13.91,0,0,0,15,142.49h1.43a12.46,12.46,0,0,1,1.35-5.05" />
        </g>
      </g>
    </g>
    <path d="M31,164a2,2,0,0,1-.19.91,1.64,1.64,0,0,1-.49.61,1.89,1.89,0,0,1-.64.34,2.16,2.16,0,0,1-.65.11,3.73,3.73,0,0,1-1-.15,4,4,0,0,1-.92-.34v-1.52a2.9,2.9,0,0,0,.65.47,1.45,1.45,0,0,0,.72.2.86.86,0,0,0,.47-.12.89.89,0,0,0,.29-.29.9.9,0,0,0,0-.84.81.81,0,0,0-.34-.32,1.15,1.15,0,0,0-.53-.12h-.2V161.8h.23a.87.87,0,0,0,.5-.13.84.84,0,0,0,.28-.32.75.75,0,0,0,.09-.34.81.81,0,0,0-.21-.55.71.71,0,0,0-.54-.23,1.75,1.75,0,0,0-.62.12,2.61,2.61,0,0,0-.6.35v-1.3a6,6,0,0,1,.79-.32,3.11,3.11,0,0,1,.84-.11,2,2,0,0,1,1.13.3,1.88,1.88,0,0,1,.87,1.51,1.61,1.61,0,0,1-.12.6,2,2,0,0,1-.3.54,1.68,1.68,0,0,1-.39.37,2.07,2.07,0,0,1,.63.59A1.77,1.77,0,0,1,31,164Z" />
  </g>
  <g /></svg>