<?xml version="1.0" encoding="UTF-8" standalone="no"?>
<svg
   width="40.64mm"
   height="130.55mm"
   viewBox="0 0 115.2 370.07"
   version="1.1"
   id="svg96"
   sodipodi:docname="Seq8_artwork.svg"
   inkscape:version="1.4.2 (ebf0e940, 2025-05-08)"
   xmlns:inkscape="http://www.inkscape.org/namespaces/inkscape"
   xmlns:sodipodi="http://sodipodi.sourceforge.net/DTD/sodipodi-0.dtd"
   xmlns="http://www.w3.org/2000/svg"
   xmlns:svg="http://www.w3.org/2000/svg">
  <defs
     id="defs96" />
  <sodipodi:namedview
     id="namedview96"
     pagecolor="#ffffff"
     bordercolor="#000000"
     borderopacity="0.25"
     inkscape:showpageshadow="2"
     inkscape:pageopacity="0.0"
     inkscape:pagecheckerboard="0"
     inkscape:deskcolor="#d1d1d1"
     inkscape:document-units="mm"
     inkscape:zoom="0.71300759"
     inkscape:cx="-45.581563"
     inkscape:cy="367.45752"
     inkscape:window-width="1200"
     inkscape:window-height="979"
     inkscape:window-x="528"
     inkscape:window-y="38"
     inkscape:window-maximized="0"
     inkscape:current-layer="svg96" />
  <g
     id="faceplate">
    <g
       id="g1">
      <path
         id="rect1"
         style="fill:#ededed;stroke-width:0px"
         d="m 0.12,0.13 h 114.95 v 364 H 0.12 Z" />
      <path
         d="M114.95.25v363.75H.25V.25h114.7M115.2,0H0v364.25h115.2V0h0Z"
         style="fill: #9d9d9e; stroke-width: 0px;"
         id="path1" />
    </g>
    <path
       d="m 6.1391602,-2.1645508 q 0,0.6982422 -0.3598633,1.20849611 Q 5.4248047,-0.44580078 4.7856445,-0.171875 4.1464844,0.09667969 3.3193359,0.09667969 3.0883789,0.09667969 2.75,0.06445312 2.4169922,0.03759766 1.8583984,-0.09667969 1.3051758,-0.23095703 0.70361328,-0.49414063 V -2.3203125 q 0.56396482,0.3491211 1.10644532,0.5800781 0.5478516,0.2309571 1.1708984,0.2309571 0.5747071,0 0.741211,-0.1879883 0.171875,-0.1933594 0.171875,-0.3598633 0,-0.3007813 -0.2900391,-0.5048828 Q 3.3139648,-2.7714844 2.7607422,-2.9916992 2.1484375,-3.2495117 1.6865234,-3.550293 1.2246094,-3.8564453 0.92919922,-4.3129883 0.63916016,-4.7695312 0.63916016,-5.3925781 q 0,-0.6015625 0.29541015,-1.084961 0.29541019,-0.4887695 0.90234379,-0.7788086 0.6069336,-0.290039 1.4824218,-0.290039 0.6230469,0 1.1494141,0.1235351 0.5317383,0.1181641 0.8754883,0.2685547 0.34375,0.1503907 0.4726562,0.2363282 v 1.7456054 Q 5.3603516,-5.5 4.7963867,-5.7578125 4.237793,-6.015625 3.5986328,-6.015625 q -0.4189453,0 -0.6069336,0.1611328 -0.1879883,0.1611328 -0.1879883,0.397461 0,0.2202148 0.1879883,0.3813476 0.1879883,0.1611328 0.6713867,0.3920899 0.859375,0.402832 1.375,0.7250976 0.515625,0.3222656 0.8056641,0.746582 0.2954102,0.4189453 0.2954102,1.0473633 z M 13.277344,0 H 7.6645508 v -7.4443359 h 5.5214842 v 1.493164 H 9.909668 v 1.3642578 h 3.125977 v 1.4985352 H 9.909668 v 1.5898437 h 3.367676 z M 23.063477,0.53710937 21.489746,1.9711914 Q 20.560547,1.7670898 19.652832,1.4179687 18.745117,1.0742187 17.82666,0.56933594 17.112305,0.17724609 16.752441,-0.17724609 16.129395,-0.39746094 15.570801,-0.859375 q -0.558594,-0.4672852 -0.918457,-1.1923828 -0.354492,-0.7250977 -0.354492,-1.6757813 0,-1.0043945 0.461914,-1.8745117 0.461914,-0.8754883 1.417968,-1.4072265 0.961426,-0.5371094 2.341797,-0.5371094 1.063477,0 1.869141,0.3168945 0.811035,0.3115235 1.32666,0.8486328 0.520996,0.5317383 0.773438,1.2246094 0.257812,0.6875 0.257812,1.4287109 0,0.9023438 -0.322266,1.6059571 -0.322265,0.7036133 -0.843261,1.17089841 -0.520996,0.46728515 -1.17627,0.74121093 0.601563,0.26855469 1.208496,0.44580079 0.606934,0.18261718 1.385742,0.18261718 z M 20.458496,-3.7275391 q 0,-0.4189453 -0.123535,-0.7626953 -0.123535,-0.3491211 -0.375977,-0.6015625 -0.24707,-0.2578125 -0.606933,-0.3974609 -0.359864,-0.1450195 -0.83252,-0.1450195 -0.902344,0 -1.417969,0.5263671 -0.515625,0.5263672 -0.515625,1.3803711 0,0.8540039 0.515625,1.3857422 0.520997,0.5263672 1.417969,0.5263672 0.617676,0 1.052735,-0.2416992 0.435058,-0.2470703 0.660644,-0.6767578 0.225586,-0.4350586 0.225586,-0.9936524 z m 12.187012,1.7241211 q 0,0.2631836 -0.112793,0.6015625 -0.107422,0.3383789 -0.413574,0.68750003 -0.306153,0.34375 -0.891602,0.58007813 -0.585449,0.23095703 -1.487793,0.23095703 -0.918457,0 -1.498535,-0.23095703 -0.580078,-0.23095704 -0.896973,-0.58007813 -0.311523,-0.35449223 -0.408203,-0.67675783 -0.09668,-0.3276367 -0.09668,-0.6123047 0,-0.5639648 0.322266,-1.0634765 0.322266,-0.4995118 0.875488,-0.7734375 -0.451172,-0.284668 -0.698242,-0.6499024 -0.24707,-0.3706054 -0.24707,-0.9453125 0,-0.3222656 0.134277,-0.6821289 0.139649,-0.3598633 0.445801,-0.6928711 0.311523,-0.3330078 0.821777,-0.5317383 0.515625,-0.2041015 1.246094,-0.2041015 0.762695,0 1.272949,0.2041015 0.510254,0.1987305 0.821778,0.5317383 0.311523,0.3276367 0.435058,0.6821289 0.123535,0.3544922 0.123535,0.6928711 0,0.5908203 -0.241699,0.9453125 -0.236328,0.3491211 -0.703613,0.6499024 0.370605,0.1933593 0.628418,0.4726562 0.263183,0.2739258 0.413574,0.6337891 0.155762,0.3598633 0.155762,0.7304687 z m -2.132324,-3.2871093 q 0,-0.3544922 -0.177247,-0.6767579 -0.171875,-0.3222656 -0.574707,-0.3222656 -0.413574,0 -0.601562,0.3115235 -0.187988,0.3061523 -0.187988,0.6875 0,0.4350586 0.230957,0.7143554 0.236328,0.2739258 0.537109,0.2739258 0.306152,0 0.537109,-0.2739258 0.236329,-0.2792968 0.236329,-0.7143554 z m 0.220214,3.0883789 q 0,-0.34375 -0.15039,-0.5908204 -0.150391,-0.2524414 -0.381348,-0.3759765 -0.230957,-0.1289063 -0.461914,-0.1289063 -0.375976,0 -0.682129,0.2954102 -0.306152,0.2954101 -0.306152,0.800293 0,0.5424804 0.306152,0.8271484 0.306153,0.284668 0.692871,0.284668 0.397461,0 0.6875,-0.3061524 0.29541,-0.3061523 0.29541,-0.805664 z"
       id="text1"
       style="font-weight:700;font-size:11px;font-family:GillSans-Bold, 'Gill Sans'"
       transform="translate(44.07 357.48) scale(.82 1)"
       aria-label="SEQ 8" />
    <path
       d="M104,46.46h2.26c-.15-3.28-1.01-6.37-2.44-9.12l-1.95,1.13c1.24,2.42,1.99,5.13,2.14,8Z"
       style="fill: #000; stroke-width: 0px;"
       id="path2" />
    <path
       d="M104,48.46c-.14,2.87-.89,5.57-2.14,8l1.95,1.13c1.43-2.75,2.3-5.84,2.44-9.12h-2.26Z"
       style="fill: #000; stroke-width: 0px;"
       id="path3" />
    <path
       d="M 4.6699219,0 H 2.4492188 v -8.1210938 h 2.2207031 z"
       id="text3"
       style="font-weight:700;font-size:12px;font-family:GillSans-Bold, 'Gill Sans';letter-spacing:-0.04em"
       transform="translate(29.5 75.45) scale(.88 1)"
       aria-label="1" />
    <g
       id="g13">
      <path
         d="M41.75,29.88l1.13-1.95c-2.75-1.43-5.84-2.3-9.12-2.44v2.26c2.87.14,5.57.89,7.99,2.14Z"
         style="fill: #000; stroke-width: 0px;"
         id="path4" />
      <path
         d="M49.33,36.73l1.95-1.13c-1.72-2.68-4-4.96-6.68-6.68l-1.13,1.95c2.34,1.52,4.33,3.51,5.85,5.85Z"
         style="fill: #000; stroke-width: 0px;"
         id="path5" />
      <path
         d="M22.02,30.88l-1.13-1.95c-2.68,1.72-4.96,4-6.68,6.68l1.95,1.13c1.52-2.34,3.51-4.33,5.85-5.85Z"
         style="fill: #000; stroke-width: 0px;"
         id="path6" />
      <path
         d="M52.47,46.46h2.26c-.15-3.28-1.01-6.37-2.44-9.12l-1.95,1.13c1.24,2.42,1.99,5.13,2.14,8Z"
         style="fill: #000; stroke-width: 0px;"
         id="path7" />
      <path
         d="M31.75,27.74v-2.26c-3.28.15-6.37,1.01-9.12,2.44l1.13,1.95c2.42-1.24,5.13-1.99,8-2.14Z"
         style="fill: #000; stroke-width: 0px;"
         id="path8" />
      <path
         d="M16.17,58.18l-1.95,1.13c1.72,2.68,4,4.96,6.68,6.68l1.13-1.95c-2.34-1.52-4.33-3.51-5.85-5.85Z"
         style="fill: #000; stroke-width: 0px;"
         id="path9" />
      <path
         d="M43.48,64.04l1.13,1.95c2.68-1.72,4.96-4,6.68-6.68l-1.95-1.13c-1.52,2.34-3.51,4.33-5.85,5.85Z"
         style="fill: #000; stroke-width: 0px;"
         id="path10" />
      <path
         d="M52.47,48.46c-.14,2.87-.89,5.57-2.14,8l1.95,1.13c1.43-2.75,2.3-5.84,2.44-9.12h-2.26Z"
         style="fill: #000; stroke-width: 0px;"
         id="path11" />
      <path
         d="M13.03,48.46h-2.26c.15,3.28,1.01,6.37,2.44,9.12l1.95-1.13c-1.24-2.42-1.99-5.13-2.14-8Z"
         style="fill: #000; stroke-width: 0px;"
         id="path12" />
      <path
         d="M15.17,38.46l-1.95-1.13c-1.43,2.75-2.3,5.84-2.44,9.12h2.26c.14-2.87.89-5.57,2.14-8Z"
         style="fill: #000; stroke-width: 0px;"
         id="path13" />
    </g>
    <path
       d="M 6.6621094,0 H 0.4921875 v -0.15820312 q 0.35742188,-0.34570313 0.7851562,-0.82617188 0.4277344,-0.4804687 1.1015626,-1.2714844 0.3105468,-0.3574219 0.5800781,-0.703125 0.2753906,-0.3457031 0.46875,-0.6679687 0.1933594,-0.328125 0.328125,-0.7207031 0.1347656,-0.3925782 0.1347656,-0.8027344 0,-0.5625 -0.328125,-0.9082031 -0.3222656,-0.3515625 -0.8261719,-0.3515625 -0.9960937,0 -1.98046873,1.03125 V -7.2949219 Q 1.1015625,-7.5175781 1.3242187,-7.6523437 1.546875,-7.7871094 1.8339844,-7.9160156 q 0.2929687,-0.1289063 0.6914062,-0.2226563 0.3984375,-0.09375 0.8613282,-0.09375 0.7441406,0 1.3535156,0.3046875 0.609375,0.2988282 0.9550781,0.8730469 0.3515625,0.5683594 0.3515625,1.3300781 0,0.5390625 -0.1582031,1.0078125 -0.1582032,0.46875 -0.328125,0.7558594 -0.1699219,0.2871094 -0.4511719,0.7089844 -0.5039063,0.75 -1.078125,1.4296875 h 2.6308594 z"
       id="text13"
       style="font-weight:700;font-size:12px;font-family:GillSans-Bold, 'Gill Sans';letter-spacing:-0.04em"
       transform="translate(81.03 75.45) scale(.88 1)"
       aria-label="2" />
    <path
       d="M93.28,29.87l1.13-1.95c-2.75-1.43-5.84-2.3-9.12-2.44v2.26c2.87.14,5.57.89,7.99,2.14Z"
       style="fill: #000; stroke-width: 0px;"
       id="path14" />
    <path
       d="M100.86,36.73l1.95-1.13c-1.72-2.68-4-4.96-6.68-6.68l-1.13,1.95c2.34,1.52,4.33,3.51,5.85,5.85Z"
       style="fill: #000; stroke-width: 0px;"
       id="path15" />
    <path
       d="M73.56,30.88l-1.13-1.95c-2.68,1.72-4.96,4-6.68,6.68l1.95,1.13c1.52-2.34,3.51-4.33,5.85-5.85Z"
       style="fill: #000; stroke-width: 0px;"
       id="path16" />
    <path
       d="M83.28,27.74v-2.26c-3.28.15-6.37,1.01-9.12,2.44l1.13,1.95c2.42-1.24,5.13-1.99,8-2.14Z"
       style="fill: #000; stroke-width: 0px;"
       id="path17" />
    <path
       d="M67.7,58.18l-1.95,1.13c1.72,2.68,4,4.96,6.68,6.68l1.13-1.95c-2.34-1.52-4.33-3.51-5.85-5.85Z"
       style="fill: #000; stroke-width: 0px;"
       id="path18" />
    <path
       d="M95.01,64.04l1.13,1.95c2.68-1.72,4.96-4,6.68-6.68l-1.95-1.13c-1.52,2.34-3.51,4.33-5.85,5.85Z"
       style="fill: #000; stroke-width: 0px;"
       id="path19" />
    <path
       d="M64.57,48.46h-2.26c.15,3.28,1.01,6.37,2.44,9.12l1.95-1.13c-1.24-2.42-1.99-5.13-2.14-8Z"
       style="fill: #000; stroke-width: 0px;"
       id="path20" />
    <path
       d="M66.7,38.46l-1.95-1.13c-1.43,2.75-2.3,5.84-2.44,9.12h2.26c.14-2.87.89-5.57,2.14-8Z"
       style="fill: #000; stroke-width: 0px;"
       id="path21" />
    <path
       d="m 6.1582031,-2.2558594 q 0,0.6386719 -0.2519531,1.0898438 Q 5.6542969,-0.71484375 5.2382812,-0.42773438 4.828125,-0.14648437 4.3652344,-0.01757813 3.9023438,0.10546875 3.46875,0.10546875 q -0.6152344,0 -1.359375,-0.16992187 Q 1.3652344,-0.24023438 0.86132813,-0.48046875 V -2.3027344 Q 1.2714844,-1.9628906 1.7460937,-1.7285156 2.2207031,-1.5 2.7246094,-1.5 3.1054688,-1.5 3.3632813,-1.640625 3.6269531,-1.78125 3.7558594,-1.9921875 3.890625,-2.2089844 3.890625,-2.4492188 3.890625,-2.7597656 3.7265625,-3 3.5625,-3.2402344 3.2519531,-3.3808594 2.9414063,-3.5273438 2.53125,-3.5273438 H 2.2675781 V -4.8339844 H 2.578125 q 0.4101563,0 0.6738281,-0.1582031 0.2695313,-0.1582031 0.3867188,-0.375 0.1171875,-0.2226562 0.1171875,-0.4160156 0,-0.3691406 -0.2871094,-0.6503906 -0.28125,-0.2871094 -0.7324219,-0.2871094 -0.4042968,0 -0.84375,0.1523437 -0.4335937,0.1523438 -0.8144531,0.4101563 v -1.5585938 q 0.5742187,-0.2402343 1.078125,-0.375 0.5097656,-0.140625 1.1425781,-0.140625 0.9199219,0 1.5351563,0.3574219 0.6210937,0.3574219 0.9023437,0.8671875 0.2871094,0.5039063 0.2871094,0.9492188 0,0.3632812 -0.1582031,0.7265625 Q 5.7070312,-4.96875 5.4492187,-4.6875 5.1972656,-4.40625 4.921875,-4.2480469 q 0.4863281,0.2578125 0.8613281,0.7148438 0.375,0.4570312 0.375,1.2773437 z"
       id="text21"
       style="font-weight:700;font-size:12px;font-family:GillSans-Bold, 'Gill Sans';letter-spacing:-0.04em"
       transform="translate(29.5 132.54) scale(.88 1)"
       aria-label="3" />
    <path
       d="M41.75,86.96l1.13-1.95c-2.75-1.43-5.84-2.3-9.12-2.44v2.26c2.87.14,5.57.89,7.99,2.14Z"
       style="fill: #000; stroke-width: 0px;"
       id="path22" />
    <path
       d="M49.33,93.82l1.95-1.13c-1.72-2.68-4-4.96-6.68-6.68l-1.13,1.95c2.34,1.52,4.33,3.51,5.85,5.85Z"
       style="fill: #000; stroke-width: 0px;"
       id="path23" />
    <path
       d="M22.02,87.96l-1.13-1.95c-2.68,1.72-4.96,4-6.68,6.68l1.95,1.13c1.52-2.34,3.51-4.33,5.85-5.85Z"
       style="fill: #000; stroke-width: 0px;"
       id="path24" />
    <path
       d="M52.47,103.54h2.26c-.15-3.28-1.01-6.37-2.44-9.12l-1.95,1.13c1.24,2.42,1.99,5.13,2.14,8Z"
       style="fill: #000; stroke-width: 0px;"
       id="path25" />
    <path
       d="M31.75,84.83v-2.26c-3.28.15-6.37,1.01-9.12,2.44l1.13,1.95c2.42-1.24,5.13-1.99,8-2.14Z"
       style="fill: #000; stroke-width: 0px;"
       id="path26" />
    <path
       d="M16.17,115.27l-1.95,1.13c1.72,2.68,4,4.96,6.68,6.68l1.13-1.95c-2.34-1.52-4.33-3.51-5.85-5.85Z"
       style="fill: #000; stroke-width: 0px;"
       id="path27" />
    <path
       d="M43.48,121.12l1.13,1.95c2.68-1.72,4.96-4,6.68-6.68l-1.95-1.13c-1.52,2.34-3.51,4.33-5.85,5.85Z"
       style="fill: #000; stroke-width: 0px;"
       id="path28" />
    <path
       d="M52.47,105.54c-.14,2.87-.89,5.57-2.14,8l1.95,1.13c1.43-2.75,2.3-5.84,2.44-9.12h-2.26Z"
       style="fill: #000; stroke-width: 0px;"
       id="path29" />
    <path
       d="M13.03,105.54h-2.26c.15,3.28,1.01,6.37,2.44,9.12l1.95-1.13c-1.24-2.42-1.99-5.13-2.14-8Z"
       style="fill: #000; stroke-width: 0px;"
       id="path30" />
    <path
       d="M15.17,95.55l-1.95-1.13c-1.43,2.75-2.3,5.84-2.44,9.12h2.26c.14-2.87.89-5.57,2.14-8Z"
       style="fill: #000; stroke-width: 0px;"
       id="path31" />
    <path
       d="M 6.6972656,-1.7519531 H 5.7363281 V 0 H 3.5742188 V -1.7519531 H 0.27539063 v -1.546875 L 3.9960938,-8.1210938 h 1.7402343 v 4.9746094 H 6.6972656 Z M 3.5742188,-3.1464844 v -2.6015625 l -2.0156251,2.6015625 z"
       id="text31"
       style="font-weight:700;font-size:12px;font-family:GillSans-Bold, 'Gill Sans';letter-spacing:-0.04em"
       transform="translate(81.03 132.54) scale(.88 1)"
       aria-label="4" />
    <path
       d="M93.28,86.96l1.13-1.95c-2.75-1.43-5.84-2.3-9.12-2.44v2.26c2.87.14,5.57.89,7.99,2.14Z"
       style="fill: #000; stroke-width: 0px;"
       id="path32" />
    <path
       d="M100.86,93.82l1.95-1.13c-1.72-2.68-4-4.96-6.68-6.68l-1.13,1.95c2.34,1.52,4.33,3.51,5.85,5.85Z"
       style="fill: #000; stroke-width: 0px;"
       id="path33" />
    <path
       d="M73.56,87.96l-1.13-1.95c-2.68,1.72-4.96,4-6.68,6.68l1.95,1.13c1.52-2.34,3.51-4.33,5.85-5.85Z"
       style="fill: #000; stroke-width: 0px;"
       id="path34" />
    <path
       d="M104,103.54h2.26c-.15-3.28-1.01-6.37-2.44-9.12l-1.95,1.13c1.24,2.42,1.99,5.13,2.14,8Z"
       style="fill: #000; stroke-width: 0px;"
       id="path35" />
    <path
       d="M83.28,84.83v-2.26c-3.28.15-6.37,1.01-9.12,2.44l1.13,1.95c2.42-1.24,5.13-1.99,8-2.14Z"
       style="fill: #000; stroke-width: 0px;"
       id="path36" />
    <path
       d="M67.7,115.27l-1.95,1.13c1.72,2.68,4,4.96,6.68,6.68l1.13-1.95c-2.34-1.52-4.33-3.51-5.85-5.85Z"
       style="fill: #000; stroke-width: 0px;"
       id="path37" />
    <path
       d="M95.01,121.12l1.13,1.95c2.68-1.72,4.96-4,6.68-6.68l-1.95-1.13c-1.52,2.34-3.51,4.33-5.85,5.85Z"
       style="fill: #000; stroke-width: 0px;"
       id="path38" />
    <path
       d="M104,105.54c-.14,2.87-.89,5.57-2.14,8l1.95,1.13c1.43-2.75,2.3-5.84,2.44-9.12h-2.26Z"
       style="fill: #000; stroke-width: 0px;"
       id="path39" />
    <path
       d="M64.57,105.54h-2.26c.15,3.28,1.01,6.37,2.44,9.12l1.95-1.13c-1.24-2.42-1.99-5.13-2.14-8Z"
       style="fill: #000; stroke-width: 0px;"
       id="path40" />
    <path
       d="M66.7,95.55l-1.95-1.13c-1.43,2.75-2.3,5.84-2.44,9.12h2.26c.14-2.87.89-5.57,2.14-8Z"
       style="fill: #000; stroke-width: 0px;"
       id="path41" />
    <path
       d="m 6.2402344,-2.5429688 q 0,0.6972657 -0.328125,1.3066407 -0.3222657,0.60937498 -0.9785157,0.9785156 -0.6503906,0.36328125 -1.5878906,0.36328125 -0.75,0 -1.4355469,-0.19335937 Q 1.2246094,-0.28125 0.65039062,-0.67382812 V -2.4257813 q 0.37499998,0.28125 1.05468748,0.5683594 0.6855469,0.2871094 1.1894532,0.2871094 0.5976562,0 0.8378906,-0.3105469 0.2402344,-0.3164062 0.2402344,-0.6503906 0,-0.2753906 -0.140625,-0.5214844 -0.140625,-0.2460937 -0.4863282,-0.4042969 -0.3398437,-0.1640625 -0.9199218,-0.1640625 -0.6386719,0 -1.2246094,0.234375 v -4.734375 H 5.90625 v 1.7109376 H 3 v 1.3945312 q 0.09375,-0.011719 0.1933594,-0.017578 0.1054687,-0.011719 0.1464844,-0.011719 0.046875,-0.00586 0.1757812,-0.00586 0.8203125,0 1.4414062,0.3457031 0.6210938,0.3457031 0.9492188,0.9199218 0.3339844,0.5683594 0.3339844,1.2421875 z"
       id="text41"
       style="font-weight:700;font-size:12px;font-family:GillSans-Bold, 'Gill Sans';letter-spacing:-0.04em"
       transform="translate(29.5 191.85) scale(.88 1)"
       aria-label="5" />
    <path
       d="M41.75,146.27l1.13-1.95c-2.75-1.43-5.84-2.3-9.12-2.44v2.26c2.87.14,5.57.89,7.99,2.14Z"
       style="fill: #000; stroke-width: 0px;"
       id="path42" />
    <path
       d="M49.33,153.13l1.95-1.13c-1.72-2.68-4-4.96-6.68-6.68l-1.13,1.95c2.34,1.52,4.33,3.51,5.85,5.85Z"
       style="fill: #000; stroke-width: 0px;"
       id="path43" />
    <path
       d="M22.02,147.27l-1.13-1.95c-2.68,1.72-4.96,4-6.68,6.68l1.95,1.13c1.52-2.34,3.51-4.33,5.85-5.85Z"
       style="fill: #000; stroke-width: 0px;"
       id="path44" />
    <path
       d="M52.47,162.85h2.26c-.15-3.28-1.01-6.37-2.44-9.12l-1.95,1.13c1.24,2.42,1.99,5.13,2.14,8Z"
       style="fill: #000; stroke-width: 0px;"
       id="path45" />
    <path
       d="M31.75,144.14v-2.26c-3.28.15-6.37,1.01-9.12,2.44l1.13,1.95c2.42-1.24,5.13-1.99,8-2.14Z"
       style="fill: #000; stroke-width: 0px;"
       id="path46" />
    <path
       d="M16.17,174.58l-1.95,1.13c1.72,2.68,4,4.96,6.68,6.68l1.13-1.95c-2.34-1.52-4.33-3.51-5.85-5.85Z"
       style="fill: #000; stroke-width: 0px;"
       id="path47" />
    <path
       d="M43.48,180.43l1.13,1.95c2.68-1.72,4.96-4,6.68-6.68l-1.95-1.13c-1.52,2.34-3.51,4.33-5.85,5.85Z"
       style="fill: #000; stroke-width: 0px;"
       id="path48" />
    <path
       d="M52.47,164.85c-.14,2.87-.89,5.57-2.14,8l1.95,1.13c1.43-2.75,2.3-5.84,2.44-9.12h-2.26Z"
       style="fill: #000; stroke-width: 0px;"
       id="path49" />
    <path
       d="M13.03,164.85h-2.26c.15,3.28,1.01,6.37,2.44,9.12l1.95-1.13c-1.24-2.42-1.99-5.13-2.14-8Z"
       style="fill: #000; stroke-width: 0px;"
       id="path50" />
    <path
       d="M15.17,154.86l-1.95-1.13c-1.43,2.75-2.3,5.84-2.44,9.12h2.26c.14-2.87.89-5.57,2.14-8Z"
       style="fill: #000; stroke-width: 0px;"
       id="path51" />
    <path
       d="m 6.7441406,-2.8066406 q 0,0.5625 -0.2226562,1.0898437 -0.2167969,0.5214844 -0.6328125,0.93750003 -0.4160157,0.41601562 -0.9960938,0.65039062 -0.5800781,0.234375 -1.2832031,0.234375 -1.0136719,0 -1.7460938,-0.4453125 Q 1.1308594,-0.79101562 0.76171875,-1.5234375 0.3984375,-2.2617188 0.3984375,-3.1054688 q 0,-0.6855468 0.22851562,-1.3769531 0.22851563,-0.6972656 0.66210938,-1.3710937 0.4394531,-0.6796875 1.0195313,-1.265625 0.5800781,-0.5917969 1.3300781,-1.125 l 2.0039062,0.6621094 q -0.4804687,0.4101562 -0.8320312,0.75 -0.3515625,0.3339843 -0.6679688,0.6972656 -0.3164062,0.3632812 -0.5683593,0.7441406 0.2226562,-0.058594 0.5390624,-0.058594 0.7148438,0 1.3125,0.328125 0.6035157,0.328125 0.9609375,0.9316406 0.3574219,0.6035156 0.3574219,1.3828125 z m -2.109375,-0.035156 q 0,-0.5625 -0.3164062,-0.8261719 Q 4.0078125,-3.9375 3.5859375,-3.9375 q -0.5566406,0 -0.8203125,0.3574219 -0.2578125,0.3515625 -0.2578125,0.7382812 0,0.46875 0.2988281,0.796875 0.3046875,0.328125 0.7441407,0.328125 0.375,0 0.6152343,-0.1816406 0.2402344,-0.1816406 0.3515625,-0.4394531 0.1171875,-0.2636719 0.1171875,-0.5039063 z"
       id="text51"
       style="font-weight:700;font-size:12px;font-family:GillSans-Bold, 'Gill Sans';letter-spacing:-0.04em"
       transform="translate(81.03 191.85) scale(.88 1)"
       aria-label="6" />
    <path
       d="M93.28,146.27l1.13-1.95c-2.75-1.43-5.84-2.3-9.12-2.44v2.26c2.87.14,5.57.89,7.99,2.14Z"
       style="fill: #000; stroke-width: 0px;"
       id="path52" />
    <path
       d="M100.86,153.13l1.95-1.13c-1.72-2.68-4-4.96-6.68-6.68l-1.13,1.95c2.34,1.52,4.33,3.51,5.85,5.85Z"
       style="fill: #000; stroke-width: 0px;"
       id="path53" />
    <path
       d="M73.56,147.27l-1.13-1.95c-2.68,1.72-4.96,4-6.68,6.68l1.95,1.13c1.52-2.34,3.51-4.33,5.85-5.85Z"
       style="fill: #000; stroke-width: 0px;"
       id="path54" />
    <path
       d="M104,162.85h2.26c-.15-3.28-1.01-6.37-2.44-9.12l-1.95,1.13c1.24,2.42,1.99,5.13,2.14,8Z"
       style="fill: #000; stroke-width: 0px;"
       id="path55" />
    <path
       d="M83.28,144.14v-2.26c-3.28.15-6.37,1.01-9.12,2.44l1.13,1.95c2.42-1.24,5.13-1.99,8-2.14Z"
       style="fill: #000; stroke-width: 0px;"
       id="path56" />
    <path
       d="M67.7,174.58l-1.95,1.13c1.72,2.68,4,4.96,6.68,6.68l1.13-1.95c-2.34-1.52-4.33-3.51-5.85-5.85Z"
       style="fill: #000; stroke-width: 0px;"
       id="path57" />
    <path
       d="M95.01,180.43l1.13,1.95c2.68-1.72,4.96-4,6.68-6.68l-1.95-1.13c-1.52,2.34-3.51,4.33-5.85,5.85Z"
       style="fill: #000; stroke-width: 0px;"
       id="path58" />
    <path
       d="M104,164.85c-.14,2.87-.89,5.57-2.14,8l1.95,1.13c1.43-2.75,2.3-5.84,2.44-9.12h-2.26Z"
       style="fill: #000; stroke-width: 0px;"
       id="path59" />
    <path
       d="M64.57,164.85h-2.26c.15,3.28,1.01,6.37,2.44,9.12l1.95-1.13c-1.24-2.42-1.99-5.13-2.14-8Z"
       style="fill: #000; stroke-width: 0px;"
       id="path60" />
    <path
       d="M66.7,154.86l-1.95-1.13c-1.43,2.75-2.3,5.84-2.44,9.12h2.26c.14-2.87.89-5.57,2.14-8Z"
       style="fill: #000; stroke-width: 0px;"
       id="path61" />
    <path
       d="M 6.6972656,-7.8867187 3.2285156,0.10546875 1.3417969,-0.4921875 3.8261719,-6.3222656 H 0.5390625 v -1.7988282 h 6.1582031 z"
       id="text61"
       style="font-weight:700;font-size:12px;font-family:GillSans-Bold, 'Gill Sans';letter-spacing:-0.04em"
       transform="translate(29.5 250.61) scale(.88 1)"
       aria-label="7" />
    <path
       d="M41.75,205.04l1.13-1.95c-2.75-1.43-5.84-2.3-9.12-2.44v2.26c2.87.14,5.57.89,7.99,2.14Z"
       style="fill: #000; stroke-width: 0px;"
       id="path62" />
    <path
       d="M49.33,211.89l1.95-1.13c-1.72-2.68-4-4.96-6.68-6.68l-1.13,1.95c2.34,1.52,4.33,3.51,5.85,5.85Z"
       style="fill: #000; stroke-width: 0px;"
       id="path63" />
    <path
       d="M22.02,206.04l-1.13-1.95c-2.68,1.72-4.96,4-6.68,6.68l1.95,1.13c1.52-2.34,3.51-4.33,5.85-5.85Z"
       style="fill: #000; stroke-width: 0px;"
       id="path64" />
    <path
       d="M52.47,221.62h2.26c-.15-3.28-1.01-6.37-2.44-9.12l-1.95,1.13c1.24,2.42,1.99,5.13,2.14,8Z"
       style="fill: #000; stroke-width: 0px;"
       id="path65" />
    <path
       d="M31.75,202.9v-2.26c-3.28.15-6.37,1.01-9.12,2.44l1.13,1.95c2.42-1.24,5.13-1.99,8-2.14Z"
       style="fill: #000; stroke-width: 0px;"
       id="path66" />
    <path
       d="M16.17,233.35l-1.95,1.13c1.72,2.68,4,4.96,6.68,6.68l1.13-1.95c-2.34-1.52-4.33-3.51-5.85-5.85Z"
       style="fill: #000; stroke-width: 0px;"
       id="path67" />
    <path
       d="M43.48,239.2l1.13,1.95c2.68-1.72,4.96-4,6.68-6.68l-1.95-1.13c-1.52,2.34-3.51,4.33-5.85,5.85Z"
       style="fill: #000; stroke-width: 0px;"
       id="path68" />
    <path
       d="M52.47,223.62c-.14,2.87-.89,5.57-2.14,8l1.95,1.13c1.43-2.75,2.3-5.84,2.44-9.12h-2.26Z"
       style="fill: #000; stroke-width: 0px;"
       id="path69" />
    <path
       d="M13.03,223.62h-2.26c.15,3.28,1.01,6.37,2.44,9.12l1.95-1.13c-1.24-2.42-1.99-5.13-2.14-8Z"
       style="fill: #000; stroke-width: 0px;"
       id="path70" />
    <path
       d="M15.17,213.63l-1.95-1.13c-1.43,2.75-2.3,5.84-2.44,9.12h2.26c.14-2.87.89-5.57,2.14-8Z"
       style="fill: #000; stroke-width: 0px;"
       id="path71" />
    <path
       d="m 6.7324219,-2.1855469 q 0,0.2871094 -0.1230469,0.65625 -0.1171875,0.3691407 -0.4511719,0.75000003 -0.3339844,0.37499999 -0.9726562,0.6328125 Q 4.546875,0.10546875 3.5625,0.10546875 q -1.0019531,0 -1.6347656,-0.25195312 Q 1.2949219,-0.3984375 0.94921875,-0.77929687 0.609375,-1.1660156 0.50390625,-1.5175781 0.3984375,-1.875 0.3984375,-2.1855469 0.3984375,-2.8007813 0.75,-3.3457031 1.1015625,-3.890625 1.7050781,-4.1894531 1.2128906,-4.5 0.94335938,-4.8984375 q -0.26953126,-0.4042969 -0.26953126,-1.03125 0,-0.3515625 0.14648438,-0.7441406 0.15234375,-0.3925781 0.4863281,-0.7558594 0.3398438,-0.3632812 0.8964844,-0.5800781 0.5625,-0.2226563 1.359375,-0.2226563 0.8320312,0 1.3886719,0.2226563 0.5566406,0.2167969 0.8964843,0.5800781 0.3398438,0.3574219 0.4746094,0.7441406 0.1347656,0.3867188 0.1347656,0.7558594 0,0.6445313 -0.2636718,1.03125 -0.2578125,0.3808594 -0.7675782,0.7089844 0.4042969,0.2109375 0.6855469,0.515625 Q 6.3984375,-3.375 6.5625,-2.9824219 q 0.1699219,0.3925781 0.1699219,0.796875 z M 4.40625,-5.7714844 q 0,-0.3867187 -0.1933594,-0.7382812 -0.1875,-0.3515625 -0.6269531,-0.3515625 -0.4511719,0 -0.65625,0.3398437 -0.2050781,0.3339844 -0.2050781,0.75 0,0.4746094 0.2519531,0.7792969 0.2578125,0.2988281 0.5859375,0.2988281 0.3339844,0 0.5859375,-0.2988281 Q 4.40625,-5.296875 4.40625,-5.7714844 Z m 0.2402344,3.3691406 q 0,-0.375 -0.1640625,-0.6445312 Q 4.3183594,-3.3222656 4.0664062,-3.4570313 3.8144531,-3.5976563 3.5625,-3.5976563 q -0.4101562,0 -0.7441406,0.3222657 -0.3339844,0.3222656 -0.3339844,0.8730468 0,0.5917969 0.3339844,0.9023438 0.3339844,0.3105469 0.7558594,0.3105469 0.4335937,0 0.7499999,-0.3339844 0.3222657,-0.3339844 0.3222657,-0.8789063 z"
       id="text71"
       style="font-weight:700;font-size:12px;font-family:GillSans-Bold, 'Gill Sans';letter-spacing:-0.04em"
       transform="translate(81.03 250.61) scale(.88 1)"
       aria-label="8" />
    <path
       d="M93.28,205.04l1.13-1.95c-2.75-1.43-5.84-2.3-9.12-2.44v2.26c2.87.14,5.57.89,7.99,2.14Z"
       style="fill: #000; stroke-width: 0px;"
       id="path72" />
    <path
       d="M100.86,211.89l1.95-1.13c-1.72-2.68-4-4.96-6.68-6.68l-1.13,1.95c2.34,1.52,4.33,3.51,5.85,5.85Z"
       style="fill: #000; stroke-width: 0px;"
       id="path73" />
    <path
       d="M73.56,206.04l-1.13-1.95c-2.68,1.72-4.96,4-6.68,6.68l1.95,1.13c1.52-2.34,3.51-4.33,5.85-5.85Z"
       style="fill: #000; stroke-width: 0px;"
       id="path74" />
    <path
       d="M104,221.62h2.26c-.15-3.28-1.01-6.37-2.44-9.12l-1.95,1.13c1.24,2.42,1.99,5.13,2.14,8Z"
       style="fill: #000; stroke-width: 0px;"
       id="path75" />
    <path
       d="M83.28,202.9v-2.26c-3.28.15-6.37,1.01-9.12,2.44l1.13,1.95c2.42-1.24,5.13-1.99,8-2.14Z"
       style="fill: #000; stroke-width: 0px;"
       id="path76" />
    <path
       d="M67.7,233.35l-1.95,1.13c1.72,2.68,4,4.96,6.68,6.68l1.13-1.95c-2.34-1.52-4.33-3.51-5.85-5.85Z"
       style="fill: #000; stroke-width: 0px;"
       id="path77" />
    <path
       d="M95.01,239.2l1.13,1.95c2.68-1.72,4.96-4,6.68-6.68l-1.95-1.13c-1.52,2.34-3.51,4.33-5.85,5.85Z"
       style="fill: #000; stroke-width: 0px;"
       id="path78" />
    <path
       d="M104,223.62c-.14,2.87-.89,5.57-2.14,8l1.95,1.13c1.43-2.75,2.3-5.84,2.44-9.12h-2.26Z"
       style="fill: #000; stroke-width: 0px;"
       id="path79" />
    <path
       d="M64.57,223.62h-2.26c.15,3.28,1.01,6.37,2.44,9.12l1.95-1.13c-1.24-2.42-1.99-5.13-2.14-8Z"
       style="fill: #000; stroke-width: 0px;"
       id="path80" />
    <path
       d="M66.7,213.63l-1.95-1.13c-1.43,2.75-2.3,5.84-2.44,9.12h2.26c.14-2.87.89-5.57,2.14-8Z"
       style="fill: #000; stroke-width: 0px;"
       id="path81" />
    <path
       d="M101.3,316.76l.07-24.95-87.98-.04.06,24.68v19.84c0,3.12,2.55,5.67,5.67,5.67l76.52.32c3.12,0,5.67-2.55,5.67-5.67v-19.85Z"
       style="fill: #000; stroke-width: 0px;"
       id="path82" />
    <path
       d="m 6.4726562,-2.7109375 q 0,0.7578125 -0.3515625,1.3945313 -0.3476562,0.6367187 -1.0390625,1.0117187 -0.6914062,0.375 -1.6835937,0.375 -1.0039062,0 -1.6992188,-0.390625 Q 1.0039062,-0.7109375 0.6640625,-1.3476562 0.328125,-1.984375 0.328125,-2.7109375 q 0,-0.7304688 0.3359375,-1.3632812 Q 1,-4.7109375 1.6953125,-5.0976562 q 0.6992188,-0.390625 1.703125,-0.390625 0.75,0 1.3359375,0.2226562 0.5898437,0.2226563 0.96875,0.6054688 0.3789062,0.3789062 0.5742187,0.8867187 0.1953125,0.5039062 0.1953125,1.0625 z m -1.6640625,0 q 0,-0.3046875 -0.089844,-0.5546875 -0.089844,-0.2539063 -0.2734375,-0.4375 -0.1796875,-0.1875 -0.4414063,-0.2890625 -0.2617187,-0.1054687 -0.6054687,-0.1054687 -0.65625,0 -1.03125,0.3828124 -0.375,0.3828125 -0.375,1.0039063 0,0.6210937 0.375,1.0078125 0.3789063,0.3828125 1.03125,0.3828125 0.4492188,0 0.765625,-0.1757812 0.3164062,-0.1796875 0.4804687,-0.4921875 0.1640625,-0.3164063 0.1640625,-0.7226563 z M 11.129219,0 H 9.7190623 v -0.56640625 q -0.296875,0.3203125 -0.625,0.48046875 -0.3242187,0.15625 -0.78125,0.15625 -0.9023437,0 -1.1679687,-0.5234375 -0.265625,-0.52734375 -0.265625,-1.1875 v -2.3359375 h 1.4101562 v 2.1484375 q 0,0.3242188 0.1054688,0.5703125 0.109375,0.2421875 0.46875,0.2421875 0.3085937,0 0.4882812,-0.1757812 0.1796875,-0.1757813 0.3671875,-0.4492188 v -2.3359375 h 1.4101567 z m 3.715156,-0.23046875 q -0.21875,0.10546875 -0.605469,0.203125 -0.382813,0.09765625 -0.734375,0.09765625 -1.519531,0 -1.519531,-1.484375 V -3 H 11.348281 V -3.2460938 L 13.235,-5.1679687 h 0.160156 v 1.1914062 h 1.34375 V -3 h -1.34375 v 1.2734375 q 0,0.2226563 0.02734,0.359375 0.02734,0.1367188 0.152343,0.2304688 0.128907,0.089844 0.386719,0.089844 0.335938,0 0.882813,-0.28125 z"
       id="text82"
       style="font-weight:700;font-size:8px;font-family:GillSans-Bold, 'Gill Sans';letter-spacing:-0.04em;fill:#ffffff"
       transform="translate(78.04 337.31) scale(.88 1)"
       aria-label="Out" />
    <path
       d="m 5.7851562,-0.3828125 q -0.1757812,0.0664063 -0.3007812,0.109375 -0.125,0.0429687 -0.2421875,0.078125 -0.1132813,0.0351563 -0.3320313,0.0898438 -0.3710937,0.0859375 -0.7421875,0.12890625 -0.3671874,0.046875 -0.7773437,0.046875 -0.8242187,0 -1.5234375,-0.30078125 Q 1.1679687,-0.53125 0.74609375,-1.1640625 0.328125,-1.796875 0.328125,-2.71875 q 0,-0.59375 0.21484375,-1.1640625 0.21875,-0.5742187 0.66406245,-0.9179687 Q 1.5742187,-5.0859375 1.9492187,-5.234375 2.328125,-5.3867187 2.6875,-5.4375 q 0.359375,-0.050781 0.7929688,-0.050781 0.7148437,0 1.1796874,0.109375 0.4648438,0.1054687 1.0195313,0.28125 v 1.2812499 Q 5.3125,-4.03125 4.9023437,-4.1757812 4.4921875,-4.3203125 3.8789063,-4.3203125 q -0.7070313,0 -1.1328125,0.2695313 -0.421875,0.2656249 -0.5898438,0.6367187 -0.1640625,0.3710937 -0.1640625,0.71875 0,0.4101562 0.1914063,0.7578125 0.1914062,0.34375 0.578125,0.5546875 0.3867187,0.2070313 0.9335937,0.2070313 0.3125,0 0.6640625,-0.082031 V -1.8945312 H 3.625 V -2.984375 h 2.1601562 z m 4.8596878,0.18359375 Q 10.33625,-0.078125 10.074531,-0.00390625 9.8128123,0.0703125 9.4456248,0.0703125 q -0.3476562,0 -0.484375,-0.12109375 -0.1367187,-0.125 -0.1953125,-0.30078125 -0.2265625,0.18359375 -0.5039062,0.3046875 -0.2773438,0.1171875 -0.7265625,0.1171875 -0.4335938,0 -0.703125,-0.1484375 -0.265625,-0.15234375 -0.375,-0.37890625 Q 6.3518748,-0.6875 6.3518748,-0.9296875 q 0,-0.3671875 0.1835938,-0.6054687 0.1875,-0.2421875 0.5,-0.3945313 0.3125,-0.1523438 0.828125,-0.3164063 0.2929687,-0.09375 0.4414062,-0.140625 0.1523438,-0.050781 0.2265625,-0.078125 0.074219,-0.027344 0.15625,-0.070312 0,-0.2890625 -0.1171875,-0.453125 -0.1171875,-0.1640625 -0.5078125,-0.1640625 -0.4609375,0 -0.8554687,0.203125 -0.3945313,0.203125 -0.7226563,0.5234375 v -1.078125 q 0.2617188,-0.1875 0.5664063,-0.3046875 0.3046875,-0.1210937 0.6367187,-0.1796875 0.3320313,-0.058594 0.671875,-0.058594 0.8632813,0 1.296875,0.3359375 0.4374997,0.3320312 0.4374997,0.9179687 v 1.5351563 q 0,0.21875 0.03906,0.328125 0.04297,0.10546875 0.152344,0.10546875 0.132812,0 0.359375,-0.11328125 z M 8.6878123,-0.9609375 v -0.9414062 q -0.5,0.203125 -0.7304687,0.3671875 -0.2304688,0.1601562 -0.2304688,0.4375 0,0.1992187 0.1132813,0.30468745 Q 7.9573436,-0.6875 8.1096873,-0.6875 q 0.1445313,0 0.2851563,-0.078125 0.1445312,-0.0820313 0.2929687,-0.1953125 z m 5.2151557,0.73046875 Q 13.684218,-0.125 13.2975,-0.02734375 12.914687,0.0703125 12.563125,0.0703125 q -1.519532,0 -1.519532,-1.484375 V -3 h -0.636718 v -0.2460938 l 1.886718,-1.9218749 h 0.160157 v 1.1914062 H 13.7975 V -3 h -1.34375 v 1.2734375 q 0,0.2226563 0.02734,0.359375 0.02734,0.1367188 0.152344,0.2304688 0.128906,0.089844 0.386719,0.089844 0.335937,0 0.882812,-0.28125 z M 18.278281,-1.6484375 H 15.4775 q 0.08203,0.3632813 0.402344,0.59375 0.320312,0.23046875 0.726562,0.23046875 0.710938,0 1.570313,-0.39843745 v 0.8710937 q -0.308594,0.16015625 -0.75,0.29296875 -0.4375,0.12890625 -1.117188,0.12890625 -0.734375,0 -1.25,-0.2734375 -0.515625,-0.2734375 -0.773437,-0.7421875 -0.253907,-0.46875 -0.253907,-1.0625 0,-0.5859375 0.253907,-1.046875 0.257812,-0.4648438 0.773437,-0.7265625 0.515625,-0.265625 1.25,-0.265625 0.484375,0 0.933594,0.2109375 0.453125,0.2070312 0.742187,0.6835937 0.292969,0.4726563 0.292969,1.2226563 z M 16.957969,-2.34375 q 0,-0.3828125 -0.191407,-0.609375 -0.1875,-0.2304688 -0.542968,-0.2304688 -0.351563,0 -0.570313,0.234375 -0.214844,0.2304688 -0.214844,0.6054688 z"
       id="text83"
       style="font-weight:700;font-size:8px;font-family:GillSans-Bold, 'Gill Sans';letter-spacing:-0.04em;fill:#ffffff"
       transform="translate(22.96 337.31) scale(.88 1)"
       aria-label="Gate" />
    <path
       d="M100.87,275.53v-5.67c0-7.8-6.38-14.17-14.17-14.17h-6.92l-46.04-.16h-5.71c-7.8,0-14.17,6.38-14.17,14.17v22.26c0,3.12,2.55,5.67,5.67,5.67h12.5l54.56.16h8.61c3.12,0,5.67-2.55,5.67-5.67v-16.59Z"
       style="fill: #ededed; stroke: #000; stroke-miterlimit: 10;"
       id="path83" />
    <path
       d="M 5.921875,0 H 4.1679687 L 3.7421875,-0.9609375 Q 3.5078125,-1.4882812 3.3203125,-1.7304687 3.1328125,-1.9765625 2.953125,-2.0429688 2.7773438,-2.1132813 2.4960938,-2.1132813 H 2.3125 V 0 H 0.6796875 v -5.4140625 h 2.7773438 q 0.6718749,0 1.1015624,0.2734375 0.4296875,0.2734375 0.6171875,0.6640625 0.1914063,0.390625 0.1914063,0.7421875 0,0.4101562 -0.1601563,0.6953125 Q 5.0507812,-2.7578125 4.875,-2.6289063 4.6992187,-2.5 4.4804687,-2.3828125 4.7421875,-2.2304688 4.9101562,-2.0195313 5.0820312,-1.8125 5.375,-1.1757812 Z m -2.21875,-3.703125 q 0,-0.375 -0.2460937,-0.5234375 Q 3.2109375,-4.375 2.65625,-4.375 H 2.3125 v 1.3046875 h 0.3515625 q 0.5976563,0 0.8164063,-0.1289063 Q 3.703125,-3.3320313 3.703125,-3.703125 Z m 6.375312,2.0546875 H 7.2776561 q 0.082031,0.3632813 0.4023437,0.59375 0.3203125,0.23046875 0.7265625,0.23046875 0.7109375,0 1.5703125,-0.39843745 v 0.8710937 q -0.3085937,0.16015625 -0.75,0.29296875 -0.4375,0.12890625 -1.1171875,0.12890625 -0.734375,0 -1.25,-0.2734375 -0.515625,-0.2734375 -0.7734375,-0.7421875 -0.2539062,-0.46875 -0.2539062,-1.0625 0,-0.5859375 0.2539062,-1.046875 0.2578125,-0.4648438 0.7734375,-0.7265625 0.515625,-0.265625 1.25,-0.265625 0.484375,0 0.9335938,0.2109375 0.453125,0.2070312 0.7421875,0.6835937 0.2929684,0.4726563 0.2929684,1.2226563 z M 8.7581248,-2.34375 q 0,-0.3828125 -0.1914062,-0.609375 -0.1875,-0.2304688 -0.5429688,-0.2304688 -0.3515625,0 -0.5703125,0.234375 Q 7.2385936,-2.71875 7.2385936,-2.34375 Z m 4.8010932,1.1835938 q 0,0.54687495 -0.402343,0.89062495 -0.398438,0.33984375 -1.1875,0.33984375 -0.441407,0 -0.785157,-0.078125 -0.34375,-0.08203125 -0.75,-0.23046875 V -1.2382812 q 0.355469,0.203125 0.617188,0.3085937 0.261719,0.10546875 0.574219,0.10546875 0.527343,0 0.527343,-0.28906245 0,-0.097656 -0.07813,-0.171875 -0.07422,-0.078125 -0.265625,-0.171875 -0.1875,-0.097656 -0.503906,-0.2304688 -0.390625,-0.171875 -0.664062,-0.4609375 -0.273438,-0.2890625 -0.273438,-0.7070313 0,-0.296875 0.179688,-0.5703125 0.183593,-0.2734375 0.550781,-0.4453125 0.367187,-0.1757812 0.886719,-0.1757812 0.125,0 0.316406,0.019531 0.195312,0.015625 0.488281,0.089844 0.296875,0.074219 0.5625,0.2109375 v 0.9726562 q -0.125,-0.074219 -0.210937,-0.125 -0.08203,-0.050781 -0.222657,-0.1132812 -0.140625,-0.0625 -0.332031,-0.109375 -0.1875,-0.050781 -0.386719,-0.050781 -0.242187,0 -0.332031,0.09375 -0.08984,0.09375 -0.08984,0.1875 0,0.097656 0.09375,0.1835938 0.09375,0.082031 0.417969,0.2070312 0.46875,0.1796875 0.75,0.3710938 0.28125,0.1875 0.398438,0.4140625 0.121093,0.2265625 0.121093,0.5351563 z m 4.519844,-0.4882813 h -2.800781 q 0.08203,0.3632813 0.402344,0.59375 0.320312,0.23046875 0.726562,0.23046875 0.710938,0 1.570313,-0.39843745 v 0.8710937 q -0.308594,0.16015625 -0.75,0.29296875 -0.4375,0.12890625 -1.117188,0.12890625 -0.734375,0 -1.25,-0.2734375 -0.515625,-0.2734375 -0.773437,-0.7421875 -0.253906,-0.46875 -0.253906,-1.0625 0,-0.5859375 0.253906,-1.046875 0.257812,-0.4648438 0.773437,-0.7265625 0.515625,-0.265625 1.25,-0.265625 0.484375,0 0.933594,0.2109375 0.453125,0.2070312 0.742188,0.6835937 0.292968,0.4726563 0.292968,1.2226563 z M 16.75875,-2.34375 q 0,-0.3828125 -0.191406,-0.609375 -0.1875,-0.2304688 -0.542969,-0.2304688 -0.351563,0 -0.570313,0.234375 -0.214843,0.2304688 -0.214843,0.6054688 z m 4.828437,2.11328125 q -0.21875,0.10546875 -0.605469,0.203125 -0.382812,0.09765625 -0.734375,0.09765625 -1.519531,0 -1.519531,-1.484375 V -3 h -0.636719 v -0.2460938 l 1.886719,-1.9218749 h 0.160156 v 1.1914062 h 1.34375 V -3 h -1.34375 v 1.2734375 q 0,0.2226563 0.02734,0.359375 0.02734,0.1367188 0.152344,0.2304688 0.128906,0.089844 0.386718,0.089844 0.335938,0 0.882813,-0.28125 z"
       id="text84"
       style="font-weight:700;font-size:8px;font-family:GillSans-Bold, 'Gill Sans';letter-spacing:-0.04em"
       transform="translate(75.05 294.18) scale(.88 1)"
       aria-label="Reset" />
    <path
       d="M 5.5273437,-0.40625 Q 5.1914062,-0.23046875 4.8398437,-0.125 4.4882812,-0.01953125 4.1289062,0.0234375 3.7734375,0.0703125 3.390625,0.0703125 2.6835938,0.0703125 2.1210938,-0.125 1.5625,-0.3203125 1.1484375,-0.69921875 0.73828125,-1.0820312 0.53125,-1.5898437 0.328125,-2.1015625 0.328125,-2.7109375 q 0,-0.6992188 0.2421875,-1.2226563 0.2421875,-0.5273437 0.6757812,-0.8749999 0.4375,-0.3476563 0.9921876,-0.5117188 0.5585937,-0.1679687 1.1757812,-0.1679687 0.921875,0 2.0898437,0.4101562 v 1.4375 q -0.4023437,-0.25 -0.796875,-0.4140625 -0.390625,-0.1679687 -0.9218749,-0.1679687 -0.4726563,0 -0.8828125,0.1875 Q 2.4921875,-3.8476563 2.2421875,-3.5 q -0.25,0.3476562 -0.25,0.8125 0,0.4101562 0.21875,0.7539063 0.21875,0.3398437 0.6054688,0.5429687 0.390625,0.1992188 0.8789062,0.1992188 0.3945312,0 0.7460937,-0.09375 Q 4.7929687,-1.3828125 5.03125,-1.5 5.2734375,-1.6171875 5.5273437,-1.7773437 Z M 7.5549998,0 H 6.1448436 v -5.4140625 h 1.4101562 z m 4.9260942,-1.9921875 q 0,0.59375 -0.257813,1.05859375 -0.257812,0.46484375 -0.773437,0.734375 -0.511719,0.26953125 -1.25,0.26953125 -0.7382814,0 -1.2539064,-0.26953125 Q 8.4342189,-0.46875 8.1764064,-0.93359375 7.9225001,-1.3984375 7.9225001,-1.9921875 q 0,-0.4492188 0.140625,-0.8164063 0.1445313,-0.3671875 0.4335938,-0.6484375 0.2929687,-0.2851562 0.71875,-0.4375 0.4257812,-0.1523437 0.9843751,-0.1523437 0.5625,0 0.992187,0.15625 0.433594,0.1523437 0.714844,0.4296875 0.285156,0.2773437 0.429688,0.6484375 0.144531,0.3710937 0.144531,0.8203125 z m -1.480469,0 q 0,-0.4726563 -0.207031,-0.7382813 Q 10.590469,-3 10.199844,-3 q -0.3867189,0 -0.5937501,0.2695312 -0.203125,0.265625 -0.203125,0.7382813 0,0.46875 0.2070312,0.7421875 0.2070313,0.2734375 0.5898439,0.2734375 0.390625,0 0.59375,-0.2695312 0.207031,-0.2734375 0.207031,-0.7460938 z m 5.297187,1.80859375 q -0.175781,0.0664063 -0.371093,0.125 -0.195313,0.0546875 -0.441407,0.08984375 -0.242187,0.0390625 -0.53125,0.0390625 -0.652343,0 -1.105468,-0.21875 Q 13.399375,-0.37109375 13.153281,-0.703125 12.911094,-1.0390625 12.817344,-1.3867187 12.723594,-1.734375 12.723594,-2 q 0,-0.265625 0.09375,-0.6132813 0.09766,-0.3476562 0.335937,-0.671875 0.238281,-0.3242187 0.6875,-0.5429687 0.453125,-0.21875 1.113281,-0.21875 0.441407,0 0.71875,0.0625 0.277344,0.0625 0.5625,0.1679687 v 1.1054688 q -0.6875,-0.21875 -1.074218,-0.21875 -0.375,0 -0.667969,0.2265625 Q 14.204062,-2.4765625 14.204062,-2 q 0,0.3164063 0.144532,0.5351563 0.144531,0.2148437 0.367187,0.3164062 0.222656,0.1015625 0.445313,0.1015625 0.210937,0 0.480468,-0.0625 0.269532,-0.0625 0.65625,-0.1796875 z M 21.387968,0 H 19.602812 L 18.075468,-1.8867187 V 0 h -1.421875 v -5.4140625 h 1.421875 v 3.1757812 l 1.394531,-1.7382812 h 1.6875 l -1.554687,1.8554687 z"
       id="text85"
       style="font-weight:700;font-size:8px;font-family:GillSans-Bold, 'Gill Sans';letter-spacing:-0.04em"
       transform="translate(21.54 294.18) scale(.88 1)"
       aria-label="Clock" />
    <g
       id="g87">
      <path
         d="M49.35,18.07c-.37,0-.71-.17-.97-.47-.51-.6-.52-1.54-.04-2.16l6.97-8.88c.38-.48,1.05-.65,1.57-.39.5.25.79.82.79,1.45v4.77l4.64-5.85c.38-.48,1.01-.64,1.53-.38.5.25.83.81.83,1.44v8.82c0,.86-.61,1.57-1.36,1.57s-1.36-.7-1.36-1.57v-4.79l-4.64,5.85c-.38.48-1.01.64-1.54.38-.5-.24-.83-.81-.83-1.44v-4.67l-4.61,5.8c-.26.32-.62.51-1,.51h0Z"
         style="fill: #2cabe1; stroke-width: 0px;"
         id="path85" />
      <path
         d="M49.35,18.07c-.75,0-1.35-.7-1.35-1.57v-4.93l-2.26,2.84c-.5.63-1.44.65-1.97.04-.51-.6-.52-1.53-.03-2.15l4.61-5.76c.26-.32.63-.5,1-.5.18,0,.37.04.54.12.5.25.82.81.82,1.44v8.89c0,.86-.61,1.57-1.36,1.57h0Z"
         style="fill: #ea2228; stroke-width: 0px;"
         id="path86" />
      <path
         d="M65.95,18.09h0c-.35,0-.68-.15-.94-.42-.76-.78-.14-1.84.29-2.3l1.95-2.36-1.26-.02c-.56-.01-1.04-.4-1.24-1-.19-.56-.07-1.21.29-1.64l3.16-3.83c.23-.28.55-.48,1.13-.47.33,0,.67.17.92.4.71.66.29,1.7-.07,2.2l-1.04,1.26,1.26.02c.56.01,1.04.4,1.24,1,.19.56.07,1.21-.29,1.64l-4.1,4.97c-.35.35-.65.55-1.3.54h0Z"
         style="fill: #00a650; stroke-width: 0px;"
         id="path87" />
    </g>
  </g>
  <g
     id="g2" />
</svg>
