<svg xmlns="http://www.w3.org/2000/svg" width="40.73mm" height="130.6mm" viewBox="0 0 115.45 370.19">
  <g id="faceplate">
    <rect x="0.13" y="0.13" width="115.2" height="364.25" style="fill: #ededed;stroke: #9d9d9e;stroke-miterlimit: 10;stroke-width: 0.25px" />
    <g>
      <path d="M49.22,355.44a2.36,2.36,0,0,1-.29,1.21,1.93,1.93,0,0,1-.82.78,2.56,2.56,0,0,1-1.2.27l-.46,0a4.27,4.27,0,0,1-.73-.17,4.65,4.65,0,0,1-.95-.39v-1.83a6.26,6.26,0,0,0,.91.58,1.94,1.94,0,0,0,1,.23c.32,0,.52-.06.62-.19a.61.61,0,0,0,.13-.35.65.65,0,0,0-.23-.51,3.18,3.18,0,0,0-.7-.43,5.77,5.77,0,0,1-.88-.56,2.44,2.44,0,0,1-.62-.76,2.29,2.29,0,0,1-.24-1.08,2.33,2.33,0,0,1,.25-1.09,1.83,1.83,0,0,1,.74-.77,2.28,2.28,0,0,1,1.21-.29,3.58,3.58,0,0,1,1,.12,3.53,3.53,0,0,1,.71.27,3.65,3.65,0,0,1,.39.23v1.75a5.62,5.62,0,0,0-.83-.59,2,2,0,0,0-1-.25.67.67,0,0,0-.5.16.54.54,0,0,0-.15.39.56.56,0,0,0,.15.39,3.89,3.89,0,0,0,.55.39,11.5,11.5,0,0,1,1.13.72,2.59,2.59,0,0,1,.66.75A2.09,2.09,0,0,1,49.22,355.44Z" />
      <path d="M55.08,357.6h-4.6v-7.44H55v1.49H52.32V353h2.56v1.5H52.32v1.59h2.76Z" />
      <path d="M63.1,358.14l-1.29,1.43a8.46,8.46,0,0,1-1.5-.55,10.37,10.37,0,0,1-1.5-.85,3.87,3.87,0,0,1-.88-.75,2.91,2.91,0,0,1-1-.68,3.46,3.46,0,0,1-.75-1.19,4.34,4.34,0,0,1-.3-1.68,4.7,4.7,0,0,1,.38-1.87,3.19,3.19,0,0,1,3.09-1.94,3.51,3.51,0,0,1,1.53.31,3,3,0,0,1,1.09.85,3.63,3.63,0,0,1,.63,1.22,4.9,4.9,0,0,1,.21,1.43,4.69,4.69,0,0,1-.26,1.61,3.7,3.7,0,0,1-.69,1.17,3.43,3.43,0,0,1-1,.74,7.23,7.23,0,0,0,1,.45,3.37,3.37,0,0,0,1.14.18ZM61,353.87a3,3,0,0,0-.1-.76,1.71,1.71,0,0,0-.31-.6,1.43,1.43,0,0,0-1.18-.54,1.42,1.42,0,0,0-1.17.52,2.47,2.47,0,0,0,0,2.77,1.41,1.41,0,0,0,1.16.53,1.45,1.45,0,0,0,.86-.25,1.49,1.49,0,0,0,.54-.67A2.41,2.41,0,0,0,61,353.87Z" />
      <path d="M71,355.6a2.43,2.43,0,0,1-.09.6,2,2,0,0,1-.34.68,1.8,1.8,0,0,1-.73.58,2.73,2.73,0,0,1-1.22.24,2.9,2.9,0,0,1-1.23-.23,1.9,1.9,0,0,1-.73-.59,1.77,1.77,0,0,1-.34-.67,2.77,2.77,0,0,1-.08-.61,2.28,2.28,0,0,1,.26-1.06,2,2,0,0,1,.72-.78,2,2,0,0,1-.57-.65,1.9,1.9,0,0,1-.2-.94,2.16,2.16,0,0,1,.11-.69,2.08,2.08,0,0,1,.36-.69,1.81,1.81,0,0,1,.68-.53,2.26,2.26,0,0,1,1-.2,2.33,2.33,0,0,1,1,.2,1.78,1.78,0,0,1,.67.53,2.14,2.14,0,0,1,.36.68,2.47,2.47,0,0,1,.1.7,2,2,0,0,1-.19.94,2.32,2.32,0,0,1-.58.65,2.33,2.33,0,0,1,.52.47,2.28,2.28,0,0,1,.33.64A2,2,0,0,1,71,355.6Zm-1.57-.2a1.32,1.32,0,0,0-.12-.59.92.92,0,0,0-.31-.38.75.75,0,0,0-.38-.13.72.72,0,0,0-.56.3,1.18,1.18,0,0,0-.25.8,1.21,1.21,0,0,0,.25.83.73.73,0,0,0,.57.28.71.71,0,0,0,.56-.3A1.3,1.3,0,0,0,69.39,355.4Zm-.18-3.09a1.8,1.8,0,0,0-.14-.68.5.5,0,0,0-.48-.32.52.52,0,0,0-.49.31,1.58,1.58,0,0,0-.15.69,1.19,1.19,0,0,0,.19.71.53.53,0,0,0,.44.28A.54.54,0,0,0,69,353,1.19,1.19,0,0,0,69.21,352.31Z" />
    </g>
    <path d="M104.13,46.58h2.25a21.73,21.73,0,0,0-2.44-9.12l-2,1.13A19.72,19.72,0,0,1,104.13,46.58Z" />
    <path d="M104.13,48.58a19.77,19.77,0,0,1-2.14,8l2,1.12a21.73,21.73,0,0,0,2.44-9.12Z" />
    <path d="M33.73,75.57H31.78V67.45h1.95Z" />
    <g>
      <path d="M41.87,30,43,28.05a21.73,21.73,0,0,0-9.12-2.44v2.25A19.76,19.76,0,0,1,41.87,30Z" />
      <path d="M49.46,36.85l1.95-1.12a22.17,22.17,0,0,0-6.68-6.68L43.6,31A19.93,19.93,0,0,1,49.46,36.85Z" />
      <path d="M22.15,31,21,29.05a22,22,0,0,0-6.67,6.68l2,1.12A19.77,19.77,0,0,1,22.15,31Z" />
      <path d="M52.59,46.58h2.26a21.88,21.88,0,0,0-2.44-9.12l-1.95,1.13A19.55,19.55,0,0,1,52.59,46.58Z" />
      <path d="M31.88,27.86V25.61a21.82,21.82,0,0,0-9.13,2.44L23.88,30A19.77,19.77,0,0,1,31.88,27.86Z" />
      <path d="M16.3,58.31l-2,1.12A22,22,0,0,0,21,66.11l1.13-2A19.77,19.77,0,0,1,16.3,58.31Z" />
      <path d="M43.6,64.16l1.13,2a22.17,22.17,0,0,0,6.68-6.68l-1.95-1.12A19.93,19.93,0,0,1,43.6,64.16Z" />
      <path d="M52.59,48.58a19.6,19.6,0,0,1-2.13,8l1.95,1.12a21.88,21.88,0,0,0,2.44-9.12Z" />
      <path d="M13.16,48.58H10.9a22,22,0,0,0,2.44,9.12l2-1.12A19.45,19.45,0,0,1,13.16,48.58Z" />
      <path d="M15.3,38.59l-2-1.13a22,22,0,0,0-2.44,9.12h2.26A19.41,19.41,0,0,1,15.3,38.59Z" />
    </g>
    <path d="M87,75.57H81.59v-.16c.21-.23.44-.5.69-.82l1-1.27c.18-.24.36-.48.52-.71a7.12,7.12,0,0,0,.41-.67,3.5,3.5,0,0,0,.28-.71,2.79,2.79,0,0,0,.12-.81,1.39,1.39,0,0,0-.28-.91.92.92,0,0,0-.73-.35,2.4,2.4,0,0,0-1.75,1V68.28l.51-.36a3.14,3.14,0,0,1,.45-.26,3.42,3.42,0,0,1,.6-.23,3.1,3.1,0,0,1,.76-.09,2.39,2.39,0,0,1,1.19.3,2,2,0,0,1,.84.88,2.7,2.7,0,0,1,.31,1.33,3.68,3.68,0,0,1-.14,1,4.07,4.07,0,0,1-.29.75c-.1.19-.23.43-.39.71-.3.5-.62,1-1,1.43H87Z" />
    <path d="M93.4,30l1.13-1.95a21.73,21.73,0,0,0-9.12-2.44v2.25A19.72,19.72,0,0,1,93.4,30Z" />
    <path d="M101,36.85l2-1.12a22.17,22.17,0,0,0-6.68-6.68L95.14,31A19.89,19.89,0,0,1,101,36.85Z" />
    <path d="M73.68,31l-1.12-1.95a22.17,22.17,0,0,0-6.68,6.68l2,1.12A19.89,19.89,0,0,1,73.68,31Z" />
    <path d="M83.41,27.86V25.61a21.73,21.73,0,0,0-9.12,2.44L75.41,30A19.77,19.77,0,0,1,83.41,27.86Z" />
    <path d="M67.83,58.31l-2,1.12a22.17,22.17,0,0,0,6.68,6.68l1.12-2A19.89,19.89,0,0,1,67.83,58.31Z" />
    <path d="M95.14,64.16l1.12,2a22.17,22.17,0,0,0,6.68-6.68l-2-1.12A19.89,19.89,0,0,1,95.14,64.16Z" />
    <path d="M64.69,48.58H62.44a21.73,21.73,0,0,0,2.44,9.12l2-1.12A19.77,19.77,0,0,1,64.69,48.58Z" />
    <path d="M66.83,38.59l-2-1.13a21.73,21.73,0,0,0-2.44,9.12h2.25A19.72,19.72,0,0,1,66.83,38.59Z" />
    <path d="M35,130.4a2.41,2.41,0,0,1-.22,1.09,2,2,0,0,1-.58.74,2.3,2.3,0,0,1-.77.41,2.83,2.83,0,0,1-.79.13,4.6,4.6,0,0,1-1.2-.18,4.79,4.79,0,0,1-1.1-.41v-1.82a4.33,4.33,0,0,0,.78.57,1.82,1.82,0,0,0,.86.23,1.12,1.12,0,0,0,.57-.14.88.88,0,0,0,.34-.35,1,1,0,0,0,.12-.46,1,1,0,0,0-.15-.55,1,1,0,0,0-.41-.38,1.32,1.32,0,0,0-.64-.15h-.23v-1.3h.27a1.11,1.11,0,0,0,.6-.16,1,1,0,0,0,.44-.79,1,1,0,0,0-.25-.66.82.82,0,0,0-.65-.28,2.08,2.08,0,0,0-.74.15,3.25,3.25,0,0,0-.72.41v-1.56a6.92,6.92,0,0,1,1-.37,3.1,3.1,0,0,1,1-.14,2.38,2.38,0,0,1,1.35.36,2.19,2.19,0,0,1,.8.86,2.28,2.28,0,0,1,.25.95,2.1,2.1,0,0,1-.14.73,2.5,2.5,0,0,1-.37.64,1.88,1.88,0,0,1-.46.44,2.55,2.55,0,0,1,.75.72A2.13,2.13,0,0,1,35,130.4Z" />
    <path d="M41.87,87.09l1.13-2a21.89,21.89,0,0,0-9.12-2.45V85A19.6,19.6,0,0,1,41.87,87.09Z" />
    <path d="M49.46,93.94l1.95-1.12a22.17,22.17,0,0,0-6.68-6.68l-1.13,2A19.93,19.93,0,0,1,49.46,93.94Z" />
    <path d="M22.15,88.09l-1.13-2a22,22,0,0,0-6.67,6.68l2,1.12A19.77,19.77,0,0,1,22.15,88.09Z" />
    <path d="M52.59,103.67h2.26a21.88,21.88,0,0,0-2.44-9.12l-1.95,1.12A19.6,19.6,0,0,1,52.59,103.67Z" />
    <path d="M31.88,85V82.69a22,22,0,0,0-9.13,2.45l1.13,2A19.61,19.61,0,0,1,31.88,85Z" />
    <path d="M16.3,115.4l-2,1.12A22,22,0,0,0,21,123.2l1.13-2A19.89,19.89,0,0,1,16.3,115.4Z" />
    <path d="M43.6,121.25l1.13,2a22.17,22.17,0,0,0,6.68-6.68l-1.95-1.12A20,20,0,0,1,43.6,121.25Z" />
    <path d="M52.59,105.67a19.55,19.55,0,0,1-2.13,8l1.95,1.13a21.88,21.88,0,0,0,2.44-9.12Z" />
    <path d="M13.16,105.67H10.9a22,22,0,0,0,2.44,9.12l2-1.13A19.41,19.41,0,0,1,13.16,105.67Z" />
    <path d="M15.3,95.67l-2-1.12a22,22,0,0,0-2.44,9.12h2.26A19.45,19.45,0,0,1,15.3,95.67Z" />
    <path d="M87.05,130.91h-.84v1.75H84.3v-1.75H81.4v-1.55l3.28-4.82h1.53v5h.84Zm-2.75-1.4v-2.6l-1.77,2.6Z" />
    <path d="M93.4,87.09l1.13-2a21.89,21.89,0,0,0-9.12-2.45V85A19.56,19.56,0,0,1,93.4,87.09Z" />
    <path d="M101,93.94l2-1.12a22.17,22.17,0,0,0-6.68-6.68l-1.12,2A19.89,19.89,0,0,1,101,93.94Z" />
    <path d="M73.68,88.09l-1.12-2a22.17,22.17,0,0,0-6.68,6.68l2,1.12A19.89,19.89,0,0,1,73.68,88.09Z" />
    <path d="M104.13,103.67h2.25a21.73,21.73,0,0,0-2.44-9.12l-2,1.12A19.77,19.77,0,0,1,104.13,103.67Z" />
    <path d="M83.41,85V82.69a21.89,21.89,0,0,0-9.12,2.45l1.12,2A19.61,19.61,0,0,1,83.41,85Z" />
    <path d="M67.83,115.4l-2,1.12a22.17,22.17,0,0,0,6.68,6.68l1.12-2A20,20,0,0,1,67.83,115.4Z" />
    <path d="M95.14,121.25l1.12,2a22.17,22.17,0,0,0,6.68-6.68l-2-1.12A20,20,0,0,1,95.14,121.25Z" />
    <path d="M104.13,105.67a19.72,19.72,0,0,1-2.14,8l2,1.13a21.73,21.73,0,0,0,2.44-9.12Z" />
    <path d="M64.69,105.67H62.44a21.73,21.73,0,0,0,2.44,9.12l2-1.13A19.72,19.72,0,0,1,64.69,105.67Z" />
    <path d="M66.83,95.67l-2-1.12a21.73,21.73,0,0,0-2.44,9.12h2.25A19.77,19.77,0,0,1,66.83,95.67Z" />
    <path d="M35.12,189.43a3,3,0,0,1-.29,1.3,2.27,2.27,0,0,1-.86,1,2.58,2.58,0,0,1-1.4.37,4.05,4.05,0,0,1-1.26-.2,3.46,3.46,0,0,1-1.11-.58v-1.75a4.62,4.62,0,0,0,.93.56,2.53,2.53,0,0,0,1,.29.82.82,0,0,0,.74-.31,1.14,1.14,0,0,0,.09-1.17,1,1,0,0,0-.43-.41,1.69,1.69,0,0,0-.81-.16,2.72,2.72,0,0,0-1.08.23v-4.73h4.14v1.71H32.27V187l.17,0h.28a2.33,2.33,0,0,1,2.11,1.26A2.77,2.77,0,0,1,35.12,189.43Z" />
    <path d="M41.87,146.4l1.13-2A21.89,21.89,0,0,0,33.88,142v2.26A19.6,19.6,0,0,1,41.87,146.4Z" />
    <path d="M49.46,153.25l1.95-1.12a22.17,22.17,0,0,0-6.68-6.68l-1.13,2A19.93,19.93,0,0,1,49.46,153.25Z" />
    <path d="M22.15,147.4l-1.13-2a22,22,0,0,0-6.67,6.68l2,1.12A19.77,19.77,0,0,1,22.15,147.4Z" />
    <path d="M52.59,163h2.26a21.88,21.88,0,0,0-2.44-9.12L50.46,155A19.6,19.6,0,0,1,52.59,163Z" />
    <path d="M31.88,144.26V142a22,22,0,0,0-9.13,2.45l1.13,2A19.61,19.61,0,0,1,31.88,144.26Z" />
    <path d="M16.3,174.71l-2,1.12A22,22,0,0,0,21,182.51l1.13-1.95A19.89,19.89,0,0,1,16.3,174.71Z" />
    <path d="M43.6,180.56l1.13,1.95a22.17,22.17,0,0,0,6.68-6.68l-1.95-1.12A20,20,0,0,1,43.6,180.56Z" />
    <path d="M52.59,165a19.55,19.55,0,0,1-2.13,8l1.95,1.13A21.88,21.88,0,0,0,54.85,165Z" />
    <path d="M13.16,165H10.9a22,22,0,0,0,2.44,9.12l2-1.13A19.41,19.41,0,0,1,13.16,165Z" />
    <path d="M15.3,155l-2-1.12A22,22,0,0,0,10.9,163h2.26A19.45,19.45,0,0,1,15.3,155Z" />
    <path d="M87.09,189.16a3.09,3.09,0,0,1-.19,1.09,2.9,2.9,0,0,1-.56.94,2.38,2.38,0,0,1-.88.65,2.59,2.59,0,0,1-1.12.24,2.62,2.62,0,0,1-1.54-.45,2.83,2.83,0,0,1-1-1.19,3.93,3.93,0,0,1-.32-1.57,5.06,5.06,0,0,1,.2-1.38,6.1,6.1,0,0,1,.59-1.38,7.36,7.36,0,0,1,.89-1.26,8.93,8.93,0,0,1,1.17-1.12l1.76.66c-.28.27-.52.52-.73.75s-.4.45-.59.7a8.73,8.73,0,0,0-.5.74,1.7,1.7,0,0,1,.48-.06,2.17,2.17,0,0,1,1.16.33,2.37,2.37,0,0,1,.84.93A2.92,2.92,0,0,1,87.09,189.16Zm-1.85,0a1.08,1.08,0,0,0-.28-.83.89.89,0,0,0-.64-.27.79.79,0,0,0-.72.36,1.33,1.33,0,0,0,0,1.54.86.86,0,0,0,1.2.14,1.14,1.14,0,0,0,.31-.44A1.53,1.53,0,0,0,85.24,189.13Z" />
    <path d="M93.4,146.4l1.13-2A21.89,21.89,0,0,0,85.41,142v2.26A19.56,19.56,0,0,1,93.4,146.4Z" />
    <path d="M101,153.25l2-1.12a22.17,22.17,0,0,0-6.68-6.68l-1.12,2A19.89,19.89,0,0,1,101,153.25Z" />
    <path d="M73.68,147.4l-1.12-2a22.17,22.17,0,0,0-6.68,6.68l2,1.12A19.89,19.89,0,0,1,73.68,147.4Z" />
    <path d="M104.13,163h2.25a21.73,21.73,0,0,0-2.44-9.12L102,155A19.77,19.77,0,0,1,104.13,163Z" />
    <path d="M83.41,144.26V142a21.89,21.89,0,0,0-9.12,2.45l1.12,2A19.61,19.61,0,0,1,83.41,144.26Z" />
    <path d="M67.83,174.71l-2,1.12a22.17,22.17,0,0,0,6.68,6.68l1.12-1.95A20,20,0,0,1,67.83,174.71Z" />
    <path d="M95.14,180.56l1.12,1.95a22.17,22.17,0,0,0,6.68-6.68l-2-1.12A20,20,0,0,1,95.14,180.56Z" />
    <path d="M104.13,165a19.72,19.72,0,0,1-2.14,8l2,1.13a21.73,21.73,0,0,0,2.44-9.12Z" />
    <path d="M64.69,165H62.44a21.73,21.73,0,0,0,2.44,9.12l2-1.13A19.72,19.72,0,0,1,64.69,165Z" />
    <path d="M66.83,155l-2-1.12A21.73,21.73,0,0,0,62.44,163h2.25A19.77,19.77,0,0,1,66.83,155Z" />
    <path d="M35.52,242.85l-3.05,8-1.66-.59L33,244.42H30.1v-1.8h5.42Z" />
    <path d="M41.87,205.17l1.13-2a22,22,0,0,0-9.12-2.44V203A19.45,19.45,0,0,1,41.87,205.17Z" />
    <path d="M49.46,212l1.95-1.13a22,22,0,0,0-6.68-6.67l-1.13,1.95A19.81,19.81,0,0,1,49.46,212Z" />
    <path d="M22.15,206.17,21,204.22a21.88,21.88,0,0,0-6.67,6.67l2,1.13A19.66,19.66,0,0,1,22.15,206.17Z" />
    <path d="M52.59,221.75h2.26a22,22,0,0,0-2.44-9.13l-1.95,1.13A19.6,19.6,0,0,1,52.59,221.75Z" />
    <path d="M31.88,203v-2.26a22.12,22.12,0,0,0-9.13,2.44l1.13,2A19.45,19.45,0,0,1,31.88,203Z" />
    <path d="M16.3,233.47l-2,1.13A22,22,0,0,0,21,241.28l1.13-1.95A19.81,19.81,0,0,1,16.3,233.47Z" />
    <path d="M43.6,239.33l1.13,1.95a22.17,22.17,0,0,0,6.68-6.68l-1.95-1.13A20,20,0,0,1,43.6,239.33Z" />
    <path d="M52.59,223.75a19.6,19.6,0,0,1-2.13,8l1.95,1.13a21.88,21.88,0,0,0,2.44-9.12Z" />
    <path d="M13.16,223.75H10.9a22,22,0,0,0,2.44,9.12l2-1.13A19.45,19.45,0,0,1,13.16,223.75Z" />
    <path d="M15.3,213.75l-2-1.13a22.12,22.12,0,0,0-2.44,9.13h2.26A19.45,19.45,0,0,1,15.3,213.75Z" />
    <path d="M87.08,248.55a2.46,2.46,0,0,1-.1.66,2.39,2.39,0,0,1-.4.75,2.24,2.24,0,0,1-.86.63,4.21,4.21,0,0,1-2.86,0A2.24,2.24,0,0,1,82,250a2.17,2.17,0,0,1-.4-.74,2.75,2.75,0,0,1-.09-.67,2.29,2.29,0,0,1,.31-1.16,2.26,2.26,0,0,1,.84-.84,2.49,2.49,0,0,1-.67-.71,2,2,0,0,1-.24-1,2.63,2.63,0,0,1,.13-.75,2.38,2.38,0,0,1,.43-.75,2.06,2.06,0,0,1,.79-.58,2.87,2.87,0,0,1,1.19-.22,3,3,0,0,1,1.23.22,2.14,2.14,0,0,1,.79.58,2.38,2.38,0,0,1,.41.74,2.56,2.56,0,0,1,.12.76,2,2,0,0,1-.23,1,2.51,2.51,0,0,1-.68.71,2.33,2.33,0,0,1,.61.51,2.29,2.29,0,0,1,.4.7A2.16,2.16,0,0,1,87.08,248.55Zm-1.83-.21a1.33,1.33,0,0,0-.15-.65,1,1,0,0,0-.36-.41.88.88,0,0,0-.45-.14.89.89,0,0,0-.65.32,1.51,1.51,0,0,0,0,1.78.89.89,0,0,0,.66.31.84.84,0,0,0,.67-.34A1.33,1.33,0,0,0,85.25,248.34ZM85,245a1.71,1.71,0,0,0-.17-.74.56.56,0,0,0-.55-.35.61.61,0,0,0-.58.33,1.61,1.61,0,0,0-.18.76,1.25,1.25,0,0,0,.22.77.58.58,0,0,0,1,0A1.26,1.26,0,0,0,85,245Z" />
    <path d="M93.4,205.17l1.13-1.95a21.89,21.89,0,0,0-9.12-2.45V203A19.41,19.41,0,0,1,93.4,205.17Z" />
    <path d="M101,212l2-1.13a22,22,0,0,0-6.68-6.67l-1.12,1.95A19.77,19.77,0,0,1,101,212Z" />
    <path d="M73.68,206.17l-1.12-1.95a22,22,0,0,0-6.68,6.67l2,1.13A19.77,19.77,0,0,1,73.68,206.17Z" />
    <path d="M104.13,221.75h2.25a21.82,21.82,0,0,0-2.44-9.13l-2,1.13A19.77,19.77,0,0,1,104.13,221.75Z" />
    <path d="M83.41,203v-2.26a21.89,21.89,0,0,0-9.12,2.45l1.12,1.95A19.45,19.45,0,0,1,83.41,203Z" />
    <path d="M67.83,233.47l-2,1.13a22.17,22.17,0,0,0,6.68,6.68l1.12-1.95A19.93,19.93,0,0,1,67.83,233.47Z" />
    <path d="M95.14,239.33l1.12,1.95a22.17,22.17,0,0,0,6.68-6.68l-2-1.13A19.93,19.93,0,0,1,95.14,239.33Z" />
    <path d="M104.13,223.75a19.76,19.76,0,0,1-2.14,8l2,1.13a21.73,21.73,0,0,0,2.44-9.12Z" />
    <path d="M64.69,223.75H62.44a21.73,21.73,0,0,0,2.44,9.12l2-1.13A19.76,19.76,0,0,1,64.69,223.75Z" />
    <path d="M66.83,213.75l-2-1.13a21.82,21.82,0,0,0-2.44,9.13h2.25A19.77,19.77,0,0,1,66.83,213.75Z" />
    <path d="M101.42,316.88l.07-24.95-88,0,.06,24.68v19.84a5.68,5.68,0,0,0,5.67,5.67l76.52.32a5.68,5.68,0,0,0,5.66-5.67Z" />
    <g>
      <path d="M83.86,334.73a3.22,3.22,0,0,1-.31,1.39,2.36,2.36,0,0,1-.92,1,2.76,2.76,0,0,1-1.48.38,2.69,2.69,0,0,1-1.49-.39,2.44,2.44,0,0,1-.91-1,3.14,3.14,0,0,1-.3-1.36,3.19,3.19,0,0,1,.3-1.37,2.35,2.35,0,0,1,.91-1,2.69,2.69,0,0,1,1.49-.39,3,3,0,0,1,1.18.22,2.32,2.32,0,0,1,.85.61,2.75,2.75,0,0,1,.51.88A3.43,3.43,0,0,1,83.86,334.73Zm-1.47,0a1.65,1.65,0,0,0-.08-.56,1.32,1.32,0,0,0-.23-.44,1.18,1.18,0,0,0-.4-.29,1.43,1.43,0,0,0-.53-.1,1.16,1.16,0,0,0-.91.38,1.5,1.5,0,0,0-.33,1,1.48,1.48,0,0,0,.34,1,1.12,1.12,0,0,0,.9.39,1.25,1.25,0,0,0,.68-.18,1.19,1.19,0,0,0,.42-.49A1.81,1.81,0,0,0,82.39,334.73Z" style="fill: #fff" />
      <path d="M88,337.44H86.71v-.57a1.63,1.63,0,0,1-.55.48,1.35,1.35,0,0,1-.69.16,1,1,0,0,1-1-.53,2.8,2.8,0,0,1-.24-1.18v-2.34h1.24v2.15a1.42,1.42,0,0,0,.1.57.39.39,0,0,0,.41.24.58.58,0,0,0,.43-.17,2.92,2.92,0,0,0,.32-.45v-2.34H88Z" style="fill: #fff" />
      <path d="M91.22,337.21a2.19,2.19,0,0,1-.53.2,2.13,2.13,0,0,1-.64.1c-.9,0-1.34-.5-1.34-1.49v-1.58h-.56v-.25l1.66-1.92H90v1.19h1.18v1H90v1.27a3.21,3.21,0,0,0,0,.36.43.43,0,0,0,.14.23.53.53,0,0,0,.34.09,1.65,1.65,0,0,0,.77-.28Z" style="fill: #fff" />
    </g>
    <g>
      <path d="M28.18,337.06l-.27.11-.21.07a1.7,1.7,0,0,1-.29.09,5.34,5.34,0,0,1-.65.13,5.09,5.09,0,0,1-.69.05,3,3,0,0,1-1.34-.3,2.22,2.22,0,0,1-1-.94,3,3,0,0,1-.37-1.55,3.59,3.59,0,0,1,.19-1.17,2,2,0,0,1,.58-.91,2.57,2.57,0,0,1,.65-.44,2.53,2.53,0,0,1,.65-.2,5,5,0,0,1,.7-.05,4.24,4.24,0,0,1,1,.11c.27.07.57.16.9.28v1.28a4.52,4.52,0,0,0-.69-.36,2.58,2.58,0,0,0-.9-.14,1.64,1.64,0,0,0-1,.27A1.35,1.35,0,0,0,25,334a1.94,1.94,0,0,0-.15.72,1.73,1.73,0,0,0,.17.76,1.28,1.28,0,0,0,.51.55,1.51,1.51,0,0,0,.82.21,2,2,0,0,0,.58-.08v-.64h-.64v-1.09h1.9Z" style="fill: #fff" />
      <path d="M32.45,337.24a4.55,4.55,0,0,1-.5.19,1.77,1.77,0,0,1-.55.08.61.61,0,0,1-.43-.12.9.9,0,0,1-.17-.3,1.9,1.9,0,0,1-.44.3,1.49,1.49,0,0,1-.64.12,1.14,1.14,0,0,1-.62-.15.8.8,0,0,1-.33-.38,1.27,1.27,0,0,1-.09-.47,1,1,0,0,1,.16-.61,1.19,1.19,0,0,1,.44-.39,4.86,4.86,0,0,1,.73-.32l.39-.14.19-.08a.46.46,0,0,0,.14-.07.83.83,0,0,0-.1-.45c-.07-.11-.22-.16-.45-.16a1.41,1.41,0,0,0-.75.2,2.81,2.81,0,0,0-.64.52v-1.08a2.55,2.55,0,0,1,.5-.3,2.81,2.81,0,0,1,.56-.18,3,3,0,0,1,.59-.06,1.68,1.68,0,0,1,1.15.34,1.16,1.16,0,0,1,.38.92v1.53a1,1,0,0,0,0,.33.12.12,0,0,0,.13.1.61.61,0,0,0,.31-.11Zm-1.72-.76v-.94a2.89,2.89,0,0,0-.64.36.53.53,0,0,0-.2.44.43.43,0,0,0,.1.31.3.3,0,0,0,.23.1.52.52,0,0,0,.26-.08C30.56,336.62,30.64,336.55,30.73,336.48Z" style="fill: #fff" />
      <path d="M35.32,337.21a2.37,2.37,0,0,1-.53.2,2.14,2.14,0,0,1-.65.1c-.89,0-1.33-.5-1.33-1.49v-1.58h-.56v-.25l1.66-1.92h.14v1.19h1.18v1H34.05v1.27a1.84,1.84,0,0,0,0,.36.37.37,0,0,0,.14.23.51.51,0,0,0,.34.09,1.65,1.65,0,0,0,.77-.28Z" style="fill: #fff" />
      <path d="M39.17,335.79H36.71a1,1,0,0,0,.35.59,1,1,0,0,0,.64.23,3,3,0,0,0,1.38-.39v.87a4.18,4.18,0,0,1-.66.29,3.27,3.27,0,0,1-1,.13,2.11,2.11,0,0,1-1.1-.27,1.76,1.76,0,0,1-.68-.75,2.64,2.64,0,0,1,0-2.11,1.63,1.63,0,0,1,.68-.72,2.11,2.11,0,0,1,1.1-.27,1.72,1.72,0,0,1,.82.21,1.61,1.61,0,0,1,.66.68,2.61,2.61,0,0,1,.25,1.23Zm-1.16-.7a1,1,0,0,0-.17-.61.56.56,0,0,0-.48-.23.62.62,0,0,0-.5.24.94.94,0,0,0-.19.6Z" style="fill: #fff" />
    </g>
    <path d="M101,275.65V270a14.22,14.22,0,0,0-14.17-14.17H79.9l-46-.16h-5.7A14.22,14.22,0,0,0,14,269.82v22.27a5.7,5.7,0,0,0,5.67,5.67h12.5l54.56.16h8.61a5.69,5.69,0,0,0,5.67-5.67Z" style="fill: #ededed;stroke: #000;stroke-miterlimit: 10" />
    <g>
      <path d="M80.39,294.31H78.84l-.37-1a4.3,4.3,0,0,0-.37-.77.87.87,0,0,0-.32-.32,1.18,1.18,0,0,0-.41-.06h-.16v2.11H75.77V288.9h2.45a1.64,1.64,0,0,1,1,.27,1.55,1.55,0,0,1,.54.66,1.93,1.93,0,0,1,.17.75,1.6,1.6,0,0,1-.14.69,1.27,1.27,0,0,1-.29.41,3.12,3.12,0,0,1-.35.25,1.45,1.45,0,0,1,.38.36,5.43,5.43,0,0,1,.41.84Zm-2-3.7a.62.62,0,0,0-.22-.53,1.29,1.29,0,0,0-.71-.15h-.3v1.31h.31a1.36,1.36,0,0,0,.72-.13A.57.57,0,0,0,78.44,290.61Z" />
      <path d="M84.14,292.66H81.68a1,1,0,0,0,.35.59,1,1,0,0,0,.64.24,3.12,3.12,0,0,0,1.39-.4V294a4.63,4.63,0,0,1-.66.29,3.08,3.08,0,0,1-1,.13,2.14,2.14,0,0,1-1.1-.27,1.76,1.76,0,0,1-.68-.75,2.64,2.64,0,0,1,0-2.11,1.63,1.63,0,0,1,.68-.72,2.14,2.14,0,0,1,1.1-.27,1.76,1.76,0,0,1,.83.21,1.62,1.62,0,0,1,.65.69,2.54,2.54,0,0,1,.25,1.22ZM83,292a1.06,1.06,0,0,0-.16-.62.57.57,0,0,0-.48-.22.59.59,0,0,0-.5.23.91.91,0,0,0-.19.61Z" />
      <path d="M87.21,293.15a1.21,1.21,0,0,1-.35.89,1.46,1.46,0,0,1-1,.34,2.84,2.84,0,0,1-.69-.08,4.77,4.77,0,0,1-.66-.23v-1a4.15,4.15,0,0,0,.54.31,1.23,1.23,0,0,0,.51.11c.31,0,.46-.1.46-.29a.24.24,0,0,0-.07-.18.8.8,0,0,0-.23-.17l-.45-.23a1.85,1.85,0,0,1-.58-.46,1.07,1.07,0,0,1-.24-.71,1.12,1.12,0,0,1,.16-.57,1.21,1.21,0,0,1,.48-.44,1.61,1.61,0,0,1,.78-.18l.28,0a2.57,2.57,0,0,1,.93.3v1l-.19-.13-.2-.11a1.36,1.36,0,0,0-.29-.11,1,1,0,0,0-.34,0,.37.37,0,0,0-.29.09.31.31,0,0,0-.08.19.29.29,0,0,0,.08.18,1.24,1.24,0,0,0,.37.21,2.82,2.82,0,0,1,.66.37,1,1,0,0,1,.35.41A1.27,1.27,0,0,1,87.21,293.15Z" />
      <path d="M91.19,292.66H88.72a1,1,0,0,0,.36.59.94.94,0,0,0,.63.24,3.12,3.12,0,0,0,1.39-.4V294a4.18,4.18,0,0,1-.66.29,3.08,3.08,0,0,1-1,.13,2.14,2.14,0,0,1-1.1-.27,1.76,1.76,0,0,1-.68-.75,2.64,2.64,0,0,1,0-2.11,1.63,1.63,0,0,1,.68-.72,2.14,2.14,0,0,1,1.1-.27,1.76,1.76,0,0,1,.83.21,1.62,1.62,0,0,1,.65.69,2.54,2.54,0,0,1,.26,1.22ZM90,292a1.06,1.06,0,0,0-.16-.62.55.55,0,0,0-.48-.22.59.59,0,0,0-.5.23.91.91,0,0,0-.19.61Z" />
      <path d="M94.27,294.08a2.37,2.37,0,0,1-.53.2,2.14,2.14,0,0,1-.65.1c-.89,0-1.33-.5-1.33-1.48v-1.59H91.2v-.25l1.66-1.92H93v1.19h1.18v1H93v1.27a3.21,3.21,0,0,0,0,.36.37.37,0,0,0,.14.23.51.51,0,0,0,.34.09,1.65,1.65,0,0,0,.77-.28Z" />
    </g>
    <g>
      <path d="M26.53,293.9a2.73,2.73,0,0,1-.6.28,5.15,5.15,0,0,1-.62.16c-.21,0-.43,0-.66,0a3,3,0,0,1-1.11-.2,2.4,2.4,0,0,1-.86-.57,2.53,2.53,0,0,1-.54-.89A3.37,3.37,0,0,1,22,291.6a3.3,3.3,0,0,1,.21-1.23,2.26,2.26,0,0,1,.6-.87,2.38,2.38,0,0,1,.87-.51,3.22,3.22,0,0,1,1-.17,5.05,5.05,0,0,1,1.84.41v1.44a4.32,4.32,0,0,0-.7-.42,1.86,1.86,0,0,0-.81-.16,1.72,1.72,0,0,0-.78.18,1.58,1.58,0,0,0-.58.54,1.53,1.53,0,0,0-.22.81,1.45,1.45,0,0,0,.2.75,1.4,1.4,0,0,0,.53.55,1.55,1.55,0,0,0,.77.2,2.07,2.07,0,0,0,.66-.1,2.55,2.55,0,0,0,.52-.21,4.46,4.46,0,0,0,.43-.28Z" />
      <path d="M28.32,294.31H27.08V288.9h1.24Z" />
      <path d="M32.75,292.32a2.42,2.42,0,0,1-.22,1.06,1.77,1.77,0,0,1-.68.73,2.11,2.11,0,0,1-1.1.27,2.15,2.15,0,0,1-1.11-.27,1.69,1.69,0,0,1-.67-.73,2.43,2.43,0,0,1-.23-1.06,2.39,2.39,0,0,1,.13-.82,1.86,1.86,0,0,1,.38-.65,1.65,1.65,0,0,1,.63-.43,2.45,2.45,0,0,1,1.74,0,1.65,1.65,0,0,1,.63.43,1.83,1.83,0,0,1,.38.65A2.62,2.62,0,0,1,32.75,292.32Zm-1.3,0a1.28,1.28,0,0,0-.18-.74.59.59,0,0,0-.52-.27.58.58,0,0,0-.52.27,1.21,1.21,0,0,0-.19.74,1.25,1.25,0,0,0,.19.74.58.58,0,0,0,.52.27.59.59,0,0,0,.52-.27A1.33,1.33,0,0,0,31.45,292.32Z" />
      <path d="M36.11,294.13l-.32.12a2.23,2.23,0,0,1-.39.09,2.35,2.35,0,0,1-.47,0,1.93,1.93,0,0,1-1-.22,1.58,1.58,0,0,1-.61-.56,1.94,1.94,0,0,1-.3-.68,2.37,2.37,0,0,1,0-1.22,2.25,2.25,0,0,1,.29-.68,1.8,1.8,0,0,1,.61-.54,2.09,2.09,0,0,1,1-.22,2.19,2.19,0,0,1,.63.07,3.6,3.6,0,0,1,.5.16v1.11a3,3,0,0,0-1-.22.84.84,0,0,0-.84.93,1,1,0,0,0,.13.53.76.76,0,0,0,.32.32.81.81,0,0,0,.39.1,1.7,1.7,0,0,0,.42-.06l.58-.18Z" />
      <path d="M40.59,294.31H39l-1.34-1.89v1.89H36.42V288.9h1.26v3.17l1.22-1.74h1.49L39,292.19Z" />
    </g>
    <g>
      <path d="M63.34,8.11l-5.53,7v-6a1.3,1.3,0,0,0-.64-1.18.91.91,0,0,0-1.13.3l-7.28,9.24a1.48,1.48,0,0,0,0,1.79.9.9,0,0,0,1.46,0l5.5-7v6a1.3,1.3,0,0,0,.64,1.18.92.92,0,0,0,1.14-.3l5.53-7v6.15a1.05,1.05,0,1,0,2.06,0V9a1.26,1.26,0,0,0-.65-1.17A.9.9,0,0,0,63.34,8.11Z" style="stroke: #000;stroke-width: 0.6000000000000001px" />
      <path d="M48.76,8,44,14.17A1.47,1.47,0,0,0,44,16a.91.91,0,0,0,1.46,0l3-3.87v6.3a1.05,1.05,0,1,0,2.06,0V8.92a1.28,1.28,0,0,0-.65-1.17A.9.9,0,0,0,48.76,8Z" style="stroke: #000;stroke-width: 0.6000000000000001px" />
      <path d="M71.71,12.56a1,1,0,0,0-.95-.77h-2.1l1.53-1.95s.8-1.18.1-1.82-1.58.06-1.58.06l-3.23,4.1a1.44,1.44,0,0,0-.2,1.37,1,1,0,0,0,1,.77h2.1l-2.49,3.17s-1,1.13-.27,1.89,1.75-.13,1.75-.13l4.18-5.32A1.47,1.47,0,0,0,71.71,12.56Z" style="stroke: #000;stroke-width: 0.6000000000000001px" />
    </g>
  </g>
  <g /></svg>