<svg xmlns="http://www.w3.org/2000/svg" width="86.45mm" height="130.6mm" viewBox="0 0 245.05 370.19">
  <defs>
    <clipPath id="clip-path">
      <rect x="50.44" y="32.9" width="27.8" height="25.62" style="fill: none" />
    </clipPath>
    <clipPath id="clip-path-2">
      <rect x="50.44" y="32.9" width="27.8" height="25.62" style="fill: none" />
    </clipPath>
    <clipPath id="clip-path-3">
      <rect x="88.65" y="32.9" width="27.8" height="25.62" style="fill: none" />
    </clipPath>
    <clipPath id="clip-path-4">
      <rect x="88.65" y="32.9" width="27.8" height="25.62" style="fill: none" />
    </clipPath>
    <clipPath id="clip-path-5">
      <rect x="126.85" y="32.9" width="27.8" height="25.62" style="fill: none" />
    </clipPath>
    <clipPath id="clip-path-6">
      <rect x="126.85" y="32.9" width="27.8" height="25.62" style="fill: none" />
    </clipPath>
    <clipPath id="clip-path-7">
      <rect x="165.06" y="32.9" width="27.8" height="25.62" style="fill: none" />
    </clipPath>
    <clipPath id="clip-path-8">
      <rect x="165.06" y="32.9" width="27.8" height="25.62" style="fill: none" />
    </clipPath>
    <clipPath id="clip-path-9">
      <rect x="18.1" y="156.59" width="27.8" height="25.62" style="fill: none" />
    </clipPath>
    <clipPath id="clip-path-20">
      <rect x="198.87" y="156.59" width="27.8" height="25.62" style="fill: none" />
    </clipPath>
    <clipPath id="clip-path-31">
      <rect x="18.1" y="197.78" width="27.8" height="25.62" style="fill: none" />
    </clipPath>
    <clipPath id="clip-path-42">
      <rect x="198.87" y="197.78" width="27.8" height="25.62" style="fill: none" />
    </clipPath>
  </defs>
  <g id="faceplate">
    <rect x="0.13" y="0.13" width="244.8" height="364.25" style="fill: #ededed;stroke: #9d9d9e;stroke-miterlimit: 10;stroke-width: 0.25px" />
    <g>
      <path d="M128.14,6.74l-5.53,7v-6A1.3,1.3,0,0,0,122,6.56a.91.91,0,0,0-1.13.3l-7.28,9.25a1.49,1.49,0,0,0,0,1.79.9.9,0,0,0,1.46,0l5.5-7v6a1.29,1.29,0,0,0,.64,1.18.92.92,0,0,0,1.14-.3l5.53-7V16.9a1.05,1.05,0,1,0,2.06,0V7.61a1.27,1.27,0,0,0-.65-1.17A.9.9,0,0,0,128.14,6.74Z" style="stroke: #000;stroke-width: 0.6000000000000001px" />
      <path d="M113.56,6.66l-4.81,6.13a1.47,1.47,0,0,0,0,1.79.9.9,0,0,0,1.46,0l3-3.87V17a1.05,1.05,0,1,0,2.06,0V7.54a1.29,1.29,0,0,0-.65-1.17A.91.91,0,0,0,113.56,6.66Z" style="stroke: #000;stroke-width: 0.6000000000000001px" />
      <path d="M136.51,11.18a1.05,1.05,0,0,0-.95-.77h-2.1L135,8.46s.8-1.18.1-1.82-1.58.06-1.58.06l-3.23,4.1a1.45,1.45,0,0,0-.2,1.37,1,1,0,0,0,.95.77h2.1l-2.49,3.18s-1,1.12-.27,1.89,1.75-.14,1.75-.14l4.18-5.31A1.5,1.5,0,0,0,136.51,11.18Z" style="stroke: #000;stroke-width: 0.6000000000000001px" />
    </g>
    <g>
      <path d="M102.84,355.28a2.49,2.49,0,0,1-.29,1.21,2,2,0,0,1-.82.78,2.59,2.59,0,0,1-1.2.27l-.47,0a4.75,4.75,0,0,1-.73-.17,5.62,5.62,0,0,1-1-.39v-1.83a6.26,6.26,0,0,0,.91.58,2.12,2.12,0,0,0,1,.23c.31,0,.52-.06.61-.19a.63.63,0,0,0,.14-.36.62.62,0,0,0-.24-.5,3.33,3.33,0,0,0-.69-.43,4.93,4.93,0,0,1-.88-.56,2.44,2.44,0,0,1-.62-.76,2.32,2.32,0,0,1-.24-1.08,2.45,2.45,0,0,1,.24-1.09,1.91,1.91,0,0,1,.74-.78,2.42,2.42,0,0,1,1.22-.29,3.5,3.5,0,0,1,.94.13,3.65,3.65,0,0,1,.72.27,3.24,3.24,0,0,1,.38.23v1.75a4.74,4.74,0,0,0-.83-.59,2,2,0,0,0-1-.25.65.65,0,0,0-.5.16.55.55,0,0,0-.16.39.57.57,0,0,0,.16.39,3,3,0,0,0,.55.39,12.85,12.85,0,0,1,1.13.72,2.59,2.59,0,0,1,.66.75A2.09,2.09,0,0,1,102.84,355.28Z" />
      <path d="M108.69,357.44h-4.6V350h4.53v1.49h-2.69v1.36h2.56v1.5h-2.56v1.59h2.76Z" />
      <path d="M116.72,358l-1.29,1.43a8.86,8.86,0,0,1-1.51-.55,10.92,10.92,0,0,1-1.5-.85,4.1,4.1,0,0,1-.88-.75,3,3,0,0,1-1-.68,3.79,3.79,0,0,1-.75-1.19,4.54,4.54,0,0,1-.29-1.68,4.66,4.66,0,0,1,.38-1.87,3.2,3.2,0,0,1,1.16-1.41,3.34,3.34,0,0,1,1.92-.54,3.59,3.59,0,0,1,1.54.32,2.94,2.94,0,0,1,1.08.85,3.47,3.47,0,0,1,.64,1.22,4.9,4.9,0,0,1,.21,1.43,4.45,4.45,0,0,1-.27,1.61,3.36,3.36,0,0,1-.69,1.17,3.25,3.25,0,0,1-1,.74,7.23,7.23,0,0,0,1,.45,3.31,3.31,0,0,0,1.13.18Zm-2.14-4.27a2.59,2.59,0,0,0-.1-.76,1.71,1.71,0,0,0-.31-.6,1.31,1.31,0,0,0-.5-.4,1.45,1.45,0,0,0-.68-.14,1.4,1.4,0,0,0-1.16.52,2.14,2.14,0,0,0-.42,1.38,2.19,2.19,0,0,0,.42,1.39,1.41,1.41,0,0,0,1.16.53,1.54,1.54,0,0,0,.87-.25,1.64,1.64,0,0,0,.54-.67A2.59,2.59,0,0,0,114.58,353.71Z" />
      <path d="M124,354.11a4,4,0,0,1-.29,1.63,2.77,2.77,0,0,1-.77,1.06,3.33,3.33,0,0,1-1,.57,4,4,0,0,1-1.12.17,3.74,3.74,0,0,1-1.5-.32,2.81,2.81,0,0,1-1.23-1.1,3.7,3.7,0,0,1-.49-2V350h1.83v3.53a3.47,3.47,0,0,0,.18,1.21,1.4,1.4,0,0,0,.48.71,1.28,1.28,0,0,0,.73.22,1.2,1.2,0,0,0,.72-.22,1.45,1.45,0,0,0,.49-.7,3.75,3.75,0,0,0,.17-1.21V350H124Z" />
      <path d="M132.11,357.44h-1.88l-.5-1.51h-2.65l-.51,1.51h-1.88l2.69-7.44h2Zm-2.81-2.8-.89-2.72-.9,2.72Z" />
      <path d="M139.55,357.44h-1.64l-3.17-4.14v4.14h-1.82V350h1.63l3.16,4.12V350h1.84Z" />
      <path d="M146.94,351.81H144.7v5.63h-1.84v-5.63h-2.23V350h6.31Z" />
    </g>
    <g id="pips_-_fewest" data-name="pips - fewest">
      <g style="clip-path: url(#clip-path)">
        <g style="clip-path: url(#clip-path-2)">
          <path d="M70,35.68l.71-1.24A13.86,13.86,0,0,0,65,32.9v1.43A12.39,12.39,0,0,1,70,35.68" />
          <path d="M74.83,40l1.24-.71a14,14,0,0,0-4.23-4.22l-.71,1.23a12.55,12.55,0,0,1,3.7,3.7" />
          <path d="M57.56,36.31l-.71-1.23a14,14,0,0,0-4.23,4.22l1.24.71a12.55,12.55,0,0,1,3.7-3.7" />
          <path d="M76.82,46.17h1.43A13.83,13.83,0,0,0,76.7,40.4l-1.23.71a12.47,12.47,0,0,1,1.35,5.06" />
          <path d="M63.71,34.33V32.9a13.86,13.86,0,0,0-5.77,1.54l.71,1.24a12.39,12.39,0,0,1,5.06-1.35" />
          <path d="M53.86,53.59l-1.24.71a14,14,0,0,0,4.23,4.22l.71-1.23a12.55,12.55,0,0,1-3.7-3.7" />
          <path d="M71.13,57.29l.71,1.23a14,14,0,0,0,4.23-4.22l-1.24-.71a12.55,12.55,0,0,1-3.7,3.7" />
          <path d="M76.82,47.43a12.47,12.47,0,0,1-1.35,5.06l1.23.71a13.83,13.83,0,0,0,1.55-5.77Z" />
          <path d="M51.87,47.43H50.44A13.83,13.83,0,0,0,52,53.2l1.23-.71a12.47,12.47,0,0,1-1.35-5.06" />
          <path d="M53.22,41.11,52,40.4a13.83,13.83,0,0,0-1.55,5.77h1.43a12.47,12.47,0,0,1,1.35-5.06" />
        </g>
      </g>
    </g>
    <g>
      <path d="M55.67,62.35H53.49v5.12h-1.8V62.35H49.51V60.7h6.16Z" />
      <path d="M60.6,65.41H57.52a1.21,1.21,0,0,0,.44.74,1.23,1.23,0,0,0,.8.29,3.77,3.77,0,0,0,1.72-.5V67a4.56,4.56,0,0,1-.82.36,3.83,3.83,0,0,1-1.23.17,2.56,2.56,0,0,1-1.37-.35,2,2,0,0,1-.85-.92A3,3,0,0,1,55.93,65a2.9,2.9,0,0,1,.28-1.31,2,2,0,0,1,.85-.91,2.65,2.65,0,0,1,1.37-.33,2.22,2.22,0,0,1,1,.26,2.07,2.07,0,0,1,.82.86,3.22,3.22,0,0,1,.32,1.53Zm-1.46-.87a1.37,1.37,0,0,0-.2-.77.7.7,0,0,0-.6-.28.79.79,0,0,0-.63.29,1.15,1.15,0,0,0-.24.76Z" />
      <path d="M68.8,67.47H67.25V64.82A1.63,1.63,0,0,0,67.1,64a.5.5,0,0,0-.48-.26.68.68,0,0,0-.53.22,2.9,2.9,0,0,0-.41.56v2.92H64.13V64.82A1.78,1.78,0,0,0,64,64a.54.54,0,0,0-.51-.27.55.55,0,0,0-.31.08.92.92,0,0,0-.24.17,3.51,3.51,0,0,0-.22.29c-.08.13-.14.21-.16.24v2.92H61v-5h1.54v.71a2.44,2.44,0,0,1,.71-.61,1.72,1.72,0,0,1,.83-.19,2,2,0,0,1,.43.05,1.34,1.34,0,0,1,.4.16,1.1,1.1,0,0,1,.35.3,1.58,1.58,0,0,1,.26.46,2.91,2.91,0,0,1,.77-.73,1.79,1.79,0,0,1,.93-.24,1.54,1.54,0,0,1,.88.24,1.41,1.41,0,0,1,.52.69,3.22,3.22,0,0,1,.17,1.1Z" />
      <path d="M74.17,65a3.83,3.83,0,0,1-.12,1,2.92,2.92,0,0,1-.38.84,1.88,1.88,0,0,1-.66.59,2,2,0,0,1-.94.22,1.73,1.73,0,0,1-.67-.11,2.45,2.45,0,0,1-.5-.27v2.55H69.36V62.5H70.9V63a2.44,2.44,0,0,1,.52-.39,1.63,1.63,0,0,1,.76-.15,1.85,1.85,0,0,1,.94.27,2,2,0,0,1,.75.84A3,3,0,0,1,74.17,65Zm-1.63,0a1.89,1.89,0,0,0-.12-.73,1,1,0,0,0-.32-.41.81.81,0,0,0-.41-.12.83.83,0,0,0-.45.1,2,2,0,0,0-.34.25V66l.18.11a.81.81,0,0,0,.18.1l.2.08a.85.85,0,0,0,.23,0A.75.75,0,0,0,72.3,66,1.71,1.71,0,0,0,72.54,65Z" />
      <path d="M79.45,65a3,3,0,0,1-.28,1.32,2.1,2.1,0,0,1-.85.92,2.71,2.71,0,0,1-1.38.34,2.65,2.65,0,0,1-1.37-.34,2.1,2.1,0,0,1-.85-.92A3,3,0,0,1,74.44,65a3.22,3.22,0,0,1,.15-1,2.35,2.35,0,0,1,.48-.81,2.12,2.12,0,0,1,.79-.55,2.78,2.78,0,0,1,1.08-.19,2.88,2.88,0,0,1,1.1.19A2.16,2.16,0,0,1,79.29,64,3.05,3.05,0,0,1,79.45,65Zm-1.63,0a1.66,1.66,0,0,0-.22-.93.82.82,0,0,0-1.31,0,1.66,1.66,0,0,0-.22.93,1.69,1.69,0,0,0,.22.93.8.8,0,0,0,1.31,0A1.69,1.69,0,0,0,77.82,65Z" />
    </g>
    <g>
      <path d="M215.26,65.89a1.65,1.65,0,0,1-.23.88,1.42,1.42,0,0,1-.64.57,2.12,2.12,0,0,1-.93.2l-.37,0-.57-.12a4.69,4.69,0,0,1-.74-.29V65.78a4.88,4.88,0,0,0,.71.42,1.59,1.59,0,0,0,.75.17.6.6,0,0,0,.47-.14.39.39,0,0,0,.11-.26.47.47,0,0,0-.18-.37,3.11,3.11,0,0,0-.54-.31,3.81,3.81,0,0,1-.69-.41,1.59,1.59,0,0,1-.48-.55,1.5,1.5,0,0,1-.19-.78,1.59,1.59,0,0,1,.19-.79,1.33,1.33,0,0,1,.58-.57,2,2,0,0,1,1-.21,2.81,2.81,0,0,1,.73.09,2.57,2.57,0,0,1,.56.2,1.63,1.63,0,0,1,.3.17v1.27a3.86,3.86,0,0,0-.65-.43,1.69,1.69,0,0,0-.77-.19.52.52,0,0,0-.38.12.4.4,0,0,0-.12.29.38.38,0,0,0,.12.28,2,2,0,0,0,.42.28,8.35,8.35,0,0,1,.89.53,1.85,1.85,0,0,1,.51.54A1.41,1.41,0,0,1,215.26,65.89Z" />
      <path d="M219.34,65.82h-2.46a.93.93,0,0,0,.35.59,1,1,0,0,0,.64.23,3,3,0,0,0,1.38-.39v.87a4.18,4.18,0,0,1-.66.29,3,3,0,0,1-1,.13,2.11,2.11,0,0,1-1.1-.27,1.76,1.76,0,0,1-.68-.75,2.53,2.53,0,0,1,0-2.11,1.63,1.63,0,0,1,.68-.72,2.11,2.11,0,0,1,1.1-.27,1.72,1.72,0,0,1,.82.21,1.59,1.59,0,0,1,.65.68,2.49,2.49,0,0,1,.26,1.23Zm-1.16-.69a1.06,1.06,0,0,0-.17-.62.55.55,0,0,0-.48-.22.61.61,0,0,0-.5.23,1,1,0,0,0-.19.61Z" />
      <path d="M221,67.47h-1.24V62.05H221Z" />
      <path d="M225.13,65.82h-2.46a.93.93,0,0,0,.35.59,1,1,0,0,0,.64.23,3,3,0,0,0,1.38-.39v.87a4.18,4.18,0,0,1-.66.29,3,3,0,0,1-1,.13,2.11,2.11,0,0,1-1.1-.27,1.76,1.76,0,0,1-.68-.75,2.53,2.53,0,0,1,0-2.11,1.63,1.63,0,0,1,.68-.72,2.11,2.11,0,0,1,1.1-.27,1.72,1.72,0,0,1,.82.21,1.59,1.59,0,0,1,.65.68,2.61,2.61,0,0,1,.26,1.23ZM224,65.13a1.06,1.06,0,0,0-.17-.62.55.55,0,0,0-.48-.22.61.61,0,0,0-.5.23.91.91,0,0,0-.19.61Z" />
      <path d="M228.45,67.29l-.32.12a2.23,2.23,0,0,1-.39.09,2.29,2.29,0,0,1-.47,0,2,2,0,0,1-1-.22,1.66,1.66,0,0,1-.61-.56,2.4,2.4,0,0,1-.3-.68,2.37,2.37,0,0,1,0-1.22,2.28,2.28,0,0,1,.3-.68,1.76,1.76,0,0,1,.6-.54,2,2,0,0,1,1-.22,2.68,2.68,0,0,1,.63.06,4.91,4.91,0,0,1,.5.17v1.11a2.89,2.89,0,0,0-1-.22.81.81,0,0,0-.58.23.88.88,0,0,0-.26.7,1,1,0,0,0,.13.53.76.76,0,0,0,.32.32.81.81,0,0,0,.39.1,1.77,1.77,0,0,0,.43-.06,5.89,5.89,0,0,0,.57-.18Z" />
      <path d="M231.53,67.24a2.19,2.19,0,0,1-.53.2,2.13,2.13,0,0,1-.64.1c-.9,0-1.34-.5-1.34-1.49V64.47h-.56v-.25l1.66-1.92h.14v1.19h1.18v1h-1.18v1.27a3.21,3.21,0,0,0,0,.36.37.37,0,0,0,.14.23.53.53,0,0,0,.34.09,1.65,1.65,0,0,0,.77-.28Z" />
    </g>
    <g>
      <path d="M17.77,64.43a1.58,1.58,0,0,1-.23.88,1.45,1.45,0,0,1-.63.57,2.2,2.2,0,0,1-.94.2l-.36,0a5.51,5.51,0,0,1-.58-.12,5.91,5.91,0,0,1-.74-.29V64.32a4.88,4.88,0,0,0,.71.42,1.79,1.79,0,0,0,.75.17.61.61,0,0,0,.48-.14.45.45,0,0,0,.11-.26.47.47,0,0,0-.19-.37,2.5,2.5,0,0,0-.54-.31,3.81,3.81,0,0,1-.69-.41,1.83,1.83,0,0,1-.48-.55,1.62,1.62,0,0,1-.19-.79,1.74,1.74,0,0,1,.19-.79,1.43,1.43,0,0,1,.58-.56,2,2,0,0,1,1-.21,2.94,2.94,0,0,1,.74.09,2.5,2.5,0,0,1,.55.19,2.15,2.15,0,0,1,.31.18v1.26a4.82,4.82,0,0,0-.65-.42,1.6,1.6,0,0,0-.77-.19.54.54,0,0,0-.39.12.38.38,0,0,0-.12.29.39.39,0,0,0,.12.28,2.27,2.27,0,0,0,.43.28,9.18,9.18,0,0,1,.88.53,1.78,1.78,0,0,1,.52.54A1.47,1.47,0,0,1,17.77,64.43Z" />
      <path d="M21.27,65.78a3,3,0,0,1-.53.2,2.57,2.57,0,0,1-.65.1c-.89,0-1.33-.5-1.33-1.49V63h-.57v-.25l1.67-1.92H20V62h1.18v1H20v1.27a1.84,1.84,0,0,0,0,.36.37.37,0,0,0,.14.23.5.5,0,0,0,.33.09,1.64,1.64,0,0,0,.78-.28Z" />
      <path d="M25.41,65.81c-.18.08-.35.14-.5.19a1.84,1.84,0,0,1-.56.08.54.54,0,0,1-.42-.13.64.64,0,0,1-.17-.3,1.72,1.72,0,0,1-.45.31,1.43,1.43,0,0,1-.64.12,1.1,1.1,0,0,1-.61-.15.8.8,0,0,1-.33-.38,1.1,1.1,0,0,1-.1-.47,1.13,1.13,0,0,1,.16-.61,1.28,1.28,0,0,1,.44-.39,6,6,0,0,1,.73-.32l.39-.14.2-.08.14-.07a.83.83,0,0,0-.11-.45c-.06-.11-.21-.17-.44-.17a1.48,1.48,0,0,0-.76.21,2.57,2.57,0,0,0-.63.52V62.5a2.29,2.29,0,0,1,.5-.3,2.62,2.62,0,0,1,.56-.18A2.88,2.88,0,0,1,23.4,62a1.7,1.7,0,0,1,1.14.33,1.15,1.15,0,0,1,.38.92v1.54a1.19,1.19,0,0,0,0,.32.13.13,0,0,0,.13.11.76.76,0,0,0,.32-.11Zm-1.72-.76v-1a3.44,3.44,0,0,0-.65.37.54.54,0,0,0-.2.44.45.45,0,0,0,.1.3.34.34,0,0,0,.24.11.49.49,0,0,0,.25-.08Z" />
      <path d="M28.84,62.24l-.46,1.41a.81.81,0,0,0-.57-.3.62.62,0,0,0-.45.2,2.06,2.06,0,0,0-.37.75V66H25.76V62H27v1a1.94,1.94,0,0,1,.42-.69A.86.86,0,0,1,28.1,62a.87.87,0,0,1,.37.07Z" />
      <path d="M32,65.78a3.33,3.33,0,0,1-.53.2,2.57,2.57,0,0,1-.65.1c-.89,0-1.34-.5-1.34-1.49V63h-.56v-.25l1.66-1.92h.14V62h1.19v1H30.68v1.27a1.73,1.73,0,0,0,0,.36.36.36,0,0,0,.13.23.55.55,0,0,0,.34.09,1.64,1.64,0,0,0,.78-.28Z" />
    </g>
    <g>
      <path d="M18.66,71.24a1.67,1.67,0,0,1-.23.88,1.54,1.54,0,0,1-.64.57,2.16,2.16,0,0,1-.94.19,2.43,2.43,0,0,1-.36,0,2.92,2.92,0,0,1-.57-.12,3.43,3.43,0,0,1-.74-.29V71.13a4.4,4.4,0,0,0,.71.42,1.71,1.71,0,0,0,.74.17.61.61,0,0,0,.48-.14.47.47,0,0,0,.11-.26A.44.44,0,0,0,17,71a2.14,2.14,0,0,0-.54-.31,4,4,0,0,1-.68-.41,1.85,1.85,0,0,1-.49-.55,1.65,1.65,0,0,1-.18-.79,1.62,1.62,0,0,1,.19-.79,1.29,1.29,0,0,1,.57-.56,2,2,0,0,1,1-.22,2.89,2.89,0,0,1,.74.09,3.56,3.56,0,0,1,.56.2,2.08,2.08,0,0,1,.3.17v1.27a3.3,3.3,0,0,0-.65-.42,1.6,1.6,0,0,0-.77-.19.54.54,0,0,0-.39.12.36.36,0,0,0-.12.28.38.38,0,0,0,.12.28,2.07,2.07,0,0,0,.43.29,8.23,8.23,0,0,1,.88.52,1.93,1.93,0,0,1,.52.55A1.45,1.45,0,0,1,18.66,71.24Z" />
      <path d="M22.15,72.58a2.63,2.63,0,0,1-.53.21,2.47,2.47,0,0,1-.64.09c-.9,0-1.34-.49-1.34-1.48V69.81h-.56v-.24l1.66-1.92h.14v1.19h1.18v1H20.88v1.28a3.53,3.53,0,0,0,0,.36.35.35,0,0,0,.14.22.48.48,0,0,0,.34.1,1.69,1.69,0,0,0,.77-.29Z" />
      <path d="M26.53,70.82a2.39,2.39,0,0,1-.23,1.06,1.71,1.71,0,0,1-.68.73,2.38,2.38,0,0,1-2.2,0,1.71,1.71,0,0,1-.68-.73,2.39,2.39,0,0,1-.23-1.06,2.66,2.66,0,0,1,.13-.82,1.86,1.86,0,0,1,.38-.65,1.76,1.76,0,0,1,.63-.43,2.6,2.6,0,0,1,1.74,0,1.6,1.6,0,0,1,.63.43,1.92,1.92,0,0,1,.38.65A2.66,2.66,0,0,1,26.53,70.82Zm-1.31,0a1.33,1.33,0,0,0-.18-.74.64.64,0,0,0-1,0,1.61,1.61,0,0,0,0,1.48.57.57,0,0,0,.52.28.58.58,0,0,0,.52-.27A1.36,1.36,0,0,0,25.22,70.82Z" />
      <path d="M31,70.8a3.32,3.32,0,0,1-.1.77,2.28,2.28,0,0,1-.31.67,1.47,1.47,0,0,1-.52.47,1.54,1.54,0,0,1-.75.17,1.34,1.34,0,0,1-.54-.08,2,2,0,0,1-.4-.22v2H27.13V68.84h1.23v.36a1.75,1.75,0,0,1,.42-.31,1.29,1.29,0,0,1,.61-.12,1.46,1.46,0,0,1,.74.21,1.6,1.6,0,0,1,.61.67A2.45,2.45,0,0,1,31,70.8Zm-1.31,0a1.42,1.42,0,0,0-.1-.59.69.69,0,0,0-.25-.32.6.6,0,0,0-.33-.1.74.74,0,0,0-.36.08,1.56,1.56,0,0,0-.27.2v1.52l.14.09.15.08a.44.44,0,0,0,.16.06.57.57,0,0,0,.18,0,.59.59,0,0,0,.49-.29A1.3,1.3,0,0,0,29.67,70.83Z" />
    </g>
    <g id="pips_-_fewest-2" data-name="pips - fewest">
      <g style="clip-path: url(#clip-path-3)">
        <g style="clip-path: url(#clip-path-4)">
          <path d="M108.24,35.68l.71-1.24a13.82,13.82,0,0,0-5.77-1.54v1.43a12.31,12.31,0,0,1,5.06,1.35" />
          <path d="M113,40l1.23-.71a13.92,13.92,0,0,0-4.22-4.22l-.71,1.23A12.55,12.55,0,0,1,113,40" />
          <path d="M95.76,36.31l-.71-1.23a13.92,13.92,0,0,0-4.22,4.22l1.23.71a12.55,12.55,0,0,1,3.7-3.7" />
          <path d="M115,46.17h1.43a13.82,13.82,0,0,0-1.54-5.77l-1.24.71A12.31,12.31,0,0,1,115,46.17" />
          <path d="M101.92,34.33V32.9a13.82,13.82,0,0,0-5.77,1.54l.71,1.24a12.31,12.31,0,0,1,5.06-1.35" />
          <path d="M92.06,53.59l-1.23.71a13.92,13.92,0,0,0,4.22,4.22l.71-1.23a12.55,12.55,0,0,1-3.7-3.7" />
          <path d="M109.34,57.29l.71,1.23a13.92,13.92,0,0,0,4.22-4.22L113,53.59a12.55,12.55,0,0,1-3.7,3.7" />
          <path d="M115,47.43a12.31,12.31,0,0,1-1.35,5.06l1.24.71a13.82,13.82,0,0,0,1.54-5.77Z" />
          <path d="M90.08,47.43H88.65a13.82,13.82,0,0,0,1.54,5.77l1.24-.71a12.31,12.31,0,0,1-1.35-5.06" />
          <path d="M91.43,41.11l-1.24-.71a13.82,13.82,0,0,0-1.54,5.77h1.43a12.31,12.31,0,0,1,1.35-5.06" />
        </g>
      </g>
    </g>
    <g>
      <path d="M97.6,64.21a3.62,3.62,0,0,1-.33,1.67,3.44,3.44,0,0,1-.78,1,2.63,2.63,0,0,1-1.8.57H91.48V60.7H94a5.24,5.24,0,0,1,1,.07,3.61,3.61,0,0,1,.72.18,2.72,2.72,0,0,1,.54.27,3.3,3.3,0,0,1,.4.32,3,3,0,0,1,.53.67,3.4,3.4,0,0,1,.37.89A4.33,4.33,0,0,1,97.6,64.21Zm-1.82-.09a2.57,2.57,0,0,0-.28-1.29,1.46,1.46,0,0,0-.67-.62,2.17,2.17,0,0,0-.79-.15h-.76v4H94a2,2,0,0,0,1.22-.38A1.9,1.9,0,0,0,95.78,64.12Z" />
      <path d="M102.59,65.41H99.51a1.27,1.27,0,0,0,1.24,1,3.8,3.8,0,0,0,1.73-.5V67a4.9,4.9,0,0,1-.82.36,3.92,3.92,0,0,1-1.23.17,2.62,2.62,0,0,1-1.38-.35,2.1,2.1,0,0,1-.85-.92A3,3,0,0,1,97.92,65a2.9,2.9,0,0,1,.28-1.31,2.08,2.08,0,0,1,.85-.91,2.71,2.71,0,0,1,1.38-.33,2.28,2.28,0,0,1,1,.26,2,2,0,0,1,.81.86,3.1,3.1,0,0,1,.32,1.53Zm-1.45-.87a1.3,1.3,0,0,0-.21-.77.7.7,0,0,0-.6-.28.77.77,0,0,0-.62.29,1.15,1.15,0,0,0-.24.76Z" />
      <path d="M104.63,67.47h-1.55V60.7h1.55Z" />
      <path d="M109.88,67.22a6.53,6.53,0,0,1-.63.24,2,2,0,0,1-.69.1.7.7,0,0,1-.53-.16.91.91,0,0,1-.22-.37,2.34,2.34,0,0,1-.55.38,1.81,1.81,0,0,1-.8.15,1.44,1.44,0,0,1-.77-.19,1,1,0,0,1-.41-.47,1.56,1.56,0,0,1-.12-.59,1.36,1.36,0,0,1,.2-.76,1.53,1.53,0,0,1,.55-.49,6.37,6.37,0,0,1,.91-.4l.49-.18.25-.09.17-.09a1.14,1.14,0,0,0-.13-.57.64.64,0,0,0-.56-.2,1.81,1.81,0,0,0-.94.25,3.31,3.31,0,0,0-.8.66V63.09a2.41,2.41,0,0,1,.63-.38,3.19,3.19,0,0,1,.7-.23,3.64,3.64,0,0,1,.74-.07,2.12,2.12,0,0,1,1.43.42,1.47,1.47,0,0,1,.47,1.15V65.9a1.3,1.3,0,0,0,0,.4c0,.09.08.14.16.14a1,1,0,0,0,.4-.14Zm-2.15-1V65.09a3.9,3.9,0,0,0-.81.46.66.66,0,0,0-.25.55.52.52,0,0,0,.13.38.37.37,0,0,0,.29.13.57.57,0,0,0,.32-.1Z" />
      <path d="M114.7,62.5l-3,7.23h-1.57l1.21-2.91-1.73-4.32h1.66l.89,2.47,1-2.47Z" />
    </g>
    <g id="pips_-_fewest-3" data-name="pips - fewest">
      <g style="clip-path: url(#clip-path-5)">
        <g style="clip-path: url(#clip-path-6)">
          <path d="M146.45,35.68l.71-1.24a13.86,13.86,0,0,0-5.77-1.54v1.43a12.35,12.35,0,0,1,5.06,1.35" />
          <path d="M151.25,40l1.23-.71a14,14,0,0,0-4.23-4.22l-.71,1.23a12.58,12.58,0,0,1,3.71,3.7" />
          <path d="M134,36.31l-.71-1.23A14,14,0,0,0,129,39.3l1.24.71a12.55,12.55,0,0,1,3.7-3.7" />
          <path d="M153.23,46.17h1.43a13.68,13.68,0,0,0-1.55-5.77l-1.23.71a12.31,12.31,0,0,1,1.35,5.06" />
          <path d="M140.12,34.33V32.9a13.86,13.86,0,0,0-5.77,1.54l.72,1.24a12.31,12.31,0,0,1,5.05-1.35" />
          <path d="M130.27,53.59,129,54.3a14,14,0,0,0,4.23,4.22l.71-1.23a12.55,12.55,0,0,1-3.7-3.7" />
          <path d="M147.54,57.29l.71,1.23a14,14,0,0,0,4.23-4.22l-1.23-.71a12.7,12.7,0,0,1-3.71,3.7" />
          <path d="M153.23,47.43a12.31,12.31,0,0,1-1.35,5.06l1.23.71a13.68,13.68,0,0,0,1.55-5.77Z" />
          <path d="M128.28,47.43h-1.43a14,14,0,0,0,1.55,5.77l1.23-.71a12.47,12.47,0,0,1-1.35-5.06" />
          <path d="M129.63,41.11l-1.23-.71a14,14,0,0,0-1.55,5.77h1.43a12.47,12.47,0,0,1,1.35-5.06" />
        </g>
      </g>
    </g>
    <g>
      <path d="M137.07,67l-.33.14-.26.09-.37.12a7.73,7.73,0,0,1-.81.16,5.9,5.9,0,0,1-.86.06,3.83,3.83,0,0,1-1.68-.38A2.88,2.88,0,0,1,131.53,66a3.84,3.84,0,0,1-.46-1.94,4.6,4.6,0,0,1,.24-1.46,2.53,2.53,0,0,1,.73-1.14,3.37,3.37,0,0,1,.82-.55,3.15,3.15,0,0,1,.81-.25,5.75,5.75,0,0,1,.87-.06,5.26,5.26,0,0,1,1.3.13c.34.09.71.21,1.12.36v1.6a4.69,4.69,0,0,0-.86-.45,3,3,0,0,0-1.12-.18,2.13,2.13,0,0,0-1.25.33,1.8,1.8,0,0,0-.64.8,2.31,2.31,0,0,0-.19.9,2.09,2.09,0,0,0,.21.94,1.66,1.66,0,0,0,.64.7,1.94,1.94,0,0,0,1,.26,3.27,3.27,0,0,0,.73-.1v-.8h-.81V63.74h2.37Z" />
      <path d="M142.42,67.22a6.53,6.53,0,0,1-.63.24,2,2,0,0,1-.69.1.7.7,0,0,1-.53-.16.91.91,0,0,1-.22-.37,2.34,2.34,0,0,1-.55.38,1.81,1.81,0,0,1-.8.15,1.44,1.44,0,0,1-.77-.19,1,1,0,0,1-.41-.47,1.56,1.56,0,0,1-.12-.59,1.36,1.36,0,0,1,.2-.76,1.53,1.53,0,0,1,.55-.49,6.37,6.37,0,0,1,.91-.4l.49-.18.25-.09.17-.09a1.14,1.14,0,0,0-.13-.57.64.64,0,0,0-.56-.2,1.81,1.81,0,0,0-.94.25,3.51,3.51,0,0,0-.8.66V63.09a2.41,2.41,0,0,1,.63-.38,3.19,3.19,0,0,1,.7-.23,3.64,3.64,0,0,1,.74-.07,2.12,2.12,0,0,1,1.43.42,1.47,1.47,0,0,1,.47,1.15V65.9a1.3,1.3,0,0,0,.05.4c0,.09.08.14.16.14a1,1,0,0,0,.4-.14Zm-2.15-1V65.09a3.9,3.9,0,0,0-.81.46.69.69,0,0,0-.25.55.52.52,0,0,0,.13.38.37.37,0,0,0,.29.13.57.57,0,0,0,.32-.1Z" />
      <path d="M146,67.18a3.17,3.17,0,0,1-.66.25,2.63,2.63,0,0,1-.81.13c-1.11,0-1.67-.62-1.67-1.86v-2h-.7v-.31l2.07-2.4h.18V62.5h1.48v1.22h-1.48v1.59a2.64,2.64,0,0,0,0,.45.51.51,0,0,0,.17.29.68.68,0,0,0,.42.11,2.12,2.12,0,0,0,1-.35Z" />
      <path d="M150.82,65.41h-3.08a1.21,1.21,0,0,0,.44.74,1.23,1.23,0,0,0,.8.29,3.8,3.8,0,0,0,1.73-.5V67a5,5,0,0,1-.83.36,3.83,3.83,0,0,1-1.23.17,2.56,2.56,0,0,1-1.37-.35,2.1,2.1,0,0,1-.85-.92,3,3,0,0,1-.28-1.33,2.9,2.9,0,0,1,.28-1.31,2.08,2.08,0,0,1,.85-.91,2.65,2.65,0,0,1,1.37-.33,2.22,2.22,0,0,1,1,.26,2.07,2.07,0,0,1,.82.86,3.22,3.22,0,0,1,.32,1.53Zm-1.46-.87a1.3,1.3,0,0,0-.2-.77.7.7,0,0,0-.6-.28.79.79,0,0,0-.63.29,1.15,1.15,0,0,0-.24.76Z" />
    </g>
    <g id="pips_-_fewest-4" data-name="pips - fewest">
      <g style="clip-path: url(#clip-path-7)">
        <g style="clip-path: url(#clip-path-8)">
          <path d="M184.65,35.68l.71-1.24a13.82,13.82,0,0,0-5.77-1.54v1.43a12.31,12.31,0,0,1,5.06,1.35" />
          <path d="M189.45,40l1.23-.71a13.81,13.81,0,0,0-4.22-4.22l-.71,1.23a12.55,12.55,0,0,1,3.7,3.7" />
          <path d="M172.18,36.31l-.72-1.23a14,14,0,0,0-4.22,4.22l1.23.71a12.58,12.58,0,0,1,3.71-3.7" />
          <path d="M191.44,46.17h1.42a13.82,13.82,0,0,0-1.54-5.77l-1.24.71a12.48,12.48,0,0,1,1.36,5.06" />
          <path d="M178.33,34.33V32.9a13.82,13.82,0,0,0-5.77,1.54l.71,1.24a12.31,12.31,0,0,1,5.06-1.35" />
          <path d="M168.47,53.59l-1.23.71a14,14,0,0,0,4.22,4.22l.72-1.23a12.58,12.58,0,0,1-3.71-3.7" />
          <path d="M185.75,57.29l.71,1.23a13.92,13.92,0,0,0,4.22-4.22l-1.23-.71a12.55,12.55,0,0,1-3.7,3.7" />
          <path d="M191.44,47.43a12.48,12.48,0,0,1-1.36,5.06l1.24.71a13.82,13.82,0,0,0,1.54-5.77Z" />
          <path d="M166.49,47.43h-1.43a13.68,13.68,0,0,0,1.55,5.77l1.23-.71a12.31,12.31,0,0,1-1.35-5.06" />
          <path d="M167.84,41.11l-1.23-.71a13.68,13.68,0,0,0-1.55,5.77h1.43a12.31,12.31,0,0,1,1.35-5.06" />
        </g>
      </g>
    </g>
    <g>
      <path d="M174.12,65.5a2.07,2.07,0,0,1-.28,1.1,1.84,1.84,0,0,1-.8.71,2.72,2.72,0,0,1-1.17.25l-.46,0a5.09,5.09,0,0,1-.71-.15,4.93,4.93,0,0,1-.93-.36V65.36a6.5,6.5,0,0,0,.89.53,2.11,2.11,0,0,0,.93.21q.47,0,.6-.18a.53.53,0,0,0,.14-.32.56.56,0,0,0-.24-.46,2.82,2.82,0,0,0-.67-.39,5.74,5.74,0,0,1-.86-.51,2.2,2.2,0,0,1-.6-.69,2,2,0,0,1-.24-1,2,2,0,0,1,.24-1,1.76,1.76,0,0,1,.72-.71,2.52,2.52,0,0,1,1.19-.26,4,4,0,0,1,1.62.35,3.2,3.2,0,0,1,.37.22v1.59a4.76,4.76,0,0,0-.81-.54,2.12,2.12,0,0,0-1-.23.68.68,0,0,0-.49.15.46.46,0,0,0-.15.36.45.45,0,0,0,.15.34,2.46,2.46,0,0,0,.54.36,9.88,9.88,0,0,1,1.1.66,2.32,2.32,0,0,1,.65.68A1.83,1.83,0,0,1,174.12,65.5Z" />
      <path d="M176.36,67.47h-1.55V60.7h1.55Z" />
      <path d="M181.56,65.41h-3.08a1.29,1.29,0,0,0,1.25,1,3.77,3.77,0,0,0,1.72-.5V67a4.56,4.56,0,0,1-.82.36,3.83,3.83,0,0,1-1.23.17,2.62,2.62,0,0,1-1.38-.35,2.16,2.16,0,0,1-.85-.92,3.16,3.16,0,0,1-.28-1.33,3,3,0,0,1,.28-1.31,2.13,2.13,0,0,1,.85-.91,2.71,2.71,0,0,1,1.38-.33,2.25,2.25,0,0,1,1,.26,2,2,0,0,1,.81.86,3.1,3.1,0,0,1,.32,1.53Zm-1.45-.87a1.3,1.3,0,0,0-.21-.77.7.7,0,0,0-.6-.28.78.78,0,0,0-.62.29,1.15,1.15,0,0,0-.24.76Z" />
      <path d="M188.93,62.5l-1.72,5h-1l-1-2.71-1,2.71h-1l-1.77-5h1.57l.8,2.51.85-2.51h1l.86,2.51.77-2.51Z" />
    </g>
    <path d="M230.08,288.32H13.83v46.93c0,3.49,2.53,6.35,5.64,6.35H48.94l115.64-.46,31.53.46h29.47c3.11,0,5.64-2.86,5.64-6.35V288.32Z" />
    <g>
      <path d="M162.46,331.87a2,2,0,0,1-.09.59,1.61,1.61,0,0,1-.3.54,1.48,1.48,0,0,1-.55.4,2,2,0,0,1-.81.15h-.94v2h-1.44v-5.41h2.38a1.86,1.86,0,0,1,.81.16,1.29,1.29,0,0,1,.55.4,1.61,1.61,0,0,1,.3.54A2.08,2.08,0,0,1,162.46,331.87Zm-1.47,0a.6.6,0,0,0-.2-.53,1.26,1.26,0,0,0-.72-.14h-.3v1.3h.31a2,2,0,0,0,.55-.05.41.41,0,0,0,.28-.19A.81.81,0,0,0,161,331.88Z" />
      <path d="M166.51,335.58h-1.24v-2.2a1.27,1.27,0,0,0-.1-.52.41.41,0,0,0-.41-.24.57.57,0,0,0-.41.18,2.4,2.4,0,0,0-.34.45v2.33h-1.24v-5.41H164v2a1.7,1.7,0,0,1,.6-.51,1.53,1.53,0,0,1,.64-.13c.84,0,1.26.53,1.26,1.6Z" />
      <path d="M170.6,335.38l-.5.2a1.86,1.86,0,0,1-.56.07.59.59,0,0,1-.42-.12.64.64,0,0,1-.17-.3,2.21,2.21,0,0,1-.45.3,1.43,1.43,0,0,1-.64.12,1.1,1.1,0,0,1-.61-.15.76.76,0,0,1-.33-.38,1.18,1.18,0,0,1,.06-1.07,1.31,1.31,0,0,1,.44-.4,6.15,6.15,0,0,1,.73-.31l.39-.15.2-.07.14-.07a.84.84,0,0,0-.11-.46.5.5,0,0,0-.44-.16,1.54,1.54,0,0,0-.76.2,2.61,2.61,0,0,0-.63.53v-1.08a2,2,0,0,1,.5-.31,2.45,2.45,0,0,1,.56-.18,3.81,3.81,0,0,1,.59,0,1.72,1.72,0,0,1,1.14.33,1.14,1.14,0,0,1,.38.92v1.54a1.19,1.19,0,0,0,0,.32.14.14,0,0,0,.13.11.76.76,0,0,0,.32-.11Zm-1.72-.76v-.94a3.44,3.44,0,0,0-.65.37.53.53,0,0,0-.2.44.4.4,0,0,0,.1.3.34.34,0,0,0,.24.11.49.49,0,0,0,.25-.08C168.7,334.76,168.79,334.7,168.88,334.62Z" />
      <path d="M173.44,334.42a1.2,1.2,0,0,1-.35.89,1.44,1.44,0,0,1-1.05.34,2.42,2.42,0,0,1-.69-.08,4.77,4.77,0,0,1-.66-.23v-1a4.15,4.15,0,0,0,.54.31,1.26,1.26,0,0,0,.51.11c.31,0,.46-.1.46-.29a.25.25,0,0,0-.06-.17,1.47,1.47,0,0,0-.24-.18l-.44-.22a1.81,1.81,0,0,1-.59-.47,1,1,0,0,1-.24-.7,1.17,1.17,0,0,1,.16-.57,1.19,1.19,0,0,1,.49-.45,1.55,1.55,0,0,1,.78-.17h.28l.43.1a1.61,1.61,0,0,1,.49.21v1l-.18-.13-.2-.11a1.6,1.6,0,0,0-.29-.11,1.33,1.33,0,0,0-.34-.05.4.4,0,0,0-.3.09.34.34,0,0,0-.08.19.23.23,0,0,0,.09.18,1,1,0,0,0,.36.21,2.82,2.82,0,0,1,.66.37,1.16,1.16,0,0,1,.36.42A1.25,1.25,0,0,1,173.44,334.42Z" />
      <path d="M177.42,333.93H175a1,1,0,0,0,1,.83,3,3,0,0,0,1.38-.4v.87a3.42,3.42,0,0,1-.66.29,3,3,0,0,1-1,.13,2.11,2.11,0,0,1-1.1-.27,1.67,1.67,0,0,1-.68-.74,2.43,2.43,0,0,1-.23-1.06,2.35,2.35,0,0,1,.23-1.05,1.65,1.65,0,0,1,.68-.73,2.11,2.11,0,0,1,1.1-.26,1.72,1.72,0,0,1,.82.21,1.53,1.53,0,0,1,.65.68,2.57,2.57,0,0,1,.26,1.22Zm-1.16-.69a1,1,0,0,0-.17-.61.56.56,0,0,0-.48-.23.63.63,0,0,0-.5.23.93.93,0,0,0-.19.61Z" />
    </g>
    <g>
      <path d="M28.19,331.87a1.7,1.7,0,0,1-.1.59,1.45,1.45,0,0,1-.84.94,2,2,0,0,1-.81.15H25.5v2H24.06v-5.41h2.38a1.86,1.86,0,0,1,.81.16,1.35,1.35,0,0,1,.55.4,1.58,1.58,0,0,1,.29.54A1.8,1.8,0,0,1,28.19,331.87Zm-1.47,0a.62.62,0,0,0-.2-.53,1.26,1.26,0,0,0-.72-.14h-.3v1.3h.31a2,2,0,0,0,.55-.05.41.41,0,0,0,.28-.19A.81.81,0,0,0,26.72,331.88Z" />
      <path d="M29.8,335.58H28.56v-4H29.8Zm-.1-4.89a.64.64,0,0,1-.15.42.51.51,0,0,1-.37.17.47.47,0,0,1-.26-.08.55.55,0,0,1-.19-.21.6.6,0,0,1-.07-.3.64.64,0,0,1,.15-.42.47.47,0,0,1,.37-.18.49.49,0,0,1,.37.18A.64.64,0,0,1,29.7,330.69Z" />
      <path d="M33.13,335.35a2.63,2.63,0,0,1-.53.21,2.48,2.48,0,0,1-.65.09c-.89,0-1.33-.49-1.33-1.48v-1.59h-.56v-.24l1.66-1.92h.14v1.19H33v1H31.86v1.28a3.53,3.53,0,0,0,0,.36.35.35,0,0,0,.14.22.53.53,0,0,0,.34.1,1.69,1.69,0,0,0,.77-.29Z" />
      <path d="M36.39,335.4l-.32.12-.39.1a3.38,3.38,0,0,1-.47,0,1.93,1.93,0,0,1-1-.22,1.56,1.56,0,0,1-.61-.55,1.94,1.94,0,0,1-.3-.68,2.51,2.51,0,0,1-.08-.62,2.43,2.43,0,0,1,.08-.61,2.47,2.47,0,0,1,.29-.67,1.72,1.72,0,0,1,.61-.55,2.09,2.09,0,0,1,1-.21,2.68,2.68,0,0,1,.63.06,3.69,3.69,0,0,1,.5.17v1.1a3.24,3.24,0,0,0-1-.22.84.84,0,0,0-.84.93,1,1,0,0,0,.13.54.73.73,0,0,0,.32.31.82.82,0,0,0,.39.11,1.67,1.67,0,0,0,.42-.07,6,6,0,0,0,.58-.18Z" />
      <path d="M40.45,335.58H39.21v-2.2a1.27,1.27,0,0,0-.1-.52.41.41,0,0,0-.41-.24.57.57,0,0,0-.41.18,2.4,2.4,0,0,0-.34.45v2.33H36.71v-5.41H38v2a1.79,1.79,0,0,1,.6-.51,1.56,1.56,0,0,1,.64-.13c.84,0,1.26.53,1.26,1.6Z" />
    </g>
    <g>
      <path d="M72.1,335.58H70.56l-.37-1a4.2,4.2,0,0,0-.38-.77.77.77,0,0,0-.32-.31.93.93,0,0,0-.4-.07h-.16v2.11H67.49v-5.41h2.44a1.61,1.61,0,0,1,1,.27,1.53,1.53,0,0,1,.55.67,1.89,1.89,0,0,1,.17.74,1.6,1.6,0,0,1-.14.69,1.17,1.17,0,0,1-.3.41,3,3,0,0,1-.34.25,1.27,1.27,0,0,1,.37.36,4.48,4.48,0,0,1,.41.85Zm-1.95-3.7a.57.57,0,0,0-.22-.52,1.23,1.23,0,0,0-.7-.15h-.3v1.3h.31a1.36,1.36,0,0,0,.72-.13A.56.56,0,0,0,70.15,331.88Z" />
      <path d="M75.9,335.38l-.5.2a1.79,1.79,0,0,1-.55.07.6.6,0,0,1-.43-.12.64.64,0,0,1-.17-.3,1.77,1.77,0,0,1-.45.3,1.41,1.41,0,0,1-.63.12,1.14,1.14,0,0,1-.62-.15.76.76,0,0,1-.33-.38,1.28,1.28,0,0,1-.1-.47,1,1,0,0,1,.17-.6,1.22,1.22,0,0,1,.44-.4,5.3,5.3,0,0,1,.72-.31l.39-.15.2-.07.14-.07a.85.85,0,0,0-.1-.46.53.53,0,0,0-.45-.16,1.5,1.5,0,0,0-.75.2,2.66,2.66,0,0,0-.64.53v-1.08a2,2,0,0,1,.5-.31,2.81,2.81,0,0,1,.56-.18,3.81,3.81,0,0,1,.59,0,1.69,1.69,0,0,1,1.14.33,1.14,1.14,0,0,1,.39.92v1.54a1.27,1.27,0,0,0,0,.32c0,.07.07.11.14.11a.77.77,0,0,0,.31-.11Zm-1.72-.76v-.94a3.3,3.3,0,0,0-.64.37.51.51,0,0,0-.21.44.41.41,0,0,0,.11.3.3.3,0,0,0,.23.11.46.46,0,0,0,.25-.08A2.26,2.26,0,0,0,74.18,334.62Z" />
      <path d="M79.75,335.58H78.51v-2.14a1.42,1.42,0,0,0-.1-.57.39.39,0,0,0-.41-.25.5.5,0,0,0-.27.07.74.74,0,0,0-.2.16l-.16.2-.12.2v2.33H76v-4h1.24v.57a1.73,1.73,0,0,1,.58-.5,1.45,1.45,0,0,1,.66-.14q1.26,0,1.26,1.71Z" />
      <path d="M83.73,332.45h-.62a1.07,1.07,0,0,1,.33.79,1.27,1.27,0,0,1-.09.47,1.09,1.09,0,0,1-.27.4,1.25,1.25,0,0,1-.44.29,1.76,1.76,0,0,1-.59.14c-.29,0-.43.1-.43.26a.16.16,0,0,0,0,.13.52.52,0,0,0,.18.07l.4.05a2.69,2.69,0,0,1,.59.11,1.1,1.1,0,0,1,.52.33,1,1,0,0,1,.23.71,1.3,1.3,0,0,1-.17.66,1.17,1.17,0,0,1-.58.44,2.74,2.74,0,0,1-1,.16,2.61,2.61,0,0,1-1.38-.28.87.87,0,0,1-.43-.76,1.17,1.17,0,0,1,.05-.3.86.86,0,0,1,.24-.33,1.17,1.17,0,0,1,.54-.21.42.42,0,0,1-.21-.19.59.59,0,0,1-.09-.31.78.78,0,0,1,.12-.41.57.57,0,0,1,.41-.26,1.51,1.51,0,0,1-.68-.44,1.24,1.24,0,0,1-.28-.84,1.67,1.67,0,0,1,.13-.69,1.31,1.31,0,0,1,.36-.47,1.51,1.51,0,0,1,.55-.28,2.8,2.8,0,0,1,.67-.08h1.93Zm-1.12,3.88a.33.33,0,0,0-.25-.34,1.7,1.7,0,0,0-.51-.08,1.55,1.55,0,0,0-.62.1.36.36,0,0,0-.19.33c0,.3.27.45.79.45a1.15,1.15,0,0,0,.57-.12A.36.36,0,0,0,82.61,336.33Zm-.25-3.2a.66.66,0,0,0-.18-.49.57.57,0,0,0-.41-.18.5.5,0,0,0-.44.22.77.77,0,0,0-.17.46.78.78,0,0,0,.07.31.68.68,0,0,0,.2.24.53.53,0,0,0,.31.08.55.55,0,0,0,.44-.19A.63.63,0,0,0,82.36,333.13Z" />
      <path d="M87.48,333.93H85a1,1,0,0,0,.36.6,1,1,0,0,0,.64.23,3,3,0,0,0,1.38-.4v.87a3.42,3.42,0,0,1-.66.29,3.08,3.08,0,0,1-1,.13,2.14,2.14,0,0,1-1.1-.27,1.71,1.71,0,0,1-.67-.74,2.43,2.43,0,0,1-.23-1.06,2.35,2.35,0,0,1,.23-1.05,1.69,1.69,0,0,1,.67-.73,2.13,2.13,0,0,1,1.1-.26,1.76,1.76,0,0,1,.83.21,1.53,1.53,0,0,1,.65.68,2.57,2.57,0,0,1,.26,1.22Zm-1.16-.69a1,1,0,0,0-.17-.61.56.56,0,0,0-.48-.23.63.63,0,0,0-.5.23.93.93,0,0,0-.19.61Z" />
    </g>
    <g>
      <path d="M121.11,333.39h-2v2.19H117.7v-5.41h3.41v1.08h-2v1.05h2Z" />
      <path d="M127.34,335.58H125.9v-3.13l-1.3,1.81h-.11l-1.3-1.81v3.13H121.8v-5.41h1.3l1.46,2,1.47-2h1.31Z" />
    </g>
    <g>
      <path d="M209.08,332.87a3.26,3.26,0,0,1-.3,1.4,2.49,2.49,0,0,1-.92,1,2.78,2.78,0,0,1-1.48.37,2.75,2.75,0,0,1-1.5-.39,2.38,2.38,0,0,1-.91-1,3.33,3.33,0,0,1,0-2.72,2.38,2.38,0,0,1,.91-1,2.75,2.75,0,0,1,1.5-.39,2.87,2.87,0,0,1,1.17.23,2.34,2.34,0,0,1,.86.6,2.51,2.51,0,0,1,.5.89A3.1,3.1,0,0,1,209.08,332.87Zm-1.46,0a2,2,0,0,0-.08-.56,1.14,1.14,0,0,0-.24-.43,1.11,1.11,0,0,0-.39-.29,1.25,1.25,0,0,0-.53-.11,1.12,1.12,0,0,0-.91.39,1.47,1.47,0,0,0-.33,1,1.5,1.5,0,0,0,.33,1,1.16,1.16,0,0,0,.91.38,1.2,1.2,0,0,0,.67-.18,1,1,0,0,0,.42-.49A1.66,1.66,0,0,0,207.62,332.87Z" style="fill: #ededed" />
      <path d="M213.18,335.58h-1.24V335a1.94,1.94,0,0,1-.55.47,1.35,1.35,0,0,1-.69.16,1,1,0,0,1-1-.52,3,3,0,0,1-.23-1.19v-2.33h1.24v2.14a1.62,1.62,0,0,0,.09.57.39.39,0,0,0,.41.25.56.56,0,0,0,.44-.18,3.8,3.8,0,0,0,.32-.45v-2.33h1.24Z" style="fill: #ededed" />
      <path d="M216.45,335.35a2.58,2.58,0,0,1-.53.2,2.19,2.19,0,0,1-.65.1c-.89,0-1.34-.49-1.34-1.48v-1.59h-.56v-.24l1.66-1.93h.14v1.2h1.19v1h-1.19v1.28a1.69,1.69,0,0,0,0,.35.31.31,0,0,0,.14.23.5.5,0,0,0,.33.1,1.68,1.68,0,0,0,.78-.29Z" style="fill: #ededed" />
      <path d="M222,335.58h-3.62v-.1c.14-.16.3-.34.46-.55l.65-.85c.12-.16.24-.32.34-.47a2.68,2.68,0,0,0,.27-.45,2.1,2.1,0,0,0,.2-.48,1.89,1.89,0,0,0,.08-.53,1,1,0,0,0-.19-.61.62.62,0,0,0-.49-.23,1.57,1.57,0,0,0-1.16.69v-1.28l.33-.24.3-.18a2.79,2.79,0,0,1,.41-.14,2,2,0,0,1,.5-.07,1.57,1.57,0,0,1,.8.21,1.43,1.43,0,0,1,.56.58,1.92,1.92,0,0,1,.2.89,2.41,2.41,0,0,1-.09.67,3.32,3.32,0,0,1-.19.5c-.07.13-.16.29-.27.47a11.37,11.37,0,0,1-.63,1H222Z" style="fill: #ededed" />
    </g>
    <g>
      <path d="M163.89,332.87a3.26,3.26,0,0,1-.31,1.4,2.42,2.42,0,0,1-.92,1,2.76,2.76,0,0,1-1.48.37,2.69,2.69,0,0,1-1.49-.39,2.38,2.38,0,0,1-.91-1,3.23,3.23,0,0,1,0-2.72,2.36,2.36,0,0,1,.9-1,2.75,2.75,0,0,1,1.5-.39,3,3,0,0,1,1.18.23,2.3,2.3,0,0,1,.85.6,2.51,2.51,0,0,1,.5.89A3.11,3.11,0,0,1,163.89,332.87Zm-1.47,0a1.69,1.69,0,0,0-.08-.56,1.14,1.14,0,0,0-.24-.43,1,1,0,0,0-.39-.29,1.25,1.25,0,0,0-.53-.11,1.14,1.14,0,0,0-.91.39,1.47,1.47,0,0,0-.33,1,1.45,1.45,0,0,0,.34,1,1.14,1.14,0,0,0,.9.38,1.23,1.23,0,0,0,.68-.18,1.13,1.13,0,0,0,.42-.49A1.65,1.65,0,0,0,162.42,332.87Z" style="fill: #ededed" />
      <path d="M168,335.58h-1.24V335a1.71,1.71,0,0,1-.55.47,1.35,1.35,0,0,1-.69.16,1,1,0,0,1-1-.52,2.84,2.84,0,0,1-.23-1.19v-2.33h1.23v2.14a1.42,1.42,0,0,0,.1.57.39.39,0,0,0,.41.25.55.55,0,0,0,.43-.18,2.92,2.92,0,0,0,.32-.45v-2.33H168Z" style="fill: #ededed" />
      <path d="M171.26,335.35a2.48,2.48,0,0,1-.54.2,2.13,2.13,0,0,1-.64.1c-.9,0-1.34-.49-1.34-1.48v-1.59h-.56v-.24l1.66-1.93H170v1.2h1.18v1H170v1.28a3.16,3.16,0,0,0,0,.35.35.35,0,0,0,.14.23.53.53,0,0,0,.34.1,1.75,1.75,0,0,0,.78-.29Z" style="fill: #ededed" />
      <path d="M175.67,335.58h-1.3v-5.41h1.3Z" style="fill: #ededed" />
    </g>
    <g>
      <path d="M119.27,335.2l-.26.11-.22.08-.29.09c-.22,0-.43.1-.65.13a5.12,5.12,0,0,1-.69,0,3,3,0,0,1-1.34-.3,2.25,2.25,0,0,1-1-.93,3,3,0,0,1-.37-1.56,3.57,3.57,0,0,1,.19-1.16,2.11,2.11,0,0,1,.58-.92,2.75,2.75,0,0,1,.66-.43,2.81,2.81,0,0,1,.64-.21,5.12,5.12,0,0,1,.7-.05,4.24,4.24,0,0,1,1,.11c.27.07.57.17.9.28v1.29a3.24,3.24,0,0,0-.69-.36,2.35,2.35,0,0,0-.9-.15,1.66,1.66,0,0,0-1,.27,1.44,1.44,0,0,0-.52.64,1.94,1.94,0,0,0-.15.72,1.72,1.72,0,0,0,.17.75,1.31,1.31,0,0,0,.51.56,1.54,1.54,0,0,0,.82.21,2.17,2.17,0,0,0,.59-.09v-.63h-.65V332.6h1.9Z" style="fill: #ededed" />
      <path d="M123.55,335.38a4.85,4.85,0,0,1-.51.2,1.75,1.75,0,0,1-.55.07.59.59,0,0,1-.42-.12.65.65,0,0,1-.18-.3,1.9,1.9,0,0,1-.44.3,1.46,1.46,0,0,1-.64.12,1.16,1.16,0,0,1-.62-.15.87.87,0,0,1-.33-.38,1.27,1.27,0,0,1-.09-.47,1,1,0,0,1,.16-.6,1.21,1.21,0,0,1,.44-.4,5.5,5.5,0,0,1,.73-.31l.39-.15.2-.07.13-.07a.85.85,0,0,0-.1-.46c-.07-.11-.22-.16-.45-.16a1.5,1.5,0,0,0-.75.2,2.61,2.61,0,0,0-.63.53v-1.08a2.13,2.13,0,0,1,.49-.31,2.81,2.81,0,0,1,.56-.18,3,3,0,0,1,.6,0,1.72,1.72,0,0,1,1.14.33,1.17,1.17,0,0,1,.38.92v1.53a.92.92,0,0,0,0,.33.14.14,0,0,0,.13.11.71.71,0,0,0,.32-.12Zm-1.73-.76v-.94a3.64,3.64,0,0,0-.64.37.52.52,0,0,0-.2.43.41.41,0,0,0,.1.31.33.33,0,0,0,.24.1.43.43,0,0,0,.25-.08A1.38,1.38,0,0,0,121.82,334.62Z" style="fill: #ededed" />
      <path d="M126.41,335.35a2.19,2.19,0,0,1-.53.2,2.14,2.14,0,0,1-.65.1c-.89,0-1.33-.49-1.33-1.48v-1.59h-.56v-.24l1.66-1.93h.14v1.2h1.18v1h-1.18v1.28a3.16,3.16,0,0,0,0,.35.35.35,0,0,0,.14.23.53.53,0,0,0,.34.1,1.69,1.69,0,0,0,.77-.29Z" style="fill: #ededed" />
      <path d="M130.26,333.93H127.8a1,1,0,0,0,1,.83,2.93,2.93,0,0,0,1.38-.4v.87a3.61,3.61,0,0,1-.65.29,3.08,3.08,0,0,1-1,.13,2.11,2.11,0,0,1-1.1-.27,1.73,1.73,0,0,1-.68-.74,2.47,2.47,0,0,1-.22-1.07,2.31,2.31,0,0,1,.22-1,1.66,1.66,0,0,1,.68-.73,2.11,2.11,0,0,1,1.1-.26,1.81,1.81,0,0,1,.82.2,1.58,1.58,0,0,1,.66.69,2.54,2.54,0,0,1,.25,1.22Zm-1.16-.69a.94.94,0,0,0-.17-.61.53.53,0,0,0-.47-.23.61.61,0,0,0-.5.23.93.93,0,0,0-.2.61Z" style="fill: #ededed" />
    </g>
    <g>
      <path d="M64.49,334a1.54,1.54,0,0,1-.86,1.45,2.19,2.19,0,0,1-.94.19,2.62,2.62,0,0,1-.37,0,2.92,2.92,0,0,1-.57-.12,3.88,3.88,0,0,1-.74-.29v-1.33a5,5,0,0,0,.71.43,1.74,1.74,0,0,0,.75.16.63.63,0,0,0,.48-.13.45.45,0,0,0,.1-.26.46.46,0,0,0-.18-.37,2.14,2.14,0,0,0-.54-.31,4.49,4.49,0,0,1-.69-.41,1.69,1.69,0,0,1-.48-.55,1.57,1.57,0,0,1-.19-.79,1.62,1.62,0,0,1,.19-.79,1.45,1.45,0,0,1,.58-.57,2,2,0,0,1,.95-.21,2.81,2.81,0,0,1,.73.09,3,3,0,0,1,.56.2,2.36,2.36,0,0,1,.31.17v1.27a4.41,4.41,0,0,0-.66-.43,1.67,1.67,0,0,0-.76-.18.59.59,0,0,0-.39.11.4.4,0,0,0-.12.29.38.38,0,0,0,.12.28,2.2,2.2,0,0,0,.43.29,9.37,9.37,0,0,1,.88.52,1.85,1.85,0,0,1,.51.54A1.42,1.42,0,0,1,64.49,334Z" style="fill: #ededed" />
      <path d="M67.74,335.35a2.19,2.19,0,0,1-.53.2,2.14,2.14,0,0,1-.65.1c-.89,0-1.33-.49-1.33-1.48v-1.59h-.56v-.24l1.66-1.93h.14v1.2h1.18v1H66.47v1.28a3.16,3.16,0,0,0,0,.35.35.35,0,0,0,.14.23.53.53,0,0,0,.34.1,1.69,1.69,0,0,0,.77-.29Z" style="fill: #ededed" />
      <path d="M71.64,335.38c-.19.08-.35.15-.51.2a1.75,1.75,0,0,1-.55.07.61.61,0,0,1-.43-.12.74.74,0,0,1-.17-.3,1.9,1.9,0,0,1-.44.3,1.46,1.46,0,0,1-.64.12,1.14,1.14,0,0,1-.62-.15.87.87,0,0,1-.33-.38,1.27,1.27,0,0,1-.09-.47,1,1,0,0,1,.16-.6,1.21,1.21,0,0,1,.44-.4,5.5,5.5,0,0,1,.73-.31l.39-.15.2-.07.13-.07a.85.85,0,0,0-.1-.46c-.07-.11-.22-.16-.45-.16a1.5,1.5,0,0,0-.75.2,2.86,2.86,0,0,0-.64.53v-1.08a2.18,2.18,0,0,1,.5-.31,2.81,2.81,0,0,1,.56-.18,2.94,2.94,0,0,1,.59,0,1.73,1.73,0,0,1,1.15.33,1.17,1.17,0,0,1,.38.92v1.53a.92.92,0,0,0,0,.33.14.14,0,0,0,.13.11.71.71,0,0,0,.32-.12Zm-1.73-.76v-.94a3.64,3.64,0,0,0-.64.37.5.5,0,0,0-.2.43.41.41,0,0,0,.1.31.32.32,0,0,0,.23.1.44.44,0,0,0,.26-.08A1.38,1.38,0,0,0,69.91,334.62Z" style="fill: #ededed" />
      <path d="M74.82,331.82l-.46,1.41a.81.81,0,0,0-.57-.3.59.59,0,0,0-.45.2,2,2,0,0,0-.37.74v1.71H71.74v-4H73v1a2.07,2.07,0,0,1,.42-.7.92.92,0,0,1,1.06-.26A2.16,2.16,0,0,1,74.82,331.82Z" style="fill: #ededed" />
      <path d="M77.69,335.35a2.37,2.37,0,0,1-.53.2,2.14,2.14,0,0,1-.65.1c-.89,0-1.33-.49-1.33-1.48v-1.59h-.56v-.24l1.66-1.93h.14v1.2H77.6v1H76.42v1.28a3.16,3.16,0,0,0,0,.35.35.35,0,0,0,.14.23.51.51,0,0,0,.34.1,1.69,1.69,0,0,0,.77-.29Z" style="fill: #ededed" />
      <path d="M81.18,330.09l-2.59,5.56h-.92l2.58-5.56Z" style="fill: #ededed" />
      <path d="M85.19,335.58H81.6v-5.41h3.53v1.08H83v1h2v1.09H83v1.15h2.15Z" style="fill: #ededed" />
      <path d="M89.4,335.58H88.17v-2.14a1.42,1.42,0,0,0-.1-.57.39.39,0,0,0-.41-.25.5.5,0,0,0-.27.07.74.74,0,0,0-.2.16,1.4,1.4,0,0,0-.16.2l-.12.2v2.33H85.67v-4h1.24v.57a1.73,1.73,0,0,1,.58-.5,1.45,1.45,0,0,1,.66-.14c.84,0,1.25.57,1.25,1.71Z" style="fill: #ededed" />
      <path d="M93.57,335.58H92.33v-.36a1.75,1.75,0,0,1-.42.31,1.22,1.22,0,0,1-.6.12,1.52,1.52,0,0,1-.75-.21,1.58,1.58,0,0,1-.6-.67,2.48,2.48,0,0,1-.24-1.15,2.88,2.88,0,0,1,.18-1,1.73,1.73,0,0,1,.56-.77,1.44,1.44,0,0,1,.93-.29,1.48,1.48,0,0,1,.56.08,1.57,1.57,0,0,1,.38.22v-1.67h1.24Zm-1.24-1.26V332.8l-.34-.2a.65.65,0,0,0-.29-.06.57.57,0,0,0-.48.28,1.35,1.35,0,0,0-.2.77,1.16,1.16,0,0,0,.21.77.59.59,0,0,0,.47.24.74.74,0,0,0,.36-.08A2.34,2.34,0,0,0,92.33,334.32Z" style="fill: #ededed" />
    </g>
    <g>
      <path d="M27.47,335.18a3.71,3.71,0,0,1-.61.28,3.3,3.3,0,0,1-.62.15,4.63,4.63,0,0,1-.65,0,3,3,0,0,1-1.12-.19,2.51,2.51,0,0,1-.86-.58,2.45,2.45,0,0,1-.54-.89,3.33,3.33,0,0,1-.18-1.12,3.28,3.28,0,0,1,.21-1.22,2.64,2.64,0,0,1,.6-.88,2.56,2.56,0,0,1,.87-.51,3.24,3.24,0,0,1,1-.17,5.14,5.14,0,0,1,1.84.41v1.44a5.76,5.76,0,0,0-.7-.41,1.87,1.87,0,0,0-.82-.17,1.6,1.6,0,0,0-.77.19,1.41,1.41,0,0,0-.58.53,1.47,1.47,0,0,0-.22.81,1.51,1.51,0,0,0,.19.76,1.38,1.38,0,0,0,.53.54,1.55,1.55,0,0,0,.77.2,2.34,2.34,0,0,0,.66-.09,2.9,2.9,0,0,0,.52-.22,4.54,4.54,0,0,0,.44-.28Z" style="fill: #ededed" />
      <path d="M29.25,335.58H28v-5.41h1.24Z" style="fill: #ededed" />
      <path d="M33.69,333.59a2.39,2.39,0,0,1-.23,1.06,1.71,1.71,0,0,1-.68.73,2.11,2.11,0,0,1-1.1.27,2.09,2.09,0,0,1-1.1-.27,1.71,1.71,0,0,1-.68-.73,2.39,2.39,0,0,1-.23-1.06,2.66,2.66,0,0,1,.13-.82,1.86,1.86,0,0,1,.38-.65,1.65,1.65,0,0,1,.63-.43,2.6,2.6,0,0,1,1.74,0,1.6,1.6,0,0,1,.63.43,1.92,1.92,0,0,1,.38.65A2.66,2.66,0,0,1,33.69,333.59Zm-1.31,0a1.33,1.33,0,0,0-.18-.74.64.64,0,0,0-1,0,1.61,1.61,0,0,0,0,1.48.59.59,0,0,0,.52.28.57.57,0,0,0,.52-.28A1.31,1.31,0,0,0,32.38,333.59Z" style="fill: #ededed" />
      <path d="M37,335.4l-.32.12-.39.1a3.38,3.38,0,0,1-.47,0,2,2,0,0,1-1-.22,1.63,1.63,0,0,1-.61-.55,2.53,2.53,0,0,1-.3-.68,3.1,3.1,0,0,1-.08-.62A3,3,0,0,1,34,333a2.23,2.23,0,0,1,.3-.67,1.69,1.69,0,0,1,.6-.55,2.09,2.09,0,0,1,1-.21,2.68,2.68,0,0,1,.63.06,3.28,3.28,0,0,1,.5.17v1.1a3.18,3.18,0,0,0-1-.22.85.85,0,0,0-.58.23.88.88,0,0,0-.26.7,1,1,0,0,0,.13.54.73.73,0,0,0,.32.31.82.82,0,0,0,.39.11,1.82,1.82,0,0,0,.43-.07,5.89,5.89,0,0,0,.57-.18Z" style="fill: #ededed" />
      <path d="M41.52,335.58H40l-1.34-1.88v1.88H37.36v-5.41h1.25v3.17l1.23-1.73h1.48L40,333.46Z" style="fill: #ededed" />
    </g>
    <path d="M13.87,325.55v9.88a5.69,5.69,0,0,0,5.67,5.67H217.19c7.49,0,13.56-6,13.56-14.63V265.88l-.06-6.23c-.29-8.38-6.24-15.07-13.54-15.07H27.44c-7.31,0-13.25,6.69-13.55,15.07l-.06,6.23v-.76l.07,61.35" style="fill: none;stroke: #000;stroke-miterlimit: 10" />
    <path d="M13.84,271.09V280l0,9a5.67,5.67,0,0,0,5.65,5.67H49l115.64-.41,31.53.41h29a5.67,5.67,0,0,0,5.64-5.67V270" style="fill: #ededed;stroke: #000;stroke-miterlimit: 10" />
    <g>
      <path d="M27.53,287.92a3,3,0,0,1-.6.28,3.6,3.6,0,0,1-.63.15,4.51,4.51,0,0,1-.65,0,3,3,0,0,1-1.11-.2,2.3,2.3,0,0,1-.86-.58,2.45,2.45,0,0,1-.54-.89,3.33,3.33,0,0,1-.18-1.12,3.28,3.28,0,0,1,.21-1.22A2.44,2.44,0,0,1,24.64,283a3.22,3.22,0,0,1,1-.16,4.89,4.89,0,0,1,1.84.41v1.43a5.09,5.09,0,0,0-.7-.41,1.86,1.86,0,0,0-.81-.17,1.73,1.73,0,0,0-.78.19,1.5,1.5,0,0,0-.58.54,1.53,1.53,0,0,0-.22.81,1.61,1.61,0,0,0,.19.75,1.4,1.4,0,0,0,.54.54,1.43,1.43,0,0,0,.77.2,2.39,2.39,0,0,0,.66-.09,4.64,4.64,0,0,0,.52-.21c.14-.08.28-.18.43-.28Z" />
      <path d="M29.32,288.33H28.08v-5.42h1.24Z" />
      <path d="M33.75,286.33a2.39,2.39,0,0,1-.22,1.06,1.8,1.8,0,0,1-.68.74,2.4,2.4,0,0,1-2.21,0,1.71,1.71,0,0,1-.67-.74,2.39,2.39,0,0,1-.23-1.06,2.3,2.3,0,0,1,.13-.81,1.69,1.69,0,0,1,.38-.65,1.67,1.67,0,0,1,.63-.44,2.31,2.31,0,0,1,.86-.15,2.39,2.39,0,0,1,.88.15,1.9,1.9,0,0,1,.63.43,2.1,2.1,0,0,1,.38.65A2.66,2.66,0,0,1,33.75,286.33Zm-1.3,0a1.33,1.33,0,0,0-.18-.74.59.59,0,0,0-.53-.26.59.59,0,0,0-.52.26,1.33,1.33,0,0,0-.18.74,1.28,1.28,0,0,0,.19.75.58.58,0,0,0,.51.27.6.6,0,0,0,.53-.27A1.34,1.34,0,0,0,32.45,286.33Z" />
      <path d="M37.11,288.14a1.61,1.61,0,0,1-.33.12,3,3,0,0,1-.38.1,3.43,3.43,0,0,1-.47,0,1.93,1.93,0,0,1-1-.23,1.56,1.56,0,0,1-.61-.55,1.94,1.94,0,0,1-.3-.68,2.4,2.4,0,0,1,0-1.23,2.31,2.31,0,0,1,.29-.67,1.61,1.61,0,0,1,.61-.54,2,2,0,0,1,1-.22,2.68,2.68,0,0,1,.63.06,3.69,3.69,0,0,1,.5.17v1.1a3.16,3.16,0,0,0-1-.21.87.87,0,0,0-.59.22.9.9,0,0,0-.25.71,1,1,0,0,0,.13.53.82.82,0,0,0,.32.32.94.94,0,0,0,.39.1,1.7,1.7,0,0,0,.42-.06l.58-.18Z" />
      <path d="M41.59,288.33H40l-1.35-1.89v1.89H37.42v-5.42h1.25v3.18l1.23-1.74h1.49L40,286.2Z" />
    </g>
    <g>
      <path d="M61.35,286.75a1.67,1.67,0,0,1-.23.88,1.48,1.48,0,0,1-.64.57,2.13,2.13,0,0,1-.94.2l-.36,0a2.92,2.92,0,0,1-.57-.12,4.26,4.26,0,0,1-.74-.28v-1.33a4.88,4.88,0,0,0,.71.42,1.72,1.72,0,0,0,.75.17.6.6,0,0,0,.47-.14.39.39,0,0,0,.11-.26.46.46,0,0,0-.18-.37,3.11,3.11,0,0,0-.54-.31,4.06,4.06,0,0,1-.69-.41,1.69,1.69,0,0,1-.48-.55,1.52,1.52,0,0,1-.19-.79,1.62,1.62,0,0,1,.19-.79,1.4,1.4,0,0,1,.57-.56,2,2,0,0,1,.95-.21,3.43,3.43,0,0,1,.74.08,3.23,3.23,0,0,1,.56.2,1.63,1.63,0,0,1,.3.17v1.27a3.3,3.3,0,0,0-.65-.42,1.6,1.6,0,0,0-.77-.19.54.54,0,0,0-.39.12.38.38,0,0,0-.12.29.36.36,0,0,0,.12.27,2.07,2.07,0,0,0,.43.29,6.74,6.74,0,0,1,.88.53,1.67,1.67,0,0,1,.52.54A1.38,1.38,0,0,1,61.35,286.75Z" />
      <path d="M64.6,288.09a2.53,2.53,0,0,1-.53.21,2.57,2.57,0,0,1-.65.1c-.89,0-1.34-.5-1.34-1.49v-1.58h-.56v-.25l1.66-1.92h.14v1.19h1.19v1H63.32v1.27a1.73,1.73,0,0,0,0,.36.36.36,0,0,0,.13.23.55.55,0,0,0,.34.09,1.76,1.76,0,0,0,.78-.28Z" />
      <path d="M68.49,288.13c-.18.08-.35.14-.5.19a1.77,1.77,0,0,1-.55.08.59.59,0,0,1-.43-.13.64.64,0,0,1-.17-.3,1.57,1.57,0,0,1-.45.31,1.41,1.41,0,0,1-.63.12,1.23,1.23,0,0,1-.62-.15.85.85,0,0,1-.33-.38,1.32,1.32,0,0,1-.1-.47,1,1,0,0,1,.17-.61,1.19,1.19,0,0,1,.44-.39,4.21,4.21,0,0,1,.72-.32l.39-.14.2-.08.14-.07a.83.83,0,0,0-.1-.45.5.5,0,0,0-.45-.17,1.42,1.42,0,0,0-.75.21,2.61,2.61,0,0,0-.64.52v-1.08a2.33,2.33,0,0,1,.5-.31,2.6,2.6,0,0,1,.56-.17,2.88,2.88,0,0,1,.59-.06,1.69,1.69,0,0,1,1.14.33,1.16,1.16,0,0,1,.39.92v1.54a1.27,1.27,0,0,0,0,.32c0,.07.07.11.14.11a.77.77,0,0,0,.31-.11Zm-1.72-.77v-.94a3.3,3.3,0,0,0-.64.37.52.52,0,0,0-.21.44.41.41,0,0,0,.11.3.3.3,0,0,0,.23.11.46.46,0,0,0,.25-.08A2.26,2.26,0,0,0,66.77,287.36Z" />
      <path d="M71.67,284.56,71.22,286a.81.81,0,0,0-.57-.3.59.59,0,0,0-.45.2,2,2,0,0,0-.37.74v1.72H68.59v-4h1.24v1a1.91,1.91,0,0,1,.41-.69.89.89,0,0,1,.7-.34.8.8,0,0,1,.36.07A3,3,0,0,1,71.67,284.56Z" />
      <path d="M74.55,288.09a2.53,2.53,0,0,1-.53.21,2.57,2.57,0,0,1-.65.1c-.89,0-1.34-.5-1.34-1.49v-1.58h-.56v-.25l1.66-1.92h.14v1.19h1.19v1H73.27v1.27a1.73,1.73,0,0,0,0,.36.36.36,0,0,0,.13.23.55.55,0,0,0,.34.09,1.76,1.76,0,0,0,.78-.28Z" />
      <path d="M78,282.84l-2.59,5.56h-.92l2.59-5.56Z" />
      <path d="M83.07,288.33H81.52l-.37-1a4.3,4.3,0,0,0-.37-.77.91.91,0,0,0-.32-.31,1,1,0,0,0-.41-.07h-.16v2.12H78.45v-5.42H80.9a1.53,1.53,0,0,1,1.51.94,1.93,1.93,0,0,1,.17.74,1.6,1.6,0,0,1-.14.69,1.33,1.33,0,0,1-.29.42l-.35.24a1.45,1.45,0,0,1,.38.36,5.21,5.21,0,0,1,.41.85Zm-1.95-3.71a.6.6,0,0,0-.22-.52,1.29,1.29,0,0,0-.71-.15h-.3v1.3h.31a1.36,1.36,0,0,0,.72-.13A.55.55,0,0,0,81.12,284.62Z" />
      <path d="M86.83,286.68H84.36a1,1,0,0,0,1,.82,3,3,0,0,0,1.39-.4V288a2.9,2.9,0,0,1-.66.29,3.06,3.06,0,0,1-1,.14,2.14,2.14,0,0,1-1.1-.28,1.73,1.73,0,0,1-.68-.74,2.42,2.42,0,0,1-.22-1.06,2.38,2.38,0,0,1,.22-1.05,1.71,1.71,0,0,1,.68-.73,2.24,2.24,0,0,1,1.1-.26,1.76,1.76,0,0,1,.83.21,1.59,1.59,0,0,1,.65.68,2.61,2.61,0,0,1,.26,1.23Zm-1.17-.7a1,1,0,0,0-.16-.61.56.56,0,0,0-.48-.23.61.61,0,0,0-.5.23.93.93,0,0,0-.19.61Z" />
      <path d="M89.89,287.17a1.17,1.17,0,0,1-.35.88,1.46,1.46,0,0,1-1.05.35,2.84,2.84,0,0,1-.69-.08,6.6,6.6,0,0,1-.66-.23v-1a5.78,5.78,0,0,0,.54.31,1.22,1.22,0,0,0,.51.1c.31,0,.46-.1.46-.29a.23.23,0,0,0-.07-.17.8.8,0,0,0-.23-.17,4.52,4.52,0,0,0-.45-.23,2,2,0,0,1-.58-.46,1.09,1.09,0,0,1-.24-.71,1.07,1.07,0,0,1,.16-.57,1.31,1.31,0,0,1,.48-.45,1.73,1.73,0,0,1,.78-.17,1.47,1.47,0,0,1,.28,0,2.57,2.57,0,0,1,.93.3v1l-.19-.12a.87.87,0,0,0-.2-.12,1.36,1.36,0,0,0-.29-.11,1.27,1.27,0,0,0-.34-.05.34.34,0,0,0-.29.1.25.25,0,0,0,0,.37,1.58,1.58,0,0,0,.37.2,3.23,3.23,0,0,1,.66.37,1.12,1.12,0,0,1,.35.42A1.27,1.27,0,0,1,89.89,287.17Z" />
      <path d="M93.87,286.68H91.4a1,1,0,0,0,.36.59,1,1,0,0,0,.63.23,3,3,0,0,0,1.39-.4V288a2.9,2.9,0,0,1-.66.29,3.06,3.06,0,0,1-1,.14,2.14,2.14,0,0,1-1.1-.28,1.73,1.73,0,0,1-.68-.74,2.42,2.42,0,0,1-.22-1.06,2.38,2.38,0,0,1,.22-1.05,1.71,1.71,0,0,1,.68-.73,2.24,2.24,0,0,1,1.1-.26,1.76,1.76,0,0,1,.83.21,1.59,1.59,0,0,1,.65.68,2.61,2.61,0,0,1,.26,1.23ZM92.7,286a1,1,0,0,0-.16-.61.56.56,0,0,0-.48-.23.61.61,0,0,0-.5.23.93.93,0,0,0-.19.61Z" />
      <path d="M97,288.09a2.32,2.32,0,0,1-.53.21,2.5,2.5,0,0,1-.65.1c-.89,0-1.33-.5-1.33-1.49v-1.58h-.56v-.25l1.66-1.92h.14v1.19h1.18v1H95.68v1.27a3.21,3.21,0,0,0,0,.36.37.37,0,0,0,.14.23.53.53,0,0,0,.34.09A1.77,1.77,0,0,0,97,287Z" />
    </g>
    <g>
      <path d="M118.57,286.75a1.58,1.58,0,0,1-.23.88,1.45,1.45,0,0,1-.63.57,2.2,2.2,0,0,1-.94.2l-.37,0a2.92,2.92,0,0,1-.57-.12,4.58,4.58,0,0,1-.74-.28v-1.33a4.88,4.88,0,0,0,.71.42,1.75,1.75,0,0,0,.75.17.62.62,0,0,0,.48-.14.43.43,0,0,0,.1-.26.46.46,0,0,0-.18-.37,2.5,2.5,0,0,0-.54-.31,4.49,4.49,0,0,1-.69-.41,1.82,1.82,0,0,1-.48-.55,1.52,1.52,0,0,1-.19-.79,1.62,1.62,0,0,1,.19-.79,1.43,1.43,0,0,1,.58-.56,2,2,0,0,1,1-.21,3.33,3.33,0,0,1,.73.08,3,3,0,0,1,.56.2,2.36,2.36,0,0,1,.31.17v1.27a3.7,3.7,0,0,0-.66-.42A1.56,1.56,0,0,0,117,284a.54.54,0,0,0-.39.12.38.38,0,0,0-.12.29.36.36,0,0,0,.12.27,1.82,1.82,0,0,0,.43.29,7.49,7.49,0,0,1,.88.53,1.63,1.63,0,0,1,.51.54A1.38,1.38,0,0,1,118.57,286.75Z" />
      <path d="M121.82,288.09a2.15,2.15,0,0,1-.53.21,2.5,2.5,0,0,1-.65.1c-.89,0-1.33-.5-1.33-1.49v-1.58h-.56v-.25l1.66-1.92h.14v1.19h1.18v1h-1.18v1.27a3.21,3.21,0,0,0,0,.36.37.37,0,0,0,.14.23.53.53,0,0,0,.34.09,1.77,1.77,0,0,0,.77-.28Z" />
      <path d="M126,286.33a2.39,2.39,0,0,1-.23,1.06,1.73,1.73,0,0,1-.68.74,2.09,2.09,0,0,1-1.1.27,2.11,2.11,0,0,1-1.1-.27,1.73,1.73,0,0,1-.68-.74,2.39,2.39,0,0,1-.22-1.06,2.55,2.55,0,0,1,.12-.81,1.83,1.83,0,0,1,.38-.65,1.79,1.79,0,0,1,.64-.44,2.28,2.28,0,0,1,.86-.15,2.42,2.42,0,0,1,.88.15,1.68,1.68,0,0,1,1,1.08A2.39,2.39,0,0,1,126,286.33Zm-1.3,0a1.33,1.33,0,0,0-.18-.74.59.59,0,0,0-.53-.26.58.58,0,0,0-.52.26,1.33,1.33,0,0,0-.18.74,1.36,1.36,0,0,0,.18.75.65.65,0,0,0,1,0A1.34,1.34,0,0,0,124.65,286.33Z" />
      <path d="M130.15,286.31a2.8,2.8,0,0,1-.1.77,1.94,1.94,0,0,1-.3.67,1.41,1.41,0,0,1-.53.47,1.47,1.47,0,0,1-.74.18,1.4,1.4,0,0,1-.55-.09,1.54,1.54,0,0,1-.39-.22v2H126.3v-5.78h1.24v.36a2,2,0,0,1,.41-.31,1.32,1.32,0,0,1,.61-.12,1.47,1.47,0,0,1,.75.21,1.66,1.66,0,0,1,.61.67A2.62,2.62,0,0,1,130.15,286.31Zm-1.3,0a1.37,1.37,0,0,0-.1-.58.74.74,0,0,0-.26-.33.63.63,0,0,0-.32-.1.74.74,0,0,0-.36.08,1.35,1.35,0,0,0-.27.2v1.52l.14.09.15.09.16.05a.48.48,0,0,0,.18,0,.62.62,0,0,0,.49-.28A1.35,1.35,0,0,0,128.85,286.34Z" />
    </g>
    <g>
      <path d="M206.06,288.33h-1.54l-.38-1a3.7,3.7,0,0,0-.37-.77.91.91,0,0,0-.32-.31,1,1,0,0,0-.4-.07h-.17v2.12h-1.43v-5.42h2.44a1.61,1.61,0,0,1,1,.27,1.75,1.75,0,0,1,.55.67,1.9,1.9,0,0,1,.16.74,1.47,1.47,0,0,1-.14.69,1.33,1.33,0,0,1-.29.42,3.53,3.53,0,0,1-.35.24,1.31,1.31,0,0,1,.38.36,4.48,4.48,0,0,1,.41.85Zm-1.95-3.71a.57.57,0,0,0-.22-.52,1.25,1.25,0,0,0-.7-.15h-.31v1.3h.31a1.36,1.36,0,0,0,.72-.13A.55.55,0,0,0,204.11,284.62Z" />
      <path d="M209.82,286.68h-2.47a1,1,0,0,0,.36.59,1,1,0,0,0,.64.23,3,3,0,0,0,1.38-.4V288a2.9,2.9,0,0,1-.66.29,3,3,0,0,1-1,.14,2.09,2.09,0,0,1-1.1-.28,1.67,1.67,0,0,1-.68-.74,2.43,2.43,0,0,1-.23-1.06,2.38,2.38,0,0,1,.23-1.05,1.65,1.65,0,0,1,.68-.73,2.18,2.18,0,0,1,1.1-.26,1.75,1.75,0,0,1,.82.21,1.59,1.59,0,0,1,.65.68,2.61,2.61,0,0,1,.26,1.23Zm-1.16-.7a1,1,0,0,0-.17-.61.56.56,0,0,0-.48-.23.63.63,0,0,0-.5.23.93.93,0,0,0-.19.61Z" />
      <path d="M214,286.31a3.25,3.25,0,0,1-.1.77,2.16,2.16,0,0,1-.31.67,1.38,1.38,0,0,1-.52.47,1.54,1.54,0,0,1-.75.18,1.32,1.32,0,0,1-.54-.09,1.54,1.54,0,0,1-.39-.22v2h-1.24v-5.78h1.24v.36a1.77,1.77,0,0,1,.41-.31,1.29,1.29,0,0,1,.61-.12,1.52,1.52,0,0,1,.75.21,1.71,1.71,0,0,1,.6.67A2.48,2.48,0,0,1,214,286.31Zm-1.31,0a1.57,1.57,0,0,0-.09-.58.81.81,0,0,0-.26-.33.7.7,0,0,0-.33-.1.74.74,0,0,0-.36.08,1.64,1.64,0,0,0-.26.2v1.52l.13.09.15.09.16.05.18,0a.59.59,0,0,0,.49-.28A1.35,1.35,0,0,0,212.68,286.34Z" />
      <path d="M217.94,286.68h-2.47a1,1,0,0,0,1,.82,3,3,0,0,0,1.38-.4V288a2.9,2.9,0,0,1-.66.29,3,3,0,0,1-1,.14,2.15,2.15,0,0,1-1.11-.28,1.71,1.71,0,0,1-.67-.74,2.43,2.43,0,0,1-.23-1.06,2.38,2.38,0,0,1,.23-1.05,1.69,1.69,0,0,1,.67-.73,2.25,2.25,0,0,1,1.11-.26,1.75,1.75,0,0,1,.82.21,1.59,1.59,0,0,1,.65.68,2.61,2.61,0,0,1,.26,1.23Zm-1.16-.7a1,1,0,0,0-.17-.61.56.56,0,0,0-.48-.23.63.63,0,0,0-.5.23.93.93,0,0,0-.19.61Z" />
      <path d="M221.89,288.13a4.55,4.55,0,0,1-.5.19,1.77,1.77,0,0,1-.55.08.59.59,0,0,1-.43-.13.74.74,0,0,1-.17-.3,1.67,1.67,0,0,1-.44.31,1.49,1.49,0,0,1-.64.12,1.23,1.23,0,0,1-.62-.15.85.85,0,0,1-.33-.38,1.31,1.31,0,0,1-.09-.47,1,1,0,0,1,.16-.61,1.19,1.19,0,0,1,.44-.39,4,4,0,0,1,.73-.32l.39-.14.19-.08.14-.07a.83.83,0,0,0-.1-.45.5.5,0,0,0-.45-.17,1.42,1.42,0,0,0-.75.21,2.81,2.81,0,0,0-.64.52v-1.08a2.6,2.6,0,0,1,.5-.31,2.78,2.78,0,0,1,.56-.17,3,3,0,0,1,.59-.06,1.73,1.73,0,0,1,1.15.33,1.18,1.18,0,0,1,.38.92v1.54a.89.89,0,0,0,0,.32.13.13,0,0,0,.13.11.72.72,0,0,0,.31-.11Zm-1.72-.77v-.94a3.3,3.3,0,0,0-.64.37.51.51,0,0,0-.2.44.4.4,0,0,0,.1.3.31.31,0,0,0,.23.11.52.52,0,0,0,.26-.08A2.19,2.19,0,0,0,220.17,287.36Z" />
      <path d="M224.76,288.09a2.32,2.32,0,0,1-.53.21,2.5,2.5,0,0,1-.65.1c-.89,0-1.33-.5-1.33-1.49v-1.58h-.57v-.25l1.66-1.92h.15v1.19h1.18v1h-1.18v1.27a1.84,1.84,0,0,0,0,.36.37.37,0,0,0,.14.23.5.5,0,0,0,.33.09,1.76,1.76,0,0,0,.78-.28Z" />
    </g>
    <g>
      <path d="M164.63,287.94l-.27.11-.21.08-.3.09a4.67,4.67,0,0,1-.65.13,4.83,4.83,0,0,1-.68,0,2.87,2.87,0,0,1-1.34-.31,2.33,2.33,0,0,1-1-.93,3.09,3.09,0,0,1-.37-1.55,3.87,3.87,0,0,1,.19-1.17,2.12,2.12,0,0,1,.59-.92,2.52,2.52,0,0,1,.65-.43,2.42,2.42,0,0,1,.65-.2,3.78,3.78,0,0,1,.7-.05,4.21,4.21,0,0,1,1,.1c.28.08.58.17.9.29v1.28a4,4,0,0,0-.68-.36,2.35,2.35,0,0,0-.9-.15,1.67,1.67,0,0,0-1,.27,1.44,1.44,0,0,0-.52.64,2.13,2.13,0,0,0-.14.72,1.63,1.63,0,0,0,.17.76,1.32,1.32,0,0,0,.5.55,1.55,1.55,0,0,0,.83.21,2.52,2.52,0,0,0,.58-.08v-.64h-.65v-1.09h1.91Z" />
      <path d="M168.9,288.13c-.18.08-.35.14-.5.19a1.77,1.77,0,0,1-.55.08.59.59,0,0,1-.43-.13.64.64,0,0,1-.17-.3,1.57,1.57,0,0,1-.45.31,1.41,1.41,0,0,1-.63.12,1.23,1.23,0,0,1-.62-.15.85.85,0,0,1-.33-.38,1.32,1.32,0,0,1-.1-.47,1,1,0,0,1,.17-.61,1.19,1.19,0,0,1,.44-.39,4.21,4.21,0,0,1,.72-.32l.39-.14.2-.08.14-.07a.94.94,0,0,0-.1-.45.5.5,0,0,0-.45-.17,1.42,1.42,0,0,0-.75.21,2.61,2.61,0,0,0-.64.52v-1.08a2.33,2.33,0,0,1,.5-.31,2.6,2.6,0,0,1,.56-.17,2.88,2.88,0,0,1,.59-.06,1.69,1.69,0,0,1,1.14.33,1.16,1.16,0,0,1,.39.92v1.54a1.27,1.27,0,0,0,0,.32c0,.07.07.11.14.11a.77.77,0,0,0,.31-.11Zm-1.72-.77v-.94a3.3,3.3,0,0,0-.64.37.52.52,0,0,0-.21.44.41.41,0,0,0,.11.3.3.3,0,0,0,.23.11.46.46,0,0,0,.25-.08A2.26,2.26,0,0,0,167.18,287.36Z" />
      <path d="M171.77,288.09a2.53,2.53,0,0,1-.53.21,2.57,2.57,0,0,1-.65.1c-.89,0-1.34-.5-1.34-1.49v-1.58h-.56v-.25l1.66-1.92h.14v1.19h1.19v1h-1.19v1.27a1.73,1.73,0,0,0,0,.36.36.36,0,0,0,.13.23.55.55,0,0,0,.34.09,1.76,1.76,0,0,0,.78-.28Z" />
      <path d="M175.62,286.68h-2.47a1,1,0,0,0,.36.59,1,1,0,0,0,.64.23,3,3,0,0,0,1.38-.4V288a2.9,2.9,0,0,1-.66.29,3,3,0,0,1-1,.14,2.11,2.11,0,0,1-1.1-.28,1.67,1.67,0,0,1-.68-.74,2.43,2.43,0,0,1-.23-1.06,2.38,2.38,0,0,1,.23-1.05,1.65,1.65,0,0,1,.68-.73,2.21,2.21,0,0,1,1.1-.26,1.75,1.75,0,0,1,.82.21,1.59,1.59,0,0,1,.65.68,2.61,2.61,0,0,1,.26,1.23Zm-1.16-.7a1,1,0,0,0-.17-.61.56.56,0,0,0-.48-.23.63.63,0,0,0-.5.23.93.93,0,0,0-.19.61Z" />
    </g>
    <g style="clip-path: url(#clip-path-9)">
      <g>
        <g style="clip-path: url(#clip-path-9)">
          <path d="M37.69,159.37l.7-1.23a14,14,0,0,0-5.77-1.55V158a12.52,12.52,0,0,1,5.07,1.36" />
        </g>
        <g style="clip-path: url(#clip-path-9)">
          <path d="M42.48,163.7l1.23-.71a13.92,13.92,0,0,0-4.22-4.22L38.78,160a12.28,12.28,0,0,1,3.7,3.69" />
        </g>
        <g style="clip-path: url(#clip-path-9)">
          <path d="M25.21,160l-.71-1.23A14,14,0,0,0,20.28,163l1.23.71a12.32,12.32,0,0,1,3.7-3.7" />
        </g>
        <g style="clip-path: url(#clip-path-9)">
          <path d="M44.46,169.86h1.43a13.67,13.67,0,0,0-1.54-5.77l-1.23.71a12.3,12.3,0,0,1,1.34,5.06" />
        </g>
        <g style="clip-path: url(#clip-path-9)">
          <path d="M31.37,158v-1.42a13.54,13.54,0,0,0-5.77,1.55l.7,1.23A12.52,12.52,0,0,1,31.37,158" />
        </g>
        <g style="clip-path: url(#clip-path-9)">
          <path d="M21.51,177.28l-1.23.71a14.12,14.12,0,0,0,4.21,4.22L25.2,181a12.51,12.51,0,0,1-3.69-3.7" />
        </g>
        <g style="clip-path: url(#clip-path-9)">
          <path d="M38.78,181l.71,1.22A13.92,13.92,0,0,0,43.71,178l-1.23-.71a12.46,12.46,0,0,1-3.7,3.71" />
        </g>
        <g style="clip-path: url(#clip-path-9)">
          <path d="M44.46,171.12a12.5,12.5,0,0,1-1.34,5.06l1.23.71a13.82,13.82,0,0,0,1.54-5.77Z" />
        </g>
        <g style="clip-path: url(#clip-path-9)">
          <path d="M19.53,171.12H18.1a13.67,13.67,0,0,0,1.54,5.77l1.23-.71a12.38,12.38,0,0,1-1.34-5.06" />
        </g>
        <g style="clip-path: url(#clip-path-9)">
          <path d="M20.88,164.79l-1.23-.71a14,14,0,0,0-1.55,5.77h1.43a12.24,12.24,0,0,1,1.35-5.06" />
        </g>
      </g>
    </g>
    <g>
      <path d="M27.48,189.59a1.79,1.79,0,0,1-.22.88,1.53,1.53,0,0,1-.64.57,2.16,2.16,0,0,1-.94.2l-.37,0a3.07,3.07,0,0,1-.57-.12,3.81,3.81,0,0,1-.73-.29v-1.33a4.32,4.32,0,0,0,.7.42,1.72,1.72,0,0,0,.75.17.62.62,0,0,0,.48-.14.41.41,0,0,0-.08-.63,2.5,2.5,0,0,0-.54-.31,3.81,3.81,0,0,1-.69-.41,1.69,1.69,0,0,1-.48-.55,1.74,1.74,0,0,1,0-1.58,1.37,1.37,0,0,1,.58-.56,2,2,0,0,1,.95-.21,2.89,2.89,0,0,1,.74.09,2.57,2.57,0,0,1,.56.2,1.63,1.63,0,0,1,.3.17v1.27a3.86,3.86,0,0,0-.65-.43,1.72,1.72,0,0,0-.77-.19.54.54,0,0,0-.39.12.38.38,0,0,0-.12.29.38.38,0,0,0,.12.28,2.2,2.2,0,0,0,.43.29,8.07,8.07,0,0,1,.88.53,2,2,0,0,1,.52.54A1.3,1.3,0,0,1,27.48,189.59Z" />
      <path d="M31,191c-.1,0-.2.08-.33.11a1.41,1.41,0,0,1-.38.09,2.29,2.29,0,0,1-.47,0,1.93,1.93,0,0,1-1-.22,1.72,1.72,0,0,1-.61-.55,2.4,2.4,0,0,1-.3-.68,2.43,2.43,0,0,1-.08-.61,2.92,2.92,0,0,1,.08-.61,2.2,2.2,0,0,1,.29-.67,1.54,1.54,0,0,1,.61-.54,2.06,2.06,0,0,1,1-.22,2.68,2.68,0,0,1,.63.06,3.69,3.69,0,0,1,.5.17v1.11a2.89,2.89,0,0,0-1-.22.88.88,0,0,0-.59.23.9.9,0,0,0-.26.7,1.07,1.07,0,0,0,.12.53.89.89,0,0,0,.32.32.81.81,0,0,0,.39.1,1.76,1.76,0,0,0,.42-.06c.16,0,.35-.1.58-.17V191Z" />
      <path d="M34.92,191l-.5.2a1.77,1.77,0,0,1-.55.08.63.63,0,0,1-.43-.12.55.55,0,0,1-.16-.3,2.63,2.63,0,0,1-.44.3,1.46,1.46,0,0,1-.64.12,1.26,1.26,0,0,1-.62-.15.8.8,0,0,1-.33-.38,1.27,1.27,0,0,1-.09-.47,1,1,0,0,1,.16-.61,1.11,1.11,0,0,1,.44-.39,4.29,4.29,0,0,1,.73-.33l.39-.14.2-.08.14-.07a.83.83,0,0,0-.1-.45c-.07-.11-.23-.15-.46-.15a1.61,1.61,0,0,0-.75.19,2.82,2.82,0,0,0-.63.53v-1.09a2.76,2.76,0,0,1,.5-.3,2.62,2.62,0,0,1,.56-.18,2.88,2.88,0,0,1,.59-.06,1.69,1.69,0,0,1,1.14.33,1.17,1.17,0,0,1,.38.92v1.54a1,1,0,0,0,0,.33.14.14,0,0,0,.13.11.8.8,0,0,0,.32-.11V191h0Zm-1.71-.75v-.94a2.67,2.67,0,0,0-.64.36.51.51,0,0,0-.2.44.43.43,0,0,0,.09.31.36.36,0,0,0,.25.11.45.45,0,0,0,.25-.09A2.77,2.77,0,0,0,33.21,190.2Z" />
      <path d="M36.34,191.15H35.1v-5.41h1.24Z" />
      <path d="M40.5,189.51H38a1,1,0,0,0,.35.58,1,1,0,0,0,.64.23,3,3,0,0,0,1.38-.4v.87a3.42,3.42,0,0,1-.66.29,3.06,3.06,0,0,1-1,.13,2.11,2.11,0,0,1-1.1-.27,1.73,1.73,0,0,1-.68-.74,2.43,2.43,0,0,1-.23-1.06,2.38,2.38,0,0,1,.23-1,1.71,1.71,0,0,1,.68-.73,2.11,2.11,0,0,1,1.1-.26,1.72,1.72,0,0,1,.82.21,1.65,1.65,0,0,1,.65.68,2.57,2.57,0,0,1,.26,1.22Zm-1.16-.7a1,1,0,0,0-.17-.61.58.58,0,0,0-.48-.22.65.65,0,0,0-.5.22,1,1,0,0,0-.19.61Z" />
    </g>
    <g id="pips_-_fewest-5" data-name="pips - fewest">
      <g style="clip-path: url(#clip-path-20)">
        <g>
          <g style="clip-path: url(#clip-path-20)">
            <path d="M218.47,159.37l.71-1.23a14,14,0,0,0-5.77-1.55V158a12.52,12.52,0,0,1,5.06,1.36" />
          </g>
          <g style="clip-path: url(#clip-path-20)">
            <path d="M223.26,163.7l1.23-.71a14,14,0,0,0-4.22-4.22l-.71,1.23a12.43,12.43,0,0,1,3.7,3.7" />
          </g>
          <g style="clip-path: url(#clip-path-20)">
            <path d="M206,160l-.72-1.23a14,14,0,0,0-4.22,4.22l1.23.71A12.47,12.47,0,0,1,206,160" />
          </g>
          <g style="clip-path: url(#clip-path-20)">
            <path d="M225.26,169.86h1.42a13.68,13.68,0,0,0-1.55-5.77l-1.23.71a12.48,12.48,0,0,1,1.36,5.06" />
          </g>
          <g style="clip-path: url(#clip-path-20)">
            <path d="M212.14,158v-1.42a13.61,13.61,0,0,0-5.77,1.55l.72,1.23a12.52,12.52,0,0,1,5-1.36" />
          </g>
          <g style="clip-path: url(#clip-path-20)">
            <path d="M202.28,177.28l-1.22.71a13.92,13.92,0,0,0,4.22,4.22L206,181a12.82,12.82,0,0,1-3.71-3.7" />
          </g>
          <g style="clip-path: url(#clip-path-20)">
            <path d="M219.56,181l.72,1.22A13.92,13.92,0,0,0,224.5,178l-1.23-.71a12.62,12.62,0,0,1-3.71,3.71" />
          </g>
          <g style="clip-path: url(#clip-path-20)">
            <path d="M225.26,171.12a12.21,12.21,0,0,1-1.36,5.06l1.23.71a14,14,0,0,0,1.55-5.77Z" />
          </g>
          <g style="clip-path: url(#clip-path-20)">
            <path d="M200.31,171.12h-1.43a13.68,13.68,0,0,0,1.55,5.77l1.23-.71a12.24,12.24,0,0,1-1.35-5.06" />
          </g>
          <g style="clip-path: url(#clip-path-20)">
            <path d="M201.65,164.79l-1.23-.71a14.34,14.34,0,0,0-1.55,5.77h1.43a12.55,12.55,0,0,1,1.35-5.06" />
          </g>
        </g>
      </g>
    </g>
    <g>
      <path d="M205.48,190.76a3.5,3.5,0,0,1-1.22.42,4.49,4.49,0,0,1-.64,0,2.83,2.83,0,0,1-1.12-.2,2.38,2.38,0,0,1-.86-.58,2.32,2.32,0,0,1-.54-.89,3.33,3.33,0,0,1-.18-1.12,3.25,3.25,0,0,1,.21-1.22,2.26,2.26,0,0,1,.6-.87,2.7,2.7,0,0,1,.87-.5,3.22,3.22,0,0,1,1-.17,5.14,5.14,0,0,1,1.84.41v1.44a5.89,5.89,0,0,0-.7-.42,1.86,1.86,0,0,0-.81-.17,1.61,1.61,0,0,0-.78.19,1.43,1.43,0,0,0-.58.54,1.45,1.45,0,0,0-.22.81,1.49,1.49,0,0,0,.19.75,1.45,1.45,0,0,0,.53.54,1.54,1.54,0,0,0,.77.19,2.07,2.07,0,0,0,.66-.1,2.34,2.34,0,0,0,.52-.21,3.49,3.49,0,0,0,.43-.28v1.4Z" />
      <path d="M209.7,191.15h-1.24V189a1.27,1.27,0,0,0-.11-.52.4.4,0,0,0-.41-.25.55.55,0,0,0-.41.18,2.4,2.4,0,0,0-.34.45v2.34H206v-5.41h1.24v2a1.72,1.72,0,0,1,.61-.51,1.53,1.53,0,0,1,.64-.13c.84,0,1.26.54,1.26,1.61v2.41Z" />
      <path d="M213.79,191a4.73,4.73,0,0,1-.5.2,1.77,1.77,0,0,1-.55.08.61.61,0,0,1-.43-.12.64.64,0,0,1-.17-.3,2,2,0,0,1-.44.3,1.46,1.46,0,0,1-.64.12,1.19,1.19,0,0,1-.61-.15.71.71,0,0,1-.33-.38,1.31,1.31,0,0,1-.09-.47,1,1,0,0,1,.16-.61,1.11,1.11,0,0,1,.44-.39,4.69,4.69,0,0,1,.73-.33l.39-.14.2-.08.14-.07a.75.75,0,0,0-.11-.45c-.07-.11-.22-.16-.45-.16a1.5,1.5,0,0,0-.75.2,3.4,3.4,0,0,0-.64.52v-1.08a2.6,2.6,0,0,1,.5-.31,2.81,2.81,0,0,1,.56-.18,3.8,3.8,0,0,1,.59-.06,1.69,1.69,0,0,1,1.14.33,1.17,1.17,0,0,1,.38.92v1.54a1,1,0,0,0,0,.33.14.14,0,0,0,.13.11.89.89,0,0,0,.33-.11V191Zm-1.71-.75v-.94a2.89,2.89,0,0,0-.64.36.51.51,0,0,0-.2.44.43.43,0,0,0,.1.31.34.34,0,0,0,.24.11.43.43,0,0,0,.25-.09Z" />
      <path d="M217.64,191.15h-1.25V189a1.64,1.64,0,0,0-.08-.57.4.4,0,0,0-.42-.24.6.6,0,0,0-.27.06.83.83,0,0,0-.21.17,1.3,1.3,0,0,0-.15.2,1.67,1.67,0,0,1-.13.2v2.34h-1.24v-4h1.24v.57a1.87,1.87,0,0,1,.59-.5,1.59,1.59,0,0,1,.66-.14q1.26,0,1.26,1.71v2.32Z" />
      <path d="M221.09,191l-.33.11a1.4,1.4,0,0,1-.39.09,2.29,2.29,0,0,1-.47,0,1.93,1.93,0,0,1-1-.22,1.72,1.72,0,0,1-.61-.55,2.4,2.4,0,0,1-.3-.68,3,3,0,0,1-.08-.61,2.92,2.92,0,0,1,.08-.61,2.2,2.2,0,0,1,.29-.67,1.54,1.54,0,0,1,.61-.54,2.06,2.06,0,0,1,1-.22,2.68,2.68,0,0,1,.63.06,3.69,3.69,0,0,1,.5.17v1.11a2.89,2.89,0,0,0-.95-.22.88.88,0,0,0-.59.23,1,1,0,0,0,.2,1.55.81.81,0,0,0,.39.1,1.76,1.76,0,0,0,.42-.06c.16,0,.35-.1.58-.17V191Z" />
      <path d="M225,189.51h-2.47a1,1,0,0,0,.35.58,1,1,0,0,0,.64.23,3,3,0,0,0,1.39-.4v.87a3.42,3.42,0,0,1-.66.29,3.06,3.06,0,0,1-1,.13,2.17,2.17,0,0,1-1.11-.27,1.65,1.65,0,0,1-.67-.74,2.42,2.42,0,0,1-.22-1.06,2.53,2.53,0,0,1,.22-1,1.69,1.69,0,0,1,.67-.73,2.15,2.15,0,0,1,1.11-.26,1.72,1.72,0,0,1,.82.21,1.65,1.65,0,0,1,.65.68,2.57,2.57,0,0,1,.26,1.22Zm-1.17-.7a1,1,0,0,0-.17-.61.57.57,0,0,0-.47-.22.64.64,0,0,0-.5.22.89.89,0,0,0-.19.61Z" />
    </g>
    <path d="M23.91,85.91H22.28V79.14h1.63Z" />
    <path d="M53.71,85.91H49.19v-.13q.26-.28.57-.69L50.57,84c.15-.2.3-.39.43-.59a4.19,4.19,0,0,0,.34-.56,4.54,4.54,0,0,0,.24-.59,2.18,2.18,0,0,0,.1-.67,1.14,1.14,0,0,0-.24-.76.73.73,0,0,0-.61-.29,2,2,0,0,0-1.45.86v-1.6l.42-.3a4,4,0,0,1,.37-.22,2.74,2.74,0,0,1,.51-.18,2.09,2.09,0,0,1,.63-.08,2,2,0,0,1,1,.25A1.85,1.85,0,0,1,53,80a2.33,2.33,0,0,1,.25,1.11,2.84,2.84,0,0,1-.12.84,2.78,2.78,0,0,1-.24.63c-.08.16-.19.35-.33.59a12.27,12.27,0,0,1-.79,1.19h1.93Z" />
    <path d="M81.69,84a2.11,2.11,0,0,1-.18.91,1.86,1.86,0,0,1-.49.61,2,2,0,0,1-.64.34,2.28,2.28,0,0,1-.66.11,3.85,3.85,0,0,1-1-.15,4,4,0,0,1-.91-.34V84a3,3,0,0,0,.65.48,1.54,1.54,0,0,0,.71.19.9.9,0,0,0,.48-.12.78.78,0,0,0,.28-.29.75.75,0,0,0,.1-.38.88.88,0,0,0-.12-.46.91.91,0,0,0-.35-.32A1.12,1.12,0,0,0,79,83h-.19V81.88h.23a.83.83,0,0,0,.49-.13.71.71,0,0,0,.28-.32.75.75,0,0,0,.09-.34.76.76,0,0,0-.21-.54.68.68,0,0,0-.54-.24,1.56,1.56,0,0,0-.61.13,2,2,0,0,0-.6.34v-1.3a6.9,6.9,0,0,1,.79-.32,3.11,3.11,0,0,1,.84-.11,2,2,0,0,1,1.12.3,1.83,1.83,0,0,1,.67.72,1.88,1.88,0,0,1,.2.79,1.92,1.92,0,0,1-.11.61,1.85,1.85,0,0,1-.31.53,1.65,1.65,0,0,1-.38.37,2.32,2.32,0,0,1,.63.59A1.84,1.84,0,0,1,81.69,84Z" />
    <path d="M110.42,84.45h-.7v1.46h-1.59V84.45h-2.42V83.16l2.73-4h1.28v4.15h.7Zm-2.29-1.16V81.12l-1.48,2.17Z" />
    <path d="M138.54,83.79a2.66,2.66,0,0,1-.23,1.09,1.88,1.88,0,0,1-.72.81,2.08,2.08,0,0,1-1.17.31,3.6,3.6,0,0,1-1-.16,3.08,3.08,0,0,1-.93-.49V83.89a4.31,4.31,0,0,0,.78.47,2,2,0,0,0,.87.24.71.71,0,0,0,.62-.26,1,1,0,0,0,.17-.54.91.91,0,0,0-.1-.43.8.8,0,0,0-.36-.34,1.39,1.39,0,0,0-.67-.14,2.12,2.12,0,0,0-.9.2v-4h3.45v1.43h-2.13v1.16l.14,0h.24a1.92,1.92,0,0,1,1,.29,1.89,1.89,0,0,1,.7.76A2.3,2.3,0,0,1,138.54,83.79Z" />
    <path d="M167.23,83.57a2.61,2.61,0,0,1-.16.91,2.55,2.55,0,0,1-.46.78,2.2,2.2,0,0,1-1.68.74,2.2,2.2,0,0,1-1.28-.38,2.33,2.33,0,0,1-.8-1,3.25,3.25,0,0,1-.27-1.32,3.86,3.86,0,0,1,.17-1.15,5.33,5.33,0,0,1,.48-1.14A7.23,7.23,0,0,1,164,80a8,8,0,0,1,1-.93l1.46.55-.61.62c-.17.19-.33.39-.48.59a4.83,4.83,0,0,0-.42.62,1.15,1.15,0,0,1,.39,0,1.84,1.84,0,0,1,1,.27,1.9,1.9,0,0,1,.7.78A2.38,2.38,0,0,1,167.23,83.57Zm-1.54,0a.94.94,0,0,0-.23-.69.76.76,0,0,0-.54-.22.66.66,0,0,0-.6.29,1.12,1.12,0,0,0-.19.62,1,1,0,0,0,.22.67.71.71,0,0,0,1,.12.86.86,0,0,0,.26-.37A1.14,1.14,0,0,0,165.69,83.54Z" />
    <path d="M195.56,79.34,193,86l-1.38-.5,1.82-4.86H191v-1.5h4.52Z" />
    <path d="M223.92,84.09a2,2,0,0,1-.42,1.17,1.8,1.8,0,0,1-.71.52,2.78,2.78,0,0,1-1.19.22,2.93,2.93,0,0,1-1.2-.21,1.93,1.93,0,0,1-.72-.53,1.71,1.71,0,0,1-.33-.62,2.18,2.18,0,0,1-.07-.55,2,2,0,0,1,.25-1,1.88,1.88,0,0,1,.7-.7,2,2,0,0,1-.56-.6,1.65,1.65,0,0,1-.19-.85,1.77,1.77,0,0,1,.11-.62,2,2,0,0,1,.35-.63,1.84,1.84,0,0,1,.66-.49,2.9,2.9,0,0,1,2,0,1.68,1.68,0,0,1,.66.49,1.76,1.76,0,0,1,.35.62,2,2,0,0,1,.1.63,1.7,1.7,0,0,1-.19.85,2,2,0,0,1-.57.6,1.94,1.94,0,0,1,.51.43,1.89,1.89,0,0,1,.33.57A1.93,1.93,0,0,1,223.92,84.09Zm-1.53-.18a1.13,1.13,0,0,0-.12-.54A.79.79,0,0,0,222,83a.65.65,0,0,0-.36-.12.73.73,0,0,0-.55.27,1.22,1.22,0,0,0,0,1.48.75.75,0,0,0,.55.26.7.7,0,0,0,.56-.28A1.14,1.14,0,0,0,222.39,83.91Zm-.18-2.81a1.47,1.47,0,0,0-.13-.62.49.49,0,0,0-.47-.29.52.52,0,0,0-.48.28,1.33,1.33,0,0,0-.15.63,1,1,0,0,0,.19.65.55.55,0,0,0,.43.25.56.56,0,0,0,.43-.25A1.11,1.11,0,0,0,222.21,81.1Z" />
    <g id="pips_-_fewest-6" data-name="pips - fewest">
      <g style="clip-path: url(#clip-path-31)">
        <g>
          <g style="clip-path: url(#clip-path-31)">
            <path d="M37.69,200.56l.7-1.22a14.19,14.19,0,0,0-5.77-1.56v1.43a12.67,12.67,0,0,1,5.07,1.35" />
          </g>
          <g style="clip-path: url(#clip-path-31)">
            <path d="M42.48,204.89l1.23-.71A13.92,13.92,0,0,0,39.49,200l-.71,1.23a12.55,12.55,0,0,1,3.7,3.7" />
          </g>
          <g style="clip-path: url(#clip-path-31)">
            <path d="M25.21,201.2,24.5,200a14,14,0,0,0-4.22,4.22l1.23.71a12.2,12.2,0,0,1,3.7-3.7" />
          </g>
          <g style="clip-path: url(#clip-path-31)">
            <path d="M44.46,211.06h1.43a13.76,13.76,0,0,0-1.54-5.78l-1.23.72a12.26,12.26,0,0,1,1.34,5.06" />
          </g>
          <g style="clip-path: url(#clip-path-31)">
            <path d="M31.37,199.22v-1.43a13.68,13.68,0,0,0-5.77,1.55l.7,1.23a12.36,12.36,0,0,1,5.07-1.35" />
          </g>
          <g style="clip-path: url(#clip-path-31)">
            <path d="M21.51,218.48l-1.23.71a14.12,14.12,0,0,0,4.21,4.22l.71-1.23a12.51,12.51,0,0,1-3.69-3.7" />
          </g>
          <g style="clip-path: url(#clip-path-31)">
            <path d="M38.78,222.17l.71,1.23a14,14,0,0,0,4.22-4.22l-1.23-.71a12.32,12.32,0,0,1-3.7,3.7" />
          </g>
          <g style="clip-path: url(#clip-path-31)">
            <path d="M44.46,212.31a12.5,12.5,0,0,1-1.34,5.06l1.23.72a13.91,13.91,0,0,0,1.54-5.78Z" />
          </g>
          <g style="clip-path: url(#clip-path-31)">
            <path d="M19.53,212.31H18.1a13.76,13.76,0,0,0,1.54,5.78l1.23-.72a12.26,12.26,0,0,1-1.34-5.06" />
          </g>
          <g style="clip-path: url(#clip-path-31)">
            <path d="M20.88,206l-1.23-.72a14.07,14.07,0,0,0-1.55,5.78h1.43A12.12,12.12,0,0,1,20.88,206" />
          </g>
        </g>
      </g>
    </g>
    <g>
      <path d="M29,232.36H27.44l-.38-1a4.3,4.3,0,0,0-.37-.77.9.9,0,0,0-.32-.31,1.37,1.37,0,0,0-.4-.07H25.8v2.11H24.36v-5.41H26.8a1.64,1.64,0,0,1,1,.27,1.55,1.55,0,0,1,.54.66,1.77,1.77,0,0,1,.17.75,1.6,1.6,0,0,1-.13.69,1.17,1.17,0,0,1-.3.41,3.53,3.53,0,0,1-.35.25,1.45,1.45,0,0,1,.38.36,4.48,4.48,0,0,1,.41.85ZM27,228.64a.58.58,0,0,0-.22-.52,1.27,1.27,0,0,0-.7-.14h-.3v1.3h.31a1.2,1.2,0,0,0,.71-.14A.55.55,0,0,0,27,228.64Z" />
      <path d="M33,230.37a2.49,2.49,0,0,1-.23,1,1.78,1.78,0,0,1-.68.73,2.12,2.12,0,0,1-1.11.27,2,2,0,0,1-1.1-.27,1.71,1.71,0,0,1-.68-.73,2.35,2.35,0,0,1-.23-1,2.68,2.68,0,0,1,.13-.83,1.86,1.86,0,0,1,.38-.65,1.79,1.79,0,0,1,.63-.44,2.34,2.34,0,0,1,.87-.14,2.66,2.66,0,0,1,.88.14,1.73,1.73,0,0,1,1,1.08A2.74,2.74,0,0,1,33,230.37Zm-1.3,0a1.39,1.39,0,0,0-.18-.75.63.63,0,0,0-.52-.27.61.61,0,0,0-.53.27,1.34,1.34,0,0,0-.18.75,1.37,1.37,0,0,0,.18.74.64.64,0,0,0,.53.27.61.61,0,0,0,.52-.27A1.47,1.47,0,0,0,31.71,230.37Z" />
      <path d="M37.23,230.37a2.49,2.49,0,0,1-.22,1,1.74,1.74,0,0,1-.69.73,2,2,0,0,1-1.09.27,2,2,0,0,1-1.1-.27,1.71,1.71,0,0,1-.68-.73,2.35,2.35,0,0,1-.23-1,2.41,2.41,0,0,1,.13-.83,1.86,1.86,0,0,1,.38-.65,1.79,1.79,0,0,1,.63-.44,2.34,2.34,0,0,1,.87-.14,2.66,2.66,0,0,1,.88.14,1.73,1.73,0,0,1,1,1.08A3.11,3.11,0,0,1,37.23,230.37Zm-1.29,0a1.48,1.48,0,0,0-.18-.75.62.62,0,0,0-.53-.27.59.59,0,0,0-.52.27,1.43,1.43,0,0,0-.18.75,1.47,1.47,0,0,0,.18.74.62.62,0,0,0,.52.27.6.6,0,0,0,.53-.27A1.47,1.47,0,0,0,35.94,230.37Z" />
      <path d="M40.35,232.12a2.95,2.95,0,0,1-1.18.3c-.89,0-1.34-.49-1.34-1.47v-1.59h-.56v-.25l1.66-1.92h.14v1.19h1.18v1H39.07v1.27a3.21,3.21,0,0,0,0,.36.37.37,0,0,0,.14.23.53.53,0,0,0,.34.09,1.64,1.64,0,0,0,.78-.28Z" />
    </g>
    <g id="pips_-_fewest-7" data-name="pips - fewest">
      <g style="clip-path: url(#clip-path-42)">
        <g>
          <g style="clip-path: url(#clip-path-42)">
            <path d="M218.47,200.56l.71-1.22a14.19,14.19,0,0,0-5.77-1.56v1.43a12.67,12.67,0,0,1,5.06,1.35" />
          </g>
          <g style="clip-path: url(#clip-path-42)">
            <path d="M223.26,204.89l1.23-.71a14,14,0,0,0-4.22-4.22l-.71,1.23a12.55,12.55,0,0,1,3.7,3.7" />
          </g>
          <g style="clip-path: url(#clip-path-42)">
            <path d="M206,201.2l-.72-1.23a14,14,0,0,0-4.22,4.22l1.23.71a12.35,12.35,0,0,1,3.71-3.7" />
          </g>
          <g style="clip-path: url(#clip-path-42)">
            <path d="M225.26,211.06h1.42a13.77,13.77,0,0,0-1.55-5.78l-1.23.72a12.43,12.43,0,0,1,1.36,5.06" />
          </g>
          <g style="clip-path: url(#clip-path-42)">
            <path d="M212.14,199.22v-1.43a13.76,13.76,0,0,0-5.77,1.55l.72,1.23a12.35,12.35,0,0,1,5-1.35" />
          </g>
          <g style="clip-path: url(#clip-path-42)">
            <path d="M202.28,218.48l-1.22.71a13.92,13.92,0,0,0,4.22,4.22l.71-1.23a12.82,12.82,0,0,1-3.71-3.7" />
          </g>
          <g style="clip-path: url(#clip-path-42)">
            <path d="M219.56,222.17l.72,1.23a14,14,0,0,0,4.22-4.22l-1.23-.71a12.46,12.46,0,0,1-3.71,3.7" />
          </g>
          <g style="clip-path: url(#clip-path-42)">
            <path d="M225.26,212.31a12.21,12.21,0,0,1-1.36,5.06l1.23.72a14.07,14.07,0,0,0,1.55-5.78Z" />
          </g>
          <g style="clip-path: url(#clip-path-42)">
            <path d="M200.31,212.31h-1.43a13.77,13.77,0,0,0,1.55,5.78l1.23-.72a12.12,12.12,0,0,1-1.35-5.06" />
          </g>
          <g style="clip-path: url(#clip-path-42)">
            <path d="M201.65,206l-1.23-.72a14.38,14.38,0,0,0-1.55,5.78h1.43a12.42,12.42,0,0,1,1.35-5.06" />
          </g>
        </g>
      </g>
    </g>
    <g>
      <path d="M206.09,232.36h-1.53l-.39-1a4.41,4.41,0,0,0-.36-.77.78.78,0,0,0-.33-.31,1.36,1.36,0,0,0-.39-.07h-.17v2.11h-1.44v-5.41h2.44a1.64,1.64,0,0,1,1,.27,1.55,1.55,0,0,1,.54.66,1.93,1.93,0,0,1,.17.75,1.6,1.6,0,0,1-.14.69,1.17,1.17,0,0,1-.29.41,2.41,2.41,0,0,1-.35.25,1.45,1.45,0,0,1,.38.36,3.82,3.82,0,0,1,.42.85Zm-2-3.72a.58.58,0,0,0-.22-.52,1.28,1.28,0,0,0-.71-.14h-.3v1.3h.31a1.26,1.26,0,0,0,.72-.14C204.09,229.06,204.14,228.89,204.14,228.64Z" />
      <path d="M209.86,230.7h-2.47a1,1,0,0,0,.36.59,1,1,0,0,0,.64.23,2.93,2.93,0,0,0,1.38-.4V232a3.44,3.44,0,0,1-.66.28,3.08,3.08,0,0,1-1,.13,2.05,2.05,0,0,1-1.11-.27,1.56,1.56,0,0,1-.67-.74,2.43,2.43,0,0,1-.23-1.06,2.38,2.38,0,0,1,.23-1,1.69,1.69,0,0,1,.67-.73,2.12,2.12,0,0,1,1.11-.26,1.8,1.8,0,0,1,.82.22,1.62,1.62,0,0,1,.65.67,2.54,2.54,0,0,1,.25,1.22v.28ZM208.7,230a1.06,1.06,0,0,0-.17-.62.58.58,0,0,0-.48-.22.65.65,0,0,0-.5.22,1,1,0,0,0-.19.62Z" />
      <path d="M214,230.34a2.47,2.47,0,0,1-.11.77,2.15,2.15,0,0,1-.3.67,1.41,1.41,0,0,1-.53.47,1.76,1.76,0,0,1-1.28.09,3.84,3.84,0,0,1-.39-.22v2h-1.25v-5.78h1.25v.36a1.64,1.64,0,0,1,.41-.31,1.29,1.29,0,0,1,.61-.12,1.5,1.5,0,0,1,1.35.88A2.52,2.52,0,0,1,214,230.34Zm-1.3,0a1.27,1.27,0,0,0-.11-.59.75.75,0,0,0-.25-.32.7.7,0,0,0-.34-.1.77.77,0,0,0-.36.08,1.46,1.46,0,0,0-.25.2v1.52a.85.85,0,0,0,.14.09l.14.08.17.06a.47.47,0,0,0,.17,0,.57.57,0,0,0,.49-.28A1.23,1.23,0,0,0,212.73,230.37Z" />
      <path d="M218,230.7h-2.47a1,1,0,0,0,.36.59,1,1,0,0,0,.64.23,3,3,0,0,0,1.38-.4V232a3.44,3.44,0,0,1-.66.28,3.11,3.11,0,0,1-1,.13,2,2,0,0,1-1.1-.27,1.63,1.63,0,0,1-.68-.74,2.57,2.57,0,0,1-.22-1.06,2.53,2.53,0,0,1,.22-1,1.77,1.77,0,0,1,.68-.73,2.11,2.11,0,0,1,1.1-.26,1.81,1.81,0,0,1,.83.22,1.66,1.66,0,0,1,.64.67,2.54,2.54,0,0,1,.26,1.22v.28Zm-1.17-.69a1,1,0,0,0-.17-.62.57.57,0,0,0-.47-.22.64.64,0,0,0-.5.22.92.92,0,0,0-.19.62Z" />
      <path d="M221.93,232.15a4.73,4.73,0,0,1-.5.2,1.79,1.79,0,0,1-.55.07.62.62,0,0,1-.43-.11.74.74,0,0,1-.17-.3,2,2,0,0,1-.44.3,1.47,1.47,0,0,1-.64.11,1.2,1.2,0,0,1-.61-.14.72.72,0,0,1-.33-.39,1.19,1.19,0,0,1-.09-.47,1.09,1.09,0,0,1,.16-.61,1.29,1.29,0,0,1,.44-.39,5.37,5.37,0,0,1,.73-.32l.39-.14.2-.08.14-.07a.83.83,0,0,0-.11-.45c-.06-.11-.22-.16-.45-.16a1.5,1.5,0,0,0-.75.2,3.4,3.4,0,0,0-.64.52v-1.08a2.6,2.6,0,0,1,.5-.31,2.81,2.81,0,0,1,.56-.18,2.88,2.88,0,0,1,.59-.06,1.69,1.69,0,0,1,1.14.33,1.14,1.14,0,0,1,.38.92v1.54a1,1,0,0,0,0,.33.14.14,0,0,0,.13.11.89.89,0,0,0,.33-.11v.74Zm-1.71-.76v-.94a3.3,3.3,0,0,0-.64.37.54.54,0,0,0-.2.44.4.4,0,0,0,.1.3.3.3,0,0,0,.24.11.49.49,0,0,0,.25-.08C220,231.53,220.12,231.47,220.22,231.39Z" />
      <path d="M224.81,232.12a2.27,2.27,0,0,1-.53.2,2.19,2.19,0,0,1-.65.1c-.89,0-1.34-.49-1.34-1.47v-1.59h-.56v-.25l1.66-1.92h.14v1.19h1.18v1h-1.18v1.27a3.21,3.21,0,0,0,0,.36.37.37,0,0,0,.14.23.53.53,0,0,0,.34.09,1.64,1.64,0,0,0,.78-.28v1.09Z" />
    </g>
  </g>
  <g /></svg>