<?xml version="1.0" encoding="UTF-8" standalone="no"?>
<svg
   width="20.32mm"
   height="130.55mm"
   viewBox="0 0 57.6 370.07"
   version="1.1"
   id="svg14"
   sodipodi:docname="SH_artwork.svg"
   inkscape:version="1.4.2 (ebf0e940, 2025-05-08)"
   xmlns:inkscape="http://www.inkscape.org/namespaces/inkscape"
   xmlns:sodipodi="http://sodipodi.sourceforge.net/DTD/sodipodi-0.dtd"
   xmlns="http://www.w3.org/2000/svg"
   xmlns:svg="http://www.w3.org/2000/svg">
  <defs
     id="defs14" />
  <sodipodi:namedview
     id="namedview14"
     pagecolor="#ffffff"
     bordercolor="#000000"
     borderopacity="0.25"
     inkscape:showpageshadow="2"
     inkscape:pageopacity="0.0"
     inkscape:pagecheckerboard="0"
     inkscape:deskcolor="#d1d1d1"
     inkscape:document-units="mm"
     inkscape:zoom="0.80205133"
     inkscape:cx="241.87978"
     inkscape:cy="365.31328"
     inkscape:window-width="1200"
     inkscape:window-height="979"
     inkscape:window-x="528"
     inkscape:window-y="38"
     inkscape:window-maximized="0"
     inkscape:current-layer="text" />
  <g
     id="faceplate">
    <g
       id="panel">
      <path
         id="rect1"
         style="fill:#ededed;stroke-width:0px"
         d="m 0.13,0.13 h 57.349998 v 364 H 0.13 Z" />
      <path
         d="M57.35.25v363.75H.25V.25h57.1M57.6,0H0v364.25h57.6V0h0Z"
         style="fill: #9d9d9e; stroke-width: 0px;"
         id="path1" />
    </g>
    <path
       d="M44.39,261.76c0-8.05-6.98-14.57-15.59-14.57s-15.59,6.53-15.59,14.57v54.4s0,0,0,0v19.77c0,3.11,2.55,5.65,5.67,5.65h19.84c3.12,0,5.67-2.54,5.67-5.65v-19.77s0,0,0,0v-54.39Z"
       style="fill: #000; stroke-width: 0px;"
       id="path2" />
    <path
       d="M28.8,56.34c8.04,0,14.59,6.08,14.59,13.54v253.69H14.21V69.88c0-7.47,6.55-13.54,14.59-13.54M28.8,55.34c-8.61,0-15.59,6.51-15.59,14.54v254.69s31.18,0,31.18,0V69.88c0-8.03-6.98-14.54-15.59-14.54h0Z"
       style="fill: #000; stroke-width: 0px;"
       id="path3" />
    <g
       id="text">
      <path
         d="m 4.4648437,-1.5742187 q 0,0.5078125 -0.2617187,0.8789062 Q 3.9453125,-0.32421875 3.4804688,-0.125 3.015625,0.0703125 2.4140625,0.0703125 2.2460938,0.0703125 2,0.046875 1.7578125,0.02734375 1.3515625,-0.0703125 0.94921875,-0.16796875 0.51171875,-0.359375 V -1.6875 q 0.41015625,0.2539063 0.80468745,0.421875 0.3984375,0.1679688 0.8515626,0.1679688 0.4179687,0 0.5390625,-0.1367188 0.125,-0.140625 0.125,-0.2617187 0,-0.21875 -0.2109375,-0.3671875 Q 2.4101563,-2.015625 2.0078125,-2.1757813 1.5625,-2.3632813 1.2265625,-2.5820313 0.890625,-2.8046875 0.67578125,-3.1367188 0.46484375,-3.46875 0.46484375,-3.921875 q 0,-0.4375 0.21484375,-0.7890625 0.21484375,-0.3554687 0.65625,-0.5664062 0.4414062,-0.2109375 1.078125,-0.2109375 0.453125,0 0.8359375,0.089844 0.3867188,0.085937 0.6367188,0.1953125 0.2499999,0.109375 0.3437499,0.171875 v 1.2695312 Q 3.8984375,-4 3.4882813,-4.1875 3.0820313,-4.375 2.6171875,-4.375 2.3125,-4.375 2.1757813,-4.2578125 2.0390625,-4.140625 2.0390625,-3.96875 q 0,0.1601562 0.1367188,0.2773437 0.1367187,0.1171875 0.4882812,0.2851563 0.625,0.2929687 1,0.5273437 0.375,0.234375 0.5859375,0.5429688 0.2148437,0.3046875 0.2148437,0.7617188 z m 4.6839061,1.37499995 Q 8.8401561,-0.078125 8.5784373,-0.00390625 8.3167186,0.0703125 7.9495311,0.0703125 q -0.3476563,0 -0.484375,-0.12109375 -0.1367188,-0.125 -0.1953125,-0.30078125 -0.2265625,0.18359375 -0.5039063,0.3046875 -0.2773437,0.1171875 -0.7265625,0.1171875 -0.4335937,0 -0.703125,-0.1484375 -0.265625,-0.15234375 -0.375,-0.37890625 Q 4.8557811,-0.6875 4.8557811,-0.9296875 q 0,-0.3671875 0.1835937,-0.6054687 0.1875,-0.2421875 0.5,-0.3945313 0.3125,-0.1523438 0.828125,-0.3164063 0.2929688,-0.09375 0.4414063,-0.140625 0.1523437,-0.050781 0.2265625,-0.078125 0.074219,-0.027344 0.15625,-0.070312 0,-0.2890625 -0.1171875,-0.453125 -0.1171875,-0.1640625 -0.5078125,-0.1640625 -0.4609375,0 -0.8554688,0.203125 -0.3945312,0.203125 -0.7226562,0.5234375 v -1.078125 q 0.2617187,-0.1875 0.5664062,-0.3046875 0.3046875,-0.1210937 0.6367188,-0.1796875 0.3320312,-0.058594 0.671875,-0.058594 0.8632812,0 1.296875,0.3359375 0.4375,0.3320312 0.4375,0.9179687 v 1.5351563 q 0,0.21875 0.039063,0.328125 0.042969,0.10546875 0.1523437,0.10546875 0.1328125,0 0.359375,-0.11328125 z M 7.1917186,-0.9609375 v -0.9414062 q -0.5,0.203125 -0.7304688,0.3671875 -0.2304687,0.1601562 -0.2304687,0.4375 0,0.1992187 0.1132812,0.30468745 Q 6.4612498,-0.6875 6.6135936,-0.6875 q 0.1445312,0 0.2851562,-0.078125 0.1445313,-0.0820313 0.2929688,-0.1953125 z M 16.469375,0 h -1.40625 v -2.1210938 q 0,-0.421875 -0.140625,-0.6289062 -0.136719,-0.2109375 -0.4375,-0.2109375 -0.292969,0 -0.480469,0.1796875 -0.1875,0.1757812 -0.375,0.4453125 V 0 h -1.40625 v -2.1210938 q 0,-0.4023437 -0.128906,-0.6210937 -0.128907,-0.21875 -0.457032,-0.21875 -0.15625,0 -0.289062,0.0625 -0.128906,0.0625 -0.210938,0.140625 -0.08203,0.078125 -0.199218,0.2304687 Q 10.820937,-2.375 10.789687,-2.3359375 V 0 H 9.3834372 V -3.9765625 H 10.789687 V -3.40625 q 0.316406,-0.3359375 0.644531,-0.4882813 0.328125,-0.1523437 0.757813,-0.1523437 0.203125,0 0.386719,0.039063 0.183593,0.035156 0.359375,0.125 0.179687,0.089844 0.324218,0.2460937 0.144532,0.15625 0.230469,0.3632813 0.339844,-0.3828125 0.703125,-0.578125 0.367188,-0.1953125 0.84375,-0.1953125 0.476563,0 0.796875,0.1914062 0.324219,0.1914063 0.476563,0.5546875 0.15625,0.359375 0.15625,0.875 z m 4.883126,-2.015625 q 0,0.3984375 -0.113281,0.7695313 -0.113282,0.3710937 -0.347657,0.67187495 -0.230468,0.296875 -0.597656,0.47265625 -0.363281,0.171875 -0.847656,0.171875 -0.390625,0 -0.617188,-0.08203125 -0.222656,-0.08203125 -0.445312,-0.21875 V 1.8085937 h -1.40625 v -5.7851562 h 1.40625 v 0.359375 q 0.210937,-0.1835938 0.464844,-0.3046875 0.257812,-0.125 0.695312,-0.125 0.433594,0 0.851563,0.2148437 0.417968,0.2148438 0.6875,0.671875 0.269531,0.453125 0.269531,1.1445313 z m -1.480469,0.03125 q 0,-0.359375 -0.113281,-0.5820313 -0.113281,-0.2265625 -0.292969,-0.3242187 -0.179687,-0.1015625 -0.371094,-0.1015625 -0.25,0 -0.410156,0.082031 -0.160156,0.078125 -0.300781,0.1992188 v 1.5195313 q 0.07422,0.039063 0.15625,0.089844 0.08594,0.046875 0.167969,0.082031 0.08594,0.0351562 0.179687,0.0585937 0.09766,0.0234375 0.207031,0.0234375 0.332032,0 0.554688,-0.28125 0.222656,-0.28125 0.222656,-0.765625 z"
         id="text3"
         style="font-weight:700;font-size:8px;font-family:GillSans-Bold, 'Gill Sans';letter-spacing:-0.04em"
         transform="translate(19.33 192.87) scale(.88 1)"
         aria-label="Samp" />
      <path
         d="M 2.3203125,0 H 0.6875 v -5.4140625 h 1.6328125 z m 5.0628126,0 h -1.40625 v -2.1445313 q 0,-0.328125 -0.109375,-0.5703125 -0.1054688,-0.2460937 -0.46875,-0.2460937 -0.171875,0 -0.3046875,0.066406 -0.1289063,0.0625 -0.234375,0.1640625 -0.1015625,0.1015625 -0.171875,0.1953125 -0.070312,0.09375 -0.1445313,0.1992188 V 0 h -1.40625 v -3.9765625 h 1.40625 V -3.40625 q 0.3320313,-0.3554688 0.6640625,-0.4960938 0.3359375,-0.1445312 0.7460938,-0.1445312 1.4296875,0 1.4296875,1.7109375 z m 5.2428119,0 h -1.480468 v -5.4140625 h 1.480468 z"
         id="text4"
         style="font-weight:700;font-size:8px;font-family:GillSans-Bold, 'Gill Sans';letter-spacing:-0.04em"
         transform="translate(22.52 144.68) scale(.88 1)"
         aria-label="In 1" />
      <path
         d="m 4.4648437,-1.5742187 q 0,0.5078125 -0.2617187,0.8789062 Q 3.9453125,-0.32421875 3.4804688,-0.125 3.015625,0.0703125 2.4140625,0.0703125 2.2460938,0.0703125 2,0.046875 1.7578125,0.02734375 1.3515625,-0.0703125 0.94921875,-0.16796875 0.51171875,-0.359375 V -1.6875 q 0.41015625,0.2539063 0.80468745,0.421875 0.3984375,0.1679688 0.8515626,0.1679688 0.4179687,0 0.5390625,-0.1367188 0.125,-0.140625 0.125,-0.2617187 0,-0.21875 -0.2109375,-0.3671875 Q 2.4101563,-2.015625 2.0078125,-2.1757813 1.5625,-2.3632813 1.2265625,-2.5820313 0.890625,-2.8046875 0.67578125,-3.1367188 0.46484375,-3.46875 0.46484375,-3.921875 q 0,-0.4375 0.21484375,-0.7890625 0.21484375,-0.3554687 0.65625,-0.5664062 0.4414062,-0.2109375 1.078125,-0.2109375 0.453125,0 0.8359375,0.089844 0.3867188,0.085937 0.6367188,0.1953125 0.2499999,0.109375 0.3437499,0.171875 v 1.2695312 Q 3.8984375,-4 3.4882813,-4.1875 3.0820313,-4.375 2.6171875,-4.375 2.3125,-4.375 2.1757813,-4.2578125 2.0390625,-4.140625 2.0390625,-3.96875 q 0,0.1601562 0.1367188,0.2773437 0.1367187,0.1171875 0.4882812,0.2851563 0.625,0.2929687 1,0.5273437 0.375,0.234375 0.5859375,0.5429688 0.2148437,0.3046875 0.2148437,0.7617188 z m 4.6839061,1.37499995 Q 8.8401561,-0.078125 8.5784373,-0.00390625 8.3167186,0.0703125 7.9495311,0.0703125 q -0.3476563,0 -0.484375,-0.12109375 -0.1367188,-0.125 -0.1953125,-0.30078125 -0.2265625,0.18359375 -0.5039063,0.3046875 -0.2773437,0.1171875 -0.7265625,0.1171875 -0.4335937,0 -0.703125,-0.1484375 -0.265625,-0.15234375 -0.375,-0.37890625 Q 4.8557811,-0.6875 4.8557811,-0.9296875 q 0,-0.3671875 0.1835937,-0.6054687 0.1875,-0.2421875 0.5,-0.3945313 0.3125,-0.1523438 0.828125,-0.3164063 0.2929688,-0.09375 0.4414063,-0.140625 0.1523437,-0.050781 0.2265625,-0.078125 0.074219,-0.027344 0.15625,-0.070312 0,-0.2890625 -0.1171875,-0.453125 -0.1171875,-0.1640625 -0.5078125,-0.1640625 -0.4609375,0 -0.8554688,0.203125 -0.3945312,0.203125 -0.7226562,0.5234375 v -1.078125 q 0.2617187,-0.1875 0.5664062,-0.3046875 0.3046875,-0.1210937 0.6367188,-0.1796875 0.3320312,-0.058594 0.671875,-0.058594 0.8632812,0 1.296875,0.3359375 0.4375,0.3320312 0.4375,0.9179687 v 1.5351563 q 0,0.21875 0.039063,0.328125 0.042969,0.10546875 0.1523437,0.10546875 0.1328125,0 0.359375,-0.11328125 z M 7.1917186,-0.9609375 v -0.9414062 q -0.5,0.203125 -0.7304688,0.3671875 -0.2304687,0.1601562 -0.2304687,0.4375 0,0.1992187 0.1132812,0.30468745 Q 6.4612498,-0.6875 6.6135936,-0.6875 q 0.1445312,0 0.2851562,-0.078125 0.1445313,-0.0820313 0.2929688,-0.1953125 z M 16.469375,0 h -1.40625 v -2.1210938 q 0,-0.421875 -0.140625,-0.6289062 -0.136719,-0.2109375 -0.4375,-0.2109375 -0.292969,0 -0.480469,0.1796875 -0.1875,0.1757812 -0.375,0.4453125 V 0 h -1.40625 v -2.1210938 q 0,-0.4023437 -0.128906,-0.6210937 -0.128907,-0.21875 -0.457032,-0.21875 -0.15625,0 -0.289062,0.0625 -0.128906,0.0625 -0.210938,0.140625 -0.08203,0.078125 -0.199218,0.2304687 Q 10.820937,-2.375 10.789687,-2.3359375 V 0 H 9.3834372 V -3.9765625 H 10.789687 V -3.40625 q 0.316406,-0.3359375 0.644531,-0.4882813 0.328125,-0.1523437 0.757813,-0.1523437 0.203125,0 0.386719,0.039063 0.183593,0.035156 0.359375,0.125 0.179687,0.089844 0.324218,0.2460937 0.144532,0.15625 0.230469,0.3632813 0.339844,-0.3828125 0.703125,-0.578125 0.367188,-0.1953125 0.84375,-0.1953125 0.476563,0 0.796875,0.1914062 0.324219,0.1914063 0.476563,0.5546875 0.15625,0.359375 0.15625,0.875 z"
         id="text5"
         style="font-weight:700;font-size:8px;font-family:GillSans-Bold, 'Gill Sans';letter-spacing:-0.04em"
         transform="translate(21.43 96.49) scale(.88 1)"
         aria-label="Sam" />
      <path
         d="M 2.3203125,0 H 0.6875 v -5.4140625 h 1.6328125 z m 5.0628126,0 h -1.40625 v -2.1445313 q 0,-0.328125 -0.109375,-0.5703125 -0.1054688,-0.2460937 -0.46875,-0.2460937 -0.171875,0 -0.3046875,0.066406 -0.1289063,0.0625 -0.234375,0.1640625 -0.1015625,0.1015625 -0.171875,0.1953125 -0.070312,0.09375 -0.1445313,0.1992188 V 0 h -1.40625 v -3.9765625 h 1.40625 V -3.40625 q 0.3320313,-0.3554688 0.6640625,-0.4960938 0.3359375,-0.1445312 0.7460938,-0.1445312 1.4296875,0 1.4296875,1.7109375 z M 13.954062,0 H 9.8407812 V -0.10546875 Q 10.079062,-0.3359375 10.364219,-0.65625 q 0.285156,-0.3203125 0.734375,-0.8476562 0.207031,-0.2382813 0.386718,-0.46875 0.183594,-0.2304688 0.3125,-0.4453126 0.128907,-0.21875 0.21875,-0.4804687 0.08984,-0.2617188 0.08984,-0.5351563 0,-0.375 -0.21875,-0.6054687 -0.214844,-0.234375 -0.550781,-0.234375 -0.664063,0 -1.320313,0.6875 v -1.2773437 q 0.230469,-0.1484375 0.378907,-0.2382813 0.148437,-0.089844 0.339843,-0.1757812 0.195313,-0.085937 0.460938,-0.1484375 0.265625,-0.0625 0.574219,-0.0625 0.496093,0 0.902343,0.203125 0.40625,0.1992187 0.636719,0.5820312 0.234375,0.3789063 0.234375,0.8867187 0,0.359375 -0.105469,0.671875 -0.105468,0.3125 -0.21875,0.5039063 -0.113281,0.1914062 -0.300781,0.4726562 -0.335937,0.5000001 -0.71875,0.9531251 h 1.753906 z"
         id="text6"
         style="font-weight:700;font-size:8px;font-family:GillSans-Bold, 'Gill Sans';letter-spacing:-0.04em"
         transform="translate(22.52 241.06) scale(.88 1)"
         aria-label="In 2" />
      <path
         d="m 6.4726562,-2.7109375 q 0,0.7578125 -0.3515625,1.3945313 -0.3476562,0.6367187 -1.0390625,1.0117187 -0.6914062,0.375 -1.6835937,0.375 -1.0039062,0 -1.6992188,-0.390625 Q 1.0039062,-0.7109375 0.6640625,-1.3476562 0.328125,-1.984375 0.328125,-2.7109375 q 0,-0.7304688 0.3359375,-1.3632812 Q 1,-4.7109375 1.6953125,-5.0976562 q 0.6992188,-0.390625 1.703125,-0.390625 0.75,0 1.3359375,0.2226562 0.5898437,0.2226563 0.96875,0.6054688 0.3789062,0.3789062 0.5742187,0.8867187 0.1953125,0.5039062 0.1953125,1.0625 z m -1.6640625,0 q 0,-0.3046875 -0.089844,-0.5546875 -0.089844,-0.2539063 -0.2734375,-0.4375 -0.1796875,-0.1875 -0.4414063,-0.2890625 -0.2617187,-0.1054687 -0.6054687,-0.1054687 -0.65625,0 -1.03125,0.3828124 -0.375,0.3828125 -0.375,1.0039063 0,0.6210937 0.375,1.0078125 0.3789063,0.3828125 1.03125,0.3828125 0.4492188,0 0.765625,-0.1757812 0.3164062,-0.1796875 0.4804687,-0.4921875 0.1640625,-0.3164063 0.1640625,-0.7226563 z M 11.129219,0 H 9.7190623 v -0.56640625 q -0.296875,0.3203125 -0.625,0.48046875 -0.3242187,0.15625 -0.78125,0.15625 -0.9023437,0 -1.1679687,-0.5234375 -0.265625,-0.52734375 -0.265625,-1.1875 v -2.3359375 h 1.4101562 v 2.1484375 q 0,0.3242188 0.1054688,0.5703125 0.109375,0.2421875 0.46875,0.2421875 0.3085937,0 0.4882812,-0.1757812 0.1796875,-0.1757813 0.3671875,-0.4492188 v -2.3359375 h 1.4101567 z m 3.715156,-0.23046875 q -0.21875,0.10546875 -0.605469,0.203125 -0.382813,0.09765625 -0.734375,0.09765625 -1.519531,0 -1.519531,-1.484375 V -3 H 11.348281 V -3.2460938 L 13.235,-5.1679687 h 0.160156 v 1.1914062 h 1.34375 V -3 h -1.34375 v 1.2734375 q 0,0.2226563 0.02734,0.359375 0.02734,0.1367188 0.152343,0.2304688 0.128907,0.089844 0.386719,0.089844 0.335938,0 0.882813,-0.28125 z M 19.860624,0 h -1.480468 v -5.4140625 h 1.480468 z"
         id="text7"
         style="font-weight:700;font-size:8px;font-family:GillSans-Bold, 'Gill Sans';letter-spacing:-0.04em;fill:#ffffff"
         transform="translate(19.34 289.25) scale(.88 1)"
         aria-label="Out 1" />
      <path
         d="m 6.4726562,-2.7109375 q 0,0.7578125 -0.3515625,1.3945313 -0.3476562,0.6367187 -1.0390625,1.0117187 -0.6914062,0.375 -1.6835937,0.375 -1.0039062,0 -1.6992188,-0.390625 Q 1.0039062,-0.7109375 0.6640625,-1.3476562 0.328125,-1.984375 0.328125,-2.7109375 q 0,-0.7304688 0.3359375,-1.3632812 Q 1,-4.7109375 1.6953125,-5.0976562 q 0.6992188,-0.390625 1.703125,-0.390625 0.75,0 1.3359375,0.2226562 0.5898437,0.2226563 0.96875,0.6054688 0.3789062,0.3789062 0.5742187,0.8867187 0.1953125,0.5039062 0.1953125,1.0625 z m -1.6640625,0 q 0,-0.3046875 -0.089844,-0.5546875 -0.089844,-0.2539063 -0.2734375,-0.4375 -0.1796875,-0.1875 -0.4414063,-0.2890625 -0.2617187,-0.1054687 -0.6054687,-0.1054687 -0.65625,0 -1.03125,0.3828124 -0.375,0.3828125 -0.375,1.0039063 0,0.6210937 0.375,1.0078125 0.3789063,0.3828125 1.03125,0.3828125 0.4492188,0 0.765625,-0.1757812 0.3164062,-0.1796875 0.4804687,-0.4921875 0.1640625,-0.3164063 0.1640625,-0.7226563 z M 11.129219,0 H 9.7190623 v -0.56640625 q -0.296875,0.3203125 -0.625,0.48046875 -0.3242187,0.15625 -0.78125,0.15625 -0.9023437,0 -1.1679687,-0.5234375 -0.265625,-0.52734375 -0.265625,-1.1875 v -2.3359375 h 1.4101562 v 2.1484375 q 0,0.3242188 0.1054688,0.5703125 0.109375,0.2421875 0.46875,0.2421875 0.3085937,0 0.4882812,-0.1757812 0.1796875,-0.1757813 0.3671875,-0.4492188 v -2.3359375 h 1.4101567 z m 3.715156,-0.23046875 q -0.21875,0.10546875 -0.605469,0.203125 -0.382813,0.09765625 -0.734375,0.09765625 -1.519531,0 -1.519531,-1.484375 V -3 H 11.348281 V -3.2460938 L 13.235,-5.1679687 h 0.160156 v 1.1914062 h 1.34375 V -3 h -1.34375 v 1.2734375 q 0,0.2226563 0.02734,0.359375 0.02734,0.1367188 0.152343,0.2304688 0.128907,0.089844 0.386719,0.089844 0.335938,0 0.882813,-0.28125 z M 21.188749,0 h -4.113281 v -0.10546875 q 0.238281,-0.23046875 0.523438,-0.55078125 0.285156,-0.3203125 0.734375,-0.8476562 0.207031,-0.2382813 0.386718,-0.46875 0.183594,-0.2304688 0.3125,-0.4453126 0.128907,-0.21875 0.21875,-0.4804687 0.08984,-0.2617188 0.08984,-0.5351563 0,-0.375 -0.21875,-0.6054687 -0.214844,-0.234375 -0.550781,-0.234375 -0.664063,0 -1.320313,0.6875 v -1.2773437 q 0.230469,-0.1484375 0.378907,-0.2382813 0.148437,-0.089844 0.339843,-0.1757812 0.195313,-0.085937 0.460938,-0.1484375 0.265625,-0.0625 0.574219,-0.0625 0.496093,0 0.902343,0.203125 0.40625,0.1992187 0.636719,0.5820312 0.234375,0.3789063 0.234375,0.8867187 0,0.359375 -0.105469,0.671875 -0.105468,0.3125 -0.21875,0.5039063 -0.113281,0.1914062 -0.300781,0.4726562 -0.335937,0.5000001 -0.71875,0.9531251 h 1.753906 z"
         id="text8"
         style="font-weight:700;font-size:8px;font-family:GillSans-Bold, 'Gill Sans';letter-spacing:-0.04em;fill:#ffffff"
         transform="translate(19.34 337.44) scale(.88 1)"
         aria-label="Out 2" />
      <path
         d="m 23.37411,348.38048 q 0,0.69823 -0.295088,1.20849 -0.290684,0.51025 -0.814796,0.78418 -0.524111,0.26856 -1.202372,0.26856 -0.189384,0 -0.466856,-0.0322 -0.273066,-0.0268 -0.731112,-0.16114 -0.453643,-0.13428 -0.946924,-0.39746 v -1.82617 q 0.462451,0.34912 0.907285,0.58008 0.449238,0.23095 0.960137,0.23095 0.471259,0 0.607792,-0.18799 0.140938,-0.19335 0.140938,-0.35986 0,-0.30078 -0.237832,-0.50488 -0.237832,-0.20947 -0.691475,-0.42969 -0.502089,-0.25781 -0.880859,-0.55858 -0.378769,-0.30617 -0.621005,-0.7627 -0.237833,-0.45655 -0.237833,-1.07959 0,-0.60156 0.242237,-1.08497 0.242236,-0.48877 0.739921,-0.7788 0.497686,-0.29004 1.215586,-0.29004 0.510899,0 0.942519,0.12354 0.436026,0.11816 0.7179,0.26854 0.281875,0.1504 0.387579,0.23634 v 1.7456 q -0.374365,-0.32764 -0.836817,-0.58545 -0.458046,-0.25781 -0.982158,-0.25781 -0.343535,0 -0.497685,0.16113 -0.15415,0.16114 -0.15415,0.39746 0,0.22021 0.15415,0.38135 0.15415,0.16114 0.550537,0.39209 0.704688,0.40283 1.1275,0.72509 0.422812,0.32228 0.660644,0.74659 0.242237,0.41894 0.242237,1.04736 z m 7.359576,2.16454 h -2.074423 l -0.391982,-0.49413 q -0.378769,0.31151 -0.87205,0.45116 -0.493281,0.13966 -0.982158,0.13966 -1.039414,0 -1.589951,-0.56397 -0.550536,-0.56397 -0.550536,-1.34815 0,-0.56396 0.27747,-0.99901 0.277471,-0.43507 1.074648,-1.10108 -0.229023,-0.29541 -0.378769,-0.5586 -0.149747,-0.26318 -0.224619,-0.52099 -0.07047,-0.26318 -0.07047,-0.53711 0,-0.53174 0.24664,-0.99365 0.246641,-0.46729 0.722305,-0.74122 0.475664,-0.27929 1.114287,-0.27929 0.471259,0 0.84122,0.17724 0.369961,0.17726 0.603388,0.45655 0.233428,0.27392 0.34794,0.59619 0.118916,0.31689 0.118916,0.60694 0,0.56933 -0.321514,1.0581 -0.317109,0.48877 -0.858837,0.82177 l 0.819199,1.06885 q 0.383173,-0.42431 0.678261,-1.06885 h 1.471034 q -0.563749,1.31593 -1.316884,2.14844 z m -3.012537,-5.66649 q 0,-0.1504 -0.06607,-0.30079 -0.06166,-0.15039 -0.211406,-0.24708 -0.145342,-0.10203 -0.356749,-0.10203 -0.303896,0 -0.453642,0.19336 -0.149746,0.18799 -0.149746,0.40283 0,0.14502 0.07928,0.30079 0.07928,0.15575 0.211406,0.333 0.136532,0.17725 0.268661,0.34375 0.678262,-0.35986 0.678262,-0.92382 z m -0.25545,4.12499 -1.074648,-1.37499 q -0.585771,0.45653 -0.585771,0.90233 0,0.26318 0.207002,0.53712 0.207002,0.26855 0.607793,0.26855 0.480068,0 0.845624,-0.33301 z m 11.03276,1.5415 h -1.836591 v -2.90576 h -2.770302 v 2.90576 h -1.840995 v -7.44433 h 1.840995 v 2.73389 h 2.770302 v -2.73389 h 1.836591 z"
         id="text9"
         style="font-weight:700;font-size:9.96092px;font-family:GillSans-Bold, 'Gill Sans';stroke-width:0.905538"
         aria-label="S&amp;H" />
    </g>
    <g
       id="g11"
       transform="translate(0,8.6069709)">
      <path
         d="m 20.6,18.19 c -0.37,0 -0.71,-0.17 -0.97,-0.47 -0.51,-0.6 -0.52,-1.54 -0.04,-2.16 l 6.97,-8.88 c 0.38,-0.48 1.05,-0.65 1.57,-0.39 0.5,0.25 0.79,0.82 0.79,1.45 v 4.77 l 4.64,-5.85 c 0.38,-0.48 1.01,-0.64 1.53,-0.38 0.5,0.25 0.83,0.81 0.83,1.44 v 8.82 c 0,0.86 -0.61,1.57 -1.36,1.57 -0.75,0 -1.36,-0.7 -1.36,-1.57 v -4.79 l -4.64,5.85 c -0.38,0.48 -1.01,0.64 -1.54,0.38 -0.5,-0.24 -0.83,-0.81 -0.83,-1.44 v -4.67 l -4.61,5.8 c -0.26,0.32 -0.62,0.51 -1,0.51 v 0 z"
         style="fill:#2cabe1;stroke-width:0px"
         id="path9" />
      <path
         d="m 20.6,18.19 c -0.75,0 -1.35,-0.7 -1.35,-1.57 v -4.93 l -2.26,2.84 c -0.5,0.63 -1.44,0.65 -1.97,0.04 -0.51,-0.6 -0.52,-1.53 -0.03,-2.15 L 19.6,6.66 c 0.26,-0.32 0.63,-0.5 1,-0.5 0.18,0 0.37,0.04 0.54,0.12 0.5,0.25 0.82,0.81 0.82,1.44 v 8.89 c 0,0.86 -0.61,1.57 -1.36,1.57 v 0 z"
         style="fill:#ea2228;stroke-width:0px"
         id="path10" />
      <path
         d="m 37.2,18.21 v 0 c -0.35,0 -0.68,-0.15 -0.94,-0.42 -0.76,-0.78 -0.14,-1.84 0.29,-2.3 L 38.5,13.13 37.24,13.11 C 36.68,13.1 36.2,12.71 36,12.11 35.81,11.55 35.93,10.9 36.29,10.47 L 39.45,6.64 C 39.68,6.36 40,6.16 40.58,6.17 c 0.33,0 0.67,0.17 0.92,0.4 0.71,0.66 0.29,1.7 -0.07,2.2 l -1.04,1.26 1.26,0.02 c 0.56,0.01 1.04,0.4 1.24,1 0.19,0.56 0.07,1.21 -0.29,1.64 l -4.1,4.97 c -0.35,0.35 -0.65,0.55 -1.3,0.54 v 0 z"
         style="fill:#00a650;stroke-width:0px"
         id="path11" />
    </g>
  </g>
  <g
     id="g1" />
</svg>
