<svg xmlns="http://www.w3.org/2000/svg" width="20.41mm" height="130.6mm" viewBox="0 0 57.85 370.19">
  <g id="faceplate">
    <rect x="0.13" y="0.13" width="57.6" height="364.25" style="fill: #ededed;stroke: #9d9d9e;stroke-miterlimit: 10;stroke-width: 0.25px" />
    <path d="M44.73,261.18c0-8.08-7-14.63-15.59-14.63s-15.59,6.55-15.59,14.63v55.1h0v19.85a5.68,5.68,0,0,0,5.67,5.66H39.06a5.68,5.68,0,0,0,5.67-5.66V316.28h0Z" />
    <g>
      <path d="M23.71,355.4a2.49,2.49,0,0,1-.29,1.21,2,2,0,0,1-.82.78,2.59,2.59,0,0,1-1.2.27l-.47,0a4.75,4.75,0,0,1-.73-.17,4.9,4.9,0,0,1-.95-.39v-1.83a6.26,6.26,0,0,0,.91.58,2.12,2.12,0,0,0,1,.23c.32,0,.52-.06.61-.19a.63.63,0,0,0,.14-.36.62.62,0,0,0-.24-.5,3.33,3.33,0,0,0-.69-.43,5.32,5.32,0,0,1-.88-.56,2.44,2.44,0,0,1-.62-.76,2.32,2.32,0,0,1-.24-1.08,2.45,2.45,0,0,1,.24-1.09,1.91,1.91,0,0,1,.74-.78A2.42,2.42,0,0,1,21.4,350a3.5,3.5,0,0,1,.94.13,3.51,3.51,0,0,1,1.11.5v1.75a5.24,5.24,0,0,0-.84-.59,2,2,0,0,0-1-.25.65.65,0,0,0-.5.16.54.54,0,0,0-.15.39.56.56,0,0,0,.15.39,3.37,3.37,0,0,0,.55.39,11.5,11.5,0,0,1,1.13.72,2.59,2.59,0,0,1,.66.75A2.09,2.09,0,0,1,23.71,355.4Z" />
      <path d="M31.07,357.56H29l-.4-.49a2.57,2.57,0,0,1-.87.45,3.68,3.68,0,0,1-1,.14,2.12,2.12,0,0,1-1.59-.57,1.83,1.83,0,0,1-.55-1.34,1.77,1.77,0,0,1,.28-1,5.24,5.24,0,0,1,1.07-1.1,6.21,6.21,0,0,1-.38-.56,2.38,2.38,0,0,1-.22-.53,1.88,1.88,0,0,1-.07-.53,2.14,2.14,0,0,1,.24-1,1.92,1.92,0,0,1,.73-.74,2.2,2.2,0,0,1,1.11-.28,1.89,1.89,0,0,1,.84.18,1.79,1.79,0,0,1,.61.46,2.09,2.09,0,0,1,.35.59,2,2,0,0,1,.11.61,1.86,1.86,0,0,1-.32,1.06,2.6,2.6,0,0,1-.86.82l.82,1.07a4.1,4.1,0,0,0,.68-1.07h1.47a7.51,7.51,0,0,1-1.32,2.15ZM27.8,356l-1.07-1.38a1.25,1.25,0,0,0-.59.91.88.88,0,0,0,.21.53.72.72,0,0,0,.61.27A1.2,1.2,0,0,0,27.8,356Zm.26-4.13a.69.69,0,0,0-.07-.3.56.56,0,0,0-.21-.25.69.69,0,0,0-.36-.09.53.53,0,0,0-.45.19.62.62,0,0,0-.15.4.67.67,0,0,0,.08.3,1.52,1.52,0,0,0,.21.33l.27.35A1.07,1.07,0,0,0,28.06,351.89Z" />
      <path d="M38.83,357.56H37v-2.9H34.23v2.9H32.39v-7.44h1.84v2.73H37v-2.73h1.83Z" />
    </g>
    <path d="M14.05,75.39A14.87,14.87,0,0,1,29.14,60.76,14.86,14.86,0,0,1,44.22,75.39V279.48a14.86,14.86,0,0,1-15.08,14.63,14.87,14.87,0,0,1-15.09-14.63Z" style="fill: none;stroke: #000;stroke-width: 1.05091px" />
    <g>
      <path d="M23.74,192.49a1.7,1.7,0,0,1-.23.88,1.46,1.46,0,0,1-.64.56,2.12,2.12,0,0,1-.93.2l-.37,0L21,194a4.34,4.34,0,0,1-.74-.29v-1.33a6.11,6.11,0,0,0,.71.43,1.71,1.71,0,0,0,.75.16c.24,0,.4,0,.47-.14a.39.39,0,0,0,.11-.26.45.45,0,0,0-.18-.36,2.56,2.56,0,0,0-.54-.32,4.48,4.48,0,0,1-.69-.4,1.73,1.73,0,0,1-.48-.56,1.5,1.5,0,0,1-.19-.78,1.59,1.59,0,0,1,.19-.79,1.33,1.33,0,0,1,.58-.57,2,2,0,0,1,1-.21,2.81,2.81,0,0,1,.73.09,2.57,2.57,0,0,1,.56.2,1.63,1.63,0,0,1,.3.17v1.27a3.86,3.86,0,0,0-.65-.43,1.68,1.68,0,0,0-.77-.18.52.52,0,0,0-.38.11.4.4,0,0,0-.12.29.38.38,0,0,0,.12.28,1.86,1.86,0,0,0,.43.28c.36.2.66.38.88.53a1.85,1.85,0,0,1,.51.54A1.42,1.42,0,0,1,23.74,192.49Z" />
      <path d="M27.86,193.86l-.5.2a1.79,1.79,0,0,1-.55.07.6.6,0,0,1-.43-.12.64.64,0,0,1-.17-.3,2,2,0,0,1-.45.3,1.41,1.41,0,0,1-.63.12,1.14,1.14,0,0,1-.62-.15.8.8,0,0,1-.33-.38,1.1,1.1,0,0,1-.1-.47,1.07,1.07,0,0,1,.17-.61,1.19,1.19,0,0,1,.44-.39,5.17,5.17,0,0,1,.72-.32l.39-.14.2-.07.14-.07a1,1,0,0,0-.1-.46c-.07-.11-.22-.16-.45-.16a1.5,1.5,0,0,0-.75.2,2.86,2.86,0,0,0-.64.52v-1.07a2,2,0,0,1,.5-.31,2.62,2.62,0,0,1,.56-.18,2.88,2.88,0,0,1,.59-.06,1.69,1.69,0,0,1,1.14.34,1.14,1.14,0,0,1,.39.92v1.53a1.31,1.31,0,0,0,0,.33c0,.07.07.11.14.11a.68.68,0,0,0,.31-.12Zm-1.72-.76v-.94a3.36,3.36,0,0,0-.64.36.54.54,0,0,0-.21.44.42.42,0,0,0,.11.31.29.29,0,0,0,.23.1.39.39,0,0,0,.25-.08A2.14,2.14,0,0,0,26.14,193.1Z" />
      <path d="M34.2,194.06H33v-2.12a1.3,1.3,0,0,0-.12-.63.44.44,0,0,0-.39-.21.54.54,0,0,0-.42.18,3.36,3.36,0,0,0-.33.44v2.34H30.47v-2.12a1.28,1.28,0,0,0-.12-.62.39.39,0,0,0-.4-.22.54.54,0,0,0-.25.06.72.72,0,0,0-.19.14,2,2,0,0,0-.17.23l-.13.19v2.34H28v-4h1.24v.57a1.87,1.87,0,0,1,.56-.48,1.35,1.35,0,0,1,.67-.16,1.86,1.86,0,0,1,.34,0,1.44,1.44,0,0,1,.32.13,1.05,1.05,0,0,1,.28.24,1.48,1.48,0,0,1,.21.37,2.1,2.1,0,0,1,.62-.58A1.39,1.39,0,0,1,33,190a1.2,1.2,0,0,1,.7.2,1.08,1.08,0,0,1,.42.55,2.49,2.49,0,0,1,.13.87Z" />
      <path d="M38.5,192.05a2.73,2.73,0,0,1-.1.76,2,2,0,0,1-.3.67,1.53,1.53,0,0,1-.53.48,1.6,1.6,0,0,1-.75.17,1.54,1.54,0,0,1-.54-.08,2.56,2.56,0,0,1-.39-.22v2H34.65v-5.79h1.24v.36a1.73,1.73,0,0,1,.41-.3,1.18,1.18,0,0,1,.61-.13,1.54,1.54,0,0,1,.75.22,1.47,1.47,0,0,1,.6.67A2.42,2.42,0,0,1,38.5,192.05Zm-1.3,0a1.42,1.42,0,0,0-.1-.59.66.66,0,0,0-.26-.32.56.56,0,0,0-.33-.1.68.68,0,0,0-.36.08,1.21,1.21,0,0,0-.26.2v1.52L36,193l.15.08.15.06a.55.55,0,0,0,.18,0,.57.57,0,0,0,.49-.28A1.32,1.32,0,0,0,37.2,192.08Z" />
    </g>
    <g>
      <path d="M25,147.94H23.61v-5.42H25Z" />
      <path d="M29.5,147.94H28.26v-2.15a1.62,1.62,0,0,0-.09-.57.4.4,0,0,0-.42-.24.53.53,0,0,0-.26.06.68.68,0,0,0-.21.17,1.25,1.25,0,0,0-.15.19l-.13.2v2.34H25.76v-4H27v.57a1.87,1.87,0,0,1,.59-.5,1.51,1.51,0,0,1,.65-.14q1.26,0,1.26,1.71Z" />
      <path d="M34.11,147.94h-1.3v-5.42h1.3Z" />
    </g>
    <g>
      <path d="M25.84,100.24a1.58,1.58,0,0,1-.23.88,1.45,1.45,0,0,1-.63.57,2.19,2.19,0,0,1-.94.19,2.62,2.62,0,0,1-.37,0,2.92,2.92,0,0,1-.57-.12,3.88,3.88,0,0,1-.74-.29v-1.32a4.88,4.88,0,0,0,.71.42,1.75,1.75,0,0,0,.75.17.62.62,0,0,0,.48-.14.45.45,0,0,0,.11-.26.47.47,0,0,0-.19-.37,2.5,2.5,0,0,0-.54-.31,4.49,4.49,0,0,1-.69-.41,1.82,1.82,0,0,1-.48-.55,1.54,1.54,0,0,1-.19-.79,1.74,1.74,0,0,1,.19-.79,1.43,1.43,0,0,1,.58-.56,2,2,0,0,1,.95-.21,3.33,3.33,0,0,1,.73.08,3,3,0,0,1,.56.2,2.36,2.36,0,0,1,.31.17v1.27a3.7,3.7,0,0,0-.66-.42,1.56,1.56,0,0,0-.76-.19.54.54,0,0,0-.39.12.39.39,0,0,0,0,.56,1.82,1.82,0,0,0,.43.29,7.49,7.49,0,0,1,.88.53,1.63,1.63,0,0,1,.51.54A1.38,1.38,0,0,1,25.84,100.24Z" />
      <path d="M30,101.61a3.71,3.71,0,0,1-.5.2,1.79,1.79,0,0,1-.55.07.6.6,0,0,1-.43-.12.64.64,0,0,1-.17-.3,1.35,1.35,0,0,1-1.08.42,1.14,1.14,0,0,1-.62-.15.78.78,0,0,1-.33-.37,1.32,1.32,0,0,1-.09-.48,1,1,0,0,1,.16-.6,1.31,1.31,0,0,1,.44-.4,5,5,0,0,1,.73-.31l.39-.14.19-.08.14-.07a.83.83,0,0,0-.1-.45.5.5,0,0,0-.45-.17,1.5,1.5,0,0,0-.75.2,2.66,2.66,0,0,0-.64.53V98.31a2.6,2.6,0,0,1,.5-.31,2.26,2.26,0,0,1,.56-.17,3,3,0,0,1,.59-.06,1.73,1.73,0,0,1,1.15.33,1.17,1.17,0,0,1,.38.92v1.54a.89.89,0,0,0,0,.32.13.13,0,0,0,.13.11.72.72,0,0,0,.31-.11Zm-1.72-.76v-.94a3.3,3.3,0,0,0-.64.37.5.5,0,0,0-.2.44.4.4,0,0,0,.1.3.3.3,0,0,0,.23.11.52.52,0,0,0,.26-.08Z" />
      <path d="M36.31,101.81H35.07V99.69a1.3,1.3,0,0,0-.12-.63.41.41,0,0,0-.39-.21.54.54,0,0,0-.42.18,2.92,2.92,0,0,0-.33.45v2.33H32.57V99.69a1.46,1.46,0,0,0-.11-.62.43.43,0,0,0-.41-.22.45.45,0,0,0-.25.07.67.67,0,0,0-.19.14l-.17.23-.13.19v2.33H30.07v-4h1.24v.57a1.7,1.7,0,0,1,.57-.49,1.4,1.4,0,0,1,.66-.15,1.79,1.79,0,0,1,.34,0,1.27,1.27,0,0,1,.32.13.83.83,0,0,1,.28.25,1.07,1.07,0,0,1,.21.36,2.38,2.38,0,0,1,.62-.58,1.38,1.38,0,0,1,.74-.19,1.2,1.2,0,0,1,.7.19,1.12,1.12,0,0,1,.42.55,2.5,2.5,0,0,1,.14.88Z" />
    </g>
    <g>
      <path d="M25,240.18H23.61v-5.41H25Z" />
      <path d="M29.5,240.18H28.26V238a1.62,1.62,0,0,0-.09-.57.4.4,0,0,0-.42-.25.44.44,0,0,0-.26.07.83.83,0,0,0-.21.16l-.15.2-.13.2v2.33H25.76v-4H27v.57a1.87,1.87,0,0,1,.59-.5,1.38,1.38,0,0,1,.65-.14q1.26,0,1.26,1.71Z" />
      <path d="M35.28,240.18H31.66v-.1c.14-.16.3-.34.46-.55l.65-.85.34-.47a2.68,2.68,0,0,0,.27-.45,2.89,2.89,0,0,0,.2-.47,2,2,0,0,0,.08-.54,1,1,0,0,0-.19-.61.62.62,0,0,0-.49-.23,1.57,1.57,0,0,0-1.16.69v-1.28l.33-.24a2.14,2.14,0,0,1,.3-.17,1.77,1.77,0,0,1,.41-.15,2,2,0,0,1,.5-.06,1.5,1.5,0,0,1,.79.2,1.39,1.39,0,0,1,.57.58,1.92,1.92,0,0,1,.2.89,2.41,2.41,0,0,1-.09.67,3,3,0,0,1-.19.5l-.27.48c-.2.33-.41.65-.63.95h1.54Z" />
    </g>
    <g>
      <path d="M25.51,287.28a3.21,3.21,0,0,1-.3,1.39,2.42,2.42,0,0,1-.92,1,3.08,3.08,0,0,1-3,0,2.42,2.42,0,0,1-.9-1,3.18,3.18,0,0,1-.3-1.36,3.3,3.3,0,0,1,.29-1.37,2.42,2.42,0,0,1,.91-1,2.75,2.75,0,0,1,1.5-.39,3,3,0,0,1,1.18.22,2.42,2.42,0,0,1,.85.6,2.6,2.6,0,0,1,.5.89A3.16,3.16,0,0,1,25.51,287.28Zm-1.46,0a1.94,1.94,0,0,0-.08-.56,1.11,1.11,0,0,0-.24-.44,1.05,1.05,0,0,0-.39-.29,1.25,1.25,0,0,0-.53-.1,1.15,1.15,0,0,0-.91.38,1.7,1.7,0,0,0,0,2,1.15,1.15,0,0,0,.91.39,1.2,1.2,0,0,0,.67-.18,1.14,1.14,0,0,0,.43-.49A1.81,1.81,0,0,0,24.05,287.28Z" style="fill: #fff" />
      <path d="M29.61,290H28.37v-.57a2,2,0,0,1-.55.48,1.46,1.46,0,0,1-.69.16,1,1,0,0,1-1-.53,2.8,2.8,0,0,1-.24-1.18V286h1.24v2.15a1.48,1.48,0,0,0,.1.57.39.39,0,0,0,.41.24.58.58,0,0,0,.43-.17,3.8,3.8,0,0,0,.32-.45V286h1.24Z" style="fill: #fff" />
      <path d="M32.88,289.76a3,3,0,0,1-.53.2,2.5,2.5,0,0,1-.65.1c-.89,0-1.33-.5-1.33-1.49V287h-.56v-.25l1.66-1.92h.14V286h1.18v1H31.61v1.27a1.84,1.84,0,0,0,0,.36.37.37,0,0,0,.14.23.51.51,0,0,0,.34.09,1.65,1.65,0,0,0,.77-.28Z" style="fill: #fff" />
      <path d="M37.3,290H36v-5.42H37.3Z" style="fill: #fff" />
    </g>
    <g>
      <path d="M25.51,334.53a3.26,3.26,0,0,1-.3,1.4,2.42,2.42,0,0,1-.92,1,3.11,3.11,0,0,1-3,0,2.39,2.39,0,0,1-.9-1,3.19,3.19,0,0,1-.3-1.37,3.29,3.29,0,0,1,.29-1.36,2.38,2.38,0,0,1,.91-1,2.75,2.75,0,0,1,1.5-.39A3,3,0,0,1,24,332a2.42,2.42,0,0,1,.85.6,2.6,2.6,0,0,1,.5.89A3.14,3.14,0,0,1,25.51,334.53Zm-1.46,0A1.87,1.87,0,0,0,24,334a1.11,1.11,0,0,0-.24-.44,1.05,1.05,0,0,0-.39-.29,1.25,1.25,0,0,0-.53-.1,1.12,1.12,0,0,0-.91.38,1.47,1.47,0,0,0-.33,1,1.5,1.5,0,0,0,.33,1,1.14,1.14,0,0,0,.91.38,1.28,1.28,0,0,0,.67-.17,1.17,1.17,0,0,0,.43-.5A1.81,1.81,0,0,0,24.05,334.53Z" style="fill: #fff" />
      <path d="M29.61,337.24H28.37v-.56a2,2,0,0,1-.55.48,1.47,1.47,0,0,1-.69.15,1,1,0,0,1-1-.52,2.84,2.84,0,0,1-.24-1.19v-2.33h1.24v2.15a1.4,1.4,0,0,0,.1.56.39.39,0,0,0,.41.25.55.55,0,0,0,.43-.18,3.12,3.12,0,0,0,.32-.45v-2.33h1.24Z" style="fill: #fff" />
      <path d="M32.88,337a2.9,2.9,0,0,1-.53.21,2.48,2.48,0,0,1-.65.09c-.89,0-1.33-.49-1.33-1.48v-1.59h-.56V334l1.66-1.92h.14v1.19h1.18v1H31.61v1.28a1.84,1.84,0,0,0,0,.36.35.35,0,0,0,.14.22.46.46,0,0,0,.34.1,1.77,1.77,0,0,0,.77-.28Z" style="fill: #fff" />
      <path d="M38.46,337.24H34.85v-.1l.46-.55.64-.85c.12-.16.24-.32.34-.47a3.68,3.68,0,0,0,.28-.45,2.67,2.67,0,0,0,.19-.48,1.89,1.89,0,0,0,.08-.53.93.93,0,0,0-.19-.61.62.62,0,0,0-.49-.23,1.59,1.59,0,0,0-1.16.69v-1.28l.33-.24a2.14,2.14,0,0,1,.3-.17,2.23,2.23,0,0,1,.91-.22,1.57,1.57,0,0,1,.8.21,1.37,1.37,0,0,1,.56.58,1.8,1.8,0,0,1,.2.89,2.41,2.41,0,0,1-.09.67,2.29,2.29,0,0,1-.19.5l-.27.48a8.69,8.69,0,0,1-.63.95h1.54Z" style="fill: #fff" />
    </g>
    <g>
      <path d="M34.54,6.76l-5.53,7v-6a1.27,1.27,0,0,0-.64-1.17.89.89,0,0,0-1.13.29L20,16.13a1.49,1.49,0,0,0,0,1.79.9.9,0,0,0,1.46,0l5.5-7v6a1.29,1.29,0,0,0,.64,1.18.92.92,0,0,0,1.14-.3l5.53-7v6.15a1.05,1.05,0,1,0,2.06,0V7.64a1.28,1.28,0,0,0-.65-1.18A.91.91,0,0,0,34.54,6.76Z" style="stroke: #000;stroke-width: 0.6000000000000001px" />
      <path d="M20,6.68l-4.81,6.13a1.47,1.47,0,0,0,0,1.79.9.9,0,0,0,1.46,0l3.05-3.87V17a1.17,1.17,0,0,0,1,1.26,1.17,1.17,0,0,0,1-1.26V7.56a1.29,1.29,0,0,0-.65-1.17A.91.91,0,0,0,20,6.68Z" style="stroke: #000;stroke-width: 0.6000000000000001px" />
      <path d="M42.91,11.2a1.05,1.05,0,0,0-.95-.77h-2.1l1.53-1.95s.8-1.17.1-1.82a1.27,1.27,0,0,0-1.58.06l-3.23,4.1a1.45,1.45,0,0,0-.2,1.37,1,1,0,0,0,1,.78h2.1L37,16.14s-1,1.13-.27,1.89,1.75-.14,1.75-.14l4.18-5.31A1.5,1.5,0,0,0,42.91,11.2Z" style="stroke: #000;stroke-width: 0.6000000000000001px" />
    </g>
  </g>
  <g /></svg>