<svg xmlns="http://www.w3.org/2000/svg" width="20.41mm" height="130.6mm" viewBox="0 0 57.85 370.19">
  <defs>
    <clipPath id="clip-path">
      <rect x="15.02" y="33.07" width="27.8" height="25.62" style="fill: none" />
    </clipPath>
    <clipPath id="clip-path-3">
      <rect x="15.02" y="80.88" width="27.8" height="25.62" style="fill: none" />
    </clipPath>
  </defs>
  <g id="faceplate">
    <rect x="0.13" y="0.13" width="57.6" height="364.25" style="fill: #ededed;stroke: #9d9d9e;stroke-miterlimit: 10;stroke-width: 0.25px" />
    <path d="M29.28,247.47c8,0,14.54,6,14.54,13.46v60.59c0,7.42-6.52,13.46-14.54,13.46s-14.54-6-14.54-13.46V260.93c0-7.43,6.52-13.46,14.54-13.46m0-1.06c-8.61,0-15.59,6.5-15.59,14.52v60.59c0,8,7,14.51,15.59,14.51s15.59-6.5,15.59-14.51V260.93c0-8-7-14.52-15.59-14.52Z" />
    <g>
      <path d="M23.19,354.94a2.33,2.33,0,0,1-.29,1.21,2,2,0,0,1-.82.78,2.59,2.59,0,0,1-1.2.27l-.46,0a4.1,4.1,0,0,1-.73-.16,4.72,4.72,0,0,1-1-.4v-1.82a6.58,6.58,0,0,0,.91.58,2.05,2.05,0,0,0,1,.23.75.75,0,0,0,.61-.19.59.59,0,0,0,.14-.36.65.65,0,0,0-.24-.51,2.59,2.59,0,0,0-.69-.42,5.34,5.34,0,0,1-.88-.57,2.33,2.33,0,0,1-.62-.76,2.5,2.5,0,0,1,0-2.16,1.77,1.77,0,0,1,.73-.78,2.45,2.45,0,0,1,1.22-.29,3.58,3.58,0,0,1,.95.12,3.78,3.78,0,0,1,.71.27,2.33,2.33,0,0,1,.39.24v1.74a5.19,5.19,0,0,0-.84-.58,2,2,0,0,0-1-.26.65.65,0,0,0-.5.16.57.57,0,0,0-.15.4.54.54,0,0,0,.15.38,2.47,2.47,0,0,0,.55.39,9.78,9.78,0,0,1,1.13.73,2.43,2.43,0,0,1,.66.74A2.09,2.09,0,0,1,23.19,354.94Z" />
      <path d="M29.08,357.11H24.44v-7.45h1.84v5.66h2.8Z" />
      <path d="M40,349.66,37.4,357.2H36.33l-1.58-4.38-1.63,4.38H32.05l-2.59-7.54h1.9l1.27,4.13,1.45-4.13H35.4l1.43,4.13,1.32-4.13Z" />
    </g>
    <path d="M44.73,308c0-8.08-7-14.63-15.59-14.63S13.55,300,13.55,308v8.11h0V336a5.68,5.68,0,0,0,5.67,5.67H39.06A5.68,5.68,0,0,0,44.73,336V316.15h0Z" />
    <g>
      <path d="M27.9,288H26.46V282.6H27.9Z" />
      <path d="M32.35,288H31.12v-2.15a1.66,1.66,0,0,0-.1-.57.39.39,0,0,0-.41-.24.6.6,0,0,0-.27.06.82.82,0,0,0-.2.17,1.24,1.24,0,0,0-.16.19l-.12.2V288H28.62v-4h1.24v.57a1.87,1.87,0,0,1,.58-.5,1.59,1.59,0,0,1,.66-.14c.83,0,1.25.57,1.25,1.71Z" />
    </g>
    <g>
      <path d="M28.37,334a3.08,3.08,0,0,1-.31,1.39,2.37,2.37,0,0,1-.91,1,2.79,2.79,0,0,1-1.49.37,2.73,2.73,0,0,1-1.49-.39,2.38,2.38,0,0,1-.91-1A3.14,3.14,0,0,1,23,334a3.19,3.19,0,0,1,.3-1.37,2.42,2.42,0,0,1,.91-1,2.73,2.73,0,0,1,1.49-.39,2.92,2.92,0,0,1,1.18.23,2.12,2.12,0,0,1,.85.6,2.53,2.53,0,0,1,.51.89A3.36,3.36,0,0,1,28.37,334Zm-1.46,0a2,2,0,0,0-.08-.56,1.49,1.49,0,0,0-.24-.43,1,1,0,0,0-.39-.29,1.3,1.3,0,0,0-.54-.11,1.12,1.12,0,0,0-.9.39,1.47,1.47,0,0,0-.33,1,1.52,1.52,0,0,0,.33,1,1.14,1.14,0,0,0,.9.38,1.23,1.23,0,0,0,.68-.18,1.19,1.19,0,0,0,.42-.49A1.66,1.66,0,0,0,26.91,334Z" style="fill: #fff" />
      <path d="M32.46,336.68H31.23v-.57a1.84,1.84,0,0,1-.55.48,1.38,1.38,0,0,1-.69.16,1,1,0,0,1-1-.52,3,3,0,0,1-.23-1.19V332.7H30v2.15a1.61,1.61,0,0,0,.1.57.4.4,0,0,0,.41.25.54.54,0,0,0,.43-.18,2.92,2.92,0,0,0,.33-.45V332.7h1.23Z" style="fill: #fff" />
      <path d="M35.74,336.45a2.58,2.58,0,0,1-.53.2,2.24,2.24,0,0,1-.65.1c-.89,0-1.34-.49-1.34-1.48v-1.59h-.56v-.25l1.66-1.92h.14v1.19h1.18v1H34.46V335a1.73,1.73,0,0,0,0,.36.36.36,0,0,0,.13.23.55.55,0,0,0,.34.09,1.64,1.64,0,0,0,.78-.28Z" style="fill: #fff" />
    </g>
    <g id="pips_-_fewest" data-name="pips - fewest">
      <g style="clip-path: url(#clip-path)">
        <g style="clip-path: url(#clip-path)">
          <path d="M34.62,35.85l.71-1.24a13.86,13.86,0,0,0-5.77-1.54V34.5a12.39,12.39,0,0,1,5.06,1.35" />
          <path d="M39.41,40.18l1.24-.71a14,14,0,0,0-4.23-4.22l-.71,1.23a12.55,12.55,0,0,1,3.7,3.7" />
          <path d="M22.14,36.48l-.71-1.23a14,14,0,0,0-4.23,4.22l1.23.71a12.7,12.7,0,0,1,3.71-3.7" />
          <path d="M41.4,46.34h1.43a14,14,0,0,0-1.55-5.77l-1.23.71a12.47,12.47,0,0,1,1.35,5.06" />
          <path d="M28.29,34.5V33.07a13.86,13.86,0,0,0-5.77,1.54l.71,1.24a12.35,12.35,0,0,1,5.06-1.35" />
          <path d="M18.43,53.76l-1.23.71a14,14,0,0,0,4.23,4.22l.71-1.23a12.7,12.7,0,0,1-3.71-3.7" />
          <path d="M35.71,57.46l.71,1.23a14,14,0,0,0,4.23-4.22l-1.24-.71a12.55,12.55,0,0,1-3.7,3.7" />
          <path d="M41.4,47.6a12.47,12.47,0,0,1-1.35,5.06l1.23.71a14,14,0,0,0,1.55-5.77Z" />
          <path d="M16.45,47.6H15a13.68,13.68,0,0,0,1.55,5.77l1.23-.71a12.47,12.47,0,0,1-1.35-5.06" />
          <path d="M17.8,41.28l-1.23-.71A13.83,13.83,0,0,0,15,46.34h1.43a12.31,12.31,0,0,1,1.35-5.06" />
        </g>
      </g>
    </g>
    <g id="pips_-_fewest-2" data-name="pips - fewest">
      <g style="clip-path: url(#clip-path-3)">
        <g style="clip-path: url(#clip-path-3)">
          <path d="M34.62,83.66l.71-1.24a13.86,13.86,0,0,0-5.77-1.54V82.3a12.56,12.56,0,0,1,5.06,1.36" />
          <path d="M39.41,88l1.24-.71a14,14,0,0,0-4.23-4.22l-.71,1.23a12.55,12.55,0,0,1,3.7,3.7" />
          <path d="M22.14,84.29l-.71-1.23a13.85,13.85,0,0,0-4.23,4.22l1.23.71a12.7,12.7,0,0,1,3.71-3.7" />
          <path d="M41.4,94.15h1.43a14,14,0,0,0-1.55-5.77l-1.23.71a12.47,12.47,0,0,1,1.35,5.06" />
          <path d="M28.29,82.3V80.88a13.86,13.86,0,0,0-5.77,1.54l.71,1.24a12.52,12.52,0,0,1,5.06-1.36" />
          <path d="M18.43,101.56l-1.23.72a14.07,14.07,0,0,0,4.23,4.22l.71-1.23a12.74,12.74,0,0,1-3.71-3.71" />
          <path d="M35.71,105.27l.71,1.23a14.07,14.07,0,0,0,4.23-4.22l-1.24-.72a12.58,12.58,0,0,1-3.7,3.71" />
          <path d="M41.4,95.41a12.47,12.47,0,0,1-1.35,5.06l1.23.71a14,14,0,0,0,1.55-5.77Z" />
          <path d="M16.45,95.41H15a13.68,13.68,0,0,0,1.55,5.77l1.23-.71a12.47,12.47,0,0,1-1.35-5.06" />
          <path d="M17.8,89.09l-1.23-.71A13.83,13.83,0,0,0,15,94.15h1.43a12.31,12.31,0,0,1,1.35-5.06" />
        </g>
      </g>
    </g>
    <g>
      <path d="M26.72,69.67H24.79l-.47-1.2a5.17,5.17,0,0,0-.47-1,1,1,0,0,0-.4-.39A1.41,1.41,0,0,0,23,67h-.2v2.64H21V62.9H24a1.94,1.94,0,0,1,1.89,1.17,2.39,2.39,0,0,1,.21.93,1.93,1.93,0,0,1-.18.87,1.43,1.43,0,0,1-.37.51,3,3,0,0,1-.43.31,2.07,2.07,0,0,1,.48.45,6.41,6.41,0,0,1,.5,1.06ZM24.28,65a.73.73,0,0,0-.27-.65,1.59,1.59,0,0,0-.89-.19h-.37v1.63h.38a1.72,1.72,0,0,0,.9-.16A.69.69,0,0,0,24.28,65Z" />
      <path d="M28.56,69.67H27v-5h1.56Zm-.13-6.12a.73.73,0,0,1-.19.52.58.58,0,0,1-.46.22.56.56,0,0,1-.33-.1.58.58,0,0,1-.23-.26.82.82,0,0,1-.09-.38.76.76,0,0,1,.19-.52.57.57,0,0,1,.46-.22.58.58,0,0,1,.46.22A.76.76,0,0,1,28.43,63.55Z" />
      <path d="M32.69,68.22a1.48,1.48,0,0,1-.44,1.11,1.78,1.78,0,0,1-1.31.43,3.69,3.69,0,0,1-.86-.1,5.92,5.92,0,0,1-.83-.29V68.12a5.88,5.88,0,0,0,.68.39,1.45,1.45,0,0,0,.63.13c.39,0,.58-.12.58-.36a.35.35,0,0,0-.08-.22,1.36,1.36,0,0,0-.29-.21l-.56-.29a2.07,2.07,0,0,1-.73-.58,1.32,1.32,0,0,1-.3-.88,1.45,1.45,0,0,1,.8-1.27,2,2,0,0,1,1-.22l.35,0a4.64,4.64,0,0,1,.54.12,2.73,2.73,0,0,1,.61.26v1.22l-.23-.16L32,65.93a2.61,2.61,0,0,0-.37-.14,1.54,1.54,0,0,0-.43-.06.46.46,0,0,0-.36.12.31.31,0,0,0,0,.46,1.7,1.7,0,0,0,.46.26,3.9,3.9,0,0,1,.83.46,1.51,1.51,0,0,1,.44.52A1.54,1.54,0,0,1,32.69,68.22Z" />
      <path d="M37.66,67.61H34.58a1.27,1.27,0,0,0,1.24,1,3.8,3.8,0,0,0,1.73-.5v1.09a4.2,4.2,0,0,1-.82.36,3.88,3.88,0,0,1-1.23.17,2.71,2.71,0,0,1-1.38-.34,2.18,2.18,0,0,1-.85-.93A3,3,0,0,1,33,67.16a2.9,2.9,0,0,1,.28-1.31,2.08,2.08,0,0,1,.85-.91,2.71,2.71,0,0,1,1.38-.33,2.28,2.28,0,0,1,1,.26,2,2,0,0,1,.81.86,3.1,3.1,0,0,1,.32,1.53Zm-1.45-.87A1.25,1.25,0,0,0,36,66a.7.7,0,0,0-.6-.29.77.77,0,0,0-.62.29,1.15,1.15,0,0,0-.24.76Z" />
    </g>
    <g>
      <path d="M26.52,115.61H24.05v2.74H22.26v-6.77h4.26v1.36H24.05v1.3h2.47Z" />
      <path d="M31.66,118.1a5,5,0,0,1-.63.24,2.31,2.31,0,0,1-.69.09.75.75,0,0,1-.53-.15.85.85,0,0,1-.21-.37,2.27,2.27,0,0,1-.56.37,1.81,1.81,0,0,1-.8.15,1.46,1.46,0,0,1-.77-.18,1,1,0,0,1-.41-.48,1.48,1.48,0,0,1-.12-.59,1.39,1.39,0,0,1,.2-.76,1.63,1.63,0,0,1,.55-.49,7,7,0,0,1,.91-.39l.49-.18.25-.1.17-.08a1,1,0,0,0-.13-.57c-.08-.14-.27-.2-.56-.2a1.81,1.81,0,0,0-.94.25,3.46,3.46,0,0,0-.79.65V114a2.69,2.69,0,0,1,.62-.39,3.35,3.35,0,0,1,.7-.22,3.64,3.64,0,0,1,.74-.07,2.18,2.18,0,0,1,1.43.41,1.46,1.46,0,0,1,.48,1.15v1.92a1.39,1.39,0,0,0,0,.41.18.18,0,0,0,.17.14.84.84,0,0,0,.39-.15Zm-2.15-1V116a4.35,4.35,0,0,0-.8.45.68.68,0,0,0-.26.55.53.53,0,0,0,.13.38.38.38,0,0,0,.29.14.63.63,0,0,0,.32-.1A3.14,3.14,0,0,0,29.51,117.14Z" />
      <path d="M33.42,118.35H31.87v-6.77h1.55Z" />
      <path d="M35.77,118.35H34.22v-6.77h1.55Z" />
    </g>
    <g>
      <path d="M34.54,6.76l-5.53,7v-6a1.27,1.27,0,0,0-.64-1.17.89.89,0,0,0-1.13.29L20,16.13a1.49,1.49,0,0,0,0,1.79.9.9,0,0,0,1.46,0l5.5-7v6a1.29,1.29,0,0,0,.64,1.18.92.92,0,0,0,1.14-.3l5.53-7v6.15a1.05,1.05,0,1,0,2.06,0V7.64a1.28,1.28,0,0,0-.65-1.18A.91.91,0,0,0,34.54,6.76Z" style="stroke: #000;stroke-width: 0.6000000000000001px" />
      <path d="M20,6.68l-4.81,6.13a1.47,1.47,0,0,0,0,1.79.9.9,0,0,0,1.46,0l3.05-3.87V17a1.17,1.17,0,0,0,1,1.26,1.17,1.17,0,0,0,1-1.26V7.56a1.29,1.29,0,0,0-.65-1.17A.91.91,0,0,0,20,6.68Z" style="stroke: #000;stroke-width: 0.6000000000000001px" />
      <path d="M42.91,11.2a1.05,1.05,0,0,0-.95-.77h-2.1l1.53-1.95s.8-1.17.1-1.82a1.27,1.27,0,0,0-1.58.06l-3.23,4.1a1.45,1.45,0,0,0-.2,1.37,1,1,0,0,0,1,.78h2.1L37,16.14s-1,1.13-.27,1.89,1.75-.14,1.75-.14l4.18-5.31A1.5,1.5,0,0,0,42.91,11.2Z" style="stroke: #000;stroke-width: 0.6000000000000001px" />
    </g>
  </g>
  <g /></svg>