<?xml version="1.0" encoding="UTF-8" standalone="no"?>
<svg
   width="20.32mm"
   height="128.5mm"
   viewBox="0 0 20.32 128.5"
   version="1.1"
   id="svg60"
   sodipodi:docname="SoloPush.svg"
   inkscape:version="1.4 (e7c3feb1, 2024-10-09)"
   xml:space="preserve"
   xmlns:inkscape="http://www.inkscape.org/namespaces/inkscape"
   xmlns:sodipodi="http://sodipodi.sourceforge.net/DTD/sodipodi-0.dtd"
   xmlns="http://www.w3.org/2000/svg"
   xmlns:svg="http://www.w3.org/2000/svg"><sodipodi:namedview
     id="namedview60"
     pagecolor="#505050"
     bordercolor="#eeeeee"
     borderopacity="1"
     inkscape:showpageshadow="0"
     inkscape:pageopacity="0"
     inkscape:pagecheckerboard="0"
     inkscape:deskcolor="#505050"
     inkscape:document-units="mm"
     inkscape:zoom="1.2783179"
     inkscape:cx="62.191103"
     inkscape:cy="294.13654"
     inkscape:window-width="1920"
     inkscape:window-height="1027"
     inkscape:window-x="2180"
     inkscape:window-y="260"
     inkscape:window-maximized="0"
     inkscape:current-layer="layer1" /><defs
     id="defs2"><rect
       x="95.242349"
       y="167.4075"
       width="49.870224"
       height="43.220861"
       id="rect9" /><rect
       x="84.486027"
       y="10.169614"
       width="63.560089"
       height="14.667713"
       id="rect7" /><rect
       x="113.03917"
       y="371.19092"
       width="26.401883"
       height="12.907587"
       id="rect6" /><clipPath
       id="clippath"><rect
         x="14.91"
         y="195.08"
         width="27.780001"
         height="25.51"
         style="fill:none"
         id="rect1" /></clipPath><clipPath
       id="clippath-1"><rect
         x="14.91"
         y="195.08"
         width="27.780001"
         height="25.51"
         style="fill:none"
         id="rect2" /></clipPath></defs><g
     inkscape:groupmode="layer"
     id="layer1"
     inkscape:label="faceplate"><g
       id="g3"
       transform="matrix(0.35277778,0,0,0.35277778,0,3.468175e-4)"
       style="stroke-width:2.83463"
       sodipodi:insensitive="true"><path
         id="rect3"
         style="fill:#ededed"
         d="m 0.13,0.13 h 57.349998 v 364 H 0.13 Z"
         sodipodi:nodetypes="ccccc" /><path
         d="M 57.35,0.25 V 364 H 0.25 V 0.25 h 57.1 M 57.6,0 H 0 v 364.25 h 57.6 z"
         style="fill:#9d9d9e;stroke-width:2.83463"
         id="path3" /></g><rect
       style="display:inline;fill:#000000;stroke-width:0.3;stroke-linejoin:round;paint-order:markers fill stroke"
       id="rect4"
       width="13.072569"
       height="19.886402"
       x="3.6237154"
       y="6.7957783"
       rx="3.3757339"
       ry="3.3757336" /><rect
       style="display:inline;fill:none;stroke:#000000;stroke-width:0.3;stroke-linejoin:round;stroke-opacity:1;paint-order:markers fill stroke"
       id="rect4-7"
       width="13.072569"
       height="115.35335"
       x="3.6237154"
       y="6.9300809"
       rx="3.3757339"
       ry="3.3757331" /><rect
       style="display:inline;fill:#000000;stroke-width:0.3;stroke-linejoin:round;paint-order:markers fill stroke"
       id="rect4-8"
       width="13.072569"
       height="14.857699"
       x="3.6237154"
       y="78.008133"
       rx="3.3757339"
       ry="3.3757339" /><rect
       style="fill:#ededed;fill-opacity:1;stroke:none;stroke-width:0.300001;stroke-linejoin:round;stroke-opacity:1;paint-order:markers fill stroke"
       id="rect5"
       width="6.2165937"
       height="3.3116436"
       x="13.579282"
       y="100.71811"
       rx="0"
       ry="0" /><rect
       style="fill:#ededed;fill-opacity:1;stroke:none;stroke-width:0.300001;stroke-linejoin:round;stroke-opacity:1;paint-order:markers fill stroke"
       id="rect5-6"
       width="6.2165937"
       height="3.3116436"
       x="13.687999"
       y="51.806591"
       rx="0"
       ry="0" /><g
       clip-path="url(#clippath)"
       id="g17"
       style="stroke-width:2.83464"
       transform="matrix(0.35277778,0,0,0.35277778,2.4088391e-8,-5.1589124)"><g
         clip-path="url(#clippath-1)"
         id="g16"
         style="stroke-width:2.83464"><g
           id="g15"
           style="stroke-width:2.83464"><path
             d="m 34.49,197.85 0.71,-1.22 c -1.74,-0.91 -3.69,-1.45 -5.77,-1.54 v 1.42 c 1.81,0.09 3.53,0.56 5.06,1.34"
             id="path6"
             style="stroke-width:2.83464" /><path
             d="m 39.28,202.17 1.23,-0.71 c -1.09,-1.68 -2.53,-3.13 -4.22,-4.2 l -0.71,1.22 c 1.48,0.96 2.74,2.21 3.7,3.68"
             id="path7"
             style="stroke-width:2.83464" /><path
             d="m 22.02,198.47 -0.71,-1.22 c -1.69,1.09 -3.14,2.52 -4.22,4.2 l 1.23,0.71 c 0.96,-1.47 2.22,-2.73 3.7,-3.68"
             id="path8"
             style="stroke-width:2.83464" /><path
             d="m 41.27,208.29 h 1.43 c -0.09,-2.06 -0.64,-4.01 -1.55,-5.75 l -1.23,0.71 c 0.79,1.52 1.26,3.23 1.35,5.04"
             id="path9"
             style="stroke-width:2.83464" /><path
             d="m 28.17,196.5 v -1.42 c -2.07,0.09 -4.03,0.64 -5.77,1.54 l 0.71,1.22 c 1.53,-0.79 3.24,-1.25 5.06,-1.34"
             id="path10"
             style="stroke-width:2.83464" /><path
             d="m 18.32,215.68 -1.23,0.71 c 1.09,1.68 2.53,3.13 4.22,4.2 l 0.71,-1.22 c -1.48,-0.96 -2.74,-2.21 -3.7,-3.68"
             id="path11"
             style="stroke-width:2.83464" /><path
             d="m 35.59,219.36 0.71,1.22 c 1.69,-1.09 3.14,-2.52 4.22,-4.2 l -1.23,-0.71 c -0.96,1.47 -2.22,2.73 -3.7,3.68"
             id="path12"
             style="stroke-width:2.83464" /><path
             d="m 41.27,209.55 c -0.09,1.8 -0.56,3.52 -1.35,5.04 l 1.23,0.71 c 0.9,-1.73 1.45,-3.68 1.55,-5.75 z"
             id="path13"
             style="stroke-width:2.83464" /><path
             d="m 16.34,209.55 h -1.43 c 0.09,2.06 0.64,4.01 1.55,5.75 l 1.23,-0.71 c -0.79,-1.52 -1.26,-3.23 -1.35,-5.04"
             id="path14"
             style="stroke-width:2.83464" /><path
             d="m 17.69,203.25 -1.23,-0.71 c -0.91,1.73 -1.46,3.67 -1.55,5.75 h 1.43 c 0.09,-1.8 0.56,-3.52 1.35,-5.04"
             id="path15"
             style="stroke-width:2.83464" /></g></g></g><g
       id="g18"
       style="stroke-width:3.38126"
       transform="matrix(0.29574749,0,0,0.29574749,6.8028004,-3.2285082)"><path
         id="path31"
         d="m 20.6,26.79 c -0.37,0 -0.71,-0.17 -0.97,-0.47 -0.51,-0.6 -0.52,-1.54 -0.04,-2.16 l 6.97,-8.88 c 0.38,-0.48 1.05,-0.65 1.57,-0.39 0.52,0.26 0.79,0.82 0.79,1.45 v 4.77 l 4.64,-5.85 c 0.38,-0.48 1.01,-0.64 1.53,-0.38 0.5,0.25 0.83,0.81 0.83,1.44 v 8.82 c 0,0.86 -0.61,1.57 -1.36,1.57 -0.75,0 -1.36,-0.7 -1.36,-1.57 v -4.79 l -4.64,5.85 c -0.38,0.48 -1.01,0.64 -1.54,0.38 -0.5,-0.24 -0.83,-0.81 -0.83,-1.44 v -4.67 l -4.61,5.8 c -0.26,0.32 -0.62,0.51 -1,0.51 h 0.02 z"
         style="fill:#2cabe1;stroke-width:3.38126" /><path
         id="path32"
         d="m 20.6,26.79 c -0.75,0 -1.35,-0.7 -1.35,-1.57 v -4.93 l -2.26,2.84 c -0.5,0.63 -1.44,0.65 -1.97,0.04 -0.51,-0.6 -0.52,-1.53 -0.03,-2.15 l 4.61,-5.76 c 0.26,-0.32 0.63,-0.5 1,-0.5 0.18,0 0.37,0.04 0.54,0.12 0.5,0.25 0.82,0.81 0.82,1.44 v 8.89 c 0,0.86 -0.61,1.57 -1.36,1.57 v 0 z"
         style="fill:#ea2228;stroke-width:3.38126" /><path
         id="path33"
         d="m 37.2,26.81 v 0 c -0.35,0 -0.68,-0.15 -0.94,-0.42 -0.76,-0.78 -0.14,-1.84 0.29,-2.3 L 38.5,21.73 37.24,21.71 C 36.68,21.7 36.2,21.31 36,20.71 35.81,20.15 35.93,19.5 36.29,19.07 l 3.16,-3.83 c 0.23,-0.28 0.55,-0.48 1.13,-0.47 0.33,0 0.67,0.17 0.92,0.4 0.71,0.66 0.29,1.7 -0.07,2.2 l -1.04,1.26 1.26,0.02 c 0.56,0.01 1.04,0.4 1.24,1 0.19,0.56 0.07,1.21 -0.29,1.64 l -4.1,4.97 c -0.35,0.35 -0.65,0.55 -1.3,0.54 v 0 z"
         style="fill:#00a650;stroke-width:3.38126" /></g><g
       id="g25"
       style="stroke-width:2.83464"
       transform="matrix(0.35277778,0,0,0.35277778,-0.00176411,3.7041668)"><path
         style="font-weight:bold;font-size:12px;line-height:1.08px;font-family:'gil sans';-inkscape-font-specification:'gil sans Bold';text-align:center;letter-spacing:0px;word-spacing:-30px;text-anchor:middle;stroke-width:0.850394;stroke-linejoin:round;paint-order:markers fill stroke"
         d="m 42.795006,347.276 q 0,1.28906 -1.095703,2.09766 -1.089844,0.80273 -2.964844,0.80273 -1.083984,0 -1.892578,-0.1875 -0.802735,-0.19336 -1.50586,-0.48633 v -2.09179 h 0.246094 q 0.697266,0.55664 1.558594,0.85547 0.867187,0.29882 1.664062,0.29882 0.205079,0 0.539063,-0.0352 0.333984,-0.0352 0.544922,-0.11719 0.257812,-0.10547 0.421875,-0.26367 0.169922,-0.15821 0.169922,-0.46875 0,-0.28711 -0.246094,-0.49219 -0.240234,-0.21094 -0.708984,-0.32227 -0.492188,-0.11718 -1.042969,-0.21679 -0.544922,-0.10547 -1.025391,-0.26367 -1.101562,-0.35743 -1.58789,-0.9668 -0.480469,-0.61524 -0.480469,-1.52344 0,-1.21875 1.089844,-1.98633 1.095703,-0.77343 2.8125,-0.77343 0.861328,0 1.699218,0.16992 0.84375,0.16406 1.458985,0.41601 v 2.00977 h -0.240235 q -0.527343,-0.42188 -1.294922,-0.70313 -0.761718,-0.28711 -1.558593,-0.28711 -0.28125,0 -0.5625,0.041 -0.275391,0.0352 -0.533203,0.14063 -0.228516,0.0879 -0.392579,0.26953 -0.164062,0.17578 -0.164062,0.40429 0,0.34571 0.263672,0.53321 0.263672,0.18164 0.996094,0.33398 0.480468,0.0996 0.919921,0.19336 0.445313,0.0937 0.955079,0.25781 1.001953,0.32813 1.476562,0.89649 0.480469,0.5625 0.480469,1.46484 z m 8.742187,-3.22851 q 0,0.58593 -0.205078,1.14843 -0.205078,0.55664 -0.585937,0.9375 -0.521485,0.51563 -1.166016,0.7793 -0.638672,0.26367 -1.59375,0.26367 h -1.400391 v 2.8418 h -2.25 v -8.72461 h 3.703125 q 0.832032,0 1.400391,0.14648 0.574219,0.14063 1.013672,0.42774 0.527344,0.3457 0.802734,0.88476 0.28125,0.53907 0.28125,1.29493 z m -2.326172,0.0527 q 0,-0.36914 -0.199218,-0.63281 -0.199219,-0.26953 -0.462891,-0.375 -0.351562,-0.14063 -0.685547,-0.15235 -0.333984,-0.0176 -0.890625,-0.0176 h -0.386719 v 2.61328 h 0.644532 q 0.574218,0 0.943359,-0.0703 0.375,-0.0703 0.626953,-0.28125 0.216797,-0.1875 0.310547,-0.44531 0.09961,-0.26367 0.09961,-0.63867 z"
         id="text1"
         aria-label="SP" /></g><g
       id="g45"
       style="stroke-width:2.83464"
       transform="matrix(0.35277778,0,0,0.35277778,-0.03351411,9.0172661)"><path
         d="m 26.89,246.47 h -1.75 v 4.1 h -1.43 v -4.1 h -1.75 v -1.32 h 4.93 z"
         id="path42"
         style="stroke-width:2.83464" /><path
         d="m 30.32,246.81 -0.46,1.41 c -0.19,-0.2 -0.38,-0.3 -0.57,-0.3 -0.17,0 -0.32,0.07 -0.45,0.2 -0.13,0.13 -0.25,0.38 -0.37,0.74 v 1.71 h -1.24 v -3.98 h 1.24 v 0.96 c 0.08,-0.24 0.22,-0.47 0.41,-0.69 0.2,-0.23 0.43,-0.34 0.69,-0.34 0.14,0 0.26,0.02 0.37,0.07 0.11,0.05 0.23,0.12 0.37,0.21 z"
         id="path43"
         style="stroke-width:2.83464" /><path
         d="M 31.74,250.57 H 30.5 v -3.98 h 1.24 z m -0.1,-4.9 c 0,0.16 -0.05,0.3 -0.16,0.42 -0.1,0.11 -0.23,0.17 -0.37,0.17 -0.1,0 -0.18,-0.03 -0.26,-0.08 -0.08,-0.05 -0.14,-0.12 -0.19,-0.21 -0.05,-0.09 -0.07,-0.19 -0.07,-0.3 0,-0.16 0.05,-0.3 0.15,-0.42 0.1,-0.12 0.22,-0.18 0.37,-0.18 0.15,0 0.26,0.06 0.37,0.18 0.1,0.12 0.16,0.26 0.16,0.42 z"
         id="path44"
         style="stroke-width:2.83464" /><path
         d="m 35.83,247.44 h -0.61 c 0.22,0.21 0.32,0.47 0.32,0.79 0,0.16 -0.03,0.32 -0.09,0.47 -0.06,0.15 -0.15,0.29 -0.27,0.4 -0.12,0.11 -0.26,0.21 -0.44,0.29 -0.18,0.08 -0.37,0.12 -0.59,0.13 -0.29,0.01 -0.43,0.1 -0.43,0.26 0,0.06 0.02,0.11 0.05,0.14 0.04,0.03 0.09,0.05 0.17,0.06 0.08,0.01 0.21,0.03 0.4,0.05 0.21,0.02 0.41,0.06 0.59,0.11 0.18,0.05 0.35,0.16 0.51,0.33 0.16,0.17 0.24,0.4 0.24,0.71 0,0.25 -0.06,0.47 -0.18,0.66 -0.12,0.19 -0.31,0.34 -0.57,0.45 -0.26,0.11 -0.61,0.16 -1.04,0.16 -0.62,0 -1.08,-0.1 -1.37,-0.29 -0.29,-0.19 -0.44,-0.44 -0.44,-0.76 0,-0.09 0.02,-0.19 0.06,-0.3 0.04,-0.11 0.12,-0.22 0.24,-0.32 0.12,-0.1 0.3,-0.17 0.54,-0.21 -0.08,-0.03 -0.15,-0.1 -0.21,-0.2 -0.06,-0.1 -0.09,-0.2 -0.09,-0.31 0,-0.14 0.04,-0.28 0.12,-0.41 0.08,-0.14 0.22,-0.22 0.41,-0.26 -0.26,-0.08 -0.49,-0.23 -0.68,-0.44 -0.19,-0.22 -0.29,-0.5 -0.29,-0.84 0,-0.26 0.04,-0.49 0.13,-0.68 0.09,-0.2 0.21,-0.35 0.37,-0.48 0.16,-0.12 0.34,-0.21 0.54,-0.27 0.21,-0.06 0.43,-0.09 0.68,-0.09 h 1.92 v 0.85 z m -1.12,3.87 c 0,-0.17 -0.08,-0.29 -0.25,-0.34 -0.16,-0.05 -0.33,-0.08 -0.51,-0.08 -0.29,0 -0.49,0.03 -0.62,0.1 -0.13,0.07 -0.19,0.18 -0.19,0.33 0,0.3 0.26,0.45 0.79,0.45 0.24,0 0.42,-0.04 0.56,-0.12 0.14,-0.08 0.21,-0.19 0.21,-0.35 z m -0.25,-3.2 c 0,-0.2 -0.06,-0.36 -0.18,-0.48 -0.12,-0.12 -0.25,-0.18 -0.4,-0.18 -0.19,0 -0.34,0.07 -0.45,0.22 -0.11,0.15 -0.16,0.3 -0.16,0.46 0,0.11 0.02,0.22 0.07,0.31 0.05,0.1 0.11,0.17 0.2,0.23 0.09,0.06 0.19,0.09 0.31,0.09 0.18,0 0.33,-0.06 0.44,-0.19 0.12,-0.13 0.18,-0.28 0.18,-0.46 z"
         id="path45"
         style="stroke-width:2.83464" /></g><g
       id="g48"
       style="stroke-width:2.83464"
       transform="matrix(0.35277778,0,0,0.35277778,0.41395543,9.0172661)"><path
         d="m 43.46,262.66 h -1.75 v 4.1 h -1.43 v -4.1 h -1.75 v -1.32 h 4.93 z"
         id="path46"
         style="stroke-width:2.83464" /><path
         d="m 47.68,264.77 c 0,0.4 -0.08,0.75 -0.23,1.06 -0.15,0.31 -0.38,0.55 -0.68,0.73 -0.3,0.18 -0.67,0.27 -1.1,0.27 -0.43,0 -0.8,-0.09 -1.1,-0.27 -0.3,-0.18 -0.53,-0.42 -0.68,-0.73 -0.15,-0.31 -0.23,-0.66 -0.23,-1.06 0,-0.3 0.04,-0.57 0.13,-0.82 0.08,-0.25 0.21,-0.46 0.38,-0.65 0.17,-0.19 0.38,-0.33 0.63,-0.44 0.25,-0.1 0.54,-0.15 0.87,-0.15 0.33,0 0.62,0.05 0.88,0.15 0.25,0.1 0.46,0.25 0.63,0.43 0.17,0.18 0.29,0.4 0.38,0.65 0.08,0.25 0.13,0.52 0.13,0.82 z m -1.3,0 c 0,-0.32 -0.06,-0.56 -0.18,-0.74 -0.12,-0.18 -0.29,-0.27 -0.52,-0.27 -0.23,0 -0.4,0.09 -0.52,0.27 -0.12,0.18 -0.18,0.42 -0.18,0.74 0,0.32 0.06,0.56 0.18,0.74 0.12,0.18 0.29,0.27 0.52,0.27 0.23,0 0.4,-0.09 0.52,-0.27 0.12,-0.18 0.18,-0.43 0.18,-0.74 z"
         id="path47"
         style="stroke-width:2.83464" /><path
         d="m 51.56,263.63 h -0.61 c 0.22,0.21 0.32,0.47 0.32,0.79 0,0.16 -0.03,0.32 -0.09,0.47 -0.06,0.15 -0.15,0.29 -0.27,0.4 -0.12,0.11 -0.26,0.21 -0.44,0.29 -0.18,0.08 -0.37,0.12 -0.59,0.13 -0.29,0.01 -0.43,0.1 -0.43,0.26 0,0.06 0.02,0.11 0.05,0.14 0.04,0.03 0.09,0.05 0.17,0.06 0.08,0.01 0.21,0.03 0.4,0.05 0.21,0.02 0.41,0.06 0.59,0.11 0.18,0.05 0.35,0.16 0.51,0.33 0.16,0.17 0.24,0.4 0.24,0.71 0,0.25 -0.06,0.47 -0.18,0.66 -0.12,0.19 -0.31,0.34 -0.57,0.45 -0.26,0.11 -0.61,0.16 -1.04,0.16 -0.62,0 -1.08,-0.1 -1.37,-0.29 -0.29,-0.19 -0.44,-0.44 -0.44,-0.76 0,-0.09 0.02,-0.19 0.06,-0.3 0.04,-0.11 0.12,-0.22 0.24,-0.32 0.12,-0.1 0.3,-0.17 0.54,-0.21 -0.08,-0.03 -0.15,-0.1 -0.21,-0.2 -0.06,-0.1 -0.09,-0.2 -0.09,-0.31 0,-0.14 0.04,-0.28 0.12,-0.41 0.08,-0.14 0.22,-0.22 0.41,-0.26 -0.26,-0.08 -0.49,-0.23 -0.68,-0.44 -0.19,-0.22 -0.29,-0.5 -0.29,-0.84 0,-0.26 0.04,-0.49 0.13,-0.68 0.09,-0.2 0.21,-0.35 0.37,-0.48 0.16,-0.12 0.34,-0.21 0.54,-0.27 0.21,-0.06 0.43,-0.09 0.68,-0.09 h 1.92 v 0.85 z m -1.12,3.87 c 0,-0.17 -0.08,-0.29 -0.25,-0.34 -0.16,-0.05 -0.33,-0.08 -0.51,-0.08 -0.29,0 -0.49,0.03 -0.62,0.1 -0.13,0.07 -0.19,0.18 -0.19,0.33 0,0.3 0.26,0.45 0.79,0.45 0.24,0 0.42,-0.04 0.56,-0.12 0.14,-0.08 0.21,-0.19 0.21,-0.35 z m -0.25,-3.2 c 0,-0.2 -0.06,-0.36 -0.18,-0.48 -0.12,-0.12 -0.25,-0.18 -0.4,-0.18 -0.19,0 -0.34,0.07 -0.45,0.22 -0.11,0.15 -0.16,0.3 -0.16,0.46 0,0.11 0.02,0.22 0.07,0.31 0.05,0.1 0.11,0.17 0.2,0.23 0.09,0.06 0.19,0.09 0.31,0.09 0.18,0 0.33,-0.06 0.44,-0.19 0.12,-0.13 0.18,-0.28 0.18,-0.46 z"
         id="path48"
         style="stroke-width:2.83464" /></g><g
       id="g52"
       style="stroke-width:2.83464"
       transform="matrix(0.35277778,0,0,0.35277778,-0.01587522,9.0172661)"><path
         d="m 25.74,284.51 c -0.1,0.04 -0.19,0.08 -0.26,0.11 -0.07,0.03 -0.14,0.05 -0.21,0.08 -0.07,0.02 -0.17,0.05 -0.29,0.09 -0.22,0.06 -0.43,0.1 -0.65,0.13 -0.22,0.03 -0.44,0.04 -0.69,0.04 -0.48,0 -0.93,-0.1 -1.34,-0.3 -0.41,-0.2 -0.74,-0.51 -0.98,-0.93 -0.25,-0.42 -0.37,-0.94 -0.37,-1.55 0,-0.4 0.06,-0.78 0.19,-1.17 0.13,-0.38 0.32,-0.69 0.58,-0.92 0.22,-0.19 0.43,-0.33 0.65,-0.44 0.22,-0.1 0.44,-0.17 0.65,-0.2 0.21,-0.03 0.44,-0.05 0.7,-0.05 0.42,0 0.77,0.04 1.04,0.11 0.27,0.07 0.57,0.17 0.9,0.28 v 1.28 c -0.22,-0.14 -0.44,-0.26 -0.68,-0.36 -0.24,-0.1 -0.54,-0.14 -0.9,-0.14 -0.42,0 -0.75,0.09 -1,0.27 -0.25,0.18 -0.42,0.39 -0.52,0.64 -0.1,0.25 -0.15,0.49 -0.15,0.72 0,0.27 0.06,0.53 0.17,0.76 0.11,0.23 0.28,0.42 0.51,0.55 0.23,0.14 0.5,0.21 0.82,0.21 0.18,0 0.38,-0.03 0.58,-0.08 V 283 h -0.65 v -1.09 h 1.9 z"
         id="path49"
         style="stroke-width:2.83464" /><path
         d="m 30.02,284.69 c -0.18,0.08 -0.35,0.15 -0.5,0.2 -0.15,0.05 -0.34,0.07 -0.55,0.07 -0.2,0 -0.35,-0.04 -0.43,-0.12 -0.08,-0.08 -0.14,-0.18 -0.17,-0.3 -0.13,0.12 -0.28,0.22 -0.44,0.3 -0.16,0.08 -0.38,0.12 -0.64,0.12 -0.26,0 -0.46,-0.05 -0.62,-0.15 -0.16,-0.1 -0.27,-0.23 -0.33,-0.38 -0.06,-0.15 -0.09,-0.31 -0.09,-0.47 0,-0.24 0.05,-0.45 0.16,-0.61 0.11,-0.16 0.25,-0.29 0.44,-0.39 0.18,-0.1 0.43,-0.21 0.73,-0.32 0.17,-0.06 0.3,-0.11 0.39,-0.14 0.09,-0.03 0.15,-0.06 0.2,-0.08 0.04,-0.02 0.09,-0.04 0.14,-0.07 0,-0.19 -0.03,-0.34 -0.1,-0.45 -0.07,-0.11 -0.22,-0.16 -0.45,-0.16 -0.27,0 -0.52,0.07 -0.75,0.2 -0.23,0.14 -0.44,0.31 -0.64,0.52 v -1.08 c 0.15,-0.12 0.32,-0.23 0.5,-0.31 0.18,-0.08 0.37,-0.14 0.56,-0.18 0.19,-0.04 0.39,-0.06 0.59,-0.06 0.51,0 0.89,0.11 1.14,0.33 0.26,0.22 0.38,0.53 0.38,0.92 v 1.54 c 0,0.15 0.01,0.25 0.04,0.33 0.02,0.07 0.07,0.11 0.13,0.11 0.08,0 0.18,-0.04 0.32,-0.11 v 0.74 z m -1.72,-0.76 v -0.94 c -0.29,0.14 -0.51,0.26 -0.64,0.37 -0.14,0.11 -0.2,0.25 -0.2,0.44 0,0.13 0.03,0.23 0.1,0.3 0.07,0.07 0.15,0.11 0.24,0.11 0.08,0 0.17,-0.03 0.25,-0.08 0.08,-0.05 0.17,-0.12 0.26,-0.19 z"
         id="path50"
         style="stroke-width:2.83464" /><path
         d="m 32.89,284.66 c -0.13,0.07 -0.31,0.14 -0.53,0.2 -0.23,0.07 -0.44,0.1 -0.65,0.1 -0.89,0 -1.34,-0.49 -1.34,-1.48 v -1.59 h -0.56 v -0.25 l 1.66,-1.92 h 0.14 v 1.19 h 1.18 v 0.98 h -1.18 v 1.27 c 0,0.15 0,0.27 0.02,0.36 0.02,0.09 0.06,0.17 0.14,0.23 0.08,0.06 0.19,0.09 0.34,0.09 0.2,0 0.46,-0.09 0.78,-0.28 z"
         id="path51"
         style="stroke-width:2.83464" /><path
         d="m 36.74,283.24 h -2.46 c 0.05,0.24 0.17,0.44 0.35,0.59 0.19,0.15 0.4,0.23 0.64,0.23 0.42,0 0.88,-0.13 1.38,-0.4 v 0.87 c -0.18,0.11 -0.4,0.2 -0.66,0.29 -0.26,0.09 -0.59,0.13 -0.98,0.13 -0.43,0 -0.8,-0.09 -1.1,-0.27 -0.3,-0.18 -0.53,-0.43 -0.68,-0.74 -0.15,-0.31 -0.22,-0.67 -0.22,-1.06 0,-0.39 0.08,-0.74 0.22,-1.05 0.15,-0.31 0.38,-0.55 0.68,-0.73 0.3,-0.18 0.67,-0.26 1.1,-0.26 0.28,0 0.56,0.07 0.82,0.21 0.26,0.14 0.48,0.37 0.65,0.68 0.17,0.32 0.26,0.72 0.26,1.22 v 0.28 z m -1.17,-0.69 c 0,-0.25 -0.06,-0.46 -0.17,-0.61 -0.11,-0.15 -0.27,-0.23 -0.48,-0.23 -0.21,0 -0.37,0.08 -0.5,0.23 -0.13,0.16 -0.19,0.36 -0.19,0.61 z"
         id="path52"
         style="stroke-width:2.83464" /></g><g
       id="g60"
       style="fill:#ffffff;stroke-width:2.83464"
       transform="matrix(0.35277778,0,0,0.35277778,0.01763867,1.0583333)"><path
         d="m 24.03,63.2 -2.15,5.48 H 20.93 L 18.82,63.2 h 1.5 l 1.09,3.12 1.12,-3.12 z"
         style="fill:#ffffff;stroke-width:2.83464"
         id="path57" /><path
         d="m 31.31,65.9 c 0,0.51 -0.1,0.97 -0.31,1.39 -0.21,0.42 -0.51,0.76 -0.92,1.01 -0.41,0.25 -0.9,0.38 -1.48,0.38 -0.58,0 -1.09,-0.13 -1.5,-0.39 -0.41,-0.26 -0.71,-0.6 -0.91,-1.03 -0.2,-0.43 -0.3,-0.88 -0.3,-1.36 0,-0.48 0.1,-0.94 0.3,-1.37 0.2,-0.42 0.5,-0.76 0.91,-1.02 0.41,-0.26 0.91,-0.39 1.5,-0.39 0.44,0 0.83,0.07 1.18,0.22 0.35,0.15 0.63,0.35 0.85,0.6 0.22,0.25 0.39,0.55 0.5,0.89 0.12,0.34 0.17,0.69 0.17,1.06 z m -1.46,0 c 0,-0.2 -0.03,-0.39 -0.08,-0.56 -0.05,-0.17 -0.13,-0.31 -0.24,-0.44 -0.11,-0.13 -0.24,-0.22 -0.39,-0.29 -0.15,-0.07 -0.33,-0.1 -0.53,-0.1 -0.39,0 -0.69,0.13 -0.91,0.38 -0.22,0.26 -0.33,0.59 -0.33,1 0,0.41 0.11,0.75 0.33,1.01 0.22,0.26 0.52,0.38 0.91,0.38 0.26,0 0.49,-0.06 0.67,-0.18 0.19,-0.12 0.33,-0.28 0.42,-0.49 0.09,-0.21 0.14,-0.45 0.14,-0.72 z"
         style="fill:#ffffff;stroke-width:2.83464"
         id="path58" /><path
         d="m 35.41,68.61 h -1.24 v -0.57 c -0.17,0.21 -0.36,0.37 -0.55,0.48 -0.19,0.11 -0.42,0.16 -0.69,0.16 -0.53,0 -0.87,-0.18 -1.03,-0.53 -0.16,-0.35 -0.23,-0.75 -0.23,-1.19 v -2.34 h 1.24 v 2.15 c 0,0.22 0.03,0.41 0.09,0.57 0.06,0.16 0.2,0.24 0.41,0.24 0.18,0 0.33,-0.06 0.43,-0.18 0.1,-0.12 0.21,-0.27 0.32,-0.45 v -2.34 h 1.24 v 3.98 z"
         style="fill:#ffffff;stroke-width:2.83464"
         id="path59" /><path
         d="m 38.68,68.38 c -0.13,0.07 -0.31,0.14 -0.53,0.2 -0.22,0.06 -0.44,0.1 -0.65,0.1 -0.89,0 -1.34,-0.49 -1.34,-1.48 V 65.61 H 35.6 v -0.25 l 1.66,-1.92 h 0.14 v 1.19 h 1.18 v 0.98 H 37.4 v 1.27 c 0,0.15 0,0.27 0.02,0.36 0.02,0.09 0.06,0.17 0.14,0.23 0.08,0.06 0.19,0.09 0.34,0.09 0.2,0 0.46,-0.09 0.78,-0.28 z"
         style="fill:#ffffff;stroke-width:2.83464"
         id="path60" /></g><g
       id="text5"
       style="font-weight:bold;font-size:2.11667px;line-height:0.1905px;font-family:'gil sans';-inkscape-font-specification:'gil sans Bold';text-align:center;letter-spacing:0px;word-spacing:-10.5833px;text-anchor:middle;fill:#1a1a1a;stroke-width:0.3;stroke-linejoin:round;paint-order:markers fill stroke"
       aria-label="Uni."><path
         style="font-size:2.46944px"
         d="m 9.2820175,41.950544 q 0,0.332796 -0.2025713,0.510045 -0.2025712,0.17725 -0.5968617,0.17725 -0.3942905,0 -0.5968617,-0.17725 Q 7.6843573,42.28334 7.6843573,41.95175 v -1.146698 h 0.4654316 v 1.120171 q 0,0.186896 0.078376,0.278535 0.078376,0.09164 0.2544198,0.09164 0.1736325,0 0.2532141,-0.08802 0.080787,-0.08802 0.080787,-0.282152 v -1.120171 h 0.4654316 z m 1.7688815,0.649916 h -0.436493 v -0.67162 q 0,-0.08199 -0.0084,-0.162781 -0.0084,-0.08199 -0.02894,-0.120578 -0.02412,-0.04461 -0.07114,-0.06511 -0.04582,-0.0205 -0.129018,-0.0205 -0.05908,0 -0.120578,0.01929 -0.06029,0.01929 -0.13143,0.0615 V 42.60046 H 9.6907773 v -1.354092 h 0.4340817 v 0.149517 q 0.115755,-0.09043 0.221863,-0.138665 0.107315,-0.04823 0.237539,-0.04823 0.219452,0 0.342442,0.127813 0.124196,0.127813 0.124196,0.382233 z m 0.833194,0 h -0.434081 v -1.354092 h 0.434081 z m 0.01206,-1.547017 h -0.458197 v -0.329179 h 0.458197 z"
         id="path16" /><path
         d="m 12.664752,42.60046 h -0.38654 v -0.406177 h 0.38654 z"
         id="path17" /></g><path
       d="m 10.112974,30.065503 q 0,0.130224 -0.05305,0.232716 -0.05185,0.102491 -0.1434879,0.170015 -0.1061088,0.07958 -0.2339216,0.113343 -0.126607,0.03376 -0.3219436,0.03376 H 8.5768091 v -1.795408 h 0.6969416 q 0.2170406,0 0.3171205,0.01447 0.1012856,0.01447 0.2001596,0.06391 0.1024915,0.05185 0.1519285,0.13987 0.050643,0.08682 0.050643,0.198954 0,0.130225 -0.068729,0.230305 -0.06873,0.09887 -0.1941308,0.15434 v 0.0096 q 0.176044,0.03497 0.2785355,0.144694 0.103697,0.109726 0.103697,0.289387 z M 9.5197301,29.327565 q 0,-0.04461 -0.02291,-0.08923 -0.021704,-0.04461 -0.078376,-0.06632 -0.050643,-0.01929 -0.126607,-0.0205 -0.074758,-0.0024 -0.2110117,-0.0024 h -0.043408 v 0.379821 h 0.072347 q 0.1097261,0 0.1868961,-0.0036 0.07717,-0.0036 0.1217839,-0.02412 0.062701,-0.02773 0.081993,-0.07114 0.019293,-0.04461 0.019293,-0.102491 z m 0.1133434,0.730703 q 0,-0.08561 -0.033762,-0.13143 -0.032556,-0.04703 -0.1121376,-0.06994 -0.05426,-0.01567 -0.1495169,-0.01688 -0.095257,-0.0012 -0.1989539,-0.0012 H 9.0374176 v 0.447345 h 0.033762 q 0.1953366,0 0.2797413,-0.0012 0.084405,-0.0012 0.1555458,-0.03135 0.072347,-0.03015 0.098874,-0.07958 0.027733,-0.05064 0.027733,-0.115755 z m 1.2347205,0.557071 h -0.434082 v -1.354092 h 0.434082 z m 0.01206,-1.547017 h -0.458197 v -0.329178 h 0.458197 z M 11.7444,30.615339 H 11.293437 V 30.141467 H 11.7444 Z"
       id="text5-8"
       style="font-weight:bold;font-size:2.46944px;line-height:0.22225px;font-family:'gil sans';-inkscape-font-specification:'gil sans Bold';text-align:center;letter-spacing:0px;word-spacing:-10.5833px;text-anchor:middle;display:inline;fill:#1a1a1a;stroke-width:0.3;stroke-linejoin:round;paint-order:markers fill stroke"
       aria-label="Bi." /><text
       xml:space="preserve"
       style="font-style:normal;font-variant:normal;font-weight:bold;font-stretch:normal;font-size:2.46944px;line-height:0.994833px;font-family:'Gill Sans';-inkscape-font-specification:'Gill Sans, Bold';font-variant-ligatures:normal;font-variant-caps:normal;font-variant-numeric:normal;font-variant-east-asian:normal;text-align:start;letter-spacing:-0.211667px;word-spacing:0.529167px;writing-mode:lr-tb;direction:ltr;text-anchor:start;display:inline;fill:#1a1a1a;stroke-width:0.1;stroke-linejoin:round;paint-order:markers fill stroke"
       x="10.297142"
       y="49.985119"
       id="text8"><tspan
         sodipodi:role="line"
         id="tspan8"
         style="stroke-width:0.1"
         x="0"
         y="0"> </tspan></text><path
       style="font-weight:bold;font-size:2.82222px;line-height:0px;font-family:'Gill Sans';-inkscape-font-specification:'Gill Sans, Bold';letter-spacing:0px;word-spacing:0px;fill:#ffffff;stroke-width:0.1;stroke-linejoin:round;paint-order:markers fill stroke"
       d="M 8.0281767,90.438744 H 6.5771036 v -1.90996 h 0.5760195 v 1.452451 h 0.8750536 z m 1.8024725,-0.702799 q 0,0.209461 -0.09095,0.373448 -0.09095,0.163986 -0.2728514,0.259071 -0.1805228,0.09508 -0.4409719,0.09508 -0.260449,0 -0.4423499,-0.09508 -0.1805228,-0.09508 -0.2714733,-0.259071 -0.089572,-0.163987 -0.089572,-0.373448 0,-0.158475 0.049609,-0.28801 0.050987,-0.129536 0.1529621,-0.228754 0.1033528,-0.100597 0.2535589,-0.15434 0.150206,-0.05374 0.3472653,-0.05374 0.1984374,0 0.3500215,0.05512 0.1529621,0.05374 0.2521808,0.151584 0.1005967,0.09784 0.1515841,0.228754 0.050987,0.130913 0.050987,0.289388 z m -0.522276,0 q 0,-0.166743 -0.073036,-0.260449 -0.071658,-0.09509 -0.2094617,-0.09509 -0.1364256,0 -0.2094616,0.09509 -0.071658,0.09371 -0.071658,0.260449 0,0.165364 0.073036,0.261827 0.073036,0.09646 0.2080836,0.09646 0.1378038,0 0.2094617,-0.09508 0.073036,-0.09646 0.073036,-0.263205 z m 2.1910788,-0.401009 h -0.245291 q 0.129536,0.112999 0.129536,0.276985 0,0.08682 -0.03721,0.166743 -0.03583,0.07993 -0.107487,0.141938 -0.07028,0.06201 -0.175011,0.101974 -0.103352,0.03858 -0.237022,0.04685 -0.172255,0.0069 -0.172255,0.09233 0,0.03307 0.02205,0.04823 0.02205,0.01516 0.0689,0.02343 0.04823,0.0069 0.16123,0.01654 0.128158,0.01102 0.238401,0.03858 0.110242,0.02756 0.205327,0.115755 0.09509,0.08819 0.09509,0.25218 0,0.130914 -0.07166,0.231511 -0.07028,0.100596 -0.228754,0.157096 -0.158475,0.0565 -0.418924,0.0565 -0.374826,0 -0.551215,-0.100596 -0.17501,-0.100597 -0.17501,-0.268717 0,-0.04548 0.02205,-0.104731 0.02343,-0.05926 0.09646,-0.114377 0.07441,-0.05512 0.214974,-0.07441 -0.04961,-0.01792 -0.08544,-0.0689 -0.03583,-0.05237 -0.03583,-0.108865 0,-0.07304 0.04961,-0.144694 0.05099,-0.07166 0.163986,-0.09233 -0.157096,-0.04134 -0.271473,-0.155718 -0.114377,-0.114377 -0.114377,-0.296278 0,-0.137803 0.05236,-0.241156 0.05374,-0.103353 0.14745,-0.168121 0.09371,-0.06477 0.21773,-0.09508 0.124023,-0.0317 0.271473,-0.0317 h 0.770323 z m -0.548459,0.237022 q 0,-0.106109 -0.07304,-0.169498 -0.07166,-0.06477 -0.16123,-0.06477 -0.114377,0 -0.180523,0.07717 -0.06477,0.07717 -0.06477,0.162608 0,0.05926 0.02756,0.110243 0.02894,0.05099 0.07993,0.08268 0.05237,0.03032 0.124024,0.03032 0.107486,0 0.177766,-0.06752 0.07028,-0.06752 0.07028,-0.161231 z m 0.09922,1.128613 q 0,-0.09233 -0.09922,-0.11989 -0.09784,-0.02618 -0.202571,-0.02618 -0.172255,0 -0.249425,0.03583 -0.07579,0.03721 -0.07579,0.117133 0,0.157096 0.316949,0.157096 0.141937,0 0.225998,-0.04134 0.08406,-0.03996 0.08406,-0.122645 z m 1.10932,-1.988508 q 0,0.08682 -0.06201,0.14745 -0.06201,0.06063 -0.14745,0.06063 -0.05788,0 -0.106109,-0.02756 -0.04685,-0.02756 -0.07441,-0.07441 -0.02756,-0.04823 -0.02756,-0.106109 0,-0.08544 0.06063,-0.14745 0.06063,-0.06201 0.14745,-0.06201 0.08544,0 0.14745,0.06201 0.06201,0.06201 0.06201,0.14745 z m 0.03996,1.726681 h -0.497472 v -1.402842 h 0.497472 z m 1.543402,-0.06477 q -0.06201,0.02343 -0.130914,0.0441 -0.0689,0.01929 -0.155718,0.03169 -0.08544,0.01378 -0.187413,0.01378 -0.230132,0 -0.389985,-0.07717 -0.158474,-0.07855 -0.24529,-0.195681 -0.08544,-0.118511 -0.118512,-0.241157 -0.03307,-0.122645 -0.03307,-0.216351 0,-0.09371 0.03307,-0.216352 0.03445,-0.122646 0.118512,-0.237023 0.08406,-0.114377 0.242534,-0.191547 0.159852,-0.07717 0.392741,-0.07717 0.155718,0 0.253559,0.02205 0.09784,0.02205 0.198437,0.05925 v 0.389985 q -0.242535,-0.07717 -0.37896,-0.07717 -0.132292,0 -0.235645,0.07993 -0.101974,0.07993 -0.101974,0.248047 0,0.111621 0.05099,0.188791 0.05099,0.07579 0.129535,0.111621 0.07855,0.03583 0.157097,0.03583 0.07441,0 0.169498,-0.02205 0.09509,-0.02205 0.231511,-0.06339 z"
       id="text10"
       aria-label="Logic" /><path
       d="M 8.6910078,75.443375 H 8.1012058 L 7.945487,75.056145 H 7.1159057 l -0.1584748,0.38723 H 6.3676289 L 7.2123686,73.533408 H 7.8490241 Z M 7.813195,74.724037 7.5334524,74.026747 7.2509538,74.724037 Z m 3.549836,0.719338 h -0.496095 v -0.748277 q 0,-0.148829 -0.04961,-0.221865 -0.04823,-0.07441 -0.154341,-0.07441 -0.103353,0 -0.169499,0.06339 -0.06615,0.06201 -0.132292,0.157096 v 0.82407 H 9.8650996 v -0.748277 q 0,-0.141939 -0.045475,-0.219109 -0.045475,-0.07717 -0.1612309,-0.07717 -0.055122,0 -0.1019751,0.02205 -0.045475,0.02205 -0.074414,0.04961 -0.028939,0.02756 -0.07028,0.0813 -0.041341,0.05374 -0.052366,0.06752 v 0.82407 H 8.863263 v -1.402847 h 0.4960952 v 0.201194 q 0.1116214,-0.118512 0.2273769,-0.172255 0.1157555,-0.05374 0.2673402,-0.05374 0.071658,0 0.1364261,0.01378 0.064768,0.0124 0.1267796,0.0441 0.06339,0.03169 0.114378,0.08682 0.05099,0.05512 0.0813,0.128158 0.11989,-0.135048 0.248048,-0.20395 0.129536,-0.0689 0.297657,-0.0689 0.168121,0 0.28112,0.06752 0.114378,0.06752 0.168122,0.195682 0.05512,0.12678 0.05512,0.308682 z m 1.835552,-0.71107 q 0,0.14056 -0.03996,0.271474 -0.03996,0.130914 -0.122646,0.237023 -0.0813,0.104732 -0.21084,0.166744 -0.128158,0.06063 -0.299035,0.06063 -0.137805,0 -0.217731,-0.02894 -0.07855,-0.02894 -0.157097,-0.07717 v 0.719338 h -0.496095 v -2.04088 h 0.496095 v 0.12678 q 0.07442,-0.06477 0.163987,-0.107488 0.09095,-0.0441 0.245292,-0.0441 0.152962,0 0.300413,0.07579 0.14745,0.07579 0.242535,0.237024 0.09508,0.159852 0.09508,0.403766 z m -0.522278,0.01102 q 0,-0.12678 -0.03996,-0.205328 -0.03996,-0.07993 -0.103353,-0.114377 -0.06339,-0.03583 -0.130914,-0.03583 -0.0882,0 -0.144695,0.02894 -0.0565,0.02756 -0.106109,0.07028 v 0.536059 q 0.02618,0.01378 0.05512,0.03169 0.03032,0.01654 0.05926,0.02894 0.03032,0.0124 0.06339,0.02067 0.03445,0.0083 0.07304,0.0083 0.117133,0 0.195682,-0.09922 0.07855,-0.09922 0.07855,-0.270097 z m 1.276067,0.428571 q 0,0.124024 -0.08544,0.210841 -0.08406,0.08544 -0.208085,0.08544 -0.122645,0 -0.21084,-0.08682 -0.0882,-0.08682 -0.0882,-0.209463 0,-0.124023 0.0882,-0.209462 0.08819,-0.08682 0.21084,-0.08682 0.07717,0 0.146073,0.03996 0.07028,0.03996 0.108865,0.107487 0.03859,0.06752 0.03859,0.148828 z"
       id="text11"
       style="font-weight:bold;font-size:2.82223px;line-height:0px;font-family:'Gill Sans';-inkscape-font-specification:'Gill Sans, Bold';letter-spacing:0px;word-spacing:0px;stroke-width:0.1;stroke-linejoin:round;paint-order:markers fill stroke"
       aria-label="Amp." /><path
       d="M 9.077548,60.201523 H 8.5552701 V 58.291557 H 9.077548 Z m 2.687182,-1.909966 -0.861276,1.934771 h -0.38034 L 9.6783744,58.291557 h 0.5994486 l 0.436839,1.102433 0.449242,-1.102433 z"
       id="text12"
       style="font-weight:bold;font-size:2.82223px;line-height:0px;font-family:'Gill Sans';-inkscape-font-specification:'Gill Sans, Bold';letter-spacing:0px;word-spacing:0px;stroke-width:0.1;stroke-linejoin:round;paint-order:markers fill stroke"
       aria-label="1V" /><path
       d="M 8.2390094,48.632915 H 7.7167315 V 46.722949 H 8.2390094 Z M 10.401157,47.67931 q 0,0.248048 -0.05926,0.435462 -0.05926,0.187413 -0.163987,0.307303 -0.103354,0.118512 -0.2370237,0.177767 -0.1336701,0.05788 -0.2852547,0.05788 -0.1502066,0 -0.2838766,-0.05788 -0.1336701,-0.05926 -0.2370233,-0.179145 -0.1033531,-0.11989 -0.163987,-0.305925 -0.059256,-0.186036 -0.059256,-0.435462 0,-0.250803 0.059256,-0.436839 0.060634,-0.186036 0.162609,-0.307303 0.1033531,-0.121268 0.2370232,-0.179146 0.1350481,-0.05926 0.2852547,-0.05926 0.1515846,0 0.2838767,0.05788 0.1336697,0.05788 0.2384017,0.180524 0.104731,0.121267 0.163987,0.308681 0.05926,0.187414 0.05926,0.435461 z m -0.5443262,0 q 0,-0.253559 -0.034451,-0.416168 -0.034451,-0.162609 -0.1667431,-0.162609 -0.089573,0 -0.1350481,0.09095 -0.044097,0.09095 -0.055122,0.209462 -0.00965,0.118512 -0.00965,0.278364 0,0.271475 0.033073,0.423059 0.034451,0.150207 0.1667431,0.150207 0.1336701,0 0.1667431,-0.150207 0.034451,-0.151584 0.034451,-0.423059 z m 2.7464382,-0.956361 -0.861277,1.934771 h -0.380339 l -0.84474,-1.934771 h 0.599448 l 0.43684,1.102434 0.449241,-1.102434 z"
       id="text12-6"
       style="font-weight:bold;font-size:2.82223px;line-height:0px;font-family:'Gill Sans';-inkscape-font-specification:'Gill Sans, Bold';letter-spacing:0px;word-spacing:0px;stroke-width:0.1;stroke-linejoin:round;paint-order:markers fill stroke"
       aria-label="10V" /><path
       d="m 15.803226,53.743811 q 0,0.163987 -0.07717,0.307303 -0.07579,0.143316 -0.230133,0.230133 -0.152963,0.08544 -0.37345,0.08544 -0.176389,0 -0.33762,-0.04548 -0.161231,-0.04548 -0.296279,-0.137804 v -0.412035 q 0.0882,0.06615 0.248048,0.13367 0.16123,0.06753 0.279742,0.06753 0.14056,0 0.19706,-0.07304 0.0565,-0.07441 0.0565,-0.152962 0,-0.06477 -0.03307,-0.122646 -0.03307,-0.05788 -0.114378,-0.09509 -0.07993,-0.03858 -0.216352,-0.03858 -0.150207,0 -0.288011,0.05512 v -1.113457 h 1.106568 v 0.402388 h -0.683509 v 0.327974 q 0.02205,-0.0028 0.04547,-0.0041 0.02481,-0.0028 0.03445,-0.0028 0.01103,-0.0014 0.04134,-0.0014 0.192925,0 0.338998,0.0813 0.146072,0.08131 0.223243,0.216353 0.07855,0.13367 0.07855,0.292145 z m 2.317867,-1.311896 -0.861276,1.934771 h -0.38034 l -0.84474,-1.934771 h 0.599448 l 0.43684,1.102433 0.449242,-1.102433 z"
       id="text12-9"
       style="font-weight:bold;font-size:2.82223px;line-height:0px;font-family:'Gill Sans';-inkscape-font-specification:'Gill Sans, Bold';letter-spacing:0px;word-spacing:0px;stroke-width:0.1;stroke-linejoin:round;paint-order:markers fill stroke"
       aria-label="5V" /></g><g
     inkscape:groupmode="layer"
     id="layer2"
     inkscape:label="components"
     style="display:none"
     sodipodi:insensitive="true"><ellipse
       id="Ch1Push"
       cx="10.16"
       cy="116.35022"
       style="fill:#ff0000;stroke-width:1"
       rx="4.0005002"
       ry="4.0005217" /><ellipse
       id="Ch1Offset"
       cx="10.16"
       cy="68.397118"
       style="fill:#ff0000;stroke-width:1"
       rx="2.9986112"
       ry="2.9986272" /><ellipse
       id="Ch1Offset-3"
       cx="10.16"
       cy="53.430943"
       style="display:inline;fill:#ff0000;stroke-width:1"
       rx="2.9986112"
       ry="2.9986272"
       inkscape:label="Ch1Range" /><ellipse
       id="Ch1Offset-3-8"
       cx="10.16"
       cy="102.49833"
       style="display:inline;fill:#ff0000;stroke-width:1"
       rx="2.9986112"
       ry="2.9986272"
       inkscape:label="Ch1Behavior" /><ellipse
       id="Ch1Offset-3-8-7"
       cx="10.16"
       cy="35.811825"
       style="display:inline;fill:#ff0000;stroke-width:1"
       rx="2.9986112"
       ry="2.9986272"
       inkscape:label="UnipolarBipolar" /><ellipse
       id="Ch1ButtonOut"
       cx="10.16"
       cy="83.02652"
       style="fill:#0000ff;stroke-width:1"
       rx="4.0005002"
       ry="4.0005217" /><ellipse
       id="Ch1VoltageOut"
       cx="10.16"
       cy="17.55784"
       style="fill:#0000ff;stroke-width:1"
       rx="4.0005002"
       ry="4.0005217" /><circle
       style="fill:#ff00ff;stroke-width:0.3;stroke-linejoin:round;paint-order:markers fill stroke"
       id="path2"
       cx="10.16"
       cy="9.4783564"
       r="1.5"
       inkscape:label="LEDRed" /><circle
       style="display:inline;fill:#ff00ff;stroke-width:0.3;stroke-linejoin:round;paint-order:markers fill stroke"
       id="path2-5"
       cx="10.16"
       cy="9.4783564"
       r="1.5"
       inkscape:label="LEDGreen" /></g></svg>
