<svg xmlns="http://www.w3.org/2000/svg" width="20.41mm" height="130.6mm" viewBox="0 0 57.85 370.19">
  <defs>
    <clipPath id="clip-path">
      <rect x="15.02" y="33.17" width="27.8" height="25.62" style="fill: none" />
    </clipPath>
    <clipPath id="clip-path-2">
      <rect x="15.02" y="33.17" width="27.8" height="25.62" style="fill: none" />
    </clipPath>
    <clipPath id="clip-path-3">
      <rect x="15.02" y="81.12" width="27.8" height="25.62" style="fill: none" />
    </clipPath>
    <clipPath id="clip-path-4">
      <rect x="15.02" y="81.12" width="27.8" height="25.62" style="fill: none" />
    </clipPath>
  </defs>
  <g id="faceplate">
    <rect x="0.13" y="0.13" width="57.6" height="364.25" style="fill: #ededed;stroke: #9d9d9e;stroke-miterlimit: 10;stroke-width: 0.25px" />
    <g id="pips_-_fewest" data-name="pips - fewest">
      <g style="clip-path: url(#clip-path)">
        <g style="clip-path: url(#clip-path-2)">
          <path d="M34.62,36l.71-1.24a13.86,13.86,0,0,0-5.77-1.54v1.42A12.56,12.56,0,0,1,34.62,36" />
          <path d="M39.41,40.28l1.24-.71a13.85,13.85,0,0,0-4.23-4.22l-.71,1.23a12.55,12.55,0,0,1,3.7,3.7" />
          <path d="M22.14,36.58l-.71-1.23a13.85,13.85,0,0,0-4.23,4.22l1.24.71a12.55,12.55,0,0,1,3.7-3.7" />
          <path d="M41.4,46.43h1.43a13.91,13.91,0,0,0-1.55-5.77l-1.23.72a12.46,12.46,0,0,1,1.35,5" />
          <path d="M28.29,34.59V33.17a13.86,13.86,0,0,0-5.77,1.54L23.23,36a12.56,12.56,0,0,1,5.06-1.36" />
          <path d="M18.44,53.85l-1.24.72a14.07,14.07,0,0,0,4.23,4.22l.71-1.23a12.58,12.58,0,0,1-3.7-3.71" />
          <path d="M35.71,57.56l.71,1.23a14.07,14.07,0,0,0,4.23-4.22l-1.24-.72a12.58,12.58,0,0,1-3.7,3.71" />
          <path d="M41.4,47.7a12.51,12.51,0,0,1-1.35,5.06l1.23.71a13.87,13.87,0,0,0,1.55-5.77Z" />
          <path d="M16.45,47.7H15a13.87,13.87,0,0,0,1.55,5.77l1.23-.71a12.51,12.51,0,0,1-1.35-5.06" />
          <path d="M17.8,41.38l-1.23-.72A13.91,13.91,0,0,0,15,46.43h1.43a12.46,12.46,0,0,1,1.35-5" />
        </g>
      </g>
    </g>
    <g id="pips_-_fewest-2" data-name="pips - fewest">
      <g style="clip-path: url(#clip-path-3)">
        <g style="clip-path: url(#clip-path-4)">
          <path d="M34.62,83.9l.71-1.24a13.86,13.86,0,0,0-5.77-1.54v1.43a12.39,12.39,0,0,1,5.06,1.35" />
          <path d="M39.41,88.23l1.24-.71a14.07,14.07,0,0,0-4.23-4.22l-.71,1.23a12.67,12.67,0,0,1,3.7,3.7" />
          <path d="M22.14,84.53l-.71-1.23a14.07,14.07,0,0,0-4.23,4.22l1.24.72a12.58,12.58,0,0,1,3.7-3.71" />
          <path d="M41.4,94.39h1.43a13.83,13.83,0,0,0-1.55-5.77l-1.23.71a12.47,12.47,0,0,1,1.35,5.06" />
          <path d="M28.29,82.55V81.12a13.72,13.72,0,0,0-5.77,1.55l.71,1.23a12.39,12.39,0,0,1,5.06-1.35" />
          <path d="M18.44,101.81l-1.24.71a14,14,0,0,0,4.23,4.22l.71-1.23a12.55,12.55,0,0,1-3.7-3.7" />
          <path d="M35.71,105.51l.71,1.23a13.85,13.85,0,0,0,4.23-4.22l-1.24-.71a12.55,12.55,0,0,1-3.7,3.7" />
          <path d="M41.4,95.65a12.47,12.47,0,0,1-1.35,5.06l1.23.71a13.83,13.83,0,0,0,1.55-5.77Z" />
          <path d="M16.45,95.65H15a13.83,13.83,0,0,0,1.55,5.77l1.23-.71a12.47,12.47,0,0,1-1.35-5.06" />
          <path d="M17.8,89.33l-1.23-.71A13.83,13.83,0,0,0,15,94.39h1.43a12.47,12.47,0,0,1,1.35-5.06" />
        </g>
      </g>
    </g>
    <g>
      <path d="M24.69,356a2.43,2.43,0,0,1-.29,1.21,2,2,0,0,1-.82.78,2.59,2.59,0,0,1-1.2.28l-.47,0a4.5,4.5,0,0,1-.73-.17,5,5,0,0,1-.95-.4v-1.82a7.24,7.24,0,0,0,.91.58,2.12,2.12,0,0,0,1,.23c.31,0,.52-.06.61-.19a.6.6,0,0,0-.1-.87,3.35,3.35,0,0,0-.69-.42,4.93,4.93,0,0,1-.88-.56,2.41,2.41,0,0,1-.62-.76,2.32,2.32,0,0,1-.24-1.08,2.42,2.42,0,0,1,.24-1.09,1.85,1.85,0,0,1,.74-.78,2.42,2.42,0,0,1,1.22-.29,3.51,3.51,0,0,1,.94.12,3.65,3.65,0,0,1,.72.27,2.61,2.61,0,0,1,.38.24V353a4.59,4.59,0,0,0-.83-.59,2,2,0,0,0-1-.26.7.7,0,0,0-.5.16.54.54,0,0,0-.16.4.49.49,0,0,0,.16.38,2.51,2.51,0,0,0,.55.4,9.64,9.64,0,0,1,1.12.72,2.34,2.34,0,0,1,.67.74A2.14,2.14,0,0,1,24.69,356Z" />
      <path d="M31.85,358.21h-2l-.48-1.32a5.33,5.33,0,0,0-.47-1.06,1,1,0,0,0-.42-.43,1.08,1.08,0,0,0-.51-.1h-.21v2.91H25.94v-7.45h3.13a2,2,0,0,1,1.24.38,2.12,2.12,0,0,1,.7.91,2.82,2.82,0,0,1,.21,1,2.46,2.46,0,0,1-.17,1,1.64,1.64,0,0,1-.38.56,2.65,2.65,0,0,1-.45.34,1.94,1.94,0,0,1,.49.5,6.6,6.6,0,0,1,.52,1.16Zm-2.5-5.09a.81.81,0,0,0-.28-.72,1.51,1.51,0,0,0-.9-.21h-.39V354h.4a1.67,1.67,0,0,0,.92-.18A.82.82,0,0,0,29.35,353.12Z" />
      <path d="M38.15,357.65a4.29,4.29,0,0,1-.77.39,4.68,4.68,0,0,1-.8.2,4.61,4.61,0,0,1-.84.07,3.64,3.64,0,0,1-1.43-.27,3.15,3.15,0,0,1-1.09-.79,3.4,3.4,0,0,1-.7-1.23,5,5,0,0,1-.23-1.54,4.77,4.77,0,0,1,.27-1.68,3.22,3.22,0,0,1,.77-1.2,3,3,0,0,1,1.12-.71,3.86,3.86,0,0,1,1.32-.23,6.07,6.07,0,0,1,2.36.57v2a6.65,6.65,0,0,0-.9-.57,2.28,2.28,0,0,0-1-.23,2,2,0,0,0-1,.26,2,2,0,0,0-.74.74,2.11,2.11,0,0,0-.28,1.11,2.27,2.27,0,0,0,.24,1,2,2,0,0,0,.69.74,1.76,1.76,0,0,0,1,.28,2.63,2.63,0,0,0,.84-.13,4.18,4.18,0,0,0,.66-.29,4.73,4.73,0,0,0,.56-.39Z" />
    </g>
    <path d="M44.73,261.31c0-8.08-7-14.63-15.59-14.63s-15.59,6.55-15.59,14.63v55.1h0v19.84a5.68,5.68,0,0,0,5.67,5.67H39.06a5.68,5.68,0,0,0,5.67-5.67V316.41h0Z" />
    <path d="M29.93,289.69H28.62v-5.42h1.31Z" style="fill: #fff" />
    <path d="M31.1,336.94H27.48v-.1l.46-.55.64-.85c.12-.16.24-.31.35-.47s.19-.3.27-.45a2.88,2.88,0,0,0,.19-.47,2,2,0,0,0,.08-.54.93.93,0,0,0-.19-.61.62.62,0,0,0-.49-.23,1.59,1.59,0,0,0-1.16.69v-1.28l.33-.24a1.8,1.8,0,0,1,.31-.17,1.68,1.68,0,0,1,.4-.15,2,2,0,0,1,.5-.06,1.53,1.53,0,0,1,.8.2,1.42,1.42,0,0,1,.56.58,1.8,1.8,0,0,1,.21.89,2.41,2.41,0,0,1-.1.67,2.29,2.29,0,0,1-.19.5l-.26.48a10.51,10.51,0,0,1-.64,1H31.1Z" style="fill: #fff" />
    <path d="M29.88,69.77H28.25V63h1.63Z" />
    <path d="M31.2,118.59H26.67v-.13c.17-.19.37-.42.58-.69l.8-1.06c.16-.2.3-.39.43-.59a4.93,4.93,0,0,0,.34-.56,2.81,2.81,0,0,0,.24-.59,2.22,2.22,0,0,0,.1-.67,1.14,1.14,0,0,0-.24-.76.73.73,0,0,0-.6-.29,2,2,0,0,0-1.46.86v-1.6l.42-.3a3.2,3.2,0,0,1,.38-.22,2.63,2.63,0,0,1,.5-.18,2.18,2.18,0,0,1,.63-.08,2,2,0,0,1,1,.25,1.83,1.83,0,0,1,.7.73,2.3,2.3,0,0,1,.25,1.11,3.22,3.22,0,0,1-.11.84,4.22,4.22,0,0,1-.24.63l-.33.59c-.25.42-.51.81-.79,1.19H31.2Z" />
    <g>
      <path d="M34.54,6.76l-5.53,7v-6a1.27,1.27,0,0,0-.64-1.17.89.89,0,0,0-1.13.29L20,16.13a1.49,1.49,0,0,0,0,1.79.9.9,0,0,0,1.46,0l5.5-7v6a1.29,1.29,0,0,0,.64,1.18.92.92,0,0,0,1.14-.3l5.53-7v6.15a1.05,1.05,0,1,0,2.06,0V7.64a1.28,1.28,0,0,0-.65-1.18A.91.91,0,0,0,34.54,6.76Z" style="stroke: #000;stroke-width: 0.6000000000000001px" />
      <path d="M20,6.68l-4.81,6.13a1.47,1.47,0,0,0,0,1.79.9.9,0,0,0,1.46,0l3.05-3.87V17a1.17,1.17,0,0,0,1,1.26,1.17,1.17,0,0,0,1-1.26V7.56a1.29,1.29,0,0,0-.65-1.17A.91.91,0,0,0,20,6.68Z" style="stroke: #000;stroke-width: 0.6000000000000001px" />
      <path d="M42.91,11.2a1.05,1.05,0,0,0-.95-.77h-2.1l1.53-1.95s.8-1.17.1-1.82a1.27,1.27,0,0,0-1.58.06l-3.23,4.1a1.45,1.45,0,0,0-.2,1.37,1,1,0,0,0,1,.78h2.1L37,16.14s-1,1.13-.27,1.89,1.75-.14,1.75-.14l4.18-5.31A1.5,1.5,0,0,0,42.91,11.2Z" style="stroke: #000;stroke-width: 0.6000000000000001px" />
    </g>
  </g>
  <g /></svg>