<?xml version="1.0" encoding="UTF-8" standalone="no"?>
<svg
   width="20.32mm"
   height="130.6mm"
   viewBox="0 0 57.6 370.19"
   version="1.1"
   id="svg39"
   sodipodi:docname="Source_artwork.svg"
   inkscape:version="1.4.2 (ebf0e940, 2025-05-08)"
   xmlns:inkscape="http://www.inkscape.org/namespaces/inkscape"
   xmlns:sodipodi="http://sodipodi.sourceforge.net/DTD/sodipodi-0.dtd"
   xmlns="http://www.w3.org/2000/svg"
   xmlns:svg="http://www.w3.org/2000/svg">
  <sodipodi:namedview
     id="namedview39"
     pagecolor="#ffffff"
     bordercolor="#000000"
     borderopacity="0.25"
     inkscape:showpageshadow="2"
     inkscape:pageopacity="0.0"
     inkscape:pagecheckerboard="0"
     inkscape:deskcolor="#d1d1d1"
     inkscape:document-units="mm"
     inkscape:zoom="9.8610734"
     inkscape:cx="38.231132"
     inkscape:cy="452.48624"
     inkscape:window-width="1200"
     inkscape:window-height="979"
     inkscape:window-x="654"
     inkscape:window-y="38"
     inkscape:window-maximized="0"
     inkscape:current-layer="Text" />
  <defs
     id="defs4">
    <clipPath
       id="clippath">
      <rect
         x="14.91"
         y="33.17"
         width="27.78"
         height="25.51"
         style="fill: none; stroke-width: 0px;"
         id="rect1" />
    </clipPath>
    <clipPath
       id="clippath-1">
      <rect
         x="14.91"
         y="33.17"
         width="27.78"
         height="25.51"
         style="fill: none; stroke-width: 0px;"
         id="rect2" />
    </clipPath>
    <clipPath
       id="clippath-2">
      <rect
         x="14.91"
         y="81.21"
         width="27.78"
         height="25.51"
         style="fill: none; stroke-width: 0px;"
         id="rect3" />
    </clipPath>
    <clipPath
       id="clippath-3">
      <rect
         x="14.91"
         y="81.21"
         width="27.78"
         height="25.51"
         style="fill: none; stroke-width: 0px;"
         id="rect4" />
    </clipPath>
  </defs>
  <g
     id="faceplate">
    <g
       id="panel">
      <path
         id="rect5"
         style="fill:#ededed;stroke-width:0px"
         d="m 0.12,0.13 h 57.349998 v 364 H 0.12 Z" />
      <path
         d="M57.35.25v363.75H.25V.25h57.1M57.6,0H0v364.25h57.6V0h0Z"
         style="fill: #9d9d9e; stroke-width: 0px;"
         id="path5" />
    </g>
    <path
       d="M44.39,261.76c0-8.05-6.98-14.57-15.59-14.57s-15.59,6.53-15.59,14.57v54.4s0,0,0,0v19.77c0,3.11,2.55,5.65,5.67,5.65h19.84c3.12,0,5.67-2.54,5.67-5.65v-19.77s0,0,0,0v-54.39Z"
       style="fill: #000; stroke-width: 0px;"
       id="path6" />
    <g
       id="Text">
      <g
         id="g9"
         transform="translate(0,-6.5945531)">
        <path
           d="m 24.28,354.93 c 0,0.42 -0.09,0.84 -0.29,1.21 -0.19,0.33 -0.48,0.6 -0.82,0.78 -0.37,0.19 -0.78,0.28 -1.2,0.28 H 21.5 c -0.25,-0.04 -0.49,-0.09 -0.73,-0.17 -0.33,-0.1 -0.65,-0.23 -0.95,-0.4 v -1.82 c 0.29,0.22 0.59,0.41 0.91,0.58 0.31,0.16 0.65,0.24 1,0.23 0.31,0 0.52,-0.06 0.61,-0.19 0.21,-0.25 0.18,-0.63 -0.07,-0.85 0,0 -0.02,-0.02 -0.03,-0.02 -0.21,-0.17 -0.44,-0.31 -0.69,-0.42 -0.31,-0.16 -0.61,-0.34 -0.88,-0.56 -0.26,-0.21 -0.47,-0.47 -0.62,-0.76 -0.17,-0.34 -0.25,-0.71 -0.24,-1.08 0,-0.38 0.08,-0.75 0.24,-1.09 0.16,-0.33 0.42,-0.6 0.74,-0.78 0.37,-0.2 0.79,-0.3 1.22,-0.29 0.32,0 0.63,0.04 0.94,0.12 0.25,0.06 0.49,0.15 0.72,0.27 0.13,0.07 0.26,0.15 0.38,0.24 v 1.72 c -0.25,-0.23 -0.53,-0.42 -0.83,-0.59 -0.3,-0.17 -0.65,-0.26 -1,-0.26 -0.18,-0.01 -0.36,0.04 -0.5,0.16 -0.11,0.11 -0.16,0.25 -0.16,0.4 0,0.14 0.05,0.28 0.16,0.38 0.16,0.16 0.35,0.29 0.55,0.4 0.39,0.21 0.76,0.45 1.12,0.72 0.27,0.2 0.5,0.45 0.67,0.74 0.16,0.33 0.24,0.69 0.22,1.05 z"
           style="fill:#000000;stroke-width:0px"
           id="path7" />
        <path
           d="m 31.44,357.14 h -2 l -0.48,-1.32 c -0.12,-0.37 -0.28,-0.72 -0.47,-1.06 -0.09,-0.18 -0.24,-0.33 -0.42,-0.43 -0.16,-0.07 -0.33,-0.11 -0.51,-0.1 h -0.21 v 2.91 h -1.82 v -7.45 h 3.13 c 0.44,-0.01 0.88,0.12 1.24,0.38 0.31,0.23 0.55,0.55 0.7,0.91 0.13,0.32 0.2,0.66 0.21,1 0.01,0.34 -0.04,0.68 -0.17,1 -0.09,0.21 -0.22,0.4 -0.38,0.56 -0.14,0.13 -0.29,0.24 -0.45,0.34 0.19,0.14 0.36,0.31 0.49,0.5 0.21,0.37 0.38,0.76 0.52,1.16 z m -2.5,-5.09 c 0.03,-0.27 -0.07,-0.54 -0.28,-0.72 -0.27,-0.16 -0.59,-0.24 -0.9,-0.21 h -0.39 v 1.81 h 0.4 c 0.32,0.03 0.64,-0.03 0.92,-0.18 0.19,-0.18 0.28,-0.44 0.25,-0.7 z"
           style="fill:#000000;stroke-width:0px"
           id="path8" />
        <path
           d="m 37.74,356.58 c -0.24,0.16 -0.5,0.29 -0.77,0.39 -0.26,0.09 -0.53,0.16 -0.8,0.2 -0.28,0.05 -0.56,0.07 -0.84,0.07 -0.49,0 -0.98,-0.08 -1.43,-0.27 -0.42,-0.18 -0.79,-0.45 -1.09,-0.79 -0.32,-0.36 -0.56,-0.78 -0.7,-1.23 -0.16,-0.5 -0.23,-1.02 -0.23,-1.54 -0.01,-0.57 0.08,-1.14 0.27,-1.68 0.16,-0.45 0.43,-0.86 0.77,-1.2 0.32,-0.32 0.7,-0.56 1.12,-0.71 0.42,-0.15 0.87,-0.23 1.32,-0.23 0.82,0.03 1.62,0.22 2.36,0.57 v 2 c -0.28,-0.21 -0.59,-0.4 -0.9,-0.57 -0.31,-0.15 -0.65,-0.23 -1,-0.23 -0.35,0 -0.7,0.09 -1,0.26 -0.31,0.18 -0.56,0.43 -0.74,0.74 -0.19,0.34 -0.29,0.72 -0.28,1.11 0,0.35 0.08,0.69 0.24,1 0.16,0.3 0.4,0.56 0.69,0.74 0.3,0.19 0.65,0.29 1,0.28 0.29,0 0.57,-0.04 0.84,-0.13 0.23,-0.08 0.45,-0.17 0.66,-0.29 0.2,-0.12 0.38,-0.25 0.56,-0.39 z"
           style="fill:#000000;stroke-width:0px"
           id="path9" />
      </g>
      <path
         d="M29.62,69.64h-1.63v-6.77h1.63v6.77Z"
         style="fill: #000; stroke-width: 0px;"
         id="path10" />
      <path
         d="M31.07,118.46h-4.53v-.13c.17-.19.37-.42.58-.69l.8-1.06c.16-.2.3-.39.43-.59.13-.18.24-.37.34-.56.1-.19.18-.38.24-.59.07-.22.1-.44.1-.67.01-.27-.07-.54-.24-.76-.14-.19-.36-.3-.6-.29-.59.06-1.12.37-1.46.86v-1.6l.42-.3c.12-.08.25-.16.38-.22.16-.08.33-.14.5-.18.2-.06.42-.08.63-.08.35,0,.69.08,1,.25.3.17.54.43.7.73.17.34.26.72.25,1.11,0,.28-.04.57-.11.84-.06.22-.14.43-.24.63l-.33.59c-.25.42-.51.81-.79,1.19h1.93v1.52Z"
         style="fill: #000; stroke-width: 0px;"
         id="path11" />
      <path
         d="M 3.1132813,0 H 1.6328125 v -5.4140625 h 1.4804688 z"
         id="text11"
         style="font-weight:700;font-size:8px;font-family:GillSans-Bold, 'Gill Sans';letter-spacing:-0.04em;fill:#ffffff"
         transform="translate(26.71 289.25) scale(.88 1)"
         aria-label="1" />
      <path
         d="M 4.4414062,0 H 0.328125 V -0.10546875 Q 0.56640625,-0.3359375 0.8515625,-0.65625 q 0.2851562,-0.3203125 0.734375,-0.8476562 0.2070312,-0.2382813 0.3867187,-0.46875 0.1835938,-0.2304688 0.3125001,-0.4453126 0.1289062,-0.21875 0.21875,-0.4804687 0.089844,-0.2617188 0.089844,-0.5351563 0,-0.375 -0.21875,-0.6054687 -0.2148437,-0.234375 -0.5507813,-0.234375 -0.6640625,0 -1.32031245,0.6875 V -4.8632812 Q 0.734375,-5.0117187 0.8828125,-5.1015625 1.03125,-5.1914062 1.2226562,-5.2773437 q 0.1953125,-0.085937 0.4609375,-0.1484375 0.265625,-0.0625 0.5742188,-0.0625 0.4960938,0 0.9023438,0.203125 0.40625,0.1992187 0.6367187,0.5820312 0.234375,0.3789063 0.234375,0.8867187 0,0.359375 -0.1054687,0.671875 -0.1054688,0.3125 -0.21875,0.5039063 Q 3.59375,-2.4492188 3.40625,-2.1679688 3.0703125,-1.6679687 2.6875,-1.2148437 h 1.7539062 z"
         id="text12"
         style="font-weight:700;font-size:8px;font-family:GillSans-Bold, 'Gill Sans';letter-spacing:-0.04em;fill:#ffffff"
         transform="translate(26.71 337.44) scale(.88 1)"
         aria-label="2" />
    </g>
    <g
       id="pips">
      <g
         id="pips_-_fewest"
         data-name="pips - fewest">
        <g
           style="clip-path: url(#clippath);"
           clip-path="url(#clippath)"
           id="g22">
          <g
             style="clip-path: url(#clippath-1);"
             clip-path="url(#clippath-1)"
             id="g21">
            <path
               d="M34.49,35.93l.71-1.23c-1.74-.9-3.69-1.45-5.77-1.54v1.42c1.81.09,3.52.56,5.05,1.35"
               style="fill: #000; stroke-width: 0px;"
               id="path12" />
            <path
               d="M39.28,40.25l1.23-.71c-1.09-1.69-2.53-3.12-4.22-4.21l-.71,1.23c1.48.96,2.74,2.21,3.7,3.69"
               style="fill: #000; stroke-width: 0px;"
               id="path13" />
            <path
               d="M22.02,36.56l-.71-1.23c-1.69,1.08-3.14,2.52-4.22,4.2l1.23.71c.96-1.47,2.22-2.73,3.7-3.69"
               style="fill: #000; stroke-width: 0px;"
               id="path14" />
            <path
               d="M41.26,46.38h1.43c-.09-2.07-.64-4.01-1.54-5.75l-1.23.71c.79,1.52,1.26,3.23,1.35,5.04"
               style="fill: #000; stroke-width: 0px;"
               id="path15" />
            <path
               d="M28.17,34.59v-1.42c-2.07.09-4.03.64-5.77,1.54l.71,1.23c1.53-.78,3.24-1.25,5.05-1.35"
               style="fill: #000; stroke-width: 0px;"
               id="path16" />
            <path
               d="M18.32,53.76l-1.23.71c1.09,1.69,2.53,3.12,4.22,4.21l.71-1.23c-1.48-.96-2.74-2.21-3.7-3.69"
               style="fill: #000; stroke-width: 0px;"
               id="path17" />
            <path
               d="M35.58,57.45l.71,1.23c1.69-1.08,3.14-2.52,4.22-4.2l-1.23-.71c-.96,1.47-2.22,2.73-3.7,3.69"
               style="fill: #000; stroke-width: 0px;"
               id="path18" />
            <path
               d="M41.26,47.64c-.09,1.81-.56,3.51-1.35,5.04l1.23.71c.9-1.73,1.45-3.68,1.54-5.75h-1.43Z"
               style="fill: #000; stroke-width: 0px;"
               id="path19" />
            <path
               d="M16.34,47.64h-1.43c.09,2.07.64,4.01,1.54,5.75l1.23-.71c-.79-1.52-1.26-3.23-1.35-5.04"
               style="fill: #000; stroke-width: 0px;"
               id="path20" />
            <path
               d="M17.69,41.34l-1.23-.71c-.9,1.73-1.45,3.68-1.54,5.75h1.43c.09-1.81.56-3.51,1.35-5.04"
               style="fill: #000; stroke-width: 0px;"
               id="path21" />
          </g>
        </g>
      </g>
      <g
         id="pips_-_fewest-2"
         data-name="pips - fewest">
        <g
           style="clip-path: url(#clippath-2);"
           clip-path="url(#clippath-2)"
           id="g32">
          <g
             style="clip-path: url(#clippath-3);"
             clip-path="url(#clippath-3)"
             id="g31">
            <path
               d="M34.49,83.98l.71-1.23c-1.74-.9-3.69-1.45-5.77-1.54v1.42c1.81.09,3.52.56,5.05,1.35"
               style="fill: #000; stroke-width: 0px;"
               id="path22" />
            <path
               d="M39.28,88.3l1.23-.71c-1.09-1.69-2.53-3.12-4.22-4.21l-.71,1.23c1.48.96,2.74,2.21,3.7,3.69"
               style="fill: #000; stroke-width: 0px;"
               id="path23" />
            <path
               d="M22.02,84.61l-.71-1.23c-1.69,1.08-3.14,2.52-4.22,4.2l1.23.71c.96-1.47,2.22-2.73,3.7-3.69"
               style="fill: #000; stroke-width: 0px;"
               id="path24" />
            <path
               d="M41.26,94.42h1.43c-.09-2.07-.64-4.01-1.54-5.75l-1.23.71c.79,1.52,1.26,3.23,1.35,5.04"
               style="fill: #000; stroke-width: 0px;"
               id="path25" />
            <path
               d="M28.17,82.63v-1.42c-2.07.09-4.03.64-5.77,1.54l.71,1.23c1.53-.78,3.24-1.25,5.05-1.35"
               style="fill: #000; stroke-width: 0px;"
               id="path26" />
            <path
               d="M18.32,101.81l-1.23.71c1.09,1.69,2.53,3.12,4.22,4.21l.71-1.23c-1.48-.96-2.74-2.21-3.7-3.69"
               style="fill: #000; stroke-width: 0px;"
               id="path27" />
            <path
               d="M35.58,105.5l.71,1.23c1.69-1.08,3.14-2.52,4.22-4.2l-1.23-.71c-.96,1.47-2.22,2.73-3.7,3.69"
               style="fill: #000; stroke-width: 0px;"
               id="path28" />
            <path
               d="M41.26,95.68c-.09,1.81-.56,3.51-1.35,5.04l1.23.71c.9-1.73,1.45-3.68,1.54-5.75h-1.43Z"
               style="fill: #000; stroke-width: 0px;"
               id="path29" />
            <path
               d="M16.34,95.68h-1.43c.09,2.07.64,4.01,1.54,5.75l1.23-.71c-.79-1.52-1.26-3.23-1.35-5.04"
               style="fill: #000; stroke-width: 0px;"
               id="path30" />
            <path
               d="M17.69,89.39l-1.23-.71c-.9,1.73-1.45,3.68-1.54,5.75h1.43c.09-1.81.56-3.51,1.35-5.04"
               style="fill: #000; stroke-width: 0px;"
               id="path31" />
          </g>
        </g>
      </g>
    </g>
    <g
       id="g34"
       transform="translate(0,8.5993101)">
      <path
         d="m 20.6,18.19 c -0.37,0 -0.71,-0.17 -0.97,-0.47 -0.51,-0.6 -0.52,-1.54 -0.04,-2.16 l 6.97,-8.88 c 0.38,-0.48 1.05,-0.65 1.57,-0.39 0.5,0.25 0.79,0.82 0.79,1.45 v 4.77 l 4.64,-5.85 c 0.38,-0.48 1.01,-0.64 1.53,-0.38 0.5,0.25 0.83,0.81 0.83,1.44 v 8.82 c 0,0.86 -0.61,1.57 -1.36,1.57 -0.75,0 -1.36,-0.7 -1.36,-1.57 v -4.79 l -4.64,5.85 c -0.38,0.48 -1.01,0.64 -1.54,0.38 -0.5,-0.24 -0.83,-0.81 -0.83,-1.44 v -4.67 l -4.61,5.8 c -0.26,0.32 -0.62,0.51 -1,0.51 v 0 z"
         style="fill:#2cabe1;stroke-width:0px"
         id="path32" />
      <path
         d="m 20.6,18.19 c -0.75,0 -1.35,-0.7 -1.35,-1.57 v -4.93 l -2.26,2.84 c -0.5,0.63 -1.44,0.65 -1.97,0.04 -0.51,-0.6 -0.52,-1.53 -0.03,-2.15 L 19.6,6.66 c 0.26,-0.32 0.63,-0.5 1,-0.5 0.18,0 0.37,0.04 0.54,0.12 0.5,0.25 0.82,0.81 0.82,1.44 v 8.89 c 0,0.86 -0.61,1.57 -1.36,1.57 v 0 z"
         style="fill:#ea2228;stroke-width:0px"
         id="path33" />
      <path
         d="m 37.2,18.21 v 0 c -0.35,0 -0.68,-0.15 -0.94,-0.42 -0.76,-0.78 -0.14,-1.84 0.29,-2.3 L 38.5,13.13 37.24,13.11 C 36.68,13.1 36.2,12.71 36,12.11 35.81,11.55 35.93,10.9 36.29,10.47 L 39.45,6.64 C 39.68,6.36 40,6.16 40.58,6.17 c 0.33,0 0.67,0.17 0.92,0.4 0.71,0.66 0.29,1.7 -0.07,2.2 l -1.04,1.26 1.26,0.02 c 0.56,0.01 1.04,0.4 1.24,1 0.19,0.56 0.07,1.21 -0.29,1.64 l -4.1,4.97 c -0.35,0.35 -0.65,0.55 -1.3,0.54 v 0 z"
         style="fill:#00a650;stroke-width:0px"
         id="path34" />
    </g>
  </g>
  <g
     id="g1" />
</svg>
