<svg xmlns="http://www.w3.org/2000/svg" width="91.53mm" height="131.48mm" viewBox="0 0 259.45 372.7">
  <g id="faceplate">
    <rect x="0.13" y="0.13" width="259.2" height="364.25" style="fill: #ededed;stroke: #9d9d9e;stroke-miterlimit: 10;stroke-width: 0.25px" />
    <path d="M120.65,287.65v37.59h0A16.76,16.76,0,0,0,137,341.84l99,.09a5.68,5.68,0,0,0,5.67-5.67V287.65Z" />
    <g>
      <path d="M25.75,86.62H21.23V79.85H23V85h2.73Z" />
      <path d="M30.68,84.56H27.6a1.21,1.21,0,0,0,.44.74,1.23,1.23,0,0,0,.8.29,3.8,3.8,0,0,0,1.73-.5v1.09a4,4,0,0,1-.83.37,4.17,4.17,0,0,1-1.23.16,2.58,2.58,0,0,1-1.37-.34,2.18,2.18,0,0,1-.85-.93A3,3,0,0,1,26,84.11a2.93,2.93,0,0,1,.28-1.31,2.08,2.08,0,0,1,.85-.91,2.67,2.67,0,0,1,1.37-.33,2.22,2.22,0,0,1,1,.26,2.07,2.07,0,0,1,.82.86,3.22,3.22,0,0,1,.32,1.53Zm-1.45-.87a1.25,1.25,0,0,0-.21-.76.7.7,0,0,0-.6-.29.79.79,0,0,0-.63.29,1.17,1.17,0,0,0-.24.76Z" />
      <path d="M35.7,81.65l-2,5H32.56l-1.94-5h1.66l.91,2.6,1-2.6Z" />
      <path d="M40.35,84.56H37.27a1.27,1.27,0,0,0,1.24,1,3.8,3.8,0,0,0,1.73-.5v1.09a4.19,4.19,0,0,1-.82.37,4.27,4.27,0,0,1-1.23.16,2.62,2.62,0,0,1-1.38-.34,2.18,2.18,0,0,1-.85-.93,3,3,0,0,1-.28-1.33A2.93,2.93,0,0,1,36,82.8a2.08,2.08,0,0,1,.85-.91,2.71,2.71,0,0,1,1.38-.33,2.21,2.21,0,0,1,1,.26,2,2,0,0,1,.82.86,3.22,3.22,0,0,1,.32,1.53Zm-1.45-.87a1.25,1.25,0,0,0-.21-.76.7.7,0,0,0-.6-.29.75.75,0,0,0-.62.29,1.17,1.17,0,0,0-.24.76Z" />
      <path d="M42.39,86.62H40.84V79.85h1.55Z" />
      <path d="M48.29,86.62H46.66V79.85h1.63Z" />
    </g>
    <g>
      <path d="M35.29,38.68a19.76,19.76,0,0,0-2.45.17l-.4-2.21a22.49,22.49,0,0,1,2.85-.19,22.21,22.21,0,0,1,2.84.19l-.39,2.21A19.76,19.76,0,0,0,35.29,38.68Z" />
      <path d="M20.8,45.05,19.07,43.6A22,22,0,0,1,23.41,40l1.12,1.94A19.77,19.77,0,0,0,20.8,45.05Z" />
      <path d="M26.26,40.88l-1.12-1.94a22.15,22.15,0,0,1,5.34-2l.39,2.22A19.68,19.68,0,0,0,26.26,40.88Z" />
      <path d="M17.06,50.82,15,50.05a21.78,21.78,0,0,1,2.83-4.91l1.73,1.45A19.4,19.4,0,0,0,17.06,50.82Z" />
      <path d="M39.71,39.2,40.1,37a22.31,22.31,0,0,1,5.34,2l-1.13,1.94A19.61,19.61,0,0,0,39.71,39.2Z" />
      <path d="M15.57,57.52H13.31a22,22,0,0,1,1-5.59l2.1.77A20.17,20.17,0,0,0,15.57,57.52Z" />
      <path d="M16.44,64.31l-2.1.77a21.73,21.73,0,0,1-1-5.56h2.23A19.29,19.29,0,0,0,16.44,64.31Z" />
      <path d="M19.58,70.39l-1.72,1.44A22.16,22.16,0,0,1,15,67l2.1-.77A19.84,19.84,0,0,0,19.58,70.39Z" />
      <path d="M51.06,46.59l1.73-1.45a22.16,22.16,0,0,1,2.83,4.91l-2.1.77A19.81,19.81,0,0,0,51.06,46.59Z" />
      <path d="M54.19,52.7l2.11-.77a21.53,21.53,0,0,1,1,5.58H55A19.61,19.61,0,0,0,54.19,52.7Z" />
      <path d="M55,59.51h2.23a21.73,21.73,0,0,1-1,5.57l-2.1-.77A19.28,19.28,0,0,0,55,59.51Z" />
      <path d="M53.45,66.19l2.11.77a22.63,22.63,0,0,1-2.84,4.87L51,70.39A19.63,19.63,0,0,0,53.45,66.19Z" />
      <path d="M24.6,75,23.48,77a22.15,22.15,0,0,1-4.32-3.61l1.71-1.44A19.37,19.37,0,0,0,24.6,75Z" />
      <path d="M49.71,71.92l1.71,1.43A21.85,21.85,0,0,1,47.1,77L46,75A20.06,20.06,0,0,0,49.71,71.92Z" />
      <path d="M46,41.89l1.13-2a22.4,22.4,0,0,1,4.34,3.66l-1.73,1.45A19.52,19.52,0,0,0,46,41.89Z" />
    </g>
    <g>
      <path d="M88.71,86.62H84.19V79.85H86V85h2.73Z" />
      <path d="M93.64,84.56H90.55a1.29,1.29,0,0,0,1.25,1,3.77,3.77,0,0,0,1.72-.5v1.09a3.94,3.94,0,0,1-.82.37,4.17,4.17,0,0,1-1.23.16,2.62,2.62,0,0,1-1.38-.34,2.16,2.16,0,0,1-.84-.93A3,3,0,0,1,89,84.11a2.93,2.93,0,0,1,.29-1.31,2.05,2.05,0,0,1,.84-.91,2.71,2.71,0,0,1,1.38-.33,2.25,2.25,0,0,1,1,.26,2.07,2.07,0,0,1,.82.86,3.22,3.22,0,0,1,.32,1.53Zm-1.46-.87a1.25,1.25,0,0,0-.21-.76.68.68,0,0,0-.6-.29.78.78,0,0,0-.62.29,1.17,1.17,0,0,0-.24.76Z" />
      <path d="M98.65,81.65l-2,5H95.52l-1.94-5h1.66l.9,2.6,1-2.6Z" />
      <path d="M103.31,84.56h-3.08a1.26,1.26,0,0,0,.44.74,1.23,1.23,0,0,0,.8.29,3.8,3.8,0,0,0,1.73-.5v1.09a4,4,0,0,1-.83.37,4.17,4.17,0,0,1-1.23.16,2.58,2.58,0,0,1-1.37-.34,2.18,2.18,0,0,1-.85-.93,3,3,0,0,1-.28-1.33,2.93,2.93,0,0,1,.28-1.31,2.08,2.08,0,0,1,.85-.91,2.67,2.67,0,0,1,1.37-.33,2.22,2.22,0,0,1,1,.26,2.07,2.07,0,0,1,.82.86,3.22,3.22,0,0,1,.32,1.53Zm-1.45-.87a1.25,1.25,0,0,0-.21-.76.7.7,0,0,0-.6-.29.79.79,0,0,0-.63.29,1.17,1.17,0,0,0-.24.76Z" />
      <path d="M105.35,86.62h-1.56V79.85h1.56Z" />
      <path d="M112.71,86.62h-4.52v-.13q.25-.28.57-.69l.81-1.06.43-.58c.13-.2.24-.38.34-.56a4.17,4.17,0,0,0,.24-.6,2.18,2.18,0,0,0,.1-.67,1.15,1.15,0,0,0-.24-.76.76.76,0,0,0-.61-.29,2,2,0,0,0-1.45.86v-1.6l.42-.3.37-.22a2.51,2.51,0,0,1,.51-.18,2.47,2.47,0,0,1,.63-.08,2,2,0,0,1,1,.25,1.76,1.76,0,0,1,.7.73,2.33,2.33,0,0,1,.26,1.11,2.84,2.84,0,0,1-.12.84,2.78,2.78,0,0,1-.24.63c-.08.16-.19.36-.33.59a11.16,11.16,0,0,1-.79,1.19h1.93Z" />
    </g>
    <path d="M98.25,38.68a19.92,19.92,0,0,0-2.46.17l-.39-2.21a21.4,21.4,0,0,1,5.69,0l-.39,2.21A19.9,19.9,0,0,0,98.25,38.68Z" />
    <path d="M83.75,45.05,82,43.6A22,22,0,0,1,86.37,40l1.12,1.94A19.83,19.83,0,0,0,83.75,45.05Z" />
    <path d="M89.22,40.88,88.1,38.94a22.08,22.08,0,0,1,5.33-2l.39,2.22A19.77,19.77,0,0,0,89.22,40.88Z" />
    <path d="M80,50.82l-2.1-.77a21.78,21.78,0,0,1,2.83-4.91l1.72,1.45A19.36,19.36,0,0,0,80,50.82Z" />
    <path d="M102.67,39.2l.39-2.22a22.08,22.08,0,0,1,5.33,2l-1.12,1.94A19.61,19.61,0,0,0,102.67,39.2Z" />
    <path d="M78.53,57.52H76.27a22,22,0,0,1,1-5.59l2.11.77A19.68,19.68,0,0,0,78.53,57.52Z" />
    <path d="M79.39,64.31l-2.1.77a21.72,21.72,0,0,1-1-5.56h2.23A19.75,19.75,0,0,0,79.39,64.31Z" />
    <path d="M82.53,70.39l-1.71,1.44A21.77,21.77,0,0,1,78,67l2.1-.77A19.8,19.8,0,0,0,82.53,70.39Z" />
    <path d="M114,46.59l1.73-1.45a22.16,22.16,0,0,1,2.83,4.91l-2.1.77A19.81,19.81,0,0,0,114,46.59Z" />
    <path d="M117.15,52.7l2.11-.77a22,22,0,0,1,1,5.58H118A19.6,19.6,0,0,0,117.15,52.7Z" />
    <path d="M118,59.51h2.24a21.73,21.73,0,0,1-1,5.57l-2.1-.77A19.74,19.74,0,0,0,118,59.51Z" />
    <path d="M116.41,66.19l2.11.77a22.63,22.63,0,0,1-2.84,4.87L114,70.39A19.63,19.63,0,0,0,116.41,66.19Z" />
    <path d="M87.55,75,86.44,77a21.86,21.86,0,0,1-4.32-3.61l1.71-1.44A19.62,19.62,0,0,0,87.55,75Z" />
    <path d="M112.67,71.92l1.71,1.43A21.85,21.85,0,0,1,110.06,77L108.94,75A20.06,20.06,0,0,0,112.67,71.92Z" />
    <path d="M109,41.89l1.12-2a22.46,22.46,0,0,1,4.35,3.66l-1.73,1.45A19.52,19.52,0,0,0,109,41.89Z" />
    <g>
      <path d="M214.63,86.62H210.1V79.85h1.8V85h2.73Z" />
      <path d="M219.55,84.56h-3.08a1.27,1.27,0,0,0,1.24,1,3.8,3.8,0,0,0,1.73-.5v1.09a4.19,4.19,0,0,1-.82.37,4.29,4.29,0,0,1-1.24.16,2.6,2.6,0,0,1-1.37-.34,2.18,2.18,0,0,1-.85-.93,3,3,0,0,1-.28-1.33,2.93,2.93,0,0,1,.28-1.31,2.08,2.08,0,0,1,.85-.91,2.7,2.7,0,0,1,1.37-.33,2.22,2.22,0,0,1,1,.26,2,2,0,0,1,.82.86,3.22,3.22,0,0,1,.32,1.53Zm-1.45-.87a1.25,1.25,0,0,0-.21-.76.7.7,0,0,0-.6-.29.79.79,0,0,0-.63.29,1.23,1.23,0,0,0-.23.76Z" />
      <path d="M224.57,81.65l-2,5h-1.14l-1.95-5h1.66l.91,2.6,1-2.6Z" />
      <path d="M229.22,84.56h-3.08a1.27,1.27,0,0,0,1.24,1,3.77,3.77,0,0,0,1.73-.5v1.09a3.65,3.65,0,0,1-2.05.53,2.62,2.62,0,0,1-1.38-.34,2.18,2.18,0,0,1-.85-.93,3.13,3.13,0,0,1-.28-1.33,3.07,3.07,0,0,1,.28-1.31,2.08,2.08,0,0,1,.85-.91,2.71,2.71,0,0,1,1.38-.33,2.25,2.25,0,0,1,1,.26,2,2,0,0,1,.81.86,3.1,3.1,0,0,1,.32,1.53Zm-1.45-.87a1.25,1.25,0,0,0-.21-.76.7.7,0,0,0-.6-.29.78.78,0,0,0-.62.29,1.17,1.17,0,0,0-.24.76Z" />
      <path d="M231.26,86.62h-1.55V79.85h1.55Z" />
      <path d="M238.65,85.16H238v1.46h-1.59V85.16h-2.42V83.87l2.73-4H238V84h.7ZM236.36,84V81.83L234.88,84Z" />
    </g>
    <path d="M224.16,38.68a19.76,19.76,0,0,0-2.45.17l-.39-2.21a21.32,21.32,0,0,1,5.68,0l-.39,2.21A19.76,19.76,0,0,0,224.16,38.68Z" />
    <path d="M209.67,45.05l-1.73-1.45A22,22,0,0,1,212.28,40l1.12,1.94A19.77,19.77,0,0,0,209.67,45.05Z" />
    <path d="M215.13,40.88,214,38.94a22.31,22.31,0,0,1,5.34-2l.39,2.22A19.85,19.85,0,0,0,215.13,40.88Z" />
    <path d="M205.93,50.82l-2.1-.77a22.16,22.16,0,0,1,2.83-4.91l1.73,1.45A19.81,19.81,0,0,0,205.93,50.82Z" />
    <path d="M228.58,39.2,229,37a22.31,22.31,0,0,1,5.34,2l-1.12,1.94A19.68,19.68,0,0,0,228.58,39.2Z" />
    <path d="M204.44,57.52h-2.25a22,22,0,0,1,1-5.59l2.1.77A20.17,20.17,0,0,0,204.44,57.52Z" />
    <path d="M205.31,64.31l-2.1.77a21.73,21.73,0,0,1-1-5.56h2.23A19.76,19.76,0,0,0,205.31,64.31Z" />
    <path d="M208.45,70.4l-1.72,1.43A22.16,22.16,0,0,1,203.89,67l2.11-.77A19.7,19.7,0,0,0,208.45,70.4Z" />
    <path d="M239.93,46.59l1.73-1.45a21.78,21.78,0,0,1,2.83,4.91l-2.1.77A19.4,19.4,0,0,0,239.93,46.59Z" />
    <path d="M243.07,52.7l2.1-.77a21.54,21.54,0,0,1,1,5.58h-2.26A20.08,20.08,0,0,0,243.07,52.7Z" />
    <path d="M243.89,59.51h2.23a21.73,21.73,0,0,1-1,5.57l-2.1-.77A19.28,19.28,0,0,0,243.89,59.51Z" />
    <path d="M242.33,66.19l2.1.77a22.22,22.22,0,0,1-2.84,4.87l-1.71-1.44A20.24,20.24,0,0,0,242.33,66.19Z" />
    <path d="M213.47,75,212.35,77A22.45,22.45,0,0,1,208,73.36l1.71-1.44A19.68,19.68,0,0,0,213.47,75Z" />
    <path d="M238.58,71.92l1.71,1.44A21.86,21.86,0,0,1,236,77L234.86,75A20,20,0,0,0,238.58,71.92Z" />
    <path d="M234.92,41.89l1.12-2a22.4,22.4,0,0,1,4.34,3.66l-1.73,1.45A19.77,19.77,0,0,0,234.92,41.89Z" />
    <g>
      <path d="M151.67,86.62h-4.53V79.85h1.8V85h2.73Z" />
      <path d="M156.59,84.56h-3.08a1.27,1.27,0,0,0,1.24,1,3.8,3.8,0,0,0,1.73-.5v1.09a3.65,3.65,0,0,1-2,.53,2.62,2.62,0,0,1-1.38-.34,2.18,2.18,0,0,1-.85-.93,3.13,3.13,0,0,1-.28-1.33,3.07,3.07,0,0,1,.28-1.31,2.08,2.08,0,0,1,.85-.91,2.71,2.71,0,0,1,1.38-.33,2.28,2.28,0,0,1,1,.26,2,2,0,0,1,.81.86,3.1,3.1,0,0,1,.32,1.53Zm-1.45-.87a1.25,1.25,0,0,0-.21-.76.7.7,0,0,0-.6-.29.77.77,0,0,0-.62.29,1.17,1.17,0,0,0-.24.76Z" />
      <path d="M161.61,81.65l-2,5h-1.14l-1.95-5h1.67l.9,2.6,1-2.6Z" />
      <path d="M166.27,84.56h-3.09a1.27,1.27,0,0,0,.45.74,1.23,1.23,0,0,0,.8.29,3.77,3.77,0,0,0,1.72-.5v1.09a3.94,3.94,0,0,1-.82.37,4.17,4.17,0,0,1-1.23.16,2.62,2.62,0,0,1-1.38-.34,2.16,2.16,0,0,1-.84-.93,3,3,0,0,1-.29-1.33,2.93,2.93,0,0,1,.29-1.31,2.05,2.05,0,0,1,.84-.91,2.71,2.71,0,0,1,1.38-.33,2.22,2.22,0,0,1,1,.26,2.07,2.07,0,0,1,.82.86,3.22,3.22,0,0,1,.32,1.53Zm-1.46-.87a1.25,1.25,0,0,0-.21-.76.68.68,0,0,0-.6-.29.78.78,0,0,0-.62.29,1.17,1.17,0,0,0-.24.76Z" />
      <path d="M168.3,86.62h-1.55V79.85h1.55Z" />
      <path d="M175.3,84.74a1.94,1.94,0,0,1-.19.91,1.72,1.72,0,0,1-.48.61,2,2,0,0,1-.65.34,2.16,2.16,0,0,1-.65.11,4.21,4.21,0,0,1-1-.14,4.8,4.8,0,0,1-.92-.35V84.7a3.63,3.63,0,0,0,.65.48,1.46,1.46,0,0,0,.72.19.86.86,0,0,0,.47-.12.74.74,0,0,0,.29-.29.86.86,0,0,0,.1-.38.88.88,0,0,0-.12-.46.91.91,0,0,0-.35-.32,1.12,1.12,0,0,0-.53-.12h-.19V82.59h.22a.87.87,0,0,0,.5-.13.81.81,0,0,0,.37-.66.8.8,0,0,0-.21-.54.68.68,0,0,0-.54-.24,1.61,1.61,0,0,0-.62.13,2.57,2.57,0,0,0-.6.34v-1.3a5.44,5.44,0,0,1,.8-.31,2.64,2.64,0,0,1,.83-.12,2,2,0,0,1,1.13.3,1.88,1.88,0,0,1,.66.72,1.76,1.76,0,0,1,.21.79,1.66,1.66,0,0,1-.12.61,1.62,1.62,0,0,1-.3.53,1.5,1.5,0,0,1-.39.37,2,2,0,0,1,.63.6A1.73,1.73,0,0,1,175.3,84.74Z" />
    </g>
    <path d="M161.2,38.68a19.9,19.9,0,0,0-2.45.17l-.39-2.21a21.4,21.4,0,0,1,5.69,0l-.39,2.21A19.92,19.92,0,0,0,161.2,38.68Z" />
    <path d="M146.71,45.05,145,43.6A22.3,22.3,0,0,1,149.32,40l1.13,1.94A19.52,19.52,0,0,0,146.71,45.05Z" />
    <path d="M152.18,40.88l-1.13-1.94a22.31,22.31,0,0,1,5.34-2l.39,2.22A19.61,19.61,0,0,0,152.18,40.88Z" />
    <path d="M143,50.82l-2.1-.77a22.16,22.16,0,0,1,2.83-4.91l1.73,1.45A19.81,19.81,0,0,0,143,50.82Z" />
    <path d="M165.63,39.2,166,37a22,22,0,0,1,5.34,2l-1.12,1.94A19.77,19.77,0,0,0,165.63,39.2Z" />
    <path d="M141.49,57.52h-2.26a22,22,0,0,1,1-5.59l2.11.77A19.68,19.68,0,0,0,141.49,57.52Z" />
    <path d="M142.35,64.31l-2.1.77a22.17,22.17,0,0,1-1-5.56h2.24A19.75,19.75,0,0,0,142.35,64.31Z" />
    <path d="M145.49,70.39l-1.71,1.44A21.77,21.77,0,0,1,140.94,67l2.1-.77A19.39,19.39,0,0,0,145.49,70.39Z" />
    <path d="M177,46.59l1.73-1.45a22.56,22.56,0,0,1,2.83,4.91l-2.11.77A19.36,19.36,0,0,0,177,46.59Z" />
    <path d="M180.11,52.7l2.11-.77a22,22,0,0,1,1,5.58h-2.26A19.6,19.6,0,0,0,180.11,52.7Z" />
    <path d="M180.93,59.51h2.24a22.17,22.17,0,0,1-1,5.57l-2.1-.77A19.74,19.74,0,0,0,180.93,59.51Z" />
    <path d="M179.37,66.19l2.1.77a22.22,22.22,0,0,1-2.84,4.87l-1.71-1.44A20.05,20.05,0,0,0,179.37,66.19Z" />
    <path d="M150.51,75,149.39,77a22.45,22.45,0,0,1-4.32-3.61l1.72-1.44A19.62,19.62,0,0,0,150.51,75Z" />
    <path d="M175.62,71.92l1.72,1.43A22.14,22.14,0,0,1,173,77L171.9,75A20,20,0,0,0,175.62,71.92Z" />
    <path d="M172,41.89l1.12-2a22.4,22.4,0,0,1,4.34,3.66l-1.72,1.45A19.83,19.83,0,0,0,172,41.89Z" />
    <g>
      <path d="M29.59,174.14a2.28,2.28,0,0,1-.12.73,1.9,1.9,0,0,1-.36.67,1.81,1.81,0,0,1-.69.5,2.43,2.43,0,0,1-1,.2H26.23v2.53h-1.8V172h3a2.43,2.43,0,0,1,1,.19,1.83,1.83,0,0,1,.69.51,2,2,0,0,1,.36.68A2.36,2.36,0,0,1,29.59,174.14Zm-1.83,0a.79.79,0,0,0-.25-.67,1.75,1.75,0,0,0-.9-.17h-.38v1.63h.39a2.44,2.44,0,0,0,.68-.07.56.56,0,0,0,.35-.23A.94.94,0,0,0,27.76,174.15Z" />
      <path d="M34.52,178.53a6.53,6.53,0,0,1-.63.24,2.31,2.31,0,0,1-.69.09.73.73,0,0,1-.53-.15.87.87,0,0,1-.22-.37,2.53,2.53,0,0,1-.55.37,1.84,1.84,0,0,1-.8.15,1.35,1.35,0,0,1-.77-.19,1,1,0,0,1-.42-.47,1.51,1.51,0,0,1-.11-.59,1.31,1.31,0,0,1,.2-.76,1.63,1.63,0,0,1,.55-.49,6.48,6.48,0,0,1,.91-.39l.49-.18.24-.1.17-.08a1.15,1.15,0,0,0-.12-.57.63.63,0,0,0-.56-.21,1.82,1.82,0,0,0-.94.26,3.51,3.51,0,0,0-.8.65V174.4a2.69,2.69,0,0,1,.62-.39,3.55,3.55,0,0,1,.7-.22,3.71,3.71,0,0,1,.74-.07,2.16,2.16,0,0,1,1.43.41,1.46,1.46,0,0,1,.48,1.15v1.92a1.37,1.37,0,0,0,.05.41.16.16,0,0,0,.16.13.83.83,0,0,0,.4-.14Zm-2.16-1V176.4a4.72,4.72,0,0,0-.8.45.67.67,0,0,0-.25.55.52.52,0,0,0,.12.38.42.42,0,0,0,.3.14.63.63,0,0,0,.31-.1A1.85,1.85,0,0,0,32.36,177.57Z" />
      <path d="M39.32,178.77H37.77v-2.68a1.93,1.93,0,0,0-.11-.71.5.5,0,0,0-.52-.31.67.67,0,0,0-.33.08,1.09,1.09,0,0,0-.26.21,1.84,1.84,0,0,0-.19.25,2.72,2.72,0,0,0-.16.25v2.91H34.65v-5H36.2v.72a2.28,2.28,0,0,1,.73-.63,2,2,0,0,1,.82-.17c1,0,1.57.71,1.57,2.14Z" />
      <path d="M45.09,178.77H43.46V172h1.63Z" />
    </g>
    <path d="M35.29,130.83a19.76,19.76,0,0,0-2.45.17l-.4-2.21a22.49,22.49,0,0,1,2.85-.19,22.21,22.21,0,0,1,2.84.19L37.74,131A19.76,19.76,0,0,0,35.29,130.83Z" />
    <path d="M20.8,137.21l-1.73-1.45a22.06,22.06,0,0,1,4.34-3.66L24.53,134A19.82,19.82,0,0,0,20.8,137.21Z" />
    <path d="M26.26,133l-1.12-1.95a21.72,21.72,0,0,1,5.34-2l.39,2.21A19.27,19.27,0,0,0,26.26,133Z" />
    <path d="M17.06,143l-2.1-.76a21.63,21.63,0,0,1,2.83-4.92l1.73,1.45A19.4,19.4,0,0,0,17.06,143Z" />
    <path d="M39.71,131.35l.39-2.21a21.87,21.87,0,0,1,5.34,2L44.31,133A19.19,19.19,0,0,0,39.71,131.35Z" />
    <path d="M15.57,149.67H13.31a21.89,21.89,0,0,1,1-5.58l2.1.77A20.08,20.08,0,0,0,15.57,149.67Z" />
    <path d="M16.44,156.47l-2.1.76a21.57,21.57,0,0,1-1-5.56h2.23A19.45,19.45,0,0,0,16.44,156.47Z" />
    <path d="M19.58,162.55,17.86,164A22.46,22.46,0,0,1,15,159.11l2.1-.77A20.17,20.17,0,0,0,19.58,162.55Z" />
    <path d="M51.06,138.74l1.73-1.45a22,22,0,0,1,2.83,4.92l-2.1.76A19.81,19.81,0,0,0,51.06,138.74Z" />
    <path d="M54.19,144.85l2.11-.76a21.38,21.38,0,0,1,1,5.58H55A19.69,19.69,0,0,0,54.19,144.85Z" />
    <path d="M55,151.67h2.23a21.65,21.65,0,0,1-1,5.56l-2.1-.76A19.45,19.45,0,0,0,55,151.67Z" />
    <path d="M53.45,158.34l2.11.77A22.46,22.46,0,0,1,52.72,164L51,162.55A19.7,19.7,0,0,0,53.45,158.34Z" />
    <path d="M24.6,167.19l-1.12,1.93a21.8,21.8,0,0,1-4.32-3.61l1.71-1.44A19.37,19.37,0,0,0,24.6,167.19Z" />
    <path d="M49.71,164.07l1.71,1.44a21.8,21.8,0,0,1-4.32,3.61L46,167.19A19.68,19.68,0,0,0,49.71,164.07Z" />
    <path d="M46,134l1.13-1.94a22.06,22.06,0,0,1,4.34,3.66l-1.73,1.44A19.88,19.88,0,0,0,46,134Z" />
    <g>
      <path d="M92.55,174.14a2.28,2.28,0,0,1-.12.73,1.93,1.93,0,0,1-.37.67,1.77,1.77,0,0,1-.68.5,2.47,2.47,0,0,1-1,.2H89.19v2.53h-1.8V172h3a2.48,2.48,0,0,1,1,.19,1.79,1.79,0,0,1,.68.51,2,2,0,0,1,.37.68A2.36,2.36,0,0,1,92.55,174.14Zm-1.84,0a.76.76,0,0,0-.25-.67,1.7,1.7,0,0,0-.9-.17h-.37v1.63h.38a2.47,2.47,0,0,0,.69-.07.56.56,0,0,0,.35-.23A.94.94,0,0,0,90.71,174.15Z" />
      <path d="M97.47,178.53a5.56,5.56,0,0,1-.62.24,2.36,2.36,0,0,1-.69.09.76.76,0,0,1-.54-.15.85.85,0,0,1-.21-.37,2.37,2.37,0,0,1-.56.37,1.81,1.81,0,0,1-.8.15,1.4,1.4,0,0,1-.77-.19,1,1,0,0,1-.41-.47,1.52,1.52,0,0,1-.12-.59,1.31,1.31,0,0,1,.21-.76,1.51,1.51,0,0,1,.54-.49,7,7,0,0,1,.91-.39l.49-.18.25-.1.17-.08a1,1,0,0,0-.13-.57c-.08-.14-.27-.21-.56-.21a1.85,1.85,0,0,0-.94.26,3.46,3.46,0,0,0-.79.65V174.4a2.69,2.69,0,0,1,.62-.39,3.35,3.35,0,0,1,.7-.22,3.71,3.71,0,0,1,.74-.07,2.18,2.18,0,0,1,1.43.41,1.46,1.46,0,0,1,.48,1.15v1.92a1.44,1.44,0,0,0,0,.41.17.17,0,0,0,.17.13.77.77,0,0,0,.39-.14Zm-2.15-1V176.4a4.72,4.72,0,0,0-.8.45.68.68,0,0,0-.26.55.53.53,0,0,0,.13.38.41.41,0,0,0,.3.14.63.63,0,0,0,.31-.1A2.33,2.33,0,0,0,95.32,177.57Z" />
      <path d="M102.28,178.77h-1.55v-2.68a1.92,1.92,0,0,0-.12-.71.5.5,0,0,0-.51-.31.74.74,0,0,0-.34.08,1.71,1.71,0,0,0-.26.21l-.19.25-.16.25v2.91H97.61v-5h1.54v.72a2.3,2.3,0,0,1,.74-.63,2,2,0,0,1,.82-.17c1,0,1.57.71,1.57,2.14Z" />
      <path d="M109.51,178.77H105v-.13c.18-.19.37-.42.58-.69s.48-.62.81-1c.15-.2.29-.4.42-.59a3.81,3.81,0,0,0,.34-.56,2.69,2.69,0,0,0,.24-.6,2.18,2.18,0,0,0,.1-.67,1.23,1.23,0,0,0-.23-.76.78.78,0,0,0-.61-.29,2,2,0,0,0-1.46.86V172.7l.42-.3a2.71,2.71,0,0,1,.38-.22,3.51,3.51,0,0,1,.5-.19,2.59,2.59,0,0,1,.63-.08,2,2,0,0,1,1,.26,1.8,1.8,0,0,1,.7.72,2.33,2.33,0,0,1,.26,1.11,2.84,2.84,0,0,1-.12.84,4.22,4.22,0,0,1-.24.63c-.08.16-.2.36-.33.6-.25.41-.51.81-.79,1.19h1.93Z" />
    </g>
    <path d="M98.25,130.83a19.92,19.92,0,0,0-2.46.17l-.39-2.21a21.4,21.4,0,0,1,5.69,0L100.7,131A19.9,19.9,0,0,0,98.25,130.83Z" />
    <path d="M83.75,137.21,82,135.76a22.06,22.06,0,0,1,4.34-3.66L87.49,134A19.88,19.88,0,0,0,83.75,137.21Z" />
    <path d="M89.22,133l-1.12-1.95a21.64,21.64,0,0,1,5.33-2l.39,2.21A19.35,19.35,0,0,0,89.22,133Z" />
    <path d="M80,143l-2.1-.76a21.63,21.63,0,0,1,2.83-4.92l1.72,1.45A19.36,19.36,0,0,0,80,143Z" />
    <path d="M102.67,131.35l.39-2.21a21.64,21.64,0,0,1,5.33,2L107.27,133A19.19,19.19,0,0,0,102.67,131.35Z" />
    <path d="M78.53,149.67H76.27a21.88,21.88,0,0,1,1-5.58l2.11.77A19.6,19.6,0,0,0,78.53,149.67Z" />
    <path d="M79.39,156.47l-2.1.76a21.56,21.56,0,0,1-1-5.56h2.23A19.92,19.92,0,0,0,79.39,156.47Z" />
    <path d="M82.53,162.55,80.82,164A22.06,22.06,0,0,1,78,159.11l2.1-.77A20.12,20.12,0,0,0,82.53,162.55Z" />
    <path d="M114,138.74l1.73-1.45a22,22,0,0,1,2.83,4.92l-2.1.76A19.81,19.81,0,0,0,114,138.74Z" />
    <path d="M117.15,144.85l2.11-.76a21.81,21.81,0,0,1,1,5.58H118A19.68,19.68,0,0,0,117.15,144.85Z" />
    <path d="M118,151.67h2.24a21.65,21.65,0,0,1-1,5.56l-2.1-.76A19.92,19.92,0,0,0,118,151.67Z" />
    <path d="M116.41,158.34l2.11.77a22.46,22.46,0,0,1-2.84,4.88L114,162.55A19.7,19.7,0,0,0,116.41,158.34Z" />
    <path d="M87.55,167.19l-1.11,1.94a21.91,21.91,0,0,1-4.32-3.62l1.71-1.44A19.62,19.62,0,0,0,87.55,167.19Z" />
    <path d="M112.67,164.07l1.71,1.44a22.2,22.2,0,0,1-4.32,3.62l-1.12-1.94A19.68,19.68,0,0,0,112.67,164.07Z" />
    <path d="M109,134l1.12-1.94a22.12,22.12,0,0,1,4.35,3.66l-1.73,1.45A19.57,19.57,0,0,0,109,134Z" />
    <g>
      <path d="M218.46,174.14a2.58,2.58,0,0,1-.11.73,2.11,2.11,0,0,1-.37.67,1.81,1.81,0,0,1-.69.5,2.39,2.39,0,0,1-1,.2H215.1v2.53h-1.8V172h3a2.4,2.4,0,0,1,1,.19,1.83,1.83,0,0,1,.69.51,2.16,2.16,0,0,1,.37.68A2.67,2.67,0,0,1,218.46,174.14Zm-1.83,0a.76.76,0,0,0-.25-.67,1.75,1.75,0,0,0-.9-.17h-.38v1.63h.39a2.39,2.39,0,0,0,.68-.07.56.56,0,0,0,.35-.23A.94.94,0,0,0,216.63,174.15Z" />
      <path d="M223.39,178.53a6.53,6.53,0,0,1-.63.24,2.31,2.31,0,0,1-.69.09.75.75,0,0,1-.53-.15,1,1,0,0,1-.22-.37,2.31,2.31,0,0,1-.55.37,1.81,1.81,0,0,1-.8.15,1.35,1.35,0,0,1-.77-.19.93.93,0,0,1-.41-.47,1.52,1.52,0,0,1-.12-.59,1.39,1.39,0,0,1,.2-.76,1.63,1.63,0,0,1,.55-.49,6.48,6.48,0,0,1,.91-.39l.49-.18.25-.1.17-.08a1.14,1.14,0,0,0-.13-.57c-.09-.14-.27-.21-.56-.21a1.82,1.82,0,0,0-.94.26,3.51,3.51,0,0,0-.8.65V174.4a2.75,2.75,0,0,1,.63-.39,3.18,3.18,0,0,1,.7-.22,3.64,3.64,0,0,1,.74-.07,2.13,2.13,0,0,1,1.42.41,1.46,1.46,0,0,1,.48,1.15v1.92a1.37,1.37,0,0,0,.05.41.16.16,0,0,0,.16.13.83.83,0,0,0,.4-.14Zm-2.15-1V176.4a4.5,4.5,0,0,0-.81.45.67.67,0,0,0-.25.55.49.49,0,0,0,.13.38.38.38,0,0,0,.29.14.66.66,0,0,0,.32-.1A3.14,3.14,0,0,0,221.24,177.57Z" />
      <path d="M228.19,178.77h-1.54v-2.68a1.92,1.92,0,0,0-.12-.71.5.5,0,0,0-.52-.31.67.67,0,0,0-.33.08,1.33,1.33,0,0,0-.26.21,1.84,1.84,0,0,0-.19.25,2.72,2.72,0,0,0-.16.25v2.91h-1.55v-5h1.55v.72a2.28,2.28,0,0,1,.73-.63,2,2,0,0,1,.82-.17c1,0,1.57.71,1.57,2.14Z" />
      <path d="M235.45,177.32h-.71v1.45h-1.58v-1.45h-2.42V176l2.73-4h1.27v4.14h.71Zm-2.29-1.17V174l-1.48,2.17Z" />
    </g>
    <path d="M224.16,130.83a19.76,19.76,0,0,0-2.45.17l-.39-2.21a21.32,21.32,0,0,1,5.68,0l-.39,2.21A19.76,19.76,0,0,0,224.16,130.83Z" />
    <path d="M209.67,137.21l-1.73-1.45a22.06,22.06,0,0,1,4.34-3.66L213.4,134A20.2,20.2,0,0,0,209.67,137.21Z" />
    <path d="M215.13,133,214,131.09a21.87,21.87,0,0,1,5.34-2l.39,2.21A19.43,19.43,0,0,0,215.13,133Z" />
    <path d="M205.93,143l-2.1-.76a22,22,0,0,1,2.83-4.92l1.73,1.45A19.81,19.81,0,0,0,205.93,143Z" />
    <path d="M228.58,131.35l.39-2.21a21.87,21.87,0,0,1,5.34,2L233.19,133A19.27,19.27,0,0,0,228.58,131.35Z" />
    <path d="M204.44,149.67h-2.25a21.88,21.88,0,0,1,1-5.58l2.1.77A20.08,20.08,0,0,0,204.44,149.67Z" />
    <path d="M205.31,156.47l-2.1.76a21.57,21.57,0,0,1-1-5.56h2.23A19.93,19.93,0,0,0,205.31,156.47Z" />
    <path d="M208.45,162.55,206.73,164a22.46,22.46,0,0,1-2.84-4.88l2.11-.77A19.7,19.7,0,0,0,208.45,162.55Z" />
    <path d="M239.93,138.74l1.73-1.45a21.63,21.63,0,0,1,2.83,4.92l-2.1.76A19.4,19.4,0,0,0,239.93,138.74Z" />
    <path d="M243.07,144.85l2.1-.76a21.39,21.39,0,0,1,1,5.58h-2.26A20.17,20.17,0,0,0,243.07,144.85Z" />
    <path d="M243.89,151.67h2.23a21.65,21.65,0,0,1-1,5.56l-2.1-.76A19.45,19.45,0,0,0,243.89,151.67Z" />
    <path d="M242.33,158.34l2.1.77a22.06,22.06,0,0,1-2.84,4.88l-1.71-1.44A20.57,20.57,0,0,0,242.33,158.34Z" />
    <path d="M213.47,167.19l-1.12,1.94a22.5,22.5,0,0,1-4.32-3.62l1.71-1.44A19.68,19.68,0,0,0,213.47,167.19Z" />
    <path d="M238.58,164.07l1.71,1.44a21.91,21.91,0,0,1-4.32,3.62l-1.11-1.94A19.62,19.62,0,0,0,238.58,164.07Z" />
    <path d="M234.92,134,236,132.1a22.06,22.06,0,0,1,4.34,3.66l-1.73,1.45A19.82,19.82,0,0,0,234.92,134Z" />
    <g>
      <path d="M155.5,174.14a2.58,2.58,0,0,1-.11.73,2.11,2.11,0,0,1-.37.67,1.85,1.85,0,0,1-.68.5,2.47,2.47,0,0,1-1,.2h-1.18v2.53h-1.79V172h3a2.48,2.48,0,0,1,1,.19,1.87,1.87,0,0,1,.68.51,2.16,2.16,0,0,1,.37.68A2.67,2.67,0,0,1,155.5,174.14Zm-1.83,0a.76.76,0,0,0-.25-.67,1.75,1.75,0,0,0-.9-.17h-.38v1.63h.39a2.47,2.47,0,0,0,.69-.07.59.59,0,0,0,.35-.23A.94.94,0,0,0,153.67,174.15Z" />
      <path d="M160.43,178.53a5,5,0,0,1-.63.24,2.31,2.31,0,0,1-.69.09.75.75,0,0,1-.53-.15.85.85,0,0,1-.21-.37,2.59,2.59,0,0,1-.56.37,1.81,1.81,0,0,1-.8.15,1.37,1.37,0,0,1-.77-.19,1,1,0,0,1-.41-.47,1.52,1.52,0,0,1-.12-.59,1.39,1.39,0,0,1,.2-.76,1.63,1.63,0,0,1,.55-.49,7,7,0,0,1,.91-.39l.49-.18.25-.1.17-.08a1,1,0,0,0-.13-.57c-.09-.14-.27-.21-.56-.21a1.82,1.82,0,0,0-.94.26,3.46,3.46,0,0,0-.79.65V174.4a2.69,2.69,0,0,1,.62-.39,3.35,3.35,0,0,1,.7-.22,3.64,3.64,0,0,1,.74-.07,2.18,2.18,0,0,1,1.43.41,1.46,1.46,0,0,1,.48,1.15v1.92a1.44,1.44,0,0,0,0,.41.17.17,0,0,0,.17.13.8.8,0,0,0,.39-.14Zm-2.15-1V176.4a4,4,0,0,0-.8.45.68.68,0,0,0-.26.55.49.49,0,0,0,.13.38.38.38,0,0,0,.29.14.66.66,0,0,0,.32-.1A3.14,3.14,0,0,0,158.28,177.57Z" />
      <path d="M165.24,178.77h-1.55v-2.68a1.92,1.92,0,0,0-.12-.71.5.5,0,0,0-.52-.31.73.73,0,0,0-.33.08,1.33,1.33,0,0,0-.26.21c-.07.09-.14.17-.19.25l-.16.25v2.91h-1.54v-5h1.54v.72a2.39,2.39,0,0,1,.73-.63,2,2,0,0,1,.82-.17c1.05,0,1.58.71,1.58,2.14Z" />
      <path d="M172.09,176.9a2.06,2.06,0,0,1-.18.9,1.78,1.78,0,0,1-.49.62,2.08,2.08,0,0,1-.64.34,2.25,2.25,0,0,1-.66.1,3.81,3.81,0,0,1-1-.14,4.12,4.12,0,0,1-.91-.35v-1.51a3.25,3.25,0,0,0,.65.47,1.44,1.44,0,0,0,.72.19.88.88,0,0,0,.47-.11.8.8,0,0,0,.28-.3.72.72,0,0,0,.1-.38.9.9,0,0,0-.12-.46A.76.76,0,0,0,170,176a1.12,1.12,0,0,0-.53-.12h-.19v-1.09h.23a.84.84,0,0,0,.49-.14.72.72,0,0,0,.29-.31.93.93,0,0,0,.08-.34.81.81,0,0,0-.21-.55.66.66,0,0,0-.54-.24,1.76,1.76,0,0,0-.61.13,2.52,2.52,0,0,0-.6.34v-1.3a6.74,6.74,0,0,1,.79-.31,2.75,2.75,0,0,1,.84-.12,2,2,0,0,1,1.12.3,1.83,1.83,0,0,1,.67.72,1.8,1.8,0,0,1,.21.8,1.61,1.61,0,0,1-.12.6,2.35,2.35,0,0,1-.3.54,1.83,1.83,0,0,1-.39.36,2.24,2.24,0,0,1,.63.6A1.82,1.82,0,0,1,172.09,176.9Z" />
    </g>
    <path d="M161.2,130.83a19.9,19.9,0,0,0-2.45.17l-.39-2.21a21.4,21.4,0,0,1,5.69,0l-.39,2.21A19.92,19.92,0,0,0,161.2,130.83Z" />
    <path d="M146.71,137.21,145,135.76a22.35,22.35,0,0,1,4.34-3.66l1.13,1.94A19.57,19.57,0,0,0,146.71,137.21Z" />
    <path d="M152.18,133l-1.13-1.95a21.87,21.87,0,0,1,5.34-2l.39,2.21A19.19,19.19,0,0,0,152.18,133Z" />
    <path d="M143,143l-2.1-.76a22,22,0,0,1,2.83-4.92l1.73,1.45A19.81,19.81,0,0,0,143,143Z" />
    <path d="M165.63,131.35l.38-2.21a21.57,21.57,0,0,1,5.34,2L170.23,133A19.35,19.35,0,0,0,165.63,131.35Z" />
    <path d="M141.49,149.67h-2.26a21.88,21.88,0,0,1,1-5.58l2.11.77A19.6,19.6,0,0,0,141.49,149.67Z" />
    <path d="M142.35,156.47l-2.1.76a22,22,0,0,1-1-5.56h2.24A19.92,19.92,0,0,0,142.35,156.47Z" />
    <path d="M145.49,162.55,143.78,164a22.06,22.06,0,0,1-2.84-4.88l2.1-.77A19.7,19.7,0,0,0,145.49,162.55Z" />
    <path d="M177,138.74l1.73-1.45a22.4,22.4,0,0,1,2.83,4.92l-2.11.76A19.36,19.36,0,0,0,177,138.74Z" />
    <path d="M180.11,144.85l2.11-.76a21.81,21.81,0,0,1,1,5.58h-2.26A19.68,19.68,0,0,0,180.11,144.85Z" />
    <path d="M180.93,151.67h2.24a22.09,22.09,0,0,1-1,5.56l-2.1-.76A19.92,19.92,0,0,0,180.93,151.67Z" />
    <path d="M179.37,158.34l2.1.77a22.06,22.06,0,0,1-2.84,4.88l-1.71-1.44A20.12,20.12,0,0,0,179.37,158.34Z" />
    <path d="M150.51,167.19l-1.12,1.94a22.5,22.5,0,0,1-4.32-3.62l1.72-1.44A19.62,19.62,0,0,0,150.51,167.19Z" />
    <path d="M175.62,164.07l1.72,1.44a22.5,22.5,0,0,1-4.32,3.62l-1.12-1.94A19.62,19.62,0,0,0,175.62,164.07Z" />
    <path d="M172,134l1.12-1.94a22.06,22.06,0,0,1,4.34,3.66l-1.72,1.45A19.88,19.88,0,0,0,172,134Z" />
    <path d="M227.05,206.39H32.39a14.22,14.22,0,0,0-14.17,14.17V297.1a5.68,5.68,0,0,0,5.67,5.67H235.56a5.68,5.68,0,0,0,5.67-5.67V220.56A14.22,14.22,0,0,0,227.05,206.39Z" style="fill: #ededed;stroke: #000;stroke-miterlimit: 10" />
    <g>
      <path d="M27.8,247.84H26.36v-5.42H27.8Z" />
      <path d="M32.25,247.84H31v-2.15a1.66,1.66,0,0,0-.1-.57.39.39,0,0,0-.41-.24.6.6,0,0,0-.27.06.82.82,0,0,0-.2.17,1.24,1.24,0,0,0-.16.19l-.13.2v2.34H28.52v-4h1.23v.57a2,2,0,0,1,.59-.5,1.59,1.59,0,0,1,.66-.14c.83,0,1.25.57,1.25,1.71Z" />
      <path d="M36.87,247.84H35.56v-5.42h1.31Z" />
      <path d="M44.06,247.84H40.44v-5.42h1.43v4.12h2.19Z" />
    </g>
    <g>
      <path d="M90.83,247.84H89.4v-5.42h1.43Z" />
      <path d="M95.29,247.84H94.05v-2.15a1.66,1.66,0,0,0-.09-.57.41.41,0,0,0-.42-.24.6.6,0,0,0-.27.06,1.06,1.06,0,0,0-.2.17l-.15.19-.13.2v2.34H91.55v-4h1.24v.57a2,2,0,0,1,.58-.5,1.59,1.59,0,0,1,.66-.14q1.26,0,1.26,1.71Z" />
      <path d="M101.07,247.84H97.45v-.11c.14-.15.29-.33.46-.55l.65-.84.34-.47a3.82,3.82,0,0,0,.27-.45,3.45,3.45,0,0,0,.2-.48,1.88,1.88,0,0,0,.07-.53.91.91,0,0,0-.19-.61.57.57,0,0,0-.48-.23,1.59,1.59,0,0,0-1.17.68V243l.34-.24.3-.18a1.86,1.86,0,0,1,.4-.15,2.1,2.1,0,0,1,.51-.06,1.63,1.63,0,0,1,.79.2,1.42,1.42,0,0,1,.56.58,1.83,1.83,0,0,1,.21.89,2.36,2.36,0,0,1-.09.67,3.39,3.39,0,0,1-.2.51c-.06.13-.15.28-.26.47s-.41.65-.63,1h1.54Z" />
      <path d="M107.09,247.84h-3.62v-5.42h1.44v4.12h2.18Z" />
    </g>
    <g>
      <path d="M153.87,247.84h-1.44v-5.42h1.44Z" />
      <path d="M158.32,247.84h-1.24v-2.15a1.66,1.66,0,0,0-.09-.57.39.39,0,0,0-.41-.24.57.57,0,0,0-.27.06.87.87,0,0,0-.21.17l-.15.19-.13.2v2.34h-1.23v-4h1.23v.57a2,2,0,0,1,.59-.5,1.55,1.55,0,0,1,.65-.14q1.26,0,1.26,1.71Z" />
      <path d="M163.81,246.34a1.59,1.59,0,0,1-.15.72,1.46,1.46,0,0,1-.39.49,1.6,1.6,0,0,1-.51.28,2,2,0,0,1-.53.08,3,3,0,0,1-.8-.12,2.94,2.94,0,0,1-.73-.27V246.3a2.66,2.66,0,0,0,.52.38,1.12,1.12,0,0,0,.57.16.74.74,0,0,0,.38-.09.75.75,0,0,0,.23-.24.67.67,0,0,0,.08-.3.66.66,0,0,0-.1-.37.65.65,0,0,0-.28-.26.93.93,0,0,0-.42-.09h-.15v-.87h.18a.72.72,0,0,0,.4-.11.58.58,0,0,0,.22-.25.61.61,0,0,0,.07-.28.63.63,0,0,0-.17-.43.53.53,0,0,0-.43-.19,1.26,1.26,0,0,0-.49.1,2.27,2.27,0,0,0-.48.27v-1a5.14,5.14,0,0,1,.63-.25,2.31,2.31,0,0,1,.67-.09,1.59,1.59,0,0,1,.9.24,1.39,1.39,0,0,1,.53.58,1.42,1.42,0,0,1,.17.63,1.36,1.36,0,0,1-.09.48,1.39,1.39,0,0,1-.25.43,1.24,1.24,0,0,1-.31.3,1.73,1.73,0,0,1,.51.47A1.44,1.44,0,0,1,163.81,246.34Z" />
      <path d="M170.12,247.84H166.5v-5.42h1.44v4.12h2.18Z" />
    </g>
    <g>
      <path d="M216.9,247.84h-1.44v-5.42h1.44Z" />
      <path d="M221.36,247.84h-1.24v-2.15a1.45,1.45,0,0,0-.1-.57.39.39,0,0,0-.41-.24.6.6,0,0,0-.27.06,1.06,1.06,0,0,0-.2.17l-.16.19-.12.2v2.34h-1.24v-4h1.24v.57a2,2,0,0,1,.58-.5,1.59,1.59,0,0,1,.66-.14q1.26,0,1.26,1.71Z" />
      <path d="M227.16,246.67h-.57v1.17h-1.26v-1.17h-1.94v-1l2.18-3.22h1v3.32h.57Zm-1.83-.93V244l-1.19,1.73Z" />
      <path d="M233.16,247.84h-3.62v-5.42H231v4.12h2.19Z" />
    </g>
    <g>
      <path d="M27.3,296.87H25.86v-5.41H27.3Z" />
      <path d="M31.76,296.87H30.52v-2.14a1.42,1.42,0,0,0-.1-.57.39.39,0,0,0-.41-.25.5.5,0,0,0-.27.07,1,1,0,0,0-.2.16l-.16.2-.12.2v2.33H28v-4h1.24v.57a1.73,1.73,0,0,1,.58-.5,1.45,1.45,0,0,1,.66-.14q1.26,0,1.26,1.71Z" />
      <path d="M36.37,296.87h-1.3v-5.41h1.3Z" />
      <path d="M44.55,296.87H43l-.38-1a3.7,3.7,0,0,0-.37-.77.83.83,0,0,0-.32-.31.93.93,0,0,0-.4-.07h-.16v2.11H39.94v-5.41h2.44a1.61,1.61,0,0,1,1,.27,1.67,1.67,0,0,1,.55.67,1.9,1.9,0,0,1,.16.74,1.47,1.47,0,0,1-.14.69,1.33,1.33,0,0,1-.29.42,3.53,3.53,0,0,1-.35.24,1.31,1.31,0,0,1,.38.36,4.48,4.48,0,0,1,.41.85Zm-1.95-3.7a.57.57,0,0,0-.22-.52,1.25,1.25,0,0,0-.7-.15h-.3v1.3h.3a1.32,1.32,0,0,0,.72-.13A.55.55,0,0,0,42.6,293.17Z" />
    </g>
    <g>
      <path d="M90.33,296.87H88.9v-5.41h1.43Z" />
      <path d="M94.79,296.87H93.55v-2.14a1.62,1.62,0,0,0-.09-.57.4.4,0,0,0-.42-.25.44.44,0,0,0-.26.07.83.83,0,0,0-.21.16l-.15.2-.13.2v2.33H91.05v-4h1.24v.57a1.75,1.75,0,0,1,.59-.5,1.38,1.38,0,0,1,.65-.14q1.26,0,1.26,1.71Z" />
      <path d="M100.57,296.87H97v-.1c.14-.16.3-.34.46-.55l.65-.85.34-.47a2.68,2.68,0,0,0,.27-.45,2.89,2.89,0,0,0,.2-.47,2,2,0,0,0,.08-.54,1,1,0,0,0-.19-.61.62.62,0,0,0-.49-.23,1.57,1.57,0,0,0-1.16.69V292l.33-.24a2.14,2.14,0,0,1,.3-.17,1.77,1.77,0,0,1,.41-.15,2,2,0,0,1,.5-.06,1.5,1.5,0,0,1,.79.2,1.45,1.45,0,0,1,.57.58,1.92,1.92,0,0,1,.2.89,2.41,2.41,0,0,1-.09.67,3,3,0,0,1-.19.5l-.27.48c-.2.33-.41.65-.63,1h1.54Z" />
      <path d="M107.59,296.87H106l-.37-1a4.3,4.3,0,0,0-.37-.77.78.78,0,0,0-.33-.31.9.9,0,0,0-.4-.07h-.16v2.11H103v-5.41h2.45a1.53,1.53,0,0,1,1.51.94,1.93,1.93,0,0,1,.17.74,1.6,1.6,0,0,1-.14.69,1.2,1.2,0,0,1-.3.42,3.33,3.33,0,0,1-.34.24,1.45,1.45,0,0,1,.38.36,4.64,4.64,0,0,1,.4.85Zm-2-3.7a.59.59,0,0,0-.21-.52,1.29,1.29,0,0,0-.71-.15h-.3v1.3h.31a1.36,1.36,0,0,0,.72-.13A.55.55,0,0,0,105.63,293.17Z" />
    </g>
    <g>
      <path d="M153.37,296.87h-1.44v-5.41h1.44Z" />
      <path d="M157.82,296.87h-1.23v-2.14a1.42,1.42,0,0,0-.1-.57.39.39,0,0,0-.41-.25.5.5,0,0,0-.27.07,1,1,0,0,0-.2.16,1.27,1.27,0,0,0-.16.2l-.12.2v2.33h-1.24v-4h1.24v.57a1.73,1.73,0,0,1,.58-.5,1.45,1.45,0,0,1,.66-.14c.84,0,1.25.57,1.25,1.71Z" />
      <path d="M163.31,295.37a1.64,1.64,0,0,1-.15.73,1.46,1.46,0,0,1-.39.49,1.79,1.79,0,0,1-.51.27,1.67,1.67,0,0,1-.53.08,2.94,2.94,0,0,1-.79-.11,3.28,3.28,0,0,1-.74-.28v-1.21a2.66,2.66,0,0,0,.52.38,1.22,1.22,0,0,0,.58.15.7.7,0,0,0,.37-.09.53.53,0,0,0,.23-.24.52.52,0,0,0,.08-.3.66.66,0,0,0-.1-.37.66.66,0,0,0-.27-.25.88.88,0,0,0-.43-.1H161v-.87h.18a.72.72,0,0,0,.4-.1.6.6,0,0,0,.22-.26.57.57,0,0,0,.07-.27.65.65,0,0,0-.16-.44.6.6,0,0,0-.44-.19,1.32,1.32,0,0,0-.49.11,1.64,1.64,0,0,0-.48.27v-1a4.82,4.82,0,0,1,.63-.25,2.36,2.36,0,0,1,.67-.09,1.64,1.64,0,0,1,.91.23,1.54,1.54,0,0,1,.53.58,1.44,1.44,0,0,1,.16.64,1.36,1.36,0,0,1-.09.48,1.49,1.49,0,0,1-.55.72,1.89,1.89,0,0,1,.5.48A1.39,1.39,0,0,1,163.31,295.37Z" />
      <path d="M170.62,296.87h-1.54l-.38-1a4.3,4.3,0,0,0-.37-.77.83.83,0,0,0-.32-.31,1,1,0,0,0-.4-.07h-.17v2.11H166v-5.41h2.44a1.53,1.53,0,0,1,1.51.94,1.76,1.76,0,0,1,.17.74,1.6,1.6,0,0,1-.14.69,1.33,1.33,0,0,1-.29.42,3.53,3.53,0,0,1-.35.24,1.45,1.45,0,0,1,.38.36,4.48,4.48,0,0,1,.41.85Zm-2-3.7a.6.6,0,0,0-.22-.52,1.25,1.25,0,0,0-.7-.15h-.31v1.3h.31a1.36,1.36,0,0,0,.72-.13A.55.55,0,0,0,168.67,293.17Z" />
    </g>
    <g>
      <path d="M216.4,296.87H215v-5.41h1.43Z" />
      <path d="M220.86,296.87h-1.24v-2.14a1.62,1.62,0,0,0-.09-.57.4.4,0,0,0-.42-.25.44.44,0,0,0-.26.07.83.83,0,0,0-.21.16l-.15.2-.13.2v2.33h-1.24v-4h1.24v.57a1.66,1.66,0,0,1,.59-.5,1.38,1.38,0,0,1,.65-.14q1.26,0,1.26,1.71Z" />
      <path d="M226.66,295.71h-.56v1.16h-1.27v-1.16h-1.94v-1l2.19-3.21h1v3.32h.56Zm-1.83-.93V293l-1.18,1.74Z" />
      <path d="M233.65,296.87h-1.54l-.37-1a4.2,4.2,0,0,0-.38-.77.77.77,0,0,0-.32-.31.93.93,0,0,0-.4-.07h-.16v2.11H229v-5.41h2.44a1.61,1.61,0,0,1,1,.27,1.59,1.59,0,0,1,.55.67,1.93,1.93,0,0,1,.17.74,1.6,1.6,0,0,1-.14.69,1.34,1.34,0,0,1-.3.42l-.34.24a1.45,1.45,0,0,1,.38.36,4.64,4.64,0,0,1,.4.85Zm-2-3.7a.57.57,0,0,0-.22-.52,1.23,1.23,0,0,0-.7-.15h-.3v1.3h.31a1.36,1.36,0,0,0,.72-.13A.55.55,0,0,0,231.7,293.17Z" />
    </g>
    <path d="M165.25,326.18h-4.53v-6.77h1.8v5.15h2.73Z" style="fill: #fff" />
    <path d="M234.67,326.18h-1.93l-.47-1.2a5.26,5.26,0,0,0-.46-1,1.11,1.11,0,0,0-.4-.39,1.43,1.43,0,0,0-.51-.08h-.2v2.64h-1.8v-6.77H232a2,2,0,0,1,1.21.34,2.07,2.07,0,0,1,.68.83,2.39,2.39,0,0,1,.21.93,1.93,1.93,0,0,1-.18.87,1.42,1.42,0,0,1-.36.51,3.8,3.8,0,0,1-.44.31,1.89,1.89,0,0,1,.48.45,7.1,7.1,0,0,1,.51,1.06Zm-2.44-4.63a.73.73,0,0,0-.27-.65,1.55,1.55,0,0,0-.88-.19h-.38v1.63h.39a1.77,1.77,0,0,0,.9-.16A.72.72,0,0,0,232.23,321.55Z" style="fill: #fff" />
    <g>
      <path d="M135.34,8.07l-5.53,7v-6a1.29,1.29,0,0,0-.64-1.17.89.89,0,0,0-1.13.29l-7.28,9.25a1.49,1.49,0,0,0,0,1.79.91.91,0,0,0,1.46,0l5.5-7v6a1.29,1.29,0,0,0,.64,1.17.91.91,0,0,0,1.14-.3l5.53-7v6.16a1.05,1.05,0,1,0,2.06,0V9a1.29,1.29,0,0,0-.65-1.18A.91.91,0,0,0,135.34,8.07Z" style="stroke: #000;stroke-width: 0.6000000000000001px" />
      <path d="M120.76,8,116,14.12a1.47,1.47,0,0,0,0,1.79.9.9,0,0,0,1.46,0l3-3.87v6.31a1.05,1.05,0,1,0,2.06,0V8.87a1.29,1.29,0,0,0-.65-1.17A.91.91,0,0,0,120.76,8Z" style="stroke: #000;stroke-width: 0.6000000000000001px" />
      <path d="M143.71,12.52a1,1,0,0,0-1-.78h-2.1l1.53-2s.8-1.17.1-1.82a1.27,1.27,0,0,0-1.58.06l-3.23,4.1a1.47,1.47,0,0,0-.2,1.38,1.05,1.05,0,0,0,.95.77h2.1l-2.49,3.17s-1,1.13-.27,1.89,1.75-.14,1.75-.14l4.18-5.31A1.48,1.48,0,0,0,143.71,12.52Z" style="stroke: #000;stroke-width: 0.6000000000000001px" />
    </g>
    <g>
      <path d="M100.5,355.21a2.43,2.43,0,0,1-.29,1.21,2,2,0,0,1-.82.78,2.47,2.47,0,0,1-1.2.28l-.47,0a4.5,4.5,0,0,1-.73-.17,5,5,0,0,1-.95-.4v-1.82a6.26,6.26,0,0,0,.91.58,2.12,2.12,0,0,0,1,.23c.31,0,.52-.06.61-.19a.6.6,0,0,0-.1-.87,3.35,3.35,0,0,0-.69-.42,4.93,4.93,0,0,1-.88-.56,2.56,2.56,0,0,1-.62-.76A2.32,2.32,0,0,1,96,352a2.42,2.42,0,0,1,.24-1.09,1.91,1.91,0,0,1,.74-.78,2.42,2.42,0,0,1,1.22-.29,3.51,3.51,0,0,1,.94.12,4.41,4.41,0,0,1,.72.27,3,3,0,0,1,.38.24v1.75a4.26,4.26,0,0,0-.83-.59,2,2,0,0,0-1-.26.7.7,0,0,0-.5.16.58.58,0,0,0-.16.4.53.53,0,0,0,.16.38,2.51,2.51,0,0,0,.55.4,10.87,10.87,0,0,1,1.13.72,2.55,2.55,0,0,1,.66.74A2.14,2.14,0,0,1,100.5,355.21Z" />
      <path d="M107.6,351.75h-2.23v5.63h-1.84v-5.63h-2.24v-1.82h6.31Z" />
      <path d="M113.28,357.38h-4.6v-7.45h4.53v1.5h-2.69v1.36h2.56v1.5h-2.56v1.59h2.76Z" />
      <path d="M120.42,357.38h-2l-.48-1.32a5.87,5.87,0,0,0-.48-1.06,1.06,1.06,0,0,0-.41-.43,1.12,1.12,0,0,0-.52-.1h-.21v2.91h-1.84v-7.45h3.13a2,2,0,0,1,1.25.38,2.17,2.17,0,0,1,.69.91,2.65,2.65,0,0,1,.22,1,2.28,2.28,0,0,1-.18,1,1.51,1.51,0,0,1-.38.56,3,3,0,0,1-.44.34,1.94,1.94,0,0,1,.49.5,7.47,7.47,0,0,1,.52,1.16Zm-2.5-5.09a.81.81,0,0,0-.28-.72,1.49,1.49,0,0,0-.9-.21h-.39v1.8h.4a1.65,1.65,0,0,0,.92-.18A.79.79,0,0,0,117.92,352.29Z" />
      <path d="M125.86,357.38h-4.6v-7.45h4.53v1.5H123.1v1.36h2.56v1.5H123.1v1.59h2.76Z" />
      <path d="M133.63,353.65a4.49,4.49,0,0,1-.4,1.92,3.18,3.18,0,0,1-1.17,1.39,3.39,3.39,0,0,1-1.9.52,3.28,3.28,0,0,1-1.91-.54,3.21,3.21,0,0,1-1.17-1.41,4.84,4.84,0,0,1,0-3.76,3.17,3.17,0,0,1,1.16-1.4,3.34,3.34,0,0,1,1.92-.54,3.45,3.45,0,0,1,1.51.31,2.93,2.93,0,0,1,1.09.83,3.75,3.75,0,0,1,.65,1.22A5,5,0,0,1,133.63,353.65Zm-1.88,0a2.59,2.59,0,0,0-.1-.76,1.85,1.85,0,0,0-.31-.61,1.28,1.28,0,0,0-.5-.39,1.45,1.45,0,0,0-.68-.14,1.4,1.4,0,0,0-1.16.52,2.48,2.48,0,0,0,0,2.76,1.38,1.38,0,0,0,1.16.53,1.53,1.53,0,0,0,.87-.24,1.61,1.61,0,0,0,.54-.68A2.57,2.57,0,0,0,131.75,353.65Z" />
      <path d="M144.55,357.38h-1.84v-4.31l-1.66,2.49h-.15l-1.66-2.49v4.31h-1.79v-7.45h1.67l1.88,2.8,1.88-2.8h1.67Z" />
      <path d="M147.94,357.38H146.1v-7.45h1.84Z" />
      <path d="M156.38,357.38H154l-.65-.94-.38-.57-.47-.7c-.35.58-.64,1-.86,1.37l-.56.84h-2.33l2.59-3.87-2.47-3.58h2.35l.42.63c.24.36.53.81.86,1.35.32-.57.58-1,.77-1.27l.48-.71h2.31l-2.38,3.58Z" />
      <path d="M161.79,357.38h-4.6v-7.45h4.52v1.5H159v1.36h2.56v1.5H159v1.59h2.76Z" />
      <path d="M168.93,357.38h-2l-.48-1.32A5.87,5.87,0,0,0,166,355a1.06,1.06,0,0,0-.41-.43,1.12,1.12,0,0,0-.52-.1h-.21v2.91H163v-7.45h3.13a2,2,0,0,1,1.25.38,2.17,2.17,0,0,1,.69.91,2.65,2.65,0,0,1,.22,1,2.28,2.28,0,0,1-.18,1,1.51,1.51,0,0,1-.38.56,3,3,0,0,1-.44.34,1.9,1.9,0,0,1,.48.5,6.42,6.42,0,0,1,.53,1.16Zm-2.5-5.09a.81.81,0,0,0-.28-.72,1.49,1.49,0,0,0-.9-.21h-.39v1.8h.4a1.65,1.65,0,0,0,.92-.18A.79.79,0,0,0,166.43,352.29Z" />
    </g>
    <line x1="35.29" y1="91.12" x2="35.29" y2="129.93" style="fill: none;stroke: #000;stroke-miterlimit: 10;stroke-width: 2px" />
    <line x1="98.25" y1="91.12" x2="98.25" y2="129.93" style="fill: none;stroke: #000;stroke-miterlimit: 10;stroke-width: 2px" />
    <line x1="161.2" y1="91.12" x2="161.2" y2="129.93" style="fill: none;stroke: #000;stroke-miterlimit: 10;stroke-width: 2px" />
    <line x1="224.16" y1="91.12" x2="224.16" y2="129.93" style="fill: none;stroke: #000;stroke-miterlimit: 10;stroke-width: 2px" />
  </g>
  <g /></svg>