<?xml version="1.0" encoding="UTF-8" standalone="no"?>
<svg
   width="91.44mm"
   height="131.44mm"
   viewBox="0 0 259.2 372.58"
   version="1.1"
   id="svg139"
   sodipodi:docname="StMix_artwork.svg"
   inkscape:version="1.4.2 (ebf0e940, 2025-05-08)"
   xmlns:inkscape="http://www.inkscape.org/namespaces/inkscape"
   xmlns:sodipodi="http://sodipodi.sourceforge.net/DTD/sodipodi-0.dtd"
   xmlns="http://www.w3.org/2000/svg"
   xmlns:svg="http://www.w3.org/2000/svg">
  <defs
     id="defs139" />
  <sodipodi:namedview
     id="namedview139"
     pagecolor="#ffffff"
     bordercolor="#000000"
     borderopacity="0.25"
     inkscape:showpageshadow="2"
     inkscape:pageopacity="0.0"
     inkscape:pagecheckerboard="0"
     inkscape:deskcolor="#d1d1d1"
     inkscape:document-units="mm"
     inkscape:zoom="0.4279964"
     inkscape:cx="258.17974"
     inkscape:cy="268.69385"
     inkscape:window-width="1440"
     inkscape:window-height="567"
     inkscape:window-x="0"
     inkscape:window-y="38"
     inkscape:window-maximized="0"
     inkscape:current-layer="svg139" />
  <g
     id="faceplate">
    <g
       id="g1">
      <path
         id="rect1"
         style="fill:#ededed;stroke-width:0px"
         d="m 0.12,0.13 h 258.95001 v 364 H 0.12 Z" />
      <path
         d="M258.95.25v363.75H.25V.25h258.7M259.2,0H0v364.25h259.2V0h0Z"
         style="fill: #9d9d9e; stroke-width: 0px;"
         id="path1" />
    </g>
    <path
       d="M185.16,287.52h-64.63v48.62c0,3.12,2.55,5.67,5.67,5.67l53.25-.05h0s3.17,0,3.17,0l53.25.05c3.12,0,5.67-2.55,5.67-5.67v-48.62h-56.38Z"
       style="fill: #000; stroke-width: 0px;"
       id="path2" />
    <path
       d="M 5.9912109,0 H 0.84960938 V -6.7675781 H 2.890625 v 5.1464844 H 5.9912109 Z M 11.587305,-2.0605469 H 8.086328 q 0.1025391,0.4541016 0.5029297,0.7421875 0.4003906,0.288086 0.9082031,0.288086 0.8886722,0 1.9628902,-0.4980469 v 1.08886717 q -0.385742,0.20019532 -0.9375,0.36621094 -0.5468745,0.16113281 -1.3964839,0.16113281 -0.9179688,0 -1.5625,-0.34179687 -0.6445313,-0.34179687 -0.9667969,-0.92773435 -0.3173828,-0.5859375 -0.3173828,-1.328125 0,-0.7324219 0.3173828,-1.3085938 0.3222656,-0.5810547 0.9667969,-0.9082031 0.6445312,-0.3320312 1.5625,-0.3320312 0.6054687,0 1.1669919,0.2636718 0.566407,0.2587891 0.927735,0.8544922 0.366211,0.5908203 0.366211,1.5283203 z M 9.936914,-2.9296875 q 0,-0.4785156 -0.2392578,-0.7617188 -0.234375,-0.2880859 -0.678711,-0.2880859 -0.4394531,0 -0.7128906,0.2929688 -0.2685547,0.2880859 -0.2685547,0.7568359 z M 17.29082,-4.9707031 15.030078,0 H 13.73125 l -2.211914,-4.9707031 h 1.889648 l 1.030274,2.602539 1.142578,-2.602539 z m 5.146875,2.9101562 h -3.500977 q 0.102539,0.4541016 0.50293,0.7421875 0.40039,0.288086 0.908203,0.288086 0.888672,0 1.96289,-0.4980469 v 1.08886717 q -0.385742,0.20019532 -0.9375,0.36621094 -0.546875,0.16113281 -1.396484,0.16113281 -0.917969,0 -1.5625,-0.34179687 -0.644531,-0.34179687 -0.966797,-0.92773435 -0.317383,-0.5859375 -0.317383,-1.328125 0,-0.7324219 0.317383,-1.3085938 0.322266,-0.5810547 0.966797,-0.9082031 0.644531,-0.3320312 1.5625,-0.3320312 0.605469,0 1.166992,0.2636718 0.566406,0.2587891 0.927735,0.8544922 0.366211,0.5908203 0.366211,1.5283203 z m -1.650391,-0.8691406 q 0,-0.4785156 -0.239258,-0.7617188 -0.234375,-0.2880859 -0.678711,-0.2880859 -0.439453,0 -0.71289,0.2929688 -0.268555,0.2880859 -0.268555,0.7568359 z M 24.752539,0 h -1.762696 v -6.7675781 h 1.762696 z m 6.709766,0 h -1.850586 v -6.7675781 h 1.850586 z"
       id="text2"
       style="font-weight:700;font-size:10px;font-family:GillSans-Bold, 'Gill Sans';letter-spacing:-0.04em"
       transform="translate(20.36 86.5) scale(.88 1)"
       aria-label="Level 1" />
    <g
       id="g17">
      <path
         d="M35.16,38.56c-.83,0-1.65.07-2.45.17l-.39-2.21c.93-.12,1.88-.19,2.84-.19s1.91.07,2.84.19l-.39,2.21c-.81-.1-1.62-.17-2.45-.17Z"
         style="fill: #000; stroke-width: 0px;"
         id="path3" />
      <path
         d="M20.67,44.93l-1.73-1.45c1.28-1.4,2.74-2.63,4.34-3.66l1.12,1.94c-1.38.9-2.62,1.96-3.73,3.16Z"
         style="fill: #000; stroke-width: 0px;"
         id="path4" />
      <path
         d="M26.14,40.76l-1.12-1.94c1.67-.87,3.46-1.53,5.34-1.95l.39,2.21c-1.62.37-3.16.94-4.61,1.69Z"
         style="fill: #000; stroke-width: 0px;"
         id="path5" />
      <path
         d="M16.93,50.69l-2.1-.76c.73-1.77,1.69-3.42,2.83-4.92l1.73,1.45c-.98,1.3-1.82,2.71-2.46,4.23Z"
         style="fill: #000; stroke-width: 0px;"
         id="path6" />
      <path
         d="M39.59,39.07l.39-2.21c1.88.42,3.67,1.08,5.34,1.95l-1.12,1.94c-1.44-.74-2.98-1.31-4.6-1.69Z"
         style="fill: #000; stroke-width: 0px;"
         id="path7" />
      <path
         d="M15.45,57.39h-2.26c.08-1.93.41-3.8.96-5.58l2.11.77c-.47,1.53-.73,3.15-.81,4.81Z"
         style="fill: #000; stroke-width: 0px;"
         id="path8" />
      <path
         d="M16.31,64.19l-2.1.76c-.57-1.79-.91-3.65-1.01-5.56h2.23c.09,1.65.39,3.25.88,4.8Z"
         style="fill: #000; stroke-width: 0px;"
         id="path9" />
      <path
         d="M19.45,70.27l-1.71,1.44c-1.15-1.5-2.11-3.14-2.84-4.88l2.1-.77c.64,1.5,1.46,2.91,2.45,4.2Z"
         style="fill: #000; stroke-width: 0px;"
         id="path10" />
      <path
         d="M50.94,46.46l1.73-1.45c1.14,1.5,2.1,3.15,2.83,4.92l-2.1.77c-.64-1.52-1.48-2.93-2.46-4.23Z"
         style="fill: #000; stroke-width: 0px;"
         id="path11" />
      <path
         d="M54.07,52.57l2.11-.77c.55,1.78.88,3.65.96,5.58h-2.26c-.08-1.66-.34-3.28-.81-4.81Z"
         style="fill: #000; stroke-width: 0px;"
         id="path12" />
      <path
         d="M54.89,59.39h2.23c-.09,1.91-.44,3.78-1.01,5.56l-2.1-.77c.48-1.54.79-3.15.88-4.8Z"
         style="fill: #000; stroke-width: 0px;"
         id="path13" />
      <path
         d="M53.33,66.07l2.11.77c-.73,1.74-1.69,3.38-2.84,4.88l-1.71-1.44c.99-1.3,1.81-2.71,2.45-4.2Z"
         style="fill: #000; stroke-width: 0px;"
         id="path14" />
      <path
         d="M24.47,74.91l-1.12,1.93c-1.61-1.03-3.05-2.24-4.32-3.62l1.71-1.44c1.1,1.18,2.34,2.23,3.72,3.12Z"
         style="fill: #000; stroke-width: 0px;"
         id="path15" />
      <path
         d="M49.58,71.79l1.71,1.44c-1.27,1.37-2.71,2.59-4.32,3.62l-1.12-1.93c1.38-.89,2.62-1.94,3.72-3.12Z"
         style="fill: #000; stroke-width: 0px;"
         id="path16" />
      <path
         d="M45.92,41.76l1.12-1.94c1.6,1.03,3.06,2.26,4.34,3.66l-1.73,1.45c-1.11-1.2-2.36-2.27-3.74-3.16Z"
         style="fill: #000; stroke-width: 0px;"
         id="path17" />
    </g>
    <path
       d="M 5.9912109,0 H 0.84960938 V -6.7675781 H 2.890625 v 5.1464844 H 5.9912109 Z M 11.587305,-2.0605469 H 8.086328 q 0.1025391,0.4541016 0.5029297,0.7421875 0.4003906,0.288086 0.9082031,0.288086 0.8886722,0 1.9628902,-0.4980469 v 1.08886717 q -0.385742,0.20019532 -0.9375,0.36621094 -0.5468745,0.16113281 -1.3964839,0.16113281 -0.9179688,0 -1.5625,-0.34179687 -0.6445313,-0.34179687 -0.9667969,-0.92773435 -0.3173828,-0.5859375 -0.3173828,-1.328125 0,-0.7324219 0.3173828,-1.3085938 0.3222656,-0.5810547 0.9667969,-0.9082031 0.6445312,-0.3320312 1.5625,-0.3320312 0.6054687,0 1.1669919,0.2636718 0.566407,0.2587891 0.927735,0.8544922 0.366211,0.5908203 0.366211,1.5283203 z M 9.936914,-2.9296875 q 0,-0.4785156 -0.2392578,-0.7617188 -0.234375,-0.2880859 -0.678711,-0.2880859 -0.4394531,0 -0.7128906,0.2929688 -0.2685547,0.2880859 -0.2685547,0.7568359 z M 17.29082,-4.9707031 15.030078,0 H 13.73125 l -2.211914,-4.9707031 h 1.889648 l 1.030274,2.602539 1.142578,-2.602539 z m 5.146875,2.9101562 h -3.500977 q 0.102539,0.4541016 0.50293,0.7421875 0.40039,0.288086 0.908203,0.288086 0.888672,0 1.96289,-0.4980469 v 1.08886717 q -0.385742,0.20019532 -0.9375,0.36621094 -0.546875,0.16113281 -1.396484,0.16113281 -0.917969,0 -1.5625,-0.34179687 -0.644531,-0.34179687 -0.966797,-0.92773435 -0.317383,-0.5859375 -0.317383,-1.328125 0,-0.7324219 0.317383,-1.3085938 0.322266,-0.5810547 0.966797,-0.9082031 0.644531,-0.3320312 1.5625,-0.3320312 0.605469,0 1.166992,0.2636718 0.566406,0.2587891 0.927735,0.8544922 0.366211,0.5908203 0.366211,1.5283203 z m -1.650391,-0.8691406 q 0,-0.4785156 -0.239258,-0.7617188 -0.234375,-0.2880859 -0.678711,-0.2880859 -0.439453,0 -0.71289,0.2929688 -0.268555,0.2880859 -0.268555,0.7568359 z M 24.752539,0 h -1.762696 v -6.7675781 h 1.762696 z m 8.369922,0 H 27.98086 v -0.13183594 q 0.297851,-0.28808594 0.654297,-0.68847656 0.356445,-0.4003906 0.917968,-1.0595703 0.258789,-0.2978516 0.483399,-0.5859375 0.229492,-0.288086 0.390625,-0.5566406 0.161133,-0.2734375 0.273437,-0.600586 0.112305,-0.3271484 0.112305,-0.6689453 0,-0.46875 -0.273437,-0.7568359 -0.268555,-0.2929688 -0.688477,-0.2929688 -0.830078,0 -1.650391,0.859375 v -1.5966797 q 0.288086,-0.1855468 0.473633,-0.2978515 0.185547,-0.1123047 0.424805,-0.2197266 0.24414,-0.1074219 0.576172,-0.1855469 0.332031,-0.078125 0.717773,-0.078125 0.620117,0 1.12793,0.2539063 0.507812,0.2490234 0.795898,0.7275391 0.292969,0.4736328 0.292969,1.1083984 0,0.4492187 -0.131836,0.8398437 -0.131836,0.390625 -0.273437,0.6298828 -0.141602,0.2392579 -0.375977,0.5908204 -0.419922,0.625 -0.898437,1.1914062 h 2.192382 z"
       id="text17"
       style="font-weight:700;font-size:10px;font-family:GillSans-Bold, 'Gill Sans';letter-spacing:-0.04em"
       transform="translate(83.31 86.5) scale(.88 1)"
       aria-label="Level 2" />
    <path
       d="M98.12,38.56c-.83,0-1.65.07-2.45.17l-.39-2.21c.93-.12,1.88-.19,2.84-.19s1.91.07,2.84.19l-.39,2.21c-.81-.1-1.62-.17-2.45-.17Z"
       style="fill: #000; stroke-width: 0px;"
       id="path18" />
    <path
       d="M83.63,44.93l-1.73-1.45c1.28-1.4,2.74-2.63,4.34-3.66l1.12,1.94c-1.38.9-2.62,1.96-3.73,3.16Z"
       style="fill: #000; stroke-width: 0px;"
       id="path19" />
    <path
       d="M89.09,40.76l-1.12-1.94c1.67-.87,3.46-1.53,5.34-1.95l.39,2.21c-1.62.37-3.16.94-4.61,1.69Z"
       style="fill: #000; stroke-width: 0px;"
       id="path20" />
    <path
       d="M79.89,50.69l-2.1-.76c.73-1.77,1.69-3.42,2.83-4.92l1.73,1.45c-.98,1.3-1.82,2.71-2.46,4.23Z"
       style="fill: #000; stroke-width: 0px;"
       id="path21" />
    <path
       d="M102.54,39.07l.39-2.21c1.88.42,3.67,1.08,5.34,1.95l-1.12,1.94c-1.44-.74-2.98-1.31-4.6-1.69Z"
       style="fill: #000; stroke-width: 0px;"
       id="path22" />
    <path
       d="M78.4,57.39h-2.26c.08-1.93.41-3.8.96-5.58l2.11.77c-.47,1.53-.73,3.15-.81,4.81Z"
       style="fill: #000; stroke-width: 0px;"
       id="path23" />
    <path
       d="M79.27,64.19l-2.1.76c-.57-1.79-.91-3.65-1.01-5.56h2.23c.09,1.65.39,3.25.88,4.8Z"
       style="fill: #000; stroke-width: 0px;"
       id="path24" />
    <path
       d="M82.41,70.27l-1.71,1.44c-1.15-1.5-2.11-3.14-2.84-4.88l2.1-.77c.64,1.5,1.46,2.91,2.45,4.2Z"
       style="fill: #000; stroke-width: 0px;"
       id="path25" />
    <path
       d="M113.89,46.46l1.73-1.45c1.14,1.5,2.1,3.15,2.83,4.92l-2.1.77c-.64-1.52-1.48-2.93-2.46-4.23Z"
       style="fill: #000; stroke-width: 0px;"
       id="path26" />
    <path
       d="M117.03,52.57l2.11-.77c.55,1.78.88,3.65.96,5.58h-2.26c-.08-1.66-.34-3.28-.81-4.81Z"
       style="fill: #000; stroke-width: 0px;"
       id="path27" />
    <path
       d="M117.85,59.39h2.23c-.09,1.91-.44,3.78-1.01,5.56l-2.1-.77c.48-1.54.79-3.15.88-4.8Z"
       style="fill: #000; stroke-width: 0px;"
       id="path28" />
    <path
       d="M116.29,66.07l2.11.77c-.73,1.74-1.69,3.38-2.84,4.88l-1.71-1.44c.99-1.3,1.81-2.71,2.45-4.2Z"
       style="fill: #000; stroke-width: 0px;"
       id="path29" />
    <path
       d="M87.43,74.91l-1.12,1.93c-1.61-1.03-3.05-2.24-4.32-3.62l1.71-1.44c1.1,1.18,2.34,2.23,3.72,3.12Z"
       style="fill: #000; stroke-width: 0px;"
       id="path30" />
    <path
       d="M112.54,71.79l1.71,1.44c-1.27,1.37-2.71,2.59-4.32,3.62l-1.12-1.93c1.38-.89,2.62-1.94,3.72-3.12Z"
       style="fill: #000; stroke-width: 0px;"
       id="path31" />
    <path
       d="M108.88,41.76l1.12-1.94c1.6,1.03,3.06,2.26,4.34,3.66l-1.73,1.45c-1.11-1.2-2.36-2.27-3.74-3.16Z"
       style="fill: #000; stroke-width: 0px;"
       id="path32" />
    <path
       d="M 5.9912109,0 H 0.84960938 V -6.7675781 H 2.890625 v 5.1464844 H 5.9912109 Z M 11.587305,-2.0605469 H 8.086328 q 0.1025391,0.4541016 0.5029297,0.7421875 0.4003906,0.288086 0.9082031,0.288086 0.8886722,0 1.9628902,-0.4980469 v 1.08886717 q -0.385742,0.20019532 -0.9375,0.36621094 -0.5468745,0.16113281 -1.3964839,0.16113281 -0.9179688,0 -1.5625,-0.34179687 -0.6445313,-0.34179687 -0.9667969,-0.92773435 -0.3173828,-0.5859375 -0.3173828,-1.328125 0,-0.7324219 0.3173828,-1.3085938 0.3222656,-0.5810547 0.9667969,-0.9082031 0.6445312,-0.3320312 1.5625,-0.3320312 0.6054687,0 1.1669919,0.2636718 0.566407,0.2587891 0.927735,0.8544922 0.366211,0.5908203 0.366211,1.5283203 z M 9.936914,-2.9296875 q 0,-0.4785156 -0.2392578,-0.7617188 -0.234375,-0.2880859 -0.678711,-0.2880859 -0.4394531,0 -0.7128906,0.2929688 -0.2685547,0.2880859 -0.2685547,0.7568359 z M 17.29082,-4.9707031 15.030078,0 H 13.73125 l -2.211914,-4.9707031 h 1.889648 l 1.030274,2.602539 1.142578,-2.602539 z m 5.146875,2.9101562 h -3.500977 q 0.102539,0.4541016 0.50293,0.7421875 0.40039,0.288086 0.908203,0.288086 0.888672,0 1.96289,-0.4980469 v 1.08886717 q -0.385742,0.20019532 -0.9375,0.36621094 -0.546875,0.16113281 -1.396484,0.16113281 -0.917969,0 -1.5625,-0.34179687 -0.644531,-0.34179687 -0.966797,-0.92773435 -0.317383,-0.5859375 -0.317383,-1.328125 0,-0.7324219 0.317383,-1.3085938 0.322266,-0.5810547 0.966797,-0.9082031 0.644531,-0.3320312 1.5625,-0.3320312 0.605469,0 1.166992,0.2636718 0.566406,0.2587891 0.927735,0.8544922 0.366211,0.5908203 0.366211,1.5283203 z m -1.650391,-0.8691406 q 0,-0.4785156 -0.239258,-0.7617188 -0.234375,-0.2880859 -0.678711,-0.2880859 -0.439453,0 -0.71289,0.2929688 -0.268555,0.2880859 -0.268555,0.7568359 z M 24.752539,0 h -1.762696 v -6.7675781 h 1.762696 z m 8.399219,-1.4599609 H 32.350977 V 0 h -1.801758 v -1.4599609 h -2.749023 v -1.2890625 l 3.100586,-4.0185547 h 1.450195 v 4.1455078 h 0.800781 z m -2.602539,-1.1621094 v -2.1679688 l -1.679687,2.1679688 z"
       id="text32"
       style="font-weight:700;font-size:10px;font-family:GillSans-Bold, 'Gill Sans';letter-spacing:-0.04em"
       transform="translate(209.23 86.5) scale(.88 1)"
       aria-label="Level 4" />
    <path
       d="M224.04,38.56c-.83,0-1.65.07-2.45.17l-.39-2.21c.93-.12,1.88-.19,2.84-.19s1.91.07,2.84.19l-.39,2.21c-.81-.1-1.62-.17-2.45-.17Z"
       style="fill: #000; stroke-width: 0px;"
       id="path33" />
    <path
       d="M209.54,44.93l-1.73-1.45c1.28-1.4,2.74-2.63,4.34-3.66l1.12,1.94c-1.38.9-2.62,1.96-3.73,3.16Z"
       style="fill: #000; stroke-width: 0px;"
       id="path34" />
    <path
       d="M215.01,40.76l-1.12-1.94c1.67-.87,3.46-1.53,5.34-1.95l.39,2.21c-1.62.37-3.16.94-4.61,1.69Z"
       style="fill: #000; stroke-width: 0px;"
       id="path35" />
    <path
       d="M205.81,50.69l-2.1-.76c.73-1.77,1.69-3.42,2.83-4.92l1.73,1.45c-.98,1.3-1.82,2.71-2.46,4.23Z"
       style="fill: #000; stroke-width: 0px;"
       id="path36" />
    <path
       d="M228.46,39.07l.39-2.21c1.88.42,3.67,1.08,5.34,1.95l-1.12,1.94c-1.44-.74-2.98-1.31-4.6-1.69Z"
       style="fill: #000; stroke-width: 0px;"
       id="path37" />
    <path
       d="M204.32,57.39h-2.26c.08-1.93.41-3.8.96-5.58l2.11.77c-.47,1.53-.73,3.15-.81,4.81Z"
       style="fill: #000; stroke-width: 0px;"
       id="path38" />
    <path
       d="M205.18,64.19l-2.1.76c-.57-1.79-.91-3.65-1.01-5.56h2.23c.09,1.65.39,3.25.88,4.8Z"
       style="fill: #000; stroke-width: 0px;"
       id="path39" />
    <path
       d="M208.32,70.27l-1.71,1.44c-1.15-1.5-2.11-3.14-2.84-4.88l2.1-.77c.64,1.5,1.46,2.91,2.45,4.2Z"
       style="fill: #000; stroke-width: 0px;"
       id="path40" />
    <path
       d="M239.81,46.46l1.73-1.45c1.14,1.5,2.1,3.15,2.83,4.92l-2.1.77c-.64-1.52-1.48-2.93-2.46-4.23Z"
       style="fill: #000; stroke-width: 0px;"
       id="path41" />
    <path
       d="M242.94,52.57l2.11-.77c.55,1.78.88,3.65.96,5.58h-2.26c-.08-1.66-.34-3.28-.81-4.81Z"
       style="fill: #000; stroke-width: 0px;"
       id="path42" />
    <path
       d="M243.76,59.39h2.23c-.09,1.91-.44,3.78-1.01,5.56l-2.1-.77c.48-1.54.79-3.15.88-4.8Z"
       style="fill: #000; stroke-width: 0px;"
       id="path43" />
    <path
       d="M242.2,66.07l2.11.77c-.73,1.74-1.69,3.38-2.84,4.88l-1.71-1.44c.99-1.3,1.81-2.71,2.45-4.2Z"
       style="fill: #000; stroke-width: 0px;"
       id="path44" />
    <path
       d="M213.34,74.91l-1.12,1.93c-1.61-1.03-3.05-2.24-4.32-3.62l1.71-1.44c1.1,1.18,2.34,2.23,3.72,3.12Z"
       style="fill: #000; stroke-width: 0px;"
       id="path45" />
    <path
       d="M238.46,71.79l1.71,1.44c-1.27,1.37-2.71,2.59-4.32,3.62l-1.12-1.93c1.38-.89,2.62-1.94,3.72-3.12Z"
       style="fill: #000; stroke-width: 0px;"
       id="path46" />
    <path
       d="M234.79,41.76l1.12-1.94c1.6,1.03,3.06,2.26,4.34,3.66l-1.73,1.45c-1.11-1.2-2.36-2.27-3.74-3.16Z"
       style="fill: #000; stroke-width: 0px;"
       id="path47" />
    <path
       d="M 5.9912109,0 H 0.84960938 V -6.7675781 H 2.890625 v 5.1464844 H 5.9912109 Z M 11.587305,-2.0605469 H 8.086328 q 0.1025391,0.4541016 0.5029297,0.7421875 0.4003906,0.288086 0.9082031,0.288086 0.8886722,0 1.9628902,-0.4980469 v 1.08886717 q -0.385742,0.20019532 -0.9375,0.36621094 -0.5468745,0.16113281 -1.3964839,0.16113281 -0.9179688,0 -1.5625,-0.34179687 -0.6445313,-0.34179687 -0.9667969,-0.92773435 -0.3173828,-0.5859375 -0.3173828,-1.328125 0,-0.7324219 0.3173828,-1.3085938 0.3222656,-0.5810547 0.9667969,-0.9082031 0.6445312,-0.3320312 1.5625,-0.3320312 0.6054687,0 1.1669919,0.2636718 0.566407,0.2587891 0.927735,0.8544922 0.366211,0.5908203 0.366211,1.5283203 z M 9.936914,-2.9296875 q 0,-0.4785156 -0.2392578,-0.7617188 -0.234375,-0.2880859 -0.678711,-0.2880859 -0.4394531,0 -0.7128906,0.2929688 -0.2685547,0.2880859 -0.2685547,0.7568359 z M 17.29082,-4.9707031 15.030078,0 H 13.73125 l -2.211914,-4.9707031 h 1.889648 l 1.030274,2.602539 1.142578,-2.602539 z m 5.146875,2.9101562 h -3.500977 q 0.102539,0.4541016 0.50293,0.7421875 0.40039,0.288086 0.908203,0.288086 0.888672,0 1.96289,-0.4980469 v 1.08886717 q -0.385742,0.20019532 -0.9375,0.36621094 -0.546875,0.16113281 -1.396484,0.16113281 -0.917969,0 -1.5625,-0.34179687 -0.644531,-0.34179687 -0.966797,-0.92773435 -0.317383,-0.5859375 -0.317383,-1.328125 0,-0.7324219 0.317383,-1.3085938 0.322266,-0.5810547 0.966797,-0.9082031 0.644531,-0.3320312 1.5625,-0.3320312 0.605469,0 1.166992,0.2636718 0.566406,0.2587891 0.927735,0.8544922 0.366211,0.5908203 0.366211,1.5283203 z m -1.650391,-0.8691406 q 0,-0.4785156 -0.239258,-0.7617188 -0.234375,-0.2880859 -0.678711,-0.2880859 -0.439453,0 -0.71289,0.2929688 -0.268555,0.2880859 -0.268555,0.7568359 z M 24.752539,0 h -1.762696 v -6.7675781 h 1.762696 z m 7.95,-1.8798828 q 0,0.5322266 -0.20996,0.90820311 -0.209961,0.37597657 -0.556641,0.61523438 -0.341797,0.234375 -0.727539,0.34179687 -0.385742,0.10253906 -0.74707,0.10253906 -0.512696,0 -1.132813,-0.14160156 -0.620117,-0.14648437 -1.040039,-0.34667969 V -1.9189453 q 0.341797,0.2832031 0.737305,0.4785156 Q 29.421289,-1.25 29.841211,-1.25 q 0.317383,0 0.532227,-0.1171875 0.219726,-0.1171875 0.327148,-0.2929687 0.112305,-0.1806641 0.112305,-0.3808594 0,-0.2587891 -0.136719,-0.4589844 -0.136718,-0.2001953 -0.395508,-0.3173828 -0.258789,-0.1220703 -0.600585,-0.1220703 h -0.219727 v -1.0888672 h 0.258789 q 0.341797,0 0.561523,-0.1318359 0.22461,-0.131836 0.322266,-0.3125 0.09766,-0.1855469 0.09766,-0.3466797 0,-0.3076172 -0.239257,-0.5419922 -0.234375,-0.2392578 -0.610352,-0.2392578 -0.336914,0 -0.703125,0.1269531 -0.361328,0.1269531 -0.678711,0.3417969 v -1.2988282 q 0.478516,-0.2001953 0.898438,-0.3125 0.424804,-0.1171875 0.952148,-0.1171875 0.766602,0 1.279297,0.2978516 0.517578,0.2978516 0.751953,0.7226563 0.239258,0.4199218 0.239258,0.7910156 0,0.3027344 -0.131836,0.6054687 -0.131836,0.3027344 -0.34668,0.5371094 -0.209961,0.234375 -0.439453,0.3662109 0.405273,0.2148438 0.717773,0.5957032 0.3125,0.3808593 0.3125,1.0644531 z"
       id="text47"
       style="font-weight:700;font-size:10px;font-family:GillSans-Bold, 'Gill Sans';letter-spacing:-0.04em"
       transform="translate(146.27 86.5) scale(.88 1)"
       aria-label="Level 3" />
    <path
       d="M161.08,38.56c-.83,0-1.65.07-2.45.17l-.39-2.21c.93-.12,1.88-.19,2.84-.19s1.91.07,2.84.19l-.39,2.21c-.81-.1-1.62-.17-2.45-.17Z"
       style="fill: #000; stroke-width: 0px;"
       id="path48" />
    <path
       d="M146.59,44.93l-1.73-1.45c1.28-1.4,2.74-2.63,4.34-3.66l1.12,1.94c-1.38.9-2.62,1.96-3.73,3.16Z"
       style="fill: #000; stroke-width: 0px;"
       id="path49" />
    <path
       d="M152.05,40.76l-1.12-1.94c1.67-.87,3.46-1.53,5.34-1.95l.39,2.21c-1.62.37-3.16.94-4.61,1.69Z"
       style="fill: #000; stroke-width: 0px;"
       id="path50" />
    <path
       d="M142.85,50.69l-2.1-.76c.73-1.77,1.69-3.42,2.83-4.92l1.73,1.45c-.98,1.3-1.82,2.71-2.46,4.23Z"
       style="fill: #000; stroke-width: 0px;"
       id="path51" />
    <path
       d="M165.5,39.07l.39-2.21c1.88.42,3.67,1.08,5.34,1.95l-1.12,1.94c-1.44-.74-2.98-1.31-4.6-1.69Z"
       style="fill: #000; stroke-width: 0px;"
       id="path52" />
    <path
       d="M141.36,57.39h-2.26c.08-1.93.41-3.8.96-5.58l2.11.77c-.47,1.53-.73,3.15-.81,4.81Z"
       style="fill: #000; stroke-width: 0px;"
       id="path53" />
    <path
       d="M142.23,64.19l-2.1.76c-.57-1.79-.91-3.65-1.01-5.56h2.23c.09,1.65.39,3.25.88,4.8Z"
       style="fill: #000; stroke-width: 0px;"
       id="path54" />
    <path
       d="M145.37,70.27l-1.71,1.44c-1.15-1.5-2.11-3.14-2.84-4.88l2.1-.77c.64,1.5,1.46,2.91,2.45,4.2Z"
       style="fill: #000; stroke-width: 0px;"
       id="path55" />
    <path
       d="M176.85,46.46l1.73-1.45c1.14,1.5,2.1,3.15,2.83,4.92l-2.1.77c-.64-1.52-1.48-2.93-2.46-4.23Z"
       style="fill: #000; stroke-width: 0px;"
       id="path56" />
    <path
       d="M179.98,52.57l2.11-.77c.55,1.78.88,3.65.96,5.58h-2.26c-.08-1.66-.34-3.28-.81-4.81Z"
       style="fill: #000; stroke-width: 0px;"
       id="path57" />
    <path
       d="M180.81,59.39h2.23c-.09,1.91-.44,3.78-1.01,5.56l-2.1-.77c.48-1.54.79-3.15.88-4.8Z"
       style="fill: #000; stroke-width: 0px;"
       id="path58" />
    <path
       d="M179.24,66.07l2.11.77c-.73,1.74-1.69,3.38-2.84,4.88l-1.71-1.44c.99-1.3,1.81-2.71,2.45-4.2Z"
       style="fill: #000; stroke-width: 0px;"
       id="path59" />
    <path
       d="M150.39,74.91l-1.12,1.93c-1.61-1.03-3.05-2.24-4.32-3.62l1.71-1.44c1.1,1.18,2.34,2.23,3.72,3.12Z"
       style="fill: #000; stroke-width: 0px;"
       id="path60" />
    <path
       d="M175.5,71.79l1.71,1.44c-1.27,1.37-2.71,2.59-4.32,3.62l-1.12-1.93c1.38-.89,2.62-1.94,3.72-3.12Z"
       style="fill: #000; stroke-width: 0px;"
       id="path61" />
    <path
       d="M171.83,41.76l1.12-1.94c1.6,1.03,3.06,2.26,4.34,3.66l-1.73,1.45c-1.11-1.2-2.36-2.27-3.74-3.16Z"
       style="fill: #000; stroke-width: 0px;"
       id="path62" />
    <path
       d="m 6.7089844,-4.6386719 q 0,0.3759766 -0.131836,0.7373047 -0.1269531,0.3564453 -0.415039,0.6689453 -0.288086,0.3076172 -0.78125,0.5029297 -0.4882813,0.1904297 -1.1523438,0.1904297 H 2.890625 V 0 H 0.84960938 V -6.7675781 H 4.2285156 q 0.6640625,0 1.1523438,0.1953125 0.493164,0.1953125 0.78125,0.5078125 0.2880859,0.3125 0.415039,0.6787109 0.131836,0.366211 0.131836,0.7470703 z m -2.0800782,0.00977 q 0,-0.4833985 -0.2880859,-0.6591797 Q 4.0576172,-5.46875 3.3203125,-5.46875 H 2.890625 v 1.6308594 h 0.4394531 q 0.5078125,0 0.78125,-0.063477 0.2734375,-0.063477 0.3955078,-0.234375 0.1220703,-0.1708984 0.1220703,-0.493164 z m 7.3929688,4.37988276 q -0.385742,0.15136719 -0.712891,0.24414063 -0.327148,0.09277343 -0.786133,0.09277343 -0.43457,0 -0.6054683,-0.15136718 -0.1708984,-0.15625 -0.2441406,-0.37597657 -0.2832031,0.22949219 -0.6298828,0.38085938 -0.3466797,0.14648437 -0.9082031,0.14648437 -0.5419922,0 -0.8789063,-0.18554687 Q 6.9242187,-0.28808594 6.7874999,-0.57128906 6.655664,-0.859375 6.655664,-1.1621094 q 0,-0.4589843 0.2294922,-0.7568359 0.234375,-0.3027344 0.625,-0.4931641 0.390625,-0.1904297 1.0351562,-0.3955078 0.3662109,-0.1171875 0.5517578,-0.1757812 0.1904297,-0.063477 0.2832031,-0.097656 0.092773,-0.03418 0.1953125,-0.087891 0,-0.3613281 -0.1464843,-0.5664063 -0.1464844,-0.2050781 -0.6347657,-0.2050781 -0.5761718,0 -1.0693359,0.2539063 -0.4931641,0.2539062 -0.9033203,0.6542968 v -1.3476562 q 0.3271484,-0.234375 0.7080078,-0.3808594 0.3808594,-0.1513672 0.7958984,-0.2246094 0.4150391,-0.073242 0.8398438,-0.073242 1.0791014,0 1.6210934,0.4199218 0.546875,0.4150391 0.546875,1.147461 v 1.9189453 q 0,0.2734375 0.04883,0.4101562 0.05371,0.131836 0.19043,0.131836 0.166016,0 0.449219,-0.1416016 z M 9.5755858,-1.2011719 v -1.1767578 q -0.625,0.2539063 -0.9130859,0.4589844 -0.2880859,0.2001953 -0.2880859,0.546875 0,0.2490234 0.1416015,0.38085936 0.1464844,0.13183594 0.3369141,0.13183594 0.1806641,0 0.3564453,-0.0976563 Q 9.390039,-1.0595703 9.5755858,-1.2011719 Z M 17.622851,0 h -1.757812 v -2.6806641 q 0,-0.4101562 -0.136719,-0.7128906 -0.131836,-0.3076172 -0.585937,-0.3076172 -0.214844,0 -0.38086,0.083008 -0.161133,0.078125 -0.292969,0.2050782 -0.126953,0.1269531 -0.214843,0.2441406 -0.08789,0.1171875 -0.180664,0.2490234 V 0 h -1.757813 v -4.9707031 h 1.757813 v 0.7128906 q 0.415039,-0.4443359 0.830078,-0.6201172 0.419922,-0.180664 0.932617,-0.180664 1.787109,0 1.787109,2.1386718 z m 6.553516,0 h -1.850586 v -6.7675781 h 1.850586 z"
       id="text62"
       style="font-weight:700;font-size:10px;font-family:GillSans-Bold, 'Gill Sans';letter-spacing:-0.04em"
       transform="translate(23.56 178.65) scale(.88 1)"
       aria-label="Pan 1" />
    <path
       d="M35.16,130.71c-.83,0-1.65.07-2.45.17l-.39-2.21c.93-.12,1.88-.19,2.84-.19s1.91.07,2.84.19l-.39,2.21c-.81-.1-1.62-.17-2.45-.17Z"
       style="fill: #000; stroke-width: 0px;"
       id="path63" />
    <path
       d="M20.67,137.08l-1.73-1.45c1.28-1.4,2.74-2.63,4.34-3.66l1.12,1.94c-1.38.9-2.62,1.96-3.73,3.16Z"
       style="fill: #000; stroke-width: 0px;"
       id="path64" />
    <path
       d="M26.14,132.91l-1.12-1.94c1.67-.87,3.46-1.53,5.34-1.95l.39,2.21c-1.62.37-3.16.94-4.61,1.69Z"
       style="fill: #000; stroke-width: 0px;"
       id="path65" />
    <path
       d="M16.93,142.85l-2.1-.76c.73-1.77,1.69-3.42,2.83-4.92l1.73,1.45c-.98,1.3-1.82,2.71-2.46,4.23Z"
       style="fill: #000; stroke-width: 0px;"
       id="path66" />
    <path
       d="M39.59,131.23l.39-2.21c1.88.42,3.67,1.08,5.34,1.95l-1.12,1.94c-1.44-.74-2.98-1.31-4.6-1.69Z"
       style="fill: #000; stroke-width: 0px;"
       id="path67" />
    <path
       d="M15.45,149.54h-2.26c.08-1.93.41-3.8.96-5.58l2.11.77c-.47,1.53-.73,3.15-.81,4.81Z"
       style="fill: #000; stroke-width: 0px;"
       id="path68" />
    <path
       d="M16.31,156.34l-2.1.76c-.57-1.79-.91-3.65-1.01-5.56h2.23c.09,1.65.39,3.25.88,4.8Z"
       style="fill: #000; stroke-width: 0px;"
       id="path69" />
    <path
       d="M19.45,162.42l-1.71,1.44c-1.15-1.5-2.11-3.14-2.84-4.88l2.1-.77c.64,1.5,1.46,2.91,2.45,4.2Z"
       style="fill: #000; stroke-width: 0px;"
       id="path70" />
    <path
       d="M50.94,138.62l1.73-1.45c1.14,1.5,2.1,3.15,2.83,4.92l-2.1.77c-.64-1.52-1.48-2.93-2.46-4.23Z"
       style="fill: #000; stroke-width: 0px;"
       id="path71" />
    <path
       d="M54.07,144.73l2.11-.77c.55,1.78.88,3.65.96,5.58h-2.26c-.08-1.66-.34-3.28-.81-4.81Z"
       style="fill: #000; stroke-width: 0px;"
       id="path72" />
    <path
       d="M54.89,151.54h2.23c-.09,1.91-.44,3.78-1.01,5.56l-2.1-.77c.48-1.54.79-3.15.88-4.8Z"
       style="fill: #000; stroke-width: 0px;"
       id="path73" />
    <path
       d="M53.33,158.22l2.11.77c-.73,1.74-1.69,3.38-2.84,4.88l-1.71-1.44c.99-1.3,1.81-2.71,2.45-4.2Z"
       style="fill: #000; stroke-width: 0px;"
       id="path74" />
    <path
       d="M24.47,167.07l-1.12,1.93c-1.61-1.03-3.05-2.24-4.32-3.62l1.71-1.44c1.1,1.18,2.34,2.23,3.72,3.12Z"
       style="fill: #000; stroke-width: 0px;"
       id="path75" />
    <path
       d="M49.58,163.95l1.71,1.44c-1.27,1.37-2.71,2.59-4.32,3.62l-1.12-1.93c1.38-.89,2.62-1.94,3.72-3.12Z"
       style="fill: #000; stroke-width: 0px;"
       id="path76" />
    <path
       d="M45.92,133.91l1.12-1.94c1.6,1.03,3.06,2.26,4.34,3.66l-1.73,1.45c-1.11-1.2-2.36-2.27-3.74-3.16Z"
       style="fill: #000; stroke-width: 0px;"
       id="path77" />
    <path
       d="m 6.7089844,-4.6386719 q 0,0.3759766 -0.131836,0.7373047 -0.1269531,0.3564453 -0.415039,0.6689453 -0.288086,0.3076172 -0.78125,0.5029297 -0.4882813,0.1904297 -1.1523438,0.1904297 H 2.890625 V 0 H 0.84960938 V -6.7675781 H 4.2285156 q 0.6640625,0 1.1523438,0.1953125 0.493164,0.1953125 0.78125,0.5078125 0.2880859,0.3125 0.415039,0.6787109 0.131836,0.366211 0.131836,0.7470703 z m -2.0800782,0.00977 q 0,-0.4833985 -0.2880859,-0.6591797 Q 4.0576172,-5.46875 3.3203125,-5.46875 H 2.890625 v 1.6308594 h 0.4394531 q 0.5078125,0 0.78125,-0.063477 0.2734375,-0.063477 0.3955078,-0.234375 0.1220703,-0.1708984 0.1220703,-0.493164 z m 7.3929688,4.37988276 q -0.385742,0.15136719 -0.712891,0.24414063 -0.327148,0.09277343 -0.786133,0.09277343 -0.43457,0 -0.6054683,-0.15136718 -0.1708984,-0.15625 -0.2441406,-0.37597657 -0.2832031,0.22949219 -0.6298828,0.38085938 -0.3466797,0.14648437 -0.9082031,0.14648437 -0.5419922,0 -0.8789063,-0.18554687 Q 6.9242187,-0.28808594 6.7874999,-0.57128906 6.655664,-0.859375 6.655664,-1.1621094 q 0,-0.4589843 0.2294922,-0.7568359 0.234375,-0.3027344 0.625,-0.4931641 0.390625,-0.1904297 1.0351562,-0.3955078 0.3662109,-0.1171875 0.5517578,-0.1757812 0.1904297,-0.063477 0.2832031,-0.097656 0.092773,-0.03418 0.1953125,-0.087891 0,-0.3613281 -0.1464843,-0.5664063 -0.1464844,-0.2050781 -0.6347657,-0.2050781 -0.5761718,0 -1.0693359,0.2539063 -0.4931641,0.2539062 -0.9033203,0.6542968 v -1.3476562 q 0.3271484,-0.234375 0.7080078,-0.3808594 0.3808594,-0.1513672 0.7958984,-0.2246094 0.4150391,-0.073242 0.8398438,-0.073242 1.0791014,0 1.6210934,0.4199218 0.546875,0.4150391 0.546875,1.147461 v 1.9189453 q 0,0.2734375 0.04883,0.4101562 0.05371,0.131836 0.19043,0.131836 0.166016,0 0.449219,-0.1416016 z M 9.5755858,-1.2011719 v -1.1767578 q -0.625,0.2539063 -0.9130859,0.4589844 -0.2880859,0.2001953 -0.2880859,0.546875 0,0.2490234 0.1416015,0.38085936 0.1464844,0.13183594 0.3369141,0.13183594 0.1806641,0 0.3564453,-0.0976563 Q 9.390039,-1.0595703 9.5755858,-1.2011719 Z M 17.622851,0 h -1.757812 v -2.6806641 q 0,-0.4101562 -0.136719,-0.7128906 -0.131836,-0.3076172 -0.585937,-0.3076172 -0.214844,0 -0.38086,0.083008 -0.161133,0.078125 -0.292969,0.2050782 -0.126953,0.1269531 -0.214843,0.2441406 -0.08789,0.1171875 -0.180664,0.2490234 V 0 h -1.757813 v -4.9707031 h 1.757813 v 0.7128906 q 0.415039,-0.4443359 0.830078,-0.6201172 0.419922,-0.180664 0.932617,-0.180664 1.787109,0 1.787109,2.1386718 z m 8.213672,0 h -5.141602 v -0.13183594 q 0.297852,-0.28808594 0.654297,-0.68847656 0.356446,-0.4003906 0.917969,-1.0595703 0.258789,-0.2978516 0.483399,-0.5859375 0.229492,-0.288086 0.390625,-0.5566406 0.161132,-0.2734375 0.273437,-0.600586 0.112305,-0.3271484 0.112305,-0.6689453 0,-0.46875 -0.273438,-0.7568359 -0.268554,-0.2929688 -0.688476,-0.2929688 -0.830078,0 -1.650391,0.859375 v -1.5966797 q 0.288086,-0.1855468 0.473633,-0.2978515 0.185547,-0.1123047 0.424805,-0.2197266 0.24414,-0.1074219 0.576171,-0.1855469 0.332032,-0.078125 0.717774,-0.078125 0.620117,0 1.12793,0.2539063 0.507812,0.2490234 0.795898,0.7275391 0.292969,0.4736328 0.292969,1.1083984 0,0.4492187 -0.131836,0.8398437 -0.131836,0.390625 -0.273438,0.6298828 -0.141601,0.2392579 -0.375976,0.5908204 -0.419922,0.625 -0.898438,1.1914062 h 2.192383 z"
       id="text77"
       style="font-weight:700;font-size:10px;font-family:GillSans-Bold, 'Gill Sans';letter-spacing:-0.04em"
       transform="translate(86.52 178.65) scale(.88 1)"
       aria-label="Pan 2" />
    <path
       d="M98.12,130.71c-.83,0-1.65.07-2.45.17l-.39-2.21c.93-.12,1.88-.19,2.84-.19s1.91.07,2.84.19l-.39,2.21c-.81-.1-1.62-.17-2.45-.17Z"
       style="fill: #000; stroke-width: 0px;"
       id="path78" />
    <path
       d="M83.63,137.08l-1.73-1.45c1.28-1.4,2.74-2.63,4.34-3.66l1.12,1.94c-1.38.9-2.62,1.96-3.73,3.16Z"
       style="fill: #000; stroke-width: 0px;"
       id="path79" />
    <path
       d="M89.09,132.91l-1.12-1.94c1.67-.87,3.46-1.53,5.34-1.95l.39,2.21c-1.62.37-3.16.94-4.61,1.69Z"
       style="fill: #000; stroke-width: 0px;"
       id="path80" />
    <path
       d="M79.89,142.85l-2.1-.76c.73-1.77,1.69-3.42,2.83-4.92l1.73,1.45c-.98,1.3-1.82,2.71-2.46,4.23Z"
       style="fill: #000; stroke-width: 0px;"
       id="path81" />
    <path
       d="M102.54,131.23l.39-2.21c1.88.42,3.67,1.08,5.34,1.95l-1.12,1.94c-1.44-.74-2.98-1.31-4.6-1.69Z"
       style="fill: #000; stroke-width: 0px;"
       id="path82" />
    <path
       d="M78.4,149.54h-2.26c.08-1.93.41-3.8.96-5.58l2.11.77c-.47,1.53-.73,3.15-.81,4.81Z"
       style="fill: #000; stroke-width: 0px;"
       id="path83" />
    <path
       d="M79.27,156.34l-2.1.76c-.57-1.79-.91-3.65-1.01-5.56h2.23c.09,1.65.39,3.25.88,4.8Z"
       style="fill: #000; stroke-width: 0px;"
       id="path84" />
    <path
       d="M82.41,162.42l-1.71,1.44c-1.15-1.5-2.11-3.14-2.84-4.88l2.1-.77c.64,1.5,1.46,2.91,2.45,4.2Z"
       style="fill: #000; stroke-width: 0px;"
       id="path85" />
    <path
       d="M113.89,138.62l1.73-1.45c1.14,1.5,2.1,3.15,2.83,4.92l-2.1.77c-.64-1.52-1.48-2.93-2.46-4.23Z"
       style="fill: #000; stroke-width: 0px;"
       id="path86" />
    <path
       d="M117.03,144.73l2.11-.77c.55,1.78.88,3.65.96,5.58h-2.26c-.08-1.66-.34-3.28-.81-4.81Z"
       style="fill: #000; stroke-width: 0px;"
       id="path87" />
    <path
       d="M117.85,151.54h2.23c-.09,1.91-.44,3.78-1.01,5.56l-2.1-.77c.48-1.54.79-3.15.88-4.8Z"
       style="fill: #000; stroke-width: 0px;"
       id="path88" />
    <path
       d="M116.29,158.22l2.11.77c-.73,1.74-1.69,3.38-2.84,4.88l-1.71-1.44c.99-1.3,1.81-2.71,2.45-4.2Z"
       style="fill: #000; stroke-width: 0px;"
       id="path89" />
    <path
       d="M87.43,167.07l-1.12,1.93c-1.61-1.03-3.05-2.24-4.32-3.62l1.71-1.44c1.1,1.18,2.34,2.23,3.72,3.12Z"
       style="fill: #000; stroke-width: 0px;"
       id="path90" />
    <path
       d="M112.54,163.95l1.71,1.44c-1.27,1.37-2.71,2.59-4.32,3.62l-1.12-1.93c1.38-.89,2.62-1.94,3.72-3.12Z"
       style="fill: #000; stroke-width: 0px;"
       id="path91" />
    <path
       d="M108.88,133.92l1.12-1.94c1.6,1.03,3.06,2.26,4.34,3.66l-1.73,1.45c-1.11-1.2-2.36-2.27-3.74-3.16Z"
       style="fill: #000; stroke-width: 0px;"
       id="path92" />
    <path
       d="m 6.7089844,-4.6386719 q 0,0.3759766 -0.131836,0.7373047 -0.1269531,0.3564453 -0.415039,0.6689453 -0.288086,0.3076172 -0.78125,0.5029297 -0.4882813,0.1904297 -1.1523438,0.1904297 H 2.890625 V 0 H 0.84960938 V -6.7675781 H 4.2285156 q 0.6640625,0 1.1523438,0.1953125 0.493164,0.1953125 0.78125,0.5078125 0.2880859,0.3125 0.415039,0.6787109 0.131836,0.366211 0.131836,0.7470703 z m -2.0800782,0.00977 q 0,-0.4833985 -0.2880859,-0.6591797 Q 4.0576172,-5.46875 3.3203125,-5.46875 H 2.890625 v 1.6308594 h 0.4394531 q 0.5078125,0 0.78125,-0.063477 0.2734375,-0.063477 0.3955078,-0.234375 0.1220703,-0.1708984 0.1220703,-0.493164 z m 7.3929688,4.37988276 q -0.385742,0.15136719 -0.712891,0.24414063 -0.327148,0.09277343 -0.786133,0.09277343 -0.43457,0 -0.6054683,-0.15136718 -0.1708984,-0.15625 -0.2441406,-0.37597657 -0.2832031,0.22949219 -0.6298828,0.38085938 -0.3466797,0.14648437 -0.9082031,0.14648437 -0.5419922,0 -0.8789063,-0.18554687 Q 6.9242187,-0.28808594 6.7874999,-0.57128906 6.655664,-0.859375 6.655664,-1.1621094 q 0,-0.4589843 0.2294922,-0.7568359 0.234375,-0.3027344 0.625,-0.4931641 0.390625,-0.1904297 1.0351562,-0.3955078 0.3662109,-0.1171875 0.5517578,-0.1757812 0.1904297,-0.063477 0.2832031,-0.097656 0.092773,-0.03418 0.1953125,-0.087891 0,-0.3613281 -0.1464843,-0.5664063 -0.1464844,-0.2050781 -0.6347657,-0.2050781 -0.5761718,0 -1.0693359,0.2539063 -0.4931641,0.2539062 -0.9033203,0.6542968 v -1.3476562 q 0.3271484,-0.234375 0.7080078,-0.3808594 0.3808594,-0.1513672 0.7958984,-0.2246094 0.4150391,-0.073242 0.8398438,-0.073242 1.0791014,0 1.6210934,0.4199218 0.546875,0.4150391 0.546875,1.147461 v 1.9189453 q 0,0.2734375 0.04883,0.4101562 0.05371,0.131836 0.19043,0.131836 0.166016,0 0.449219,-0.1416016 z M 9.5755858,-1.2011719 v -1.1767578 q -0.625,0.2539063 -0.9130859,0.4589844 -0.2880859,0.2001953 -0.2880859,0.546875 0,0.2490234 0.1416015,0.38085936 0.1464844,0.13183594 0.3369141,0.13183594 0.1806641,0 0.3564453,-0.0976563 Q 9.390039,-1.0595703 9.5755858,-1.2011719 Z M 17.622851,0 h -1.757812 v -2.6806641 q 0,-0.4101562 -0.136719,-0.7128906 -0.131836,-0.3076172 -0.585937,-0.3076172 -0.214844,0 -0.38086,0.083008 -0.161133,0.078125 -0.292969,0.2050782 -0.126953,0.1269531 -0.214843,0.2441406 -0.08789,0.1171875 -0.180664,0.2490234 V 0 h -1.757813 v -4.9707031 h 1.757813 v 0.7128906 q 0.415039,-0.4443359 0.830078,-0.6201172 0.419922,-0.180664 0.932617,-0.180664 1.787109,0 1.787109,2.1386718 z M 25.86582,-1.4599609 H 25.065039 V 0 h -1.801758 v -1.4599609 h -2.749024 v -1.2890625 l 3.100586,-4.0185547 h 1.450196 v 4.1455078 h 0.800781 z m -2.602539,-1.1621094 v -2.1679688 l -1.679688,2.1679688 z"
       id="text92"
       style="font-weight:700;font-size:10px;font-family:GillSans-Bold, 'Gill Sans';letter-spacing:-0.04em"
       transform="translate(212.43 178.65) scale(.88 1)"
       aria-label="Pan 4" />
    <path
       d="M224.04,130.71c-.83,0-1.65.07-2.45.17l-.39-2.21c.93-.12,1.88-.19,2.84-.19s1.91.07,2.84.19l-.39,2.21c-.81-.1-1.62-.17-2.45-.17Z"
       style="fill: #000; stroke-width: 0px;"
       id="path93" />
    <path
       d="M209.54,137.08l-1.73-1.45c1.28-1.4,2.74-2.63,4.34-3.66l1.12,1.94c-1.38.9-2.62,1.96-3.73,3.16Z"
       style="fill: #000; stroke-width: 0px;"
       id="path94" />
    <path
       d="M215.01,132.91l-1.12-1.94c1.67-.87,3.46-1.53,5.34-1.95l.39,2.21c-1.62.37-3.16.94-4.61,1.69Z"
       style="fill: #000; stroke-width: 0px;"
       id="path95" />
    <path
       d="M205.81,142.85l-2.1-.76c.73-1.77,1.69-3.42,2.83-4.92l1.73,1.45c-.98,1.3-1.82,2.71-2.46,4.23Z"
       style="fill: #000; stroke-width: 0px;"
       id="path96" />
    <path
       d="M228.46,131.23l.39-2.21c1.88.42,3.67,1.08,5.34,1.95l-1.12,1.94c-1.44-.74-2.98-1.31-4.6-1.69Z"
       style="fill: #000; stroke-width: 0px;"
       id="path97" />
    <path
       d="M204.32,149.54h-2.26c.08-1.93.41-3.8.96-5.58l2.11.77c-.47,1.53-.73,3.15-.81,4.81Z"
       style="fill: #000; stroke-width: 0px;"
       id="path98" />
    <path
       d="M205.18,156.34l-2.1.76c-.57-1.79-.91-3.65-1.01-5.56h2.23c.09,1.65.39,3.25.88,4.8Z"
       style="fill: #000; stroke-width: 0px;"
       id="path99" />
    <path
       d="M208.32,162.42l-1.71,1.44c-1.15-1.5-2.11-3.14-2.84-4.88l2.1-.77c.64,1.5,1.46,2.91,2.45,4.2Z"
       style="fill: #000; stroke-width: 0px;"
       id="path100" />
    <path
       d="M239.81,138.62l1.73-1.45c1.14,1.5,2.1,3.15,2.83,4.92l-2.1.77c-.64-1.52-1.48-2.93-2.46-4.23Z"
       style="fill: #000; stroke-width: 0px;"
       id="path101" />
    <path
       d="M242.94,144.73l2.11-.77c.55,1.78.88,3.65.96,5.58h-2.26c-.08-1.66-.34-3.28-.81-4.81Z"
       style="fill: #000; stroke-width: 0px;"
       id="path102" />
    <path
       d="M243.76,151.54h2.23c-.09,1.91-.44,3.78-1.01,5.56l-2.1-.77c.48-1.54.79-3.15.88-4.8Z"
       style="fill: #000; stroke-width: 0px;"
       id="path103" />
    <path
       d="M242.2,158.22l2.11.77c-.73,1.74-1.69,3.38-2.84,4.88l-1.71-1.44c.99-1.3,1.81-2.71,2.45-4.2Z"
       style="fill: #000; stroke-width: 0px;"
       id="path104" />
    <path
       d="M213.34,167.07l-1.12,1.93c-1.61-1.03-3.05-2.24-4.32-3.62l1.71-1.44c1.1,1.18,2.34,2.23,3.72,3.12Z"
       style="fill: #000; stroke-width: 0px;"
       id="path105" />
    <path
       d="M238.46,163.95l1.71,1.44c-1.27,1.37-2.71,2.59-4.32,3.62l-1.12-1.93c1.38-.89,2.62-1.94,3.72-3.12Z"
       style="fill: #000; stroke-width: 0px;"
       id="path106" />
    <path
       d="M234.79,133.92l1.12-1.94c1.6,1.03,3.06,2.26,4.34,3.66l-1.73,1.45c-1.11-1.2-2.36-2.27-3.74-3.16Z"
       style="fill: #000; stroke-width: 0px;"
       id="path107" />
    <path
       d="m 6.7089844,-4.6386719 q 0,0.3759766 -0.131836,0.7373047 -0.1269531,0.3564453 -0.415039,0.6689453 -0.288086,0.3076172 -0.78125,0.5029297 -0.4882813,0.1904297 -1.1523438,0.1904297 H 2.890625 V 0 H 0.84960938 V -6.7675781 H 4.2285156 q 0.6640625,0 1.1523438,0.1953125 0.493164,0.1953125 0.78125,0.5078125 0.2880859,0.3125 0.415039,0.6787109 0.131836,0.366211 0.131836,0.7470703 z m -2.0800782,0.00977 q 0,-0.4833985 -0.2880859,-0.6591797 Q 4.0576172,-5.46875 3.3203125,-5.46875 H 2.890625 v 1.6308594 h 0.4394531 q 0.5078125,0 0.78125,-0.063477 0.2734375,-0.063477 0.3955078,-0.234375 0.1220703,-0.1708984 0.1220703,-0.493164 z m 7.3929688,4.37988276 q -0.385742,0.15136719 -0.712891,0.24414063 -0.327148,0.09277343 -0.786133,0.09277343 -0.43457,0 -0.6054683,-0.15136718 -0.1708984,-0.15625 -0.2441406,-0.37597657 -0.2832031,0.22949219 -0.6298828,0.38085938 -0.3466797,0.14648437 -0.9082031,0.14648437 -0.5419922,0 -0.8789063,-0.18554687 Q 6.9242187,-0.28808594 6.7874999,-0.57128906 6.655664,-0.859375 6.655664,-1.1621094 q 0,-0.4589843 0.2294922,-0.7568359 0.234375,-0.3027344 0.625,-0.4931641 0.390625,-0.1904297 1.0351562,-0.3955078 0.3662109,-0.1171875 0.5517578,-0.1757812 0.1904297,-0.063477 0.2832031,-0.097656 0.092773,-0.03418 0.1953125,-0.087891 0,-0.3613281 -0.1464843,-0.5664063 -0.1464844,-0.2050781 -0.6347657,-0.2050781 -0.5761718,0 -1.0693359,0.2539063 -0.4931641,0.2539062 -0.9033203,0.6542968 v -1.3476562 q 0.3271484,-0.234375 0.7080078,-0.3808594 0.3808594,-0.1513672 0.7958984,-0.2246094 0.4150391,-0.073242 0.8398438,-0.073242 1.0791014,0 1.6210934,0.4199218 0.546875,0.4150391 0.546875,1.147461 v 1.9189453 q 0,0.2734375 0.04883,0.4101562 0.05371,0.131836 0.19043,0.131836 0.166016,0 0.449219,-0.1416016 z M 9.5755858,-1.2011719 v -1.1767578 q -0.625,0.2539063 -0.9130859,0.4589844 -0.2880859,0.2001953 -0.2880859,0.546875 0,0.2490234 0.1416015,0.38085936 0.1464844,0.13183594 0.3369141,0.13183594 0.1806641,0 0.3564453,-0.0976563 Q 9.390039,-1.0595703 9.5755858,-1.2011719 Z M 17.622851,0 h -1.757812 v -2.6806641 q 0,-0.4101562 -0.136719,-0.7128906 -0.131836,-0.3076172 -0.585937,-0.3076172 -0.214844,0 -0.38086,0.083008 -0.161133,0.078125 -0.292969,0.2050782 -0.126953,0.1269531 -0.214843,0.2441406 -0.08789,0.1171875 -0.180664,0.2490234 V 0 h -1.757813 v -4.9707031 h 1.757813 v 0.7128906 q 0.415039,-0.4443359 0.830078,-0.6201172 0.419922,-0.180664 0.932617,-0.180664 1.787109,0 1.787109,2.1386718 z m 7.79375,-1.8798828 q 0,0.5322266 -0.209961,0.90820311 -0.209961,0.37597657 -0.55664,0.61523438 -0.341797,0.234375 -0.727539,0.34179687 -0.385743,0.10253906 -0.747071,0.10253906 -0.512695,0 -1.132812,-0.14160156 -0.620117,-0.14648437 -1.040039,-0.34667969 V -1.9189453 q 0.341797,0.2832031 0.737304,0.4785156 Q 22.135351,-1.25 22.555273,-1.25 q 0.317383,0 0.532227,-0.1171875 0.219726,-0.1171875 0.327148,-0.2929687 0.112305,-0.1806641 0.112305,-0.3808594 0,-0.2587891 -0.136719,-0.4589844 -0.136719,-0.2001953 -0.395508,-0.3173828 -0.258789,-0.1220703 -0.600586,-0.1220703 h -0.219726 v -1.0888672 h 0.258789 q 0.341797,0 0.561523,-0.1318359 0.22461,-0.131836 0.322266,-0.3125 0.09766,-0.1855469 0.09766,-0.3466797 0,-0.3076172 -0.239258,-0.5419922 -0.234375,-0.2392578 -0.610351,-0.2392578 -0.336914,0 -0.703125,0.1269531 -0.361328,0.1269531 -0.678711,0.3417969 v -1.2988282 q 0.478515,-0.2001953 0.898437,-0.3125 0.424805,-0.1171875 0.952149,-0.1171875 0.766601,0 1.279297,0.2978516 0.517578,0.2978516 0.751953,0.7226563 0.239257,0.4199218 0.239257,0.7910156 0,0.3027344 -0.131835,0.6054687 -0.131836,0.3027344 -0.34668,0.5371094 -0.209961,0.234375 -0.439453,0.3662109 0.405273,0.2148438 0.717773,0.5957032 0.3125,0.3808593 0.3125,1.0644531 z"
       id="text107"
       style="font-weight:700;font-size:10px;font-family:GillSans-Bold, 'Gill Sans';letter-spacing:-0.04em"
       transform="translate(149.47 178.65) scale(.88 1)"
       aria-label="Pan 3" />
    <path
       d="M161.08,130.71c-.83,0-1.65.07-2.45.17l-.39-2.21c.93-.12,1.88-.19,2.84-.19s1.91.07,2.84.19l-.39,2.21c-.81-.1-1.62-.17-2.45-.17Z"
       style="fill: #000; stroke-width: 0px;"
       id="path108" />
    <path
       d="M146.59,137.08l-1.73-1.45c1.28-1.4,2.74-2.63,4.34-3.66l1.12,1.94c-1.38.9-2.62,1.96-3.73,3.16Z"
       style="fill: #000; stroke-width: 0px;"
       id="path109" />
    <path
       d="M152.05,132.91l-1.12-1.94c1.67-.87,3.46-1.53,5.34-1.95l.39,2.21c-1.62.37-3.16.94-4.61,1.69Z"
       style="fill: #000; stroke-width: 0px;"
       id="path110" />
    <path
       d="M142.85,142.85l-2.1-.76c.73-1.77,1.69-3.42,2.83-4.92l1.73,1.45c-.98,1.3-1.82,2.71-2.46,4.23Z"
       style="fill: #000; stroke-width: 0px;"
       id="path111" />
    <path
       d="M165.5,131.23l.39-2.21c1.88.42,3.67,1.08,5.34,1.95l-1.12,1.94c-1.44-.74-2.98-1.31-4.6-1.69Z"
       style="fill: #000; stroke-width: 0px;"
       id="path112" />
    <path
       d="M141.36,149.54h-2.26c.08-1.93.41-3.8.96-5.58l2.11.77c-.47,1.53-.73,3.15-.81,4.81Z"
       style="fill: #000; stroke-width: 0px;"
       id="path113" />
    <path
       d="M142.23,156.34l-2.1.76c-.57-1.79-.91-3.65-1.01-5.56h2.23c.09,1.65.39,3.25.88,4.8Z"
       style="fill: #000; stroke-width: 0px;"
       id="path114" />
    <path
       d="M145.37,162.42l-1.71,1.44c-1.15-1.5-2.11-3.14-2.84-4.88l2.1-.77c.64,1.5,1.46,2.91,2.45,4.2Z"
       style="fill: #000; stroke-width: 0px;"
       id="path115" />
    <path
       d="M176.85,138.62l1.73-1.45c1.14,1.5,2.1,3.15,2.83,4.92l-2.1.77c-.64-1.52-1.48-2.93-2.46-4.23Z"
       style="fill: #000; stroke-width: 0px;"
       id="path116" />
    <path
       d="M179.98,144.73l2.11-.77c.55,1.78.88,3.65.96,5.58h-2.26c-.08-1.66-.34-3.28-.81-4.81Z"
       style="fill: #000; stroke-width: 0px;"
       id="path117" />
    <path
       d="M180.81,151.54h2.23c-.09,1.91-.44,3.78-1.01,5.56l-2.1-.77c.48-1.54.79-3.15.88-4.8Z"
       style="fill: #000; stroke-width: 0px;"
       id="path118" />
    <path
       d="M179.24,158.22l2.11.77c-.73,1.74-1.69,3.38-2.84,4.88l-1.71-1.44c.99-1.3,1.81-2.71,2.45-4.2Z"
       style="fill: #000; stroke-width: 0px;"
       id="path119" />
    <path
       d="M150.39,167.07l-1.12,1.93c-1.61-1.03-3.05-2.24-4.32-3.62l1.71-1.44c1.1,1.18,2.34,2.23,3.72,3.12Z"
       style="fill: #000; stroke-width: 0px;"
       id="path120" />
    <path
       d="M175.5,163.95l1.71,1.44c-1.27,1.37-2.71,2.59-4.32,3.62l-1.12-1.93c1.38-.89,2.62-1.94,3.72-3.12Z"
       style="fill: #000; stroke-width: 0px;"
       id="path121" />
    <path
       d="M171.83,133.92l1.12-1.94c1.6,1.03,3.06,2.26,4.34,3.66l-1.73,1.45c-1.11-1.2-2.36-2.27-3.74-3.16Z"
       style="fill: #000; stroke-width: 0px;"
       id="path122" />
    <path
       d="M226.93,206.26H32.27c-7.8,0-14.17,6.38-14.17,14.17v76.54c0,3.12,2.55,5.67,5.67,5.67h211.67c3.12,0,5.67-2.55,5.67-5.67v-76.54c0-7.8-6.38-14.17-14.17-14.17Z"
       style="fill: #ededed; stroke: #000; stroke-miterlimit: 10;"
       id="path123" />
    <path
       d="M 2.3203125,0 H 0.6875 v -5.4140625 h 1.6328125 z m 5.0628126,0 h -1.40625 v -2.1445313 q 0,-0.328125 -0.109375,-0.5703125 -0.1054688,-0.2460937 -0.46875,-0.2460937 -0.171875,0 -0.3046875,0.066406 -0.1289063,0.0625 -0.234375,0.1640625 -0.1015625,0.1015625 -0.171875,0.1953125 -0.070312,0.09375 -0.1445313,0.1992188 V 0 h -1.40625 v -3.9765625 h 1.40625 V -3.40625 q 0.3320313,-0.3554688 0.6640625,-0.4960938 0.3359375,-0.1445312 0.7460938,-0.1445312 1.4296875,0 1.4296875,1.7109375 z m 5.2428119,0 h -1.480468 v -5.4140625 h 1.480468 z m 8.168594,0 H 16.68125 v -5.4140625 h 1.632812 v 4.1171875 h 2.480469 z"
       id="text123"
       style="font-weight:700;font-size:8px;font-family:GillSans-Bold, 'Gill Sans';letter-spacing:-0.04em"
       transform="translate(25.63 247.71) scale(.88 1)"
       aria-label="In 1 L" />
    <path
       d="M 2.3203125,0 H 0.6875 v -5.4140625 h 1.6328125 z m 5.0628126,0 h -1.40625 v -2.1445313 q 0,-0.328125 -0.109375,-0.5703125 -0.1054688,-0.2460937 -0.46875,-0.2460937 -0.171875,0 -0.3046875,0.066406 -0.1289063,0.0625 -0.234375,0.1640625 -0.1015625,0.1015625 -0.171875,0.1953125 -0.070312,0.09375 -0.1445313,0.1992188 V 0 h -1.40625 v -3.9765625 h 1.40625 V -3.40625 q 0.3320313,-0.3554688 0.6640625,-0.4960938 0.3359375,-0.1445312 0.7460938,-0.1445312 1.4296875,0 1.4296875,1.7109375 z M 13.954062,0 H 9.8407812 V -0.10546875 Q 10.079062,-0.3359375 10.364219,-0.65625 q 0.285156,-0.3203125 0.734375,-0.8476562 0.207031,-0.2382813 0.386718,-0.46875 0.183594,-0.2304688 0.3125,-0.4453126 0.128907,-0.21875 0.21875,-0.4804687 0.08984,-0.2617188 0.08984,-0.5351563 0,-0.375 -0.21875,-0.6054687 -0.214844,-0.234375 -0.550781,-0.234375 -0.664063,0 -1.320313,0.6875 v -1.2773437 q 0.230469,-0.1484375 0.378907,-0.2382813 0.148437,-0.089844 0.339843,-0.1757812 0.195313,-0.085937 0.460938,-0.1484375 0.265625,-0.0625 0.574219,-0.0625 0.496093,0 0.902343,0.203125 0.40625,0.1992187 0.636719,0.5820312 0.234375,0.3789063 0.234375,0.8867187 0,0.359375 -0.105469,0.671875 -0.105468,0.3125 -0.21875,0.5039063 -0.113281,0.1914062 -0.300781,0.4726562 -0.335937,0.5000001 -0.71875,0.9531251 h 1.753906 z m 6.840469,0 H 16.68125 v -5.4140625 h 1.632812 v 4.1171875 h 2.480469 z"
       id="text124"
       style="font-weight:700;font-size:8px;font-family:GillSans-Bold, 'Gill Sans';letter-spacing:-0.04em"
       transform="translate(88.67 247.71) scale(.88 1)"
       aria-label="In 2 L" />
    <path
       d="M 2.3203125,0 H 0.6875 v -5.4140625 h 1.6328125 z m 5.0628126,0 h -1.40625 v -2.1445313 q 0,-0.328125 -0.109375,-0.5703125 -0.1054688,-0.2460937 -0.46875,-0.2460937 -0.171875,0 -0.3046875,0.066406 -0.1289063,0.0625 -0.234375,0.1640625 -0.1015625,0.1015625 -0.171875,0.1953125 -0.070312,0.09375 -0.1445313,0.1992188 V 0 h -1.40625 v -3.9765625 h 1.40625 V -3.40625 q 0.3320313,-0.3554688 0.6640625,-0.4960938 0.3359375,-0.1445312 0.7460938,-0.1445312 1.4296875,0 1.4296875,1.7109375 z m 6.2349999,-1.5039062 q 0,0.4257812 -0.167969,0.72656245 -0.167969,0.30078125 -0.445312,0.4921875 -0.273438,0.1875 -0.582032,0.2734375 -0.308593,0.08203125 -0.597656,0.08203125 -0.410156,0 -0.90625,-0.11328125 -0.496094,-0.1171875 -0.832031,-0.27734375 v -1.2148437 q 0.273437,0.2265625 0.589844,0.3828125 Q 10.993125,-1 11.329062,-1 q 0.253907,0 0.425782,-0.09375 0.175781,-0.09375 0.261718,-0.234375 0.08984,-0.1445312 0.08984,-0.3046875 0,-0.2070312 -0.109375,-0.3671875 -0.109375,-0.1601563 -0.316406,-0.2539063 -0.207031,-0.097656 -0.480469,-0.097656 h -0.175781 v -0.8710938 h 0.207031 q 0.273438,0 0.449219,-0.1054687 0.179687,-0.1054688 0.257812,-0.25 0.07813,-0.1484375 0.07813,-0.2773438 0,-0.2460937 -0.191406,-0.4335937 -0.1875,-0.1914062 -0.488281,-0.1914062 -0.269531,0 -0.5625,0.1015625 -0.289063,0.1015625 -0.542969,0.2734375 v -1.0390625 q 0.382813,-0.1601563 0.71875,-0.25 0.339844,-0.09375 0.761719,-0.09375 0.613281,0 1.023437,0.2382812 0.414063,0.2382813 0.601563,0.578125 0.191406,0.3359375 0.191406,0.6328125 0,0.2421875 -0.105469,0.484375 Q 13.317344,-3.3125 13.145469,-3.125 q -0.167969,0.1875 -0.351563,0.2929687 0.324219,0.171875 0.574219,0.4765625 0.25,0.3046875 0.25,0.8515626 z M 20.794531,0 H 16.68125 v -5.4140625 h 1.632812 v 4.1171875 h 2.480469 z"
       id="text125"
       style="font-weight:700;font-size:8px;font-family:GillSans-Bold, 'Gill Sans';letter-spacing:-0.04em"
       transform="translate(151.7 247.71) scale(.88 1)"
       aria-label="In 3 L" />
    <path
       d="M 2.3203125,0 H 0.6875 v -5.4140625 h 1.6328125 z m 5.0628126,0 h -1.40625 v -2.1445313 q 0,-0.328125 -0.109375,-0.5703125 -0.1054688,-0.2460937 -0.46875,-0.2460937 -0.171875,0 -0.3046875,0.066406 -0.1289063,0.0625 -0.234375,0.1640625 -0.1015625,0.1015625 -0.171875,0.1953125 -0.070312,0.09375 -0.1445313,0.1992188 V 0 h -1.40625 v -3.9765625 h 1.40625 V -3.40625 q 0.3320313,-0.3554688 0.6640625,-0.4960938 0.3359375,-0.1445312 0.7460938,-0.1445312 1.4296875,0 1.4296875,1.7109375 z M 13.9775,-1.1679687 H 13.336875 V 0 H 11.895469 V -1.1679687 H 9.69625 v -1.0312501 l 2.480469,-3.2148437 h 1.160156 v 3.3164062 H 13.9775 Z m -2.082031,-0.9296876 v -1.734375 l -1.34375,1.734375 z M 20.794531,0 H 16.68125 v -5.4140625 h 1.632812 v 4.1171875 h 2.480469 z"
       id="text126"
       style="font-weight:700;font-size:8px;font-family:GillSans-Bold, 'Gill Sans';letter-spacing:-0.04em"
       transform="translate(214.73 247.71) scale(.88 1)"
       aria-label="In 4 L" />
    <path
       d="M 2.3203125,0 H 0.6875 v -5.4140625 h 1.6328125 z m 5.0628126,0 h -1.40625 v -2.1445313 q 0,-0.328125 -0.109375,-0.5703125 -0.1054688,-0.2460937 -0.46875,-0.2460937 -0.171875,0 -0.3046875,0.066406 -0.1289063,0.0625 -0.234375,0.1640625 -0.1015625,0.1015625 -0.171875,0.1953125 -0.070312,0.09375 -0.1445313,0.1992188 V 0 h -1.40625 v -3.9765625 h 1.40625 V -3.40625 q 0.3320313,-0.3554688 0.6640625,-0.4960938 0.3359375,-0.1445312 0.7460938,-0.1445312 1.4296875,0 1.4296875,1.7109375 z m 5.2428119,0 h -1.480468 v -5.4140625 h 1.480468 z m 9.2975,0 H 20.169531 L 19.74375,-0.9609375 q -0.234375,-0.5273437 -0.421875,-0.7695312 -0.1875,-0.2460938 -0.367188,-0.3125001 -0.175781,-0.070312 -0.457031,-0.070312 H 18.314062 V 0 H 16.68125 v -5.4140625 h 2.777343 q 0.671875,0 1.101563,0.2734375 0.429687,0.2734375 0.617187,0.6640625 0.191407,0.390625 0.191407,0.7421875 0,0.4101562 -0.160157,0.6953125 -0.15625,0.28125 -0.332031,0.4101562 -0.175781,0.1289063 -0.394531,0.2460938 0.261719,0.1523437 0.429687,0.3632812 0.171875,0.2070313 0.464844,0.8437501 z m -2.21875,-3.703125 q 0,-0.375 -0.246094,-0.5234375 Q 19.2125,-4.375 18.657812,-4.375 h -0.34375 v 1.3046875 h 0.351563 q 0.597656,0 0.816406,-0.1289063 0.222656,-0.1328125 0.222656,-0.5039062 z"
       id="text127"
       style="font-weight:700;font-size:8px;font-family:GillSans-Bold, 'Gill Sans';letter-spacing:-0.04em"
       transform="translate(25.13 296.75) scale(.88 1)"
       aria-label="In 1 R" />
    <path
       d="M 2.3203125,0 H 0.6875 v -5.4140625 h 1.6328125 z m 5.0628126,0 h -1.40625 v -2.1445313 q 0,-0.328125 -0.109375,-0.5703125 -0.1054688,-0.2460937 -0.46875,-0.2460937 -0.171875,0 -0.3046875,0.066406 -0.1289063,0.0625 -0.234375,0.1640625 -0.1015625,0.1015625 -0.171875,0.1953125 -0.070312,0.09375 -0.1445313,0.1992188 V 0 h -1.40625 v -3.9765625 h 1.40625 V -3.40625 q 0.3320313,-0.3554688 0.6640625,-0.4960938 0.3359375,-0.1445312 0.7460938,-0.1445312 1.4296875,0 1.4296875,1.7109375 z M 13.954062,0 H 9.8407812 V -0.10546875 Q 10.079062,-0.3359375 10.364219,-0.65625 q 0.285156,-0.3203125 0.734375,-0.8476562 0.207031,-0.2382813 0.386718,-0.46875 0.183594,-0.2304688 0.3125,-0.4453126 0.128907,-0.21875 0.21875,-0.4804687 0.08984,-0.2617188 0.08984,-0.5351563 0,-0.375 -0.21875,-0.6054687 -0.214844,-0.234375 -0.550781,-0.234375 -0.664063,0 -1.320313,0.6875 v -1.2773437 q 0.230469,-0.1484375 0.378907,-0.2382813 0.148437,-0.089844 0.339843,-0.1757812 0.195313,-0.085937 0.460938,-0.1484375 0.265625,-0.0625 0.574219,-0.0625 0.496093,0 0.902343,0.203125 0.40625,0.1992187 0.636719,0.5820312 0.234375,0.3789063 0.234375,0.8867187 0,0.359375 -0.105469,0.671875 -0.105468,0.3125 -0.21875,0.5039063 -0.113281,0.1914062 -0.300781,0.4726562 -0.335937,0.5000001 -0.71875,0.9531251 h 1.753906 z m 7.969375,0 H 20.169531 L 19.74375,-0.9609375 q -0.234375,-0.5273437 -0.421875,-0.7695312 -0.1875,-0.2460938 -0.367188,-0.3125001 -0.175781,-0.070312 -0.457031,-0.070312 H 18.314062 V 0 H 16.68125 v -5.4140625 h 2.777343 q 0.671875,0 1.101563,0.2734375 0.429687,0.2734375 0.617187,0.6640625 0.191407,0.390625 0.191407,0.7421875 0,0.4101562 -0.160157,0.6953125 -0.15625,0.28125 -0.332031,0.4101562 -0.175781,0.1289063 -0.394531,0.2460938 0.261719,0.1523437 0.429687,0.3632812 0.171875,0.2070313 0.464844,0.8437501 z m -2.21875,-3.703125 q 0,-0.375 -0.246094,-0.5234375 Q 19.2125,-4.375 18.657812,-4.375 h -0.34375 v 1.3046875 h 0.351563 q 0.597656,0 0.816406,-0.1289063 0.222656,-0.1328125 0.222656,-0.5039062 z"
       id="text128"
       style="font-weight:700;font-size:8px;font-family:GillSans-Bold, 'Gill Sans';letter-spacing:-0.04em"
       transform="translate(88.17 296.75) scale(.88 1)"
       aria-label="In 2 R" />
    <path
       d="M 2.3203125,0 H 0.6875 v -5.4140625 h 1.6328125 z m 5.0628126,0 h -1.40625 v -2.1445313 q 0,-0.328125 -0.109375,-0.5703125 -0.1054688,-0.2460937 -0.46875,-0.2460937 -0.171875,0 -0.3046875,0.066406 -0.1289063,0.0625 -0.234375,0.1640625 -0.1015625,0.1015625 -0.171875,0.1953125 -0.070312,0.09375 -0.1445313,0.1992188 V 0 h -1.40625 v -3.9765625 h 1.40625 V -3.40625 q 0.3320313,-0.3554688 0.6640625,-0.4960938 0.3359375,-0.1445312 0.7460938,-0.1445312 1.4296875,0 1.4296875,1.7109375 z m 6.2349999,-1.5039062 q 0,0.4257812 -0.167969,0.72656245 -0.167969,0.30078125 -0.445312,0.4921875 -0.273438,0.1875 -0.582032,0.2734375 -0.308593,0.08203125 -0.597656,0.08203125 -0.410156,0 -0.90625,-0.11328125 -0.496094,-0.1171875 -0.832031,-0.27734375 v -1.2148437 q 0.273437,0.2265625 0.589844,0.3828125 Q 10.993125,-1 11.329062,-1 q 0.253907,0 0.425782,-0.09375 0.175781,-0.09375 0.261718,-0.234375 0.08984,-0.1445312 0.08984,-0.3046875 0,-0.2070312 -0.109375,-0.3671875 -0.109375,-0.1601563 -0.316406,-0.2539063 -0.207031,-0.097656 -0.480469,-0.097656 h -0.175781 v -0.8710938 h 0.207031 q 0.273438,0 0.449219,-0.1054687 0.179687,-0.1054688 0.257812,-0.25 0.07813,-0.1484375 0.07813,-0.2773438 0,-0.2460937 -0.191406,-0.4335937 -0.1875,-0.1914062 -0.488281,-0.1914062 -0.269531,0 -0.5625,0.1015625 -0.289063,0.1015625 -0.542969,0.2734375 v -1.0390625 q 0.382813,-0.1601563 0.71875,-0.25 0.339844,-0.09375 0.761719,-0.09375 0.613281,0 1.023437,0.2382812 0.414063,0.2382813 0.601563,0.578125 0.191406,0.3359375 0.191406,0.6328125 0,0.2421875 -0.105469,0.484375 Q 13.317344,-3.3125 13.145469,-3.125 q -0.167969,0.1875 -0.351563,0.2929687 0.324219,0.171875 0.574219,0.4765625 0.25,0.3046875 0.25,0.8515626 z M 21.923437,0 H 20.169531 L 19.74375,-0.9609375 q -0.234375,-0.5273437 -0.421875,-0.7695312 -0.1875,-0.2460938 -0.367188,-0.3125001 -0.175781,-0.070312 -0.457031,-0.070312 H 18.314062 V 0 H 16.68125 v -5.4140625 h 2.777343 q 0.671875,0 1.101563,0.2734375 0.429687,0.2734375 0.617187,0.6640625 0.191407,0.390625 0.191407,0.7421875 0,0.4101562 -0.160157,0.6953125 -0.15625,0.28125 -0.332031,0.4101562 -0.175781,0.1289063 -0.394531,0.2460938 0.261719,0.1523437 0.429687,0.3632812 0.171875,0.2070313 0.464844,0.8437501 z m -2.21875,-3.703125 q 0,-0.375 -0.246094,-0.5234375 Q 19.2125,-4.375 18.657812,-4.375 h -0.34375 v 1.3046875 h 0.351563 q 0.597656,0 0.816406,-0.1289063 0.222656,-0.1328125 0.222656,-0.5039062 z"
       id="text129"
       style="font-weight:700;font-size:8px;font-family:GillSans-Bold, 'Gill Sans';letter-spacing:-0.04em"
       transform="translate(151.2 296.75) scale(.88 1)"
       aria-label="In 3 R" />
    <path
       d="M 2.3203125,0 H 0.6875 v -5.4140625 h 1.6328125 z m 5.0628126,0 h -1.40625 v -2.1445313 q 0,-0.328125 -0.109375,-0.5703125 -0.1054688,-0.2460937 -0.46875,-0.2460937 -0.171875,0 -0.3046875,0.066406 -0.1289063,0.0625 -0.234375,0.1640625 -0.1015625,0.1015625 -0.171875,0.1953125 -0.070312,0.09375 -0.1445313,0.1992188 V 0 h -1.40625 v -3.9765625 h 1.40625 V -3.40625 q 0.3320313,-0.3554688 0.6640625,-0.4960938 0.3359375,-0.1445312 0.7460938,-0.1445312 1.4296875,0 1.4296875,1.7109375 z M 13.9775,-1.1679687 H 13.336875 V 0 H 11.895469 V -1.1679687 H 9.69625 v -1.0312501 l 2.480469,-3.2148437 h 1.160156 v 3.3164062 H 13.9775 Z m -2.082031,-0.9296876 v -1.734375 l -1.34375,1.734375 z M 21.923437,0 H 20.169531 L 19.74375,-0.9609375 q -0.234375,-0.5273437 -0.421875,-0.7695312 -0.1875,-0.2460938 -0.367188,-0.3125001 -0.175781,-0.070312 -0.457031,-0.070312 H 18.314062 V 0 H 16.68125 v -5.4140625 h 2.777343 q 0.671875,0 1.101563,0.2734375 0.429687,0.2734375 0.617187,0.6640625 0.191407,0.390625 0.191407,0.7421875 0,0.4101562 -0.160157,0.6953125 -0.15625,0.28125 -0.332031,0.4101562 -0.175781,0.1289063 -0.394531,0.2460938 0.261719,0.1523437 0.429687,0.3632812 0.171875,0.2070313 0.464844,0.8437501 z m -2.21875,-3.703125 q 0,-0.375 -0.246094,-0.5234375 Q 19.2125,-4.375 18.657812,-4.375 h -0.34375 v 1.3046875 h 0.351563 q 0.597656,0 0.816406,-0.1289063 0.222656,-0.1328125 0.222656,-0.5039062 z"
       id="text130"
       style="font-weight:700;font-size:8px;font-family:GillSans-Bold, 'Gill Sans';letter-spacing:-0.04em"
       transform="translate(214.24 296.75) scale(.88 1)"
       aria-label="In 4 R" />
    <path
       d="M 5.9912109,0 H 0.84960938 V -6.7675781 H 2.890625 v 5.1464844 h 3.1005859 z"
       id="text131"
       style="font-weight:700;font-size:10px;font-family:GillSans-Bold, 'Gill Sans';letter-spacing:-0.04em;fill:#ffffff"
       transform="translate(159.85 326.05) scale(.88 1)"
       aria-label="L" />
    <path
       d="M 7.4023437,0 H 5.2099609 L 4.6777344,-1.2011719 Q 4.3847656,-1.8603516 4.1503906,-2.1630859 3.9160156,-2.4707031 3.6914063,-2.5537109 3.4716797,-2.6416016 3.1201172,-2.6416016 H 2.890625 V 0 H 0.84960938 V -6.7675781 H 4.3212891 q 0.8398437,0 1.3769531,0.3417969 0.5371094,0.3417968 0.7714844,0.8300781 0.2392578,0.4882812 0.2392578,0.9277344 0,0.5126953 -0.2001953,0.8691406 Q 6.3134766,-3.4472656 6.09375,-3.2861328 5.8740234,-3.125 5.6005859,-2.9785156 5.9277344,-2.7880859 6.1376953,-2.5244141 6.3525391,-2.265625 6.71875,-1.4697266 Z M 4.6289062,-4.6289062 q 0,-0.46875 -0.3076171,-0.6542969 Q 4.0136719,-5.46875 3.3203125,-5.46875 H 2.890625 v 1.6308594 h 0.4394531 q 0.7470703,0 1.0205078,-0.1611328 0.2783203,-0.1660157 0.2783203,-0.6298828 z"
       id="text132"
       style="font-weight:700;font-size:10px;font-family:GillSans-Bold, 'Gill Sans';letter-spacing:-0.04em;fill:#ffffff"
       transform="translate(228.03 326.05) scale(.88 1)"
       aria-label="R" />
    <path
       d="m 6.1391602,-2.1645508 q 0,0.6982422 -0.3598633,1.20849611 Q 5.4248047,-0.44580078 4.7856445,-0.171875 4.1464844,0.09667969 3.3193359,0.09667969 3.0883789,0.09667969 2.75,0.06445312 2.4169922,0.03759766 1.8583984,-0.09667969 1.3051758,-0.23095703 0.70361328,-0.49414063 V -2.3203125 q 0.56396482,0.3491211 1.10644532,0.5800781 0.5478516,0.2309571 1.1708984,0.2309571 0.5747071,0 0.741211,-0.1879883 0.171875,-0.1933594 0.171875,-0.3598633 0,-0.3007813 -0.2900391,-0.5048828 Q 3.3139648,-2.7714844 2.7607422,-2.9916992 2.1484375,-3.2495117 1.6865234,-3.550293 1.2246094,-3.8564453 0.92919922,-4.3129883 0.63916016,-4.7695312 0.63916016,-5.3925781 q 0,-0.6015625 0.29541015,-1.084961 0.29541019,-0.4887695 0.90234379,-0.7788086 0.6069336,-0.290039 1.4824218,-0.290039 0.6230469,0 1.1494141,0.1235351 0.5317383,0.1181641 0.8754883,0.2685547 0.34375,0.1503907 0.4726562,0.2363282 v 1.7456054 Q 5.3603516,-5.5 4.7963867,-5.7578125 4.237793,-6.015625 3.5986328,-6.015625 q -0.4189453,0 -0.6069336,0.1611328 -0.1879883,0.1611328 -0.1879883,0.397461 0,0.2202148 0.1879883,0.3813476 0.1879883,0.1611328 0.6713867,0.3920899 0.859375,0.402832 1.375,0.7250976 0.515625,0.3222656 0.8056641,0.746582 0.2954102,0.4189453 0.2954102,1.0473633 z M 14.802734,-5.6342773 H 12.074219 V 0 H 9.8344727 V -5.6342773 H 7.105957 v -1.8100586 h 7.696777 z M 21.726074,0 h -5.612793 v -7.4443359 h 5.521485 v 1.493164 h -3.276368 v 1.3642578 h 3.125977 v 1.4985352 h -3.125977 v 1.5898437 h 3.367676 z m 8.711914,0 h -2.411621 l -0.585449,-1.3212891 q -0.322266,-0.7250976 -0.580078,-1.0581054 -0.257813,-0.3383789 -0.504883,-0.4296875 -0.241699,-0.09668 -0.628418,-0.09668 H 25.475098 V 0 H 23.22998 v -7.4443359 h 3.818848 q 0.923828,0 1.514649,0.3759765 0.59082,0.3759766 0.848632,0.913086 0.263184,0.5371093 0.263184,1.0205078 0,0.5639648 -0.220215,0.9560547 -0.214844,0.3867187 -0.456543,0.5639648 -0.241699,0.1772461 -0.54248,0.3383789 0.359863,0.2094727 0.59082,0.4995117 0.236328,0.284668 0.63916,1.1601563 z m -3.050781,-5.0917969 q 0,-0.515625 -0.338379,-0.7197265 -0.338379,-0.2041016 -1.101074,-0.2041016 h -0.472656 v 1.7939453 h 0.483398 q 0.821777,0 1.122559,-0.1772461 0.306152,-0.1826172 0.306152,-0.6928711 z M 37.071289,0 h -5.612793 v -7.4443359 h 5.521484 v 1.493164 h -3.276367 v 1.3642578 h 3.125977 v 1.4985352 h -3.125977 v 1.5898437 h 3.367676 z m 9.469238,-3.7275391 q 0,1.0419922 -0.483398,1.9174805 -0.478027,0.87548829 -1.428711,1.39111329 -0.950684,0.515625 -2.314941,0.515625 -1.380372,0 -2.336426,-0.53710938 -0.956055,-0.53710937 -1.42334,-1.41259761 -0.461914,-0.8754883 -0.461914,-1.8745118 0,-1.0043945 0.461914,-1.8745117 0.461914,-0.8754883 1.417969,-1.4072265 0.961425,-0.5371094 2.341797,-0.5371094 1.03125,0 1.836914,0.3061523 0.811035,0.3061524 1.332031,0.8325196 0.520996,0.5209961 0.789551,1.2192382 0.268554,0.6928711 0.268554,1.4609375 z m -2.288086,0 q 0,-0.4189453 -0.123535,-0.7626953 -0.123535,-0.3491211 -0.375976,-0.6015625 -0.247071,-0.2578125 -0.606934,-0.3974609 -0.359863,-0.1450195 -0.832519,-0.1450195 -0.902344,0 -1.417969,0.5263671 -0.515625,0.5263672 -0.515625,1.3803711 0,0.8540039 0.515625,1.3857422 0.520996,0.5263672 1.417969,0.5263672 0.617675,0 1.052734,-0.2416992 0.435059,-0.2470703 0.660644,-0.6767578 0.225586,-0.4350586 0.225586,-0.9936524 z M 59.86084,0 H 57.615723 V -4.3129883 L 55.59082,-1.8154297 H 55.413574 L 53.383301,-4.3129883 V 0 h -2.180664 v -7.4443359 h 2.035644 l 2.288086,2.7929687 2.298828,-2.7929687 h 2.035645 z m 4.135742,0 h -2.245117 v -7.4443359 h 2.245117 z m 10.285645,0 h -2.884278 l -0.789551,-0.93457031 q -0.0376,-0.0537109 -0.467285,-0.56933589 -0.429687,-0.5209961 -0.569336,-0.7089844 -0.644531,0.8701172 -1.052734,1.37499997 L 67.836914,0 h -2.841309 l 3.158204,-3.8725586 -3.013184,-3.5717773 h 2.868164 l 0.510254,0.6230468 q 0.44043,0.5424805 1.052734,1.3535157 0.58545,-0.859375 0.934571,-1.2729493 l 0.585449,-0.7036132 h 2.814453 l -2.89502,3.5717773 z m 6.601074,0 h -5.612793 v -7.4443359 h 5.521484 v 1.493164 h -3.276367 v 1.3642578 h 3.125977 v 1.4985352 h -3.125977 v 1.5898437 h 3.367676 z m 8.711914,0 h -2.411621 l -0.585449,-1.3212891 q -0.322266,-0.7250976 -0.580079,-1.0581054 -0.257812,-0.3383789 -0.504882,-0.4296875 -0.2417,-0.09668 -0.628418,-0.09668 H 84.632324 V 0 h -2.245117 v -7.4443359 h 3.818848 q 0.923828,0 1.514648,0.3759765 0.59082,0.3759766 0.848633,0.913086 0.263184,0.5371093 0.263184,1.0205078 0,0.5639648 -0.220215,0.9560547 -0.214844,0.3867187 -0.456543,0.5639648 -0.2417,0.1772461 -0.542481,0.3383789 0.359864,0.2094727 0.590821,0.4995117 0.236328,0.284668 0.63916,1.1601563 z m -3.050781,-5.0917969 q 0,-0.515625 -0.338379,-0.7197265 Q 85.867676,-6.015625 85.10498,-6.015625 h -0.472656 v 1.7939453 h 0.483399 q 0.821777,0 1.122558,-0.1772461 0.306153,-0.1826172 0.306153,-0.6928711 z"
       id="text133"
       style="font-weight:700;font-size:11px;font-family:GillSans-Bold, 'Gill Sans'"
       transform="translate(95.34 357.25) scale(.82 1)"
       aria-label="STEREO MIXER" />
    <path
       id="line133"
       style="fill:none;stroke:#000000;stroke-width:2px;stroke-miterlimit:10"
       d="m 35.16,91 v 38.81" />
    <path
       id="line134"
       style="fill:none;stroke:#000000;stroke-width:2px;stroke-miterlimit:10"
       d="m 98.120003,91 v 38.81" />
    <path
       id="line135"
       style="fill:none;stroke:#000000;stroke-width:2px;stroke-miterlimit:10"
       d="m 161.08,91 v 38.81" />
    <path
       id="line136"
       style="fill:none;stroke:#000000;stroke-width:2px;stroke-miterlimit:10"
       d="m 224.03999,91 v 38.81" />
    <g
       id="g138">
      <path
         d="M121.4,18.07c-.37,0-.71-.17-.97-.47-.51-.6-.52-1.54-.04-2.16l6.97-8.88c.38-.48,1.05-.65,1.57-.39.5.25.79.82.79,1.45v4.77l4.64-5.85c.38-.48,1.01-.64,1.53-.38.5.25.83.81.83,1.44v8.82c0,.86-.61,1.57-1.36,1.57s-1.36-.7-1.36-1.57v-4.79l-4.64,5.85c-.38.48-1.01.64-1.54.38-.5-.24-.83-.81-.83-1.44v-4.67l-4.61,5.8c-.26.32-.62.51-1,.51h0Z"
         style="fill: #2cabe1; stroke-width: 0px;"
         id="path136" />
      <path
         d="M121.4,18.07c-.75,0-1.35-.7-1.35-1.57v-4.93l-2.26,2.84c-.5.63-1.44.65-1.97.04-.51-.6-.52-1.53-.03-2.15l4.61-5.76c.26-.32.63-.5,1-.5.18,0,.37.04.54.12.5.25.82.81.82,1.44v8.89c0,.86-.61,1.57-1.36,1.57h0Z"
         style="fill: #ea2228; stroke-width: 0px;"
         id="path137" />
      <path
         d="M138,18.09h0c-.35,0-.68-.15-.94-.42-.76-.78-.14-1.84.29-2.3l1.95-2.36-1.26-.02c-.56-.01-1.04-.4-1.24-1-.19-.56-.07-1.21.29-1.64l3.16-3.83c.23-.28.55-.48,1.13-.47.33,0,.67.17.92.4.71.66.29,1.7-.07,2.2l-1.04,1.26,1.26.02c.56.01,1.04.4,1.24,1,.19.56.07,1.21-.29,1.64l-4.1,4.97c-.35.35-.65.55-1.3.54h0Z"
         style="fill: #00a650; stroke-width: 0px;"
         id="path138" />
    </g>
  </g>
  <g
     id="g139" />
</svg>
