<?xml version="1.0" encoding="UTF-8" standalone="no"?>
<svg
   width="40.64mm"
   height="130.55mm"
   viewBox="0 0 115.2 370.07"
   version="1.1"
   id="svg25"
   sodipodi:docname="Switch14_artwork.svg"
   inkscape:version="1.4.2 (ebf0e940, 2025-05-08)"
   xmlns:inkscape="http://www.inkscape.org/namespaces/inkscape"
   xmlns:sodipodi="http://sodipodi.sourceforge.net/DTD/sodipodi-0.dtd"
   xmlns="http://www.w3.org/2000/svg"
   xmlns:svg="http://www.w3.org/2000/svg">
  <defs
     id="defs25" />
  <sodipodi:namedview
     id="namedview25"
     pagecolor="#ffffff"
     bordercolor="#000000"
     borderopacity="0.25"
     inkscape:showpageshadow="2"
     inkscape:pageopacity="0.0"
     inkscape:pagecheckerboard="0"
     inkscape:deskcolor="#d1d1d1"
     inkscape:document-units="mm"
     inkscape:zoom="0.77332647"
     inkscape:cx="188.14822"
     inkscape:cy="371.12398"
     inkscape:window-width="1200"
     inkscape:window-height="979"
     inkscape:window-x="528"
     inkscape:window-y="38"
     inkscape:window-maximized="0"
     inkscape:current-layer="svg25" />
  <g
     id="faceplate">
    <g
       id="g1">
      <path
         id="rect1"
         style="fill:#ededed;stroke-width:0px"
         d="m 0.12,0.13 h 114.95 v 364 H 0.12 Z" />
      <path
         d="M114.95.25v363.75H.25V.25h114.7M115.2,0H0v364.25h115.2V0h0Z"
         style="fill: #9d9d9e; stroke-width: 0px;"
         id="path1" />
    </g>
    <path
       d="M14.4,324.53l-.07-60.21v-92.16l.06-6.21c.29-8.35,6.8-15.02,14-15.02h58.66c7.2,0,13.06,6.67,13.35,15.02l.06,6.21v163.36c0,3.12-2.54,5.67-5.66,5.67h-14.39,0s-15.07,0-15.07,0v-.03h-31.71s-.65,0-.65,0h-12.93c-3.12,0-5.67-2.55-5.67-5.67"
       style="fill: #000; stroke-width: 0px;"
       id="path2" />
    <path
       d="M99.98,170.74v-5.67c0-7.8-6.38-14.17-14.17-14.17H29.09c-7.8,0-14.17,6.38-14.17,14.17v76.37c0,3.12,2.55,5.67,5.67,5.67h73.72c3.12,0,5.67-2.55,5.67-5.67v-70.7Z"
       style="fill: #ededed; stroke: #000; stroke-miterlimit: 10;"
       id="path3" />
    <g
       id="g6">
      <path
         d="M49.4,18.07c-.37,0-.71-.17-.97-.47-.51-.6-.52-1.54-.04-2.16l6.97-8.88c.38-.48,1.05-.65,1.57-.39.5.25.79.82.79,1.45v4.77l4.64-5.85c.38-.48,1.01-.64,1.53-.38.5.25.83.81.83,1.44v8.82c0,.86-.61,1.57-1.36,1.57s-1.36-.7-1.36-1.57v-4.79l-4.64,5.85c-.38.48-1.01.64-1.54.38-.5-.24-.83-.81-.83-1.44v-4.67l-4.61,5.8c-.26.32-.62.51-1,.51h0Z"
         style="fill: #2cabe1; stroke-width: 0px;"
         id="path4" />
      <path
         d="M49.4,18.07c-.75,0-1.35-.7-1.35-1.57v-4.93l-2.26,2.84c-.5.63-1.44.65-1.97.04-.51-.6-.52-1.53-.03-2.15l4.61-5.76c.26-.32.63-.5,1-.5.18,0,.37.04.54.12.5.25.82.81.82,1.44v8.89c0,.86-.61,1.57-1.36,1.57h0Z"
         style="fill: #ea2228; stroke-width: 0px;"
         id="path5" />
      <path
         d="M66,18.09h0c-.35,0-.68-.15-.94-.42-.76-.78-.14-1.84.29-2.3l1.95-2.36-1.26-.02c-.56-.01-1.04-.4-1.24-1-.19-.56-.07-1.21.29-1.64l3.16-3.83c.23-.28.55-.48,1.13-.47.33,0,.67.17.92.4.71.66.29,1.7-.07,2.2l-1.04,1.26,1.26.02c.56.01,1.04.4,1.24,1,.19.56.07,1.21-.29,1.64l-4.1,4.97c-.35.35-.65.55-1.3.54h0Z"
         style="fill: #00a650; stroke-width: 0px;"
         id="path6" />
    </g>
    <g
       id="text">
      <path
         d="m 6.1391602,-2.1645508 q 0,0.6982422 -0.3598633,1.20849611 Q 5.4248047,-0.44580078 4.7856445,-0.171875 4.1464844,0.09667969 3.3193359,0.09667969 3.0883789,0.09667969 2.75,0.06445312 2.4169922,0.03759766 1.8583984,-0.09667969 1.3051758,-0.23095703 0.70361328,-0.49414063 V -2.3203125 q 0.56396482,0.3491211 1.10644532,0.5800781 0.5478516,0.2309571 1.1708984,0.2309571 0.5747071,0 0.741211,-0.1879883 0.171875,-0.1933594 0.171875,-0.3598633 0,-0.3007813 -0.2900391,-0.5048828 Q 3.3139648,-2.7714844 2.7607422,-2.9916992 2.1484375,-3.2495117 1.6865234,-3.550293 1.2246094,-3.8564453 0.92919922,-4.3129883 0.63916016,-4.7695312 0.63916016,-5.3925781 q 0,-0.6015625 0.29541015,-1.084961 0.29541019,-0.4887695 0.90234379,-0.7788086 0.6069336,-0.290039 1.4824218,-0.290039 0.6230469,0 1.1494141,0.1235351 0.5317383,0.1181641 0.8754883,0.2685547 0.34375,0.1503907 0.4726562,0.2363282 v 1.7456054 Q 5.3603516,-5.5 4.7963867,-5.7578125 4.237793,-6.015625 3.5986328,-6.015625 q -0.4189453,0 -0.6069336,0.1611328 -0.1879883,0.1611328 -0.1879883,0.397461 0,0.2202148 0.1879883,0.3813476 0.1879883,0.1611328 0.6713867,0.3920899 0.859375,0.402832 1.375,0.7250976 0.515625,0.3222656 0.8056641,0.746582 0.2954102,0.4189453 0.2954102,1.0473633 z M 19.722656,-7.4443359 16.5,0.09667969 H 15.200195 L 13.266602,-4.2915039 11.284668,0.09667969 H 9.9741211 L 6.815918,-7.4443359 h 2.3256836 l 1.5468754,4.125 1.772461,-4.125 h 1.605957 l 1.740234,4.125 1.616699,-4.125 z M 23.009766,0 h -2.245118 v -7.4443359 h 2.245118 z m 9.018066,-5.6342773 H 29.299316 V 0 H 27.05957 v -5.6342773 h -2.728515 v -1.8100586 h 7.696777 z m 7.347656,5.07568355 q -0.461914,0.24169922 -0.945312,0.38671875 -0.483399,0.14501953 -0.977539,0.20410156 -0.48877,0.06445313 -1.015137,0.06445313 -0.972168,0 -1.745605,-0.26855469 -0.768067,-0.26855469 -1.337403,-0.78955078 -0.563965,-0.52636722 -0.848633,-1.22460942 -0.279297,-0.7036132 -0.279297,-1.5415039 0,-0.9614257 0.333008,-1.6811523 0.333008,-0.7250977 0.9292,-1.203125 0.601562,-0.4780273 1.364257,-0.7036133 0.768067,-0.230957 1.6167,-0.230957 1.267578,0 2.873535,0.5639648 v 1.9765625 q -0.553223,-0.34375 -1.095703,-0.5693359 -0.53711,-0.230957 -1.267579,-0.230957 -0.649902,0 -1.213867,0.2578125 -0.563965,0.2578125 -0.907715,0.7358398 -0.34375,0.4780273 -0.34375,1.1171875 0,0.5639648 0.300782,1.0366211 0.300781,0.4672851 0.832519,0.746582 0.53711,0.2739258 1.208496,0.2739258 0.542481,0 1.025879,-0.1289062 0.483399,-0.1342774 0.811035,-0.2954102 0.333008,-0.1611328 0.682129,-0.3813477 z M 48.748047,0 H 46.508301 V -2.9057617 H 43.129883 V 0 h -2.245117 v -7.4443359 h 2.245117 v 2.7338867 h 3.378418 v -2.7338867 h 2.239746 z m 8.480957,0 h -2.035645 v -7.4443359 h 2.035645 z m 4.952148,-4.409668 q 0,0.4887696 -0.338379,0.8271485 -0.338378,0.3383789 -0.816406,0.3383789 -0.478027,0 -0.811035,-0.3383789 -0.333008,-0.3383789 -0.333008,-0.8164063 0,-0.4995117 0.349121,-0.8325195 0.349121,-0.3330078 0.805664,-0.3330078 0.295411,0 0.563965,0.1557617 0.268555,0.1503906 0.424317,0.4189453 0.155761,0.2631836 0.155761,0.5800781 z m 0.01074,3.3515625 q 0,0.48339847 -0.333008,0.82177737 -0.327637,0.33300782 -0.811035,0.33300782 -0.478028,0 -0.821778,-0.33837891 -0.34375,-0.3383789 -0.34375,-0.81640628 0,-0.4833984 0.34375,-0.8164062 0.34375,-0.3383789 0.821778,-0.3383789 0.300781,0 0.569335,0.1557617 0.273926,0.1557617 0.424317,0.4189453 0.150391,0.2631836 0.150391,0.5800781 z M 68.712402,-1.605957 H 67.831543 V 0 h -1.981934 v -1.605957 h -3.023925 v -1.4179688 l 3.410644,-4.4204101 h 1.595215 v 4.5600586 h 0.880859 z M 65.849609,-2.8842773 V -5.269043 l -1.847656,2.3847657 z"
         id="text6"
         style="font-weight:700;font-size:11px;font-family:GillSans-Bold, 'Gill Sans'"
         transform="translate(29.01 357.3) scale(.82 1)"
         aria-label="SWITCH 1:4" />
      <path
         d="M 5.5273437,-0.40625 Q 5.1914062,-0.23046875 4.8398437,-0.125 4.4882812,-0.01953125 4.1289062,0.0234375 3.7734375,0.0703125 3.390625,0.0703125 2.6835938,0.0703125 2.1210938,-0.125 1.5625,-0.3203125 1.1484375,-0.69921875 0.73828125,-1.0820312 0.53125,-1.5898437 0.328125,-2.1015625 0.328125,-2.7109375 q 0,-0.6992188 0.2421875,-1.2226563 0.2421875,-0.5273437 0.6757812,-0.8749999 0.4375,-0.3476563 0.9921876,-0.5117188 0.5585937,-0.1679687 1.1757812,-0.1679687 0.921875,0 2.0898437,0.4101562 v 1.4375 q -0.4023437,-0.25 -0.796875,-0.4140625 -0.390625,-0.1679687 -0.9218749,-0.1679687 -0.4726563,0 -0.8828125,0.1875 Q 2.4921875,-3.8476563 2.2421875,-3.5 q -0.25,0.3476562 -0.25,0.8125 0,0.4101562 0.21875,0.7539063 0.21875,0.3398437 0.6054688,0.5429687 0.390625,0.1992188 0.8789062,0.1992188 0.3945312,0 0.7460937,-0.09375 Q 4.7929687,-1.3828125 5.03125,-1.5 5.2734375,-1.6171875 5.5273437,-1.7773437 Z m 6.0745313,-5.0078125 -2.4414064,5.484375 h -1.078125 l -2.3945313,-5.484375 h 1.6992188 l 1.2382812,3.125 1.2734375,-3.125 z"
         id="text7"
         style="font-weight:700;font-size:8px;font-family:GillSans-Bold, 'Gill Sans';letter-spacing:-0.04em"
         transform="translate(78.27 239.7) scale(.88 1)"
         aria-label="CV" />
      <path
         d="m 6.4726562,-2.7109375 q 0,0.7578125 -0.3515625,1.3945313 -0.3476562,0.6367187 -1.0390625,1.0117187 -0.6914062,0.375 -1.6835937,0.375 -1.0039062,0 -1.6992188,-0.390625 Q 1.0039062,-0.7109375 0.6640625,-1.3476562 0.328125,-1.984375 0.328125,-2.7109375 q 0,-0.7304688 0.3359375,-1.3632812 Q 1,-4.7109375 1.6953125,-5.0976562 q 0.6992188,-0.390625 1.703125,-0.390625 0.75,0 1.3359375,0.2226562 0.5898437,0.2226563 0.96875,0.6054688 0.3789062,0.3789062 0.5742187,0.8867187 0.1953125,0.5039062 0.1953125,1.0625 z m -1.6640625,0 q 0,-0.3046875 -0.089844,-0.5546875 -0.089844,-0.2539063 -0.2734375,-0.4375 -0.1796875,-0.1875 -0.4414063,-0.2890625 -0.2617187,-0.1054687 -0.6054687,-0.1054687 -0.65625,0 -1.03125,0.3828124 -0.375,0.3828125 -0.375,1.0039063 0,0.6210937 0.375,1.0078125 0.3789063,0.3828125 1.03125,0.3828125 0.4492188,0 0.765625,-0.1757812 0.3164062,-0.1796875 0.4804687,-0.4921875 0.1640625,-0.3164063 0.1640625,-0.7226563 z M 11.129219,0 H 9.7190623 v -0.56640625 q -0.296875,0.3203125 -0.625,0.48046875 -0.3242187,0.15625 -0.78125,0.15625 -0.9023437,0 -1.1679687,-0.5234375 -0.265625,-0.52734375 -0.265625,-1.1875 v -2.3359375 h 1.4101562 v 2.1484375 q 0,0.3242188 0.1054688,0.5703125 0.109375,0.2421875 0.46875,0.2421875 0.3085937,0 0.4882812,-0.1757812 0.1796875,-0.1757813 0.3671875,-0.4492188 v -2.3359375 h 1.4101567 z m 3.715156,-0.23046875 q -0.21875,0.10546875 -0.605469,0.203125 -0.382813,0.09765625 -0.734375,0.09765625 -1.519531,0 -1.519531,-1.484375 V -3 H 11.348281 V -3.2460938 L 13.235,-5.1679687 h 0.160156 v 1.1914062 h 1.34375 V -3 h -1.34375 v 1.2734375 q 0,0.2226563 0.02734,0.359375 0.02734,0.1367188 0.152343,0.2304688 0.128907,0.089844 0.386719,0.089844 0.335938,0 0.882813,-0.28125 z M 21.188749,0 h -4.113281 v -0.10546875 q 0.238281,-0.23046875 0.523438,-0.55078125 0.285156,-0.3203125 0.734375,-0.8476562 0.207031,-0.2382813 0.386718,-0.46875 0.183594,-0.2304688 0.3125,-0.4453126 0.128907,-0.21875 0.21875,-0.4804687 0.08984,-0.2617188 0.08984,-0.5351563 0,-0.375 -0.21875,-0.6054687 -0.214844,-0.234375 -0.550781,-0.234375 -0.664063,0 -1.320313,0.6875 v -1.2773437 q 0.230469,-0.1484375 0.378907,-0.2382813 0.148437,-0.089844 0.339843,-0.1757812 0.195313,-0.085937 0.460938,-0.1484375 0.265625,-0.0625 0.574219,-0.0625 0.496093,0 0.902343,0.203125 0.40625,0.1992187 0.636719,0.5820312 0.234375,0.3789063 0.234375,0.8867187 0,0.359375 -0.105469,0.671875 -0.105468,0.3125 -0.21875,0.5039063 -0.113281,0.1914062 -0.300781,0.4726562 -0.335937,0.5000001 -0.71875,0.9531251 h 1.753906 z"
         id="text8"
         style="font-weight:700;font-size:8px;font-family:GillSans-Bold, 'Gill Sans';letter-spacing:-0.04em;fill:#ffffff"
         transform="translate(73.82 287.83) scale(.88 1)"
         aria-label="Out 2" />
      <path
         d="m 6.4726562,-2.7109375 q 0,0.7578125 -0.3515625,1.3945313 -0.3476562,0.6367187 -1.0390625,1.0117187 -0.6914062,0.375 -1.6835937,0.375 -1.0039062,0 -1.6992188,-0.390625 Q 1.0039062,-0.7109375 0.6640625,-1.3476562 0.328125,-1.984375 0.328125,-2.7109375 q 0,-0.7304688 0.3359375,-1.3632812 Q 1,-4.7109375 1.6953125,-5.0976562 q 0.6992188,-0.390625 1.703125,-0.390625 0.75,0 1.3359375,0.2226562 0.5898437,0.2226563 0.96875,0.6054688 0.3789062,0.3789062 0.5742187,0.8867187 0.1953125,0.5039062 0.1953125,1.0625 z m -1.6640625,0 q 0,-0.3046875 -0.089844,-0.5546875 -0.089844,-0.2539063 -0.2734375,-0.4375 -0.1796875,-0.1875 -0.4414063,-0.2890625 -0.2617187,-0.1054687 -0.6054687,-0.1054687 -0.65625,0 -1.03125,0.3828124 -0.375,0.3828125 -0.375,1.0039063 0,0.6210937 0.375,1.0078125 0.3789063,0.3828125 1.03125,0.3828125 0.4492188,0 0.765625,-0.1757812 0.3164062,-0.1796875 0.4804687,-0.4921875 0.1640625,-0.3164063 0.1640625,-0.7226563 z M 11.129219,0 H 9.7190623 v -0.56640625 q -0.296875,0.3203125 -0.625,0.48046875 -0.3242187,0.15625 -0.78125,0.15625 -0.9023437,0 -1.1679687,-0.5234375 -0.265625,-0.52734375 -0.265625,-1.1875 v -2.3359375 h 1.4101562 v 2.1484375 q 0,0.3242188 0.1054688,0.5703125 0.109375,0.2421875 0.46875,0.2421875 0.3085937,0 0.4882812,-0.1757812 0.1796875,-0.1757813 0.3671875,-0.4492188 v -2.3359375 h 1.4101567 z m 3.715156,-0.23046875 q -0.21875,0.10546875 -0.605469,0.203125 -0.382813,0.09765625 -0.734375,0.09765625 -1.519531,0 -1.519531,-1.484375 V -3 H 11.348281 V -3.2460938 L 13.235,-5.1679687 h 0.160156 v 1.1914062 h 1.34375 V -3 h -1.34375 v 1.2734375 q 0,0.2226563 0.02734,0.359375 0.02734,0.1367188 0.152343,0.2304688 0.128907,0.089844 0.386719,0.089844 0.335938,0 0.882813,-0.28125 z M 21.212187,-1.1679687 H 20.571562 V 0 h -1.441406 v -1.1679687 h -2.199219 v -1.0312501 l 2.480469,-3.2148437 h 1.160156 v 3.3164062 h 0.640625 z m -2.082031,-0.9296876 v -1.734375 l -1.34375,1.734375 z"
         id="text9"
         style="font-weight:700;font-size:8px;font-family:GillSans-Bold, 'Gill Sans';letter-spacing:-0.04em;fill:#ffffff"
         transform="translate(73.87 335.09) scale(.88 1)"
         aria-label="Out 4" />
      <path
         d="M 5.5273437,-0.40625 Q 5.1914062,-0.23046875 4.8398437,-0.125 4.4882812,-0.01953125 4.1289062,0.0234375 3.7734375,0.0703125 3.390625,0.0703125 2.6835938,0.0703125 2.1210938,-0.125 1.5625,-0.3203125 1.1484375,-0.69921875 0.73828125,-1.0820312 0.53125,-1.5898437 0.328125,-2.1015625 0.328125,-2.7109375 q 0,-0.6992188 0.2421875,-1.2226563 0.2421875,-0.5273437 0.6757812,-0.8749999 0.4375,-0.3476563 0.9921876,-0.5117188 0.5585937,-0.1679687 1.1757812,-0.1679687 0.921875,0 2.0898437,0.4101562 v 1.4375 q -0.4023437,-0.25 -0.796875,-0.4140625 -0.390625,-0.1679687 -0.9218749,-0.1679687 -0.4726563,0 -0.8828125,0.1875 Q 2.4921875,-3.8476563 2.2421875,-3.5 q -0.25,0.3476562 -0.25,0.8125 0,0.4101562 0.21875,0.7539063 0.21875,0.3398437 0.6054688,0.5429687 0.390625,0.1992188 0.8789062,0.1992188 0.3945312,0 0.7460937,-0.09375 Q 4.7929687,-1.3828125 5.03125,-1.5 5.2734375,-1.6171875 5.5273437,-1.7773437 Z M 7.5549998,0 H 6.1448436 v -5.4140625 h 1.4101562 z m 4.9260942,-1.9921875 q 0,0.59375 -0.257813,1.05859375 -0.257812,0.46484375 -0.773437,0.734375 -0.511719,0.26953125 -1.25,0.26953125 -0.7382814,0 -1.2539064,-0.26953125 Q 8.4342189,-0.46875 8.1764064,-0.93359375 7.9225001,-1.3984375 7.9225001,-1.9921875 q 0,-0.4492188 0.140625,-0.8164063 0.1445313,-0.3671875 0.4335938,-0.6484375 0.2929687,-0.2851562 0.71875,-0.4375 0.4257812,-0.1523437 0.9843751,-0.1523437 0.5625,0 0.992187,0.15625 0.433594,0.1523437 0.714844,0.4296875 0.285156,0.2773437 0.429688,0.6484375 0.144531,0.3710937 0.144531,0.8203125 z m -1.480469,0 q 0,-0.4726563 -0.207031,-0.7382813 Q 10.590469,-3 10.199844,-3 q -0.3867189,0 -0.5937501,0.2695312 -0.203125,0.265625 -0.203125,0.7382813 0,0.46875 0.2070312,0.7421875 0.2070313,0.2734375 0.5898439,0.2734375 0.390625,0 0.59375,-0.2695312 0.207031,-0.2734375 0.207031,-0.7460938 z m 5.297187,1.80859375 q -0.175781,0.0664063 -0.371093,0.125 -0.195313,0.0546875 -0.441407,0.08984375 -0.242187,0.0390625 -0.53125,0.0390625 -0.652343,0 -1.105468,-0.21875 Q 13.399375,-0.37109375 13.153281,-0.703125 12.911094,-1.0390625 12.817344,-1.3867187 12.723594,-1.734375 12.723594,-2 q 0,-0.265625 0.09375,-0.6132813 0.09766,-0.3476562 0.335937,-0.671875 0.238281,-0.3242187 0.6875,-0.5429687 0.453125,-0.21875 1.113281,-0.21875 0.441407,0 0.71875,0.0625 0.277344,0.0625 0.5625,0.1679687 v 1.1054688 q -0.6875,-0.21875 -1.074218,-0.21875 -0.375,0 -0.667969,0.2265625 Q 14.204062,-2.4765625 14.204062,-2 q 0,0.3164063 0.144532,0.5351563 0.144531,0.2148437 0.367187,0.3164062 0.222656,0.1015625 0.445313,0.1015625 0.210937,0 0.480468,-0.0625 0.269532,-0.0625 0.65625,-0.1796875 z M 21.387968,0 H 19.602812 L 18.075468,-1.8867187 V 0 h -1.421875 v -5.4140625 h 1.421875 v 3.1757812 l 1.394531,-1.7382812 h 1.6875 l -1.554687,1.8554687 z"
         id="text10"
         style="font-weight:700;font-size:8px;font-family:GillSans-Bold, 'Gill Sans';letter-spacing:-0.04em"
         transform="translate(22.36 239.7) scale(.88 1)"
         aria-label="Clock" />
      <path
         d="m 6.4726562,-2.7109375 q 0,0.7578125 -0.3515625,1.3945313 -0.3476562,0.6367187 -1.0390625,1.0117187 -0.6914062,0.375 -1.6835937,0.375 -1.0039062,0 -1.6992188,-0.390625 Q 1.0039062,-0.7109375 0.6640625,-1.3476562 0.328125,-1.984375 0.328125,-2.7109375 q 0,-0.7304688 0.3359375,-1.3632812 Q 1,-4.7109375 1.6953125,-5.0976562 q 0.6992188,-0.390625 1.703125,-0.390625 0.75,0 1.3359375,0.2226562 0.5898437,0.2226563 0.96875,0.6054688 0.3789062,0.3789062 0.5742187,0.8867187 0.1953125,0.5039062 0.1953125,1.0625 z m -1.6640625,0 q 0,-0.3046875 -0.089844,-0.5546875 -0.089844,-0.2539063 -0.2734375,-0.4375 -0.1796875,-0.1875 -0.4414063,-0.2890625 -0.2617187,-0.1054687 -0.6054687,-0.1054687 -0.65625,0 -1.03125,0.3828124 -0.375,0.3828125 -0.375,1.0039063 0,0.6210937 0.375,1.0078125 0.3789063,0.3828125 1.03125,0.3828125 0.4492188,0 0.765625,-0.1757812 0.3164062,-0.1796875 0.4804687,-0.4921875 0.1640625,-0.3164063 0.1640625,-0.7226563 z M 11.129219,0 H 9.7190623 v -0.56640625 q -0.296875,0.3203125 -0.625,0.48046875 -0.3242187,0.15625 -0.78125,0.15625 -0.9023437,0 -1.1679687,-0.5234375 -0.265625,-0.52734375 -0.265625,-1.1875 v -2.3359375 h 1.4101562 v 2.1484375 q 0,0.3242188 0.1054688,0.5703125 0.109375,0.2421875 0.46875,0.2421875 0.3085937,0 0.4882812,-0.1757812 0.1796875,-0.1757813 0.3671875,-0.4492188 v -2.3359375 h 1.4101567 z m 3.715156,-0.23046875 q -0.21875,0.10546875 -0.605469,0.203125 -0.382813,0.09765625 -0.734375,0.09765625 -1.519531,0 -1.519531,-1.484375 V -3 H 11.348281 V -3.2460938 L 13.235,-5.1679687 h 0.160156 v 1.1914062 h 1.34375 V -3 h -1.34375 v 1.2734375 q 0,0.2226563 0.02734,0.359375 0.02734,0.1367188 0.152343,0.2304688 0.128907,0.089844 0.386719,0.089844 0.335938,0 0.882813,-0.28125 z M 19.860624,0 h -1.480468 v -5.4140625 h 1.480468 z"
         id="text11"
         style="font-weight:700;font-size:8px;font-family:GillSans-Bold, 'Gill Sans';letter-spacing:-0.04em;fill:#ffffff"
         transform="translate(22.28 287.83) scale(.88 1)"
         aria-label="Out 1" />
      <path
         d="M 5.921875,0 H 4.1679687 L 3.7421875,-0.9609375 Q 3.5078125,-1.4882812 3.3203125,-1.7304687 3.1328125,-1.9765625 2.953125,-2.0429688 2.7773438,-2.1132813 2.4960938,-2.1132813 H 2.3125 V 0 H 0.6796875 v -5.4140625 h 2.7773438 q 0.6718749,0 1.1015624,0.2734375 0.4296875,0.2734375 0.6171875,0.6640625 0.1914063,0.390625 0.1914063,0.7421875 0,0.4101562 -0.1601563,0.6953125 Q 5.0507812,-2.7578125 4.875,-2.6289063 4.6992187,-2.5 4.4804687,-2.3828125 4.7421875,-2.2304688 4.9101562,-2.0195313 5.0820312,-1.8125 5.375,-1.1757812 Z m -2.21875,-3.703125 q 0,-0.375 -0.2460937,-0.5234375 Q 3.2109375,-4.375 2.65625,-4.375 H 2.3125 v 1.3046875 h 0.3515625 q 0.5976563,0 0.8164063,-0.1289063 Q 3.703125,-3.3320313 3.703125,-3.703125 Z m 6.375312,2.0546875 H 7.2776561 q 0.082031,0.3632813 0.4023437,0.59375 0.3203125,0.23046875 0.7265625,0.23046875 0.7109375,0 1.5703125,-0.39843745 v 0.8710937 q -0.3085937,0.16015625 -0.75,0.29296875 -0.4375,0.12890625 -1.1171875,0.12890625 -0.734375,0 -1.25,-0.2734375 -0.515625,-0.2734375 -0.7734375,-0.7421875 -0.2539062,-0.46875 -0.2539062,-1.0625 0,-0.5859375 0.2539062,-1.046875 0.2578125,-0.4648438 0.7734375,-0.7265625 0.515625,-0.265625 1.25,-0.265625 0.484375,0 0.9335938,0.2109375 0.453125,0.2070312 0.7421875,0.6835937 0.2929684,0.4726563 0.2929684,1.2226563 z M 8.7581248,-2.34375 q 0,-0.3828125 -0.1914062,-0.609375 -0.1875,-0.2304688 -0.5429688,-0.2304688 -0.3515625,0 -0.5703125,0.234375 Q 7.2385936,-2.71875 7.2385936,-2.34375 Z m 4.8010932,1.1835938 q 0,0.54687495 -0.402343,0.89062495 -0.398438,0.33984375 -1.1875,0.33984375 -0.441407,0 -0.785157,-0.078125 -0.34375,-0.08203125 -0.75,-0.23046875 V -1.2382812 q 0.355469,0.203125 0.617188,0.3085937 0.261719,0.10546875 0.574219,0.10546875 0.527343,0 0.527343,-0.28906245 0,-0.097656 -0.07813,-0.171875 -0.07422,-0.078125 -0.265625,-0.171875 -0.1875,-0.097656 -0.503906,-0.2304688 -0.390625,-0.171875 -0.664062,-0.4609375 -0.273438,-0.2890625 -0.273438,-0.7070313 0,-0.296875 0.179688,-0.5703125 0.183593,-0.2734375 0.550781,-0.4453125 0.367187,-0.1757812 0.886719,-0.1757812 0.125,0 0.316406,0.019531 0.195312,0.015625 0.488281,0.089844 0.296875,0.074219 0.5625,0.2109375 v 0.9726562 q -0.125,-0.074219 -0.210937,-0.125 -0.08203,-0.050781 -0.222657,-0.1132812 -0.140625,-0.0625 -0.332031,-0.109375 -0.1875,-0.050781 -0.386719,-0.050781 -0.242187,0 -0.332031,0.09375 -0.08984,0.09375 -0.08984,0.1875 0,0.097656 0.09375,0.1835938 0.09375,0.082031 0.417969,0.2070312 0.46875,0.1796875 0.75,0.3710938 0.28125,0.1875 0.398438,0.4140625 0.121093,0.2265625 0.121093,0.5351563 z m 4.519844,-0.4882813 h -2.800781 q 0.08203,0.3632813 0.402344,0.59375 0.320312,0.23046875 0.726562,0.23046875 0.710938,0 1.570313,-0.39843745 v 0.8710937 q -0.308594,0.16015625 -0.75,0.29296875 -0.4375,0.12890625 -1.117188,0.12890625 -0.734375,0 -1.25,-0.2734375 -0.515625,-0.2734375 -0.773437,-0.7421875 -0.253906,-0.46875 -0.253906,-1.0625 0,-0.5859375 0.253906,-1.046875 0.257812,-0.4648438 0.773437,-0.7265625 0.515625,-0.265625 1.25,-0.265625 0.484375,0 0.933594,0.2109375 0.453125,0.2070312 0.742188,0.6835937 0.292968,0.4726563 0.292968,1.2226563 z M 16.75875,-2.34375 q 0,-0.3828125 -0.191406,-0.609375 -0.1875,-0.2304688 -0.542969,-0.2304688 -0.351563,0 -0.570313,0.234375 -0.214843,0.2304688 -0.214843,0.6054688 z m 4.828437,2.11328125 q -0.21875,0.10546875 -0.605469,0.203125 -0.382812,0.09765625 -0.734375,0.09765625 -1.519531,0 -1.519531,-1.484375 V -3 h -0.636719 v -0.2460938 l 1.886719,-1.9218749 h 0.160156 v 1.1914062 h 1.34375 V -3 h -1.34375 v 1.2734375 q 0,0.2226563 0.02734,0.359375 0.02734,0.1367188 0.152344,0.2304688 0.128906,0.089844 0.386718,0.089844 0.335938,0 0.882813,-0.28125 z"
         id="text12"
         style="font-weight:700;font-size:8px;font-family:GillSans-Bold, 'Gill Sans';letter-spacing:-0.04em;fill:#231f20"
         transform="translate(73.66 191.72) scale(.88 1)"
         aria-label="Reset" />
      <path
         d="M 2.3203125,0 H 0.6875 v -5.4140625 h 1.6328125 z m 5.0628126,0 h -1.40625 v -2.1445313 q 0,-0.328125 -0.109375,-0.5703125 -0.1054688,-0.2460937 -0.46875,-0.2460937 -0.171875,0 -0.3046875,0.066406 -0.1289063,0.0625 -0.234375,0.1640625 -0.1015625,0.1015625 -0.171875,0.1953125 -0.070312,0.09375 -0.1445313,0.1992188 V 0 h -1.40625 v -3.9765625 h 1.40625 V -3.40625 q 0.3320313,-0.3554688 0.6640625,-0.4960938 0.3359375,-0.1445312 0.7460938,-0.1445312 1.4296875,0 1.4296875,1.7109375 z m 4.8909379,-2.015625 q 0,0.3984375 -0.113282,0.7695313 -0.113281,0.3710937 -0.347656,0.67187495 -0.230469,0.296875 -0.597656,0.47265625 -0.363281,0.171875 -0.847656,0.171875 -0.3906254,0 -0.6171879,-0.08203125 Q 9.5279689,-0.09375 9.3053126,-0.23046875 V 1.8085937 h -1.40625 v -5.7851562 h 1.40625 v 0.359375 q 0.2109375,-0.1835938 0.4648438,-0.3046875 0.2578126,-0.125 0.6953126,-0.125 0.433594,0 0.851562,0.2148437 0.417969,0.2148438 0.6875,0.671875 0.269532,0.453125 0.269532,1.1445313 z m -1.480469,0.03125 q 0,-0.359375 -0.113281,-0.5820313 -0.113282,-0.2265625 -0.292969,-0.3242187 -0.179688,-0.1015625 -0.371094,-0.1015625 -0.2499999,0 -0.4101561,0.082031 -0.1601563,0.078125 -0.3007813,0.1992188 v 1.5195313 q 0.074219,0.039063 0.15625,0.089844 0.085937,0.046875 0.1679688,0.082031 0.085937,0.0351562 0.1796875,0.0585937 0.097656,0.0234375 0.2070311,0.0234375 0.332031,0 0.554688,-0.28125 Q 10.793594,-1.5 10.793594,-1.984375 Z M 16.875937,0 h -1.410156 v -0.56640625 q -0.296875,0.3203125 -0.625,0.48046875 -0.324219,0.15625 -0.78125,0.15625 -0.902344,0 -1.167969,-0.5234375 -0.265625,-0.52734375 -0.265625,-1.1875 v -2.3359375 h 1.410157 v 2.1484375 q 0,0.3242188 0.105468,0.5703125 0.109375,0.2421875 0.46875,0.2421875 0.308594,0 0.488282,-0.1757812 0.179687,-0.1757813 0.367187,-0.4492188 v -2.3359375 h 1.410156 z m 3.715156,-0.23046875 q -0.21875,0.10546875 -0.605469,0.203125 -0.382812,0.09765625 -0.734375,0.09765625 -1.519531,0 -1.519531,-1.484375 V -3 h -0.636719 v -0.2460938 l 1.886719,-1.9218749 h 0.160156 v 1.1914062 h 1.34375 V -3 h -1.34375 v 1.2734375 q 0,0.2226563 0.02734,0.359375 0.02734,0.1367188 0.152344,0.2304688 0.128906,0.089844 0.386719,0.089844 0.335937,0 0.882812,-0.28125 z"
         id="text13"
         style="font-weight:700;font-size:8px;font-family:GillSans-Bold, 'Gill Sans';letter-spacing:-0.04em;fill:#231f20"
         transform="translate(22.61 191.72) scale(.88 1)"
         aria-label="Input" />
      <path
         d="m 6.4726562,-2.7109375 q 0,0.7578125 -0.3515625,1.3945313 -0.3476562,0.6367187 -1.0390625,1.0117187 -0.6914062,0.375 -1.6835937,0.375 -1.0039062,0 -1.6992188,-0.390625 Q 1.0039062,-0.7109375 0.6640625,-1.3476562 0.328125,-1.984375 0.328125,-2.7109375 q 0,-0.7304688 0.3359375,-1.3632812 Q 1,-4.7109375 1.6953125,-5.0976562 q 0.6992188,-0.390625 1.703125,-0.390625 0.75,0 1.3359375,0.2226562 0.5898437,0.2226563 0.96875,0.6054688 0.3789062,0.3789062 0.5742187,0.8867187 0.1953125,0.5039062 0.1953125,1.0625 z m -1.6640625,0 q 0,-0.3046875 -0.089844,-0.5546875 -0.089844,-0.2539063 -0.2734375,-0.4375 -0.1796875,-0.1875 -0.4414063,-0.2890625 -0.2617187,-0.1054687 -0.6054687,-0.1054687 -0.65625,0 -1.03125,0.3828124 -0.375,0.3828125 -0.375,1.0039063 0,0.6210937 0.375,1.0078125 0.3789063,0.3828125 1.03125,0.3828125 0.4492188,0 0.765625,-0.1757812 0.3164062,-0.1796875 0.4804687,-0.4921875 0.1640625,-0.3164063 0.1640625,-0.7226563 z M 11.129219,0 H 9.7190623 v -0.56640625 q -0.296875,0.3203125 -0.625,0.48046875 -0.3242187,0.15625 -0.78125,0.15625 -0.9023437,0 -1.1679687,-0.5234375 -0.265625,-0.52734375 -0.265625,-1.1875 v -2.3359375 h 1.4101562 v 2.1484375 q 0,0.3242188 0.1054688,0.5703125 0.109375,0.2421875 0.46875,0.2421875 0.3085937,0 0.4882812,-0.1757812 0.1796875,-0.1757813 0.3671875,-0.4492188 v -2.3359375 h 1.4101567 z m 3.715156,-0.23046875 q -0.21875,0.10546875 -0.605469,0.203125 -0.382813,0.09765625 -0.734375,0.09765625 -1.519531,0 -1.519531,-1.484375 V -3 H 11.348281 V -3.2460938 L 13.235,-5.1679687 h 0.160156 v 1.1914062 h 1.34375 V -3 h -1.34375 v 1.2734375 q 0,0.2226563 0.02734,0.359375 0.02734,0.1367188 0.152343,0.2304688 0.128907,0.089844 0.386719,0.089844 0.335938,0 0.882813,-0.28125 z m 6.008437,-1.27343745 q 0,0.4257812 -0.167969,0.72656245 -0.167969,0.30078125 -0.445312,0.4921875 -0.273438,0.1875 -0.582032,0.2734375 -0.308593,0.08203125 -0.597656,0.08203125 -0.410156,0 -0.90625,-0.11328125 -0.496094,-0.1171875 -0.832031,-0.27734375 v -1.2148437 q 0.273437,0.2265625 0.589844,0.3828125 Q 18.227812,-1 18.563749,-1 q 0.253907,0 0.425782,-0.09375 0.175781,-0.09375 0.261718,-0.234375 0.08984,-0.1445312 0.08984,-0.3046875 0,-0.2070312 -0.109375,-0.3671875 -0.109375,-0.1601563 -0.316406,-0.2539063 -0.207031,-0.097656 -0.480469,-0.097656 h -0.175781 v -0.8710938 h 0.207031 q 0.273438,0 0.449219,-0.1054687 0.179687,-0.1054688 0.257812,-0.25 0.07813,-0.1484375 0.07813,-0.2773438 0,-0.2460937 -0.191406,-0.4335937 -0.1875,-0.1914062 -0.488281,-0.1914062 -0.269531,0 -0.5625,0.1015625 -0.289063,0.1015625 -0.542969,0.2734375 v -1.0390625 q 0.382813,-0.1601563 0.71875,-0.25 0.339844,-0.09375 0.761719,-0.09375 0.613281,0 1.023437,0.2382812 0.414063,0.2382813 0.601563,0.578125 0.191406,0.3359375 0.191406,0.6328125 0,0.2421875 -0.105469,0.484375 Q 20.552031,-3.3125 20.380156,-3.125 q -0.167969,0.1875 -0.351563,0.2929687 0.324219,0.171875 0.574219,0.4765625 0.25,0.3046875 0.25,0.8515626 z"
         id="text14"
         style="font-weight:700;font-size:8px;font-family:GillSans-Bold, 'Gill Sans';letter-spacing:-0.04em;fill:#ffffff"
         transform="translate(22.37 335.09) scale(.88 1)"
         aria-label="Out 3" />
    </g>
  </g>
  <g
     id="g2" />
</svg>
