<svg xmlns="http://www.w3.org/2000/svg" width="40.73mm" height="130.6mm" viewBox="0 0 115.45 370.19">
  <g id="faceplate">
    <rect x="0.13" y="0.13" width="115.2" height="364.25" style="fill: #ededed;stroke: #9d9d9e;stroke-miterlimit: 10;stroke-width: 0.25px" />
    <path d="M14.52,324.65l-.06-60.21V172.28l.06-6.21c.29-8.35,6.8-15,14-15H87.19c7.2,0,13.06,6.67,13.35,15l.06,6.21V335.65A5.67,5.67,0,0,1,95,341.31H65.48v0H20.19a5.68,5.68,0,0,1-5.67-5.67" />
    <path d="M100.1,170.86v-5.67A14.22,14.22,0,0,0,85.93,151H29.21A14.22,14.22,0,0,0,15,165.19v76.37a5.68,5.68,0,0,0,5.67,5.67H94.43a5.68,5.68,0,0,0,5.67-5.67v-70.7Z" style="fill: #ededed;stroke: #000;stroke-miterlimit: 10" />
    <g>
      <path d="M34.17,355.26a2.34,2.34,0,0,1-.3,1.21,1.91,1.91,0,0,1-.81.78,2.6,2.6,0,0,1-1.21.27l-.46,0a4.29,4.29,0,0,1-.73-.16,5,5,0,0,1-.95-.4v-1.82a7.24,7.24,0,0,0,.91.58,2.12,2.12,0,0,0,1,.23.78.78,0,0,0,.61-.19.6.6,0,0,0-.1-.87,3.33,3.33,0,0,0-.69-.43,4.43,4.43,0,0,1-.88-.56,2.21,2.21,0,0,1-.62-.76,2.27,2.27,0,0,1-.24-1.08A2.38,2.38,0,0,1,29.9,351a1.8,1.8,0,0,1,.74-.78,2.41,2.41,0,0,1,1.21-.29,3.53,3.53,0,0,1,.95.12,3.31,3.31,0,0,1,.71.27,2.33,2.33,0,0,1,.39.24v1.74a5.57,5.57,0,0,0-.83-.58,2,2,0,0,0-1-.26.63.63,0,0,0-.49.16.54.54,0,0,0-.16.4.51.51,0,0,0,.16.38,2.24,2.24,0,0,0,.55.39,9.54,9.54,0,0,1,1.12.73,2.34,2.34,0,0,1,.67.74A2.09,2.09,0,0,1,34.17,355.26Z" />
      <path d="M45.31,350l-2.65,7.54H41.6L40,353.13l-1.62,4.39H37.31L34.72,350h1.91l1.27,4.13L39.35,350h1.32l1.42,4.13L43.42,350Z" />
      <path d="M48,357.43H46.16V350H48Z" />
      <path d="M55.4,351.79H53.16v5.64H51.32v-5.64H49.08V350H55.4Z" />
      <path d="M61.94,356.87a4,4,0,0,1-.78.38,3.78,3.78,0,0,1-.8.21,5.69,5.69,0,0,1-.83.06,3.61,3.61,0,0,1-1.43-.27,3,3,0,0,1-1.1-.79,3.34,3.34,0,0,1-.69-1.22,4.74,4.74,0,0,1-.24-1.54,4.55,4.55,0,0,1,.28-1.68,3.17,3.17,0,0,1,.76-1.21,3.21,3.21,0,0,1,1.12-.7,3.9,3.9,0,0,1,1.32-.23,6.18,6.18,0,0,1,2.36.56v2a5.6,5.6,0,0,0-.9-.57,2.25,2.25,0,0,0-1-.23,2,2,0,0,0-1.74,1,2.34,2.34,0,0,0,0,2.16,1.87,1.87,0,0,0,.68.74,1.76,1.76,0,0,0,1,.28,2.84,2.84,0,0,0,.84-.13,3.26,3.26,0,0,0,.67-.3,4.27,4.27,0,0,0,.56-.38Z" />
      <path d="M69.62,357.43H67.79v-2.91H65v2.91H63.17V350H65v2.74h2.78V350h1.83Z" />
      <path d="M76.58,357.43H74.91V350h1.67Z" />
      <path d="M80.64,353a1.27,1.27,0,0,1-.28.82.83.83,0,0,1-1.34,0,1.24,1.24,0,0,1-.27-.81,1.22,1.22,0,0,1,.29-.83.83.83,0,0,1,.66-.34.76.76,0,0,1,.46.16,1.08,1.08,0,0,1,.35.41A1.45,1.45,0,0,1,80.64,353Zm0,3.35a1.24,1.24,0,0,1-.28.82.82.82,0,0,1-.66.33.86.86,0,0,1-.68-.34,1.24,1.24,0,0,1-.28-.81,1.27,1.27,0,0,1,.28-.82.89.89,0,0,1,.68-.34.86.86,0,0,1,.47.16,1,1,0,0,1,.34.42A1.37,1.37,0,0,1,80.65,356.37Z" />
      <path d="M86,355.82h-.72v1.61H83.64v-1.61H81.16V354.4L84,350h1.31v4.56H86Zm-2.35-1.28v-2.38l-1.51,2.38Z" />
    </g>
    <g>
      <path d="M63.34,8.11l-5.53,7v-6a1.3,1.3,0,0,0-.64-1.18.91.91,0,0,0-1.13.3l-7.28,9.24a1.48,1.48,0,0,0,0,1.79.9.9,0,0,0,1.46,0l5.5-7v6a1.3,1.3,0,0,0,.64,1.18.92.92,0,0,0,1.14-.3l5.53-7v6.15a1.05,1.05,0,1,0,2.06,0V9a1.26,1.26,0,0,0-.65-1.17A.9.9,0,0,0,63.34,8.11Z" style="stroke: #000;stroke-width: 0.6000000000000001px" />
      <path d="M48.76,8,44,14.17A1.47,1.47,0,0,0,44,16a.91.91,0,0,0,1.46,0l3-3.87v6.3a1.05,1.05,0,1,0,2.06,0V8.92a1.28,1.28,0,0,0-.65-1.17A.9.9,0,0,0,48.76,8Z" style="stroke: #000;stroke-width: 0.6000000000000001px" />
      <path d="M71.71,12.56a1,1,0,0,0-.95-.77h-2.1l1.53-1.95s.8-1.18.1-1.82-1.58.06-1.58.06l-3.23,4.1a1.44,1.44,0,0,0-.2,1.37,1,1,0,0,0,1,.77h2.1l-2.49,3.17s-1,1.13-.27,1.89,1.75-.13,1.75-.13l4.18-5.32A1.47,1.47,0,0,0,71.71,12.56Z" style="stroke: #000;stroke-width: 0.6000000000000001px" />
    </g>
    <g>
      <path d="M83.26,239.42a3.77,3.77,0,0,1-.61.29,3.3,3.3,0,0,1-.62.15c-.21,0-.43,0-.65,0a3,3,0,0,1-1.12-.19,2.66,2.66,0,0,1-.86-.58,2.45,2.45,0,0,1-.54-.89,3.64,3.64,0,0,1,0-2.35,2.5,2.5,0,0,1,.6-.87,2.56,2.56,0,0,1,.87-.51,3.24,3.24,0,0,1,1-.17,5.14,5.14,0,0,1,1.84.41v1.44a4.8,4.8,0,0,0-.7-.42,1.88,1.88,0,0,0-.82-.16,1.6,1.6,0,0,0-.77.19,1.41,1.41,0,0,0-.58.53,1.59,1.59,0,0,0,0,1.56,1.47,1.47,0,0,0,.53.55,1.55,1.55,0,0,0,.77.2,2,2,0,0,0,.66-.1,2.34,2.34,0,0,0,.52-.21,4.54,4.54,0,0,0,.44-.28Z" />
      <path d="M88.6,234.42l-2.15,5.48h-1l-2.1-5.48h1.49L86,237.54l1.12-3.12Z" />
    </g>
    <g>
      <path d="M79.64,285.25a3.08,3.08,0,0,1-.31,1.39,2.42,2.42,0,0,1-.92,1,2.76,2.76,0,0,1-1.48.38,2.71,2.71,0,0,1-1.49-.39,2.44,2.44,0,0,1-.91-1,3.26,3.26,0,0,1,0-2.73,2.35,2.35,0,0,1,.91-1,2.69,2.69,0,0,1,1.49-.39,2.92,2.92,0,0,1,1.18.22,2.24,2.24,0,0,1,.85.61,2.64,2.64,0,0,1,.51.88A3.43,3.43,0,0,1,79.64,285.25Zm-1.47,0a1.65,1.65,0,0,0-.08-.56,1.32,1.32,0,0,0-.23-.44,1.24,1.24,0,0,0-.39-.29,1.33,1.33,0,0,0-.54-.1,1.14,1.14,0,0,0-.9.38,1.5,1.5,0,0,0-.33,1,1.47,1.47,0,0,0,.33,1,1.12,1.12,0,0,0,.9.39,1.23,1.23,0,0,0,.68-.18A1.19,1.19,0,0,0,78,286,1.65,1.65,0,0,0,78.17,285.25Z" style="fill: #fff" />
      <path d="M83.73,288H82.5v-.57a2.18,2.18,0,0,1-.55.48,1.54,1.54,0,0,1-.7.16,1,1,0,0,1-1-.53,2.79,2.79,0,0,1-.23-1.18V284h1.23v2.15a1.48,1.48,0,0,0,.1.57.39.39,0,0,0,.41.24.56.56,0,0,0,.43-.17,3.77,3.77,0,0,0,.33-.45V284h1.23Z" style="fill: #fff" />
      <path d="M87,287.73a2.71,2.71,0,0,1-.53.2,2.5,2.5,0,0,1-.64.1c-.9,0-1.34-.5-1.34-1.49V285h-.56v-.25l1.66-1.92h.14V284h1.18v1H85.73v1.27a3.21,3.21,0,0,0,0,.36.43.43,0,0,0,.14.23.53.53,0,0,0,.34.09,1.65,1.65,0,0,0,.77-.28Z" style="fill: #fff" />
      <path d="M92.59,288H89v-.11c.14-.15.29-.34.46-.55s.38-.5.65-.85l.34-.47a4.37,4.37,0,0,0,.27-.44,2.53,2.53,0,0,0,.19-.48,1.64,1.64,0,0,0,.08-.54.88.88,0,0,0-.19-.6.6.6,0,0,0-.48-.24,1.6,1.6,0,0,0-1.17.69v-1.28l.34-.23a2,2,0,0,1,.3-.18,1.86,1.86,0,0,1,.4-.15,2.1,2.1,0,0,1,.51-.06,1.63,1.63,0,0,1,.79.2,1.36,1.36,0,0,1,.56.58,1.83,1.83,0,0,1,.21.89,2.09,2.09,0,0,1-.1.67,2.63,2.63,0,0,1-.19.51c-.06.12-.15.28-.26.47a10.51,10.51,0,0,1-.64.95h1.55Z" style="fill: #fff" />
    </g>
    <g>
      <path d="M79.69,332.5a3.26,3.26,0,0,1-.3,1.4,2.42,2.42,0,0,1-.92,1,2.78,2.78,0,0,1-1.48.37,2.75,2.75,0,0,1-1.5-.39,2.42,2.42,0,0,1-.91-1,3.33,3.33,0,0,1-.29-1.37,3.14,3.14,0,0,1,.29-1.36,2.38,2.38,0,0,1,.91-1,2.74,2.74,0,0,1,1.5-.38,3,3,0,0,1,1.18.22,2.51,2.51,0,0,1,.85.6,2.6,2.6,0,0,1,.5.89A3.14,3.14,0,0,1,79.69,332.5Zm-1.46,0a1.87,1.87,0,0,0-.08-.55,1.15,1.15,0,0,0-.63-.73,1.25,1.25,0,0,0-.53-.1,1.12,1.12,0,0,0-.91.38,1.47,1.47,0,0,0-.33,1,1.5,1.5,0,0,0,.33,1,1.16,1.16,0,0,0,.91.38,1.28,1.28,0,0,0,.67-.17,1.08,1.08,0,0,0,.42-.5A1.66,1.66,0,0,0,78.23,332.5Z" style="fill: #fff" />
      <path d="M83.79,335.21H82.55v-.56a2,2,0,0,1-.55.48,1.47,1.47,0,0,1-.69.15,1,1,0,0,1-1-.52,3,3,0,0,1-.23-1.19v-2.33h1.24v2.15a1.6,1.6,0,0,0,.09.56.4.4,0,0,0,.42.25.55.55,0,0,0,.43-.18,3.12,3.12,0,0,0,.32-.45v-2.33h1.24Z" style="fill: #fff" />
      <path d="M87.06,335a3.23,3.23,0,0,1-.53.21,2.54,2.54,0,0,1-.65.09c-.89,0-1.34-.49-1.34-1.48v-1.59H84V332l1.66-1.92h.15v1.19H87v1H85.79v1.28a1.89,1.89,0,0,0,0,.36.4.4,0,0,0,.14.23.5.5,0,0,0,.33.09,1.76,1.76,0,0,0,.78-.28Z" style="fill: #fff" />
      <path d="M92.66,334.05H92.1v1.16H90.83v-1.16H88.9v-1l2.18-3.21h1v3.32h.56Zm-1.83-.93v-1.74l-1.18,1.74Z" style="fill: #fff" />
    </g>
    <g>
      <path d="M27.35,239.42a3.67,3.67,0,0,1-.6.29,3.6,3.6,0,0,1-.63.15c-.21,0-.42,0-.65,0a3,3,0,0,1-1.11-.19,2.56,2.56,0,0,1-.86-.58,2.45,2.45,0,0,1-.54-.89,3.64,3.64,0,0,1,0-2.35,2.26,2.26,0,0,1,.6-.87,2.38,2.38,0,0,1,.87-.51,3.22,3.22,0,0,1,1-.17,5.1,5.1,0,0,1,1.84.41v1.44a4.32,4.32,0,0,0-.7-.42,1.86,1.86,0,0,0-.81-.16,1.61,1.61,0,0,0-.78.19,1.48,1.48,0,0,0-.58.53,1.53,1.53,0,0,0-.22.81,1.45,1.45,0,0,0,.2.75,1.4,1.4,0,0,0,.53.55,1.52,1.52,0,0,0,.77.2,2.07,2.07,0,0,0,.66-.1,2.55,2.55,0,0,0,.52-.21,4.46,4.46,0,0,0,.43-.28Z" />
      <path d="M29.14,239.83H27.9v-5.41h1.24Z" />
      <path d="M33.57,237.84a2.42,2.42,0,0,1-.22,1.06,1.77,1.77,0,0,1-.68.73,2.15,2.15,0,0,1-1.11.27,2.11,2.11,0,0,1-1.1-.27,1.69,1.69,0,0,1-.67-.73,2.43,2.43,0,0,1-.23-1.06,2.39,2.39,0,0,1,.13-.82,1.86,1.86,0,0,1,.38-.65,1.65,1.65,0,0,1,.63-.43,2.13,2.13,0,0,1,.86-.16,2.19,2.19,0,0,1,.88.16,1.65,1.65,0,0,1,.63.43,1.81,1.81,0,0,1,.37.65A2.35,2.35,0,0,1,33.57,237.84Zm-1.3,0a1.31,1.31,0,0,0-.18-.74.65.65,0,0,0-1.05,0,1.31,1.31,0,0,0-.18.74,1.25,1.25,0,0,0,.19.74.58.58,0,0,0,.51.27.6.6,0,0,0,.53-.27A1.33,1.33,0,0,0,32.27,237.84Z" />
      <path d="M36.93,239.65l-.33.12a1.93,1.93,0,0,1-.38.09,2.35,2.35,0,0,1-.47,0,1.93,1.93,0,0,1-1-.22,1.64,1.64,0,0,1-.61-.55,2.07,2.07,0,0,1-.3-.69,2.37,2.37,0,0,1,0-1.22,2.1,2.1,0,0,1,.29-.67,1.72,1.72,0,0,1,.61-.55,2.09,2.09,0,0,1,1-.22,2.19,2.19,0,0,1,.63.07,3.6,3.6,0,0,1,.5.16v1.11a3,3,0,0,0-1-.22.89.89,0,0,0-.59.23.88.88,0,0,0-.25.7,1,1,0,0,0,.13.53.76.76,0,0,0,.32.32.81.81,0,0,0,.39.1,1.7,1.7,0,0,0,.42-.06l.58-.18Z" />
      <path d="M41.41,239.83H39.84l-1.34-1.89v1.89H37.24v-5.41H38.5v3.17l1.22-1.74h1.49l-1.37,1.86Z" />
    </g>
    <g>
      <path d="M28.1,285.25a3.21,3.21,0,0,1-.3,1.39,2.42,2.42,0,0,1-.92,1,3.08,3.08,0,0,1-3,0,2.51,2.51,0,0,1-.91-1,3.36,3.36,0,0,1,0-2.73,2.42,2.42,0,0,1,.91-1,2.75,2.75,0,0,1,1.5-.39,3,3,0,0,1,1.18.22,2.32,2.32,0,0,1,.85.61,2.46,2.46,0,0,1,.5.88A3.16,3.16,0,0,1,28.1,285.25Zm-1.46,0a1.94,1.94,0,0,0-.08-.56,1.18,1.18,0,0,0-.24-.44,1.05,1.05,0,0,0-.39-.29,1.25,1.25,0,0,0-.53-.1,1.15,1.15,0,0,0-.91.38,1.5,1.5,0,0,0-.33,1,1.47,1.47,0,0,0,.33,1,1.14,1.14,0,0,0,.91.39,1.2,1.2,0,0,0,.67-.18,1.14,1.14,0,0,0,.43-.49A1.81,1.81,0,0,0,26.64,285.25Z" style="fill: #fff" />
      <path d="M32.2,288H31v-.57a2,2,0,0,1-.55.48,1.46,1.46,0,0,1-.69.16,1,1,0,0,1-1-.53,2.8,2.8,0,0,1-.24-1.18V284H29.7v2.15a1.7,1.7,0,0,0,.09.57.41.41,0,0,0,.42.24.58.58,0,0,0,.43-.17,3.8,3.8,0,0,0,.32-.45V284H32.2Z" style="fill: #fff" />
      <path d="M35.47,287.73a3,3,0,0,1-.53.2,2.57,2.57,0,0,1-.65.1c-.89,0-1.33-.5-1.33-1.49V285h-.57v-.25l1.67-1.92h.14V284h1.18v1H34.2v1.27a1.84,1.84,0,0,0,0,.36.37.37,0,0,0,.14.23.5.5,0,0,0,.33.09,1.64,1.64,0,0,0,.78-.28Z" style="fill: #fff" />
      <path d="M39.89,288H38.58v-5.42h1.31Z" style="fill: #fff" />
    </g>
    <g>
      <path d="M79,191.85H77.45l-.38-1a4,4,0,0,0-.37-.77.84.84,0,0,0-.32-.31.93.93,0,0,0-.4-.07h-.16v2.12H74.38v-5.42h2.44a1.55,1.55,0,0,1,1,.28,1.58,1.58,0,0,1,.55.66,1.9,1.9,0,0,1,.16.74,1.44,1.44,0,0,1-.14.69,1.33,1.33,0,0,1-.29.42,3.53,3.53,0,0,1-.35.24,1.31,1.31,0,0,1,.38.36,4.82,4.82,0,0,1,.41.85ZM77,188.14a.57.57,0,0,0-.22-.52,1.25,1.25,0,0,0-.7-.15h-.3v1.31h.3a1.3,1.3,0,0,0,.72-.14A.55.55,0,0,0,77,188.14Z" style="fill: #231f20" />
      <path d="M82.75,190.2H80.29a.93.93,0,0,0,.35.59,1,1,0,0,0,.64.23,2.93,2.93,0,0,0,1.38-.4v.87a3.41,3.41,0,0,1-.66.3,3.32,3.32,0,0,1-1,.13,2.11,2.11,0,0,1-1.1-.28,1.67,1.67,0,0,1-.68-.74,2.43,2.43,0,0,1-.23-1.06,2.38,2.38,0,0,1,.23-1.05,1.65,1.65,0,0,1,.68-.73,2.21,2.21,0,0,1,1.1-.26,1.72,1.72,0,0,1,.82.21,1.65,1.65,0,0,1,.65.68,2.61,2.61,0,0,1,.26,1.23Zm-1.16-.7a1,1,0,0,0-.17-.61.56.56,0,0,0-.48-.23.64.64,0,0,0-.5.23.93.93,0,0,0-.19.61Z" style="fill: #231f20" />
      <path d="M85.81,190.69a1.14,1.14,0,0,1-.35.88,1.43,1.43,0,0,1-1,.35,2.84,2.84,0,0,1-.69-.08,6.6,6.6,0,0,1-.66-.23v-1a4.76,4.76,0,0,0,.55.31,1.18,1.18,0,0,0,.5.1c.31,0,.47-.1.47-.29a.28.28,0,0,0-.07-.17.88.88,0,0,0-.24-.17c-.11-.07-.26-.14-.44-.23a1.88,1.88,0,0,1-.58-.46A1,1,0,0,1,83,189a1.17,1.17,0,0,1,.16-.57,1.26,1.26,0,0,1,.49-.45,1.67,1.67,0,0,1,.78-.17,1.58,1.58,0,0,1,.28,0,2.55,2.55,0,0,1,.43.09,2.33,2.33,0,0,1,.49.21v1l-.18-.12-.2-.12a1.6,1.6,0,0,0-.29-.11,1.33,1.33,0,0,0-.34-.05.36.36,0,0,0-.3.1.27.27,0,0,0-.07.18.25.25,0,0,0,.08.19,1.44,1.44,0,0,0,.37.21,3.31,3.31,0,0,1,.66.36,1.23,1.23,0,0,1,.35.42A1.27,1.27,0,0,1,85.81,190.69Z" style="fill: #231f20" />
      <path d="M89.79,190.2H87.33a.93.93,0,0,0,.35.59,1,1,0,0,0,.64.23,2.93,2.93,0,0,0,1.38-.4v.87a3.41,3.41,0,0,1-.66.3,3.32,3.32,0,0,1-1,.13,2.11,2.11,0,0,1-1.1-.28,1.73,1.73,0,0,1-.68-.74,2.43,2.43,0,0,1-.23-1.06,2.38,2.38,0,0,1,.23-1.05,1.71,1.71,0,0,1,.68-.73,2.21,2.21,0,0,1,1.1-.26,1.72,1.72,0,0,1,.82.21,1.59,1.59,0,0,1,.65.68,2.61,2.61,0,0,1,.26,1.23Zm-1.16-.7a1,1,0,0,0-.17-.61.56.56,0,0,0-.48-.23.64.64,0,0,0-.5.23.93.93,0,0,0-.19.61Z" style="fill: #231f20" />
      <path d="M92.88,191.62a3.33,3.33,0,0,1-.53.2,2.64,2.64,0,0,1-.65.1c-.89,0-1.34-.5-1.34-1.49v-1.58H89.8v-.25l1.66-1.92h.14v1.19h1.18v1H91.6v1.27a1.73,1.73,0,0,0,0,.36.36.36,0,0,0,.13.23.55.55,0,0,0,.34.09,1.64,1.64,0,0,0,.78-.28Z" style="fill: #231f20" />
    </g>
    <g>
      <path d="M30.49,191.85H29.05v-5.42h1.44Z" style="fill: #231f20" />
      <path d="M34.94,191.85H33.71V189.7a1.61,1.61,0,0,0-.1-.57.4.4,0,0,0-.41-.25.6.6,0,0,0-.27.07.65.65,0,0,0-.2.17.9.9,0,0,0-.16.19l-.13.2v2.34H31.21v-4h1.23v.57a1.87,1.87,0,0,1,.59-.5,1.59,1.59,0,0,1,.66-.14c.83,0,1.25.57,1.25,1.71Z" style="fill: #231f20" />
    </g>
    <g>
      <path d="M28.19,332.5a3.12,3.12,0,0,1-.31,1.4,2.4,2.4,0,0,1-.91,1,2.78,2.78,0,0,1-1.48.37,2.75,2.75,0,0,1-1.5-.39,2.42,2.42,0,0,1-.91-1,3.19,3.19,0,0,1-.3-1.37,3.14,3.14,0,0,1,.3-1.36,2.38,2.38,0,0,1,.91-1,2.74,2.74,0,0,1,1.5-.38,2.87,2.87,0,0,1,1.17.22,2.33,2.33,0,0,1,.85.6,2.46,2.46,0,0,1,.51.89A3.41,3.41,0,0,1,28.19,332.5Zm-1.46,0a1.87,1.87,0,0,0-.08-.55,1.15,1.15,0,0,0-.63-.73,1.25,1.25,0,0,0-.53-.1,1.12,1.12,0,0,0-.91.38,1.47,1.47,0,0,0-.33,1,1.5,1.5,0,0,0,.33,1,1.15,1.15,0,0,0,.91.38,1.31,1.31,0,0,0,.67-.17,1.08,1.08,0,0,0,.42-.5A1.66,1.66,0,0,0,26.73,332.5Z" style="fill: #fff" />
      <path d="M32.29,335.21H31.05v-.56a2.18,2.18,0,0,1-.55.48,1.47,1.47,0,0,1-.69.15,1,1,0,0,1-1-.52,3,3,0,0,1-.23-1.19v-2.33h1.24v2.15a1.6,1.6,0,0,0,.09.56.39.39,0,0,0,.41.25.56.56,0,0,0,.44-.18,3.12,3.12,0,0,0,.32-.45v-2.33h1.24Z" style="fill: #fff" />
      <path d="M35.56,335a3.23,3.23,0,0,1-.53.21,2.54,2.54,0,0,1-.65.09c-.89,0-1.34-.49-1.34-1.48v-1.59h-.56V332l1.66-1.92h.14v1.19h1.19v1H34.28v1.28a1.79,1.79,0,0,0,0,.36.39.39,0,0,0,.13.23.55.55,0,0,0,.34.09,1.76,1.76,0,0,0,.78-.28Z" style="fill: #fff" />
      <path d="M40.85,333.71a1.64,1.64,0,0,1-.15.73,1.46,1.46,0,0,1-.39.49,1.72,1.72,0,0,1-.52.27,1.61,1.61,0,0,1-.52.08,3,3,0,0,1-.8-.11,3.38,3.38,0,0,1-.73-.28v-1.21a2.39,2.39,0,0,0,.52.38,1.18,1.18,0,0,0,.57.15.74.74,0,0,0,.38-.09.59.59,0,0,0,.23-.24.61.61,0,0,0,.08-.3.76.76,0,0,0-.1-.37.69.69,0,0,0-.28-.25.82.82,0,0,0-.42-.1h-.16V332h.19a.67.67,0,0,0,.39-.1.63.63,0,0,0,.23-.26.72.72,0,0,0,.07-.27.66.66,0,0,0-.17-.44.56.56,0,0,0-.43-.19,1.28,1.28,0,0,0-.49.11,1.64,1.64,0,0,0-.48.27v-1a3.92,3.92,0,0,1,.63-.25,2.31,2.31,0,0,1,.67-.09,1.59,1.59,0,0,1,.9.23,1.52,1.52,0,0,1,.7,1.21,1.19,1.19,0,0,1-.1.49,1.64,1.64,0,0,1-.24.43,1.39,1.39,0,0,1-.31.29,1.92,1.92,0,0,1,.51.48A1.46,1.46,0,0,1,40.85,333.71Z" style="fill: #fff" />
    </g>
  </g>
  <g /></svg>