<svg xmlns="http://www.w3.org/2000/svg" width="40.73mm" height="130.6mm" viewBox="0 0 115.45 370.19">
  <g id="faceplate">
    <rect x="0.13" y="0.13" width="115.2" height="364.25" style="fill: #ededed;stroke: #9d9d9e;stroke-miterlimit: 10;stroke-width: 0.25px" />
    <g>
      <path d="M34.17,355.26a2.34,2.34,0,0,1-.3,1.21,1.91,1.91,0,0,1-.81.78,2.6,2.6,0,0,1-1.21.27l-.46,0a4.29,4.29,0,0,1-.73-.16,4.72,4.72,0,0,1-.95-.4v-1.82a7.24,7.24,0,0,0,.91.58,2.12,2.12,0,0,0,1,.23.78.78,0,0,0,.61-.19.6.6,0,0,0-.1-.87,3.33,3.33,0,0,0-.69-.43,4.83,4.83,0,0,1-.89-.56,2.3,2.3,0,0,1-.61-.76,2.27,2.27,0,0,1-.24-1.08A2.38,2.38,0,0,1,29.9,351a1.8,1.8,0,0,1,.74-.78,2.38,2.38,0,0,1,1.21-.29,3.58,3.58,0,0,1,.95.12,3.31,3.31,0,0,1,.71.27,2.33,2.33,0,0,1,.39.24v1.74a5.57,5.57,0,0,0-.83-.58,2,2,0,0,0-1-.26.67.67,0,0,0-.5.16.57.57,0,0,0-.15.4.54.54,0,0,0,.15.38,2.58,2.58,0,0,0,.56.39,9.54,9.54,0,0,1,1.12.73,2.47,2.47,0,0,1,.67.74A2.09,2.09,0,0,1,34.17,355.26Z" />
      <path d="M45.3,350l-2.64,7.54H41.6L40,353.13l-1.63,4.39H37.31L34.72,350h1.91l1.27,4.13L39.35,350h1.32l1.42,4.13L43.42,350Z" />
      <path d="M48,357.43H46.16V350H48Z" />
      <path d="M55.4,351.79H53.16v5.64H51.32v-5.64H49.08V350H55.4Z" />
      <path d="M61.94,356.87a4,4,0,0,1-.78.38,3.78,3.78,0,0,1-.8.21,5.69,5.69,0,0,1-.83.06,3.58,3.58,0,0,1-1.43-.27,3,3,0,0,1-1.1-.79,3.51,3.51,0,0,1-.7-1.22,5,5,0,0,1-.23-1.54,4.55,4.55,0,0,1,.28-1.68,3.17,3.17,0,0,1,.76-1.21,3.21,3.21,0,0,1,1.12-.7,3.9,3.9,0,0,1,1.32-.23,6.18,6.18,0,0,1,2.36.56v2a5.6,5.6,0,0,0-.9-.57,2.25,2.25,0,0,0-1-.23,2,2,0,0,0-1.74,1,2.34,2.34,0,0,0,0,2.16,1.87,1.87,0,0,0,.68.74,1.76,1.76,0,0,0,1,.28,2.84,2.84,0,0,0,.84-.13,3.52,3.52,0,0,0,.67-.3,5.06,5.06,0,0,0,.56-.38Z" />
      <path d="M69.62,357.43H67.78v-2.91H65v2.91H63.17V350H65v2.74h2.77V350h1.84Z" />
      <path d="M78.1,355.82h-.72v1.61H75.75v-1.61H73.27V354.4l2.8-4.42h1.31v4.56h.72Zm-2.35-1.28v-2.38l-1.51,2.38Z" />
      <path d="M80.64,353a1.27,1.27,0,0,1-.28.82.83.83,0,0,1-1.34,0,1.24,1.24,0,0,1-.27-.81,1.22,1.22,0,0,1,.29-.83.83.83,0,0,1,.66-.34.76.76,0,0,1,.46.16,1.08,1.08,0,0,1,.35.41A1.45,1.45,0,0,1,80.64,353Zm0,3.35a1.28,1.28,0,0,1-.27.82.82.82,0,0,1-.66.33.86.86,0,0,1-.68-.34,1.19,1.19,0,0,1-.28-.81,1.22,1.22,0,0,1,.28-.82.89.89,0,0,1,.68-.34.86.86,0,0,1,.47.16,1,1,0,0,1,.34.42A1.37,1.37,0,0,1,80.64,356.37Z" />
      <path d="M84.47,357.43H82.8V350h1.67Z" />
    </g>
    <g>
      <path d="M63.34,8.11l-5.53,7v-6a1.3,1.3,0,0,0-.64-1.18.91.91,0,0,0-1.13.3l-7.28,9.24a1.48,1.48,0,0,0,0,1.79.9.9,0,0,0,1.46,0l5.5-7v6a1.3,1.3,0,0,0,.64,1.18.92.92,0,0,0,1.14-.3l5.53-7v6.15a1.05,1.05,0,1,0,2.06,0V9a1.26,1.26,0,0,0-.65-1.17A.9.9,0,0,0,63.34,8.11Z" style="stroke: #000;stroke-width: 0.6000000000000001px" />
      <path d="M48.76,8,44,14.17A1.47,1.47,0,0,0,44,16a.91.91,0,0,0,1.46,0l3-3.87v6.3a1.05,1.05,0,1,0,2.06,0V8.92a1.28,1.28,0,0,0-.65-1.17A.9.9,0,0,0,48.76,8Z" style="stroke: #000;stroke-width: 0.6000000000000001px" />
      <path d="M71.71,12.56a1,1,0,0,0-.95-.77h-2.1l1.53-1.95s.8-1.18.1-1.82-1.58.06-1.58.06l-3.23,4.1a1.44,1.44,0,0,0-.2,1.37,1,1,0,0,0,1,.77h2.1l-2.49,3.17s-1,1.13-.27,1.89,1.75-.13,1.75-.13l4.18-5.32A1.47,1.47,0,0,0,71.71,12.56Z" style="stroke: #000;stroke-width: 0.6000000000000001px" />
    </g>
    <path d="M100.47,316.34V293.12H78.94c-7.5,0-13.57,7-13.57,15.71v32.94H94.83a5.66,5.66,0,0,0,5.64-5.67V316.34Z" />
    <path d="M28.36,341.28H86.71c7.35,0,13.31-7,13.31-15.67V172.28l-.07-6.21c-.29-8.35-6.11-15-13.28-15H28.32c-7.16,0-13,6.67-13.28,15L15,172.28v92.16L15,325.61" style="fill: none;stroke: #000;stroke-miterlimit: 10" />
    <path d="M15,324.65v11a5.68,5.68,0,0,0,5.67,5.67H33.64" style="fill: none;stroke: #231f20;stroke-miterlimit: 10" />
    <g>
      <path d="M79.29,239.83H77.85v-5.41h1.44Z" />
      <path d="M83.74,239.83H82.51v-2.14a1.5,1.5,0,0,0-.1-.58.39.39,0,0,0-.41-.24.6.6,0,0,0-.27.06,1.06,1.06,0,0,0-.2.17.94.94,0,0,0-.16.2l-.12.19v2.34H80v-4h1.24v.57a1.8,1.8,0,0,1,.58-.49,1.45,1.45,0,0,1,.66-.15c.84,0,1.25.57,1.25,1.71Z" />
      <path d="M89.55,238.66H89v1.17H87.71v-1.17H85.78v-1L88,234.42h1v3.31h.57Zm-1.84-.93V236l-1.18,1.73Z" />
    </g>
    <g>
      <path d="M83.13,287.55a2.73,2.73,0,0,1-.6.28,3.5,3.5,0,0,1-.62.15,4.65,4.65,0,0,1-.66,0,3,3,0,0,1-1.11-.2,2.4,2.4,0,0,1-.86-.57,2.53,2.53,0,0,1-.54-.89,3.37,3.37,0,0,1-.18-1.12,3.3,3.3,0,0,1,.21-1.23,2.26,2.26,0,0,1,.6-.87,2.55,2.55,0,0,1,.87-.52,3.22,3.22,0,0,1,1-.16,5.05,5.05,0,0,1,1.84.41v1.44a4.32,4.32,0,0,0-.7-.42,1.86,1.86,0,0,0-.81-.17,1.76,1.76,0,0,0-.78.19,1.5,1.5,0,0,0-.58.54,1.53,1.53,0,0,0-.22.81,1.5,1.5,0,0,0,.2.75,1.31,1.31,0,0,0,.53.54,1.46,1.46,0,0,0,.77.21,2.39,2.39,0,0,0,.66-.1,2.55,2.55,0,0,0,.52-.21,3.49,3.49,0,0,0,.43-.28Z" />
      <path d="M88.48,282.54,86.33,288h-1l-2.1-5.49h1.49l1.09,3.13L87,282.54Z" />
    </g>
    <g>
      <path d="M82.55,332.5a3.12,3.12,0,0,1-.31,1.4,2.4,2.4,0,0,1-.91,1,2.79,2.79,0,0,1-1.49.37,2.71,2.71,0,0,1-1.49-.39,2.42,2.42,0,0,1-.91-1,3.19,3.19,0,0,1-.3-1.37,3.14,3.14,0,0,1,.3-1.36,2.32,2.32,0,0,1,.91-1,2.71,2.71,0,0,1,1.49-.38A2.92,2.92,0,0,1,81,330a2.33,2.33,0,0,1,.85.6,2.79,2.79,0,0,1,.51.89A3.41,3.41,0,0,1,82.55,332.5Zm-1.47,0A1.59,1.59,0,0,0,81,332a1.23,1.23,0,0,0-.23-.44,1.11,1.11,0,0,0-.39-.29,1.33,1.33,0,0,0-.54-.1,1.11,1.11,0,0,0-.9.38,1.47,1.47,0,0,0-.33,1,1.5,1.5,0,0,0,.33,1,1.14,1.14,0,0,0,.9.38,1.32,1.32,0,0,0,.68-.17,1.21,1.21,0,0,0,.42-.5A1.65,1.65,0,0,0,81.08,332.5Z" style="fill: #fff" />
      <path d="M86.64,335.21H85.41v-.56a2.18,2.18,0,0,1-.55.48,1.54,1.54,0,0,1-.7.15,1,1,0,0,1-1-.52,2.84,2.84,0,0,1-.23-1.19v-2.33h1.23v2.15a1.6,1.6,0,0,0,.1.56.39.39,0,0,0,.41.25.54.54,0,0,0,.43-.18,3.1,3.1,0,0,0,.33-.45v-2.33h1.23Z" style="fill: #fff" />
      <path d="M89.92,335a3,3,0,0,1-.54.21,2.47,2.47,0,0,1-.64.09c-.89,0-1.34-.49-1.34-1.48v-1.59h-.56V332l1.66-1.92h.14v1.19h1.18v1H88.64v1.28a3.36,3.36,0,0,0,0,.36.46.46,0,0,0,.14.23.53.53,0,0,0,.34.09,1.76,1.76,0,0,0,.78-.28Z" style="fill: #fff" />
    </g>
    <g>
      <path d="M27.71,239.83H26.28v-5.41h1.43Z" />
      <path d="M32.17,239.83H30.93v-2.14a1.72,1.72,0,0,0-.09-.58.4.4,0,0,0-.42-.24.53.53,0,0,0-.26.06.87.87,0,0,0-.21.17,1.3,1.3,0,0,0-.15.2c0,.06-.09.12-.13.19v2.34H28.43v-4h1.24v.57a1.83,1.83,0,0,1,.59-.49,1.38,1.38,0,0,1,.65-.15q1.26,0,1.26,1.71Z" />
      <path d="M37.66,238.33a1.59,1.59,0,0,1-.15.72,1.37,1.37,0,0,1-.39.49,1.55,1.55,0,0,1-.52.28,1.93,1.93,0,0,1-.52.08,3.48,3.48,0,0,1-.8-.11,3.38,3.38,0,0,1-.73-.28V238.3a2.77,2.77,0,0,0,.52.38,1.16,1.16,0,0,0,.57.15.74.74,0,0,0,.38-.09.75.75,0,0,0,.23-.24.67.67,0,0,0,.08-.3.76.76,0,0,0-.1-.37.71.71,0,0,0-.28-.26.93.93,0,0,0-.42-.09h-.16v-.87h.19a.67.67,0,0,0,.39-.11.61.61,0,0,0,.23-.25.77.77,0,0,0,.07-.28.65.65,0,0,0-.17-.43.53.53,0,0,0-.43-.19,1.26,1.26,0,0,0-.49.1,1.87,1.87,0,0,0-.48.27v-1a4,4,0,0,1,.63-.26,2.31,2.31,0,0,1,.67-.09,1.59,1.59,0,0,1,.9.24,1.46,1.46,0,0,1,.53.58,1.42,1.42,0,0,1,.17.63,1.26,1.26,0,0,1-.1.49,1.64,1.64,0,0,1-.24.43,1.39,1.39,0,0,1-.31.29,1.73,1.73,0,0,1,.51.47A1.52,1.52,0,0,1,37.66,238.33Z" />
    </g>
    <g>
      <path d="M27.27,287.55a3,3,0,0,1-.6.28A3.6,3.6,0,0,1,26,288a4.51,4.51,0,0,1-.65,0,3,3,0,0,1-1.11-.2,2.4,2.4,0,0,1-.86-.57,2.53,2.53,0,0,1-.54-.89,3.37,3.37,0,0,1-.18-1.12,3.3,3.3,0,0,1,.21-1.23,2.26,2.26,0,0,1,.6-.87,2.55,2.55,0,0,1,.87-.52,3.22,3.22,0,0,1,1-.16,5.1,5.1,0,0,1,1.84.41v1.44a4.32,4.32,0,0,0-.7-.42,1.86,1.86,0,0,0-.81-.17,1.73,1.73,0,0,0-.78.19,1.5,1.5,0,0,0-.58.54,1.53,1.53,0,0,0-.22.81,1.61,1.61,0,0,0,.19.75,1.4,1.4,0,0,0,.54.54,1.44,1.44,0,0,0,.77.21,2.39,2.39,0,0,0,.66-.1,2.55,2.55,0,0,0,.52-.21,4.46,4.46,0,0,0,.43-.28Z" />
      <path d="M29.06,288H27.82v-5.42h1.24Z" />
      <path d="M33.49,286a2.39,2.39,0,0,1-.22,1.06,1.8,1.8,0,0,1-.68.74,2.15,2.15,0,0,1-1.11.27,2.11,2.11,0,0,1-1.1-.27,1.71,1.71,0,0,1-.67-.74,2.39,2.39,0,0,1-.23-1.06,2.33,2.33,0,0,1,.13-.81,1.77,1.77,0,0,1,.38-.65,1.67,1.67,0,0,1,.63-.44,2.31,2.31,0,0,1,.86-.15,2.39,2.39,0,0,1,.88.15,1.79,1.79,0,0,1,.63.44,1.85,1.85,0,0,1,.37.64A2.43,2.43,0,0,1,33.49,286Zm-1.3,0a1.33,1.33,0,0,0-.18-.74.66.66,0,0,0-1,0,1.33,1.33,0,0,0-.18.74,1.28,1.28,0,0,0,.19.75.58.58,0,0,0,.51.27.6.6,0,0,0,.53-.27A1.34,1.34,0,0,0,32.19,286Z" />
      <path d="M36.85,287.77a2.52,2.52,0,0,1-.33.13l-.38.09a3.43,3.43,0,0,1-.47,0,2,2,0,0,1-1-.22,1.78,1.78,0,0,1-.62-.56,2.12,2.12,0,0,1-.29-.68,2.43,2.43,0,0,1-.08-.61,2.51,2.51,0,0,1,.08-.62,2.31,2.31,0,0,1,.29-.67,1.7,1.7,0,0,1,.61-.54,2,2,0,0,1,1-.22,2.68,2.68,0,0,1,.63.06,3.69,3.69,0,0,1,.5.17v1.11a3,3,0,0,0-.95-.22.87.87,0,0,0-.59.22A.9.9,0,0,0,35,286a1,1,0,0,0,.13.53.82.82,0,0,0,.32.32.81.81,0,0,0,.39.1,1.76,1.76,0,0,0,.42-.06l.58-.18Z" />
      <path d="M41.33,288H39.76l-1.35-1.89V288H37.16v-5.42h1.25v3.18L39.64,284h1.49l-1.37,1.86Z" />
    </g>
    <g>
      <path d="M79.17,191.85H77.73v-5.42h1.44Z" />
      <path d="M83.62,191.85H82.38V189.7a1.62,1.62,0,0,0-.09-.57.4.4,0,0,0-.41-.25.6.6,0,0,0-.27.07.68.68,0,0,0-.21.17,1.25,1.25,0,0,0-.15.19l-.13.2v2.34H79.89v-4h1.23v.57a1.87,1.87,0,0,1,.59-.5,1.55,1.55,0,0,1,.65-.14q1.26,0,1.26,1.71Z" />
      <path d="M89.4,191.85H85.79v-.11l.46-.55.64-.85c.12-.16.24-.31.34-.47a4.54,4.54,0,0,0,.28-.44,3.43,3.43,0,0,0,.19-.48,2,2,0,0,0,.08-.54,1,1,0,0,0-.19-.61.62.62,0,0,0-.49-.23,1.59,1.59,0,0,0-1.16.69V187l.33-.24.3-.17a2,2,0,0,1,.91-.21,1.56,1.56,0,0,1,.8.2,1.42,1.42,0,0,1,.56.58,1.8,1.8,0,0,1,.2.89,2.41,2.41,0,0,1-.09.67,2.63,2.63,0,0,1-.19.51l-.27.47a8.69,8.69,0,0,1-.63.95H89.4Z" />
    </g>
    <g>
      <path d="M27.63,191.85H26.2v-5.42h1.43Z" />
      <path d="M32.09,191.85H30.85V189.7a1.62,1.62,0,0,0-.09-.57.41.41,0,0,0-.42-.25.53.53,0,0,0-.26.07.68.68,0,0,0-.21.17,1.25,1.25,0,0,0-.15.19l-.13.2v2.34H28.35v-4h1.24v.57a1.77,1.77,0,0,1,.59-.5,1.51,1.51,0,0,1,.65-.14q1.26,0,1.26,1.71Z" />
      <path d="M36.7,191.85H35.4v-5.42h1.3Z" />
    </g>
    <g>
      <path d="M27.55,335.21H26l-.37-1a4.3,4.3,0,0,0-.37-.77.83.83,0,0,0-.32-.31,1,1,0,0,0-.41-.07h-.16v2.11H22.93V329.8h2.45a1.66,1.66,0,0,1,1,.27,1.58,1.58,0,0,1,.54.67,1.93,1.93,0,0,1,.17.74,1.6,1.6,0,0,1-.14.69,1.2,1.2,0,0,1-.3.42,3.33,3.33,0,0,1-.34.24,1.45,1.45,0,0,1,.38.36,4.64,4.64,0,0,1,.4.85Zm-2-3.7a.59.59,0,0,0-.21-.52,1.29,1.29,0,0,0-.71-.15h-.3v1.3h.31a1.36,1.36,0,0,0,.72-.13A.56.56,0,0,0,25.59,331.51Z" />
      <path d="M31.3,333.57H28.84a1,1,0,0,0,1,.82,2.93,2.93,0,0,0,1.38-.4v.87a3,3,0,0,1-.65.29,3.08,3.08,0,0,1-1,.13,2.11,2.11,0,0,1-1.1-.27,1.73,1.73,0,0,1-.68-.74,2.42,2.42,0,0,1-.22-1.06,2.38,2.38,0,0,1,.22-1,1.71,1.71,0,0,1,.68-.73,2.11,2.11,0,0,1,1.1-.26,1.72,1.72,0,0,1,.82.21,1.5,1.5,0,0,1,.66.68,2.57,2.57,0,0,1,.25,1.22Zm-1.16-.7a.94.94,0,0,0-.17-.61.56.56,0,0,0-.48-.23.64.64,0,0,0-.5.23,1,1,0,0,0-.19.61Z" />
      <path d="M34.37,334.05a1.17,1.17,0,0,1-.36.89,1.42,1.42,0,0,1-1,.34,2.42,2.42,0,0,1-.69-.08,5.1,5.1,0,0,1-.66-.22v-1a4.49,4.49,0,0,0,.54.3,1.18,1.18,0,0,0,.5.11c.31,0,.47-.1.47-.29a.23.23,0,0,0-.07-.17,1,1,0,0,0-.23-.18,4.8,4.8,0,0,0-.45-.22,1.88,1.88,0,0,1-.58-.46,1.09,1.09,0,0,1-.24-.71,1.07,1.07,0,0,1,.16-.57,1.23,1.23,0,0,1,.48-.45,1.6,1.6,0,0,1,.78-.17h.28a4.11,4.11,0,0,1,.43.1,2.13,2.13,0,0,1,.49.21v1l-.18-.12a.87.87,0,0,0-.2-.12,1.6,1.6,0,0,0-.29-.11,1.27,1.27,0,0,0-.34-.05.34.34,0,0,0-.29.1.29.29,0,0,0-.08.18.25.25,0,0,0,.08.18,1.24,1.24,0,0,0,.37.21,3.88,3.88,0,0,1,.66.37,1.23,1.23,0,0,1,.35.42A1.25,1.25,0,0,1,34.37,334.05Z" />
      <path d="M38.34,333.57H35.88a1.06,1.06,0,0,0,.35.59,1,1,0,0,0,.64.23,2.93,2.93,0,0,0,1.38-.4v.87a3,3,0,0,1-.65.29,3.08,3.08,0,0,1-1,.13,2.11,2.11,0,0,1-1.1-.27,1.73,1.73,0,0,1-.68-.74,2.42,2.42,0,0,1-.22-1.06,2.38,2.38,0,0,1,.22-1,1.71,1.71,0,0,1,.68-.73,2.11,2.11,0,0,1,1.1-.26,1.7,1.7,0,0,1,.82.21,1.5,1.5,0,0,1,.66.68,2.57,2.57,0,0,1,.25,1.22Zm-1.16-.7a1,1,0,0,0-.16-.61.59.59,0,0,0-.48-.23.61.61,0,0,0-.5.23.93.93,0,0,0-.2.61Z" />
      <path d="M41.43,335a2.9,2.9,0,0,1-.53.21,2.54,2.54,0,0,1-.65.09c-.89,0-1.34-.49-1.34-1.48v-1.59h-.56V332L40,330.05h.15v1.19h1.18v1H40.16v1.28a1.89,1.89,0,0,0,0,.36.4.4,0,0,0,.14.23.5.5,0,0,0,.33.09,1.76,1.76,0,0,0,.78-.28Z" />
    </g>
  </g>
  <g /></svg>