<?xml version="1.0" encoding="UTF-8" standalone="no"?>
<svg
   width="30.48mm"
   height="128.5mm"
   viewBox="0 0 86.405117 364.25"
   version="1.1"
   id="svg192"
   sodipodi:docname="TSP_artwork.svg"
   inkscape:version="1.4.2 (ebf0e940, 2025-05-08)"
   xml:space="preserve"
   xmlns:inkscape="http://www.inkscape.org/namespaces/inkscape"
   xmlns:sodipodi="http://sodipodi.sourceforge.net/DTD/sodipodi-0.dtd"
   xmlns="http://www.w3.org/2000/svg"
   xmlns:svg="http://www.w3.org/2000/svg"><defs
     id="defs192" /><sodipodi:namedview
     id="namedview192"
     pagecolor="#ffffff"
     bordercolor="#666666"
     borderopacity="1.0"
     inkscape:showpageshadow="2"
     inkscape:pageopacity="0.0"
     inkscape:pagecheckerboard="0"
     inkscape:deskcolor="#d1d1d1"
     inkscape:document-units="mm"
     inkscape:zoom="1.9889197"
     inkscape:cx="70.38997"
     inkscape:cy="255.41503"
     inkscape:window-width="1752"
     inkscape:window-height="1387"
     inkscape:window-x="67"
     inkscape:window-y="25"
     inkscape:window-maximized="0"
     inkscape:current-layer="faceplate"
     showguides="false"
     showgrid="false"
     showborder="true" /><g
     id="faceplate"><g
       id="g1"
       transform="matrix(0.42832743,0,0,1,0.0743197,0)"><path
         id="rect1"
         style="fill:#ededed;stroke-width:0px"
         d="M 0,0 H 201.61807 V 363.98999 H 0 Z" /></g><path
       id="rect2"
       style="stroke:#000000;stroke-width:1.01709"
       d="m 14.957382,230.56224 h 56.49035 c 4.149482,0 7.490039,4.07556 7.490039,9.13802 V 316.925 c 0,5.06247 -3.340557,9.13803 -7.490039,9.13803 h -56.49035 c -4.149482,0 -7.4900391,-4.07556 -7.4900391,-9.13803 v -77.22474 c 0,-5.06246 3.3405571,-9.13802 7.4900391,-9.13802 z" /><path
       d="m 42.706335,297.05947 q 0,0.79975 -0.371019,1.47171 -0.366897,0.67196 -1.096568,1.06771 -0.729672,0.39575 -1.77677,0.39575 -1.059467,0 -1.79326,-0.41224 -0.733794,-0.41224 -1.092446,-1.0842 -0.35453,-0.67196 -0.35453,-1.43873 0,-0.7709 0.35453,-1.43873 0.35453,-0.67196 1.088323,-1.08008 0.737916,-0.41224 1.797383,-0.41224 0.791507,0 1.409873,0.23498 0.622488,0.23498 1.022364,0.63897 0.399876,0.39988 0.605998,0.9358 0.206122,0.53179 0.206122,1.1213 z m -1.756158,0 q 0,-0.32155 -0.09482,-0.58539 -0.09482,-0.26795 -0.28857,-0.46171 -0.189633,-0.19788 -0.465836,-0.30506 -0.276203,-0.11131 -0.638977,-0.11131 -0.69257,0 -1.088324,0.404 -0.395754,0.404 -0.395754,1.05947 0,0.65547 0.395754,1.06359 0.399877,0.404 1.088324,0.404 0.47408,0 0.807997,-0.18551 0.333917,-0.18963 0.50706,-0.51943 0.173142,-0.33392 0.173142,-0.76265 z m 8.44308,0.30094 q 0,0.73379 -0.276203,1.25322 -0.272081,0.5153 -0.725549,0.81624 -0.449346,0.30094 -0.972895,0.43286 -0.519427,0.13191 -1.038854,0.13191 -0.725549,0 -1.413996,-0.24734 -0.684324,-0.24735 -1.146037,-0.84098 -0.461713,-0.59363 -0.461713,-1.54591 v -3.15367 h 1.719056 v 2.70844 q 0,0.56478 0.160775,0.9358 0.164897,0.36689 0.453468,0.54004 0.292693,0.16902 0.688447,0.16902 0.379264,0 0.671957,-0.16902 0.292693,-0.16902 0.453468,-0.53592 0.164897,-0.3669 0.164897,-0.93167 v -2.71669 h 1.723179 z m 6.493167,-1.76441 h -2.094198 v 4.32444 H 52.07317 V 295.596 h -2.094197 v -1.38926 h 5.907451 z"
       id="text15"
       style="font-weight:700;font-size:8.44275px;font-family:GillSans-Bold, 'Gill Sans';letter-spacing:-0.04em;fill:#ffffff;stroke-width:0.938083"
       transform="scale(0.93808314,1.0660036)"
       aria-label="OUT" /><path
       d="m 67.965297,299.92044 h -1.850974 l -0.449346,-1.01412 q -0.247346,-0.55653 -0.445223,-0.81212 -0.197877,-0.25971 -0.387509,-0.32979 -0.18551,-0.0742 -0.482325,-0.0742 h -0.193755 v 2.23024 h -1.723178 v -5.7137 h 2.931052 q 0.709059,0 1.162527,0.28857 0.453468,0.28857 0.651345,0.70082 0.202,0.41224 0.202,0.78326 0,0.43286 -0.16902,0.7338 -0.164898,0.29681 -0.350407,0.43285 -0.18551,0.13604 -0.416366,0.25971 0.276203,0.16078 0.453468,0.38339 0.181387,0.21849 0.49057,0.89045 z m -2.341544,-3.90807 q 0,-0.39575 -0.259714,-0.55241 -0.259713,-0.15665 -0.845099,-0.15665 h -0.362775 v 1.3769 h 0.37102 q 0.630732,0 0.861589,-0.13604 0.234979,-0.14017 0.234979,-0.5318 z"
       id="text16"
       style="font-weight:700;font-size:8.44275px;font-family:GillSans-Bold, 'Gill Sans';letter-spacing:-0.04em;fill:#ededed;stroke-width:0.938083"
       transform="scale(0.93808314,1.0660036)"
       aria-label="R" /><path
       d="m 28.483797,299.92044 h -4.340925 v -5.7137 h 1.723178 v 4.34505 h 2.617747 z"
       id="text17"
       style="font-weight:700;font-size:8.44275px;font-family:GillSans-Bold, 'Gill Sans';letter-spacing:-0.04em;fill:#ededed;stroke-width:0.938083"
       transform="scale(0.93808314,1.0660036)"
       aria-label="L" /><path
       d="m 60.113104,168.4073 h -4.340926 v -5.71369 h 1.723179 v 4.34504 h 2.617747 z m 5.054437,-2.10244 q 0,0.62661 -0.272081,1.11718 -0.272081,0.49057 -0.816242,0.77502 -0.540039,0.28445 -1.31918,0.28445 -0.77914,0 -1.323302,-0.28445 -0.540039,-0.28445 -0.81212,-0.77502 -0.267958,-0.49057 -0.267958,-1.11718 0,-0.47408 0.148407,-0.86159 0.15253,-0.38751 0.457591,-0.68432 0.309182,-0.30094 0.758528,-0.46172 0.449346,-0.16077 1.038854,-0.16077 0.593631,0 1.047099,0.1649 0.45759,0.16077 0.754406,0.45346 0.300938,0.2927 0.453468,0.68433 0.15253,0.39163 0.15253,0.86571 z m -1.562403,0 q 0,-0.49881 -0.21849,-0.77914 -0.214366,-0.28445 -0.62661,-0.28445 -0.408121,0 -0.62661,0.28445 -0.214367,0.28033 -0.214367,0.77914 0,0.49469 0.218489,0.78326 0.218489,0.28857 0.622488,0.28857 0.412244,0 0.62661,-0.28444 0.21849,-0.28857 0.21849,-0.78739 z m 6.629207,0 q 0,0.62661 -0.272081,1.11718 -0.272081,0.49057 -0.816242,0.77502 -0.54004,0.28445 -1.31918,0.28445 -0.779141,0 -1.323302,-0.28445 -0.540039,-0.28445 -0.81212,-0.77502 -0.267959,-0.49057 -0.267959,-1.11718 0,-0.47408 0.148408,-0.86159 0.15253,-0.38751 0.457591,-0.68432 0.309182,-0.30094 0.758528,-0.46172 0.449346,-0.16077 1.038854,-0.16077 0.593631,0 1.047099,0.1649 0.45759,0.16077 0.754406,0.45346 0.300938,0.2927 0.453468,0.68433 0.15253,0.39163 0.15253,0.86571 z m -1.562404,0 q 0,-0.49881 -0.218489,-0.77914 -0.214366,-0.28445 -0.62661,-0.28445 -0.408121,0 -0.62661,0.28445 -0.214367,0.28033 -0.214367,0.77914 0,0.49469 0.218489,0.78326 0.218489,0.28857 0.622488,0.28857 0.412244,0 0.62661,-0.28444 0.218489,-0.28857 0.218489,-0.78739 z m 6.604474,-0.0247 q 0,0.42048 -0.119551,0.81212 -0.11955,0.39163 -0.366896,0.70905 -0.243224,0.31331 -0.630733,0.49882 -0.383387,0.18139 -0.894569,0.18139 -0.412244,0 -0.651345,-0.0866 -0.234979,-0.0866 -0.469958,-0.23086 v 2.15191 h -1.484077 v -6.10533 h 1.484077 v 0.37927 q 0.222612,-0.19376 0.49057,-0.32155 0.272081,-0.13192 0.733794,-0.13192 0.45759,0 0.898691,0.22673 0.441101,0.22674 0.725549,0.70906 0.284448,0.4782 0.284448,1.20788 z m -1.562403,0.033 q 0,-0.37927 -0.119551,-0.61425 -0.119551,-0.2391 -0.309183,-0.34216 -0.189632,-0.10718 -0.391631,-0.10718 -0.263836,0 -0.432856,0.0866 -0.16902,0.0824 -0.317428,0.21024 v 1.60363 q 0.07833,0.0412 0.164898,0.0948 0.09069,0.0495 0.177265,0.0866 0.09069,0.0371 0.189632,0.0618 0.103061,0.0247 0.218489,0.0247 0.350407,0 0.585386,-0.29682 0.234979,-0.29681 0.234979,-0.80799 z"
       id="text30-1"
       style="font-weight:700;font-size:8.44275px;font-family:GillSans-Bold, 'Gill Sans';letter-spacing:-0.04em;stroke-width:0.938083"
       transform="scale(0.93808314,1.0660036)"
       aria-label="Loop" /><path
       d="m 60.113104,210.32687 h -4.340926 v -5.71369 h 1.723179 v 4.34504 h 2.617747 z m 5.054437,-2.10244 q 0,0.62661 -0.272081,1.11718 -0.272081,0.49057 -0.816242,0.77502 -0.540039,0.28445 -1.31918,0.28445 -0.77914,0 -1.323302,-0.28445 -0.540039,-0.28445 -0.81212,-0.77502 -0.267958,-0.49057 -0.267958,-1.11718 0,-0.47408 0.148407,-0.86159 0.15253,-0.38751 0.457591,-0.68432 0.309182,-0.30094 0.758528,-0.46172 0.449346,-0.16077 1.038854,-0.16077 0.593631,0 1.047099,0.1649 0.45759,0.16077 0.754406,0.45347 0.300938,0.29269 0.453468,0.68432 0.15253,0.39163 0.15253,0.86571 z m -1.562403,0 q 0,-0.49881 -0.21849,-0.77914 -0.214366,-0.28445 -0.62661,-0.28445 -0.408121,0 -0.62661,0.28445 -0.214367,0.28033 -0.214367,0.77914 0,0.49469 0.218489,0.78326 0.218489,0.28857 0.622488,0.28857 0.412244,0 0.62661,-0.28444 0.21849,-0.28857 0.21849,-0.78739 z m 6.629207,0 q 0,0.62661 -0.272081,1.11718 -0.272081,0.49057 -0.816242,0.77502 -0.54004,0.28445 -1.31918,0.28445 -0.779141,0 -1.323302,-0.28445 -0.540039,-0.28445 -0.81212,-0.77502 -0.267959,-0.49057 -0.267959,-1.11718 0,-0.47408 0.148408,-0.86159 0.15253,-0.38751 0.457591,-0.68432 0.309182,-0.30094 0.758528,-0.46172 0.449346,-0.16077 1.038854,-0.16077 0.593631,0 1.047099,0.1649 0.45759,0.16077 0.754406,0.45347 0.300938,0.29269 0.453468,0.68432 0.15253,0.39163 0.15253,0.86571 z m -1.562404,0 q 0,-0.49881 -0.218489,-0.77914 -0.214366,-0.28445 -0.62661,-0.28445 -0.408121,0 -0.62661,0.28445 -0.214367,0.28033 -0.214367,0.77914 0,0.49469 0.218489,0.78326 0.218489,0.28857 0.622488,0.28857 0.412244,0 0.62661,-0.28444 0.218489,-0.28857 0.218489,-0.78739 z m 6.604474,-0.0247 q 0,0.42049 -0.119551,0.81212 -0.11955,0.39163 -0.366896,0.70906 -0.243224,0.3133 -0.630733,0.49881 -0.383387,0.18139 -0.894569,0.18139 -0.412244,0 -0.651345,-0.0866 -0.234979,-0.0866 -0.469958,-0.23086 v 2.15191 h -1.484077 v -6.10533 h 1.484077 v 0.37927 q 0.222612,-0.19376 0.49057,-0.32155 0.272081,-0.13192 0.733794,-0.13192 0.45759,0 0.898691,0.22673 0.441101,0.22674 0.725549,0.70906 0.284448,0.47821 0.284448,1.20788 z m -1.562403,0.033 q 0,-0.37927 -0.119551,-0.61425 -0.119551,-0.2391 -0.309183,-0.34216 -0.189632,-0.10718 -0.391631,-0.10718 -0.263836,0 -0.432856,0.0866 -0.16902,0.0824 -0.317428,0.21024 v 1.60363 q 0.07833,0.0412 0.164898,0.0948 0.09069,0.0495 0.177265,0.0866 0.09069,0.0371 0.189632,0.0618 0.103061,0.0247 0.218489,0.0247 0.350407,0 0.585386,-0.29682 0.234979,-0.29681 0.234979,-0.80799 z"
       id="text30-1-8"
       style="font-weight:700;font-size:8.44275px;font-family:GillSans-Bold, 'Gill Sans';letter-spacing:-0.04em;stroke-width:0.938083"
       transform="scale(0.93808314,1.0660036)"
       aria-label="Loop" /><path
       style="font-weight:bold;font-size:9.00053px;font-family:GillSans-Bold, 'Gill Sans';-inkscape-font-specification:'GillSans-Bold, Gill Sans, Bold';letter-spacing:-0.04em;fill:#ededed;stroke-width:0.938083"
       d="m 23.254209,260.00638 h -4.592556 v -6.09118 h 4.517844 v 1.22175 h -2.680822 v 1.11628 h 2.557768 v 1.22614 h -2.557768 v 1.30086 h 2.755534 z m 5.388364,0 h -1.582125 v -2.41274 q 0,-0.36916 -0.123054,-0.64164 -0.118659,-0.27687 -0.527375,-0.27687 -0.19337,0 -0.342793,0.0747 -0.145028,0.0703 -0.263688,0.18458 -0.114264,0.11426 -0.19337,0.21974 -0.07911,0.10547 -0.162608,0.22413 v 2.62809 h -1.582124 v -4.4739 h 1.582124 v 0.64164 q 0.373557,-0.39992 0.747115,-0.55814 0.377952,-0.1626 0.839405,-0.1626 1.608493,0 1.608493,1.92491 z m 5.322442,0 h -1.586519 v -0.40432 q -0.250503,0.21095 -0.53177,0.34719 -0.276872,0.13623 -0.769088,0.13623 -0.487822,0 -0.958064,-0.24171 -0.470243,-0.24171 -0.773483,-0.75151 -0.303241,-0.51419 -0.303241,-1.29207 0,-0.61087 0.228529,-1.14264 0.228529,-0.53617 0.716351,-0.87017 0.487822,-0.334 1.195383,-0.334 0.439479,0 0.711956,0.0967 0.272477,0.0967 0.483427,0.24611 v -1.88097 h 1.586519 z m -1.586519,-1.42391 v -1.70958 q -0.276872,-0.15381 -0.435084,-0.21974 -0.153818,-0.0659 -0.364768,-0.0659 -0.373557,0 -0.62406,0.31643 -0.246108,0.31642 -0.246108,0.86138 0,0.59329 0.259292,0.86577 0.263688,0.26808 0.610876,0.26808 0.285661,0 0.461453,-0.0879 0.175792,-0.0923 0.338399,-0.22853 z"
       id="text31"
       transform="scale(0.93808314,1.0660036)"
       aria-label="End" /><path
       d="m 20.616283,164.49099 q 0,0.31743 -0.111306,0.62249 -0.107183,0.30093 -0.350407,0.56477 -0.243224,0.25971 -0.65959,0.42461 -0.412244,0.16078 -0.972895,0.16078 h -1.129548 v 2.14366 h -1.723178 v -5.71369 h 2.852726 q 0.560651,0 0.972895,0.16489 0.416366,0.1649 0.65959,0.42874 0.243224,0.26383 0.350407,0.57302 0.111306,0.30918 0.111306,0.63073 z m -1.756158,0.008 q 0,-0.40812 -0.243224,-0.55653 -0.239101,-0.15253 -0.861589,-0.15253 h -0.362775 v 1.3769 h 0.37102 q 0.428733,0 0.65959,-0.0536 0.230856,-0.0536 0.333917,-0.19788 0.103061,-0.14429 0.103061,-0.41637 z m 6.715779,3.90807 h -4.340926 v -5.71369 h 1.723178 v 4.34504 h 2.617748 z m 6.818839,0 H 30.63034 l -0.465835,-1.1584 h -2.481707 l -0.47408,1.1584 h -1.764403 l 2.527053,-5.71369 h 1.904566 z m -2.625992,-2.15191 -0.836855,-2.08595 -0.845099,2.08595 z m 7.775244,-3.56178 -2.238483,3.09595 v 2.61774 h -1.723179 v -2.58476 l -2.279707,-3.12893 h 1.789137 l 1.310935,1.79738 1.315057,-1.79738 z"
       id="text33"
       style="font-weight:700;font-size:8.44275px;font-family:GillSans-Bold, 'Gill Sans';letter-spacing:-0.04em;stroke-width:0.938083"
       transform="scale(0.93808314,1.0660036)"
       aria-label="PLAY" /><path
       style="font-weight:bold;font-size:9.00053px;font-family:GillSans-Bold, 'Gill Sans';-inkscape-font-specification:'GillSans-Bold, Gill Sans, Bold';letter-spacing:-0.04em;fill:#ededed;stroke-width:0.938083"
       d="m 62.212354,255.83133 q 0,0.3384 -0.11866,0.66361 -0.114264,0.32082 -0.373557,0.60209 -0.259292,0.27687 -0.703166,0.45266 -0.439479,0.1714 -1.037171,0.1714 h -1.204172 v 2.28529 H 56.938606 V 253.9152 H 59.9798 q 0.597692,0 1.037171,0.17579 0.443874,0.17579 0.703166,0.45706 0.259293,0.28127 0.373557,0.61087 0.11866,0.32961 0.11866,0.67241 z m -1.872181,0.009 q 0,-0.43509 -0.259293,-0.5933 -0.254897,-0.16261 -0.918511,-0.16261 h -0.386741 v 1.46786 h 0.395531 q 0.457058,0 0.703166,-0.0571 0.246109,-0.0571 0.355978,-0.21095 0.10987,-0.15382 0.10987,-0.44387 z m 6.95291,1.92492 q 0,0.668 -0.290056,1.19098 -0.290056,0.52298 -0.870169,0.82622 -0.575717,0.30324 -1.406332,0.30324 -0.830616,0 -1.410728,-0.30324 -0.575718,-0.30324 -0.865774,-0.82622 -0.285661,-0.52298 -0.285661,-1.19098 0,-0.50541 0.158212,-0.91852 0.162608,-0.41311 0.487822,-0.72953 0.329609,-0.32082 0.808641,-0.49222 0.479033,-0.17139 1.107488,-0.17139 0.632849,0 1.116276,0.17579 0.487822,0.17139 0.804247,0.48342 0.32082,0.31203 0.483427,0.72954 0.162607,0.4175 0.162607,0.92291 z m -1.665625,0 q 0,-0.53177 -0.232924,-0.83062 -0.228529,-0.30324 -0.668008,-0.30324 -0.435085,0 -0.668008,0.30324 -0.22853,0.29885 -0.22853,0.83062 0,0.52737 0.232924,0.83501 0.232924,0.30763 0.663614,0.30763 0.439479,0 0.668008,-0.30324 0.232924,-0.30764 0.232924,-0.8394 z m 5.625683,0.93609 q 0,0.61527 -0.452664,1.00201 -0.448268,0.38234 -1.336016,0.38234 -0.496611,0 -0.883353,-0.0879 -0.386741,-0.0923 -0.843799,-0.25929 v -1.12507 q 0.399926,0.22853 0.694376,0.34719 0.294451,0.11866 0.646035,0.11866 0.593296,0 0.593296,-0.32522 0,-0.10987 -0.0879,-0.19337 -0.0835,-0.0879 -0.298845,-0.19337 -0.21095,-0.10987 -0.566928,-0.25929 -0.439479,-0.19337 -0.747114,-0.51859 -0.307636,-0.32521 -0.307636,-0.79545 0,-0.33401 0.202161,-0.64164 0.206555,-0.30764 0.619665,-0.50101 0.41311,-0.19776 0.997617,-0.19776 0.140634,0 0.355978,0.022 0.21974,0.0176 0.549349,0.10108 0.334004,0.0835 0.63285,0.23732 v 1.0943 q -0.140633,-0.0835 -0.237319,-0.14063 -0.09229,-0.0571 -0.250503,-0.12745 -0.158212,-0.0703 -0.373557,-0.12306 -0.21095,-0.0571 -0.435084,-0.0571 -0.272477,0 -0.373557,0.10548 -0.101081,0.10547 -0.101081,0.21095 0,0.10987 0.105475,0.20655 0.105475,0.0923 0.470243,0.23293 0.527375,0.20216 0.8438,0.4175 0.316425,0.21095 0.448268,0.46585 0.136239,0.2549 0.136239,0.60209 z m 2.206536,0.43947 q 0,0.39554 -0.272477,0.67241 -0.268083,0.27247 -0.663614,0.27247 -0.391136,0 -0.672403,-0.27687 -0.281266,-0.27687 -0.281266,-0.66801 0,-0.39553 0.281266,-0.668 0.281267,-0.27688 0.672403,-0.27688 0.246109,0 0.465848,0.12745 0.224134,0.12745 0.347188,0.3428 0.123055,0.21534 0.123055,0.47463 z"
       id="text5-8"
       transform="scale(0.93808314,1.0660036)"
       aria-label="Pos." /><path
       d="m 20.616283,206.41056 q 0,0.31743 -0.111306,0.62249 -0.107183,0.30093 -0.350407,0.56477 -0.243224,0.25971 -0.65959,0.42461 -0.412244,0.16078 -0.972895,0.16078 h -1.129548 v 2.14366 h -1.723178 v -5.71369 h 2.852726 q 0.560651,0 0.972895,0.16489 0.416366,0.1649 0.65959,0.42874 0.243224,0.26383 0.350407,0.57302 0.111306,0.30918 0.111306,0.63073 z m -1.756158,0.008 q 0,-0.40812 -0.243224,-0.55652 -0.239101,-0.15254 -0.861589,-0.15254 h -0.362775 v 1.3769 h 0.37102 q 0.428733,0 0.65959,-0.0536 0.230856,-0.0536 0.333917,-0.19788 0.103061,-0.14429 0.103061,-0.41637 z m 6.715779,3.90807 h -4.340926 v -5.71369 h 1.723178 v 4.34504 h 2.617748 z m 6.818839,0 H 30.63034 l -0.465835,-1.1584 h -2.481707 l -0.47408,1.1584 h -1.764403 l 2.527053,-5.71369 h 1.904566 z m -2.625992,-2.15191 -0.836855,-2.08595 -0.845099,2.08595 z m 7.775244,-3.56178 -2.238483,3.09595 v 2.61774 h -1.723179 v -2.58476 l -2.279707,-3.12893 h 1.789137 l 1.310935,1.79738 1.315057,-1.79738 z"
       id="text33-8"
       style="font-weight:700;font-size:8.44275px;font-family:GillSans-Bold, 'Gill Sans';letter-spacing:-0.04em;stroke-width:0.938083"
       transform="scale(0.93808314,1.0660036)"
       aria-label="PLAY" /><g
       id="text79"
       style="font-weight:bold;font-size:9.50056px;font-family:GillSans-Bold, 'Gill Sans';-inkscape-font-specification:'GillSans-Bold, Gill Sans, Bold';stroke-width:0.905538"
       transform="scale(0.90553849,1.1043153)"
       aria-label="SAMPLE&#10;PLAYER"><path
         d="m 32.166462,307.67683 q 0,0.60306 -0.31081,1.04376 -0.30617,0.4407 -0.858205,0.67729 -0.552034,0.23195 -1.266432,0.23195 -0.199474,0 -0.491728,-0.0278 -0.287614,-0.0232 -0.770065,-0.13917 -0.477811,-0.11597 -0.997373,-0.34328 v -1.57724 q 0.487089,0.30153 0.955623,0.50101 0.473172,0.19947 1.01129,0.19947 0.496367,0 0.640174,-0.16236 0.148446,-0.167 0.148446,-0.31081 0,-0.25978 -0.250503,-0.43606 -0.250503,-0.18092 -0.728314,-0.37112 -0.52884,-0.22267 -0.927789,-0.48245 -0.398949,-0.26442 -0.654091,-0.65873 -0.250503,-0.39431 -0.250503,-0.93243 0,-0.51956 0.255142,-0.93706 0.255142,-0.42215 0.779342,-0.67265 0.524201,-0.2505 1.280349,-0.2505 0.538118,0 0.992735,0.10669 0.459255,0.10206 0.756148,0.23195 0.296892,0.12989 0.408227,0.20411 v 1.50766 q -0.39431,-0.28297 -0.8814,-0.50564 -0.48245,-0.22267 -1.034485,-0.22267 -0.361837,0 -0.5242,0.13917 -0.162363,0.13916 -0.162363,0.34328 0,0.19019 0.162363,0.32936 0.162363,0.13917 0.579868,0.33865 0.742231,0.34792 1.18757,0.62625 0.445339,0.27834 0.695842,0.64482 0.255142,0.36183 0.255142,0.90459 z m 8.377935,1.8695 h -1.985469 l -0.524201,-1.30355 h -2.792645 l -0.533479,1.30355 h -1.985468 l 2.843673,-6.42958 h 2.143193 z m -2.955009,-2.42153 -0.941705,-2.34731 -0.950984,2.34731 z m 11.286554,2.42153 h -1.939079 v -3.72508 l -1.748882,2.15711 h -0.153086 l -1.753521,-2.15711 v 3.72508 h -1.883412 v -6.42958 h 1.758161 l 1.97619,2.41225 1.985469,-2.41225 h 1.75816 z m 7.190365,-4.407 q 0,0.3572 -0.125252,0.70048 -0.120612,0.33864 -0.39431,0.63553 -0.273698,0.29226 -0.742231,0.47782 -0.463895,0.18091 -1.094791,0.18091 h -1.271071 v 2.41226 h -1.939079 v -6.42958 h 3.21015 q 0.630896,0 1.094791,0.18556 0.468533,0.18555 0.742231,0.48245 0.273698,0.29689 0.39431,0.64481 0.125252,0.34792 0.125252,0.70976 z m -1.976191,0.009 q 0,-0.45926 -0.273698,-0.62626 -0.269058,-0.17164 -0.969539,-0.17164 h -0.408227 v 1.5494 h 0.417505 q 0.48245,0 0.742231,-0.0603 0.259781,-0.0603 0.375755,-0.22267 0.115973,-0.16236 0.115973,-0.46853 z m 7.937235,4.39772 h -4.884809 v -6.42958 h 1.939079 v 4.88945 h 2.94573 z m 5.974962,0 h -4.847698 v -6.42958 h 4.768836 v 1.28962 h -2.829757 v 1.1783 h 2.699866 v 1.29426 h -2.699866 v 1.37313 h 2.908619 z"
         id="path2" /><path
         d="m 33.238058,317.01503 q 0,0.3572 -0.125252,0.70048 -0.120612,0.33864 -0.39431,0.63553 -0.273698,0.29226 -0.742231,0.47782 -0.463895,0.18091 -1.094791,0.18091 h -1.271071 v 2.41226 h -1.939079 v -6.42958 h 3.21015 q 0.630896,0 1.094791,0.18556 0.468533,0.18555 0.742231,0.48245 0.273698,0.29689 0.39431,0.64481 0.125252,0.34792 0.125252,0.70976 z m -1.976191,0.009 q 0,-0.45926 -0.273698,-0.62626 -0.269058,-0.17164 -0.969539,-0.17164 h -0.408227 v 1.5494 h 0.417505 q 0.48245,0 0.742231,-0.0603 0.259781,-0.0603 0.375755,-0.22267 0.115973,-0.16236 0.115973,-0.46853 z m 7.937236,4.39772 h -4.88481 v -6.42958 h 1.939079 v 4.88945 h 2.945731 z m 8.053209,0 h -1.985469 l -0.524201,-1.30355 h -2.792645 l -0.533478,1.30355 H 39.43105 l 2.843674,-6.42958 h 2.143192 z m -2.955008,-2.42153 -0.941706,-2.34731 -0.950984,2.34731 z m 9.129444,-4.00805 -2.518948,3.48385 v 2.94573 h -1.939079 v -2.90862 l -2.565336,-3.52096 h 2.013302 l 1.475184,2.02258 1.479824,-2.02258 z m 5.71054,6.42958 h -4.847697 v -6.42958 h 4.768835 v 1.28962 H 56.22867 v 1.1783 h 2.699866 v 1.29426 H 56.22867 v 1.37313 h 2.908618 z m 7.52437,0 h -2.082887 l -0.505645,-1.14119 q -0.278336,-0.62625 -0.501006,-0.91387 -0.222669,-0.29225 -0.436061,-0.37111 -0.208752,-0.0835 -0.542756,-0.0835 h -0.218031 v 2.50967 h -1.939079 v -6.42958 h 3.29829 q 0.797899,0 1.308183,0.32472 0.510284,0.32473 0.732953,0.78862 0.227309,0.4639 0.227309,0.8814 0,0.48709 -0.190197,0.82574 -0.185558,0.334 -0.39431,0.48709 -0.208753,0.15308 -0.468534,0.29225 0.310809,0.18092 0.510284,0.43142 0.204114,0.24586 0.552034,1.00201 z m -2.634921,-4.39772 q 0,-0.44534 -0.292254,-0.62162 -0.292253,-0.17628 -0.950983,-0.17628 h -0.408228 v 1.5494 h 0.417506 q 0.709758,0 0.969539,-0.15308 0.26442,-0.15772 0.26442,-0.59842 z"
         id="path3" /></g><g
       id="g81"
       transform="matrix(0.78542749,0,0,0.78542749,-69.693769,8.9918603)"><path
         d="m 150.73,8.93 c 0,0 -4.37,5.55 -6.92,8.79 v -7.53 c 0,-0.65 -0.32,-1.23 -0.8,-1.47 -0.49,-0.24 -1.05,-0.09 -1.41,0.37 l -9.09,11.56 c -0.49,0.63 -0.48,1.63 0.04,2.24 0.51,0.6 1.33,0.59 1.82,-0.04 0,0 4.34,-5.51 6.87,-8.73 v 7.53 c 0,0.65 0.32,1.23 0.81,1.47 0.49,0.24 1.05,0.1 1.41,-0.37 0,0 4.37,-5.56 6.91,-8.79 v 7.69 c 0,0.88 0.57,1.58 1.29,1.58 0.72,0 1.29,-0.71 1.29,-1.58 V 10.04 c 0,-0.65 -0.32,-1.23 -0.81,-1.47 -0.49,-0.24 -1.04,-0.1 -1.41,0.37 z"
         style="stroke:#000000;stroke-width:0.96px"
         id="path79" /><path
         d="m 132.5,8.84 -6.02,7.66 c -0.5,0.63 -0.48,1.63 0.03,2.24 0.52,0.61 1.33,0.59 1.83,-0.04 0,0 2.03,-2.58 3.81,-4.84 v 7.88 c 0,0.87 0.57,1.58 1.29,1.58 0.72,0 1.29,-0.71 1.29,-1.58 V 9.94 c 0,-0.65 -0.32,-1.23 -0.81,-1.47 -0.49,-0.24 -1.05,-0.09 -1.41,0.37 z"
         style="stroke:#000000;stroke-width:0.96px"
         id="path80" /><path
         d="m 161.18,14.49 c -0.2,-0.58 -0.67,-0.96 -1.19,-0.96 h -2.63 l 1.92,-2.44 c 0,0 1,-1.47 0.11,-2.27 -0.88,-0.81 -1.97,0.08 -1.97,0.08 l -4.03,5.12 c -0.36,0.46 -0.46,1.13 -0.26,1.72 0.2,0.58 0.67,0.96 1.19,0.96 h 2.63 l -3.12,3.96 c 0,0 -1.29,1.41 -0.34,2.36 0.96,0.96 2.2,-0.17 2.2,-0.17 l 5.22,-6.64 c 0.36,-0.46 0.46,-1.13 0.26,-1.72 z"
         style="stroke:#000000;stroke-width:0.96px"
         id="path81" /></g><rect
       id="Screen"
       x="6.2722497"
       y="34.075123"
       width="73.860619"
       height="95.816208"
       style="stroke-width:0px" /></g><g
     id="g2" /></svg>
