<?xml version="1.0" encoding="UTF-8" standalone="no"?>
<svg
   width="30.48mm"
   height="128.5mm"
   viewBox="0 0 86.405117 364.25"
   version="1.1"
   id="svg192"
   sodipodi:docname="TSP_artwork.svg"
   inkscape:version="1.4.2 (ebf0e940, 2025-05-08)"
   xml:space="preserve"
   xmlns:inkscape="http://www.inkscape.org/namespaces/inkscape"
   xmlns:sodipodi="http://sodipodi.sourceforge.net/DTD/sodipodi-0.dtd"
   xmlns="http://www.w3.org/2000/svg"
   xmlns:svg="http://www.w3.org/2000/svg"><defs
     id="defs192" /><sodipodi:namedview
     id="namedview192"
     pagecolor="#ffffff"
     bordercolor="#666666"
     borderopacity="1.0"
     inkscape:showpageshadow="2"
     inkscape:pageopacity="0.0"
     inkscape:pagecheckerboard="0"
     inkscape:deskcolor="#d1d1d1"
     inkscape:document-units="mm"
     inkscape:zoom="8.0982668"
     inkscape:cx="33.402209"
     inkscape:cy="446.5153"
     inkscape:window-width="1600"
     inkscape:window-height="1027"
     inkscape:window-x="67"
     inkscape:window-y="252"
     inkscape:window-maximized="0"
     inkscape:current-layer="faceplate"
     showguides="false"
     showgrid="false"
     showborder="true" /><g
     id="faceplate"><g
       id="g1"
       transform="matrix(0.42832743,0,0,1,0.0743197,0)"><rect
         x="0"
         y="0"
         width="201.61807"
         height="363.98999"
         style="fill:#ededed;stroke-width:0px"
         id="rect1" /></g><rect
       x="7.4673429"
       y="230.56224"
       width="71.470428"
       height="95.500786"
       rx="7.4900393"
       ry="9.1380243"
       style="stroke:#000000;stroke-width:1.01709"
       id="rect2" /><path
       d="m 42.706335,297.05947 q 0,0.79975 -0.371019,1.47171 -0.366897,0.67196 -1.096568,1.06771 -0.729672,0.39575 -1.77677,0.39575 -1.059467,0 -1.79326,-0.41224 -0.733794,-0.41224 -1.092446,-1.0842 -0.35453,-0.67196 -0.35453,-1.43873 0,-0.7709 0.35453,-1.43873 0.35453,-0.67196 1.088323,-1.08008 0.737916,-0.41224 1.797383,-0.41224 0.791507,0 1.409873,0.23498 0.622488,0.23498 1.022364,0.63897 0.399876,0.39988 0.605998,0.9358 0.206122,0.53179 0.206122,1.1213 z m -1.756158,0 q 0,-0.32155 -0.09482,-0.58539 -0.09482,-0.26795 -0.28857,-0.46171 -0.189633,-0.19788 -0.465836,-0.30506 -0.276203,-0.11131 -0.638977,-0.11131 -0.69257,0 -1.088324,0.404 -0.395754,0.404 -0.395754,1.05947 0,0.65547 0.395754,1.06359 0.399877,0.404 1.088324,0.404 0.47408,0 0.807997,-0.18551 0.333917,-0.18963 0.50706,-0.51943 0.173142,-0.33392 0.173142,-0.76265 z m 8.44308,0.30094 q 0,0.73379 -0.276203,1.25322 -0.272081,0.5153 -0.725549,0.81624 -0.449346,0.30094 -0.972895,0.43286 -0.519427,0.13191 -1.038854,0.13191 -0.725549,0 -1.413996,-0.24734 -0.684324,-0.24735 -1.146037,-0.84098 -0.461713,-0.59363 -0.461713,-1.54591 v -3.15367 h 1.719056 v 2.70844 q 0,0.56478 0.160775,0.9358 0.164897,0.36689 0.453468,0.54004 0.292693,0.16902 0.688447,0.16902 0.379264,0 0.671957,-0.16902 0.292693,-0.16902 0.453468,-0.53592 0.164897,-0.3669 0.164897,-0.93167 v -2.71669 h 1.723179 z m 6.493167,-1.76441 h -2.094198 v 4.32444 H 52.07317 V 295.596 h -2.094197 v -1.38926 h 5.907451 z"
       id="text15"
       style="font-weight:700;font-size:8.44275px;font-family:GillSans-Bold, 'Gill Sans';letter-spacing:-0.04em;fill:#ffffff;stroke-width:0.938083"
       transform="scale(0.93808314,1.0660036)"
       aria-label="OUT" /><path
       d="m 67.965297,299.92044 h -1.850974 l -0.449346,-1.01412 q -0.247346,-0.55653 -0.445223,-0.81212 -0.197877,-0.25971 -0.387509,-0.32979 -0.18551,-0.0742 -0.482325,-0.0742 h -0.193755 v 2.23024 h -1.723178 v -5.7137 h 2.931052 q 0.709059,0 1.162527,0.28857 0.453468,0.28857 0.651345,0.70082 0.202,0.41224 0.202,0.78326 0,0.43286 -0.16902,0.7338 -0.164898,0.29681 -0.350407,0.43285 -0.18551,0.13604 -0.416366,0.25971 0.276203,0.16078 0.453468,0.38339 0.181387,0.21849 0.49057,0.89045 z m -2.341544,-3.90807 q 0,-0.39575 -0.259714,-0.55241 -0.259713,-0.15665 -0.845099,-0.15665 h -0.362775 v 1.3769 h 0.37102 q 0.630732,0 0.861589,-0.13604 0.234979,-0.14017 0.234979,-0.5318 z"
       id="text16"
       style="font-weight:700;font-size:8.44275px;font-family:GillSans-Bold, 'Gill Sans';letter-spacing:-0.04em;fill:#ededed;stroke-width:0.938083"
       transform="scale(0.93808314,1.0660036)"
       aria-label="R" /><path
       d="m 28.483797,299.92044 h -4.340925 v -5.7137 h 1.723178 v 4.34505 h 2.617747 z"
       id="text17"
       style="font-weight:700;font-size:8.44275px;font-family:GillSans-Bold, 'Gill Sans';letter-spacing:-0.04em;fill:#ededed;stroke-width:0.938083"
       transform="scale(0.93808314,1.0660036)"
       aria-label="L" /><path
       d="m 60.113104,168.4073 h -4.340926 v -5.71369 h 1.723179 v 4.34504 h 2.617747 z m 5.054437,-2.10244 q 0,0.62661 -0.272081,1.11718 -0.272081,0.49057 -0.816242,0.77502 -0.540039,0.28445 -1.31918,0.28445 -0.77914,0 -1.323302,-0.28445 -0.540039,-0.28445 -0.81212,-0.77502 -0.267958,-0.49057 -0.267958,-1.11718 0,-0.47408 0.148407,-0.86159 0.15253,-0.38751 0.457591,-0.68432 0.309182,-0.30094 0.758528,-0.46172 0.449346,-0.16077 1.038854,-0.16077 0.593631,0 1.047099,0.1649 0.45759,0.16077 0.754406,0.45346 0.300938,0.2927 0.453468,0.68433 0.15253,0.39163 0.15253,0.86571 z m -1.562403,0 q 0,-0.49881 -0.21849,-0.77914 -0.214366,-0.28445 -0.62661,-0.28445 -0.408121,0 -0.62661,0.28445 -0.214367,0.28033 -0.214367,0.77914 0,0.49469 0.218489,0.78326 0.218489,0.28857 0.622488,0.28857 0.412244,0 0.62661,-0.28444 0.21849,-0.28857 0.21849,-0.78739 z m 6.629207,0 q 0,0.62661 -0.272081,1.11718 -0.272081,0.49057 -0.816242,0.77502 -0.54004,0.28445 -1.31918,0.28445 -0.779141,0 -1.323302,-0.28445 -0.540039,-0.28445 -0.81212,-0.77502 -0.267959,-0.49057 -0.267959,-1.11718 0,-0.47408 0.148408,-0.86159 0.15253,-0.38751 0.457591,-0.68432 0.309182,-0.30094 0.758528,-0.46172 0.449346,-0.16077 1.038854,-0.16077 0.593631,0 1.047099,0.1649 0.45759,0.16077 0.754406,0.45346 0.300938,0.2927 0.453468,0.68433 0.15253,0.39163 0.15253,0.86571 z m -1.562404,0 q 0,-0.49881 -0.218489,-0.77914 -0.214366,-0.28445 -0.62661,-0.28445 -0.408121,0 -0.62661,0.28445 -0.214367,0.28033 -0.214367,0.77914 0,0.49469 0.218489,0.78326 0.218489,0.28857 0.622488,0.28857 0.412244,0 0.62661,-0.28444 0.218489,-0.28857 0.218489,-0.78739 z m 6.604474,-0.0247 q 0,0.42048 -0.119551,0.81212 -0.11955,0.39163 -0.366896,0.70905 -0.243224,0.31331 -0.630733,0.49882 -0.383387,0.18139 -0.894569,0.18139 -0.412244,0 -0.651345,-0.0866 -0.234979,-0.0866 -0.469958,-0.23086 v 2.15191 h -1.484077 v -6.10533 h 1.484077 v 0.37927 q 0.222612,-0.19376 0.49057,-0.32155 0.272081,-0.13192 0.733794,-0.13192 0.45759,0 0.898691,0.22673 0.441101,0.22674 0.725549,0.70906 0.284448,0.4782 0.284448,1.20788 z m -1.562403,0.033 q 0,-0.37927 -0.119551,-0.61425 -0.119551,-0.2391 -0.309183,-0.34216 -0.189632,-0.10718 -0.391631,-0.10718 -0.263836,0 -0.432856,0.0866 -0.16902,0.0824 -0.317428,0.21024 v 1.60363 q 0.07833,0.0412 0.164898,0.0948 0.09069,0.0495 0.177265,0.0866 0.09069,0.0371 0.189632,0.0618 0.103061,0.0247 0.218489,0.0247 0.350407,0 0.585386,-0.29682 0.234979,-0.29681 0.234979,-0.80799 z"
       id="text30-1"
       style="font-weight:700;font-size:8.44275px;font-family:GillSans-Bold, 'Gill Sans';letter-spacing:-0.04em;stroke-width:0.938083"
       transform="scale(0.93808314,1.0660036)"
       aria-label="Loop" /><path
       d="m 60.113104,210.32687 h -4.340926 v -5.71369 h 1.723179 v 4.34504 h 2.617747 z m 5.054437,-2.10244 q 0,0.62661 -0.272081,1.11718 -0.272081,0.49057 -0.816242,0.77502 -0.540039,0.28445 -1.31918,0.28445 -0.77914,0 -1.323302,-0.28445 -0.540039,-0.28445 -0.81212,-0.77502 -0.267958,-0.49057 -0.267958,-1.11718 0,-0.47408 0.148407,-0.86159 0.15253,-0.38751 0.457591,-0.68432 0.309182,-0.30094 0.758528,-0.46172 0.449346,-0.16077 1.038854,-0.16077 0.593631,0 1.047099,0.1649 0.45759,0.16077 0.754406,0.45347 0.300938,0.29269 0.453468,0.68432 0.15253,0.39163 0.15253,0.86571 z m -1.562403,0 q 0,-0.49881 -0.21849,-0.77914 -0.214366,-0.28445 -0.62661,-0.28445 -0.408121,0 -0.62661,0.28445 -0.214367,0.28033 -0.214367,0.77914 0,0.49469 0.218489,0.78326 0.218489,0.28857 0.622488,0.28857 0.412244,0 0.62661,-0.28444 0.21849,-0.28857 0.21849,-0.78739 z m 6.629207,0 q 0,0.62661 -0.272081,1.11718 -0.272081,0.49057 -0.816242,0.77502 -0.54004,0.28445 -1.31918,0.28445 -0.779141,0 -1.323302,-0.28445 -0.540039,-0.28445 -0.81212,-0.77502 -0.267959,-0.49057 -0.267959,-1.11718 0,-0.47408 0.148408,-0.86159 0.15253,-0.38751 0.457591,-0.68432 0.309182,-0.30094 0.758528,-0.46172 0.449346,-0.16077 1.038854,-0.16077 0.593631,0 1.047099,0.1649 0.45759,0.16077 0.754406,0.45347 0.300938,0.29269 0.453468,0.68432 0.15253,0.39163 0.15253,0.86571 z m -1.562404,0 q 0,-0.49881 -0.218489,-0.77914 -0.214366,-0.28445 -0.62661,-0.28445 -0.408121,0 -0.62661,0.28445 -0.214367,0.28033 -0.214367,0.77914 0,0.49469 0.218489,0.78326 0.218489,0.28857 0.622488,0.28857 0.412244,0 0.62661,-0.28444 0.218489,-0.28857 0.218489,-0.78739 z m 6.604474,-0.0247 q 0,0.42049 -0.119551,0.81212 -0.11955,0.39163 -0.366896,0.70906 -0.243224,0.3133 -0.630733,0.49881 -0.383387,0.18139 -0.894569,0.18139 -0.412244,0 -0.651345,-0.0866 -0.234979,-0.0866 -0.469958,-0.23086 v 2.15191 h -1.484077 v -6.10533 h 1.484077 v 0.37927 q 0.222612,-0.19376 0.49057,-0.32155 0.272081,-0.13192 0.733794,-0.13192 0.45759,0 0.898691,0.22673 0.441101,0.22674 0.725549,0.70906 0.284448,0.47821 0.284448,1.20788 z m -1.562403,0.033 q 0,-0.37927 -0.119551,-0.61425 -0.119551,-0.2391 -0.309183,-0.34216 -0.189632,-0.10718 -0.391631,-0.10718 -0.263836,0 -0.432856,0.0866 -0.16902,0.0824 -0.317428,0.21024 v 1.60363 q 0.07833,0.0412 0.164898,0.0948 0.09069,0.0495 0.177265,0.0866 0.09069,0.0371 0.189632,0.0618 0.103061,0.0247 0.218489,0.0247 0.350407,0 0.585386,-0.29682 0.234979,-0.29681 0.234979,-0.80799 z"
       id="text30-1-8"
       style="font-weight:700;font-size:8.44275px;font-family:GillSans-Bold, 'Gill Sans';letter-spacing:-0.04em;stroke-width:0.938083"
       transform="scale(0.93808314,1.0660036)"
       aria-label="Loop" /><path
       style="font-weight:bold;font-size:9.00053px;font-family:GillSans-Bold, 'Gill Sans';-inkscape-font-specification:'GillSans-Bold, Gill Sans, Bold';letter-spacing:-0.04em;fill:#ededed;stroke-width:0.938083"
       d="m 23.254209,260.00638 h -4.592556 v -6.09118 h 4.517844 v 1.22175 h -2.680822 v 1.11628 h 2.557768 v 1.22614 h -2.557768 v 1.30086 h 2.755534 z m 5.388364,0 h -1.582125 v -2.41274 q 0,-0.36916 -0.123054,-0.64164 -0.118659,-0.27687 -0.527375,-0.27687 -0.19337,0 -0.342793,0.0747 -0.145028,0.0703 -0.263688,0.18458 -0.114264,0.11426 -0.19337,0.21974 -0.07911,0.10547 -0.162608,0.22413 v 2.62809 h -1.582124 v -4.4739 h 1.582124 v 0.64164 q 0.373557,-0.39992 0.747115,-0.55814 0.377952,-0.1626 0.839405,-0.1626 1.608493,0 1.608493,1.92491 z m 5.322442,0 h -1.586519 v -0.40432 q -0.250503,0.21095 -0.53177,0.34719 -0.276872,0.13623 -0.769088,0.13623 -0.487822,0 -0.958064,-0.24171 -0.470243,-0.24171 -0.773483,-0.75151 -0.303241,-0.51419 -0.303241,-1.29207 0,-0.61087 0.228529,-1.14264 0.228529,-0.53617 0.716351,-0.87017 0.487822,-0.334 1.195383,-0.334 0.439479,0 0.711956,0.0967 0.272477,0.0967 0.483427,0.24611 v -1.88097 h 1.586519 z m -1.586519,-1.42391 v -1.70958 q -0.276872,-0.15381 -0.435084,-0.21974 -0.153818,-0.0659 -0.364768,-0.0659 -0.373557,0 -0.62406,0.31643 -0.246108,0.31642 -0.246108,0.86138 0,0.59329 0.259292,0.86577 0.263688,0.26808 0.610876,0.26808 0.285661,0 0.461453,-0.0879 0.175792,-0.0923 0.338399,-0.22853 z"
       id="text31"
       transform="scale(0.93808314,1.0660036)"
       aria-label="End" /><path
       d="m 20.616283,164.49099 q 0,0.31743 -0.111306,0.62249 -0.107183,0.30093 -0.350407,0.56477 -0.243224,0.25971 -0.65959,0.42461 -0.412244,0.16078 -0.972895,0.16078 h -1.129548 v 2.14366 h -1.723178 v -5.71369 h 2.852726 q 0.560651,0 0.972895,0.16489 0.416366,0.1649 0.65959,0.42874 0.243224,0.26383 0.350407,0.57302 0.111306,0.30918 0.111306,0.63073 z m -1.756158,0.008 q 0,-0.40812 -0.243224,-0.55653 -0.239101,-0.15253 -0.861589,-0.15253 h -0.362775 v 1.3769 h 0.37102 q 0.428733,0 0.65959,-0.0536 0.230856,-0.0536 0.333917,-0.19788 0.103061,-0.14429 0.103061,-0.41637 z m 6.715779,3.90807 h -4.340926 v -5.71369 h 1.723178 v 4.34504 h 2.617748 z m 6.818839,0 H 30.63034 l -0.465835,-1.1584 h -2.481707 l -0.47408,1.1584 h -1.764403 l 2.527053,-5.71369 h 1.904566 z m -2.625992,-2.15191 -0.836855,-2.08595 -0.845099,2.08595 z m 7.775244,-3.56178 -2.238483,3.09595 v 2.61774 h -1.723179 v -2.58476 l -2.279707,-3.12893 h 1.789137 l 1.310935,1.79738 1.315057,-1.79738 z"
       id="text33"
       style="font-weight:700;font-size:8.44275px;font-family:GillSans-Bold, 'Gill Sans';letter-spacing:-0.04em;stroke-width:0.938083"
       transform="scale(0.93808314,1.0660036)"
       aria-label="PLAY" /><path
       style="font-size:6.61956px;font-family:'Gill Sans';-inkscape-font-specification:'Gill Sans, Normal';letter-spacing:-0.04em;stroke-width:0.735507"
       d="m 54.192678,128.02956 v -4.50893 h 1.522369 q 0.921179,0 1.457726,0.27797 0.536546,0.27474 0.853302,0.81129 0.316757,0.53654 0.316757,1.17006 0,0.4525 -0.17454,0.86623 -0.174539,0.41372 -0.497759,0.72724 -0.329686,0.32322 -0.766033,0.48807 -0.255345,0.1002 -0.46867,0.13575 -0.213326,0.0323 -0.814517,0.0323 z m 1.454493,-3.93359 h -0.808052 v 3.35826 h 0.827445 q 0.484831,0 0.753105,-0.0647 0.268273,-0.0679 0.446044,-0.16807 0.181004,-0.10343 0.329685,-0.25211 0.478367,-0.48483 0.478367,-1.22501 0,-0.72725 -0.491296,-1.18622 -0.181003,-0.17131 -0.416954,-0.2812 -0.232719,-0.1099 -0.442813,-0.14545 -0.210093,-0.0356 -0.675531,-0.0356 z m 3.461952,-0.28444 q 0.145449,0 0.24888,0.1002 0.103431,0.1002 0.103431,0.24565 0,0.14221 -0.103431,0.24565 -0.103431,0.10343 -0.24888,0.10343 -0.135753,0 -0.239183,-0.10343 -0.103431,-0.10667 -0.103431,-0.24565 0,-0.13575 0.103431,-0.23919 0.10343,-0.10666 0.239183,-0.10666 z m -0.290899,1.25087 h 0.588262 v 2.97363 h -0.588262 z m 1.028101,2.7603 v -0.63351 q 0.24888,0.17454 0.507456,0.28443 0.261809,0.10666 0.439581,0.10666 0.184235,0 0.316756,-0.0905 0.13252,-0.0905 0.13252,-0.21655 0,-0.12929 -0.08727,-0.21333 -0.08404,-0.0873 -0.368472,-0.24888 -0.568868,-0.31676 -0.74664,-0.53978 -0.174539,-0.22625 -0.174539,-0.49129 0,-0.34262 0.265041,-0.55918 0.268273,-0.21655 0.68846,-0.21655 0.436348,0 0.895322,0.24564 v 0.5818 q -0.523618,-0.31676 -0.856535,-0.31676 -0.171307,0 -0.27797,0.0744 -0.103431,0.0711 -0.103431,0.1907 0,0.10343 0.09373,0.19716 0.09697,0.0937 0.33615,0.22625 l 0.210093,0.1196 q 0.743408,0.42018 0.743408,0.93087 0,0.36524 -0.287667,0.60119 -0.284434,0.23272 -0.733711,0.23272 -0.26504,0 -0.471902,-0.0549 -0.206861,-0.0582 -0.520385,-0.21009 z m 4.360505,-2.7603 h 0.701389 l -1.270257,1.45772 1.528833,1.51591 h -0.788658 l -1.490047,-1.51591 z m -1.93286,-1.54177 h 0.588262 v 4.5154 H 62.27397 Z"
       id="text33-0"
       transform="scale(0.93808314,1.0660036)"
       aria-label="Disk" /><path
       style="font-weight:bold;font-size:9.00053px;font-family:GillSans-Bold, 'Gill Sans';-inkscape-font-specification:'GillSans-Bold, Gill Sans, Bold';letter-spacing:-0.04em;fill:#ededed;stroke-width:0.938083"
       d="m 53.650601,255.83133 q 0,0.3384 -0.118659,0.66361 -0.114264,0.32082 -0.373557,0.60209 -0.259293,0.27687 -0.703167,0.45266 -0.439479,0.1714 -1.03717,0.1714 h -1.204172 v 2.28529 h -1.837023 v -6.09118 h 3.041195 q 0.597691,0 1.03717,0.17579 0.443874,0.17579 0.703167,0.45706 0.259293,0.28127 0.373557,0.61087 0.118659,0.32961 0.118659,0.67241 z m -1.87218,0.009 q 0,-0.43509 -0.259293,-0.5933 -0.254898,-0.16261 -0.918511,-0.16261 h -0.386741 v 1.46786 h 0.395531 q 0.457058,0 0.703166,-0.0571 0.246108,-0.0571 0.355978,-0.21095 0.10987,-0.15382 0.10987,-0.44387 z m 6.95291,1.92492 q 0,0.668 -0.290056,1.19098 -0.290057,0.52298 -0.870169,0.82622 -0.575717,0.30324 -1.406333,0.30324 -0.830615,0 -1.410727,-0.30324 -0.575718,-0.30324 -0.865774,-0.82622 -0.285661,-0.52298 -0.285661,-1.19098 0,-0.50541 0.158212,-0.91852 0.162607,-0.41311 0.487822,-0.72953 0.329609,-0.32082 0.808641,-0.49222 0.479032,-0.17139 1.107487,-0.17139 0.63285,0 1.116277,0.17579 0.487822,0.17139 0.804247,0.48342 0.320819,0.31203 0.483427,0.72954 0.162607,0.4175 0.162607,0.92291 z m -1.665626,0 q 0,-0.53177 -0.232924,-0.83062 -0.228529,-0.30324 -0.668008,-0.30324 -0.435084,0 -0.668008,0.30324 -0.228529,0.29885 -0.228529,0.83062 0,0.52737 0.232924,0.83501 0.232924,0.30763 0.663613,0.30763 0.439479,0 0.668008,-0.30324 0.232924,-0.30764 0.232924,-0.8394 z m 5.625683,0.93609 q 0,0.61527 -0.452663,1.00201 -0.448269,0.38234 -1.336016,0.38234 -0.496611,0 -0.883353,-0.0879 -0.386742,-0.0923 -0.8438,-0.25929 v -1.12507 q 0.399926,0.22853 0.694377,0.34719 0.294451,0.11866 0.646034,0.11866 0.593297,0 0.593297,-0.32522 0,-0.10987 -0.0879,-0.19337 -0.0835,-0.0879 -0.298846,-0.19337 -0.210949,-0.10987 -0.566927,-0.25929 -0.439479,-0.19337 -0.747115,-0.51859 -0.307635,-0.32521 -0.307635,-0.79545 0,-0.33401 0.20216,-0.64164 0.206555,-0.30764 0.619666,-0.50101 0.41311,-0.19776 0.997617,-0.19776 0.140633,0 0.355978,0.022 0.21974,0.0176 0.549349,0.10108 0.334004,0.0835 0.63285,0.23732 v 1.0943 q -0.140634,-0.0835 -0.237319,-0.14063 -0.09229,-0.0571 -0.250503,-0.12745 -0.158213,-0.0703 -0.373557,-0.12306 -0.21095,-0.0571 -0.435085,-0.0571 -0.272477,0 -0.373557,0.10548 -0.10108,0.10547 -0.10108,0.21095 0,0.10987 0.105475,0.20655 0.105475,0.0923 0.470243,0.23293 0.527374,0.20216 0.843799,0.4175 0.316425,0.21095 0.448269,0.46585 0.136238,0.2549 0.136238,0.60209 z m 2.035139,-4.20142 q 0,0.27687 -0.197765,0.47024 -0.197766,0.19337 -0.470243,0.19337 -0.184581,0 -0.338399,-0.0879 -0.149422,-0.0879 -0.237318,-0.23732 -0.0879,-0.15381 -0.0879,-0.33839 0,-0.27248 0.193371,-0.47025 0.193371,-0.19776 0.470242,-0.19776 0.272477,0 0.470243,0.19776 0.197765,0.19777 0.197765,0.47025 z m 0.127449,5.50667 h -1.586519 v -4.4739 h 1.586519 z m 4.258904,-0.25929 q -0.246108,0.11865 -0.681193,0.22852 -0.430689,0.10987 -0.82622,0.10987 -1.709573,0 -1.709573,-1.67002 v -1.78428 h -0.716351 v -0.27687 l 2.122683,-2.16224 h 0.180187 v 1.34041 h 1.511808 v 1.0987 h -1.511808 v 1.4327 q 0,0.2505 0.03076,0.40432 0.03076,0.15382 0.171397,0.25929 0.145028,0.10108 0.435084,0.10108 0.377952,0 0.993223,-0.31642 z m 1.872533,-5.24738 q 0,0.27687 -0.197766,0.47024 -0.197765,0.19337 -0.470242,0.19337 -0.184581,0 -0.338399,-0.0879 -0.149423,-0.0879 -0.237319,-0.23732 -0.0879,-0.15381 -0.0879,-0.33839 0,-0.27248 0.193371,-0.47025 0.193371,-0.19776 0.470243,-0.19776 0.272477,0 0.470242,0.19776 0.197766,0.19777 0.197766,0.47025 z m 0.127449,5.50667 h -1.58652 v -4.4739 h 1.58652 z m 5.66963,-2.24134 q 0,0.668 -0.290056,1.19098 -0.290056,0.52298 -0.870169,0.82622 -0.575717,0.30324 -1.406332,0.30324 -0.830616,0 -1.410728,-0.30324 -0.575718,-0.30324 -0.865774,-0.82622 -0.285661,-0.52298 -0.285661,-1.19098 0,-0.50541 0.158212,-0.91852 0.162608,-0.41311 0.487822,-0.72953 0.329609,-0.32082 0.808641,-0.49222 0.479033,-0.17139 1.107488,-0.17139 0.632849,0 1.116276,0.17579 0.487822,0.17139 0.804247,0.48342 0.32082,0.31203 0.483427,0.72954 0.162607,0.4175 0.162607,0.92291 z m -1.665625,0 q 0,-0.53177 -0.232924,-0.83062 -0.228529,-0.30324 -0.668008,-0.30324 -0.435085,0 -0.668009,0.30324 -0.228529,0.29885 -0.228529,0.83062 0,0.52737 0.232924,0.83501 0.232924,0.30763 0.663614,0.30763 0.439479,0 0.668008,-0.30324 0.232924,-0.30764 0.232924,-0.8394 z m 6.904566,2.24134 h -1.582124 v -2.41274 q 0,-0.36916 -0.123054,-0.64164 -0.11866,-0.27687 -0.527375,-0.27687 -0.193371,0 -0.342794,0.0747 -0.145028,0.0703 -0.263687,0.18458 -0.114265,0.11426 -0.193371,0.21974 -0.07911,0.10547 -0.162607,0.22413 v 2.62809 h -1.582125 v -4.4739 h 1.582125 v 0.64164 q 0.373557,-0.39992 0.747114,-0.55814 0.377952,-0.1626 0.839405,-0.1626 1.608493,0 1.608493,1.92491 z"
       id="text5-8"
       transform="scale(0.93808314,1.0660036)"
       aria-label="Position" /><path
       d="m 20.616283,206.41056 q 0,0.31743 -0.111306,0.62249 -0.107183,0.30093 -0.350407,0.56477 -0.243224,0.25971 -0.65959,0.42461 -0.412244,0.16078 -0.972895,0.16078 h -1.129548 v 2.14366 h -1.723178 v -5.71369 h 2.852726 q 0.560651,0 0.972895,0.16489 0.416366,0.1649 0.65959,0.42874 0.243224,0.26383 0.350407,0.57302 0.111306,0.30918 0.111306,0.63073 z m -1.756158,0.008 q 0,-0.40812 -0.243224,-0.55652 -0.239101,-0.15254 -0.861589,-0.15254 h -0.362775 v 1.3769 h 0.37102 q 0.428733,0 0.65959,-0.0536 0.230856,-0.0536 0.333917,-0.19788 0.103061,-0.14429 0.103061,-0.41637 z m 6.715779,3.90807 h -4.340926 v -5.71369 h 1.723178 v 4.34504 h 2.617748 z m 6.818839,0 H 30.63034 l -0.465835,-1.1584 h -2.481707 l -0.47408,1.1584 h -1.764403 l 2.527053,-5.71369 h 1.904566 z m -2.625992,-2.15191 -0.836855,-2.08595 -0.845099,2.08595 z m 7.775244,-3.56178 -2.238483,3.09595 v 2.61774 h -1.723179 v -2.58476 l -2.279707,-3.12893 h 1.789137 l 1.310935,1.79738 1.315057,-1.79738 z"
       id="text33-8"
       style="font-weight:700;font-size:8.44275px;font-family:GillSans-Bold, 'Gill Sans';letter-spacing:-0.04em;stroke-width:0.938083"
       transform="scale(0.93808314,1.0660036)"
       aria-label="PLAY" /><path
       d="m 22.213744,336.31731 q 0,0.91699 -0.516691,1.46513 -0.51249,0.54815 -1.436654,0.54815 h -3.364795 v -7.10029 h 2.814497 q 0.546097,0 0.949369,0.12808 0.407471,0.12807 0.655315,0.35347 0.247844,0.22029 0.369666,0.52254 0.121822,0.30224 0.121822,0.66085 0,0.38933 -0.126023,0.72232 -0.126022,0.32786 -0.315056,0.54302 -0.184832,0.21004 -0.373866,0.29713 0.596505,0.28688 0.90736,0.72745 0.315056,0.43544 0.315056,1.13215 z m -2.049962,-3.04298 q 0,-0.51229 -0.277249,-0.68134 -0.27725,-0.16905 -0.865353,-0.16905 h -0.369666 v 1.70079 h 0.378067 q 0.600706,0 0.865354,-0.16906 0.268847,-0.16905 0.268847,-0.68134 z m 0.28565,2.95588 q 0,-0.91186 -1.083792,-0.91186 h -0.714126 v 1.81862 h 0.714126 q 1.083792,0 1.083792,-0.90676 z m 9.035799,2.10038 h -1.797918 l -0.474684,-1.43952 h -2.528847 l -0.483086,1.43952 h -1.797918 l 2.575055,-7.10029 h 1.940744 z m -2.675874,-2.67413 -0.852751,-2.59216 -0.861152,2.59216 z m 7.519332,0.60962 q 0,0.66597 -0.28145,1.15264 -0.277249,0.48667 -0.777138,0.74794 -0.499888,0.25614 -1.146803,0.25614 -0.180631,0 -0.445278,-0.0307 -0.260446,-0.0256 -0.697324,-0.15369 -0.432676,-0.12807 -0.90316,-0.37909 v -1.74177 q 0.441078,0.33299 0.865354,0.55326 0.428475,0.22029 0.915762,0.22029 0.449479,0 0.579702,-0.17929 0.134424,-0.18444 0.134424,-0.34324 0,-0.28688 -0.22684,-0.48154 -0.226841,-0.1998 -0.659517,-0.40984 -0.478885,-0.2459 -0.840148,-0.53278 -0.361264,-0.292 -0.592305,-0.72744 -0.22684,-0.43544 -0.22684,-1.0297 0,-0.57376 0.231041,-1.03482 0.231041,-0.46617 0.705724,-0.7428 0.474684,-0.27665 1.159405,-0.27665 0.487287,0 0.89896,0.11783 0.415873,0.11271 0.684721,0.25615 0.268847,0.14344 0.369665,0.2254 v 1.66493 q -0.357063,-0.3125 -0.798141,-0.55839 -0.436877,-0.2459 -0.936766,-0.2459 -0.327658,0 -0.474684,0.15369 -0.147026,0.15368 -0.147026,0.37909 0,0.21004 0.147026,0.36372 0.147026,0.15369 0.525093,0.37397 0.672119,0.38421 1.075391,0.69159 0.403271,0.30737 0.630111,0.71207 0.231041,0.39959 0.231041,0.99896 z m 2.957322,2.06451 h -1.75591 v -7.10029 h 1.75591 z m 6.683384,-0.53278 q -0.361264,0.23053 -0.73933,0.36885 -0.378067,0.13832 -0.764536,0.19467 -0.382267,0.0615 -0.79394,0.0615 -0.760335,0 -1.365242,-0.25613 -0.600706,-0.25615 -1.045986,-0.75307 -0.441077,-0.50204 -0.663717,-1.16801 -0.218438,-0.67109 -0.218438,-1.47026 0,-0.91699 0.260445,-1.60346 0.260447,-0.69158 0.726729,-1.14751 0.470484,-0.45594 1.066989,-0.6711 0.600706,-0.22029 1.264424,-0.22029 0.991376,0 2.247397,0.5379 v 1.88523 q -0.432676,-0.32788 -0.856951,-0.54303 -0.420074,-0.22029 -0.991376,-0.22029 -0.508289,0 -0.949367,0.2459 -0.441078,0.2459 -0.709926,0.70184 -0.268847,0.45592 -0.268847,1.06555 0,0.5379 0.235241,0.9887 0.235241,0.4457 0.651115,0.71209 0.420075,0.26126 0.945168,0.26126 0.424274,0 0.802341,-0.12295 0.378067,-0.12806 0.634313,-0.28175 0.260446,-0.15369 0.533494,-0.36373 z m 13.165128,-6.56751 -2.520446,7.1925 h -1.01658 l -1.512267,-4.18538 -1.550075,4.18538 h -1.024982 l -2.470036,-7.1925 h 1.818922 l 1.209813,3.93436 1.386246,-3.93436 h 1.256022 l 1.361041,3.93436 1.264423,-3.93436 z m 6.70859,7.10029 h -1.797918 l -0.474684,-1.43952 h -2.528848 l -0.483086,1.43952 H 56.76066 l 2.575055,-7.10029 h 1.940744 z m -2.675874,-2.67413 -0.852751,-2.59216 -0.861152,2.59216 z m 8.52751,-4.42616 -2.625464,7.1925 h -1.159406 l -2.575055,-7.1925 h 1.827323 l 1.331636,4.09829 1.369442,-4.09829 z"
       id="text79"
       style="font-weight:bold;font-size:9.50056px;font-family:GillSans-Bold, 'Gill Sans';-inkscape-font-specification:'GillSans-Bold, Gill Sans, Bold';stroke-width:0.905538"
       aria-label="BASIC WAV" /><path
       d="m 30.682444,344.61564 q 0,0.39446 -0.113419,0.77355 -0.10922,0.37397 -0.357064,0.70183 -0.247844,0.32274 -0.672119,0.52766 -0.420075,0.19978 -0.991375,0.19978 h -1.151004 v 2.6639 h -1.755911 v -7.10028 h 2.906915 q 0.5713,0 0.991375,0.20491 0.424275,0.20491 0.672119,0.53278 0.247844,0.32786 0.357064,0.71207 0.113419,0.38422 0.113419,0.7838 z m -1.789517,0.01 q 0,-0.50717 -0.247843,-0.69159 -0.243643,-0.18954 -0.877956,-0.18954 h -0.369665 v 1.71103 h 0.378067 q 0.436877,0 0.672119,-0.0666 0.235241,-0.0666 0.34026,-0.24589 0.105018,-0.1793 0.105018,-0.51741 z m 7.187473,4.85647 h -4.423383 v -7.10028 h 1.75591 v 5.39943 H 36.0804 Z m 7.292491,0 h -1.797919 l -0.474683,-1.43953 h -2.528848 l -0.483085,1.43953 h -1.797919 l 2.575056,-7.10028 h 1.940743 z m -2.675874,-2.67413 -0.852751,-2.59217 -0.861152,2.59217 z m 8.267063,-4.42615 -2.281003,3.84726 v 3.25302 h -1.755912 v -3.21203 l -2.32301,-3.88794 h 1.823122 l 1.335837,2.23356 1.340037,-2.23356 z m 5.171115,7.10028 h -4.389777 v -7.10028 h 4.318364 v 1.42414 h -2.562454 v 1.30122 h 2.444833 v 1.42927 h -2.444833 v 1.51637 h 2.633867 z m 6.813606,0 h -1.886134 l -0.457881,-1.26022 q -0.252045,-0.69159 -0.453681,-1.00921 -0.201635,-0.32274 -0.394869,-0.40983 -0.189034,-0.0922 -0.491487,-0.0922 h -0.197435 v 2.77147 h -1.755912 v -7.10028 h 2.98673 q 0.722527,0 1.184609,0.35859 0.462082,0.3586 0.663717,0.87088 0.205837,0.5123 0.205837,0.97335 0,0.5379 -0.172231,0.91188 -0.168029,0.36884 -0.357062,0.5379 -0.189034,0.16904 -0.424276,0.32273 0.28145,0.19979 0.462082,0.47643 0.184833,0.27151 0.499889,1.10653 z m -2.386023,-4.85647 q 0,-0.4918 -0.264646,-0.68646 -0.264647,-0.19467 -0.861153,-0.19467 h -0.369665 v 1.71103 h 0.378067 q 0.642713,0 0.877955,-0.16906 0.239442,-0.17417 0.239442,-0.66084 z"
       id="text79-1"
       style="font-weight:bold;font-size:9.50056px;font-family:GillSans-Bold, 'Gill Sans';-inkscape-font-specification:'GillSans-Bold, Gill Sans, Bold';stroke-width:0.905538"
       aria-label="PLAYER" /><g
       id="g81"
       transform="matrix(0.78542749,0,0,0.78542749,-69.942854,6.0558038)"><path
         d="m 150.73,8.93 c 0,0 -4.37,5.55 -6.92,8.79 v -7.53 c 0,-0.65 -0.32,-1.23 -0.8,-1.47 -0.49,-0.24 -1.05,-0.09 -1.41,0.37 l -9.09,11.56 c -0.49,0.63 -0.48,1.63 0.04,2.24 0.51,0.6 1.33,0.59 1.82,-0.04 0,0 4.34,-5.51 6.87,-8.73 v 7.53 c 0,0.65 0.32,1.23 0.81,1.47 0.49,0.24 1.05,0.1 1.41,-0.37 0,0 4.37,-5.56 6.91,-8.79 v 7.69 c 0,0.88 0.57,1.58 1.29,1.58 0.72,0 1.29,-0.71 1.29,-1.58 V 10.04 c 0,-0.65 -0.32,-1.23 -0.81,-1.47 -0.49,-0.24 -1.04,-0.1 -1.41,0.37 z"
         style="stroke:#000000;stroke-width:0.96px"
         id="path79" /><path
         d="m 132.5,8.84 -6.02,7.66 c -0.5,0.63 -0.48,1.63 0.03,2.24 0.52,0.61 1.33,0.59 1.83,-0.04 0,0 2.03,-2.58 3.81,-4.84 v 7.88 c 0,0.87 0.57,1.58 1.29,1.58 0.72,0 1.29,-0.71 1.29,-1.58 V 9.94 c 0,-0.65 -0.32,-1.23 -0.81,-1.47 -0.49,-0.24 -1.05,-0.09 -1.41,0.37 z"
         style="stroke:#000000;stroke-width:0.96px"
         id="path80" /><path
         d="m 161.18,14.49 c -0.2,-0.58 -0.67,-0.96 -1.19,-0.96 h -2.63 l 1.92,-2.44 c 0,0 1,-1.47 0.11,-2.27 -0.88,-0.81 -1.97,0.08 -1.97,0.08 l -4.03,5.12 c -0.36,0.46 -0.46,1.13 -0.26,1.72 0.2,0.58 0.67,0.96 1.19,0.96 h 2.63 l -3.12,3.96 c 0,0 -1.29,1.41 -0.34,2.36 0.96,0.96 2.2,-0.17 2.2,-0.17 l 5.22,-6.64 c 0.36,-0.46 0.46,-1.13 0.26,-1.72 z"
         style="stroke:#000000;stroke-width:0.96px"
         id="path81" /></g><rect
       id="Screen"
       x="6.2722497"
       y="31.447901"
       width="73.860619"
       height="95.816208"
       style="stroke-width:0px" /></g><g
     id="components"
     style="display:none"><circle
       id="BusyLight"
       data-name="Busy Light#RedLight"
       cx="43.202557"
       cy="134.10773"
       r="4.25"
       style="fill:#ff00ff;stroke-width:0px" /><circle
       id="Position"
       data-name="Position"
       cx="61.274387"
       cy="249.48567"
       r="11.34"
       style="display:inline;fill:#0000ff;stroke-width:0px" /><circle
       id="End_Out"
       data-name="End Out"
       cx="24.684095"
       cy="249.48567"
       r="11.34"
       style="fill:#0000ff;stroke-width:0px" /><circle
       id="Right_Out"
       data-name="Right Out"
       cx="61.274387"
       cy="294.82184"
       r="11.34"
       style="fill:#0000ff;stroke-width:0px" /><circle
       id="Left_Out"
       data-name="Left Out"
       cx="25.130732"
       cy="294.53891"
       r="11.34"
       style="fill:#0000ff;stroke-width:0px" /><circle
       id="Loop_Gate_In"
       data-name="Loop Gate"
       cx="61.274387"
       cy="198.04698"
       r="11.34"
       style="fill:#80ff80;stroke-width:0px" /><circle
       id="Play_Trig"
       data-name="Play Trig"
       cx="25.130732"
       cy="198.04698"
       r="11.34"
       style="fill:#80ff80;stroke-width:0px" /><circle
       id="LoopButton"
       data-name="Loop#OrangeButton"
       cx="61.467239"
       cy="153.59596"
       r="10.63"
       style="display:inline;fill:#ffc000;stroke-width:0px" /><circle
       id="Play_Button"
       data-name="Play#MomentaryRGB7mm"
       cx="26.19573"
       cy="153.59596"
       r="10.63"
       style="fill:#ffc000;stroke-width:0px" /><text
       id="slug"
       style="font-size:6px;font-family:MyriadPro-Regular, 'Myriad Pro';display:none"
       x="106.92887"
       y="6.466085">TSP</text><text
       id="modulename"
       style="font-size:6px;font-family:MyriadPro-Regular, 'Myriad Pro';display:none"
       x="122.39887"
       y="6.466085">Sample Player</text><rect
       id="Message_TSPDisplay"
       data-name="Message#TSPDisplay"
       x="9.0559683"
       y="34.537945"
       width="67.937767"
       height="23.58786"
       style="fill:#ffff00;stroke-width:0px" /><rect
       id="WaveformDisplay"
       data-name="Waveform#GraphicDisplay"
       x="9.233675"
       y="58.125805"
       width="67.937767"
       height="66.39827"
       style="display:inline;fill:#ffff00;stroke-width:0px" /><rect
       id="LoadSample_LoadSample"
       data-name="Load Sample...@action#WavFileBrowseAction"
       x="19.761585"
       y="42.414013"
       width="7.4257388"
       height="12.094488"
       style="fill:#808080;stroke-width:0px" /><rect
       id="StartupDelay"
       data-name="Startup Delay (sec)@0@1@2@3@4@5@8@10@12@15@20@25@30"
       x="25.503193"
       y="42.414013"
       width="9.5456667"
       height="12.094488"
       style="display:inline;fill:#808080;stroke-width:0px" /><rect
       id="BufferStrategy"
       data-name="Buffer Strategy@Fill to threshold@Fill completely"
       x="25.503193"
       y="42.414013"
       width="9.5456667"
       height="12.094488"
       style="display:inline;fill:#808080;stroke-width:0px" /><rect
       id="MaxBufferSize"
       data-name="Max Buffer Size@1MB (5s 48kHz)@2MB (10s 48kHz)@4MB (21s 48kHz)@8MB (43s 48kHz)@16MB (1m27s 48kHz)@24MB (2m11s 48kHz)@32MB (2m54s 48kHz)@48MB (4m22s 48kHz)@64MB (5m49s 48kHz)@80MB (7m16s 48kHz)@96MB (8m44s 48kHz)@128MB (11m38s 48kHz)"
       x="25.503193"
       y="42.414013"
       width="9.5456667"
       height="12.094488"
       style="display:inline;fill:#808083;stroke-width:0px" /><rect
       id="PlaybackBufferThreshold"
       data-name="Playback Buffer Threshold"
       x="31.503193"
       y="42.414013"
       width="9.5456667"
       height="12.094488"
       style="display:inline;fill:#808040;stroke-width:0px" /><rect
       id="WaveformZoom"
       data-name="Waveform Zoom"
       x="47.053715"
       y="42.414013"
       width="9.5456667"
       height="12.094488"
       style="fill:#80801a" /><rect
       id="PlayTrigMode"
       data-name="Play Retrig Mode@Retrigger@Stop@Pause"
       x="61.526325"
       y="42.414013"
       width="9.8843842"
       height="12.094488"
       style="display:inline;fill:#808080;stroke-width:0px" /></g></svg>
