<svg xmlns="http://www.w3.org/2000/svg" width="132.17mm" height="131.86mm" viewBox="0 0 374.65 373.79">
  <g id="faceplate">
    <rect x=".12" y=".12" width="374.4" height="364.25" style="fill: #ededed; stroke: #9d9d9e; stroke-miterlimit: 10; stroke-width: .25px;" />
    <path d="m55.6,160.52c-8.03,0-13.21-5.98-13.21-15.22V38.4c0-9.25,5.19-15.22,13.21-15.22s13.75,6.12,13.75,15.22v106.9c0,9.1-5.53,15.22-13.75,15.22" style="fill: #00a551; stroke: #00a551; stroke-miterlimit: 10; stroke-width: 5px;" />
    <path d="m344.85,52.01c8.91,0,15.14-6.16,15.14-13.75s-6.23-14.29-15.14-14.29H99.81c-8.91,0-15.14,6.7-15.14,14.29s6.22,13.75,15.14,13.75h245.03Z" style="fill: #00adee; stroke: #00adee; stroke-miterlimit: 10; stroke-width: 4px;" />
    <path d="m178.76,12.01c0,.63-.13,1.21-.39,1.74-.26.53-.64.95-1.14,1.26-.51.31-1.12.47-1.85.47s-1.36-.16-1.87-.49c-.51-.32-.89-.75-1.14-1.28-.25-.53-.37-1.1-.37-1.7s.12-1.18.37-1.71c.25-.53.62-.95,1.14-1.28.51-.32,1.13-.49,1.87-.49.55,0,1.04.09,1.47.28.43.19.79.44,1.06.75.28.32.49.69.63,1.11.14.42.21.87.21,1.33m-1.83,0c0-.25-.03-.49-.1-.7-.07-.21-.17-.39-.3-.55-.13-.15-.3-.27-.49-.36-.19-.09-.41-.13-.67-.13-.48,0-.86.16-1.14.48-.27.32-.41.74-.41,1.25s.14.94.41,1.26c.28.32.65.48,1.13.48.33,0,.61-.07.84-.22.23-.15.41-.35.53-.62.12-.26.18-.56.18-.9" style="fill: #171717;" />
    <path d="m183.88,15.4h-1.55v-.71c-.22.27-.45.47-.68.6-.24.13-.53.2-.86.2-.66,0-1.09-.22-1.28-.66-.2-.44-.29-.93-.29-1.48v-2.92h1.55v2.69c0,.27.04.51.12.71.08.2.25.31.51.31.23,0,.41-.07.54-.22.13-.15.27-.33.4-.56v-2.92h1.55v4.97Z" style="fill: #171717;" />
    <path d="m187.97,15.11c-.16.09-.38.17-.66.25-.28.08-.55.12-.81.12-1.11,0-1.67-.62-1.67-1.85v-1.98h-.7v-.31l2.08-2.4h.18v1.49h1.48v1.22h-1.48v1.59c0,.19.01.33.03.45.02.11.08.21.17.29.09.08.23.11.42.11.25,0,.57-.12.97-.35v1.37Z" style="fill: #171717;" />
    <path d="m193.1,12.88c0,.33-.04.65-.12.96-.08.31-.21.59-.38.84-.17.25-.39.45-.66.59-.27.14-.58.22-.93.22-.29,0-.51-.03-.68-.1-.17-.07-.33-.16-.49-.27v2.55h-1.55v-7.23h1.55v.45c.16-.15.33-.28.51-.38.19-.1.44-.15.76-.15s.63.09.94.27c.31.18.56.46.76.84.2.38.3.86.3,1.43m-1.63.04c0-.3-.04-.54-.12-.73s-.19-.32-.32-.4c-.13-.08-.27-.12-.41-.12-.18,0-.33.03-.45.1-.12.07-.23.15-.33.25v1.9c.05.03.11.07.17.11.06.04.12.08.19.1.06.03.13.05.2.07.07.02.15.03.23.03.24,0,.45-.12.61-.35.16-.23.25-.55.25-.96" style="fill: #171717;" />
    <path d="m198.16,15.4h-1.55v-.71c-.22.27-.45.47-.68.6-.24.13-.53.2-.86.2-.66,0-1.09-.22-1.28-.66-.2-.44-.29-.93-.29-1.48v-2.92h1.55v2.69c0,.27.04.51.12.71.08.2.25.31.51.31.23,0,.41-.07.54-.22.13-.15.27-.33.4-.56v-2.92h1.55v4.97Z" style="fill: #171717;" />
    <path d="m202.25,15.11c-.16.09-.38.17-.66.25-.28.08-.55.12-.81.12-1.11,0-1.67-.62-1.67-1.85v-1.98h-.7v-.31l2.08-2.4h.18v1.49h1.48v1.22h-1.48v1.59c0,.19.01.33.03.45.02.11.08.21.17.29.09.08.23.11.42.11.25,0,.57-.12.97-.35v1.37Z" style="fill: #171717;" />
    <path d="m22.77,33.05l1.89,7.14h-1.5l-.33-1.51h-1.9l-.33,1.51h-1.5l1.89-7.14h1.78Zm-.19,4.45l-.69-3.21h-.02l-.69,3.21h1.4Z" style="fill: #171717;" />
    <path d="m22.01,70.32c.29,0,.57.03.82.09.25.06.46.16.65.3.18.14.32.33.42.56.1.23.15.52.15.86,0,.39-.09.72-.27,1-.18.28-.45.46-.81.56v.02c.4.05.72.22.95.51.23.29.35.67.35,1.15,0,.28-.04.55-.11.8-.07.25-.2.47-.38.67-.18.19-.41.34-.69.46-.28.11-.63.17-1.05.17h-2.43v-7.14h2.41Zm-.56,2.93c.4,0,.69-.07.88-.22.18-.14.27-.38.27-.73s-.08-.58-.25-.72c-.17-.14-.43-.21-.79-.21h-.52v1.87h.41Zm.15,3.15c.35,0,.63-.08.84-.23.21-.15.32-.44.32-.85,0-.21-.03-.38-.08-.52-.06-.14-.13-.25-.23-.33-.1-.08-.21-.14-.35-.18-.13-.03-.28-.05-.44-.05h-.62v2.15h.56Z" style="fill: #171717;" />
    <path d="m22.56,107.93c-.12-.24-.35-.35-.68-.35-.18,0-.33.05-.44.14-.12.1-.21.25-.27.47-.07.22-.11.5-.14.85-.03.35-.04.78-.04,1.29,0,.54.02.98.06,1.31.04.33.09.59.17.77.08.18.17.31.29.37.12.06.25.09.4.09.13,0,.25-.02.36-.06.11-.04.2-.13.29-.26.08-.13.14-.31.19-.55.05-.24.07-.55.07-.94h1.44c0,.39-.03.75-.09,1.1-.06.35-.17.65-.33.91-.16.26-.39.46-.69.61-.3.15-.68.22-1.15.22-.54,0-.97-.09-1.29-.26-.32-.17-.56-.42-.73-.75-.17-.33-.28-.72-.33-1.17-.05-.45-.08-.95-.08-1.5s.02-1.04.08-1.5c.05-.46.16-.85.33-1.17.17-.33.41-.58.73-.77.32-.18.75-.27,1.29-.27s.92.08,1.21.25c.3.17.52.38.67.64.15.26.24.53.27.83.04.3.06.58.06.83h-1.44c0-.52-.06-.9-.19-1.13" style="fill: #171717;" />
    <path d="m21.94,142c.5,0,.9.08,1.21.25.31.16.54.4.71.7.17.3.29.67.35,1.1.06.43.09.9.09,1.43,0,.63-.04,1.17-.12,1.63-.08.46-.21.85-.4,1.15-.19.3-.44.52-.75.67-.31.15-.71.22-1.19.22h-2.27v-7.14h2.36Zm-.28,6.08c.25,0,.46-.04.61-.13.15-.09.28-.23.37-.43.09-.2.15-.46.18-.79.03-.33.05-.73.05-1.22,0-.41-.01-.76-.04-1.07-.03-.31-.08-.56-.17-.76-.08-.2-.21-.36-.37-.46-.16-.1-.38-.16-.65-.16h-.61v5.02h.64Z" style="fill: #171717;" />
    <path d="m209,354.49h-2.77l-.73-1.92h-3.9l-.75,1.92h-2.77l3.97-9.5h3l3.96,9.5Zm-4.13-3.58l-1.32-3.47-1.33,3.47h2.65Z" style="fill: #171717;" />
    <polygon points="217.48 347.31 214.19 347.31 214.19 354.49 211.48 354.49 211.48 347.31 208.19 347.31 208.19 345 217.48 345 217.48 347.31" style="fill: #171717;" />
    <path d="m227.76,354.49h-2.91l-.71-1.69c-.26-.62-.49-1.07-.7-1.35-.21-.29-.41-.47-.61-.55-.2-.08-.45-.12-.76-.12h-.31v3.71h-2.71v-9.5h4.61c.74,0,1.35.16,1.83.48.48.32.82.71,1.03,1.16.21.46.32.89.32,1.3,0,.48-.09.88-.26,1.22-.17.33-.36.57-.55.72-.19.15-.41.3-.65.43.29.18.53.39.72.63.19.24.45.74.77,1.48l.91,2.06Zm-3.68-6.5c0-.44-.14-.74-.41-.92-.27-.17-.72-.26-1.33-.26h-.57v2.29h.58c.66,0,1.11-.08,1.36-.23.24-.15.37-.45.37-.88" style="fill: #171717;" />
    <rect x="229.01" y="345" width="2.71" height="9.49" style="fill: #171717;" />
    <path d="m244.13,354.49h-3.48l-.95-1.19s-.22-.29-.56-.73c-.35-.44-.58-.74-.69-.9-.52.74-.94,1.32-1.27,1.75l-.82,1.07h-3.43l3.81-4.94-3.64-4.56h3.46l.62.79c.35.46.78,1.04,1.27,1.73.47-.73.85-1.27,1.13-1.62l.71-.9h3.4l-3.49,4.56,3.95,4.94Z" style="fill: #171717;" />
    <polygon points="198.53 354.48 194.91 354.48 194.91 347.15 191.66 351.4 191.37 351.4 188.1 347.15 188.1 354.48 184.59 354.48 184.59 341.82 187.87 341.82 191.55 346.57 195.25 341.82 198.53 341.82 198.53 354.48" style="fill: #171717;" />
    <path d="m172.47,353.07c-.5.26-1,.47-1.52.62-.52.16-1.04.27-1.57.33-.53.06-1.07.1-1.64.1-1.04,0-1.98-.14-2.81-.43-.83-.29-1.54-.71-2.15-1.28-.61-.56-1.06-1.22-1.36-1.97-.3-.75-.45-1.58-.45-2.48,0-1.03.18-1.93.54-2.71.36-.77.86-1.42,1.5-1.93.64-.51,1.37-.89,2.2-1.14.82-.24,1.69-.37,2.6-.37,1.36,0,2.9.3,4.62.91v3.18c-.59-.37-1.18-.68-1.76-.92-.58-.25-1.26-.37-2.04-.37-.7,0-1.35.14-1.95.41-.6.28-1.09.67-1.46,1.18-.37.51-.55,1.11-.55,1.8,0,.61.16,1.16.48,1.66.32.5.77.9,1.34,1.2.57.3,1.22.44,1.94.44.58,0,1.13-.07,1.65-.21.52-.14.95-.3,1.31-.47.36-.17.72-.38,1.09-.61v3.03Z" style="fill: #00adee;" />
    <path d="m172.47,353.07c-.5.26-1,.47-1.52.62-.52.16-1.04.27-1.57.33-.53.06-1.07.1-1.64.1-1.04,0-1.98-.14-2.81-.43-.83-.29-1.54-.71-2.15-1.28-.61-.56-1.06-1.22-1.36-1.97-.3-.75-.45-1.58-.45-2.48,0-1.03.18-1.93.54-2.71.36-.77.86-1.42,1.5-1.93.64-.51,1.37-.89,2.2-1.14.82-.24,1.69-.37,2.6-.37,1.36,0,2.9.3,4.62.91v3.18c-.59-.37-1.18-.68-1.76-.92-.58-.25-1.26-.37-2.04-.37-.7,0-1.35.14-1.95.41-.6.28-1.09.67-1.46,1.18-.37.51-.55,1.11-.55,1.8,0,.61.16,1.16.48,1.66.32.5.77.9,1.34,1.2.57.3,1.22.44,1.94.44.58,0,1.13-.07,1.65-.21.52-.14.95-.3,1.31-.47.36-.17.72-.38,1.09-.61v3.03Z" style="fill: none; stroke: #00adee; stroke-width: .75px;" />
    <rect x="44.73" y="8.63" width="1.8" height="6.77" style="fill: #171717;" />
    <path d="m52.1,15.4h-1.55v-2.68c0-.27-.04-.51-.12-.71-.08-.2-.25-.31-.52-.31-.13,0-.24.03-.33.08-.1.05-.18.12-.26.21-.08.08-.14.17-.19.24-.05.08-.1.16-.16.25v2.92h-1.55v-4.97h1.55v.71c.24-.3.49-.5.73-.62.25-.12.52-.18.82-.18,1.05,0,1.57.71,1.57,2.14v2.92Z" style="fill: #171717;" />
    <path d="m57.48,12.88c0,.33-.04.65-.12.96-.08.31-.21.59-.38.84-.17.25-.39.45-.66.59-.27.14-.58.22-.93.22-.29,0-.51-.03-.68-.1-.16-.07-.33-.16-.49-.27v2.55h-1.55v-7.23h1.55v.45c.15-.15.33-.28.51-.38.19-.1.44-.15.76-.15s.63.09.94.27c.31.18.56.46.76.84.2.38.3.86.3,1.43m-1.63.04c0-.3-.04-.54-.12-.73-.08-.19-.19-.32-.32-.4-.13-.08-.27-.12-.41-.12-.18,0-.33.03-.45.1-.12.07-.23.15-.33.25v1.9c.05.03.11.07.17.11.06.04.12.08.18.1.06.03.13.05.2.07.07.02.15.03.23.03.24,0,.45-.12.61-.35.16-.23.25-.55.25-.96" style="fill: #171717;" />
    <path d="m62.54,15.4h-1.55v-.71c-.22.27-.45.47-.69.6-.24.13-.53.2-.86.2-.66,0-1.09-.22-1.28-.66-.2-.44-.29-.93-.29-1.48v-2.92h1.55v2.69c0,.27.04.51.12.71.08.2.25.31.51.31.23,0,.41-.07.54-.22.13-.15.27-.33.4-.56v-2.92h1.55v4.97Z" style="fill: #171717;" />
    <path d="m66.63,15.11c-.16.09-.38.17-.66.25-.28.08-.55.12-.81.12-1.11,0-1.67-.62-1.67-1.85v-1.98h-.7v-.31l2.08-2.4h.18v1.49h1.48v1.22h-1.48v1.59c0,.19.01.33.03.45.02.11.08.21.17.29.09.08.23.11.42.11.25,0,.57-.12.97-.35v1.37Z" style="fill: #171717;" />
    <polygon points="105.52 339.3 100.99 339.3 100.99 332.54 102.79 332.54 102.79 337.68 105.52 337.68 105.52 339.3" style="fill: #171717;" />
    <path d="m110.44,337.24h-3.08c.06.3.21.55.44.74.23.19.5.29.8.29.52,0,1.1-.17,1.73-.5v1.09c-.23.13-.5.25-.82.36-.32.11-.73.16-1.23.16-.54,0-1-.12-1.37-.34-.38-.23-.66-.54-.85-.93-.19-.39-.28-.83-.28-1.33s.09-.93.28-1.31c.19-.39.47-.69.85-.91.38-.22.84-.33,1.37-.33.35,0,.7.09,1.03.26.33.17.6.46.82.85.21.4.32.91.32,1.53v.35Zm-1.45-.87c0-.32-.07-.57-.21-.76-.14-.19-.34-.29-.6-.29s-.47.1-.62.29c-.16.19-.24.45-.24.76h1.67Z" style="fill: #171717;" />
    <polygon points="115.46 334.33 113.47 339.31 112.33 339.31 110.38 334.33 112.04 334.33 112.95 336.94 113.96 334.33 115.46 334.33" style="fill: #171717;" />
    <path d="m120.11,337.24h-3.08c.06.3.21.55.44.74.23.19.5.29.8.29.52,0,1.1-.17,1.73-.5v1.09c-.23.13-.5.25-.82.36-.32.11-.73.16-1.23.16-.54,0-1-.12-1.38-.34-.38-.23-.66-.54-.85-.93-.19-.39-.28-.83-.28-1.33s.09-.93.28-1.31c.19-.39.47-.69.85-.91.38-.22.84-.33,1.38-.33.35,0,.7.09,1.03.26.33.17.6.46.82.85.21.4.32.91.32,1.53v.35Zm-1.45-.87c0-.32-.07-.57-.21-.76-.14-.19-.34-.29-.6-.29s-.47.1-.62.29c-.16.19-.24.45-.24.76h1.67Z" style="fill: #171717;" />
    <rect x="120.6" y="332.54" width="1.55" height="6.77" style="fill: #171717;" />
    <polygon points="290.8 339.31 289 339.31 289 335.38 287.38 337.66 287.24 337.66 285.61 335.38 285.61 339.31 283.87 339.31 283.87 332.54 285.5 332.54 287.33 335.08 289.17 332.54 290.8 332.54 290.8 339.31" style="fill: #171717;" />
    <path d="m296.31,339.31h-1.55v-.71c-.22.27-.45.47-.69.6-.24.13-.53.2-.86.2-.66,0-1.09-.22-1.29-.66-.2-.44-.29-.93-.29-1.48v-2.92h1.55v2.69c0,.27.04.51.12.71.08.2.25.3.51.3.23,0,.4-.07.54-.22.13-.15.27-.33.4-.56v-2.92h1.55v4.97Z" style="fill: #171717;" />
    <path d="m300.39,339.02c-.16.09-.38.17-.66.25-.28.08-.55.12-.81.12-1.11,0-1.67-.62-1.67-1.85v-1.98h-.7v-.31l2.08-2.4h.18v1.49h1.48v1.22h-1.48v1.59c0,.19,0,.33.03.45.02.11.08.21.17.28.09.08.23.12.42.12.25,0,.57-.12.97-.35v1.37Z" style="fill: #171717;" />
    <path d="m305.2,337.25h-3.08c.06.3.21.55.44.74.23.19.5.29.8.29.52,0,1.1-.17,1.73-.5v1.09c-.23.13-.5.26-.82.36-.32.11-.73.16-1.23.16-.54,0-1-.12-1.37-.34-.38-.23-.66-.54-.85-.93s-.28-.83-.28-1.33.09-.93.28-1.31c.19-.39.47-.69.85-.91.38-.22.84-.33,1.37-.33.36,0,.7.09,1.03.26.33.17.6.46.82.85.21.4.32.91.32,1.53v.35Zm-1.45-.87c0-.32-.07-.57-.21-.76-.14-.19-.34-.29-.6-.29s-.47.1-.62.29c-.16.2-.24.45-.24.76h1.67Z" style="fill: #171717;" />
    <polygon points="162.07 341.89 156.67 354.03 154.28 354.03 148.98 341.89 152.74 341.89 155.48 348.81 158.3 341.89 162.07 341.89" style="fill: #eb1d25;" />
    <polygon points="162.07 341.89 156.67 354.03 154.28 354.03 148.98 341.89 152.74 341.89 155.48 348.81 158.3 341.89 162.07 341.89" style="fill: none; stroke: #eb1d25; stroke-width: .75px;" />
    <path d="m183.2,354.12h-3.7l.16-2.43h-5.8l-1.53,2.43h-3.7l8.29-11.98h6.25l.04,11.98Zm-3.58-4.51l-.62-4.37-3.65,4.37h4.28Z" style="fill: #00a551;" />
    <path d="m183.2,354.12h-3.7l.16-2.43h-5.8l-1.53,2.43h-3.7l8.29-11.98h6.25l.04,11.98Zm-3.58-4.51l-.62-4.37-3.65,4.37h4.28Z" style="fill: none; stroke: #00a551; stroke-width: .75px;" />
    <path d="m123.94,36.36h-1.41v-.94h.13c.48,0,.86-.09,1.13-.27.28-.18.45-.47.52-.87h1.06v7.08h-1.44v-5Z" style="fill: #171717;" />
    <path d="m194.89,41.36c0-.31.03-.61.1-.88.06-.27.16-.53.29-.78.13-.25.29-.49.49-.72.2-.24.42-.48.69-.72l.58-.54c.16-.14.29-.27.38-.39.1-.12.17-.24.23-.36.05-.12.09-.25.1-.39.02-.14.02-.3.02-.48,0-.59-.23-.88-.7-.88-.18,0-.32.04-.43.11-.1.07-.18.17-.24.3-.06.13-.09.27-.11.44-.02.17-.02.34-.02.53h-1.38v-.27c0-.66.18-1.17.53-1.52.35-.35.91-.53,1.67-.53.72,0,1.25.17,1.6.5.35.33.52.81.52,1.43,0,.23-.02.44-.06.63-.04.2-.1.39-.19.56-.09.18-.2.36-.34.53s-.31.34-.51.52l-.8.74c-.21.19-.38.38-.5.57-.12.18-.2.34-.23.47h2.67v1.12h-4.36Z" style="fill: #171717;" />
    <path d="m267.15,40.24c.1.22.31.33.62.33.17,0,.31-.03.42-.09.1-.06.18-.14.24-.24.06-.1.09-.23.11-.37.02-.14.03-.29.03-.44s-.01-.31-.04-.46c-.02-.14-.07-.27-.13-.39-.07-.11-.16-.2-.28-.27-.12-.07-.28-.1-.48-.1h-.48v-.94h.47c.15,0,.28-.03.38-.1.1-.06.19-.15.25-.25.06-.1.11-.22.14-.35.03-.13.04-.27.04-.42,0-.34-.06-.58-.17-.72-.11-.14-.29-.21-.52-.21-.15,0-.28.03-.37.08-.1.06-.17.14-.23.24-.05.1-.09.23-.1.36-.02.14-.03.29-.03.46h-1.32c0-.71.18-1.23.53-1.57.35-.34.87-.52,1.55-.52s1.15.15,1.5.44c.36.29.54.75.54,1.38,0,.43-.09.77-.29,1.04-.19.27-.45.44-.79.51v.02c.46.07.79.26.98.56.19.3.29.67.29,1.12,0,.24-.03.49-.09.74-.06.25-.18.48-.35.69-.17.21-.41.37-.72.5-.3.13-.7.19-1.19.19-.69,0-1.2-.19-1.54-.56-.34-.37-.51-.9-.51-1.59v-.03h1.38c0,.41.06.73.16.94" style="fill: #171717;" />
    <path d="m337.28,34.28h1.49v4.49h.68v1.12h-.68v1.47h-1.32v-1.47h-2.52v-1.18l2.35-4.43Zm.15,1.8l-1.38,2.69h1.4v-2.69h-.02Z" style="fill: #171717;" />
    <path d="m320.73,6.73s-3.41,4.33-5.39,6.85v-5.87c0-.5-.25-.96-.63-1.14-.38-.19-.82-.07-1.1.29l-7.09,9.01c-.38.49-.37,1.27.03,1.74.4.47,1.04.46,1.42-.03,0,0,3.38-4.29,5.35-6.81v5.87c0,.5.25.96.63,1.15.38.19.82.07,1.1-.29,0,0,3.4-4.33,5.39-6.85v5.99c0,.68.45,1.23,1.01,1.23s1.01-.55,1.01-1.23V7.59c0-.5-.25-.96-.63-1.14-.38-.19-.81-.07-1.1.29" style="fill: #00adee;" />
    <path d="m320.73,6.73s-3.41,4.33-5.39,6.85v-5.87c0-.5-.25-.96-.63-1.14-.38-.19-.82-.07-1.1.29l-7.09,9.01c-.38.49-.37,1.27.03,1.74.4.47,1.04.46,1.42-.03,0,0,3.38-4.29,5.35-6.81v5.87c0,.5.25.96.63,1.15.38.19.82.07,1.1-.29,0,0,3.4-4.33,5.39-6.85v5.99c0,.68.45,1.23,1.01,1.23s1.01-.55,1.01-1.23V7.59c0-.5-.25-.96-.63-1.14-.38-.19-.81-.07-1.1.29Z" style="fill: none; stroke: #00adee; stroke-width: .75px;" />
    <path d="m306.52,6.66l-4.69,5.97c-.39.49-.37,1.27.02,1.74.4.47,1.04.46,1.42-.03,0,0,1.58-2.01,2.97-3.77v6.14c0,.68.45,1.23,1,1.23s1.01-.55,1.01-1.23V7.52c0-.5-.25-.96-.63-1.14-.38-.19-.82-.07-1.1.29" style="fill: #eb1d25;" />
    <path d="m306.52,6.66l-4.69,5.97c-.39.49-.37,1.27.02,1.74.4.47,1.04.46,1.42-.03,0,0,1.58-2.01,2.97-3.77v6.14c0,.68.45,1.23,1,1.23s1.01-.55,1.01-1.23V7.52c0-.5-.25-.96-.63-1.14-.38-.19-.82-.07-1.1.29Z" style="fill: none; stroke: #eb1d25; stroke-width: .75px;" />
    <path d="m328.88,11.07c-.16-.46-.52-.75-.92-.75h-2.05l1.5-1.9s.78-1.15.09-1.77c-.69-.63-1.54.06-1.54.06l-3.14,3.99c-.28.35-.36.88-.2,1.34.16.46.52.75.93.75h2.05l-2.43,3.09s-1.01,1.1-.26,1.84c.74.75,1.71-.13,1.71-.13l4.07-5.18c.28-.36.36-.88.2-1.34" style="fill: #00a551;" />
    <path d="m328.88,11.07c-.16-.46-.52-.75-.92-.75h-2.05l1.5-1.9s.78-1.15.09-1.77c-.69-.63-1.54.06-1.54.06l-3.14,3.99c-.28.35-.36.88-.2,1.34.16.46.52.75.93.75h2.05l-2.43,3.09s-1.01,1.1-.26,1.84c.74.75,1.71-.13,1.71-.13l4.07-5.18c.28-.36.36-.88.2-1.34Z" style="fill: none; stroke: #00a551; stroke-width: .75px;" />
    <path d="m134.11,54.73c7.18,0,13,5.82,13,13s-4.82,13-12,13l-.95.02s-12.48,2.48-12.48,16.46v.04c0,13.98,11.7,17.38,11.7,17.38l.68.06c7.18,0,13,5.82,13,13,0,3.67-1.53,6.99-3.98,9.36l-36.26,31.07c-2.17,1.62-4.85,2.57-7.76,2.57-7.18,0-13-5.82-13-13s5.82-13,13-13l.89-.08s11.7-3.39,11.7-17.38v-.04c0-13.98-12.48-16.46-12.48-16.46h-.07c-7.18,0-13-5.81-13-13,0-3.71,1.56-7.07,4.06-9.43l35.53-30.48c2.27-1.93,5.2-3.09,8.41-3.09m0-1.5c-3.44,0-6.77,1.22-9.38,3.45l-35.54,30.48s-.04.03-.06.05c-2.92,2.77-4.52,6.5-4.52,10.52,0,7.97,6.46,14.46,14.42,14.5,1.39.33,11.12,3.06,11.12,14.96,0,.03,0,.06,0,.09-.03,11.94-9.35,15.45-10.51,15.84l-.66.06c-7.96.04-14.43,6.53-14.43,14.5s6.5,14.5,14.5,14.5c3.15,0,6.14-.99,8.66-2.87.03-.02.05-.04.08-.06l36.26-31.07s.04-.04.07-.06c2.86-2.76,4.43-6.47,4.43-10.44,0-7.98-6.47-14.47-14.44-14.5l-.46-.04c-1.27-.42-10.48-3.87-10.49-15.86,0-.03,0-.05,0-.07,0-12,9.91-14.68,11.16-14.97l.81-.02c7.66,0,13.46-6.23,13.46-14.5s-6.5-14.5-14.5-14.5" style="fill: #171717; stroke: #ededed; stroke-miterlimit: 10; stroke-width: .2px;" />
    <path d="m204.67,54.73c7.18,0,13,5.82,13,13s-4.82,13-12,13l-.95.02s-12.48,2.48-12.48,16.46v.04c0,13.98,11.7,17.38,11.7,17.38l.68.06c7.18,0,13,5.82,13,13,0,3.67-1.53,6.99-3.98,9.36l-36.26,31.07c-2.17,1.62-4.85,2.57-7.77,2.57-7.18,0-13-5.82-13-13s5.82-13,13-13l.89-.08s11.7-3.39,11.7-17.38v-.04c0-13.98-12.48-16.46-12.48-16.46h-.07c-7.18,0-13-5.81-13-13,0-3.71,1.56-7.07,4.06-9.43l35.53-30.48c2.27-1.93,5.2-3.09,8.41-3.09m0-1.5c-3.44,0-6.77,1.22-9.38,3.45l-35.54,30.48s-.04.03-.06.05c-2.92,2.77-4.52,6.5-4.52,10.52,0,7.97,6.46,14.46,14.42,14.5,1.39.33,11.12,3.06,11.12,14.96,0,.03,0,.06,0,.09-.03,11.94-9.35,15.45-10.51,15.84l-.66.06c-7.96.04-14.43,6.53-14.43,14.5s6.5,14.5,14.5,14.5c3.15,0,6.14-.99,8.66-2.87.03-.02.05-.04.08-.06l36.26-31.07s.04-.04.07-.06c2.86-2.76,4.43-6.47,4.43-10.44,0-7.98-6.47-14.47-14.44-14.5l-.46-.04c-1.27-.42-10.48-3.87-10.49-15.86,0-.03,0-.05,0-.07,0-12,9.91-14.68,11.16-14.97l.81-.02c7.66,0,13.46-6.23,13.46-14.5s-6.5-14.5-14.5-14.5" style="fill: #171717; stroke: #ededed; stroke-miterlimit: 10; stroke-width: .2px;" />
    <path d="m275.23,54.73c7.18,0,13,5.82,13,13s-4.82,13-12,13l-.95.02s-12.48,2.48-12.48,16.46v.04c0,13.98,11.7,17.38,11.7,17.38l.68.06c7.18,0,13,5.82,13,13,0,3.67-1.53,6.99-3.98,9.36l-36.26,31.07c-2.17,1.62-4.85,2.57-7.76,2.57-7.18,0-13-5.82-13-13s5.82-13,13-13l.89-.08s11.7-3.39,11.7-17.38v-.04c0-13.98-12.48-16.46-12.48-16.46h-.07c-7.18,0-13-5.81-13-13,0-3.71,1.56-7.07,4.06-9.43l35.53-30.48c2.27-1.93,5.2-3.09,8.41-3.09m0-1.5c-3.44,0-6.77,1.22-9.38,3.45l-35.54,30.48s-.04.03-.06.05c-2.92,2.77-4.52,6.5-4.52,10.52,0,7.97,6.46,14.46,14.42,14.5,1.39.33,11.12,3.06,11.12,14.96,0,.03,0,.06,0,.09-.03,11.94-9.35,15.45-10.51,15.84l-.66.06c-7.96.04-14.43,6.53-14.43,14.5s6.5,14.5,14.5,14.5c3.15,0,6.15-.99,8.66-2.87.03-.02.05-.04.08-.06l36.26-31.07s.04-.04.07-.06c2.86-2.76,4.43-6.47,4.43-10.44,0-7.98-6.47-14.47-14.44-14.5l-.46-.04c-1.27-.42-10.48-3.87-10.49-15.86,0-.03,0-.05,0-.07,0-12,9.91-14.68,11.16-14.97l.81-.02c7.66,0,13.46-6.23,13.46-14.5s-6.5-14.5-14.5-14.5" style="fill: #171717; stroke: #ededed; stroke-miterlimit: 10; stroke-width: .2px;" />
    <path d="m345.79,54.73c7.18,0,13,5.82,13,13s-4.82,13-12,13l-.95.02s-12.48,2.48-12.48,16.46v.04c0,13.98,11.7,17.38,11.7,17.38l.68.06c7.18,0,13,5.82,13,13,0,3.67-1.53,6.99-3.98,9.36l-36.26,31.07c-2.17,1.62-4.85,2.57-7.76,2.57-7.18,0-13-5.82-13-13s5.82-13,13-13l.89-.08s11.71-3.39,11.71-17.38v-.04c0-13.98-12.48-16.46-12.48-16.46h-.07c-7.18,0-13-5.81-13-13,0-3.71,1.56-7.07,4.06-9.43l35.53-30.48c2.27-1.93,5.2-3.09,8.41-3.09m0-1.5c-3.44,0-6.77,1.22-9.38,3.45l-35.54,30.48s-.04.03-.06.05c-2.92,2.77-4.52,6.5-4.52,10.52,0,7.97,6.46,14.46,14.42,14.5,1.39.33,11.12,3.06,11.12,14.96,0,.03,0,.06,0,.09-.03,11.94-9.35,15.45-10.51,15.84l-.66.06c-7.96.04-14.43,6.53-14.43,14.5s6.5,14.5,14.5,14.5c3.15,0,6.14-.99,8.66-2.87.03-.02.05-.04.08-.06l36.26-31.07s.04-.04.07-.06c2.86-2.76,4.43-6.47,4.43-10.44,0-7.98-6.47-14.47-14.44-14.5l-.46-.04c-1.27-.42-10.48-3.87-10.49-15.86,0-.03,0-.05,0-.07,0-12,9.91-14.68,11.16-14.97l.81-.02c7.66,0,13.46-6.23,13.46-14.5s-6.5-14.5-14.5-14.5" style="fill: #171717; stroke: #ededed; stroke-miterlimit: 10; stroke-width: .2px;" />
    <g>
      <circle cx="358.31" cy="335.71" r="4.25" style="fill: #aeaeaf;" />
      <polygon points="359.37 333.87 357.24 333.87 356.18 335.71 357.24 337.55 359.37 337.55 360.43 335.71 359.37 333.87" style="fill: #87898b;" />
    </g>
    <g>
      <circle cx="17.53" cy="335.71" r="4.25" style="fill: #aeaeaf;" />
      <polygon points="18.6 333.86 16.47 333.86 15.41 335.71 16.47 337.55 18.6 337.55 19.66 335.71 18.6 333.86" style="fill: #87898b;" />
    </g>
    <g>
      <circle cx="213.08" cy="335.71" r="4.25" style="fill: #aeaeaf;" />
      <polygon points="214.15 333.87 212.02 333.87 210.96 335.71 212.02 337.55 214.15 337.55 215.21 335.71 214.15 333.87" style="fill: #87898b;" />
    </g>
    <g id="outline">
      <path d="m192.45,183.47c5.55,0,10.07,4.52,10.07,10.07v121.13c0,5.56-4.52,10.07-10.07,10.07H29.6c-5.55,0-10.07-4.52-10.07-10.07v-121.13c0-5.55,4.52-10.07,10.07-10.07h162.85m0-2.04H29.6c-6.69,0-12.11,5.42-12.11,12.11v121.13c0,6.69,5.42,12.11,12.11,12.11h162.85c6.69,0,12.11-5.42,12.11-12.11v-121.13c0-6.69-5.42-12.11-12.11-12.11" style="fill: #171717; stroke: #ededed; stroke-miterlimit: 10; stroke-width: .6px;" />
      <path d="m355.42,182.3c5.53,0,10.03,4.52,10.03,10.07v123.14c0,5.55-4.5,10.07-10.03,10.07h-122.76c-5.53,0-10.04-4.52-10.04-10.07v-123.14c0-5.55,4.5-10.07,10.04-10.07h122.76m0-2.04h-122.76c-6.67,0-12.08,5.42-12.08,12.11v123.14c0,6.69,5.41,12.11,12.08,12.11h122.76c6.67,0,12.07-5.42,12.07-12.11v-123.14c0-6.69-5.41-12.11-12.07-12.11" style="fill: #171717; stroke: #ededed; stroke-miterlimit: 10; stroke-width: .6px;" />
    </g>
    <path d="m55.6,163.36c-9.6,0-16.05-7.26-16.05-18.06V38.4c0-10.8,6.45-18.06,16.05-18.06s16.59,7.43,16.59,18.06v106.9c0,10.63-6.82,18.06-16.59,18.06Z" style="fill: none; stroke: #171717; stroke-miterlimit: 10;" />
    <path d="m99.81,53.43c-9.44,0-16.55-6.52-16.55-15.17s7.27-15.71,16.55-15.71h245.03c9.28,0,16.55,6.9,16.55,15.71s-7.12,15.17-16.55,15.17H99.81Z" style="fill: none; stroke: #171717; stroke-miterlimit: 10;" />
  </g>
  <g /></svg>