<svg xmlns="http://www.w3.org/2000/svg" width="50.89mm" height="130.47mm" viewBox="0 0 144.25 369.83">
  <g id="faceplate">
    <rect x="0.13" y="0.13" width="144" height="364.25" style="fill: #ededed;stroke: #9d9d9e;stroke-miterlimit: 10;stroke-width: 0.25px" />
    <g>
      <path d="M65.79,350.16,63,357.7H61.82l-2.7-7.54H61l1.39,4.29,1.44-4.29Z" />
      <path d="M71.23,357.6h-4.6v-7.44h4.52v1.49H68.47V353H71v1.49H68.47v1.59h2.76Z" />
      <path d="M78.37,357.6h-2l-.48-1.32a5.61,5.61,0,0,0-.47-1.06,1.13,1.13,0,0,0-.41-.43,1.31,1.31,0,0,0-.52-.09H74.3v2.9H72.46v-7.44h3.13a2,2,0,0,1,1.24.37,2.09,2.09,0,0,1,.7.92,2.61,2.61,0,0,1,.22,1,2.27,2.27,0,0,1-.18.95,1.81,1.81,0,0,1-.38.57,3.93,3.93,0,0,1-.44.34,1.86,1.86,0,0,1,.48.49,7.22,7.22,0,0,1,.53,1.16Zm-2.5-5.09a.83.83,0,0,0-.28-.72,1.5,1.5,0,0,0-.9-.2H74.3v1.79h.4a1.65,1.65,0,0,0,.92-.18A.79.79,0,0,0,75.87,352.51Z" />
      <path d="M84.78,355.49a2.18,2.18,0,0,1-.54,1.54,2,2,0,0,1-1.5.57H79.21v-7.44h3a3.37,3.37,0,0,1,1,.13,1.77,1.77,0,0,1,.68.37,1.5,1.5,0,0,1,.39.55,1.93,1.93,0,0,1,.13.69,2.28,2.28,0,0,1-.13.76,1.94,1.94,0,0,1-.33.57,1.21,1.21,0,0,1-.4.31,2.5,2.5,0,0,1,1,.76A2.06,2.06,0,0,1,84.78,355.49Zm-2.14-3.19a.74.74,0,0,0-.3-.71,1.73,1.73,0,0,0-.9-.18h-.39v1.78h.4a1.88,1.88,0,0,0,.91-.17A.81.81,0,0,0,82.64,352.3Zm.29,3.1c0-.64-.37-1-1.13-1h-.75v1.91h.75C82.56,356.35,82.93,356,82.93,355.4Z" />
    </g>
    <path d="M131.76,318.63V297.11H110.23c-7.5,0-13.57,6.52-13.57,14.56V342.2h29.46a5.46,5.46,0,0,0,5.64-5.25V318.63Z" />
    <path d="M126.11,45.78h2.26a21.88,21.88,0,0,0-2.44-9.12l-2,1.12A19.6,19.6,0,0,1,126.11,45.78Z" />
    <path d="M126.11,47.78a19.55,19.55,0,0,1-2.13,8l2,1.13a21.88,21.88,0,0,0,2.44-9.12Z" />
    <g>
      <path d="M34.09,72.16a2,2,0,0,1-.28,1.09A1.9,1.9,0,0,1,33,74a2.58,2.58,0,0,1-1.17.25l-.46,0a3.63,3.63,0,0,1-.71-.14,5.8,5.8,0,0,1-.93-.37V72a5.63,5.63,0,0,0,.89.53,2.11,2.11,0,0,0,.93.21.78.78,0,0,0,.6-.17.56.56,0,0,0,.13-.33.56.56,0,0,0-.23-.46,3.72,3.72,0,0,0-.67-.39,4.44,4.44,0,0,1-.86-.51,2,2,0,0,1-.6-.69,1.9,1.9,0,0,1-.24-1,2.07,2.07,0,0,1,.24-1,1.74,1.74,0,0,1,.72-.7,2.41,2.41,0,0,1,1.19-.27,3.87,3.87,0,0,1,.92.11,4.62,4.62,0,0,1,.7.25,3,3,0,0,1,.37.21v1.59a4.72,4.72,0,0,0-.81-.53,2,2,0,0,0-1-.24.68.68,0,0,0-.49.15.49.49,0,0,0-.15.36.47.47,0,0,0,.15.35,2.46,2.46,0,0,0,.54.36,10,10,0,0,1,1.1.65,2.45,2.45,0,0,1,.65.68A1.87,1.87,0,0,1,34.09,72.16Z" />
      <path d="M36.33,74.12H34.78v-5h1.55ZM36.21,68a.77.77,0,0,1-.19.53.62.62,0,0,1-.46.21.56.56,0,0,1-.33-.1.67.67,0,0,1-.24-.26.92.92,0,0,1-.08-.38.76.76,0,0,1,.19-.52.6.6,0,0,1,.46-.22.63.63,0,0,1,.46.22A.76.76,0,0,1,36.21,68Z" />
      <path d="M41.21,69.31l-2.1,3.51h2v1.3H36.68V74l2.09-3.51H36.85v-1.3h4.36Z" />
      <path d="M46,72.06H43a1.27,1.27,0,0,0,1.24,1,3.68,3.68,0,0,0,1.73-.5v1.09a4.3,4.3,0,0,1-.83.37,3.86,3.86,0,0,1-1.23.16,2.56,2.56,0,0,1-1.37-.34,2.18,2.18,0,0,1-.85-.93,3.25,3.25,0,0,1,0-2.64,2.13,2.13,0,0,1,.85-.91,2.65,2.65,0,0,1,1.37-.33,2.11,2.11,0,0,1,1,.27,2,2,0,0,1,.82.85A3.28,3.28,0,0,1,46,71.71Zm-1.45-.87a1.25,1.25,0,0,0-.21-.76.7.7,0,0,0-.6-.29.79.79,0,0,0-.63.29,1.17,1.17,0,0,0-.24.76Z" />
    </g>
    <g>
      <path d="M46.85,29.2,48,27.25a22,22,0,0,0-9.13-2.45v2.26A19.61,19.61,0,0,1,46.85,29.2Z" />
      <path d="M54.43,36.05l2-1.12a22,22,0,0,0-6.67-6.68L48.58,30.2A19.77,19.77,0,0,1,54.43,36.05Z" />
      <path d="M27.13,30.2,26,28.25a22.17,22.17,0,0,0-6.68,6.68l1.95,1.12A19.93,19.93,0,0,1,27.13,30.2Z" />
      <path d="M57.57,45.78h2.26a22,22,0,0,0-2.44-9.12l-2,1.12A19.45,19.45,0,0,1,57.57,45.78Z" />
      <path d="M36.85,27.06V24.8a22,22,0,0,0-9.12,2.45l1.13,1.95A19.6,19.6,0,0,1,36.85,27.06Z" />
      <path d="M21.27,57.51l-1.95,1.12A22.17,22.17,0,0,0,26,65.31l1.13-2A20,20,0,0,1,21.27,57.51Z" />
      <path d="M48.58,63.36l1.13,2a22,22,0,0,0,6.67-6.68l-2-1.12A19.89,19.89,0,0,1,48.58,63.36Z" />
      <path d="M57.57,47.78a19.41,19.41,0,0,1-2.14,8l2,1.13a22,22,0,0,0,2.44-9.12Z" />
      <path d="M18.14,47.78H15.88a21.88,21.88,0,0,0,2.44,9.12l1.95-1.13A19.55,19.55,0,0,1,18.14,47.78Z" />
      <path d="M20.27,37.78l-1.95-1.12a21.88,21.88,0,0,0-2.44,9.12h2.26A19.6,19.6,0,0,1,20.27,37.78Z" />
    </g>
    <g>
      <path d="M101.56,69H99.38v5.12H97.59V69H95.41V67.36h6.15Z" />
      <path d="M103.63,74.12h-1.55v-5h1.55ZM103.51,68a.82.82,0,0,1-.19.53.62.62,0,0,1-.46.21.56.56,0,0,1-.33-.1.67.67,0,0,1-.24-.26.92.92,0,0,1-.08-.38.76.76,0,0,1,.19-.52.6.6,0,0,1,.46-.22.63.63,0,0,1,.46.22A.81.81,0,0,1,103.51,68Z" />
      <path d="M112.14,74.12H110.6V71.47a1.64,1.64,0,0,0-.16-.79.52.52,0,0,0-.48-.26.72.72,0,0,0-.53.22,3.88,3.88,0,0,0-.41.56v2.92h-1.55V71.47a1.84,1.84,0,0,0-.14-.78.51.51,0,0,0-.5-.27.69.69,0,0,0-.32.08.84.84,0,0,0-.23.18,2,2,0,0,0-.22.28l-.16.24v2.92h-1.55v-5h1.55v.71a2.57,2.57,0,0,1,.7-.61,1.9,1.9,0,0,1,1.26-.14,1.24,1.24,0,0,1,.4.16,1.14,1.14,0,0,1,.35.31,1.43,1.43,0,0,1,.26.45,3,3,0,0,1,.77-.72,1.8,1.8,0,0,1,.93-.25,1.54,1.54,0,0,1,.88.24A1.36,1.36,0,0,1,112,70a3,3,0,0,1,.17,1.1Z" />
      <path d="M117.2,72.06h-3.09a1.27,1.27,0,0,0,.45.74,1.18,1.18,0,0,0,.8.29,3.65,3.65,0,0,0,1.72-.5v1.09a3.94,3.94,0,0,1-.82.37,3.86,3.86,0,0,1-1.23.16,2.62,2.62,0,0,1-1.38-.34,2.16,2.16,0,0,1-.84-.93,3,3,0,0,1-.29-1.33,2.93,2.93,0,0,1,.29-1.31,2.11,2.11,0,0,1,.84-.91,2.71,2.71,0,0,1,1.38-.33,2.11,2.11,0,0,1,1,.27,2,2,0,0,1,.82.85,3.28,3.28,0,0,1,.32,1.53Zm-1.46-.87a1.25,1.25,0,0,0-.21-.76.67.67,0,0,0-.59-.29.79.79,0,0,0-.63.29,1.17,1.17,0,0,0-.24.76Z" />
    </g>
    <path d="M115.39,29.2l1.13-1.95a21.89,21.89,0,0,0-9.12-2.45v2.26A19.6,19.6,0,0,1,115.39,29.2Z" />
    <path d="M123,36.05l2-1.12a22.17,22.17,0,0,0-6.68-6.68l-1.13,1.95A19.93,19.93,0,0,1,123,36.05Z" />
    <path d="M95.67,30.2l-1.13-1.95a22,22,0,0,0-6.67,6.68l1.95,1.12A19.77,19.77,0,0,1,95.67,30.2Z" />
    <path d="M105.4,27.06V24.8a22,22,0,0,0-9.13,2.45L97.4,29.2A19.61,19.61,0,0,1,105.4,27.06Z" />
    <path d="M89.82,57.51l-1.95,1.12a22,22,0,0,0,6.67,6.68l1.13-2A19.89,19.89,0,0,1,89.82,57.51Z" />
    <path d="M117.12,63.36l1.13,2a22.17,22.17,0,0,0,6.68-6.68l-2-1.12A20,20,0,0,1,117.12,63.36Z" />
    <path d="M86.68,47.78H84.42a22,22,0,0,0,2.44,9.12l2-1.13A19.41,19.41,0,0,1,86.68,47.78Z" />
    <path d="M88.82,37.78l-2-1.12a22,22,0,0,0-2.44,9.12h2.26A19.45,19.45,0,0,1,88.82,37.78Z" />
    <g>
      <path d="M31.85,128.8a3.62,3.62,0,0,1-.33,1.67,3.31,3.31,0,0,1-.79,1,2.58,2.58,0,0,1-1.79.57H25.73v-6.77H28.2a6.31,6.31,0,0,1,1,.07,3.6,3.6,0,0,1,.72.19,2.26,2.26,0,0,1,.54.26,3.3,3.3,0,0,1,.4.32,3.2,3.2,0,0,1,.53.67,3.68,3.68,0,0,1,.37.9A4.2,4.2,0,0,1,31.85,128.8ZM30,128.71a2.57,2.57,0,0,0-.28-1.29,1.43,1.43,0,0,0-.67-.61,2,2,0,0,0-.79-.16h-.76v4h.76a2,2,0,0,0,1.22-.38A1.89,1.89,0,0,0,30,128.71Z" />
      <path d="M36.89,131.81c-.22.1-.43.18-.62.25a2.43,2.43,0,0,1-.7.09A.75.75,0,0,1,35,132a.89.89,0,0,1-.21-.38,2.63,2.63,0,0,1-.56.38,1.81,1.81,0,0,1-.8.15,1.37,1.37,0,0,1-.77-.19,1,1,0,0,1-.41-.47,1.52,1.52,0,0,1-.12-.59,1.36,1.36,0,0,1,.2-.76,1.63,1.63,0,0,1,.55-.49,6.92,6.92,0,0,1,.91-.4l.49-.17.25-.1.17-.09a1,1,0,0,0-.13-.56c-.09-.14-.27-.21-.56-.21a1.91,1.91,0,0,0-.94.25,3.27,3.27,0,0,0-.79.66v-1.35a3,3,0,0,1,.62-.38,2.85,2.85,0,0,1,.7-.22,3.65,3.65,0,0,1,.74-.08,2.12,2.12,0,0,1,1.43.42,1.44,1.44,0,0,1,.48,1.15v1.92a1.44,1.44,0,0,0,0,.41.17.17,0,0,0,.17.13.92.92,0,0,0,.39-.14Zm-2.15-.95v-1.18a3.78,3.78,0,0,0-.8.46.68.68,0,0,0-.26.55.54.54,0,0,0,.13.38.37.37,0,0,0,.29.13.55.55,0,0,0,.32-.1Z" />
      <path d="M44.82,132.06H43.27v-2.65a1.65,1.65,0,0,0-.15-.79.52.52,0,0,0-.48-.26.68.68,0,0,0-.53.22,3.25,3.25,0,0,0-.41.56v2.92H40.15v-2.65a1.81,1.81,0,0,0-.14-.78.52.52,0,0,0-.5-.27.69.69,0,0,0-.32.08.86.86,0,0,0-.23.17,3.06,3.06,0,0,0-.22.29c-.09.13-.14.21-.17.24v2.92H37v-5h1.54v.71a2.44,2.44,0,0,1,.71-.61,1.86,1.86,0,0,1,.84-.19,1.93,1.93,0,0,1,.42,0,1.24,1.24,0,0,1,.4.16,1,1,0,0,1,.35.31,1.66,1.66,0,0,1,.26.45,2.85,2.85,0,0,1,.77-.72,1.71,1.71,0,0,1,.93-.25,1.54,1.54,0,0,1,.88.24,1.41,1.41,0,0,1,.52.69,3.22,3.22,0,0,1,.17,1.1Z" />
      <path d="M50.19,129.54a3.83,3.83,0,0,1-.12,1,2.92,2.92,0,0,1-.38.84,1.79,1.79,0,0,1-.66.59,1.89,1.89,0,0,1-.94.22,2,2,0,0,1-.67-.1,2.2,2.2,0,0,1-.49-.28v2.55H45.38v-7.23h1.55v.45a2.12,2.12,0,0,1,.51-.38,1.51,1.51,0,0,1,.76-.16,1.85,1.85,0,0,1,.94.27,2,2,0,0,1,.76.84A3.19,3.19,0,0,1,50.19,129.54Zm-1.63,0a1.89,1.89,0,0,0-.12-.73.83.83,0,0,0-.32-.4.73.73,0,0,0-.41-.13.83.83,0,0,0-.45.1,1.59,1.59,0,0,0-.33.25v1.9l.17.11.18.11.2.07a.85.85,0,0,0,.23,0,.75.75,0,0,0,.61-.35A1.71,1.71,0,0,0,48.56,129.58Z" />
    </g>
    <path d="M46.85,87.14l1.13-2a22,22,0,0,0-9.13-2.45V85A19.45,19.45,0,0,1,46.85,87.14Z" />
    <path d="M54.43,94l2-1.13a22.1,22.1,0,0,0-6.67-6.67l-1.13,2A19.77,19.77,0,0,1,54.43,94Z" />
    <path d="M27.13,88.14l-1.13-2a22.25,22.25,0,0,0-6.68,6.67L21.27,94A19.93,19.93,0,0,1,27.13,88.14Z" />
    <path d="M57.57,103.72h2.26a22,22,0,0,0-2.44-9.12l-2,1.12A19.45,19.45,0,0,1,57.57,103.72Z" />
    <path d="M36.85,85V82.74a22,22,0,0,0-9.12,2.45l1.13,2A19.45,19.45,0,0,1,36.85,85Z" />
    <path d="M21.27,115.44l-1.95,1.13A22.17,22.17,0,0,0,26,123.25l1.13-2A20,20,0,0,1,21.27,115.44Z" />
    <path d="M48.58,121.3l1.13,2a22,22,0,0,0,6.67-6.68l-2-1.13A19.81,19.81,0,0,1,48.58,121.3Z" />
    <path d="M57.57,105.72a19.41,19.41,0,0,1-2.14,8l2,1.13a22,22,0,0,0,2.44-9.12Z" />
    <path d="M18.14,105.72H15.88a21.88,21.88,0,0,0,2.44,9.12l1.95-1.13A19.55,19.55,0,0,1,18.14,105.72Z" />
    <path d="M20.27,95.72,18.32,94.6a21.88,21.88,0,0,0-2.44,9.12h2.26A19.6,19.6,0,0,1,20.27,95.72Z" />
    <g>
      <path d="M94.72,132.06H92.88l-.48-1.37H89.81l-.49,1.37H87.48l2.63-6.77h2ZM92,129.51,91.11,127l-.88,2.47Z" />
      <path d="M100.32,127.42a2.34,2.34,0,0,1-.12.74,1.9,1.9,0,0,1-.36.67,1.92,1.92,0,0,1-.69.5,2.43,2.43,0,0,1-1,.19H97v2.54h-1.8v-6.77h3a2.43,2.43,0,0,1,1,.2,1.83,1.83,0,0,1,.69.51,1.86,1.86,0,0,1,.36.68A2.34,2.34,0,0,1,100.32,127.42Zm-1.83,0a.78.78,0,0,0-.25-.66,1.64,1.64,0,0,0-.9-.18H97v1.63h.39a3,3,0,0,0,.68-.06.56.56,0,0,0,.35-.23A1,1,0,0,0,98.49,127.43Z" />
      <path d="M109,132.06h-1.93l-.47-1.2a4.81,4.81,0,0,0-.46-1,1,1,0,0,0-.4-.39,1.23,1.23,0,0,0-.51-.09H105v2.64h-1.8v-6.77h3.06a2,2,0,0,1,1.21.35,1.88,1.88,0,0,1,.68.83,2.31,2.31,0,0,1,.21.92,2.08,2.08,0,0,1-.17.87,1.62,1.62,0,0,1-.37.52,4.19,4.19,0,0,1-.44.3,1.73,1.73,0,0,1,.48.45,7.1,7.1,0,0,1,.51,1.06Zm-2.44-4.63a.73.73,0,0,0-.27-.65,1.53,1.53,0,0,0-.88-.19H105v1.63h.39a1.72,1.72,0,0,0,.9-.16A.72.72,0,0,0,106.55,127.43Z" />
      <path d="M113.74,131.81l-.63.25a2.31,2.31,0,0,1-.69.09.73.73,0,0,1-.53-.15,1,1,0,0,1-.22-.38,2.08,2.08,0,0,1-.55.38,1.84,1.84,0,0,1-.8.15,1.35,1.35,0,0,1-.77-.19.93.93,0,0,1-.41-.47,1.52,1.52,0,0,1-.12-.59,1.29,1.29,0,0,1,.2-.76,1.63,1.63,0,0,1,.55-.49,6.37,6.37,0,0,1,.91-.4l.49-.17.24-.1a.76.76,0,0,0,.18-.09,1.08,1.08,0,0,0-.13-.56c-.09-.14-.27-.21-.56-.21a1.91,1.91,0,0,0-.94.25,3.31,3.31,0,0,0-.8.66v-1.35a3.11,3.11,0,0,1,.63-.38,2.72,2.72,0,0,1,.7-.22,3.65,3.65,0,0,1,.74-.08,2.09,2.09,0,0,1,1.42.42,1.44,1.44,0,0,1,.48,1.15v1.92a1.37,1.37,0,0,0,.05.41.16.16,0,0,0,.16.13,1,1,0,0,0,.4-.14Zm-2.15-.95v-1.18a3.9,3.9,0,0,0-.81.46.67.67,0,0,0-.25.55.5.5,0,0,0,.13.38.37.37,0,0,0,.29.13.57.57,0,0,0,.32-.1Z" />
      <path d="M117.32,131.77a3.12,3.12,0,0,1-.66.26,2.94,2.94,0,0,1-.81.12c-1.12,0-1.67-.62-1.67-1.86v-2h-.7V128l2.07-2.4h.18v1.49h1.48v1.22h-1.48v1.59a2.64,2.64,0,0,0,0,.45.48.48,0,0,0,.17.29.68.68,0,0,0,.42.11,2,2,0,0,0,1-.35Z" />
      <path d="M119.28,132.06h-1.55v-5h1.55Zm-.13-6.12a.77.77,0,0,1-.19.53.6.6,0,0,1-.46.21.56.56,0,0,1-.33-.1.65.65,0,0,1-.23-.26.82.82,0,0,1,.1-.9.59.59,0,0,1,.92,0A.76.76,0,0,1,119.15,125.94Z" />
      <path d="M124.82,129.57a2.91,2.91,0,0,1-.28,1.32,2.1,2.1,0,0,1-.85.92,2.62,2.62,0,0,1-1.38.34,2.56,2.56,0,0,1-1.37-.34,2.1,2.1,0,0,1-.85-.92,2.91,2.91,0,0,1-.28-1.32,3.31,3.31,0,0,1,.15-1,2.35,2.35,0,0,1,.48-.81,2.12,2.12,0,0,1,.79-.55,3,3,0,0,1,1.08-.19,2.88,2.88,0,0,1,1.1.2,2,2,0,0,1,.78.53,2.31,2.31,0,0,1,.47.82A3,3,0,0,1,124.82,129.57Zm-1.63,0a1.63,1.63,0,0,0-.22-.92.8.8,0,0,0-1.31,0,1.63,1.63,0,0,0-.22.92,1.69,1.69,0,0,0,.22.93.8.8,0,0,0,1.31,0A1.64,1.64,0,0,0,123.19,129.57Z" />
    </g>
    <path d="M115.39,87.14l1.13-2a21.89,21.89,0,0,0-9.12-2.45V85A19.45,19.45,0,0,1,115.39,87.14Z" />
    <path d="M123,94l2-1.13a22.25,22.25,0,0,0-6.68-6.67l-1.13,2A19.93,19.93,0,0,1,123,94Z" />
    <path d="M95.67,88.14l-1.13-2a22.1,22.1,0,0,0-6.67,6.67L89.82,94A19.77,19.77,0,0,1,95.67,88.14Z" />
    <path d="M126.11,103.72h2.26a21.88,21.88,0,0,0-2.44-9.12l-2,1.12A19.6,19.6,0,0,1,126.11,103.72Z" />
    <path d="M105.4,85V82.74a22,22,0,0,0-9.13,2.45l1.13,2A19.45,19.45,0,0,1,105.4,85Z" />
    <path d="M89.82,115.44l-1.95,1.13a22,22,0,0,0,6.67,6.68l1.13-2A19.81,19.81,0,0,1,89.82,115.44Z" />
    <path d="M117.12,121.3l1.13,2a22.17,22.17,0,0,0,6.68-6.68l-2-1.13A20,20,0,0,1,117.12,121.3Z" />
    <path d="M126.11,105.72a19.55,19.55,0,0,1-2.13,8l2,1.13a21.88,21.88,0,0,0,2.44-9.12Z" />
    <path d="M86.68,105.72H84.42a22,22,0,0,0,2.44,9.12l2-1.13A19.41,19.41,0,0,1,86.68,105.72Z" />
    <path d="M88.82,95.72l-2-1.12a22,22,0,0,0-2.44,9.12h2.26A19.45,19.45,0,0,1,88.82,95.72Z" />
    <g>
      <path d="M31.1,190a3.39,3.39,0,0,1-.75.35,3.7,3.7,0,0,1-.78.19,5.55,5.55,0,0,1-.82.06,3.59,3.59,0,0,1-1.39-.25,2.89,2.89,0,0,1-1.07-.72,3,3,0,0,1-.68-1.11,4.15,4.15,0,0,1-.23-1.4,4,4,0,0,1,.27-1.53,3,3,0,0,1,.75-1.09,3,3,0,0,1,1.09-.64,4,4,0,0,1,1.29-.21,6.37,6.37,0,0,1,2.3.51V186a6.32,6.32,0,0,0-.88-.52,2.28,2.28,0,0,0-1-.21,2.09,2.09,0,0,0-1,.24,1.78,1.78,0,0,0-.72.67,2,2,0,0,0,0,1.95,1.82,1.82,0,0,0,.67.68,1.87,1.87,0,0,0,1,.25,2.76,2.76,0,0,0,.82-.12,4.17,4.17,0,0,0,.65-.26,5.49,5.49,0,0,0,.54-.35Z" />
      <path d="M36.53,188a2.91,2.91,0,0,1-.28,1.32,2.1,2.1,0,0,1-.85.92,3,3,0,0,1-2.75,0,2.1,2.1,0,0,1-.85-.92,2.91,2.91,0,0,1-.28-1.32,3,3,0,0,1,.16-1,2.19,2.19,0,0,1,1.26-1.36,3,3,0,0,1,1.08-.19,3.09,3.09,0,0,1,1.1.19,2,2,0,0,1,.78.54,2.5,2.5,0,0,1,.48.82A3.26,3.26,0,0,1,36.53,188Zm-1.62,0a1.62,1.62,0,0,0-.23-.92.8.8,0,0,0-1.31,0,1.63,1.63,0,0,0-.22.92,1.6,1.6,0,0,0,.23.93.71.71,0,0,0,.64.34.73.73,0,0,0,.66-.34A1.68,1.68,0,0,0,34.91,188Z" />
      <path d="M44.78,190.52H43.23v-2.65a1.65,1.65,0,0,0-.15-.79.52.52,0,0,0-.48-.26.68.68,0,0,0-.53.22,3.25,3.25,0,0,0-.41.56v2.92H40.11v-2.65a1.81,1.81,0,0,0-.14-.78.52.52,0,0,0-.5-.27.69.69,0,0,0-.32.08.86.86,0,0,0-.23.17,2.14,2.14,0,0,0-.22.29c-.09.13-.14.21-.17.24v2.92H37v-5h1.54v.71a2.44,2.44,0,0,1,.71-.61,1.86,1.86,0,0,1,.84-.19,1.93,1.93,0,0,1,.42,0,1.24,1.24,0,0,1,.4.16,1,1,0,0,1,.35.31,1.66,1.66,0,0,1,.26.45,2.85,2.85,0,0,1,.77-.72,1.71,1.71,0,0,1,.93-.25,1.54,1.54,0,0,1,.88.24,1.41,1.41,0,0,1,.52.69,3.22,3.22,0,0,1,.17,1.1Z" />
      <path d="M50.15,188.07a3.16,3.16,0,0,1-.29,1.43,2,2,0,0,1-.76.84,1.85,1.85,0,0,1-.94.27,1.7,1.7,0,0,1-.59-.09,1.4,1.4,0,0,1-.39-.2,2.15,2.15,0,0,1-.29-.25v.45H45.34v-6.77h1.55v2.09a1.38,1.38,0,0,1,.47-.26,1.85,1.85,0,0,1,.69-.12,1.89,1.89,0,0,1,.94.22,1.79,1.79,0,0,1,.66.59,2.86,2.86,0,0,1,.38.83A3.85,3.85,0,0,1,50.15,188.07Zm-1.63,0a1.56,1.56,0,0,0-.25-1,.73.73,0,0,0-.6-.34,1.39,1.39,0,0,0-.78.32v1.9a1,1,0,0,0,.78.35.84.84,0,0,0,.57-.27A1.32,1.32,0,0,0,48.52,188Z" />
    </g>
    <path d="M46.85,145.6,48,143.65a22,22,0,0,0-9.13-2.45v2.26A19.45,19.45,0,0,1,46.85,145.6Z" />
    <path d="M54.43,152.45l2-1.13a21.88,21.88,0,0,0-6.67-6.67l-1.13,1.95A19.66,19.66,0,0,1,54.43,152.45Z" />
    <path d="M27.13,146.6,26,144.65a22,22,0,0,0-6.68,6.67l1.95,1.13A19.93,19.93,0,0,1,27.13,146.6Z" />
    <path d="M57.57,162.18h2.26a22,22,0,0,0-2.44-9.12l-2,1.12A19.45,19.45,0,0,1,57.57,162.18Z" />
    <path d="M36.85,143.46V141.2a22,22,0,0,0-9.12,2.45l1.13,1.95A19.45,19.45,0,0,1,36.85,143.46Z" />
    <path d="M21.27,173.9,19.32,175A22.17,22.17,0,0,0,26,181.71l1.13-2A20,20,0,0,1,21.27,173.9Z" />
    <path d="M48.58,179.76l1.13,2A22,22,0,0,0,56.38,175l-2-1.13A19.81,19.81,0,0,1,48.58,179.76Z" />
    <path d="M57.57,164.18a19.45,19.45,0,0,1-2.14,8l2,1.13a22,22,0,0,0,2.44-9.12Z" />
    <path d="M18.14,164.18H15.88a21.88,21.88,0,0,0,2.44,9.12l1.95-1.13A19.6,19.6,0,0,1,18.14,164.18Z" />
    <path d="M20.27,154.18l-1.95-1.12a21.88,21.88,0,0,0-2.44,9.12h2.26A19.6,19.6,0,0,1,20.27,154.18Z" />
    <g>
      <path d="M106,190.52h-1.8V186.6l-1.62,2.27h-.14l-1.62-2.27v3.92H99.11v-6.77h1.63l1.83,2.54,1.84-2.54H106Z" />
      <path d="M108.57,190.52H107v-5h1.55Zm-.13-6.12a.77.77,0,0,1-.19.53.6.6,0,0,1-.46.21.56.56,0,0,1-.33-.1.58.58,0,0,1-.23-.26.82.82,0,0,1-.09-.38.76.76,0,0,1,.19-.52.59.59,0,0,1,.92,0A.76.76,0,0,1,108.44,184.4Z" />
      <path d="M114.15,190.52h-1.9l-.85-1.41-.84,1.41h-1.7l1.7-2.44-1.73-2.53h1.9l.81,1.35.82-1.35h1.69l-1.65,2.36Z" />
    </g>
    <path d="M115.39,145.6l1.13-1.95a21.89,21.89,0,0,0-9.12-2.45v2.26A19.45,19.45,0,0,1,115.39,145.6Z" />
    <path d="M123,152.45l2-1.13a22.13,22.13,0,0,0-6.68-6.67l-1.13,1.95A19.93,19.93,0,0,1,123,152.45Z" />
    <path d="M95.67,146.6l-1.13-1.95a22,22,0,0,0-6.67,6.67l1.95,1.13A19.77,19.77,0,0,1,95.67,146.6Z" />
    <path d="M126.11,162.18h2.26a21.88,21.88,0,0,0-2.44-9.12l-2,1.12A19.6,19.6,0,0,1,126.11,162.18Z" />
    <path d="M105.4,143.46V141.2a22,22,0,0,0-9.13,2.45l1.13,1.95A19.45,19.45,0,0,1,105.4,143.46Z" />
    <path d="M89.82,173.9,87.87,175a22,22,0,0,0,6.67,6.68l1.13-2A19.81,19.81,0,0,1,89.82,173.9Z" />
    <path d="M117.12,179.76l1.13,2a22.17,22.17,0,0,0,6.68-6.68l-2-1.13A20,20,0,0,1,117.12,179.76Z" />
    <path d="M126.11,164.18a19.6,19.6,0,0,1-2.13,8l2,1.13a21.88,21.88,0,0,0,2.44-9.12Z" />
    <path d="M86.68,164.18H84.42a22,22,0,0,0,2.44,9.12l2-1.13A19.45,19.45,0,0,1,86.68,164.18Z" />
    <path d="M88.82,154.18l-2-1.12a22,22,0,0,0-2.44,9.12h2.26A19.45,19.45,0,0,1,88.82,154.18Z" />
    <g>
      <path d="M69.63,185.46H68.2v-2.11H66v2.11H64.6V180H66v2H68.2v-2h1.43Z" />
      <path d="M74.21,183.47a2.46,2.46,0,0,1-.23,1.06,1.77,1.77,0,0,1-.68.73,2.38,2.38,0,0,1-2.2,0,1.77,1.77,0,0,1-.68-.73,2.46,2.46,0,0,1-.23-1.06,2.61,2.61,0,0,1,.13-.82,1.86,1.86,0,0,1,.38-.65,1.79,1.79,0,0,1,.63-.44,2.33,2.33,0,0,1,.87-.15,2.14,2.14,0,0,1,.87.16,1.51,1.51,0,0,1,.63.43,1.83,1.83,0,0,1,.38.65A2.61,2.61,0,0,1,74.21,183.47Zm-1.31,0a1.28,1.28,0,0,0-.18-.74.64.64,0,0,0-1,0,1.28,1.28,0,0,0-.18.74,1.33,1.33,0,0,0,.18.74.64.64,0,0,0,1,0A1.33,1.33,0,0,0,72.9,183.47Z" />
      <path d="M75.87,185.46H74.63V180h1.24Z" />
      <path d="M80.14,185.46H78.9v-.36a2.33,2.33,0,0,1-.41.31,1.29,1.29,0,0,1-.61.12,1.38,1.38,0,0,1-.74-.22,1.54,1.54,0,0,1-.61-.67,2.41,2.41,0,0,1-.24-1.14,2.88,2.88,0,0,1,.18-1,1.75,1.75,0,0,1,.56-.77,1.49,1.49,0,0,1,.94-.3,1.4,1.4,0,0,1,.55.09,1.19,1.19,0,0,1,.38.22V180h1.24Zm-1.24-1.27v-1.52a2.58,2.58,0,0,0-.34-.19.61.61,0,0,0-.28-.06.57.57,0,0,0-.49.28,1.33,1.33,0,0,0-.19.77,1.13,1.13,0,0,0,.2.76.63.63,0,0,0,.48.24.64.64,0,0,0,.36-.08A1.21,1.21,0,0,0,78.9,184.19Z" />
    </g>
    <g>
      <path d="M77.74,6.38l-5.53,7v-6a1.29,1.29,0,0,0-.64-1.17.91.91,0,0,0-1.13.29l-7.28,9.25a1.49,1.49,0,0,0,0,1.79.9.9,0,0,0,1.46,0l5.5-7v6a1.29,1.29,0,0,0,.64,1.17.92.92,0,0,0,1.14-.29s3.49-4.45,5.53-7v6.15a1.05,1.05,0,1,0,2.06,0V7.26a1.26,1.26,0,0,0-.65-1.17A.9.9,0,0,0,77.74,6.38Z" style="stroke: #000;stroke-width: 0.6000000000000001px" />
      <path d="M63.16,6.31l-4.81,6.13a1.47,1.47,0,0,0,0,1.79.9.9,0,0,0,1.46,0l3.05-3.87v6.31a1.05,1.05,0,1,0,2.06,0V7.19A1.31,1.31,0,0,0,64.29,6,.91.91,0,0,0,63.16,6.31Z" style="stroke: #000;stroke-width: 0.6000000000000001px" />
      <path d="M86.11,10.83a1,1,0,0,0-1-.77h-2.1l1.53-2s.8-1.17.1-1.82a1.27,1.27,0,0,0-1.58.06l-3.23,4.1a1.47,1.47,0,0,0-.2,1.38,1.05,1.05,0,0,0,.95.77h2.1l-2.49,3.17s-1,1.13-.27,1.89,1.75-.13,1.75-.13L85.9,12.2A1.47,1.47,0,0,0,86.11,10.83Z" style="stroke: #000;stroke-width: 0.6000000000000001px" />
    </g>
    <path d="M12.61,336.12a5.66,5.66,0,0,0,5.64,5.65H126a5.66,5.66,0,0,0,5.65-5.65V290.9h-119Z" style="fill: none;stroke: #000;stroke-miterlimit: 10" />
    <path d="M131.66,291.83v-62a14.26,14.26,0,0,0-14.22-14.22H26.83a14.25,14.25,0,0,0-14.22,14.22v62" style="fill: #ededed;stroke: #000;stroke-miterlimit: 10" />
    <g>
      <path d="M114.33,334.39a3.12,3.12,0,0,1-.31,1.4,2.4,2.4,0,0,1-.91,1,2.78,2.78,0,0,1-1.48.37,2.75,2.75,0,0,1-1.5-.39,2.42,2.42,0,0,1-.91-1,3.19,3.19,0,0,1-.3-1.37,3.14,3.14,0,0,1,.3-1.36,2.38,2.38,0,0,1,.91-1,2.75,2.75,0,0,1,1.5-.39,2.87,2.87,0,0,1,1.17.23,2.33,2.33,0,0,1,.85.6,2.38,2.38,0,0,1,.51.89A3.41,3.41,0,0,1,114.33,334.39Zm-1.46,0a1.87,1.87,0,0,0-.08-.55,1.11,1.11,0,0,0-.24-.44,1.14,1.14,0,0,0-.92-.39,1.12,1.12,0,0,0-.91.38,1.47,1.47,0,0,0-.33,1,1.5,1.5,0,0,0,.33,1,1.15,1.15,0,0,0,.91.38,1.31,1.31,0,0,0,.67-.17,1.08,1.08,0,0,0,.42-.5A1.66,1.66,0,0,0,112.87,334.39Z" style="fill: #fff" />
      <path d="M118.43,337.1h-1.24v-.56a2.18,2.18,0,0,1-.55.48,1.47,1.47,0,0,1-.69.15,1,1,0,0,1-1-.52,3,3,0,0,1-.23-1.19v-2.33h1.24v2.15a1.6,1.6,0,0,0,.09.56.39.39,0,0,0,.41.25.52.52,0,0,0,.43-.18,2.5,2.5,0,0,0,.33-.45v-2.33h1.24Z" style="fill: #fff" />
      <path d="M121.7,336.87a3.23,3.23,0,0,1-.53.21,2.54,2.54,0,0,1-.65.09c-.89,0-1.34-.49-1.34-1.48V334.1h-.56v-.24l1.66-1.92h.14v1.19h1.19v1h-1.19v1.28a1.73,1.73,0,0,0,0,.36.34.34,0,0,0,.13.22.49.49,0,0,0,.34.1,1.76,1.76,0,0,0,.78-.28Z" style="fill: #fff" />
    </g>
    <g>
      <path d="M69.63,337.1H68.2V335H66v2.11H64.6v-5.41H66v2H68.2v-2h1.43Z" />
      <path d="M74.21,335.11a2.39,2.39,0,0,1-.23,1.06,1.71,1.71,0,0,1-.68.73,2.38,2.38,0,0,1-2.2,0,1.71,1.71,0,0,1-.68-.73,2.39,2.39,0,0,1-.23-1.06,2.66,2.66,0,0,1,.13-.82,1.86,1.86,0,0,1,.38-.65,1.76,1.76,0,0,1,.63-.43,2.6,2.6,0,0,1,1.74,0,1.6,1.6,0,0,1,.63.43,1.92,1.92,0,0,1,.38.65A2.66,2.66,0,0,1,74.21,335.11Zm-1.31,0a1.33,1.33,0,0,0-.18-.74.64.64,0,0,0-1,0,1.61,1.61,0,0,0,0,1.48.57.57,0,0,0,.52.28.58.58,0,0,0,.52-.27A1.36,1.36,0,0,0,72.9,335.11Z" />
      <path d="M75.87,337.1H74.63v-5.41h1.24Z" />
      <path d="M80.14,337.1H78.9v-.36a1.92,1.92,0,0,1-.41.31,1.29,1.29,0,0,1-.61.12,1.46,1.46,0,0,1-.74-.21,1.6,1.6,0,0,1-.61-.67,2.45,2.45,0,0,1-.24-1.15,2.88,2.88,0,0,1,.18-1,1.81,1.81,0,0,1,.56-.77,1.55,1.55,0,0,1,.94-.29,1.64,1.64,0,0,1,.55.08,1.4,1.4,0,0,1,.38.22v-1.67h1.24Zm-1.24-1.26v-1.52a2.88,2.88,0,0,0-.34-.2.61.61,0,0,0-.28-.06.58.58,0,0,0-.49.29,1.3,1.3,0,0,0-.19.76,1.16,1.16,0,0,0,.2.77.63.63,0,0,0,.48.24.74.74,0,0,0,.36-.08A1.21,1.21,0,0,0,78.9,335.84Z" />
    </g>
    <g>
      <path d="M29.77,337.1H28.33V334L27,335.78h-.11L25.62,334v3.13h-1.4v-5.41h1.31l1.46,2,1.47-2h1.31Z" />
      <path d="M31.79,337.1H30.55v-4h1.24Zm-.1-4.89a.6.6,0,0,1-.16.42.48.48,0,0,1-.36.17.5.5,0,0,1-.27-.08.55.55,0,0,1-.19-.21.73.73,0,0,1-.06-.3.64.64,0,0,1,.15-.42.46.46,0,0,1,.37-.18.45.45,0,0,1,.36.18A.6.6,0,0,1,31.69,332.21Z" />
      <path d="M36.26,337.1H34.73L34.05,336l-.67,1.13H32l1.36-2-1.38-2h1.52l.65,1.08.65-1.08h1.35L34.85,335Z" />
    </g>
    <g>
      <path d="M25.35,291.44a2.61,2.61,0,0,1-.89,2.15,2,2,0,0,1-1.43.46H20.46v-5.42h2a4.18,4.18,0,0,1,.76.06,3,3,0,0,1,.57.14,2.57,2.57,0,0,1,.44.22,2,2,0,0,1,.32.26,2.45,2.45,0,0,1,.42.53,2.78,2.78,0,0,1,.3.72A3.49,3.49,0,0,1,25.35,291.44Zm-1.46-.07a2,2,0,0,0-.22-1,1.15,1.15,0,0,0-.53-.5,1.77,1.77,0,0,0-.64-.12h-.61v3.21h.61a1.61,1.61,0,0,0,1-.31A1.47,1.47,0,0,0,23.89,291.37Z" />
      <path d="M29.39,293.85a4.67,4.67,0,0,1-.51.19,1.73,1.73,0,0,1-.55.08.54.54,0,0,1-.42-.13.68.68,0,0,1-.18-.29,1.9,1.9,0,0,1-.44.3,1.46,1.46,0,0,1-.64.12A1.16,1.16,0,0,1,26,294a.92.92,0,0,1-.33-.38,1.27,1.27,0,0,1-.09-.47,1,1,0,0,1,.16-.61,1.28,1.28,0,0,1,.44-.39,5.37,5.37,0,0,1,.73-.32l.39-.14.2-.08a.42.42,0,0,0,.13-.07.83.83,0,0,0-.1-.45c-.07-.11-.22-.16-.45-.16a1.41,1.41,0,0,0-.75.2,2.57,2.57,0,0,0-.63.52v-1.08a2.48,2.48,0,0,1,.49-.3,2.81,2.81,0,0,1,.56-.18,3.05,3.05,0,0,1,.6-.06,1.72,1.72,0,0,1,1.14.33,1.18,1.18,0,0,1,.38.92v1.54a1,1,0,0,0,0,.33.13.13,0,0,0,.13.1.67.67,0,0,0,.32-.11Zm-1.73-.76v-.94a3.15,3.15,0,0,0-.64.36.56.56,0,0,0-.2.44.4.4,0,0,0,.1.3.34.34,0,0,0,.24.11.52.52,0,0,0,.25-.08A2.07,2.07,0,0,0,27.66,293.09Z" />
      <path d="M35.73,294.05H34.49v-2.12a1.3,1.3,0,0,0-.12-.63.41.41,0,0,0-.39-.21.57.57,0,0,0-.42.17,2.92,2.92,0,0,0-.33.45v2.34H32v-2.12a1.43,1.43,0,0,0-.11-.62.41.41,0,0,0-.4-.22.58.58,0,0,0-.26.06.86.86,0,0,0-.18.14,1.86,1.86,0,0,0-.18.23l-.13.19v2.34H29.49v-4h1.24v.57a2.07,2.07,0,0,1,.57-.49A1.4,1.4,0,0,1,32,290a1.34,1.34,0,0,1,.35,0,1.32,1.32,0,0,1,.31.12,1.37,1.37,0,0,1,.29.25,1.58,1.58,0,0,1,.2.36,2.49,2.49,0,0,1,.62-.57,1.39,1.39,0,0,1,.74-.2,1.28,1.28,0,0,1,.7.19,1.12,1.12,0,0,1,.42.55,2.58,2.58,0,0,1,.14.88Z" />
      <path d="M40,292a3.25,3.25,0,0,1-.1.77,2.16,2.16,0,0,1-.31.67,1.38,1.38,0,0,1-.52.47,1.73,1.73,0,0,1-1.29.1,2.65,2.65,0,0,1-.4-.22v2H36.18v-5.79h1.23v.36a2.45,2.45,0,0,1,.41-.31,1.32,1.32,0,0,1,.61-.12,1.39,1.39,0,0,1,.75.22,1.54,1.54,0,0,1,.61.67A2.41,2.41,0,0,1,40,292Zm-1.31,0a1.37,1.37,0,0,0-.1-.58.72.72,0,0,0-.25-.33.68.68,0,0,0-.33-.09.64.64,0,0,0-.36.08,1.26,1.26,0,0,0-.27.2v1.52l.14.08a1.19,1.19,0,0,0,.15.09l.16.06.18,0a.58.58,0,0,0,.49-.28A1.33,1.33,0,0,0,38.72,292.06Z" />
    </g>
    <g>
      <path d="M68.4,294.05H66.85l-.37-1a4,4,0,0,0-.37-.77.87.87,0,0,0-.32-.32,1.16,1.16,0,0,0-.41-.07h-.16v2.12H63.78v-5.42h2.45a1.64,1.64,0,0,1,1,.28,1.55,1.55,0,0,1,.54.66,1.93,1.93,0,0,1,.17.74,1.62,1.62,0,0,1-.14.7,1.27,1.27,0,0,1-.29.41,3.07,3.07,0,0,1-.35.24,1.67,1.67,0,0,1,.38.37,5.43,5.43,0,0,1,.41.84Zm-2-3.71a.6.6,0,0,0-.22-.52,1.29,1.29,0,0,0-.71-.15h-.3V291h.31a1.47,1.47,0,0,0,.72-.13A.58.58,0,0,0,66.45,290.34Z" />
      <path d="M72.2,293.85a4.67,4.67,0,0,1-.51.19,1.73,1.73,0,0,1-.55.08.54.54,0,0,1-.42-.13.68.68,0,0,1-.18-.29,1.9,1.9,0,0,1-.44.3,1.46,1.46,0,0,1-.64.12,1.16,1.16,0,0,1-.62-.15.92.92,0,0,1-.33-.38,1.27,1.27,0,0,1-.09-.47,1,1,0,0,1,.16-.61,1.28,1.28,0,0,1,.44-.39,5.37,5.37,0,0,1,.73-.32l.39-.14.2-.08a.42.42,0,0,0,.13-.07.83.83,0,0,0-.1-.45c-.07-.11-.22-.16-.45-.16a1.41,1.41,0,0,0-.75.2,2.57,2.57,0,0,0-.63.52v-1.08a2.48,2.48,0,0,1,.49-.3,2.81,2.81,0,0,1,.56-.18,3.05,3.05,0,0,1,.6-.06,1.72,1.72,0,0,1,1.14.33,1.18,1.18,0,0,1,.38.92v1.54a1,1,0,0,0,0,.33.13.13,0,0,0,.13.1.67.67,0,0,0,.32-.11Zm-1.73-.76v-.94a3.15,3.15,0,0,0-.64.36.56.56,0,0,0-.2.44.4.4,0,0,0,.1.3.34.34,0,0,0,.24.11.52.52,0,0,0,.25-.08A2.07,2.07,0,0,0,70.47,293.09Z" />
      <path d="M75.06,293.82a2.19,2.19,0,0,1-.53.2,2.13,2.13,0,0,1-.64.1c-.9,0-1.34-.5-1.34-1.49v-1.58H72v-.25l1.66-1.92h.14v1.19H75v1H73.79v1.27a3.21,3.21,0,0,0,0,.36.37.37,0,0,0,.14.23.53.53,0,0,0,.34.09,1.65,1.65,0,0,0,.77-.28Z" />
      <path d="M76.63,294.05H75.39v-4h1.24Zm-.1-4.9a.57.57,0,0,1-.16.42.44.44,0,0,1-.36.17.43.43,0,0,1-.27-.08.46.46,0,0,1-.18-.21.6.6,0,0,1-.07-.3.64.64,0,0,1,.15-.42.48.48,0,0,1,.37-.17.48.48,0,0,1,.36.17A.6.6,0,0,1,76.53,289.15Z" />
      <path d="M81.06,292.06a2.38,2.38,0,0,1-.22,1.05,1.73,1.73,0,0,1-.68.74,2.11,2.11,0,0,1-1.1.27,2.15,2.15,0,0,1-1.11-.27,1.71,1.71,0,0,1-.67-.74,2.38,2.38,0,0,1-.23-1.05,2.35,2.35,0,0,1,.13-.82,1.77,1.77,0,0,1,.38-.65,1.67,1.67,0,0,1,.63-.44,2.6,2.6,0,0,1,1.74,0,1.79,1.79,0,0,1,.63.44,1.88,1.88,0,0,1,.38.64A2.73,2.73,0,0,1,81.06,292.06Zm-1.3,0a1.28,1.28,0,0,0-.18-.74.65.65,0,0,0-1,0,1.28,1.28,0,0,0-.18.74,1.25,1.25,0,0,0,.19.74.58.58,0,0,0,.52.27.59.59,0,0,0,.52-.27A1.33,1.33,0,0,0,79.76,292.06Z" />
    </g>
    <g>
      <path d="M110,293.64a3.23,3.23,0,0,1-.6.28,3.6,3.6,0,0,1-.63.15,4.62,4.62,0,0,1-.65.05,3.06,3.06,0,0,1-1.12-.2,2.45,2.45,0,0,1-.85-.57,2.53,2.53,0,0,1-.54-.89,3.37,3.37,0,0,1-.19-1.12,3.29,3.29,0,0,1,.22-1.23,2.35,2.35,0,0,1,.59-.87,2.51,2.51,0,0,1,.88-.51,2.93,2.93,0,0,1,1-.17A5.14,5.14,0,0,1,110,289v1.44a4.8,4.8,0,0,0-.7-.42,1.86,1.86,0,0,0-.81-.17,1.73,1.73,0,0,0-.78.19,1.58,1.58,0,0,0-.58.54,1.45,1.45,0,0,0-.22.81,1.49,1.49,0,0,0,.19.75,1.52,1.52,0,0,0,1.31.75,2.27,2.27,0,0,0,.65-.1,2.66,2.66,0,0,0,.53-.21,4.46,4.46,0,0,0,.43-.28Z" />
      <path d="M114.33,292.06a2.38,2.38,0,0,1-.23,1.05,1.73,1.73,0,0,1-.68.74,2.11,2.11,0,0,1-1.1.27,2.09,2.09,0,0,1-1.1-.27,1.67,1.67,0,0,1-.68-.74,2.38,2.38,0,0,1-.23-1.05,2.61,2.61,0,0,1,.13-.82,1.77,1.77,0,0,1,.38-.65,1.67,1.67,0,0,1,.63-.44,2.6,2.6,0,0,1,1.74,0,1.62,1.62,0,0,1,.63.44,1.88,1.88,0,0,1,.38.64A2.72,2.72,0,0,1,114.33,292.06Zm-1.31,0a1.28,1.28,0,0,0-.18-.74.64.64,0,0,0-1,0,1.28,1.28,0,0,0-.18.74,1.33,1.33,0,0,0,.18.74.64.64,0,0,0,1,0A1.33,1.33,0,0,0,113,292.06Z" />
      <path d="M120.92,294.05h-1.23v-2.12a1.29,1.29,0,0,0-.13-.63.41.41,0,0,0-.38-.21.58.58,0,0,0-.43.17,2.92,2.92,0,0,0-.33.45v2.34h-1.23v-2.12a1.28,1.28,0,0,0-.12-.62.4.4,0,0,0-.4-.22.51.51,0,0,0-.25.06.72.72,0,0,0-.19.14,1.24,1.24,0,0,0-.17.23l-.14.19v2.34h-1.23v-4h1.23v.57a2.07,2.07,0,0,1,.57-.49,1.44,1.44,0,0,1,.67-.15,1.27,1.27,0,0,1,.34,0,1.39,1.39,0,0,1,.32.12,1.32,1.32,0,0,1,.28.25,1.27,1.27,0,0,1,.2.36,2.49,2.49,0,0,1,.62-.57,1.41,1.41,0,0,1,.74-.2,1.32,1.32,0,0,1,.71.19,1.12,1.12,0,0,1,.42.55,2.59,2.59,0,0,1,.13.88Z" />
      <path d="M125.22,292.09a2.41,2.41,0,0,1-.24,1.14,1.59,1.59,0,0,1-.6.67,1.44,1.44,0,0,1-.75.22,1.68,1.68,0,0,1-.48-.07,1.11,1.11,0,0,1-.31-.16,2.05,2.05,0,0,1-.23-.2v.36h-1.24v-5.42h1.24v1.68a1.17,1.17,0,0,1,.37-.22,1.76,1.76,0,0,1,1.31.08,1.62,1.62,0,0,1,.53.48,2.34,2.34,0,0,1,.3.66A2.88,2.88,0,0,1,125.22,292.09Zm-1.3,0a1.21,1.21,0,0,0-.21-.78.58.58,0,0,0-.48-.27,1.08,1.08,0,0,0-.62.25v1.52a.8.8,0,0,0,.62.28.67.67,0,0,0,.46-.21A1.08,1.08,0,0,0,123.92,292.06Z" />
    </g>
    <g>
      <path d="M22.92,255.39H21.49V250h1.43Z" />
      <path d="M27.38,255.39H26.14v-2.15a1.7,1.7,0,0,0-.09-.57.4.4,0,0,0-.42-.24.53.53,0,0,0-.26.06.87.87,0,0,0-.21.17l-.15.19-.13.2v2.34H23.64v-4h1.24V252a1.9,1.9,0,0,1,.59-.5,1.51,1.51,0,0,1,.65-.14q1.26,0,1.26,1.71Z" />
      <path d="M31.68,253.37a2.76,2.76,0,0,1-.1.77,1.94,1.94,0,0,1-.3.67,1.53,1.53,0,0,1-.53.48,1.58,1.58,0,0,1-.74.17,1.64,1.64,0,0,1-.55-.08,2.56,2.56,0,0,1-.39-.22v2H27.83v-5.79h1.24v.36a1.73,1.73,0,0,1,.41-.3,1.18,1.18,0,0,1,.61-.13,1.39,1.39,0,0,1,.75.22,1.54,1.54,0,0,1,.61.67A2.54,2.54,0,0,1,31.68,253.37Zm-1.3,0a1.4,1.4,0,0,0-.1-.58.66.66,0,0,0-.26-.32.55.55,0,0,0-.32-.1.64.64,0,0,0-.36.08,1.05,1.05,0,0,0-.27.2v1.52l.14.09.15.08.16.06.18,0a.56.56,0,0,0,.48-.28A1.33,1.33,0,0,0,30.38,253.4Z" />
      <path d="M35.73,255.39H34.49v-.57a1.73,1.73,0,0,1-.55.48,1.35,1.35,0,0,1-.69.16,1,1,0,0,1-1-.53,2.8,2.8,0,0,1-.24-1.18v-2.34h1.24v2.15a1.42,1.42,0,0,0,.1.57.39.39,0,0,0,.41.24.54.54,0,0,0,.43-.17,3.8,3.8,0,0,0,.32-.45v-2.34h1.24Z" />
      <path d="M39,255.16a2.37,2.37,0,0,1-.53.2,2.14,2.14,0,0,1-.65.1c-.89,0-1.33-.49-1.33-1.48v-1.59h-.56v-.25l1.66-1.92h.14v1.19h1.18v1H37.73v1.27a1.84,1.84,0,0,0,0,.36.37.37,0,0,0,.14.23.51.51,0,0,0,.34.09,1.65,1.65,0,0,0,.77-.28Z" />
    </g>
    <g>
      <path d="M69.31,253.82a1.64,1.64,0,0,1-.23.87,1.42,1.42,0,0,1-.64.57,2.12,2.12,0,0,1-.93.2l-.37,0-.57-.12a4.69,4.69,0,0,1-.74-.29V253.7a4.88,4.88,0,0,0,.71.42,1.59,1.59,0,0,0,.75.17.6.6,0,0,0,.48-.14.43.43,0,0,0,.1-.26.47.47,0,0,0-.18-.37,3.11,3.11,0,0,0-.54-.31,4.48,4.48,0,0,1-.69-.4,1.73,1.73,0,0,1-.48-.56,1.5,1.5,0,0,1-.19-.78,1.59,1.59,0,0,1,.19-.79,1.39,1.39,0,0,1,.58-.57,2,2,0,0,1,1-.21,2.81,2.81,0,0,1,.73.09,2.39,2.39,0,0,1,.56.2,1.63,1.63,0,0,1,.3.17v1.27a3.86,3.86,0,0,0-.65-.43,1.68,1.68,0,0,0-.76-.19.54.54,0,0,0-.39.12.4.4,0,0,0-.12.29.38.38,0,0,0,.12.28,1.86,1.86,0,0,0,.43.28,9.18,9.18,0,0,1,.88.53,1.85,1.85,0,0,1,.51.54A1.42,1.42,0,0,1,69.31,253.82Z" />
      <path d="M71.11,255.39H69.86v-4h1.25Zm-.1-4.9a.61.61,0,0,1-.16.42.45.45,0,0,1-.37.17.48.48,0,0,1-.26-.07.67.67,0,0,1-.19-.22.73.73,0,0,1-.07-.3.56.56,0,0,1,.16-.41.45.45,0,0,1,.36-.18.46.46,0,0,1,.37.18A.6.6,0,0,1,71,250.49Z" />
      <path d="M75,251.54l-1.67,2.81H75v1H71.38v-.13l1.68-2.81H71.52v-1H75Z" />
      <path d="M78.87,253.74H76.4a1,1,0,0,0,.36.59,1,1,0,0,0,.64.24,3.12,3.12,0,0,0,1.38-.4V255a3.42,3.42,0,0,1-.66.29,3.06,3.06,0,0,1-1,.13,2.09,2.09,0,0,1-1.1-.27,1.7,1.7,0,0,1-.68-.75,2.53,2.53,0,0,1,0-2.11,1.58,1.58,0,0,1,.68-.72,2.09,2.09,0,0,1,1.1-.27,1.75,1.75,0,0,1,.82.21,1.65,1.65,0,0,1,.65.68,2.61,2.61,0,0,1,.26,1.23Zm-1.16-.69a1.06,1.06,0,0,0-.17-.62.55.55,0,0,0-.48-.22.6.6,0,0,0-.5.23.91.91,0,0,0-.19.61Z" />
    </g>
    <g>
      <path d="M111.5,251.29h-1.75v4.1h-1.43v-4.1h-1.75V250h4.93Z" />
      <path d="M113.15,255.39h-1.24v-4h1.24Zm-.09-4.9a.61.61,0,0,1-.16.42.46.46,0,0,1-.37.17.48.48,0,0,1-.26-.07.67.67,0,0,1-.19-.22.73.73,0,0,1-.07-.3.59.59,0,0,1,.15-.41.49.49,0,0,1,.37-.18.47.47,0,0,1,.37.18A.6.6,0,0,1,113.06,250.49Z" />
      <path d="M120,255.39h-1.24v-2.12a1.3,1.3,0,0,0-.12-.63.41.41,0,0,0-.38-.21.55.55,0,0,0-.43.18,2.8,2.8,0,0,0-.33.44v2.34h-1.23v-2.12a1.28,1.28,0,0,0-.12-.62.4.4,0,0,0-.4-.22.51.51,0,0,0-.25.06.72.72,0,0,0-.19.14,1.86,1.86,0,0,0-.18.23l-.13.19v2.34h-1.23v-4H115V252a2.26,2.26,0,0,1,.57-.49,1.41,1.41,0,0,1,.67-.15,1.86,1.86,0,0,1,.34,0,1.08,1.08,0,0,1,.32.13,1.23,1.23,0,0,1,.28.24,1.46,1.46,0,0,1,.2.37,2.37,2.37,0,0,1,.62-.58,1.41,1.41,0,0,1,.74-.2,1.32,1.32,0,0,1,.71.19,1.21,1.21,0,0,1,.42.56,2.49,2.49,0,0,1,.13.87Z" />
      <path d="M124,253.74h-2.46a1,1,0,0,0,.35.59,1,1,0,0,0,.64.24,3.05,3.05,0,0,0,1.38-.4V255a3.61,3.61,0,0,1-.65.29,3.08,3.08,0,0,1-1,.13,2.11,2.11,0,0,1-1.1-.27,1.76,1.76,0,0,1-.68-.75,2.64,2.64,0,0,1,0-2.11,1.63,1.63,0,0,1,.68-.72,2.11,2.11,0,0,1,1.1-.27,1.7,1.7,0,0,1,.82.21,1.61,1.61,0,0,1,.66.68,2.61,2.61,0,0,1,.25,1.23Zm-1.16-.69a1.06,1.06,0,0,0-.16-.62.58.58,0,0,0-.48-.22.59.59,0,0,0-.5.23.91.91,0,0,0-.2.61Z" />
    </g>
  </g>
  <g /></svg>