<svg xmlns="http://www.w3.org/2000/svg" xmlns:inkscape="http://www.inkscape.org/namespaces/inkscape" xmlns:sodipodi="http://sodipodi.sourceforge.net/DTD/sodipodi-0.dtd" width="50.79924mm" height="128.49739mm" viewBox="0 0 143.99785 364.25001" version="1.1" id="svg87" sodipodi:docname="Verb_info.svg" inkscape:version="1.3.2 (091e20e, 2023-11-25)">
  <defs id="defs87" />
  <sodipodi:namedview id="namedview87" pagecolor="#ffffff" bordercolor="#000000" borderopacity="0.25" inkscape:showpageshadow="2" inkscape:pageopacity="0.0" inkscape:pagecheckerboard="0" inkscape:deskcolor="#d1d1d1" inkscape:document-units="mm" showgrid="false" inkscape:zoom="2.4669018" inkscape:cx="95.86924" inkscape:cy="246.46299" inkscape:window-width="2512" inkscape:window-height="1387" inkscape:window-x="50" inkscape:window-y="25" inkscape:window-maximized="1" inkscape:current-layer="components" />
  <g id="faceplate" transform="translate(-0.00107636)">
    <g id="g1">
      <rect x="0.13" y="0.13" width="143.75" height="364" style="fill:#ededed;stroke-width:0px" id="rect1" />
      <path d="M 143.75,0.25 V 364 H 0.25 V 0.25 h 143.5 M 144,0 H 0 v 364.25 h 144 z" style="fill:#9d9d9e;stroke-width:0px" id="path1" />
    </g>
    <text transform="matrix(0.82,0,0,1,58.93,357.48)" style="font-weight:700;font-size:11px;font-family:GillSans-Bold, 'Gill Sans';fill:#000000" id="text1"><tspan x="0" y="0" id="tspan1">VERB</tspan></text>
    <path d="m 125.99,45.65 h 2.26 c -0.15,-3.28 -1.01,-6.37 -2.44,-9.12 l -1.95,1.13 c 1.24,2.42 1.99,5.13 2.14,8 z" style="fill:#000000;stroke-width:0px" id="path2" />
    <path d="m 125.99,47.65 c -0.14,2.87 -0.89,5.57 -2.14,8 l 1.95,1.13 c 1.43,-2.75 2.3,-5.84 2.44,-9.12 h -2.26 z" style="fill:#000000;stroke-width:0px" id="path3" />
    <text transform="matrix(0.88,0,0,1,29.05,74)" style="font-weight:700;font-size:10px;font-family:GillSans-Bold, 'Gill Sans';letter-spacing:-0.04em;fill:#000000" id="text3"><tspan x="0" y="0" id="tspan3">Size</tspan></text>
    <g id="g13">
      <path d="m 46.72,29.07 1.13,-1.95 c -2.75,-1.43 -5.84,-2.3 -9.12,-2.44 v 2.26 c 2.87,0.14 5.57,0.89 7.99,2.14 z" style="fill:#000000;stroke-width:0px" id="path4" />
      <path d="m 54.31,35.93 1.95,-1.13 c -1.72,-2.68 -4,-4.96 -6.68,-6.68 l -1.13,1.95 c 2.34,1.52 4.33,3.51 5.85,5.85 z" style="fill:#000000;stroke-width:0px" id="path5" />
      <path d="m 27,30.07 -1.13,-1.95 c -2.68,1.72 -4.96,4 -6.68,6.68 l 1.95,1.13 c 1.52,-2.34 3.51,-4.33 5.85,-5.85 z" style="fill:#000000;stroke-width:0px" id="path6" />
      <path d="m 57.45,45.65 h 2.26 C 59.56,42.37 58.7,39.28 57.27,36.53 l -1.95,1.13 c 1.24,2.42 1.99,5.13 2.14,8 z" style="fill:#000000;stroke-width:0px" id="path7" />
      <path d="m 36.73,26.94 v -2.26 c -3.28,0.15 -6.37,1.01 -9.12,2.44 l 1.13,1.95 c 2.42,-1.24 5.13,-1.99 8,-2.14 z" style="fill:#000000;stroke-width:0px" id="path8" />
      <path d="m 21.15,57.38 -1.95,1.13 c 1.72,2.68 4,4.96 6.68,6.68 l 1.13,-1.95 c -2.34,-1.52 -4.33,-3.51 -5.85,-5.85 z" style="fill:#000000;stroke-width:0px" id="path9" />
      <path d="m 48.46,63.23 1.13,1.95 c 2.68,-1.72 4.96,-4 6.68,-6.68 l -1.95,-1.13 c -1.52,2.34 -3.51,4.33 -5.85,5.85 z" style="fill:#000000;stroke-width:0px" id="path10" />
      <path d="m 57.45,47.65 c -0.14,2.87 -0.89,5.57 -2.14,8 l 1.95,1.13 c 1.43,-2.75 2.3,-5.84 2.44,-9.12 h -2.26 z" style="fill:#000000;stroke-width:0px" id="path11" />
      <path d="m 18.01,47.65 h -2.26 c 0.15,3.28 1.01,6.37 2.44,9.12 l 1.95,-1.13 C 18.9,53.22 18.15,50.51 18,47.64 Z" style="fill:#000000;stroke-width:0px" id="path12" />
      <path d="M 20.15,37.66 18.2,36.53 c -1.43,2.75 -2.3,5.84 -2.44,9.12 h 2.26 c 0.14,-2.87 0.89,-5.57 2.14,-8 z" style="fill:#000000;stroke-width:0px" id="path13" />
    </g>
    <text transform="matrix(0.88,0,0,1,94.98,74)" style="font-weight:700;font-size:10px;font-family:GillSans-Bold, 'Gill Sans';letter-spacing:-0.04em;fill:#000000" id="text13"><tspan x="0" y="0" id="tspan13">Time</tspan></text>
    <path d="m 115.27,29.07 1.13,-1.95 c -2.75,-1.43 -5.84,-2.3 -9.12,-2.44 v 2.26 c 2.87,0.14 5.57,0.89 7.99,2.14 z" style="fill:#000000;stroke-width:0px" id="path14" />
    <path d="m 122.85,35.93 1.95,-1.13 c -1.72,-2.68 -4,-4.96 -6.68,-6.68 l -1.13,1.95 c 2.34,1.52 4.33,3.51 5.85,5.85 z" style="fill:#000000;stroke-width:0px" id="path15" />
    <path d="m 95.54,30.07 -1.13,-1.95 c -2.68,1.72 -4.96,4 -6.68,6.68 l 1.95,1.13 c 1.52,-2.34 3.51,-4.33 5.85,-5.85 z" style="fill:#000000;stroke-width:0px" id="path16" />
    <path d="m 105.27,26.94 v -2.26 c -3.28,0.15 -6.37,1.01 -9.12,2.44 l 1.13,1.95 c 2.42,-1.24 5.13,-1.99 8,-2.14 z" style="fill:#000000;stroke-width:0px" id="path17" />
    <path d="m 89.69,57.38 -1.95,1.13 c 1.72,2.68 4,4.96 6.68,6.68 l 1.13,-1.95 C 93.21,61.72 91.22,59.73 89.7,57.39 Z" style="fill:#000000;stroke-width:0px" id="path18" />
    <path d="m 117,63.23 1.13,1.95 c 2.68,-1.72 4.96,-4 6.68,-6.68 l -1.95,-1.13 c -1.52,2.34 -3.51,4.33 -5.85,5.85 z" style="fill:#000000;stroke-width:0px" id="path19" />
    <path d="m 86.55,47.65 h -2.26 c 0.15,3.28 1.01,6.37 2.44,9.12 l 1.95,-1.13 c -1.24,-2.42 -1.99,-5.13 -2.14,-8 z" style="fill:#000000;stroke-width:0px" id="path20" />
    <path d="m 88.69,37.66 -1.95,-1.13 c -1.43,2.75 -2.3,5.84 -2.44,9.12 h 2.26 c 0.14,-2.87 0.89,-5.57 2.14,-8 z" style="fill:#000000;stroke-width:0px" id="path21" />
    <text transform="matrix(0.88,0,0,1,24.86,131.94)" style="font-weight:700;font-size:10px;font-family:GillSans-Bold, 'Gill Sans';letter-spacing:-0.04em;fill:#000000" id="text21"><tspan x="0" y="0" id="tspan21">Damp</tspan></text>
    <path d="m 46.72,87.01 1.13,-1.95 c -2.75,-1.43 -5.84,-2.3 -9.12,-2.44 v 2.26 c 2.87,0.14 5.57,0.89 7.99,2.14 z" style="fill:#000000;stroke-width:0px" id="path22" />
    <path d="m 54.31,93.86 1.95,-1.13 c -1.72,-2.68 -4,-4.96 -6.68,-6.68 L 48.45,88 c 2.34,1.52 4.33,3.51 5.85,5.85 z" style="fill:#000000;stroke-width:0px" id="path23" />
    <path d="m 27,88.01 -1.13,-1.95 c -2.68,1.72 -4.96,4 -6.68,6.68 l 1.95,1.13 c 1.52,-2.34 3.51,-4.33 5.85,-5.85 z" style="fill:#000000;stroke-width:0px" id="path24" />
    <path d="m 57.45,103.59 h 2.26 c -0.15,-3.28 -1.01,-6.37 -2.44,-9.12 l -1.95,1.13 c 1.24,2.42 1.99,5.13 2.14,8 z" style="fill:#000000;stroke-width:0px" id="path25" />
    <path d="m 36.73,84.88 v -2.26 c -3.28,0.15 -6.37,1.01 -9.12,2.44 l 1.13,1.95 c 2.42,-1.24 5.13,-1.99 8,-2.14 z" style="fill:#000000;stroke-width:0px" id="path26" />
    <path d="m 21.15,115.32 -1.95,1.13 c 1.72,2.68 4,4.96 6.68,6.68 l 1.13,-1.95 c -2.34,-1.52 -4.33,-3.51 -5.85,-5.85 z" style="fill:#000000;stroke-width:0px" id="path27" />
    <path d="m 48.46,121.17 1.13,1.95 c 2.68,-1.72 4.96,-4 6.68,-6.68 l -1.95,-1.13 c -1.52,2.34 -3.51,4.33 -5.85,5.85 z" style="fill:#000000;stroke-width:0px" id="path28" />
    <path d="m 57.45,105.59 c -0.14,2.87 -0.89,5.57 -2.14,8 l 1.95,1.13 c 1.43,-2.75 2.3,-5.84 2.44,-9.12 h -2.26 z" style="fill:#000000;stroke-width:0px" id="path29" />
    <path d="m 18.01,105.59 h -2.26 c 0.15,3.28 1.01,6.37 2.44,9.12 l 1.95,-1.13 c -1.24,-2.42 -1.99,-5.13 -2.14,-8 z" style="fill:#000000;stroke-width:0px" id="path30" />
    <path d="M 20.15,95.6 18.2,94.47 c -1.43,2.75 -2.3,5.84 -2.44,9.12 h 2.26 c 0.14,-2.87 0.89,-5.57 2.14,-8 z" style="fill:#000000;stroke-width:0px" id="path31" />
    <text transform="matrix(0.88,0,0,1,87.31,131.94)" style="font-weight:700;font-size:10px;font-family:GillSans-Bold, 'Gill Sans';letter-spacing:-0.04em;fill:#000000" id="text31"><tspan x="0" y="0" id="tspan31">AP Ratio</tspan></text>
    <path d="m 115.27,87.01 1.13,-1.95 c -2.75,-1.43 -5.84,-2.3 -9.12,-2.44 v 2.26 c 2.87,0.14 5.57,0.89 7.99,2.14 z" style="fill:#000000;stroke-width:0px" id="path32" />
    <path d="m 122.85,93.86 1.95,-1.13 c -1.72,-2.68 -4,-4.96 -6.68,-6.68 L 116.99,88 c 2.34,1.52 4.33,3.51 5.85,5.85 z" style="fill:#000000;stroke-width:0px" id="path33" />
    <path d="m 95.54,88.01 -1.13,-1.95 c -2.68,1.72 -4.96,4 -6.68,6.68 l 1.95,1.13 c 1.52,-2.34 3.51,-4.33 5.85,-5.85 z" style="fill:#000000;stroke-width:0px" id="path34" />
    <path d="m 125.99,103.59 h 2.26 c -0.15,-3.28 -1.01,-6.37 -2.44,-9.12 l -1.95,1.13 c 1.24,2.42 1.99,5.13 2.14,8 z" style="fill:#000000;stroke-width:0px" id="path35" />
    <path d="m 105.27,84.88 v -2.26 c -3.28,0.15 -6.37,1.01 -9.12,2.44 l 1.13,1.95 c 2.42,-1.24 5.13,-1.99 8,-2.14 z" style="fill:#000000;stroke-width:0px" id="path36" />
    <path d="m 89.69,115.32 -1.95,1.13 c 1.72,2.68 4,4.96 6.68,6.68 l 1.13,-1.95 c -2.34,-1.52 -4.33,-3.51 -5.85,-5.85 z" style="fill:#000000;stroke-width:0px" id="path37" />
    <path d="m 117,121.17 1.13,1.95 c 2.68,-1.72 4.96,-4 6.68,-6.68 l -1.95,-1.13 c -1.52,2.34 -3.51,4.33 -5.85,5.85 z" style="fill:#000000;stroke-width:0px" id="path38" />
    <path d="m 125.99,105.59 c -0.14,2.87 -0.89,5.57 -2.14,8 l 1.95,1.13 c 1.43,-2.75 2.3,-5.84 2.44,-9.12 h -2.26 z" style="fill:#000000;stroke-width:0px" id="path39" />
    <path d="m 86.55,105.59 h -2.26 c 0.15,3.28 1.01,6.37 2.44,9.12 l 1.95,-1.13 c -1.24,-2.42 -1.99,-5.13 -2.14,-8 z" style="fill:#000000;stroke-width:0px" id="path40" />
    <path d="m 88.69,95.6 -1.95,-1.13 c -1.43,2.75 -2.3,5.84 -2.44,9.12 h 2.26 c 0.14,-2.87 0.89,-5.57 2.14,-8 z" style="fill:#000000;stroke-width:0px" id="path41" />
    <text transform="matrix(0.88,0,0,1,24.9,190.4)" style="font-weight:700;font-size:10px;font-family:GillSans-Bold, 'Gill Sans';letter-spacing:-0.04em;fill:#000000" id="text41"><tspan x="0" y="0" id="tspan41">Comb</tspan></text>
    <path d="m 46.72,145.47 1.13,-1.95 c -2.75,-1.43 -5.84,-2.3 -9.12,-2.44 v 2.26 c 2.87,0.14 5.57,0.89 7.99,2.14 z" style="fill:#000000;stroke-width:0px" id="path42" />
    <path d="m 54.31,152.32 1.95,-1.13 c -1.72,-2.68 -4,-4.96 -6.68,-6.68 l -1.13,1.95 c 2.34,1.52 4.33,3.51 5.85,5.85 z" style="fill:#000000;stroke-width:0px" id="path43" />
    <path d="m 27,146.47 -1.13,-1.95 c -2.68,1.72 -4.96,4 -6.68,6.68 l 1.95,1.13 c 1.52,-2.34 3.51,-4.33 5.85,-5.85 z" style="fill:#000000;stroke-width:0px" id="path44" />
    <path d="m 57.45,162.05 h 2.26 c -0.15,-3.28 -1.01,-6.37 -2.44,-9.12 l -1.95,1.13 c 1.24,2.42 1.99,5.13 2.14,8 z" style="fill:#000000;stroke-width:0px" id="path45" />
    <path d="m 36.73,143.33 v -2.26 c -3.28,0.15 -6.37,1.01 -9.12,2.44 l 1.13,1.95 c 2.42,-1.24 5.13,-1.99 8,-2.14 z" style="fill:#000000;stroke-width:0px" id="path46" />
    <path d="m 21.15,173.78 -1.95,1.13 c 1.72,2.68 4,4.96 6.68,6.68 l 1.13,-1.95 c -2.34,-1.52 -4.33,-3.51 -5.85,-5.85 z" style="fill:#000000;stroke-width:0px" id="path47" />
    <path d="m 48.46,179.63 1.13,1.95 c 2.68,-1.72 4.96,-4 6.68,-6.68 l -1.95,-1.13 c -1.52,2.34 -3.51,4.33 -5.85,5.85 z" style="fill:#000000;stroke-width:0px" id="path48" />
    <path d="m 57.45,164.05 c -0.14,2.87 -0.89,5.57 -2.14,8 l 1.95,1.13 c 1.43,-2.75 2.3,-5.84 2.44,-9.12 h -2.26 z" style="fill:#000000;stroke-width:0px" id="path49" />
    <path d="m 18.01,164.05 h -2.26 c 0.15,3.28 1.01,6.37 2.44,9.12 l 1.95,-1.13 c -1.24,-2.42 -1.99,-5.13 -2.14,-8 z" style="fill:#000000;stroke-width:0px" id="path50" />
    <path d="m 20.15,154.06 -1.95,-1.13 c -1.43,2.75 -2.3,5.84 -2.44,9.12 h 2.26 c 0.14,-2.87 0.89,-5.57 2.14,-8 z" style="fill:#000000;stroke-width:0px" id="path51" />
    <text transform="matrix(0.88,0,0,1,98.24,190.4)" style="font-weight:700;font-size:10px;font-family:GillSans-Bold, 'Gill Sans';letter-spacing:-0.04em;fill:#000000" id="text51"><tspan x="0" y="0" id="tspan51">Mix</tspan></text>
    <path d="m 115.27,145.47 1.13,-1.95 c -2.75,-1.43 -5.84,-2.3 -9.12,-2.44 v 2.26 c 2.87,0.14 5.57,0.89 7.99,2.14 z" style="fill:#000000;stroke-width:0px" id="path52" />
    <path d="m 122.85,152.32 1.95,-1.13 c -1.72,-2.68 -4,-4.96 -6.68,-6.68 l -1.13,1.95 c 2.34,1.52 4.33,3.51 5.85,5.85 z" style="fill:#000000;stroke-width:0px" id="path53" />
    <path d="m 95.54,146.47 -1.13,-1.95 c -2.68,1.72 -4.96,4 -6.68,6.68 l 1.95,1.13 c 1.52,-2.34 3.51,-4.33 5.85,-5.85 z" style="fill:#000000;stroke-width:0px" id="path54" />
    <path d="m 125.99,162.05 h 2.26 c -0.15,-3.28 -1.01,-6.37 -2.44,-9.12 l -1.95,1.13 c 1.24,2.42 1.99,5.13 2.14,8 z" style="fill:#000000;stroke-width:0px" id="path55" />
    <path d="m 105.27,143.33 v -2.26 c -3.28,0.15 -6.37,1.01 -9.12,2.44 l 1.13,1.95 c 2.42,-1.24 5.13,-1.99 8,-2.14 z" style="fill:#000000;stroke-width:0px" id="path56" />
    <path d="m 89.69,173.78 -1.95,1.13 c 1.72,2.68 4,4.96 6.68,6.68 l 1.13,-1.95 c -2.34,-1.52 -4.33,-3.51 -5.85,-5.85 z" style="fill:#000000;stroke-width:0px" id="path57" />
    <path d="m 117,179.63 1.13,1.95 c 2.68,-1.72 4.96,-4 6.68,-6.68 l -1.95,-1.13 c -1.52,2.34 -3.51,4.33 -5.85,5.85 z" style="fill:#000000;stroke-width:0px" id="path58" />
    <path d="m 125.99,164.05 c -0.14,2.87 -0.89,5.57 -2.14,8 l 1.95,1.13 c 1.43,-2.75 2.3,-5.84 2.44,-9.12 h -2.26 z" style="fill:#000000;stroke-width:0px" id="path59" />
    <path d="m 86.55,164.05 h -2.26 c 0.15,3.28 1.01,6.37 2.44,9.12 l 1.95,-1.13 c -1.24,-2.42 -1.99,-5.13 -2.14,-8 z" style="fill:#000000;stroke-width:0px" id="path60" />
    <path d="m 88.69,154.06 -1.95,-1.13 c -1.43,2.75 -2.3,5.84 -2.44,9.12 h 2.26 c 0.14,-2.87 0.89,-5.57 2.14,-8 z" style="fill:#000000;stroke-width:0px" id="path61" />
    <path d="m 12.48,336 c 0,3.11 2.54,5.65 5.65,5.65 h 107.76 c 3.11,0 5.65,-2.54 5.65,-5.65 V 290.78 H 12.48 Z" style="fill:none;stroke:#000000;stroke-miterlimit:10" id="path62" />
    <g id="g64">
      <path d="M 131.64,318.51 V 296.99 H 110.1 c -7.49,0 -13.57,6.52 -13.57,14.57 v 30.53 h 15.07 c 0,0 0,0 0,0 h 14.39 c 3.12,0 5.64,-2.36 5.64,-5.25 v -18.39 0.08 z" style="fill:#000000;stroke-width:0px" id="path63" />
      <path d="M 131.54,291.71 V 229.7 c 0,-7.82 -6.4,-14.22 -14.22,-14.22 H 26.7 c -7.82,0 -14.22,6.4 -14.22,14.22 v 62.01" style="fill:#ededed;stroke:#000000;stroke-miterlimit:10" id="path64" />
    </g>
    <text transform="matrix(0.88,0,0,1,108.51,336.98)" style="font-weight:700;font-size:8px;font-family:GillSans-Bold, 'Gill Sans';letter-spacing:-0.04em;fill:#ffffff" id="text64"><tspan x="0" y="0" id="tspan64">Out</tspan></text>
    <text transform="matrix(0.88,0,0,1,23.5,336.98)" style="font-weight:700;font-size:8px;font-family:GillSans-Bold, 'Gill Sans';letter-spacing:-0.04em;fill:#000000" id="text66"><tspan x="0" y="0" id="tspan66">Mix</tspan></text>
    <text transform="matrix(0.88,0,0,1,19.73,293.92)" style="font-weight:700;font-size:8px;font-family:GillSans-Bold, 'Gill Sans';letter-spacing:-0.04em;fill:#000000" id="text67"><tspan x="0" y="0" id="tspan67">Damp</tspan></text>
    <text transform="matrix(0.88,0,0,1,63.06,293.92)" style="font-weight:700;font-size:8px;font-family:GillSans-Bold, 'Gill Sans';letter-spacing:-0.04em;fill:#000000" id="text68"><tspan x="0" y="0" id="tspan68">Ratio</tspan></text>
    <text transform="matrix(0.88,0,0,1,104.99,293.92)" style="font-weight:700;font-size:8px;font-family:GillSans-Bold, 'Gill Sans';letter-spacing:-0.04em;fill:#000000" id="text69"><tspan x="0" y="0" id="tspan69">Comb</tspan></text>
    <text transform="matrix(0.88,0,0,1,20.76,255.26)" style="font-weight:700;font-size:8px;font-family:GillSans-Bold, 'Gill Sans';letter-spacing:-0.04em;fill:#000000" id="text70"><tspan x="0" y="0" id="tspan70">Input</tspan></text>
    <text transform="matrix(0.88,0,0,1,65.26,255.26)" style="font-weight:700;font-size:8px;font-family:GillSans-Bold, 'Gill Sans';letter-spacing:-0.04em;fill:#000000" id="text71"><tspan x="0" y="0" id="tspan71">Size</tspan></text>
    <text transform="matrix(0.88,0,0,1,106.21,255.26)" style="font-weight:700;font-size:8px;font-family:GillSans-Bold, 'Gill Sans';letter-spacing:-0.04em;fill:#000000" id="text72"><tspan x="0" y="0" id="tspan72">Time</tspan></text>
    <g id="g74">
      <path d="m 63.8,18.07 c -0.37,0 -0.71,-0.17 -0.97,-0.47 -0.51,-0.6 -0.52,-1.54 -0.04,-2.16 l 6.97,-8.88 c 0.38,-0.48 1.05,-0.65 1.57,-0.39 0.5,0.25 0.79,0.82 0.79,1.45 v 4.77 l 4.64,-5.85 c 0.38,-0.48 1.01,-0.64 1.53,-0.38 0.5,0.25 0.83,0.81 0.83,1.44 v 8.82 c 0,0.86 -0.61,1.57 -1.36,1.57 -0.75,0 -1.36,-0.7 -1.36,-1.57 v -4.79 l -4.64,5.85 c -0.38,0.48 -1.01,0.64 -1.54,0.38 -0.5,-0.24 -0.83,-0.81 -0.83,-1.44 v -4.67 l -4.61,5.8 c -0.26,0.32 -0.62,0.51 -1,0.51 v 0 z" style="fill:#2cabe1;stroke-width:0px" id="path72" />
      <path d="m 63.8,18.07 c -0.75,0 -1.35,-0.7 -1.35,-1.57 v -4.93 l -2.26,2.84 c -0.5,0.63 -1.44,0.65 -1.97,0.04 -0.51,-0.6 -0.52,-1.53 -0.03,-2.15 L 62.8,6.54 c 0.26,-0.32 0.63,-0.5 1,-0.5 0.18,0 0.37,0.04 0.54,0.12 0.5,0.25 0.82,0.81 0.82,1.44 v 8.89 c 0,0.86 -0.61,1.57 -1.36,1.57 v 0 z" style="fill:#ea2228;stroke-width:0px" id="path73" />
      <path d="m 80.4,18.09 v 0 c -0.35,0 -0.68,-0.15 -0.94,-0.42 -0.76,-0.78 -0.14,-1.84 0.29,-2.3 l 1.95,-2.36 -1.26,-0.02 c -0.56,-0.01 -1.04,-0.4 -1.24,-1 -0.19,-0.56 -0.07,-1.21 0.29,-1.64 l 3.16,-3.83 c 0.23,-0.28 0.55,-0.48 1.13,-0.47 0.33,0 0.67,0.17 0.92,0.4 0.71,0.66 0.29,1.7 -0.07,2.2 l -1.04,1.26 1.26,0.02 c 0.56,0.01 1.04,0.4 1.24,1 0.19,0.56 0.07,1.21 -0.29,1.64 l -4.1,4.97 c -0.35,0.35 -0.65,0.55 -1.3,0.54 v 0 z" style="fill:#00a650;stroke-width:0px" id="path74" />
    </g>
  </g>
  <g /></svg>